<?xml version="1.0" encoding="utf-8"?><svg id="feature4" image-rendering="auto" baseProfile="basic" version="1.1" x="0px" y="0px" width="146" height="146" xmlns="http://www.w3.org/2000/svg" xmlns:xlink="http://www.w3.org/1999/xlink"><g id="Scene-1" overflow="visible"><path fill="#FBD303" stroke="none" d="M46.8 140.25Q57.7 145.15 69.65 145.85 82.5 146.65 94.2 142.5 107 137.95 116.95 127.85 118.15 126.65 118.15 125 118.15 123.3 116.95 122.1 115.75 120.9 114.1 120.9 112.45 120.9 111.25 122.1 103.5 129.85 93.4 133.95 83.6 137.9 73 137.9 62.45 137.9 52.65 133.95 42.55 129.85 34.75 122.1 33.6 120.9 31.9 120.9 30.25 120.9 29 122.1 27.85 123.25 27.85 124.95 27.9 126.6 29 127.85 36.2 135.45 46.8 140.25M42.3 108.8Q41.1 110 41.1 111.7 41.1 113.45 42.3 114.55 51.15 122.7 61.25 125.7 70 128.3 79.1 126.95 86.85 125.85 93.9 122.05 100 118.75 103.7 114.55 104.8 113.25 104.85 111.65 104.85 110 103.7 108.8 102.5 107.6 100.85 107.6 99.15 107.6 97.95 108.8 92.9 113.9 86.25 116.55 79.9 119.15 72.95 119.15 66.05 119.15 59.7 116.55 53.1 113.9 48.05 108.8 46.9 107.65 45.2 107.65 43.5 107.65 42.3 108.8M90.35 97.15Q90.35 95.5 89.2 94.3 88 93.1 86.3 93.1 84.6 93.1 83.45 94.3 79.15 98.8 72.6 98.6 66.35 98.4 62.55 94.3 61.4 93.1 59.7 93.1 58 93.1 56.8 94.3 55.6 95.5 55.6 97.2 55.6 98.9 56.8 100.05 65.75 108.35 76.55 106.45 80.55 105.75 84.3 103.7 87.35 102.05 89.2 100.05 90.35 98.8 90.35 97.15Z"/><path fill="#FFF" stroke="none" d="M143.95 46.2Q141.95 41.65 138.35 38.2 134.8 34.75 130.15 32.95 125.35 31.1 120.2 31.3 120.2 24.95 117.7 19.15 115.3 13.5 110.95 9.2 106.6 4.85 100.95 2.45 95.15 0 88.75 0 82.1 0 76 2.7 69.95 5.4 65.5 10.25 61.4 7.15 56.55 5.5 51.7 3.9 46.5 3.9 40.35 3.9 34.75 6.2 29.3 8.4 25 12.45 20.7 16.5 18.15 21.75 15.5 27.25 15.1 33.3 8.3 36.15 4.15 42.35 0 48.6 0 56.05 0 64.591 5 71.05 6.041 72.341 7.25 73.55 14.55 80.8 24.75 80.8L121.2 80.8Q131.45 80.8 138.75 73.55 139.958 72.341 140.95 71.05 146 64.591 146 56.05 146 50.9 143.95 46.2M116.8 40Q119.05 39.4 121.2 39.4 128.15 39.4 133 44.3 137.9 49.2 137.9 56.05 137.95 62.95 133.05 67.85 131.035 69.864 128.65 71.05 125.313 72.75 121.25 72.75L24.75 72.75Q20.686 72.75 17.3 71.05 14.964 69.864 12.95 67.85 8.1 62.95 8.1 56.05 8.45 49.85 12.2 45.3 15.6 41.15 20.2 40.05 21.35 39.7 22.15 38.8 22.95 37.9 23.1 36.75 23.05 35.3 23.3 33.15 23.85 28.8 25.6 25.05 31.1 13.15 46.5 12 50.95 11.7 55.45 13.7 59.35 15.5 63.15 18.95 64.85 20.55 66.95 20.05 68.6 19.6 69.4 18.4 72.5 13.55 77.75 10.8 82.85 8.1 88.75 8.1 98.4 8.1 105.25 14.95 112.1 21.8 112.1 31.45 112.1 33.55 111.7 35.4 111.3 37.5 112.95 39.05 114.6 40.6 116.8 40Z"/><g id="s5" transform="translate(72.95 99.95)"><animate attributeName="opacity" repeatCount="indefinite" dur="2.333s" keyTimes="0;.129;.271;1" values="0;1;0;0"/><path fill="#F0582F" stroke="none" d="M17.4 -2.8Q17.4 -4.45 16.25 -5.65 15.05 -6.85 13.35 -6.85 11.65 -6.85 10.5 -5.65 6.2 -1.15 -.35 -1.35 -6.6 -1.55 -10.4 -5.65 -11.55 -6.85 -13.25 -6.85 -14.95 -6.85 -16.15 -5.65 -17.35 -4.45 -17.35 -2.75 -17.35 -1.05 -16.15 .1 -7.2 8.4 3.6 6.5 7.6 5.8 11.35 3.75 14.4 2.1 16.25 .1 17.4 -1.15 17.4 -2.8Z"/></g><g display="none"><g id="s4" transform="translate(72.95 117.5)"><animate attributeName="opacity" repeatCount="indefinite" dur="2.333s" keyTimes="0;.129;.257;.4;1" values="0;0;1;0;0"/><path fill="#F0582F" stroke="none" d="M30.75 -2.95Q31.85 -4.25 31.9 -5.85 31.9 -7.5 30.75 -8.7 29.55 -9.9 27.9 -9.9 26.2 -9.9 25 -8.7 19.95 -3.6 13.3 -.95 6.95 1.65 0 1.65 -6.9 1.65 -13.25 -.95 -19.85 -3.6 -24.9 -8.7 -26.05 -9.85 -27.75 -9.85 -29.45 -9.85 -30.65 -8.7 -31.85 -7.5 -31.85 -5.8 -31.85 -4.05 -30.65 -2.95 -21.8 5.2 -11.7 8.2 -2.95 10.8 6.15 9.45 13.9 8.35 20.95 4.55 27.05 1.25 30.75 -2.95Z"/></g><animate attributeName="display" repeatCount="indefinite" dur="2.333s" keyTimes="0;.129;1" values="none;inline;inline"/></g><g display="none"><g id="s3" transform="translate(73 133.45)"><animate attributeName="opacity" repeatCount="indefinite" dur="2.333s" keyTimes="0;.257;.386;.529;1" values="0;0;1;0;0"/><path fill="#F0582F" stroke="none" d="M43.95 -5.6Q45.15 -6.8 45.15 -8.45 45.15 -10.15 43.95 -11.35 42.75 -12.55 41.1 -12.55 39.45 -12.55 38.25 -11.35 30.5 -3.6 20.4 .5 10.6 4.45 0 4.45 -10.55 4.45 -20.35 .5 -30.45 -3.6 -38.25 -11.35 -39.4 -12.55 -41.1 -12.55 -42.75 -12.55 -44 -11.35 -45.15 -10.2 -45.15 -8.5 -45.1 -6.85 -44 -5.6 -36.8 2 -26.2 6.8 -15.3 11.7 -3.35 12.4 9.5 13.2 21.2 9.05 34 4.5 43.95 -5.6Z"/></g><animate attributeName="display" repeatCount="indefinite" dur="2.333s" keyTimes="0;.257;1" values="none;inline;inline"/></g></g></svg>