<?xml version="1.0" encoding="utf-8"?><svg id="feature2" image-rendering="auto" baseProfile="basic" version="1.1" x="0px" y="0px" width="146" height="146" xmlns="http://www.w3.org/2000/svg" xmlns:xlink="http://www.w3.org/1999/xlink"><defs><filter id="filter1" filterUnits="objectBoundingBox" width="100%" height="100%" x="0%" y="0%"><feComponentTransfer in="SourceGraphic" result="colorTrans"><feFuncR type="linear" slope="0" intercept="1"><animate attributeName="intercept" repeatCount="indefinite" dur="4.667s" keyTimes="0;.021;.043;.086;1" values="1;1;0;1;1"/><animate attributeName="slope" repeatCount="indefinite" dur="4.667s" keyTimes="0;.021;.043;.086;1" values="0;0;1;0;0"/></feFuncR><feFuncG type="linear" slope="0" intercept="1"><animate attributeName="intercept" repeatCount="indefinite" dur="4.667s" keyTimes="0;.021;.043;.086;1" values="1;1;0;1;1"/><animate attributeName="slope" repeatCount="indefinite" dur="4.667s" keyTimes="0;.021;.043;.086;1" values="0;0;1;0;0"/></feFuncG><feFuncB type="linear" slope="0" intercept="1"><animate attributeName="intercept" repeatCount="indefinite" dur="4.667s" keyTimes="0;.021;.043;.086;1" values="1;1;0;1;1"/><animate attributeName="slope" repeatCount="indefinite" dur="4.667s" keyTimes="0;.021;.043;.086;1" values="0;0;1;0;0"/></feFuncB></feComponentTransfer></filter></defs><g id="Scene-1" overflow="visible"><g display="none" id="Layer2_0_FILL"><path fill="#FFF" stroke="none" d="M117.1 37.8Q112.5 26.9 104.05 18.45 95.6 10 84.7 5.4 73.6 .7 61.45 .6 61.4 .6 61.35 .6L61.05 .6Q61 .6 60.95 .6 48.8 .7 37.7 5.4 26.8 10 18.35 18.45 9.9 26.9 5.3 37.8 .5 49.15 .5 61.5 .5 73.85 5.3 85.15 9.9 96.1 18.35 104.5 26.8 112.95 37.65 117.6 48.8 122.25 60.95 122.35L61.35 122.35Q61.4 122.35 61.45 122.35 73.6 122.25 84.75 117.6 95.6 112.95 104.05 104.5 112.5 96.1 117.1 85.15 121.9 73.85 121.9 61.5 121.9 49.15 117.1 37.8M105.85 33.6Q109.15 38.95 111.1 44.9 113.15 51 113.6 57.4L95.05 57.4Q94.65 46.2 92.15 36.15 98.35 35.2 105.85 33.6M100.5 26.45Q94.75 27.55 89.8 28.3 86.55 19.4 81.9 12.95 92.55 17.55 100.5 26.45M89.9 94.4Q94.35 95.1 100.65 96.25 92.8 105.2 81.95 109.9 86.75 103.35 89.9 94.4M95.1 65.5L113.6 65.5Q112.6 78.25 105.95 89.1 98.6 87.5 92.25 86.5 94.7 76.45 95.1 65.5M86.95 65.5Q86.5 76.1 84.05 85.45 74.45 84.4 65.15 84.25L65.15 65.5 86.95 65.5M84 37.2Q86.55 46.85 86.95 57.4L65.1 57.4 65.1 38.45Q75.1 38.2 84 37.2M65.1 9.35Q69.95 10.95 74.25 16.3 78.45 21.45 81.45 29.3 73.65 30.15 65.1 30.3L65.1 9.35M48.15 16.3Q52.45 10.95 57.3 9.35L57.3 30.3Q48.75 30.15 40.95 29.3 43.95 21.45 48.15 16.3M32.6 28.3Q27.65 27.55 21.9 26.45 29.85 17.55 40.5 12.95 35.85 19.4 32.6 28.3M11.3 44.9Q13.25 38.95 16.55 33.6 24.05 35.2 30.25 36.15 27.75 46.2 27.35 57.4L8.8 57.4Q9.25 51 11.3 44.9M21.75 96.25Q28.05 95.1 32.5 94.4 35.65 103.35 40.45 109.9 29.6 105.2 21.75 96.25M8.8 65.5L27.3 65.5Q27.7 76.45 30.15 86.5 23.8 87.5 16.45 89.1 9.8 78.25 8.8 65.5M38.35 85.45Q35.9 76.1 35.45 65.5L57.25 65.5 57.25 84.25Q47.95 84.4 38.35 85.45M40.85 93.4Q48.85 92.55 57.3 92.35L57.3 113.6Q52.4 111.95 48.1 106.6 43.85 101.35 40.85 93.4M35.45 57.4Q35.85 46.85 38.4 37.2 47.3 38.2 57.3 38.45L57.3 57.4 35.45 57.4M74.3 106.6Q70 111.95 65.1 113.6L65.1 92.35Q73.55 92.55 81.55 93.4 78.55 101.35 74.3 106.6Z"/><animate attributeName="display" repeatCount="indefinite" dur="4.667s" keyTimes="0;.093;1" values="none;inline;inline"/></g><g id="Layer1_0_FILL"><path fill="#FFF" stroke="none" d="M117.1 37.8Q112.5 26.9 104.05 18.45 95.6 10 84.7 5.4 73.6 .7 61.45 .6 61.4 .6 61.35 .6L61.05 .6Q61 .6 60.95 .6 48.8 .7 37.7 5.4 26.8 10 18.35 18.45 9.9 26.9 5.3 37.8 .5 49.15 .5 61.5 .5 73.85 5.3 85.15 9.9 96.1 18.35 104.5 26.8 112.95 37.65 117.6 48.8 122.25 60.95 122.35L61.35 122.35Q61.4 122.35 61.45 122.35 73.6 122.25 84.75 117.6 95.6 112.95 104.05 104.5 112.5 96.1 117.1 85.15 121.9 73.85 121.9 61.5 121.9 49.15 117.1 37.8M105.85 33.6Q109.15 38.95 111.1 44.9 113.15 51 113.6 57.4L95.05 57.4Q94.65 46.2 92.15 36.15 98.35 35.2 105.85 33.6M100.5 26.45Q94.75 27.55 89.8 28.3 86.55 19.4 81.9 12.95 92.55 17.55 100.5 26.45M89.9 94.4Q94.35 95.1 100.65 96.25 92.8 105.2 81.95 109.9 86.75 103.35 89.9 94.4M95.1 65.5L113.6 65.5Q112.6 78.25 105.95 89.1 98.6 87.5 92.25 86.5 94.7 76.45 95.1 65.5M86.95 65.5Q86.5 76.1 84.05 85.45 74.45 84.4 65.15 84.25L65.15 65.5 86.95 65.5M84 37.2Q86.55 46.85 86.95 57.4L65.1 57.4 65.1 38.45Q75.1 38.2 84 37.2M65.1 9.35Q69.95 10.95 74.25 16.3 78.45 21.45 81.45 29.3 73.65 30.15 65.1 30.3L65.1 9.35M48.15 16.3Q52.45 10.95 57.3 9.35L57.3 30.3Q48.75 30.15 40.95 29.3 43.95 21.45 48.15 16.3M32.6 28.3Q27.65 27.55 21.9 26.45 29.85 17.55 40.5 12.95 35.85 19.4 32.6 28.3M11.3 44.9Q13.25 38.95 16.55 33.6 24.05 35.2 30.25 36.15 27.75 46.2 27.35 57.4L8.8 57.4Q9.25 51 11.3 44.9M21.75 96.25Q28.05 95.1 32.5 94.4 35.65 103.35 40.45 109.9 29.6 105.2 21.75 96.25M8.8 65.5L27.3 65.5Q27.7 76.45 30.15 86.5 23.8 87.5 16.45 89.1 9.8 78.25 8.8 65.5M38.35 85.45Q35.9 76.1 35.45 65.5L57.25 65.5 57.25 84.25Q47.95 84.4 38.35 85.45M40.85 93.4Q48.85 92.55 57.3 92.35L57.3 113.6Q52.4 111.95 48.1 106.6 43.85 101.35 40.85 93.4M35.45 57.4Q35.85 46.85 38.4 37.2 47.3 38.2 57.3 38.45L57.3 57.4 35.45 57.4M74.3 106.6Q70 111.95 65.1 113.6L65.1 92.35Q73.55 92.55 81.55 93.4 78.55 101.35 74.3 106.6Z"/><animate attributeName="display" repeatCount="indefinite" dur="4.667s" keyTimes="0;.021;1" values="inline;none;none"/></g><g display="none"><g id="world" transform="translate(61.2 61.45)" filter="url(#filter1)"><path fill="#F0582F" stroke="none" d="M23.5 -56.05Q12.4 -60.75 .25 -60.85 .2 -60.85 .15 -60.85L-.15 -60.85Q-.2 -60.85 -.25 -60.85 -12.4 -60.75 -23.5 -56.05 -34.4 -51.45 -42.85 -43 -51.3 -34.55 -55.9 -23.65 -60.7 -12.3 -60.7 .05 -60.7 12.4 -55.9 23.7 -51.3 34.65 -42.85 43.05 -34.4 51.5 -23.55 56.15 -12.4 60.8 -.25 60.9L.15 60.9Q.2 60.9 .25 60.9 12.4 60.8 23.55 56.15 34.4 51.5 42.85 43.05 51.3 34.65 55.9 23.7 60.7 12.4 60.7 .05 60.7 -12.3 55.9 -23.65 51.3 -34.55 42.85 -43 34.4 -51.45 23.5 -56.05M39.3 -35Q33.55 -33.9 28.6 -33.15 25.35 -42.05 20.7 -48.5 31.35 -43.9 39.3 -35M3.9 -4.05L3.9 -23Q13.9 -23.25 22.8 -24.25 25.35 -14.6 25.75 -4.05L3.9 -4.05M13.05 -45.15Q17.25 -40 20.25 -32.15 12.45 -31.3 3.9 -31.15L3.9 -52.1Q8.75 -50.5 13.05 -45.15M33.85 -4.05Q33.45 -15.25 30.95 -25.3 37.15 -26.25 44.65 -27.85 47.95 -22.5 49.9 -16.55 51.95 -10.45 52.4 -4.05L33.85 -4.05M52.4 4.05Q51.4 16.8 44.75 27.65 37.4 26.05 31.05 25.05 33.5 15 33.9 4.05L52.4 4.05M25.75 4.05Q25.3 14.65 22.85 24 13.25 22.95 3.95 22.8L3.95 4.05 25.75 4.05M20.75 48.45Q25.55 41.9 28.7 32.95 33.15 33.65 39.45 34.8 31.6 43.75 20.75 48.45M20.35 31.95Q17.35 39.9 13.1 45.15 8.8 50.5 3.9 52.15L3.9 30.9Q12.35 31.1 20.35 31.95M-52.4 -4.05Q-51.95 -10.45 -49.9 -16.55 -47.95 -22.5 -44.65 -27.85 -37.15 -26.25 -30.95 -25.3 -33.45 -15.25 -33.85 -4.05L-52.4 -4.05M-3.9 -31.15Q-12.45 -31.3 -20.25 -32.15 -17.25 -40 -13.05 -45.15 -8.75 -50.5 -3.9 -52.1L-3.9 -31.15M-28.6 -33.15Q-33.55 -33.9 -39.3 -35 -31.35 -43.9 -20.7 -48.5 -25.35 -42.05 -28.6 -33.15M-25.75 -4.05Q-25.35 -14.6 -22.8 -24.25 -13.9 -23.25 -3.9 -23L-3.9 -4.05 -25.75 -4.05M-3.95 4.05L-3.95 22.8Q-13.25 22.95 -22.85 24 -25.3 14.65 -25.75 4.05L-3.95 4.05M-28.7 32.95Q-25.55 41.9 -20.75 48.45 -31.6 43.75 -39.45 34.8 -33.15 33.65 -28.7 32.95M-13.1 45.15Q-17.35 39.9 -20.35 31.95 -12.35 31.1 -3.9 30.9L-3.9 52.15Q-8.8 50.5 -13.1 45.15M-33.9 4.05Q-33.5 15 -31.05 25.05 -37.4 26.05 -44.75 27.65 -51.4 16.8 -52.4 4.05L-33.9 4.05Z"/></g><animate attributeName="display" repeatCount="indefinite" dur="4.667s" keyTimes="0;.021;.093;1" values="none;inline;none;none"/></g><g id="cursor" transform="translate(108.15 108.3)"><animateTransform attributeName="transform" additive="replace" type="translate" repeatCount="indefinite" dur="4.667s" keyTimes="0;.029;.064;1" values="108.15,108.3;103.15,103.3;108.15,108.3;108.15,108.3"/><path fill="#FBD301" stroke="none" d="M18.3 -.15L35.3 -7.4Q37.95 -8.65 37.85 -11.4 37.75 -14.1 35.05 -15L-32.5 -37.45Q-35.05 -38.3 -36.7 -36.6 -38.4 -34.9 -37.6 -32.3L-15.15 35.1Q-13.95 38 -11 37.8 -9.85 37.7 -8.85 37.05 -7.9 36.4 -7.6 35.4L-.3 18.4 15.25 33.9Q16.4 35.1 18.1 35.1 19.75 35.1 20.95 33.9L33.8 21.1Q34.9 20.15 35 18.4 35.1 16.5 33.8 15.35L18.3 -.15M9.7 -5.2Q7.5 -4.05 7.25 -2.05 7 -.2 8.45 1.4L25.3 18.25 18.2 25.35 1.3 8.5Q-.4 6.7 -2.7 7.45 -4.7 8.15 -5.3 9.8L-10.75 22.5 -27.35 -27.15 22.4 -10.65 9.7 -5.2Z"/></g></g></svg>