<?xml version="1.0" encoding="utf-8"?><svg id="feature1" image-rendering="auto" baseProfile="basic" version="1.1" x="0px" y="0px" width="146" height="146" xmlns="http://www.w3.org/2000/svg" xmlns:xlink="http://www.w3.org/1999/xlink"><g id="Scene-1" overflow="visible"><g id="trs" transform="translate(73.15 142)"><animateTransform attributeName="transform" additive="replace" type="translate" repeatCount="indefinite" dur="0.667s" keyTimes="0;.95;1" values="73.15,142;73.171,142.091;73.171,142.091"/><animateTransform attributeName="transform" additive="sum" type="rotate" repeatCount="indefinite" dur="0.667s" keyTimes="0;.95;1" values="0,0,0;-45,0,0;-45,0,0"/><animateTransform attributeName="transform" additive="sum" type="translate" repeatCount="indefinite" dur="0.667s" keyTimes="0;.95;1" values="0,0;.05,-.15;.05,-.15"/><path fill="#FBD303" stroke="none" d="M33.95 -49.9Q32.85 -51.05 31.1 -51.05 29.4 -51.05 28.25 -49.9L21 -42.65Q19.2 -43.6 17.4 -44.3 16.4 -44.7 15.35 -45.05L15.35 -55.3Q15.35 -56.95 14.15 -58.15 12.95 -59.35 11.3 -59.35L-11.25 -59.35Q-12.9 -59.35 -14.1 -58.15 -15.35 -56.95 -15.35 -55.3L-15.35 -45.05Q-16.6 -44.65 -17.85 -44.1 -19.4 -43.45 -21 -42.65L-28.25 -49.9Q-29.4 -51.1 -31.05 -51.1 -32.75 -51.1 -33.95 -49.9L-49.85 -34Q-51.05 -32.8 -51.05 -31.1 -51.05 -29.5 -49.85 -28.2L-42.65 -21Q-44 -18.25 -45 -15.35L-55.25 -15.35Q-56.95 -15.35 -58.1 -14.15 -59.3 -12.95 -59.3 -11.25L-59.35 11.35Q-59.35 13.05 -58.15 14.2 -56.95 15.45 -55.25 15.45L-45 15.45Q-44.05 18.3 -42.65 21.05L-49.9 28.3Q-51.1 29.5 -51.1 31.15 -51.1 32.85 -49.9 34.05L-33.95 49.95Q-32.85 51.1 -31.1 51.1 -29.4 51.1 -28.25 49.95L-21 42.7Q-18.2 44.15 -15.35 45.1L-15.35 55.35Q-15.35 57 -14.15 58.2 -12.95 59.4 -11.3 59.4L11.25 59.4Q12.9 59.4 14.1 58.2 15.35 57 15.35 55.35L15.35 45.1Q18.15 44.15 21 42.7L28.25 49.95Q29.4 51.15 31.05 51.15 32.75 51.15 33.95 49.95L49.85 34.05Q51.05 32.85 51.05 31.15 51.05 29.55 49.85 28.25L42.65 21.05Q44 18.3 45 15.4L55.25 15.4Q56.95 15.4 58.1 14.2 59.3 13 59.3 11.3L59.35 -11.3Q59.35 -13 58.15 -14.15 56.95 -15.4 55.25 -15.4L45 -15.4Q44.05 -18.25 42.65 -21L49.9 -28.25Q51.1 -29.45 51.1 -31.1 51.1 -32.8 49.9 -34L33.95 -49.9M22.35 -33.7Q23.65 -33.85 24.65 -34.8L31.15 -41.3 41.35 -31.1 34.8 -24.6Q33.8 -23.6 33.65 -22.3 33.45 -20.95 34.15 -19.75 36.55 -15.65 37.9 -11.05 38 -10.65 38.1 -10.25 38.45 -8.95 39.55 -8.05 40.65 -7.2 42.05 -7.2L51.2 -7.2 51.2 7.3 42.05 7.3Q40.65 7.3 39.55 8.15 38.45 8.95 38.1 10.3 38 10.7 37.85 11.1 36.55 15.65 34.15 19.75 33.45 20.95 33.65 22.3 33.85 23.65 34.8 24.65L41.3 31.15 31.1 41.3 24.6 34.85Q23.6 33.85 22.25 33.7 20.9 33.5 19.7 34.2 15.2 36.8 10.2 38.15 8.9 38.5 8.05 39.6 7.2 40.7 7.2 42.05L7.2 51.25 -7.25 51.25 -7.25 42.1Q-7.25 40.7 -8.1 39.65 -8.95 38.55 -10.3 38.2 -15.3 36.8 -19.75 34.25 -20.95 33.55 -22.35 33.75 -23.65 33.9 -24.65 34.85L-31.15 41.35 -41.35 31.15 -34.8 24.65Q-33.8 23.65 -33.65 22.35 -33.45 21 -34.15 19.8 -36.55 15.7 -37.9 11.1 -38 10.7 -38.1 10.3 -38.45 9 -39.55 8.1 -40.65 7.25 -42.05 7.25L-51.2 7.25 -51.2 -7.25 -42.05 -7.25Q-40.65 -7.25 -39.55 -8.1 -38.45 -8.9 -38.1 -10.25 -38 -10.65 -37.85 -11.05 -36.55 -15.6 -34.15 -19.7 -33.45 -20.9 -33.65 -22.25 -33.85 -23.6 -34.8 -24.6L-41.3 -31.1 -31.1 -41.25 -24.6 -34.8Q-23.6 -33.8 -22.25 -33.65 -20.9 -33.45 -19.7 -34.15 -18.8 -34.7 -17.85 -35.15 -14.2 -37 -10.2 -38.1 -8.9 -38.45 -8.05 -39.55 -7.2 -40.65 -7.2 -42L-7.2 -51.2 7.25 -51.2 7.25 -42.05Q7.25 -40.65 8.1 -39.6 8.95 -38.5 10.3 -38.15 14 -37.1 17.4 -35.45 18.6 -34.85 19.75 -34.2 20.95 -33.5 22.35 -33.7Z"/></g><path fill="#FFF" stroke="none" d="M146.15 12.15Q146.15 7.1 142.6 3.55 139 0 134 0L12.35 0Q7.3 0 3.75 3.55 .15 7.1 .15 12.15L.15 133.85Q.15 138.85 3.75 142.4 7.3 146 12.35 146L134 146Q139 146 142.6 142.4 146.15 138.85 146.15 133.85L146.15 12.15M134 8.1Q135.7 8.1 136.9 9.3 138.05 10.45 138.05 12.15L138.05 34.4 8.3 34.4 8.3 12.15Q8.3 10.5 9.5 9.3 10.65 8.1 12.35 8.1L134 8.1M12.3 137.95Q10.65 137.95 9.45 136.75 8.25 135.6 8.25 133.9L8.25 42.7 138 42.7 138 133.85Q138 135.5 136.85 136.7 135.65 137.9 134 137.9L12.3 137.95Z"/><path fill="#F0582F" stroke="none" d="M74.7 25.4Q76.4 25.4 77.6 24.2 78.75 23 78.75 21.35 78.75 19.65 77.6 18.45 76.4 17.25 74.75 17.25L19.75 17.25Q18.1 17.25 16.9 18.45 15.7 19.65 15.7 21.35 15.7 23 16.85 24.2 18.05 25.4 19.75 25.4L74.7 25.4M103.15 21.35Q103.15 19.65 101.95 18.45 100.75 17.25 99.05 17.25L92.75 17.25Q91.05 17.25 89.9 18.45 88.7 19.65 88.7 21.35 88.7 23 89.9 24.2 91.05 25.4 92.75 25.4L99.05 25.4Q100.75 25.4 101.95 24.2 103.15 23 103.15 21.35M126.25 24.2Q127.45 23 127.45 21.35 127.45 19.65 126.25 18.45 125.05 17.25 123.35 17.25L117.05 17.25Q115.4 17.25 114.2 18.45 113 19.65 113 21.35 113 23 114.2 24.2 115.35 25.4 117.05 25.4L123.35 25.4Q125.05 25.4 126.25 24.2Z"/><path fill="#FBD303" stroke="none" d="M45.6 130.95Q44.745 133.110 44.2 135.45 43.971 136.651 43.8 137.9L43.05 137.9 43.05 138.2 102.8 138.2 102.8 137.9 102.5 137.9Q102.333 136.651 102.05 135.45 101.574 133.110 100.7 130.95 98.230 124.535 92.7 119.7 84.3 112.3 73.15 112.3 62 112.3 53.6 119.7 48.102 124.535 45.6 130.95M51.95 137.9Q52.192 136.638 52.55 135.45 53.300 133.048 54.55 130.95 56.404 127.875 59.35 125.45 65.35 120.4 73.15 120.4 81 120.4 87 125.45 89.945 127.875 91.75 130.95 93.024 133.048 93.75 135.45 94.116 136.638 94.35 137.9L51.95 137.9Z"/></g></svg>