<!-- Generated by IcoMoon.io -->
<svg version="1.1" xmlns="http://www.w3.org/2000/svg" width="32" height="32" viewBox="0 0 32 32">
<title>analytics</title>
<path id="svg-ico" fill="#ee5586" d="M31.087 17.587c-2.262 0-4.063-3.762-5.813-7.406-0.606-1.262-1.175-2.456-1.712-3.362-0.125-0.206-0.056-0.475 0.15-0.6 0.206-0.119 0.475-0.056 0.6 0.156 0.556 0.944 1.137 2.15 1.75 3.431 1.538 3.213 3.469 7.212 5.238 6.894 0.231-0.038 0.462 0.113 0.506 0.35s-0.113 0.462-0.35 0.506c-0.125 0.025-0.25 0.031-0.369 0.031z"></path>
<path id="svg-ico" fill="#ee5586" d="M12.5 22.4c-0.1 0-0.2-0.031-0.281-0.1-0.188-0.156-0.213-0.431-0.056-0.613 1.481-1.781 2.85-5.181 4.169-8.463 1.019-2.531 1.981-4.925 2.962-6.513 0.125-0.206 0.4-0.269 0.6-0.144 0.206 0.125 0.269 0.394 0.144 0.6-0.944 1.525-1.894 3.881-2.894 6.375-1.344 3.35-2.738 6.813-4.306 8.7-0.088 0.1-0.213 0.156-0.338 0.156z"></path>
<path fill="#5e686c" d="M0.725 23.738c-0.075 0-0.144-0.019-0.213-0.056-0.213-0.119-0.287-0.381-0.169-0.594 1.15-2.056 2.181-3.113 3.244-3.313 1.144-0.212 2.087 0.556 3.081 1.375 0.35 0.288 0.719 0.587 1.1 0.856 0.2 0.137 0.25 0.413 0.112 0.606-0.138 0.2-0.412 0.25-0.606 0.113-0.412-0.288-0.794-0.6-1.162-0.9-0.869-0.712-1.625-1.331-2.362-1.188-0.775 0.144-1.638 1.087-2.638 2.881-0.081 0.137-0.231 0.219-0.387 0.219z"></path>
<path fill="#5e686c" d="M31.375 29.1h-30.581c-0.244 0-0.438-0.194-0.438-0.438s0.194-0.438 0.438-0.438h30.581c0.244 0 0.438 0.194 0.438 0.438s-0.194 0.438-0.438 0.438z"></path>
<path id="svg-ico" fill="#ee5586" d="M21.8 8.131c-1.688 0-3.056-1.375-3.056-3.056s1.375-3.056 3.056-3.056c1.688 0 3.056 1.375 3.056 3.056s-1.369 3.056-3.056 3.056zM21.8 2.888c-1.206 0-2.188 0.981-2.188 2.188s0.981 2.188 2.188 2.188c1.206 0 2.188-0.981 2.188-2.188s-0.981-2.188-2.188-2.188z"></path>
<path fill="#5e686c" d="M10.219 26.313c-1.688 0-3.056-1.375-3.056-3.056 0-1.688 1.375-3.056 3.056-3.056s3.056 1.375 3.056 3.056c0.006 1.681-1.369 3.056-3.056 3.056zM10.219 21.069c-1.206 0-2.188 0.981-2.188 2.188s0.981 2.188 2.188 2.188 2.188-0.981 2.188-2.188-0.981-2.188-2.188-2.188z"></path>
</svg>
