<?xml version="1.0" encoding="utf-8"?>
<!-- Generator: Adobe Illustrator 22.0.0, SVG Export Plug-In . SVG Version: 6.00 Build 0)  -->
<svg version="1.1" id="Layer_1" xmlns="http://www.w3.org/2000/svg" xmlns:xlink="http://www.w3.org/1999/xlink" x="0px" y="0px"
	 viewBox="0 0 11.5 32" style="enable-background:new 0 0 11.5 32;" xml:space="preserve">
<title>arrowdown</title>
<path fill="#5e686c" d="M5.8,31.8c-0.1,0-0.2-0.1-0.2-0.2V0.5c0-0.1,0.1-0.2,0.2-0.2S6,0.4,6,0.5v31.1C6,31.7,5.9,31.8,5.8,31.8z"/>
<path id="svg-ico" d="M11.1,25.9c-0.1-0.1-0.3-0.1-0.4,0l-4.9,5.3l-5-5.3c-0.1-0.1-0.3-0.1-0.4,0c-0.1,0.1-0.1,0.3,0,0.4l5.2,5.5
	c0,0,0,0,0,0c0,0,0,0,0,0c0,0,0.1,0.1,0.2,0.1c0.1,0,0.1,0,0.2-0.1c0,0,0,0,0,0c0,0,0,0,0,0l5.1-5.5C11.2,26.2,11.2,26,11.1,25.9z"
	/>
</svg>
