<!-- Generated by IcoMoon.io -->
<svg version="1.1" xmlns="http://www.w3.org/2000/svg" width="32" height="32" viewBox="0 0 32 32">
<title>audio</title>
<path id="svg-ico" fill="#ee5586" d="M27.012 28.15c-0.106 0-0.206-0.038-0.294-0.119-0.169-0.163-0.175-0.425-0.012-0.594 2.637-2.762 4.156-6.813 4.156-11.1s-1.512-8.338-4.156-11.1c-0.163-0.169-0.156-0.438 0.012-0.594 0.169-0.162 0.438-0.156 0.594 0.013 2.788 2.919 4.387 7.181 4.387 11.681 0 4.506-1.6 8.762-4.387 11.681-0.081 0.087-0.188 0.131-0.3 0.131z"></path>
<path id="svg-ico" fill="#ee5586" d="M23.637 25.019c-0.113 0-0.219-0.044-0.3-0.125-0.163-0.169-0.156-0.431 0.006-0.594 1.981-1.931 3.119-4.838 3.119-7.963s-1.137-6.031-3.119-7.963c-0.169-0.162-0.169-0.431-0.006-0.594 0.163-0.169 0.431-0.169 0.594-0.006 2.144 2.094 3.375 5.213 3.375 8.563s-1.231 6.475-3.375 8.563c-0.081 0.081-0.188 0.119-0.294 0.119z"></path>
<path fill="#5e686c" d="M20.3 21.831c-0.119 0-0.238-0.050-0.325-0.15-0.15-0.181-0.125-0.444 0.050-0.594 1.275-1.063 2.031-2.837 2.031-4.75 0-1.938-0.781-3.731-2.081-4.794-0.181-0.15-0.206-0.412-0.063-0.594 0.15-0.181 0.413-0.206 0.594-0.063 1.5 1.219 2.394 3.256 2.394 5.444 0 2.156-0.875 4.175-2.331 5.4-0.075 0.069-0.169 0.1-0.269 0.1z"></path>
<path fill="#5e686c" d="M14.119 28.931c-0.088 0-0.175-0.025-0.25-0.081l-8.481-6.344h-4.537c-0.231 0-0.419-0.188-0.419-0.419v-11.5c0-0.231 0.188-0.419 0.419-0.419h4.531l8.481-6.344c0.131-0.094 0.3-0.112 0.444-0.038 0.144 0.069 0.231 0.219 0.231 0.375v24.344c0 0.163-0.088 0.306-0.231 0.375-0.063 0.031-0.125 0.050-0.188 0.050zM1.275 21.663h4.25c0.094 0 0.181 0.031 0.25 0.081l7.919 5.919v-22.656l-7.919 5.919c-0.075 0.056-0.162 0.081-0.25 0.081h-4.25v10.656z"></path>
</svg>
