<!-- Generated by IcoMoon.io -->
<svg version="1.1" xmlns="http://www.w3.org/2000/svg" width="32" height="32" viewBox="0 0 32 32">
<title>battery</title>
<path id="svg-ico" fill="#ee5586" d="M11.381 8.581h-2.406v-3.069c0-0.237-0.188-0.425-0.425-0.425s-0.425 0.188-0.425 0.425v3.069h-3.050v-3.069c0-0.237-0.188-0.425-0.425-0.425s-0.425 0.188-0.425 0.425v3.069h-2.144c-0.238 0-0.425 0.188-0.425 0.425v2.875c0 1.662 1.4 3.063 3.063 3.063h1.587v16.344c0 0.238 0.188 0.425 0.425 0.425s0.425-0.188 0.425-0.425v-16.344h1.588c1.688 0 3.069-1.375 3.069-3.063v-2.875c-0.006-0.238-0.194-0.425-0.431-0.425zM10.956 11.875c0 1.219-0.994 2.219-2.219 2.219h-4.019c-1.2 0-2.219-1.012-2.219-2.219v-2.45h8.456v2.45z"></path>
<path fill="#5e686c" d="M29.156 3.138h-14.325c-0.787 0-1.456 0.694-1.456 1.513v25.544c0 0.819 0.669 1.512 1.456 1.512h14.325c0.794 0 1.462-0.694 1.462-1.512v-25.544c0-0.819-0.669-1.513-1.462-1.513zM29.769 30.194c0 0.381-0.325 0.663-0.613 0.663h-14.325c-0.325 0-0.613-0.313-0.613-0.663v-25.544c0-0.356 0.287-0.669 0.613-0.669v0h14.325c0.319 0 0.613 0.319 0.613 0.669v25.544z"></path>
<path fill="#5e686c" d="M16.931 1.137h10.131c0.238 0 0.425-0.188 0.425-0.425s-0.188-0.425-0.425-0.425h-10.131c-0.238 0-0.425 0.188-0.425 0.425s0.188 0.425 0.425 0.425z"></path>
<path id="svg-ico" fill="#ee5586" d="M24.5 17.831l-4.35-0.488 2.512-6.025c0.087-0.219-0.012-0.463-0.231-0.556-0.212-0.094-0.462 0.012-0.556 0.231l-2.725 6.55c-0.050 0.125-0.044 0.262 0.025 0.381 0.069 0.113 0.188 0.194 0.319 0.206l4.375 0.488-2 5.494c-0.081 0.219 0.031 0.462 0.256 0.544 0.050 0.019 0.094 0.025 0.144 0.025 0.175 0 0.337-0.106 0.4-0.281l2.181-6.006c0.044-0.119 0.031-0.256-0.038-0.369-0.069-0.106-0.181-0.175-0.313-0.194z"></path>
</svg>
