<!-- Generated by IcoMoon.io -->
<svg version="1.1" xmlns="http://www.w3.org/2000/svg" width="32" height="32" viewBox="0 0 32 32">
<title>bitcoin</title>
<path fill="#5e686c" d="M16.012 0.219c-8.069 0-14.813 6.044-15.681 14.050-0.025 0.231 0.144 0.438 0.369 0.463 0.225 0.019 0.437-0.144 0.463-0.369 0.825-7.588 7.206-13.306 14.85-13.306 8.238 0 14.931 6.7 14.931 14.931s-6.7 14.938-14.931 14.938c-7.637 0-14.025-5.719-14.844-13.306-0.025-0.231-0.238-0.4-0.463-0.369-0.231 0.025-0.394 0.231-0.369 0.462 0.869 8.012 7.612 14.050 15.675 14.050 8.694 0 15.769-7.075 15.769-15.769 0-8.7-7.075-15.775-15.769-15.775z"></path>
<path fill="#5e686c" d="M16.012 27.525c6.363 0 11.537-5.175 11.537-11.537s-5.175-11.537-11.538-11.537c-6.363 0-11.537 5.175-11.537 11.537s5.175 11.537 11.537 11.537zM16.012 5.294c5.9 0 10.7 4.8 10.7 10.7s-4.8 10.7-10.7 10.7c-5.9-0.006-10.7-4.806-10.7-10.706s4.8-10.694 10.7-10.694z"></path>
<path id="svg-ico" fill="#ee5586" d="M12.944 15.988v4.344h-0.637c-0.231 0-0.419 0.188-0.419 0.419s0.188 0.419 0.419 0.419h1.7v0.644c0 0.231 0.188 0.419 0.419 0.419s0.419-0.188 0.419-0.419v-0.637h2.338v0.637c0 0.231 0.188 0.419 0.419 0.419s0.419-0.188 0.419-0.419v-0.725c1.212-0.306 2.119-1.406 2.119-2.719 0-1.262-0.837-2.331-1.994-2.681 0.569-0.512 0.931-1.256 0.931-2.081 0-0.887-0.413-1.675-1.056-2.188v-1.25c0-0.231-0.188-0.419-0.419-0.419s-0.419 0.188-0.419 0.419v0.794c-0.281-0.1-0.587-0.15-0.906-0.15h-1.431v-0.637c0-0.231-0.188-0.419-0.419-0.419s-0.419 0.188-0.419 0.419v0.637h-1.7c-0.231 0-0.419 0.188-0.419 0.419s0.188 0.419 0.419 0.419h0.637v4.338c0 0 0 0 0 0zM17.337 16.406c1.081 0 1.962 0.881 1.962 1.962 0 1.006-0.762 1.837-1.738 1.95-0.006 0-0.012 0-0.025 0-0.069 0.006-0.137 0.012-0.206 0.012h-3.55v-3.925h3.556zM18.238 13.606c0 1.081-0.881 1.963-1.962 1.963h-2.494v-3.925h2.494c1.081 0 1.962 0.881 1.962 1.963z"></path>
</svg>
