<!-- Generated by IcoMoon.io -->
<svg version="1.1" xmlns="http://www.w3.org/2000/svg" width="32" height="32" viewBox="0 0 32 32">
<title>bookmark</title>
<path fill="#5e686c" d="M29.031 12.094h-3.631c-0.231 0-0.419-0.188-0.419-0.419s0.188-0.419 0.419-0.419h3.206v-4.963h-3.206c-0.231 0-0.419-0.188-0.419-0.419s0.188-0.419 0.419-0.419h3.631c0.231 0 0.419 0.188 0.419 0.419v5.806c0 0.225-0.188 0.412-0.419 0.412z"></path>
<path fill="#5e686c" d="M29.031 12.094h-5.081c-0.231 0-0.419-0.188-0.419-0.419v-5.806c0-0.231 0.188-0.419 0.419-0.419h5.081c0.231 0 0.419 0.188 0.419 0.419v5.806c0 0.231-0.188 0.419-0.419 0.419zM24.375 11.25h4.238v-4.963h-4.238v4.963z"></path>
<path id="svg-ico" fill="#ee5586" d="M8.713 31.688h-5.806c-0.231 0-0.419-0.188-0.419-0.419v-30.481c0-0.231 0.188-0.419 0.419-0.419h5.806c0.231 0 0.419 0.188 0.419 0.419s-0.188 0.419-0.419 0.419h-5.381v29.631h5.381c0.231 0 0.419 0.188 0.419 0.419s-0.188 0.431-0.419 0.431z"></path>
<path fill="#5e686c" d="M22.5 31.688h-13.688c-0.231 0-0.419-0.188-0.419-0.419s0.188-0.419 0.419-0.419h13.688c1.369 0 2.481-1.119 2.481-2.488v-24.669c0-1.369-1.113-2.487-2.481-2.487h-13.65c-0.231 0-0.419-0.188-0.419-0.419s0.188-0.419 0.419-0.419h13.65c1.837 0 3.325 1.494 3.325 3.331v24.663c0 1.831-1.494 3.325-3.325 3.325z"></path>
<path fill="#5e686c" d="M22.5 31.688h-19.594c-0.231 0-0.419-0.188-0.419-0.419v-30.481c0-0.231 0.188-0.419 0.419-0.419h19.594c1.837 0 3.325 1.494 3.325 3.331v24.663c0 1.831-1.494 3.325-3.325 3.325zM3.331 30.844h19.169c1.369 0 2.481-1.119 2.481-2.488v-24.663c0-1.369-1.113-2.487-2.481-2.487h-19.169v29.637z"></path>
<path id="svg-ico" fill="#ee5586" d="M8.713 31.688c-0.231 0-0.419-0.188-0.419-0.419v-30.481c0-0.231 0.188-0.419 0.419-0.419s0.419 0.188 0.419 0.419v30.475c0.006 0.238-0.188 0.425-0.419 0.425z"></path>
<path fill="#5e686c" d="M19.6 8.419c-0.231 0-0.419-0.188-0.419-0.419v-4.219c0-0.231 0.188-0.419 0.419-0.419s0.419 0.188 0.419 0.419v4.219c0 0.231-0.188 0.419-0.419 0.419z"></path>
</svg>
