<!-- Generated by IcoMoon.io -->
<svg version="1.1" xmlns="http://www.w3.org/2000/svg" width="32" height="32" viewBox="0 0 32 32">
<title>branch</title>
<path id="svg-ico" fill="#ee5586" d="M11.488 20c-0.106 0-0.213-0.044-0.3-0.125-0.162-0.163-0.162-0.431 0-0.594l11.438-11.444c0.163-0.162 0.431-0.162 0.594 0s0.163 0.431 0 0.594l-11.431 11.444c-0.088 0.081-0.194 0.125-0.3 0.125z"></path>
<path fill="#5e686c" d="M14.012 3.525c-0.106 0-0.213-0.044-0.3-0.125l-2.231-2.231-2.231 2.231c-0.162 0.163-0.431 0.163-0.594 0s-0.162-0.431 0-0.594l2.531-2.525c0.162-0.163 0.431-0.163 0.594 0l2.531 2.525c0.162 0.163 0.162 0.431 0 0.594-0.081 0.081-0.194 0.125-0.3 0.125z"></path>
<path id="svg-ico" fill="#ee5586" d="M22.925 12.131c-0.231 0-0.419-0.188-0.419-0.419v-3.15h-3.15c-0.231 0-0.419-0.188-0.419-0.419s0.188-0.419 0.419-0.419h3.575c0.231 0 0.419 0.188 0.419 0.419v3.575c0 0.225-0.194 0.412-0.425 0.412z"></path>
<path fill="#5e686c" d="M11.488 31.875c-1.394 0-2.525-1.131-2.525-2.525s1.131-2.525 2.525-2.525 2.525 1.131 2.525 2.525c0 1.394-1.131 2.525-2.525 2.525zM11.488 27.663c-0.931 0-1.681 0.756-1.681 1.681s0.756 1.681 1.681 1.681 1.681-0.756 1.681-1.681-0.75-1.681-1.681-1.681z"></path>
<path fill="#5e686c" d="M11.488 27.663c-0.231 0-0.419-0.188-0.419-0.419v-26.675c0-0.231 0.188-0.419 0.419-0.419s0.419 0.188 0.419 0.419v26.675c0 0.231-0.188 0.419-0.419 0.419z"></path>
</svg>
