<!-- Generated by IcoMoon.io -->
<svg version="1.1" xmlns="http://www.w3.org/2000/svg" width="32" height="32" viewBox="0 0 32 32">
<title>browser</title>
<path fill="#5e686c" d="M31.419 3.587h-30.688c-0.237 0-0.425 0.188-0.425 0.425v24.55c0 0.238 0.188 0.425 0.425 0.425h30.688c0.238 0 0.425-0.188 0.425-0.425v-24.55c0-0.237-0.188-0.425-0.425-0.425zM30.994 4.438v6.475h-29.837v-6.475h29.837zM1.156 28.137v-16.369h29.837v16.369h-29.837z"></path>
<path id="svg-ico" fill="#ee5586" d="M5.056 9.381c0.938 0 1.706-0.762 1.706-1.7s-0.763-1.706-1.706-1.706c-0.938 0-1.7 0.763-1.7 1.706 0 0.937 0.763 1.7 1.7 1.7zM5.056 6.825c0.469 0 0.85 0.381 0.85 0.856 0 0.469-0.381 0.85-0.85 0.85s-0.85-0.381-0.85-0.85c0-0.469 0.381-0.856 0.85-0.856z"></path>
<path id="svg-ico" fill="#ee5586" d="M9.55 9.381c0.938 0 1.7-0.762 1.7-1.7s-0.762-1.706-1.7-1.706c-0.938 0-1.706 0.763-1.706 1.706 0.006 0.937 0.769 1.7 1.706 1.7zM9.55 6.825c0.469 0 0.85 0.381 0.85 0.856 0 0.469-0.381 0.85-0.85 0.85s-0.85-0.381-0.85-0.85c0-0.469 0.381-0.856 0.85-0.856z"></path>
<path id="svg-ico" fill="#ee5586" d="M14.044 9.381c0.938 0 1.706-0.762 1.706-1.7s-0.762-1.706-1.706-1.706c-0.938 0-1.7 0.763-1.7 1.706 0 0.937 0.762 1.7 1.7 1.7zM14.044 6.825c0.469 0 0.85 0.381 0.85 0.856 0 0.469-0.381 0.85-0.85 0.85s-0.85-0.381-0.85-0.85c0-0.469 0.381-0.856 0.85-0.856z"></path>
</svg>
