<!-- Generated by IcoMoon.io -->
<svg version="1.1" xmlns="http://www.w3.org/2000/svg" width="32" height="32" viewBox="0 0 32 32">
<title>bulb</title>
<path fill="#5e686c" d="M16.25 26.85c-2.131 0-3.294-0.256-3.894-0.856-0.537-0.538-0.531-1.238-0.531-1.975 0-0.775 0.006-1.656-0.594-2.606-0.55-0.881-1.256-1.825-2.006-2.819-1.85-2.475-3.763-5.031-3.763-7.244 0-6.019 4.838-10.912 10.788-10.912s10.788 4.894 10.788 10.912c0 2.219-1.913 4.775-3.769 7.244-0.744 0.994-1.45 1.938-2.006 2.819-0.6 0.956-0.594 1.831-0.594 2.606 0 0.738 0.006 1.438-0.531 1.975-0.594 0.6-1.756 0.856-3.887 0.856zM16.25 1.281c-5.481 0-9.944 4.519-9.944 10.069 0 1.938 1.831 4.375 3.6 6.737 0.756 1.012 1.475 1.962 2.044 2.875 0.725 1.163 0.725 2.212 0.719 3.063 0 0.694 0.006 1.1 0.281 1.375 0.406 0.413 1.488 0.613 3.3 0.613s2.887-0.2 3.3-0.613c0.275-0.275 0.288-0.681 0.288-1.375-0.006-0.844-0.006-1.9 0.719-3.063 0.569-0.913 1.288-1.869 2.044-2.875 1.769-2.363 3.6-4.8 3.6-6.738-0.006-5.556-4.469-10.069-9.95-10.069z"></path>
<path fill="#5e686c" d="M19.012 29.613h-5.525c-0.231 0-0.419-0.188-0.419-0.419s0.188-0.419 0.419-0.419h5.525c0.231 0 0.419 0.188 0.419 0.419 0.006 0.231-0.188 0.419-0.419 0.419z"></path>
<path fill="#5e686c" d="M19.012 31.688h-5.525c-0.231 0-0.419-0.188-0.419-0.419s0.188-0.419 0.419-0.419h5.525c0.231 0 0.419 0.188 0.419 0.419 0.006 0.231-0.188 0.419-0.419 0.419z"></path>
<path id="svg-ico" fill="#ee5586" d="M19.012 13.025c-0.106 0-0.219-0.044-0.3-0.125l-3.85-3.85-3.85 3.85c-0.162 0.162-0.431 0.162-0.594 0s-0.162-0.431 0-0.594l4.15-4.15c0.081-0.081 0.188-0.125 0.3-0.125v0c0.113 0 0.219 0.044 0.3 0.125l4.144 4.15c0.163 0.162 0.163 0.431 0 0.594-0.081 0.088-0.194 0.125-0.3 0.125z"></path>
<path id="svg-ico" fill="#ee5586" d="M22.125 13.025c-0.106 0-0.219-0.044-0.3-0.125l-3.85-3.85-3.85 3.856c-0.162 0.162-0.431 0.162-0.594 0s-0.162-0.431 0-0.594l4.15-4.15c0.163-0.162 0.431-0.162 0.594 0l4.15 4.15c0.163 0.162 0.163 0.431 0 0.594-0.087 0.081-0.194 0.119-0.3 0.119z"></path>
</svg>
