<!-- Generated by IcoMoon.io -->
<svg version="1.1" xmlns="http://www.w3.org/2000/svg" width="32" height="32" viewBox="0 0 32 32">
<title>calendar</title>
<path fill="#5e686c" d="M30.956 1.744h-5.894v-1.156c0-0.237-0.194-0.425-0.425-0.425-0.238 0-0.425 0.188-0.425 0.425v1.156h-15.75v-1.156c0-0.237-0.194-0.425-0.425-0.425-0.237 0-0.425 0.188-0.425 0.425v1.156h-6.688c-0.238 0-0.425 0.188-0.425 0.425v29.244c0 0.238 0.194 0.425 0.425 0.425h30.031c0.238 0 0.425-0.194 0.425-0.425v-29.244c0-0.238-0.188-0.425-0.425-0.425zM1.35 2.594h6.263v0.362c0 0.237 0.194 0.425 0.425 0.425s0.425-0.188 0.425-0.425v-0.362h15.744v0.362c0 0.237 0.188 0.425 0.425 0.425s0.425-0.188 0.425-0.425v-0.362h5.469v6.262h-29.175v-6.263zM1.35 30.988v-21.281h29.181v21.275h-29.181z"></path>
<path id="svg-ico" fill="#ee5586" d="M6.756 12.144c-0.169-0.169-0.438-0.169-0.6 0-0.169 0.169-0.169 0.438 0 0.6l2.012 2.013c0.081 0.081 0.194 0.125 0.3 0.125s0.219-0.044 0.3-0.125c0.169-0.169 0.169-0.438 0-0.6l-2.013-2.013z"></path>
<path id="svg-ico" fill="#ee5586" d="M6.756 18.462c-0.169-0.169-0.438-0.169-0.6 0s-0.169 0.438 0 0.6l2.012 2.012c0.081 0.081 0.194 0.125 0.3 0.125s0.219-0.044 0.3-0.125c0.169-0.169 0.169-0.438 0-0.6l-2.013-2.012z"></path>
<path id="svg-ico" fill="#ee5586" d="M15.45 18.462c-0.169-0.169-0.438-0.169-0.6 0-0.169 0.169-0.169 0.438 0 0.6l2.013 2.012c0.081 0.081 0.194 0.125 0.3 0.125s0.219-0.044 0.3-0.125c0.169-0.169 0.169-0.438 0-0.6l-2.012-2.012z"></path>
<path fill="#5e686c" d="M23.356 18.462c-0.169-0.169-0.438-0.169-0.6 0-0.169 0.169-0.169 0.438 0 0.6l2.012 2.012c0.081 0.081 0.194 0.125 0.3 0.125s0.219-0.044 0.3-0.125c0.169-0.169 0.169-0.438 0-0.6l-2.012-2.012z"></path>
<path fill="#5e686c" d="M15.45 24.788c-0.169-0.169-0.438-0.169-0.6 0s-0.169 0.438 0 0.6l2.013 2.012c0.081 0.081 0.194 0.125 0.3 0.125s0.219-0.044 0.3-0.125c0.169-0.169 0.169-0.438 0-0.6l-2.012-2.012z"></path>
<path fill="#5e686c" d="M6.756 24.788c-0.169-0.169-0.438-0.169-0.6 0s-0.169 0.438 0 0.6l2.012 2.012c0.081 0.081 0.194 0.125 0.3 0.125s0.219-0.044 0.3-0.125c0.169-0.169 0.169-0.438 0-0.6l-2.013-2.012z"></path>
<path id="svg-ico" fill="#ee5586" d="M16.375 14.887c0.106 0 0.219-0.044 0.3-0.125 0.169-0.169 0.169-0.438 0-0.6l-2.012-2.013c-0.169-0.169-0.438-0.169-0.6 0s-0.169 0.438 0 0.6l2.013 2.013c0.081 0.081 0.194 0.125 0.3 0.125z"></path>
<path id="svg-ico" fill="#ee5586" d="M23.356 12.144c-0.169-0.169-0.438-0.169-0.6 0s-0.169 0.438 0 0.6l2.012 2.013c0.081 0.081 0.194 0.125 0.3 0.125s0.219-0.044 0.3-0.125c0.169-0.169 0.169-0.438 0-0.6l-2.012-2.013z"></path>
</svg>
