<!-- Generated by IcoMoon.io -->
<svg version="1.1" xmlns="http://www.w3.org/2000/svg" width="32" height="32" viewBox="0 0 32 32">
<title>cartup</title>
<path fill="#5e686c" d="M6.563 3.375c0-0.237-0.188-0.425-0.425-0.425h-5.531c-0.237 0-0.425 0.188-0.425 0.425s0.188 0.425 0.425 0.425h5.531c0.237 0 0.425-0.194 0.425-0.425z"></path>
<path fill="#5e686c" d="M31.087 5.456h-26.331c-0.412 0-0.75 0.338-0.744 0.813l2.213 14.3c-0.019 0.056-0.019 0.119-0.013 0.181l0.506 3.087c0.056 0.425 0.425 0.744 0.85 0.744h1.119c-0.106 0.331-0.162 0.681-0.162 1.050 0 1.875 1.525 3.4 3.4 3.4s3.4-1.525 3.4-3.4c0-0.363-0.056-0.719-0.169-1.050h6.631c-0.106 0.331-0.163 0.681-0.163 1.050 0 1.875 1.525 3.4 3.4 3.4s3.4-1.525 3.4-3.4c0-1.875-1.525-3.4-3.4-3.4-1.175 0-2.206 0.594-2.819 1.5 0 0-0.006 0-0.006 0h-7.45c0 0-0.006 0-0.006 0-0.613-0.906-1.644-1.5-2.819-1.5s-2.206 0.594-2.819 1.5c0 0-0.006 0-0.006 0l-1.537-0.019-0.35-2.156 21.681-3.2c0.375 0 0.681-0.337 0.675-0.663l2.269-11.488c0-0.412-0.337-0.75-0.75-0.75zM25.019 23.075c1.406 0 2.55 1.144 2.55 2.55s-1.144 2.55-2.55 2.55c-1.406 0-2.55-1.144-2.55-2.55 0.006-1.406 1.144-2.55 2.55-2.55zM11.925 23.075c1.406 0 2.55 1.144 2.55 2.55s-1.144 2.55-2.55 2.55c-1.406 0-2.55-1.144-2.55-2.55s1.144-2.55 2.55-2.55zM28.738 17.525l-21.637 3.188-2.225-14.406h26.087l-2.225 11.219z"></path>
<path id="svg-ico" fill="#ee5586" d="M15.313 12.963c0.106 0 0.219-0.044 0.3-0.125l1.881-1.881v4.45c0 0.238 0.188 0.425 0.425 0.425s0.425-0.188 0.425-0.425v-4.45l1.881 1.881c0.081 0.081 0.194 0.125 0.3 0.125s0.219-0.044 0.3-0.125c0.169-0.169 0.169-0.438 0-0.6l-2.606-2.606c-0.019-0.019-0.044-0.037-0.069-0.056 0 0-0.006-0.006-0.006-0.006-0.006-0.006-0.019-0.012-0.025-0.019-0.006 0-0.006-0.006-0.012-0.006-0.006-0.006-0.019-0.006-0.025-0.012-0.006 0-0.006-0.006-0.012-0.006s-0.019-0.006-0.025-0.006c-0.006 0-0.012 0-0.019-0.006-0.006 0-0.012-0.006-0.025-0.006-0.006 0-0.012 0-0.019-0.006-0.006 0-0.012 0-0.019 0-0.025 0-0.056 0-0.081 0-0.006 0-0.012 0-0.019 0s-0.012 0-0.025 0.006c-0.006 0-0.012 0.006-0.025 0.006-0.006 0-0.012 0-0.019 0.006-0.006 0-0.012 0.006-0.025 0.006-0.006 0-0.012 0.006-0.019 0.006-0.006 0.006-0.012 0.006-0.025 0.012-0.006 0-0.012 0.006-0.012 0.006-0.006 0.006-0.019 0.012-0.025 0.012s-0.006 0.006-0.012 0.006c-0.012 0.006-0.019 0.012-0.031 0.025 0 0 0 0 0 0-0.012 0.012-0.025 0.019-0.031 0.031l-2.606 2.606c-0.169 0.162-0.169 0.438 0 0.6 0.088 0.094 0.2 0.131 0.306 0.131z"></path>
</svg>
