<!-- Generated by IcoMoon.io -->
<svg version="1.1" xmlns="http://www.w3.org/2000/svg" width="32" height="32" viewBox="0 0 32 32">
<title>chart</title>
<path fill="#5e686c" d="M13.975 31.606c-7.494 0-13.588-6.094-13.588-13.588 0-7.488 6.094-13.581 13.588-13.581 0.238 0 0.425 0.194 0.425 0.425s-0.194 0.425-0.425 0.425c-7.025 0.006-12.731 5.713-12.731 12.738 0 7.019 5.713 12.731 12.731 12.731s12.731-5.713 12.731-12.731c0-0.238 0.194-0.425 0.425-0.425s0.425 0.194 0.425 0.425c0 7.488-6.094 13.581-13.581 13.581z"></path>
<path id="svg-ico" fill="#ee5586" d="M31.194 15.412c-0.006 0-0.012 0-0.019 0h-14.169c-0.238 0-0.425-0.194-0.425-0.425v-14.169c0-0.238 0.194-0.425 0.425-0.425 7.462 0 14.519 7.019 14.594 14.475 0.012 0.037 0.019 0.081 0.019 0.119 0.006 0.238-0.188 0.425-0.425 0.425zM17.438 14.556h13.306c-0.256-6.756-6.544-13.050-13.306-13.306v13.306z"></path>
</svg>
