<!-- Generated by IcoMoon.io -->
<svg version="1.1" xmlns="http://www.w3.org/2000/svg" width="32" height="32" viewBox="0 0 32 32">
<title>check</title>
<path fill="#5e686c" d="M16.031 31.531c-8.688 0-15.75-7.069-15.75-15.75 0-8.019 6-14.744 13.95-15.65 0.231-0.031 0.456 0.144 0.488 0.387 0.025 0.238-0.144 0.456-0.387 0.481-7.513 0.85-13.175 7.206-13.175 14.775 0 8.2 6.675 14.875 14.875 14.875s14.875-6.675 14.875-14.875c0-7.575-5.663-13.925-13.175-14.781-0.238-0.025-0.413-0.244-0.387-0.481s0.25-0.412 0.488-0.388c7.956 0.906 13.95 7.631 13.95 15.65 0 8.688-7.063 15.756-15.75 15.756z"></path>
<path id="svg-ico" fill="#ee5586" d="M16.031 24.238c-0.069 0-0.131-0.012-0.194-0.044l-7.294-3.644c-0.219-0.106-0.306-0.369-0.194-0.587s0.369-0.3 0.588-0.194l6.844 3.425 5.306-15.569c0.081-0.231 0.325-0.35 0.556-0.275s0.35 0.325 0.275 0.556l-5.469 16.031c-0.044 0.119-0.131 0.219-0.25 0.262-0.056 0.025-0.113 0.038-0.169 0.038z"></path>
</svg>
