<!-- Generated by IcoMoon.io -->
<svg version="1.1" xmlns="http://www.w3.org/2000/svg" width="32" height="32" viewBox="0 0 32 32">
<title>clip</title>
<path id="svg-ico" fill="#ee5586" d="M16.306 31.875c-4.35 0-7.894-3.644-7.894-8.119v-18.025c0-0.050 0.006-0.094 0.025-0.138 0.231-3.075 2.794-5.469 5.888-5.469 0.238 0 0.431 0.194 0.431 0.431s-0.194 0.431-0.431 0.431c-2.675 0-4.894 2.094-5.044 4.769 0 0.031-0.006 0.063-0.012 0.088v17.913c0 4.006 3.156 7.262 7.037 7.262s7.038-3.256 7.038-7.262v-18.644c0-0.237 0.194-0.431 0.431-0.431s0.431 0.194 0.431 0.431v18.644c-0.012 4.475-3.55 8.119-7.9 8.119z"></path>
<path fill="#5e686c" d="M16.387 27.925c-2.125 0-3.856-1.731-3.856-3.856v-16.163c0-0.237 0.194-0.431 0.431-0.431s0.431 0.194 0.431 0.431v16.156c0 1.656 1.344 3 3 3s3-1.344 3-3v-18.219c-0.006-0.031-0.012-0.056-0.012-0.088-0.15-2.675-2.369-4.769-5.044-4.769v-0.863c3.094 0 5.662 2.394 5.894 5.469 0.019 0.044 0.025 0.088 0.025 0.138v18.331c-0.012 2.131-1.744 3.863-3.869 3.863z"></path>
</svg>
