<!-- Generated by IcoMoon.io -->
<svg version="1.1" xmlns="http://www.w3.org/2000/svg" width="32" height="32" viewBox="0 0 32 32">
<title>cloudfast</title>
<path id="svg-ico" fill="#ee5586" d="M20.194 21.406c-0.050 0-0.094-0.006-0.144-0.025-0.219-0.081-0.331-0.325-0.25-0.544l1.219-3.356-2.625-0.294c-0.131-0.012-0.25-0.094-0.319-0.206s-0.075-0.256-0.025-0.375l1.756-4.219c0.087-0.219 0.337-0.319 0.556-0.225 0.219 0.088 0.319 0.338 0.225 0.556l-1.538 3.694 2.6 0.288c0.131 0.012 0.244 0.087 0.313 0.2s0.081 0.244 0.038 0.369l-1.406 3.856c-0.063 0.175-0.225 0.281-0.4 0.281z"></path>
<path fill="#5e686c" d="M21.087 26.631h-13.194c-4.156 0-7.537-3.381-7.537-7.538 0-4.15 3.381-7.531 7.531-7.531 0.231 0 0.425 0.188 0.425 0.425 0 0.231-0.188 0.425-0.425 0.425-3.688 0-6.688 3-6.688 6.688s3 6.688 6.688 6.688h13.194c5.369 0 9.738-4.369 9.738-9.731 0-5.344-4.325-9.694-9.663-9.738-4.744 0.031-9.813 3.081-9.813 9.738 0 0.231-0.188 0.425-0.425 0.425s-0.425-0.188-0.425-0.425c0-6.863 5.275-10.494 10.55-10.581 0.012 0 0.025 0 0.038 0h0.15c0.012 0 0.025 0 0.038 0 5.75 0.1 10.387 4.806 10.387 10.581 0.012 5.825-4.738 10.575-10.569 10.575z"></path>
</svg>
