<!-- Generated by IcoMoon.io -->
<svg version="1.1" xmlns="http://www.w3.org/2000/svg" width="32" height="32" viewBox="0 0 32 32">
<title>cloudmanaged</title>
<path fill="#5e686c" d="M5.756 17.569c-0.225 0-0.412-0.181-0.419-0.413l-0.006-0.387-0.706-0.7-2.831-0.019c-0.169 0-0.319-0.106-0.387-0.262l-0.838-2.050c-0.063-0.15-0.031-0.331 0.081-0.45l1.969-2.075 0.006-0.988-1.988-2.019c-0.119-0.119-0.156-0.3-0.088-0.456l0.85-2.038c0.063-0.15 0.212-0.256 0.375-0.256l2.856-0.075 0.706-0.7 0.019-2.831c0-0.169 0.106-0.319 0.263-0.387l2.044-0.844c0.15-0.063 0.331-0.031 0.45 0.081l2.075 1.975 0.994 0.006 2.013-1.988c0.119-0.119 0.3-0.15 0.456-0.088l2.037 0.85c0.15 0.063 0.256 0.212 0.256 0.375l0.075 2.862 0.7 0.7 2.831 0.019c0.169 0 0.319 0.106 0.387 0.263l0.844 2.044c0.063 0.15 0.031 0.331-0.087 0.45l-1.975 2.069v0.869c0 0.231-0.188 0.419-0.419 0.419 0 0 0 0 0 0-0.231 0-0.419-0.188-0.419-0.419v-1.037c0-0.106 0.044-0.213 0.119-0.287l1.9-1.994-0.631-1.537-2.725-0.019c-0.113 0-0.219-0.044-0.294-0.125l-0.938-0.938c-0.075-0.075-0.119-0.181-0.125-0.287l-0.069-2.756-1.531-0.637-1.938 1.912c-0.081 0.075-0.225 0.119-0.3 0.119l-1.331-0.006c-0.106 0-0.213-0.044-0.287-0.112l-2-1.9-1.531 0.637-0.019 2.725c0 0.112-0.044 0.219-0.125 0.294l-0.944 0.938c-0.075 0.075-0.175 0.119-0.287 0.125l-2.756 0.069-0.637 1.531 1.912 1.937c0.075 0.081 0.119 0.188 0.119 0.294l-0.006 1.331c0 0.106-0.044 0.213-0.112 0.287l-1.9 2 0.631 1.537 2.725 0.019c0.112 0 0.219 0.044 0.294 0.125l0.944 0.944c0.075 0.075 0.119 0.181 0.125 0.288l0.013 0.556c0.006 0.231-0.175 0.425-0.412 0.431 0 0-0.006 0-0.006 0z"></path>
<path fill="#5e686c" d="M10.669 14.512c-0.5 0-0.988-0.1-1.45-0.294-0.931-0.387-1.65-1.119-2.037-2.050-0.381-0.938-0.381-1.963 0.006-2.894 0.588-1.412 1.963-2.325 3.494-2.325 0.5 0 0.988 0.1 1.45 0.294 0.931 0.388 1.656 1.119 2.037 2.050 0.381 0.938 0.381 1.963-0.006 2.894-0.588 1.412-1.963 2.325-3.494 2.325zM10.681 7.794c-1.194 0-2.263 0.712-2.719 1.806-0.3 0.725-0.306 1.525-0.006 2.25s0.863 1.294 1.581 1.594c0.363 0.15 0.738 0.225 1.131 0.225 1.194 0 2.263-0.706 2.719-1.806 0.3-0.725 0.306-1.525 0.006-2.25s-0.863-1.294-1.588-1.594c-0.356-0.15-0.738-0.225-1.125-0.225z"></path>
<path fill="#5e686c" d="M15.1 21.231c-0.231 0-0.419-0.188-0.419-0.419 0-0.15-0.006-0.306-0.012-0.456l-0.006-0.075c0.294-3.269 3.238-5.894 6.556-5.938 0.219-0.006 0.425 0.181 0.425 0.412 0.006 0.231-0.181 0.425-0.413 0.425-2.9 0.037-5.475 2.319-5.731 5.094l0.012 0.019c0.006 0.188 0.012 0.35 0.012 0.512-0.006 0.238-0.194 0.425-0.425 0.425z"></path>
<path id="svg-ico" fill="#ee5586" d="M21.087 31.313h-13.094c-4.125 0-7.475-3.356-7.475-7.475 0-4.125 3.356-7.475 7.475-7.475 0.231 0 0.419 0.188 0.419 0.419s-0.188 0.419-0.419 0.419c-3.663 0-6.638 2.975-6.638 6.637s2.975 6.637 6.638 6.637h13.094c5.325 0 9.663-4.331 9.663-9.663 0-5.3-4.294-9.619-9.587-9.662-4.706 0.031-9.738 3.063-9.738 9.662 0 0.231-0.188 0.419-0.419 0.419s-0.419-0.188-0.419-0.419c0-6.813 5.238-10.419 10.469-10.5 0.012 0 0.025 0 0.038 0h0.15c0.012 0 0.025 0 0.038 0 5.706 0.1 10.313 4.775 10.313 10.5 0 5.794-4.713 10.5-10.506 10.5z"></path>
</svg>
