<!-- Generated by IcoMoon.io -->
<svg version="1.1" xmlns="http://www.w3.org/2000/svg" width="32" height="32" viewBox="0 0 32 32">
<title>cloudconnect</title>
<path fill="#5e686c" d="M18.844 11.969h-7.081c-2.344 0-4.25-1.906-4.25-4.25s1.906-4.25 4.25-4.25c0.238 0 0.431 0.194 0.431 0.431s-0.194 0.431-0.431 0.431c-1.863 0-3.381 1.519-3.381 3.381s1.519 3.381 3.381 3.381h7.081c2.762 0 5.012-2.25 5.012-5.013 0-2.75-2.231-4.994-4.975-5.013-2.444 0.019-5.056 1.587-5.056 5.013 0 0.237-0.194 0.431-0.431 0.431s-0.431-0.194-0.431-0.431c0-3.813 2.925-5.831 5.856-5.881 0.025 0 0.044 0 0.069 0s0.050 0 0.075 0c3.194 0.063 5.769 2.675 5.769 5.881-0.006 3.244-2.644 5.888-5.887 5.888z"></path>
<path fill="#5e686c" d="M18.775 31.744h-6.894c-2.287 0-4.15-1.863-4.15-4.144s1.863-4.15 4.15-4.15c0.238 0 0.431 0.194 0.431 0.431s-0.194 0.431-0.431 0.431c-1.806 0-3.281 1.469-3.281 3.281 0 1.806 1.469 3.281 3.281 3.281h6.894c2.688 0 4.869-2.188 4.869-4.869 0-2.675-2.163-4.85-4.831-4.869-2.375 0.019-4.912 1.544-4.912 4.869 0 0.238-0.194 0.431-0.431 0.431s-0.431-0.194-0.431-0.431c0-3.719 2.856-5.688 5.713-5.738 0.025 0 0.044 0 0.069 0s0.050 0 0.069 0c3.113 0.056 5.631 2.613 5.631 5.738-0.006 3.163-2.581 5.738-5.744 5.738z"></path>
<path id="svg-ico" fill="#ee5586" d="M4.013 26.044c-0.112 0-0.225-0.044-0.306-0.125-1.656-1.656-2.606-4.075-2.606-6.644 0-2.563 0.95-4.988 2.606-6.644l0.906-0.906c0.169-0.169 0.444-0.169 0.612 0s0.169 0.444 0 0.613l-0.906 0.906c-1.494 1.494-2.35 3.694-2.35 6.031s0.856 4.531 2.35 6.031c0.169 0.169 0.169 0.444 0 0.613-0.081 0.081-0.194 0.125-0.306 0.125z"></path>
<path id="svg-ico" fill="#ee5586" d="M4.919 15.256c-0.237 0-0.431-0.194-0.431-0.431v-2.356h-2.319c-0.238 0-0.431-0.194-0.431-0.431s0.194-0.431 0.431-0.431h2.756c0.112 0 0.225 0.044 0.306 0.125s0.125 0.194 0.125 0.306v2.787c-0.006 0.238-0.2 0.431-0.438 0.431z"></path>
<path id="svg-ico" fill="#ee5586" d="M26.975 24.669c-0.113 0-0.225-0.044-0.306-0.125-0.169-0.169-0.169-0.444 0-0.613l0.906-0.906c3.156-3.156 3.156-8.9 0-12.056-0.169-0.169-0.169-0.444 0-0.613s0.444-0.169 0.613 0c3.475 3.475 3.475 9.806 0 13.287l-0.906 0.906c-0.081 0.075-0.194 0.119-0.306 0.119z"></path>
<path id="svg-ico" fill="#ee5586" d="M26.975 24.669c-0.113 0-0.225-0.044-0.306-0.125s-0.125-0.194-0.125-0.306v-2.788c0-0.238 0.194-0.431 0.431-0.431s0.431 0.194 0.431 0.431v2.356h2.319c0.238 0 0.431 0.194 0.431 0.431s-0.194 0.431-0.431 0.431h-2.75z"></path>
</svg>
