<!-- Generated by IcoMoon.io -->
<svg version="1.1" xmlns="http://www.w3.org/2000/svg" width="32" height="32" viewBox="0 0 32 32">
<title>cloudserver</title>
<path fill="#5e686c" d="M22.706 15.875c-0.113 0-0.225-0.044-0.306-0.131-0.163-0.169-0.15-0.438 0.019-0.6 1.575-1.481 2.438-3.488 2.438-5.65 0-4.256-3.45-7.725-7.7-7.763-4.031 0.031-7.463 3.112-7.825 7.031-0.012 0.144-0.006 0.294 0 0.444 0.006 0.094 0.006 0.188 0.006 0.287 0 0.238-0.188 0.425-0.425 0.425s-0.425-0.188-0.425-0.425c0-0.088 0-0.169-0.006-0.256-0.006-0.181-0.012-0.363 0.006-0.55 0.4-4.325 4.15-7.725 8.575-7.8 0.012 0 0.025 0 0.038 0h0.125c0.012 0 0.025 0 0.038 0 4.675 0.088 8.45 3.913 8.45 8.606 0 2.4-0.962 4.625-2.706 6.269-0.087 0.075-0.194 0.113-0.3 0.113z"></path>
<path fill="#5e686c" d="M12.181 9.919c-0.238 0-0.425-0.188-0.425-0.425 0-0.125-0.006-0.244-0.006-0.369 0-0.019-0.006-0.119-0.006-0.137 0.244-2.631 2.669-4.8 5.406-4.831 0 0 0.006 0 0.006 0 0.231 0 0.419 0.188 0.425 0.419s-0.188 0.425-0.419 0.431c-2.319 0.031-4.369 1.85-4.575 4.063 0.012 0.162 0.019 0.294 0.019 0.425 0 0.231-0.188 0.425-0.425 0.425z"></path>
<path fill="#5e686c" d="M6.463 18.1c-3.394 0-6.156-2.762-6.156-6.156s2.763-6.156 6.156-6.156c0.237 0 0.425 0.188 0.425 0.425s-0.188 0.425-0.425 0.425c-2.925 0-5.306 2.381-5.306 5.306s2.381 5.306 5.306 5.306c0.237 0 0.425 0.188 0.425 0.425s-0.194 0.425-0.425 0.425z"></path>
<path fill="#5e686c" d="M19.131 31.606c-0.938 0-1.694-0.762-1.694-1.7s0.762-1.7 1.694-1.7c0.938 0 1.7 0.762 1.7 1.7-0.006 0.938-0.769 1.7-1.7 1.7zM19.131 29.063c-0.469 0-0.85 0.381-0.85 0.85s0.381 0.85 0.85 0.85c0.469 0 0.85-0.381 0.85-0.85 0-0.475-0.381-0.85-0.85-0.85z"></path>
<path fill="#5e686c" d="M19.131 29.063c-0.238 0-0.425-0.188-0.425-0.425v-2.544c0-0.238 0.188-0.425 0.425-0.425s0.425 0.188 0.425 0.425v2.544c0 0.231-0.194 0.425-0.425 0.425z"></path>
<path fill="#5e686c" d="M17.856 30.331h-7.1c-0.238 0-0.425-0.188-0.425-0.425s0.188-0.425 0.425-0.425h7.1c0.238 0 0.425 0.188 0.425 0.425s-0.188 0.425-0.425 0.425z"></path>
<path fill="#5e686c" d="M27.5 30.331h-7.1c-0.238 0-0.425-0.188-0.425-0.425s0.188-0.425 0.425-0.425h7.1c0.238 0 0.425 0.188 0.425 0.425s-0.188 0.425-0.425 0.425z"></path>
<path id="svg-ico" fill="#ee5586" d="M26.006 21.619c-0.938 0-1.7-0.762-1.7-1.7s0.762-1.7 1.7-1.7c0.938 0 1.7 0.762 1.7 1.7-0.006 0.938-0.762 1.7-1.7 1.7zM26.006 19.075c-0.469 0-0.85 0.381-0.85 0.85s0.381 0.85 0.85 0.85c0.469 0 0.85-0.381 0.85-0.85 0-0.475-0.381-0.85-0.85-0.85z"></path>
<path id="svg-ico" fill="#ee5586" d="M29.981 24.819h-22.15c-0.956 0-1.731-0.719-1.731-1.606v-6.581c0-0.887 0.775-1.606 1.731-1.606h22.15c0.956 0 1.731 0.719 1.731 1.606v6.581c0 0.887-0.775 1.606-1.731 1.606zM7.831 15.875c-0.487 0-0.888 0.337-0.888 0.756v6.581c0 0.419 0.4 0.756 0.888 0.756h22.15c0.488 0 0.881-0.337 0.881-0.756v-6.581c0-0.419-0.4-0.756-0.881-0.756h-22.15z"></path>
</svg>
