<!-- Generated by IcoMoon.io -->
<svg version="1.1" xmlns="http://www.w3.org/2000/svg" width="32" height="32" viewBox="0 0 32 32">
<title>cloudown</title>
<path fill="#5e686c" d="M21.381 3.544c-0.012 0-0.025 0-0.038 0h-0.156c-0.012 0-0.025 0-0.038 0-5.494 0.1-10.15 4.313-10.65 9.688-0.019 0.225-0.012 0.45-0.006 0.675 0.006 0.106 0.006 0.213 0.006 0.325 0 0.238 0.194 0.425 0.425 0.425s0.425-0.194 0.425-0.425c0-0.119-0.006-0.238-0.006-0.356-0.006-0.194-0.012-0.381 0-0.569 0.463-4.969 4.813-8.869 9.913-8.906 5.387 0.044 9.756 4.438 9.756 9.831 0 5.419-4.413 9.831-9.831 9.831-0.238 0-0.425 0.194-0.425 0.425 0 0.238 0.194 0.425 0.425 0.425 5.894 0 10.688-4.794 10.688-10.688 0.006-5.819-4.681-10.575-10.488-10.681z"></path>
<path fill="#5e686c" d="M21.275 8.5c0.238 0 0.425-0.194 0.425-0.431-0.006-0.231-0.194-0.425-0.425-0.425 0 0-0.006 0-0.006 0-3.381 0.044-6.375 2.719-6.675 6.044l0.006 0.075c0.006 0.156 0.012 0.313 0.012 0.469 0 0.238 0.194 0.425 0.425 0.425s0.425-0.194 0.425-0.425c0-0.162-0.006-0.331-0.012-0.525l-0.012-0.019c0.262-2.819 2.881-5.15 5.838-5.188z"></path>
<path fill="#5e686c" d="M10.931 24.063h-3.069c-3.725 0-6.756-3.031-6.756-6.756s3.031-6.756 6.756-6.756c0.238 0 0.425-0.194 0.425-0.425s-0.194-0.425-0.425-0.425c-4.2 0-7.612 3.412-7.612 7.606s3.413 7.606 7.612 7.606h3.069c0.238 0 0.425-0.194 0.425-0.425 0.006-0.231-0.188-0.425-0.425-0.425z"></path>
<path id="svg-ico" fill="#ee5586" d="M18.85 25.206l-2.35 2.219v-7.056c0-0.225-0.194-0.406-0.425-0.406-0.238 0-0.425 0.181-0.425 0.406v7.056l-2.363-2.219c-0.175-0.163-0.444-0.156-0.606 0.019s-0.156 0.444 0.019 0.606l3.081 2.9c0.081 0.075 0.188 0.119 0.294 0.119s0.212-0.038 0.294-0.119l3.075-2.9c0.175-0.163 0.181-0.431 0.019-0.606-0.175-0.175-0.444-0.181-0.613-0.019z"></path>
</svg>
