<!-- Generated by IcoMoon.io -->
<svg version="1.1" xmlns="http://www.w3.org/2000/svg" width="32" height="32" viewBox="0 0 32 32">
<title>cluster</title>
<path fill="#5e686c" d="M2.944 5.456c-1.394 0-2.531-1.131-2.531-2.525s1.131-2.531 2.531-2.531 2.531 1.137 2.531 2.531c-0.006 1.394-1.138 2.525-2.531 2.525zM2.944 1.244c-0.931 0-1.688 0.756-1.688 1.688s0.756 1.688 1.688 1.688 1.687-0.756 1.687-1.688c0-0.931-0.756-1.688-1.688-1.688z"></path>
<path fill="#5e686c" d="M16.063 29.569c-7.631 0-13.844-6.212-13.844-13.844s6.206-13.844 13.844-13.844c7.631 0 13.844 6.213 13.844 13.844s-6.212 13.844-13.844 13.844zM16.063 2.725c-7.169 0-13 5.831-13 13s5.831 13 13 13c7.169 0 13-5.831 13-13s-5.831-13-13-13z"></path>
<path fill="#5e686c" d="M27.288 27.625c-0.106 0-0.219-0.044-0.3-0.125l-8.088-8.081c-0.163-0.163-0.163-0.431 0-0.594s0.431-0.163 0.594 0l8.087 8.081c0.163 0.163 0.163 0.431 0 0.594-0.075 0.081-0.181 0.125-0.294 0.125z"></path>
<path fill="#5e686c" d="M12.637 12.981c-0.106 0-0.219-0.044-0.3-0.125l-8.106-8.094c-0.162-0.162-0.162-0.431 0-0.594s0.431-0.162 0.594 0l8.106 8.094c0.162 0.162 0.162 0.431 0 0.594-0.081 0.088-0.188 0.125-0.294 0.125z"></path>
<path fill="#ef5587" d="M4.475 27.631c-0.106 0-0.219-0.044-0.3-0.125-0.162-0.163-0.162-0.431 0-0.594l8.394-8.337c0.162-0.163 0.431-0.163 0.594 0s0.162 0.431 0 0.594l-8.387 8.344c-0.088 0.081-0.194 0.119-0.3 0.119z"></path>
<path id="svg-ico" fill="#ee5586" d="M28.813 5.456c-1.394 0-2.525-1.131-2.525-2.525s1.131-2.531 2.525-2.531c1.394 0 2.531 1.137 2.531 2.531-0.006 1.394-1.137 2.525-2.531 2.525zM28.813 1.244c-0.931 0-1.688 0.756-1.688 1.688s0.756 1.688 1.688 1.688c0.931 0 1.688-0.756 1.688-1.688-0.006-0.931-0.762-1.688-1.688-1.688z"></path>
<path id="svg-ico" fill="#ee5586" d="M2.944 31.337c-1.394 0-2.531-1.131-2.531-2.525s1.131-2.531 2.531-2.531 2.531 1.137 2.531 2.531c-0.006 1.394-1.138 2.525-2.531 2.525zM2.944 27.125c-0.931 0-1.688 0.756-1.688 1.688s0.756 1.681 1.688 1.681 1.687-0.756 1.687-1.681c0-0.931-0.756-1.688-1.688-1.688z"></path>
<path fill="#5e686c" d="M28.813 31.337c-1.394 0-2.525-1.131-2.525-2.525s1.131-2.531 2.525-2.531c1.394 0 2.531 1.137 2.531 2.531-0.006 1.394-1.137 2.525-2.531 2.525zM28.813 27.125c-0.931 0-1.688 0.756-1.688 1.688s0.756 1.681 1.688 1.681c0.931 0 1.688-0.756 1.688-1.681-0.006-0.931-0.762-1.688-1.688-1.688z"></path>
<path id="svg-ico" fill="#ee5586" d="M16.063 20.619c-2.7 0-4.894-2.194-4.894-4.894s2.194-4.894 4.894-4.894c2.7 0 4.894 2.194 4.894 4.894s-2.194 4.894-4.894 4.894zM16.063 11.669c-2.238 0-4.050 1.819-4.050 4.056s1.819 4.050 4.050 4.050c2.238 0 4.050-1.819 4.050-4.050 0-2.238-1.819-4.056-4.050-4.056z"></path>
<path id="svg-ico" fill="#ee5586" d="M19.256 12.931c-0.106 0-0.219-0.044-0.3-0.125-0.163-0.162-0.163-0.431 0-0.594l8.031-7.975c0.169-0.162 0.431-0.162 0.594 0s0.163 0.431 0 0.594l-8.025 7.975c-0.081 0.081-0.188 0.125-0.3 0.125z"></path>
</svg>
