<!-- Generated by IcoMoon.io -->
<svg version="1.1" xmlns="http://www.w3.org/2000/svg" width="32" height="32" viewBox="0 0 32 32">
<title>cpu</title>
<path id="svg-ico" fill="#ee5586" d="M21.981 9.5h-12.012c-0.238 0-0.431 0.194-0.431 0.431v12.013c0 0.238 0.194 0.431 0.431 0.431h12.012c0.238 0 0.431-0.194 0.431-0.431v-12.012c0-0.238-0.194-0.431-0.431-0.431zM21.55 21.512h-11.15v-11.15h11.156v11.15z"></path>
<path fill="#5e686b" d="M31.419 13.794c0.238 0 0.431-0.194 0.431-0.431s-0.194-0.431-0.431-0.431h-4.719v-4.287h4.719c0.238 0 0.431-0.194 0.431-0.431s-0.194-0.431-0.431-0.431h-4.719v-2.144c0-0.237-0.194-0.431-0.431-0.431h-2.144v-4.713c0-0.237-0.194-0.431-0.431-0.431s-0.431 0.194-0.431 0.431v4.719h-4.288v-4.719c0-0.237-0.194-0.431-0.431-0.431s-0.431 0.194-0.431 0.431v4.719h-4.287v-4.719c0-0.237-0.194-0.431-0.431-0.431s-0.431 0.194-0.431 0.431v4.719h-4.287v-4.719c0-0.237-0.194-0.431-0.431-0.431s-0.431 0.194-0.431 0.431v4.719h-2.138c-0.237 0-0.431 0.194-0.431 0.431v2.144h-4.713c-0.237 0-0.431 0.194-0.431 0.431s0.194 0.431 0.431 0.431h4.719v4.287h-4.719c-0.237 0-0.431 0.194-0.431 0.431s0.194 0.431 0.431 0.431h4.719v4.287h-4.719c-0.237 0-0.431 0.194-0.431 0.431s0.194 0.431 0.431 0.431h4.719v4.288h-4.719c-0.237 0-0.431 0.194-0.431 0.431s0.194 0.431 0.431 0.431h4.719v2.144c0 0.238 0.194 0.431 0.431 0.431h2.144v4.719c0 0.238 0.194 0.431 0.431 0.431s0.431-0.194 0.431-0.431v-4.719h4.287v4.719c0 0.238 0.194 0.431 0.431 0.431s0.431-0.194 0.431-0.431v-4.719h4.287v4.719c0 0.238 0.194 0.431 0.431 0.431s0.431-0.194 0.431-0.431v-4.719h4.287v4.719c0 0.238 0.194 0.431 0.431 0.431s0.431-0.194 0.431-0.431v-4.719h2.144c0.238 0 0.431-0.194 0.431-0.431v-2.144h4.719c0.238 0 0.431-0.194 0.431-0.431s-0.194-0.431-0.431-0.431h-4.719v-4.288h4.719c0.238 0 0.431-0.194 0.431-0.431s-0.194-0.431-0.431-0.431h-4.719v-4.287l4.706-0.006zM25.844 25.806h-19.738v-19.738h19.738v19.738z"></path>
</svg>
