<!-- Generated by IcoMoon.io -->
<svg version="1.1" xmlns="http://www.w3.org/2000/svg" width="32" height="32" viewBox="0 0 32 32">
<title>crown</title>
<path fill="#5e686b" d="M25.587 24.637h-19.306c-0.231 0-0.419-0.188-0.419-0.419v-5.456l-2.15-7.512c-1.813 0.125-3.413-1.338-3.413-3.15 0-1.737 1.438-3.156 3.2-3.156s3.2 1.419 3.2 3.156c0 0.269-0.031 0.525-0.1 0.781 3.631 1.119 6.412 0.781 7.825-1.050-1.031-0.537-1.694-1.6-1.694-2.781 0-1.744 1.438-3.156 3.2-3.156s3.2 1.419 3.2 3.156c0 1.188-0.675 2.256-1.719 2.794 1.556 2.394 4.281 2.856 7.944 1.331-0.125-0.344-0.194-0.713-0.194-1.075 0-1.737 1.438-3.156 3.2-3.156s3.2 1.412 3.2 3.156c0 1.806-1.569 3.275-3.394 3.15l-2.169 7.625v5.344c0.006 0.231-0.181 0.419-0.413 0.419zM6.7 23.8h18.469v-4.981c0-0.038 0.006-0.075 0.019-0.113l2.281-8.025c0.056-0.206 0.262-0.344 0.481-0.3 0.137 0.025 0.275 0.037 0.419 0.037 1.3 0 2.363-1.037 2.363-2.319 0-1.275-1.056-2.319-2.363-2.319-1.3 0-2.356 1.037-2.356 2.319 0 0.387 0.094 0.75 0.281 1.094 0.056 0.1 0.069 0.225 0.031 0.338s-0.119 0.2-0.225 0.25c-1.675 0.744-3.2 1.125-4.544 1.125-2.831 0-4.337-1.662-5.106-3.056-0.063-0.112-0.069-0.237-0.025-0.356s0.144-0.206 0.262-0.244c0.962-0.319 1.613-1.2 1.613-2.194 0-1.281-1.056-2.319-2.356-2.319s-2.363 1.038-2.363 2.319c0 1 0.65 1.881 1.619 2.194 0.125 0.037 0.219 0.131 0.262 0.25s0.031 0.256-0.037 0.362c-1.012 1.663-2.7 2.506-5.019 2.506-1.325 0-2.825-0.275-4.463-0.819-0.112-0.037-0.2-0.119-0.25-0.225s-0.050-0.231-0.006-0.338c0.119-0.281 0.181-0.581 0.181-0.887 0-1.275-1.056-2.319-2.362-2.319-1.3 0-2.356 1.037-2.356 2.319s1.056 2.319 2.356 2.319c0.15 0 0.3-0.019 0.444-0.044 0.212-0.037 0.419 0.088 0.481 0.3l2.263 7.912c0.013 0.038 0.019 0.075 0.019 0.119l-0.013 5.094z"></path>
<path id="svg-ico" fill="#ee5586" d="M25.519 30.306h-19.3c-0.231 0-0.419-0.188-0.419-0.419s0.188-0.419 0.419-0.419h19.306c0.231 0 0.419 0.188 0.419 0.419s-0.194 0.419-0.425 0.419z"></path>
</svg>
