<!-- Generated by IcoMoon.io -->
<svg version="1.1" xmlns="http://www.w3.org/2000/svg" width="32" height="32" viewBox="0 0 32 32">
<title>danger</title>
<path id="svg-ico" fill="#ee5586" d="M13.887 8.356c-0.231 0-0.425-0.188-0.425-0.425v-3.606c0-2.225 1.806-4.031 4.031-4.031s4.031 1.806 4.031 4.031c0 1.362 1.106 2.469 2.469 2.469s2.469-1.106 2.469-2.469c0-1.031 0.837-1.869 1.869-1.869 0.231 0 0.425 0.188 0.425 0.425s-0.188 0.425-0.425 0.425c-0.563 0-1.019 0.456-1.019 1.019 0 1.825-1.488 3.313-3.313 3.313s-3.313-1.487-3.313-3.313c0-1.756-1.431-3.188-3.188-3.188s-3.188 1.431-3.188 3.188v3.612c0 0.231-0.194 0.419-0.425 0.419z"></path>
<path fill="#5e686c" d="M8.094 25.175c-0.131 0-0.263-0.063-0.344-0.181-1.275-1.831-1.763-4.056-1.375-6.256 0.394-2.2 1.619-4.113 3.45-5.387 0.188-0.131 0.456-0.088 0.588 0.106s0.088 0.456-0.106 0.588c-1.65 1.15-2.75 2.869-3.1 4.844s0.088 3.975 1.231 5.625c0.131 0.194 0.088 0.456-0.106 0.587-0.069 0.050-0.15 0.075-0.238 0.075z"></path>
<path fill="#5e686c" d="M14.613 31.462c-6.206 0-11.256-5.050-11.256-11.256 0-4.65 2.888-8.831 7.219-10.494v-1.781c0-0.231 0.188-0.425 0.425-0.425h7.219c0.231 0 0.425 0.188 0.425 0.425v1.781c4.331 1.662 7.219 5.844 7.219 10.494 0 6.206-5.050 11.256-11.25 11.256zM11.419 8.356v1.65c0 0.181-0.113 0.338-0.281 0.4-4.15 1.469-6.938 5.412-6.938 9.806 0 5.738 4.669 10.413 10.406 10.413s10.406-4.669 10.406-10.413c0-4.394-2.788-8.331-6.938-9.806-0.169-0.063-0.281-0.219-0.281-0.4v-1.65h-6.375z"></path>
</svg>
