<!-- Generated by IcoMoon.io -->
<svg version="1.1" xmlns="http://www.w3.org/2000/svg" width="32" height="32" viewBox="0 0 32 32">
<title>database</title>
<path id="svg-ico" fill="#ee5586" d="M22.525 13.613c0.788 0 1.425-0.637 1.425-1.425s-0.637-1.425-1.425-1.425c-0.788 0-1.425 0.637-1.425 1.425 0 0.781 0.637 1.425 1.425 1.425zM22.525 11.588c0.331 0 0.594 0.269 0.594 0.594 0 0.331-0.269 0.594-0.594 0.594s-0.594-0.269-0.594-0.594c0-0.325 0.262-0.594 0.594-0.594z"></path>
<path id="svg-ico" fill="#ee5586" d="M22.525 18.869c-0.788 0-1.425 0.637-1.425 1.425s0.637 1.425 1.425 1.425c0.788 0 1.425-0.637 1.425-1.425s-0.637-1.425-1.425-1.425zM22.525 20.887c-0.325 0-0.594-0.269-0.594-0.594s0.269-0.594 0.594-0.594c0.331 0 0.594 0.269 0.594 0.594s-0.269 0.594-0.594 0.594z"></path>
<path fill="#5e686c" d="M28.45 20.738v-8.044c0 0 0 0 0-0.006 0 0 0 0 0 0v-8.044c0-2.862-6.431-4.412-12.475-4.412-6.050 0-12.475 1.544-12.481 4.406 0 0 0 0 0 0.006v16.112c0 0.012 0 0.025 0 0.038 0.075 2.831 6.463 4.363 12.475 4.363 6.025 0 12.419-1.531 12.475-4.375 0-0.006 0-0.019 0-0.025l0.006-0.019c0 0.006 0 0.006 0 0 0 0 0 0 0 0zM4.325 6.306c1.925 1.794 6.906 2.744 11.65 2.744s9.719-0.95 11.644-2.744v6.381c-0.006 1.694-4.787 3.575-11.644 3.575-6.863 0-11.65-1.887-11.65-3.581 0 0 0 0 0 0v-6.375zM15.969 1.063c6.863 0 11.644 1.888 11.644 3.581 0 0 0 0 0 0v0c0 1.694-4.787 3.581-11.644 3.581-6.863 0-11.65-1.888-11.65-3.581 0.006-1.694 4.787-3.581 11.65-3.581zM15.969 24.319c-6.863 0-11.65-1.887-11.65-3.581 0 0 0 0 0 0v-6.381c1.925 1.794 6.906 2.744 11.65 2.744s9.719-0.95 11.644-2.744v6.381c0 1.7-4.781 3.581-11.644 3.581z"></path>
<path fill="#5e686c" d="M23.869 29.719h-6.581c-0.15-0.581-0.613-1.044-1.194-1.194v-2.131c0-0.231-0.188-0.413-0.412-0.413s-0.412 0.188-0.412 0.413v2.131c-0.581 0.15-1.044 0.613-1.194 1.194h-6.594c-0.231 0-0.412 0.188-0.412 0.413 0 0.231 0.188 0.413 0.412 0.413h6.588c0.188 0.719 0.838 1.244 1.606 1.244 0.775 0 1.425-0.531 1.606-1.244h6.588c0.231 0 0.413-0.188 0.413-0.413 0.006-0.225-0.181-0.413-0.413-0.413zM15.675 30.962c-0.456 0-0.831-0.375-0.831-0.831s0.375-0.831 0.831-0.831c0.456 0 0.831 0.375 0.831 0.831s-0.369 0.831-0.831 0.831z"></path>
</svg>
