<!-- Generated by IcoMoon.io -->
<svg version="1.1" xmlns="http://www.w3.org/2000/svg" width="32" height="32" viewBox="0 0 32 32">
<title>delete</title>
<path fill="#5e686c" d="M25.619 31.569h-19.038c-0.225 0-0.406-0.175-0.419-0.394l-1.587-26.188c-0.013-0.231 0.162-0.431 0.394-0.444s0.431 0.162 0.444 0.394l1.563 25.788h18.25l1.563-25.788c0.012-0.231 0.219-0.406 0.444-0.394 0.231 0.013 0.406 0.213 0.394 0.444l-1.587 26.181c-0.012 0.225-0.194 0.4-0.419 0.4z"></path>
<path fill="#5e686c" d="M11.738 23c-0.206 0-0.387-0.15-0.419-0.363l-1.188-8.262c-0.031-0.231 0.125-0.444 0.356-0.475 0.231-0.037 0.444 0.125 0.475 0.356l1.188 8.262c0.031 0.231-0.125 0.444-0.356 0.475-0.019 0.006-0.037 0.006-0.056 0.006z"></path>
<path fill="#5e686c" d="M20.863 23c-0.019 0-0.038 0-0.063-0.006-0.231-0.031-0.387-0.244-0.356-0.475l1.188-8.262c0.031-0.231 0.244-0.387 0.475-0.356s0.387 0.244 0.356 0.475l-1.188 8.262c-0.031 0.212-0.206 0.363-0.413 0.363z"></path>
<path fill="#5e686c" d="M16.313 23c-0.231 0-0.419-0.188-0.419-0.419v-8.262c0-0.231 0.188-0.419 0.419-0.419s0.419 0.188 0.419 0.419v8.262c0 0.231-0.188 0.419-0.419 0.419z"></path>
<path id="svg-ico" fill="#ee5586" d="M29.6 5.381h-26.988c-0.231 0-0.419-0.188-0.419-0.419s0.188-0.419 0.419-0.419h26.988c0.231 0 0.419 0.188 0.419 0.419s-0.188 0.419-0.419 0.419z"></path>
<path id="svg-ico" fill="#ee5586" d="M21.656 5.381c-0.231 0-0.419-0.188-0.419-0.419v-3.544h-9.475v3.544c0 0.231-0.188 0.419-0.419 0.419s-0.419-0.188-0.419-0.419v-3.969c0-0.231 0.188-0.419 0.419-0.419h10.312c0.231 0 0.419 0.188 0.419 0.419v3.969c0 0.231-0.188 0.419-0.419 0.419z"></path>
</svg>
