<!-- Generated by IcoMoon.io -->
<svg version="1.1" xmlns="http://www.w3.org/2000/svg" width="32" height="32" viewBox="0 0 32 32">
<title>designed</title>
<path fill="#5e686c" d="M21.494 26.381c-0.15 0-0.3-0.081-0.381-0.225l-4.419-7.881c-0.119-0.212-0.044-0.475 0.169-0.594s0.475-0.044 0.594 0.169l4.419 7.881c0.119 0.212 0.044 0.475-0.169 0.594-0.069 0.038-0.137 0.056-0.212 0.056zM10.194 26.256c-0.075 0-0.15-0.019-0.219-0.056-0.213-0.119-0.281-0.387-0.162-0.6l4.581-7.906c0.119-0.212 0.387-0.281 0.6-0.156 0.213 0.119 0.281 0.387 0.162 0.6l-4.581 7.906c-0.081 0.137-0.231 0.212-0.381 0.212zM26.962 16.6h-8.75c-0.244 0-0.438-0.194-0.438-0.438s0.194-0.438 0.438-0.438h8.744c0.244 0 0.438 0.194 0.438 0.438 0.006 0.244-0.194 0.438-0.431 0.438zM13.875 16.6h-8.819c-0.244 0-0.438-0.194-0.438-0.438s0.194-0.438 0.438-0.438h8.819c0.244 0 0.438 0.194 0.438 0.438s-0.194 0.438-0.438 0.438zM14.956 14.731c-0.15 0-0.3-0.081-0.381-0.225l-4.438-7.912c-0.119-0.213-0.044-0.475 0.169-0.594s0.475-0.044 0.594 0.169l4.438 7.913c0.119 0.213 0.044 0.475-0.169 0.594-0.063 0.037-0.137 0.056-0.213 0.056zM16.938 14.625c-0.075 0-0.15-0.019-0.219-0.056-0.212-0.119-0.281-0.387-0.163-0.6l4.531-7.819c0.119-0.213 0.387-0.281 0.6-0.162 0.206 0.119 0.281 0.388 0.156 0.6l-4.531 7.819c-0.081 0.144-0.225 0.219-0.375 0.219z"></path>
<path fill="#5e686c" d="M8.65 26.256c-0.15 0-0.3-0.081-0.381-0.219l-4.519-7.875c-0.119-0.212-0.050-0.475 0.163-0.6 0.206-0.119 0.475-0.050 0.6 0.163l4.519 7.881c0.119 0.212 0.050 0.475-0.162 0.6-0.075 0.031-0.15 0.050-0.219 0.050z"></path>
<path fill="#5e686c" d="M20.431 27.819h-8.844c-0.244 0-0.438-0.194-0.438-0.438s0.194-0.438 0.438-0.438h8.844c0.244 0 0.438 0.194 0.438 0.438 0 0.238-0.2 0.438-0.438 0.438z"></path>
<path fill="#5e686c" d="M23.369 26.256c-0.075 0-0.15-0.019-0.219-0.056-0.212-0.119-0.281-0.387-0.163-0.6l4.519-7.881c0.119-0.212 0.387-0.281 0.6-0.163s0.281 0.387 0.163 0.6l-4.519 7.881c-0.081 0.144-0.231 0.219-0.381 0.219z"></path>
<path fill="#5e686c" d="M27.881 14.819c-0.15 0-0.3-0.081-0.381-0.219l-4.512-7.869c-0.119-0.213-0.050-0.475 0.163-0.6 0.206-0.119 0.475-0.050 0.6 0.162l4.512 7.869c0.119 0.213 0.050 0.475-0.163 0.6-0.069 0.037-0.144 0.056-0.219 0.056z"></path>
<path fill="#5e686c" d="M20.431 5.388h-8.844c-0.244 0-0.438-0.194-0.438-0.438s0.194-0.438 0.438-0.438h8.844c0.244 0 0.438 0.194 0.438 0.438s-0.2 0.438-0.438 0.438z"></path>
<path fill="#5e686c" d="M4.131 14.831c-0.075 0-0.15-0.019-0.219-0.056-0.212-0.119-0.281-0.387-0.163-0.6l4.519-7.881c0.119-0.213 0.387-0.281 0.6-0.162s0.281 0.388 0.162 0.6l-4.525 7.875c-0.081 0.144-0.225 0.225-0.375 0.225z"></path>
<path fill="#5e686c" d="M9.469 7.125c-1.45 0-2.625-1.175-2.625-2.625s1.175-2.625 2.625-2.625c1.45 0 2.625 1.175 2.625 2.625s-1.181 2.625-2.625 2.625zM9.469 2.75c-0.963 0-1.75 0.788-1.75 1.75s0.787 1.75 1.75 1.75c0.963 0 1.75-0.787 1.75-1.75s-0.787-1.75-1.75-1.75z"></path>
<path fill="#5e686c" d="M2.888 18.788c-1.45 0-2.625-1.175-2.625-2.625s1.175-2.625 2.625-2.625c1.45 0 2.625 1.181 2.625 2.625 0 1.45-1.175 2.625-2.625 2.625zM2.888 14.412c-0.962 0-1.75 0.787-1.75 1.75s0.788 1.75 1.75 1.75 1.75-0.788 1.75-1.75c0-0.963-0.788-1.75-1.75-1.75z"></path>
<path fill="#5e686c" d="M9.469 30.45c-1.45 0-2.625-1.175-2.625-2.625s1.175-2.625 2.625-2.625c1.45 0 2.625 1.175 2.625 2.625s-1.181 2.625-2.625 2.625zM9.469 26.075c-0.963 0-1.75 0.788-1.75 1.75s0.787 1.75 1.75 1.75c0.963 0 1.75-0.788 1.75-1.75s-0.787-1.75-1.75-1.75z"></path>
<path fill="#5e686c" d="M22.55 30.431c-1.438 0-2.606-1.169-2.606-2.606s1.169-2.606 2.606-2.606 2.606 1.169 2.606 2.606c0 1.438-1.169 2.606-2.606 2.606zM22.55 26.094c-0.956 0-1.731 0.775-1.731 1.731s0.775 1.731 1.731 1.731c0.956 0 1.731-0.775 1.731-1.731 0-0.95-0.775-1.731-1.731-1.731z"></path>
<path id="svg-ico" fill="#ee5586" d="M16.044 18.788c-1.45 0-2.625-1.175-2.625-2.625s1.175-2.625 2.625-2.625c1.45 0 2.625 1.181 2.625 2.625 0 1.45-1.175 2.625-2.625 2.625zM16.044 14.412c-0.963 0-1.75 0.787-1.75 1.75s0.787 1.75 1.75 1.75 1.75-0.788 1.75-1.75c0-0.963-0.781-1.75-1.75-1.75z"></path>
<path id="svg-ico" fill="#ee5586" d="M29.125 18.788c-1.45 0-2.625-1.175-2.625-2.625s1.175-2.625 2.625-2.625c1.45 0 2.625 1.181 2.625 2.625 0.006 1.45-1.175 2.625-2.625 2.625zM29.125 14.412c-0.962 0-1.75 0.787-1.75 1.75s0.788 1.75 1.75 1.75c0.969 0 1.75-0.788 1.75-1.75 0.006-0.963-0.781-1.75-1.75-1.75z"></path>
<path id="svg-ico" fill="#ee5586" d="M22.55 7.125c-1.45 0-2.625-1.175-2.625-2.625s1.175-2.625 2.625-2.625c1.45 0 2.625 1.175 2.625 2.625s-1.175 2.625-2.625 2.625zM22.55 2.75c-0.962 0-1.75 0.788-1.75 1.75s0.788 1.75 1.75 1.75c0.962 0 1.75-0.787 1.75-1.75s-0.788-1.75-1.75-1.75z"></path>
</svg>
