<!-- Generated by IcoMoon.io -->
<svg version="1.1" xmlns="http://www.w3.org/2000/svg" width="32" height="32" viewBox="0 0 32 32">
<title>disabled</title>
<path fill="#5e686c" d="M22 6.975c-1.894 0-3.438-1.537-3.438-3.431s1.538-3.438 3.438-3.438 3.438 1.544 3.438 3.438c-0.006 1.894-1.544 3.431-3.438 3.431zM22 0.969c-1.419 0-2.575 1.156-2.575 2.575s1.156 2.575 2.575 2.575c1.419 0 2.575-1.156 2.575-2.575s-1.156-2.575-2.575-2.575z"></path>
<path id="svg-ico" fill="#ee5586" d="M13.731 31.881c-4.794 0-8.7-3.9-8.7-8.7 0-4.794 3.9-8.7 8.7-8.7 0.238 0 0.431 0.194 0.431 0.431s-0.194 0.431-0.431 0.431c-4.325 0-7.838 3.519-7.838 7.838 0 4.325 3.519 7.837 7.838 7.837 4.325 0 7.838-3.519 7.838-7.837 0-0.238 0.194-0.431 0.431-0.431s0.431 0.194 0.431 0.431c0 4.8-3.906 8.7-8.7 8.7z"></path>
<path fill="#5e686c" d="M25.1 30.85c-0.031 0-0.056 0-0.087-0.006-0.231-0.044-0.381-0.275-0.337-0.506l1.962-9.825h-10.838c-0.144 0-0.275-0.069-0.356-0.188s-0.094-0.269-0.044-0.4l3.894-9.738-6.469 0.1-6.144 3.956c-0.2 0.125-0.463 0.069-0.594-0.131s-0.069-0.463 0.131-0.594l6.244-4.025c0.069-0.044 0.144-0.069 0.225-0.069l7.237-0.113c0.137 0.006 0.281 0.069 0.363 0.188s0.1 0.269 0.044 0.4l-3.9 9.75h10.738c0.131 0 0.25 0.056 0.331 0.156s0.113 0.231 0.087 0.356l-2.063 10.338c-0.044 0.206-0.219 0.35-0.425 0.35z"></path>
</svg>
