<!-- Generated by IcoMoon.io -->
<svg version="1.1" xmlns="http://www.w3.org/2000/svg" width="32" height="32" viewBox="0 0 32 32">
<title>diskette</title>
<path id="svg-ico" fill="#ee5586" d="M22.319 8.481h-17.944c-0.237 0-0.425-0.194-0.425-0.425v-7.375c0-0.237 0.194-0.431 0.425-0.431s0.425 0.194 0.425 0.425v6.95h17.087v-6.95c0-0.237 0.194-0.425 0.425-0.425 0.238 0 0.425 0.194 0.425 0.425v7.375c0.012 0.238-0.181 0.431-0.419 0.431z"></path>
<path id="svg-ico" fill="#ee5586" d="M20.5 23.531h-12.813c-0.237 0-0.425-0.194-0.425-0.425 0-0.238 0.194-0.425 0.425-0.425h12.813c0.238 0 0.425 0.194 0.425 0.425 0.006 0.238-0.188 0.425-0.425 0.425z"></path>
<path id="svg-ico" fill="#ee5586" d="M20.5 27.269h-12.813c-0.237 0-0.425-0.194-0.425-0.425 0-0.238 0.194-0.425 0.425-0.425h12.813c0.238 0 0.425 0.194 0.425 0.425 0.006 0.238-0.188 0.425-0.425 0.425z"></path>
<path fill="#5e686c" d="M31.294 31.756h-30.656c-0.237 0-0.425-0.194-0.425-0.425v-30.656c0-0.231 0.194-0.425 0.425-0.425h23.613c0.113 0 0.225 0.044 0.306 0.131l7.044 7.263c0.075 0.081 0.119 0.188 0.119 0.3v23.394c0 0.225-0.194 0.419-0.425 0.419zM1.069 30.9h29.8v-22.788l-6.8-7.006h-23v29.794z"></path>
</svg>
