<!-- Generated by IcoMoon.io -->
<svg version="1.1" xmlns="http://www.w3.org/2000/svg" width="32" height="32" viewBox="0 0 32 32">
<title>display</title>
<path fill="#5e686c" d="M31.363 5.131h-30.725c-0.237 0-0.425 0.188-0.425 0.425v19.019c0 0.238 0.188 0.425 0.425 0.425h14.938v1.7h-1.7c-0.238 0-0.425 0.188-0.425 0.425s0.188 0.425 0.425 0.425h4.244c0.238 0 0.425-0.188 0.425-0.425s-0.188-0.425-0.425-0.425h-1.7v-1.7h14.938c0.238 0 0.425-0.188 0.425-0.425v-19.019c0.006-0.231-0.181-0.425-0.419-0.425zM30.938 24.156h-29.875v-18.175h29.875v18.175z"></path>
<path id="svg-ico" fill="#ee5586" d="M13.594 17.994c0.063 0.038 0.137 0.056 0.213 0.056s0.15-0.019 0.213-0.056l4.387-2.563c0.131-0.075 0.212-0.213 0.212-0.369s-0.081-0.287-0.212-0.369l-4.387-2.563c-0.131-0.075-0.294-0.075-0.425 0s-0.213 0.219-0.213 0.369v5.119c0 0.163 0.081 0.3 0.213 0.375zM14.231 13.25l3.125 1.819-3.125 1.819v-3.637z"></path>
</svg>
