<!-- Generated by IcoMoon.io -->
<svg version="1.1" xmlns="http://www.w3.org/2000/svg" width="32" height="32" viewBox="0 0 32 32">
<title>domains</title>
<path id="svg-ico" fill="#ee5586" d="M10.644 6.744c-0.019 0-0.031 0-0.050 0l-2.45-0.275c-0.119-0.013-0.231-0.075-0.3-0.175-0.075-0.094-0.1-0.219-0.081-0.338l0.275-1.544c0.019-0.125 0.094-0.231 0.206-0.3l1.188-0.712 0.137-0.894-0.162-0.631c-0.056-0.231 0.088-0.469 0.319-0.531 0.231-0.056 0.469 0.087 0.531 0.319l0.181 0.725c0.012 0.056 0.019 0.112 0.006 0.169l-0.181 1.181c-0.019 0.131-0.094 0.244-0.206 0.306l-1.194 0.713-0.156 0.888 1.85 0.206 1.912-1.081 1.206-1.206c-0.156-0.212-0.306-0.513-0.275-0.844 0.025-0.25 0.156-0.612 0.669-0.887 0.9-0.494 1.694-1.581 1.7-1.594 0.137-0.194 0.412-0.237 0.606-0.1s0.238 0.412 0.1 0.606c-0.038 0.050-0.919 1.269-1.988 1.85-0.131 0.069-0.213 0.15-0.219 0.2-0.012 0.125 0.181 0.35 0.281 0.438 0.094 0.075 0.156 0.194 0.162 0.319s-0.037 0.244-0.125 0.331l-1.55 1.556c-0.025 0.025-0.056 0.050-0.094 0.069l-2.088 1.181c-0.063 0.037-0.137 0.056-0.213 0.056z"></path>
<path id="svg-ico" fill="#ee5586" d="M0.619 15.113c-0.169 0-0.331-0.1-0.4-0.269-0.094-0.225 0.013-0.475 0.237-0.569l2.219-0.925c0.056-0.025 0.112-0.031 0.169-0.031 0.1-0.025 0.775-0.269 1.406-0.512l0.425-4c0.013-0.137 0.094-0.256 0.206-0.325l0.244-0.144v-3.775c0-0.244 0.194-0.438 0.438-0.438s0.438 0.194 0.438 0.438v4.012c0 0.156-0.081 0.294-0.213 0.375l-0.269 0.162-0.431 4.050c-0.019 0.162-0.125 0.3-0.275 0.363-1.231 0.481-1.669 0.613-1.85 0.65l-2.175 0.906c-0.056 0.019-0.113 0.031-0.169 0.031z"></path>
<path id="svg-ico" fill="#ee5586" d="M13.488 31.587c-0.131 0-0.269-0.063-0.35-0.181l-1.787-2.438-1.719-0.863c-0.044-0.019-0.081-0.050-0.113-0.081l-0.456-0.456-1.025-1.206c-0.069-0.081-0.106-0.181-0.106-0.281v-1.181c0-0.087 0.025-0.175 0.081-0.25 0.206-0.294 0.4-0.625 0.463-0.781-0.037-0.137-0.044-0.3-0.031-0.444l-0.45-0.225-1.55-0.863h-0.338c-0.125 0-0.244-0.050-0.325-0.144l-1.631-1.813c-0.131-0.144-0.15-0.35-0.050-0.519l0.075-0.119-1.125-0.875-1.938 0.813c-0.219 0.094-0.475-0.012-0.569-0.231-0.094-0.225 0.012-0.475 0.237-0.569l2.175-0.913c0.144-0.063 0.313-0.038 0.438 0.056l1.631 1.269c0.175 0.137 0.219 0.381 0.106 0.569l-0.106 0.175 1.287 1.431h0.256c0.075 0 0.15 0.019 0.213 0.056l2.344 1.262c0.175 0.087 0.269 0.281 0.231 0.475-0.025 0.137-0.037 0.325-0.025 0.381 0.063 0.125 0.188 0.369-0.512 1.394v0.881l0.894 1.056 0.381 0.375 1.75 0.875c0.063 0.031 0.119 0.075 0.156 0.131l1.85 2.519c0.144 0.194 0.1 0.469-0.094 0.613-0.088 0.075-0.175 0.1-0.269 0.1z"></path>
<path id="svg-ico" fill="#ee5586" d="M20.081 28.431c-0.113 0-0.225-0.044-0.306-0.125l-1.45-1.45c-0.056-0.056-0.1-0.131-0.119-0.212l-0.363-1.631c-0.044-0.194 0.050-0.394 0.231-0.488l0.406-0.206 0.481-1.044c0.044-0.094 0.113-0.275 0.169-0.425l-0.712-0.712c-0.075-0.075-0.119-0.181-0.125-0.288l-0.075-1.644-0.738-0.344-1.438 0.8c-0.181 0.1-0.412 0.063-0.55-0.1l-1.363-1.631c-0.063-0.075-0.094-0.163-0.1-0.256l-0.088-1.631c-0.006-0.075 0.012-0.15 0.044-0.219l1.544-3.088 1.169-2.787c0.025-0.069 0.069-0.125 0.125-0.169 0 0 1-0.819 1.456-1.181 0.25-0.2 0.663-0.981 0.869-1.463 0.038-0.094 0.106-0.169 0.194-0.213l2.844-1.487-0.425-1.056c-0.056-0.138-0.038-0.294 0.050-0.419 2-2.788 2.175-2.706 2.519-2.538 0.212 0.106 0.306 0.369 0.194 0.587-0.050 0.106-0.144 0.181-0.25 0.219-0.244 0.219-0.975 1.169-1.613 2.044l0.456 1.138c0.075 0.181 0.012 0.394-0.144 0.513l-0.363 0.275-2.738 1.419c-0.175 0.394-0.625 1.306-1.063 1.662-0.375 0.3-1.113 0.906-1.363 1.106l-1.137 2.713-1.5 3.006 0.075 1.375 1.037 1.244 1.319-0.731c0.119-0.069 0.269-0.075 0.394-0.012l1.181 0.544c0.15 0.069 0.244 0.212 0.25 0.375l0.081 1.738 0.788 0.788c0.119 0.119 0.156 0.288 0.106 0.444-0.031 0.094-0.194 0.587-0.3 0.781l-0.538 1.169c-0.044 0.087-0.113 0.163-0.2 0.206l-0.238 0.119 0.262 1.175 1.113 1.113c0.438-0.288 0.863-0.594 0.95-0.688 0.087-0.144 0.55-1.181 0.956-2.106 0.025-0.050 0.056-0.094 0.094-0.137l2.087-2.087 1.106-1.544 0.819-1.887-0.369-1.031-0.581-0.663c-0.125-0.144-0.144-0.356-0.044-0.519l0.456-0.725c0.019-0.031 0.044-0.063 0.075-0.088 1.075-0.988 1.381-0.912 1.538-0.869 0.144 0.037 0.306 0.188 0.35 0.331 0.069 0.2 0.3 1.113 0.444 1.681l0.856-0.25 0.038-0.194c0.031-0.169 0.163-0.3 0.325-0.337l2.087-0.488c0.238-0.063 0.469 0.088 0.525 0.325 0.056 0.231-0.087 0.469-0.325 0.525l-1.813 0.425-0.038 0.181c-0.031 0.156-0.15 0.288-0.306 0.331l-1.544 0.456c-0.113 0.031-0.238 0.019-0.337-0.038s-0.181-0.156-0.206-0.275c-0.125-0.494-0.3-1.188-0.419-1.631-0.163 0.119-0.363 0.281-0.544 0.45l-0.25 0.4 0.419 0.481c0.038 0.044 0.063 0.087 0.081 0.137l0.456 1.269c0.038 0.106 0.031 0.219-0.012 0.319l-0.906 2.087c-0.012 0.031-0.025 0.056-0.044 0.081l-1.181 1.631-2.075 2.081c-0.663 1.519-0.881 1.975-0.981 2.137-0.050 0.1-0.212 0.325-1.506 1.156-0.081 0.044-0.163 0.069-0.244 0.069z"></path>
<path fill="#5e686c" d="M16 31.794c-8.75 0-15.869-7.119-15.869-15.869 0-8.744 7.119-15.863 15.869-15.863 9.8 0 15.863 8.238 15.863 15.863 0 8.75-7.119 15.869-15.863 15.869zM16 0.938c-8.269 0-14.994 6.725-14.994 14.988 0 8.269 6.725 14.994 14.994 14.994s14.994-6.725 14.994-14.994c-0.006-7.206-5.738-14.988-14.994-14.988z"></path>
</svg>
