<!-- Generated by IcoMoon.io -->
<svg version="1.1" xmlns="http://www.w3.org/2000/svg" width="32" height="32" viewBox="0 0 32 32">
<title>doubleright</title>
<path id="svg-ico" fill="#ee5586" d="M0.8 0.263c0.1 0 0.194 0.031 0.269 0.1l18.313 15.262c0.094 0.081 0.15 0.2 0.15 0.325s-0.056 0.244-0.15 0.325l-18.313 15.262c-0.125 0.106-0.306 0.131-0.45 0.056-0.15-0.069-0.244-0.219-0.244-0.381v-30.525c0-0.162 0.094-0.313 0.244-0.381 0.056-0.031 0.119-0.044 0.181-0.044zM18.45 15.944l-17.225-14.356v28.712l17.225-14.356z"></path>
<path fill="#5e686c" d="M12.613 0.263c0.1 0 0.194 0.031 0.269 0.1l18.313 15.262c0.094 0.081 0.15 0.2 0.15 0.325s-0.056 0.244-0.15 0.325l-18.313 15.262c-0.125 0.106-0.306 0.131-0.45 0.056-0.15-0.069-0.244-0.219-0.244-0.381v-4.725c0-0.231 0.188-0.425 0.425-0.425s0.425 0.188 0.425 0.425v3.819l17.225-14.356-17.225-14.363v3.819c0 0.237-0.188 0.425-0.425 0.425s-0.425-0.188-0.425-0.425v-4.719c0-0.162 0.094-0.313 0.244-0.381 0.063-0.031 0.119-0.044 0.181-0.044z"></path>
</svg>
