<!-- Generated by IcoMoon.io -->
<svg version="1.1" xmlns="http://www.w3.org/2000/svg" width="32" height="32" viewBox="0 0 32 32">
<title>doubleleft</title>
<path id="svg-ico" fill="#ee5586" d="M30.925 31.631c-0.094 0-0.194-0.031-0.269-0.1l-18.313-15.262c-0.094-0.081-0.15-0.2-0.15-0.325s0.056-0.244 0.15-0.325l18.313-15.262c0.125-0.106 0.306-0.131 0.45-0.056 0.15 0.069 0.244 0.219 0.244 0.381v30.519c0 0.163-0.094 0.313-0.244 0.381-0.056 0.038-0.119 0.050-0.181 0.050zM13.275 15.944l17.225 14.356v-28.712l-17.225 14.356z"></path>
<path fill="#5e686c" d="M19.113 31.631c-0.1 0-0.194-0.031-0.269-0.1l-18.319-15.262c-0.094-0.081-0.15-0.2-0.15-0.325s0.056-0.244 0.15-0.325l18.313-15.262c0.125-0.106 0.306-0.131 0.45-0.056 0.15 0.069 0.244 0.219 0.244 0.381v4.725c0 0.231-0.188 0.425-0.425 0.425s-0.425-0.188-0.425-0.425v-3.819l-17.219 14.356 17.225 14.356v-3.819c0-0.238 0.188-0.425 0.425-0.425s0.425 0.188 0.425 0.425v4.725c0 0.163-0.094 0.313-0.244 0.381-0.063 0.031-0.119 0.044-0.181 0.044z"></path>
</svg>
