<!-- Generated by IcoMoon.io -->
<svg version="1.1" xmlns="http://www.w3.org/2000/svg" width="32" height="32" viewBox="0 0 32 32">
<title>drivessd</title>
<path fill="#5e686b" d="M27.869 0.206h-23.738c-0.237 0-0.425 0.188-0.425 0.425v30.656c0 0.238 0.188 0.425 0.425 0.425h23.738c0.238 0 0.425-0.188 0.425-0.425v-30.65c0-0.237-0.194-0.431-0.425-0.431zM27.444 30.869h-22.887v-29.806h6.569c-0.006 0.025-0.006 0.044-0.006 0.069v3.863c0 0.237 0.188 0.425 0.425 0.425s0.425-0.188 0.425-0.425v-3.862c0-0.025 0-0.044-0.006-0.069h2.131c-0.006 0.025-0.006 0.044-0.006 0.069v3.862c0 0.237 0.188 0.425 0.425 0.425s0.425-0.188 0.425-0.425v-3.862c0-0.025 0-0.044-0.006-0.069h2.125c-0.006 0.025-0.006 0.044-0.006 0.069v3.862c0 0.237 0.188 0.425 0.425 0.425s0.425-0.188 0.425-0.425v-3.862c0-0.025 0-0.044-0.006-0.069h2.125c-0.006 0.025-0.006 0.044-0.006 0.069v3.862c0 0.237 0.188 0.425 0.425 0.425s0.425-0.188 0.425-0.425v-3.862c0-0.025 0-0.044-0.006-0.069h6.575l0.012 29.806z"></path>
<path id="svg-ico" fill="#ee5586" d="M8.65 9.425v13.075c0 0.238 0.188 0.425 0.425 0.425h13.844c0.238 0 0.425-0.188 0.425-0.425v-13.075c0-0.238-0.188-0.425-0.425-0.425h-13.844c-0.231 0-0.425 0.194-0.425 0.425zM9.506 9.85h12.994v12.225h-12.994v-12.225z"></path>
</svg>
