<!-- Generated by IcoMoon.io -->
<svg version="1.1" xmlns="http://www.w3.org/2000/svg" width="32" height="32" viewBox="0 0 32 32">
<title>dropbox</title>
<path fill="#5e686c" d="M21.219 21.625c-0.075 0-0.144-0.019-0.212-0.056l-5.344-3.056c-0.206-0.119-0.275-0.375-0.156-0.581s0.375-0.275 0.581-0.156l5.344 3.056c0.206 0.119 0.275 0.375 0.156 0.581-0.081 0.131-0.225 0.212-0.369 0.212z"></path>
<path fill="#5e686c" d="M6.213 13.031c-0.075 0-0.144-0.019-0.213-0.056l-5.638-3.231c-0.206-0.119-0.275-0.375-0.156-0.581s0.375-0.275 0.581-0.156l5.638 3.231c0.206 0.119 0.275 0.375 0.156 0.581-0.081 0.131-0.225 0.213-0.369 0.213z"></path>
<path fill="#5e686c" d="M21.219 21.625c-0.15 0-0.294-0.075-0.369-0.219-0.119-0.206-0.044-0.462 0.163-0.581l9.581-5.456c0.206-0.113 0.462-0.044 0.581 0.162s0.044 0.463-0.163 0.581l-9.581 5.456c-0.069 0.038-0.144 0.056-0.212 0.056z"></path>
<path fill="#5e686c" d="M30.8 16.163c-0.081 0-0.156-0.019-0.225-0.069l-5.331-3.369c-0.2-0.125-0.256-0.387-0.131-0.588s0.394-0.256 0.587-0.131l5.331 3.369c0.2 0.125 0.256 0.387 0.131 0.588-0.081 0.131-0.225 0.2-0.363 0.2z"></path>
<path fill="#5e686c" d="M0.575 9.8c-0.15 0-0.287-0.075-0.369-0.213-0.119-0.206-0.050-0.463 0.156-0.581l10.5-6.1c0.2-0.119 0.463-0.050 0.581 0.156s0.050 0.462-0.156 0.581l-10.5 6.106c-0.069 0.031-0.144 0.050-0.213 0.050z"></path>
<path fill="#5e686c" d="M16.012 6.819c-0.144 0-0.281-0.069-0.363-0.2-0.125-0.2-0.069-0.463 0.131-0.588l4.925-3.119c0.2-0.125 0.462-0.069 0.587 0.131s0.069 0.462-0.131 0.587l-4.925 3.119c-0.069 0.044-0.15 0.069-0.225 0.069z"></path>
<path fill="#5e686c" d="M0.575 16.594c-0.144 0-0.281-0.069-0.362-0.2-0.125-0.2-0.069-0.463 0.131-0.588l5.631-3.569c0.2-0.125 0.463-0.069 0.588 0.131s0.069 0.463-0.131 0.588l-5.631 3.569c-0.069 0.050-0.15 0.069-0.225 0.069z"></path>
<path fill="#5e686c" d="M31.438 9.2c-0.069 0-0.137-0.019-0.2-0.050l-10.5-5.5c-0.206-0.106-0.288-0.369-0.181-0.575 0.113-0.212 0.369-0.288 0.575-0.181l10.5 5.5c0.206 0.113 0.288 0.369 0.181 0.575-0.069 0.144-0.219 0.231-0.375 0.231z"></path>
<path fill="#5e686c" d="M10.794 21.625c-0.144 0-0.287-0.075-0.363-0.206-0.119-0.2-0.056-0.462 0.144-0.587l5.081-3.056c0.2-0.119 0.462-0.056 0.587 0.144 0.119 0.2 0.056 0.462-0.144 0.587l-5.088 3.056c-0.069 0.038-0.144 0.063-0.219 0.063z"></path>
<path fill="#5e686c" d="M25.331 12.875c-0.144 0-0.288-0.075-0.363-0.206-0.119-0.2-0.056-0.463 0.144-0.588l6.113-3.675c0.206-0.119 0.462-0.056 0.587 0.144 0.119 0.2 0.056 0.463-0.144 0.588l-6.119 3.675c-0.069 0.044-0.144 0.063-0.219 0.063z"></path>
<path fill="#5e686c" d="M10.794 21.625c-0.063 0-0.125-0.012-0.188-0.044l-10.219-5.031c-0.212-0.106-0.3-0.356-0.194-0.569s0.362-0.3 0.569-0.194l10.219 5.025c0.213 0.106 0.3 0.356 0.194 0.569-0.075 0.156-0.225 0.244-0.381 0.244z"></path>
<path fill="#5e686c" d="M7.1 23.919c-0.237 0-0.425-0.194-0.425-0.425v-4.113c0-0.238 0.194-0.425 0.425-0.425s0.425 0.194 0.425 0.425v4.113c0 0.238-0.194 0.425-0.425 0.425z"></path>
<path fill="#5e686c" d="M15.994 29.156c-0.075 0-0.15-0.019-0.219-0.056l-8.894-5.238c-0.206-0.119-0.269-0.381-0.15-0.581s0.381-0.269 0.581-0.15l8.894 5.238c0.206 0.119 0.269 0.381 0.15 0.581-0.075 0.131-0.219 0.206-0.363 0.206z"></path>
<path fill="#5e686c" d="M15.994 29.156c-0.15 0-0.287-0.075-0.369-0.212-0.119-0.206-0.050-0.462 0.156-0.581l9.531-5.537c0.2-0.119 0.462-0.050 0.581 0.156s0.050 0.462-0.156 0.581l-9.531 5.537c-0.069 0.038-0.137 0.056-0.213 0.056z"></path>
<path fill="#5e686c" d="M25.525 23.619c-0.238 0-0.425-0.194-0.425-0.425v-4.444c0-0.238 0.194-0.425 0.425-0.425 0.238 0 0.425 0.194 0.425 0.425v4.438c0 0.238-0.194 0.431-0.425 0.431z"></path>
<path fill="#5e686c" d="M16.006 6.813c-0.075 0-0.156-0.019-0.225-0.069l-4.931-3.119c-0.2-0.125-0.256-0.388-0.131-0.587s0.387-0.256 0.588-0.131l4.931 3.119c0.2 0.125 0.256 0.388 0.131 0.588-0.081 0.131-0.219 0.2-0.363 0.2z"></path>
<path id="svg-ico" fill="#ee5586" d="M15.875 18.563c-0.075 0-0.144-0.019-0.213-0.056l-9.662-5.531c-0.206-0.119-0.275-0.375-0.156-0.581s0.375-0.275 0.581-0.156l9.669 5.537c0.206 0.119 0.275 0.375 0.156 0.581-0.081 0.131-0.225 0.206-0.375 0.206z"></path>
<path id="svg-ico" fill="#ee5586" d="M6.206 13.025c-0.144 0-0.281-0.069-0.362-0.2-0.125-0.2-0.069-0.463 0.131-0.588l9.806-6.213c0.2-0.125 0.462-0.069 0.587 0.131s0.069 0.463-0.131 0.588l-9.8 6.219c-0.075 0.044-0.15 0.063-0.231 0.063z"></path>
<path id="svg-ico" fill="#ee5586" d="M15.875 18.563c-0.144 0-0.287-0.075-0.363-0.206-0.119-0.2-0.056-0.462 0.144-0.587l9.45-5.688c0.206-0.119 0.462-0.056 0.587 0.144 0.119 0.2 0.056 0.463-0.144 0.588l-9.45 5.687c-0.075 0.044-0.15 0.063-0.225 0.063z"></path>
<path id="svg-ico" fill="#ee5586" d="M25.469 12.794c-0.081 0-0.156-0.019-0.225-0.069l-9.463-5.975c-0.2-0.125-0.256-0.388-0.131-0.588s0.387-0.256 0.587-0.131l9.462 5.981c0.2 0.125 0.256 0.387 0.131 0.588-0.081 0.125-0.225 0.194-0.363 0.194z"></path>
</svg>
