<!-- Generated by IcoMoon.io -->
<svg version="1.1" xmlns="http://www.w3.org/2000/svg" width="32" height="32" viewBox="0 0 32 32">
<title>features</title>
<path id="svg-ico" fill="#ee5586" d="M18.406 31.4c-0.056 0-0.106-0.012-0.163-0.031l-2.019-0.844c-0.15-0.063-0.25-0.212-0.256-0.375l-0.069-2.831-0.688-0.694-2.8-0.019c-0.169 0-0.319-0.1-0.381-0.256l-0.831-2.025c-0.063-0.15-0.031-0.325 0.081-0.444l1.95-2.056 0.006-0.981-1.969-1.994c-0.119-0.119-0.15-0.3-0.088-0.45l0.844-2.019c0.063-0.15 0.206-0.25 0.375-0.256l2.831-0.075 0.694-0.694 0.019-2.8c0-0.169 0.1-0.319 0.256-0.381l2.025-0.831c0.15-0.063 0.325-0.031 0.444 0.081l2.056 1.95 0.981 0.006 1.994-1.969c0.119-0.119 0.3-0.15 0.45-0.088l2.019 0.844c0.15 0.063 0.25 0.206 0.256 0.375l0.075 2.831 0.694 0.694 2.8 0.019c0.169 0 0.319 0.1 0.381 0.256l0.831 2.025c0.063 0.15 0.031 0.325-0.081 0.444l-1.95 2.050v0.988l1.969 1.994c0.119 0.119 0.15 0.3 0.087 0.45l-0.85 2.019c-0.063 0.15-0.206 0.25-0.375 0.256l-2.831 0.075-0.7 0.694-0.019 2.8c0 0.169-0.1 0.319-0.256 0.381l-2.031 0.831c-0.15 0.063-0.325 0.031-0.444-0.081l-2.050-1.956h-0.981l-1.994 1.969c-0.081 0.075-0.188 0.119-0.294 0.119zM16.8 29.863l1.519 0.631 1.919-1.894c0.075-0.075 0.181-0.119 0.294-0.119 0 0 0 0 0 0l1.319 0.006c0.106 0 0.206 0.044 0.288 0.113l1.975 1.881 1.525-0.625 0.019-2.694c0-0.113 0.044-0.212 0.125-0.294l0.938-0.931c0.075-0.075 0.175-0.119 0.281-0.119l2.725-0.069 0.631-1.512-1.9-1.925c-0.075-0.075-0.119-0.181-0.119-0.294l0.006-1.319c0-0.106 0.044-0.206 0.113-0.288l1.881-1.975-0.625-1.519-2.694-0.019c-0.106 0-0.212-0.044-0.294-0.119l-0.931-0.931c-0.075-0.075-0.119-0.175-0.119-0.281l-0.069-2.725-1.512-0.631-1.919 1.894c-0.081 0.075-0.212 0.131-0.294 0.119l-1.319-0.006c-0.106 0-0.206-0.044-0.288-0.113l-1.981-1.881-1.519 0.625-0.019 2.694c0 0.113-0.044 0.213-0.125 0.294l-0.938 0.912c-0.075 0.075-0.175 0.119-0.281 0.119l-2.725 0.069-0.631 1.512 1.894 1.919c0.075 0.075 0.119 0.181 0.119 0.294l-0.006 1.319c0 0.106-0.044 0.206-0.113 0.281l-1.881 1.981 0.625 1.519 2.694 0.019c0.113 0 0.213 0.044 0.294 0.125l0.931 0.938c0.075 0.075 0.119 0.175 0.119 0.281l0.069 2.738z"></path>
<path id="svg-ico" fill="#ee5586" d="M21.194 25.087c-0.494 0-0.981-0.094-1.438-0.288-0.919-0.387-1.637-1.106-2.012-2.031-0.381-0.925-0.375-1.944 0.006-2.863 0.581-1.4 1.944-2.3 3.456-2.3 0.494 0 0.975 0.094 1.438 0.288 0.919 0.381 1.637 1.106 2.019 2.031s0.375 1.944-0.006 2.863c-0.587 1.394-1.944 2.3-3.462 2.3zM21.206 18.431c-1.181 0-2.238 0.7-2.694 1.788-0.3 0.719-0.3 1.506-0.006 2.225s0.85 1.281 1.563 1.581c0.356 0.15 0.731 0.225 1.119 0.225 1.181 0 2.238-0.7 2.694-1.788 0.3-0.719 0.3-1.506 0.006-2.225s-0.856-1.281-1.569-1.581c-0.356-0.15-0.731-0.225-1.113-0.225z"></path>
<path fill="#5e686b" d="M8.919 15.887h-1.588c-0.162 0-0.313-0.094-0.381-0.244l-0.819-1.831-0.575-0.238-1.837 0.75c-0.15 0.063-0.331 0.031-0.45-0.094l-1.125-1.125c-0.119-0.119-0.15-0.287-0.094-0.444l0.719-1.881-0.237-0.575-1.831-0.769c-0.156-0.063-0.256-0.213-0.256-0.381v-1.588c0-0.162 0.094-0.313 0.244-0.381l1.837-0.819 0.237-0.575-0.762-1.831c-0.063-0.156-0.025-0.331 0.094-0.45l1.125-1.125c0.112-0.119 0.288-0.156 0.444-0.094l1.881 0.712 0.575-0.237 0.769-1.831c0.063-0.156 0.213-0.256 0.381-0.256h1.588c0.162 0 0.313 0.094 0.381 0.244l0.819 1.831 0.575 0.237 1.838-0.75c0.156-0.063 0.331-0.025 0.45 0.094l1.125 1.125c0.119 0.119 0.15 0.288 0.094 0.444l-0.719 1.881 0.238 0.575 1.831 0.769c0.156 0.063 0.256 0.219 0.256 0.381v1.587c0 0.162-0.094 0.313-0.244 0.381l-1.838 0.819-0.238 0.575 0.756 1.838c0.063 0.156 0.025 0.331-0.094 0.45l-1.125 1.125c-0.119 0.119-0.287 0.156-0.444 0.094l-1.875-0.719-0.575 0.238-0.769 1.831c-0.063 0.156-0.213 0.256-0.381 0.256zM7.6 15.056h1.044l0.725-1.738c0.044-0.1 0.125-0.181 0.225-0.225l0.887-0.369c0.1-0.037 0.206-0.044 0.306-0.006l1.781 0.681 0.738-0.738-0.713-1.744c-0.044-0.1-0.044-0.213 0-0.319l0.363-0.887c0.037-0.1 0.119-0.175 0.213-0.219l1.738-0.781v-1.025l-1.731-0.725c-0.1-0.044-0.181-0.125-0.225-0.225l-0.369-0.888c-0.037-0.1-0.044-0.206-0.006-0.306l0.681-1.781-0.738-0.737-1.744 0.712c-0.1 0.044-0.213 0.044-0.319 0l-0.887-0.362c-0.1-0.038-0.175-0.119-0.219-0.212l-0.781-1.738h-1.044l-0.713 1.725c-0.044 0.1-0.125 0.181-0.225 0.225l-0.881 0.369c-0.1 0.044-0.206 0.044-0.306 0.006l-1.788-0.681-0.738 0.737 0.712 1.744c0.044 0.1 0.044 0.213 0 0.319l-0.369 0.888c-0.038 0.1-0.119 0.175-0.212 0.219l-1.738 0.775v1.044l1.738 0.725c0.1 0.044 0.181 0.125 0.225 0.225l0.369 0.881c0.038 0.1 0.044 0.206 0.006 0.306l-0.681 1.781 0.738 0.738 1.737-0.713c0.1-0.044 0.213-0.044 0.319 0l0.888 0.369c0.1 0.037 0.175 0.119 0.219 0.213l0.775 1.738z"></path>
<path fill="#5e686b" d="M8.088 10.731c-1.375 0-2.494-1.119-2.494-2.494s1.119-2.494 2.494-2.494c1.375 0 2.494 1.119 2.494 2.494 0.006 1.375-1.113 2.494-2.494 2.494zM8.088 6.575c-0.919 0-1.662 0.744-1.662 1.663s0.744 1.662 1.662 1.662c0.919 0 1.662-0.744 1.662-1.662 0.006-0.919-0.744-1.662-1.662-1.662z"></path>
</svg>
