<!-- Generated by IcoMoon.io -->
<svg version="1.1" xmlns="http://www.w3.org/2000/svg" width="32" height="32" viewBox="0 0 32 32">
<title>female</title>
<path fill="#5e686b" d="M16.081 7.037c-1.881 0-3.412-1.531-3.412-3.413s1.531-3.413 3.412-3.413c1.881 0 3.413 1.531 3.413 3.413s-1.531 3.413-3.413 3.413zM16.081 1.069c-1.412 0-2.563 1.15-2.563 2.563s1.15 2.556 2.563 2.556c1.413 0 2.556-1.15 2.556-2.556 0-1.419-1.144-2.563-2.556-2.563z"></path>
<path fill="#5e686b" d="M8.894 21.506c-0.006 0-0.019 0-0.025 0-0.238-0.012-0.412-0.212-0.4-0.45l0.512-9.244c0.006-0.119 0.063-0.225 0.15-0.3l3.594-3.081c0.181-0.156 0.444-0.131 0.6 0.044 0.156 0.181 0.131 0.45-0.044 0.6l-3.456 2.963-0.506 9.063c-0.012 0.231-0.2 0.406-0.425 0.406z"></path>
<path fill="#5e686b" d="M23.269 21.506c-0.225 0-0.413-0.175-0.425-0.406l-0.506-9.063-3.456-2.963c-0.181-0.156-0.2-0.425-0.044-0.6 0.156-0.181 0.425-0.2 0.6-0.044l3.594 3.081c0.087 0.075 0.144 0.181 0.15 0.3l0.512 9.244c0.012 0.238-0.169 0.438-0.4 0.45-0.006 0-0.019 0-0.025 0z"></path>
<path id="svg-ico" fill="#ee5586" d="M21.219 24.587h-10.269c-0.131 0-0.25-0.056-0.331-0.163-0.081-0.1-0.113-0.231-0.081-0.356l2.050-9.244c0.050-0.231 0.275-0.375 0.506-0.325s0.375 0.281 0.325 0.506l-1.938 8.725h9.206l-1.938-8.725c-0.050-0.231 0.094-0.456 0.325-0.506s0.456 0.094 0.506 0.325l2.050 9.244c0.025 0.125 0 0.256-0.081 0.356-0.081 0.106-0.206 0.163-0.331 0.163z"></path>
<path fill="#5e686b" d="M18.137 31.775h-4.106c-0.219 0-0.4-0.169-0.425-0.387l-0.4-4.081c-0.025-0.231 0.15-0.444 0.381-0.469 0.231-0.006 0.444 0.15 0.469 0.381l0.363 3.694h3.331l0.369-3.794c0.025-0.231 0.238-0.4 0.469-0.381 0.231 0.025 0.406 0.231 0.381 0.469l-0.406 4.175c-0.025 0.231-0.206 0.394-0.425 0.394z"></path>
</svg>
