<!-- Generated by IcoMoon.io -->
<svg version="1.1" xmlns="http://www.w3.org/2000/svg" width="32" height="32" viewBox="0 0 32 32">
<title>flash</title>
<path fill="#5e686c" d="M15.938 31.512c-8.581 0-15.563-6.981-15.563-15.563s6.981-15.563 15.563-15.563c3.694 0 7.269 1.313 10.069 3.7 0.181 0.156 0.206 0.425 0.050 0.606s-0.431 0.206-0.613 0.050c-2.637-2.256-6.019-3.494-9.506-3.494-8.106 0-14.7 6.594-14.7 14.7s6.594 14.694 14.7 14.694c8.106 0 14.7-6.594 14.7-14.7 0-3.475-1.238-6.85-3.475-9.488-0.156-0.181-0.131-0.456 0.050-0.612s0.456-0.131 0.606 0.050c2.375 2.8 3.681 6.369 3.681 10.050 0 8.581-6.981 15.569-15.563 15.569z"></path>
<path id="svg-ico" fill="#ee5586" d="M12.556 27.831v0c-0.131 0-0.306-0.081-0.387-0.181s-0.125-0.3-0.1-0.425l2.113-8.994c-0.006 0-0.012-0.006-0.019-0.006l-2.694-0.906c-0.256-0.1-0.431-0.269-0.5-0.481s-0.031-0.444 0.1-0.65l7.819-11.881c0.094-0.15 0.262-0.244 0.438-0.244 0.131 0 0.306 0.088 0.387 0.194 0.1 0.125 0.131 0.287 0.087 0.45l-2.087 8.856 2.7 0.906c0.319 0.119 0.444 0.306 0.494 0.45 0.063 0.181 0.038 0.387-0.075 0.569l-7.819 12.081c-0.094 0.156-0.269 0.262-0.456 0.262zM11.869 16.538l2.569 0.863c0.225 0.081 0.775 0.281 0.625 0.863l-1.681 7.137 6.581-10.169-2.519-0.856c-0.219-0.081-0.756-0.275-0.587-0.95l1.637-6.956-6.625 10.069z"></path>
</svg>
