<!-- Generated by IcoMoon.io -->
<svg version="1.1" xmlns="http://www.w3.org/2000/svg" width="32" height="32" viewBox="0 0 32 32">
<title>free</title>
<path fill="#5e686c" d="M16.281 18.919c-1.631 0-2.956-1.325-2.956-2.956s1.325-2.956 2.956-2.956c1.631 0 2.956 1.325 2.956 2.956 0 1.625-1.325 2.956-2.956 2.956zM16.281 13.844c-1.162 0-2.113 0.95-2.113 2.113s0.95 2.113 2.113 2.113c1.163 0 2.113-0.95 2.113-2.113s-0.95-2.113-2.113-2.113z"></path>
<path fill="#5e686c" d="M27.813 31.756c-4.231 0-11.181-4.106-17.294-10.219-8.244-8.244-12.269-17.137-9.162-20.244 0.694-0.7 1.688-1.056 2.956-1.056 4.231 0 11.181 4.106 17.294 10.219 3.881 3.881 6.988 8.088 8.738 11.844 1.813 3.881 1.962 6.869 0.431 8.406-0.7 0.7-1.694 1.050-2.962 1.050zM4.313 1.087c-1.031 0-1.825 0.269-2.356 0.806-2.681 2.681 1.519 11.406 9.169 19.050 5.962 5.962 12.675 9.969 16.694 9.969 1.031 0 1.825-0.269 2.356-0.806 1.25-1.25 1.031-3.962-0.6-7.45-1.712-3.669-4.756-7.787-8.569-11.606-5.963-5.956-12.675-9.963-16.694-9.963z"></path>
<path id="svg-ico" fill="#ee5586" d="M4.256 31.788c-1.244 0-2.225-0.35-2.913-1.038-1.525-1.525-1.363-4.5 0.462-8.381 1.763-3.75 4.869-7.95 8.756-11.838 6.131-6.131 13.081-10.25 17.3-10.25 1.244 0 2.225 0.35 2.913 1.038 3.081 3.087-0.962 11.963-9.213 20.219-6.137 6.131-13.088 10.25-17.306 10.25zM27.863 1.125c-4.006 0-10.719 4.019-16.706 10.006-3.819 3.819-6.869 7.938-8.588 11.6-1.637 3.481-1.863 6.188-0.631 7.419 0.525 0.525 1.306 0.788 2.319 0.788 4.006 0 10.719-4.019 16.7-10.006 7.65-7.65 11.875-16.363 9.212-19.019-0.519-0.519-1.294-0.788-2.306-0.788z"></path>
</svg>
