<!-- Generated by IcoMoon.io -->
<svg version="1.1" xmlns="http://www.w3.org/2000/svg" width="32" height="32" viewBox="0 0 32 32">
<title>full</title>
<path id="svg-ico" fill="#ee5586" d="M28.188 19.444c-0.238 0-0.431-0.194-0.431-0.431s0.194-0.431 0.431-0.431c1.444 0 2.613-1.169 2.613-2.613 0-1.438-1.169-2.613-2.613-2.613-0.238 0-0.431-0.194-0.431-0.431s0.194-0.431 0.431-0.431c1.913 0 3.469 1.556 3.469 3.469s-1.556 3.481-3.469 3.481z"></path>
<path fill="#5e686b" d="M25.144 24.512h-17.238c-0.237 0-0.431-0.194-0.431-0.431s0.194-0.431 0.431-0.431h16.806v-15.356h-16.806c-0.237 0-0.431-0.194-0.431-0.431s0.194-0.431 0.431-0.431h17.238c0.238 0 0.431 0.194 0.431 0.431v16.219c0 0.244-0.194 0.431-0.431 0.431z"></path>
<path id="svg-ico" fill="#ee5586" d="M13.994 21.55c-0.025 0-0.056 0-0.081-0.006-0.231-0.044-0.387-0.269-0.338-0.506l1.988-10.213c0.044-0.231 0.275-0.387 0.506-0.338 0.231 0.044 0.387 0.269 0.337 0.506l-2 10.219c-0.031 0.2-0.213 0.337-0.412 0.337z"></path>
<path id="svg-ico" fill="#ee5586" d="M8.925 21.55c-0.025 0-0.056 0-0.081-0.006-0.231-0.044-0.387-0.269-0.338-0.506l2-10.219c0.044-0.231 0.275-0.387 0.506-0.338 0.231 0.044 0.387 0.269 0.338 0.506l-1.994 10.219c-0.050 0.206-0.231 0.344-0.431 0.344z"></path>
<path id="svg-ico" fill="#ee5586" d="M19.063 21.55c-0.025 0-0.056 0-0.081-0.006-0.231-0.044-0.387-0.275-0.337-0.506l1.994-10.219c0.044-0.231 0.275-0.387 0.506-0.338 0.231 0.044 0.387 0.269 0.337 0.506l-1.994 10.219c-0.044 0.206-0.225 0.344-0.425 0.344z"></path>
<path fill="#5e686b" d="M4.869 24.512h-4.056c-0.238 0-0.431-0.194-0.431-0.431v-16.219c0-0.237 0.194-0.431 0.431-0.431h4.056c0.237 0 0.431 0.194 0.431 0.431v16.219c-0.006 0.244-0.194 0.431-0.431 0.431zM1.238 23.656h3.2v-15.363h-3.2v15.363z"></path>
</svg>
