<!-- Generated by IcoMoon.io -->
<svg version="1.1" xmlns="http://www.w3.org/2000/svg" width="32" height="32" viewBox="0 0 32 32">
<title>fullscreen</title>
<path id="svg-ico" fill="#ee5586" d="M31.387 0.287h-8.162c-0.238 0-0.425 0.194-0.425 0.425s0.188 0.425 0.425 0.425h7.131l-14.387 14.256c-0.169 0.162-0.169 0.438 0 0.6 0.081 0.081 0.194 0.125 0.3 0.125s0.219-0.044 0.3-0.125l14.394-14.25v7.131c0 0.238 0.188 0.425 0.425 0.425s0.425-0.188 0.425-0.425v-8.162c0.006-0.231-0.188-0.425-0.425-0.425z"></path>
<path fill="#5e686b" d="M23.425 31.819h-17.919c-2.875 0-5.219-2.344-5.219-5.219v-17.919c0-2.875 2.344-5.219 5.219-5.219h11.5c0.238 0 0.425 0.188 0.425 0.425s-0.194 0.425-0.425 0.425h-11.5c-2.406 0-4.369 1.956-4.369 4.369v17.919c0 2.406 1.956 4.369 4.369 4.369h17.919c2.406 0 4.369-1.956 4.369-4.369v-11.931c0-0.238 0.188-0.425 0.425-0.425s0.425 0.188 0.425 0.425v11.925c0 2.881-2.344 5.225-5.219 5.225z"></path>
</svg>
