<!-- Generated by IcoMoon.io -->
<svg version="1.1" xmlns="http://www.w3.org/2000/svg" width="32" height="32" viewBox="0 0 32 32">
<title>git</title>
<path id="svg-ico" fill="#ee5586" d="M15.6 22.769c-0.075 0-0.15-0.019-0.219-0.063l-8.381-4.981c-0.206-0.119-0.275-0.387-0.15-0.594 0.119-0.206 0.388-0.275 0.594-0.15l8.381 4.981c0.206 0.119 0.275 0.387 0.15 0.594-0.088 0.137-0.231 0.212-0.375 0.212z"></path>
<path fill="#5e686c" d="M15.6 5.319c-1.425 0-2.588-1.162-2.588-2.587s1.162-2.587 2.588-2.587c1.425 0 2.588 1.163 2.588 2.587s-1.163 2.587-2.588 2.587zM15.6 1.006c-0.95 0-1.725 0.775-1.725 1.725s0.775 1.725 1.725 1.725 1.725-0.775 1.725-1.725c0-0.956-0.775-1.725-1.725-1.725z"></path>
<path fill="#5e686c" d="M24.569 17.169c-1.425 0-2.587-1.163-2.587-2.588s1.163-2.588 2.587-2.588c1.425 0 2.587 1.162 2.587 2.588 0 1.431-1.163 2.588-2.587 2.588zM24.569 12.856c-0.95 0-1.725 0.775-1.725 1.725s0.775 1.725 1.725 1.725c0.95 0 1.725-0.775 1.725-1.725s-0.775-1.725-1.725-1.725z"></path>
<path id="svg-ico" fill="#ee5586" d="M7.213 12.119c-1.425 0-2.588-1.162-2.588-2.588s1.162-2.594 2.588-2.594 2.588 1.162 2.588 2.588-1.156 2.594-2.588 2.594zM7.213 7.8c-0.95 0-1.725 0.775-1.725 1.725s0.775 1.725 1.725 1.725 1.725-0.775 1.725-1.725c0.006-0.95-0.769-1.725-1.725-1.725z"></path>
<path fill="#5e686c" d="M15.6 31.744c-0.238 0-0.431-0.194-0.431-0.431v-26.319c0-0.237 0.194-0.431 0.431-0.431s0.431 0.194 0.431 0.431v26.319c0 0.238-0.194 0.431-0.431 0.431z"></path>
<path fill="#5e686c" d="M26.831 31.744h-22.462c-0.237 0-0.431-0.194-0.431-0.431s0.194-0.431 0.431-0.431h22.469c0.238 0 0.431 0.194 0.431 0.431-0.006 0.238-0.2 0.431-0.438 0.431z"></path>
<path fill="#5e686c" d="M15.6 27.75c-0.137 0-0.275-0.069-0.363-0.194-0.131-0.2-0.075-0.469 0.119-0.6l8.969-5.962c0.2-0.131 0.469-0.075 0.6 0.119 0.131 0.2 0.075 0.469-0.119 0.6l-8.969 5.962c-0.075 0.050-0.156 0.075-0.238 0.075z"></path>
<path fill="#5e686c" d="M24.569 21.788c-0.238 0-0.431-0.194-0.431-0.431v-4.512c0-0.238 0.194-0.431 0.431-0.431s0.431 0.194 0.431 0.431v4.512c0 0.238-0.194 0.431-0.431 0.431z"></path>
<path id="svg-ico" fill="#ee5586" d="M7.213 17.788c-0.237 0-0.431-0.194-0.431-0.431v-5.563c0-0.238 0.194-0.431 0.431-0.431s0.431 0.194 0.431 0.431v5.563c0.006 0.238-0.188 0.431-0.431 0.431z"></path>
</svg>
