<!-- Generated by IcoMoon.io -->
<svg version="1.1" xmlns="http://www.w3.org/2000/svg" width="32" height="32" viewBox="0 0 32 32">
<title>globe</title>
<path fill="#5e686b" d="M19.762 30.869h-1.762v-5.725c0 0 0 0 0 0 0-0.119-0.050-0.225-0.125-0.3s-0.188-0.125-0.3-0.125c0 0 0 0 0 0-7.4 0-13.425-6.025-13.425-13.425 0-0.238-0.194-0.431-0.431-0.431s-0.431 0.194-0.431 0.431c0 7.731 6.175 14.044 13.85 14.275v5.306h-1.669c-0.238 0-0.431 0.194-0.431 0.431s0.194 0.431 0.431 0.431h4.281c0.238 0 0.431-0.194 0.431-0.431s-0.181-0.438-0.419-0.438z"></path>
<path id="svg-ico" fill="#ee5586" d="M17.575 0.15c-6.144 0-11.137 4.994-11.137 11.137 0 6.138 4.994 11.137 11.137 11.137 6.137 0 11.137-4.994 11.137-11.137s-5-11.137-11.137-11.137zM17.575 21.563c-5.669 0-10.281-4.613-10.281-10.281s4.613-10.281 10.281-10.281c5.669 0 10.281 4.612 10.281 10.281-0.006 5.675-4.619 10.281-10.281 10.281z"></path>
</svg>
