<!-- Generated by IcoMoon.io -->
<svg version="1.1" xmlns="http://www.w3.org/2000/svg" width="32" height="32" viewBox="0 0 32 32">
<title>goal</title>
<path fill="#5e686b" d="M16 12.925c-1.694 0-3.075 1.381-3.075 3.075s1.381 3.075 3.075 3.075c1.694 0 3.075-1.381 3.075-3.075s-1.381-3.075-3.075-3.075zM16 18.194c-1.213 0-2.194-0.988-2.194-2.194 0-1.213 0.988-2.194 2.194-2.194 1.212 0 2.194 0.988 2.194 2.194 0.006 1.212-0.981 2.194-2.194 2.194z"></path>
<path id="svg-ico" fill="#ee5586" d="M16 6.775c-5.088 0-9.225 4.138-9.225 9.225s4.138 9.225 9.225 9.225c5.087 0 9.225-4.137 9.225-9.225s-4.137-9.225-9.225-9.225zM16 24.344c-4.6 0-8.344-3.744-8.344-8.344s3.744-8.35 8.344-8.35 8.344 3.744 8.344 8.35-3.744 8.344-8.344 8.344z"></path>
<path fill="#5e686b" d="M16 0.188c-8.719 0-15.813 7.094-15.813 15.813s7.094 15.813 15.813 15.813c8.719 0 15.813-7.094 15.813-15.813s-7.094-15.813-15.813-15.813zM16.438 30.925v-2.188c0-0.244-0.194-0.438-0.438-0.438s-0.438 0.194-0.438 0.438v2.188c-7.888-0.231-14.262-6.6-14.488-14.488h2.188c0.244 0 0.438-0.194 0.438-0.438s-0.194-0.438-0.438-0.438h-2.188c0.225-7.888 6.6-14.262 14.488-14.494v2.188c0 0.244 0.194 0.438 0.438 0.438s0.438-0.194 0.438-0.438v-2.188c7.887 0.231 14.256 6.6 14.488 14.488h-2.294c-0.244 0-0.438 0.194-0.438 0.438s0.194 0.437 0.438 0.437h2.294c-0.225 7.894-6.6 14.262-14.488 14.494z"></path>
</svg>
