<!-- Generated by IcoMoon.io -->
<svg version="1.1" xmlns="http://www.w3.org/2000/svg" width="32" height="32" viewBox="0 0 32 32">
<title>googleplus</title>
<path fill="#5e686b" d="M13.113 19.4c-6.019 0-9.069 1.688-9.069 5.019 0 3.431 2.594 5.563 6.769 5.563 4.506 0 6.981-1.663 6.981-4.675 0-2.65-2.119-4.156-3.669-5.262-0.269-0.194-0.525-0.375-0.756-0.55-0.069-0.063-0.156-0.094-0.256-0.094zM16.944 25.3c0 3.156-3.331 3.819-6.125 3.819-3.7 0-5.912-1.756-5.912-4.7 0-2.738 2.713-4.131 8.069-4.156 0.206 0.156 0.431 0.313 0.662 0.481 1.469 1.044 3.306 2.35 3.306 4.556z"></path>
<path id="svg-ico" fill="#ee5586" d="M20.419 0.263h-9.975c-2.2 0-7.981 2.462-7.981 8 0 2.363 1.1 4.256 3.181 5.469 1.444 0.844 3.094 1.213 4.331 1.3-0.369 0.831-0.35 1.944 0.906 3.281 0.056 0.063 0.106 0.119 0.144 0.163-0.025 0-0.050 0-0.081 0-1.069 0-10.444 0.2-10.444 7.163 0 4.269 4.669 6.175 9.294 6.175 3.181 0 6.162-0.887 7.781-2.313 1.962-1.731 2.975-3.938 2.856-6.206-0.106-2.056-1.175-4-2.85-5.194-1.731-1.231-3.063-2.238-3.106-3.037-0.019-0.381 0.256-0.819 0.844-1.338 2.006-1.769 3.738-3.294 3.738-6.8 0-2.119-1.038-3.606-1.875-4.463 0.825-0.019 1.481-0.156 1.95-0.419 1.069-0.6 1.544-0.994 1.563-1.012 0.137-0.119 0.194-0.306 0.131-0.475-0.063-0.175-0.225-0.294-0.406-0.294zM18.706 1.288c-0.363 0.206-0.95 0.313-1.688 0.313-0.575 0-1.037-0.069-1.044-0.069-0.194-0.031-0.394 0.087-0.469 0.275-0.069 0.194 0.006 0.406 0.175 0.512 0.025 0.013 2.512 1.587 2.512 4.6 0 3.113-1.519 4.456-3.444 6.15-0.806 0.713-1.169 1.356-1.131 2.025 0.063 1.188 1.35 2.188 3.462 3.694 1.469 1.044 2.4 2.744 2.494 4.544 0.106 2.006-0.806 3.962-2.569 5.519-1.469 1.294-4.231 2.1-7.213 2.1-4.2 0-8.438-1.644-8.438-5.319 0-6.125 8.606-6.306 9.588-6.306 0.275 0 0.838 0 1.031-0.438 0.175-0.4-0.119-0.8-0.469-1.175-1.006-1.075-1.15-1.975-0.444-2.838 0.106-0.131 0.125-0.313 0.050-0.463-0.075-0.144-0.225-0.238-0.381-0.238-0.006 0-0.012 0-0.019 0l-0.206 0.006c-2 0-7.194-1.063-7.194-5.931 0.006-4.931 5.169-7.125 7.131-7.125h8.55c-0.094 0.050-0.188 0.106-0.288 0.163z"></path>
<path fill="#5e686b" d="M10.025 1.275c-1.281 0-2.325 0.519-3.013 1.5-0.588 0.844-0.894 1.994-0.894 3.337 0 3.606 2.169 7.625 5.281 7.625 1.363 0 2.456-0.481 3.162-1.387 0.613-0.787 0.938-1.887 0.938-3.175 0-3.575-2.4-7.9-5.381-7.9h-0.094zM14.65 9.169c0 1.1-0.262 2.019-0.756 2.65-0.55 0.706-1.387 1.063-2.488 1.063-2.531 0-4.425-3.575-4.425-6.769 0-1.169 0.256-2.15 0.744-2.85 0.525-0.75 1.3-1.131 2.319-1.131h0.081c2.394 0 4.525 3.938 4.525 7.037z"></path>
<path fill="#5e686b" d="M31.15 5.063h-3.863v-3.862c0-0.238-0.194-0.431-0.431-0.431s-0.431 0.194-0.431 0.431v3.862h-3.863c-0.238 0-0.431 0.194-0.431 0.431s0.194 0.431 0.431 0.431h3.863v3.863c0 0.238 0.194 0.431 0.431 0.431s0.431-0.194 0.431-0.431v-3.869h3.863c0.238 0 0.431-0.194 0.431-0.431-0.006-0.231-0.194-0.425-0.431-0.425z"></path>
</svg>
