<!-- Generated by IcoMoon.io -->
<svg version="1.1" xmlns="http://www.w3.org/2000/svg" width="32" height="32" viewBox="0 0 32 32">
<title>graduation</title>
<path fill="#5e686c" d="M0.681 12.344c-0.156 0-0.306-0.088-0.388-0.231-0.112-0.213-0.025-0.475 0.188-0.581l14.875-7.725c0.406-0.35 1.019-0.35 1.431 0l14.613 7.469c0.212 0.106 0.3 0.369 0.188 0.581-0.106 0.213-0.369 0.3-0.581 0.188l-14.669-7.5c-0.038-0.019-0.075-0.044-0.106-0.075-0.087-0.088-0.238-0.088-0.325 0-0.031 0.031-0.069 0.056-0.106 0.075l-14.925 7.75c-0.056 0.031-0.125 0.050-0.194 0.050z"></path>
<path fill="#5e686c" d="M23.769 20.406h-15.344c-0.631 0-1.119-0.387-1.119-0.887v-6.119c0-0.238 0.194-0.431 0.431-0.431s0.431 0.194 0.431 0.431v6.119c0-0.038 0.094 0.025 0.256 0.025h15.344c0.156 0 0.25-0.056 0.269-0.081l-0.012-6.356c0-0.238 0.194-0.431 0.431-0.431s0.431 0.194 0.431 0.431v6.412c0 0.494-0.488 0.887-1.119 0.887z"></path>
<path id="svg-ico" fill="#ee5586" d="M4.994 29.281c-0.237 0-0.431-0.194-0.431-0.431v-15.944c0-0.238 0.194-0.431 0.431-0.431s0.431 0.194 0.431 0.431v15.944c0.006 0.238-0.188 0.431-0.431 0.431z"></path>
<path fill="#5e686c" d="M16.075 15.331c-0.025 0-0.050 0-0.075-0.006l-15.325-2.756c-0.237-0.044-0.394-0.269-0.35-0.506s0.269-0.387 0.5-0.35l15.325 2.756c0.238 0.044 0.394 0.269 0.35 0.506-0.038 0.206-0.219 0.356-0.425 0.356z"></path>
<path fill="#5e686c" d="M16.075 15.331c-0.2 0-0.381-0.137-0.425-0.344-0.050-0.231 0.1-0.463 0.331-0.512l15.131-3.244c0.231-0.050 0.462 0.1 0.512 0.331s-0.1 0.463-0.331 0.512l-15.131 3.244c-0.031 0.006-0.063 0.012-0.087 0.012z"></path>
</svg>
