<!-- Generated by IcoMoon.io -->
<svg version="1.1" xmlns="http://www.w3.org/2000/svg" width="32" height="32" viewBox="0 0 32 32">
<title>grow</title>
<path id="svg-ico" fill="#ee5586" d="M29.425 30.188c-0.025 0-0.050 0-0.075-0.006l-3.531-0.65c-0.106-0.019-0.2-0.081-0.262-0.169l-7.762-10.838c-0.075-0.1-0.094-0.231-0.063-0.35l3.837-13.925c0.050-0.175 0.2-0.294 0.381-0.306 0.181-0.006 0.344 0.1 0.406 0.262l3.438 8.75c0.194 0.488-0.019 1.094-0.481 1.381l-1.337 0.819 7.537 10.481c0.069 0.094 0.094 0.206 0.069 0.319l-0.6 3.175c-0.025 0.113-0.087 0.212-0.188 0.275l-1.15 0.719c-0.063 0.038-0.144 0.063-0.219 0.063zM26.137 28.744l3.206 0.587 0.863-0.538 0.531-2.825-7.7-10.694c-0.069-0.094-0.094-0.213-0.069-0.325s0.094-0.213 0.194-0.275l1.719-1.050c0.131-0.081 0.181-0.262 0.144-0.369l-2.988-7.581-3.45 12.525 7.55 10.544z"></path>
<path fill="#5e686b" d="M10.813 31.5h-1.4c-0.106 0-0.213-0.044-0.287-0.119l-2.4-2.337c-0.081-0.081-0.125-0.188-0.125-0.3v-12.444h-1.481c-0.537 0-1.063-0.381-1.194-0.875l-3.525-12.881c-0.069-0.256-0.025-0.531 0.119-0.75 0.156-0.231 0.412-0.387 0.706-0.425l7.662-1.006c0.369-0.044 0.95-0.081 1.325-0.081 0.369 0 0.963 0.037 1.319 0.081l7.662 1.006c0.294 0.038 0.556 0.194 0.706 0.431 0.144 0.219 0.188 0.494 0.113 0.75l-3.519 12.887c-0.131 0.488-0.656 0.869-1.2 0.869h-1.481v12.444c0 0.119-0.050 0.231-0.137 0.306l-2.556 2.306c-0.063 0.069-0.2 0.137-0.306 0.137zM9.588 30.669h1.069l2.338-2.106v-12.675c0-0.231 0.188-0.419 0.419-0.419h1.9c0.181 0 0.363-0.137 0.394-0.256l3.519-12.894c-0.031-0.1-0.075-0.125-0.131-0.131l-7.662-1c-0.319-0.038-0.881-0.075-1.213-0.075-0.344 0-0.894 0.031-1.225 0.075l-7.656 1.006c-0.056 0.006-0.1 0.031-0.125 0.063l3.513 12.956c0.031 0.119 0.213 0.256 0.388 0.256h1.9c0.231 0 0.419 0.188 0.419 0.419v12.688l2.156 2.094z"></path>
<path id="svg-ico" fill="#ee5586" d="M10.231 8.387c-1.606 0-2.912-1.306-2.912-2.912s1.306-2.913 2.912-2.913c1.606 0 2.912 1.306 2.912 2.913s-1.306 2.912-2.912 2.912zM10.231 3.394c-1.144 0-2.081 0.931-2.081 2.081 0 1.144 0.931 2.081 2.081 2.081 1.144 0 2.081-0.931 2.081-2.081 0-1.144-0.931-2.081-2.081-2.081z"></path>
</svg>
