<!-- Generated by IcoMoon.io -->
<svg version="1.1" xmlns="http://www.w3.org/2000/svg" width="32" height="32" viewBox="0 0 32 32">
<title>house</title>
<path id="svg-ico" fill="#ee5586" d="M20.262 31.438c-0.238 0-0.431-0.194-0.431-0.431v-12.325h-7.631v12.144c0 0.238-0.194 0.431-0.431 0.431s-0.431-0.194-0.431-0.431v-12.569c0-0.238 0.194-0.431 0.431-0.431h8.494c0.238 0 0.431 0.194 0.431 0.431v12.756c0 0.231-0.194 0.425-0.431 0.425z"></path>
<path fill="#5e686c" d="M26.681 31.688h-21.319c-0.237 0-0.431-0.194-0.431-0.431v-17.275c0-0.238 0.194-0.431 0.431-0.431s0.431 0.194 0.431 0.431v16.85h20.456v-16.85c0-0.238 0.194-0.431 0.431-0.431s0.431 0.194 0.431 0.431v17.281c-0.006 0.238-0.2 0.425-0.431 0.425z"></path>
<path fill="#5e686c" d="M31.462 13.444c-0.087 0-0.175-0.025-0.25-0.081l-15.194-10.869-15.194 10.869c-0.194 0.137-0.463 0.094-0.6-0.1s-0.094-0.463 0.1-0.6l15.444-11.044c0.15-0.106 0.35-0.106 0.5 0l15.444 11.050c0.194 0.137 0.238 0.406 0.1 0.6-0.081 0.113-0.212 0.175-0.35 0.175z"></path>
</svg>
