<!-- Generated by IcoMoon.io -->
<svg version="1.1" xmlns="http://www.w3.org/2000/svg" width="32" height="32" viewBox="0 0 32 32">
<title>index</title>
<path fill="#5e686b" d="M3.65 25.012c-1.869 0-3.388 1.519-3.388 3.381 0 1.869 1.519 3.381 3.388 3.381s3.381-1.519 3.381-3.381c0-1.863-1.519-3.381-3.381-3.381zM3.65 30.938c-1.4 0-2.538-1.137-2.538-2.538s1.138-2.538 2.538-2.538 2.538 1.137 2.538 2.531c0 1.4-1.138 2.544-2.538 2.544z"></path>
<path fill="#5e686b" d="M16.025 25.012c-0.787 0-1.512 0.269-2.088 0.725l-7.669-7.662c0.475-0.581 0.763-1.331 0.763-2.137 0-1.725-1.294-3.15-2.963-3.356v-5.75c1.669-0.206 2.963-1.631 2.963-3.356 0-1.869-1.519-3.388-3.381-3.388-1.869 0-3.388 1.519-3.388 3.381 0 1.725 1.294 3.15 2.962 3.356v5.75c-1.669 0.206-2.962 1.631-2.962 3.356 0 1.869 1.519 3.381 3.388 3.381 0.75 0 1.444-0.244 2.006-0.663l7.681 7.681c-0.438 0.569-0.7 1.281-0.7 2.056 0 1.869 1.519 3.381 3.381 3.381 1.869 0 3.381-1.519 3.381-3.381 0.006-1.856-1.512-3.375-3.375-3.375zM1.113 3.469c0-1.4 1.137-2.538 2.538-2.538s2.537 1.137 2.537 2.538-1.138 2.537-2.538 2.537-2.538-1.138-2.538-2.538zM1.113 15.931c0-1.4 1.137-2.537 2.538-2.537s2.537 1.137 2.537 2.537c0 0.706-0.294 1.35-0.763 1.812-0.013 0.012-0.031 0.025-0.044 0.038s-0.019 0.019-0.025 0.031c-0.45 0.413-1.050 0.663-1.706 0.663-1.4-0.006-2.538-1.144-2.538-2.544zM16.025 30.938c-1.4 0-2.537-1.137-2.537-2.538s1.137-2.538 2.537-2.538c1.4 0 2.538 1.137 2.538 2.538 0 1.394-1.137 2.538-2.538 2.538z"></path>
<path fill="#5e686b" d="M16.025 12.55c-1.869 0-3.381 1.519-3.381 3.387s1.519 3.381 3.381 3.381c1.869 0 3.381-1.519 3.381-3.381 0-1.869-1.519-3.388-3.381-3.388zM16.025 18.469c-1.4 0-2.537-1.137-2.537-2.537s1.137-2.537 2.537-2.537c1.4 0 2.538 1.137 2.538 2.537s-1.137 2.537-2.538 2.537z"></path>
<path fill="#5e686b" d="M28.4 25.012c-1.869 0-3.381 1.519-3.381 3.381 0 1.869 1.519 3.381 3.381 3.381 1.869 0 3.381-1.519 3.381-3.381s-1.519-3.381-3.381-3.381zM28.4 30.938c-1.4 0-2.538-1.137-2.538-2.538s1.137-2.538 2.538-2.538 2.538 1.137 2.538 2.531c0 1.4-1.144 2.544-2.538 2.544z"></path>
<path id="svg-ico" fill="#ee5586" d="M28.4 12.55c-0.769 0-1.475 0.256-2.044 0.688l-7.675-7.675c0.456-0.575 0.725-1.306 0.725-2.094 0-1.869-1.519-3.388-3.381-3.388-1.869 0-3.381 1.519-3.381 3.388s1.519 3.388 3.381 3.388c0.775 0 1.481-0.263 2.056-0.7l7.669 7.675c-0.462 0.575-0.738 1.306-0.738 2.106 0 1.869 1.519 3.381 3.381 3.381 1.869 0 3.381-1.519 3.381-3.381 0.006-1.869-1.512-3.388-3.375-3.388zM13.488 3.469c0-1.4 1.137-2.538 2.538-2.538s2.538 1.137 2.538 2.538c0 0.694-0.281 1.325-0.731 1.781-0.012 0.006-0.025 0.019-0.031 0.031-0.006 0.006-0.012 0.013-0.019 0.019-0.456 0.438-1.075 0.706-1.756 0.706-1.4 0-2.537-1.138-2.537-2.538zM28.4 18.469c-1.4 0-2.538-1.137-2.538-2.537s1.137-2.537 2.538-2.537 2.538 1.137 2.538 2.537c0 1.4-1.144 2.537-2.538 2.537z"></path>
<path fill="#5e686b" d="M28.4 6.856c1.869 0 3.381-1.519 3.381-3.388s-1.519-3.381-3.381-3.381c-1.869 0-3.381 1.519-3.381 3.388s1.512 3.381 3.381 3.381zM28.4 0.931c1.4 0 2.538 1.138 2.538 2.538s-1.137 2.537-2.538 2.537c-1.4 0-2.538-1.138-2.538-2.538s1.137-2.538 2.538-2.538z"></path>
</svg>
