<!-- Generated by IcoMoon.io -->
<svg version="1.1" xmlns="http://www.w3.org/2000/svg" width="32" height="32" viewBox="0 0 32 32">
<title>indicateright</title>
<path fill="#5e686c" d="M14.975 28.056c-0.019 0-0.037 0-0.056-0.006l-14.25-2c-0.206-0.031-0.356-0.206-0.356-0.413v-16.313c0-0.131 0.063-0.256 0.169-0.331l5.425-4.069c0.075-0.056 0.162-0.081 0.25-0.081h6.781c0.113 0 0.219 0.044 0.294 0.125l2.037 2.038c0.162 0.162 0.162 0.425 0 0.588s-0.425 0.162-0.588 0l-1.912-1.912h-6.475l-5.15 3.862v15.738l13.563 1.906 4.45-10.9c0.087-0.212 0.331-0.319 0.544-0.231s0.319 0.331 0.231 0.544l-4.575 11.2c-0.063 0.156-0.213 0.256-0.381 0.256z"></path>
<path id="svg-ico" fill="#ee5586" d="M28.2 10.762h-19.331c-0.231 0-0.419-0.188-0.419-0.419s0.188-0.419 0.419-0.419h19.331c0.231 0 0.419 0.188 0.419 0.419s-0.188 0.419-0.419 0.419z"></path>
<path id="svg-ico" fill="#ee5586" d="M14.969 16.881c-0.231 0-0.419-0.188-0.419-0.419s0.188-0.419 0.419-0.419l13.231-0.012c0.231 0 0.419 0.188 0.419 0.419s-0.188 0.419-0.419 0.419l-13.231 0.012z"></path>
<path id="svg-ico" fill="#ee5586" d="M28.2 16.863c-0.231 0-0.419-0.188-0.419-0.419s0.188-0.419 0.419-0.419c1.45 0 2.637-1.181 2.637-2.637 0-1.45-1.181-2.631-2.637-2.631-0.231 0-0.419-0.188-0.419-0.419s0.188-0.419 0.419-0.419c1.913 0 3.469 1.556 3.469 3.469 0 1.919-1.556 3.475-3.469 3.475z"></path>
</svg>
