<!-- Generated by IcoMoon.io -->
<svg version="1.1" xmlns="http://www.w3.org/2000/svg" viewBox="0 0 32 32">
<title>inverse</title>
<path id="svg-ico" fill="#ee5586" d="M12.875 23h-2.975c-0.15-0.587-0.619-1.056-1.206-1.206v-2.975c0-0.231-0.188-0.419-0.419-0.419s-0.419 0.188-0.419 0.419v2.975c-0.725 0.188-1.263 0.844-1.263 1.631 0 0.925 0.756 1.681 1.681 1.681 0.781 0 1.444-0.538 1.631-1.262h2.969c0.231 0 0.419-0.188 0.419-0.419s-0.188-0.425-0.419-0.425zM8.275 24.256c-0.463 0-0.844-0.375-0.844-0.844 0-0.462 0.375-0.844 0.844-0.844 0.463 0 0.844 0.375 0.844 0.844-0.006 0.469-0.381 0.844-0.844 0.844z"></path>
<path id="svg-ico" fill="#ee5586" d="M18.856 9.044h2.969c0.15 0.594 0.619 1.056 1.206 1.206v2.975c0 0.231 0.188 0.419 0.419 0.419s0.419-0.188 0.419-0.419v-2.975c0.725-0.188 1.262-0.844 1.262-1.631 0-0.925-0.756-1.681-1.681-1.681-0.781 0-1.444 0.537-1.631 1.262h-2.975c-0.231 0-0.419 0.188-0.419 0.419 0.006 0.238 0.194 0.425 0.431 0.425zM23.456 7.781c0.462 0 0.837 0.375 0.837 0.844s-0.375 0.844-0.837 0.844c-0.462 0-0.844-0.375-0.844-0.844s0.381-0.844 0.844-0.844z"></path>
<path fill="#5e686b" d="M12.313 14.756c0-0.231-0.188-0.419-0.419-0.419h-2.944v-1.3h7.287c0.231 0 0.419-0.188 0.419-0.419v-11.781c0-0.231-0.188-0.419-0.419-0.419h-15.425c-0.231 0-0.419 0.188-0.419 0.419v11.781c0 0.231 0.188 0.419 0.419 0.419h7.287v1.3h-2.938c-0.231 0-0.419 0.188-0.419 0.419s0.188 0.419 0.419 0.419h6.725c0.231 0 0.425-0.188 0.425-0.419zM15.813 1.256v7.394h-14.575v-7.394h14.575zM1.238 9.494h14.575v2.706h-14.575v-2.706z"></path>
<path fill="#5e686b" d="M31.206 16.781h-15.419c-0.231 0-0.419 0.188-0.419 0.419v11.781c0 0.231 0.188 0.419 0.419 0.419h7.288v1.3h-2.944c-0.231 0-0.419 0.188-0.419 0.419s0.188 0.419 0.419 0.419h6.725c0.231 0 0.419-0.188 0.419-0.419s-0.188-0.419-0.419-0.419h-2.944v-1.3h7.288c0.231 0 0.419-0.188 0.419-0.419v-11.775c0.006-0.238-0.181-0.425-0.413-0.425zM30.781 17.625v7.394h-14.575v-7.394h14.575zM16.206 28.569v-2.706h14.581v2.706h-14.581z"></path>
</svg>
