<!-- Generated by IcoMoon.io -->
<svg version="1.1" xmlns="http://www.w3.org/2000/svg" width="32" height="32" viewBox="0 0 32 32">
<title>law</title>
<path fill="#5e686b" d="M21.337 27.738c-0.587 0-1.137-0.225-1.55-0.637l-0.625-0.625c-0.413-0.413-0.644-0.962-0.644-1.55 0-0.444 0.131-0.863 0.375-1.219l-10.7-10.688c-0.831 0.563-2.044 0.456-2.775-0.269l-0.625-0.625c-0.856-0.856-0.856-2.244 0-3.094l8.137-8.119c0.831-0.825 2.269-0.825 3.1 0l0.625 0.625c0.413 0.413 0.644 0.969 0.644 1.55 0 0.438-0.131 0.862-0.369 1.219l10.7 10.688c0.837-0.563 2.050-0.456 2.775 0.269l0.625 0.625c0.413 0.413 0.644 0.962 0.644 1.544 0 0.587-0.225 1.137-0.644 1.55l-8.144 8.119c-0.413 0.413-0.962 0.637-1.55 0.637zM8.225 12.031c0.106 0 0.219 0.044 0.3 0.125l11.244 11.225c0.081 0.081 0.125 0.188 0.125 0.3s-0.044 0.219-0.125 0.3c-0.256 0.256-0.394 0.594-0.394 0.95s0.137 0.7 0.394 0.95l0.625 0.625c0.506 0.506 1.4 0.506 1.906 0l8.131-8.119c0.256-0.256 0.394-0.594 0.394-0.95s-0.144-0.694-0.394-0.95l-0.625-0.625c-0.512-0.512-1.4-0.512-1.906 0-0.163 0.163-0.431 0.163-0.594 0l-11.25-11.231c-0.081-0.081-0.125-0.188-0.125-0.3s0.044-0.219 0.125-0.3c0.256-0.25 0.394-0.587 0.394-0.95s-0.137-0.7-0.394-0.95l-0.625-0.625c-0.512-0.506-1.394-0.506-1.906 0l-8.137 8.125c-0.525 0.525-0.525 1.375 0 1.9l0.625 0.625c0.506 0.506 1.4 0.506 1.906 0 0.088-0.081 0.194-0.125 0.306-0.125z"></path>
<path id="svg-ico" fill="#ee5586" d="M31.181 31.688h-15.181c-0.231 0-0.419-0.188-0.419-0.419s0.188-0.419 0.419-0.419h15.181c0.231 0 0.419 0.188 0.419 0.419 0.006 0.231-0.188 0.419-0.419 0.419z"></path>
<path fill="#5e686b" d="M0.781 31.656c-0.106 0-0.219-0.044-0.3-0.125-0.163-0.163-0.163-0.431 0-0.594l9.325-9.325c0.162-0.163 0.431-0.163 0.594 0s0.162 0.431 0 0.594l-9.325 9.325c-0.081 0.081-0.188 0.125-0.294 0.125z"></path>
</svg>
