<!-- Generated by IcoMoon.io -->
<svg version="1.1" xmlns="http://www.w3.org/2000/svg" width="32" height="32" viewBox="0 0 32 32">
<title>layers</title>
<path fill="#5e686b" d="M15.95 17.056c-0.994 0-1.925-0.206-2.569-0.569l-11.387-6.431c-0.656-0.369-1.025-0.875-1.025-1.387 0-0.519 0.363-1.013 1.025-1.388l11.387-6.431c1.344-0.762 3.8-0.762 5.144 0l11.387 6.425c0.663 0.375 1.025 0.869 1.025 1.387 0 0.512-0.369 1.019-1.025 1.387l-11.387 6.438c-0.644 0.363-1.581 0.569-2.575 0.569zM15.95 1.1c-0.819 0-1.606 0.175-2.156 0.488l-11.381 6.425c-0.444 0.25-0.6 0.512-0.6 0.656s0.156 0.406 0.6 0.656l11.381 6.425c1.044 0.587 3.269 0.587 4.313 0l11.387-6.425c0.444-0.25 0.6-0.506 0.6-0.656s-0.156-0.406-0.6-0.656l-11.387-6.425c-0.544-0.313-1.331-0.488-2.156-0.488z"></path>
<path id="svg-ico" fill="#ee5586" d="M15.95 24.631c-1.069 0-2.094-0.244-2.875-0.688l-10.544-5.956c-0.944-0.531-1.462-1.3-1.462-2.162 0-0.231 0.188-0.425 0.425-0.425 0.231 0 0.425 0.188 0.425 0.425 0 0.544 0.369 1.050 1.031 1.431l10.544 5.95c1.319 0.744 3.6 0.744 4.925 0l10.544-5.95c0.669-0.375 1.038-0.881 1.038-1.431 0-0.231 0.188-0.425 0.425-0.425 0.231 0 0.425 0.188 0.425 0.425 0 0.862-0.519 1.631-1.462 2.162l-10.544 5.95c-0.8 0.45-1.819 0.694-2.894 0.694z"></path>
<path fill="#5e686b" d="M15.95 31.669c-1.069 0-2.088-0.244-2.875-0.688l-10.544-5.956c-0.944-0.531-1.462-1.3-1.462-2.163 0-0.231 0.188-0.425 0.425-0.425 0.231 0 0.425 0.188 0.425 0.425 0 0.544 0.369 1.050 1.031 1.431l10.544 5.95c1.325 0.75 3.6 0.75 4.925 0l10.544-5.95c0.669-0.375 1.038-0.881 1.038-1.431 0-0.231 0.188-0.425 0.425-0.425 0.231 0 0.425 0.188 0.425 0.425 0 0.863-0.519 1.631-1.462 2.163l-10.544 5.95c-0.8 0.45-1.825 0.694-2.894 0.694z"></path>
</svg>
