<!-- Generated by IcoMoon.io -->
<svg version="1.1" xmlns="http://www.w3.org/2000/svg" width="32" height="32" viewBox="0 0 32 32">
<title>learning</title>
<path fill="#5e686c" d="M15.662 30.813c-0.056 0-0.113-0.012-0.169-0.038-0.050-0.025-0.094-0.050-0.131-0.087v0 0c-0.031-0.031-0.063-0.069-0.081-0.113v0 0c0-0.006-0.006-0.012-0.006-0.012-0.688-1.587-3.725-2.063-4.838-2.113h-8.969c-0.231 0-0.419-0.188-0.419-0.419v-25.55c0-0.231 0.188-0.419 0.419-0.419h9.938c0.162 0.006 3.044 0.163 4.213 1.638 1.075-1.475 4.131-1.631 4.287-1.638h1.438c0.231 0 0.419 0.188 0.419 0.419s-0.188 0.419-0.419 0.419h-1.419c-0.019 0-3.831 0.225-3.837 1.938 0 0.044-0.006 0.081-0.019 0.125-0.019 0.056-0.044 0.112-0.088 0.156-0.044 0.050-0.094 0.088-0.156 0.112-0.044 0.019-0.088 0.031-0.131 0.031-0.050 0-0.1 0-0.15-0.019-0.056-0.019-0.113-0.044-0.156-0.081v0c0 0 0 0 0 0-0.050-0.044-0.088-0.094-0.113-0.156-0.012-0.037-0.025-0.075-0.031-0.112-0.238-1.775-3.825-1.994-3.862-1.994h-9.494v24.706h8.569c0.181 0.006 3.75 0.188 5.206 1.988 1.45-1.8 5.019-1.981 5.188-1.988h8.587v-24.706h-3.344c-0.231 0-0.419-0.188-0.419-0.419s0.188-0.419 0.419-0.419h3.769c0.231 0 0.419 0.188 0.419 0.419v25.55c0 0.231-0.188 0.419-0.419 0.419h-8.994c-0.019 0-3.988 0.2-4.819 2.113 0 0 0 0 0 0v0 0 0c0 0 0 0 0 0s0 0 0 0 0 0 0 0 0 0 0 0v0c0 0 0 0 0 0.006v0c0 0 0 0 0 0s0 0 0 0v0c0 0 0 0 0 0s0 0 0 0v0c-0.019 0.044-0.050 0.081-0.081 0.119-0.037 0.038-0.081 0.069-0.131 0.087-0.063 0.025-0.106 0.044-0.175 0.038z"></path>
<path id="svg-ico" fill="#ee5586" d="M26.075 12.044c-0.094 0-0.188-0.031-0.262-0.094l-2.106-1.681-2.1 1.681c-0.125 0.1-0.3 0.119-0.444 0.050s-0.238-0.219-0.238-0.381v-9.137c0-0.231 0.188-0.419 0.419-0.419s0.419 0.188 0.419 0.419v8.269l1.681-1.35c0.156-0.125 0.369-0.125 0.525 0l1.681 1.35v-8.744c0.006-0.081 0.075-0.462-0.137-0.719-0.156-0.188-0.444-0.281-0.863-0.281h-2.837c-0.069-0.006-0.725-0.1-1.131 0.231-0.206 0.169-0.319 0.431-0.337 0.794-0.012 0.231-0.212 0.425-0.444 0.394-0.231-0.013-0.406-0.212-0.394-0.444 0.031-0.606 0.25-1.081 0.65-1.4 0.7-0.563 1.681-0.419 1.725-0.406l2.775-0.006c0.681 0 1.194 0.2 1.512 0.594 0.456 0.556 0.331 1.25 0.319 1.325l0.006 9.537c0 0.162-0.094 0.306-0.238 0.381-0.063 0.025-0.119 0.037-0.181 0.037z"></path>
<path fill="#5e686c" d="M15.662 31.762c-0.231 0-0.419-0.188-0.419-0.419v-26.5c0-0.231 0.188-0.419 0.419-0.419s0.419 0.188 0.419 0.419v26.494c0 0.238-0.188 0.425-0.419 0.425z"></path>
</svg>
