<!-- Generated by IcoMoon.io -->
<svg version="1.1" xmlns="http://www.w3.org/2000/svg" width="32" height="32" viewBox="0 0 32 32">
<title>left</title>
<path fill="#5e686b" d="M16.019 31.663c-8.031 0-14.7-6.019-15.512-14-0.025-0.238 0.15-0.45 0.387-0.475 0.25-0.025 0.45 0.15 0.475 0.387 0.763 7.537 7.063 13.219 14.65 13.219 8.125 0 14.731-6.606 14.731-14.725s-6.606-14.725-14.725-14.725c-7.394 0-13.675 5.519-14.606 12.844-0.031 0.238-0.244 0.406-0.488 0.375-0.238-0.031-0.406-0.25-0.375-0.488 0.988-7.756 7.638-13.6 15.463-13.6 8.6 0 15.594 6.994 15.594 15.594 0 8.594-6.994 15.594-15.594 15.594z"></path>
<path id="svg-ico" fill="#ee5586" d="M20.325 25.1c-0.113 0-0.219-0.044-0.306-0.125l-8.606-8.6c-0.169-0.169-0.169-0.444 0-0.613l8.606-8.606c0.169-0.169 0.444-0.169 0.613 0s0.169 0.444 0 0.612l-8.3 8.3 8.3 8.3c0.169 0.169 0.169 0.444 0 0.613-0.087 0.081-0.194 0.119-0.306 0.119z"></path>
</svg>
