<!-- Generated by IcoMoon.io -->
<svg version="1.1" xmlns="http://www.w3.org/2000/svg" width="32" height="32" viewBox="0 0 32 32">
<title>linux</title>
<path id="svg-ico" fill="#ee5586" d="M13.45 9.063c-1.194 0-2.169-0.975-2.169-2.169s0.975-2.169 2.169-2.169c1.2 0 2.175 0.975 2.175 2.169s-0.975 2.169-2.175 2.169zM13.45 5.588c-0.719 0-1.3 0.581-1.3 1.3s0.581 1.3 1.3 1.3c0.719 0 1.306-0.588 1.306-1.3s-0.588-1.3-1.306-1.3z"></path>
<path id="svg-ico" fill="#ee5586" d="M16.069 26.906c-3.012 0-5.463-2.994-5.463-6.675s2.45-6.675 5.463-6.675c3.012 0 5.462 2.994 5.462 6.675 0.006 3.675-2.45 6.675-5.462 6.675zM16.069 14.425c-2.537 0-4.594 2.606-4.594 5.806s2.063 5.806 4.594 5.806c2.531 0 4.594-2.606 4.594-5.806 0.006-3.206-2.056-5.806-4.594-5.806z"></path>
<path id="svg-ico" fill="#ee5586" d="M18.688 9.063c-1.2 0-2.169-0.975-2.169-2.169s0.975-2.169 2.169-2.169c1.2 0 2.169 0.975 2.169 2.169s-0.969 2.169-2.169 2.169zM18.688 5.588c-0.719 0-1.3 0.581-1.3 1.3s0.587 1.3 1.3 1.3c0.719 0 1.3-0.588 1.3-1.3s-0.581-1.3-1.3-1.3z"></path>
<path id="svg-ico" fill="#ee5586" d="M16.069 12.075c-0.063 0-0.125-0.012-0.188-0.044l-2.619-1.244c-0.219-0.1-0.313-0.363-0.206-0.581s0.363-0.306 0.581-0.206l2.438 1.15 2.431-1.15c0.212-0.1 0.475-0.012 0.581 0.206 0.1 0.219 0.012 0.475-0.206 0.575l-2.619 1.244c-0.063 0.037-0.125 0.050-0.194 0.050z"></path>
<path fill="#5e686b" d="M16.156 31.938c-4.919 0-9.119-3.119-11.050-8.169-1.119 0.369-1.975 0.544-2.612 0.544 0 0 0 0 0 0-0.712 0-1.194-0.225-1.431-0.681-0.65-1.231 0.938-3.644 3.581-7.469 2.231-3.231 4.756-6.894 4.756-9.012v-0.263c0-3.681 2.994-6.675 6.675-6.675s6.675 2.994 6.675 6.675v0.306c0 2.244 2.538 5.888 4.769 9.106 2.569 3.694 4.106 6.019 3.462 7.25-0.45 0.869-1.719 0.944-4.137 0.212-1.719 5.056-5.781 8.175-10.688 8.175zM5.369 22.788c0.181 0 0.35 0.113 0.412 0.288 1.737 4.925 5.713 7.988 10.375 7.988 4.65 0 8.475-3.056 9.994-7.975 0.031-0.113 0.113-0.206 0.212-0.256 0.1-0.056 0.225-0.063 0.331-0.025 1.206 0.387 2.131 0.587 2.756 0.587 0.288 0 0.656-0.044 0.756-0.244 0.431-0.825-1.606-3.762-3.406-6.35-2.306-3.319-4.925-7.088-4.925-9.6v-0.306c0-3.2-2.606-5.806-5.806-5.806s-5.806 2.606-5.806 5.806v0.263c0 2.388-2.494 6.006-4.912 9.506-1.763 2.556-3.962 5.744-3.525 6.575 0.094 0.175 0.413 0.212 0.663 0.212 0 0 0 0 0 0 0.606 0 1.525-0.212 2.731-0.631 0.050-0.019 0.1-0.031 0.15-0.031z"></path>
</svg>
