<!-- Generated by IcoMoon.io -->
<svg version="1.1" xmlns="http://www.w3.org/2000/svg" width="32" height="32" viewBox="0 0 32 32">
<title>mailbox</title>
<path id="svg-ico" fill="#ee5586" d="M15.506 29.431c-0.231 0-0.419-0.188-0.419-0.419v-4.431c0-0.231 0.188-0.419 0.419-0.419s0.419 0.188 0.419 0.419v4.431c0 0.231-0.188 0.419-0.419 0.419z"></path>
<path id="svg-ico" fill="#ee5586" d="M23.831 3.281h-8.325c-0.231 0-0.419-0.188-0.419-0.419s0.188-0.419 0.419-0.419h8.325c0.231 0 0.419 0.188 0.419 0.419s-0.188 0.419-0.419 0.419z"></path>
<path fill="#5e686c" d="M31.063 24.806h-30.169c-0.231 0-0.419-0.188-0.419-0.419v-9.775c0-3.519 2.862-6.381 6.381-6.381s6.381 2.863 6.381 6.381v4.781c0 0.231-0.188 0.419-0.419 0.419s-0.419-0.188-0.419-0.419v-4.781c0-3.056-2.488-5.544-5.544-5.544s-5.544 2.488-5.544 5.544v9.356h29.331v-10.238c0-2.787-1.962-4.662-4.881-4.662h-7.962c-0.231 0-0.419-0.188-0.419-0.419s0.188-0.419 0.419-0.419h7.962c3.419 0 5.712 2.213 5.712 5.5v10.656c0.006 0.231-0.181 0.419-0.413 0.419z"></path>
<path fill="#5e686c" d="M8.944 19.806h-4.181c-0.231 0-0.419-0.188-0.419-0.419s0.188-0.419 0.419-0.419h4.181c0.231 0 0.419 0.188 0.419 0.419s-0.188 0.419-0.419 0.419z"></path>
<path fill="#5e686c" d="M18.619 9.069h-11.769c-0.231 0-0.419-0.188-0.419-0.419s0.188-0.419 0.419-0.419h11.769c0.231 0 0.419 0.188 0.419 0.419s-0.188 0.419-0.419 0.419z"></path>
<path id="svg-ico" fill="#ee5586" d="M15.506 14.162c-0.231 0-0.419-0.188-0.419-0.419v-10.881c0-0.231 0.188-0.419 0.419-0.419s0.419 0.188 0.419 0.419v10.881c0 0.231-0.188 0.419-0.419 0.419z"></path>
</svg>
