<!-- Generated by IcoMoon.io -->
<svg version="1.1" xmlns="http://www.w3.org/2000/svg" width="32" height="32" viewBox="0 0 32 32">
<title>managedserver</title>
<path id="svg-ico" fill="#ee5586" d="M25.681 18.363c-0.894 0-1.619 0.725-1.619 1.613 0 0.894 0.725 1.619 1.619 1.619s1.619-0.725 1.619-1.619c0-0.887-0.725-1.613-1.619-1.613zM25.681 20.788c-0.444 0-0.806-0.363-0.806-0.813 0-0.444 0.363-0.806 0.806-0.806s0.806 0.363 0.806 0.806c0 0.45-0.363 0.813-0.806 0.813z"></path>
<path id="svg-ico" fill="#ee5586" d="M29.469 15.319h-9.688c-0.106-0.363-0.313-0.688-0.6-0.944-0.106-0.1-0.144-0.25-0.087-0.387 0.050-0.113 0.181-0.206 0.281-0.213l0.181 0.006c1.056 0 1.944-0.794 2.069-1.85 0.094-0.781 0.094-1.575 0.006-2.362-0.131-1.162-1.2-1.856-2.156-1.856-0.15 0-0.288-0.081-0.337-0.206-0.056-0.131-0.019-0.294 0.087-0.388 0.806-0.737 0.906-1.981 0.231-2.831-0.488-0.619-1.044-1.181-1.65-1.663-0.831-0.663-2.144-0.563-2.863 0.231-0.037 0.044-0.156 0.1-0.287 0.1-0.050 0-0.081-0.006-0.094-0.013-0.131-0.056-0.219-0.194-0.213-0.337 0.069-1.106-0.744-2.075-1.844-2.2-0.769-0.088-1.569-0.094-2.338-0.006-1.081 0.119-1.894 1.063-1.863 2.15 0.006 0.15-0.081 0.288-0.206 0.337-0.019 0.006-0.050 0.013-0.088 0.013-0.131 0-0.256-0.063-0.3-0.106-0.7-0.775-1.981-0.894-2.837-0.237-0.625 0.487-1.188 1.050-1.681 1.663-0.694 0.862-0.594 2.112 0.225 2.856 0.106 0.1 0.144 0.256 0.094 0.388-0.050 0.125-0.237 0.206-0.456 0.213-1.075 0-1.95 0.775-2.075 1.844-0.094 0.775-0.094 1.569-0.006 2.369 0.138 1.206 1.244 1.856 2.212 1.856 0.112 0 0.231 0.094 0.281 0.219 0.056 0.131 0.013 0.281-0.094 0.387-0.8 0.738-0.9 1.981-0.225 2.825 0.481 0.613 1.038 1.175 1.644 1.669 0.369 0.3 0.838 0.462 1.306 0.462 0.206 0 0.419-0.031 0.612-0.094v3.919c0 0.844 0.744 1.531 1.65 1.531h21.094c0.906 0 1.65-0.688 1.65-1.531v-6.287c0.012-0.844-0.731-1.525-1.637-1.525zM5.3 18.2c-0.563-0.45-1.075-0.969-1.519-1.538-0.413-0.519-0.35-1.281 0.138-1.731 0.356-0.331 0.475-0.85 0.294-1.287-0.175-0.431-0.594-0.719-1.031-0.719-0.619 0-1.325-0.4-1.406-1.137-0.081-0.731-0.081-1.469 0.006-2.181 0.081-0.656 0.619-1.131 1.275-1.131 0.556 0 1.019-0.269 1.206-0.706 0.188-0.45 0.069-0.969-0.294-1.294-0.5-0.456-0.563-1.225-0.138-1.756 0.45-0.563 0.975-1.081 1.544-1.531 0.531-0.406 1.313-0.331 1.744 0.144 0.287 0.319 0.887 0.462 1.294 0.294 0.444-0.181 0.725-0.631 0.713-1.112-0.025-0.669 0.481-1.244 1.144-1.319 0.713-0.081 1.45-0.075 2.156 0.006 0.675 0.081 1.175 0.669 1.131 1.35-0.025 0.487 0.256 0.938 0.706 1.125 0.15 0.063 0.3 0.075 0.406 0.075 0.35 0 0.688-0.144 0.894-0.369 0.437-0.481 1.244-0.55 1.756-0.144 0.556 0.444 1.069 0.963 1.519 1.537 0.413 0.525 0.35 1.287-0.144 1.737-0.356 0.325-0.475 0.844-0.294 1.294 0.181 0.431 0.606 0.706 1.087 0.706 0.6 0 1.275 0.425 1.356 1.137 0.081 0.725 0.081 1.463-0.006 2.181-0.075 0.644-0.619 1.131-1.262 1.131l-0.175-0.006c-0.438 0.006-0.869 0.294-1.038 0.706-0.188 0.45-0.075 0.975 0.288 1.3 0.113 0.1 0.2 0.219 0.269 0.344h-10.55c-0.912 0-1.65 0.688-1.65 1.531v1.475c-0.444 0.244-1.025 0.2-1.419-0.113zM30.306 23.119c0 0.4-0.375 0.719-0.844 0.719h-21.094c-0.463 0-0.844-0.325-0.844-0.719v-6.275c0-0.4 0.381-0.719 0.844-0.719v0h21.094c0.462 0 0.844 0.325 0.844 0.719v6.275z"></path>
<path id="svg-ico" fill="#ee5586" d="M11.3 14.344c1.675 0 3.037-1.363 3.037-3.037s-1.363-3.037-3.037-3.037c-1.675 0-3.037 1.363-3.037 3.037s1.369 3.037 3.037 3.037zM11.3 9.075c1.231 0 2.225 1 2.225 2.231s-1 2.231-2.225 2.231c-1.231 0-2.225-1-2.225-2.231s1-2.231 2.225-2.231z"></path>
<path id="svg-ico" fill="#ee5586" d="M27.106 29.606h-6.412c-0.144-0.569-0.594-1.012-1.163-1.163v-2.069c0-0.225-0.181-0.406-0.406-0.406s-0.406 0.181-0.406 0.406v2.069c-0.569 0.144-1.012 0.594-1.163 1.163h-6.4c-0.225 0-0.406 0.181-0.406 0.406s0.181 0.406 0.406 0.406h6.406c0.181 0.694 0.813 1.212 1.563 1.212s1.387-0.519 1.563-1.212h6.413c0.225 0 0.406-0.181 0.406-0.406s-0.175-0.406-0.4-0.406zM19.131 30.819c-0.444 0-0.806-0.363-0.806-0.806s0.363-0.806 0.806-0.806c0.444 0 0.806 0.363 0.806 0.806 0 0 0 0 0 0s0 0 0 0c0 0.444-0.363 0.806-0.806 0.806z"></path>
<path fill="#5e686c" d="M6.156 19.244c-0.469 0-0.938-0.163-1.306-0.456-0.606-0.488-1.163-1.050-1.644-1.663-0.669-0.844-0.569-2.081 0.225-2.819 0.106-0.1 0.15-0.256 0.094-0.381-0.050-0.125-0.175-0.213-0.281-0.213-0.969 0-2.069-0.65-2.206-1.85-0.088-0.794-0.088-1.588 0.006-2.356 0.131-1.063 1-1.838 2.069-1.838 0.219 0 0.406-0.081 0.456-0.206 0.056-0.131 0.019-0.287-0.087-0.381-0.819-0.744-0.913-1.994-0.225-2.85 0.494-0.625 1.056-1.181 1.681-1.669 0.856-0.656 2.125-0.538 2.825 0.237 0.037 0.044 0.162 0.106 0.3 0.106 0.044 0 0.075-0.006 0.088-0.013 0.131-0.050 0.213-0.188 0.206-0.337-0.037-1.081 0.781-2.025 1.856-2.144 0.769-0.088 1.563-0.081 2.331 0.006 1.1 0.131 1.906 1.094 1.838 2.194-0.006 0.144 0.081 0.281 0.213 0.337 0.006 0 0.037 0.013 0.088 0.013 0.131 0 0.25-0.056 0.287-0.1 0.719-0.794 2.025-0.894 2.85-0.231 0.606 0.487 1.156 1.044 1.644 1.663 0.675 0.85 0.575 2.088-0.231 2.825-0.106 0.1-0.144 0.256-0.087 0.388 0.050 0.125 0.181 0.206 0.337 0.206 0.956 0 2.019 0.694 2.15 1.85 0.087 0.781 0.087 1.575-0.006 2.356-0.125 1.050-1.006 1.844-2.063 1.844l-0.181-0.006c-0.1 0-0.238 0.094-0.281 0.213-0.056 0.131-0.019 0.287 0.087 0.387 0.375 0.338 0.613 0.8 0.669 1.3 0.025 0.219-0.131 0.419-0.35 0.45-0.219 0.025-0.419-0.131-0.45-0.35-0.038-0.306-0.181-0.588-0.413-0.794-0.363-0.325-0.481-0.844-0.288-1.294 0.169-0.406 0.6-0.7 1.038-0.7l0.175 0.006c0.644 0 1.188-0.488 1.262-1.131 0.081-0.719 0.087-1.45 0.006-2.175-0.081-0.706-0.75-1.131-1.35-1.131-0.481 0-0.906-0.275-1.081-0.706-0.181-0.444-0.063-0.963 0.294-1.288 0.494-0.45 0.556-1.213 0.144-1.731-0.45-0.569-0.956-1.087-1.512-1.531-0.506-0.406-1.313-0.337-1.75 0.144-0.2 0.225-0.537 0.362-0.887 0.362-0.1 0-0.256-0.013-0.406-0.075-0.444-0.188-0.725-0.638-0.7-1.125 0.044-0.675-0.456-1.269-1.125-1.35-0.706-0.081-1.438-0.081-2.15-0.006-0.662 0.075-1.162 0.65-1.137 1.313 0.019 0.481-0.269 0.931-0.706 1.112-0.406 0.169-1 0.025-1.287-0.294-0.425-0.475-1.206-0.544-1.737-0.144-0.569 0.45-1.087 0.963-1.538 1.525-0.425 0.525-0.362 1.294 0.137 1.75 0.362 0.325 0.481 0.844 0.294 1.294-0.181 0.431-0.644 0.7-1.2 0.7-0.656 0-1.194 0.475-1.269 1.131-0.087 0.706-0.087 1.438-0.006 2.175s0.787 1.131 1.406 1.131c0.438 0 0.856 0.287 1.031 0.713 0.181 0.438 0.063 0.956-0.294 1.281-0.487 0.45-0.55 1.206-0.144 1.725 0.444 0.569 0.95 1.081 1.513 1.531 0.444 0.356 1.125 0.363 1.575 0.019 0.175-0.137 0.431-0.1 0.563 0.075 0.138 0.175 0.1 0.431-0.075 0.563-0.381 0.262-0.825 0.413-1.281 0.413z"></path>
<path fill="#5e686c" d="M11.338 14.313c-1.669 0-3.025-1.356-3.025-3.025s1.356-3.025 3.025-3.025 3.025 1.356 3.025 3.025-1.356 3.025-3.025 3.025zM11.338 9.063c-1.225 0-2.219 0.994-2.219 2.219s0.994 2.219 2.219 2.219 2.219-0.994 2.219-2.219c0-1.219-0.994-2.219-2.219-2.219z"></path>
<path fill="#5e686c" d="M19.144 31.538c-0.887 0-1.613-0.725-1.613-1.613s0.725-1.613 1.613-1.613c0.887 0 1.613 0.725 1.613 1.613-0.006 0.887-0.725 1.613-1.613 1.613zM19.144 29.119c-0.444 0-0.806 0.363-0.806 0.806s0.363 0.806 0.806 0.806c0.444 0 0.806-0.363 0.806-0.806s-0.363-0.806-0.806-0.806z"></path>
<path fill="#5e686c" d="M19.144 29.119c-0.225 0-0.4-0.181-0.4-0.4v-2.419c0-0.225 0.181-0.4 0.4-0.4s0.4 0.181 0.4 0.4v2.419c0 0.225-0.181 0.4-0.4 0.4z"></path>
<path fill="#5e686c" d="M17.931 30.331h-6.738c-0.225 0-0.4-0.181-0.4-0.4 0-0.225 0.181-0.4 0.4-0.4h6.744c0.225 0 0.4 0.181 0.4 0.4s-0.181 0.4-0.406 0.4z"></path>
<path fill="#5e686c" d="M27.094 30.331h-6.744c-0.225 0-0.4-0.181-0.4-0.4 0-0.225 0.181-0.4 0.4-0.4h6.744c0.225 0 0.4 0.181 0.4 0.4s-0.181 0.4-0.4 0.4z"></path>
<path id="svg-ico" fill="#ee5586" d="M25.669 21.544c-0.887 0-1.613-0.725-1.613-1.613s0.725-1.613 1.613-1.613c0.887 0 1.613 0.725 1.613 1.613s-0.725 1.613-1.613 1.613zM25.669 19.131c-0.444 0-0.806 0.363-0.806 0.806s0.363 0.806 0.806 0.806c0.444 0 0.806-0.363 0.806-0.806 0-0.45-0.363-0.806-0.806-0.806z"></path>
<path id="svg-ico" fill="#ee5586" d="M29.444 24.581h-21.025c-0.906 0-1.644-0.681-1.644-1.525v-6.25c0-0.838 0.737-1.525 1.644-1.525h21.025c0.906 0 1.644 0.681 1.644 1.525v6.25c0 0.844-0.738 1.525-1.644 1.525zM8.419 16.087c-0.463 0-0.838 0.319-0.838 0.719v6.25c0 0.394 0.375 0.719 0.838 0.719h21.025c0.462 0 0.837-0.319 0.837-0.719v-6.25c0-0.394-0.375-0.719-0.837-0.719h-21.025z"></path>
</svg>
