<!-- Generated by IcoMoon.io -->
<svg version="1.1" xmlns="http://www.w3.org/2000/svg" width="32" height="32" viewBox="0 0 32 32">
<title>map</title>
<path fill="#5e686c" d="M0.831 29.887c-0.094 0-0.188-0.031-0.262-0.087-0.1-0.081-0.162-0.206-0.162-0.331v-23.869c0-0.194 0.131-0.362 0.325-0.412l10.131-2.469c0.225-0.056 0.456 0.081 0.512 0.313 0.056 0.225-0.081 0.456-0.313 0.513l-9.806 2.388v22.994l9.606-2.337c0.231-0.056 0.456 0.081 0.512 0.313 0.056 0.225-0.081 0.456-0.313 0.512l-10.131 2.462c-0.031 0.006-0.069 0.012-0.1 0.012z"></path>
<path fill="#5e686c" d="M21.087 29.887c-0.194 0-0.363-0.131-0.413-0.325-0.056-0.225 0.081-0.456 0.313-0.512l9.806-2.387v-23l-9.606 2.344c-0.225 0.056-0.456-0.081-0.512-0.313-0.056-0.225 0.081-0.456 0.313-0.513l10.131-2.469c0.125-0.031 0.256 0 0.363 0.081 0.1 0.081 0.163 0.2 0.163 0.331v23.869c0 0.194-0.131 0.363-0.325 0.413l-10.131 2.469c-0.031 0.006-0.063 0.012-0.1 0.012z"></path>
<path id="svg-ico" fill="#ee5586" d="M21.087 29.887c-0.031 0-0.069-0.006-0.1-0.012l-10.131-2.469c-0.188-0.044-0.325-0.212-0.325-0.413v-23.863c0-0.131 0.063-0.25 0.162-0.331s0.231-0.112 0.363-0.081l10.131 2.469c0.188 0.044 0.325 0.219 0.325 0.412v23.869c0 0.131-0.063 0.25-0.163 0.331-0.075 0.056-0.169 0.087-0.262 0.087zM11.381 26.663l9.281 2.262v-22.994l-9.281-2.263v22.994z"></path>
</svg>
