<!-- Generated by IcoMoon.io -->
<svg version="1.1" xmlns="http://www.w3.org/2000/svg" width="32" height="32" viewBox="0 0 32 32">
<title>medal</title>
<path id="svg-ico" fill="#ee5586" d="M19.956 31.75c-0.113 0-0.219-0.044-0.3-0.125l-3.356-3.356c-0.025-0.025-0.075-0.1-0.094-0.131-0.163-0.163-0.381-0.125-0.519 0.019-0.012 0.019-0.056 0.094-0.075 0.113l-3.363 3.356c-0.125 0.125-0.306 0.156-0.469 0.094-0.162-0.069-0.262-0.225-0.262-0.394v-10.088c-0.006-0.087 0.019-0.175 0.063-0.25 0.081-0.125 0.213-0.2 0.363-0.2h1.219c0.075 0 0.15 0.019 0.213 0.056l2.575 1.488 2.575-1.488c0.063-0.038 0.137-0.056 0.212-0.056h1.212c0.15 0 0.288 0.075 0.363 0.2 0.050 0.075 0.069 0.163 0.063 0.25v10.087c0 0.175-0.106 0.331-0.262 0.394-0.044 0.019-0.1 0.031-0.156 0.031zM15.931 27.194c0.362 0 0.669 0.125 0.894 0.35 0.063 0.063 0.1 0.125 0.119 0.163l2.581 2.581v-8.65h-0.669l-2.694 1.55c-0.131 0.075-0.294 0.075-0.425 0l-2.688-1.556h-0.675v8.65l2.625-2.625c-0.031 0.012 0.012-0.050 0.075-0.113 0.225-0.225 0.531-0.35 0.856-0.35z"></path>
<path fill="#5e686b" d="M15.95 21.4c-0.075 0-0.15-0.019-0.213-0.056l-2.256-1.306h-2.613c-0.15 0-0.294-0.081-0.369-0.212l-1.313-2.262-2.263-1.313c-0.131-0.075-0.213-0.219-0.213-0.369v-2.612l-1.306-2.262c-0.075-0.131-0.075-0.294 0-0.425l1.306-2.262v-2.612c0-0.15 0.081-0.294 0.213-0.369l2.263-1.306 1.306-2.256c0.075-0.131 0.219-0.212 0.369-0.212h2.613l2.262-1.313c0.131-0.075 0.294-0.075 0.425 0l2.262 1.306h2.613c0.15 0 0.294 0.081 0.369 0.212l1.306 2.256 2.262 1.306c0.131 0.075 0.212 0.219 0.212 0.369v2.613l1.306 2.262c0.075 0.131 0.075 0.294 0 0.425l-1.306 2.262v2.606c0 0.15-0.081 0.294-0.212 0.369l-2.262 1.325-1.306 2.262c-0.075 0.131-0.219 0.212-0.369 0.212h-2.613l-2.262 1.306c-0.063 0.038-0.137 0.056-0.213 0.056zM11.113 19.181h2.481c0.075 0 0.15 0.019 0.213 0.056l2.144 1.238 2.144-1.238c0.063-0.038 0.137-0.056 0.212-0.056h2.481l1.238-2.144c0.038-0.063 0.094-0.119 0.156-0.156l2.15-1.244v-2.475c0-0.075 0.019-0.15 0.056-0.213l1.238-2.15-1.238-2.15c-0.038-0.063-0.056-0.137-0.056-0.213v-2.481l-2.144-1.244c-0.063-0.037-0.119-0.094-0.156-0.156l-1.238-2.144h-2.481c-0.075 0-0.15-0.019-0.212-0.056l-2.144-1.238-2.144 1.238c-0.063 0.038-0.137 0.056-0.213 0.056h-2.481l-1.238 2.144c-0.037 0.063-0.094 0.119-0.156 0.156l-2.15 1.244v2.481c0 0.075-0.019 0.15-0.056 0.213l-1.237 2.15 1.237 2.144c0.037 0.063 0.056 0.137 0.056 0.213v2.475l2.15 1.244c0.063 0.038 0.119 0.094 0.156 0.156l1.231 2.15z"></path>
</svg>
