<!-- Generated by IcoMoon.io -->
<svg version="1.1" xmlns="http://www.w3.org/2000/svg" width="32" height="32" viewBox="0 0 32 32">
<title>menu</title>
<path fill="#5e686b" d="M31.275 5.606h-30.544c-0.281 0-0.506-0.225-0.506-0.506s0.225-0.506 0.506-0.506h30.538c0.281 0 0.506 0.225 0.506 0.506 0.006 0.281-0.219 0.506-0.5 0.506z"></path>
<path id="svg-ico" fill="#ee5586" d="M31.275 16.806h-30.544c-0.281 0-0.506-0.225-0.506-0.506s0.225-0.506 0.506-0.506h30.538c0.281 0 0.506 0.225 0.506 0.506 0.006 0.281-0.219 0.506-0.5 0.506z"></path>
<path fill="#5e686b" d="M31.275 28.006h-30.544c-0.281 0-0.506-0.225-0.506-0.506s0.225-0.506 0.506-0.506h30.538c0.281 0 0.506 0.225 0.506 0.506s-0.219 0.506-0.5 0.506z"></path>
</svg>
