<!-- Generated by IcoMoon.io -->
<svg version="1.1" xmlns="http://www.w3.org/2000/svg" width="32" height="32" viewBox="0 0 32 32">
<title>metric</title>
<path fill="#5e686c" d="M23.544 31.688c-0.238 0-0.431-0.194-0.431-0.431v-22.844c0-0.238 0.194-0.431 0.431-0.431s0.431 0.194 0.431 0.431v22.844c0 0.238-0.194 0.431-0.431 0.431z"></path>
<path fill="#5e686c" d="M4.631 27.725c-0.237 0-0.431-0.194-0.431-0.431v-22.844c0-0.237 0.194-0.431 0.431-0.431s0.431 0.194 0.431 0.431v22.844c0 0.238-0.194 0.431-0.431 0.431z"></path>
<path fill="#5e686c" d="M23.544 8.844h-22.725c-0.238 0-0.431-0.194-0.431-0.431s0.194-0.431 0.431-0.431h22.725c0.238 0 0.431 0.194 0.431 0.431s-0.194 0.431-0.431 0.431z"></path>
<path fill="#5e686c" d="M27.356 27.756h-22.844c-0.237 0-0.431-0.194-0.431-0.431s0.194-0.431 0.431-0.431h22.844c0.238 0 0.431 0.194 0.431 0.431s-0.194 0.431-0.431 0.431z"></path>
<path id="svg-ico" fill="#ee5586" d="M0.819 31.569c-0.113 0-0.219-0.044-0.3-0.125-0.169-0.169-0.169-0.438 0-0.606l30.225-30.231c0.169-0.169 0.438-0.169 0.606 0s0.169 0.438 0 0.606l-30.225 30.225c-0.087 0.087-0.194 0.131-0.306 0.131z"></path>
</svg>
