<!-- Generated by IcoMoon.io -->
<svg version="1.1" xmlns="http://www.w3.org/2000/svg" width="32" height="32" viewBox="0 0 32 32">
<title>move</title>
<path id="svg-ico" fill="#ee5586" d="M19.775 21.344c-0.106 0-0.212-0.044-0.3-0.125-0.163-0.163-0.163-0.431 0-0.594l3.8-3.8-3.8-3.8c-0.163-0.162-0.163-0.431 0-0.594s0.431-0.162 0.594 0l4.094 4.094c0.163 0.163 0.163 0.431 0 0.594l-4.094 4.094c-0.081 0.094-0.188 0.131-0.294 0.131z"></path>
<path fill="#5e686c" d="M31.262 28.219h-30.419c-0.231 0-0.425-0.188-0.425-0.425v-22.781c0-0.231 0.187-0.425 0.425-0.425h10.031c0.231 0 0.425 0.188 0.425 0.425s-0.188 0.425-0.425 0.425h-9.606v21.938h29.569v-21.938h-12.262c-0.231 0-0.425-0.188-0.425-0.425s0.188-0.425 0.425-0.425h12.681c0.231 0 0.425 0.188 0.425 0.425v22.788c0 0.231-0.188 0.419-0.419 0.419z"></path>
<path id="svg-ico" fill="#ee5586" d="M21.813 17.319h-4.844c-3.594 0-6.512-2.925-6.512-6.512 0-0.019 0-0.037 0.006-0.056v-5.737c0-0.231 0.188-0.425 0.425-0.425s0.425 0.188 0.425 0.425v5.787c0 0.019 0 0.031-0.006 0.050 0.025 3.1 2.563 5.619 5.669 5.619h4.837c0.231 0 0.425 0.188 0.425 0.425 0 0.231-0.194 0.425-0.425 0.425z"></path>
<path id="svg-ico" fill="#ee5586" d="M19.813 21.438c-0.106 0-0.219-0.044-0.3-0.125-0.163-0.163-0.163-0.431 0-0.6l3.819-3.819-3.819-3.819c-0.163-0.162-0.163-0.431 0-0.6 0.163-0.162 0.431-0.162 0.6 0l4.119 4.119c0.163 0.163 0.163 0.431 0 0.6l-4.119 4.119c-0.081 0.081-0.194 0.125-0.3 0.125z"></path>
</svg>
