<!-- Generated by IcoMoon.io -->
<svg version="1.1" xmlns="http://www.w3.org/2000/svg" width="32" height="32" viewBox="0 0 32 32">
<title>music</title>
<path fill="#5e686b" d="M25.281 31.75h-18.069c-1 0-1.819-0.813-1.819-1.813v-27.769c0-1 0.813-1.813 1.819-1.813h18.069c1 0 1.819 0.813 1.819 1.819v27.762c0 1-0.813 1.813-1.819 1.813zM7.213 1.206c-0.531 0-0.963 0.431-0.963 0.963v27.769c0 0.531 0.431 0.962 0.963 0.962h18.069c0.531 0 0.962-0.431 0.962-0.962v-27.769c0-0.531-0.431-0.962-0.962-0.962h-18.069z"></path>
<path id="svg-ico" fill="#ee5586" d="M16.25 29.131c-3.769 0-6.831-3.063-6.831-6.831s3.063-6.831 6.831-6.831c3.769 0 6.831 3.063 6.831 6.831 0 3.762-3.063 6.831-6.831 6.831zM16.25 16.319c-3.294 0-5.975 2.681-5.975 5.975s2.681 5.975 5.975 5.975c3.294 0 5.975-2.681 5.975-5.975s-2.681-5.975-5.975-5.975z"></path>
<path fill="#5e686b" d="M22.656 13.806h-12.813c-0.238 0-0.425-0.194-0.425-0.425v-8.544c0-0.237 0.194-0.425 0.425-0.425h12.806c0.238 0 0.425 0.194 0.425 0.425v8.537c0.006 0.238-0.188 0.431-0.419 0.431zM10.275 12.95h11.956v-7.688h-11.956v7.688z"></path>
<path id="svg-ico" fill="#ee5586" d="M16.25 25.288c-1.65 0-2.988-1.344-2.988-2.988 0-1.65 1.344-2.988 2.988-2.988 1.65 0 2.988 1.344 2.988 2.988s-1.337 2.988-2.988 2.988zM16.25 20.163c-1.175 0-2.137 0.956-2.137 2.137s0.956 2.137 2.137 2.137c1.175 0 2.137-0.956 2.137-2.137s-0.962-2.137-2.137-2.137z"></path>
</svg>
