<!-- Generated by IcoMoon.io -->
<svg version="1.1" xmlns="http://www.w3.org/2000/svg" width="32" height="32" viewBox="0 0 32 32">
<title>mute</title>
<path id="svg-ico" fill="#ee5586" d="M20.637 21.375c-0.106 0-0.219-0.044-0.3-0.125-0.163-0.163-0.163-0.431 0-0.6l5.038-5.044-5.038-5.044c-0.163-0.162-0.163-0.431 0-0.6 0.163-0.162 0.431-0.162 0.6 0l5.331 5.344c0.163 0.162 0.163 0.431 0 0.6l-5.331 5.344c-0.087 0.081-0.194 0.125-0.3 0.125z"></path>
<path id="svg-ico" fill="#ee5586" d="M31.319 21.375c-0.106 0-0.219-0.044-0.3-0.125l-5.338-5.344c-0.163-0.162-0.163-0.431 0-0.6l5.337-5.344c0.163-0.162 0.431-0.162 0.6 0 0.163 0.162 0.163 0.431 0 0.6l-5.038 5.044 5.038 5.044c0.163 0.163 0.163 0.431 0 0.6-0.087 0.081-0.194 0.125-0.3 0.125z"></path>
<path fill="#5e686b" d="M14.106 28.9c-0.088 0-0.181-0.031-0.256-0.081l-8.488-6.356h-4.544c-0.231 0-0.425-0.188-0.425-0.425v-11.519c0-0.231 0.187-0.425 0.425-0.425h4.544l8.494-6.35c0.131-0.094 0.3-0.112 0.444-0.038 0.144 0.069 0.231 0.219 0.231 0.375v24.4c0 0.163-0.088 0.306-0.231 0.375-0.063 0.031-0.131 0.044-0.194 0.044zM1.238 21.619h4.263c0.094 0 0.181 0.031 0.25 0.081l7.938 5.938v-22.712l-7.931 5.938c-0.075 0.056-0.162 0.081-0.25 0.081h-4.269v10.675z"></path>
</svg>
