<!-- Generated by IcoMoon.io -->
<svg version="1.1" xmlns="http://www.w3.org/2000/svg" width="32" height="32" viewBox="0 0 32 32">
<title>notes</title>
<path fill="#5e686b" d="M13.319 30.856h-7.956c-1.225 0-2.225-0.994-2.225-2.225v-23.063c0.563 0.588 1.35 0.95 2.225 0.95h22.119v5.538c0 0.238 0.194 0.431 0.431 0.431s0.431-0.194 0.431-0.431v-5.969c0-0.237-0.194-0.431-0.431-0.431h-22.55c-1.225 0-2.225-1-2.225-2.225s1-2.225 2.225-2.225h22.544c0.238 0 0.431-0.194 0.431-0.431s-0.194-0.431-0.431-0.431h-22.544c-1.7 0.013-3.081 1.394-3.081 3.094 0 0.163 0.013 0.325 0.038 0.487-0.025 0.056-0.038 0.112-0.038 0.175v24.538c0 1.7 1.381 3.081 3.081 3.081h7.956c0.238 0 0.431-0.194 0.431-0.431s-0.194-0.431-0.431-0.431z"></path>
<path fill="#5e686b" d="M22.606 14.944c-4.625 0-8.387 3.763-8.387 8.387s3.762 8.387 8.387 8.387c4.625 0 8.387-3.762 8.387-8.387s-3.762-8.387-8.387-8.387zM22.606 30.856c-4.15 0-7.531-3.375-7.531-7.525s3.375-7.531 7.531-7.531c4.15 0 7.525 3.375 7.525 7.531 0 4.15-3.375 7.525-7.525 7.525z"></path>
<path id="svg-ico" fill="#ee5586" d="M24.956 23.694l-1.919 1.919v-5.594c0-0.238-0.194-0.431-0.431-0.431s-0.431 0.194-0.431 0.431v5.594l-1.919-1.919c-0.169-0.169-0.438-0.169-0.606 0s-0.169 0.438 0 0.606l2.65 2.65c0.081 0.081 0.188 0.125 0.306 0.125s0.225-0.044 0.306-0.125l2.65-2.65c0.169-0.169 0.169-0.438 0-0.606s-0.438-0.169-0.606 0z"></path>
<path fill="#5e686b" d="M5.362 3.006c-0.237 0-0.431 0.194-0.431 0.431s0.194 0.431 0.431 0.431h21.219c0.238 0 0.431-0.194 0.431-0.431s-0.194-0.431-0.431-0.431h-21.219z"></path>
</svg>
