<!-- Generated by IcoMoon.io -->
<svg version="1.1" xmlns="http://www.w3.org/2000/svg" width="32" height="32" viewBox="0 0 32 32">
<title>phone</title>
<path fill="#5e686b" d="M27.063 5.162c-2.6-2.6-6.050-4.2-9.706-4.5-0.238-0.019-0.438 0.156-0.456 0.387s0.156 0.438 0.387 0.456c3.456 0.281 6.719 1.794 9.175 4.256 5.737 5.738 5.737 15.069 0 20.806s-15.069 5.738-20.806 0c-2.775-2.775-4.306-6.469-4.306-10.4s1.531-7.625 4.306-10.4c2.469-2.469 5.738-3.981 9.206-4.256 0.231-0.019 0.406-0.219 0.387-0.456-0.019-0.231-0.213-0.406-0.456-0.387-3.669 0.294-7.125 1.888-9.738 4.5-2.938 2.938-4.556 6.844-4.556 11s1.619 8.063 4.556 11c3.031 3.031 7.019 4.55 11 4.55s7.969-1.519 11-4.55c6.069-6.069 6.069-15.938 0.006-22.006z"></path>
<path id="svg-ico" fill="#ee5586" d="M17.563 16.262c-1.969 1.969-2.756 2.212-2.944 2.238l-0.113-0.113c-0.575-0.581-1.169-1.181-2.138-1.181-0.738 0-1.556 0.381-2.575 1.194-0.894 0.719-1.344 1.45-1.375 2.225-0.025 0.563 0.175 1.044 0.463 1.469-0.637 0.406-1.731 1.262-2.175 2.606-0.075 0.219 0.044 0.462 0.269 0.538 0.044 0.012 0.088 0.019 0.131 0.019 0.175 0 0.344-0.113 0.4-0.288 0.388-1.163 1.394-1.9 1.919-2.219 0.162 0.169 0.325 0.319 0.469 0.462l0.3 0.288c0.425 0.425 1.075 0.65 1.881 0.65 1.1 0 2.5-0.419 3.925-1.169 1.594-0.825 3.231-2.056 4.725-3.556 1.944-1.944 3.431-4.119 4.181-6.119 0.344-0.912 0.525-1.769 0.531-2.487 0.006-0.831-0.219-1.5-0.644-1.931-0.087-0.088-0.181-0.188-0.281-0.294-0.594-0.625-1.4-1.481-2.5-1.481-0.813 0-1.569 0.45-2.319 1.381-0.931 1.162-1.294 2.044-1.175 2.875 0.113 0.8 0.644 1.325 1.163 1.838l0.119 0.119c-0.012 0.1-0.094 0.35-0.363 0.762-0.369 0.569-1 1.306-1.875 2.175zM20.456 12.775l-0.181-0.181c-0.45-0.444-0.844-0.831-0.919-1.35-0.081-0.575 0.225-1.262 1-2.225 0.575-0.713 1.119-1.063 1.656-1.063 0.731 0 1.344 0.644 1.881 1.213 0.1 0.113 0.2 0.213 0.3 0.313 0.269 0.269 0.406 0.725 0.4 1.325-0.006 0.619-0.169 1.381-0.481 2.2-0.712 1.894-2.131 3.962-3.988 5.819-1.438 1.438-3 2.613-4.525 3.406-1.313 0.694-2.563 1.075-3.531 1.075-0.569 0-1.025-0.144-1.281-0.4l-0.313-0.3c-0.581-0.556-1.244-1.181-1.213-1.944 0.019-0.525 0.369-1.050 1.056-1.606 0.85-0.681 1.519-1.012 2.044-1.012 0.619 0 1.019 0.413 1.588 0.988 0.044 0.044 0.088 0.087 0.119 0.119 0.588 0.587 1.962-0.169 4.081-2.294 0.913-0.912 1.581-1.694 1.988-2.325 0.556-0.825 0.656-1.419 0.319-1.756z"></path>
</svg>
