<!-- Generated by IcoMoon.io -->
<svg version="1.1" xmlns="http://www.w3.org/2000/svg" width="32" height="32" viewBox="0 0 32 32">
<title>pin</title>
<path id="svg-ico" fill="#ee5586" d="M16 31.837c-0.238 0-0.425-0.188-0.425-0.425v-15.931c0-0.238 0.188-0.425 0.425-0.425s0.425 0.188 0.425 0.425v15.931c0 0.231-0.188 0.425-0.425 0.425z"></path>
<path fill="#5e686c" d="M24.050 15.906h-16.1c-0.237 0-0.425-0.188-0.425-0.425s0.188-0.425 0.425-0.425h16.106c0.238 0 0.425 0.188 0.425 0.425-0.006 0.231-0.194 0.425-0.431 0.425z"></path>
<path fill="#5e686c" d="M21.606 1.012h-11.887c-0.238 0-0.425-0.188-0.425-0.425s0.188-0.425 0.425-0.425h11.887c0.238 0 0.425 0.188 0.425 0.425s-0.194 0.425-0.425 0.425z"></path>
<path fill="#5e686c" d="M10.625 15.906c-0.012 0-0.019 0-0.031 0-0.231-0.019-0.406-0.219-0.394-0.456l1.1-14.887c0.019-0.237 0.225-0.412 0.456-0.394s0.406 0.219 0.394 0.456l-1.1 14.887c-0.019 0.225-0.206 0.394-0.425 0.394z"></path>
<path fill="#5e686c" d="M21.375 15.906c-0.212 0-0.394-0.156-0.419-0.375l-1.781-14.887c-0.031-0.231 0.137-0.444 0.369-0.475 0.225-0.031 0.444 0.138 0.469 0.369l1.781 14.887c0.031 0.231-0.137 0.444-0.369 0.475-0.019 0.006-0.031 0.006-0.050 0.006z"></path>
</svg>
