<!-- Generated by IcoMoon.io -->
<svg version="1.1" xmlns="http://www.w3.org/2000/svg" width="32" height="32" viewBox="0 0 32 32">
<title>pinterest</title>
<path fill="#5e686c" d="M9.556 31.856c-0.063 0-0.119-0.006-0.181-0.025-0.256-0.069-0.444-0.288-0.475-0.55-0.238-1.544-0.525-4.419 0.063-6.875 0.319-1.325 2-8.406 2.263-9.5-0.162-0.375-0.544-1.425-0.544-2.844 0-2.813 1.7-5.013 3.875-5.013 1.725 0 2.837 1.212 2.837 3.087 0 1.106-0.431 2.494-0.894 3.969-0.25 0.794-0.506 1.619-0.694 2.413-0.175 0.725-0.031 1.419 0.394 1.962 0.462 0.581 1.194 0.919 2.012 0.919 2.981 0 5.231-3.856 5.231-8.975-0.012-3.925-2.694-6.362-7.012-6.362-4.056 0-8.363 2.819-8.363 8.050 0 1.3 0.35 2.344 1.075 3.188 0.425 0.488 0.5 0.8 0.344 1.375l-0.144 0.575c-0.081 0.319-0.169 0.669-0.219 0.85-0.113 0.419-0.356 0.619-0.544 0.712-0.269 0.137-0.6 0.144-0.925 0.019-0.219-0.087-0.331-0.337-0.244-0.556s0.331-0.331 0.556-0.244c0.094 0.038 0.175 0.044 0.225 0.019 0.056-0.031 0.088-0.119 0.1-0.169 0.050-0.181 0.137-0.519 0.213-0.837l0.15-0.581c0.081-0.294 0.081-0.306-0.169-0.594-0.862-1.012-1.281-2.238-1.281-3.75 0-4.319 3.231-8.906 9.225-8.906 4.775 0 7.863 2.831 7.863 7.213 0 5.606-2.619 9.831-6.088 9.831-1.081 0-2.063-0.456-2.688-1.244-0.594-0.75-0.787-1.706-0.556-2.694 0.194-0.819 0.456-1.656 0.713-2.463 0.438-1.412 0.856-2.744 0.856-3.713 0-0.525-0.144-2.231-1.975-2.231-1.688 0-3.013 1.825-3.013 4.15 0 1.537 0.519 2.6 0.525 2.613 0.044 0.088 0.056 0.194 0.031 0.294 0 0-1.95 8.212-2.3 9.644-0.544 2.275-0.262 5.031-0.081 6.3 0.106-0.006 0.206 0.019 0.294 0.087 0.188 0.144 0.225 0.413 0.081 0.6-0.131 0.163-0.331 0.256-0.537 0.256z"></path>
<path id="svg-ico" fill="#ee5586" d="M9.688 30.712c0.813-1.063 2.294-3.194 2.875-5.288 0.219-0.769 1.244-4.813 1.256-4.856 0.044-0.175 0.188-0.3 0.363-0.319 0.181-0.025 0.35 0.069 0.431 0.225 0.519 0.975 2.15 1.981 3.981 1.981 5.419 0 9.206-4.813 9.206-11.7 0-4.775-4.069-9.713-10.881-9.713-5.125 0-12.338 3.3-12.338 10.631 0 3.169 1.237 5.488 3.388 6.363 0.219 0.087 0.325 0.337 0.237 0.556s-0.338 0.325-0.556 0.238c-2.456-0.994-3.925-3.669-3.925-7.156 0-7.194 6.713-11.494 13.194-11.494 7.35 0 11.738 5.375 11.738 10.569 0 7.275-4.231 12.563-10.069 12.563-1.581 0-3.206-0.675-4.169-1.663-0.319 1.244-0.881 3.444-1.037 4.006-0.688 2.475-2.513 4.95-3.263 5.9-0.088 0.113-0.519-0.725-0.431-0.844z"></path>
</svg>
