<!-- Generated by IcoMoon.io -->
<svg version="1.1" xmlns="http://www.w3.org/2000/svg" width="32" height="32" viewBox="0 0 32 32">
<title>plane</title>
<path fill="#5e686c" d="M12.113 31.688c-0.012 0-0.031 0-0.044 0-0.162-0.019-0.3-0.125-0.356-0.275l-11.244-30.369c-0.081-0.219 0.031-0.469 0.25-0.55 0.225-0.081 0.469 0.031 0.55 0.25l10.944 29.538 6.85-11.063c0.125-0.2 0.387-0.262 0.587-0.137s0.262 0.387 0.137 0.587l-7.313 11.806c-0.075 0.131-0.213 0.212-0.363 0.212z"></path>
<path id="svg-ico" fill="#ee5586" d="M19.425 19.875c-0.113 0-0.219-0.044-0.3-0.125l-18.556-18.55c-0.144-0.144-0.169-0.363-0.056-0.531 0.106-0.169 0.319-0.237 0.506-0.169l30.363 11.244c0.156 0.056 0.262 0.194 0.275 0.356 0.019 0.162-0.063 0.319-0.2 0.406l-11.806 7.306c-0.069 0.044-0.15 0.063-0.225 0.063zM2.55 1.975l16.931 16.931 10.775-6.669-27.706-10.262z"></path>
</svg>
