<!-- Generated by IcoMoon.io -->
<svg version="1.1" xmlns="http://www.w3.org/2000/svg" width="32" height="32" viewBox="0 0 32 32">
<title>pound</title>
<path fill="#5e686c" d="M25.631 31.725h-19.056c-0.237 0-0.431-0.194-0.431-0.431s0.194-0.431 0.431-0.431h19.056c0.238 0 0.431 0.194 0.431 0.431s-0.194 0.431-0.431 0.431z"></path>
<path fill="#5e686c" d="M6.575 31.725c-0.162 0-0.319-0.094-0.394-0.25-0.1-0.219-0.006-0.475 0.213-0.575 3.031-1.413 4.994-4.488 4.994-7.831 0-2.438-2.819-6.35-2.85-6.387-1.556-1.744-2.394-4.037-2.394-6.6 0-5.494 4.469-9.963 9.963-9.963s9.956 4.469 9.956 9.963c0 0.238-0.194 0.431-0.431 0.431s-0.431-0.194-0.431-0.431c0-5.013-4.081-9.094-9.094-9.094s-9.094 4.081-9.094 9.094c0 2.35 0.763 4.444 2.2 6.056 0.15 0.206 3.044 4.219 3.044 6.931 0 3.681-2.156 7.063-5.494 8.619-0.063 0.025-0.125 0.038-0.188 0.038z"></path>
<path id="svg-ico" fill="#ee5586" d="M23.369 17.425h-16.794c-0.237 0-0.431-0.194-0.431-0.431s0.194-0.431 0.431-0.431h16.794c0.238 0 0.431 0.194 0.431 0.431s-0.194 0.431-0.431 0.431z"></path>
</svg>
