<!-- Generated by IcoMoon.io -->
<svg version="1.1" xmlns="http://www.w3.org/2000/svg" width="32" height="32" viewBox="0 0 32 32">
<title>privacy</title>
<path fill="#5e686b" d="M31.688 3.688c0-0.188-0.15-0.337-0.337-0.337h-30.756c-0.012 0-0.025 0-0.037 0-0.169 0.019-0.306 0.163-0.306 0.337v24.6c0 0.188 0.15 0.337 0.338 0.337h30.75c0.188 0 0.337-0.15 0.337-0.337v-18.375c0-0.012 0-0.025 0-0.031 0-0.012 0-0.025 0-0.037l0.012-6.156zM31.006 4.031v5.469h-30.069v-5.469h30.069zM0.938 27.95v-17.769h30.069v17.769h-30.069z"></path>
<path fill="#5e686b" d="M5.1 8.019c0.75 0 1.356-0.612 1.356-1.362s-0.612-1.362-1.356-1.362c-0.75 0-1.362 0.612-1.362 1.362 0.006 0.756 0.612 1.362 1.362 1.362zM5.1 5.981c0.375 0 0.681 0.306 0.681 0.681s-0.306 0.681-0.681 0.681c-0.375 0-0.681-0.306-0.681-0.681s0.306-0.681 0.681-0.681z"></path>
<path fill="#5e686b" d="M9.931 8.019c0.75 0 1.363-0.612 1.363-1.362s-0.613-1.362-1.363-1.362c-0.75 0-1.363 0.612-1.363 1.362 0.006 0.756 0.613 1.362 1.363 1.362zM9.931 5.981c0.375 0 0.681 0.306 0.681 0.681s-0.306 0.681-0.681 0.681c-0.375 0-0.681-0.306-0.681-0.681s0.306-0.681 0.681-0.681z"></path>
<path fill="#5e686b" d="M14.762 8.019c0.75 0 1.363-0.612 1.363-1.362s-0.613-1.362-1.363-1.362-1.363 0.612-1.363 1.362c0.006 0.756 0.613 1.362 1.363 1.362zM14.762 5.981c0.375 0 0.681 0.306 0.681 0.681s-0.306 0.681-0.681 0.681-0.681-0.306-0.681-0.681 0.306-0.681 0.681-0.681z"></path>
<path id="svg-ico" fill="#ee5586" d="M15.975 16.719c-2.438 0-4.419 1.981-4.419 4.419s1.981 4.419 4.419 4.419c2.438 0 4.419-1.981 4.419-4.419s-1.988-4.419-4.419-4.419zM15.975 24.875c-2.063 0-3.737-1.675-3.737-3.738s1.675-3.738 3.738-3.738c2.063 0 3.738 1.675 3.738 3.738s-1.675 3.738-3.738 3.738z"></path>
<path id="svg-ico" fill="#ee5586" d="M15.975 20.081c-0.188 0-0.338 0.15-0.338 0.337v2.038c0 0.188 0.15 0.337 0.338 0.337s0.338-0.15 0.338-0.337v-2.038c0-0.188-0.15-0.337-0.338-0.337z"></path>
<path id="svg-ico" fill="#ee5586" d="M13.869 16.363c0.188 0 0.338-0.15 0.338-0.337v-1.35c0-0.556 0.456-1.012 1.019-1.012h1.5c0.563 0 1.019 0.456 1.019 1.012v1.35c0 0.188 0.15 0.337 0.337 0.337s0.337-0.15 0.337-0.337v-1.35c0-0.931-0.762-1.694-1.694-1.694h-1.5c-0.938 0-1.694 0.762-1.694 1.694v1.35c-0.006 0.188 0.15 0.337 0.338 0.337z"></path>
</svg>
