<!-- Generated by IcoMoon.io -->
<svg version="1.1" xmlns="http://www.w3.org/2000/svg" width="32" height="32" viewBox="0 0 32 32">
<title>Protected</title>
<path fill="#5e686c" d="M19.194 30.887c-0.238 0-0.431-0.194-0.431-0.431v-7.856c0-0.356-0.406-0.6-0.744-0.744-0.525-0.219-1.275-0.35-2.056-0.35-1.544 0-2.8 0.488-2.8 1.094v7.85c0 0.238-0.194 0.431-0.431 0.431s-0.431-0.194-0.431-0.431v-7.85c0-1.35 1.844-1.956 3.662-1.956 1.825 0 3.662 0.606 3.662 1.956v7.85c0 0.244-0.188 0.438-0.431 0.438z"></path>
<path fill="#5e686c" d="M18.275 14.719c-0.238 0-0.431-0.194-0.431-0.431v-3.694c0-0.238 0.194-0.431 0.431-0.431s0.431 0.194 0.431 0.431v3.694c0 0.244-0.194 0.431-0.431 0.431z"></path>
<path fill="#5e686c" d="M21.969 13.338h-3.694c-0.238 0-0.431-0.194-0.431-0.431s0.194-0.431 0.431-0.431h3.694c0.238 0 0.431 0.194 0.431 0.431s-0.194 0.431-0.431 0.431z"></path>
<path fill="#5e686c" d="M31.2 30.887c-0.238 0-0.431-0.194-0.431-0.431v-12.012c0-0.319-0.175-0.494-0.494-0.494h-5.081c-0.238 0-0.431-0.194-0.431-0.431s0.194-0.431 0.431-0.431h5.081c0.8 0 1.356 0.556 1.356 1.356v12.006c0.006 0.244-0.188 0.438-0.431 0.438z"></path>
<path fill="#5e686c" d="M0.725 30.887c-0.237 0-0.431-0.194-0.431-0.431v-12.012c0-0.8 0.556-1.356 1.356-1.356h5.081c0.237 0 0.431 0.194 0.431 0.431s-0.194 0.431-0.431 0.431h-5.081c-0.319 0-0.494 0.175-0.494 0.494v12.006c0 0.244-0.194 0.438-0.431 0.438z"></path>
<path fill="#5e686c" d="M7.188 30.887h-6.4c-0.238 0-0.431-0.194-0.431-0.431s0.194-0.431 0.431-0.431h6.4c0.237 0 0.431 0.194 0.431 0.431s-0.194 0.431-0.431 0.431z"></path>
<path id="svg-ico" fill="#ee5586" d="M24.738 30.887h-17.55c-0.237 0-0.431-0.194-0.431-0.431s0.194-0.431 0.431-0.431h17.55c0.238 0 0.431 0.194 0.431 0.431s-0.194 0.431-0.431 0.431z"></path>
<path fill="#5e686c" d="M31.2 30.887h-6.463c-0.238 0-0.431-0.194-0.431-0.431s0.194-0.431 0.431-0.431h6.469c0.238 0 0.431 0.194 0.431 0.431s-0.194 0.431-0.438 0.431z"></path>
<path fill="#5e686c" d="M10.794 17.863c-0.238 0-0.431-0.194-0.431-0.431v-2.769c0-0.238 0.194-0.431 0.431-0.431s0.431 0.194 0.431 0.431v2.769c0 0.238-0.188 0.431-0.431 0.431z"></path>
<path id="svg-ico" fill="#ee5586" d="M24.738 30.887c-0.238 0-0.431-0.194-0.431-0.431v-18.938c0-0.088 0.025-0.169 0.075-0.238l3.619-5.438v-3.1c0-0.319-0.175-0.494-0.494-0.494h-4.619c-0.319 0-0.494 0.175-0.494 0.494v2.769c0 0.237-0.194 0.431-0.431 0.431h-2.769c-0.238 0-0.431-0.194-0.431-0.431v-2.769c0-0.319-0.175-0.494-0.494-0.494h-4.619c-0.319 0-0.494 0.175-0.494 0.494v2.769c0 0.237-0.194 0.431-0.431 0.431h-2.769c-0.238 0-0.431-0.194-0.431-0.431v-2.769c0-0.319-0.175-0.494-0.494-0.494h-4.612c-0.319 0-0.494 0.175-0.494 0.494v3.1l3.619 5.431c0.050 0.069 0.075 0.156 0.075 0.238v18.931c0 0.238-0.194 0.431-0.431 0.431s-0.431-0.194-0.431-0.431v-18.794l-3.619-5.431c-0.050-0.075-0.075-0.156-0.075-0.244v-3.231c0-0.8 0.556-1.356 1.356-1.356h4.619c0.8 0 1.356 0.556 1.356 1.356v2.337h1.906v-2.337c0-0.8 0.556-1.356 1.356-1.356h4.619c0.8 0 1.356 0.556 1.356 1.356v2.337h1.906v-2.337c0-0.8 0.556-1.356 1.356-1.356h4.619c0.8 0 1.356 0.556 1.356 1.356v3.231c0 0.088-0.025 0.169-0.075 0.237l-3.619 5.431v18.806c-0.006 0.244-0.2 0.438-0.438 0.438z"></path>
</svg>
