<!-- Generated by IcoMoon.io -->
<svg version="1.1" xmlns="http://www.w3.org/2000/svg" width="32" height="32" viewBox="0 0 32 32">
<title>protection</title>
<path fill="#5e686c" d="M16.344 31.788c-5.581 0-10.169-5.756-10.444-13.106-0.006-0.231 0.169-0.419 0.4-0.431 0.225-0.019 0.419 0.169 0.431 0.4 0.256 6.9 4.481 12.306 9.612 12.306 5.137 0 9.363-5.406 9.619-12.306 0.006-0.231 0.206-0.419 0.431-0.4 0.231 0.006 0.406 0.2 0.4 0.431-0.281 7.35-4.869 13.106-10.45 13.106z"></path>
<path fill="#5e686c" d="M27.325 13.113c-0.181 0-0.35-0.119-0.4-0.3-1.281-4.55-4.463-7.981-8.306-8.956-0.219-0.056-0.356-0.281-0.3-0.506 0.056-0.219 0.281-0.356 0.506-0.3 4.131 1.050 7.544 4.7 8.9 9.537 0.063 0.219-0.069 0.45-0.288 0.512-0.038 0.006-0.075 0.012-0.113 0.012z"></path>
<path fill="#5e686c" d="M5.362 13.106c-0.037 0-0.075-0.006-0.112-0.012-0.219-0.063-0.35-0.294-0.287-0.512 1.356-4.831 4.763-8.481 8.894-9.531 0.225-0.056 0.444 0.075 0.506 0.3 0.056 0.219-0.075 0.45-0.3 0.506-3.838 0.975-7.019 4.406-8.294 8.956-0.063 0.175-0.225 0.294-0.406 0.294z"></path>
<path fill="#5e686c" d="M16.344 3.569c-0.231 0-0.412-0.188-0.412-0.413v-2.494c0-0.231 0.187-0.412 0.412-0.412 0.231 0 0.413 0.188 0.413 0.412v2.487c0 0.231-0.181 0.419-0.413 0.419z"></path>
<path id="svg-ico" fill="#ee5586" d="M16.344 21.962c-0.231 0-0.412-0.188-0.412-0.413v-8.856c0-0.231 0.187-0.412 0.412-0.412 0.231 0 0.413 0.188 0.413 0.412v8.856c0 0.231-0.181 0.413-0.413 0.413z"></path>
<path fill="#5e686c" d="M16.344 31.512c-0.231 0-0.412-0.188-0.412-0.413v-6.631c0-0.231 0.187-0.413 0.412-0.413 0.231 0 0.413 0.188 0.413 0.413v6.631c0 0.231-0.181 0.413-0.413 0.413z"></path>
<path id="svg-ico" fill="#ee5586" d="M16.344 21.962c-0.038 0-0.081-0.006-0.125-0.019l-11.6-3.569c-0.219-0.069-0.344-0.3-0.275-0.519s0.3-0.344 0.519-0.275l11.6 3.575c0.219 0.069 0.344 0.3 0.275 0.519-0.050 0.175-0.219 0.288-0.394 0.288z"></path>
<path id="svg-ico" fill="#ee5586" d="M16.344 21.962c-0.175 0-0.344-0.113-0.394-0.294-0.069-0.219 0.056-0.45 0.275-0.519l11.588-3.569c0.219-0.069 0.45 0.056 0.519 0.275s-0.056 0.45-0.275 0.519l-11.588 3.575c-0.044 0.006-0.087 0.012-0.125 0.012z"></path>
<path id="svg-ico" fill="#ee5586" d="M28.775 13.106h-24.863c-0.231 0-0.413-0.188-0.413-0.412 0-0.231 0.188-0.412 0.413-0.412h24.863c0.231 0 0.413 0.188 0.413 0.412 0 0.231-0.181 0.412-0.413 0.412z"></path>
<path id="svg-ico" fill="#ee5586" d="M4.737 18.394c-0.2 0-0.375-0.144-0.406-0.35l-0.831-5.287c-0.038-0.225 0.119-0.438 0.344-0.475 0.231-0.031 0.438 0.119 0.475 0.344l0.831 5.281c0.037 0.225-0.119 0.438-0.344 0.475-0.025 0.006-0.044 0.012-0.069 0.012z"></path>
<path id="svg-ico" fill="#ee5586" d="M27.931 18.394c-0.025 0-0.044 0-0.069-0.006-0.225-0.038-0.381-0.25-0.344-0.475l0.844-5.281c0.038-0.225 0.244-0.381 0.475-0.344 0.225 0.037 0.381 0.25 0.344 0.475l-0.844 5.281c-0.031 0.2-0.206 0.35-0.406 0.35z"></path>
<path id="svg-ico" fill="#ee5586" d="M24.719 17.25c-0.231 0-0.413-0.188-0.413-0.413v-4.144c0-0.231 0.188-0.412 0.413-0.412s0.413 0.188 0.413 0.412v4.144c0 0.231-0.181 0.413-0.413 0.413z"></path>
<path id="svg-ico" fill="#ee5586" d="M7.987 17.25c-0.231 0-0.412-0.188-0.412-0.413v-4.144c0-0.231 0.188-0.412 0.412-0.412s0.413 0.188 0.413 0.412v4.144c0 0.231-0.181 0.413-0.412 0.413z"></path>
<path id="svg-ico" fill="#ee5586" d="M20.313 18.913c-0.231 0-0.413-0.188-0.413-0.413v-5.8c0-0.231 0.188-0.412 0.413-0.412s0.413 0.188 0.413 0.412v5.8c0.006 0.225-0.181 0.413-0.413 0.413z"></path>
<path id="svg-ico" fill="#ee5586" d="M12.475 18.913c-0.231 0-0.412-0.188-0.412-0.413v-5.8c0-0.231 0.188-0.412 0.412-0.412s0.412 0.188 0.412 0.412v5.8c0.006 0.225-0.181 0.413-0.412 0.413z"></path>
<path fill="#5e686c" d="M19.244 1.081h-5.8c-0.231 0-0.412-0.188-0.412-0.412s0.188-0.412 0.412-0.412h5.8c0.231 0 0.413 0.188 0.413 0.412s-0.181 0.412-0.413 0.412z"></path>
<path fill="#5e686c" d="M18 7.825h-3.313c-0.231 0-0.412-0.188-0.412-0.412 0-0.231 0.188-0.412 0.412-0.412h3.313c0.231 0 0.413 0.188 0.413 0.412s-0.181 0.412-0.413 0.412z"></path>
<path fill="#5e686c" d="M14.688 7.825c-0.194 0-0.369-0.138-0.406-0.338l-1.25-6.75c-0.044-0.225 0.106-0.444 0.331-0.481 0.225-0.044 0.444 0.106 0.481 0.331l1.244 6.744c0.044 0.225-0.106 0.444-0.331 0.481-0.019 0.013-0.044 0.013-0.069 0.013z"></path>
<path fill="#5e686c" d="M18 7.825c-0.025 0-0.050 0-0.075-0.006-0.225-0.044-0.375-0.256-0.331-0.481l1.244-6.75c0.044-0.225 0.25-0.375 0.481-0.331 0.225 0.044 0.375 0.256 0.331 0.481l-1.244 6.744c-0.038 0.206-0.206 0.344-0.406 0.344z"></path>
</svg>
