<!-- Generated by IcoMoon.io -->
<svg version="1.1" xmlns="http://www.w3.org/2000/svg" width="32" height="32" viewBox="0 0 32 32">
<title>rack</title>
<path id="svg-ico" fill="#ee5586" d="M18.95 22.837c-0.869 0-1.581 0.706-1.581 1.581s0.712 1.581 1.581 1.581c0.869 0 1.581-0.712 1.581-1.581 0-0.875-0.712-1.581-1.581-1.581zM18.95 25.206c-0.438 0-0.788-0.356-0.788-0.794s0.356-0.788 0.788-0.788c0.438 0 0.788 0.356 0.788 0.788 0 0.438-0.35 0.794-0.788 0.794z"></path>
<path fill="#5e686b" d="M24.1 22.837c-0.869 0-1.581 0.706-1.581 1.581s0.712 1.581 1.581 1.581c0.869 0 1.581-0.712 1.581-1.581 0-0.875-0.706-1.581-1.581-1.581zM24.1 25.206c-0.438 0-0.788-0.356-0.788-0.794s0.356-0.788 0.788-0.788 0.788 0.356 0.788 0.788c0.006 0.438-0.35 0.794-0.788 0.794z"></path>
<path fill="#5e686b" d="M20.531 14.781c0-0.869-0.712-1.581-1.581-1.581s-1.581 0.706-1.581 1.581c0 0.875 0.712 1.581 1.581 1.581s1.581-0.706 1.581-1.581zM18.156 14.781c0-0.438 0.356-0.787 0.788-0.787 0.438 0 0.788 0.356 0.788 0.787 0 0.438-0.356 0.794-0.788 0.794s-0.788-0.356-0.788-0.794z"></path>
<path id="svg-ico" fill="#ee5586" d="M25.681 14.781c0-0.869-0.712-1.581-1.581-1.581s-1.581 0.706-1.581 1.581c0 0.875 0.712 1.581 1.581 1.581 0.875 0 1.581-0.706 1.581-1.581zM23.313 14.781c0-0.438 0.356-0.787 0.788-0.787s0.788 0.356 0.788 0.787c0 0.438-0.356 0.794-0.788 0.794-0.438 0-0.788-0.356-0.788-0.794z"></path>
<path fill="#5e686b" d="M18.95 6.731c0.869 0 1.581-0.713 1.581-1.581s-0.712-1.581-1.581-1.581c-0.869 0-1.581 0.706-1.581 1.581s0.706 1.581 1.581 1.581zM18.95 4.362c0.438 0 0.788 0.356 0.788 0.787 0 0.438-0.356 0.794-0.788 0.794-0.438 0-0.788-0.356-0.788-0.794-0.006-0.431 0.35-0.787 0.788-0.787z"></path>
<path id="svg-ico" fill="#ee5586" d="M24.1 6.731c0.869 0 1.581-0.713 1.581-1.581s-0.712-1.581-1.581-1.581c-0.869 0-1.581 0.706-1.581 1.581s0.712 1.581 1.581 1.581zM24.1 4.362c0.438 0 0.788 0.356 0.788 0.787 0 0.438-0.356 0.794-0.788 0.794-0.438 0-0.788-0.356-0.788-0.794 0-0.431 0.35-0.787 0.788-0.787z"></path>
<path fill="#5e686b" d="M27.731 0.181h-23.462c-0.981 0-1.781 0.738-1.781 1.644v25.919c0 0.906 0.8 1.644 1.781 1.644h2.169v1.975c0 0.219 0.175 0.394 0.394 0.394h3.95c0.219 0 0.394-0.175 0.394-0.394v-1.975h9.637v1.975c0 0.219 0.175 0.394 0.394 0.394h3.95c0.219 0 0.394-0.175 0.394-0.394v-1.975h2.169c0.981 0 1.781-0.738 1.781-1.644v-25.919c0.012-0.906-0.788-1.644-1.769-1.644zM10.394 30.969h-3.162v-1.581h3.162v1.581zM24.769 30.969h-3.163v-1.581h3.163v1.581zM28.719 27.744c0 0.469-0.444 0.856-0.994 0.856h-23.456c-0.55 0-0.994-0.381-0.994-0.856v-25.919c0-0.469 0.444-0.856 0.994-0.856h23.456c0.544 0 0.994 0.381 0.994 0.856v25.919z"></path>
<path fill="#5e686b" d="M25.881 9.775h-19.762c-0.219 0-0.394 0.175-0.394 0.394s0.175 0.394 0.394 0.394h19.762c0.219 0 0.394-0.175 0.394-0.394s-0.175-0.394-0.394-0.394z"></path>
<path fill="#5e686b" d="M25.881 19h-19.762c-0.219 0-0.394 0.175-0.394 0.394s0.175 0.394 0.394 0.394h19.762c0.219 0 0.394-0.175 0.394-0.394s-0.175-0.394-0.394-0.394z"></path>
</svg>
