<!-- Generated by IcoMoon.io -->
<svg version="1.1" xmlns="http://www.w3.org/2000/svg" width="32" height="32" viewBox="0 0 32 32">
<title>random</title>
<path fill="#5e686b" d="M27.087 13.306c-0.106 0-0.219-0.044-0.3-0.125-0.169-0.169-0.169-0.438 0-0.6l3.931-3.931-3.931-3.931c-0.169-0.169-0.169-0.438 0-0.6s0.438-0.169 0.6 0l4.231 4.231c0.169 0.169 0.169 0.438 0 0.6l-4.231 4.231c-0.081 0.081-0.194 0.125-0.3 0.125z"></path>
<path fill="#5e686b" d="M17.637 13.306c-0.081 0-0.169-0.025-0.238-0.075-0.194-0.131-0.244-0.394-0.113-0.594l2.856-4.231c0.081-0.119 0.212-0.188 0.35-0.188h10.825c0.238 0 0.425 0.194 0.425 0.425s-0.194 0.425-0.425 0.425h-10.594l-2.731 4.044c-0.087 0.125-0.219 0.194-0.356 0.194z"></path>
<path fill="#5e686b" d="M9.319 25.625h-8.706c-0.237 0-0.425-0.194-0.425-0.425 0-0.238 0.194-0.425 0.425-0.425h8.481l2.975-4.406c0.131-0.194 0.4-0.244 0.594-0.113s0.244 0.394 0.113 0.594l-3.1 4.588c-0.081 0.113-0.213 0.188-0.356 0.188z"></path>
<path id="svg-ico" fill="#ee5586" d="M27.087 29.881c-0.106 0-0.219-0.044-0.3-0.125-0.169-0.169-0.169-0.438 0-0.6l3.931-3.931-3.931-3.931c-0.169-0.169-0.169-0.438 0-0.6 0.169-0.169 0.438-0.169 0.6 0l4.231 4.238c0.169 0.169 0.169 0.438 0 0.6l-4.231 4.231c-0.081 0.081-0.194 0.119-0.3 0.119z"></path>
<path id="svg-ico" fill="#ee5586" d="M31.25 25.65h-10.75c-0.144 0-0.275-0.069-0.35-0.188l-11.056-16.363h-8.481c-0.237 0-0.425-0.194-0.425-0.425s0.194-0.425 0.425-0.425h8.706c0.144 0 0.275 0.069 0.35 0.188l11.050 16.363h10.531c0.238 0 0.425 0.194 0.425 0.425s-0.194 0.425-0.425 0.425z"></path>
</svg>
