<!-- Generated by IcoMoon.io -->
<svg version="1.1" xmlns="http://www.w3.org/2000/svg" width="32" height="32" viewBox="0 0 32 32">
<title>rate</title>
<path fill="#5e686b" d="M14.412 27.875c-1.206-3.094-3.969-10.238-5.588-14.419-0.081-0.206-0.275-0.344-0.5-0.344-0.181 0.031-0.425 0.137-0.5 0.35l-1.044 2.806c-0.25 0.675-0.831 1.431-1.263 1.431h-4.625c-0.294 0-0.537 0.238-0.537 0.538s0.237 0.538 0.537 0.538h4.625c1.162 0 1.987-1.394 2.263-2.131l0.55-1.488 2.588 6.656c3.012 7.769 3.219 8.313 3.575 8.313 0.025 0 0.056-0.006 0.081-0.006 0.219-0.025 0.4-0.181 0.456-0.394l0.025-0.194-0.644-1.656z"></path>
<path id="svg-ico" fill="#ee5586" d="M31.363 17.7h-4.387c-0.569-0.044-1.050-0.456-1.2-1.025l-3.669-13.787c-0.063-0.237-0.275-0.4-0.519-0.4s-0.456 0.163-0.519 0.394l-6.656 24.994c0 0.006 0.637 1.656 0.637 1.656l6.537-24.425 3.15 11.85c0.269 1.012 1.137 1.744 2.194 1.819h4.425c0.294 0 0.538-0.238 0.538-0.538s-0.238-0.538-0.531-0.538z"></path>
</svg>
