<!-- Generated by IcoMoon.io -->
<svg version="1.1" xmlns="http://www.w3.org/2000/svg" width="32" height="32" viewBox="0 0 32 32">
<title>refresh</title>
<path fill="#5e686b" d="M15.994 31.606c-7.625 0-13.831-6.206-13.831-13.831s6.206-13.831 13.831-13.831c0.231 0 0.419 0.188 0.419 0.419s-0.188 0.419-0.419 0.419c-7.162 0-12.988 5.825-12.988 12.987s5.825 12.988 12.988 12.988c7.162 0 12.988-5.825 12.988-12.988 0-0.231 0.188-0.419 0.419-0.419s0.419 0.188 0.419 0.419c0.006 7.631-6.2 13.837-13.825 13.837z"></path>
<path id="svg-ico" fill="#ee5586" d="M15.994 8.313c-0.075 0-0.156-0.019-0.219-0.063-0.125-0.075-0.2-0.213-0.2-0.356v-7.063c0-0.144 0.075-0.281 0.2-0.356s0.281-0.081 0.406-0.019l7.056 3.531c0.144 0.069 0.231 0.219 0.231 0.375 0 0.162-0.087 0.306-0.231 0.375l-7.056 3.531c-0.056 0.031-0.125 0.044-0.188 0.044zM16.413 1.512v5.694l5.694-2.85-5.694-2.844z"></path>
</svg>
