<!-- Generated by IcoMoon.io -->
<svg version="1.1" xmlns="http://www.w3.org/2000/svg" width="32" height="32" viewBox="0 0 32 32">
<title>repair</title>
<path fill="#5e686b" d="M23.45 27.719c-5.456 3.462-12.738 2.656-17.313-1.919-5.056-5.056-5.487-12.969-1.050-18.525v3.894c0 0.231 0.188 0.412 0.412 0.412 0.231 0 0.412-0.188 0.412-0.412v-4.781c0-0.231-0.188-0.412-0.412-0.412h-4.781c-0.231 0-0.412 0.188-0.412 0.412 0 0.231 0.188 0.412 0.412 0.412h3.688c-4.662 5.881-4.194 14.244 1.15 19.581 2.831 2.831 6.644 4.3 10.475 4.3 2.725 0 5.462-0.744 7.863-2.269 0.194-0.125 0.25-0.375 0.125-0.569-0.119-0.188-0.375-0.244-0.569-0.125z"></path>
<path fill="#5e686b" d="M31.325 25.1h-3.688c4.669-5.881 4.2-14.244-1.15-19.587-4.85-4.85-12.563-5.7-18.337-2.031-0.194 0.125-0.25 0.375-0.125 0.569s0.375 0.25 0.569 0.125c5.456-3.469 12.731-2.663 17.313 1.919 5.056 5.056 5.488 12.975 1.050 18.525v-3.894c0-0.231-0.188-0.413-0.413-0.413-0.231 0-0.413 0.188-0.413 0.413v4.781c0 0.231 0.188 0.413 0.413 0.413h4.781c0.231 0 0.413-0.188 0.413-0.413s-0.188-0.406-0.413-0.406z"></path>
<path id="svg-ico" fill="#ee5586" d="M24.85 12.506c0-0.006 0-0.012 0-0.012 0-0.006 0-0.019 0-0.025s0-0.006 0-0.012 0-0.019-0.006-0.025c0-0.006 0-0.012 0-0.012 0-0.006-0.006-0.012-0.006-0.025 0-0.006 0-0.012-0.006-0.012 0-0.006-0.006-0.012-0.006-0.019s-0.006-0.012-0.006-0.019c-0.006-0.006-0.006-0.012-0.012-0.019 0-0.006-0.006-0.012-0.006-0.012-0.006-0.006-0.012-0.019-0.019-0.025 0 0-0.006-0.006-0.006-0.006-0.006-0.012-0.019-0.025-0.025-0.031l-1.25-1.375c-0.075-0.081-0.181-0.131-0.294-0.131-0.125-0.006-0.225 0.044-0.3 0.125l-0.813 0.819c-0.244 0.25-0.575 0.387-0.925 0.387v0c-0.35 0-0.675-0.137-0.925-0.387-0.512-0.519-0.512-1.356 0-1.875l0.813-0.819c0.163-0.162 0.163-0.419 0-0.581l-1.225-1.237c0 0 0 0-0.006-0.006 0 0 0 0 0 0s-0.006 0-0.006-0.006-0.019-0.013-0.025-0.025c-0.006-0.006-0.012-0.006-0.012-0.013-0.006-0.006-0.012-0.006-0.019-0.013s-0.012-0.006-0.019-0.013c-0.006 0-0.012-0.006-0.012-0.006-0.006-0.006-0.012-0.006-0.019-0.013-0.006 0-0.012-0.006-0.019-0.006s-0.012-0.006-0.019-0.006c-0.006 0-0.012-0.006-0.019-0.006s-0.012 0-0.012-0.006c-0.006 0-0.019-0.006-0.025-0.006s-0.006 0-0.012 0c-0.012 0-0.019-0.006-0.031-0.006 0 0 0 0-0.006 0-0.119-0.006-0.238 0.031-0.325 0.119 0 0 0 0.006-0.006 0.006 0 0 0 0 0 0l-1.444 1.475c-1.281 1.294-1.469 3.287-0.556 4.781l-9.25 6.763c-1.056 1.063-1.056 2.794 0 3.856 0.512 0.519 1.194 0.8 1.919 0.8v0c0.725 0 1.406-0.281 1.956-0.85l6.65-9.287c0.6 0.375 1.294 0.575 2.012 0.575 0 0 0 0 0 0 1.031 0 2-0.406 2.712-1.125l1.481-1.344c0.063-0.056 0.106-0.131 0.125-0.206 0-0.006 0-0.006 0-0.012s0.006-0.019 0.006-0.025c0-0.006 0-0.012 0-0.019s0-0.012 0-0.019 0-0.019 0-0.025zM11.231 23.469c-0.356 0.356-0.825 0.556-1.325 0.556 0 0 0 0 0 0-0.5 0-0.975-0.2-1.331-0.556-0.737-0.744-0.737-1.95-0.050-2.65l9.225-6.725c0.019 0.019 0.038 0.037 0.050 0.056 0.019 0.019 0.044 0.037 0.063 0.056l-6.631 9.262zM22.669 13.563c-0.569 0.575-1.331 0.894-2.137 0.894 0 0 0 0 0 0-0.675 0-1.313-0.219-1.837-0.625-0.012-0.012-0.025-0.019-0.038-0.031 0 0-0.006 0-0.006 0-0.094-0.075-0.181-0.15-0.262-0.238-0.081-0.081-0.156-0.169-0.231-0.256-0.006-0.006-0.006-0.012-0.012-0.019-0.006-0.012-0.019-0.025-0.031-0.037-0.906-1.2-0.813-2.925 0.275-4.019l1.15-1.181 0.644 0.65-0.525 0.525c-0.831 0.838-0.831 2.2 0 3.037 0.406 0.406 0.938 0.631 1.512 0.631 0 0 0 0 0 0 0.569 0 1.106-0.225 1.512-0.631l0.506-0.512 0.669 0.725-1.188 1.088z"></path>
<path id="svg-ico" fill="#ee5586" d="M10.494 21.688h-1.15c-0.231 0-0.412 0.188-0.412 0.413 0 0.231 0.188 0.413 0.412 0.413h1.15c0.231 0 0.412-0.188 0.412-0.413 0-0.231-0.181-0.413-0.412-0.413z"></path>
</svg>
