<!-- Generated by IcoMoon.io -->
<svg version="1.1" xmlns="http://www.w3.org/2000/svg" width="32" height="32" viewBox="0 0 32 32">
<title>report</title>
<path fill="#5e686b" d="M6.244 20.494c-0.144 0-0.281-0.075-0.362-0.2-0.075-0.125-0.088-0.281-0.019-0.413l2.725-5.563c0.069-0.144 0.219-0.238 0.381-0.238h13.95c0.163 0 0.306 0.088 0.381 0.238l2.781 5.55c0.063 0.131 0.056 0.288-0.019 0.413s-0.212 0.2-0.363 0.2l-19.456 0.012zM9.238 14.931l-2.313 4.713 18.094-0.012-2.356-4.706-13.425 0.006z"></path>
<path id="svg-ico" fill="#ee5586" d="M20.169 9.369h-8.431c-0.15 0-0.287-0.075-0.363-0.206-0.075-0.125-0.081-0.281-0.012-0.412l4.263-8.244c0.075-0.144 0.219-0.231 0.375-0.231 0 0 0 0 0 0 0.163 0 0.306 0.094 0.375 0.231l4.169 8.244c0.069 0.131 0.063 0.287-0.019 0.412-0.069 0.131-0.206 0.206-0.356 0.206zM12.431 8.519h7.050l-3.488-6.888-3.563 6.888z"></path>
<path fill="#5e686b" d="M31.3 31.719h-30.6c-0.144 0-0.281-0.075-0.362-0.2-0.075-0.125-0.087-0.281-0.019-0.413l2.775-5.662c0.069-0.144 0.219-0.238 0.381-0.238h24.981c0.163 0 0.306 0.087 0.381 0.238l2.837 5.663c0.063 0.131 0.056 0.288-0.019 0.413s-0.212 0.2-0.356 0.2zM1.381 30.875h29.231l-2.413-4.819h-24.456l-2.362 4.819z"></path>
</svg>
