<!-- Generated by IcoMoon.io -->
<svg version="1.1" xmlns="http://www.w3.org/2000/svg" width="32" height="32" viewBox="0 0 32 32">
<title>ribbon</title>
<path fill="#5e686b" d="M6.188 31.806c-0.063 0-0.131-0.012-0.188-0.044-0.144-0.075-0.237-0.219-0.237-0.387v-30.944c-0.006-0.237 0.188-0.431 0.425-0.431h19.625c0.238 0 0.431 0.194 0.431 0.431v30.944c0 0.163-0.094 0.313-0.238 0.387s-0.325 0.056-0.45-0.044l-9.556-7.35-9.55 7.344c-0.075 0.063-0.169 0.094-0.263 0.094zM16 23.4c0.094 0 0.188 0.031 0.262 0.087l9.119 7.012v-29.637h-18.762v29.637l9.119-7.012c0.075-0.063 0.169-0.087 0.263-0.087z"></path>
<path id="svg-ico" fill="#ee5586" d="M22.444 5.494h-12.887c-0.238 0-0.431-0.194-0.431-0.431s0.194-0.431 0.431-0.431h12.887c0.238 0 0.431 0.194 0.431 0.431s-0.194 0.431-0.431 0.431z"></path>
<path id="svg-ico" fill="#ee5586" d="M22.444 10.669h-12.887c-0.238 0-0.431-0.194-0.431-0.431s0.194-0.431 0.431-0.431h12.887c0.238 0 0.431 0.194 0.431 0.431 0 0.244-0.194 0.431-0.431 0.431z"></path>
</svg>
