<!-- Generated by IcoMoon.io -->
<svg version="1.1" xmlns="http://www.w3.org/2000/svg" width="32" height="32" viewBox="0 0 32 32">
<title>router</title>
<path fill="#5e686b" d="M15.275 29.456c-7.713 0-13.988-6.275-13.988-13.988 0-3.869 1.419-7.287 4.1-9.894 0.162-0.162 0.431-0.156 0.588 0.006 0.162 0.162 0.156 0.431-0.006 0.588-2.519 2.444-3.85 5.662-3.85 9.294 0 7.256 5.9 13.156 13.156 13.156 3.463 0 6.731-1.337 9.206-3.756 0.163-0.163 0.431-0.156 0.587 0.006 0.163 0.163 0.156 0.431-0.006 0.587-2.625 2.581-6.1 4-9.787 4z"></path>
<path fill="#5e686b" d="M24.875 25.481c-0.106 0-0.212-0.044-0.294-0.125l-19.194-19.188c-0.162-0.162-0.162-0.425 0-0.588s0.425-0.162 0.588 0l19.194 19.194c0.163 0.163 0.163 0.425 0 0.587-0.081 0.075-0.188 0.119-0.294 0.119z"></path>
<path id="svg-ico" fill="#ee5586" d="M26.131 12.9c-0.231 0-0.419-0.188-0.419-0.419 0-1.981-0.769-3.838-2.169-5.237s-3.256-2.169-5.238-2.169c-0.231 0-0.419-0.188-0.419-0.419s0.188-0.419 0.419-0.419v0c2.206 0 4.275 0.856 5.831 2.412s2.413 3.625 2.413 5.831c0 0.231-0.188 0.419-0.419 0.419z"></path>
<path id="svg-ico" fill="#ee5586" d="M30.188 12.269v0c-0.231 0-0.419-0.188-0.419-0.419 0-2.825-1.1-5.481-3.1-7.481s-4.65-3.1-7.475-3.1c0 0 0 0-0.006 0-0.231 0-0.419-0.188-0.419-0.419s0.188-0.419 0.419-0.419c0 0 0 0 0.006 0 3.050 0 5.913 1.188 8.069 3.344s3.344 5.025 3.344 8.069c0 0.238-0.188 0.425-0.419 0.425z"></path>
<path fill="#5e686b" d="M5.619 31.55c-0.231 0-0.419-0.188-0.419-0.419v-6.131c0-0.231 0.188-0.419 0.419-0.419s0.419 0.188 0.419 0.419v6.131c0 0.231-0.188 0.419-0.419 0.419z"></path>
<path id="svg-ico" fill="#ee5586" d="M19.456 13.606c-1.256 0-2.281-1.025-2.281-2.281s1.025-2.281 2.281-2.281c1.256 0 2.281 1.025 2.281 2.281s-1.019 2.281-2.281 2.281zM19.456 9.881c-0.8 0-1.444 0.65-1.444 1.444s0.65 1.444 1.444 1.444 1.444-0.65 1.444-1.444-0.644-1.444-1.444-1.444z"></path>
</svg>
