<!-- Generated by IcoMoon.io -->
<svg version="1.1" xmlns="http://www.w3.org/2000/svg" width="32" height="32" viewBox="0 0 32 32">
<title>settings</title>
<path fill="#5e686b" d="M15.975 31.806c-0.625 0-1.238-0.038-1.825-0.106-1.588-0.181-2.756-1.575-2.656-3.175 0.019-0.3-0.162-0.587-0.444-0.706-0.206-0.087-0.656 0.012-0.825 0.194-1.025 1.131-2.919 1.288-4.119 0.325-0.925-0.75-1.769-1.6-2.5-2.531-0.969-1.225-0.825-3.019 0.331-4.081 0.231-0.212 0.306-0.538 0.194-0.813-0.106-0.262-0.369-0.45-0.619-0.45-1.406 0-3.013-0.938-3.206-2.675-0.138-1.206-0.131-2.419 0.006-3.594 0.188-1.544 1.45-2.662 3-2.662 0.425 0 0.775-0.175 0.888-0.444 0.119-0.275 0.037-0.606-0.188-0.813-1.181-1.075-1.325-2.888-0.325-4.125 0.744-0.931 1.6-1.781 2.55-2.525 1.237-0.95 3.081-0.775 4.094 0.344 0.131 0.144 0.581 0.281 0.819 0.187 0.275-0.112 0.45-0.4 0.444-0.706-0.050-1.569 1.131-2.931 2.688-3.1 1.162-0.131 2.375-0.131 3.55 0.006 1.594 0.188 2.762 1.581 2.663 3.175-0.019 0.306 0.163 0.594 0.444 0.713 0.038 0.019 0.119 0.031 0.219 0.031 0.256 0 0.5-0.112 0.594-0.219 1.038-1.144 2.931-1.294 4.131-0.331 0.919 0.737 1.762 1.587 2.506 2.531 0.975 1.231 0.831 3.031-0.331 4.094-0.225 0.206-0.306 0.537-0.188 0.819 0.113 0.269 0.387 0.444 0.706 0.444 1.387 0 2.938 1 3.125 2.681 0.131 1.194 0.131 2.4-0.006 3.588-0.181 1.525-1.462 2.669-2.988 2.669-0.050 0-0.275-0.006-0.275-0.006-0.244 0-0.519 0.194-0.625 0.444-0.119 0.281-0.044 0.613 0.181 0.819 1.188 1.075 1.325 2.887 0.325 4.131-0.75 0.931-1.606 1.781-2.55 2.525-1.212 0.938-3.056 0.781-4.081-0.331-0.169-0.188-0.619-0.281-0.825-0.2-0.275 0.113-0.456 0.4-0.444 0.706 0.050 1.569-1.125 2.931-2.688 3.106-0.594 0.031-1.175 0.063-1.75 0.063zM10.831 26.931c0.194 0 0.381 0.038 0.544 0.1 0.613 0.256 1 0.875 0.963 1.538-0.069 1.156 0.762 2.156 1.906 2.281 1.075 0.131 2.231 0.137 3.362 0.012 1.119-0.125 1.969-1.1 1.931-2.231-0.019-0.663 0.369-1.275 0.975-1.525 0.544-0.225 1.369-0.031 1.769 0.413 0.738 0.8 2.063 0.913 2.938 0.238 0.894-0.7 1.706-1.506 2.413-2.387 0.719-0.894 0.619-2.194-0.231-2.969-0.5-0.45-0.656-1.163-0.4-1.775 0.238-0.563 0.819-0.956 1.419-0.962 0.019 0 0.219 0.006 0.262 0.006 1.094 0 2.012-0.825 2.137-1.919 0.131-1.125 0.131-2.269 0.006-3.394-0.137-1.206-1.262-1.925-2.275-1.925-0.663 0-1.244-0.381-1.488-0.969-0.25-0.613-0.087-1.319 0.4-1.769 0.837-0.762 0.938-2.056 0.238-2.938-0.694-0.881-1.494-1.688-2.363-2.381-0.863-0.694-2.219-0.581-2.969 0.244-0.387 0.431-1.244 0.619-1.769 0.4-0.613-0.256-1-0.881-0.962-1.544 0.069-1.15-0.769-2.15-1.913-2.281-1.113-0.131-2.262-0.131-3.356-0.006-1.119 0.125-1.969 1.1-1.931 2.231 0.019 0.669-0.369 1.281-0.969 1.525-0.544 0.225-1.381 0.025-1.769-0.406-0.725-0.8-2.056-0.925-2.944-0.244-0.894 0.7-1.706 1.506-2.412 2.388-0.719 0.894-0.612 2.194 0.231 2.969 0.494 0.45 0.656 1.156 0.4 1.769-0.25 0.594-0.888 0.963-1.669 0.963-1.119 0-2.025 0.806-2.156 1.912-0.131 1.113-0.131 2.256-0.006 3.4 0.137 1.25 1.319 1.919 2.362 1.919 0.6 0 1.163 0.394 1.406 0.981 0.25 0.6 0.088 1.313-0.406 1.762-0.831 0.762-0.931 2.050-0.237 2.931s1.487 1.688 2.362 2.394c0.862 0.688 2.225 0.581 2.963-0.231 0.287-0.325 0.762-0.519 1.238-0.519z"></path>
<path id="svg-ico" fill="#ee5586" d="M15.988 20.494c-2.469 0-4.475-2.006-4.475-4.475s2.006-4.475 4.475-4.475c2.462 0 4.475 2.006 4.475 4.475s-2.006 4.475-4.475 4.475zM15.988 12.4c-2 0-3.625 1.625-3.625 3.625s1.625 3.625 3.625 3.625c2 0 3.619-1.625 3.619-3.625 0.006-2-1.619-3.625-3.619-3.625z"></path>
</svg>
