<!-- Generated by IcoMoon.io -->
<svg version="1.1" xmlns="http://www.w3.org/2000/svg" width="32" height="32" viewBox="0 0 32 32">
<title>shared</title>
<path fill="#5e686c" d="M27.563 24.744h-23.119c-1.388 0-2.519-1.125-2.519-2.506v-12.825c0-0.225 0.181-0.406 0.406-0.406s0.406 0.181 0.406 0.406v12.825c0 0.931 0.769 1.694 1.712 1.694h23.112c0.944 0 1.712-0.756 1.712-1.694v-15.456c0-0.225 0.181-0.406 0.406-0.406s0.406 0.181 0.406 0.406v15.456c-0.006 1.381-1.137 2.506-2.525 2.506z"></path>
<path id="svg-ico" fill="#ee5586" d="M2.331 9.819c-0.225 0-0.406-0.181-0.406-0.406v-3.662c0-2.5 0.5-5.369 4.419-5.369h4.619c1.613 0 2.138 0.694 2.594 1.313 0.463 0.619 0.863 1.15 2.506 1.15h11.519c1.137 0 2.5 0.506 2.5 2.906v1.275c0 0.225-0.181 0.406-0.406 0.406s-0.406-0.181-0.406-0.406v-1.275c0-1.856-0.9-2.094-1.688-2.094h-11.512c-2.056 0-2.669-0.819-3.156-1.475-0.412-0.55-0.738-0.981-1.944-0.981h-4.619c-2.563 0-3.606 1.319-3.606 4.556v3.663c-0.006 0.219-0.188 0.4-0.413 0.4v0 0z"></path>
<path fill="#5e686c" d="M10.963 12.35h-4.619c-2.194 0-3.587-0.881-4.388-2.775-0.019-0.050-0.031-0.106-0.031-0.156v-0.081h0.813c0 0-0.013-0.025 0 0 0.675 1.544 1.763 2.2 3.606 2.2h4.619c1.206 0 1.531-0.431 1.944-0.975 0.494-0.65 1.1-1.463 3.156-1.463h11.519c0.788 0 1.688-0.238 1.688-2.075h0.813c0 2.381-1.356 2.881-2.5 2.881h-11.512c-1.65 0-2.050 0.531-2.506 1.137-0.463 0.613-0.981 1.306-2.6 1.306z"></path>
<path fill="#5e686c" d="M16.006 31.706c-0.894 0-1.625-0.731-1.625-1.625s0.725-1.625 1.625-1.625c0.894 0 1.625 0.731 1.625 1.625s-0.731 1.625-1.625 1.625zM16.006 29.269c-0.45 0-0.813 0.363-0.813 0.813s0.363 0.813 0.813 0.813c0.45 0 0.813-0.363 0.813-0.813s-0.369-0.813-0.813-0.813z"></path>
<path fill="#5e686c" d="M16.006 29.269c-0.225 0-0.406-0.181-0.406-0.406v-2.431c0-0.225 0.181-0.406 0.406-0.406s0.406 0.181 0.406 0.406v2.431c0 0.225-0.181 0.406-0.406 0.406z"></path>
<path fill="#5e686c" d="M14.787 30.488h-6.787c-0.225 0-0.406-0.181-0.406-0.406s0.181-0.406 0.406-0.406h6.787c0.225 0 0.406 0.181 0.406 0.406s-0.181 0.406-0.406 0.406z"></path>
<path fill="#5e686c" d="M24.012 30.488h-6.794c-0.225 0-0.406-0.181-0.406-0.406s0.181-0.406 0.406-0.406h6.788c0.225 0 0.406 0.181 0.406 0.406s-0.175 0.406-0.4 0.406z"></path>
</svg>
