<!-- Generated by IcoMoon.io -->
<svg version="1.1" xmlns="http://www.w3.org/2000/svg" width="32" height="32" viewBox="0 0 32 32">
<title>shipping</title>
<path fill="#5e686b" d="M31.806 15.606l-2.1-6.294c-0.050-0.144-0.181-0.238-0.331-0.238h-7.688v-3.344c0-0.194-0.156-0.35-0.35-0.35h-17.494c-0.194 0-0.35 0.156-0.35 0.35 0 0 0 0 0 0.006s0 0 0 0.006v3.881c0 0.194 0.156 0.35 0.35 0.35s0.35-0.156 0.35-0.35v-3.544h16.8v3.337c0 0.194 0.156 0.35 0.35 0.35h7.781l2 6.006v7.112h-2.35c-0.063 0-0.125 0.019-0.175 0.050-0.106-1.825-1.625-3.281-3.475-3.281-1.856 0-3.375 1.462-3.475 3.288-0.056-0.031-0.119-0.056-0.188-0.056h-7.412c-0.063 0-0.125 0.019-0.175 0.050-0.106-1.825-1.625-3.281-3.475-3.281-1.856 0-3.381 1.462-3.475 3.3-0.056-0.038-0.125-0.063-0.2-0.063h-2.531v-5.575c0-0.194-0.156-0.35-0.35-0.35s-0.35 0.156-0.35 0.35v5.925c0 0.194 0.156 0.35 0.35 0.35h2.881c0.081 0 0.156-0.025 0.213-0.075 0.188 1.744 1.669 3.106 3.462 3.106 1.787 0 3.262-1.356 3.463-3.087 0.056 0.038 0.119 0.056 0.194 0.056h7.406c0.075 0 0.144-0.025 0.2-0.063 0.194 1.738 1.669 3.1 3.462 3.1 1.788 0 3.262-1.356 3.462-3.087 0.056 0.038 0.119 0.056 0.194 0.056h2.7c0.194 0 0.35-0.156 0.35-0.35v-7.531c-0.012-0.037-0.019-0.075-0.025-0.113zM10.4 25.919c-1.537 0-2.787-1.25-2.787-2.788s1.25-2.788 2.787-2.788c1.537 0 2.787 1.25 2.787 2.788s-1.25 2.788-2.787 2.788zM25.125 25.919c-1.538 0-2.788-1.25-2.788-2.788s1.25-2.788 2.788-2.788c1.538 0 2.788 1.25 2.788 2.788s-1.25 2.788-2.788 2.788z"></path>
<path id="svg-ico" fill="#ee5586" d="M29.631 16.363c0.006 0 0.012 0 0.012 0 0.194 0 0.35-0.156 0.35-0.35 0-0.075-0.025-0.137-0.063-0.194l-1.55-4.662c-0.050-0.144-0.181-0.238-0.331-0.238h-6.713c-0.194 0-0.35 0.156-0.35 0.35v4.75c0 0.194 0.156 0.35 0.35 0.35h8.294zM21.688 11.613h6.106l1.35 4.056h-7.456v-4.056z"></path>
<path id="svg-ico" fill="#ee5586" d="M7.344 12.494c0-0.194-0.156-0.35-0.35-0.35h-6.444c-0.194 0-0.35 0.156-0.35 0.35s0.156 0.35 0.35 0.35h6.444c0.194-0.006 0.35-0.156 0.35-0.35z"></path>
<path id="svg-ico" fill="#ee5586" d="M7.344 14.419c0-0.194-0.156-0.35-0.35-0.35h-5.519c-0.194 0-0.35 0.156-0.35 0.35s0.156 0.35 0.35 0.35h5.525c0.188-0.006 0.344-0.162 0.344-0.35z"></path>
</svg>
