<!-- Generated by IcoMoon.io -->
<svg version="1.1" xmlns="http://www.w3.org/2000/svg" width="32" height="32" viewBox="0 0 32 32">
<title>smile</title>
<path fill="#5e686b" d="M9.563 16.538c-1.925 0-3.494-1.569-3.494-3.494s1.569-3.494 3.494-3.494c1.925 0 3.494 1.569 3.494 3.494-0.006 1.931-1.569 3.494-3.494 3.494zM9.563 10.425c-1.444 0-2.619 1.175-2.619 2.619s1.175 2.619 2.619 2.619c1.444 0 2.619-1.175 2.619-2.619s-1.175-2.619-2.619-2.619z"></path>
<path fill="#5e686b" d="M22.55 16.538c-1.925 0-3.494-1.569-3.494-3.494s1.569-3.494 3.494-3.494 3.494 1.569 3.494 3.494c0 1.931-1.569 3.494-3.494 3.494zM22.55 10.425c-1.444 0-2.619 1.175-2.619 2.619s1.175 2.619 2.619 2.619c1.444 0 2.619-1.175 2.619-2.619s-1.175-2.619-2.619-2.619z"></path>
<path id="svg-ico" fill="#ee5586" d="M16.056 25.725c-2.512 0-4.925-1.3-6.794-3.656-0.15-0.188-0.119-0.462 0.069-0.613s0.463-0.113 0.613 0.069c1.694 2.144 3.869 3.331 6.106 3.331 2.244 0 4.406-1.181 6.106-3.325 0.15-0.188 0.425-0.219 0.613-0.069s0.219 0.425 0.069 0.613c-1.856 2.356-4.269 3.65-6.781 3.65z"></path>
<path fill="#5e686b" d="M14.313 31.725c-0.019 0-0.031 0-0.050 0-7.938-0.906-13.925-7.619-13.925-15.619 0-8.669 7.050-15.719 15.719-15.719s15.719 7.050 15.719 15.719c0 8-5.988 14.712-13.925 15.619-0.238 0.019-0.456-0.144-0.481-0.387-0.025-0.238 0.144-0.456 0.387-0.481 7.494-0.856 13.144-7.194 13.144-14.75 0-8.188-6.663-14.844-14.844-14.844-8.188 0-14.844 6.662-14.844 14.844 0 7.556 5.656 13.9 13.15 14.75 0.238 0.025 0.412 0.244 0.387 0.481-0.031 0.225-0.219 0.387-0.438 0.387z"></path>
</svg>
