<!-- Generated by IcoMoon.io -->
<svg version="1.1" xmlns="http://www.w3.org/2000/svg" width="32" height="32" viewBox="0 0 32 32">
<title>snapchat</title>
<path fill="#5e686b" d="M15.925 30.962c-1.381 0-2.738-0.5-4.019-1.488-2.213-1.681-4.2-2.050-6.594-1.256-0.125 0.044-0.263 0.019-0.369-0.056-0.106-0.081-0.169-0.2-0.169-0.337 0.013-1.65-0.9-1.863-2.175-2.15-0.806-0.181-1.719-0.387-2.388-1.050-0.1-0.1-0.144-0.25-0.113-0.387 0.037-0.137 0.138-0.25 0.281-0.294 2.906-0.881 4.981-2.594 6.338-5.219 0.45-0.875 0.581-1.481 0.425-1.9-0.162-0.438-0.669-0.813-1.65-1.213-0.494-0.206-0.975-0.438-1.438-0.669-0.206-0.106-0.419-0.206-0.631-0.306-0.181-0.088-0.269-0.287-0.219-0.481 0.063-0.225 0.125-0.45 0.194-0.662 0.063-0.188 0.256-0.306 0.45-0.275l0.713 0.094c0.469 0.063 0.938 0.125 1.394 0.2 0.281 0.050 0.513 0.075 0.7 0.075 0.431 0 0.556-0.131 0.594-0.175 0.162-0.175 0.225-0.556 0.188-1.144l-0.013-0.162c-0.056-0.806-0.112-1.613-0.15-2.419-0.162-3.588 1.281-6.256 4.181-7.719 0.956-0.55 2.731-0.9 4.613-0.9 1.069 0 3.056 0.119 4.319 0.919 2.869 1.444 4.313 4.119 4.15 7.7-0.038 0.863-0.1 1.725-0.156 2.588-0.038 0.581 0.025 0.969 0.188 1.137 0.038 0.044 0.163 0.175 0.594 0.175 0.194 0 0.425-0.025 0.7-0.075 0.462-0.081 0.931-0.144 1.394-0.2l0.712-0.094c0.194-0.031 0.381 0.088 0.444 0.275 0.069 0.213 0.131 0.438 0.194 0.662 0.050 0.194-0.038 0.394-0.219 0.481-0.206 0.1-0.413 0.2-0.619 0.3-0.469 0.231-0.95 0.469-1.45 0.675-0.975 0.4-1.488 0.769-1.65 1.213-0.156 0.425-0.019 1.031 0.425 1.906 1.356 2.625 3.431 4.331 6.337 5.212 0.137 0.044 0.244 0.156 0.281 0.294s-0.006 0.288-0.113 0.387c-0.669 0.663-1.581 0.869-2.387 1.050-1.269 0.288-2.188 0.494-2.175 2.15 0 0.131-0.063 0.256-0.169 0.337-0.106 0.075-0.244 0.1-0.369 0.056-2.381-0.788-4.387-0.413-6.594 1.262-1.25 0.975-2.6 1.481-3.981 1.481zM7.575 27.006c1.638 0 3.219 0.594 4.831 1.819 2.281 1.75 4.762 1.75 7.044 0 2.244-1.706 4.412-2.194 6.838-1.544 0.206-1.825 1.569-2.131 2.788-2.413 0.494-0.113 0.969-0.219 1.375-0.413-2.719-1.012-4.706-2.769-6.044-5.363-0.569-1.113-0.712-1.906-0.469-2.569 0.25-0.681 0.881-1.188 2.106-1.681 0.475-0.194 0.944-0.425 1.394-0.65 0.075-0.037 0.15-0.075 0.225-0.113l-0.275 0.037c-0.456 0.063-0.913 0.119-1.356 0.194-1.019 0.188-1.637 0.081-2.038-0.344-0.337-0.363-0.462-0.9-0.406-1.756s0.119-1.713 0.156-2.569c0.15-3.287-1.106-5.625-3.738-6.95-0.831-0.525-2.244-0.813-3.913-0.813-1.719 0-3.381 0.313-4.225 0.8-2.644 1.338-3.9 3.675-3.756 6.963 0.037 0.8 0.094 1.6 0.144 2.4l0.012 0.169c0.056 0.856-0.069 1.4-0.406 1.756-0.4 0.425-1 0.537-2.044 0.344-0.444-0.075-0.9-0.137-1.356-0.194l-0.269-0.037c0.081 0.037 0.162 0.081 0.237 0.119 0.469 0.231 0.912 0.456 1.381 0.644 1.225 0.5 1.856 1 2.106 1.688 0.244 0.663 0.106 1.456-0.463 2.563-1.344 2.594-3.331 4.356-6.050 5.363 0.406 0.194 0.881 0.3 1.375 0.413 1.219 0.275 2.581 0.587 2.787 2.413 0.688-0.181 1.356-0.275 2.006-0.275z"></path>
<path id="svg-ico" fill="#ee5586" d="M10.594 7.713c-0.019 0-0.031 0-0.050-0.006-0.225-0.025-0.381-0.231-0.356-0.456 0.006-0.081 0.25-1.931 2.306-3.038 0.2-0.106 0.45-0.031 0.556 0.169s0.031 0.45-0.169 0.556c-1.669 0.9-1.875 2.356-1.887 2.419-0.025 0.206-0.2 0.356-0.4 0.356z"></path>
<path id="svg-ico" fill="#ee5586" d="M10.594 11.744c-0.225 0-0.412-0.181-0.412-0.412v-2.012c0-0.225 0.181-0.412 0.412-0.412s0.412 0.181 0.412 0.412v2.012c-0.006 0.231-0.188 0.412-0.412 0.412z"></path>
</svg>
