<!-- Generated by IcoMoon.io -->
<svg version="1.1" xmlns="http://www.w3.org/2000/svg" width="32" height="32" viewBox="0 0 32 32">
<title>solution</title>
<path id="svg-ico" fill="#ee5586" d="M7.7 19.394c-0.181 0-0.344-0.113-0.406-0.294-0.675-2.025-1.2-2.581-1.519-2.694-0.287-0.1-0.638 0.113-1.181 0.469-0.969 0.644-2.438 1.619-4.338-0.6-0.069-0.075-0.1-0.175-0.1-0.281v-8.294c0-0.237 0.194-0.431 0.431-0.431h9.325c1.494-1.344 0.95-2.162 0.325-3.112-0.4-0.6-0.806-1.219-0.563-1.931 0.269-0.775 1.231-1.387 3.231-2.050 0.088-0.031 0.181-0.031 0.269 0 2 0.669 2.962 1.281 3.231 2.050 0.244 0.712-0.163 1.331-0.563 1.931-0.625 0.944-1.169 1.769 0.325 3.112h8.137c0.238 0 0.431 0.194 0.431 0.431s-0.194 0.431-0.431 0.431h-8.306c-0.1 0-0.2-0.037-0.281-0.106-2.213-1.9-1.238-3.369-0.594-4.338 0.356-0.538 0.569-0.888 0.469-1.181-0.106-0.313-0.644-0.819-2.556-1.469-1.912 0.65-2.45 1.156-2.556 1.475-0.1 0.288 0.113 0.638 0.469 1.181 0.644 0.969 1.613 2.437-0.594 4.338-0.075 0.069-0.175 0.106-0.281 0.106h-9.063v7.713c1.344 1.494 2.163 0.95 3.112 0.325 0.6-0.394 1.219-0.806 1.931-0.563 0.769 0.269 1.388 1.231 2.050 3.231 0.075 0.225-0.044 0.469-0.269 0.544-0.050 0-0.094 0.006-0.138 0.006z"></path>
<path fill="#5e686c" d="M24.3 31.844h-8.3c-0.1 0-0.2-0.038-0.281-0.1-2.213-1.9-1.238-3.363-0.6-4.337 0.356-0.544 0.569-0.887 0.469-1.181-0.106-0.313-0.644-0.819-2.556-1.469-1.912 0.65-2.45 1.156-2.556 1.475-0.1 0.288 0.113 0.637 0.469 1.181 0.644 0.969 1.613 2.438-0.6 4.337-0.075 0.069-0.175 0.1-0.281 0.1h-9.475c-0.237 0-0.431-0.194-0.431-0.431v-9.488c0-0.1 0.038-0.2 0.1-0.281 1.894-2.212 3.362-1.244 4.338-0.6 0.537 0.356 0.888 0.563 1.181 0.469 0.313-0.106 0.819-0.644 1.469-2.556l0.856 0.137c-0.662 2-1.281 2.962-2.050 3.231-0.713 0.244-1.331-0.163-1.931-0.563-0.944-0.625-1.769-1.169-3.112 0.325v8.894h8.894c1.494-1.344 0.95-2.163 0.325-3.113-0.4-0.6-0.806-1.219-0.563-1.931 0.269-0.775 1.231-1.387 3.231-2.050 0.088-0.031 0.181-0.031 0.269 0 1.994 0.663 2.962 1.281 3.231 2.050 0.244 0.712-0.163 1.331-0.563 1.931-0.625 0.95-1.169 1.769 0.325 3.113h7.712v-9.056c0-0.1 0.038-0.2 0.1-0.281 1.9-2.212 3.369-1.244 4.337-0.6 0.538 0.356 0.887 0.563 1.181 0.469 0.313-0.106 0.819-0.644 1.469-2.556-0.65-1.913-1.156-2.45-1.469-2.556-0.294-0.1-0.637 0.113-1.181 0.469-0.975 0.644-2.444 1.613-4.337-0.6-0.069-0.075-0.106-0.175-0.106-0.281v-8.725c0 0 0.194 0 0.431 0s0.431 0.194 0.431 0.431v8.137c1.344 1.494 2.163 0.95 3.113 0.325 0.6-0.394 1.219-0.806 1.931-0.563 0.769 0.269 1.387 1.231 2.050 3.231 0.031 0.087 0.031 0.181 0 0.269-0.663 1.994-1.281 2.962-2.050 3.231-0.712 0.244-1.331-0.163-1.931-0.563-0.95-0.625-1.769-1.169-3.113 0.325v9.325c0 0.231-0.188 0.425-0.425 0.425z"></path>
</svg>
