<!-- Generated by IcoMoon.io -->
<svg version="1.1" xmlns="http://www.w3.org/2000/svg" width="32" height="32" viewBox="0 0 32 32">
<title>spam</title>
<path fill="#5e686c" d="M8.194 28.906c-0.45 0-0.819-0.356-0.838-0.806 0-0.069 0.013-0.144 0.044-0.206l1.306-2.706c-0.463-0.413-0.894-0.863-1.281-1.344l-4.881 1.681c-0.087 0.031-0.188 0.031-0.281 0-0.431-0.144-0.675-0.619-0.538-1.050 0.025-0.069 0.063-0.131 0.113-0.181l3.794-3.663c-0.425-1.188-0.638-2.425-0.638-3.694 0-0.688 0.069-1.387 0.2-2.081l-3.206-1.45c-0.087-0.037-0.156-0.106-0.206-0.194-0.219-0.4-0.069-0.912 0.331-1.137 0.063-0.037 0.138-0.056 0.206-0.056l3.594-0.044-3.913-4.338c-0.063-0.069-0.1-0.156-0.113-0.25-0.025-0.225 0.044-0.444 0.187-0.619s0.344-0.281 0.569-0.3c0.069-0.006 0.144 0.006 0.212 0.031l5.631 2.375c0.794-0.744 1.688-1.362 2.662-1.844l-0.275-1.456c-0.019-0.094-0.006-0.188 0.037-0.269 0.1-0.2 0.269-0.35 0.481-0.425s0.438-0.056 0.644 0.037c0.063 0.031 0.119 0.081 0.162 0.138l0.881 1.25c0.019-0.006 0.037-0.013 0.056-0.013l0.281-5.625c0.006-0.094 0.037-0.181 0.1-0.256 0.144-0.175 0.344-0.281 0.569-0.306 0.219-0.025 0.444 0.050 0.613 0.194 0.056 0.044 0.1 0.106 0.125 0.169l2.312 5.756c0.087 0.225-0.019 0.475-0.244 0.569-0.225 0.088-0.475-0.019-0.569-0.244l-2.069-5.15-0.269 5.256c-0.012 0.194-0.144 0.356-0.338 0.4-0.213 0.050-0.425 0.106-0.631 0.169-0.181 0.056-0.375-0.013-0.481-0.169l-0.688-0.975 0.206 1.119c0.037 0.2-0.069 0.394-0.25 0.475-1.088 0.494-2.075 1.169-2.931 2.013-0.125 0.125-0.313 0.162-0.475 0.094l-5.306-2.237 3.831 4.237c0.119 0.137 0.15 0.331 0.063 0.494-0.063 0.119-0.106 0.213-0.15 0.306-0.069 0.15-0.225 0.25-0.388 0.25l-3.494 0.037 2.919 1.331c0.188 0.088 0.287 0.294 0.244 0.494-0.169 0.744-0.25 1.5-0.25 2.238 0 1.262 0.231 2.488 0.681 3.656 0.063 0.163 0.025 0.35-0.106 0.469l-3.544 3.419 4.531-1.556c0.175-0.063 0.375 0 0.487 0.15 0.469 0.619 1 1.181 1.594 1.675 0.156 0.125 0.2 0.344 0.113 0.525l-1.175 2.431 2.2-1.8c0.137-0.113 0.325-0.131 0.481-0.044 0.244 0.131 0.494 0.25 0.744 0.363l1.244 0.456c0.887 0.256 1.831 0.394 2.775 0.4 0.244 0 0.438 0.194 0.438 0.438 0 0.238-0.194 0.431-0.438 0.431 0 0 0 0 0 0-1.025-0.006-2.050-0.15-3.044-0.444l-1.3-0.475c-0.2-0.087-0.387-0.175-0.569-0.269l-2.506 2.056c-0.075 0.063-0.169 0.094-0.262 0.1 0-0.006-0.012-0.006-0.019-0.006z"></path>
<path id="svg-ico" fill="#ee5586" d="M17.637 31.719c-0.194 0-0.381-0.069-0.538-0.194-0.056-0.044-0.094-0.106-0.125-0.169l-1.375-3.419 0.7-0.594 1.238 3.081 0.163-3.181c0.012-0.194 0.15-0.363 0.344-0.406 0.481-0.1 0.95-0.244 1.4-0.413 0.181-0.069 0.394-0.006 0.512 0.156l0.281 0.4-0.094-0.5c-0.038-0.194 0.063-0.381 0.238-0.469 1.206-0.6 2.275-1.431 3.163-2.469 0.125-0.144 0.325-0.194 0.5-0.119l4.956 2.094-3.744-4.137c-0.113-0.125-0.144-0.306-0.081-0.462 0.056-0.137 0.106-0.269 0.163-0.406 0.063-0.169 0.225-0.275 0.4-0.281l3.387-0.044-2.994-1.356c-0.175-0.081-0.281-0.269-0.25-0.462 0.069-0.488 0.106-0.975 0.106-1.45 0-0.4-0.025-0.813-0.081-1.256-0.019-0.169 0.056-0.331 0.2-0.419l2.212-1.394-2.337 0.294c-0.206 0.025-0.406-0.1-0.469-0.3-0.106-0.325-0.225-0.65-0.363-0.963-0.075-0.169-0.031-0.363 0.1-0.488l3.944-3.806-5.219 1.794c-0.169 0.056-0.356 0.006-0.469-0.125-0.381-0.444-0.806-0.856-1.262-1.225-0.156-0.125-0.206-0.344-0.119-0.525l1.512-3.131-2.881 2.362c-0.131 0.106-0.313 0.125-0.469 0.056-1.131-0.55-2.337-0.875-3.6-0.969l0.337-0.844c1.175 0.119 2.313 0.419 3.387 0.906l3.2-2.619c0.075-0.063 0.163-0.094 0.256-0.1 0.456-0.019 0.85 0.338 0.875 0.8 0.006 0.075-0.012 0.144-0.044 0.206l-1.644 3.406c0.319 0.275 0.625 0.575 0.913 0.887l5.587-1.919c0.087-0.031 0.188-0.031 0.275 0 0.212 0.069 0.387 0.219 0.488 0.419s0.119 0.425 0.050 0.637c-0.025 0.069-0.063 0.131-0.113 0.181l-4.181 4.037c0.056 0.137 0.106 0.275 0.156 0.419l2.656-0.331c0.094-0.012 0.188 0.006 0.269 0.056 0.4 0.231 0.538 0.744 0.313 1.144-0.038 0.063-0.087 0.119-0.15 0.156l-2.506 1.581c0.038 0.375 0.056 0.731 0.056 1.081 0 0.413-0.025 0.831-0.075 1.25l3.313 1.506c0.087 0.038 0.156 0.106 0.2 0.188 0.106 0.2 0.131 0.425 0.069 0.644-0.063 0.212-0.206 0.387-0.4 0.494-0.063 0.031-0.131 0.050-0.2 0.050l-3.594 0.044 3.925 4.337c0.063 0.069 0.1 0.156 0.113 0.25 0.019 0.225-0.050 0.444-0.194 0.619-0.144 0.169-0.344 0.275-0.563 0.294-0.069 0.006-0.144-0.006-0.206-0.031l-5.256-2.219c-0.844 0.931-1.831 1.7-2.931 2.294l0.156 0.863c0.019 0.094 0.006 0.188-0.038 0.269-0.2 0.413-0.706 0.587-1.119 0.381-0.069-0.031-0.125-0.081-0.163-0.137l-0.469-0.663c-0.288 0.1-0.581 0.181-0.875 0.256l-0.181 3.544c-0.006 0.094-0.038 0.181-0.1 0.256-0.144 0.175-0.344 0.281-0.569 0.3-0.025 0-0.050 0-0.075 0z"></path>
</svg>
