<!-- Generated by IcoMoon.io -->
<svg version="1.1" xmlns="http://www.w3.org/2000/svg" width="32" height="32" viewBox="0 0 32 32">
<title>sun</title>
<path fill="#5e686b" d="M15.994 25.869c-5.406 0-9.8-4.4-9.8-9.8 0-5.406 4.4-9.8 9.8-9.8 5.406 0 9.8 4.4 9.8 9.8s-4.394 9.8-9.8 9.8zM15.994 7.119c-4.938 0-8.95 4.013-8.95 8.95s4.013 8.95 8.95 8.95c4.937 0 8.95-4.012 8.95-8.95s-4.019-8.95-8.95-8.95z"></path>
<path id="svg-ico" fill="#ee5586" d="M15.994 4.569c-0.238 0-0.425-0.194-0.425-0.425v-3.413c0-0.237 0.194-0.425 0.425-0.425 0.237 0 0.425 0.188 0.425 0.425v3.406c0 0.237-0.188 0.431-0.425 0.431z"></path>
<path id="svg-ico" fill="#ee5586" d="M31.288 16.494h-3.413c-0.238 0-0.425-0.188-0.425-0.425s0.188-0.425 0.425-0.425h3.406c0.238 0 0.425 0.194 0.425 0.425 0.006 0.231-0.188 0.425-0.419 0.425z"></path>
<path id="svg-ico" fill="#ee5586" d="M4.119 16.494h-3.413c-0.237 0-0.425-0.188-0.425-0.425s0.188-0.425 0.425-0.425h3.406c0.237 0 0.425 0.194 0.425 0.425 0.006 0.231-0.188 0.425-0.419 0.425z"></path>
<path id="svg-ico" fill="#ee5586" d="M7.031 7.581c-0.106 0-0.219-0.044-0.3-0.125l-2.413-2.413c-0.169-0.169-0.169-0.438 0-0.6s0.438-0.169 0.6 0l2.412 2.412c0.169 0.169 0.169 0.438 0 0.6-0.081 0.081-0.188 0.125-0.3 0.125z"></path>
<path id="svg-ico" fill="#ee5586" d="M27.331 27.875c-0.106 0-0.219-0.044-0.3-0.125l-2.413-2.413c-0.169-0.169-0.169-0.438 0-0.6s0.438-0.169 0.6 0l2.413 2.413c0.169 0.169 0.169 0.438 0 0.6-0.081 0.081-0.194 0.125-0.3 0.125z"></path>
<path id="svg-ico" fill="#ee5586" d="M24.95 7.55c-0.106 0-0.219-0.044-0.3-0.125-0.169-0.169-0.169-0.438 0-0.6l2.413-2.413c0.169-0.169 0.438-0.169 0.6 0s0.169 0.438 0 0.6l-2.413 2.412c-0.081 0.081-0.194 0.125-0.3 0.125z"></path>
<path id="svg-ico" fill="#ee5586" d="M4.65 27.844c-0.106 0-0.219-0.044-0.3-0.125-0.169-0.169-0.169-0.438 0-0.6l2.413-2.413c0.169-0.169 0.438-0.169 0.6 0 0.169 0.169 0.169 0.438 0 0.6l-2.412 2.413c-0.081 0.087-0.188 0.125-0.3 0.125z"></path>
<path id="svg-ico" fill="#ee5586" d="M15.994 31.675c-0.238 0-0.425-0.188-0.425-0.425v-3.406c0-0.238 0.194-0.425 0.425-0.425 0.237 0 0.425 0.194 0.425 0.425v3.406c0 0.238-0.188 0.425-0.425 0.425z"></path>
</svg>
