<!-- Generated by IcoMoon.io -->
<svg version="1.1" xmlns="http://www.w3.org/2000/svg" width="32" height="32" viewBox="0 0 32 32">
<title>telescope</title>
<path fill="#5e686b" d="M25.050 3.169c-0.094-0.231-0.275-0.406-0.512-0.494-0.225-0.081-0.488-0.063-0.694 0.050l-10.506 5.544c-0.387 0.206-0.556 0.662-0.4 1.075l0.088 0.219-5.744 3.15c-0.388 0.213-0.55 0.681-0.381 1.088l0.050 0.113-6.088 2.9c-0.412 0.2-0.6 0.688-0.425 1.113l1.325 3.188c0.137 0.325 0.45 0.531 0.794 0.531 0.1 0 0.194-0.019 0.288-0.050l6.35-2.25 0.050 0.119c0.137 0.325 0.45 0.531 0.8 0.531 0.088 0 0.175-0.012 0.238-0.038l6.050-1.744 0.056 0.137c0.156 0.413 0.644 0.65 1.056 0.519l11.469-3.531c0.231-0.069 0.419-0.238 0.525-0.45 0.106-0.219 0.113-0.475 0.025-0.694l-4.412-11.025zM10.025 19.131l-0.2-0.488c-0.088-0.206-0.319-0.313-0.531-0.238l-6.731 2.387c0 0-0.006 0-0.006 0v0.425l-0.019-0.431-1.313-3.212 6.438-3.075c0.2-0.094 0.294-0.338 0.206-0.544l-0.194-0.506 5.638-3.094 2.7 7.069-5.988 1.706zM17.175 18.050l-3.438-9.037 10.531-5.531 4.4 11.056-11.494 3.512z"></path>
<path id="svg-ico" fill="#ee5586" d="M31.663 14.637l-5.294-13.238c-0.087-0.219-0.331-0.319-0.55-0.238-0.219 0.087-0.319 0.331-0.238 0.55l5.294 13.231c0.069 0.162 0.225 0.262 0.394 0.262 0.050 0 0.106-0.012 0.156-0.031 0.219-0.081 0.325-0.325 0.238-0.537z"></path>
<path fill="#5e686b" d="M18.494 24.337v-0.938c0-1.262-0.962-2.25-2.188-2.25h-2.65c-1.244 0-2.188 0.938-2.188 2.188v1.006l-5.088 5.931c-0.15 0.175-0.131 0.444 0.044 0.594s0.444 0.131 0.594-0.044l5.187-6.050c0.063-0.075 0.1-0.175 0.1-0.275v-1.163c0-0.775 0.563-1.344 1.344-1.344h2.65c0.75 0 1.344 0.619 1.344 1.406v1.094c0 0.1 0.038 0.2 0.1 0.275l5.188 6.050c0.081 0.1 0.2 0.15 0.319 0.15 0.1 0 0.194-0.031 0.275-0.1 0.175-0.15 0.2-0.419 0.044-0.594l-5.075-5.938z"></path>
<path fill="#5e686b" d="M14.981 24.163c-0.231 0-0.425 0.188-0.425 0.425v5.963c0 0.231 0.188 0.425 0.425 0.425 0.231 0 0.425-0.188 0.425-0.425v-5.962c0-0.238-0.188-0.425-0.425-0.425z"></path>
</svg>
