<!-- Generated by IcoMoon.io -->
<svg version="1.1" xmlns="http://www.w3.org/2000/svg" width="32" height="32" viewBox="0 0 32 32">
<title>toxic</title>
<path fill="#5e686b" d="M16.106 0.338c-8.675 0-15.725 7.056-15.725 15.725 0 8.675 7.056 15.725 15.725 15.725s15.725-7.050 15.725-15.725c0-8.669-7.050-15.725-15.725-15.725zM16.106 30.925c-8.194 0-14.863-6.669-14.863-14.863s6.669-14.856 14.863-14.856c8.194 0 14.863 6.669 14.863 14.863 0 8.188-6.669 14.856-14.863 14.856z"></path>
<path id="svg-ico" fill="#ee5586" d="M27.45 16.125h-10.613l5.319-9.669c0.113-0.206 0.038-0.469-0.163-0.581-3.594-2.075-8.194-2.075-11.775 0-0.206 0.119-0.275 0.375-0.162 0.581l5.319 9.669h-10.619c-0.237 0-0.431 0.194-0.431 0.431 0 4.056 2.094 7.5 5.894 9.7 0.069 0.038 0.144 0.056 0.219 0.056 0.144 0 0.287-0.075 0.369-0.206l5.3-8.719 5.3 8.719c0.081 0.131 0.225 0.206 0.369 0.206 0.075 0 0.15-0.019 0.219-0.056 3.8-2.2 5.894-5.644 5.894-9.7 0-0.238-0.194-0.431-0.438-0.431zM21.188 6.419l-5.081 9.244-5.081-9.244c3.131-1.656 7.019-1.662 10.163 0zM10.287 25.288c-3.156-1.962-4.95-4.881-5.088-8.3h10.131l-5.044 8.3zM21.925 25.288l-5.050-8.294h10.131c-0.137 3.413-1.925 6.338-5.081 8.294z"></path>
</svg>
