<!-- Generated by IcoMoon.io -->
<svg version="1.1" xmlns="http://www.w3.org/2000/svg" width="32" height="32" viewBox="0 0 32 32">
<title>upgrade</title>
<path fill="#5e686c" d="M31.050 30.894h-13.4c0-0.006 0-0.012 0-0.019v-6.688c0.012-0.038 0.019-0.081 0.019-0.119 0-0.044-0.006-0.081-0.019-0.119v-14.45c0-0.238-0.194-0.425-0.425-0.425-0.238 0-0.425 0.194-0.425 0.425v6.456h-7.756v-6.456c0-0.238-0.194-0.425-0.425-0.425-0.238 0-0.425 0.194-0.425 0.425v6.456h-6.987c-0.006 0-0.012 0-0.019 0v-15.119c0-0.238-0.194-0.425-0.425-0.425-0.238 0-0.425 0.194-0.425 0.425v30.487c0 0.238 0.194 0.425 0.425 0.425h30.288c0.238 0 0.425-0.194 0.425-0.425 0-0.238-0.188-0.431-0.425-0.431zM1.188 24.494h7v6.381c0 0.006 0 0.012 0 0.019h-7v-6.4zM9.044 30.875v-6.381h7.756v6.381c0 0.006 0 0.012 0 0.019h-7.762c0.006-0.006 0.006-0.012 0.006-0.019zM16.794 16.813v6.831h-7.75v-6.831h7.75zM1.206 16.813h6.981v6.831h-7v-6.838c0.006 0 0.012 0.006 0.019 0.006z"></path>
<path id="svg-ico" fill="#ee5586" d="M31.050 13.488c-0.238 0-0.425-0.194-0.425-0.425v-4.475h-4.475c-0.238 0-0.425-0.194-0.425-0.425 0-0.237 0.194-0.425 0.425-0.425h4.9c0.238 0 0.425 0.194 0.425 0.425v4.9c0 0.238-0.188 0.425-0.425 0.425z"></path>
<path id="svg-ico" fill="#ee5586" d="M30.881 8.287c-0.175-0.156-0.45-0.137-0.6 0.044l-13.019 15.062-3.244-4.275c-0.006-0.006-0.012-0.012-0.019-0.019s-0.006-0.006-0.012-0.012c0 0 0 0 0 0s-0.006-0.006-0.006-0.006c-0.088-0.094-0.206-0.131-0.325-0.125 0 0 0 0 0 0-0.006 0-0.012 0-0.019 0-0.037 0.006-0.075 0.012-0.113 0.025-0.050 0.019-0.094 0.044-0.131 0.081v0c0 0 0 0 0 0l-12.925 11.95c-0.175 0.163-0.181 0.431-0.025 0.606 0.081 0.094 0.2 0.137 0.313 0.137 0.106 0 0.206-0.038 0.287-0.113l12.581-11.637 3.281 4.319c0.006 0.012 0.019 0.025 0.025 0.031 0 0 0 0 0 0 0.006 0.006 0.019 0.012 0.025 0.025 0 0 0.006 0.006 0.006 0.006s0 0 0 0c0.019 0.019 0.038 0.031 0.056 0.044 0.006 0 0.006 0.006 0.012 0.006 0.019 0.012 0.038 0.019 0.056 0.025 0.006 0 0.006 0 0.012 0.006 0.019 0.006 0.044 0.012 0.063 0.019 0.006 0 0.012 0 0.019 0 0.019 0.006 0.044 0.006 0.063 0.006s0.038 0 0.063-0.006c0.006 0 0.012 0 0.012 0 0.019-0.006 0.038-0.006 0.056-0.012 0 0 0.006 0 0.006 0 0.019-0.006 0.031-0.012 0.050-0.019 0.006 0 0.012-0.006 0.012-0.006 0.019-0.006 0.031-0.019 0.050-0.031 0 0 0 0 0.006 0 0.025-0.019 0.050-0.044 0.069-0.069l13.356-15.45c0.156-0.194 0.137-0.463-0.044-0.613z"></path>
</svg>
