<!-- Generated by IcoMoon.io -->
<svg version="1.1" xmlns="http://www.w3.org/2000/svg" width="32" height="32" viewBox="0 0 32 32">
<title>ups</title>
<path fill="#5e686b" d="M19.081 4.763h-6.144c-0.231 0-0.425-0.188-0.425-0.425v-3.631c0-0.231 0.188-0.425 0.425-0.425h6.137c0.231 0 0.425 0.188 0.425 0.425v3.637c0 0.231-0.188 0.419-0.419 0.419zM13.363 3.919h5.294v-2.788h-5.294v2.788z"></path>
<path fill="#5e686b" d="M21.988 31.831h-11.963c-0.825 0-1.5-0.675-1.5-1.5v-22.494c0-0.825 0.675-1.5 1.5-1.5h11.963c0.825 0 1.5 0.675 1.5 1.5v22.494c0 0.825-0.669 1.5-1.5 1.5zM10.025 7.181c-0.363 0-0.65 0.294-0.65 0.656v22.494c0 0.363 0.294 0.656 0.65 0.656h11.963c0.363 0 0.656-0.294 0.656-0.656v-22.494c0-0.362-0.294-0.656-0.656-0.656h-11.963z"></path>
<path id="svg-ico" fill="#ee5586" d="M19.081 28.587h-6.144c-0.231 0-0.425-0.188-0.425-0.425v-16.081c0-0.188 0.119-0.35 0.3-0.406l6.137-1.894c0.125-0.037 0.269-0.012 0.375 0.063 0.106 0.081 0.169 0.206 0.169 0.338v17.981c0.006 0.238-0.181 0.425-0.413 0.425zM13.363 27.744h5.294v-16.988l-5.294 1.631v15.356z"></path>
</svg>
