<!-- Generated by IcoMoon.io -->
<svg version="1.1" xmlns="http://www.w3.org/2000/svg" width="32" height="32" viewBox="0 0 32 32">
<title>user</title>
<path fill="#5e686b" d="M16.1 7.106c-1.869 0-3.387-1.519-3.387-3.381 0-1.869 1.519-3.388 3.387-3.388s3.387 1.519 3.387 3.388c0 1.863-1.519 3.381-3.387 3.381zM16.1 1.188c-1.4 0-2.537 1.138-2.537 2.538s1.137 2.538 2.537 2.538 2.538-1.138 2.538-2.538c0-1.4-1.137-2.538-2.538-2.538z"></path>
<path fill="#5e686b" d="M8.969 21.462c-0.006 0-0.019 0-0.025 0-0.231-0.012-0.412-0.212-0.4-0.444l0.506-9.169c0.006-0.113 0.063-0.225 0.15-0.3l3.569-3.056c0.175-0.15 0.444-0.131 0.594 0.044s0.131 0.444-0.044 0.594l-3.431 2.938-0.5 8.988c-0.006 0.231-0.194 0.406-0.419 0.406z"></path>
<path fill="#5e686b" d="M23.231 21.462c-0.225 0-0.413-0.175-0.425-0.4l-0.5-8.988-3.425-2.938c-0.175-0.15-0.2-0.419-0.044-0.594s0.419-0.2 0.594-0.044l3.563 3.056c0.087 0.075 0.137 0.181 0.15 0.3l0.512 9.169c0.012 0.231-0.163 0.431-0.4 0.444-0.006-0.006-0.012-0.006-0.025-0.006z"></path>
<path id="svg-ico" fill="#ee5586" d="M18.137 31.65h-4.075c-0.219 0-0.4-0.163-0.419-0.381l-1.019-10.188v-6.156c0-0.231 0.188-0.425 0.425-0.425 0.231 0 0.425 0.188 0.425 0.425v6.113l0.975 9.762h3.313l0.975-9.8v-6.069c0-0.231 0.188-0.425 0.425-0.425 0.231 0 0.425 0.188 0.425 0.425v6.112l-1.025 10.225c-0.025 0.219-0.206 0.381-0.425 0.381z"></path>
</svg>
