<!-- Generated by IcoMoon.io -->
<svg version="1.1" xmlns="http://www.w3.org/2000/svg" width="32" height="32" viewBox="0 0 32 32">
<title>vault</title>
<path fill="#5e686b" d="M16.156 31.469c-5.369 0-10.269-2.644-13.113-7.069-0.131-0.2-0.069-0.469 0.131-0.594 0.2-0.131 0.469-0.069 0.594 0.131 2.681 4.181 7.313 6.675 12.388 6.675 8.094 0 14.675-6.581 14.675-14.675s-6.581-14.675-14.675-14.675c-5.394 0-10.338 2.9-12.894 7.563-0.112 0.206-0.375 0.287-0.581 0.169-0.206-0.113-0.288-0.375-0.169-0.581 2.706-4.938 7.938-8.006 13.644-8.006 8.569 0 15.538 6.969 15.538 15.537 0 8.556-6.969 15.525-15.538 15.525z"></path>
<path id="svg-ico" fill="#ee5586" d="M15.7 6.931c-0.95 0-1.719-0.775-1.719-1.719 0-0.95 0.769-1.725 1.719-1.725s1.725 0.775 1.725 1.725c0 0.95-0.775 1.719-1.725 1.719zM15.7 4.35c-0.475 0-0.856 0.388-0.856 0.862s0.387 0.862 0.856 0.862c0.475 0 0.863-0.388 0.863-0.862s-0.387-0.862-0.863-0.862z"></path>
<path fill="#5e686b" d="M16.475 19.806c-2.131 0-3.869-1.738-3.869-3.869 0-2.138 1.738-3.875 3.869-3.875 2.137 0 3.875 1.738 3.875 3.875 0 2.131-1.738 3.869-3.875 3.869zM16.475 12.919c-1.656 0-3.006 1.35-3.006 3.012s1.35 3.012 3.006 3.012c1.663 0 3.019-1.35 3.019-3.012 0-1.656-1.356-3.012-3.019-3.012z"></path>
<path id="svg-ico" fill="#ee5586" d="M15.7 28.331c-0.95 0-1.719-0.775-1.719-1.725s0.769-1.719 1.719-1.719c0.95 0 1.725 0.769 1.725 1.719 0 0.956-0.775 1.725-1.725 1.725zM15.7 25.75c-0.475 0-0.856 0.387-0.856 0.856 0 0.475 0.387 0.863 0.856 0.863 0.475 0 0.863-0.387 0.863-0.863 0-0.469-0.387-0.856-0.863-0.856z"></path>
<path id="svg-ico" fill="#ee5586" d="M27.031 18.262c-0.95 0-1.719-0.775-1.719-1.725s0.769-1.719 1.719-1.719c0.95 0 1.725 0.769 1.725 1.719s-0.775 1.725-1.725 1.725zM27.031 15.681c-0.475 0-0.856 0.388-0.856 0.862s0.387 0.863 0.856 0.863c0.475 0 0.863-0.387 0.863-0.863s-0.387-0.863-0.863-0.863z"></path>
<path id="svg-ico" fill="#ee5586" d="M24.512 10.706c-0.95 0-1.719-0.769-1.719-1.719s0.769-1.725 1.719-1.725c0.95 0 1.725 0.775 1.725 1.725s-0.775 1.719-1.725 1.719zM24.512 8.125c-0.475 0-0.856 0.387-0.856 0.863s0.387 0.856 0.856 0.856c0.475 0 0.863-0.387 0.863-0.856 0-0.475-0.387-0.863-0.863-0.863z"></path>
<path id="svg-ico" fill="#ee5586" d="M23.256 25.819c-0.95 0-1.719-0.775-1.719-1.719 0-0.95 0.769-1.719 1.719-1.719s1.725 0.775 1.725 1.719-0.775 1.719-1.725 1.719zM23.256 23.231c-0.475 0-0.856 0.387-0.856 0.863s0.387 0.863 0.856 0.863c0.475 0 0.863-0.387 0.863-0.863s-0.387-0.863-0.863-0.863z"></path>
<path id="svg-ico" fill="#ee5586" d="M8.144 24.975c-0.95 0-1.719-0.775-1.719-1.725s0.769-1.719 1.719-1.719c0.95 0 1.725 0.769 1.725 1.719 0 0.956-0.775 1.725-1.725 1.725zM8.144 22.394c-0.475 0-0.856 0.387-0.856 0.856 0 0.475 0.388 0.863 0.856 0.863 0.475 0 0.863-0.387 0.863-0.863 0-0.469-0.387-0.856-0.863-0.856z"></path>
<path id="svg-ico" fill="#ee5586" d="M8.144 10.706c-0.95 0-1.719-0.769-1.719-1.719s0.769-1.725 1.719-1.725c0.95 0 1.725 0.775 1.725 1.725s-0.775 1.719-1.725 1.719zM8.144 8.125c-0.475 0-0.856 0.387-0.856 0.863s0.388 0.856 0.856 0.856c0.475 0 0.863-0.387 0.863-0.856 0-0.475-0.387-0.863-0.863-0.863z"></path>
<path fill="#5e686b" d="M0.838 22.006c-0.237 0-0.431-0.194-0.431-0.431v-10.069c0-0.238 0.194-0.431 0.431-0.431s0.431 0.194 0.431 0.431v10.069c0 0.238-0.194 0.431-0.431 0.431z"></path>
</svg>
