<!-- Generated by IcoMoon.io -->
<svg version="1.1" xmlns="http://www.w3.org/2000/svg" width="32" height="32" viewBox="0 0 32 32">
<title>water</title>
<path id="svg-ico" fill="#ee5586" d="M18.844 31.8c-0.006 0-0.006 0 0 0-5.238-0.069-9.438-4.387-9.369-9.619 0-2.644 1.231-4.762 2.3-6.306 0.6-0.894 1.281-1.762 1.931-2.6 0.231-0.294 0.456-0.588 0.681-0.881 0.7-0.95 1.4-1.9 2.1-2.844 0.006-0.012 1.881-2.806 2.431-2.806 0.131 0 0.269 0.069 0.35 0.175l5.669 7.65c1.606 2.169 3.275 4.412 3.275 7.619 0.063 5.238-4.137 9.544-9.369 9.613 0 0 0 0 0 0zM18.875 7.794c-0.512 0.612-1.538 2-1.694 2.237-0.712 0.963-1.412 1.912-2.119 2.863-0.231 0.306-0.463 0.6-0.694 0.894-0.644 0.831-1.313 1.688-1.906 2.563-1 1.45-2.15 3.419-2.15 5.837-0.063 4.775 3.763 8.7 8.525 8.769 4.762-0.063 8.587-3.988 8.525-8.75 0-2.95-1.506-4.981-3.106-7.137l-5.381-7.275z"></path>
<path fill="#5e686b" d="M7.313 18.938c-0.063 0-0.125-0.012-0.181-0.044-2.575-1.238-4.213-3.887-4.175-6.744 0-2.056 0.95-3.694 1.781-4.888 0.463-0.681 0.975-1.344 1.475-1.987l0.531-0.688c0.531-0.725 1.069-1.45 1.613-2.175 0.231-0.35 1.475-2.194 1.944-2.194 0.131 0 0.269 0.069 0.35 0.175l4.338 5.862c0.206 0.281 0.412 0.556 0.606 0.831 0.075 0.1 0.094 0.231 0.063 0.356-0.238 0.888-1.463 2.4-3.006 4.313-1.662 2.056-3.725 4.619-4.963 6.95-0.075 0.15-0.219 0.231-0.375 0.231zM10.256 1.288c-0.406 0.5-1.106 1.444-1.213 1.606-0.55 0.744-1.088 1.469-1.625 2.2l-0.544 0.7c-0.487 0.631-1 1.281-1.444 1.944-0.763 1.1-1.631 2.594-1.631 4.419-0.031 2.4 1.269 4.631 3.344 5.794 1.287-2.294 3.256-4.738 4.856-6.719 1.262-1.563 2.456-3.044 2.787-3.825-0.156-0.213-0.313-0.425-0.475-0.644l-4.056-5.475z"></path>
</svg>
