<!-- Generated by IcoMoon.io -->
<svg version="1.1" xmlns="http://www.w3.org/2000/svg" width="32" height="32" viewBox="0 0 32 32">
<title>wifi</title>
<path fill="#5e686b" d="M15.631 28.45c-2.237 0-4.056-1.819-4.056-4.056s1.819-4.056 4.056-4.056c2.237 0 4.056 1.819 4.056 4.056 0.006 2.238-1.819 4.056-4.056 4.056zM15.631 21.181c-1.769 0-3.213 1.444-3.213 3.212s1.444 3.212 3.213 3.212c1.775 0 3.213-1.444 3.213-3.212 0.006-1.775-1.438-3.212-3.213-3.212z"></path>
<path fill="#5e686b" d="M21.806 18.644c-0.106 0-0.219-0.044-0.3-0.125-1.569-1.569-3.65-2.431-5.869-2.431s-4.3 0.863-5.869 2.431c-0.162 0.163-0.431 0.163-0.6 0-0.162-0.163-0.162-0.431 0-0.6 1.725-1.725 4.025-2.681 6.469-2.681s4.744 0.95 6.469 2.681c0.163 0.163 0.163 0.431 0 0.6-0.087 0.081-0.194 0.125-0.3 0.125z"></path>
<path id="svg-ico" fill="#ee5586" d="M26.431 14.744c-0.106 0-0.219-0.044-0.3-0.125-2.806-2.806-6.531-4.35-10.5-4.35s-7.694 1.544-10.5 4.35c-0.162 0.162-0.431 0.162-0.6 0-0.162-0.162-0.162-0.431 0-0.6 2.963-2.963 6.906-4.594 11.094-4.594 4.194 0 8.131 1.631 11.094 4.594 0.163 0.162 0.163 0.431 0 0.6-0.069 0.081-0.181 0.125-0.288 0.125z"></path>
<path id="svg-ico" fill="#ee5586" d="M31.163 10.738c-0.106 0-0.219-0.044-0.3-0.125-3.969-3.975-9.25-6.156-14.869-6.156s-10.9 2.188-14.869 6.156c-0.162 0.162-0.431 0.162-0.6 0-0.162-0.162-0.162-0.431 0-0.6 4.138-4.125 9.631-6.4 15.475-6.4s11.337 2.275 15.469 6.406c0.163 0.162 0.163 0.431 0 0.6-0.087 0.075-0.194 0.119-0.306 0.119z"></path>
</svg>
