<!-- Generated by IcoMoon.io -->
<svg version="1.1" xmlns="http://www.w3.org/2000/svg" width="32" height="32" viewBox="0 0 32 32">
<title>win</title>
<path fill="#5e686b" d="M20.738 27.594h-4.444c0.012-0.044 0.019-0.087 0.019-0.131v-2.581c0-0.231-0.188-0.419-0.419-0.419s-0.419 0.188-0.419 0.419v2.581c0 0.044 0.006 0.087 0.019 0.131h-4.331c-0.231 0-0.419 0.188-0.419 0.419s0.188 0.419 0.419 0.419h9.575c0.231 0 0.419-0.188 0.419-0.419s-0.188-0.419-0.419-0.419z"></path>
<path fill="#5e686b" d="M6.5 14.494h-2.169c-1.681 0-3.050-1.369-3.050-3.050v-6.425h4.362v-0.844h-4.781c-0.231 0-0.419 0.188-0.419 0.419v6.85c0 2.144 1.744 3.894 3.894 3.894h2.581c-0.119-0.231-0.419-0.844-0.419-0.844z"></path>
<path fill="#5e686b" d="M31.275 4.175h-4.806v0.85l4.381-0.006v6.425c0 1.681-1.369 3.050-3.050 3.050h-2.175c-0.125 0.256-0.4 0.844-0.4 0.844h2.575c2.144 0 3.894-1.744 3.894-3.894v-6.85c0-0.231-0.188-0.419-0.419-0.419z"></path>
<path id="svg-ico" fill="#ee5586" d="M25.7 14.331c0.5-1.213 0.775-2.544 0.775-3.931v-6.225h-20.831v6.213c0 1.45 0.313 2.85 0.856 4.106 0 0 0.4 0.838 0.406 0.838 1.763 3.256 5.206 5.475 9.163 5.475s7.4-2.219 9.156-5.475c0.006 0 0.456-0.981 0.475-1zM16.069 19.962c-5.275 0-9.563-4.287-9.563-9.563v-5.381h19.119v5.381c0 5.269-4.288 9.563-9.556 9.563z"></path>
</svg>
