<!-- Generated by IcoMoon.io -->
<svg version="1.1" xmlns="http://www.w3.org/2000/svg" width="32" height="32" viewBox="0 0 32 32">
<title>window</title>
<path id="svg-ico" fill="#ee5586" d="M11.412 13.744h-5.938c-0.237 0-0.425 0.188-0.425 0.425v10.175c0 0.238 0.188 0.425 0.425 0.425h5.938c0.238 0 0.425-0.188 0.425-0.425v-10.175c0-0.238-0.188-0.425-0.425-0.425zM10.994 23.919h-5.094v-9.325h5.088v9.325z"></path>
<path fill="#5e686b" d="M31.719 10.194c0-0.012 0-0.025 0-0.031v-6.119c0-0.237-0.188-0.425-0.425-0.425h-30.581c-0.237 0-0.425 0.188-0.425 0.425v24.469c0 0.238 0.188 0.425 0.425 0.425h30.587c0.231 0 0.425-0.188 0.425-0.425v-18.281c-0.006-0.012-0.006-0.025-0.006-0.037zM1.131 4.469h29.744v5.269h-29.744v-5.269zM1.131 28.087v-17.5h29.744v17.506h-29.744z"></path>
<path fill="#5e686b" d="M5.188 5.3c-0.938 0-1.694 0.763-1.694 1.694s0.762 1.694 1.694 1.694c0.938 0 1.694-0.763 1.694-1.694 0.006-0.931-0.756-1.694-1.694-1.694zM5.188 7.844c-0.469 0-0.85-0.381-0.85-0.85s0.388-0.844 0.85-0.844c0.469 0 0.85 0.381 0.85 0.85s-0.381 0.844-0.85 0.844z"></path>
<path fill="#5e686b" d="M9.994 5.3c-0.938 0-1.694 0.763-1.694 1.694s0.762 1.694 1.694 1.694 1.694-0.763 1.694-1.694c0.006-0.931-0.756-1.694-1.694-1.694zM9.994 7.844c-0.469 0-0.85-0.381-0.85-0.85s0.381-0.85 0.85-0.85c0.469 0 0.85 0.381 0.85 0.85s-0.381 0.85-0.85 0.85z"></path>
<path fill="#5e686b" d="M14.8 5.3c-0.938 0-1.694 0.763-1.694 1.694s0.762 1.694 1.694 1.694 1.7-0.756 1.7-1.688c0-0.938-0.762-1.7-1.7-1.7zM14.8 7.844c-0.469 0-0.85-0.381-0.85-0.85s0.381-0.85 0.85-0.85c0.469 0 0.85 0.381 0.85 0.85s-0.381 0.85-0.85 0.85z"></path>
<path id="svg-ico" fill="#ee5586" d="M26.181 17.2h-10.175c-0.238 0-0.425 0.188-0.425 0.425s0.188 0.425 0.425 0.425h10.175c0.238 0 0.425-0.188 0.425-0.425 0-0.231-0.194-0.425-0.425-0.425z"></path>
<path id="svg-ico" fill="#ee5586" d="M26.181 20.488h-10.175c-0.238 0-0.425 0.188-0.425 0.425 0 0.231 0.188 0.425 0.425 0.425h10.175c0.238 0 0.425-0.188 0.425-0.425s-0.194-0.425-0.425-0.425z"></path>
<path id="svg-ico" fill="#ee5586" d="M23.712 23.781h-7.637c-0.238 0-0.425 0.188-0.425 0.425s0.188 0.425 0.425 0.425h7.631c0.238 0 0.425-0.188 0.425-0.425 0-0.231-0.188-0.425-0.419-0.425z"></path>
</svg>
