<!-- Generated by IcoMoon.io -->
<svg version="1.1" xmlns="http://www.w3.org/2000/svg" width="32" height="32" viewBox="0 0 32 32">
<title>windows</title>
<path fill="#5e686b" d="M13.181 29.6c-0.019 0-0.037 0-0.056-0.006l-12.325-1.581c-0.213-0.025-0.369-0.206-0.369-0.425v-10.294c0-0.238 0.188-0.425 0.425-0.425h12.325c0.238 0 0.425 0.188 0.425 0.425v11.881c0 0.125-0.050 0.238-0.144 0.319-0.081 0.069-0.181 0.106-0.281 0.106zM1.281 27.219l11.475 1.475v-10.975h-11.475v9.5z"></path>
<path fill="#5e686b" d="M13.181 15.637h-12.325c-0.238 0-0.425-0.188-0.425-0.425v-10.275c0-0.213 0.156-0.394 0.369-0.419l12.319-1.706c0.119-0.019 0.244 0.019 0.338 0.1s0.144 0.2 0.144 0.319v11.981c0.006 0.231-0.188 0.425-0.419 0.425zM1.281 14.787h11.475v-11.063l-11.475 1.581v9.481z"></path>
<path id="svg-ico" fill="#ee5586" d="M31.406 15.637h-16.144c-0.238 0-0.425-0.188-0.425-0.425v-12.144c0-0.212 0.156-0.394 0.369-0.419l16.144-2.231c0.119-0.019 0.244 0.019 0.337 0.1s0.144 0.2 0.144 0.319v14.369c0 0.238-0.188 0.431-0.425 0.431zM15.688 14.787h15.294v-13.456l-15.294 2.112v11.344z"></path>
<path fill="#5e686b" d="M31.406 31.819c-0.019 0-0.038 0-0.056-0.006l-16.144-2.075c-0.213-0.025-0.369-0.206-0.369-0.425v-12.019c0-0.238 0.188-0.425 0.425-0.425h16.144c0.238 0 0.425 0.188 0.425 0.425v14.1c0 0.125-0.050 0.238-0.144 0.319-0.075 0.069-0.175 0.106-0.281 0.106zM15.688 28.95l15.294 1.962v-13.194h-15.294v11.231z"></path>
</svg>
