<!-- Generated by IcoMoon.io -->
<svg version="1.1" xmlns="http://www.w3.org/2000/svg" width="32" height="32" viewBox="0 0 32 32">
<title>wine</title>
<path fill="#5e686b" d="M6.775 26.031l4.963-5.137-0.631-0.587-4.938 5.113-5.031-5.031c-0.169-0.169-0.438-0.169-0.606 0s-0.169 0.438 0 0.606l5.338 5.338c0.006 0.006 0.006 0.006 0.013 0.012 0 0 0.006 0.006 0.006 0.006l5.331 5.331c0.081 0.081 0.194 0.125 0.3 0.125 0.113 0 0.219-0.044 0.3-0.125 0.169-0.169 0.169-0.438 0-0.606l-5.044-5.044z"></path>
<path id="svg-ico" fill="#ee5586" d="M8.975 16.694c0.419 1.262 1.1 2.462 2.037 3.512l0.1 0.1c0.238 0.288 0.681 0.625 0.794 0.781 1.838 1.606 4.188 2.494 6.631 2.494 0 0 0 0 0 0 2.688 0 5.213-1.044 7.113-2.944l3.938-3.938-20.613-0.006zM25.038 20.025c-1.738 1.738-4.050 2.694-6.506 2.694v0c-2.262 0-4.438-0.825-6.113-2.313l-0.781-0.781c-0.569-0.637-1.031-1.337-1.394-2.069h17.269l-2.475 2.469z"></path>
<path fill="#5e686b" d="M31.663 14.006l-13.644-13.644c-0.087-0.088-0.181-0.156-0.319-0.144-0.125 0.006-0.219 0.050-0.294 0.156l-6.012 6.013c-2.662 2.662-3.531 6.475-2.55 9.894l0.125 0.413h0.931l-0.169-0.413c-1.006-3.181-0.238-6.794 2.263-9.294l5.713-5.719 13.050 13.044-2.375 2.381h1.2l2.081-2.081c0.169-0.169 0.169-0.438 0-0.606z"></path>
</svg>
