<!-- Generated by IcoMoon.io -->
<svg version="1.1" xmlns="http://www.w3.org/2000/svg" width="32" height="32" viewBox="0 0 32 32">
<title>woman</title>
<path id="svg-ico" fill="#ee5586" d="M30.544 17.813l-4.037-6.731c0.006-0.15 0.012-0.306 0.012-0.456 0-1.831-0.469-3.55-1.294-5.056-0.012-0.031-0.031-0.056-0.050-0.081-1.806-3.206-5.244-5.381-9.175-5.381-5.8 0-10.519 4.719-10.519 10.519 0 0.156 0.006 0.306 0.013 0.463l-4.037 6.725c-0.081 0.131-0.081 0.294-0.006 0.431 0.075 0.131 0.219 0.219 0.375 0.219h7.175c1.863 1.663 4.313 2.675 7 2.675s5.144-1.012 7-2.675h7.175c0.156 0 0.294-0.081 0.375-0.219 0.075-0.131 0.075-0.3-0.006-0.431zM16 0.963c3.425 0 6.444 1.794 8.156 4.494l-17.769 4.162c0.506-4.856 4.625-8.656 9.613-8.656zM5.65 12.488c0.35 1.944 1.231 3.7 2.494 5.119h-5.569l3.075-5.119zM6.338 10.625c0-0.037 0-0.075 0-0.119l18.263-4.275c0.675 1.319 1.056 2.813 1.056 4.394 0 5.325-4.331 9.663-9.662 9.663-5.325-0.006-9.656-4.338-9.656-9.662zM23.856 17.606c1.262-1.419 2.15-3.175 2.494-5.119l3.075 5.119h-5.569z"></path>
<path fill="#5e686b" d="M18.575 12.45c-0.944 0-1.719 0.769-1.719 1.719 0 0.238 0.194 0.425 0.425 0.425 0.238 0 0.425-0.194 0.425-0.425 0-0.475 0.387-0.863 0.863-0.863s0.863 0.387 0.863 0.863c0 0.238 0.194 0.425 0.425 0.425 0.238 0 0.425-0.194 0.425-0.425 0.012-0.95-0.756-1.719-1.706-1.719z"></path>
<path fill="#5e686b" d="M12.775 12.45c-0.944 0-1.719 0.769-1.719 1.719 0 0.238 0.194 0.425 0.425 0.425s0.425-0.194 0.425-0.425c0-0.475 0.387-0.863 0.863-0.863s0.863 0.387 0.863 0.863c0 0.238 0.194 0.425 0.425 0.425s0.425-0.194 0.425-0.425c0.012-0.95-0.756-1.719-1.706-1.719z"></path>
<path fill="#5e686b" d="M23.044 22.563h-15c-2.6 0-4.719 2.119-4.719 4.719v4.3c0 0.238 0.194 0.425 0.425 0.425 0.019 0 0.038 0 0.056-0.006h23.519c0.238 0 0.425-0.194 0.425-0.425v-4.287c0.012-2.613-2.106-4.725-4.706-4.725zM26.906 31.144h-22.725v-3.863c0-2.131 1.731-3.863 3.863-3.863h15c2.131 0 3.863 1.731 3.863 3.863v3.863z"></path>
</svg>
