<svg id="Features" xmlns="http://www.w3.org/2000/svg" xmlns:xlink="http://www.w3.org/1999/xlink" width="103" height="108" viewBox="0 0 103 108">
  <metadata><?xpacket begin="﻿" id="W5M0MpCehiHzreSzNTczkc9d"?>
<x:xmpmeta xmlns:x="adobe:ns:meta/" x:xmptk="Adobe XMP Core 5.6-c138 79.159824, 2016/09/14-01:09:01        ">
   <rdf:RDF xmlns:rdf="http://www.w3.org/1999/02/22-rdf-syntax-ns#">
      <rdf:Description rdf:about=""/>
   </rdf:RDF>
</x:xmpmeta>
                                                                                                    
                                                                                                    
                                                                                                    
                                                                                                    
                                                                                                    
                                                                                                    
                                                                                                    
                                                                                                    
                                                                                                    
                                                                                                    
                                                                                                    
                                                                                                    
                                                                                                    
                                                                                                    
                                                                                                    
                                                                                                    
                                                                                                    
                                                                                                    
                                                                                                    
                                                                                                    
                           
<?xpacket end="w"?></metadata>
<defs>
    <style>
      .cls-1, .cls-3 {
        fill-rule: evenodd;
      }

      .cls-1 {
        fill: url(#linear-gradient);
      }

      .cls-2, .cls-3 {
        fill: #44ce7c;
      }

      .cls-2 {
        opacity: 0.1;
      }
    </style>
    <linearGradient id="linear-gradient" x1="20.906" y1="70.109" x2="82.063" y2="70.109" gradientUnits="userSpaceOnUse">
      <stop offset="0" stop-color="#44ce75"/>
      <stop offset="1" stop-color="#43cea2"/>
    </linearGradient>
  </defs>
  <g id="_01" data-name="01">
    <g id="Icon">
      <path id="Forma_1" data-name="Forma 1" class="cls-1" d="M81.1,41.908H21.9a0.986,0.986,0,0,0-.976,1V97.331a0.985,0.985,0,0,0,.976,1H81.1a0.986,0.986,0,0,0,.976-1V42.9A0.986,0.986,0,0,0,81.1,41.908ZM80.126,96.335H22.874V43.9H58.982v5.975H25.8a1,1,0,0,0,0,1.991H77.2a1,1,0,0,0,0-1.991H60.933V43.9H80.126V96.335ZM70.562,45.892a1,1,0,1,1-.976,1A0.986,0.986,0,0,1,70.562,45.892Zm-5.335,0a1,1,0,1,1-.976,1A0.986,0.986,0,0,1,65.228,45.892Zm10.67,0a1,1,0,1,1-.976,1A0.986,0.986,0,0,1,75.9,45.892ZM51.5,66.358a7.379,7.379,0,0,0,0,14.755,7.13,7.13,0,0,0,3.31-.819,1,1,0,0,0,.42-1.341,0.967,0.967,0,0,0-1.315-.428,5.137,5.137,0,0,1-2.415.6,5.388,5.388,0,1,1,5.28-5.387,5.409,5.409,0,0,1-.585,2.464,1.006,1.006,0,0,0,.42,1.341,0.968,0.968,0,0,0,1.315-.428,7.52,7.52,0,0,0,.8-3.377A7.314,7.314,0,0,0,51.5,66.358Zm16.016,3.728h-4.1a12.735,12.735,0,0,0-.961-2.359l2.9-2.963a1.011,1.011,0,0,0,0-1.408L61.675,59.6a0.964,0.964,0,0,0-1.38,0l-2.9,2.964a12.225,12.225,0,0,0-2.312-.981V57.4a0.986,0.986,0,0,0-.976-1H48.9a0.986,0.986,0,0,0-.976,1v4.186a12.228,12.228,0,0,0-2.312.981l-2.9-2.964a0.964,0.964,0,0,0-1.38,0l-3.68,3.755a1.01,1.01,0,0,0,0,1.408l2.9,2.963a12.734,12.734,0,0,0-.961,2.359h-4.1a0.986,0.986,0,0,0-.976.995v5.31a0.986,0.986,0,0,0,.976,1h4.1a12.745,12.745,0,0,0,.961,2.359l-2.9,2.963a1.012,1.012,0,0,0,0,1.41l3.68,3.754a0.963,0.963,0,0,0,1.38,0l2.9-2.963a12.247,12.247,0,0,0,2.312.98v4.187a0.986,0.986,0,0,0,.976,1h5.2a0.986,0.986,0,0,0,.976-1V85.888a12.25,12.25,0,0,0,2.312-.98l2.9,2.963a0.963,0.963,0,0,0,1.38,0l3.68-3.754a1.013,1.013,0,0,0,0-1.41l-2.9-2.963a12.739,12.739,0,0,0,.961-2.359h4.1a0.985,0.985,0,0,0,.976-1v-5.31A0.986,0.986,0,0,0,67.516,70.086ZM66.54,75.4H62.662a0.98,0.98,0,0,0-.951.771,10.734,10.734,0,0,1-1.31,3.215,1.01,1.01,0,0,0,.138,1.231l2.746,2.8-2.3,2.348-2.746-2.8a0.961,0.961,0,0,0-1.206-.142,10.275,10.275,0,0,1-3.152,1.337,0.991,0.991,0,0,0-.754.969v3.956H49.873V85.123a0.991,0.991,0,0,0-.754-0.969,10.274,10.274,0,0,1-3.152-1.337,0.962,0.962,0,0,0-1.207.142l-2.746,2.8-2.3-2.348,2.745-2.8A1.012,1.012,0,0,0,42.6,79.38a10.726,10.726,0,0,1-1.31-3.214,0.98,0.98,0,0,0-.95-0.771H36.46V72.076h3.878a0.98,0.98,0,0,0,.95-0.77,10.718,10.718,0,0,1,1.31-3.215,1.01,1.01,0,0,0-.138-1.231l-2.746-2.8,2.3-2.347,2.746,2.8a0.961,0.961,0,0,0,1.207.142,10.275,10.275,0,0,1,3.152-1.337,0.992,0.992,0,0,0,.754-0.969V58.392h3.253v3.957a0.992,0.992,0,0,0,.754.969,10.276,10.276,0,0,1,3.152,1.337,0.961,0.961,0,0,0,1.206-.142l2.746-2.8,2.3,2.347-2.745,2.8a1.01,1.01,0,0,0-.138,1.231,10.723,10.723,0,0,1,1.31,3.215,0.98,0.98,0,0,0,.951.77H66.54V75.4h0Z"/>
      <rect id="Rounded_Rectangle_540" data-name="Rounded Rectangle 540" class="cls-2" x="33.813" y="56.406" width="57.938" height="51.594" rx="3" ry="3"/>
      <path id="Star" class="cls-3" d="M94.969,47.813H103v2.719H94.969V47.813Zm2.656-2.687h2.719v8.063H97.625V45.125ZM32.188,19.344h4.844v1.625H32.188V19.344Zm1.625-1.625h1.594v4.844H33.813V17.719ZM4.031,58.031A4.031,4.031,0,1,1,0,62.063,4.031,4.031,0,0,1,4.031,58.031Zm77.25-35.469a2.422,2.422,0,1,1-2.406,2.422A2.414,2.414,0,0,1,81.281,22.563ZM49.906,2.656h8.031V5.375H49.906V2.656ZM52.563,0h2.719V8.063H52.563V0ZM4.844,32.25H14.5v3.219H4.844V32.25ZM8.063,29h3.219v9.688H8.063V29Z"/>
    </g>
  </g>
</svg>
