<!-- Generated by IcoMoon.io -->
<svg version="1.1" xmlns="http://www.w3.org/2000/svg" width="32" height="32" viewBox="0 0 32 32">
<title>alpha</title>
<path id="svg-ico" fill="#ee5586" d="M15.762 22.613c-3.7 0-6.713-3.012-6.713-6.713s3.013-6.706 6.713-6.706c3.7 0 6.713 3.012 6.713 6.713s-3.012 6.706-6.713 6.706zM15.762 10.031c-3.238 0-5.875 2.631-5.875 5.875s2.637 5.875 5.875 5.875c3.238 0 5.875-2.631 5.875-5.875s-2.637-5.875-5.875-5.875z"></path>
<path fill="#5e686c" d="M15.931 31.587c-8.65 0-15.688-7.038-15.688-15.681 0-4.188 1.631-8.131 4.594-11.094s6.9-4.594 11.088-4.594c8.65 0 15.688 7.037 15.688 15.681v1.525c0 2.756-2.244 5-5 5s-5-2.244-5-5v-7.631c0-0.231 0.188-0.419 0.419-0.419s0.419 0.188 0.419 0.419v7.631c0 2.294 1.869 4.163 4.162 4.163s4.163-1.869 4.163-4.163v-1.525c0-8.188-6.663-14.844-14.844-14.844-3.969 0-7.694 1.544-10.5 4.35s-4.35 6.531-4.35 10.5c0 8.188 6.662 14.844 14.844 14.844 3.244 0 6.45-1.087 9.025-3.056 0.181-0.144 0.45-0.106 0.587 0.075s0.106 0.45-0.081 0.587c-2.712 2.081-6.1 3.231-9.525 3.231z"></path>
</svg>
