<!-- Generated by IcoMoon.io -->
<svg version="1.1" xmlns="http://www.w3.org/2000/svg" width="32" height="32" viewBox="0 0 32 32">
<title>android</title>
<path fill="#5e686c" d="M24.044 10.637h-15.594c-0.231 0-0.419 0.188-0.419 0.419v12.581c0 1.231 0.981 2.231 2.181 2.231h2.331v5.387c0 0.231 0.188 0.419 0.419 0.419s0.419-0.188 0.419-0.419v-5.387h5.525v5.387c0 0.231 0.188 0.419 0.419 0.419s0.419-0.188 0.419-0.419v-5.387h2.519c1.206 0 2.188-1 2.188-2.231v-12.575c0.012-0.238-0.175-0.425-0.406-0.425zM23.619 23.637c0 0.769-0.6 1.387-1.344 1.387h-2.775c-0.050-0.019-0.106-0.031-0.163-0.031s-0.113 0.012-0.163 0.031h-6.037c-0.050-0.019-0.106-0.031-0.162-0.031s-0.113 0.012-0.162 0.031h-2.588c-0.738 0-1.344-0.625-1.344-1.387v-12.156h14.75l-0.012 12.156z"></path>
<path id="svg-ico" fill="#ee5586" d="M20.431 2.975l1.238-1.9c0.125-0.194 0.075-0.456-0.125-0.581-0.194-0.125-0.456-0.069-0.581 0.125l-1.313 2.013c-2.144-0.837-4.669-0.844-6.831 0.006l-1.294-2.019c-0.125-0.194-0.387-0.25-0.581-0.125s-0.25 0.387-0.125 0.581l1.231 1.906c-2.481 1.263-4.019 3.55-4.019 6.013 0 0.231 0.188 0.419 0.419 0.419h15.587c0.231 0 0.419-0.188 0.419-0.419 0.006-2.463-1.525-4.75-4.025-6.019zM8.894 8.575c0.169-2.037 1.556-3.894 3.694-4.919l0.506-0.225c1.975-0.788 4.35-0.781 6.3-0.006l0.2 0.087c0.031 0.019 0.069 0.038 0.106 0.044l0.2 0.087c2.15 1.025 3.538 2.888 3.706 4.919h-14.713z"></path>
<path id="svg-ico" fill="#ee5586" d="M13.175 4.162c-0.931 0-1.688 0.756-1.688 1.681 0 0.931 0.756 1.688 1.688 1.688s1.681-0.756 1.681-1.688c0-0.925-0.756-1.681-1.681-1.681zM13.175 6.688c-0.463 0-0.844-0.381-0.844-0.844s0.375-0.838 0.844-0.838c0.463 0 0.844 0.375 0.844 0.838 0 0.469-0.381 0.844-0.844 0.844z"></path>
<path id="svg-ico" fill="#ee5586" d="M19.4 4.162c-0.931 0-1.688 0.756-1.688 1.681 0 0.931 0.756 1.688 1.688 1.688s1.681-0.756 1.681-1.688c0.006-0.925-0.75-1.681-1.681-1.681zM19.4 6.688c-0.462 0-0.844-0.381-0.844-0.844s0.381-0.838 0.844-0.838c0.462 0 0.844 0.375 0.844 0.838 0 0.469-0.381 0.844-0.844 0.844z"></path>
<path fill="#5e686c" d="M5.588 10.637c-0.231 0-0.419 0.188-0.419 0.419v10.769c0 0.231 0.188 0.419 0.419 0.419s0.419-0.188 0.419-0.419v-10.762c0-0.238-0.188-0.425-0.419-0.425z"></path>
<path fill="#5e686c" d="M26.906 10.637c-0.231 0-0.419 0.188-0.419 0.419v10.769c0 0.231 0.188 0.419 0.419 0.419s0.419-0.188 0.419-0.419v-10.762c0.006-0.238-0.188-0.425-0.419-0.425z"></path>
</svg>
