<!-- Generated by IcoMoon.io -->
<svg version="1.1" xmlns="http://www.w3.org/2000/svg" width="32" height="32" viewBox="0 0 32 32">
<title>basketshop</title>
<path id="svg-ico" fill="#ee5586" d="M10.45 13.188c-0.050 0-0.094-0.006-0.144-0.025-0.219-0.081-0.338-0.325-0.256-0.544l4.319-12.037c0.081-0.219 0.325-0.338 0.544-0.256s0.338 0.325 0.256 0.544l-4.319 12.031c-0.063 0.181-0.225 0.287-0.4 0.287z"></path>
<path id="svg-ico" fill="#ee5586" d="M22.031 13.188c-0.175 0-0.344-0.113-0.4-0.287l-4.212-12.031c-0.075-0.225 0.038-0.469 0.262-0.544s0.469 0.037 0.544 0.262l4.212 12.031c0.081 0.225-0.038 0.469-0.262 0.544-0.050 0.019-0.094 0.025-0.144 0.025z"></path>
<path fill="#5e686c" d="M10.45 28.694c-0.238 0-0.425-0.194-0.425-0.425v-8.531c0-0.238 0.194-0.425 0.425-0.425s0.425 0.194 0.425 0.425v8.531c0 0.238-0.188 0.425-0.425 0.425z"></path>
<path fill="#5e686c" d="M22.031 28.694c-0.238 0-0.425-0.194-0.425-0.425v-8.531c0-0.238 0.194-0.425 0.425-0.425s0.425 0.194 0.425 0.425v8.531c0.006 0.238-0.188 0.425-0.425 0.425z"></path>
<path fill="#5e686c" d="M28.637 31.7h-24.788c-0.612 0-1.112-0.5-1.112-1.113v-13.969h-0.95c-0.619 0-1.119-0.512-1.119-1.137v-2.012c0-0.625 0.5-1.137 1.119-1.137h28.913c0.613 0 1.113 0.506 1.113 1.137v2.012c0 0.625-0.5 1.137-1.113 1.137h-0.95v13.969c0 0.613-0.5 1.113-1.113 1.113zM1.788 13.188c-0.144 0-0.262 0.125-0.262 0.281v2.012c0 0.156 0.119 0.281 0.262 0.281h1.375c0.237 0 0.425 0.194 0.425 0.425v14.394c0 0.144 0.119 0.262 0.263 0.262h24.781c0.144 0 0.262-0.119 0.262-0.262v-14.394c0-0.238 0.194-0.425 0.425-0.425h1.375c0.144 0 0.262-0.125 0.262-0.281v-2.012c0-0.156-0.119-0.281-0.262-0.281h-28.906z"></path>
</svg>
