<!-- Generated by IcoMoon.io -->
<svg version="1.1" xmlns="http://www.w3.org/2000/svg" width="32" height="32" viewBox="0 0 32 32">
<title>bluetooth</title>
<path fill="#5e686c" d="M15.394 31.869c-0.056 0-0.113-0.012-0.162-0.031-0.162-0.069-0.262-0.225-0.262-0.394v-15.531l-6.044-5.575c-0.175-0.162-0.188-0.431-0.025-0.606s0.431-0.181 0.606-0.025l14.356 13.244c0.087 0.081 0.137 0.188 0.137 0.306s-0.044 0.231-0.125 0.313l-8.181 8.175c-0.081 0.081-0.194 0.125-0.3 0.125zM15.819 16.7v13.706l7.131-7.125-7.131-6.581z"></path>
<path fill="#5e686c" d="M9.294 21.881c-0.113 0-0.231-0.044-0.313-0.137-0.162-0.175-0.15-0.444 0.019-0.606l6.113-5.706c0.175-0.162 0.444-0.15 0.606 0.019 0.162 0.175 0.15 0.444-0.019 0.606l-6.113 5.706c-0.081 0.081-0.188 0.119-0.294 0.119z"></path>
<path id="svg-ico" fill="#ee5586" d="M15.394 16.175c-0.238 0-0.425-0.194-0.425-0.425v-15.325c0-0.175 0.106-0.331 0.262-0.394 0.162-0.069 0.344-0.031 0.469 0.094l7.938 7.931c0.081 0.081 0.125 0.194 0.125 0.313 0 0.113-0.050 0.225-0.137 0.306l-7.925 7.387c-0.088 0.081-0.175 0.119-0.3 0.113 0 0-0.006 0-0.006 0zM15.819 1.456v13.325l6.894-6.431-6.894-6.894z"></path>
</svg>
