<!-- Generated by IcoMoon.io -->
<svg version="1.1" xmlns="http://www.w3.org/2000/svg" width="32" height="32" viewBox="0 0 32 32">
<title>briefcase</title>
<path id="svg-ico" fill="#ee5586" d="M21.613 7.531h-11.063c-0.238 0-0.425-0.194-0.425-0.425v-1.862c0-1.569 1.275-2.85 2.844-2.85h6.238c1.569 0 2.844 1.275 2.844 2.85v1.856c-0.006 0.237-0.2 0.431-0.438 0.431zM10.975 6.675h10.213v-1.431c0-1.1-0.894-1.994-1.988-1.994h-6.238c-1.094 0-1.988 0.894-1.988 1.994v1.431z"></path>
<path fill="#5e686c" d="M10.55 29.663h-5.537c-0.237 0-0.425-0.194-0.425-0.425v-2.075c0-0.238 0.194-0.425 0.425-0.425s0.425 0.194 0.425 0.425v1.65h4.681v-1.65c0-0.238 0.194-0.425 0.425-0.425s0.425 0.194 0.425 0.425v2.075c0.006 0.231-0.188 0.425-0.419 0.425z"></path>
<path fill="#5e686c" d="M27.15 29.663h-5.531c-0.238 0-0.425-0.194-0.425-0.425v-2.075c0-0.238 0.194-0.425 0.425-0.425s0.425 0.194 0.425 0.425v1.65h4.681v-1.65c0-0.238 0.194-0.425 0.425-0.425s0.425 0.194 0.425 0.425v2.075c0 0.231-0.194 0.425-0.425 0.425z"></path>
<path fill="#5e686c" d="M27.837 27.587h-23.512c-2.144 0-3.888-1.744-3.888-3.887v-13.137c0-2.144 1.744-3.888 3.888-3.888h23.512c2.144 0 3.887 1.744 3.887 3.888v13.137c0 2.144-1.744 3.887-3.887 3.887zM4.325 7.531c-1.675 0-3.038 1.363-3.038 3.031v13.137c0 1.675 1.363 3.031 3.038 3.031h23.512c1.675 0 3.031-1.363 3.031-3.031v-13.137c0-1.669-1.363-3.031-3.031-3.031h-23.512z"></path>
</svg>
