<!-- Generated by IcoMoon.io -->
<svg version="1.1" xmlns="http://www.w3.org/2000/svg" width="32" height="32" viewBox="0 0 32 32">
<title>businesman</title>
<path fill="#5e686c" d="M21.369 9.294h-9.169c-0.194 0-0.363-0.131-0.406-0.319l-2.044-8.156c-0.031-0.125-0.006-0.256 0.075-0.362 0.081-0.1 0.2-0.163 0.331-0.163h13.25c0.131 0 0.25 0.063 0.331 0.162s0.106 0.238 0.075 0.363l-2.038 8.156c-0.044 0.188-0.212 0.319-0.406 0.319zM12.525 8.45h8.513l1.825-7.313h-12.162l1.825 7.313z"></path>
<path id="svg-ico" fill="#ee5586" d="M16.275 31.712c-0.075 0-0.144-0.019-0.206-0.056l-7.131-4.075c-0.156-0.087-0.238-0.269-0.206-0.45l3.056-15.287c0.044-0.231 0.275-0.375 0.494-0.331 0.231 0.044 0.375 0.269 0.331 0.494l-3 14.988 6.662 3.806 6.681-3.819-2-15.006c-0.031-0.231 0.131-0.444 0.363-0.475 0.225-0.031 0.444 0.131 0.475 0.363l2.038 15.287c0.025 0.169-0.063 0.337-0.206 0.419l-7.131 4.075c-0.075 0.050-0.15 0.069-0.219 0.069z"></path>
<path fill="#5e686c" d="M13.213 22.538c-0.2 0-0.381-0.144-0.412-0.35-0.037-0.231 0.119-0.444 0.344-0.481l6.113-1.019c0.225-0.044 0.444 0.119 0.481 0.344 0.038 0.231-0.119 0.444-0.344 0.481l-6.113 1.019c-0.019 0.006-0.044 0.006-0.069 0.006z"></path>
<path fill="#5e686c" d="M13.213 26.619c-0.2 0-0.381-0.144-0.412-0.35-0.037-0.231 0.119-0.444 0.344-0.481l6.113-1.019c0.225-0.044 0.444 0.119 0.481 0.344 0.038 0.231-0.119 0.444-0.344 0.481l-6.113 1.019c-0.019 0.006-0.044 0.006-0.069 0.006z"></path>
</svg>
