<!-- Generated by IcoMoon.io -->
<svg version="1.1" xmlns="http://www.w3.org/2000/svg" width="32" height="32" viewBox="0 0 32 32">
<title>cctv</title>
<path id="svg-ico" fill="#ee5586" d="M27.625 14.794c-0.063 0-0.125-0.012-0.188-0.044-0.206-0.1-0.294-0.356-0.194-0.563l3.706-7.588c0.1-0.206 0.356-0.294 0.563-0.194s0.294 0.356 0.194 0.563l-3.706 7.588c-0.075 0.15-0.219 0.238-0.375 0.238z"></path>
<path fill="#5e686c" d="M12.85 28.325h-11.8c-0.231 0-0.419-0.188-0.419-0.419s0.188-0.419 0.419-0.419h11.381v-12.656c0-0.231 0.188-0.419 0.419-0.419s0.419 0.188 0.419 0.419v13.081c0.006 0.225-0.181 0.413-0.419 0.413z"></path>
<path id="svg-ico" fill="#ee5586" d="M21.587 15.675c-0.019 0-0.038 0-0.056-0.006l-19.387-2.506c-0.688-0.088-1.2-0.363-1.538-0.819-0.519-0.706-0.369-1.575-0.362-1.613l1.012-7.838c0.238-1.819 1.837-1.962 2.319-1.962 0.169 0 0.269 0.012 0.269 0.012l23.738 3.069c0.137 0.019 0.256 0.106 0.319 0.225 0.063 0.125 0.063 0.269-0.006 0.394l-5.944 10.819c-0.069 0.137-0.212 0.225-0.363 0.225zM3.575 1.775c-0.606 0-1.35 0.212-1.481 1.231l-1.019 7.856c-0.006 0.025-0.088 0.581 0.212 0.988 0.194 0.262 0.519 0.419 0.963 0.475l19.1 2.469 5.512-10.025-23.125-2.994c-0.006 0.006-0.069 0-0.163 0z"></path>
<path fill="#5e686c" d="M12.869 10.956c-0.106 0-0.219-0.006-0.325-0.019-0.669-0.088-1.262-0.425-1.675-0.963-0.412-0.531-0.594-1.194-0.506-1.863 0.175-1.362 1.431-2.362 2.825-2.181 1.381 0.175 2.356 1.444 2.181 2.825-0.162 1.256-1.238 2.2-2.5 2.2zM12.863 6.75c-0.838 0-1.556 0.631-1.662 1.469-0.056 0.444 0.063 0.887 0.338 1.244s0.669 0.581 1.119 0.644c0.931 0.119 1.769-0.544 1.887-1.45 0.119-0.919-0.537-1.763-1.456-1.881-0.081-0.019-0.156-0.025-0.225-0.025z"></path>
<path fill="#5e686c" d="M1.050 30.663c-0.231 0-0.419-0.188-0.419-0.419v-4.675c0-0.231 0.188-0.419 0.419-0.419s0.419 0.188 0.419 0.419v4.675c0.006 0.231-0.188 0.419-0.419 0.419z"></path>
</svg>
