<!-- Generated by IcoMoon.io -->
<svg version="1.1" xmlns="http://www.w3.org/2000/svg" width="32" height="32" viewBox="0 0 32 32">
<title>center</title>
<path fill="#5e686c" d="M16.081 9c-2.381 0-4.319-1.938-4.319-4.325 0-2.381 1.938-4.319 4.319-4.319s4.319 1.938 4.319 4.319c0.006 2.388-1.931 4.325-4.319 4.325zM16.081 1.225c-1.906 0-3.456 1.55-3.456 3.456s1.55 3.456 3.456 3.456c1.906 0 3.456-1.55 3.456-3.456s-1.544-3.456-3.456-3.456z"></path>
<path fill="#5e686c" d="M18.075 25.025h-3.981c-0.238 0-0.431-0.194-0.431-0.431v-5.413c-2.588-1.131-3.981-4.831-3.981-7.863 0-0.238 0.194-0.431 0.431-0.431h11.944c0.238 0 0.431 0.194 0.431 0.431 0 3.031-1.394 6.731-3.981 7.863v5.413c0 0.238-0.194 0.431-0.431 0.431zM14.525 24.156h3.119v-5.275c0-0.181 0.119-0.35 0.288-0.406 2.4-0.844 3.556-4.294 3.681-6.725h-11.063c0.125 2.431 1.281 5.881 3.681 6.725 0.175 0.063 0.287 0.225 0.287 0.406v5.275z"></path>
<path fill="#5e686c" d="M16.081 28.344c-3.906 0-9.725-0.731-9.725-2.756 0-1.294 2.356-1.981 4.331-2.331 0.231-0.050 0.456 0.113 0.5 0.35s-0.119 0.456-0.35 0.5c-2.631 0.462-3.612 1.156-3.612 1.481 0 0.644 3.125 1.894 8.863 1.894 5.731 0 8.863-1.25 8.863-1.894 0-0.325-0.975-1.019-3.6-1.475-0.238-0.044-0.394-0.262-0.35-0.5 0.038-0.238 0.269-0.4 0.5-0.35 1.969 0.344 4.313 1.031 4.313 2.325-0.006 2.019-5.819 2.756-9.731 2.756z"></path>
<path id="svg-ico" fill="#ee5586" d="M16.081 31.663c-8.8 0-15.7-2.525-15.7-5.744 0-2.475 4.056-4.6 10.331-5.413 0.244-0.031 0.456 0.137 0.488 0.375s-0.137 0.456-0.375 0.488c-5.638 0.725-9.575 2.6-9.575 4.55 0 2.356 5.963 4.875 14.831 4.875 8.875 0 14.831-2.525 14.831-4.875 0-1.95-3.938-3.825-9.575-4.55-0.238-0.031-0.406-0.25-0.375-0.488s0.244-0.406 0.488-0.375c6.275 0.813 10.331 2.938 10.331 5.413 0 3.219-6.894 5.744-15.7 5.744z"></path>
</svg>
