<!-- Generated by IcoMoon.io -->
<svg version="1.1" xmlns="http://www.w3.org/2000/svg" width="32" height="32" viewBox="0 0 32 32">
<title>ceo</title>
<path fill="#5e686c" d="M24.925 17.819c-0.019 0-0.044 0-0.063-0.006-0.225-0.031-0.375-0.244-0.344-0.462l1.188-7.725c0.319-2.081-0.281-4.188-1.65-5.781-1.369-1.6-3.363-2.513-5.469-2.513h-5.094c-2.106 0-4.1 0.919-5.469 2.513s-1.969 3.7-1.65 5.781l1.188 7.725c0.031 0.225-0.119 0.431-0.344 0.462-0.225 0.038-0.431-0.119-0.463-0.344l-1.188-7.719c-0.356-2.313 0.313-4.662 1.838-6.438 1.531-1.781 3.75-2.8 6.088-2.8h5.094c2.344 0 4.563 1.019 6.088 2.8 1.525 1.775 2.194 4.125 1.837 6.438l-1.188 7.725c-0.025 0.2-0.2 0.344-0.4 0.344z"></path>
<path fill="#5e686c" d="M9.063 31.688c-0.225 0-0.406-0.181-0.406-0.406v-2.45c0-0.225 0.181-0.406 0.406-0.406s0.406 0.181 0.406 0.406v2.45c0.006 0.225-0.175 0.406-0.406 0.406z"></path>
<path fill="#5e686c" d="M23.025 31.281c-0.225 0-0.406-0.181-0.406-0.406v-1.631c0-0.225 0.181-0.406 0.406-0.406s0.406 0.181 0.406 0.406v1.631c0 0.219-0.181 0.406-0.406 0.406z"></path>
<path id="svg-ico" fill="#ee5586" d="M24.294 29.238h-16.494c-2.325 0-4.213-1.887-4.213-4.213v-2.538c0-0.469-0.288-0.906-0.725-1.087-1.1-0.456-1.813-1.525-1.813-2.719 0-1.625 1.319-2.944 2.944-2.944 2.675 0 4.85 2.175 4.85 4.85v1.25c0.969-0.4 3.156-1.025 7.2-1.025s6.231 0.625 7.206 1.025v-1.25c0-2.675 2.175-4.85 4.85-4.85 1.625 0 2.944 1.319 2.944 2.944 0 1.194-0.712 2.262-1.813 2.719-0.438 0.181-0.725 0.606-0.725 1.087v2.538c0 2.325-1.894 4.212-4.212 4.212zM3.994 16.55c-1.175 0-2.131 0.956-2.131 2.131 0 0.863 0.513 1.637 1.313 1.969 0.744 0.306 1.225 1.031 1.225 1.837v2.538c0 1.875 1.525 3.4 3.4 3.4h16.494c1.875 0 3.4-1.525 3.4-3.4v-2.538c0-0.813 0.481-1.538 1.225-1.837 0.794-0.331 1.313-1.106 1.313-1.969 0-1.175-0.956-2.131-2.131-2.131-2.225 0-4.031 1.806-4.031 4.031v1.906c0 0.15-0.081 0.288-0.212 0.363-0.131 0.069-0.294 0.063-0.419-0.019-0.019-0.012-1.919-1.2-7.387-1.2-5.463 0-7.369 1.188-7.387 1.2-0.125 0.081-0.287 0.087-0.419 0.019s-0.213-0.206-0.213-0.356v-1.906c-0.006-2.225-1.819-4.037-4.037-4.037z"></path>
</svg>
