<!-- Generated by IcoMoon.io -->
<svg version="1.1" xmlns="http://www.w3.org/2000/svg" width="32" height="32" viewBox="0 0 32 32">
<title>clock</title>
<path fill="#5e686c" d="M28.069 5.725c-0.156-0.188-0.431-0.206-0.619-0.050s-0.206 0.431-0.050 0.619c2.275 2.687 3.531 6.112 3.531 9.644 0 8.238-6.7 14.931-14.938 14.931s-14.925-6.694-14.925-14.931 6.694-14.931 14.931-14.931c3.544 0 6.975 1.263 9.663 3.55 0.181 0.156 0.462 0.138 0.619-0.050 0.156-0.181 0.137-0.463-0.050-0.619-2.844-2.425-6.475-3.763-10.231-3.763-8.719 0-15.813 7.094-15.813 15.813s7.094 15.813 15.813 15.813c8.719 0 15.813-7.094 15.813-15.813 0-3.738-1.331-7.369-3.744-10.213z"></path>
<path id="svg-ico" fill="#ee5586" d="M16 7.463c-0.244 0-0.438 0.194-0.438 0.438v5.438c-1.244 0.213-2.194 1.294-2.194 2.6 0 1.456 1.181 2.637 2.638 2.637 0.569 0 1.094-0.181 1.525-0.488l6.031 6.031c0.087 0.087 0.2 0.131 0.313 0.131s0.225-0.044 0.313-0.131c0.169-0.169 0.169-0.45 0-0.619l-6.031-6.031c0.306-0.431 0.488-0.956 0.488-1.525 0-1.306-0.95-2.388-2.194-2.6v-5.438c-0.012-0.25-0.206-0.444-0.45-0.444zM17.756 15.938c0 0.969-0.788 1.756-1.756 1.756s-1.756-0.788-1.756-1.756c0-0.969 0.787-1.756 1.756-1.756s1.756 0.787 1.756 1.756z"></path>
</svg>
