<!-- Generated by IcoMoon.io -->
<svg version="1.1" xmlns="http://www.w3.org/2000/svg" width="32" height="32" viewBox="0 0 32 32">
<title>close</title>
<path fill="#5e686c" d="M27.188 4.775c-2.556-2.556-5.8-4.119-9.381-4.531-0.244-0.038-0.456 0.144-0.488 0.387-0.025 0.244 0.144 0.456 0.387 0.488 3.381 0.387 6.444 1.869 8.856 4.281 5.825 5.825 5.825 15.306 0 21.131s-15.306 5.825-21.131 0c-5.819-5.831-5.819-15.313 0.006-21.137 2.412-2.413 5.475-3.894 8.856-4.281 0.244-0.025 0.412-0.244 0.387-0.488s-0.25-0.419-0.488-0.388c-3.581 0.412-6.825 1.981-9.381 4.537-6.169 6.169-6.169 16.206 0 22.375 3.088 3.081 7.137 4.625 11.188 4.625s8.1-1.544 11.188-4.625c6.169-6.169 6.169-16.206 0-22.375z"></path>
<path id="svg-ico" fill="#ee5586" d="M21.587 10.375c-0.169-0.169-0.45-0.169-0.619 0l-4.969 4.963-4.963-4.963c-0.169-0.169-0.45-0.169-0.619 0s-0.169 0.45 0 0.619l4.963 4.963-4.963 4.963c-0.169 0.169-0.169 0.45 0 0.619 0.088 0.087 0.2 0.131 0.313 0.131s0.225-0.044 0.313-0.131l4.963-4.962 4.962 4.962c0.087 0.087 0.2 0.131 0.313 0.131s0.225-0.044 0.313-0.131c0.169-0.169 0.169-0.45 0-0.619l-4.969-4.963 4.962-4.963c0.169-0.169 0.169-0.45 0-0.619z"></path>
</svg>
