<!-- Generated by IcoMoon.io -->
<svg version="1.1" xmlns="http://www.w3.org/2000/svg" viewBox="0 0 32 32">
<title>cloudlinux</title>
<path fill="#5e686c" d="M15.219 20.644c-0.231 0-0.412-0.188-0.412-0.413 0-3.95 3.281-6.35 6.456-6.387 0.219-0.012 0.419 0.181 0.419 0.412 0.006 0.231-0.181 0.419-0.413 0.419-2.769 0.037-5.637 2.125-5.637 5.556 0 0.225-0.181 0.413-0.412 0.413z"></path>
<path fill="#5e686c" d="M8.488 7.294c-0.912 0-1.656-0.744-1.656-1.656s0.744-1.656 1.656-1.656 1.656 0.744 1.656 1.656-0.738 1.656-1.656 1.656zM8.488 4.806c-0.456 0-0.831 0.369-0.831 0.831s0.375 0.831 0.831 0.831 0.831-0.369 0.831-0.831-0.375-0.831-0.831-0.831z"></path>
<path fill="#5e686c" d="M7.356 16.663c-0.156 0-0.306-0.087-0.375-0.244-0.306-0.656-0.463-1.406-0.463-2.169 0-2.45 1.644-4.45 3.669-4.45 1.869 0 3.431 1.694 3.644 3.944 0.019 0.225-0.144 0.431-0.375 0.45-0.238 0.012-0.431-0.144-0.45-0.375-0.169-1.819-1.381-3.188-2.819-3.188-1.563 0-2.838 1.625-2.838 3.619 0 0.644 0.131 1.275 0.388 1.825 0.094 0.206 0.006 0.456-0.2 0.55-0.063 0.025-0.125 0.038-0.181 0.038z"></path>
<path fill="#5e686c" d="M11.875 7.294c-0.912 0-1.656-0.744-1.656-1.656s0.744-1.656 1.656-1.656 1.656 0.744 1.656 1.656-0.744 1.656-1.656 1.656zM11.875 4.806c-0.456 0-0.831 0.369-0.831 0.831s0.375 0.831 0.831 0.831 0.831-0.369 0.831-0.831-0.375-0.831-0.831-0.831z"></path>
<path fill="#5e686c" d="M10.181 9.119c-0.063 0-0.119-0.012-0.175-0.037l-1.694-0.806c-0.206-0.1-0.294-0.344-0.194-0.55s0.344-0.294 0.55-0.2l1.512 0.719 1.519-0.719c0.206-0.1 0.456-0.013 0.55 0.2 0.1 0.206 0.012 0.456-0.2 0.55l-1.694 0.8c-0.050 0.025-0.113 0.044-0.175 0.044z"></path>
<path fill="#5e686c" d="M0.725 16.738c-0.15 0-0.294-0.081-0.369-0.225-0.456-0.869 0.537-2.375 2.325-4.969 1.431-2.075 3.050-4.419 3.050-5.75v-0.169c0-2.45 1.994-4.45 4.45-4.45 2.45 0 4.45 1.994 4.45 4.45v0.194c0 1.2 1.206 3.119 2.506 5.013 0.131 0.188 0.081 0.45-0.106 0.575-0.188 0.131-0.444 0.081-0.575-0.106-1.281-1.869-2.65-3.981-2.65-5.481v-0.194c0-1.994-1.625-3.619-3.619-3.619s-3.619 1.625-3.619 3.619v0.169c0 1.588-1.625 3.944-3.2 6.219-1 1.45-2.519 3.644-2.275 4.113 0.106 0.2 0.025 0.456-0.175 0.563-0.063 0.038-0.125 0.050-0.194 0.050z"></path>
<path id="svg-ico" fill="#ee5586" d="M21.194 30.6h-12.938c-4.069 0-7.381-3.313-7.381-7.387 0-4.069 3.313-7.381 7.381-7.381 0.231 0 0.412 0.188 0.412 0.412s-0.188 0.413-0.412 0.413c-3.612 0-6.556 2.938-6.556 6.556 0 3.613 2.938 6.556 6.556 6.556h12.931c5.262 0 9.538-4.281 9.538-9.538 0-5.238-4.238-9.5-9.469-9.537-4.644 0.031-9.619 3.019-9.619 9.537 0 0.231-0.188 0.413-0.412 0.413s-0.412-0.188-0.412-0.413c0-6.725 5.169-10.287 10.338-10.369 0.012 0 0.025 0 0.038 0h0.15c0.012 0 0.025 0 0.038 0 5.631 0.1 10.181 4.713 10.181 10.369 0.006 5.712-4.65 10.369-10.363 10.369z"></path>
</svg>
