<!-- Generated by IcoMoon.io -->
<svg version="1.1" xmlns="http://www.w3.org/2000/svg" width="32" height="32" viewBox="0 0 32 32">
<title>cloudfiber</title>
<path id="svg-ico" fill="#ee5586" d="M21.294 1.969c-0.012 0-0.025 0-0.038 0h-0.156c-0.012 0-0.025 0-0.038 0-5.325 0.087-10.656 3.756-10.656 10.688 0 0.238 0.194 0.425 0.425 0.425 0.238 0 0.425-0.194 0.425-0.425 0-6.719 5.125-9.8 9.912-9.838 5.387 0.038 9.762 4.438 9.762 9.838 0 5.425-4.412 9.837-9.838 9.837h-13.325c-3.725 0-6.756-3.031-6.756-6.756s3.031-6.756 6.756-6.756c0.238 0 0.425-0.194 0.425-0.425s-0.194-0.425-0.425-0.425c-4.2-0.006-7.612 3.412-7.612 7.606s3.413 7.613 7.612 7.613h13.331c5.894 0 10.694-4.794 10.694-10.694 0-5.825-4.694-10.581-10.5-10.688z"></path>
<path fill="#5e686c" d="M24.413 28.15h-6.781c-0.156-0.6-0.631-1.075-1.231-1.231v-2.194c0-0.238-0.194-0.425-0.425-0.425-0.238 0-0.425 0.194-0.425 0.425v2.194c-0.6 0.156-1.075 0.631-1.231 1.231h-6.781c-0.237 0-0.425 0.194-0.425 0.425s0.194 0.425 0.425 0.425h6.781c0.188 0.738 0.863 1.281 1.656 1.281s1.469-0.544 1.656-1.281h6.781c0.238 0 0.425-0.194 0.425-0.425s-0.188-0.425-0.425-0.425zM15.975 29.431c-0.469 0-0.856-0.381-0.856-0.856 0 0 0 0 0 0s0 0 0 0c0-0.469 0.381-0.856 0.856-0.856s0.856 0.381 0.856 0.856c0 0.475-0.387 0.856-0.856 0.856z"></path>
<path fill="#5e686c" d="M21.238 6.931c0.238 0 0.425-0.194 0.425-0.431-0.006-0.237-0.219-0.444-0.431-0.425-3.381 0.044-6.375 2.719-6.675 6.044l0.006 0.075c0.006 0.156 0.012 0.313 0.012 0.463 0 0.238 0.194 0.425 0.425 0.425 0.238 0 0.425-0.194 0.425-0.425 0-0.162-0.006-0.331-0.012-0.525l-0.012-0.019c0.269-2.819 2.888-5.144 5.838-5.181z"></path>
</svg>
