<!-- Generated by IcoMoon.io -->
<svg version="1.1" xmlns="http://www.w3.org/2000/svg" width="32" height="32" viewBox="0 0 32 32">
<title>cloudsecurity</title>
<path id="svg-ico" fill="#ee5586" d="M15.55 31.938c-2.569 0-4.656-2.087-4.656-4.656s2.088-4.656 4.656-4.656c2.569 0 4.656 2.087 4.656 4.656s-2.087 4.656-4.656 4.656zM15.55 23.469c-2.1 0-3.813 1.706-3.813 3.813s1.713 3.813 3.813 3.813c2.1 0 3.806-1.706 3.806-3.813s-1.706-3.813-3.806-3.813z"></path>
<path id="svg-ico" fill="#ee5586" d="M15.55 29.181c-0.231 0-0.425-0.188-0.425-0.425v-2.363c0-0.231 0.188-0.425 0.425-0.425 0.231 0 0.425 0.188 0.425 0.425v2.363c0 0.231-0.194 0.425-0.425 0.425z"></path>
<path id="svg-ico" fill="#ee5586" d="M17.613 22.688c-0.231 0-0.425-0.188-0.425-0.425v-1.325c0-0.231 0.188-0.425 0.425-0.425s0.425 0.188 0.425 0.425v1.325c0 0.238-0.188 0.425-0.425 0.425z"></path>
<path fill="#5e686c" d="M20.894 21.331h-13.2c-4.156 0-7.537-3.381-7.537-7.537s3.381-7.537 7.537-7.537c0.231 0 0.425 0.188 0.425 0.425s-0.188 0.425-0.425 0.425c-3.688 0-6.688 3-6.688 6.688s3 6.688 6.688 6.688h13.2c5.369 0 9.738-4.369 9.738-9.738 0-5.344-4.325-9.694-9.663-9.738-4.744 0.031-9.813 3.081-9.813 9.738 0 0.231-0.188 0.425-0.425 0.425s-0.425-0.188-0.425-0.425c0-6.869 5.275-10.5 10.55-10.581 0.012 0 0.025 0 0.038 0h0.15c0.012 0 0.025 0 0.038 0 5.75 0.1 10.394 4.813 10.394 10.581 0 5.838-4.75 10.588-10.581 10.588z"></path>
<path fill="#5e686c" d="M14.794 11.169c-0.231 0-0.425-0.188-0.425-0.425 0-0.156-0.006-0.306-0.012-0.463l-0.006-0.075c0.3-3.294 3.263-5.938 6.606-5.981 0 0 0.006 0 0.006 0 0.231 0 0.419 0.188 0.425 0.419s-0.181 0.425-0.419 0.431c-2.925 0.037-5.519 2.338-5.775 5.131l0.012 0.019c0.006 0.188 0.012 0.356 0.012 0.519 0 0.238-0.188 0.425-0.425 0.425z"></path>
<path id="svg-ico" fill="#ee5586" d="M13.481 22.688c-0.231 0-0.425-0.188-0.425-0.425v-1.325c0-0.969 0.787-1.75 1.75-1.75 0.231 0 0.425 0.188 0.425 0.425 0 0.231-0.188 0.425-0.425 0.425-0.5 0-0.906 0.406-0.906 0.906v1.325c0.006 0.231-0.181 0.419-0.419 0.419z"></path>
</svg>
