<!-- Generated by IcoMoon.io -->
<svg version="1.1" xmlns="http://www.w3.org/2000/svg" width="32" height="32" viewBox="0 0 32 32">
<title>cloudowner</title>
<path fill="#5e686c" d="M15.519 20.675c0-3.444 2.875-5.544 5.656-5.575 0.231 0 0.413-0.194 0.413-0.419-0.006-0.231-0.194-0.419-0.419-0.412-3.188 0.037-6.481 2.45-6.481 6.412 0 0.231 0.188 0.419 0.419 0.419 0.225-0.012 0.412-0.194 0.412-0.425z"></path>
<path id="svg-ico" fill="#ee5586" d="M21.281 10.269c-0.012 0-0.025 0-0.038 0h-0.15c-0.012 0-0.025 0-0.038 0-5.188 0.081-10.375 3.656-10.375 10.406 0 0.231 0.188 0.419 0.419 0.419s0.419-0.188 0.419-0.419c0-6.544 4.988-9.537 9.65-9.575 5.244 0.037 9.5 4.319 9.5 9.575 0 5.281-4.294 9.575-9.575 9.575h-12.975c-3.625 0-6.575-2.95-6.575-6.575s2.95-6.575 6.575-6.575c0.231 0 0.419-0.188 0.419-0.419s-0.188-0.419-0.419-0.419c-4.088 0-7.406 3.325-7.406 7.406s3.325 7.406 7.406 7.406h12.975c5.738 0 10.406-4.669 10.406-10.406 0-5.669-4.569-10.3-10.219-10.4z"></path>
<path fill="#5e686c" d="M4.3 8.706h1.663c0.231 0 0.419-0.188 0.419-0.419s-0.188-0.419-0.419-0.419h-1.662c-0.231 0-0.419 0.188-0.419 0.419 0.006 0.231 0.188 0.419 0.419 0.419z"></path>
<path fill="#5e686c" d="M9.287 8.706h1.662c0.231 0 0.419-0.188 0.419-0.419s-0.188-0.419-0.419-0.419h-1.662c-0.231 0-0.419 0.188-0.419 0.419s0.188 0.419 0.419 0.419z"></path>
<path fill="#5e686c" d="M7.625 14.588c3.9 0 7.075-3.175 7.075-7.075s-3.175-7.075-7.075-7.075c-3.9 0-7.075 3.175-7.075 7.075s3.175 7.075 7.075 7.075zM7.625 1.269c1.219 0 2.356 0.35 3.319 0.956l-8.675 2.087c1.094-1.825 3.088-3.044 5.356-3.044zM1.8 5.275l10-2.4c1.269 1.144 2.069 2.8 2.069 4.638 0 3.444-2.8 6.244-6.244 6.244s-6.244-2.8-6.244-6.244c0-0.787 0.15-1.544 0.419-2.237z"></path>
</svg>
