<!-- Generated by IcoMoon.io -->
<svg version="1.1" xmlns="http://www.w3.org/2000/svg" viewBox="0 0 32 32">
<title>cloudwindows</title>
<path fill="#5e686c" d="M4.912 17.456c-0.019 0-0.037 0-0.056-0.006l-3.962-0.506c-0.213-0.025-0.369-0.206-0.369-0.419v-6.137c0-0.231 0.188-0.419 0.419-0.419h7.344c0.231 0 0.419 0.188 0.419 0.419v5.594c0 0.231-0.188 0.419-0.419 0.419s-0.419-0.188-0.419-0.419v-5.169h-6.494v5.344l3.594 0.462c0.231 0.031 0.394 0.244 0.362 0.469-0.031 0.212-0.206 0.369-0.419 0.369z"></path>
<path fill="#5e686c" d="M8.294 9.575h-7.344c-0.231 0-0.419-0.188-0.419-0.419v-6.125c0-0.212 0.156-0.388 0.363-0.419l7.344-1.019c0.119-0.019 0.244 0.019 0.338 0.1s0.144 0.194 0.144 0.319v7.138c0 0.231-0.188 0.425-0.425 0.425zM1.375 8.731h6.5v-6.231l-6.5 0.9v5.331z"></path>
<path fill="#5e686c" d="M19.156 9.575h-9.619c-0.231 0-0.419-0.188-0.419-0.419v-7.237c0-0.212 0.156-0.387 0.363-0.419l9.619-1.331c0.119-0.019 0.244 0.019 0.331 0.1 0.094 0.081 0.144 0.194 0.144 0.319v8.563c0.006 0.231-0.181 0.425-0.419 0.425zM9.956 8.731h8.775v-7.656l-8.775 1.212v6.444z"></path>
<path fill="#5e686c" d="M9.537 16.125c-0.231 0-0.419-0.188-0.419-0.419v-5.313c0-0.231 0.188-0.419 0.419-0.419h9.619c0.231 0 0.419 0.188 0.419 0.419s-0.188 0.419-0.419 0.419h-9.2v4.894c0 0.231-0.188 0.419-0.419 0.419z"></path>
<path fill="#5e686c" d="M15.1 20.775c-0.231 0-0.419-0.188-0.419-0.419 0-4.006 3.338-6.444 6.562-6.488 0 0 0.006 0 0.006 0 0.231 0 0.419 0.188 0.419 0.419 0.006 0.231-0.181 0.425-0.419 0.425-2.813 0.037-5.725 2.156-5.725 5.644 0 0.231-0.188 0.419-0.425 0.419z"></path>
<path id="svg-ico" fill="#ee5586" d="M21.169 30.887h-13.137c-4.138 0-7.5-3.363-7.5-7.5s3.362-7.5 7.5-7.5c0.231 0 0.419 0.188 0.419 0.419s-0.188 0.419-0.419 0.419c-3.669 0.006-6.656 2.988-6.656 6.662s2.987 6.656 6.656 6.656h13.137c5.344 0 9.688-4.35 9.688-9.688 0-5.319-4.306-9.65-9.619-9.688-4.719 0.031-9.769 3.069-9.769 9.688 0 0.231-0.188 0.419-0.419 0.419s-0.419-0.188-0.419-0.419c0-6.831 5.25-10.45 10.5-10.531 0.012 0 0.025 0 0.038 0h0.15c0.012 0 0.025 0 0.038 0 5.719 0.1 10.344 4.787 10.344 10.531 0 5.806-4.725 10.531-10.531 10.531z"></path>
</svg>
