<!-- Generated by IcoMoon.io -->
<svg version="1.1" xmlns="http://www.w3.org/2000/svg" width="32" height="32" viewBox="0 0 32 32">
<title>code</title>
<path fill="#5e686c" d="M16 31.587c-8.6 0-15.588-6.994-15.588-15.588s6.987-15.594 15.588-15.594c3.7 0 7.281 1.319 10.087 3.706 0.175 0.15 0.2 0.419 0.050 0.594-0.15 0.181-0.419 0.2-0.594 0.050-2.656-2.256-6.044-3.5-9.544-3.5-8.131 0-14.744 6.612-14.744 14.744 0 8.125 6.612 14.737 14.744 14.737 8.125 0 14.744-6.613 14.744-14.738 0-3.488-1.238-6.869-3.488-9.519-0.15-0.175-0.131-0.444 0.050-0.594 0.175-0.15 0.444-0.131 0.594 0.050 2.381 2.806 3.688 6.381 3.688 10.069 0 8.587-6.994 15.581-15.588 15.581z"></path>
<path id="svg-ico" fill="#ee5586" d="M20.844 20.269c-0.106 0-0.219-0.044-0.3-0.125-0.163-0.163-0.163-0.431 0-0.6l3.544-3.544-3.544-3.544c-0.163-0.162-0.163-0.431 0-0.6 0.163-0.162 0.431-0.162 0.6 0l3.844 3.844c0.163 0.162 0.163 0.431 0 0.6l-3.844 3.844c-0.081 0.081-0.194 0.125-0.3 0.125z"></path>
<path id="svg-ico" fill="#ee5586" d="M11.15 20.269c-0.106 0-0.219-0.044-0.3-0.125l-3.844-3.844c-0.162-0.163-0.162-0.431 0-0.6l3.844-3.844c0.162-0.162 0.431-0.162 0.6 0 0.162 0.162 0.162 0.431 0 0.6l-3.544 3.544 3.544 3.544c0.162 0.163 0.162 0.431 0 0.6-0.081 0.081-0.188 0.125-0.3 0.125z"></path>
<path fill="#5e686c" d="M13.919 22.769c-0.044 0-0.088-0.006-0.131-0.019-0.219-0.075-0.344-0.313-0.269-0.538l4.231-12.694c0.075-0.219 0.319-0.344 0.538-0.269s0.344 0.313 0.269 0.537l-4.231 12.694c-0.063 0.175-0.231 0.288-0.406 0.288z"></path>
</svg>
