<!-- Generated by IcoMoon.io -->
<svg version="1.1" xmlns="http://www.w3.org/2000/svg" width="32" height="32" viewBox="0 0 32 32">
<title>coffe</title>
<path fill="#5e686c" d="M24.706 14.063c0.238-2.544 0.406-4.4 0.406-4.4 0.012-0.119-0.031-0.244-0.113-0.331s-0.2-0.144-0.319-0.144h-21.719c-0.119 0-0.237 0.050-0.319 0.144-0.081 0.088-0.125 0.213-0.112 0.331 0 0 1.575 17.225 1.725 18.837 0.256 2.706 1.944 3.275 3.313 3.275h12.35c1.931 0 3.256-1.325 3.462-3.45 0.106-1.1 0.769-8.269 1.244-13.394 2.731 0.175 4.894 2.194 4.894 4.65 0 1.813-1.206 3.481-3.075 4.238-0.219 0.087-0.325 0.344-0.238 0.563 0.069 0.169 0.231 0.269 0.4 0.269 0.056 0 0.113-0.012 0.163-0.031 2.194-0.894 3.613-2.869 3.613-5.038 0-2.913-2.506-5.3-5.675-5.519zM22.525 28.238c-0.163 1.7-1.113 2.669-2.6 2.669h-12.35c-1.513 0-2.294-0.794-2.45-2.488-0.144-1.456-1.438-15.588-1.688-18.363h20.769c-0.25 2.744-1.531 16.619-1.681 18.181z"></path>
<path id="svg-ico" fill="#ee5586" d="M8.394 6.213c0.238 0 0.431-0.194 0.431-0.431v-4.138c0-0.238-0.194-0.431-0.431-0.431s-0.431 0.194-0.431 0.431v4.138c0 0.237 0.194 0.431 0.431 0.431z"></path>
<path fill="#ef5587" d="M13.825 7.287c0.238 0 0.431-0.194 0.431-0.431v-6.281c0-0.237-0.194-0.431-0.431-0.431s-0.431 0.194-0.431 0.431v6.281c-0.006 0.237 0.188 0.431 0.431 0.431z"></path>
<path fill="#ef5587" d="M19.25 6.213c0.238 0 0.431-0.194 0.431-0.431v-4.138c0-0.238-0.194-0.431-0.431-0.431s-0.431 0.194-0.431 0.431v4.138c0 0.237 0.194 0.431 0.431 0.431z"></path>
</svg>
