<!-- Generated by IcoMoon.io -->
<svg version="1.1" xmlns="http://www.w3.org/2000/svg" width="32" height="32" viewBox="0 0 32 32">
<title>compass</title>
<path fill="#5e686c" d="M15.963 0.188c-8.7 0-15.781 7.081-15.781 15.781s7.081 15.781 15.781 15.781c8.7 0 15.781-7.081 15.781-15.781s-7.081-15.781-15.781-15.781zM16.4 30.869v-2.869c0-0.244-0.194-0.438-0.438-0.438s-0.438 0.194-0.438 0.438v2.869c-7.869-0.231-14.231-6.594-14.456-14.462h2.869c0.244 0 0.438-0.194 0.438-0.438s-0.194-0.438-0.438-0.438h-2.869c0.225-7.869 6.588-14.231 14.456-14.463v2.938c0 0.244 0.194 0.438 0.438 0.438s0.438-0.194 0.438-0.438v-2.938c7.869 0.231 14.231 6.588 14.462 14.456h-2.869c-0.244 0-0.438 0.194-0.438 0.438s0.194 0.437 0.438 0.437h2.869c-0.231 7.875-6.587 14.238-14.462 14.469z"></path>
<path fill="#5e686c" d="M16.319 16.944c0.087 0.087 0.2 0.131 0.313 0.131s0.225-0.044 0.313-0.131c0.169-0.169 0.169-0.45 0-0.619l-1.331-1.331c-0.169-0.169-0.45-0.169-0.619 0s-0.169 0.45 0 0.619l1.325 1.331z"></path>
<path id="svg-ico" fill="#ee5586" d="M22.769 8.563l-8.781 5.269c-0.012 0.006-0.031 0.019-0.044 0.025 0 0-0.006 0.006-0.006 0.006-0.006 0.006-0.019 0.012-0.025 0.019s-0.012 0.012-0.019 0.019c-0.006 0.006-0.006 0.006-0.012 0.012s-0.012 0.019-0.019 0.025c0 0-0.006 0.006-0.006 0.006-0.006 0.012-0.019 0.025-0.025 0.037 0 0 0 0 0 0v0c0 0 0 0 0 0l-5.269 8.781c-0.106 0.175-0.075 0.394 0.069 0.538 0.081 0.087 0.194 0.131 0.313 0.131 0.075 0 0.156-0.019 0.225-0.063l8.787-5.269c0.012-0.006 0.019-0.012 0.031-0.019 0 0 0.006 0 0.006-0.006 0.012-0.012 0.025-0.019 0.038-0.031 0 0 0.006-0.006 0.006-0.006 0.012-0.012 0.019-0.019 0.025-0.031 0.006-0.006 0.006-0.006 0.012-0.012 0.006-0.012 0.019-0.025 0.025-0.038 0 0 0-0.006 0.006-0.006l5.269-8.787c0.106-0.175 0.075-0.394-0.069-0.537-0.144-0.137-0.369-0.162-0.538-0.063zM17.4 17.406l-7.188 4.313 4.313-7.188 7.188-4.313-4.313 7.188z"></path>
</svg>
