<!-- Generated by IcoMoon.io -->
<svg version="1.1" xmlns="http://www.w3.org/2000/svg" width="32" height="32" viewBox="0 0 32 32">
<title>dedicated</title>
<path id="svg-ico" fill="#ee5586" d="M24.681 17.744c-0.925 0-1.681 0.756-1.681 1.681 0 0.931 0.756 1.681 1.681 1.681s1.681-0.756 1.681-1.681c0-0.925-0.756-1.681-1.681-1.681zM24.681 20.269c-0.462 0-0.844-0.375-0.844-0.844 0-0.462 0.375-0.837 0.844-0.837s0.844 0.375 0.844 0.837c0 0.469-0.381 0.844-0.844 0.844z"></path>
<path fill="#5e686c" d="M29.544 13.537h-27.087c-1.113 0-2.019 0.838-2.019 1.863v8.050c0 1.025 0.906 1.863 2.025 1.863h27.081c1.113 0 2.019-0.837 2.019-1.863v-8.050c0-1.025-0.906-1.863-2.019-1.863zM30.719 23.45c0 0.563-0.531 1.025-1.181 1.025h-27.081c-0.65 0-1.181-0.456-1.181-1.025v-8.050c0-0.563 0.531-1.025 1.181-1.025h27.081c0.65 0 1.181 0.456 1.181 1.025v8.050z"></path>
<path id="svg-ico" fill="#ee5586" d="M24.681 4.662c-0.925 0-1.681 0.756-1.681 1.681 0 0.931 0.756 1.681 1.681 1.681s1.681-0.756 1.681-1.681c0-0.931-0.756-1.681-1.681-1.681zM24.681 7.188c-0.462 0-0.844-0.381-0.844-0.844s0.375-0.838 0.844-0.838 0.844 0.375 0.844 0.838c0 0.463-0.381 0.844-0.844 0.844z"></path>
<path fill="#5e686c" d="M29.544 0.456h-27.087c-1.113 0-2.019 0.831-2.019 1.863v8.050c0 1.025 0.906 1.863 2.025 1.863h27.081c1.113 0 2.019-0.838 2.019-1.863v-8.050c0-1.031-0.906-1.863-2.019-1.863zM30.719 10.369c0 0.563-0.531 1.025-1.181 1.025h-27.081c-0.65 0-1.181-0.456-1.181-1.025v-8.050c0-0.563 0.531-1.025 1.181-1.025h27.081c0.65 0 1.181 0.456 1.181 1.025v8.050z"></path>
<path fill="#5e686c" d="M25.988 29.8h-8.356c-0.15-0.594-0.619-1.056-1.206-1.212v-1.875c0-0.231-0.188-0.419-0.419-0.419s-0.419 0.188-0.419 0.419v1.875c-0.588 0.15-1.056 0.619-1.206 1.212h-8.369c-0.231 0-0.419 0.188-0.419 0.419s0.188 0.419 0.419 0.419h8.356c0.188 0.725 0.85 1.262 1.631 1.262s1.444-0.538 1.631-1.262h8.356c0.231 0 0.419-0.188 0.419-0.419s-0.188-0.419-0.419-0.419zM16 31.063c-0.463 0-0.844-0.375-0.844-0.844 0-0.462 0.375-0.844 0.844-0.844 0.462 0 0.844 0.375 0.844 0.844-0.006 0.462-0.381 0.844-0.844 0.844z"></path>
</svg>
