<!-- Generated by IcoMoon.io -->
<svg version="1.1" xmlns="http://www.w3.org/2000/svg" width="32" height="32" viewBox="0 0 32 32">
<title>device</title>
<path id="svg-ico" fill="#ee5586" d="M16.25 24.794c-0.081 0-0.163-0.025-0.231-0.069l-7.113-4.738c-0.119-0.075-0.188-0.206-0.188-0.35v-2.369c0-0.231 0.188-0.419 0.419-0.419s0.419 0.188 0.419 0.419v2.144l6.925 4.613c0.194 0.131 0.244 0.387 0.119 0.581-0.081 0.119-0.219 0.188-0.35 0.188z"></path>
<path id="svg-ico" fill="#ee5586" d="M11.238 17.413h-4.194c-0.231 0-0.419-0.188-0.419-0.419v-4.194c0-0.231 0.188-0.419 0.419-0.419h4.194c0.231 0 0.419 0.188 0.419 0.419v4.194c0 0.231-0.188 0.419-0.419 0.419zM7.463 16.575h3.35v-3.356h-3.356v3.356z"></path>
<path fill="#5e686c" d="M19.806 4.65c-0.106 0-0.212-0.044-0.294-0.125l-3.262-3.256-3.256 3.256c-0.162 0.162-0.431 0.162-0.594 0s-0.162-0.431 0-0.594l3.55-3.556c0.163-0.163 0.431-0.163 0.594 0l3.556 3.556c0.163 0.162 0.163 0.431 0 0.594-0.081 0.081-0.188 0.125-0.294 0.125z"></path>
<path fill="#5e686c" d="M16.25 27.163c-0.231 0-0.419-0.188-0.419-0.419v-26.069c0-0.231 0.188-0.419 0.419-0.419s0.419 0.188 0.419 0.419v26.069c0 0.231-0.188 0.419-0.419 0.419z"></path>
<path fill="#5e686c" d="M16.25 31.631c-1.387 0-2.519-1.131-2.519-2.519s1.131-2.519 2.519-2.519 2.519 1.131 2.519 2.519-1.131 2.519-2.519 2.519zM16.25 27.438c-0.925 0-1.675 0.75-1.675 1.675s0.75 1.675 1.675 1.675 1.675-0.75 1.675-1.675c0-0.925-0.75-1.675-1.675-1.675z"></path>
<path fill="#5e686c" d="M16.25 21.238c-0.137 0-0.269-0.063-0.35-0.188-0.131-0.194-0.075-0.45 0.119-0.581l6.919-4.613v-2.144c0-0.231 0.188-0.419 0.419-0.419s0.419 0.188 0.419 0.419v2.369c0 0.137-0.069 0.269-0.188 0.35l-7.113 4.738c-0.063 0.044-0.144 0.069-0.225 0.069z"></path>
<path fill="#5e686c" d="M23.356 13.856c-1.387 0-2.519-1.131-2.519-2.519s1.131-2.519 2.519-2.519c1.387 0 2.519 1.131 2.519 2.519s-1.131 2.519-2.519 2.519zM23.356 9.662c-0.925 0-1.675 0.75-1.675 1.675s0.75 1.675 1.675 1.675c0.925 0 1.675-0.75 1.675-1.675s-0.75-1.675-1.675-1.675z"></path>
</svg>
