<!-- Generated by IcoMoon.io -->
<svg version="1.1" xmlns="http://www.w3.org/2000/svg" width="32" height="32" viewBox="0 0 32 32">
<title>diagram</title>
<path fill="#5e686c" d="M27.837 31.656c-2.087 0-3.788-1.7-3.788-3.788s1.7-3.788 3.788-3.788 3.788 1.7 3.788 3.788-1.7 3.788-3.788 3.788zM27.837 24.925c-1.625 0-2.944 1.319-2.944 2.944s1.319 2.944 2.944 2.944 2.944-1.319 2.944-2.944c0-1.625-1.319-2.944-2.944-2.944z"></path>
<path fill="#5e686c" d="M4.013 31.656c-2.087 0-3.788-1.7-3.788-3.788s1.7-3.788 3.788-3.788 3.788 1.7 3.788 3.788-1.7 3.788-3.787 3.788zM4.013 24.925c-1.625 0-2.944 1.319-2.944 2.944s1.319 2.944 2.944 2.944 2.944-1.319 2.944-2.944c0-1.625-1.325-2.944-2.944-2.944z"></path>
<path fill="#5e686c" d="M15.925 28.288c-2.088 0-3.787-1.7-3.787-3.788s1.7-3.788 3.787-3.788 3.788 1.7 3.788 3.788-1.7 3.788-3.787 3.788zM15.925 21.563c-1.625 0-2.944 1.319-2.944 2.944s1.319 2.944 2.944 2.944 2.944-1.319 2.944-2.944c0-1.625-1.319-2.944-2.944-2.944z"></path>
<path fill="#5e686c" d="M15.925 21.563c-0.231 0-0.419-0.188-0.419-0.419v-10.625c0-0.231 0.188-0.419 0.419-0.419s0.419 0.188 0.419 0.419v10.625c0 0.231-0.188 0.419-0.419 0.419z"></path>
<path fill="#5e686c" d="M27.837 16.337h-23.825c-0.231 0-0.419-0.188-0.419-0.419s0.188-0.419 0.419-0.419h23.831c0.231 0 0.419 0.188 0.419 0.419s-0.188 0.419-0.425 0.419z"></path>
<path fill="#5e686c" d="M27.837 24.925c-0.231 0-0.419-0.188-0.419-0.419v-8.588c0-0.231 0.188-0.419 0.419-0.419s0.419 0.188 0.419 0.419v8.588c0.006 0.231-0.181 0.419-0.419 0.419z"></path>
<path fill="#5e686c" d="M4.013 24.925c-0.231 0-0.419-0.188-0.419-0.419v-8.588c0-0.231 0.188-0.419 0.419-0.419s0.419 0.188 0.419 0.419v8.588c0 0.231-0.188 0.419-0.419 0.419z"></path>
<path id="svg-ico" fill="#ee5586" d="M15.925 10.931c-3.012 0-5.469-2.45-5.469-5.469s2.456-5.463 5.469-5.463 5.469 2.45 5.469 5.469-2.456 5.463-5.469 5.463zM15.925 0.844c-2.55 0-4.625 2.075-4.625 4.625s2.075 4.625 4.625 4.625 4.625-2.075 4.625-4.625c0-2.55-2.075-4.625-4.625-4.625z"></path>
</svg>
