<!-- Generated by IcoMoon.io -->
<svg version="1.1" xmlns="http://www.w3.org/2000/svg" width="32" height="32" viewBox="0 0 32 32">
<title>document</title>
<path id="svg-ico" fill="#ee5586" d="M10.506 22.188c-1.431 0-2.588 1.163-2.588 2.587s1.162 2.587 2.588 2.587c1.431 0 2.588-1.163 2.588-2.587 0.006-1.425-1.156-2.587-2.588-2.587zM10.506 26.506c-0.95 0-1.725-0.775-1.725-1.725s0.775-1.725 1.725-1.725c0.95 0 1.725 0.775 1.725 1.725s-0.769 1.725-1.725 1.725z"></path>
<path id="svg-ico" fill="#ee5586" d="M22.575 23.181h-6.044c-0.238 0-0.431 0.194-0.431 0.431s0.194 0.431 0.431 0.431h6.044c0.238 0 0.431-0.194 0.431-0.431s-0.188-0.431-0.431-0.431z"></path>
<path id="svg-ico" fill="#ee5586" d="M22.575 26.613h-6.044c-0.238 0-0.431 0.194-0.431 0.431s0.194 0.431 0.431 0.431h6.044c0.238 0 0.431-0.194 0.431-0.431 0-0.244-0.188-0.431-0.431-0.431z"></path>
<path fill="#5e686c" d="M27.931 7.713c0-0.156-0.087-0.3-0.212-0.375l-7.038-7.031c-0.012-0.013-0.025-0.019-0.031-0.031 0 0 0 0 0 0-0.012-0.006-0.019-0.019-0.031-0.025 0 0-0.006-0.006-0.006-0.006-0.006-0.006-0.019-0.013-0.025-0.019-0.006 0-0.006-0.006-0.012-0.006-0.006-0.006-0.019-0.006-0.025-0.013-0.006 0-0.006 0-0.012-0.006s-0.019-0.006-0.025-0.013c-0.006 0-0.006 0-0.012-0.006-0.006 0-0.019-0.006-0.025-0.006s-0.012 0-0.019 0c-0.006 0-0.019 0-0.025-0.006-0.006 0-0.019 0-0.025 0s-0.006 0-0.012 0c0 0 0 0 0 0v0h-15.906c-0.237 0-0.431 0.194-0.431 0.431v30.956c0 0.238 0.194 0.431 0.431 0.431h23.012c0.238 0 0.431-0.194 0.431-0.431v-23.844c0 0 0 0 0 0zM20.806 1.656l5.625 5.625h-5.625v-5.625zM4.919 31.137v-30.094h15.025v6.669c0 0.237 0.194 0.431 0.431 0.431h6.688v22.994h-22.144z"></path>
</svg>
