<!-- Generated by IcoMoon.io -->
<svg version="1.1" xmlns="http://www.w3.org/2000/svg" width="32" height="32" viewBox="0 0 32 32">
<title>dollar</title>
<path fill="#5e686c" d="M16.519 30.225c-3.725 0-6.756-3.031-6.756-6.756 0-0.238 0.194-0.431 0.431-0.431s0.431 0.194 0.431 0.431c0 3.256 2.65 5.9 5.9 5.9 3.256 0 5.9-2.65 5.9-5.9 0-3.106-2.494-5.481-6.212-5.906-4.231-0.481-7.306-3.575-7.306-7.35 0-4.056 3.3-7.356 7.356-7.356s7.356 3.3 7.356 7.356c0 0.238-0.194 0.431-0.431 0.431s-0.431-0.194-0.431-0.431c0-3.581-2.913-6.5-6.5-6.5s-6.494 2.912-6.494 6.5c0 3.388 2.694 6.062 6.544 6.5 4.169 0.475 6.969 3.194 6.969 6.756 0.006 3.725-3.031 6.756-6.756 6.756z"></path>
<path id="svg-ico" fill="#ee5586" d="M16.256 31.594c-0.238 0-0.431-0.194-0.431-0.431v-30.519c0-0.237 0.194-0.431 0.431-0.431s0.431 0.194 0.431 0.431v30.519c0 0.244-0.194 0.431-0.431 0.431z"></path>
</svg>
