<!-- Generated by IcoMoon.io -->
<svg version="1.1" xmlns="http://www.w3.org/2000/svg" width="32" height="32" viewBox="0 0 32 32">
<title>dribbble</title>
<path id="svg-ico" fill="#ee5586" d="M22.669 30.313c-0.212 0-0.4-0.156-0.425-0.375-1.325-10.631-5.056-18.988-12.463-27.925-0.15-0.181-0.125-0.45 0.056-0.606 0.181-0.15 0.45-0.125 0.606 0.056 7.519 9.075 11.306 17.563 12.656 28.363 0.031 0.238-0.137 0.45-0.375 0.481-0.019 0-0.038 0.006-0.056 0.006z"></path>
<path fill="#5e686c" d="M15.969 31.837c-8.731 0-15.838-7.106-15.838-15.838 0-8.738 7.106-15.844 15.838-15.844 8.738 0 15.844 7.106 15.844 15.844 0 8.731-7.106 15.838-15.844 15.838zM15.969 1.012c-8.256 0-14.981 6.725-14.981 14.988s6.719 14.981 14.981 14.981 14.988-6.725 14.988-14.981-6.725-14.988-14.988-14.988z"></path>
<path fill="#5e686c" d="M0.625 14.925c-0.231 0-0.425-0.188-0.431-0.419-0.006-0.238 0.181-0.431 0.419-0.438 13.944-0.313 20.762-2.681 26.038-9.063 0.15-0.181 0.419-0.206 0.606-0.056 0.181 0.15 0.206 0.419 0.056 0.606-5.456 6.594-12.438 9.050-26.675 9.369-0.006 0-0.006 0-0.012 0z"></path>
<path fill="#5e686c" d="M5.4 27.644c-0.081 0-0.162-0.025-0.237-0.069-0.2-0.131-0.256-0.394-0.125-0.594 6.544-9.956 14.919-13.012 26.356-9.625 0.225 0.069 0.356 0.306 0.288 0.531s-0.306 0.356-0.531 0.288c-11.019-3.262-19.087-0.319-25.394 9.275-0.081 0.125-0.219 0.194-0.356 0.194z"></path>
</svg>
