<!-- Generated by IcoMoon.io -->
<svg version="1.1" xmlns="http://www.w3.org/2000/svg" width="32" height="32" viewBox="0 0 32 32">
<title>drives</title>
<path fill="#5e686b" d="M27.656 0.469h-23.313c-0.237 0-0.431 0.194-0.431 0.431v30.113c0 0.238 0.194 0.431 0.431 0.431h23.313c0.238 0 0.431-0.194 0.431-0.431v-30.113c0-0.238-0.194-0.431-0.431-0.431zM27.225 30.581h-22.45v-29.25h22.456l-0.006 29.25z"></path>
<path id="svg-ico" fill="#ee5586" d="M16 22.7c1.306 0 2.531-0.375 3.563-1.025l1.925 2.887c0.081 0.125 0.219 0.194 0.356 0.194 0.081 0 0.163-0.025 0.238-0.069 0.194-0.131 0.25-0.4 0.119-0.594l-1.944-2.913c1.512-1.238 2.481-3.119 2.481-5.219 0-3.719-3.025-6.744-6.744-6.744s-6.744 3.025-6.744 6.744c0.006 3.712 3.031 6.738 6.75 6.738zM16 10.069c3.244 0 5.887 2.638 5.887 5.888s-2.637 5.887-5.887 5.887c-3.244 0-5.887-2.637-5.887-5.887s2.644-5.887 5.887-5.887z"></path>
<path fill="#5e686b" d="M16 18.813c1.575 0 2.856-1.281 2.856-2.856s-1.281-2.856-2.856-2.856c-1.575 0-2.856 1.281-2.856 2.856s1.281 2.856 2.856 2.856zM16 13.956c1.1 0 2 0.9 2 2s-0.9 2-2 2c-1.1 0-2-0.9-2-2 0-1.106 0.9-2 2-2z"></path>
</svg>
