<!-- Generated by IcoMoon.io -->
<svg version="1.1" xmlns="http://www.w3.org/2000/svg" width="32" height="32" viewBox="0 0 32 32">
<title>drone</title>
<path fill="#5e686c" d="M20.525 12c-0.106 0-0.212-0.044-0.294-0.125-0.163-0.162-0.163-0.431 0-0.594l4.037-4.037c0.163-0.162 0.431-0.162 0.594 0s0.163 0.431 0 0.594l-4.038 4.037c-0.081 0.088-0.188 0.125-0.3 0.125z"></path>
<path fill="#5e686c" d="M7.563 24.969c-0.106 0-0.213-0.044-0.294-0.125-0.162-0.163-0.162-0.431 0-0.594l4.069-4.069c0.162-0.163 0.431-0.163 0.594 0s0.162 0.431 0 0.594l-4.069 4.069c-0.088 0.081-0.194 0.125-0.3 0.125z"></path>
<path fill="#5e686c" d="M24.525 24.9c-0.106 0-0.212-0.044-0.294-0.125l-4-4c-0.163-0.163-0.163-0.431 0-0.594s0.431-0.163 0.594 0l4 4c0.163 0.163 0.163 0.431 0 0.594-0.081 0.081-0.194 0.125-0.3 0.125z"></path>
<path fill="#5e686c" d="M11.631 12c-0.106 0-0.213-0.044-0.294-0.125l-4.075-4.063c-0.162-0.162-0.162-0.431 0-0.594s0.431-0.162 0.594 0l4.069 4.069c0.162 0.162 0.162 0.431 0 0.594-0.081 0.081-0.188 0.119-0.294 0.119z"></path>
<path fill="#5e686c" d="M4.594 4.969c-0.106 0-0.213-0.044-0.294-0.125l-1.106-1.106c-0.163-0.163-0.163-0.431 0-0.594s0.431-0.163 0.594 0l1.106 1.106c0.162 0.162 0.162 0.431 0 0.594-0.081 0.081-0.194 0.125-0.3 0.125z"></path>
<path fill="#5e686c" d="M6.081 8.55c-1.388 0-2.519-1.131-2.519-2.519s1.131-2.519 2.519-2.519 2.519 1.131 2.519 2.519c-0.006 1.388-1.131 2.519-2.519 2.519zM6.081 4.35c-0.925 0-1.675 0.75-1.675 1.675s0.75 1.675 1.675 1.675 1.675-0.75 1.675-1.675c0-0.919-0.75-1.675-1.675-1.675z"></path>
<path fill="#5e686c" d="M7.563 4.969c-0.106 0-0.213-0.044-0.294-0.125-0.162-0.162-0.162-0.431 0-0.594l3.519-3.519c0.162-0.162 0.431-0.162 0.594 0s0.162 0.431 0 0.594l-3.519 3.519c-0.088 0.081-0.194 0.125-0.3 0.125z"></path>
<path fill="#5e686c" d="M1.075 11.45c-0.106 0-0.213-0.044-0.294-0.125-0.162-0.162-0.162-0.431 0-0.594l3.519-3.519c0.162-0.162 0.431-0.162 0.594 0s0.162 0.431 0 0.594l-3.519 3.525c-0.081 0.081-0.194 0.119-0.3 0.119z"></path>
<path fill="#5e686c" d="M3.487 28.975c-0.106 0-0.212-0.044-0.294-0.125-0.163-0.163-0.163-0.431 0-0.594l1.106-1.106c0.162-0.163 0.431-0.163 0.594 0s0.162 0.431 0 0.594l-1.106 1.106c-0.087 0.081-0.194 0.125-0.3 0.125z"></path>
<path fill="#5e686c" d="M6.081 28.475c-1.388 0-2.519-1.131-2.519-2.519s1.131-2.519 2.519-2.519 2.519 1.131 2.519 2.519c-0.006 1.394-1.131 2.519-2.519 2.519zM6.081 24.281c-0.925 0-1.675 0.75-1.675 1.675s0.75 1.675 1.675 1.675 1.675-0.75 1.675-1.675c0-0.919-0.75-1.675-1.675-1.675z"></path>
<path fill="#5e686c" d="M4.594 24.9c-0.106 0-0.213-0.044-0.294-0.125l-3.519-3.519c-0.162-0.163-0.162-0.431 0-0.594s0.431-0.163 0.594 0l3.519 3.519c0.162 0.163 0.162 0.431 0 0.594-0.081 0.081-0.194 0.125-0.3 0.125z"></path>
<path fill="#5e686c" d="M11.081 31.381c-0.106 0-0.213-0.044-0.294-0.125l-3.519-3.519c-0.162-0.163-0.162-0.431 0-0.594s0.431-0.163 0.594 0l3.519 3.519c0.162 0.163 0.162 0.431 0 0.594-0.088 0.087-0.194 0.125-0.3 0.125z"></path>
<path fill="#5e686c" d="M27.494 4.963c-0.106 0-0.212-0.044-0.294-0.125-0.163-0.162-0.163-0.431 0-0.594l1.106-1.106c0.163-0.163 0.431-0.163 0.594 0s0.163 0.431 0 0.594l-1.106 1.106c-0.087 0.088-0.194 0.125-0.3 0.125z"></path>
<path fill="#5e686c" d="M26.012 8.55c-1.387 0-2.519-1.131-2.519-2.519s1.131-2.519 2.519-2.519c1.387 0 2.519 1.131 2.519 2.519-0.006 1.388-1.131 2.519-2.519 2.519zM26.012 4.35c-0.925 0-1.675 0.75-1.675 1.675s0.75 1.675 1.675 1.675c0.925 0 1.675-0.75 1.675-1.675 0-0.919-0.756-1.675-1.675-1.675z"></path>
<path fill="#5e686c" d="M31.012 11.45c-0.106 0-0.212-0.044-0.294-0.125l-3.519-3.525c-0.163-0.162-0.163-0.431 0-0.594s0.431-0.162 0.594 0l3.519 3.525c0.163 0.162 0.163 0.431 0 0.594-0.087 0.088-0.194 0.125-0.3 0.125z"></path>
<path fill="#5e686c" d="M24.525 4.969c-0.106 0-0.212-0.044-0.294-0.125l-3.519-3.519c-0.163-0.163-0.163-0.431 0-0.594s0.431-0.162 0.594 0l3.519 3.519c0.163 0.162 0.163 0.431 0 0.594-0.081 0.081-0.188 0.125-0.3 0.125z"></path>
<path fill="#5e686c" d="M28.6 28.975c-0.106 0-0.212-0.044-0.294-0.125l-1.106-1.106c-0.163-0.163-0.163-0.431 0-0.594s0.431-0.163 0.594 0l1.106 1.106c0.163 0.163 0.163 0.431 0 0.594-0.087 0.081-0.194 0.125-0.3 0.125z"></path>
<path fill="#5e686c" d="M26.006 28.475c-1.387 0-2.519-1.131-2.519-2.519s1.131-2.519 2.519-2.519c1.387 0 2.519 1.131 2.519 2.519 0 1.394-1.131 2.519-2.519 2.519zM26.006 24.281c-0.925 0-1.675 0.75-1.675 1.675s0.75 1.675 1.675 1.675c0.925 0 1.675-0.75 1.675-1.675 0.006-0.919-0.75-1.675-1.675-1.675z"></path>
<path fill="#5e686c" d="M21.006 31.381c-0.106 0-0.212-0.044-0.294-0.125-0.163-0.163-0.163-0.431 0-0.594l3.519-3.519c0.163-0.163 0.431-0.163 0.594 0s0.163 0.431 0 0.594l-3.519 3.519c-0.087 0.087-0.194 0.125-0.3 0.125z"></path>
<path fill="#5e686c" d="M27.494 24.9c-0.106 0-0.212-0.044-0.294-0.125-0.163-0.163-0.163-0.431 0-0.594l3.519-3.519c0.163-0.163 0.431-0.163 0.594 0s0.163 0.431 0 0.594l-3.519 3.519c-0.087 0.081-0.194 0.125-0.3 0.125z"></path>
<path id="svg-ico" fill="#ee5586" d="M16.081 22.744c-3.7 0-6.713-3.012-6.713-6.712s3.013-6.713 6.713-6.713 6.713 3.013 6.713 6.713-3.012 6.712-6.712 6.712zM16.081 10.156c-3.238 0-5.875 2.637-5.875 5.875s2.631 5.875 5.875 5.875 5.875-2.637 5.875-5.875c-0.006-3.238-2.637-5.875-5.875-5.875z"></path>
</svg>
