<!-- Generated by IcoMoon.io -->
<svg version="1.1" xmlns="http://www.w3.org/2000/svg" width="32" height="32" viewBox="0 0 32 32">
<title>drop</title>
<path fill="#5e686c" d="M16.25 31.45c-3.412 0-7.219-2.038-9.25-4.95-1.569-2.25-1.95-4.806-1.063-7.206 2.231-6.088 9.65-18.050 9.963-18.556 0.075-0.119 0.206-0.194 0.35-0.2 0.125 0.006 0.275 0.069 0.356 0.188 0.313 0.475 7.744 11.694 9.975 18.581 0.887 2.744 0.5 5.369-1.119 7.606-1.988 2.712-5.681 4.538-9.212 4.538zM16.256 1.738c-1.519 2.481-7.606 12.575-9.544 17.837-1.006 2.738-0.031 5.019 0.969 6.444 1.887 2.706 5.412 4.594 8.569 4.594 3.275 0 6.7-1.688 8.525-4.194 1.456-2.006 1.806-4.375 1-6.856-1.925-5.925-7.975-15.45-9.519-17.825z"></path>
<path id="svg-ico" fill="#ee5586" d="M16.25 27.606c-3.744 0-6.794-3.044-6.794-6.794 0-0.231 0.188-0.419 0.419-0.419s0.419 0.188 0.419 0.419c0 3.281 2.669 5.956 5.956 5.956 0.231 0 0.419 0.188 0.419 0.419-0.006 0.238-0.188 0.419-0.419 0.419z"></path>
</svg>
