<!-- Generated by IcoMoon.io -->
<svg version="1.1" xmlns="http://www.w3.org/2000/svg" width="32" height="32" viewBox="0 0 32 32">
<title>eco</title>
<path fill="#5e686c" d="M16.769 25.050h-0.981c-0.044 0-0.081-0.006-0.125-0.019-2.65-0.794-8.162-2.456-8.162-9.119 0-6.438 4.419-11.244 7.969-15.106l0.494-0.537c0.163-0.175 0.469-0.175 0.631 0l0.494 0.537c3.55 3.862 7.975 8.669 7.975 15.106 0 6.662-5.519 8.325-8.169 9.119-0.038 0.012-0.081 0.019-0.125 0.019zM15.85 24.194h0.856c2.656-0.8 7.5-2.3 7.5-8.281 0-6.106-4.294-10.775-7.744-14.531l-0.181-0.194-0.181 0.2c-3.45 3.75-7.744 8.425-7.744 14.525 0 5.981 4.838 7.481 7.494 8.281z"></path>
<path id="svg-ico" fill="#ee5586" d="M16.281 31.719c-0.238 0-0.431-0.194-0.431-0.425v-23.281c0-0.237 0.194-0.425 0.431-0.425s0.425 0.194 0.425 0.425v23.281c0 0.231-0.194 0.425-0.425 0.425z"></path>
<path id="svg-ico" fill="#ee5586" d="M16.281 13.662c-0.113 0-0.219-0.044-0.3-0.125l-2.95-2.944c-0.169-0.169-0.169-0.438 0-0.606s0.438-0.169 0.606 0l2.95 2.944c0.169 0.169 0.169 0.438 0 0.606-0.087 0.081-0.2 0.125-0.306 0.125z"></path>
<path id="svg-ico" fill="#ee5586" d="M16.281 20.844c-0.113 0-0.219-0.044-0.3-0.125-0.169-0.169-0.169-0.438 0-0.606l3.444-3.444c0.169-0.169 0.438-0.169 0.606 0s0.169 0.438 0 0.606l-3.444 3.444c-0.087 0.087-0.2 0.125-0.306 0.125z"></path>
</svg>
