<!-- Generated by IcoMoon.io -->
<svg version="1.1" xmlns="http://www.w3.org/2000/svg" width="32" height="32" viewBox="0 0 32 32">
<title>email</title>
<path fill="#5e686c" d="M1.406 26.581c-0.094 0-0.181-0.031-0.262-0.087-0.188-0.144-0.219-0.413-0.075-0.594l10.25-13.181c0.144-0.188 0.412-0.219 0.594-0.075 0.188 0.144 0.219 0.412 0.075 0.594l-10.25 13.181c-0.081 0.106-0.206 0.163-0.331 0.163z"></path>
<path fill="#5e686c" d="M30.694 26.581c-0.125 0-0.25-0.056-0.337-0.163l-10.25-13.181c-0.144-0.188-0.113-0.45 0.075-0.594 0.181-0.144 0.45-0.113 0.594 0.075l10.25 13.181c0.144 0.188 0.113 0.45-0.075 0.594-0.069 0.063-0.163 0.087-0.256 0.087z"></path>
<path id="svg-ico" fill="#ee5586" d="M16.050 16.331c-0.088 0-0.175-0.025-0.25-0.081l-13.912-10.256c-0.188-0.138-0.231-0.406-0.087-0.594 0.137-0.188 0.406-0.231 0.594-0.088l13.663 10.069 13.656-10.069c0.188-0.138 0.456-0.1 0.594 0.088s0.1 0.456-0.087 0.594l-13.919 10.256c-0.075 0.056-0.163 0.081-0.25 0.081z"></path>
<path fill="#5e686c" d="M29.969 27.313h-27.831c-1.044 0-1.887-0.844-1.887-1.881v-18.319c0-1.037 0.844-1.881 1.887-1.881 0.231 0 0.425 0.188 0.425 0.425 0 0.231-0.188 0.425-0.425 0.425-0.575 0-1.038 0.463-1.038 1.037v18.319c0 0.569 0.469 1.038 1.038 1.038h27.831c0.575 0 1.038-0.462 1.038-1.038v-18.325c0-0.569-0.469-1.037-1.038-1.037-0.231 0-0.425-0.188-0.425-0.425 0-0.231 0.188-0.425 0.425-0.425 1.038 0 1.887 0.844 1.887 1.881v18.319c0 1.044-0.85 1.887-1.887 1.887z"></path>
<path id="svg-ico" fill="#ee5586" d="M29.969 6.081h-27.831c-0.231 0-0.425-0.188-0.425-0.425 0-0.231 0.188-0.425 0.425-0.425h27.831c0.231 0 0.425 0.188 0.425 0.425-0.006 0.231-0.194 0.425-0.425 0.425z"></path>
</svg>
