<!-- Generated by IcoMoon.io -->
<svg version="1.1" xmlns="http://www.w3.org/2000/svg" width="32" height="32" viewBox="0 0 32 32">
<title>eye</title>
<path fill="#5e686c" d="M16.113 25.344c-8.319 0-15.175-8.444-15.463-8.806-0.119-0.15-0.119-0.369 0-0.519 0.281-0.363 7.031-8.806 15.463-8.806 8.319 0 15.175 8.444 15.463 8.806 0.119 0.15 0.119 0.369 0 0.519-0.288 0.363-7.144 8.806-15.462 8.806zM1.519 16.281c1.231 1.419 7.469 8.231 14.594 8.231s13.363-6.806 14.594-8.231c-1.231-1.425-7.469-8.231-14.594-8.231-7.225 0-13.381 6.8-14.594 8.231z"></path>
<path id="svg-ico" fill="#ee5586" d="M16.113 21.025c-3.806 0-6.906-3.1-6.906-6.906s3.094-6.906 6.906-6.906c3.806 0 6.9 3.1 6.9 6.906 0.006 3.806-3.094 6.906-6.9 6.906zM16.113 8.050c-3.35 0-6.069 2.725-6.069 6.069 0 3.35 2.725 6.069 6.069 6.069s6.069-2.725 6.069-6.069c0-3.35-2.719-6.069-6.069-6.069z"></path>
<path fill="#5e686c" d="M16.113 16.694c-1.419 0-2.581-1.156-2.581-2.575 0-0.231 0.188-0.419 0.419-0.419s0.419 0.188 0.419 0.419c0 0.963 0.781 1.744 1.744 1.744 0.231 0 0.419 0.188 0.419 0.419s-0.188 0.413-0.419 0.413z"></path>
</svg>
