<!-- Generated by IcoMoon.io -->
<svg version="1.1" xmlns="http://www.w3.org/2000/svg" width="32" height="32" viewBox="0 0 32 32">
<title>facebook</title>
<path fill="#5e686c" d="M18.613 31.85h-6.206c-0.238 0-0.431-0.194-0.431-0.431v-14.981h-2.669c-0.238 0-0.431-0.194-0.431-0.431v-4.625c0-0.238 0.194-0.431 0.431-0.431h2.669v-4.194c0-4.375 1.713-6.6 5.094-6.6h6.206c0.238 0 0.431 0.194 0.431 0.431s-0.194 0.431-0.431 0.431h-6.212c-3.787 0-4.225 3.269-4.225 5.731v4.625c0 0.238-0.194 0.431-0.431 0.431h-2.669v3.756h2.669c0.238 0 0.431 0.194 0.431 0.431v14.975h5.775c0.238 0 0.431 0.194 0.431 0.431 0.006 0.256-0.188 0.45-0.431 0.45z"></path>
<path id="svg-ico" fill="#ee5586" d="M18.613 31.85c-0.238 0-0.431-0.194-0.431-0.431v-15.413c0-0.238 0.194-0.431 0.431-0.431h4.219v-3.756h-4.219c-0.113 0-0.225-0.044-0.306-0.125s-0.125-0.194-0.125-0.306l0.006-2.581c0-1.781 0.819-2.481 2.913-2.481h1.738v-5.731c0-0.237 0.194-0.431 0.431-0.431s0.431 0.194 0.431 0.431v6.162c0 0.237-0.194 0.431-0.431 0.431h-2.169c-1.837 0-2.044 0.519-2.044 1.613l-0.006 2.144h4.219c0.238 0 0.431 0.194 0.431 0.431v4.625c0 0.238-0.194 0.431-0.431 0.431h-4.219v14.975c0 0.25-0.194 0.444-0.438 0.444z"></path>
</svg>
