<!-- Generated by IcoMoon.io -->
<svg version="1.1" xmlns="http://www.w3.org/2000/svg" width="32" height="32" viewBox="0 0 32 32">
<title>factory</title>
<path fill="#5e686c" d="M9.588 5.556h-8.875c-0.237 0-0.425-0.194-0.425-0.425v-4.375c0-0.238 0.194-0.425 0.425-0.425h8.875c0.238 0 0.425 0.194 0.425 0.425v4.375c0 0.231-0.188 0.425-0.425 0.425zM1.137 4.7h8.025v-3.519h-8.025v3.519z"></path>
<path fill="#5e686c" d="M31.363 31.844h-30.663c-0.237 0-0.425-0.194-0.425-0.425v-24.056c0-0.237 0.194-0.425 0.425-0.425h8.875c0.238 0 0.425 0.194 0.425 0.425v6l21.238-6.406c0.131-0.037 0.269-0.013 0.375 0.069s0.175 0.206 0.175 0.344v24.050c0 0.231-0.194 0.425-0.425 0.425zM1.125 30.988h29.806v-23.050l-21.238 6.406c-0.131 0.037-0.269 0.012-0.375-0.069s-0.175-0.206-0.175-0.344v-6.144h-8.019v23.2z"></path>
<path id="svg-ico" fill="#ee5586" d="M16.044 25.131h-6.456c-0.238 0-0.425-0.194-0.425-0.425v-6.363c0-0.238 0.194-0.425 0.425-0.425h6.456c0.238 0 0.425 0.194 0.425 0.425v6.363c0 0.238-0.188 0.425-0.425 0.425zM10.012 24.281h5.6v-5.506h-5.6v5.506z"></path>
<path id="svg-ico" fill="#ee5586" d="M26.938 25.131h-6.456c-0.238 0-0.425-0.194-0.425-0.425v-6.363c0-0.238 0.194-0.425 0.425-0.425h6.456c0.238 0 0.425 0.194 0.425 0.425v6.363c0 0.238-0.188 0.425-0.425 0.425zM20.906 24.281h5.6v-5.506h-5.6v5.506z"></path>
</svg>
