<!-- Generated by IcoMoon.io -->
<svg version="1.1" xmlns="http://www.w3.org/2000/svg" width="32" height="32" viewBox="0 0 32 32">
<title>filter</title>
<path fill="#5e686b" d="M31.825 0.694c-0.169-0.325-0.5-0.525-0.869-0.525h-29.825c-0.369 0-0.7 0.2-0.869 0.525s-0.144 0.713 0.063 1.006l13.756 20.469v9.156c0 0.238 0.194 0.425 0.425 0.425 0.238 0 0.425-0.194 0.425-0.425v-9.287c0-0.087-0.025-0.169-0.075-0.238l-13.825-20.581c-0.037-0.050-0.025-0.1-0.006-0.131 0.012-0.025 0.044-0.069 0.113-0.069h29.825c0.063 0 0.094 0.038 0.113 0.069s0.025 0.075-0.012 0.137l-13.838 20.575c-0.050 0.069-0.075 0.156-0.075 0.238v6.844c0 0.238 0.194 0.425 0.425 0.425 0.238 0 0.425-0.194 0.425-0.425v-6.712l13.762-20.462c0.206-0.3 0.231-0.688 0.063-1.012z"></path>
<path id="svg-ico" fill="#ee5586" d="M23.675 7.219c-0.131-0.144-0.344-0.188-0.519-0.094-0.006 0.006-0.669 0.338-1.913 0.338-1.512 0-3.2-0.469-5.006-1.4-1.175-0.606-2.331-0.912-3.431-0.912-2.85 0-4.362 2.013-4.425 2.094-0.106 0.144-0.113 0.344-0.012 0.494l7.313 10.881c0.081 0.119 0.213 0.188 0.356 0.188s0.275-0.069 0.356-0.188l7.313-10.881c0.119-0.156 0.1-0.369-0.031-0.519zM16.044 17.619l-6.775-10.081c0.444-0.469 1.656-1.525 3.544-1.525 0.963 0 1.988 0.275 3.037 0.813 1.931 0.994 3.744 1.494 5.394 1.494 0.425 0 0.794-0.037 1.106-0.088l-6.306 9.388z"></path>
</svg>
