<!-- Generated by IcoMoon.io -->
<svg version="1.1" xmlns="http://www.w3.org/2000/svg" width="32" height="32" viewBox="0 0 32 32">
<title>flagpoint</title>
<path id="svg-ico" fill="#ee5586" d="M27.113 16.837h-22.356c-0.231 0-0.419-0.188-0.419-0.419s0.188-0.419 0.419-0.419h21.519l-4.719-6.406c-0.113-0.15-0.113-0.35 0-0.5l4.719-6.406h-21.519c-0.231 0-0.419-0.188-0.419-0.419s0.188-0.419 0.419-0.419h22.356c0.156 0 0.306 0.087 0.375 0.231s0.056 0.313-0.038 0.438l-5.031 6.831 5.031 6.831c0.094 0.125 0.106 0.3 0.038 0.438-0.069 0.131-0.212 0.219-0.375 0.219z"></path>
<path fill="#5e686c" d="M4.756 31.744c-0.231 0-0.419-0.188-0.419-0.419v-30.594c0-0.231 0.188-0.419 0.419-0.419s0.419 0.188 0.419 0.419v30.587c0.006 0.238-0.181 0.425-0.419 0.425z"></path>
</svg>
