<!-- Generated by IcoMoon.io -->
<svg version="1.1" xmlns="http://www.w3.org/2000/svg" width="32" height="32" viewBox="0 0 32 32">
<title>folder</title>
<path fill="#5e686c" d="M29.119 29.975h-26.169c-1.556 0-2.819-1.256-2.819-2.8v-14.519c0-0.238 0.188-0.425 0.425-0.425s0.425 0.188 0.425 0.425v14.519c0 1.075 0.881 1.95 1.969 1.95h26.169c1.087 0 1.969-0.875 1.969-1.95v-17.494c0-0.238 0.188-0.425 0.425-0.425s0.425 0.188 0.425 0.425v17.494c0 1.544-1.262 2.8-2.819 2.8z"></path>
<path fill="#5e686c" d="M10.331 15.944h-5.231c-2.469 0-4.037-0.994-4.938-3.125-0.094-0.219 0.013-0.469 0.225-0.556 0.219-0.088 0.469 0.012 0.556 0.225 0.769 1.825 2.013 2.6 4.15 2.6h5.231c1.387 0 1.756-0.494 2.225-1.119 0.581-0.769 1.238-1.644 3.544-1.644h13.038c0.906 0 1.944-0.269 1.944-2.381 0-0.238 0.188-0.425 0.425-0.425s0.425 0.188 0.425 0.425c0 2.669-1.519 3.231-2.794 3.231h-13.025c-1.881 0-2.338 0.606-2.869 1.306-0.512 0.688-1.1 1.463-2.906 1.463z"></path>
<path id="svg-ico" fill="#ee5586" d="M0.138 12.556v-4.044c0-2.813 0.563-6.044 4.969-6.044h5.231c1.813 0 2.394 0.781 2.906 1.469 0.525 0.706 0.981 1.319 2.869 1.319h13.037c1.275 0 2.794 0.563 2.794 3.256v1.444h-0.85v-1.444c0-2.131-1.038-2.406-1.944-2.406h-13.044c-2.306 0-2.994-0.919-3.55-1.656-0.469-0.631-0.844-1.125-2.225-1.125h-5.231c-2.925 0-4.119 1.506-4.119 5.194v4.044l-0.844-0.006z"></path>
</svg>
