<!-- Generated by IcoMoon.io -->
<svg version="1.1" xmlns="http://www.w3.org/2000/svg" width="32" height="32" viewBox="0 0 32 32">
<title>freenetwork</title>
<path fill="#5e686c" d="M11.637 9.012c-0.019 0-0.031 0-0.050 0l-1.85-0.206c-0.119-0.012-0.225-0.075-0.294-0.169s-0.1-0.213-0.081-0.331l0.206-1.162c0.019-0.125 0.094-0.231 0.2-0.294l0.856-0.513 0.094-0.606-0.119-0.463c-0.056-0.231 0.081-0.463 0.313-0.519 0.225-0.056 0.463 0.081 0.519 0.313l0.137 0.55c0.012 0.056 0.019 0.112 0.006 0.169l-0.137 0.894c-0.019 0.125-0.094 0.237-0.2 0.3l-0.863 0.519-0.094 0.519 1.256 0.137 1.406-0.794 0.844-0.844c-0.106-0.169-0.2-0.388-0.175-0.638 0.019-0.213 0.131-0.519 0.556-0.75 0.656-0.356 1.025-0.838 1.025-0.844 0.144-0.188 0.412-0.225 0.6-0.081s0.225 0.412 0.088 0.6c-0.019 0.025-0.475 0.625-1.3 1.075-0.081 0.044-0.113 0.075-0.113 0.088 0.006 0.037 0.094 0.162 0.181 0.231 0.094 0.075 0.15 0.188 0.156 0.313 0.006 0.119-0.037 0.237-0.125 0.325l-1.162 1.162c-0.025 0.025-0.056 0.050-0.094 0.069l-1.575 0.894c-0.069 0.037-0.137 0.056-0.213 0.056z"></path>
<path fill="#5e686c" d="M4.069 15.331c-0.169 0-0.325-0.1-0.394-0.262-0.094-0.219 0.013-0.469 0.231-0.563l1.675-0.7c0.050-0.019 0.106-0.031 0.162-0.031 0.063-0.019 0.519-0.188 0.969-0.356l0.313-2.956c0.013-0.131 0.088-0.25 0.206-0.319l0.138-0.081v-2.781c0-0.237 0.194-0.431 0.431-0.431s0.431 0.194 0.431 0.431v3.025c0 0.15-0.081 0.287-0.206 0.369l-0.162 0.094-0.319 3.006c-0.019 0.162-0.119 0.294-0.269 0.356-0.912 0.356-1.256 0.463-1.406 0.494l-1.631 0.681c-0.056 0.012-0.112 0.025-0.169 0.025z"></path>
<path fill="#5e686c" d="M13.625 27.438c-0.125 0-0.256-0.056-0.338-0.163l-1.175-1.5-1.281-0.637c-0.044-0.019-0.081-0.050-0.113-0.081l-0.344-0.344-0.775-0.919c-0.063-0.075-0.1-0.175-0.1-0.275v-0.894c0-0.087 0.025-0.175 0.075-0.244 0.131-0.194 0.275-0.425 0.325-0.544-0.019-0.087-0.025-0.175-0.025-0.262l-0.281-0.137-1.15-0.637h-0.231c-0.119 0-0.237-0.050-0.319-0.144l-1.231-1.369c-0.125-0.137-0.144-0.344-0.050-0.506l0.013-0.019-0.737-0.575-1 0.444c-0.213 0.1-0.469 0-0.569-0.219-0.094-0.219 0-0.469 0.219-0.569l1.231-0.55c0.144-0.063 0.313-0.044 0.438 0.056l1.231 0.962c0.169 0.131 0.219 0.375 0.106 0.556l-0.044 0.069 0.894 0.994h0.15c0.075 0 0.144 0.019 0.206 0.056l1.762 0.95c0.175 0.087 0.269 0.275 0.231 0.469-0.019 0.087-0.025 0.212-0.019 0.25 0.056 0.1 0.156 0.306-0.381 1.1v0.6l0.919 1.038 1.306 0.656c0.056 0.031 0.106 0.069 0.144 0.119l1.231 1.575c0.144 0.188 0.113 0.456-0.075 0.6-0.063 0.063-0.156 0.094-0.244 0.094z"></path>
<path fill="#5e686c" d="M18.762 25.381c-0.113 0-0.219-0.044-0.306-0.125l-1.094-1.094c-0.056-0.056-0.1-0.131-0.113-0.212l-0.275-1.231c-0.044-0.194 0.050-0.387 0.225-0.475l0.275-0.137 0.35-0.756c0.031-0.056 0.069-0.156 0.1-0.256l-0.494-0.494c-0.075-0.075-0.119-0.175-0.125-0.281l-0.056-1.181-0.456-0.212-1.044 0.581c-0.181 0.1-0.406 0.056-0.537-0.1l-1.025-1.231c-0.056-0.069-0.094-0.156-0.1-0.25l-0.069-1.231c-0.006-0.075 0.012-0.15 0.044-0.212l1.162-2.331 0.881-2.1c0.025-0.063 0.069-0.119 0.125-0.169 0 0 0.756-0.619 1.1-0.894 0.169-0.137 0.475-0.706 0.625-1.069 0.038-0.088 0.106-0.162 0.194-0.213l2.075-1.075-0.288-0.719c-0.050-0.125-0.038-0.269 0.031-0.388 0.95-1.538 1.206-1.712 1.581-1.531 0.212 0.106 0.3 0.362 0.194 0.575-0.050 0.1-0.125 0.169-0.219 0.206-0.137 0.144-0.444 0.594-0.712 1.019l0.331 0.825c0.075 0.181 0.012 0.387-0.137 0.5l-0.275 0.206-2.050 1.063c-0.144 0.319-0.481 0.988-0.819 1.256-0.275 0.219-0.806 0.65-1.006 0.819l-0.85 2.037-1.125 2.256 0.056 0.981 0.706 0.85 0.925-0.512c0.119-0.069 0.262-0.075 0.387-0.012l0.894 0.413c0.144 0.069 0.244 0.206 0.25 0.369l0.063 1.275 0.569 0.569c0.113 0.113 0.156 0.281 0.106 0.438 0 0-0.156 0.45-0.231 0.606l-0.406 0.881c-0.044 0.087-0.113 0.163-0.2 0.206l-0.113 0.056 0.175 0.788 0.762 0.762c0.294-0.194 0.563-0.394 0.631-0.456 0.056-0.1 0.406-0.875 0.7-1.563 0.019-0.050 0.050-0.094 0.087-0.131l1.575-1.575 0.819-1.144 0.6-1.375-0.256-0.725-0.425-0.488c-0.125-0.144-0.144-0.35-0.038-0.506l0.344-0.55c0.019-0.031 0.044-0.063 0.075-0.088 0.856-0.787 1.106-0.719 1.25-0.681s0.288 0.175 0.331 0.313c0.050 0.144 0.2 0.738 0.313 1.175l0.488-0.144 0.019-0.087c0.031-0.169 0.163-0.3 0.331-0.337l0.956-0.206c0.231-0.050 0.456 0.1 0.506 0.331s-0.1 0.456-0.331 0.506l-0.681 0.15-0.012 0.069c-0.031 0.156-0.15 0.281-0.3 0.325l-1.163 0.344c-0.113 0.031-0.231 0.019-0.331-0.038s-0.175-0.156-0.2-0.269c-0.081-0.313-0.188-0.756-0.275-1.087-0.087 0.069-0.188 0.15-0.275 0.231l-0.144 0.225 0.269 0.306c0.038 0.038 0.063 0.087 0.081 0.137l0.344 0.962c0.038 0.1 0.031 0.212-0.012 0.313l-0.688 1.575c-0.012 0.025-0.025 0.056-0.044 0.081l-0.887 1.231-1.563 1.569c-0.481 1.106-0.656 1.469-0.738 1.606-0.050 0.094-0.175 0.269-1.169 0.906-0.094 0.031-0.175 0.050-0.25 0.050z"></path>
<path fill="#5e686c" d="M15.675 27.919c-6.656 0-12.075-5.419-12.075-12.075s5.419-12.075 12.075-12.075c6.656 0 12.075 5.419 12.075 12.075s-5.419 12.075-12.075 12.075zM15.675 4.631c-6.188 0-11.213 5.031-11.213 11.213 0 6.188 5.031 11.219 11.213 11.219s11.219-5.031 11.219-11.219c0-6.181-5.031-11.213-11.219-11.213z"></path>
<path id="svg-ico" fill="#ee5586" d="M3.431 25.762c-1.438 0-2.494-0.369-2.987-1.206-0.85-1.4 0.45-3.981 3.487-6.9 0.169-0.163 0.444-0.156 0.606 0.012s0.156 0.444-0.013 0.606c-2.994 2.875-3.831 5.044-3.344 5.844 1.075 1.831 8.331 0.387 17.025-4.6 6.681-3.894 11.856-8.544 12.581-11.3 0.125-0.469 0.1-0.844-0.069-1.131-0.675-1.125-3.506-1.056-7.375 0.194-0.225 0.075-0.469-0.050-0.538-0.275-0.075-0.225 0.050-0.469 0.275-0.537 4.4-1.419 7.456-1.35 8.375 0.188 0.288 0.487 0.344 1.088 0.163 1.781-0.788 3.012-6.006 7.762-12.981 11.825-5.406 3.094-11.537 5.5-15.206 5.5z"></path>
</svg>
