<!-- Generated by IcoMoon.io -->
<svg version="1.1" xmlns="http://www.w3.org/2000/svg" width="32" height="32" viewBox="0 0 32 32">
<title>gaming</title>
<path fill="#5e686b" d="M19.194 27.075c0.075 0.012 0.15 0.012 0.225 0.012 0.875 0 1.625-0.656 1.738-1.531 0.125-0.956-0.556-1.837-1.512-1.962-0.962-0.131-1.844 0.569-1.962 1.512-0.125 0.962 0.556 1.844 1.512 1.969zM18.55 25.225c0.056-0.438 0.431-0.762 0.869-0.762 0.038 0 0.075 0 0.113 0.006 0.481 0.063 0.819 0.5 0.756 0.981-0.063 0.475-0.494 0.825-0.981 0.756-0.481-0.063-0.819-0.5-0.756-0.981z"></path>
<path fill="#5e686b" d="M25.669 27.075c0.075 0.012 0.15 0.012 0.225 0.012 0.875 0 1.625-0.656 1.738-1.531 0.125-0.956-0.556-1.837-1.512-1.962-0.962-0.131-1.844 0.569-1.962 1.512-0.125 0.962 0.556 1.844 1.512 1.969zM25.025 25.225c0.056-0.438 0.431-0.762 0.869-0.762 0.038 0 0.075 0 0.113 0.006 0.481 0.063 0.819 0.5 0.756 0.981-0.063 0.475-0.494 0.825-0.981 0.756-0.475-0.063-0.819-0.5-0.756-0.981z"></path>
<path fill="#5e686b" d="M31.344 13.394h-14.906v-12.956c0-0.244-0.194-0.438-0.438-0.438s-0.438 0.194-0.438 0.438v12.956h-14.9c-0.244 0-0.438 0.194-0.438 0.438v17.531c0 0.244 0.194 0.438 0.438 0.438h30.681c0.244 0 0.438-0.194 0.438-0.438v-17.531c0-0.244-0.194-0.438-0.438-0.438zM30.906 30.925h-29.806v-16.656h29.806v16.656z"></path>
<path id="svg-ico" fill="#ee5586" d="M3.837 23.038h3.944v3.944c0 0.244 0.194 0.438 0.438 0.438s0.438-0.194 0.438-0.438v-3.944h3.944c0.244 0 0.438-0.194 0.438-0.438s-0.194-0.438-0.438-0.438h-3.944v-3.944c0-0.244-0.194-0.438-0.438-0.438s-0.438 0.194-0.438 0.438v3.944h-3.944c-0.244 0-0.438 0.194-0.438 0.438 0 0.238 0.194 0.438 0.438 0.438z"></path>
</svg>
