<!-- Generated by IcoMoon.io -->
<svg version="1.1" xmlns="http://www.w3.org/2000/svg" width="32" height="32" viewBox="0 0 32 32">
<title>github</title>
<path id="svg-ico" fill="#ee5586" d="M22.063 31.75h-6.175c-0.244 0-0.438-0.194-0.438-0.438s0.194-0.438 0.438-0.438h5.738v-1.1c0-1.837-0.6-3.144-1.837-3.994-0.15-0.106-0.225-0.294-0.175-0.469 0.044-0.181 0.2-0.306 0.381-0.325 0.819-0.081 1.587-0.194 2.288-0.337 0.688-0.144 1.425-0.35 2.194-0.619 0.756-0.262 1.444-0.587 2.044-0.95 0.587-0.356 1.169-0.837 1.725-1.419 0.544-0.575 1.006-1.238 1.381-1.975 0.369-0.738 0.669-1.637 0.887-2.681 0.225-1.050 0.337-2.225 0.337-3.494 0-2.4-0.794-4.475-2.356-6.156-0.113-0.125-0.15-0.3-0.087-0.456 0.681-1.775 0.631-3.731-0.15-5.825l-0.35-0.044c-0.2-0.025-0.731 0.012-2.087 0.512-1.063 0.394-2.275 1.050-3.613 1.956-0.106 0.075-0.238 0.094-0.363 0.063-1.894-0.525-3.887-0.794-5.925-0.794-0.244 0-0.438-0.194-0.438-0.438s0.194-0.438 0.438-0.438c2.044 0 4.050 0.256 5.963 0.769 1.337-0.881 2.556-1.538 3.637-1.938 1.2-0.444 1.994-0.619 2.488-0.563l0.613 0.075c0.156 0.019 0.294 0.125 0.356 0.275 0.913 2.294 1.025 4.463 0.337 6.45 1.6 1.813 2.406 4.019 2.406 6.556 0 1.331-0.119 2.569-0.356 3.675-0.231 1.113-0.556 2.087-0.962 2.894-0.413 0.813-0.931 1.55-1.531 2.181-0.606 0.637-1.25 1.169-1.9 1.563-0.65 0.4-1.394 0.744-2.212 1.031-0.8 0.281-1.581 0.5-2.306 0.65-0.438 0.087-0.894 0.169-1.375 0.231 0.944 0.994 1.419 2.344 1.419 4.037v1.531c0.006 0.244-0.188 0.438-0.431 0.438z"></path>
<path fill="#5e686c" d="M15.887 31.75h-6.081c-0.244 0-0.438-0.194-0.438-0.438v-1.538c0-1.7 0.469-3.050 1.394-4.038-0.481-0.063-0.944-0.144-1.375-0.231-0.725-0.15-1.506-0.369-2.306-0.65-0.813-0.288-1.556-0.631-2.213-1.031s-1.294-0.925-1.9-1.569c-0.6-0.637-1.119-1.369-1.531-2.181-0.406-0.8-0.731-1.775-0.969-2.894-0.225-1.113-0.344-2.344-0.344-3.669 0-2.537 0.813-4.738 2.406-6.556-0.688-1.969-0.575-4.138 0.337-6.45 0.044-0.119 0.144-0.213 0.263-0.25 0.075-0.025 0.181-0.050 0.331-0.069 0.1-0.013 0.294-0.025 0.862 0.019 0.431 0.038 0.894 0.125 1.388 0.275 0.487 0.144 1.119 0.412 1.931 0.813 0.738 0.363 1.525 0.825 2.344 1.375 1.881-0.512 3.875-0.769 5.944-0.769v0.875c-2.056 0-4.037 0.269-5.9 0.794-0.125 0.038-0.256 0.013-0.363-0.056-0.85-0.575-1.656-1.056-2.406-1.425s-1.356-0.625-1.794-0.756c-0.431-0.131-0.838-0.206-1.206-0.238-0.45-0.038-0.606-0.031-0.656-0.031-0.794 2.106-0.85 4.069-0.163 5.838 0.063 0.156 0.025 0.331-0.087 0.456-1.563 1.681-2.356 3.756-2.356 6.156 0 1.262 0.113 2.438 0.331 3.494 0.219 1.044 0.519 1.95 0.894 2.681 0.375 0.738 0.837 1.4 1.381 1.975 0.55 0.581 1.131 1.063 1.719 1.419 0.6 0.363 1.287 0.688 2.044 0.95 0.769 0.269 1.506 0.475 2.194 0.619 0.7 0.144 1.469 0.256 2.287 0.337 0.181 0.019 0.338 0.15 0.381 0.325 0.044 0.181-0.025 0.369-0.175 0.469-1.219 0.831-1.813 2.137-1.813 3.994v1.1h5.644v0.875z"></path>
</svg>
