<!-- Generated by IcoMoon.io -->
<svg version="1.1" xmlns="http://www.w3.org/2000/svg" width="32" height="32" viewBox="0 0 32 32">
<title>glasses</title>
<path fill="#5e686c" d="M17.906 15.525h-4.244c-0.238 0-0.425-0.188-0.425-0.425s0.188-0.425 0.425-0.425h4.244c0.238 0 0.425 0.188 0.425 0.425 0 0.231-0.188 0.425-0.425 0.425z"></path>
<path fill="#5e686c" d="M28.563 13.119c-0.106 0-0.219-0.044-0.3-0.125-0.169-0.169-0.169-0.438 0-0.6l2.55-2.55c0.169-0.169 0.438-0.169 0.6 0 0.169 0.169 0.169 0.438 0 0.6l-2.55 2.55c-0.081 0.081-0.194 0.125-0.3 0.125z"></path>
<path fill="#5e686c" d="M3.388 12.781c-0.106 0-0.219-0.044-0.3-0.125l-2.55-2.544c-0.169-0.169-0.169-0.438 0-0.6 0.169-0.169 0.438-0.169 0.6 0l2.55 2.544c0.169 0.169 0.169 0.438 0 0.6-0.081 0.088-0.194 0.125-0.3 0.125z"></path>
<path id="svg-ico" fill="#ee5586" d="M7.556 24.038c-3.744 0-6.794-3.050-6.794-6.794s3.050-6.794 6.794-6.794c3.744 0 6.794 3.050 6.794 6.794s-3.044 6.794-6.794 6.794zM7.556 11.3c-3.275 0-5.944 2.669-5.944 5.944s2.669 5.944 5.944 5.944c3.275 0 5.944-2.669 5.944-5.944s-2.662-5.944-5.944-5.944z"></path>
<path id="svg-ico" fill="#ee5586" d="M24.012 24.038c-3.744 0-6.794-3.050-6.794-6.794s3.050-6.794 6.794-6.794c3.744 0 6.794 3.050 6.794 6.794s-3.050 6.794-6.794 6.794zM24.012 11.3c-3.275 0-5.944 2.669-5.944 5.944s2.669 5.944 5.944 5.944c3.275 0 5.944-2.669 5.944-5.944s-2.663-5.944-5.944-5.944z"></path>
</svg>
