<!-- Generated by IcoMoon.io -->
<svg version="1.1" xmlns="http://www.w3.org/2000/svg" width="32" height="32" viewBox="0 0 32 32">
<title>hand</title>
<path fill="#5e686b" d="M29.275 11.925c-0.819-0.85-1.831-1.281-3.012-1.281-0.269 0-0.538 0.025-0.794 0.075-0.863-0.95-1.969-1.438-3.288-1.438-0.55 0-1.087 0.1-1.6 0.287-0.875-0.731-1.887-1.106-3.031-1.106-0.031 0-0.075 0-0.119 0v-3.281c0-1.325-0.469-2.481-1.387-3.438-0.925-0.963-2.069-1.45-3.4-1.45-1.313 0-2.45 0.469-3.381 1.4s-1.4 2.069-1.4 3.381v8.625c-0.556-0.225-1.156-0.338-1.787-0.338-1.306 0-2.431 0.475-3.356 1.412s-1.394 2.069-1.394 3.375c0 1.063 0.319 2.031 0.956 2.875l6.531 8.725c0.444 0.581 1.012 1.050 1.688 1.387 0.675 0.344 1.394 0.512 2.137 0.512h12.225c0.844 0 1.606-0.262 2.275-0.781 0.663-0.519 1.106-1.194 1.306-2.012l1.563-6.262c0.325-1.269 0.494-2.594 0.494-3.938v-3.694c0-1.169-0.413-2.194-1.225-3.037zM29.65 18.663c0 1.275-0.156 2.525-0.462 3.725l-1.563 6.262c-0.156 0.637-0.488 1.144-1.006 1.544s-1.094 0.6-1.75 0.6h-12.225c-0.606 0-1.2-0.144-1.756-0.425s-1.025-0.669-1.394-1.144l-6.537-8.706c-0.525-0.7-0.781-1.475-0.781-2.369 0-1.087 0.375-1.994 1.144-2.775s1.669-1.156 2.75-1.156c0.725 0 1.4 0.181 1.994 0.537 0.131 0.081 0.294 0.081 0.431 0.006 0.131-0.075 0.213-0.219 0.213-0.369v-9.313c0-1.094 0.375-2.006 1.15-2.781s1.681-1.15 2.781-1.15c1.106 0 2.012 0.387 2.781 1.188 0.775 0.806 1.15 1.738 1.15 2.844v3.744c0 0 0 0.006 0 0.006v1.819c0 0.238 0.188 0.425 0.425 0.425s0.425-0.194 0.425-0.425v-1.425c0.044 0 0.087-0.006 0.119-0.006 0.962 0 1.788 0.306 2.519 0.938v2.4c0 0.238 0.188 0.425 0.425 0.425s0.425-0.194 0.425-0.425v-2.306c0.406-0.144 0.825-0.219 1.256-0.219 1.113 0 2 0.4 2.719 1.225v3.475c0 0.238 0.188 0.425 0.425 0.425s0.425-0.188 0.425-0.425v-3.3c0.169-0.025 0.344-0.037 0.512-0.037 0.956 0 1.738 0.331 2.4 1.019s0.988 1.494 0.988 2.456l0.019 3.694z"></path>
<path id="svg-ico" fill="#ee5586" d="M15.912 17.731c-0.238 0-0.425 0.188-0.425 0.425v6.538c0 0.238 0.188 0.425 0.425 0.425s0.425-0.188 0.425-0.425v-6.538c0-0.238-0.194-0.425-0.425-0.425z"></path>
<path id="svg-ico" fill="#ee5586" d="M20.456 17.731c-0.238 0-0.425 0.188-0.425 0.425v6.538c0 0.238 0.188 0.425 0.425 0.425s0.425-0.188 0.425-0.425v-6.538c0-0.238-0.194-0.425-0.425-0.425z"></path>
<path id="svg-ico" fill="#ee5586" d="M24.994 17.731c-0.238 0-0.425 0.188-0.425 0.425v6.538c0 0.238 0.188 0.425 0.425 0.425s0.425-0.188 0.425-0.425v-6.538c0.006-0.238-0.188-0.425-0.425-0.425z"></path>
</svg>
