<!-- Generated by IcoMoon.io -->
<svg version="1.1" xmlns="http://www.w3.org/2000/svg" width="32" height="32" viewBox="0 0 32 32">
<title>hat</title>
<path fill="#5e686c" d="M25.906 21.656h-19.856c-0.237 0-0.425-0.188-0.425-0.425s0.188-0.425 0.425-0.425h19.856c0.238 0 0.425 0.188 0.425 0.425s-0.194 0.425-0.425 0.425z"></path>
<path fill="#5e686c" d="M25.906 25.563c-0.238 0-0.425-0.188-0.425-0.425v-9.863c0-5.238-4.262-9.506-9.506-9.506-5.237 0-9.5 4.263-9.5 9.506v9.863c0 0.238-0.188 0.425-0.425 0.425s-0.425-0.188-0.425-0.425v-9.863c0-5.706 4.644-10.35 10.35-10.35s10.35 4.644 10.35 10.35v9.863c0.006 0.238-0.188 0.425-0.419 0.425z"></path>
<path id="svg-ico" fill="#ee5586" d="M25.244 25.625h-18.531c-3.519 0-6.381-2.863-6.381-6.381 0-0.238 0.188-0.425 0.425-0.425s0.425 0.188 0.425 0.425c0 3.050 2.481 5.531 5.531 5.531h18.531c3.050 0 5.531-2.481 5.531-5.531 0-0.238 0.188-0.425 0.425-0.425s0.425 0.188 0.425 0.425c0 3.519-2.863 6.381-6.381 6.381z"></path>
</svg>
