<!-- Generated by IcoMoon.io -->
<svg version="1.1" xmlns="http://www.w3.org/2000/svg" width="32" height="32" viewBox="0 0 32 32">
<title>hierarchy</title>
<path fill="#5e686c" d="M31.075 31.45h-12.050c-0.238 0-0.431-0.194-0.431-0.431v-12.044c0-0.238 0.194-0.431 0.431-0.431h12.050c0.238 0 0.431 0.194 0.431 0.431v12.050c0 0.231-0.194 0.425-0.431 0.425zM19.456 30.587h11.188v-11.188h-11.188v11.188z"></path>
<path fill="#5e686c" d="M12.969 31.45h-12.050c-0.238 0-0.431-0.194-0.431-0.431v-12.044c0-0.238 0.194-0.431 0.431-0.431h12.050c0.238 0 0.431 0.194 0.431 0.431v12.050c0 0.231-0.194 0.425-0.431 0.425zM1.35 30.587h11.188v-11.188h-11.188v11.188z"></path>
<path fill="#5e686c" d="M25.050 16.194h-18.106c-0.237 0-0.431-0.194-0.431-0.431s0.194-0.431 0.431-0.431h18.106c0.238 0 0.431 0.194 0.431 0.431s-0.194 0.431-0.431 0.431z"></path>
<path fill="#5e686c" d="M25.050 19.206c-0.238 0-0.431-0.194-0.431-0.431v-3.012c0-0.238 0.194-0.431 0.431-0.431s0.431 0.194 0.431 0.431v3.012c0 0.238-0.194 0.431-0.431 0.431z"></path>
<path fill="#5e686c" d="M6.944 19.206c-0.237 0-0.431-0.194-0.431-0.431v-3.012c0-0.238 0.194-0.431 0.431-0.431s0.431 0.194 0.431 0.431v3.012c0 0.238-0.194 0.431-0.431 0.431z"></path>
<path fill="#5e686c" d="M16 16.194c-0.238 0-0.431-0.194-0.431-0.431v-2.644c0-0.238 0.194-0.431 0.431-0.431s0.431 0.194 0.431 0.431v2.644c-0.006 0.238-0.194 0.431-0.431 0.431z"></path>
<path id="svg-ico" fill="#ee5586" d="M22.038 13.55h-12.044c-0.238 0-0.431-0.194-0.431-0.431v-12.444c0-0.237 0.194-0.431 0.431-0.431h12.044c0.238 0 0.431 0.194 0.431 0.431v12.45c0 0.231-0.194 0.425-0.431 0.425zM10.419 12.688h11.188v-11.588h-11.188v11.588z"></path>
</svg>
