<!-- Generated by IcoMoon.io -->
<svg version="1.1" xmlns="http://www.w3.org/2000/svg" width="32" height="32" viewBox="0 0 32 32">
<title>html5</title>
<path fill="#5e686b" d="M16.219 31.875c-0.038 0-0.081-0.006-0.119-0.019l-11.037-3.113c-0.169-0.050-0.294-0.194-0.306-0.375l-2.462-27.669c-0.013-0.119 0.031-0.237 0.112-0.325s0.194-0.138 0.313-0.138h27.069c0.119 0 0.231 0.050 0.313 0.138s0.119 0.206 0.113 0.325l-2.462 27.669c-0.019 0.175-0.137 0.325-0.313 0.375l-11.113 3.113c-0.031 0.012-0.069 0.019-0.106 0.019zM5.575 28.006l10.637 3 10.719-3.006 2.394-26.913h-26.137l2.388 26.919z"></path>
<path id="svg-ico" fill="#ee5586" d="M23.887 14.856h-15.419c-0.219 0-0.406-0.169-0.425-0.387l-0.713-8.106c-0.013-0.119 0.031-0.237 0.112-0.325s0.194-0.138 0.313-0.138h16.994c0.238 0 0.425 0.188 0.425 0.425s-0.188 0.425-0.425 0.425h-16.531l0.637 7.25h15.025c0.238 0 0.425 0.188 0.425 0.425 0.006 0.238-0.188 0.431-0.419 0.431z"></path>
<path id="svg-ico" fill="#ee5586" d="M16.294 25.988c-0.038 0-0.15-0.006-0.188-0.019l-6.963-1.925c-0.175-0.050-0.3-0.2-0.313-0.375l-0.425-5.35c-0.019-0.231 0.156-0.438 0.394-0.456s0.438 0.156 0.456 0.394l0.4 5.050 6.563 1.819 6.575-1.819 0.669-8.906c0.019-0.238 0.225-0.412 0.456-0.394 0.238 0.019 0.413 0.225 0.394 0.456l-0.694 9.206c-0.012 0.181-0.137 0.331-0.313 0.381l-6.8 1.881c-0.063 0.038-0.137 0.056-0.212 0.056z"></path>
</svg>
