<!-- Generated by IcoMoon.io -->
<svg version="1.1" xmlns="http://www.w3.org/2000/svg" width="32" height="32" viewBox="0 0 32 32">
<title>indicateleft</title>
<path id="svg-ico" fill="#ee5586" d="M23.163 10.863h-19.306c-0.231 0-0.419-0.188-0.419-0.419s0.188-0.419 0.419-0.419h19.306c0.231 0 0.419 0.188 0.419 0.419s-0.188 0.419-0.419 0.419z"></path>
<path id="svg-ico" fill="#ee5586" d="M3.856 16.95c-1.913 0-3.462-1.55-3.462-3.463 0-1.906 1.556-3.463 3.462-3.463 0.231 0 0.419 0.188 0.419 0.419s-0.188 0.419-0.419 0.419c-1.45 0-2.631 1.181-2.631 2.625 0 1.45 1.181 2.625 2.631 2.625 0.231 0 0.419 0.188 0.419 0.419s-0.188 0.419-0.419 0.419z"></path>
<path fill="#5e686c" d="M17.069 28.113c-0.169 0-0.319-0.1-0.387-0.256l-4.569-11.169c-0.088-0.212 0.012-0.456 0.225-0.544s0.456 0.012 0.544 0.225l4.444 10.869 13.55-1.906v-15.694l-5.144-3.85h-6.462l-1.913 1.906c-0.163 0.162-0.425 0.162-0.587 0s-0.163-0.425 0-0.588l2.031-2.031c0.075-0.075 0.181-0.119 0.294-0.119h6.775c0.087 0 0.175 0.031 0.25 0.081l5.419 4.063c0.106 0.081 0.169 0.2 0.169 0.331v16.262c0 0.206-0.15 0.381-0.356 0.413l-14.225 2c-0.019 0-0.038 0.006-0.056 0.006z"></path>
<path id="svg-ico" fill="#ee5586" d="M17.075 16.962v0l-13.213-0.012c-0.231 0-0.419-0.188-0.419-0.419s0.188-0.419 0.419-0.419v0l13.213 0.012c0.231 0 0.419 0.188 0.419 0.419-0.006 0.231-0.194 0.419-0.419 0.419z"></path>
</svg>
