<!-- Generated by IcoMoon.io -->
<svg version="1.1" xmlns="http://www.w3.org/2000/svg" width="32" height="32" viewBox="0 0 32 32">
<title>infrastructure</title>
<path fill="#5e686c" d="M16.156 29.625c-7.581 0-13.75-6.169-13.75-13.75s6.169-13.75 13.75-13.75c7.581 0 13.75 6.169 13.75 13.75s-6.169 13.75-13.75 13.75zM16.156 2.956c-7.125 0-12.919 5.794-12.919 12.919s5.794 12.913 12.912 12.913c7.119 0 12.913-5.794 12.913-12.912 0.006-7.125-5.788-12.919-12.906-12.919z"></path>
<path fill="#5e686c" d="M12.756 13.15c-0.106 0-0.213-0.044-0.294-0.125l-11.806-11.787c-0.162-0.163-0.162-0.431 0-0.594s0.431-0.162 0.594 0l11.8 11.794c0.162 0.162 0.162 0.431 0 0.594-0.081 0.081-0.188 0.119-0.294 0.119z"></path>
<path id="svg-ico" fill="#ee5586" d="M19.331 13.094c-0.106 0-0.212-0.044-0.3-0.125-0.163-0.162-0.163-0.431 0-0.594l11.775-11.713c0.163-0.162 0.431-0.162 0.594 0s0.163 0.431 0 0.594l-11.769 11.719c-0.081 0.081-0.194 0.119-0.3 0.119z"></path>
<path fill="#5e686c" d="M0.925 31.425c-0.106 0-0.213-0.044-0.294-0.125-0.162-0.163-0.162-0.431 0-0.594l12.063-12.006c0.162-0.163 0.431-0.163 0.594 0s0.162 0.431 0 0.594l-12.063 12.006c-0.087 0.087-0.194 0.125-0.3 0.125z"></path>
<path fill="#5e686c" d="M0.956 5.275c-0.231 0-0.419-0.188-0.419-0.419v-3.913c0-0.231 0.188-0.419 0.419-0.419s0.419 0.188 0.419 0.419v3.919c0 0.225-0.188 0.412-0.419 0.412z"></path>
<path fill="#5e686c" d="M4.769 1.363h-3.813c-0.231 0-0.419-0.188-0.419-0.419s0.188-0.419 0.419-0.419h3.819c0.231 0 0.419 0.188 0.419 0.419s-0.194 0.419-0.425 0.419z"></path>
<path fill="#5e686c" d="M4.838 31.425h-3.913c-0.231 0-0.419-0.188-0.419-0.419s0.188-0.419 0.419-0.419h3.919c0.231 0 0.419 0.188 0.419 0.419s-0.194 0.419-0.425 0.419z"></path>
<path fill="#5e686c" d="M0.925 31.425c-0.231 0-0.419-0.188-0.419-0.419v-3.819c0-0.231 0.188-0.419 0.419-0.419s0.419 0.188 0.419 0.419v3.819c0 0.231-0.188 0.419-0.419 0.419z"></path>
<path fill="#5e686c" d="M31.113 31.494c-0.231 0-0.419-0.188-0.419-0.419v-3.919c0-0.231 0.188-0.419 0.419-0.419s0.419 0.188 0.419 0.419v3.919c0 0.231-0.188 0.419-0.419 0.419z"></path>
<path fill="#5e686c" d="M31.113 31.494h-3.819c-0.231 0-0.419-0.188-0.419-0.419s0.188-0.419 0.419-0.419h3.819c0.231 0 0.419 0.188 0.419 0.419s-0.188 0.419-0.419 0.419z"></path>
<path id="svg-ico" fill="#ee5586" d="M31.1 1.381h-3.913c-0.231 0-0.419-0.188-0.419-0.419s0.188-0.419 0.419-0.419h3.919c0.231 0 0.419 0.188 0.419 0.419-0.006 0.231-0.194 0.419-0.425 0.419z"></path>
<path id="svg-ico" fill="#ee5586" d="M31.1 5.194c-0.231 0-0.419-0.188-0.419-0.419v-3.813c0-0.231 0.188-0.419 0.419-0.419s0.419 0.188 0.419 0.419v3.819c0 0.225-0.188 0.412-0.419 0.412z"></path>
<path fill="#5e686c" d="M31.113 31.494c-0.106 0-0.212-0.044-0.294-0.125l-11.844-11.825c-0.163-0.163-0.163-0.431 0-0.594s0.431-0.163 0.594 0l11.837 11.831c0.163 0.163 0.163 0.431 0 0.594-0.081 0.081-0.188 0.119-0.294 0.119z"></path>
<path id="svg-ico" fill="#ee5586" d="M16.156 20.481c-2.537 0-4.606-2.069-4.606-4.606s2.069-4.606 4.606-4.606c2.538 0 4.606 2.069 4.606 4.606s-2.069 4.606-4.606 4.606zM16.156 12.106c-2.075 0-3.769 1.688-3.769 3.769s1.688 3.769 3.769 3.769c2.075 0 3.769-1.688 3.769-3.769s-1.694-3.769-3.769-3.769z"></path>
</svg>
