<!-- Generated by IcoMoon.io -->
<svg version="1.1" xmlns="http://www.w3.org/2000/svg" width="32" height="32" viewBox="0 0 32 32">
<title>Instagram</title>
<path fill="#5e686c" d="M31.344 16.65h-8.756c-0.244 0-0.438-0.194-0.438-0.438s0.194-0.438 0.438-0.438h8.756c0.244 0 0.438 0.194 0.438 0.438s-0.194 0.438-0.438 0.438z"></path>
<path fill="#5e686c" d="M9.356 16.65h-8.581c-0.244 0-0.438-0.194-0.438-0.438s0.194-0.438 0.438-0.438h8.581c0.244 0 0.438 0.194 0.438 0.438s-0.194 0.438-0.438 0.438z"></path>
<path fill="#5e686c" d="M28.813 31.844h-25.506c-1.637 0-2.969-1.331-2.969-2.969v-25.506c0-1.637 1.331-2.969 2.969-2.969h25.506c1.637 0 2.969 1.331 2.969 2.969v25.506c0 1.637-1.331 2.969-2.969 2.969zM3.306 1.275c-1.156 0-2.094 0.938-2.094 2.094v25.506c0 1.156 0.938 2.094 2.094 2.094h25.506c1.156 0 2.094-0.938 2.094-2.094v-25.506c0-1.156-0.938-2.094-2.094-2.094h-25.506z"></path>
<path id="svg-ico" fill="#ee5586" d="M16.063 23.113c-3.85 0-6.988-3.131-6.988-6.988 0-3.85 3.131-6.988 6.988-6.988s6.988 3.131 6.988 6.988c0 3.85-3.137 6.988-6.988 6.988zM16.063 10.012c-3.369 0-6.113 2.744-6.113 6.113s2.744 6.113 6.113 6.113c3.369 0 6.113-2.744 6.113-6.113s-2.744-6.113-6.113-6.113z"></path>
<path id="svg-ico" fill="#ee5586" d="M25.356 9.887c-1.688 0-3.056-1.369-3.056-3.056s1.369-3.056 3.056-3.056 3.056 1.369 3.056 3.056c0 1.688-1.375 3.056-3.056 3.056zM25.356 4.65c-1.206 0-2.181 0.981-2.181 2.181s0.981 2.181 2.181 2.181c1.206 0 2.181-0.981 2.181-2.181s-0.981-2.181-2.181-2.181z"></path>
</svg>
