<!-- Generated by IcoMoon.io -->
<svg version="1.1" xmlns="http://www.w3.org/2000/svg" width="32" height="32" viewBox="0 0 32 32">
<title>internet</title>
<path fill="#5e686c" d="M16.031 31.706c-8.656 0-15.694-7.037-15.694-15.694s7.037-15.7 15.694-15.7 15.694 7.044 15.694 15.7c0.006 8.656-7.038 15.694-15.694 15.694zM16.031 1.163c-8.188 0-14.844 6.662-14.844 14.85s6.662 14.85 14.85 14.85 14.85-6.663 14.85-14.85c-0.006-8.188-6.669-14.85-14.856-14.85z"></path>
<path fill="#5e686c" d="M16.031 11.019c-4.681 0-9.2-1.363-12.4-3.737-0.188-0.138-0.225-0.406-0.087-0.594s0.406-0.225 0.594-0.088c3.056 2.269 7.394 3.569 11.894 3.569s8.837-1.3 11.894-3.569c0.188-0.138 0.456-0.1 0.594 0.088s0.1 0.456-0.087 0.594c-3.2 2.375-7.719 3.737-12.4 3.737z"></path>
<path fill="#5e686c" d="M28.181 25.506c-0.087 0-0.175-0.025-0.25-0.081-3.056-2.269-7.387-3.569-11.894-3.569s-8.838 1.3-11.894 3.569c-0.188 0.137-0.456 0.1-0.594-0.087s-0.1-0.456 0.087-0.594c3.2-2.375 7.719-3.738 12.4-3.738s9.2 1.363 12.4 3.738c0.188 0.137 0.225 0.406 0.087 0.594-0.087 0.113-0.219 0.169-0.344 0.169z"></path>
<path fill="#5e686c" d="M31.306 16.925h-30.544c-0.238 0-0.425-0.188-0.425-0.425s0.187-0.425 0.425-0.425h30.544c0.238 0 0.425 0.188 0.425 0.425s-0.194 0.425-0.425 0.425z"></path>
<path fill="#5e686c" d="M16.031 31.706c-0.238 0-0.425-0.188-0.425-0.425v-30.544c0-0.238 0.188-0.425 0.425-0.425s0.425 0.187 0.425 0.425v30.544c0 0.238-0.188 0.425-0.425 0.425z"></path>
<path id="svg-ico" fill="#ee5586" d="M16.031 31.706c-4.887 0-8.869-7.044-8.869-15.694 0-8.656 3.981-15.7 8.869-15.7s8.869 7.044 8.869 15.7c0 8.656-3.981 15.694-8.869 15.694zM16.031 1.163c-4.419 0-8.019 6.662-8.019 14.85s3.6 14.85 8.019 14.85 8.019-6.663 8.019-14.85c0-8.188-3.6-14.85-8.019-14.85z"></path>
</svg>
