<!-- Generated by IcoMoon.io -->
<svg version="1.1" xmlns="http://www.w3.org/2000/svg" width="32" height="32" viewBox="0 0 32 32">
<title>laptop</title>
<path id="svg-ico" fill="#ee5586" d="M29.156 23.438h-26.269c-0.244 0-0.438-0.194-0.438-0.438v-17.512c0-0.244 0.194-0.438 0.438-0.438h26.269c0.244 0 0.438 0.194 0.438 0.438v17.512c0 0.244-0.2 0.438-0.438 0.438zM3.325 22.563h25.394v-16.637h-25.394v16.637z"></path>
<path fill="#5e686b" d="M31.344 27.544h-30.644c-0.244 0-0.438-0.194-0.438-0.438s0.194-0.438 0.438-0.438h30.644c0.244 0 0.438 0.194 0.438 0.438s-0.194 0.438-0.438 0.438z"></path>
</svg>
