<!-- Generated by IcoMoon.io -->
<svg version="1.1" xmlns="http://www.w3.org/2000/svg" width="32" height="32" viewBox="0 0 32 32">
<title>link</title>
<path fill="#5e686b" d="M5.156 25.031c-0.4 0-0.794-0.050-1.188-0.156-1.181-0.319-2.163-1.075-2.775-2.131l-0.231-0.406c-1.262-2.181-0.512-4.981 1.675-6.244l10.488-6.056c2.181-1.262 4.981-0.506 6.244 1.675l0.231 0.406c0.613 1.056 0.775 2.287 0.456 3.469s-1.075 2.162-2.131 2.775l-0.931 0.538c-0.206 0.119-0.462 0.044-0.581-0.156s-0.050-0.462 0.156-0.575l0.931-0.538c0.863-0.5 1.475-1.3 1.738-2.262 0.256-0.963 0.125-1.963-0.375-2.825l-0.231-0.406c-1.025-1.775-3.306-2.387-5.088-1.363l-10.488 6.056c-0.862 0.5-1.475 1.3-1.738 2.262-0.256 0.962-0.125 1.962 0.369 2.825l0.231 0.406c0.5 0.863 1.3 1.475 2.263 1.738 0.963 0.256 1.963 0.125 2.825-0.375l2.344-1.35c0.206-0.119 0.463-0.050 0.575 0.156 0.119 0.2 0.050 0.462-0.156 0.581l-2.331 1.337c-0.706 0.406-1.487 0.619-2.281 0.619z"></path>
<path id="svg-ico" fill="#ee5586" d="M16.631 23.462c-0.4 0-0.794-0.050-1.188-0.156-1.181-0.313-2.162-1.069-2.775-2.131l-0.231-0.406c-1.262-2.181-0.512-4.981 1.675-6.244l0.931-0.531c0.2-0.119 0.463-0.050 0.575 0.156 0.119 0.2 0.050 0.463-0.156 0.575l-0.925 0.531c-1.775 1.025-2.387 3.306-1.363 5.088l0.231 0.406c0.5 0.863 1.3 1.475 2.262 1.738 0.962 0.256 1.962 0.125 2.825-0.375l10.481-6.050c0.863-0.5 1.475-1.3 1.738-2.262 0.256-0.963 0.125-1.963-0.369-2.825l-0.231-0.4c-1.025-1.775-3.306-2.388-5.088-1.363l-2.35 1.35c-0.206 0.113-0.462 0.050-0.575-0.156-0.119-0.2-0.050-0.463 0.156-0.581l2.344-1.35c2.181-1.256 4.988-0.513 6.244 1.675l0.231 0.4c0.613 1.056 0.775 2.287 0.456 3.469s-1.075 2.163-2.131 2.775l-10.488 6.056c-0.712 0.406-1.494 0.613-2.281 0.613z"></path>
</svg>
