<!-- Generated by IcoMoon.io -->
<svg version="1.1" xmlns="http://www.w3.org/2000/svg" width="32" height="32" viewBox="0 0 32 32">
<title>linuxserver</title>
<path fill="#5e686c" d="M15.037 6.325c-0.912 0-1.656-0.744-1.656-1.656s0.744-1.656 1.656-1.656c0.912 0 1.656 0.744 1.656 1.656s-0.744 1.656-1.656 1.656zM15.037 3.844c-0.456 0-0.825 0.369-0.825 0.825s0.369 0.825 0.825 0.825c0.456 0 0.825-0.369 0.825-0.825s-0.369-0.825-0.825-0.825z"></path>
<path fill="#5e686c" d="M19.544 15.662c-0.056 0-0.119-0.012-0.175-0.037-0.206-0.094-0.3-0.344-0.2-0.55 0.256-0.55 0.387-1.175 0.387-1.813 0-1.988-1.269-3.606-2.831-3.606s-2.831 1.619-2.831 3.606c0 0.637 0.131 1.269 0.387 1.813 0.094 0.206 0.006 0.45-0.2 0.55-0.206 0.094-0.45 0.006-0.55-0.2-0.3-0.656-0.463-1.406-0.463-2.162 0-2.444 1.637-4.438 3.656-4.438s3.656 1.988 3.656 4.438c0 0.756-0.163 1.506-0.462 2.162-0.069 0.15-0.219 0.238-0.375 0.238z"></path>
<path fill="#5e686c" d="M18.413 6.325c-0.913 0-1.656-0.744-1.656-1.656s0.744-1.656 1.656-1.656c0.913 0 1.656 0.744 1.656 1.656s-0.744 1.656-1.656 1.656zM18.413 3.844c-0.456 0-0.825 0.369-0.825 0.825s0.369 0.825 0.825 0.825 0.825-0.369 0.825-0.825c0-0.456-0.369-0.825-0.825-0.825z"></path>
<path fill="#5e686c" d="M16.725 8.137c-0.063 0-0.119-0.012-0.175-0.037l-1.688-0.8c-0.206-0.1-0.294-0.344-0.194-0.55s0.344-0.294 0.55-0.194l1.513 0.719 1.512-0.719c0.206-0.1 0.45-0.013 0.55 0.194s0.012 0.45-0.194 0.55l-1.688 0.8c-0.069 0.025-0.125 0.037-0.188 0.037z"></path>
<path fill="#5e686c" d="M7.3 15.744c-0.15 0-0.294-0.081-0.369-0.225-0.45-0.863 0.537-2.369 2.319-4.95 1.425-2.069 3.044-4.406 3.044-5.731v-0.169c0-2.444 1.988-4.438 4.431-4.438s4.438 1.987 4.438 4.438v0.194c0 1.406 1.619 3.738 3.050 5.794 1.712 2.463 2.656 3.894 2.262 4.769-0.094 0.206-0.337 0.3-0.55 0.206-0.206-0.094-0.3-0.338-0.206-0.55 0.219-0.488-1.175-2.488-2.188-3.95-1.575-2.262-3.2-4.6-3.2-6.263v-0.194c0-1.987-1.619-3.606-3.606-3.606s-3.606 1.619-3.606 3.606v0.169c0 1.581-1.619 3.931-3.188 6.2-1 1.45-2.506 3.631-2.263 4.1 0.106 0.2 0.025 0.45-0.175 0.556-0.069 0.025-0.131 0.044-0.194 0.044z"></path>
<path fill="#5e686c" d="M15.981 31.813c-0.912 0-1.656-0.744-1.656-1.656s0.744-1.65 1.656-1.65c0.913 0 1.656 0.744 1.656 1.65-0.006 0.913-0.744 1.656-1.656 1.656zM15.981 29.331c-0.456 0-0.825 0.369-0.825 0.825s0.369 0.831 0.825 0.831c0.456 0 0.825-0.369 0.825-0.831 0-0.456-0.369-0.825-0.825-0.825z"></path>
<path fill="#5e686c" d="M15.981 29.331c-0.231 0-0.412-0.188-0.412-0.413v-2.481c0-0.231 0.188-0.413 0.412-0.413s0.413 0.188 0.413 0.413v2.481c0 0.225-0.188 0.413-0.412 0.413z"></path>
<path fill="#5e686c" d="M14.738 30.569h-6.919c-0.231 0-0.412-0.188-0.412-0.413 0-0.231 0.188-0.413 0.412-0.413h6.919c0.231 0 0.412 0.188 0.412 0.413 0 0.231-0.181 0.413-0.412 0.413z"></path>
<path fill="#5e686c" d="M24.137 30.569h-6.919c-0.231 0-0.413-0.188-0.413-0.413 0-0.231 0.188-0.413 0.413-0.413h6.919c0.231 0 0.413 0.188 0.413 0.413 0.006 0.231-0.181 0.413-0.413 0.413z"></path>
<path id="svg-ico" fill="#ee5586" d="M23.45 21.731c-0.913 0-1.656-0.744-1.656-1.656s0.744-1.656 1.656-1.656c0.913 0 1.656 0.744 1.656 1.656-0.006 0.913-0.75 1.656-1.656 1.656zM23.45 19.25c-0.456 0-0.825 0.369-0.825 0.825s0.369 0.825 0.825 0.825 0.825-0.369 0.825-0.825c0-0.456-0.375-0.825-0.825-0.825z"></path>
<path id="svg-ico" fill="#ee5586" d="M27.625 25.194h-23.294c-0.987 0-1.794-0.744-1.794-1.656v-6.925c0-0.912 0.806-1.656 1.794-1.656h23.294c0.988 0 1.788 0.744 1.788 1.656v6.925c0.006 0.913-0.8 1.656-1.788 1.656zM4.331 15.787c-0.531 0-0.962 0.369-0.962 0.825v6.925c0 0.456 0.431 0.831 0.962 0.831h23.294c0.531 0 0.962-0.369 0.962-0.831v-6.925c0-0.456-0.431-0.825-0.962-0.825h-23.294z"></path>
</svg>
