<!-- Generated by IcoMoon.io -->
<svg version="1.1" xmlns="http://www.w3.org/2000/svg" width="32" height="32" viewBox="0 0 32 32">
<title>livechat</title>
<path fill="#5e686c" d="M12.819 9.137c-0.238 0-0.438-0.181-0.456-0.425-0.188-2.556-2.619-4.556-5.544-4.556-0.256 0-0.456-0.206-0.456-0.456s0.206-0.456 0.456-0.456c3.4 0 6.237 2.375 6.456 5.406 0.019 0.25-0.169 0.475-0.425 0.494-0.006-0.006-0.019-0.006-0.031-0.006z"></path>
<path fill="#5e686c" d="M3.406 14.988c-0.106 0-0.225-0.025-0.325-0.081-0.206-0.113-0.331-0.325-0.337-0.556l-0.15-0.938c-1.425-1.1-2.237-2.688-2.237-4.381 0-3.194 2.906-5.787 6.475-5.787 0.256 0 0.456 0.206 0.456 0.456 0 0.256-0.206 0.456-0.456 0.456-3.063 0-5.556 2.181-5.556 4.869 0 1.456 0.737 2.819 2.013 3.75 0.1 0.069 0.163 0.181 0.181 0.3l0.138 0.875 0.875-0.375c0.106-0.044 0.219-0.050 0.331-0.012 1.069 0.363 2.263 0.431 3.362 0.188 0.244-0.056 0.494 0.1 0.55 0.35s-0.1 0.494-0.35 0.55c-1.2 0.262-2.506 0.213-3.688-0.156l-1.006 0.431c-0.081 0.037-0.175 0.063-0.275 0.063z"></path>
<path id="svg-ico" fill="#ee5586" d="M26.219 28.794c-0.15 0-0.3-0.044-0.431-0.119l-2.081-0.887c-1.363 0.444-2.788 0.669-4.238 0.669-6.769 0-12.281-4.906-12.281-10.938s5.506-10.938 12.281-10.938c6.775 0 12.281 4.906 12.281 10.938 0 3.238-1.587 6.281-4.369 8.369l-0.337 2.144c0 0.394-0.369 0.762-0.825 0.762zM23.731 26.837c0.063 0 0.125 0.012 0.181 0.038l2.244 0.962 0.35-2.275c0.019-0.119 0.087-0.231 0.181-0.3 2.637-1.913 4.144-4.738 4.144-7.738 0-5.525-5.1-10.019-11.363-10.019s-11.363 4.494-11.363 10.019 5.1 10.019 11.363 10.019c1.413 0 2.794-0.231 4.106-0.675 0.056-0.025 0.106-0.031 0.156-0.031z"></path>
<path fill="#5e686c" d="M24.563 14.988h-10.731c-0.256 0-0.456-0.206-0.456-0.456s0.206-0.456 0.456-0.456h10.731c0.256 0 0.456 0.206 0.456 0.456s-0.2 0.456-0.456 0.456z"></path>
<path fill="#5e686c" d="M24.563 18.181h-10.731c-0.256 0-0.456-0.206-0.456-0.456s0.206-0.456 0.456-0.456h10.731c0.256 0 0.456 0.206 0.456 0.456s-0.2 0.456-0.456 0.456z"></path>
<path fill="#5e686c" d="M24.563 21.313h-10.731c-0.256 0-0.456-0.206-0.456-0.456 0-0.256 0.206-0.456 0.456-0.456h10.731c0.256 0 0.456 0.206 0.456 0.456 0.006 0.25-0.2 0.456-0.456 0.456z"></path>
</svg>
