<!-- Generated by IcoMoon.io -->
<svg version="1.1" xmlns="http://www.w3.org/2000/svg" width="32" height="32" viewBox="0 0 32 32">
<title>location</title>
<path id="svg-ico" fill="#ee5586" d="M16.050 31.656c-5.65 0-11.662-1.281-11.662-3.663 0-2.044 4.162-2.994 6.644-3.375 0.238-0.038 0.45 0.125 0.488 0.356s-0.125 0.45-0.356 0.488c-4.369 0.675-5.925 1.781-5.925 2.531 0 1.325 4.625 2.813 10.806 2.813 6.131 0 10.712-1.481 10.712-2.813 0-0.706-1.556-1.738-4.981-2.344-0.231-0.044-0.387-0.262-0.344-0.494s0.262-0.387 0.494-0.344c3.613 0.637 5.681 1.794 5.681 3.181 0.006 2.375-5.95 3.663-11.556 3.663z"></path>
<path fill="#5e686b" d="M16.050 25.944c-0.137 0-0.269-0.069-0.35-0.181-0.35-0.494-8.55-12.063-8.55-16.719 0-4.8 3.95-8.706 8.806-8.706 4.825 0 8.9 3.987 8.9 8.706 0 4.65-8.113 16.225-8.456 16.712-0.081 0.119-0.212 0.188-0.35 0.188 0 0 0 0 0 0zM15.95 1.188c-4.381 0-7.95 3.525-7.95 7.856 0 3.863 6.456 13.431 8.044 15.725 1.575-2.3 7.956-11.863 7.956-15.725 0-4.256-3.688-7.856-8.050-7.856z"></path>
<path fill="#5e686b" d="M16 13.569c-2.338 0-4.231-1.9-4.231-4.231 0-2.338 1.9-4.231 4.231-4.231 2.337 0 4.231 1.9 4.231 4.231s-1.894 4.231-4.231 4.231zM16 5.95c-1.863 0-3.381 1.519-3.381 3.381s1.519 3.381 3.381 3.381c1.863 0 3.381-1.519 3.381-3.381s-1.519-3.381-3.381-3.381z"></path>
</svg>
