<!-- Generated by IcoMoon.io -->
<svg version="1.1" xmlns="http://www.w3.org/2000/svg" width="32" height="32" viewBox="0 0 32 32">
<title>log</title>
<path fill="#5e686c" d="M4.813 31.956c-1.281 0-2.487-0.5-3.394-1.406-1.869-1.869-1.869-4.912 0-6.787 0.906-0.906 2.112-1.406 3.394-1.406s2.487 0.5 3.394 1.406c0.906 0.906 1.406 2.113 1.406 3.394s-0.5 2.488-1.406 3.394c-0.906 0.906-2.112 1.406-3.394 1.406zM4.813 23.231c-1.050 0-2.031 0.406-2.775 1.15-1.531 1.531-1.531 4.019 0 5.55 0.744 0.744 1.725 1.15 2.775 1.15s2.031-0.406 2.775-1.15c0.744-0.744 1.15-1.725 1.15-2.775s-0.406-2.038-1.15-2.775c-0.744-0.744-1.725-1.15-2.775-1.15z"></path>
<path fill="#5e686c" d="M27.425 16.775c-1.281 0-2.488-0.5-3.394-1.406-1.869-1.869-1.869-4.912 0-6.787 0.906-0.906 2.113-1.406 3.394-1.406s2.488 0.5 3.394 1.406c0.906 0.906 1.406 2.112 1.406 3.394s-0.5 2.488-1.406 3.394c-0.906 0.906-2.113 1.406-3.394 1.406zM27.425 8.050c-1.050 0-2.031 0.406-2.775 1.15-1.531 1.531-1.531 4.019 0 5.55 0.744 0.744 1.725 1.15 2.775 1.15s2.031-0.406 2.775-1.15c0.744-0.744 1.15-1.725 1.15-2.775s-0.406-2.037-1.15-2.775c-0.744-0.744-1.731-1.15-2.775-1.15z"></path>
<path fill="#5e686c" d="M16.113 24.481c-1.281 0-2.488-0.5-3.394-1.406-1.869-1.869-1.869-4.912 0-6.787 0.906-0.906 2.113-1.406 3.394-1.406s2.488 0.5 3.394 1.406c1.869 1.869 1.869 4.913 0 6.788-0.906 0.906-2.113 1.406-3.394 1.406zM16.113 15.756c-1.050 0-2.037 0.406-2.775 1.15-1.531 1.531-1.531 4.019 0 5.55 0.744 0.744 1.725 1.15 2.775 1.15s2.038-0.406 2.775-1.15c1.531-1.531 1.531-4.019 0-5.55-0.744-0.744-1.731-1.15-2.775-1.15z"></path>
<path id="svg-ico" fill="#ee5586" d="M4.813 9.644c-1.281 0-2.487-0.5-3.394-1.406-1.869-1.869-1.869-4.912 0-6.787 0.906-0.906 2.112-1.406 3.394-1.406s2.487 0.5 3.394 1.406c1.869 1.869 1.869 4.912 0 6.787-0.906 0.906-2.112 1.406-3.394 1.406zM4.813 0.919c-1.050 0-2.038 0.406-2.775 1.15-1.531 1.531-1.531 4.019 0 5.55 0.744 0.744 1.725 1.15 2.775 1.15s2.037-0.406 2.775-1.15c1.531-1.531 1.531-4.019 0-5.55-0.737-0.744-1.725-1.15-2.775-1.15z"></path>
<path fill="#5e686c" d="M19.844 17.869c-0.144 0-0.288-0.069-0.369-0.2-0.131-0.206-0.069-0.475 0.137-0.6l4.219-2.675c0.2-0.131 0.475-0.069 0.6 0.137 0.131 0.206 0.069 0.475-0.137 0.6l-4.219 2.675c-0.069 0.038-0.15 0.063-0.231 0.063z"></path>
<path fill="#5e686c" d="M8.4 25.113c-0.144 0-0.287-0.069-0.369-0.2-0.131-0.206-0.069-0.475 0.137-0.6l4.075-2.581c0.206-0.131 0.475-0.069 0.6 0.137 0.131 0.206 0.069 0.475-0.137 0.6l-4.075 2.581c-0.075 0.038-0.156 0.063-0.231 0.063z"></path>
<path id="svg-ico" fill="#ee5586" d="M4.813 23.125c-0.244 0-0.438-0.194-0.438-0.438v-13.481c0-0.244 0.194-0.438 0.438-0.438s0.438 0.194 0.438 0.438v13.481c0 0.238-0.194 0.438-0.438 0.438z"></path>
<path fill="#5e686c" d="M16.113 15.756c-0.244 0-0.438-0.194-0.438-0.438v-13.481c0-0.244 0.194-0.438 0.438-0.438s0.438 0.194 0.438 0.438v13.481c0 0.244-0.2 0.438-0.438 0.438z"></path>
</svg>
