<!-- Generated by IcoMoon.io -->
<svg version="1.1" xmlns="http://www.w3.org/2000/svg" width="32" height="32" viewBox="0 0 32 32">
<title>maintenance</title>
<path id="svg-ico" fill="#ee5586" d="M20.587 13.725c0.075 0.056 0.169 0.081 0.256 0.081 0.131 0 0.262-0.063 0.344-0.175l5.706-7.787c0.137-0.194 0.1-0.456-0.094-0.6-0.194-0.138-0.462-0.1-0.6 0.094l-5.706 7.787c-0.137 0.188-0.1 0.456 0.094 0.6z"></path>
<path id="svg-ico" fill="#ee5586" d="M15.469 13.725c0.075 0.056 0.162 0.081 0.25 0.081 0.131 0 0.262-0.063 0.344-0.175l5.706-7.787c0.137-0.194 0.1-0.456-0.094-0.6-0.194-0.138-0.456-0.1-0.6 0.094l-5.7 7.787c-0.137 0.188-0.1 0.456 0.094 0.6z"></path>
<path id="svg-ico" fill="#ee5586" d="M31.012 17.012h-29.825c-0.238 0-0.425-0.188-0.425-0.425v-13.637c0-0.237 0.188-0.425 0.425-0.425h29.825c0.238 0 0.425 0.188 0.425 0.425v13.631c0 0.244-0.188 0.431-0.425 0.431zM1.613 16.163h28.969v-12.781h-28.969v12.781z"></path>
<path fill="#5e686c" d="M6.344 31.606c-0.237 0-0.425-0.188-0.425-0.425v-13.988c0-0.238 0.188-0.425 0.425-0.425s0.425 0.188 0.425 0.425v13.988c0 0.238-0.188 0.425-0.425 0.425z"></path>
<path fill="#5e686c" d="M25.712 31.606c-0.238 0-0.425-0.188-0.425-0.425v-13.988c0-0.238 0.188-0.425 0.425-0.425s0.425 0.188 0.425 0.425v13.988c0 0.238-0.194 0.425-0.425 0.425z"></path>
<path fill="#5e686c" d="M6.344 2.938c-0.237 0-0.425-0.188-0.425-0.425v-1.706c0-0.238 0.188-0.425 0.425-0.425s0.425 0.187 0.425 0.425v1.706c0 0.237-0.188 0.425-0.425 0.425z"></path>
<path fill="#5e686c" d="M25.712 2.938c-0.238 0-0.425-0.188-0.425-0.425v-1.706c0-0.238 0.188-0.425 0.425-0.425s0.425 0.187 0.425 0.425v1.706c0 0.237-0.194 0.425-0.425 0.425z"></path>
<path fill="#5e686c" d="M27.844 31.606h-4.262c-0.238 0-0.425-0.188-0.425-0.425s0.188-0.425 0.425-0.425h4.262c0.238 0 0.425 0.188 0.425 0.425s-0.194 0.425-0.425 0.425z"></path>
<path fill="#5e686c" d="M8.475 31.606h-4.263c-0.237 0-0.425-0.188-0.425-0.425s0.188-0.425 0.425-0.425h4.263c0.238 0 0.425 0.188 0.425 0.425s-0.194 0.425-0.425 0.425z"></path>
<path fill="#5e686c" d="M20.894 13.781c-0.087 0-0.175-0.025-0.25-0.081-0.188-0.137-0.231-0.406-0.094-0.594l5.669-7.731c0.137-0.188 0.406-0.231 0.594-0.094s0.231 0.406 0.094 0.594l-5.669 7.731c-0.081 0.113-0.212 0.175-0.344 0.175z"></path>
<path fill="#5e686c" d="M15.806 13.781c-0.088 0-0.175-0.025-0.25-0.081-0.188-0.137-0.231-0.406-0.094-0.594l5.669-7.731c0.137-0.188 0.406-0.231 0.594-0.094s0.231 0.406 0.094 0.594l-5.669 7.731c-0.081 0.113-0.213 0.175-0.344 0.175z"></path>
<path fill="#5e686c" d="M10.725 13.781c-0.088 0-0.175-0.025-0.25-0.081-0.188-0.137-0.231-0.406-0.094-0.594l5.669-7.731c0.137-0.188 0.406-0.231 0.594-0.094s0.231 0.406 0.094 0.594l-5.669 7.731c-0.088 0.113-0.213 0.175-0.344 0.175z"></path>
<path fill="#5e686c" d="M5.638 13.781c-0.088 0-0.175-0.025-0.25-0.081-0.188-0.137-0.231-0.406-0.094-0.594l5.669-7.731c0.137-0.188 0.406-0.231 0.594-0.094s0.231 0.406 0.094 0.594l-5.669 7.731c-0.081 0.113-0.213 0.175-0.344 0.175z"></path>
</svg>
