<!-- Generated by IcoMoon.io -->
<svg version="1.1" xmlns="http://www.w3.org/2000/svg" width="32" height="32" viewBox="0 0 32 32">
<title>mobile</title>
<path fill="#5e686b" d="M24.581 31.837h-17.163c-0.537 0-0.981-0.438-0.981-0.981v-29.813c0-0.544 0.438-0.981 0.981-0.981h17.169c0.538 0 0.975 0.438 0.975 0.981v29.819c0 0.538-0.438 0.975-0.981 0.975zM7.419 0.919c-0.069 0-0.125 0.056-0.125 0.125v29.819c0 0.069 0.056 0.125 0.125 0.125h17.169c0.069 0 0.125-0.056 0.125-0.125v-29.819c0-0.069-0.056-0.125-0.125-0.125h-17.169z"></path>
<path id="svg-ico" fill="#ee5586" d="M17.288 3.706h-2.569c-0.238 0-0.431-0.194-0.431-0.431s0.194-0.431 0.431-0.431h2.569c0.238 0 0.431 0.194 0.431 0.431s-0.194 0.431-0.431 0.431z"></path>
<path id="svg-ico" fill="#ee5586" d="M16 29.113c-0.944 0-1.713-0.769-1.713-1.712s0.769-1.712 1.713-1.712c0.944 0 1.712 0.769 1.712 1.712s-0.769 1.712-1.713 1.712zM16 26.544c-0.475 0-0.856 0.381-0.856 0.856s0.381 0.856 0.856 0.856c0.475 0 0.856-0.387 0.856-0.856 0-0.475-0.381-0.856-0.856-0.856z"></path>
</svg>
