<!-- Generated by IcoMoon.io -->
<svg version="1.1" xmlns="http://www.w3.org/2000/svg" width="32" height="32" viewBox="0 0 32 32">
<title>monitor</title>
<path fill="#5e686c" d="M31.288 25.244h-30.575c-0.237 0-0.425-0.188-0.425-0.425v-5.831c0-0.238 0.188-0.425 0.425-0.425s0.425 0.188 0.425 0.425v5.406h29.725v-5.406c0-0.238 0.188-0.425 0.425-0.425s0.425 0.188 0.425 0.425v5.831c0 0.238-0.194 0.425-0.425 0.425z"></path>
<path fill="#5e686c" d="M16 30.688c-0.238 0-0.425-0.188-0.425-0.425v-4.244c0-0.238 0.188-0.425 0.425-0.425s0.425 0.188 0.425 0.425v4.244c0 0.231-0.194 0.425-0.425 0.425z"></path>
<path fill="#5e686c" d="M23.475 30.688h-14.95c-0.238 0-0.425-0.188-0.425-0.425s0.188-0.425 0.425-0.425h14.956c0.238 0 0.425 0.188 0.425 0.425s-0.194 0.425-0.431 0.425z"></path>
<path id="svg-ico" fill="#ee5586" d="M31.288 19.413h-30.575c-0.237 0-0.425-0.188-0.425-0.425v-16.331c0-0.237 0.188-0.425 0.425-0.425h30.575c0.238 0 0.425 0.188 0.425 0.425v16.331c0 0.231-0.194 0.425-0.425 0.425zM1.137 18.563h29.725v-15.481h-29.725v15.481z"></path>
</svg>
