<!-- Generated by IcoMoon.io -->
<svg version="1.1" xmlns="http://www.w3.org/2000/svg" width="32" height="32" viewBox="0 0 32 32">
<title>mouse</title>
<path id="svg-ico" fill="#ee5586" d="M16 31.7c-5.319 0-9.644-4.325-9.644-9.644v-7.081c0-5.319 4.325-9.644 9.644-9.644s9.644 4.325 9.644 9.644v7.088c0 5.313-4.325 9.637-9.644 9.637zM16 6.206c-4.838 0-8.769 3.931-8.769 8.769v7.087c0 4.837 3.938 8.769 8.769 8.769 4.837 0 8.769-3.931 8.769-8.769v-7.088c0-4.838-3.931-8.769-8.769-8.769z"></path>
<path fill="#656565" d="M16 31.7c-5.319 0-9.644-4.325-9.644-9.644v-7.081c0-5.319 4.325-9.644 9.644-9.644s9.644 4.325 9.644 9.644v7.088c0 5.313-4.325 9.637-9.644 9.637zM16 6.206c-4.838 0-8.769 3.931-8.769 8.769v7.087c0 4.837 3.938 8.769 8.769 8.769 4.837 0 8.769-3.931 8.769-8.769v-7.088c0-4.838-3.931-8.769-8.769-8.769z"></path>
<path fill="#656565" d="M16 6.206c-0.244 0-0.438-0.194-0.438-0.438v-5.156c0-0.244 0.194-0.438 0.438-0.438s0.438 0.194 0.438 0.438v5.156c0 0.244-0.194 0.438-0.438 0.438z"></path>
<path id="svg-ico" fill="#ee5586" d="M16 15.469c-1.444 0-2.613-1.175-2.613-2.619s1.175-2.612 2.613-2.612c1.444 0 2.613 1.175 2.613 2.613 0 1.444-1.169 2.619-2.613 2.619zM16 11.106c-0.963 0-1.744 0.781-1.744 1.744s0.781 1.744 1.744 1.744c0.962 0 1.744-0.781 1.744-1.744 0-0.956-0.781-1.744-1.744-1.744z"></path>
</svg>
