<!-- Generated by IcoMoon.io -->
<svg version="1.1" xmlns="http://www.w3.org/2000/svg" width="32" height="32" viewBox="0 0 32 32">
<title>network</title>
<path fill="#5e686b" d="M16.256 24.875c6.806 0 12.344-5.538 12.344-12.344 0.006-6.813-5.538-12.35-12.344-12.35s-12.344 5.537-12.35 12.344c0 0 0 0 0 0s0 0 0 0 0 0 0 0c0 6.812 5.544 12.35 12.35 12.35zM6.813 6.006c0.894 0.625 1.912 1.15 3.012 1.575-0.35 1.388-0.55 2.913-0.581 4.513h-4.456c0.081-2.256 0.819-4.344 2.025-6.088zM27.725 12.094h-4.456c-0.031-1.6-0.238-3.125-0.581-4.513 1.1-0.419 2.113-0.95 3.012-1.575 1.206 1.744 1.944 3.831 2.025 6.088zM25.7 19.050c-0.894-0.625-1.913-1.15-3.012-1.575 0.35-1.387 0.55-2.912 0.581-4.512h4.456c-0.081 2.25-0.819 4.344-2.025 6.088zM15.825 16.325c-1.825 0.038-3.581 0.331-5.194 0.85-0.306-1.3-0.494-2.719-0.525-4.219h5.713v3.369zM15.825 17.194v6.781c-2.144-0.281-3.988-2.613-4.963-5.95 1.537-0.5 3.225-0.788 4.963-0.831zM16.688 23.975v-6.781c1.731 0.044 3.425 0.331 4.962 0.831-0.975 3.337-2.819 5.675-4.962 5.95zM16.688 16.331v-3.369h5.712c-0.031 1.5-0.212 2.925-0.525 4.231-1.613-0.525-3.381-0.825-5.188-0.863zM22.406 12.094h-5.719v-3.363c1.806-0.044 3.569-0.338 5.188-0.862 0.313 1.3 0.5 2.725 0.531 4.225zM16.688 7.862v-6.787c2.144 0.281 3.988 2.612 4.962 5.95-1.538 0.506-3.225 0.794-4.962 0.838zM15.825 1.075v6.781c-1.731-0.044-3.425-0.331-4.963-0.831 0.975-3.337 2.819-5.669 4.963-5.95zM15.825 8.731v3.363h-5.713c0.031-1.5 0.213-2.925 0.525-4.225 1.613 0.519 3.381 0.819 5.188 0.863zM9.244 12.963c0.031 1.594 0.238 3.119 0.581 4.506-1.094 0.419-2.106 0.95-3.013 1.581-1.206-1.744-1.944-3.831-2.025-6.088h4.456zM7.331 19.744c0.813-0.563 1.731-1.044 2.725-1.431 0.688 2.262 1.756 4.106 3.063 5.256-2.306-0.65-4.313-2.012-5.787-3.825zM19.394 23.569c1.306-1.15 2.381-2.994 3.063-5.256 0.994 0.387 1.913 0.863 2.725 1.425-1.475 1.819-3.481 3.181-5.787 3.831zM25.181 5.313c-0.813 0.563-1.731 1.044-2.725 1.431-0.688-2.263-1.756-4.106-3.063-5.256 2.306 0.65 4.313 2.013 5.788 3.825zM13.119 1.481c-1.306 1.15-2.381 2.994-3.063 5.256-0.994-0.381-1.912-0.862-2.725-1.425 1.475-1.813 3.488-3.175 5.787-3.831z"></path>
<path id="svg-ico" fill="#ee5586" d="M26.081 28.344c-0.806 0-1.488 0.556-1.681 1.3h-6.463c-0.156-0.606-0.637-1.087-1.244-1.244v-2.225c0-0.238-0.194-0.431-0.431-0.431s-0.431 0.194-0.431 0.431v2.225c-0.606 0.156-1.088 0.637-1.244 1.244h-6.506c-0.194-0.75-0.875-1.3-1.681-1.3-0.956 0-1.731 0.775-1.731 1.731s0.775 1.738 1.731 1.738c0.806 0 1.487-0.556 1.681-1.3h6.494c0.194 0.75 0.875 1.3 1.681 1.3s1.488-0.556 1.681-1.3h6.462c0.194 0.75 0.875 1.3 1.681 1.3 0.956 0 1.738-0.781 1.738-1.738-0.006-0.956-0.781-1.731-1.738-1.731zM6.406 30.944c-0.481 0-0.869-0.387-0.869-0.869 0-0.475 0.388-0.869 0.869-0.869 0.463 0 0.838 0.363 0.862 0.819 0 0.019-0.006 0.031-0.006 0.050s0 0.031 0.006 0.050c-0.025 0.456-0.406 0.819-0.862 0.819zM16.256 30.944c-0.481 0-0.869-0.387-0.869-0.869 0-0.475 0.387-0.869 0.869-0.869s0.869 0.387 0.869 0.869c0 0.481-0.387 0.869-0.869 0.869zM26.081 30.944c-0.431 0-0.788-0.319-0.856-0.725 0.012-0.044 0.025-0.087 0.025-0.137s-0.006-0.094-0.025-0.137c0.069-0.413 0.425-0.725 0.856-0.725 0.481 0 0.869 0.387 0.869 0.869-0.006 0.469-0.394 0.856-0.869 0.856z"></path>
</svg>
