<!-- Generated by IcoMoon.io -->
<svg version="1.1" xmlns="http://www.w3.org/2000/svg" width="32" height="32" viewBox="0 0 32 32">
<title>objective</title>
<path fill="#5e686b" d="M0.887 8.869c-0.231 0-0.419-0.188-0.419-0.419v-7.563c0-0.231 0.188-0.419 0.419-0.419s0.419 0.188 0.419 0.419v7.563c0 0.231-0.188 0.419-0.419 0.419z"></path>
<path fill="#5e686b" d="M8.45 1.306h-7.563c-0.231 0-0.419-0.188-0.419-0.419s0.188-0.419 0.419-0.419h7.563c0.231 0 0.419 0.188 0.419 0.419s-0.188 0.419-0.419 0.419z"></path>
<path fill="#5e686b" d="M31.131 1.306h-7.569c-0.231 0-0.419-0.188-0.419-0.419s0.188-0.419 0.419-0.419h7.563c0.231 0 0.419 0.188 0.419 0.419s-0.181 0.419-0.413 0.419z"></path>
<path fill="#5e686b" d="M31.131 8.869c-0.231 0-0.419-0.188-0.419-0.419v-7.563c0-0.231 0.188-0.419 0.419-0.419s0.419 0.188 0.419 0.419v7.563c0 0.231-0.188 0.419-0.419 0.419z"></path>
<path fill="#5e686b" d="M31.131 31.569c-0.231 0-0.419-0.188-0.419-0.419v-7.563c0-0.231 0.188-0.419 0.419-0.419s0.419 0.188 0.419 0.419v7.563c0 0.231-0.188 0.419-0.419 0.419z"></path>
<path fill="#5e686b" d="M31.131 31.569h-7.569c-0.231 0-0.419-0.188-0.419-0.419s0.188-0.419 0.419-0.419h7.563c0.231 0 0.419 0.188 0.419 0.419 0.006 0.231-0.181 0.419-0.413 0.419z"></path>
<path fill="#5e686b" d="M8.45 31.569h-7.563c-0.231 0-0.419-0.188-0.419-0.419s0.188-0.419 0.419-0.419h7.563c0.231 0 0.419 0.188 0.419 0.419s-0.188 0.419-0.419 0.419z"></path>
<path fill="#5e686b" d="M0.887 31.569c-0.231 0-0.419-0.188-0.419-0.419v-7.563c0-0.231 0.188-0.419 0.419-0.419s0.419 0.188 0.419 0.419v7.563c0 0.231-0.188 0.419-0.419 0.419z"></path>
<path id="svg-ico" fill="#ee5586" d="M16.006 20.012c-2.55 0-4.619-2.075-4.619-4.619s2.075-4.619 4.619-4.619c2.55 0 4.619 2.075 4.619 4.619 0.006 2.544-2.069 4.619-4.619 4.619zM16.006 11.613c-2.088 0-3.781 1.694-3.781 3.781 0 2.081 1.694 3.781 3.781 3.781s3.781-1.694 3.781-3.781c0-2.088-1.694-3.781-3.781-3.781z"></path>
</svg>
