<!-- Generated by IcoMoon.io -->
<svg version="1.1" xmlns="http://www.w3.org/2000/svg" width="32" height="32" viewBox="0 0 32 32">
<title>pacman</title>
<path fill="#5e686b" d="M17.188 31.813c-8.725 0-15.819-7.094-15.819-15.819 0-8.719 7.094-15.819 15.819-15.819 4.619 0 9 2.013 12.012 5.525 0.144 0.169 0.137 0.412-0.019 0.569l-9.481 9.725 9.475 9.725c0.15 0.156 0.163 0.406 0.019 0.569-3.012 3.512-7.387 5.525-12.006 5.525zM17.188 1.025c-8.256 0-14.969 6.713-14.969 14.969-0.006 8.256 6.713 14.969 14.969 14.969 4.244 0 8.269-1.794 11.113-4.938l-9.494-9.738c-0.163-0.163-0.163-0.425 0-0.594l9.488-9.731c-2.837-3.144-6.869-4.938-11.106-4.938z"></path>
<path id="svg-ico" fill="#ee5586" d="M21.031 8.919c-1.4 0-2.544-1.138-2.544-2.544s1.137-2.544 2.544-2.544c1.4 0 2.544 1.138 2.544 2.544s-1.137 2.544-2.544 2.544zM21.031 4.681c-0.931 0-1.694 0.763-1.694 1.694s0.762 1.694 1.694 1.694c0.938 0 1.694-0.763 1.694-1.694s-0.756-1.694-1.694-1.694z"></path>
</svg>
