<!-- Generated by IcoMoon.io -->
<svg version="1.1" xmlns="http://www.w3.org/2000/svg" width="32" height="32" viewBox="0 0 32 32">
<title>pic</title>
<path id="svg-ico" fill="#ee5586" d="M22.712 15.644c-1.95 0-3.538-1.588-3.538-3.537s1.587-3.537 3.538-3.537c1.95 0 3.531 1.588 3.531 3.537 0.006 1.95-1.581 3.537-3.531 3.537zM22.712 9.425c-1.481 0-2.688 1.206-2.688 2.688s1.206 2.688 2.688 2.688c1.481 0 2.688-1.206 2.688-2.688 0-1.488-1.206-2.688-2.688-2.688z"></path>
<path id="svg-ico" fill="#ee5586" d="M0.675 31.3c-0.081 0-0.156-0.019-0.231-0.069-0.2-0.125-0.256-0.387-0.125-0.587l9.619-14.887c0.081-0.125 0.225-0.194 0.369-0.194 0.15 0.006 0.281 0.088 0.356 0.219l4.581 8.094 2.406-3.2c0.081-0.106 0.169-0.181 0.337-0.169 0.131 0 0.256 0.063 0.337 0.169l7.575 9.938c0.144 0.188 0.106 0.45-0.081 0.594-0.181 0.144-0.456 0.106-0.594-0.081l-7.238-9.488-2.456 3.269c-0.088 0.113-0.225 0.181-0.369 0.169-0.144-0.006-0.275-0.087-0.344-0.212l-4.55-8.056-9.238 14.3c-0.081 0.125-0.213 0.194-0.356 0.194z"></path>
<path fill="#5e686c" d="M31.194 31.3h-30.519c-0.237 0-0.425-0.188-0.425-0.425v-29.988c0-0.238 0.188-0.425 0.425-0.425h30.519c0.238 0 0.425 0.187 0.425 0.425v29.988c0 0.231-0.188 0.425-0.425 0.425zM1.1 30.45h29.669v-29.137h-29.669v29.137z"></path>
</svg>
