<!-- Generated by IcoMoon.io -->
<svg version="1.1" xmlns="http://www.w3.org/2000/svg" width="32" height="32" viewBox="0 0 32 32">
<title>point</title>
<path fill="#5e686b" d="M15.463 29.113c0 0.006-0.006 0.006-0.006 0.012-0.369 0.825-0.706 1.413-0.875 1.694h-4.856c-0.506-0.837-2.475-4.413-2.475-8.931 0-5.156 2.563-9.012 2.594-9.050 0.050-0.069 0.075-0.15 0.075-0.238v-2.662c0-1.5-0.406-2.606-0.762-3.588-0.306-0.831-0.569-1.55-0.569-2.406 0-1.206 1.106-2.906 3.575-2.906 2.463 0 3.575 1.7 3.575 2.906 0 0.85-0.262 1.569-0.569 2.406-0.356 0.975-0.762 2.081-0.762 3.588v2.662c0 0.081 0.025 0.169 0.075 0.238 0.012 0.019 1.325 1.988 2.075 4.956 0.012 0.050 0.038 0.1 0.069 0.144 0.206-0.194 0.456-0.35 0.719-0.462-0.694-2.688-1.794-4.537-2.094-5v-2.537c0-1.35 0.363-2.344 0.713-3.294 0.319-0.869 0.619-1.694 0.619-2.694 0-1.556-1.369-3.75-4.412-3.75-2.763 0-4.412 1.906-4.412 3.75 0 1 0.3 1.825 0.619 2.694 0.35 0.956 0.713 1.944 0.713 3.294v2.537c-0.444 0.694-2.662 4.419-2.662 9.412 0 5.419 2.625 9.413 2.731 9.581 0.075 0.119 0.213 0.188 0.35 0.188h5.325c0.137 0 0.275-0.069 0.35-0.188 0.019-0.031 0.463-0.7 0.994-1.863-0.275-0.119-0.512-0.288-0.713-0.494z"></path>
<path id="svg-ico" fill="#ee5586" d="M20.637 31.656c-4.269 0-7.744-3.475-7.744-7.744s3.475-7.744 7.744-7.744 7.744 3.475 7.744 7.744c0 4.269-3.475 7.744-7.744 7.744zM20.637 17.012c-3.806 0-6.9 3.094-6.9 6.9s3.094 6.9 6.9 6.9 6.9-3.094 6.9-6.9c0.006-3.806-3.094-6.9-6.9-6.9z"></path>
<path fill="#5e686b" d="M14.819 13.019h-5.325c-0.231 0-0.419-0.188-0.419-0.419s0.188-0.419 0.419-0.419h5.325c0.231 0 0.419 0.188 0.419 0.419s-0.188 0.419-0.419 0.419z"></path>
</svg>
