<!-- Generated by IcoMoon.io -->
<svg version="1.1" xmlns="http://www.w3.org/2000/svg" width="32" height="32" viewBox="0 0 32 32">
<title>preferences</title>
<path fill="#5e686b" d="M4.888 10v-8.988c0-0.231-0.188-0.419-0.419-0.419s-0.419 0.188-0.419 0.419v8.988c-1.644 0.206-2.919 1.613-2.919 3.313s1.275 3.106 2.919 3.313v14.363c0 0.231 0.188 0.419 0.419 0.419s0.419-0.188 0.419-0.419v-14.369c1.644-0.206 2.919-1.613 2.919-3.313s-1.275-3.1-2.919-3.306zM4.475 15.813c-1.381 0-2.506-1.125-2.506-2.506s1.125-2.506 2.506-2.506c1.381 0 2.5 1.125 2.5 2.506s-1.125 2.506-2.5 2.506z"></path>
<path id="svg-ico" fill="#ee5586" d="M16.419 5.388v-4.375c0-0.231-0.188-0.419-0.419-0.419s-0.419 0.188-0.419 0.419v4.375c-1.644 0.206-2.919 1.612-2.919 3.312s1.275 3.106 2.919 3.313v18.975c0 0.231 0.188 0.419 0.419 0.419s0.419-0.188 0.419-0.419v-18.975c1.644-0.206 2.919-1.613 2.919-3.313s-1.275-3.106-2.919-3.313zM16 11.2c-1.381 0-2.506-1.125-2.506-2.506s1.125-2.506 2.506-2.506c1.381 0 2.5 1.125 2.5 2.506s-1.119 2.506-2.5 2.506z"></path>
<path fill="#5e686b" d="M30.863 24.837c0-1.7-1.275-3.106-2.919-3.313v-20.512c0-0.231-0.188-0.419-0.419-0.419s-0.419 0.188-0.419 0.419v20.512c-1.644 0.206-2.919 1.613-2.919 3.313s1.275 3.106 2.919 3.313v2.837c0 0.231 0.188 0.419 0.419 0.419s0.419-0.188 0.419-0.419v-2.837c1.644-0.206 2.919-1.613 2.919-3.313zM27.525 27.344c-1.381 0-2.506-1.125-2.506-2.506s1.125-2.506 2.506-2.506c1.381 0 2.5 1.125 2.5 2.506s-1.119 2.506-2.5 2.506z"></path>
</svg>
