<!-- Generated by IcoMoon.io -->
<svg version="1.1" xmlns="http://www.w3.org/2000/svg" width="32" height="32" viewBox="0 0 32 32">
<title>private</title>
<path id="svg-ico" fill="#ee5586" d="M26.462 27.644c-1.837 0-3.337-1.5-3.337-3.337s1.494-3.337 3.337-3.337 3.337 1.5 3.337 3.337c0 1.844-1.5 3.337-3.337 3.337zM26.462 21.806c-1.381 0-2.5 1.125-2.5 2.5 0 1.381 1.125 2.5 2.5 2.5s2.5-1.125 2.5-2.5c0-1.375-1.119-2.5-2.5-2.5z"></path>
<path id="svg-ico" fill="#ee5586" d="M17.95 31.663c-1.837 0-3.338-1.494-3.338-3.337s1.5-3.337 3.338-3.337 3.337 1.5 3.337 3.337c0 1.837-1.5 3.337-3.337 3.337zM17.95 25.819c-1.381 0-2.506 1.125-2.506 2.5 0 1.381 1.125 2.5 2.506 2.5s2.5-1.125 2.5-2.5c0-1.375-1.119-2.5-2.5-2.5z"></path>
<path id="svg-ico" fill="#ee5586" d="M25.219 11.775c-1.837 0-3.337-1.5-3.337-3.338s1.494-3.338 3.337-3.338c1.837 0 3.337 1.5 3.337 3.338s-1.5 3.338-3.337 3.338zM25.219 5.938c-1.381 0-2.5 1.125-2.5 2.5 0 1.381 1.125 2.5 2.5 2.5 1.381 0 2.5-1.125 2.5-2.5s-1.125-2.5-2.5-2.5z"></path>
<path id="svg-ico" fill="#ee5586" d="M20.031 14.075c-0.106 0-0.212-0.044-0.294-0.125-0.163-0.162-0.163-0.425 0-0.588l3.144-3.144c0.163-0.162 0.425-0.162 0.587 0s0.163 0.425 0 0.588l-3.144 3.144c-0.081 0.088-0.188 0.125-0.294 0.125z"></path>
<path id="svg-ico" fill="#ee5586" d="M24.444 22.619c-0.106 0-0.212-0.038-0.294-0.125l-4.375-4.375c-0.163-0.163-0.163-0.425 0-0.587s0.425-0.163 0.587 0l4.375 4.375c0.163 0.163 0.163 0.425 0 0.587-0.081 0.081-0.188 0.125-0.294 0.125z"></path>
<path id="svg-ico" fill="#ee5586" d="M17.994 25.819c-0.231 0-0.419-0.188-0.419-0.419v-6.731c0-0.231 0.188-0.419 0.419-0.419s0.419 0.188 0.419 0.419v6.731c0 0.238-0.188 0.419-0.419 0.419z"></path>
<path fill="#5e686c" d="M5.794 19.087c-1.837 0-3.337-1.5-3.337-3.338s1.5-3.338 3.337-3.338 3.337 1.5 3.337 3.338c0 1.844-1.5 3.338-3.338 3.338zM5.794 13.25c-1.381 0-2.5 1.125-2.5 2.5s1.125 2.5 2.5 2.5 2.5-1.125 2.5-2.5c0-1.381-1.119-2.5-2.5-2.5z"></path>
<path fill="#5e686c" d="M5.794 6.8c-1.837 0-3.337-1.5-3.337-3.337s1.494-3.337 3.337-3.337 3.337 1.5 3.337 3.337c0 1.837-1.5 3.337-3.338 3.337zM5.794 0.956c-1.381 0-2.5 1.125-2.5 2.5s1.125 2.5 2.5 2.5 2.5-1.125 2.5-2.5-1.119-2.5-2.5-2.5z"></path>
<path fill="#5e686c" d="M17.994 19.087c-1.837 0-3.338-1.5-3.338-3.338s1.494-3.338 3.338-3.338 3.337 1.5 3.337 3.338c0 1.844-1.5 3.338-3.337 3.338zM17.994 13.25c-1.381 0-2.5 1.125-2.5 2.5s1.125 2.5 2.5 2.5c1.381 0 2.5-1.125 2.5-2.5 0-1.381-1.119-2.5-2.5-2.5z"></path>
<path fill="#5e686c" d="M15.906 14.075c-0.106 0-0.213-0.044-0.294-0.125l-8.094-8.088c-0.162-0.162-0.162-0.425 0-0.588s0.425-0.162 0.588 0l8.094 8.094c0.163 0.162 0.163 0.425 0 0.588-0.081 0.081-0.188 0.119-0.294 0.119z"></path>
<path fill="#5e686c" d="M15.075 16.169h-6.363c-0.231 0-0.419-0.188-0.419-0.419s0.188-0.419 0.419-0.419h6.363c0.231 0 0.419 0.188 0.419 0.419-0.006 0.231-0.188 0.419-0.419 0.419z"></path>
</svg>
