<!-- Generated by IcoMoon.io -->
<svg version="1.1" xmlns="http://www.w3.org/2000/svg" width="32" height="32" viewBox="0 0 32 32">
<title>qrcode</title>
<path fill="#5e686b" d="M10.969 0.469h-10.088c-0.231 0-0.412 0.188-0.412 0.412v10.088c0 0.231 0.188 0.412 0.412 0.412h10.088c0.231 0 0.412-0.188 0.412-0.412v-10.088c0.006-0.225-0.181-0.412-0.412-0.412zM10.556 10.556h-9.256v-9.256h9.256v9.256z"></path>
<path fill="#5e686b" d="M4.681 7.588h2.494c0.231 0 0.412-0.188 0.412-0.412v-2.494c0-0.231-0.188-0.412-0.412-0.412h-2.494c-0.231 0-0.412 0.188-0.412 0.412v2.494c-0.006 0.231 0.181 0.412 0.412 0.412zM5.094 5.094h1.662v1.662h-1.662v-1.662z"></path>
<path fill="#5e686b" d="M10.969 20.637h-10.088c-0.231 0-0.412 0.188-0.412 0.413v10.088c0 0.231 0.188 0.413 0.412 0.413h10.088c0.231 0 0.412-0.188 0.412-0.413v-10.081c0.006-0.231-0.181-0.419-0.412-0.419zM10.556 30.725h-9.256v-9.256h9.256v9.256z"></path>
<path fill="#5e686b" d="M4.681 27.762h2.494c0.231 0 0.412-0.188 0.412-0.413v-2.494c0-0.231-0.188-0.413-0.412-0.413h-2.494c-0.231 0-0.412 0.188-0.412 0.413v2.494c-0.006 0.225 0.181 0.413 0.412 0.413zM5.094 25.269h1.662v1.663h-1.662v-1.663z"></path>
<path id="svg-ico" fill="#ee5586" d="M31.144 0.469h-10.088c-0.231 0-0.413 0.188-0.413 0.412v10.088c0 0.231 0.188 0.412 0.413 0.412h10.087c0.231 0 0.413-0.188 0.413-0.412v-10.088c0-0.225-0.188-0.412-0.413-0.412zM30.725 10.556h-9.25v-9.256h9.256v9.256z"></path>
<path id="svg-ico" fill="#ee5586" d="M24.85 7.588h2.494c0.231 0 0.413-0.188 0.413-0.412v-2.494c0-0.231-0.188-0.412-0.413-0.412h-2.494c-0.231 0-0.413 0.188-0.413 0.412v2.494c0 0.231 0.181 0.412 0.413 0.412zM25.269 5.094h1.663v1.662h-1.663v-1.662z"></path>
<path fill="#5e686b" d="M31.144 30.725h-1.6v-2.613c0 0 0 0 0 0v-2.012c0-0.231-0.188-0.413-0.413-0.413s-0.413 0.188-0.413 0.413v1.6h-1.6c-0.231 0-0.413 0.188-0.413 0.413v2.613h-4.213v-3.619c0-0.231-0.188-0.413-0.413-0.413h-5.637v-1.6c0-0.231-0.188-0.413-0.413-0.413s-0.412 0.188-0.412 0.413v6.050c0 0.231 0.188 0.413 0.412 0.413 0.231 0 0.413-0.188 0.413-0.413v-3.619h5.219v3.619c0 0.231 0.188 0.413 0.413 0.413h9.075c0.231 0 0.413-0.188 0.413-0.413s-0.194-0.419-0.419-0.419zM27.525 28.531h1.188v2.194h-1.188v-2.194z"></path>
<path fill="#5e686b" d="M1.894 13.581c-0.231 0-0.412 0.188-0.412 0.412v2.019c0 0.231 0.188 0.413 0.413 0.413h5.637v1.6c0 0.231 0.188 0.413 0.412 0.413 0.231 0 0.412-0.188 0.412-0.413v-1.6h1.6c0.231 0 0.412-0.188 0.412-0.413 0-0.231-0.188-0.412-0.412-0.412h-7.644v-1.6c0-0.231-0.188-0.419-0.419-0.419z"></path>
<path fill="#5e686b" d="M31.144 21.65h-3.619v-5.219h3.619c0.231 0 0.413-0.188 0.413-0.413 0-0.231-0.188-0.412-0.413-0.412h-1.6v-1.6c0-0.231-0.188-0.412-0.413-0.412s-0.413 0.188-0.413 0.412v1.6h-1.6c-0.231 0-0.413 0.188-0.413 0.412v5.637h-6.656c-0.231 0-0.413 0.188-0.413 0.413 0 0.231 0.188 0.413 0.413 0.413h11.094c0.231 0 0.413-0.188 0.413-0.413 0-0.238-0.188-0.419-0.413-0.419z"></path>
<path fill="#5e686b" d="M17.438 19.038v-2.613h4.212v1.6c0 0.231 0.188 0.413 0.413 0.413 0.231 0 0.413-0.188 0.413-0.413v-2.019c0-0.231-0.188-0.412-0.413-0.412h-6.644v-4.213h1.6c0.231 0 0.413-0.188 0.413-0.412s-0.188-0.412-0.413-0.412h-1.6v-4.213h2.612c0.231 0 0.413-0.188 0.413-0.412v-4.037c0-0.231-0.188-0.413-0.413-0.413s-0.413 0.188-0.413 0.413v3.619h-2.613c-0.231 0-0.412 0.188-0.412 0.412v13.112c0 0.231 0.188 0.413 0.412 0.413h2.019c0.225 0.006 0.413-0.181 0.413-0.413zM16.606 18.625h-1.188v-2.194h1.188v2.194z"></path>
</svg>
