<!-- Generated by IcoMoon.io -->
<svg version="1.1" xmlns="http://www.w3.org/2000/svg" width="32" height="32" viewBox="0 0 32 32">
<title>resize</title>
<path fill="#5e686b" d="M31.3 31.725h-30.556c-0.244 0-0.438-0.194-0.438-0.438v-30.55c0-0.244 0.194-0.438 0.438-0.438h30.55c0.244 0 0.438 0.194 0.438 0.438v30.556c0.006 0.238-0.194 0.431-0.431 0.431zM1.181 30.856h29.681v-29.681h-29.681v29.681z"></path>
<path id="svg-ico" fill="#ee5586" d="M25.975 12.787c-0.244 0-0.438-0.194-0.438-0.438v-5.85h-5.85c-0.244 0-0.438-0.194-0.438-0.438s0.194-0.438 0.438-0.438h6.288c0.244 0 0.438 0.194 0.438 0.438v6.287c0 0.238-0.2 0.438-0.438 0.438z"></path>
<path fill="#5e686b" d="M12.356 26.4h-6.287c-0.244 0-0.438-0.194-0.438-0.438v-6.281c0-0.244 0.194-0.438 0.438-0.438s0.438 0.194 0.438 0.438v5.85h5.85c0.244 0 0.438 0.194 0.438 0.438 0 0.238-0.194 0.431-0.438 0.431z"></path>
<path id="svg-ico" fill="#ee5586" d="M18.925 13.55c-0.113 0-0.225-0.044-0.306-0.125-0.169-0.169-0.169-0.444 0-0.619l6.981-6.987c0.169-0.169 0.444-0.169 0.619 0 0.169 0.169 0.169 0.444 0 0.619l-6.981 6.981c-0.087 0.088-0.2 0.131-0.313 0.131z"></path>
<path fill="#5e686b" d="M6.181 26.294c-0.112 0-0.225-0.044-0.306-0.125-0.169-0.169-0.169-0.444 0-0.619l6.981-6.988c0.169-0.169 0.444-0.169 0.619 0 0.169 0.169 0.169 0.444 0 0.619l-6.981 6.981c-0.088 0.087-0.2 0.131-0.313 0.131z"></path>
</svg>
