<!-- Generated by IcoMoon.io -->
<svg version="1.1" xmlns="http://www.w3.org/2000/svg" width="32" height="32" viewBox="0 0 32 32">
<title>right</title>
<path fill="#5e686b" d="M16.113 31.85c-8.631 0-15.656-7.025-15.656-15.656 0-8.637 7.025-15.656 15.656-15.656 7.863 0 14.537 5.869 15.531 13.656 0.031 0.238-0.137 0.456-0.375 0.488s-0.456-0.137-0.488-0.375c-0.938-7.35-7.244-12.894-14.669-12.894-8.156 0-14.787 6.631-14.787 14.788s6.631 14.788 14.787 14.788c7.631 0 13.956-5.719 14.713-13.3 0.025-0.238 0.244-0.419 0.475-0.387 0.238 0.025 0.413 0.238 0.387 0.475-0.8 8.019-7.494 14.075-15.575 14.075z"></path>
<path id="svg-ico" fill="#ee5586" d="M11.794 25.262c-0.113 0-0.225-0.044-0.306-0.125-0.169-0.169-0.169-0.444 0-0.613l8.331-8.331-8.331-8.331c-0.169-0.169-0.169-0.444 0-0.612s0.444-0.169 0.613 0l8.637 8.637c0.081 0.081 0.125 0.194 0.125 0.306s-0.044 0.225-0.125 0.306l-8.637 8.637c-0.081 0.081-0.194 0.125-0.306 0.125z"></path>
</svg>
