<!-- Generated by IcoMoon.io -->
<svg version="1.1" xmlns="http://www.w3.org/2000/svg" width="32" height="32" viewBox="0 0 32 32">
<title>sad</title>
<path fill="#5e686b" d="M9.5 16.575c-1.925 0-3.494-1.569-3.494-3.494s1.569-3.494 3.494-3.494c1.925 0 3.494 1.569 3.494 3.494 0 1.931-1.563 3.494-3.494 3.494zM9.5 10.463c-1.444 0-2.619 1.175-2.619 2.619s1.175 2.619 2.619 2.619c1.444 0 2.619-1.175 2.619-2.619s-1.169-2.619-2.619-2.619z"></path>
<path fill="#5e686b" d="M22.494 16.575c-1.925 0-3.494-1.569-3.494-3.494s1.569-3.494 3.494-3.494c1.925 0 3.494 1.569 3.494 3.494 0 1.931-1.569 3.494-3.494 3.494zM22.494 10.463c-1.444 0-2.619 1.175-2.619 2.619s1.175 2.619 2.619 2.619c1.444 0 2.619-1.175 2.619-2.619s-1.175-2.619-2.619-2.619z"></path>
<path fill="#5e686b" d="M16 31.856c-8.669 0-15.719-7.050-15.719-15.719 0-8.025 6.006-14.738 13.969-15.625 0.238-0.031 0.456 0.144 0.481 0.387 0.025 0.238-0.144 0.456-0.387 0.481-7.519 0.837-13.194 7.181-13.194 14.756 0 8.188 6.662 14.844 14.844 14.844 8.187 0 14.844-6.662 14.844-14.844 0-7.531-5.631-13.875-13.106-14.744-0.238-0.031-0.413-0.244-0.381-0.488 0.025-0.238 0.25-0.412 0.488-0.381 7.913 0.925 13.875 7.638 13.875 15.613 0.006 8.669-7.050 15.719-15.713 15.719z"></path>
<path id="svg-ico" fill="#ee5586" d="M23.856 23.844h-15.719c-0.244 0-0.438-0.194-0.438-0.438s0.194-0.438 0.438-0.438h15.719c0.244 0 0.438 0.194 0.438 0.438s-0.194 0.438-0.438 0.438z"></path>
</svg>
