<!-- Generated by IcoMoon.io -->
<svg version="1.1" xmlns="http://www.w3.org/2000/svg" width="32" height="32" viewBox="0 0 32 32">
<title>science</title>
<path id="svg-ico" fill="#ee5586" d="M13.244 23.337c-0.95 0-1.719 0.775-1.719 1.719s0.775 1.719 1.719 1.719c0.95 0 1.719-0.775 1.719-1.719 0.006-0.944-0.769-1.719-1.719-1.719zM13.244 25.919c-0.475 0-0.863-0.387-0.863-0.863s0.387-0.863 0.863-0.863c0.475 0 0.863 0.387 0.863 0.863s-0.387 0.863-0.863 0.863z"></path>
<path id="svg-ico" fill="#ee5586" d="M16.131 14.794c0.95 0 1.719-0.775 1.719-1.719 0-0.95-0.775-1.719-1.719-1.719s-1.719 0.769-1.719 1.719c-0.006 0.944 0.769 1.719 1.719 1.719zM16.131 12.213c0.475 0 0.863 0.387 0.863 0.863s-0.387 0.863-0.863 0.863c-0.475 0-0.863-0.387-0.863-0.863s0.387-0.863 0.863-0.863z"></path>
<path id="svg-ico" fill="#ee5586" d="M20.406 25.644c-0.95 0-1.719 0.775-1.719 1.719s0.775 1.719 1.719 1.719c0.95 0 1.719-0.775 1.719-1.719s-0.775-1.719-1.719-1.719zM20.406 28.225c-0.475 0-0.863-0.387-0.863-0.863s0.387-0.863 0.863-0.863c0.475 0 0.863 0.387 0.863 0.863-0.006 0.475-0.394 0.863-0.863 0.863z"></path>
<path fill="#5e686c" d="M11.325 1.194h8.906c0.238 0 0.431-0.194 0.431-0.431s-0.194-0.431-0.431-0.431h-8.906c-0.238 0-0.431 0.194-0.431 0.431s0.194 0.431 0.431 0.431z"></path>
<path fill="#5e686c" d="M28.619 27.681l-6.156-9.844-0.087-0.119c-0.538-0.769-2.706-4.563-2.706-7.794v-7.181c0-0.237-0.194-0.431-0.431-0.431h-6.925c-0.238 0-0.431 0.194-0.431 0.431v7.175c0 3.463-2.45 7.912-2.475 7.956l-5.463 9.781c-1.044 1.469-0.931 2.419-0.65 2.962 0.294 0.575 1.069 1.256 3.087 1.256h19.794c2.012 0 2.788-0.681 3.081-1.256 0.275-0.544 0.387-1.494-0.637-2.938zM12.744 9.919v-6.75h6.069v6.744c0 2.85 1.563 6.094 2.431 7.594-0.319-0.044-0.65-0.063-1.006-0.063-1.831 0-2.756 0.531-3.65 1.050-0.831 0.481-1.619 0.931-3.219 0.931s-2.387-0.45-3.219-0.931l-0.075-0.044 0.088-0.163c0.106-0.188 2.581-4.681 2.581-8.369zM28.494 30.225c-0.262 0.512-1.087 0.794-2.319 0.794h-19.8c-1.231 0-2.056-0.281-2.319-0.794-0.237-0.462-0.031-1.2 0.612-2.106l4.981-8.912 0.063 0.038c0.894 0.512 1.819 1.050 3.65 1.050s2.756-0.531 3.65-1.044c0.831-0.481 1.619-0.931 3.219-0.931 0.613 0 1.144 0.069 1.631 0.206l6.038 9.644c0.619 0.856 0.831 1.594 0.594 2.056z"></path>
</svg>
