<!-- Generated by IcoMoon.io -->
<svg version="1.1" xmlns="http://www.w3.org/2000/svg" width="32" height="32" viewBox="0 0 32 32">
<title>sinal</title>
<path fill="#5e686b" d="M16 31.631c-8.606 0-15.606-7-15.606-15.606 0-7.975 5.969-14.644 13.881-15.512 0.225-0.031 0.438 0.144 0.463 0.375s-0.144 0.438-0.375 0.462c-7.481 0.819-13.125 7.131-13.125 14.675 0 8.144 6.625 14.769 14.769 14.769s14.769-6.625 14.769-14.769c0-7.544-5.644-13.856-13.131-14.681-0.231-0.025-0.4-0.231-0.375-0.463s0.238-0.4 0.462-0.375c7.913 0.869 13.881 7.544 13.881 15.512 0 8.613-7.006 15.613-15.613 15.613z"></path>
<path id="svg-ico" fill="#ee5586" d="M23.319 22.781c-0.231 0-0.419-0.188-0.419-0.419 0-6.95-5.244-12.194-12.188-12.194-0.231 0-0.419-0.188-0.419-0.419s0.188-0.419 0.419-0.419c7.431 0 13.031 5.6 13.031 13.031 0 0.231-0.194 0.419-0.425 0.419zM18.431 22.781c-0.231 0-0.419-0.188-0.419-0.419 0-4.563-2.8-7.394-7.3-7.394-0.231 0-0.419-0.188-0.419-0.419s0.188-0.419 0.419-0.419c4.944 0 8.144 3.231 8.144 8.231-0.006 0.231-0.194 0.419-0.425 0.419zM12.15 22.7c-1.031 0-1.869-0.844-1.869-1.881s0.838-1.887 1.869-1.887c1.031 0 1.869 0.844 1.869 1.881 0.006 1.044-0.831 1.887-1.869 1.887zM12.15 19.775c-0.563 0-1.025 0.469-1.025 1.044s0.463 1.038 1.025 1.038c0.569 0 1.031-0.469 1.031-1.038 0-0.575-0.463-1.044-1.031-1.044z"></path>
</svg>
