<!-- Generated by IcoMoon.io -->
<svg version="1.1" xmlns="http://www.w3.org/2000/svg" viewBox="0 0 32 32">
<title>speed</title>
<path id="svg-ico" d="M15.631 16.669c-0.113 0-0.219-0.044-0.3-0.125-0.162-0.169-0.162-0.431 0.006-0.6l7.981-7.813c0.169-0.162 0.438-0.156 0.6 0.006 0.163 0.169 0.163 0.431-0.006 0.6l-7.981 7.812c-0.088 0.081-0.194 0.119-0.3 0.119z"></path>
<path fill="#5e686b" d="M15.994 31.606c-8.581 0-15.556-6.975-15.556-15.556s6.975-15.556 15.556-15.556c3.694 0 7.269 1.313 10.069 3.7 0.175 0.15 0.2 0.419 0.050 0.594s-0.419 0.2-0.594 0.050c-2.65-2.256-6.031-3.5-9.519-3.5-8.119 0-14.719 6.6-14.719 14.713s6.6 14.712 14.713 14.712c8.113 0 14.713-6.6 14.713-14.712 0-3.481-1.238-6.856-3.481-9.5-0.15-0.175-0.131-0.444 0.050-0.594s0.444-0.131 0.594 0.050c2.375 2.8 3.681 6.369 3.681 10.044 0 8.581-6.981 15.556-15.556 15.556z"></path>
<path fill="#5e686b" d="M10.019 25.825c-0.075 0-0.156-0.019-0.225-0.063-0.2-0.125-0.256-0.381-0.137-0.581 1.369-2.188 3.731-3.5 6.331-3.5s4.969 1.306 6.331 3.5c0.125 0.2 0.063 0.456-0.131 0.581s-0.456 0.063-0.581-0.137c-1.212-1.944-3.313-3.1-5.613-3.1-2.306 0-4.4 1.156-5.613 3.1-0.081 0.131-0.219 0.2-0.363 0.2z"></path>
<path id="svg-ico" d="M8.787 10.606c-0.931 0-1.688-0.756-1.688-1.688s0.756-1.688 1.688-1.688 1.688 0.756 1.688 1.688c0 0.925-0.756 1.688-1.688 1.688zM8.787 8.069c-0.469 0-0.844 0.381-0.844 0.844s0.381 0.844 0.844 0.844 0.844-0.381 0.844-0.844-0.381-0.844-0.844-0.844z"></path>
<path id="svg-ico" d="M15.944 7.625c-0.931 0-1.688-0.756-1.688-1.688s0.756-1.688 1.688-1.688 1.688 0.756 1.688 1.688-0.756 1.688-1.688 1.688zM15.944 5.094c-0.469 0-0.844 0.381-0.844 0.844s0.381 0.844 0.844 0.844c0.469 0 0.844-0.381 0.844-0.844s-0.375-0.844-0.844-0.844z"></path>
<path id="svg-ico" d="M26.081 17.806c-0.931 0-1.688-0.756-1.688-1.688s0.756-1.688 1.688-1.688 1.688 0.756 1.688 1.688c0 0.925-0.756 1.688-1.688 1.688zM26.081 15.269c-0.469 0-0.844 0.381-0.844 0.844 0 0.469 0.381 0.844 0.844 0.844s0.844-0.381 0.844-0.844c0-0.463-0.375-0.844-0.844-0.844z"></path>
</svg>
