<!-- Generated by IcoMoon.io -->
<svg version="1.1" xmlns="http://www.w3.org/2000/svg" width="32" height="32" viewBox="0 0 32 32">
<title>stable</title>
<path fill="#5e686c" d="M14.269 14.794c-0.106 0-0.206-0.037-0.287-0.119l-9.15-8.969c-0.162-0.156-0.162-0.419-0.006-0.581s0.419-0.162 0.581-0.006l9.15 8.969c0.162 0.156 0.162 0.419 0.006 0.581-0.081 0.088-0.188 0.125-0.294 0.125z"></path>
<path fill="#5e686c" d="M27.063 27.337c-0.106 0-0.206-0.038-0.288-0.119l-9.269-9.087c-0.163-0.156-0.163-0.419-0.006-0.581 0.163-0.163 0.419-0.163 0.581-0.006l9.269 9.088c0.163 0.156 0.163 0.419 0.006 0.581-0.081 0.081-0.188 0.125-0.294 0.125z"></path>
<path fill="#5e686c" d="M17.825 14.744c-0.106 0-0.212-0.037-0.294-0.119-0.163-0.162-0.163-0.419 0-0.581l9.169-9.175c0.163-0.162 0.419-0.162 0.581 0s0.163 0.419 0 0.581l-9.163 9.169c-0.081 0.081-0.188 0.125-0.294 0.125z"></path>
<path fill="#5e686c" d="M5.438 27.125c-0.106 0-0.213-0.038-0.294-0.119-0.162-0.163-0.162-0.419 0-0.581l8.825-8.825c0.162-0.163 0.419-0.163 0.581 0s0.162 0.419 0 0.581l-8.819 8.825c-0.081 0.081-0.188 0.119-0.294 0.119z"></path>
<path fill="#5e686c" d="M3.369 26.631c-0.225 0-0.413-0.181-0.413-0.413v-20.262c0-0.225 0.181-0.412 0.413-0.412 0.225 0 0.413 0.181 0.413 0.412v20.262c0 0.225-0.181 0.413-0.413 0.413z"></path>
<path fill="#5e686c" d="M26.337 3.837h-20.488c-0.225 0-0.412-0.181-0.412-0.413 0-0.225 0.181-0.413 0.412-0.413h20.488c0.225 0 0.413 0.181 0.413 0.413s-0.188 0.413-0.413 0.413z"></path>
<path fill="#5e686c" d="M28.806 26.619c-0.225 0-0.413-0.181-0.413-0.413v-20.238c0-0.225 0.181-0.412 0.413-0.412 0.225 0 0.413 0.181 0.413 0.412v20.244c-0.006 0.225-0.188 0.406-0.413 0.406z"></path>
<path fill="#5e686c" d="M26.337 29.087h-20.494c-0.225 0-0.412-0.181-0.412-0.413s0.181-0.413 0.412-0.413h20.494c0.225 0 0.413 0.181 0.413 0.413s-0.188 0.413-0.413 0.413z"></path>
<path fill="#5e686c" d="M3.413 6.369c-1.556 0-2.919-1.369-2.919-2.925 0-1.594 1.281-2.837 2.925-2.837 0.413 0 0.819 0.1 1.225 0.3 1.038 0.525 1.606 1.456 1.606 2.625 0 1.563-1.269 2.837-2.837 2.837zM3.413 1.431c-1.175 0-2.1 0.881-2.1 2.013 0 1.119 0.981 2.1 2.1 2.1 1.113 0 2.013-0.906 2.013-2.013 0-0.85-0.4-1.506-1.156-1.881-0.288-0.15-0.575-0.219-0.856-0.219z"></path>
<path id="svg-ico" fill="#ee5586" d="M16.087 18.931c-1.588 0-2.881-1.294-2.881-2.881s1.294-2.881 2.881-2.881c1.563 0 2.881 1.319 2.881 2.881 0 1.219-0.731 2.269-1.856 2.681-0.3 0.1-0.613 0.2-1.025 0.2zM16.087 13.994c-1.137 0-2.056 0.925-2.056 2.056s0.925 2.056 2.056 2.056c0.281 0 0.5-0.069 0.744-0.15 0.806-0.294 1.313-1.025 1.313-1.906 0-1.094-0.962-2.056-2.056-2.056z"></path>
<path id="svg-ico" fill="#ee5586" d="M28.8 6.325c-1.587 0-2.881-1.294-2.881-2.881s1.294-2.881 2.881-2.881c0.806 0 1.637 0.394 2.169 1.031 0.475 0.594 0.712 1.212 0.712 1.85 0 1.587-1.288 2.881-2.881 2.881zM28.8 1.387c-1.131 0-2.056 0.925-2.056 2.056 0 1.138 0.925 2.056 2.056 2.056 1.137 0 2.056-0.925 2.056-2.056 0-0.45-0.175-0.887-0.525-1.331-0.369-0.444-0.956-0.725-1.531-0.725z"></path>
<path id="svg-ico" fill="#ee5586" d="M3.131 31.569c-0.544 0-1.069-0.206-1.6-0.631-0.656-0.544-1.038-1.387-1.038-2.256 0-1.581 1.294-2.869 2.881-2.869 1.563 0 2.881 1.313 2.881 2.869 0 1.581-1.294 2.875-2.881 2.875-0.044 0.006-0.144 0.012-0.244 0.012zM3.369 26.631c-1.131 0-2.056 0.919-2.056 2.050 0 0.631 0.275 1.238 0.731 1.619 0.444 0.35 0.837 0.5 1.263 0.438 1.194-0.006 2.119-0.925 2.119-2.056 0.006-1.094-0.956-2.050-2.056-2.050z"></path>
<path fill="#5e686c" d="M28.8 31.556c-1.587 0-2.881-1.294-2.881-2.881s1.294-2.881 2.881-2.881c1.587 0 2.881 1.294 2.881 2.881 0 0.637-0.212 1.244-0.619 1.756-0.587 0.706-1.431 1.125-2.262 1.125zM28.8 26.619c-1.131 0-2.056 0.925-2.056 2.056 0 1.137 0.925 2.056 2.056 2.056 0.587 0 1.194-0.306 1.625-0.819 0.281-0.356 0.431-0.781 0.431-1.238 0.006-1.131-0.919-2.056-2.056-2.056z"></path>
</svg>
