<!-- Generated by IcoMoon.io -->
<svg version="1.1" xmlns="http://www.w3.org/2000/svg" width="32" height="32" viewBox="0 0 32 32">
<title>star</title>
<path fill="#5e686c" d="M25.063 31.619c-0.2 0-0.444-0.056-0.731-0.219l-7.344-4.106c-0.275-0.156-0.669-0.244-1.075-0.244-0.238 0-0.425-0.194-0.425-0.425s0.194-0.425 0.425-0.425v0c0.556 0 1.081 0.125 1.488 0.35l7.35 4.113c0.212 0.119 0.337 0.119 0.363 0.1 0.019-0.012 0.087-0.131 0.044-0.438l-1.356-8.606c-0.15-0.95 0.256-2.225 0.919-2.894l5.994-6.050c0.188-0.188 0.225-0.331 0.212-0.381-0.019-0.050-0.125-0.131-0.363-0.169l-8.231-1.306c-0.925-0.15-1.962-0.944-2.369-1.819l-3.631-7.844c-0.119-0.256-0.225-0.313-0.25-0.319-0.238-0.012-0.412-0.219-0.394-0.45 0.019-0.237 0.244-0.406 0.45-0.394 0.225 0.012 0.656 0.138 0.962 0.806l3.637 7.844c0.288 0.625 1.081 1.231 1.731 1.338l8.225 1.306c0.725 0.113 0.962 0.512 1.038 0.744s0.125 0.7-0.413 1.244l-6 6.050c-0.481 0.481-0.794 1.469-0.681 2.163l1.356 8.6c0.125 0.775-0.194 1.125-0.394 1.269-0.106 0.075-0.288 0.163-0.538 0.163z"></path>
<path id="svg-ico" fill="#ee5586" d="M6.75 31.494c-0.256 0-0.438-0.094-0.544-0.169-0.2-0.144-0.513-0.494-0.381-1.275l1.462-8.588c0.119-0.688-0.188-1.681-0.656-2.169l-5.925-6.125c-0.531-0.55-0.481-1.019-0.4-1.25 0.075-0.225 0.319-0.625 1.044-0.725l8.244-1.2c0.65-0.094 1.45-0.7 1.744-1.313l3.725-7.794c0.363-0.756 0.875-0.806 1.075-0.794l-0.050 0.844c-0.019 0-0.131 0.056-0.256 0.313l-3.731 7.794c-0.412 0.869-1.463 1.656-2.387 1.787l-8.244 1.206c-0.238 0.031-0.344 0.113-0.363 0.162s0.025 0.194 0.206 0.387l5.925 6.125c0.656 0.675 1.044 1.95 0.888 2.9l-1.463 8.587c-0.050 0.306 0.019 0.425 0.037 0.438 0.025 0.019 0.15 0.025 0.362-0.094l7.394-4.012c0.4-0.212 0.912-0.331 1.456-0.331 0 0 0 0.85 0.006 0.85v0c0 0-0.006 0-0.006 0-0.4 0-0.781 0.081-1.050 0.231l-7.394 4.006c-0.287 0.156-0.525 0.206-0.719 0.206z"></path>
</svg>
