<!-- Generated by IcoMoon.io -->
<svg version="1.1" xmlns="http://www.w3.org/2000/svg" width="32" height="32" viewBox="0 0 32 32">
<title>strategy</title>
<path fill="#5e686c" d="M11.025 31.631c-0.063 0-0.125-0.012-0.181-0.038l-10.1-4.788c-0.15-0.069-0.244-0.219-0.244-0.381v-25.656c0-0.144 0.075-0.281 0.2-0.356 0.125-0.081 0.275-0.087 0.406-0.025l10.1 4.781c0.15 0.069 0.244 0.219 0.244 0.381v25.656c0 0.144-0.075 0.281-0.2 0.356-0.069 0.044-0.15 0.069-0.225 0.069zM1.35 26.156l9.25 4.381v-24.719l-9.25-4.381c0 0.006 0 24.719 0 24.719z"></path>
<path fill="#5e686c" d="M31.219 31.631c-0.063 0-0.125-0.012-0.181-0.038l-10.1-4.788c-0.212-0.1-0.3-0.356-0.2-0.563 0.1-0.212 0.356-0.3 0.563-0.2l9.494 4.494v-24.719l-9.856-4.662c-0.212-0.1-0.3-0.35-0.2-0.563s0.356-0.3 0.563-0.2l10.1 4.781c0.15 0.069 0.244 0.219 0.244 0.381v25.656c0 0.144-0.075 0.281-0.2 0.356-0.069 0.038-0.144 0.063-0.225 0.063z"></path>
<path fill="#5e686c" d="M11.025 31.631c-0.156 0-0.313-0.087-0.381-0.244-0.1-0.212-0.012-0.462 0.2-0.563l9.856-4.669v-24.712l-9.494 4.494c-0.213 0.1-0.463 0.013-0.563-0.2s-0.012-0.463 0.2-0.563l10.094-4.787c0.131-0.063 0.288-0.050 0.406 0.025 0.125 0.075 0.2 0.213 0.2 0.356v25.656c0 0.163-0.094 0.313-0.244 0.381l-10.1 4.781c-0.056 0.031-0.119 0.044-0.175 0.044z"></path>
<path id="svg-ico" fill="#ee5586" d="M28.075 13.238c-0.106 0-0.219-0.044-0.3-0.125l-3.819-3.819c-0.163-0.162-0.163-0.431 0-0.6 0.163-0.162 0.431-0.162 0.6 0l3.819 3.819c0.163 0.162 0.163 0.431 0 0.6-0.081 0.088-0.188 0.125-0.3 0.125z"></path>
<path id="svg-ico" fill="#ee5586" d="M24.262 13.238c-0.106 0-0.219-0.044-0.3-0.125-0.163-0.162-0.163-0.431 0-0.6l3.819-3.819c0.163-0.162 0.431-0.162 0.6 0 0.163 0.162 0.163 0.431 0 0.6l-3.819 3.825c-0.087 0.081-0.194 0.119-0.3 0.119z"></path>
<path id="svg-ico" fill="#ee5586" d="M4.063 23.7c-0.237 0-0.425-0.188-0.425-0.425 0-3.663 1.569-7.006 4.419-9.4 3.737-3.144 9.156-4.375 14.869-3.381 0.231 0.037 0.387 0.256 0.344 0.488-0.038 0.231-0.262 0.394-0.488 0.344-5.469-0.95-10.637 0.213-14.181 3.194-2.656 2.231-4.119 5.344-4.119 8.75 0.006 0.238-0.181 0.431-0.419 0.431z"></path>
</svg>
