<!-- Generated by IcoMoon.io -->
<svg version="1.1" xmlns="http://www.w3.org/2000/svg" width="32" height="32" viewBox="0 0 32 32">
<title>support</title>
<path fill="#5e686c" d="M16.012 31.656c-4.175 0-8.106-1.625-11.056-4.581-2.956-2.95-4.581-6.881-4.581-11.056s1.625-8.1 4.581-11.056c2.95-2.956 6.881-4.581 11.056-4.581s8.106 1.625 11.056 4.581c2.956 2.956 4.581 6.881 4.581 11.056s-1.625 8.106-4.581 11.056c-2.956 2.956-6.881 4.581-11.056 4.581zM16.012 1.25c-3.944 0-7.65 1.538-10.444 4.325s-4.325 6.5-4.325 10.444c0 3.944 1.538 7.656 4.325 10.444s6.5 4.325 10.444 4.325 7.656-1.538 10.444-4.325c2.788-2.788 4.325-6.5 4.325-10.444s-1.538-7.656-4.325-10.444c-2.794-2.788-6.5-4.325-10.444-4.325z"></path>
<path fill="#5e686c" d="M21.231 11.231c-0.113 0-0.225-0.044-0.306-0.125-0.169-0.169-0.169-0.444 0-0.613l5.525-5.525c0.169-0.169 0.444-0.169 0.613 0s0.169 0.444 0 0.612l-5.525 5.525c-0.081 0.081-0.194 0.125-0.306 0.125z"></path>
<path fill="#5e686c" d="M5.263 27.2c-0.112 0-0.225-0.044-0.306-0.125-0.169-0.169-0.169-0.444 0-0.613l5.525-5.525c0.169-0.169 0.444-0.169 0.613 0s0.169 0.444 0 0.613l-5.525 5.525c-0.088 0.087-0.194 0.125-0.306 0.125z"></path>
<path fill="#5e686c" d="M26.762 27.2c-0.113 0-0.225-0.044-0.306-0.125l-5.525-5.525c-0.169-0.169-0.169-0.444 0-0.613s0.444-0.169 0.613 0l5.525 5.525c0.169 0.169 0.169 0.444 0 0.613-0.087 0.087-0.194 0.125-0.306 0.125z"></path>
<path fill="#5e686c" d="M10.787 11.231c-0.113 0-0.225-0.044-0.306-0.125l-5.525-5.531c-0.169-0.169-0.169-0.444 0-0.612s0.444-0.169 0.612 0l5.525 5.525c0.169 0.169 0.169 0.444 0 0.613-0.081 0.088-0.194 0.131-0.306 0.131z"></path>
<path id="svg-ico" fill="#ee5586" d="M16.012 23.837c-2.088 0-4.050-0.813-5.531-2.288-1.475-1.475-2.287-3.438-2.287-5.525s0.813-4.050 2.287-5.531c1.475-1.475 3.438-2.287 5.531-2.287s4.050 0.813 5.531 2.287c1.475 1.475 2.288 3.438 2.288 5.531 0 2.087-0.813 4.050-2.288 5.525-1.481 1.475-3.444 2.288-5.531 2.288zM16.012 9.069c-1.856 0-3.6 0.725-4.912 2.037s-2.037 3.056-2.037 4.912c0 1.856 0.725 3.6 2.037 4.913s3.056 2.038 4.912 2.038c1.856 0 3.6-0.725 4.912-2.038s2.038-3.056 2.038-4.913c0-1.856-0.725-3.6-2.038-4.912s-3.056-2.037-4.913-2.037z"></path>
</svg>
