<!-- Generated by IcoMoon.io -->
<svg version="1.1" xmlns="http://www.w3.org/2000/svg" width="32" height="32" viewBox="0 0 32 32">
<title>tablet</title>
<path fill="#5e686b" d="M27.125 31.844h-21.738c-0.781 0-1.413-0.637-1.413-1.413v-28.656c0-0.781 0.631-1.413 1.413-1.413h21.738c0.781 0 1.413 0.631 1.413 1.413v28.656c0 0.775-0.631 1.413-1.413 1.413zM5.388 1.212c-0.313 0-0.563 0.25-0.563 0.563v28.656c0 0.313 0.25 0.563 0.563 0.563h21.738c0.313 0 0.563-0.25 0.563-0.563v-28.656c0-0.313-0.25-0.563-0.563-0.563h-21.738z"></path>
<path id="svg-ico" fill="#ee5586" d="M16.256 29.313c-0.938 0-1.7-0.762-1.7-1.7s0.762-1.7 1.7-1.7c0.938 0 1.7 0.762 1.7 1.7s-0.762 1.7-1.7 1.7zM16.256 26.762c-0.469 0-0.85 0.381-0.85 0.85s0.381 0.85 0.85 0.85 0.85-0.381 0.85-0.85-0.381-0.85-0.85-0.85z"></path>
<path id="svg-ico" fill="#ee5586" d="M17.531 3.725h-2.55c-0.238 0-0.425-0.188-0.425-0.425s0.188-0.425 0.425-0.425h2.55c0.238 0 0.425 0.188 0.425 0.425 0 0.231-0.188 0.425-0.425 0.425z"></path>
</svg>
