<!-- Generated by IcoMoon.io -->
<svg version="1.1" xmlns="http://www.w3.org/2000/svg" width="32" height="32" viewBox="0 0 32 32">
<title>talk</title>
<path fill="#5e686b" d="M12.5 9.188c0.25-0.2 0.537-0.344 0.856-0.425-0.344-2.888-3.088-5.119-6.369-5.119-0.25 0-0.456 0.2-0.456 0.456 0 0.25 0.206 0.456 0.456 0.456 2.888 0 5.3 1.981 5.481 4.506 0.006 0.037 0.012 0.081 0.031 0.125z"></path>
<path fill="#5e686b" d="M8.525 14.044c-0.069-0.019-0.137-0.019-0.206-0.006-1.094 0.238-2.269 0.175-3.325-0.188-0.106-0.037-0.219-0.031-0.325 0.012l-0.862 0.375-0.138-0.863c-0.019-0.119-0.081-0.225-0.181-0.3-1.269-0.919-1.994-2.275-1.994-3.713 0-2.656 2.462-4.819 5.494-4.819 0.25 0 0.456-0.206 0.456-0.456s-0.206-0.456-0.456-0.456c-3.531 0.006-6.406 2.575-6.406 5.738 0 1.675 0.806 3.244 2.219 4.331l0.15 0.925c0.006 0.231 0.131 0.444 0.331 0.55 0.1 0.056 0.219 0.081 0.325 0.081 0.1 0 0.194-0.025 0.263-0.069l1-0.425c1.031 0.325 2.156 0.406 3.231 0.238 0.063-0.35 0.213-0.675 0.425-0.956z"></path>
<path id="svg-ico" fill="#ee5586" d="M26.181 28.925c-0.15 0-0.294-0.044-0.425-0.119l-2.056-0.875c-1.344 0.444-2.756 0.663-4.194 0.663-6.7 0-12.15-4.856-12.15-10.819 0-5.969 5.45-10.819 12.15-10.819s12.15 4.856 12.15 10.819c0 3.206-1.575 6.212-4.325 8.275l-0.331 2.125c0 0.381-0.369 0.75-0.819 0.75zM23.719 26.988c0.063 0 0.119 0.012 0.181 0.038l2.219 0.95 0.35-2.25c0.019-0.119 0.081-0.225 0.181-0.3 2.606-1.894 4.106-4.688 4.106-7.656 0-5.469-5.044-9.912-11.244-9.912s-11.244 4.444-11.244 9.912c0 5.463 5.044 9.912 11.244 9.912 1.4 0 2.762-0.225 4.063-0.669 0.044-0.019 0.094-0.025 0.144-0.025z"></path>
</svg>
