<!-- Generated by IcoMoon.io -->
<svg version="1.1" xmlns="http://www.w3.org/2000/svg" width="32" height="32" viewBox="0 0 32 32">
<title>target</title>
<path id="svg-ico" fill="#ee5586" d="M12.069 23.488c-1.894 0-3.431-1.538-3.431-3.431s1.537-3.431 3.431-3.431 3.431 1.538 3.431 3.431-1.537 3.431-3.431 3.431zM12.069 17.481c-1.419 0-2.575 1.156-2.575 2.575s1.156 2.575 2.575 2.575c1.419 0 2.575-1.156 2.575-2.575s-1.156-2.575-2.575-2.575z"></path>
<path fill="#5e686c" d="M12.069 27.775c-4.256 0-7.719-3.462-7.719-7.719s3.463-7.719 7.719-7.719c4.256 0 7.719 3.463 7.719 7.719s-3.462 7.719-7.719 7.719zM12.069 13.194c-3.781 0-6.862 3.075-6.862 6.862 0 3.781 3.075 6.863 6.862 6.863 3.781 0 6.862-3.075 6.862-6.863s-3.075-6.863-6.863-6.863z"></path>
<path fill="#5e686c" d="M12.069 31.813c-6.481 0-11.756-5.275-11.756-11.756 0-6.488 5.275-11.762 11.762-11.762s11.762 5.275 11.762 11.762c-0.006 6.481-5.281 11.756-11.769 11.756zM12.069 9.15c-6.013 0-10.9 4.894-10.9 10.9 0 6.012 4.894 10.9 10.9 10.9 6.013 0 10.9-4.887 10.9-10.9 0.006-6.006-4.887-10.9-10.9-10.9z"></path>
<path fill="#5e686c" d="M25.681 11.313c-1.081 0-2.181-0.544-3.25-1.619-1.337-1.338-1.85-2.7-1.525-4.037 0.831-3.369 6.781-5.263 7.031-5.344 0.131-0.037 0.275-0.019 0.381 0.063 0.113 0.081 0.175 0.213 0.175 0.344v2.906h2.906c0.137 0 0.262 0.063 0.344 0.175s0.106 0.25 0.063 0.381c-0.087 0.294-2.269 7.131-6.125 7.131zM27.637 1.331c-1.456 0.544-5.319 2.181-5.894 4.531-0.25 1.031 0.181 2.112 1.294 3.225 0.906 0.906 1.8 1.369 2.644 1.369 2.663 0 4.525-4.388 5.113-5.969h-2.731c-0.238 0-0.431-0.194-0.431-0.431v-2.725z"></path>
<path fill="#5e686c" d="M0.738 31.813c-0.113 0-0.219-0.044-0.306-0.125-0.169-0.169-0.169-0.438 0-0.606l3.337-3.331c0.169-0.169 0.438-0.169 0.606 0s0.169 0.438 0 0.606l-3.331 3.331c-0.088 0.081-0.194 0.125-0.306 0.125z"></path>
<path fill="#5e686c" d="M23.4 31.813c-0.113 0-0.219-0.044-0.306-0.125l-3.331-3.331c-0.169-0.169-0.169-0.438 0-0.606s0.438-0.169 0.606 0l3.331 3.331c0.169 0.169 0.169 0.438 0 0.606-0.081 0.081-0.188 0.125-0.3 0.125z"></path>
<path id="svg-ico" fill="#ee5586" d="M12.069 20.481c-0.113 0-0.219-0.044-0.306-0.125-0.169-0.169-0.169-0.438 0-0.606l16-15.994c0.169-0.169 0.438-0.169 0.606 0s0.169 0.438 0 0.606l-15.994 15.994c-0.088 0.087-0.194 0.125-0.306 0.125z"></path>
<path id="svg-ico" fill="#ee5586" d="M24.738 7.819c-0.238 0-0.431-0.194-0.431-0.431v-5.206c0-0.238 0.194-0.431 0.431-0.431s0.431 0.194 0.431 0.431v5.206c-0.006 0.237-0.2 0.431-0.431 0.431z"></path>
</svg>
