<!-- Generated by IcoMoon.io -->
<svg version="1.1" xmlns="http://www.w3.org/2000/svg" width="32" height="32" viewBox="0 0 32 32">
<title>thumbdown</title>
<path id="svg-ico" fill="#ee5586" d="M5.275 4.956c-1.044 0-1.894 0.85-1.894 1.894s0.85 1.894 1.894 1.894c1.044 0 1.894-0.85 1.894-1.894s-0.85-1.894-1.894-1.894zM5.275 7.794c-0.525 0-0.95-0.425-0.95-0.95s0.425-0.944 0.95-0.944c0.525 0 0.95 0.425 0.95 0.95s-0.431 0.944-0.95 0.944z"></path>
<path fill="#5e686b" d="M30.931 14.831c0.344-1.162 0.331-2.813-0.744-4.063 0.056-1.969-0.462-3.463-1.506-4.356-0.081-1.144-0.613-2.444-1.356-3.3-0.613-0.719-1.344-1.094-2.106-1.094h-13.219c-0.594 0-1.231 0.2-1.863 0.575-0.412-1.169-1.519-2.013-2.825-2.013h-4.075c-1.65 0-2.987 1.344-2.987 2.987v15.031c0 1.644 1.337 2.988 2.987 2.988h4.075c1.4 0 2.575-0.962 2.894-2.262 1.481 1.488 2.438 3.631 3.438 6.494v3.769c0 0.219 0.056 0.431 0.169 0.613 0.525 0.869 1.425 1.369 2.475 1.369 1.275 0 2.606-0.75 3.556-2.006 0.856-1.137 2.131-3.656 1.294-7.969h5.45c1.669 0 4.863-1.606 4.863-4.131 0-0.806-0.094-1.875-0.519-2.631zM9.35 18.6c0 1.125-0.912 2.038-2.037 2.038h-4.075c-1.125 0-2.038-0.913-2.038-2.038v-15.031c0-1.125 0.913-2.038 2.038-2.038h4.075c1.125 0 2.037 0.913 2.037 2.038v15.031zM26.587 20.637h-6.031c-0.144 0-0.281 0.069-0.369 0.181s-0.125 0.262-0.094 0.4c0.988 4.294-0.206 6.706-1 7.769-0.775 1.019-1.825 1.631-2.806 1.631-0.706 0-1.313-0.331-1.662-0.913-0.019-0.038-0.031-0.081-0.031-0.125v-3.844c0-0.050-0.006-0.106-0.025-0.156-1.169-3.375-2.3-5.813-4.269-7.462v-14.506c0.594-0.419 1.188-0.65 1.7-0.65h13.219c0.481 0 0.962 0.263 1.394 0.769 0.65 0.75 1.119 1.95 1.137 2.925 0 0.144 0.075 0.281 0.188 0.369 0.938 0.7 1.387 2.050 1.3 3.894-0.006 0.131 0.044 0.256 0.131 0.35 0.988 1.031 0.944 2.513 0.6 3.463-0.050 0.144-0.031 0.306 0.063 0.438 0.306 0.431 0.481 1.244 0.481 2.288-0.006 1.95-2.762 3.181-3.925 3.181z"></path>
</svg>
