<!-- Generated by IcoMoon.io -->
<svg version="1.1" xmlns="http://www.w3.org/2000/svg" width="32" height="32" viewBox="0 0 32 32">
<title>timer</title>
<path id="svg-ico" fill="#ee5586" d="M16.188 21.331c-0.8 0-1.556-0.313-2.125-0.881-1.169-1.169-1.169-3.075 0-4.244 1.131-1.131 3.113-1.131 4.244 0 0.569 0.569 0.881 1.319 0.881 2.119s-0.313 1.556-0.881 2.125c-0.563 0.569-1.313 0.881-2.119 0.881zM16.188 16.188c-0.575 0-1.113 0.225-1.519 0.625-0.838 0.837-0.838 2.194 0 3.031 0.813 0.813 2.219 0.813 3.031 0 0.406-0.406 0.631-0.944 0.631-1.519s-0.225-1.113-0.625-1.512c-0.406-0.406-0.944-0.625-1.519-0.625z"></path>
<path fill="#5e686c" d="M18.587 5.775c-0.238 0-0.431-0.194-0.431-0.431v-2.263c0-1.087-0.881-1.969-1.969-1.969s-1.969 0.881-1.969 1.969v2c0 0.237-0.194 0.431-0.431 0.431s-0.431-0.194-0.431-0.431v-2c0-1.556 1.269-2.825 2.825-2.825s2.825 1.269 2.825 2.825v2.263c0.012 0.237-0.181 0.431-0.419 0.431z"></path>
<path id="svg-ico" fill="#ee5586" d="M22.975 7.606c-0.081 0-0.156-0.019-0.225-0.069-0.2-0.125-0.262-0.388-0.131-0.594l1.444-2.294c0.063-0.1 0.156-0.169 0.269-0.188 0.113-0.025 0.231 0 0.325 0.063l1.575 1.031c0.2 0.131 0.25 0.394 0.125 0.594-0.131 0.2-0.4 0.25-0.594 0.125l-1.206-0.794-1.219 1.931c-0.075 0.125-0.219 0.194-0.363 0.194z"></path>
<path id="svg-ico" fill="#ee5586" d="M24.413 5.306c-0.081 0-0.163-0.025-0.238-0.069l-1.575-1.031c-0.2-0.131-0.25-0.394-0.125-0.594 0.131-0.2 0.394-0.25 0.594-0.125l1.575 1.031c0.2 0.131 0.25 0.394 0.125 0.594-0.081 0.125-0.219 0.194-0.356 0.194z"></path>
<path id="svg-ico" fill="#ee5586" d="M16.188 16.094c-0.238 0-0.431-0.194-0.431-0.431v-5.581c0-0.238 0.194-0.431 0.431-0.431s0.431 0.194 0.431 0.431v5.581c0 0.238-0.194 0.431-0.431 0.431z"></path>
<path id="svg-ico" fill="#ee5586" d="M24.044 18.756h-5.188c-0.238 0-0.431-0.194-0.431-0.431s0.194-0.431 0.431-0.431h5.188c0.238 0 0.431 0.194 0.431 0.431-0.006 0.244-0.194 0.431-0.431 0.431z"></path>
<path fill="#5e686c" d="M3.25 17.044c-0.019 0-0.038 0-0.056-0.006-0.237-0.031-0.4-0.244-0.369-0.481 0.875-6.675 6.625-11.706 13.363-11.706 1.031 0 2.063 0.119 3.050 0.344 1.4 0.325 2.731 0.869 3.956 1.619 0.2 0.125 0.269 0.388 0.144 0.588s-0.387 0.269-0.587 0.144c-1.15-0.7-2.394-1.212-3.706-1.513-0.931-0.213-1.894-0.325-2.863-0.325-6.313 0-11.694 4.713-12.512 10.963-0.019 0.212-0.206 0.375-0.419 0.375z"></path>
<path fill="#5e686c" d="M16.194 31.806c-6.813 0-12.563-5.094-13.381-11.844-0.031-0.238 0.138-0.45 0.375-0.475s0.45 0.137 0.475 0.375c0.762 6.319 6.15 11.087 12.531 11.087 6.962 0 12.625-5.663 12.625-12.625 0-4.438-2.262-8.469-6.056-10.781-0.2-0.125-0.269-0.388-0.144-0.588s0.387-0.269 0.587-0.144c4.050 2.469 6.469 6.775 6.469 11.512-0.006 7.438-6.050 13.481-13.481 13.481z"></path>
</svg>
