<!-- Generated by IcoMoon.io -->
<svg version="1.1" xmlns="http://www.w3.org/2000/svg" width="32" height="32" viewBox="0 0 32 32">
<title>time</title>
<path fill="#5e686c" d="M26.225 1.169h-19.775c-0.237 0-0.425-0.188-0.425-0.425s0.188-0.425 0.425-0.425h19.775c0.238 0 0.425 0.187 0.425 0.425 0 0.231-0.188 0.425-0.425 0.425z"></path>
<path id="svg-ico" fill="#ee5586" d="M16.337 13.844c0 0-0.006 0 0 0-0.125 0-0.238-0.056-0.319-0.144l-4.363-4.925c-0.113-0.125-0.137-0.306-0.069-0.456s0.219-0.25 0.387-0.25h8.963c0.169 0 0.325 0.1 0.387 0.256 0.069 0.156 0.038 0.338-0.081 0.456l-4.606 4.925c-0.069 0.088-0.181 0.137-0.3 0.137zM12.919 8.925l3.425 3.869 3.619-3.869h-7.044z"></path>
<path fill="#5e686c" d="M26.225 31.75h-19.775c-0.237 0-0.425-0.188-0.425-0.425s0.188-0.425 0.425-0.425h19.775c0.238 0 0.425 0.188 0.425 0.425s-0.188 0.425-0.425 0.425z"></path>
<path id="svg-ico" fill="#ee5586" d="M16.337 21.356c-0.238 0-0.425-0.188-0.425-0.425v-0.913c0-0.238 0.188-0.425 0.425-0.425s0.425 0.188 0.425 0.425v0.913c0 0.231-0.188 0.425-0.425 0.425z"></path>
<path id="svg-ico" fill="#ee5586" d="M16.337 18.613c-0.238 0-0.425-0.188-0.425-0.425v-0.913c0-0.238 0.188-0.425 0.425-0.425s0.425 0.188 0.425 0.425v0.913c0 0.238-0.188 0.425-0.425 0.425z"></path>
<path id="svg-ico" fill="#ee5586" d="M21.669 28.625c-0.106 0-0.219-0.044-0.3-0.125l-5.031-5.031-5.031 5.031c-0.169 0.169-0.431 0.169-0.6 0s-0.169-0.431 0-0.6l5.331-5.331c0.163-0.169 0.431-0.169 0.6 0l5.331 5.331c0.169 0.169 0.169 0.431 0 0.6-0.081 0.081-0.194 0.125-0.3 0.125z"></path>
<path fill="#5e686c" d="M24.556 28.788h-16.438c-0.237 0-0.425-0.188-0.425-0.425v-3.3c0-4.425 3.288-7.456 5.594-9.031-2.006-1.387-5.519-4.469-5.519-9.031v-3.3c0-0.237 0.188-0.425 0.425-0.425h16.369c0.238 0 0.425 0.188 0.425 0.425v3.3c0 4.425-3.288 7.456-5.594 9.031 2.025 1.4 5.594 4.512 5.594 9.056v3.275c-0.006 0.238-0.194 0.425-0.431 0.425zM8.544 27.944h15.594v-2.85c0-4.569-4.012-7.606-5.738-8.7-0.125-0.075-0.2-0.212-0.2-0.356s0.075-0.281 0.2-0.356c2.144-1.356 5.738-4.294 5.738-8.675v-2.881h-15.519v2.875c0 4.588 3.963 7.594 5.662 8.675 0.125 0.075 0.2 0.213 0.2 0.356s-0.075 0.281-0.2 0.356c-2.144 1.363-5.737 4.294-5.737 8.675v2.881z"></path>
</svg>
