<!-- Generated by IcoMoon.io -->
<svg version="1.1" xmlns="http://www.w3.org/2000/svg" width="32" height="32" viewBox="0 0 32 32">
<title>tools</title>
<path fill="#5e686b" d="M2.119 5.213c0.462 0.469 1.087 0.731 1.744 0.731 0 0 0 0 0 0 0.513 0 1.006-0.156 1.419-0.45l6.162 5.994c0.081 0.081 0.194 0.119 0.3 0.119 0.113 0 0.225-0.044 0.306-0.131 0.162-0.169 0.162-0.444-0.006-0.606l-6.156-5.987c0.669-0.969 0.575-2.313-0.275-3.175l-0.725-0.725c-0.162-0.162-0.45-0.162-0.612 0l-2.875 2.906c-0.169 0.169-0.169 0.438 0 0.606l0.719 0.719zM4.581 1.894l0.419 0.419c0.625 0.631 0.625 1.663 0 2.3-0.3 0.306-0.706 0.475-1.131 0.475-0.431 0-0.831-0.169-1.131-0.475l-0.425-0.425 2.269-2.294z"></path>
<path fill="#5e686b" d="M21.137 21.275l5.556 5.613c0.081 0.087 0.194 0.125 0.306 0.125 0.106 0 0.219-0.044 0.3-0.125 0.169-0.169 0.169-0.438 0.006-0.606l-5.556-5.613c-0.169-0.169-0.438-0.169-0.606-0.006-0.169 0.169-0.175 0.444-0.006 0.613z"></path>
<path fill="#5e686b" d="M30.181 23.369l-6.175-6.238c-0.169-0.169-0.438-0.169-0.606-0.006-0.169 0.169-0.169 0.438-0.006 0.606l6.175 6.238c1.425 1.438 1.425 3.775 0.006 5.213-0.688 0.694-1.6 1.081-2.575 1.081 0 0 0 0 0 0-0.969 0-1.875-0.381-2.563-1.069l-6.188-6.244c-0.169-0.169-0.438-0.169-0.606-0.006-0.169 0.169-0.169 0.438-0.006 0.606l6.188 6.244c0.85 0.856 1.975 1.325 3.175 1.325 0 0 0 0 0 0 1.2 0 2.331-0.475 3.181-1.331 1.756-1.769 1.756-4.65 0-6.419z"></path>
<path id="svg-ico" fill="#ee5586" d="M23.719 14.656c0.006 0 0.006 0 0 0 1.744 0 3.387-0.688 4.6-1.919l2.619-2.381c0 0 0.006 0 0.006-0.006 0.019-0.019 0.031-0.031 0.044-0.050 0.006-0.006 0.006-0.006 0.012-0.012 0 0 0-0.006 0.006-0.006 0.113-0.162 0.1-0.381-0.031-0.531 0 0-0.006-0.006-0.006-0.006l-2.2-2.394c-0.081-0.088-0.188-0.138-0.306-0.138-0.113-0.006-0.231 0.044-0.313 0.125l-1.438 1.45c-0.988 1-2.719 1-3.706 0-1.025-1.031-1.025-2.713 0-3.75l1.438-1.45c0.163-0.169 0.163-0.438 0-0.606l-2.169-2.2c0 0 0 0 0 0s0 0 0-0.006c-0.006-0.006-0.012-0.012-0.019-0.012-0.006-0.006-0.006-0.006-0.012-0.012s-0.012-0.012-0.019-0.012c-0.006-0.006-0.006-0.006-0.012-0.012s-0.019-0.012-0.025-0.012c-0.006 0-0.006-0.006-0.012-0.006-0.006-0.006-0.019-0.006-0.025-0.012-0.006 0-0.006-0.006-0.012-0.006-0.012-0.006-0.019-0.006-0.031-0.012-0.006 0-0.006 0-0.012-0.006-0.012 0-0.019-0.006-0.031-0.006 0 0-0.006 0-0.006 0-0.012 0-0.019-0.006-0.031-0.006-0.006 0-0.006 0-0.012 0-0.012 0-0.019 0-0.031 0-0.006 0-0.006 0-0.012 0-0.012 0-0.019 0-0.031 0-0.006 0-0.006 0-0.012 0s-0.019 0-0.025 0.006c-0.006 0-0.012 0-0.012 0-0.006 0-0.012 0.006-0.025 0.006-0.006 0-0.012 0-0.019 0.006-0.006 0-0.012 0.006-0.019 0.006s-0.012 0.006-0.019 0.006c-0.006 0-0.012 0.006-0.019 0.006-0.006 0.006-0.012 0.006-0.025 0.012-0.006 0-0.006 0.006-0.012 0.006-0.006 0.006-0.019 0.006-0.025 0.012-0.006 0-0.006 0.006-0.006 0.006-0.006 0.006-0.019 0.012-0.025 0.019 0 0-0.006 0.006-0.006 0.006-0.006 0.006-0.012 0.012-0.025 0.019 0 0 0 0.006-0.006 0.006 0 0 0 0 0 0l-2.563 2.619c-2.544 2.569-2.544 6.75 0 9.319 1.244 1.25 2.881 1.938 4.625 1.938zM19.712 4.013l2.262-2.313 1.563 1.581-1.137 1.15c-1.356 1.369-1.356 3.594 0 4.963 0.656 0.662 1.531 1.031 2.462 1.031s1.806-0.369 2.462-1.031l1.119-1.131 1.606 1.75-2.319 2.106c-1.069 1.081-2.494 1.675-4.006 1.675 0 0 0 0 0 0-1.512 0-2.938-0.594-4.012-1.681-2.219-2.225-2.219-5.862 0-8.1z"></path>
<path id="svg-ico" fill="#ee5586" d="M3.9 26.613c-0.237 0-0.431 0.194-0.431 0.431s0.194 0.431 0.431 0.431h2.038c0.237 0 0.431-0.194 0.431-0.431s-0.194-0.431-0.431-0.431h-2.038z"></path>
<path fill="#5e686b" d="M17.637 17.637c0.081 0.081 0.194 0.125 0.306 0.125s0.219-0.044 0.306-0.125c0.169-0.169 0.169-0.438 0-0.606l-4.037-4.025c-0.169-0.169-0.438-0.169-0.606 0s-0.169 0.438 0 0.606l4.031 4.025z"></path>
<path id="svg-ico" fill="#ee5586" d="M15.662 19.012c-0.194-0.137-0.463-0.094-0.6 0.1l-7.606 10.569c-0.688 0.694-1.6 1.075-2.569 1.075v0c-0.969 0-1.888-0.381-2.575-1.075-1.425-1.438-1.425-3.769-0.050-5.163l10.525-7.719c0.194-0.137 0.231-0.406 0.094-0.6-0.144-0.194-0.412-0.231-0.6-0.094l-10.581 7.762c-1.75 1.769-1.756 4.644 0 6.412 0.85 0.856 1.981 1.331 3.181 1.331 0 0 0 0 0 0 1.2 0 2.331-0.475 3.225-1.381l7.65-10.619c0.137-0.194 0.094-0.462-0.094-0.6z"></path>
</svg>
