<!-- Generated by IcoMoon.io -->
<svg version="1.1" xmlns="http://www.w3.org/2000/svg" width="32" height="32" viewBox="0 0 32 32">
<title>upload</title>
<path fill="#5e686b" d="M30.519 31.781h-28.544c-0.238 0-0.425-0.188-0.425-0.425v-6.25c0-0.238 0.188-0.425 0.425-0.425s0.425 0.188 0.425 0.425v5.825h27.694v-5.825c0-0.238 0.188-0.425 0.425-0.425s0.425 0.188 0.425 0.425v6.25c0.006 0.238-0.188 0.425-0.425 0.425z"></path>
<path id="svg-ico" fill="#ee5586" d="M24.488 9.113c-0.106 0-0.212-0.037-0.294-0.119l-7.9-7.631-7.894 7.631c-0.169 0.162-0.438 0.162-0.6-0.012-0.162-0.169-0.156-0.438 0.013-0.6l8.188-7.919c0.163-0.162 0.425-0.162 0.594 0l8.194 7.912c0.169 0.162 0.175 0.431 0.012 0.6-0.087 0.094-0.2 0.137-0.313 0.137z"></path>
<path id="svg-ico" fill="#ee5586" d="M16.294 25.531c-0.238 0-0.425-0.188-0.425-0.425v-24.337c0-0.238 0.188-0.425 0.425-0.425s0.425 0.187 0.425 0.425v24.331c0 0.238-0.188 0.431-0.425 0.431z"></path>
</svg>
