<!-- Generated by IcoMoon.io -->
<svg version="1.1" xmlns="http://www.w3.org/2000/svg" width="32" height="32" viewBox="0 0 32 32">
<title>vimeo</title>
<path fill="#5e686b" d="M14.412 29.206c-2.912-0.225-3.969-4.338-4.675-7.081-0.1-0.381-0.188-0.738-0.281-1.063-0.131-0.475-0.287-1.081-0.463-1.756-1.219-4.75-2.362-8.719-4.006-9.144-0.025-0.006-0.125-0.012-0.15-0.012-0.688 0-1.888 0.813-2.513 1.275l-0.913-1.244c0.663-0.556 1.387-1.231 2.144-1.944 2.231-2.106 4.762-4.487 6.75-4.487 2.531 0 3.269 3.013 3.681 6.263 1.1 8.438 2.525 10.188 3.381 10.387 0-0.294 0.006-0.594-0.012-0.887-0.731-0.544-1.819-4.044-2.544-9.606-0.313-2.444-0.894-6.994-4.512-6.994-2.319 0-4.975 2.506-7.319 4.713-0.856 0.813-1.669 1.581-2.394 2.15-0.175 0.137-0.213 0.394-0.075 0.575l1.4 1.912c0.069 0.094 0.169 0.15 0.281 0.169s0.225-0.019 0.313-0.088c0.831-0.65 1.956-1.356 2.313-1.363 1.256 0.325 2.688 5.869 3.369 8.537 0.175 0.688 0.331 1.3 0.469 1.775 0.088 0.313 0.181 0.669 0.275 1.044 0.775 3.006 1.931 7.519 5.506 7.713 0-0.288-0.006-0.563-0.025-0.844z"></path>
<path id="svg-ico" fill="#ee5586" d="M26.481 2.587c-4.144 0-7.281 2.744-8.613 7.519-0.044 0.156 0.006 0.325 0.131 0.431s0.3 0.131 0.45 0.056c0.613-0.287 1.337-0.463 1.938-0.463 1.050 0 1.6 0.475 1.688 1.45 0.144 1.631-1.794 5.425-3.4 7.175-0.462 0.5-0.769 0.7-0.95 0.781l-0.375-0.025c0 0.137 0.012 0.887 0.012 0.887 0.025 0.031 0.369 0.006 0.369 0.006 0.45-0.081 0.962-0.438 1.563-1.081 1.762-1.925 3.781-5.906 3.613-7.806-0.119-1.406-1.038-2.213-2.519-2.213-0.462 0-0.969 0.081-1.462 0.225 1.337-3.944 4-6.1 7.556-6.1 3.031 0 4.387 1.731 4.387 5.619 0 5.119-10.269 19.962-16.081 20.169l-0.375-0.006 0.019 0.837 0.375 0.006c6.688-0.219 16.894-16.137 16.894-21.006 0.006-1.606 0.006-6.463-5.219-6.463z"></path>
</svg>
