<!-- Generated by IcoMoon.io -->
<svg version="1.1" xmlns="http://www.w3.org/2000/svg" width="32" height="32" viewBox="0 0 32 32">
<title>vps</title>
<path fill="#5e686b" d="M29.55 13.35h-16.175c-0.231 0-0.419 0.188-0.419 0.419s0.188 0.419 0.419 0.419h16.175c0.65 0 1.181 0.456 1.181 1.025v8.050c0 0.563-0.531 1.025-1.181 1.025h-27.081c-0.65 0-1.181-0.456-1.181-1.025v-8.050c0-0.563 0.531-1.025 1.181-1.025h4.175c0.231 0 0.419-0.188 0.419-0.419s-0.188-0.419-0.419-0.419h-4.175c-1.113 0-2.025 0.838-2.025 1.863v8.050c0 1.025 0.906 1.863 2.025 1.863h27.081c1.113 0 2.019-0.837 2.019-1.863v-8.050c0.006-1.025-0.906-1.863-2.019-1.863z"></path>
<path fill="#5e686b" d="M29.55 0.269h-16.175c-0.231 0-0.419 0.188-0.419 0.419s0.188 0.419 0.419 0.419h16.175c0.65 0 1.181 0.456 1.181 1.025v8.050c0 0.563-0.531 1.025-1.181 1.025h-27.081c-0.65 0-1.181-0.456-1.181-1.025v-8.050c0-0.563 0.531-1.025 1.181-1.025h4.175c0.231 0 0.419-0.188 0.419-0.419s-0.188-0.419-0.419-0.419h-4.175c-1.113 0-2.019 0.831-2.019 1.862v8.050c0 1.025 0.906 1.863 2.025 1.863h27.081c1.113 0 2.019-0.838 2.019-1.863v-8.050c0-1.025-0.913-1.863-2.025-1.863z"></path>
<path id="svg-ico" fill="#ee5586" d="M25.775 19.663c0.231 0 0.419-0.188 0.419-0.419s-0.188-0.419-0.419-0.419h-2.169c-0.231 0-0.419 0.188-0.419 0.419s0.188 0.419 0.419 0.419h2.169z"></path>
<path id="svg-ico" fill="#ee5586" d="M25.775 6.575c0.231 0 0.419-0.188 0.419-0.419s-0.188-0.419-0.419-0.419h-2.169c-0.231 0-0.419 0.188-0.419 0.419s0.188 0.419 0.419 0.419h2.169z"></path>
<path fill="#5e686b" d="M25.994 29.613h-8.356c-0.15-0.594-0.619-1.056-1.206-1.212v-1.875c0-0.231-0.188-0.419-0.419-0.419s-0.419 0.188-0.419 0.419v1.875c-0.588 0.15-1.056 0.619-1.206 1.212h-8.363c-0.231 0-0.419 0.188-0.419 0.419s0.188 0.419 0.419 0.419h8.356c0.188 0.725 0.85 1.262 1.631 1.262s1.444-0.538 1.631-1.262h8.356c0.231 0 0.419-0.188 0.419-0.419-0.006-0.231-0.194-0.419-0.425-0.419zM16.012 30.875c-0.463 0-0.844-0.375-0.844-0.844 0-0.462 0.375-0.844 0.844-0.844 0.462 0 0.844 0.375 0.844 0.844-0.006 0.462-0.381 0.844-0.844 0.844z"></path>
</svg>
