<!-- Generated by IcoMoon.io -->
<svg version="1.1" xmlns="http://www.w3.org/2000/svg" width="32" height="32" viewBox="0 0 32 32">
<title>wallet</title>
<path id="svg-ico" fill="#ee5586" d="M23.137 22.856c1.663 0 3.019-1.356 3.019-3.019s-1.356-3.019-3.019-3.019c-1.663 0-3.012 1.35-3.012 3.019s1.35 3.019 3.012 3.019zM23.137 17.688c1.188 0 2.156 0.969 2.156 2.156s-0.969 2.156-2.156 2.156c-1.188 0-2.15-0.969-2.15-2.156 0-1.194 0.962-2.156 2.15-2.156z"></path>
<path fill="#5e686b" d="M30.369 7.775c-0.081-0.081-0.188-0.125-0.306-0.125 0 0 0 0 0 0l-6.35 0.006v-5.925c0-0.712-0.313-1.113-0.581-1.319-0.806-0.637-2.113-0.356-2.313-0.3l-19.406 7.6c0 0 0 0-0.006 0-0.006 0.006-0.019 0.006-0.025 0.013-0.006 0-0.012 0.006-0.012 0.006-0.006 0.006-0.012 0.006-0.019 0.013s-0.012 0.006-0.019 0.013c-0.006 0-0.006 0.006-0.012 0.006-0.006 0.006-0.012 0.013-0.025 0.019 0 0-0.006 0.006-0.006 0.006-0.006 0.006-0.019 0.013-0.025 0.019 0 0-0.006 0.006-0.006 0.006-0.006 0.006-0.012 0.019-0.025 0.025 0 0.006-0.006 0.006-0.006 0.013-0.006 0.006-0.012 0.013-0.019 0.019s-0.006 0.013-0.012 0.019c0 0.006-0.006 0.013-0.006 0.013-0.006 0.006-0.006 0.019-0.012 0.025 0 0.006-0.006 0.006-0.006 0.013-0.006 0.013-0.006 0.019-0.012 0.031 0 0.006 0 0.006-0.006 0.013 0 0.006-0.006 0.019-0.006 0.025s0 0.012-0.006 0.012c0 0.006 0 0.012-0.006 0.025 0 0.006 0 0.012 0 0.019s0 0.012 0 0.019c0 0.006 0 0.019 0 0.025 0 0 0 0.006 0 0.006v21.431c0 1.506 0.925 2.331 2.6 2.331h26.331c0.238 0 0.431-0.194 0.431-0.431v-23.369c0-0.112-0.044-0.219-0.125-0.3zM21.069 0.931c0.262-0.063 1.113-0.169 1.525 0.156 0.169 0.137 0.256 0.344 0.256 0.644v5.925l-18.994 0.025 17.212-6.75zM29.631 31.012h-25.887c-1.544 0-1.737-0.788-1.737-1.469v-21l27.631-0.037v22.506z"></path>
<path id="svg-ico" fill="#ee5586" d="M6.581 26.131c0.237 0 0.431-0.194 0.431-0.431v-12.931c0-0.238-0.194-0.431-0.431-0.431s-0.431 0.194-0.431 0.431v12.931c0 0.238 0.194 0.431 0.431 0.431z"></path>
</svg>
