<!-- Generated by IcoMoon.io -->
<svg version="1.1" xmlns="http://www.w3.org/2000/svg" width="32" height="32" viewBox="0 0 32 32">
<title>wind</title>
<path fill="#5e686b" d="M17.644 15.831h-13.556c-0.237 0-0.425-0.188-0.425-0.425s0.188-0.425 0.425-0.425h13.556c1.35 0 2.444-1.094 2.444-2.444s-1.094-2.444-2.444-2.444c-1.35 0-2.444 1.094-2.444 2.444 0 0.238-0.188 0.425-0.425 0.425s-0.425-0.188-0.425-0.425c0-1.819 1.475-3.294 3.294-3.294s3.294 1.475 3.294 3.294c0 1.819-1.475 3.294-3.294 3.294z"></path>
<path fill="#5e686b" d="M23.762 24.006c-1.275 0-2.306-1.038-2.306-2.306 0-0.238 0.188-0.425 0.425-0.425s0.425 0.188 0.425 0.425c0 0.806 0.656 1.456 1.456 1.456 0.806 0 1.456-0.656 1.456-1.456 0-0.806-0.656-1.456-1.456-1.456h-16.231c-0.237 0-0.425-0.188-0.425-0.425s0.188-0.425 0.425-0.425h16.231c1.275 0 2.306 1.038 2.306 2.306 0.006 1.275-1.031 2.306-2.306 2.306z"></path>
<path id="svg-ico" fill="#ee5586" d="M27.1 18.212h-26.45c-0.237 0-0.425-0.188-0.425-0.425s0.188-0.425 0.425-0.425h26.45c2.081 0 3.769-1.694 3.769-3.769 0-2.081-1.694-3.769-3.769-3.769-2.081 0-3.769 1.694-3.769 3.769 0 0.238-0.188 0.425-0.425 0.425s-0.425-0.188-0.425-0.425c0-2.55 2.075-4.619 4.619-4.619 2.55 0 4.619 2.075 4.619 4.619s-2.069 4.619-4.619 4.619z"></path>
</svg>
