<!-- Generated by IcoMoon.io -->
<svg version="1.1" xmlns="http://www.w3.org/2000/svg" width="32" height="32" viewBox="0 0 32 32">
<title>wink</title>
<path fill="#5e686b" d="M9.563 16.512c-1.931 0-3.506-1.569-3.506-3.5s1.575-3.506 3.506-3.506c1.931 0 3.5 1.569 3.5 3.506 0.006 1.931-1.569 3.5-3.5 3.5zM9.563 10.381c-1.45 0-2.631 1.181-2.631 2.625s1.181 2.625 2.631 2.625c1.45 0 2.625-1.181 2.625-2.625 0.006-1.444-1.175-2.625-2.625-2.625z"></path>
<path fill="#5e686b" d="M25.656 16.512c-0.244 0-0.438-0.194-0.438-0.438 0-1.45-1.181-2.625-2.625-2.625-1.45 0-2.625 1.181-2.625 2.625 0 0.244-0.194 0.438-0.438 0.438s-0.438-0.194-0.438-0.438c0-1.931 1.569-3.506 3.5-3.506s3.5 1.569 3.5 3.506c0 0.244-0.194 0.438-0.438 0.438z"></path>
<path id="svg-ico" fill="#ee5586" d="M16.081 25.725c-2.525 0-4.944-1.306-6.813-3.669-0.15-0.188-0.119-0.462 0.069-0.619 0.194-0.15 0.469-0.113 0.613 0.069 1.7 2.15 3.875 3.337 6.125 3.337 2.244 0 4.419-1.188 6.125-3.337 0.15-0.188 0.425-0.219 0.619-0.069 0.188 0.15 0.219 0.425 0.069 0.619-1.869 2.369-4.288 3.669-6.806 3.669z"></path>
<path fill="#5e686b" d="M16.081 31.837c-8.694 0-15.769-7.069-15.769-15.762 0-8.025 6-14.756 13.963-15.662 0.231-0.031 0.456 0.144 0.488 0.387 0.025 0.238-0.144 0.456-0.387 0.488-7.519 0.85-13.188 7.213-13.188 14.787 0 8.213 6.681 14.887 14.888 14.887 8.212 0 14.887-6.681 14.887-14.887 0-7.581-5.669-13.938-13.188-14.794-0.238-0.025-0.413-0.244-0.387-0.488s0.25-0.412 0.488-0.388c7.963 0.906 13.963 7.637 13.963 15.662 0.006 8.7-7.069 15.769-15.756 15.769z"></path>
</svg>
