<!-- Generated by IcoMoon.io -->
<svg version="1.1" xmlns="http://www.w3.org/2000/svg" width="32" height="32" viewBox="0 0 32 32">
<title>wordpress</title>
<path id="svg-ico" fill="#ee5586" d="M10.412 27.931c-0.063 0-0.125-0.012-0.188-0.044-4.55-2.206-7.487-6.875-7.487-11.9 0-1.931 0.419-3.787 1.212-5.369 0.075-0.15 0.225-0.244 0.4-0.231 0.169 0.012 0.313 0.119 0.375 0.275l6.050 16.6c0.050 0.069 0.081 0.156 0.081 0.25 0 0.238-0.213 0.431-0.431 0.425-0.006-0.006-0.006-0.006-0.012-0.006zM4.294 11.95c-0.462 1.238-0.706 2.613-0.706 4.037 0 4.338 2.344 8.394 6.050 10.619l-5.344-14.656z"></path>
<path id="svg-ico" fill="#ee5586" d="M22.325 24.175c-0.188 0-0.35-0.119-0.406-0.3l-4.275-13.85c-0.038-0.131-0.019-0.269 0.063-0.375s0.206-0.169 0.337-0.169c0.725 0 1.337-0.119 1.344-0.119l0.225 0.394-0.125-0.406c0-0.006-0.012-0.063-0.050-0.131-0.031-0.050-0.069-0.056-0.1-0.056-0.056 0.006-2.075 0.131-3.369 0.131s-3.306-0.125-3.394-0.131c-0.113 0-0.131 0.063-0.144 0.081-0.019 0.050-0.006 0.094 0.006 0.106 0.025 0 0.088 0.006 0.119 0.012 0.006 0 0.619 0.119 1.213 0.119 0.181 0 0.338 0.113 0.4 0.281l1.944 5.438c0.031 0.094 0.031 0.2 0 0.294l-2.85 7.569c-0.063 0.169-0.213 0.281-0.4 0.275-0.175 0-0.338-0.113-0.394-0.281l-4.662-13.006c-0.044-0.131-0.025-0.275 0.050-0.387 0.081-0.113 0.206-0.181 0.344-0.181 0.719 0 1.338-0.119 1.344-0.119 0 0 0.088-0.006 0.106-0.012-0.012 0-0.012-0.069-0.050-0.131-0.031-0.050-0.069-0.056-0.1-0.056-0.056 0.006-2.075 0.131-3.362 0.131h-0.769c-0.156 0-0.3-0.088-0.375-0.219-0.075-0.137-0.069-0.3 0.019-0.431 2.375-3.638 6.575-5.894 10.969-5.894 3.275 0 6.35 1.181 8.887 3.413 0.131 0.069 0.225 0.213 0.225 0.375 0 0.231-0.188 0.425-0.425 0.425-0.006 0-0.012 0-0.019 0h-0.131c-1.063 0-1.775 0.987-1.775 1.906 0 0.806 0.481 1.563 1.031 2.444l0.194 0.313c0.5 0.744 1.1 2.006 1.1 3.719 0 0.825-0.288 1.75-0.65 2.919-0.125 0.413-0.262 0.856-0.4 1.337l-1.294 4.275c-0.050 0.181-0.212 0.3-0.4 0.3v0 0zM18.619 10.306l3.7 12 0.894-2.95c0.137-0.481 0.275-0.931 0.406-1.35 0.344-1.1 0.613-1.975 0.613-2.669 0-1.5-0.525-2.6-0.962-3.262l-0.2-0.319c-0.6-0.944-1.163-1.838-1.163-2.894 0-1.069 0.681-2.2 1.769-2.6-2.25-1.75-4.894-2.669-7.688-2.669-3.838 0-7.525 1.837-9.8 4.85 1.269 0 3.281-0.125 3.3-0.131 0 0 0 0 0 0 0.637 0 1 0.519 1 1.019s-0.356 0.863-0.844 0.863c0.019 0-0.331 0.069-0.831 0.106l4.075 11.381 2.387-6.344-1.794-5.019c-0.563-0.031-1.056-0.125-1.075-0.131-0.444 0.006-0.813-0.381-0.813-0.894 0-0.25 0.094-0.488 0.262-0.669 0.188-0.2 0.456-0.306 0.756-0.306 0.050 0 2.1 0.131 3.362 0.131 1.269 0 3.319-0.125 3.337-0.131 0 0 0 0 0 0 0.637 0 1 0.519 1 1.019s-0.356 0.863-0.844 0.863c0.031 0-0.331 0.069-0.85 0.106z"></path>
<path id="svg-ico" fill="#ee5586" d="M16.825 29.225c-1.481 0-2.637-0.169-3.756-0.538-0.106-0.038-0.194-0.113-0.244-0.212s-0.056-0.219-0.019-0.325l3.881-11.137c0.056-0.169 0.256-0.269 0.4-0.281 0.181 0 0.337 0.113 0.4 0.281l3.913 10.719c0.1 0.1 0.144 0.244 0.119 0.381-0.031 0.137-0.125 0.256-0.256 0.306-1.294 0.512-2.906 0.806-4.438 0.806zM13.744 28.012c0.906 0.256 1.875 0.369 3.081 0.369 1.25 0 2.556-0.206 3.656-0.581l-3.394-9.387-3.344 9.6z"></path>
<path id="svg-ico" fill="#ee5586" d="M22.45 27.413c-0.094 0-0.194-0.031-0.269-0.094-0.137-0.113-0.188-0.3-0.131-0.462l3.887-11.262c0.694-1.625 1.012-3.012 1.012-4.394 0-0.175-0.031-0.381-0.063-0.588-0.038-0.25-0.069-0.494-0.069-0.706 0-0.194 0.137-0.369 0.325-0.412 0.194-0.044 0.387 0.044 0.475 0.225 1.063 2.119 1.6 4.231 1.6 6.275 0 4.644-2.512 9-6.55 11.369-0.069 0.031-0.144 0.050-0.219 0.050zM27.744 12.213c-0.119 1.169-0.45 2.362-1.019 3.681l-3.469 10.063c3.181-2.313 5.119-6.031 5.119-9.975 0-1.225-0.212-2.487-0.631-3.769z"></path>
<path fill="#5e686b" d="M15.981 31.813c-8.725 0-15.825-7.1-15.825-15.825s7.1-15.825 15.825-15.825 15.825 7.1 15.825 15.825c0 8.581-7.25 15.825-15.825 15.825zM15.981 1.006c-8.262 0-14.981 6.719-14.981 14.981s6.719 14.981 14.981 14.981c8.119 0 14.981-6.863 14.981-14.981 0-8.262-6.725-14.981-14.981-14.981z"></path>
</svg>
