<?xml version="1.0" encoding="utf-8"?>
<!-- Generator: Adobe Illustrator 22.0.0, SVG Export Plug-In . SVG Version: 6.00 Build 0)  -->
<svg version="1.1" id="Layer_1" xmlns="http://www.w3.org/2000/svg" xmlns:xlink="http://www.w3.org/1999/xlink" x="0px" y="0px"
	 viewBox="0 0 170.1 170.1" style="enable-background:new 0 0 170.1 170.1;" xml:space="preserve">
<style type="text/css">
	.st0{fill:#FFD201;}
	.st1{fill:#181306;}
	.st2{fill:#EC4639;}
</style>
<g>
	<path class="st0" d="M2.5,64.6C13.8,19,59.9-8.8,105.5,2.5c45.6,11.3,73.4,57.4,62.1,103c-11.3,45.6-57.4,73.4-103,62.1
		C19,156.3-8.8,110.2,2.5,64.6"/>
	<path class="st1" d="M5,56.5h160.2c-9.3-25.9-30.9-46.9-59.7-54C62.7-8.1,19.4,15.8,5,56.5"/>
	<path class="st2" d="M168.2,102.5c0-0.2,0.1-0.4,0.1-0.5c0.1-0.3,0.1-0.6,0.2-0.9c0-0.2,0.1-0.4,0.1-0.5c0.1-0.3,0.1-0.7,0.2-1
		c0-0.2,0.1-0.3,0.1-0.5c0.1-0.4,0.1-0.8,0.2-1.2c0-0.1,0-0.2,0-0.2c0.1-0.5,0.1-1,0.2-1.5c0-0.1,0-0.3,0-0.4c0-0.4,0.1-0.7,0.1-1.1
		c0-0.2,0-0.3,0.1-0.5c0-0.3,0.1-0.6,0.1-1c0-0.2,0-0.4,0-0.5c0-0.3,0.1-0.7,0.1-1c0-0.2,0-0.3,0-0.5c0-0.4,0.1-0.7,0.1-1.1
		c0-0.1,0-0.2,0-0.3c0-0.5,0-1,0.1-1.5c0-0.1,0-0.2,0-0.2c0-0.4,0-0.8,0-1.2c0-0.2,0-0.3,0-0.5c0-0.3,0-0.7,0-1c0-0.2,0-0.3,0-0.5
		c0-0.3,0-0.7,0-1c0-0.2,0-0.3,0-0.5c0-0.4,0-0.7,0-1.1c0-0.1,0-0.2,0-0.4c0-1-0.1-1.9-0.2-2.9c0-0.1,0-0.3,0-0.4
		c0-0.4-0.1-0.7-0.1-1.1c0-0.2,0-0.3,0-0.5c0-0.3-0.1-0.7-0.1-1c0-0.2,0-0.3-0.1-0.5c0-0.4-0.1-0.7-0.1-1.1c0-0.1,0-0.2,0-0.4
		c-0.1-1-0.3-1.9-0.4-2.9c0-0.1,0-0.2,0-0.3c-0.1-0.4-0.1-0.8-0.2-1.2c0-0.1,0-0.3-0.1-0.4c-0.1-0.3-0.1-0.7-0.2-1
		c0-0.1-0.1-0.3-0.1-0.4c-0.1-0.4-0.1-0.7-0.2-1.1c0-0.1-0.1-0.2-0.1-0.4c-0.1-0.4-0.2-0.9-0.3-1.3l0-0.1c-0.1-0.5-0.2-0.9-0.3-1.3
		h0c-0.6-2.5-1.4-4.9-2.3-7.4H5c-0.9,2.6-1.8,5.4-2.4,8.1C-0.3,76-0.7,87.5,1.1,98.4c0,0,0,0.1,0,0.1c0.1,0.4,0.1,0.8,0.2,1.2
		c0,0.1,0,0.2,0,0.3c0.1,0.4,0.1,0.7,0.2,1.1c0,0.1,0,0.2,0.1,0.3c0.1,0.3,0.1,0.7,0.2,1c0,0.1,0.1,0.3,0.1,0.4
		c0.1,0.3,0.1,0.7,0.2,1c0,0.2,0.1,0.3,0.1,0.5c0.1,0.3,0.1,0.6,0.2,0.9c0.1,0.2,0.1,0.5,0.2,0.7c0.1,0.3,0.2,0.7,0.3,1
		c0.1,0.3,0.2,0.7,0.3,1c0,0.2,0.1,0.3,0.1,0.5c0.1,0.3,0.2,0.6,0.3,1c0,0.2,0.1,0.3,0.1,0.5c0.1,0.3,0.2,0.6,0.3,1
		c0,0.1,0.1,0.3,0.1,0.4c0.1,0.3,0.2,0.6,0.3,1c0,0.1,0.1,0.3,0.1,0.4c0.1,0.3,0.2,0.6,0.3,1c0,0.1,0.1,0.2,0.1,0.2h0
		c0.1,0.2,0.1,0.4,0.2,0.6h159.5c0.1-0.2,0.1-0.4,0.2-0.6h0c0.2-0.5,0.3-1,0.5-1.5c0,0,0-0.1,0.1-0.1c0.2-0.7,0.4-1.3,0.6-2
		c0-0.1,0.1-0.2,0.1-0.3c0.2-0.6,0.4-1.2,0.5-1.9c0-0.1,0.1-0.3,0.1-0.4c0.2-0.7,0.4-1.5,0.6-2.3c0.1-0.5,0.2-1,0.3-1.5
		c0-0.2,0.1-0.3,0.1-0.5C168.1,103.2,168.2,102.9,168.2,102.5"/>
</g>
</svg>
