<?xml version="1.0" encoding="utf-8"?>
<!-- Generator: Adobe Illustrator 22.0.0, SVG Export Plug-In . SVG Version: 6.00 Build 0)  -->
<svg version="1.1" id="Layer_1" xmlns="http://www.w3.org/2000/svg" xmlns:xlink="http://www.w3.org/1999/xlink" x="0px" y="0px"
	 viewBox="0 0 170.1 170.1" style="enable-background:new 0 0 170.1 170.1;" xml:space="preserve">
<style type="text/css">
	.st0{fill:#223C72;}
	.st1{fill:#FFFFFF;}
	.st2{fill:#ED3726;}
</style>
<g>
	<path class="st0" d="M2.5,64.6C13.8,19,59.9-8.8,105.5,2.5c45.6,11.3,73.4,57.4,62.1,103c-11.3,45.6-57.4,73.4-103,62.1
		C19,156.3-8.8,110.2,2.5,64.6"/>
	<path class="st1" d="M145.4,25.1l-34.2,22.8V4.1c-1.9-0.6-3.8-1.1-5.7-1.6c-16-4-32.1-3.1-46.8,1.7v43.7L24.6,25.2
		c-7.8,7.9-14.1,17.3-18.4,28l9,6H4C3.5,61,3,62.8,2.5,64.6c-4,16.2-3.1,32.4,1.8,47.1h11.1l-8.9,5.9c4.3,10.4,10.7,19.9,18.7,27.8
		l33.5-22.3v42.7c1.9,0.6,3.9,1.2,5.9,1.7c16,4,32,3.1,46.5-1.6v-42.8l33.6,22.4c7.9-7.8,14.3-17.2,18.8-27.8l-9.1-6.1h11.4
		c0.7-2,1.3-4.1,1.8-6.2c3.9-15.8,3.1-31.8-1.5-46.2h-11.4l9.2-6.1C159.6,42.7,153.3,33.1,145.4,25.1"/>
	<path class="st2" d="M45.6,59.2L14,38.2c-2.1,3.2-4,6.5-5.7,10l16.5,11H45.6z M155.9,38.1c-2.1-3.2-4.5-6.3-7-9.2L111.2,54v5.2
		h12.9L155.9,38.1z M14.3,132.2c2.1,3.2,4.5,6.2,7,9.1l37.4-24.9v-4.7H45.1L14.3,132.2z M168.8,70.2h-68.5V1.4
		c-10.4-1.9-20.7-1.8-30.6,0v68.7H1.3c-1.9,10.4-1.7,20.7,0.1,30.6h68.2v67.9c10.4,1.9,20.7,1.9,30.6,0.1v-68h68.4
		C170.6,90.4,170.5,80,168.8,70.2 M124.8,111.7l30.9,20.6c2.1-3.2,4-6.5,5.7-10l-15.9-10.6L124.8,111.7z"/>
</g>
</svg>
