<?xml version="1.0" encoding="utf-8"?>
<!-- Generator: Adobe Illustrator 22.0.0, SVG Export Plug-In . SVG Version: 6.00 Build 0)  -->
<svg version="1.1" id="Layer_1" xmlns="http://www.w3.org/2000/svg" xmlns:xlink="http://www.w3.org/1999/xlink" x="0px" y="0px"
	 viewBox="0 0 321 80" style="enable-background:new 0 0 321 80;" xml:space="preserve">
<style type="text/css">
	.st0{fill:#231F20;}
	.st1{fill:url(#SVGID_1_);}
</style>
<path class="st0" d="M-0.1,40.2c0-10.4,8.1-17.9,19.3-17.9c7.3,0,13,3.2,15.5,8.8L27,35.3c-1.9-3.3-4.6-4.8-7.8-4.8
	c-5.1,0-9.1,3.5-9.1,9.6s4,9.6,9.1,9.6c3.2,0,5.9-1.4,7.8-4.8l7.8,4.3c-2.5,5.5-8.2,8.8-15.5,8.8C8,58-0.1,50.6-0.1,40.2z"/>
<path class="st0" d="M40.3,9.7h10v47.8h-10V9.7z"/>
<path class="st0" d="M57.1,40.2c0-10.4,8.1-17.9,19.1-17.9s19,7.4,19,17.9c0,10.4-8,17.8-19,17.8S57.1,50.6,57.1,40.2z M85,40.2
	c0-6-3.8-9.6-8.8-9.6s-8.9,3.6-8.9,9.6s3.9,9.6,8.9,9.6C81.2,49.8,85,46.2,85,40.2z"/>
<path class="st0" d="M136.8,22.8v34.7h-9.5v-4.1c-2.6,3-6.5,4.6-10.8,4.6c-8.7,0-14.8-4.9-14.8-15.6V22.8h10v18.1
	c0,5.8,2.6,8.4,7,8.4c4.6,0,8-3,8-9.3V22.8H136.8z"/>
<path class="st0" d="M181.5,9.7v47.8h-9.6v-4c-2.5,3-6.2,4.5-10.8,4.5c-9.8,0-17.3-7-17.3-17.8c0-10.9,7.5-17.9,17.3-17.9
	c4.2,0,7.9,1.4,10.4,4.2V9.7H181.5z M171.6,40.2c0-6-3.9-9.6-8.8-9.6c-5,0-8.9,3.6-8.9,9.6s3.9,9.6,8.9,9.6
	C167.7,49.8,171.6,46.2,171.6,40.2z"/>
<path class="st0" d="M225.1,22.8l-15.7,36.8C206,68,201.3,70.5,195,70.5c-3.5,0-7.4-1.2-9.7-3.2l3.7-7.2c1.5,1.3,3.7,2.2,5.7,2.2
	c2.8,0,4.3-1.2,5.7-4.3l0.1-0.3l-15-34.9H196l9.7,23.5l9.8-23.5C215.5,22.8,225.1,22.8,225.1,22.8z"/>
<polygon class="st0" points="265.1,16.2 265.1,26.3 270.7,26.3 270.7,21.7 291.5,21.7 271.1,64 276.9,64 297.4,21.7 297.4,16.2 "/>
<linearGradient id="SVGID_1_" gradientUnits="userSpaceOnUse" x1="241.3121" y1="79.8" x2="321.1121" y2="-1.705303e-13">
	<stop  offset="0" style="stop-color:#69C299"/>
	<stop  offset="1" style="stop-color:#4F2D83"/>
</linearGradient>
<path class="st1" d="M241.3,0v79.8h79.8V0H241.3z M317.1,75.8h-71.8V4h71.8V75.8z"/>
</svg>
