<?xml version="1.0" encoding="utf-8"?><svg id="rocketanimation" image-rendering="auto" baseProfile="basic" version="1.1" x="0px" y="0px" width="820" height="686" xmlns="http://www.w3.org/2000/svg" xmlns:xlink="http://www.w3.org/1999/xlink"><defs><g id="cloud" overflow="visible"><path fill="#FFF" fill-opacity="0" stroke="none" d="M91.45 -51.65L-94.55 -51.65 -94.55 54.35 91.45 54.35 91.45 -51.65Z"/><path id="Layer1_0_1_STROKES" stroke="#FFF" stroke-width="6" stroke-linejoin="round" stroke-linecap="square" fill="none" d="M-75.1 41.2Q-78.65 34 -78.65 25.35 -78.65 10.45 -68.1 -.1 -57.55 -10.65 -42.65 -10.65 -32.95 -10.65 -25.05 -6.15 -23.65 -19.6 -13.7 -29.6 -2.05 -41.2 14.35 -41.2 30.8 -41.2 42.4 -29.6 54.05 -17.95 54.05 -1.55 54.05 1.7 53.6 4.75 55.9 4.2 58.4 4.2 66.8 4.2 72.75 10.1 78.65 16.05 78.65 24.45 78.65 32.85 72.75 38.8 72 39.55 71.25 40.2"/></g></defs><g id="Scene-1" overflow="visible"><g id=".__D9.__82.__D8.__AE.__D8.__B0.__D9.__86.__D8.__AB.__D9.__81" transform="matrix(.707 .707 -.707 .707 454.05 363.75)"><animateTransform attributeName="transform" additive="replace" type="translate" repeatCount="indefinite" dur="6.667s" keyTimes="0;.03;.06;.09;.12;.155;.19;.225;.26;.295;.33;.365;.395;.425;.46;.495;.53;.56;.595;.63;.66;.695;.735;.775;.815;.85;.885;.92;.96;.995;1" values="454,363.7;454,357.75;456,362.7;448,364.7;449,362.7;449,367.75;447,369.7;453,370.75;448,370.7;444,371.75;450,369.7;452,371.75;446,371.75;443,371.75;450,370.75;443,366.7;438,371.75;444,370.75;447,368.7;455,365.75;448,364.7;449,362.7;449,369.7;447,369.7;454,370.7;448,371.7;444,371.75;450,369.7;447,371.75;454,363.7;454,363.7"/><animateTransform attributeName="transform" additive="sum" type="rotate" repeatCount="indefinite" dur="6.667s" keyTimes="0;1" values="45,0,0;45,0,0"/><path id="Layer3_0_1_STROKES" stroke="#FFF" stroke-width="7" stroke-linejoin="round" stroke-linecap="round" fill="none" d="M10.1 -403.85Q10.1 -399.8 7.25 -396.95 4.4 -394.1 .35 -394.1 -3.7 -394.1 -6.55 -396.95 -9.4 -399.8 -9.4 -403.85 -9.4 -407.9 -6.55 -410.75 -3.7 -413.6 .35 -413.6 4.4 -413.6 7.25 -410.75 10.1 -407.9 10.1 -403.85Z"/><path id="Layer3_0_2_STROKES" stroke="#FFF" stroke-width="14" stroke-linejoin="round" stroke-linecap="round" fill="none" d="M-38.75 -337.45L-38.75 -376.95Q-38.35 -390.15 -35.9 -400.75 -25.85 -436.2 .4 -459.55 26.65 -436.25 36.7 -400.75 39.15 -390.15 39.55 -376.95L39.55 -337.45Q55 -327.75 72.5 -273.9L39.55 -273.9 .4 -273.9 -38.75 -273.9 -72.45 -273.9Q-54.2 -327.75 -38.75 -337.45L-38.75 -273.9M-29.5 -231.8Q-27.3 -258.6 .4 -261.55 28.1 -258.6 30.3 -231.8 32.45 -206.25 -.15 -170.85 -31.65 -206.25 -29.5 -231.8ZM39.55 -273.9L39.55 -337.45M.4 -273.9L.4 -330.85"/><path id="Layer3_0_3_STROKES" stroke="#FFF" stroke-width="5" stroke-linejoin="round" stroke-linecap="square" fill="none" d="M23.85 -159.1L23.85 170.9M-57.15 -255.1L-57.15 170.9M-20.9 -123.1L-20.9 459.6"/></g><use xlink:href="#cloud" transform="translate(493 89)"><animateTransform attributeName="transform" additive="replace" type="translate" repeatCount="indefinite" dur="6.667s" keyTimes="0;.05;.43;.495;.49999;.5;.55;.93;.995;1" values="493,89;469.95,112.05;277.75,304.25;247,335;247,335;493,89;469.95,112.05;277.75,304.25;247,335;247,335"/><animate attributeName="opacity" repeatCount="indefinite" dur="6.667s" keyTimes="0;.05;.43;.495;.49999;.55;.93;.995;1" values="0;.5;.5;0;0;.5;.5;0;0"/></use><use xlink:href="#cloud" transform="translate(560.95 429.05)"><animateTransform attributeName="transform" additive="replace" type="translate" repeatCount="indefinite" dur="6.667s" keyTimes="0;.18;.245;.24999;.25;.3;.68;.745;.74999;.75;.8;.995;1" values="560.95,429.05;467.75,522.25;437,553;437,553;683,307;659.95,330.05;467.75,522.25;437,553;437,553;683,307;659.95,330.05;560.95,429.05;560.95,429.05"/><animate attributeName="opacity" repeatCount="indefinite" dur="6.667s" keyTimes="0;.18;.245;.24999;.3;.68;.745;.74999;.8;1" values=".5;.5;0;0;.5;.5;0;0;.5;.5"/></use></g></svg>