<?xml version="1.0" encoding="iso-8859-1"?>
<!-- Generator: Adobe Illustrator 19.0.0, SVG Export Plug-In . SVG Version: 6.00 Build 0)  -->
<svg version="1.1" id="Layer_1" xmlns="http://www.w3.org/2000/svg" xmlns:xlink="http://www.w3.org/1999/xlink" x="0px" y="0px"
	 viewBox="0 0 491.54 491.54" style="enable-background:new 0 0 491.54 491.54;" xml:space="preserve">
<path style="fill:#F6C358;" d="M239.25,441.234c0,27.778-53.558,50.296-119.625,50.296S0,469.012,0,441.234V400.09h239.25V441.234z"
	/>
<ellipse style="fill:#FCD462;" cx="119.624" cy="400.087" rx="119.624" ry="50.294"/>
<g>
	<path style="fill:#DC8744;" d="M119.625,359.618c-57.66,0-104.403,18.12-104.403,40.472c0,22.352,46.743,40.472,104.403,40.472
		s104.403-18.12,104.403-40.472C224.028,377.738,177.285,359.618,119.625,359.618z M119.625,436.064
		c-51.252,0-92.802-16.106-92.802-35.975c0-19.868,41.55-35.975,92.802-35.975s92.802,16.106,92.802,35.975
		C212.427,419.958,170.877,436.064,119.625,436.064z"/>
	<path style="fill:#DC8744;" d="M115.802,428.048v-4.924c-15.902-0.629-30.176-3.079-42.807-7.35l12.702-5.868
		c9.742,3.283,19.768,5.237,30.105,5.868v-13.086c-13.112-1.213-22.713-2.81-28.802-4.789c-6.089-1.979-9.133-4.913-9.133-8.802
		c0-3.889,3.498-7.07,10.521-9.546c7.024-2.473,16.157-3.82,27.414-4.046v-3.373h11.13v3.439
		c12.758,0.362,24.823,2.047,36.194,5.061l-11.314,6.206c-7.661-2.113-15.944-3.417-24.88-3.914v12.68h0.524
		c13.339,1.216,23.138,2.857,29.397,4.924c6.273,2.069,9.402,5.072,9.402,9.005c0,3.936-3.597,7.142-10.79,9.612
		c-7.193,2.476-16.695,3.823-28.533,4.048v4.855H115.802z M103.525,384.51c-2.96,1.01-4.432,2.27-4.432,3.777
		c0,1.507,1.161,2.698,3.483,3.573c2.308,0.878,6.726,1.721,13.226,2.531v-11.67C110.577,382.902,106.484,383.497,103.525,384.51z
		 M140.157,414.086c3.243-1.032,4.871-2.336,4.871-3.911c0-1.573-1.274-2.822-3.823-3.744c-2.563-0.922-7.321-1.787-14.274-2.596
		v12.139C132.497,415.752,136.901,415.121,140.157,414.086z"/>
</g>
<path style="fill:#F6C358;" d="M239.25,391.265c0,27.778-53.558,50.296-119.625,50.296S0,419.043,0,391.265v-41.144h239.25V391.265z
	"/>
<ellipse style="fill:#FCD462;" cx="119.624" cy="350.116" rx="119.624" ry="50.294"/>
<g>
	<path style="fill:#DC8744;" d="M119.625,309.649c-57.66,0-104.403,18.12-104.403,40.472c0,22.352,46.743,40.472,104.403,40.472
		s104.403-18.12,104.403-40.472C224.028,327.769,177.285,309.649,119.625,309.649z M119.625,386.095
		c-51.252,0-92.802-16.106-92.802-35.975c0-19.868,41.55-35.975,92.802-35.975s92.802,16.106,92.802,35.975
		C212.427,369.989,170.877,386.095,119.625,386.095z"/>
	<path style="fill:#DC8744;" d="M115.802,378.079v-4.924c-15.902-0.629-30.176-3.079-42.807-7.35l12.702-5.868
		c9.742,3.283,19.768,5.237,30.105,5.868v-13.086c-13.112-1.213-22.713-2.81-28.802-4.789c-6.089-1.979-9.133-4.913-9.133-8.802
		c0-3.889,3.498-7.07,10.521-9.546c7.024-2.473,16.157-3.82,27.414-4.046v-3.373h11.13v3.439
		c12.758,0.362,24.823,2.047,36.194,5.061l-11.314,6.206c-7.661-2.113-15.944-3.417-24.88-3.914v12.68h0.524
		c13.339,1.216,23.138,2.857,29.397,4.924c6.273,2.069,9.402,5.072,9.402,9.005c0,3.936-3.597,7.141-10.79,9.612
		c-7.193,2.476-16.695,3.823-28.533,4.048v4.855H115.802z M103.525,334.541c-2.96,1.01-4.432,2.27-4.432,3.777
		c0,1.507,1.161,2.698,3.483,3.574c2.308,0.878,6.726,1.721,13.226,2.531v-11.67C110.577,332.933,106.484,333.528,103.525,334.541z
		 M140.157,364.117c3.243-1.032,4.871-2.336,4.871-3.911c0-1.573-1.274-2.821-3.823-3.744c-2.563-0.922-7.321-1.787-14.274-2.596
		v12.139C132.497,365.783,136.901,365.152,140.157,364.117z"/>
</g>
<path style="fill:#F6C358;" d="M239.25,341.296c0,27.778-53.558,50.296-119.625,50.296S0,369.074,0,341.296v-41.144h239.25V341.296z
	"/>
<ellipse style="fill:#FCD462;" cx="119.624" cy="300.145" rx="119.624" ry="50.294"/>
<g>
	<path style="fill:#DC8744;" d="M119.625,259.68c-57.66,0-104.403,18.12-104.403,40.472c0,22.352,46.743,40.472,104.403,40.472
		s104.403-18.12,104.403-40.472C224.028,277.8,177.285,259.68,119.625,259.68z M119.625,336.126
		c-51.252,0-92.802-16.106-92.802-35.975c0-19.868,41.55-35.975,92.802-35.975s92.802,16.106,92.802,35.975
		C212.427,320.02,170.877,336.126,119.625,336.126z"/>
	<path style="fill:#DC8744;" d="M115.802,328.11v-4.924c-15.902-0.629-30.176-3.079-42.807-7.35l12.702-5.868
		c9.742,3.283,19.768,5.237,30.105,5.868v-13.086c-13.112-1.213-22.713-2.81-28.802-4.789c-6.089-1.979-9.133-4.913-9.133-8.802
		c0-3.889,3.498-7.07,10.521-9.546c7.024-2.473,16.157-3.82,27.414-4.046v-3.373h11.13v3.439
		c12.758,0.362,24.823,2.047,36.194,5.061l-11.314,6.206c-7.661-2.113-15.944-3.417-24.88-3.914v12.68h0.524
		c13.339,1.216,23.138,2.857,29.397,4.924c6.273,2.069,9.402,5.072,9.402,9.005c0,3.936-3.597,7.142-10.79,9.612
		c-7.193,2.476-16.695,3.823-28.533,4.048v4.855H115.802z M103.525,284.572c-2.96,1.01-4.432,2.27-4.432,3.777
		s1.161,2.698,3.483,3.574c2.308,0.878,6.726,1.721,13.226,2.531v-11.67C110.577,282.964,106.484,283.559,103.525,284.572z
		 M140.157,314.148c3.243-1.032,4.871-2.336,4.871-3.911c0-1.573-1.274-2.821-3.823-3.744c-2.563-0.922-7.321-1.787-14.274-2.596
		v12.139C132.497,315.814,136.901,315.183,140.157,314.148z"/>
</g>
<path style="fill:#F6C358;" d="M239.25,291.327c0,27.778-53.558,50.296-119.625,50.296S0,319.105,0,291.327v-41.144h239.25V291.327z
	"/>
<ellipse style="fill:#FCD462;" cx="119.624" cy="250.184" rx="119.624" ry="50.294"/>
<g>
	<path style="fill:#DC8744;" d="M119.625,209.711c-57.66,0-104.403,18.12-104.403,40.472c0,22.352,46.743,40.472,104.403,40.472
		s104.403-18.12,104.403-40.472C224.028,227.831,177.285,209.711,119.625,209.711z M119.625,286.157
		c-51.252,0-92.802-16.106-92.802-35.975c0-19.868,41.55-35.975,92.802-35.975s92.802,16.106,92.802,35.975
		C212.427,270.051,170.877,286.157,119.625,286.157z"/>
	<path style="fill:#DC8744;" d="M115.802,278.141v-4.924c-15.902-0.629-30.176-3.079-42.807-7.35l12.702-5.868
		c9.742,3.283,19.768,5.237,30.105,5.868V252.78c-13.112-1.213-22.713-2.811-28.802-4.789c-6.089-1.979-9.133-4.913-9.133-8.802
		c0-3.889,3.498-7.07,10.521-9.546c7.024-2.473,16.157-3.821,27.414-4.046v-3.373h11.13v3.439
		c12.758,0.362,24.823,2.047,36.194,5.061l-11.314,6.206c-7.661-2.113-15.944-3.417-24.88-3.914v12.68h0.524
		c13.339,1.216,23.138,2.857,29.397,4.924c6.273,2.069,9.402,5.072,9.402,9.005c0,3.936-3.597,7.142-10.79,9.612
		c-7.193,2.476-16.695,3.823-28.533,4.048v4.855H115.802z M103.525,234.603c-2.96,1.01-4.432,2.27-4.432,3.777
		c0,1.507,1.161,2.698,3.483,3.574c2.308,0.878,6.726,1.721,13.226,2.531v-11.67C110.577,232.994,106.484,233.59,103.525,234.603z
		 M140.157,264.179c3.243-1.032,4.871-2.336,4.871-3.911c0-1.573-1.274-2.821-3.823-3.744c-2.563-0.922-7.321-1.787-14.274-2.596
		v12.139C132.497,265.845,136.901,265.214,140.157,264.179z"/>
</g>
<path style="fill:#F6C358;" d="M239.25,241.358c0,27.778-53.558,50.296-119.625,50.296S0,269.136,0,241.358v-41.144h239.25V241.358z
	"/>
<ellipse style="fill:#FCD462;" cx="119.624" cy="200.202" rx="119.624" ry="50.294"/>
<g>
	<path style="fill:#DC8744;" d="M119.625,159.742c-57.66,0-104.403,18.12-104.403,40.472c0,22.352,46.743,40.472,104.403,40.472
		s104.403-18.12,104.403-40.472C224.028,177.862,177.285,159.742,119.625,159.742z M119.625,236.188
		c-51.252,0-92.802-16.106-92.802-35.975c0-19.868,41.55-35.975,92.802-35.975s92.802,16.106,92.802,35.975
		C212.427,220.082,170.877,236.188,119.625,236.188z"/>
	<path style="fill:#DC8744;" d="M115.802,228.172v-4.924c-15.902-0.629-30.176-3.079-42.807-7.35l12.702-5.868
		c9.742,3.283,19.768,5.237,30.105,5.868v-13.086c-13.112-1.213-22.713-2.81-28.802-4.789c-6.089-1.979-9.133-4.913-9.133-8.802
		s3.498-7.07,10.521-9.546c7.024-2.473,16.157-3.821,27.414-4.046v-3.373h11.13v3.439c12.758,0.362,24.823,2.048,36.194,5.061
		l-11.314,6.206c-7.661-2.113-15.944-3.417-24.88-3.914v12.68h0.524c13.339,1.216,23.138,2.857,29.397,4.924
		c6.273,2.069,9.402,5.072,9.402,9.005c0,3.936-3.597,7.141-10.79,9.612c-7.193,2.476-16.695,3.823-28.533,4.048v4.855H115.802z
		 M103.525,184.634c-2.96,1.01-4.432,2.27-4.432,3.777c0,1.507,1.161,2.698,3.483,3.574c2.308,0.878,6.726,1.721,13.226,2.531
		v-11.67C110.577,183.025,106.484,183.621,103.525,184.634z M140.157,214.21c3.243-1.032,4.871-2.336,4.871-3.911
		c0-1.573-1.274-2.821-3.823-3.744c-2.563-0.922-7.321-1.787-14.274-2.596v12.139C132.497,215.876,136.901,215.245,140.157,214.21z"
		/>
</g>
<path style="fill:#F6C358;" d="M239.25,191.389c0,27.778-53.558,50.296-119.625,50.296S0,219.167,0,191.389v-41.144h239.25V191.389z
	"/>
<ellipse style="fill:#FCD462;" cx="119.624" cy="150.246" rx="119.624" ry="50.294"/>
<g>
	<path style="fill:#DC8744;" d="M119.625,109.773c-57.66,0-104.403,18.12-104.403,40.472c0,22.352,46.743,40.472,104.403,40.472
		s104.403-18.12,104.403-40.472C224.028,127.893,177.285,109.773,119.625,109.773z M119.625,186.219
		c-51.252,0-92.802-16.106-92.802-35.975c0-19.868,41.55-35.975,92.802-35.975s92.802,16.106,92.802,35.975
		C212.427,170.113,170.877,186.219,119.625,186.219z"/>
	<path style="fill:#DC8744;" d="M115.802,178.203v-4.924c-15.902-0.629-30.176-3.079-42.807-7.35l12.702-5.868
		c9.742,3.283,19.768,5.237,30.105,5.868v-13.086c-13.112-1.213-22.713-2.811-28.802-4.789c-6.089-1.979-9.133-4.913-9.133-8.802
		s3.498-7.07,10.521-9.546c7.024-2.473,16.157-3.821,27.414-4.046v-3.373h11.13v3.439c12.758,0.362,24.823,2.047,36.194,5.061
		l-11.314,6.206c-7.661-2.113-15.944-3.417-24.88-3.914v12.68h0.524c13.339,1.216,23.138,2.857,29.397,4.924
		c6.273,2.069,9.402,5.072,9.402,9.005c0,3.936-3.597,7.142-10.79,9.612c-7.193,2.476-16.695,3.823-28.533,4.048v4.855H115.802z
		 M103.525,134.665c-2.96,1.01-4.432,2.27-4.432,3.777c0,1.507,1.161,2.698,3.483,3.573c2.308,0.878,6.726,1.721,13.226,2.531
		v-11.67C110.577,133.056,106.484,133.652,103.525,134.665z M140.157,164.241c3.243-1.032,4.871-2.336,4.871-3.911
		c0-1.573-1.274-2.821-3.823-3.744c-2.563-0.922-7.321-1.787-14.274-2.596v12.139C132.497,165.907,136.901,165.276,140.157,164.241z
		"/>
</g>
<path style="fill:#F6C358;" d="M239.25,141.42c0,27.778-53.558,50.296-119.625,50.296S0,169.198,0,141.42v-41.144h239.25V141.42z"/>
<ellipse style="fill:#FCD462;" cx="119.624" cy="100.275" rx="119.624" ry="50.294"/>
<g>
	<path style="fill:#DC8744;" d="M119.625,59.804c-57.66,0-104.403,18.12-104.403,40.472c0,22.352,46.743,40.472,104.403,40.472
		s104.403-18.12,104.403-40.472C224.028,77.924,177.285,59.804,119.625,59.804z M119.625,136.25
		c-51.252,0-92.802-16.106-92.802-35.975c0-19.868,41.55-35.975,92.802-35.975s92.802,16.106,92.802,35.975
		C212.427,120.144,170.877,136.25,119.625,136.25z"/>
	<path style="fill:#DC8744;" d="M115.802,128.234v-4.924c-15.902-0.629-30.176-3.079-42.807-7.35l12.702-5.868
		c9.742,3.283,19.768,5.237,30.105,5.868v-13.086c-13.112-1.213-22.713-2.81-28.802-4.789c-6.089-1.979-9.133-4.913-9.133-8.802
		s3.498-7.07,10.521-9.546c7.024-2.473,16.157-3.821,27.414-4.046v-3.373h11.13v3.439c12.758,0.362,24.823,2.047,36.194,5.061
		l-11.314,6.206c-7.661-2.113-15.944-3.417-24.88-3.914v12.68h0.524c13.339,1.216,23.138,2.857,29.397,4.924
		c6.273,2.069,9.402,5.072,9.402,9.005c0,3.936-3.597,7.142-10.79,9.612c-7.193,2.476-16.695,3.823-28.533,4.048v4.855H115.802z
		 M103.525,84.696c-2.96,1.01-4.432,2.27-4.432,3.777s1.161,2.698,3.483,3.573c2.308,0.878,6.726,1.721,13.226,2.531v-11.67
		C110.577,83.087,106.484,83.683,103.525,84.696z M140.157,114.272c3.243-1.032,4.871-2.336,4.871-3.911
		c0-1.573-1.274-2.821-3.823-3.744c-2.563-0.922-7.321-1.787-14.274-2.596v12.139C132.497,115.938,136.901,115.306,140.157,114.272z
		"/>
</g>
<path style="fill:#F6C358;" d="M239.25,91.451c0,27.778-53.558,50.296-119.625,50.296S0,119.229,0,91.451V50.307h239.25V91.451z"/>
<ellipse style="fill:#FCD462;" cx="119.624" cy="50.304" rx="119.624" ry="50.294"/>
<g>
	<path style="fill:#DC8744;" d="M119.625,9.835c-57.66,0-104.403,18.12-104.403,40.472c0,22.352,46.743,40.472,104.403,40.472
		s104.403-18.12,104.403-40.472C224.028,27.955,177.285,9.835,119.625,9.835z M119.625,86.281
		c-51.252,0-92.802-16.106-92.802-35.975c0-19.868,41.55-35.975,92.802-35.975s92.802,16.106,92.802,35.975
		C212.427,70.175,170.877,86.281,119.625,86.281z"/>
	<path style="fill:#DC8744;" d="M115.802,78.265v-4.924c-15.902-0.629-30.176-3.079-42.807-7.35l12.702-5.868
		c9.742,3.283,19.768,5.237,30.105,5.868V52.904c-13.112-1.213-22.713-2.81-28.802-4.789c-6.089-1.979-9.133-4.913-9.133-8.802
		s3.498-7.07,10.521-9.546c7.024-2.473,16.157-3.821,27.414-4.046v-3.373h11.13v3.439c12.758,0.362,24.823,2.047,36.194,5.061
		l-11.314,6.206c-7.661-2.113-15.944-3.417-24.88-3.914v12.68h0.524c13.339,1.216,23.138,2.857,29.397,4.924
		c6.273,2.069,9.402,5.072,9.402,9.005c0,3.936-3.597,7.142-10.79,9.612c-7.193,2.476-16.695,3.823-28.533,4.048v4.855H115.802z
		 M103.525,34.727c-2.96,1.01-4.432,2.27-4.432,3.777c0,1.507,1.161,2.698,3.483,3.573c2.308,0.878,6.726,1.721,13.226,2.531v-11.67
		C110.577,33.118,106.484,33.714,103.525,34.727z M140.157,64.303c3.243-1.032,4.871-2.336,4.871-3.911
		c0-1.573-1.274-2.821-3.823-3.744c-2.563-0.922-7.321-1.787-14.274-2.596v12.139C132.497,65.969,136.901,65.337,140.157,64.303z"/>
</g>
<path style="fill:#F6C358;" d="M491.52,441.234c0,27.778-53.558,50.296-119.625,50.296S252.27,469.012,252.27,441.234V400.09h239.25
	V441.234z"/>
<ellipse style="fill:#FCD462;" cx="371.917" cy="400.087" rx="119.624" ry="50.294"/>
<g>
	<path style="fill:#DC8744;" d="M371.895,359.618c-57.66,0-104.403,18.12-104.403,40.472c0,22.352,46.743,40.472,104.403,40.472
		s104.403-18.12,104.403-40.472C476.298,377.738,429.555,359.618,371.895,359.618z M371.895,436.064
		c-51.252,0-92.802-16.106-92.802-35.975c0-19.868,41.55-35.975,92.802-35.975s92.802,16.106,92.802,35.975
		C464.697,419.958,423.147,436.064,371.895,436.064z"/>
	<path style="fill:#DC8744;" d="M368.072,428.048v-4.924c-15.902-0.629-30.176-3.079-42.807-7.35l12.702-5.868
		c9.742,3.283,19.768,5.237,30.105,5.868v-13.086c-13.112-1.213-22.713-2.81-28.802-4.789c-6.089-1.979-9.133-4.913-9.133-8.802
		c0-3.889,3.498-7.07,10.521-9.546c7.023-2.473,16.157-3.82,27.414-4.046v-3.373h11.13v3.439
		c12.758,0.362,24.823,2.047,36.194,5.061l-11.314,6.206c-7.661-2.113-15.944-3.417-24.88-3.914v12.68h0.524
		c13.339,1.216,23.138,2.857,29.397,4.924c6.273,2.069,9.402,5.072,9.402,9.005c0,3.936-3.597,7.142-10.79,9.612
		c-7.193,2.476-16.695,3.823-28.533,4.048v4.855H368.072z M355.795,384.51c-2.96,1.01-4.432,2.27-4.432,3.777
		c0,1.507,1.161,2.698,3.483,3.573c2.308,0.878,6.726,1.721,13.226,2.531v-11.67C362.847,382.902,358.754,383.497,355.795,384.51z
		 M392.427,414.086c3.243-1.032,4.871-2.336,4.871-3.911c0-1.573-1.274-2.822-3.823-3.744c-2.563-0.922-7.321-1.787-14.274-2.596
		v12.139C384.767,415.752,389.171,415.121,392.427,414.086z"/>
</g>
<path style="fill:#F6C358;" d="M491.52,391.265c0,27.778-53.558,50.296-119.625,50.296S252.27,419.043,252.27,391.265v-41.144
	h239.25V391.265z"/>
<ellipse style="fill:#FCD462;" cx="371.917" cy="350.116" rx="119.624" ry="50.294"/>
<g>
	<path style="fill:#DC8744;" d="M371.895,309.649c-57.66,0-104.403,18.12-104.403,40.472c0,22.352,46.743,40.472,104.403,40.472
		s104.403-18.12,104.403-40.472C476.298,327.769,429.555,309.649,371.895,309.649z M371.895,386.095
		c-51.252,0-92.802-16.106-92.802-35.975c0-19.868,41.55-35.975,92.802-35.975s92.802,16.106,92.802,35.975
		C464.697,369.989,423.147,386.095,371.895,386.095z"/>
	<path style="fill:#DC8744;" d="M368.072,378.079v-4.924c-15.902-0.629-30.176-3.079-42.807-7.35l12.702-5.868
		c9.742,3.283,19.768,5.237,30.105,5.868v-13.086c-13.112-1.213-22.713-2.81-28.802-4.789c-6.089-1.979-9.133-4.913-9.133-8.802
		c0-3.889,3.498-7.07,10.521-9.546c7.023-2.473,16.157-3.82,27.414-4.046v-3.373h11.13v3.439
		c12.758,0.362,24.823,2.047,36.194,5.061l-11.314,6.206c-7.661-2.113-15.944-3.417-24.88-3.914v12.68h0.524
		c13.339,1.216,23.138,2.857,29.397,4.924c6.273,2.069,9.402,5.072,9.402,9.005c0,3.936-3.597,7.141-10.79,9.612
		c-7.193,2.476-16.695,3.823-28.533,4.048v4.855H368.072z M355.795,334.541c-2.96,1.01-4.432,2.27-4.432,3.777
		c0,1.507,1.161,2.698,3.483,3.574c2.308,0.878,6.726,1.721,13.226,2.531v-11.67C362.847,332.933,358.754,333.528,355.795,334.541z
		 M392.427,364.117c3.243-1.032,4.871-2.336,4.871-3.911c0-1.573-1.274-2.821-3.823-3.744c-2.563-0.922-7.321-1.787-14.274-2.596
		v12.139C384.767,365.783,389.171,365.152,392.427,364.117z"/>
</g>
<path style="fill:#F6C358;" d="M491.52,341.296c0,27.778-53.558,50.296-119.625,50.296S252.27,369.074,252.27,341.296v-41.144
	h239.25V341.296z"/>
<ellipse style="fill:#FCD462;" cx="371.917" cy="300.145" rx="119.624" ry="50.294"/>
<g>
	<path style="fill:#DC8744;" d="M371.895,259.68c-57.66,0-104.403,18.12-104.403,40.472c0,22.352,46.743,40.472,104.403,40.472
		s104.403-18.12,104.403-40.472C476.298,277.8,429.555,259.68,371.895,259.68z M371.895,336.126
		c-51.252,0-92.802-16.106-92.802-35.975c0-19.868,41.55-35.975,92.802-35.975s92.802,16.106,92.802,35.975
		C464.697,320.02,423.147,336.126,371.895,336.126z"/>
	<path style="fill:#DC8744;" d="M368.072,328.11v-4.924c-15.902-0.629-30.176-3.079-42.807-7.35l12.702-5.868
		c9.742,3.283,19.768,5.237,30.105,5.868v-13.086c-13.112-1.213-22.713-2.81-28.802-4.789c-6.089-1.979-9.133-4.913-9.133-8.802
		c0-3.889,3.498-7.07,10.521-9.546c7.023-2.473,16.157-3.82,27.414-4.046v-3.373h11.13v3.439
		c12.758,0.362,24.823,2.047,36.194,5.061l-11.314,6.206c-7.661-2.113-15.944-3.417-24.88-3.914v12.68h0.524
		c13.339,1.216,23.138,2.857,29.397,4.924c6.273,2.069,9.402,5.072,9.402,9.005c0,3.936-3.597,7.142-10.79,9.612
		c-7.193,2.476-16.695,3.823-28.533,4.048v4.855H368.072z M355.795,284.572c-2.96,1.01-4.432,2.27-4.432,3.777
		s1.161,2.698,3.483,3.574c2.308,0.878,6.726,1.721,13.226,2.531v-11.67C362.847,282.964,358.754,283.559,355.795,284.572z
		 M392.427,314.148c3.243-1.032,4.871-2.336,4.871-3.911c0-1.573-1.274-2.821-3.823-3.744c-2.563-0.922-7.321-1.787-14.274-2.596
		v12.139C384.767,315.814,389.171,315.183,392.427,314.148z"/>
</g>
<path style="fill:#F6C358;" d="M491.52,291.327c0,27.778-53.558,50.296-119.625,50.296S252.27,319.105,252.27,291.327v-41.144
	h239.25V291.327z"/>
<ellipse style="fill:#FCD462;" cx="371.917" cy="250.184" rx="119.624" ry="50.294"/>
<g>
	<path style="fill:#DC8744;" d="M371.895,209.711c-57.66,0-104.403,18.12-104.403,40.472c0,22.352,46.743,40.472,104.403,40.472
		s104.403-18.12,104.403-40.472C476.298,227.831,429.555,209.711,371.895,209.711z M371.895,286.157
		c-51.252,0-92.802-16.106-92.802-35.975c0-19.868,41.55-35.975,92.802-35.975s92.802,16.106,92.802,35.975
		C464.697,270.051,423.147,286.157,371.895,286.157z"/>
	<path style="fill:#DC8744;" d="M368.072,278.141v-4.924c-15.902-0.629-30.176-3.079-42.807-7.35l12.702-5.868
		c9.742,3.283,19.768,5.237,30.105,5.868V252.78c-13.112-1.213-22.713-2.811-28.802-4.789c-6.089-1.979-9.133-4.913-9.133-8.802
		c0-3.889,3.498-7.07,10.521-9.546c7.023-2.473,16.157-3.821,27.414-4.046v-3.373h11.13v3.439
		c12.758,0.362,24.823,2.047,36.194,5.061l-11.314,6.206c-7.661-2.113-15.944-3.417-24.88-3.914v12.68h0.524
		c13.339,1.216,23.138,2.857,29.397,4.924c6.273,2.069,9.402,5.072,9.402,9.005c0,3.936-3.597,7.142-10.79,9.612
		c-7.193,2.476-16.695,3.823-28.533,4.048v4.855H368.072z M355.795,234.603c-2.96,1.01-4.432,2.27-4.432,3.777
		c0,1.507,1.161,2.698,3.483,3.574c2.308,0.878,6.726,1.721,13.226,2.531v-11.67C362.847,232.994,358.754,233.59,355.795,234.603z
		 M392.427,264.179c3.243-1.032,4.871-2.336,4.871-3.911c0-1.573-1.274-2.821-3.823-3.744c-2.563-0.922-7.321-1.787-14.274-2.596
		v12.139C384.767,265.845,389.171,265.214,392.427,264.179z"/>
</g>
<path style="fill:#F6C358;" d="M491.52,241.358c0,27.778-53.558,50.296-119.625,50.296S252.27,269.136,252.27,241.358v-41.144
	h239.25V241.358z"/>
<ellipse style="fill:#FCD462;" cx="371.917" cy="200.202" rx="119.624" ry="50.294"/>
<g>
	<path style="fill:#DC8744;" d="M371.895,159.742c-57.66,0-104.403,18.12-104.403,40.472c0,22.352,46.743,40.472,104.403,40.472
		s104.403-18.12,104.403-40.472C476.298,177.862,429.555,159.742,371.895,159.742z M371.895,236.188
		c-51.252,0-92.802-16.106-92.802-35.975c0-19.868,41.55-35.975,92.802-35.975s92.802,16.106,92.802,35.975
		C464.697,220.082,423.147,236.188,371.895,236.188z"/>
	<path style="fill:#DC8744;" d="M368.072,228.172v-4.924c-15.902-0.629-30.176-3.079-42.807-7.35l12.702-5.868
		c9.742,3.283,19.768,5.237,30.105,5.868v-13.086c-13.112-1.213-22.713-2.81-28.802-4.789c-6.089-1.979-9.133-4.913-9.133-8.802
		s3.498-7.07,10.521-9.546c7.023-2.473,16.157-3.821,27.414-4.046v-3.373h11.13v3.439c12.758,0.362,24.823,2.048,36.194,5.061
		l-11.314,6.206c-7.661-2.113-15.944-3.417-24.88-3.914v12.68h0.524c13.339,1.216,23.138,2.857,29.397,4.924
		c6.273,2.069,9.402,5.072,9.402,9.005c0,3.936-3.597,7.141-10.79,9.612c-7.193,2.476-16.695,3.823-28.533,4.048v4.855H368.072z
		 M355.795,184.634c-2.96,1.01-4.432,2.27-4.432,3.777c0,1.507,1.161,2.698,3.483,3.574c2.308,0.878,6.726,1.721,13.226,2.531
		v-11.67C362.847,183.025,358.754,183.621,355.795,184.634z M392.427,214.21c3.243-1.032,4.871-2.336,4.871-3.911
		c0-1.573-1.274-2.821-3.823-3.744c-2.563-0.922-7.321-1.787-14.274-2.596v12.139C384.767,215.876,389.171,215.245,392.427,214.21z"
		/>
</g>
<circle style="fill:#FCD462;" cx="160.051" cy="359.844" r="131.681"/>
<g>
	<path style="fill:#DC8744;" d="M160.032,244.928c-63.47,0-114.923,51.453-114.923,114.923c0,63.47,51.453,114.923,114.923,114.923
		s114.923-51.453,114.923-114.923C274.955,296.381,223.502,244.928,160.032,244.928z M160.032,462.004
		c-56.417,0-102.153-45.736-102.153-102.153c0-56.418,45.736-102.153,102.153-102.153s102.153,45.736,102.153,102.153
		C262.186,416.268,216.449,462.004,160.032,462.004z"/>
	<path style="fill:#DC8744;" d="M155.824,439.24v-13.982c-17.504-1.785-33.216-8.744-47.12-20.871l13.982-16.663
		c10.724,9.321,21.76,14.87,33.138,16.663v-37.16c-14.434-3.445-25.002-7.981-31.704-13.6c-6.702-5.619-10.054-13.951-10.054-24.994
		s3.85-20.076,11.581-27.106c7.731-7.022,17.785-10.849,30.177-11.488v-9.578h12.252v9.765c14.044,1.029,27.324,5.814,39.841,14.371
		l-12.454,17.621c-8.433-6.001-17.551-9.703-27.387-11.114v36.006h0.577c14.683,3.453,25.469,8.113,32.359,13.982
		c6.905,5.876,10.35,14.403,10.35,25.571c0,11.176-3.959,20.279-11.877,27.293c-7.918,7.03-18.377,10.857-31.408,11.496v13.787
		H155.824z M142.31,315.611c-3.258,2.868-4.879,6.445-4.879,10.724s1.278,7.661,3.834,10.147c2.541,2.494,7.404,4.887,14.558,7.186
		v-33.138C150.072,311.044,145.568,312.735,142.31,315.611z M182.634,399.594c3.569-2.93,5.362-6.632,5.362-11.106
		c0-4.466-1.403-8.012-4.209-10.63c-2.821-2.619-8.059-5.074-15.712-7.373v34.471C174.201,404.325,179.049,402.533,182.634,399.594z
		"/>
</g>
<g>
</g>
<g>
</g>
<g>
</g>
<g>
</g>
<g>
</g>
<g>
</g>
<g>
</g>
<g>
</g>
<g>
</g>
<g>
</g>
<g>
</g>
<g>
</g>
<g>
</g>
<g>
</g>
<g>
</g>
</svg>
