<?xml version="1.0" encoding="iso-8859-1"?>
<!-- Generator: Adobe Illustrator 19.0.0, SVG Export Plug-In . SVG Version: 6.00 Build 0)  -->
<svg version="1.1" id="Layer_1" xmlns="http://www.w3.org/2000/svg" xmlns:xlink="http://www.w3.org/1999/xlink" x="0px" y="0px"
	 viewBox="0 0 491.52 491.52" style="enable-background:new 0 0 491.52 491.52;" xml:space="preserve">
<path style="fill:#64798A;" d="M410.916,42.316H80.604c-10.869,0-19.681,8.811-19.681,19.681v409.842
	c0,10.869,8.812,19.681,19.681,19.681h330.312c10.869,0,19.681-8.811,19.681-19.681V61.997
	C430.597,51.128,421.785,42.316,410.916,42.316z"/>
<rect x="82.586" y="68.178" style="fill:#EBF0F3;" width="326.364" height="402.586"/>
<rect x="82.586" y="58.307" style="fill:#FFFFFF;" width="326.364" height="402.586"/>
<rect x="143.821" y="42.317" style="fill:#3A556A;" width="203.904" height="15.99"/>
<rect x="143.821" y="58.307" style="fill:#E1E6E9;" width="203.904" height="35.144"/>
<path style="fill:#DC8744;" d="M325.086,29.252h-49.278C275.328,13.026,262.1,0,245.761,0c-16.344,0-29.569,13.026-30.049,29.252
	h-49.278c-4.513,0-8.169,3.656-8.169,8.168v41.57h174.991V37.42C333.255,32.908,329.599,29.252,325.086,29.252z"/>
<rect x="104.038" y="213.914" style="fill:#E56353;" width="31.181" height="43.039"/>
<rect x="146.048" y="165.325" style="fill:#27A2DB;" width="31.181" height="91.633"/>
<rect x="188.063" y="116.198" style="fill:#44C4A1;" width="31.181" height="140.754"/>
<rect x="230.072" y="182.098" style="fill:#FCD462;" width="31.181" height="74.854"/>
<rect x="104.038" y="243.446" style="fill:#D15241;" width="31.181" height="13.512"/>
<rect x="146.048" y="243.446" style="fill:#2D93BA;" width="31.181" height="13.512"/>
<rect x="188.063" y="243.446" style="fill:#3EA69B;" width="31.181" height="13.512"/>
<rect x="230.072" y="243.446" style="fill:#F6C358;" width="31.181" height="13.512"/>
<g>
	<rect x="104.038" y="278.989" style="fill:#D5D6DB;" width="283.443" height="9.636"/>
	<rect x="291.425" y="126.828" style="fill:#D5D6DB;" width="96.046" height="9.636"/>
	<rect x="291.425" y="164.864" style="fill:#D5D6DB;" width="96.046" height="9.636"/>
	<rect x="291.425" y="202.921" style="fill:#D5D6DB;" width="96.046" height="9.636"/>
	<rect x="291.425" y="240.947" style="fill:#D5D6DB;" width="96.046" height="9.636"/>
	<rect x="104.038" y="317.056" style="fill:#D5D6DB;" width="283.443" height="9.636"/>
	<rect x="104.038" y="354.099" style="fill:#D5D6DB;" width="283.443" height="95.365"/>
</g>
<rect x="104.038" y="350.208" style="fill:#EBF0F3;" width="283.443" height="95.365"/>
<path style="fill:#44C4A1;" d="M109.251,442.96c-0.619,0-1.248-0.215-1.752-0.65c-1.122-0.965-1.248-2.664-0.283-3.786
	l36.091-41.933c0.839-0.975,2.234-1.217,3.356-0.587l39.982,22.519l35.357-36.6c0.85-0.881,2.203-1.086,3.293-0.451l42.625,25.005
	l33.039-36.474c0.818-0.913,2.161-1.143,3.22-0.582l38.346,19.713l33.06-28.392c1.143-0.96,2.832-0.839,3.786,0.283
	c0.965,1.128,0.839,2.821-0.283,3.786l-34.434,29.572c-0.839,0.713-2.003,0.844-2.979,0.351l-38.115-19.598l-33.123,36.563
	c-0.85,0.944-2.245,1.148-3.356,0.514l-42.688-25.041l-35.325,36.573c-0.839,0.871-2.171,1.07-3.251,0.472l-39.877-22.456
	l-34.654,40.265C110.751,442.645,110.006,442.96,109.251,442.96z"/>
<path style="fill:#E56353;" d="M109.251,442.96c-1.017,0-1.993-0.582-2.444-1.573c-0.619-1.353-0.021-2.942,1.332-3.556
	l44.272-20.112c0.682-0.32,1.447-0.325,2.15-0.031l31.581,13.2l31.833-16.944c0.608-0.325,1.301-0.399,1.972-0.22l42.531,11.674
	l39.101-23.389c0.608-0.362,1.332-0.461,1.993-0.309l47.355,11.296l13.299-9.167c1.217-0.829,2.895-0.53,3.734,0.687
	c0.839,1.222,0.535,2.895-0.692,3.739l-14.285,9.843c-0.629,0.43-1.426,0.566-2.14,0.399l-47.45-11.322l-39.143,23.421
	c-0.629,0.372-1.374,0.477-2.087,0.288l-42.615-11.695l-32.011,17.039c-0.703,0.388-1.552,0.414-2.297,0.105l-31.675-13.242
	l-43.202,19.629C110.006,442.881,109.628,442.96,109.251,442.96z"/>
<g>
</g>
<g>
</g>
<g>
</g>
<g>
</g>
<g>
</g>
<g>
</g>
<g>
</g>
<g>
</g>
<g>
</g>
<g>
</g>
<g>
</g>
<g>
</g>
<g>
</g>
<g>
</g>
<g>
</g>
</svg>
