<?xml version="1.0" encoding="iso-8859-1"?>
<!-- Generator: Adobe Illustrator 19.0.0, SVG Export Plug-In . SVG Version: 6.00 Build 0)  -->
<svg version="1.1" id="Layer_1" xmlns="http://www.w3.org/2000/svg" xmlns:xlink="http://www.w3.org/1999/xlink" x="0px" y="0px"
	 viewBox="0 0 491.52 491.52" style="enable-background:new 0 0 491.52 491.52;" xml:space="preserve">
<path style="fill:#E1E6E9;" d="M478.671,3.52H12.85C5.753,3.52,0,9.272,0,16.369v393.4c0,7.097,5.753,12.849,12.85,12.849h465.821
	c7.097,0,12.849-5.752,12.849-12.849v-393.4C491.52,9.272,485.769,3.52,478.671,3.52z"/>
<path style="fill:#64798A;" d="M428.492,384.637H63.028c-13.815,0-25.047-11.236-25.047-25.043V66.545
	c0-13.807,11.232-25.043,25.047-25.043h365.463c13.815,0,25.047,11.236,25.047,25.043v293.049
	C453.539,373.4,442.307,384.637,428.492,384.637z M63.028,54.907c-6.423,0-11.642,5.219-11.642,11.638v293.049
	c0,6.419,5.219,11.638,11.642,11.638h365.463c6.423,0,11.642-5.219,11.642-11.638V66.545c0-6.419-5.219-11.638-11.642-11.638H63.028
	z"/>
<path style="fill:#3A556A;" d="M20.876,422.618v56.717c0,4.786,3.879,8.666,8.665,8.666h37.565c1.979,0,3.899-0.677,5.439-1.919
	l28.495-22.972c1.54-1.242,3.459-1.919,5.438-1.919h278.565c1.977,0,3.897,0.677,5.437,1.919l28.495,22.972
	c1.54,1.242,3.46,1.919,5.439,1.919h37.564c4.787,0,8.666-3.88,8.666-8.666v-56.717H20.876z"/>
<g>
	<path style="fill:#2F4859;" d="M45.452,81.163c-6.85,0-12.404,5.553-12.404,12.404v57.478c0,6.85,5.554,12.404,12.404,12.404
		c6.851,0,12.404-5.553,12.404-12.404V93.567C57.855,86.716,52.303,81.163,45.452,81.163z"/>
	<path style="fill:#2F4859;" d="M45.452,262.69c-6.85,0-12.404,5.553-12.404,12.404v57.478c0,6.85,5.554,12.404,12.404,12.404
		c6.851,0,12.404-5.553,12.404-12.404v-57.478C57.855,268.244,52.303,262.69,45.452,262.69z"/>
</g>
<rect x="316.892" y="132.05" style="fill:#44C4A1;" width="103.532" height="45.988"/>
<rect x="316.892" y="172.283" style="fill:#3EA69B;" width="103.532" height="5.755"/>
<g>
	<path style="fill:#64798A;" d="M343.969,202.839h-24.825c-1.243,0-2.25-1.007-2.25-2.25v-8.858c0-1.243,1.007-2.25,2.25-2.25
		h24.825c1.243,0,2.25,1.007,2.25,2.25v8.858C346.219,201.831,345.212,202.839,343.969,202.839z"/>
	<path style="fill:#64798A;" d="M381.073,202.839h-24.825c-1.243,0-2.25-1.007-2.25-2.25v-8.858c0-1.243,1.007-2.25,2.25-2.25
		h24.825c1.243,0,2.25,1.007,2.25,2.25v8.858C383.323,201.831,382.316,202.839,381.073,202.839z"/>
	<path style="fill:#64798A;" d="M418.177,202.839h-24.825c-1.243,0-2.25-1.007-2.25-2.25v-8.858c0-1.243,1.007-2.25,2.25-2.25
		h24.825c1.243,0,2.25,1.007,2.25,2.25v8.858C420.427,201.831,419.419,202.839,418.177,202.839z"/>
	<path style="fill:#64798A;" d="M343.969,225.651h-24.825c-1.243,0-2.25-1.007-2.25-2.25v-8.858c0-1.243,1.007-2.25,2.25-2.25
		h24.825c1.243,0,2.25,1.007,2.25,2.25v8.858C346.219,224.644,345.212,225.651,343.969,225.651z"/>
	<path style="fill:#64798A;" d="M381.073,225.651h-24.825c-1.243,0-2.25-1.007-2.25-2.25v-8.858c0-1.243,1.007-2.25,2.25-2.25
		h24.825c1.243,0,2.25,1.007,2.25,2.25v8.858C383.323,224.644,382.316,225.651,381.073,225.651z"/>
	<path style="fill:#64798A;" d="M418.177,225.651h-24.825c-1.243,0-2.25-1.007-2.25-2.25v-8.858c0-1.243,1.007-2.25,2.25-2.25
		h24.825c1.243,0,2.25,1.007,2.25,2.25v8.858C420.427,224.644,419.419,225.651,418.177,225.651z"/>
	<path style="fill:#64798A;" d="M343.969,248.464h-24.825c-1.243,0-2.25-1.007-2.25-2.25v-8.858c0-1.243,1.007-2.25,2.25-2.25
		h24.825c1.243,0,2.25,1.007,2.25,2.25v8.858C346.219,247.457,345.212,248.464,343.969,248.464z"/>
	<path style="fill:#64798A;" d="M381.073,248.464h-24.825c-1.243,0-2.25-1.007-2.25-2.25v-8.858c0-1.243,1.007-2.25,2.25-2.25
		h24.825c1.243,0,2.25,1.007,2.25,2.25v8.858C383.323,247.457,382.316,248.464,381.073,248.464z"/>
	<path style="fill:#64798A;" d="M418.177,248.464h-24.825c-1.243,0-2.25-1.007-2.25-2.25v-8.858c0-1.243,1.007-2.25,2.25-2.25
		h24.825c1.243,0,2.25,1.007,2.25,2.25v8.858C420.427,247.457,419.419,248.464,418.177,248.464z"/>
	<path style="fill:#64798A;" d="M343.969,271.277h-24.825c-1.243,0-2.25-1.007-2.25-2.25v-8.858c0-1.243,1.007-2.25,2.25-2.25
		h24.825c1.243,0,2.25,1.007,2.25,2.25v8.858C346.219,270.27,345.212,271.277,343.969,271.277z"/>
	<path style="fill:#64798A;" d="M381.073,271.277h-24.825c-1.243,0-2.25-1.007-2.25-2.25v-8.858c0-1.243,1.007-2.25,2.25-2.25
		h24.825c1.243,0,2.25,1.007,2.25,2.25v8.858C383.323,270.27,382.316,271.277,381.073,271.277z"/>
	<path style="fill:#64798A;" d="M418.177,271.277h-24.825c-1.243,0-2.25-1.007-2.25-2.25v-8.858c0-1.243,1.007-2.25,2.25-2.25
		h24.825c1.243,0,2.25,1.007,2.25,2.25v8.858C420.427,270.27,419.42,271.277,418.177,271.277z"/>
</g>
<path style="fill:#27A2DB;" d="M343.969,294.09h-24.825c-1.243,0-2.25-1.007-2.25-2.25v-8.858c0-1.243,1.007-2.25,2.25-2.25h24.825
	c1.243,0,2.25,1.007,2.25,2.25v8.858C346.219,293.082,345.212,294.09,343.969,294.09z"/>
<path style="fill:#44C4A1;" d="M381.073,294.09h-24.825c-1.243,0-2.25-1.007-2.25-2.25v-8.858c0-1.243,1.007-2.25,2.25-2.25h24.825
	c1.243,0,2.25,1.007,2.25,2.25v8.858C383.323,293.082,382.316,294.09,381.073,294.09z"/>
<path style="fill:#E56353;" d="M418.177,294.09h-24.825c-1.243,0-2.25-1.007-2.25-2.25v-8.858c0-1.243,1.007-2.25,2.25-2.25h24.825
	c1.243,0,2.25,1.007,2.25,2.25v8.858C420.427,293.082,419.419,294.09,418.177,294.09z"/>
<path style="fill:#64798A;" d="M265.047,242.079l-6.578-3.798c3.679-7.645,5.801-16.174,5.801-25.211
	c0-9.037-2.123-17.567-5.801-25.211l6.578-3.798c2.138-1.235,2.871-3.967,1.632-6.105c-1.231-2.151-3.971-2.871-6.1-1.636
	l-6.548,3.781c-9.74-14.186-25.577-23.829-43.704-25.211v-7.579c0-2.47-1.999-4.468-4.468-4.468s-4.468,1.999-4.468,4.468v7.579
	c-18.122,1.382-33.956,11.025-43.695,25.21l-6.548-3.78c-2.138-1.222-4.879-0.506-6.1,1.636c-1.239,2.138-0.506,4.87,1.632,6.105
	l6.578,3.798c-3.679,7.645-5.801,16.174-5.801,25.211c0,9.037,2.123,17.567,5.801,25.211l-6.578,3.798
	c-2.138,1.235-2.871,3.967-1.632,6.105c0.82,1.436,2.33,2.234,3.866,2.234c0.759,0,1.527-0.192,2.234-0.598l6.548-3.78
	c9.74,14.186,25.573,23.828,43.695,25.21v7.579c0,2.47,1.999,4.468,4.468,4.468s4.468-1.999,4.468-4.468v-7.579
	c18.127-1.382,33.964-11.025,43.704-25.211l6.548,3.781c0.707,0.406,1.475,0.598,2.234,0.598c1.536,0,3.046-0.799,3.866-2.234
	C267.919,246.046,267.185,243.314,265.047,242.079z M255.334,213.07c0,7.41-1.684,14.419-4.617,20.736l-31.669-18.284
	c0.148-0.797,0.247-1.612,0.247-2.452c0-0.84-0.098-1.655-0.247-2.452l31.669-18.284C253.649,198.65,255.334,205.66,255.334,213.07z
	 M246.247,184.594l-31.702,18.303c-1.237-1.057-2.653-1.888-4.217-2.443v-36.628C225.153,165.161,238.091,173.063,246.247,184.594z
	 M201.391,163.825v36.63c-1.562,0.555-2.976,1.385-4.211,2.44l-31.702-18.303C173.633,173.063,186.569,165.161,201.391,163.825z
	 M156.393,213.07c0-7.41,1.684-14.419,4.617-20.736l31.665,18.282c-0.146,0.798-0.247,1.613-0.247,2.454s0.1,1.656,0.247,2.454
	l-31.665,18.282C158.077,227.489,156.393,220.48,156.393,213.07z M165.478,241.546l31.702-18.303
	c1.237,1.055,2.649,1.885,4.211,2.44v36.631C186.569,260.978,173.633,253.076,165.478,241.546z M210.327,262.314v-36.629
	c1.564-0.554,2.98-1.385,4.217-2.443l31.702,18.303C238.091,253.076,225.153,260.978,210.327,262.314z"/>
<g>
</g>
<g>
</g>
<g>
</g>
<g>
</g>
<g>
</g>
<g>
</g>
<g>
</g>
<g>
</g>
<g>
</g>
<g>
</g>
<g>
</g>
<g>
</g>
<g>
</g>
<g>
</g>
<g>
</g>
</svg>
