<?xml version="1.0" encoding="iso-8859-1"?>
<!-- Generator: Adobe Illustrator 19.0.0, SVG Export Plug-In . SVG Version: 6.00 Build 0)  -->
<svg version="1.1" id="Layer_1" xmlns="http://www.w3.org/2000/svg" xmlns:xlink="http://www.w3.org/1999/xlink" x="0px" y="0px"
	 viewBox="0 0 491.52 491.52" style="enable-background:new 0 0 491.52 491.52;" xml:space="preserve">
<rect x="287.178" y="24.003" style="fill:#3EA69B;" width="204.339" height="426.291"/>
<path style="fill:#44C4A1;" d="M317.145,39.503h144.419c0,8.483,6.877,15.36,15.36,15.36v364.548c-8.483,0-15.36,6.877-15.36,15.36
	H317.145c0-8.483-6.877-15.36-15.36-15.36V54.863C310.268,54.863,317.145,47.986,317.145,39.503z"/>
<g>
	<ellipse style="fill:#3EA69B;" cx="389.379" cy="237.158" rx="69.704" ry="58.465"/>
	<ellipse style="fill:#3EA69B;" cx="389.379" cy="402.739" rx="12.457" ry="13.23"/>
	<ellipse style="fill:#3EA69B;" cx="389.379" cy="71.542" rx="12.457" ry="13.23"/>
</g>
<path style="fill:#44C4A1;" d="M333.22,233.977h9.886c1.262-13.142,6.183-24.937,14.757-35.376l11.782,10.497
	c-6.591,8.051-10.514,16.336-11.782,24.879h26.275c2.436-10.836,5.643-18.77,9.616-23.802c3.973-5.032,9.864-7.548,17.673-7.548
	c7.809,0,14.195,2.89,19.166,8.695c4.965,5.804,7.671,13.352,8.123,22.655h6.773v9.198h-6.905
	c-0.727,10.544-4.111,20.514-10.162,29.911l-12.46-9.35c4.243-6.331,6.861-13.177,7.858-20.561h-25.459v0.433
	c-2.441,11.023-5.737,19.121-9.886,24.294c-4.155,5.184-10.184,7.77-18.08,7.77c-7.902,0-14.339-2.972-19.298-8.917
	c-4.971-5.945-7.676-13.797-8.128-23.58h-9.748V233.977z M420.635,223.831c-2.028-2.446-4.557-3.663-7.583-3.663
	c-3.025,0-5.417,0.96-7.175,2.879c-1.763,1.907-3.455,5.559-5.081,10.93h23.431C423.864,229.659,422.668,226.277,420.635,223.831z
	 M361.252,254.105c2.072,2.68,4.69,4.026,7.853,4.026c3.158,0,5.665-1.053,7.516-3.16c1.852-2.118,3.587-6.05,5.213-11.796h-24.374
	C357.907,247.774,359.175,251.414,361.252,254.105z"/>
<path style="fill:#E1E6E9;" d="M344.104,17.246H97.546c-14.773,0-26.749,11.972-26.749,26.739v420.796
	c0,14.768,11.976,26.739,26.749,26.739h246.557c14.774,0,26.749-11.971,26.749-26.739V43.985
	C370.853,29.218,358.878,17.246,344.104,17.246z"/>
<path style="fill:#EBF0F3;" d="M344.104,0H97.546C82.773,0,70.797,11.972,70.797,26.739v420.796
	c0,14.768,11.976,26.739,26.749,26.739h246.557c14.774,0,26.749-11.971,26.749-26.739V26.739C370.853,11.972,358.878,0,344.104,0z"
	/>
<path style="fill:#64798A;" d="M97.543,403.439c-0.48,0-0.868-0.329-0.868-0.736V45.7c0-0.407,0.388-0.739,0.868-0.739h246.563
	c0.48,0,0.868,0.332,0.868,0.739v357.003c0,0.407-0.388,0.736-0.868,0.736H97.543z"/>
<path style="fill:#3A556A;" d="M220.825,463.877c-13.15,0-23.849-10.695-23.849-23.844c0-13.149,10.699-23.844,23.849-23.844
	c13.15,0,23.849,10.695,23.849,23.844C244.674,453.183,233.975,463.877,220.825,463.877z M220.825,424.812
	c-8.391,0-15.223,6.829-15.223,15.221c0,8.392,6.832,15.221,15.223,15.221c8.391,0,15.223-6.829,15.223-15.221
	C236.048,431.642,229.216,424.812,220.825,424.812z"/>
<path style="fill:#64798A;" d="M260.955,28.465h-80.26c-2.06,0-3.73-1.67-3.73-3.73v-5.562c0-2.06,1.67-3.73,3.73-3.73h80.26
	c2.06,0,3.73,1.67,3.73,3.73v5.562C264.685,26.795,263.015,28.465,260.955,28.465z"/>
<path style="fill:#27A2DB;" d="M261.263,132.549H10.915c-6.026,0-10.912,4.878-10.912,10.896v157.765
	c0,6.018,4.886,10.896,10.912,10.896h250.348c6.027,0,10.912-4.878,10.912-10.896V143.445
	C272.175,137.427,267.29,132.549,261.263,132.549z"/>
<g>
	<path style="fill:#2D93BA;" d="M253.992,243.621c0.277-0.022,0.649-0.27,0.882-0.046c-0.168,0.4-0.471,0.788-0.882,0.975
		c-0.193,0.085-0.446,0.054-0.649,0.139c-0.385,0.158-0.589,0.56-0.926,0.835c-0.32,0.259-0.74,0.48-1.068,0.696
		c-0.315,0.205-0.773,0.625-1.159,0.323c0.03-0.542,0.608-0.536,0.744-0.974c-0.002-0.324-0.289-0.361-0.279-0.696
		c0.643-0.563,1.653-0.968,1.807-2.132c0.07-0.515-0.349-1.622,0.279-1.67c0.739-0.056,0.322,0.743,0.372,1.159
		c0.019,0.169,0.192,0.283,0.276,0.511C253.543,243.147,253.53,243.517,253.992,243.621z"/>
	<path style="fill:#2D93BA;" d="M249.495,246.403c-0.258,0.774-1.385,1.179-2.133,1.67c-0.228,0.151-0.416,0.494-0.696,0.602
		c-0.362,0.144-0.773,0.097-1.158,0.279c-0.613,0.288-1.073,0.851-1.623,1.206c-0.539,0.347-1.326,0.834-1.948,0.881
		c-0.686,0.053-1.953-0.389-1.112-1.02c0.364-0.272,1.137-0.592,1.53-0.787c1.318-0.662,3.173-1.107,4.266-1.903
		c0.617-0.449,1.176-0.925,1.763-1.298C248.675,245.846,249.169,246.348,249.495,246.403z"/>
	<path style="fill:#2D93BA;" d="M241.473,215.383c0.149-0.04,0.144,0.072,0.233,0.092c-0.056,0.663-0.453,1.096-1.299,1.021
		c-0.378-0.035-1.039-0.319-1.065-0.509C239.246,215.32,241.049,215.731,241.473,215.383z"/>
	<path style="fill:#2D93BA;" d="M239.201,218.536c0.335,0.095,1.824,1.149,1.344,1.622c-0.26,0.261-0.595-0.138-1.018-0.231
		c-0.568-0.124-1.003,0.027-1.391-0.279c-0.441-0.345-0.548-1.098-1.021-1.53c-0.239-0.218-0.871-0.511-1.297-0.464
		c-0.737,0.08-0.73,0.924-1.391,1.299c-0.634-0.068-1.008,0.116-1.485-0.047c-0.501-0.171-0.753-0.82-1.206-0.879
		c-0.471-0.064-1.586,0.759-1.761,0.046c-0.141-0.577,0.778-0.767,0.834-1.159c0.06-0.403-0.361-1.029-0.556-1.206
		c-0.194-0.175-0.467-0.19-0.696-0.324c-0.236-0.142-0.42-0.413-0.696-0.556c-0.971-0.507-2.454-0.301-2.828-1.113
		c-0.066-0.144,0.036-0.302-0.047-0.509c-0.101-0.254-0.474-0.336-0.603-0.556c-0.329-0.566-0.098-1.401,0.464-1.485
		c0.507-0.075,1.507,0.551,1.623,0.929c0.062,0.198-0.042,0.42,0,0.649c0.053,0.274,0.462,0.944,0.835,0.973
		c0.48,0.04,0.764-0.702,1.205-0.973c0.306-0.187,0.805-0.403,1.207-0.371c0.394,0.03,0.658,0.341,1.111,0.509
		c0.324,0.122,0.728,0.17,1.114,0.279c0.336,0.095,0.628,0.293,0.973,0.417c1.104,0.4,2.418,0.635,3.014,1.345
		c0.163,0.194,0.159,0.481,0.372,0.696c0.196,0.198,1.268,0.391,1.297,0.835c0.024,0.337-0.442,0.357-0.462,0.695
		C238.092,217.821,239.04,217.781,239.201,218.536z"/>
	<path style="fill:#2D93BA;" d="M229.417,246.311c-0.138,0.579-0.58,1.222-1.159,1.623c-0.418,0.291-1.748,0.879-1.901,0.047
		c-0.042-0.232,0.259-1.308,0.37-1.531c0.328-0.65,0.678-0.225,1.206-0.139C228.475,246.398,228.985,245.983,229.417,246.311z"/>
	<path style="fill:#2D93BA;" d="M225.8,178.89c0.189,0.556,0.317,1.104,0.465,1.623c-0.512,0.636-1.522,0.401-2.272,0.741
		c-0.353,0.16-0.45,0.746-0.789,0.835c-0.273,0.072-0.484-0.237-0.741-0.232c-0.666,0.013-0.992,1.115-1.809,0.835
		c-0.467,0.279,0.019,1.346-0.556,1.437c-0.409,0.064-0.634-0.464-0.882-0.788c-0.3-0.393-0.728-0.609-0.74-0.928
		c-0.013-0.33,0.665-0.883,0.879-1.112c0.264-0.282,0.781-0.808,1.113-0.882c0.618-0.136,1.246,0.06,1.717-0.138
		c0.406-0.173,0.43-0.813,0.649-0.974c0.186-0.137,0.398-0.1,0.557-0.185c0.43-0.233,0.895-1.035,0.649-1.855
		c-0.155-0.518-1.013-1.084-0.463-1.717c0.821,0.088,1.904,0.897,2.04,1.717c0.053,0.32-0.124,0.639-0.094,0.973
		C225.539,178.432,225.717,178.638,225.8,178.89z"/>
	<path style="fill:#2D93BA;" d="M225.986,173.835c-0.104,0.237-0.314,0.187-0.509,0.324c-0.19,0.134-0.415,0.559-0.649,0.603
		c-0.373,0.07-0.791-0.365-1.161-0.277c-0.434,0.103-0.18,0.437-0.324,0.834c-0.381-0.081-1.005-0.505-1.02-0.927
		c-0.01-0.266,0.335-0.43,0.418-0.741c0.137-0.53-0.219-0.797-0.418-1.299c-0.014-0.075,0.044-0.08,0.046-0.139
		c0.453-0.095,1.343,0.759,2.365,0.927C225.395,173.248,225.947,173.19,225.986,173.835z"/>
	<path style="fill:#2D93BA;" d="M224.272,220.901c0.047,0.385-0.625,0.341-0.696,0.091
		C223.589,220.694,224.189,220.601,224.272,220.901z"/>
	<path style="fill:#2D93BA;" d="M221.025,169.941c0.459,0.242,1.571,0.793,0.788,1.299
		C221.338,171.064,220.844,170.464,221.025,169.941z"/>
	<path style="fill:#2D93BA;" d="M218.892,218.862c0.53-0.289,1.11-0.924,2.04-0.604c-0.204,0.577-0.903,0.566-1.344,0.835
		c-0.447,0.273-0.826,0.735-1.391,0.788c-0.043-0.082-0.104-0.144-0.186-0.186C218.008,219.177,218.525,219.058,218.892,218.862z"/>
	<path style="fill:#2D93BA;" d="M217.641,210.143c0.544,0.001,1.057-0.168,1.435,0.047c-0.07,1.16-1.869,0.278-3.059,0.464
		c-0.254,0.039-0.329,0.235-0.604,0.138c0.015-0.392,0.439-0.789,0.881-0.834C216.635,209.923,217.143,210.142,217.641,210.143z"/>
	<path style="fill:#2D93BA;" d="M218.103,211.579c0.053,0.642-0.823,0.713-1.067,1.207c0.385,0.589,0.535,1.412,0.974,1.946
		c-0.019,0.354,0.072,0.816-0.14,0.974c-0.933,0.179-1.435-1.499-1.809-2.086c-0.713,0.134-0.062,2.416-1.019,2.133
		c-0.469-0.14,0.006-0.792-0.094-1.298c-0.087-0.445-0.522-0.536-0.556-0.883c-0.027-0.286,0.315-0.589,0.417-0.881
		c0.147-0.421,0.054-1.23,0.556-1.251c0.248-0.011,0.581,0.521,0.742,0.555C216.663,212.117,217.321,211.433,218.103,211.579z"/>
	<path style="fill:#2D93BA;" d="M216.388,218.489c-0.171,0.351-1.124,0.183-1.205-0.14
		C215.345,217.985,216.308,218.094,216.388,218.489z"/>
	<path style="fill:#2D93BA;" d="M215.506,219.601c-0.054,0.069-0.116,0.131-0.184,0.187c-0.353-0.113-0.728-0.198-0.835-0.556
		C214.747,218.85,215.494,219.166,215.506,219.601z"/>
	<path style="fill:#2D93BA;" d="M214.254,218.442c-0.235,0.334-1.051-0.027-1.344,0.324c-0.483-0.012-0.968-0.018-1.067-0.417
		c0.139-0.339,0.579-0.106,0.927-0.139C213.331,218.16,214.106,217.767,214.254,218.442z"/>
	<path style="fill:#2D93BA;" d="M207.717,236.202c-0.004-0.409-0.26-0.77-0.326-1.205c-0.023-0.157,0.023-0.36,0-0.558
		c-0.03-0.287-0.172-0.526-0.139-0.696c0.064-0.307,0.422-0.34,0.511-0.603c0.145-0.432-0.178-0.502-0.186-1.02
		c-0.006-0.366,0.278-0.545,0.465-1.02c0.086-0.22,0.089-0.631,0.184-0.788c0.121-0.198,0.634-0.365,0.835-0.462
		c0.711-0.349,1.281-0.998,1.995-1.114c0.18-0.029,0.426,0.023,0.556,0c0.421-0.073,0.949-0.426,1.53-0.556
		c0.562-0.128,1.06-0.08,1.484-0.326c0.465-0.268,1.123-0.971,1.297-1.391c0.212-0.509,0.15-0.939,0.556-1.113
		c0.2-0.084,0.396,0.007,0.603-0.046c0.215-0.056,0.676-0.275,0.835-0.418c0.323-0.289,0.376-0.764,0.741-1.067
		c0.254-0.209,0.73-0.531,1.067-0.694c0.198-0.1,0.566-0.203,0.74-0.187c0.654,0.056,0.959,0.969,1.67,0.788
		c0.254-0.064,0.513-0.604,0.743-0.927c0.334-0.473,0.577-1.11,1.158-1.252c0.469-0.115,0.994,0.18,1.252-0.232
		c0.058-0.293-0.219-0.467,0-0.65c0.541,0.034,1.454,0.763,2.272,0.788c0.44,0.014,1.258-0.48,1.345,0.187
		c0.039,0.295-0.33,0.533-0.417,0.835c-0.062,0.213,0.091,0.328-0.047,0.556c-0.377,0.149-0.777,0.227-0.788,0.649
		c-0.014,0.529,0.748,0.777,1.205,1.068c0.314,0.198,0.575,0.501,0.743,0.602c0.143,0.084,0.369,0.124,0.464,0.185
		c0.301,0.196,0.514,0.638,0.929,0.65c0.471,0.011,0.941-0.589,1.205-1.161c0.308-0.668,0.326-1.478,0.463-2.179
		c0.047-0.234,0.213-0.463,0.279-0.696c0.179-0.634,0.422-1.491,0.973-1.716c0.554,0.586,0.743,1.727,0.651,2.691
		c0.37,0.281,1.021,0.187,1.111,0.835c0.032,0.224-0.111,0.509-0.092,0.74c0.032,0.391,0.322,0.733,0.372,1.067
		c0.092,0.618-0.103,1.128,0.184,1.577c0.362,0.567,1.071,0.548,1.531,1.161c-0.008,0.38,0.143,0.534,0.232,0.832
		c0.043,0.142,0.002,0.373,0.047,0.465c0.149,0.31,0.55,0.341,0.696,0.602c0.072,0.129,0.051,0.372,0.139,0.603
		c0.127,0.341,0.432,0.595,0.649,0.928c0.209,0.322,0.552,0.672,0.603,0.928c0.093,0.462-0.242,0.779-0.325,1.158
		c-0.1,0.461,0,1.056-0.184,1.53c-0.215,0.557-0.746,1.107-1.16,1.808c-0.34,0.577-0.802,1.227-1.299,1.623
		c-0.293,0.234-0.641,0.37-0.928,0.604c-0.444,0.362-0.808,0.832-1.205,1.252c-0.418,0.441-0.924,0.779-1.253,1.158
		c-0.476,0.552-0.713,1.441-1.529,1.531c-0.478,0.053-0.906,0.011-1.345,0.186c-0.686,0.273-1.142,0.775-1.482,0.788
		c-0.358,0.011-0.69-0.421-1.021-0.464c-0.371-0.048-0.663,0.281-1.205,0.278c-0.221-0.001-0.332-0.131-0.649-0.232
		c-0.663-0.209-1.391-0.201-1.484-0.926c-0.053-0.396,0.252-0.573,0.231-0.928c-0.02-0.354-0.367-0.443-0.511-0.741
		c0.091-0.319,0.106-0.722-0.232-0.928c-0.011-0.288,0.062-0.494,0.186-0.649c-0.269,0.115-0.624,0.186-0.928,0.372
		c-0.338,0.204-0.581,0.672-0.972,0.602c-0.367-0.129-0.085-0.493-0.14-0.788c-0.041-0.225-0.554-1.184-0.789-1.345
		c-0.268-0.184-1.249-0.552-1.576-0.604c-1.433-0.224-2.346,0.542-3.479,0.651c-0.291,0.027-0.607-0.049-0.88,0
		c-0.932,0.163-1.971,0.903-2.551,1.39c-0.959,0.095-1.931-0.197-2.922,0.094c-0.982,0.287-1.545,1.105-3.058,0.879
		c-0.3-0.258-0.833-0.385-0.835-0.834c-0.004-0.354,0.523-0.582,0.696-0.835c0.183-0.271,0.495-0.908,0.509-1.299
		c0.01-0.308-0.207-0.677-0.186-1.065C207.548,236.827,207.719,236.503,207.717,236.202z"/>
	<path style="fill:#2D93BA;" d="M206.929,216.866c0.253-0.035,0.441-0.222,0.696-0.23c0.54-0.021,1.075,0.399,1.714,0.323
		c0.14,0.15,0.045,0.274,0.048,0.512c0.542,0.289,1.432,0.236,1.714,0.787c-0.406,0.431-1.009,0.122-1.53,0.046
		c-0.471-0.067-0.972-0.034-1.484-0.092c-0.649-0.075-1.235-0.434-1.854-0.509c-0.376-0.047-0.76,0.054-1.114,0
		c-0.417-0.064-1.972-0.651-1.994-1.065c-0.023-0.428,0.7-0.548,1.344-0.465C205.303,216.28,205.86,217.015,206.929,216.866z"/>
	<path style="fill:#2D93BA;" d="M208.179,213.667c-0.35-0.098-0.679-0.045-0.832-0.14c-0.318-0.195-0.271-0.75-0.373-1.067
		c-0.102-0.32-0.487-0.49-0.694-0.927c-0.302-0.632-0.432-2.048,0.37-2.179c0.323-0.054,0.656,0.194,0.881,0.14
		c0.447-0.11,0.369-0.689,0.742-0.929c0.207-0.134,0.587-0.077,0.882-0.185c0.304-0.111,0.532-0.4,0.741-0.649
		c0.194-0.232,0.347-0.62,0.603-0.788c0.288-0.19,0.555-0.194,0.788-0.372c0.608-0.464,0.628-1.11,1.113-1.67
		c0.412-0.473,1.063,0.456,1.114,0.835c0.23,0.295,0.684,0.368,0.881,0.696c-0.273,0.816-1.043,0.886-0.881,2.04
		c0.027,0.189,0.155,0.537,0.279,0.789c0.132,0.271,0.524,0.564,0.509,0.741c-0.03,0.347-0.728,0.332-0.882,0.696
		c-0.141,0.337,0.01,0.36-0.046,0.881c-0.195,0.378-0.719,0.469-0.882,0.929c-0.196,0.551,0.029,1.264-0.417,1.67
		c-0.308-0.017-0.645,0.267-1.019,0.23c-0.406-0.037-0.794-0.595-1.439-0.603c-0.246-0.002-0.536,0.157-0.788,0.14
		C208.632,213.93,208.471,213.748,208.179,213.667z"/>
	<path style="fill:#2D93BA;" d="M205.179,212.635c1.179,0,1.179,1.831,0,1.831C203.999,214.466,203.999,212.635,205.179,212.635z"/>
	<path style="fill:#2D93BA;" d="M203.45,212.414c0.145,0.02,0.658,0.733,0.65,0.928c-0.016,0.327-0.507,0.309-0.65,0.741
		c-0.218,0.666,0.098,1.421-0.277,1.763c-0.211,0.128-0.591,0.089-0.927,0.092c-0.841-0.592-1.507-1.296-2.226-2.087
		c-0.261-0.287-0.579-0.536-0.742-0.835c-0.241-0.443-0.327-0.93-0.602-1.344c-0.243-0.364-0.69-0.624-0.928-1.02
		c-0.194-0.326-0.212-0.753-0.416-1.067c-0.192-0.291-0.515-0.417-0.743-0.65c-0.147-0.152-0.232-0.39-0.37-0.556
		c-0.583-0.698-1.704-1.062-1.761-2.087c0.238-0.272,0.483,0.102,0.926,0.186c0.288,0.054,0.628-0.023,0.835,0.046
		c0.421,0.141,0.712,0.799,1.159,1.159c0.251,0.202,0.577,0.341,0.833,0.556c0.275,0.231,0.477,0.561,0.696,0.696
		c0.302,0.185,0.72,0.307,1.113,0.558c0.536,0.341,1.493,0.695,1.623,1.392c0.032,0.172-0.081,0.465-0.047,0.601
		c0.064,0.243,0.372,0.349,0.556,0.556c0.228,0.258,0.275,0.645,0.603,0.696C203.081,212.831,203.096,212.369,203.45,212.414z"/>
	<path style="fill:#2D93BA;" d="M181.564,202.677c0.399,0.131,1.732,1.75,1.345,2.644c-0.11,0.254-0.57,0.581-1.02,0.509
		c-0.918-0.145-0.743-2.188-0.464-3.014C181.45,202.749,181.498,202.703,181.564,202.677z"/>
	<path style="fill:#2D93BA;" d="M150.728,226.141c0.041-0.374,0.307-0.986,0.603-1.207c0.428-0.317,1.006-0.285,1.438-0.509
		c0.356-0.186,0.849-0.494,1.113-0.835c0.224-0.289,0.236-0.619,0.418-0.835c0.124-0.149,0.405-0.189,0.555-0.37
		c0.135-0.164,0.106-0.468,0.326-0.649c0.644-0.275,0.829,0.904,0.928,1.714c0.029,0.253,0.16,0.524,0.137,0.649
		c-0.067,0.37-0.474,0.446-0.602,0.698c-0.032,1.016-0.431,1.899-0.789,2.734c-0.308,0.722-0.487,1.512-0.741,2.134
		c-0.092,0.226-0.287,0.403-0.37,0.602c-0.335,0.789-0.458,2.028-1.067,2.365c-0.219,0.121-1.066,0.328-1.299,0.324
		c-0.568-0.008-1.06-0.435-1.205-0.926c-0.079-0.264-0.001-0.539-0.047-0.835c-0.056-0.372-0.278-0.69-0.232-1.113
		c0.103-0.944,1.022-1.402,1.067-2.179C150.994,227.317,150.664,226.735,150.728,226.141z"/>
	<path style="fill:#2D93BA;" d="M128.379,160.156c0.054,0.777-1.188,0.68-1.345,1.345c-0.07,0.301,0.145,0.703,0.094,0.973
		c-0.095,0.487-0.566,0.345-1.159,0.603c-0.303,0.131-0.597,0.614-0.927,0.649c-0.305,0.033-0.492-0.178-0.696-0.138
		c-0.304,0.057-0.203,0.431-0.65,0.509c-0.356,0.062-0.979-0.319-1.02,0.139c-0.027,0.294,0.56,0.453,0.928,0.417
		c0.291-0.028,0.505-0.228,0.788-0.232c0.549-0.005,0.906,0.407,1.252,0.418c0.796,0.022,1.577-0.735,2.412-0.65
		c0.377,0.039,0.601,0.305,0.881,0.279c0.447-0.042,0.828-0.559,1.159-0.742c-0.14-0.781,0.013-1.811,0.742-1.855
		c0.501-0.029,1.253,0.857,1.344,0c0.04-0.372-0.396-0.702-0.695-0.696c-0.267,0.006-0.617,0.528-0.835,0.094
		c0.001-0.425,0.478-0.313,0.742-0.418c0.197-0.078,0.336-0.293,0.556-0.371c1.103-0.388,2.632,0.381,3.06-0.556
		c-0.979-0.835-2.645,0.304-3.756,0.232c-0.474-0.03-1.099-0.383-1.252-0.835c-0.048-0.143-0.008-0.335-0.047-0.602
		c-0.042-0.296-0.196-0.606-0.185-0.789c0.047-0.837,2.132-0.995,2.132-2.04c-0.398-0.382-1.565-0.317-1.947,0.092
		c-0.137,0.147-0.13,0.446-0.324,0.742c-0.416,0.634-1.759,0.708-2.179,1.483c-0.094,0.172-0.256,0.643-0.186,0.927
		C127.375,159.576,128.347,159.695,128.379,160.156z M117.343,205.506c-1.336-0.196-2.702,0.343-3.617,0.741
		c-0.528,0.231-1.066,0.582-1.53,0.603c-0.44,0.021-0.874-0.234-1.298-0.277c-0.553-0.057-1.261-0.004-1.809,0.092
		c-0.533,0.095-1.014,0.475-1.484,0.509c-0.899,0.068-1.754-0.81-2.319-1.252c-0.345-0.269-0.697-0.49-1.02-0.741
		c-0.347-0.272-0.796-0.436-1.067-0.696c-0.365-0.353-0.365-0.968-0.556-1.438c-0.226-0.553-0.913-0.959-1.438-1.484
		c-0.392-0.392-1.293-0.979-1.391-1.483c-0.049-0.258,0.11-0.555,0.092-0.835c-0.024-0.406-0.33-0.637-0.324-0.928
		c0.009-0.408,0.489-0.722,0.603-1.067c0.059-0.176,0.03-0.424,0.092-0.649c0.13-0.471,0.442-0.749,0.371-1.438
		c-0.028-0.274-0.263-0.525-0.279-0.881c-0.009-0.244,0.16-0.379,0.139-0.603c-0.035-0.396-0.549-0.473-0.603-0.927
		c-0.054-0.47,0.449-0.857,0.742-1.391c0.132-0.239,0.205-0.605,0.324-0.788c0.26-0.395,0.684-0.586,0.882-0.974
		c0.145-0.287,0.192-0.712,0.324-0.927c0.171-0.276,0.51-0.425,0.835-0.788c0.263-0.296,0.371-0.655,0.556-0.788
		c0.233-0.169,0.581-0.21,0.835-0.324c0.858-0.391,1.486-0.895,1.901-1.717c-0.126-0.746,0.064-1.061,0.371-1.576
		c0.283-0.477,0.491-0.932,0.974-1.206c0.58-0.328,1.124-0.358,1.529-0.973c0.203-0.308,0.507-0.84,0.511-1.159
		c0.005-0.459-0.471-1.047-0.881-1.114c-0.419-0.067-1.063,0.319-1.298-0.138c-0.075-0.146,0.028-0.488,0-0.65
		c-0.054-0.304-0.314-0.518-0.324-0.741c-0.022-0.435,0.428-0.889,0.556-1.391c0.173-0.684,0.006-1.207-0.047-1.994
		c0.649-1.022,2.089-0.515,3.525-0.418c0.215,0.015,0.462-0.052,0.695-0.046c0.851,0.02,1.521,0.276,1.808-0.464
		c0.108-0.279,0.204-1.315,0.139-1.577c-0.076-0.31-0.685-1.115-0.974-1.297c-0.46-0.293-1.128-0.165-1.391-0.696
		c0.214-0.916,1.24-0.153,1.855-0.371c0.314-0.111,0.279-0.655,0.557-0.742c0.19-0.06,0.432,0.191,0.696,0.186
		c0.225-0.005,1.039-0.413,1.252-0.557c0.296-0.2,0.388-0.616,0.649-0.788c0.177-0.116,0.41-0.102,0.603-0.185
		c0.394-0.17,0.893-0.515,1.159-0.835c0.383-0.459,0.555-1.028,1.02-1.112c0.622-0.114,2.028,0.123,2.134-0.557
		c0.099-0.648-0.57-1.157-0.324-1.855c0.194-0.552,0.69-0.454,1.391-0.788c0.338,0.24,0.24,0.926,0.278,1.345
		c0.431,0.004,1.308-0.127,1.391-0.51c0.104-0.478-0.628-0.964-0.788-1.252c-0.173-0.313-0.211-0.862-0.556-0.927
		c-0.706-0.136-1.392,0.973-2.273,0.973c-0.578,0-1.192-0.446-1.344-0.881c-0.087-0.248-0.008-0.482-0.047-0.742
		c-0.056-0.379-0.283-0.773-0.185-1.298c0.355-0.609,1.173-0.707,1.762-1.021c0.222-0.118,0.402-0.371,0.649-0.464
		c0.416-0.154,1.03,0.001,1.438-0.232c0.258-0.146,0.185-0.399,0.371-0.696c0.116-0.186,0.399-0.295,0.556-0.509
		c0.109-0.149,0.122-0.374,0.232-0.511c0.403-0.501,1.138-0.686,1.437-1.205c0.132-0.229-0.228-0.315-0.138-0.65
		c0.15-0.323,0.728-0.086,1.066-0.139c0.461-0.072,0.888-0.632,1.391-0.741c0.526-0.114,1.089-0.045,1.577-0.232
		c0.291-0.113,0.56-0.377,0.835-0.418c0.097-0.014,0.371,0.053,0.509,0.047c0.177-0.007,0.368-0.116,0.603-0.139
		c0.341-0.034,0.764,0.083,1.206,0.092c0.733,0.016,1.43-0.22,2.04,0.047c0.319,0.139,0.283,0.501,0.695,0.649
		c0.207,0.075,0.481-0.029,0.788,0c0.454,0.043,0.928,0.357,1.53,0.418c0.214,0.021,0.436-0.027,0.649,0
		c0.663,0.081,1.391,0.43,2.041,0.649c0.543,0.184,1.694,0.412,1.715,0.927c0.026,0.61-1.001,0.788-1.438,0.788
		c-0.73,0-1.695-0.426-2.457-0.185c0.011,1.049,1.144,1.843,2.179,1.715c0.091-0.493-0.586-0.219-0.511-0.696
		c0.462-0.349,1.016,0.234,1.67,0.139c0.255-0.069,0.212-0.438,0.277-0.696c0.551-0.335,1.242-0.827,2.087-0.464
		c0.042-0.082,0.104-0.144,0.186-0.185c0.055-0.509-0.556-0.775-0.232-1.253c0.162-0.329,1.026-0.215,1.159,0.047
		c0.067,0.314-0.214,0.28-0.186,0.556c0.164,0.37,0.542,0.428,0.743,0.418c0.455-0.025,0.545-0.432,0.974-0.65
		c0.173-0.088,0.427-0.097,0.648-0.185c0.262-0.104,0.485-0.315,0.696-0.371c0.155-0.041,0.388,0,0.603-0.047
		c0.274-0.059,0.563-0.279,0.788-0.277c0.28,0,0.48,0.323,0.835,0.371c0.193,0.026,0.413-0.11,0.696-0.139
		c0.227-0.025,0.462,0.027,0.649,0c0.443-0.064,0.747-0.297,1.113-0.279c0.259,0.014,0.703,0.363,0.881,0.186
		c0.3-0.298-0.4-0.519-0.184-0.789c0.711,0.054,1.466,0.037,2.179,0.139c1.06,0.151,2.057,0.676,3.013,0.696
		c-0.09-0.644-0.828-0.459-1.159-0.741c-0.101-0.087-0.515-0.766-0.509-0.974c0.002-0.104,0.525-0.997,0.649-1.113
		c0.409-0.384,1.749-0.382,2.132,0.138c0.262,0.356,0.175,0.892,0.556,0.882c0.328-0.009,0.502-0.815,0.882-0.835
		c0.314-0.016,0.473,0.517,0.788,0.511c0.384-0.008,0.651-0.724,1.16-0.742c0.274-0.01,0.365,0.141,0.788,0.185
		c0.29-0.186-0.097-0.432,0.047-0.696c0.518-0.377,1.703-0.09,2.364-0.324c0.185-0.22-0.236-0.376-0.046-0.603
		c0.571-0.399,1.532-0.436,2.505-0.602c0.595-0.102,1.156-0.515,1.622-0.557c0.487-0.043,0.952,0.286,1.391,0.279
		c0.267-0.005,0.577-0.085,0.835-0.185c0.261-0.102,0.439-0.355,0.696-0.418c0.407-0.1,0.92,0.048,1.391,0
		c0.498-0.05,0.937-0.244,1.297-0.185c0.337,0.054,0.608,0.413,0.928,0.464c0.977,0.152,1.985-0.146,2.874,0.092
		c0.159,0.043,0.32,0.208,0.511,0.279c0.596,0.218,1.002,0.15,1.114,0.881c0.468,0.166,0.743,0.596,1.298,0.742
		c0.37,0.097,0.742-0.047,1.159-0.047c0.548,0,1.249,0.021,1.715,0.092c0.266,0.041,0.485,0.237,0.743,0.279
		c0.187,0.03,0.435-0.02,0.649,0c0.29,0.027,0.551,0.146,0.788,0.139c0.486-0.015,0.855-0.449,1.252-0.511
		c0.213-0.033,0.497,0.076,0.696,0.092c0.781,0.066,1.682-0.102,2.319,0.047c0.341,0.079,0.923,0.454,1.299,0.741
		c0.273,0.208,0.438,0.54,0.695,0.695c0.244,0.148,0.862,0.412,1.114,0.371c0.296-0.047,0.309-0.377,0.602-0.509
		c0.92-0.205,2.553,0.293,3.293-0.047c0.286-0.132,0.23-0.436,0.464-0.603c1.391-0.068,2.778,0.057,4.081,0.092
		c0.458,0.013,0.931-0.117,1.346-0.046c0.459,0.08,0.794,0.54,1.25,0.696c0.304,0.103,0.841,0.049,1.299,0.139
		c0.307,0.06,0.56,0.245,0.788,0.278c0.496,0.07,0.969-0.055,1.439-0.092c1.063-0.086,2.43-0.142,3.478,0.279
		c0.558,0.224,0.792,0.676,1.39,0.741c0.857,0.095,2.184-0.07,3.061,0c0.209,0.018,0.405,0.104,0.556,0.092
		c0.294-0.021,0.473-0.271,0.835-0.277c0.459-0.01,1.19,0.715,1.856,0.603c0.287-0.194-0.231-0.465,0.044-0.65
		c0.261-0.217,0.618-0.002,1.021,0c0.219,0.002,0.488-0.111,0.696-0.093c0.509,0.044,0.993,0.502,1.623,0.649
		c0.5,0.117,1.188,0.16,1.809,0.094c0.445-0.049,0.827-0.199,1.252-0.139c0.205,0.028,0.388,0.177,0.602,0.232
		c0.198,0.05,0.391,0.002,0.556,0.046c0.155,0.042,0.308,0.187,0.465,0.232c0.862,0.247,2.009,0.369,2.921,0.65
		c0.536,0.165,1.084,0.498,1.53,0.509c0.219,0.007,0.415-0.095,0.696-0.092c1.401,0.009,3.048,0.593,2.919,1.902
		c-1.639,0.359-3.011-1.129-4.729-0.695c-0.274,0.069-0.579,0.37-0.555,0.649c0.064,0.808,2.1,0.74,2.271,1.53
		c-0.334,0.25-0.698,0.014-0.973,0.047c-0.418,0.049-1.123,0.491-1.391,0.741c-0.314,0.294-0.589,1.047-0.927,1.113
		c-0.415,0.081-1.047-0.409-1.67-0.279c-0.228,0.048-0.447,0.333-0.649,0.371c-0.512,0.097-1.163-0.279-1.482,0.324
		c0.168,0.424,0.066,1.014,0.417,1.252c0.226,0.155,0.509,0.035,0.788,0.139c0.326,0.122,0.506,0.519,0.787,0.742
		c0.231,0.182,0.477,0.186,0.604,0.417c0.029,0.342-0.136,0.379-0.094,0.603c0.073,0.389,0.681,0.477,0.696,0.741
		c0.021,0.335-0.383,0.263-0.462,0.603c-0.029,0.216,0.249,0.273,0.277,0.556c0.019,0.19-0.153,0.387-0.138,0.603
		c0.02,0.309,0.264,0.515,0.231,0.788c-0.027,0.234-0.231,0.417-0.418,0.51c-0.888-0.57-1.687-1.356-2.643-2.087
		c-0.978-0.749-2.528-1.67-2.689-3.246c-0.006-0.241,0.512-0.431,0.602-0.788c0.037-0.146-0.058-0.355-0.046-0.556
		c0.033-0.544,0.483-1.068,0.465-1.391c-0.022-0.355-0.684-1.014-1.021-1.114c-0.269,0.142-0.003,0.423-0.047,0.65
		c-0.054,0.28-0.393,0.622-0.696,0.649c-0.877,0.076-0.975-1.13-2.365-0.788c-0.36,0.089-0.865,0.631-0.741,1.298
		c0.038,0.203,0.596,0.421,0.556,0.696c-0.039,0.267-1.263,0.345-1.531,0.324c-0.748-0.06-1.133-0.62-1.808-0.603
		c-0.331,0.008-0.622,0.277-0.882,0.324c-1.46,0.267-3.628-0.719-4.125,0.556c-0.072,0.18-0.032,0.416-0.094,0.603
		c-0.09,0.268-0.304,0.479-0.371,0.65c-0.056,0.143-0.047,0.425-0.139,0.649c-0.084,0.203-0.961,0.994-0.185,1.206
		c0.185,0.049,0.272-0.08,0.511-0.047c0.398,0.054,1.061,0.693,1.529,0.695c0.28,0.001,0.668-0.315,0.881-0.324
		c0.43-0.021,0.74,0.256,1.066,0.417c0.312,0.153,0.788,0.475,1.021,0.464c0.438-0.022,0.228-0.325,0.649-0.464
		c0.802,0.238,1.178,1.088,1.947,1.762c0.279,0.243,0.691,0.453,1.067,0.788c0.209,0.187,0.854,0.69,0.882,0.927
		c0.024,0.221-0.181,0.316-0.233,0.51c-0.075,0.282,0.101,0.49-0.092,0.696c-0.74-0.274-0.906-1.003-1.438-1.623
		c-0.197-0.231-0.395-0.505-0.694-0.835c-0.136-0.149-0.628-0.671-0.929-0.556c-0.583,0.221,0.32,1.105,0.464,1.298
		c0.308,0.409,0.717,0.959,0.743,1.391c0.017,0.276-0.18,0.779-0.186,1.252c-0.004,0.32,0.081,0.61,0.047,0.881
		c-0.035,0.272-0.228,0.582-0.325,0.882c-0.109,0.34-0.134,0.746-0.231,0.973c-0.18,0.418-0.787,0.91-1.207,0.927
		c-0.385,0.016-0.55-0.296-0.927-0.278c-0.57,0.027-0.676,0.553-1.019,0.973c0.029,0.457,0.172,0.614,0.092,0.928
		c-0.125,0.492-0.809,0.577-0.788,1.067c0.019,0.453,0.625,0.541,0.926,0.742c0.415,0.275,1.138,0.888,1.531,1.391
		c0.258,0.33,0.63,0.947,0.603,1.297c-0.035,0.459-1.356,1.097-1.903,0.927c-0.518-0.16-0.341-0.656-0.462-1.112
		c-0.095-0.351-0.37-0.502-0.509-0.788c-0.074-0.15-0.04-0.388-0.141-0.556c-0.28-0.472-0.768-0.214-1.346-0.511
		c-0.378-0.194-0.268-0.603-0.417-0.974c-0.199-0.499-1.04-0.734-1.714-0.602c-0.496,0.096-0.651,0.513-1.114,0.602
		c-0.68-0.403,0.139-1.397-0.695-1.484c-0.639-0.067-1.064,0.918-1.438,1.206c-0.253,0.193-0.712,0.233-0.741,0.509
		c-0.055,0.512,0.54,0.408,1.018,0.603c0.435,0.178,0.485,0.67,0.882,0.695c0.332,0.022,0.552-0.342,0.881-0.371
		c0.57-0.05,1.033,0.206,1.391,0.418c-0.232,0.562-1.48,0.974-1.484,1.715c-0.002,0.43,0.498,0.504,0.882,0.788
		c0.323,0.24,0.75,0.918,1.205,1.391c0.197,0.204,0.515,0.338,0.604,0.464c0.214,0.307,0.18,0.68,0.416,0.882
		c0.04,0.254-0.116,0.316-0.092,0.556c0.115,0.334,0.628,0.271,0.742,0.603c-0.095,0.8,0.238,1.553-0.417,1.855
		c-0.302,1.434-0.643,2.556-1.623,3.338c-0.882,0.701-2.046,0.909-3.108,1.252c-0.276,0.089-0.496,0.379-0.741,0.464
		c-0.617,0.21-1.716,0.082-1.761,0.835c-0.026,0.371,0.471,0.595,0.509,0.973c0.058,0.581-0.461,1.165-0.835,1.206
		c-0.269,0.029-0.85-0.158-0.882-0.65c-0.036-0.553,0.686-0.779,0.743-1.112c0.098-0.59-0.509-1.165-1.205-1.113
		c-0.613,0.046-2.006,1.275-2.04,1.947c-0.027,0.502,0.995,1.548,1.344,1.855c1.302,1.148,2.685,1.836,2.457,4.637
		c-0.325,0.71-1.157,0.861-1.808,1.252c-0.496,0.297-0.743,1.22-1.577,1.299c-0.335-0.115-0.139-0.638-0.232-0.881
		c-0.126-0.332-0.79-0.495-1.205-0.835c-0.34-0.279-0.482-0.718-0.742-0.974c-0.324-0.32-0.809-0.386-1.206-0.603
		c-0.249-0.136-0.444-0.614-0.696-0.602c-0.409,0.016-0.267,0.41-0.37,1.066c-0.103,0.645-0.574,1.141-0.418,1.902
		c0.066,0.312,0.454,0.563,0.649,0.881c0.322,0.526,0.367,1.138,0.696,1.438c0.217,0.198,0.588,0.241,0.835,0.417
		c0.492,0.351,1.357,1.113,1.531,1.531c0.201,0.488,0.007,1.063,0.139,1.577c0.155,0.594,0.931,1.019,0.465,1.623
		c-0.444-0.082-0.831-0.373-1.207-0.603c-0.637-0.394-0.93-0.734-1.345-1.391c-0.122-0.192-0.302-0.379-0.371-0.556
		c-0.162-0.416-0.126-0.887-0.277-1.391c-0.13-0.434-0.634-1.121-1.021-1.485c-0.325-0.307-0.903-0.486-0.927-0.927
		c-0.034-0.622,0.211-1.354,0.186-2.087c-0.006-0.158-0.113-0.317-0.138-0.509c-0.049-0.356,0.035-0.792-0.048-1.114
		c-0.076-0.296-0.292-0.563-0.417-0.834c-0.124-0.267-0.251-0.535-0.37-0.882c-0.189-0.536-0.4-1.57-0.835-1.623
		c-0.465-0.056-0.924,0.871-1.53,0.882c-0.311,0.005-0.726-0.245-0.788-0.557c-0.059-0.285,0.146-0.571,0.139-0.88
		c-0.017-0.622-0.459-0.862-0.789-1.299c-0.134-0.177-0.169-0.425-0.279-0.556c-0.211-0.252-0.613-0.392-0.881-0.649
		c-0.254-0.246-0.533-0.6-0.65-0.835c-0.179-0.363-0.237-0.834-0.509-0.882c-0.261-0.046-0.563,0.329-0.835,0.418
		c-0.283,0.092-0.977,0.212-1.252,0.232c-0.931,0.064-1.686-0.184-1.576,0.928c-0.145,0.499-0.672,0.505-1.021,0.741
		c-0.444,0.302-0.767,0.907-1.252,1.391c-0.236,0.237-0.576,0.384-0.788,0.603c-0.177,0.183-0.232,0.475-0.418,0.65
		c-0.494,0.467-1.237,0.507-1.575,1.159c-0.02,0.77,0.364,1.354,0.277,2.085c-0.04,0.334-0.289,0.63-0.325,0.974
		c-0.029,0.295,0.121,0.612,0.048,0.927c-0.041,0.169-0.228,0.257-0.372,0.464c-0.129,0.185-0.181,0.431-0.276,0.556
		c-0.157,0.2-0.413,0.339-0.559,0.511c-0.235,0.279-0.285,0.478-0.509,0.51c-1.016,0.146-1.267-1.787-1.715-2.597
		c-0.207-0.372-0.629-0.708-0.835-1.159c-0.238-0.52-0.31-1.172-0.65-1.762c-0.288-0.504-0.686-1.008-0.881-1.53
		c-0.165-0.441-0.308-0.994-0.464-1.484c-0.165-0.518-0.344-1.169-0.371-1.576c-0.039-0.602,0.116-0.973-0.371-1.206
		c-0.447,0.105-0.646,0.556-1.159,0.556c-0.494,0-1.823-0.857-1.436-1.623c-0.324-0.459-1.14-0.711-1.763-1.252
		c-0.356-0.31-0.678-1.049-1.298-1.112c-0.171-0.018-0.394,0.078-0.557,0.092c-0.392,0.034-1.088-0.035-1.531,0
		c-0.556,0.044-1.243,0.17-1.947,0.092c-0.453-0.049-1.016-0.137-1.484-0.185c-0.594-0.061-1.383-0.202-1.714-0.511
		c-0.206-0.19-0.289-0.797-0.651-0.881c-0.43-0.1-0.666,0.233-1.065,0.324c-0.85,0.194-1.56-0.174-2.134-0.556
		c-0.407-0.27-0.779-0.411-1.066-0.603c-0.705-0.472-0.832-1.891-1.902-1.902c-0.372-0.003-0.965,0.23-1.02,0.65
		c-0.036,0.295,0.353,0.843,0.511,1.067c0.52,0.733,1.475,1.008,1.762,1.993c0.192,0.075,0.583-0.169,0.788,0.047
		c0.179,0.423-0.002,1.207,0.417,1.391c1.927,0.318,2.478-0.738,3.34-1.484c0.5,0.327,0.335,0.612,0.509,0.973
		c0.178,0.37,0.456,0.66,0.788,0.789c0.233,0.089,0.532,0.006,0.882,0.138c0.219,0.083,1.133,0.948,1.16,1.253
		c0.023,0.273-0.601,1.201-0.79,1.437c-0.184,0.23-0.468,0.349-0.556,0.556c-0.066,0.16-0.045,0.501-0.093,0.603
		c-0.085,0.185-0.502,0.426-0.742,0.649c-0.253,0.237-0.548,0.42-0.788,0.603c-0.293,0.225-0.474,0.534-0.788,0.65
		c-0.617,0.227-1.204,0.13-1.715,0.464c-0.335,0.218-0.336,0.709-0.741,0.973c-0.424,0.275-1.149,0.277-1.763,0.557
		c-0.394,0.179-0.631,0.527-0.972,0.649c-0.14,0.049-0.314,0.007-0.465,0.047c-0.308,0.078-0.593,0.297-0.882,0.37
		c-0.228,0.058-0.471,0.029-0.696,0.094c-0.714,0.206-1.369,0.932-2.087,0.509c-0.338-0.781-0.393-1.765-0.788-2.458
		c-0.201-0.354-0.597-0.463-0.741-0.834c-0.02-0.298,0.339-0.217,0.37-0.464c-0.118-0.501-0.591-0.735-0.881-1.16
		c-0.142-0.207-0.207-0.503-0.371-0.741c-0.553-0.804-1.643-1.223-1.855-2.226c-0.057-0.273,0.009-0.487-0.045-0.696
		c-0.091-0.343-0.323-0.704-0.557-0.973c-0.177-0.206-0.539-0.347-0.741-0.65c-0.135-0.2-0.164-0.482-0.279-0.695
		c-0.461-0.861-1.129-1.621-1.855-2.226c-0.378,0.055-0.785,0.081-0.973,0.325c0.189,0.607,0.478,1.115,0.788,1.623
		c0.283,0.463,0.686,0.961,0.88,1.484c0.073,0.193,0.06,0.446,0.14,0.649c0.291,0.735,1.208,0.961,1.391,1.809
		c0.123,0.568-0.027,0.961,0.139,1.529c0.159,0.546,0.965,0.868,1.299,1.391c0.272,0.427,0.274,1.032,0.464,1.438
		c0.277,0.595,1.054,0.852,1.623,1.252c0.511,0.359,0.876,0.913,1.297,1.298c0.248,0.225,0.589,0.266,0.65,0.511
		c0.079,0.314-0.132,0.419-0.186,0.694c0.356,0.371,0.703,1.056,1.299,1.114c0.245,0.023,0.554-0.224,0.928-0.279
		c0.189-0.027,0.399,0.029,0.556,0c0.247-0.044,0.462-0.265,0.743-0.324c0.473-0.102,1.022-0.061,1.622-0.139
		c0.567-0.074,0.957-0.553,1.391-0.417c0.477,0.523,0.135,1.117,0,1.623c-0.047,0.178-0.047,0.362-0.091,0.511
		c-0.251,0.825-0.906,1.437-1.207,2.179c-0.092,0.227-0.076,0.506-0.184,0.741c-0.345,0.743-1.065,1.477-1.624,2.087
		c-0.315,0.343-0.592,0.653-0.927,0.927c-0.332,0.274-0.739,0.423-1.114,0.696c-0.742,0.543-1.515,1.322-2.04,2.041
		c-0.203,0.279-0.3,0.6-0.511,0.835c-0.302,0.337-0.769,0.503-1.02,0.835c-0.198,0.261-0.329,0.734-0.556,1.205
		c-0.255,0.53-0.788,0.889-0.695,1.623c0.035,0.281,0.287,0.456,0.371,0.743c0.144,0.494,0.034,0.91-0.047,1.437
		c0.262,0.636,0.451,1.343,0.928,1.762c0.057,0.938-0.077,1.849,0,2.643c0.049,0.506,0.246,0.879,0.047,1.344
		c-0.175,0.411-0.849,1.133-1.252,1.391c-0.438,0.283-1.108,0.356-1.577,0.697c-0.326,0.236-0.597,0.651-0.928,0.928
		c-0.547,0.456-1.296,0.882-1.344,1.344c-0.028,0.266,0.21,0.669,0.277,0.926c0.181,0.685,0.357,1.67,0.047,2.411
		c-0.336,0.802-2.036,0.636-2.226,1.484c-0.058,0.258,0.113,0.464,0.092,0.743c-0.017,0.236-0.327,1.089-0.464,1.344
		c-0.205,0.384-0.671,0.556-0.973,0.882c-0.379,0.411-0.571,1.006-0.974,1.437c-0.547,0.588-1.286,1.207-1.994,1.716
		c-0.616,0.445-1.722,0.906-2.688,0.974c-0.563,0.04-1.167-0.132-1.762-0.046c-0.218,0.03-0.454,0.231-0.742,0.278
		c-0.167,0.027-0.339-0.029-0.509,0c-0.292,0.049-0.564,0.281-0.835,0.279c-0.601-0.007-1.372-0.724-1.391-1.437
		c-0.007-0.275,0.235-0.536,0.232-0.789c-0.005-0.296-0.368-0.668-0.65-1.206c-0.271-0.518-0.377-1.104-0.649-1.528
		c-0.288-0.452-0.668-0.666-0.881-1.021c-0.427-0.713-0.459-1.557-0.603-2.412c-0.047-0.279-0.238-0.581-0.279-0.928
		c-0.05-0.426,0.052-0.899-0.046-1.252c-0.075-0.272-0.376-0.548-0.557-0.881c-0.327-0.601-0.556-1.387-0.834-1.854
		c-0.261-0.438-0.788-0.894-0.835-1.391c-0.032-0.338,0.042-0.966,0.092-1.299c0.05-0.326,0.292-0.583,0.371-0.926
		c0.053-0.228-0.01-0.49,0.046-0.742c0.237-1.061,1.405-1.447,1.253-2.736c-0.065-0.547-0.452-0.816-0.51-1.438
		c-0.027-0.29,0.145-0.545,0.139-0.835c-0.008-0.391-0.34-0.973-0.51-1.345c-0.47-1.023-0.758-1.959-1.437-2.735
		c-0.37-0.424-0.855-0.722-1.159-1.114c-0.249-0.318-0.553-0.915-0.557-1.159c-0.005-0.265,0.204-0.43,0.279-0.696
		c0.097-0.342,0.104-0.989,0.232-1.53c0.059-0.248,0.327-0.849,0.279-1.252c-0.047-0.388-0.624-1.131-1.114-1.252
		c-0.648-0.16-1.314,0.207-2.132,0.139C118.308,206.822,118.36,205.654,117.343,205.506z M142.985,222.106
		c0.215-0.341,0.484-1.299,0-1.531c-0.032,0-0.062,0-0.092,0C142.685,220.961,142.465,221.891,142.985,222.106z M142.335,212.414
		c0.157-0.321,0.524-0.66,0.464-1.065c-0.134-0.894-1.805-0.453-1.993,0.185c-0.128,0.43,0.076,0.77-0.094,1.206
		c0.183,0.343,0.641,0.411,1.206,0.37C142.231,212.973,142.192,212.709,142.335,212.414z M139.507,217.192
		c0.184-0.341-0.293-0.563-0.371-0.928c-0.092-0.428,0.104-0.93-0.279-1.16c-0.045,0-0.092,0-0.138,0
		C138.383,215.864,138.858,217.118,139.507,217.192z M171.131,171.146c-0.174-0.35-0.675,0.103-0.462,0.418
		C170.982,171.584,171.095,171.402,171.131,171.146z M160.327,173.047c0.752-0.145,0.008-1.347-0.557-1.206
		C159.032,172.026,159.815,173.146,160.327,173.047z M156.896,179.028c0.232-1.608-1.021-1.728-1.252-2.875
		c0.107,0.014,0.051-0.134,0.14-0.139c0.304-0.146,0.765,0.234,0.926-0.138c0.003-0.549-0.693-0.959-1.391-0.696
		c-0.201-0.138-0.228-0.451-0.277-0.742c-0.526-0.313-1.827-0.997-1.809-1.623c0.015-0.515,0.68-0.804,1.438-0.788
		c0.32-0.242,0.114-0.987-0.185-1.159c-1.199-0.262-1.838-0.085-2.597,0.464c-0.364,0.263-0.77,0.445-0.974,0.603
		c-0.187,0.145-0.438,0.542-0.417,0.741c0.029,0.287,0.44,0.455,0.603,0.835c0.083,0.195,0.065,0.44,0.139,0.603
		c0.203,0.447,0.721,0.736,1.113,1.112c0.276,0.266,1.051,0.842,1.067,1.159c0.014,0.265-0.238,0.323-0.323,0.603
		c-0.088,0.274-0.188,0.921-0.139,1.159c0.102,0.509,0.629,0.527,1.111,0.742c0.479,0.213,0.941,0.59,1.438,0.602
		C156.035,179.506,156.599,179.336,156.896,179.028z M145.999,175.69c1.257-0.227,0.683-1.289,0.046-1.669
		c-0.483-0.288-1.06-0.538-1.623-0.882c-0.327-0.199-1.568-0.575-1.576-0.973c-0.009-0.436,0.924-0.578,0.556-1.345
		c-0.635-0.155-2.144,0.089-2.04,0.788c0.06,0.404,0.539,0.18,0.648,0.603c-0.454,0.162-1.007,0.585-1.484,0.511
		c-0.568-0.089-0.714-0.787-1.02-1.206c-0.441,0.014-0.732-0.427-1.252-0.371c-0.545,0.06-0.835,0.851-1.113,1.253
		c-0.148,0.211-0.383,0.32-0.464,0.509c-0.048,0.115,0.005,0.297-0.045,0.464c-0.159,0.515-0.605,0.704-0.558,1.159
		c0.044,0.402,0.48,0.582,0.511,0.927c-0.031,0.356-0.602,0.171-0.556,0.603c0.83,0.685,0.876-0.323,1.299-0.464
		c0.34-0.114,1.006,0.094,1.437,0c0.348-0.076,0.622-0.407,1.02-0.556c0.243-0.091,0.545-0.172,0.882-0.186
		c1.475-0.061,2.427,0.899,3.709,0.927C144.8,175.792,145.559,175.77,145.999,175.69z M143.031,181.162
		c0.026-0.498-0.19-0.872-0.232-1.576c-0.856-0.516-1.495,0.479-2.364,0.37c-0.534-0.067-0.917-0.689-1.484-0.602
		c-0.313,0.047-0.467,0.451-0.789,0.509c-0.663,0.122-0.965-0.53-1.669-0.277c-0.993-0.756-1.437-1.988-1.67-3.385
		c-0.541-0.71-1.366-0.132-1.762,0.324c-0.244-0.002-0.548-0.135-0.602,0.139c-0.183,0.857,1.212,0.949,1.205,1.53
		c-0.005,0.378-0.544,0.343-0.788,0.602c-0.259,0.275-0.087,0.52-0.417,0.696c-0.915,0.11-1.218-0.39-1.206-1.205
		c-0.395-0.6-0.893-1.036-1.252-1.53c-0.132-0.183-0.33-0.467-0.371-0.742c-0.033-0.217,0.103-0.492,0.047-0.741
		c-0.101-0.443-0.925-0.776-1.438-1.02c-0.548-0.261-1.234-0.508-1.623-0.835c-0.275-0.232-0.405-0.635-0.649-0.788
		c-0.207-0.13-0.465-0.103-0.65-0.232c-0.254-0.178-0.212-0.474-0.556-0.557c-0.174-0.064-0.444,0.173-0.556,0.325
		c-0.226,1.012,0.597,1.081,0.973,1.529c0.259,0.308,0.388,0.772,0.65,0.974c0.28,0.217,0.66,0.177,1.02,0.324
		c0.248,0.102,0.41,0.411,0.649,0.556c0.443,0.269,1.153,0.316,1.206,0.835c-0.275,0.187-0.899-0.273-1.113,0.186
		c-0.055,0.301,0.239,0.456,0.232,0.741c-0.012,0.457-0.519,0.957-0.974,0.882c-0.046-0.272,0.242-0.494,0.232-0.789
		c-0.02-0.59-1.206-1.491-1.808-1.761c-0.282-0.127-0.625-0.135-0.882-0.279c-0.456-0.256-1.253-0.887-1.53-1.252
		c-0.332-0.439-0.615-1.252-1.344-1.206c-0.297,0.019-0.543,0.291-0.788,0.418c-0.223,0.113-0.468,0.219-0.696,0.37
		c-0.271,0.179-0.491,0.361-0.742,0.371c-0.582,0.025-1.076-0.432-1.576-0.324c-0.169,0.036-0.309,0.187-0.51,0.371
		c-0.007,0.27,0.081,0.444,0.047,0.741c-0.151,0.261-0.6,0.245-0.927,0.418c-0.48,0.253-0.907,0.773-1.299,1.159
		c-0.252,0.248-0.479,0.453-0.51,0.649c-0.025,0.153,0.13,0.444,0.094,0.65c-0.041,0.224-0.461,0.687-0.742,0.881
		c-0.164,0.112-0.382,0.128-0.556,0.232c-0.365,0.217-0.529,0.499-0.835,0.556c-0.81,0.151-2.283-0.163-2.272,0.696
		c0.007,0.574,0.781,0.576,1.252,0.556c0.656-0.026,1.213,0.14,1.576,0.047c0.251-0.063,0.524-0.344,0.788-0.464
		c0.166-0.075,0.338-0.076,0.464-0.139c0.278-0.139,0.435-0.365,0.65-0.464c0.424-0.193,1.213-0.344,1.669-0.371
		c0.625-0.036,1.279,0.064,2.087,0c0.288-0.022,0.572-0.207,0.882-0.232c0.505-0.04,1.168,0.199,1.576,0.186
		c0.282-0.009,0.597-0.283,0.927-0.279c0.374,0.006,0.767,0.272,0.835,0.511c0.039,0.136-0.078,0.352-0.047,0.556
		c0.054,0.337,0.343,0.476,0.325,0.695c-0.025,0.29-0.748,0.678-0.65,1.02c0.064,0.22,0.583,0.45,0.835,0.603
		c0.263,0.16,0.708,0.383,1.02,0.417c0.262,0.029,0.494-0.073,0.742-0.046c0.399,0.043,1.046,0.286,1.299,0.464
		c0.436,0.307,0.375,0.799,0.881,0.973c0.215,0.075,0.604,0.033,0.881,0.094c0.676,0.146,1.177,0.706,1.67,0.649
		c0.776-0.09,0.423-0.822,0.511-1.344c0.198-1.184,2.51-1.13,2.967-0.326c0.339,0.09,0.635,0.014,1.02,0.14
		c0.223,0.073,0.389,0.316,0.603,0.371c0.162,0.041,0.397-0.024,0.603,0c0.889,0.101,1.694,0.762,2.458,0.649
		c0.484-0.072,0.836-0.527,1.297-0.556c0.887-0.055,1.455,0.66,2.412,0.324c0.704-0.247,0.547-0.976,0.788-1.715
		C142.689,181.9,143.012,181.549,143.031,181.162z M193.017,165.349c0.184-0.59-0.102-1.186-0.464-1.576
		c-0.535,0.092-0.149,0.649-0.185,0.974c-0.053,0.46-0.541,0.78-0.511,1.252c-0.178,0.208-0.482,0.29-0.509,0.649
		c0.295,0.204,0.424-0.16,0.649-0.371C192.352,165.944,192.894,165.748,193.017,165.349z M180.868,149.259
		c-0.51,0-0.703,0.201-1.02,0.371c-0.175,0.092-0.53,0.144-0.417,0.417C179.877,149.994,180.762,149.792,180.868,149.259z
		 M161.301,154.963c1.09,0.254,1.602-0.977,0.88-1.67c-0.169-0.162-0.738-0.225-0.972-0.602c-0.284-0.453-0.245-1.059-0.928-0.927
		c-0.007,0.054,0.008,0.131-0.047,0.138c-0.064,1.014,1.412,1.269,1.391,2.087C161.615,154.417,161.161,154.463,161.301,154.963z"/>
	<path style="fill:#2D93BA;" d="M146.044,153.201c-0.135-0.501,0.816-0.421,0.65,0.047
		C146.546,153.387,146.139,153.375,146.044,153.201z"/>
	<path style="fill:#2D93BA;" d="M140.342,180.93c0.021-0.383,0.895-0.523,1.065-0.185
		C141.35,181.117,140.521,181.374,140.342,180.93z"/>
	<path style="fill:#2D93BA;" d="M124.437,178.427c0.484-0.391,1.56-0.126,2.226-0.14c-0.125,0.355-0.144,0.815-0.418,1.02
		C125.485,179.17,124.777,178.983,124.437,178.427z"/>
	<path style="fill:#2D93BA;" d="M121.052,175.969c0.637-0.665,1.306-0.314,1.067,0.973c-0.152,0.384-0.815,0.897-1.114,0.325
		C121.107,176.818,121.064,176.486,121.052,175.969z"/>
	<path style="fill:#2D93BA;" d="M121.979,174.485c0.053,0.392-0.111,0.568-0.324,0.696
		C121.044,175.073,121.509,173.976,121.979,174.485z"/>
	<path style="fill:#2D93BA;" d="M112.984,165.072c0.054-0.265-0.154-0.594-0.418-0.742c-0.152-0.086-0.385-0.046-0.556-0.139
		c-0.452-0.248-0.616-0.766-0.88-0.881c0.034-0.508-0.14-0.876,0-1.206c0.084-0.2,0.693-0.766,1.02-0.881
		c0.405-0.143,0.829-0.015,1.067-0.324c0.106-0.015,0.178,0.007,0.232,0.046c-0.002,0.293-0.248,0.341-0.279,0.603
		c0.057,0.421,0.8,0.158,0.881,0.556c-0.07,0.433-0.46,0.519-0.464,0.835c-0.001,0.275,0.562,0.798,0.835,1.159
		c0.204,0.268,0.56,0.467,0.742,0.742c0.159,0.24,0.194,0.526,0.324,0.649c0.244,0.231,0.794,0.269,0.835,0.603
		c0.054,0.443-0.55,0.617-0.464,1.112c-0.637,0.5-1.699,0.241-2.736,0.371c-0.47,0.06-0.987,0.527-1.484,0.139
		c-0.115-0.311,0.412-0.354,0.464-0.649c-0.036-0.274-0.383-0.235-0.464-0.464c0.135-0.361,0.555-0.434,0.511-0.974
		C112.408,165.346,112.906,165.453,112.984,165.072z"/>
	<path style="fill:#2D93BA;" d="M109.507,163.958c0.619-0.378,1.701-0.089,1.761,0.371c0.046,0.348-0.329,0.398-0.464,0.788
		c-0.121,0.355,0.024,0.776-0.138,1.021c-0.142,0.212-0.527,0.199-0.789,0.277c-0.583,0.175-1.709,0.86-2.179,0.092
		c0.068-0.411,0.466-0.493,0.603-0.834c0.008-0.268-0.277-0.41-0.232-0.695c0.056-0.35,0.32-0.23,0.696-0.371
		C109.037,164.504,109.154,164.174,109.507,163.958z"/>
	<path style="fill:#2D93BA;" d="M77.836,153.896c0.097,0.412-1.22,0.951-1.346,0.418C76.391,153.888,77.5,153.355,77.836,153.896z"
		/>
	<path style="fill:#2D93BA;" d="M76.306,258.412c-0.232,0-0.464,0-0.696,0C75.735,258.337,76.18,258.337,76.306,258.412z"/>
	<path style="fill:#2D93BA;" d="M74.219,150.605c0.06-0.064,0.219-0.064,0.279,0c-0.046,0.109-0.082,0.227-0.279,0.185
		C74.219,150.728,74.219,150.666,74.219,150.605z"/>
	<path style="fill:#2D93BA;" d="M70.093,157.977c0.009,0.255-0.921,0.678-1.021,0.185c-0.016-0.087,0.005-0.26,0.186-0.37
		C69.505,157.64,70.083,157.727,70.093,157.977z"/>
	<path style="fill:#2D93BA;" d="M50.802,201.054c-0.024,0.069-0.069,0.117-0.092,0.186
		C50.217,201.222,50.662,200.592,50.802,201.054z"/>
	<path style="fill:#2D93BA;" d="M31.976,168.642c0.325-0.19,0.637,0.286,0.418,0.51C32.036,169.222,31.944,168.812,31.976,168.642z"
		/>
	<path style="fill:#2D93BA;" d="M82.519,170.358c-0.217-0.054-0.512-0.043-0.788-0.092c-0.237-0.042-0.518-0.112-0.741-0.139
		c-0.573-0.068-1.192,0.098-1.531-0.232c0.552-0.733,1.285-1.456,1.994-2.087c0.211-0.189,0.664-0.317,0.556-0.696
		c-0.395-0.347-0.879,0.021-1.252,0.232c-0.391,0.22-0.857,0.537-1.299,0.603c-0.767,0.114-1.784-0.225-2.411,0.185
		c-0.087,0.35,0.713,0.214,0.602,0.742c-0.307,0.05-0.597,0.075-0.834-0.139c-0.215-0.194-0.092-0.486-0.232-0.603
		c-0.238-0.197-1.131-0.251-1.53-0.185c-0.487,0.08-0.918,0.371-0.974,0.788c0.585,0.274,1.55-0.282,1.762,0.418
		c-0.321,0.577-1.076,0.895-0.974,1.669c0.04,0.298,0.395,0.698,0.65,0.742c0.256,0.044,0.401-0.21,0.649-0.186
		c0.262,0.025,0.203,0.324,0.51,0.279c0.446-0.191,0.693-0.817,1.205-0.788c0.614,0.745-0.554,1.108-1.205,1.344
		c-0.742,0.269-1.707,0.412-2.273,0.65c-0.296,0.124-1.418,1.208-1.576,0.37c-0.114-0.604,0.555-0.43,0.696-0.927
		c-0.718-0.139-1.387,0.309-2.04,0.557c-0.932,0.353-2.512,0.576-2.736,1.623c-0.045,0.209,0.091,0.602-0.046,0.741
		c-0.111,0.112-0.776,0.132-1.067,0.232c-0.447,0.153-0.837,0.481-1.114,0.556c-0.208,0.057-0.516,0.041-0.649,0.094
		c-0.369,0.143-0.505,0.642-0.927,0.973c-0.173,0.136-0.557,0.234-0.696,0.371c-0.24,0.239-0.272,0.837-0.695,0.927
		c-0.269,0.024-0.488-0.203-0.742-0.047c-0.03,0.591,0.208,1.396-0.046,1.994c-0.549,0.447-1.152,0.765-1.855,1.159
		c-0.389,0.219-0.737,0.275-1.206,0.511c-0.333,0.166-0.637,0.562-1.02,0.788c-0.885,0.521-1.954,1.138-1.947,2.458
		c0.001,0.286,0.149,0.594,0.185,0.927c0.022,0.197-0.024,0.389,0,0.603c0.055,0.485,0.406,1.102,0,1.437
		c-0.624-0.256-1.418-0.343-1.855-0.788c-0.119-0.458,0.241-0.835,0.186-1.252c-0.044-0.335-0.515-0.931-0.789-0.974
		c-0.282-0.045-0.542,0.255-0.834,0.232c-0.347-0.027-0.669-0.505-1.114-0.556c-0.652-0.076-1.132,0.149-1.855,0.047
		c-0.699,0.374-0.904,1.039-1.761,0.973c-0.302-0.022-0.578-0.253-0.927-0.324c-0.378-0.078-0.952-0.212-1.346-0.185
		c-0.789,0.053-1.362,0.62-2.04,0.973c-0.598,0.311-1.445,0.699-1.623,1.345c-0.097,0.348-0.015,0.837-0.139,1.159
		c-0.082,0.212-0.261,0.401-0.371,0.602c-0.52,0.949-0.951,2.205-0.556,3.571c0.058,0.203,0.575,1.345,0.788,1.576
		c0.239,0.257,0.943,0.642,1.344,0.649c0.339,0.007,0.738-0.172,1.067-0.232c0.382-0.068,0.859-0.074,1.206-0.185
		c1.002-0.321,0.804-1.677,1.808-2.133c0.438-0.198,0.945-0.238,1.715-0.278c0.245,0.206,0.359,0.567,0.325,0.881
		c-0.026,0.237-0.25,0.451-0.371,0.788c-0.105,0.296-0.128,0.643-0.232,0.882c-0.138,0.313-0.446,0.541-0.556,0.835
		c-0.073,0.191-0.033,0.429-0.092,0.602c-0.107,0.306-0.515,0.521-0.325,0.835c0.993,0.395,2.194-0.112,3.061,0.047
		c0.365,0.067,1.119,0.504,1.113,1.067c-0.005,0.422-0.326,0.698-0.371,1.159c-0.056,0.581-0.299,1.292-0.324,1.761
		c-0.041,0.769,1.129,2.097,1.947,2.087c0.882-0.012,1.396-0.877,2.458-0.417c0.353,0.152,0.725,0.724,1.114,0.696
		c0.321-0.023,0.806-0.585,1.02-0.974c0.261-0.474,0.28-0.874,0.741-1.113c0.498-0.258,0.893-0.133,1.53-0.371
		c0.285-0.105,0.532-0.287,0.788-0.464c0.225-0.155,0.461-0.56,0.742-0.279c0.37,0.37-0.453,0.578-0.139,0.974
		c0.643,0.341,0.972-0.634,1.438-0.649c0.149-0.005,0.663,0.289,0.927,0.464c0.362,0.238,0.485,0.571,0.881,0.649
		c0.254,0.05,0.663-0.097,1.02-0.047c0.473,0.068,0.755,0.474,1.114,0.464c0.437-0.012,0.646-0.487,1.02-0.556
		c0.818-0.15,1.123,0.091,1.484,0.603c0.404,0.07,0.418-0.467,0.788-0.277c-0.203,0.404,0.069,0.59,0.232,0.927
		c0.105,0.217,0.088,0.37,0.186,0.464c0.221,0.211,0.649,0.211,0.973,0.417c0.342,0.215,0.535,0.616,0.927,1.067
		c0.404,0.461,1.083,0.939,1.623,0.973c0.509,0.033,0.924-0.144,1.346-0.092c0.959,0.118,1.555,0.597,2.226,1.114
		c0.375,0.288,0.713,0.488,0.834,0.833c0.084,0.241,0.043,0.564,0.139,0.835c0.205,0.577,1.047,0.856,0.742,1.855
		c0.139,0.292,0.452,0.398,0.788,0.603c0.269,0.165,0.497,0.509,0.788,0.556c0.188,0.03,0.394-0.057,0.556-0.047
		c0.527,0.038,0.889,0.241,1.345,0.418c0.283,0.109,0.646,0.152,0.835,0.28c0.235,0.158,0.266,0.692,0.556,0.833
		c0.19,0.092,0.611-0.035,0.927,0c0.498,0.058,1.173,0.363,1.623,0.372c0.273,0.006,0.499-0.113,0.741-0.094
		c1.136,0.088,1.78,1.446,2.876,1.855c0.34,0.128,0.878,0.039,1.112,0.139c0.411,0.178,0.758,1.435,0.788,1.993
		c0.094,1.685-1.2,2.226-1.947,3.34c-0.156,0.233-0.242,0.602-0.464,0.928c-0.445,0.654-0.94,0.79-0.881,1.994
		c0.016,0.33,0.185,0.652,0.185,1.02c0,0.449-0.039,1.035-0.139,1.438c-0.076,0.307-0.33,0.556-0.371,0.835
		c-0.041,0.282,0.083,0.501,0.047,0.742c-0.04,0.267-0.307,0.644-0.511,1.019c-0.429,0.792-0.522,1.722-1.391,2.04
		c-0.51,0.187-1.202,0.083-1.761,0.279c-0.226,0.08-0.512,0.288-0.789,0.417c-0.807,0.376-1.957,0.883-2.179,1.716
		c-0.198,0.742,0.276,1.333,0.139,2.18c-0.144,0.252-0.338,0.504-0.556,0.788c-0.2,0.264-0.3,0.573-0.51,0.835
		c-0.279,0.349-0.712,0.504-0.881,0.974c-0.058,0.159-0.021,0.349-0.092,0.602c-0.027,0.094-0.198,0.239-0.279,0.417
		c-0.075,0.165-0.071,0.376-0.139,0.511c-0.212,0.428-0.842,1.401-1.299,1.53c-0.963,0.27-1.978-0.409-2.643-0.28
		c0.096,0.465,0.433,0.417,0.65,0.743c0.126,0.192,0.195,0.446,0.37,0.649c0.208,0.241,0.392,0.33,0.418,0.603
		c0.053,0.571-0.392,1.147-0.696,1.345c-0.277,0.182-0.854,0.288-1.345,0.37c-0.343,0.057-1.228,0.061-1.391,0.28
		c-0.239,0.322,0.126,1.117-0.046,1.437c-0.347,0.678-1.279-0.019-1.762,0.185c-0.041,0.35,0.088,0.717,0.371,0.88
		c0.291,0.171,0.734-0.051,0.927,0.279c-0.095,0.461-0.591,0.521-0.696,0.974c0.013,0.443,0.149,0.558,0.093,0.834
		c-0.121,0.596-1.047,0.571-1.02,1.206c0.04,0.95,1.822,0.561,1.855,1.485c0.019,0.56-0.51,0.566-0.695,1.111
		c-0.1,0.292,0.057,0.36,0,0.603c-0.077,0.329-0.464,0.424-0.464,0.788c-0.001,0.444,0.649,0.932,0.973,1.299
		c0.317,0.36,0.725,0.872,1.159,1.114c0.651,0.359,1.621,0.279,1.902,0.927c-0.089,0.39-0.465,0.494-0.835,0.602
		c-0.03,0-0.062,0-0.092,0c-0.125-0.076-0.57-0.076-0.696,0c-0.217,0-0.433,0-0.649,0c-0.621-0.286-1.374-0.471-2.133-0.741
		c-0.274-0.097-0.583-0.329-0.881-0.462c-0.223-0.102-0.475-0.142-0.65-0.233c-0.399-0.209-0.849-0.889-1.252-1.158
		c-0.245-0.165-0.629-0.252-0.788-0.419c-0.152-0.158-0.235-0.501-0.371-0.694c-0.15-0.213-0.425-0.369-0.603-0.603
		c-0.385-0.512-0.877-1.2-0.881-1.577c-0.004-0.371,0.354-0.623,0.232-0.972c-0.113-0.329-0.825-0.258-0.927-0.651
		c-0.062-0.237,0.205-0.636,0.185-0.972c-0.01-0.195-0.376-0.461-0.232-0.743c0.166-0.324,0.48,0.027,0.742-0.138
		c-0.197-0.67,0.015-1.747-0.65-1.948c-0.342,0.288,0.349,0.936-0.232,1.114c-0.561-0.249-0.431-0.988-0.556-1.53
		c-0.082-0.358-0.26-0.681-0.277-1.067c-0.009-0.203,0.08-0.438,0.046-0.648c-0.098-0.625-0.794-1.137-0.835-1.763
		c-0.019-0.302,0.185-0.557,0.232-0.881c0.033-0.219-0.03-0.465,0-0.696c0.041-0.295,0.204-0.566,0.232-0.835
		c0.055-0.509-0.001-1.383-0.092-1.809c-0.115-0.535-0.54-0.99-0.603-1.575c-0.022-0.212,0.07-0.564,0.047-0.835
		c-0.022-0.252-0.16-0.501-0.185-0.789c-0.023-0.264,0.066-0.516,0.092-0.835c0.049-0.582-0.114-1.231-0.092-1.809
		c0.006-0.17,0.095-0.296,0.092-0.463c-0.006-0.479-0.165-0.961-0.186-1.438c-0.036-0.881,0.097-1.505-0.046-2.318
		c-0.108-0.616-0.241-1.56-0.464-1.946c-0.248-0.432-1.224-1.165-1.715-1.439c-0.324-0.18-0.713-0.242-1.067-0.417
		c-0.755-0.37-2.219-1.153-2.55-1.9c-0.096-0.217-0.083-0.503-0.186-0.743c-0.202-0.475-0.627-0.886-0.928-1.345
		c-0.572-0.875-1.035-1.972-1.623-2.875c-0.297-0.459-0.555-0.979-0.881-1.344c-0.191-0.215-0.802-0.417-0.881-0.743
		c-0.104-0.428-0.421-1.017-0.371-1.344c0.067-0.444,0.929-0.802,0.927-1.205c-0.001-0.344-0.46-0.544-0.556-0.835
		c-0.234-0.709,0.137-1.126,0.417-1.717c0.092-0.193,0.183-0.506,0.279-0.649c0.17-0.255,0.515-0.327,0.741-0.603
		c0.126-0.154,0.206-0.477,0.371-0.696c0.353-0.468,0.922-0.644,1.067-1.067c0.118-0.344,0.187-2.067,0.046-2.643
		c-0.081-0.333-0.391-0.611-0.509-0.928c-0.209-0.56-0.259-1.171-0.835-1.159c-0.356,0.007-0.606,0.401-0.835,0.649
		c-0.055,0.33-0.026,0.687-0.371,0.788c-0.527,0.156-0.73-0.555-1.344-0.741c-0.245-0.075-0.635-0.07-0.788-0.139
		c-0.448-0.202-0.594-0.859-1.067-1.114c-0.396-0.212-0.734-0.138-0.974-0.464c-0.1-0.223-0.021-0.628-0.046-0.927
		c-0.508-0.297-0.939-1.406-1.53-1.669c-0.392-0.174-0.993-0.158-1.484-0.324c-0.231-0.078-0.409-0.179-0.65-0.232
		c-0.297-0.067-0.603-0.07-0.834-0.186c-0.918-0.455-1.413-1.932-2.55-1.9c-0.485,0.013-0.952,0.466-1.391,0.464
		c-0.437-0.002-1.168-0.349-1.716-0.603c-0.569-0.265-1.199-0.409-1.669-0.649c-0.379-0.194-0.643-0.549-0.974-0.697
		c-0.254-0.112-0.625-0.132-0.834-0.231c-0.296-0.14-0.605-0.44-0.974-0.697c-0.35-0.242-0.728-0.612-0.742-0.926
		c-0.015-0.363,0.334-0.672,0.371-1.021c0.119-1.104-0.694-1.898-1.206-2.55c-0.379-0.485-0.824-0.896-1.205-1.344
		c0.021-0.297,0.021-0.351,0-0.649c-0.288-0.28-0.53-0.694-0.835-1.114c-0.275-0.378-0.812-0.781-0.881-1.205
		c-0.086-0.521,0.198-0.979,0-1.485c-0.33-0.84-1.495-0.46-1.346,0.65c0.042,0.306,0.473,0.717,0.603,1.02
		c0.133,0.309,0.108,0.694,0.232,1.067c0.12,0.357,0.479,0.665,0.603,1.067c0.197,0.635,0.191,1.319,0.371,1.715
		c0.159,0.353,0.746,0.686,0.417,1.113c-0.439,0.091-0.608-0.348-0.881-0.603c-0.152-0.142-0.704-0.411-0.788-0.741
		c-0.07-0.273,0.173-0.64,0.092-0.974c-0.159-0.654-1.48-0.671-1.485-1.344c-0.002-0.423,0.553-0.473,0.557-0.882
		c0.004-0.447-0.61-0.825-0.742-1.205c-0.121-0.348-0.14-0.902-0.185-1.391c-0.044-0.459,0.013-0.991-0.094-1.345
		c-0.095-0.318-0.574-0.756-0.881-0.927c-0.406-0.226-0.728-0.132-0.927-0.464c-0.173-0.289-0.287-0.893-0.324-1.205
		c-0.067-0.557-0.015-1.167-0.047-1.762c-0.03-0.596-0.091-1.167,0-1.808c0.229-0.449,0.648-0.67,0.882-1.114
		c0.163-0.309,0.186-0.691,0.37-1.02c0.34-0.605,1.08-1.165,1.577-1.762c0.536-0.643,1.031-1.259,1.344-1.994
		c0.112-0.261,0.415-0.839,0.371-1.159c-0.061-0.446-0.901-0.814-0.835-1.344c0.042-0.329,0.511-0.324,0.65-0.649
		c0.072-0.167,0.136-0.635,0.139-0.835c0.007-0.447-0.229-0.913-0.139-1.391c0.076-0.408,0.683-0.573,0.371-1.02
		c-0.309-0.443-0.864,0.239-1.206-0.047c-0.314-0.263,0.063-0.582,0.092-1.067c0.012-0.193-0.112-0.413-0.092-0.556
		c0.028-0.207,0.432-0.556,0.324-0.696c-0.251-0.317-0.532-1.123-1.067-1.391c-0.68-0.342-1.417-0.111-2.364-0.279
		c-0.581-0.102-0.856-0.645-1.391-0.602c-0.33,0.026-0.52,0.404-0.974,0.602c-0.45,0.197-1.037,0.13-1.484,0.232
		c-0.443,0.102-0.656,0.408-1.114,0.371c-0.382-0.029-0.384-0.373-0.834-0.417c-0.176-0.018-0.508,0.109-0.788,0.139
		c-0.717,0.075-2.011,0.111-2.737-0.047c-0.664-0.144-1.074-0.355-1.808-0.696c-0.552-0.255-1.575-0.57-1.53-0.974
		c0.028-0.26,0.97-0.535,1.344-0.649c0.604-0.184,0.977-0.481,1.438-0.511c0.178-0.01,0.412,0.11,0.649,0.094
		c0.238-0.018,0.53-0.237,0.835-0.279c0.647-0.09,1.561,0.033,1.483-0.603c-0.492-0.389-2.498,0.288-2.55-0.556
		c-0.032-0.511,0.761-0.665,1.345-0.788c0.532-0.112,1.338-0.302,1.808-0.279c0.529,0.027,1.226,0.619,1.53-0.046
		c0.147-0.473-0.18-0.87-0.279-1.253c0.394-0.543,1.118-0.475,1.67-0.556c0.63-0.093,1.144-0.205,1.762-0.464
		c0.542-0.227,1.118-0.379,1.761-0.464c0.63-0.082,1.241-0.32,1.809-0.371c0.467-0.042,0.896-0.005,1.344-0.092
		c0.397-0.077,0.816-0.297,1.253-0.278c0.292,0.013,0.541,0.226,0.834,0.278c0.275,0.048,0.59-0.014,0.882,0.047
		c0.224,0.047,0.425,0.198,0.649,0.232c0.351,0.053,0.728-0.049,1.067,0c0.311,0.044,0.576,0.239,0.881,0.278
		c0.714,0.092,1.532-0.038,2.226,0.093c0.263,0.049,0.501,0.179,0.788,0.232c0.272,0.049,0.57-0.007,0.835,0.046
		c0.369,0.074,0.677,0.423,1.067,0.464c0.718,0.075,1.523-0.312,2.272-0.371c0.542-0.042,1.101,0.022,1.67-0.092
		c0.518-0.104,1.019-0.304,1.484-0.324c0.253-0.011,0.465,0.077,0.695,0.047c0.24-0.033,0.528-0.321,0.788-0.279
		c0.345,0.055,0.285,0.492,0.65,0.603c0.404-0.21,0.807,0.014,1.252,0c0.433-0.015,0.821-0.214,1.299-0.139
		c0.844,0.132,2.023,0.959,2.688,0.51c0.168-0.113,0.128-0.309,0.279-0.603c0.205-0.399,0.609-0.869,0.51-1.438
		c-0.93,0.015-1.817,0.47-2.876,0.51c-1.069-0.67,0.286-1.085,1.067-1.391c0.644-0.253,1.153-0.814,1.949-0.927
		c0.649-0.094,1.362,0.143,2.132,0.232c0.45,0.052,0.899-0.032,1.159,0.046c0.455,0.137,0.69,0.588,1.067,0.696
		c0.163,0.047,0.43,0.042,0.649,0.094c0.417,0.096,0.79,0.316,1.206,0c0.327,0.059,0.365,0.406,0.696,0.464
		c0.308-0.166,0.546-0.589,1.02-0.696c0.206-0.047,0.423,0.035,0.649,0c0.378-0.061,0.882-0.573,1.114-0.094
		c-0.095,0.335-0.601,0.385-0.882,0.65c-0.249,0.235-0.634,0.775-0.602,1.02c0.055,0.442,0.718,0.272,0.741,0.835
		c-0.098,0.324-0.475,0.179-0.788,0.324c-0.286,0.132-0.392,0.406-0.696,0.464c-0.843,0.159-1.542-0.212-2.271-0.185
		c-0.034,0.316,0.361,0.5,0.556,0.602c0.662,0.348,1.2,0.3,2.132,0.279c0.478-0.011,1.027,0.143,1.438-0.14
		c0.26-0.178,0.246-0.57,0.464-0.788c0.262-0.261,0.867-0.527,1.252-0.464c0.211,0.035,0.507,0.286,0.51,0.464
		c0.007,0.421-0.596,0.287-0.603,0.742c0.392,0.235,1.428-0.257,1.484-0.65c0.04-0.286-0.337-0.451-0.325-0.741
		c0.022-0.486,0.683-0.478,0.603-0.974c-0.319-0.251-0.651,0.054-0.974,0c-0.455-0.076-0.865-0.622-1.067-0.974
		c0.201-0.249,0.623-0.083,0.927-0.046c0.341-0.472,0.975-0.656,1.855-0.742c0.313-0.03,0.729-0.155,0.882,0.139
		c0.075,0.439-0.65,0.703-0.51,1.206c0.624,0.156,0.829-0.686,1.345-1.021c0.227-0.148,0.553-0.246,0.881-0.37
		c0.286-0.109,0.601-0.378,0.835-0.371c0.256,0.007,0.302,0.218,0.556,0.324c0.228,0.096,0.527-0.066,0.603,0.232
		c-0.537,0.931-2.541,0.396-3.061,1.344c0.116,0.636-0.314,1.242,0.047,1.67c0.258,0.305,0.838,0.097,0.973,0.417
		c0.181,0.427-0.562,0.427-0.37,0.927c0.491,0.294,1.075-0.28,1.529-0.509c0.487-0.247,1.103-0.539,1.159-1.113
		c-0.245-0.471-1.158-0.106-1.297-0.602c-0.076-0.269,0.28-0.872,0.37-0.974c0.484-0.542,2.172-1.314,3.385-1.206
		c0.231,0.021,0.464,0.161,0.696,0.186c0.797,0.082,1.739-0.344,2.365,0c0.503-0.294,1.108,0.04,1.808-0.047
		c0.54,0.319,0.391,0.997,1.206,1.299c0.221,0.082,0.498,0.023,0.788,0.092c0.215,0.052,0.448,0.304,0.695,0.418
		c0.351,0.159,0.621,0.123,0.696,0.37c0.074,0.242-0.255,0.399-0.232,0.65c0.2,0.165,0.033,0.413,0.139,0.649
		c0.2,0.43,0.705,0.398,1.205,0.603c0.351,0.144,1.101,0.585,1.067,0.927c-0.022,0.229-0.704,0.632-0.927,0.742
		c-0.158,0.077-0.94,0.455-1.205,0.417c-0.438-0.064-0.609-0.951-1.206-0.927c-0.26,0.01-0.505,0.167-0.511,0.511
		c-0.009,0.609,0.682,0.632,0.696,1.159c0.019,0.63-0.344,0.673-0.881,1.065c-0.384-0.156-0.707-0.375-1.206-0.417
		c-0.296,0.352,0.487,0.479,0.232,0.927c-0.745,0.158-1.313-0.211-1.993-0.417c-0.213-0.064-0.52-0.039-0.696-0.139
		c-0.263-0.152-0.341-0.603-0.557-0.835c-0.251-0.269-0.751-0.651-1.159-0.649c-0.572,0.001-1.402,0.713-1.855,0.046
		c0.314-1.062,1.801-0.274,2.782-0.649c0.365-0.139,0.491-0.526,0.789-0.696c0.6-0.342,1.574-0.39,1.484-1.066
		c-0.046-0.341-0.522-0.336-0.788-0.511c-0.363-0.237-0.64-1.071-1.159-1.112c-0.267-0.021-0.459,0.205-0.742,0.232
		c-0.6,0.056-1.267-0.241-1.808,0c-0.252,0.144-0.082,0.375-0.279,0.649c-0.162,0.225-0.543,0.288-0.696,0.51
		c-0.178,0.261-0.142,0.586-0.371,0.788c-0.381,0.337-1.186,0.391-1.669,0.556c-0.215,0.074-0.487,0.327-0.696,0.325
		c-0.383-0.002-0.547-0.515-0.974-0.325c-0.037,0.496,0.525,0.698,0.881,0.927c0.385,0.248,0.79,0.495,0.928,0.927
		c-0.377,0.801-0.979-0.042-1.576-0.046c-0.658-0.005-1.618,1.253-2.179,0.232c0.139-0.541,0.735-0.625,0.881-1.159
		c-0.655,0.111-1.225,0.663-1.994,0.835c-0.323,0.071-0.638,0.054-0.928,0.138c-0.555,0.163-0.942,0.573-1.529,0.789
		c-0.23,0.084-0.503,0.059-0.742,0.138c-0.56,0.187-1.231,0.522-1.808,0.835c-0.59,0.32-1.257,0.656-1.623,0.974
		c-0.198,0.171-0.713,0.78-0.696,0.973c0.023,0.276,0.543,0.368,0.556,0.65c-0.012,0.171-0.301,0.54-0.092,0.788
		c0.19,0.226,0.57,0.043,0.973,0.092c0.708,0.088,1.172,0.673,1.715,0.974c0.411,0.227,1.021,0.498,1.485,0.556
		c0.637,0.08,1.35-0.186,1.437,0.325c0.084,0.49-0.6,0.666-0.649,0.974c0.343,0.453-0.233,0.67-0.232,1.067
		c0.001,0.322,0.396,0.804,0.741,0.834c0.467,0.04,1.151-0.46,1.345-0.927c0.231-0.556,0.132-1.31,0.556-1.715
		c2.16,0.06,3.988-0.981,3.849-3.199c-0.014-0.219-0.138-0.501-0.092-0.742c0.068-0.358,0.684-0.659,0.602-1.112
		c0.605-0.186,0.58-1.157,1.206-1.299c0.525-0.118,1.118,0.371,1.808,0.324c0.225-0.015,0.516-0.217,0.742-0.185
		c0.453,0.063,0.726,0.622,1.067,0.881c0.301,0.231,0.618,0.157,0.696,0.464c-0.09,0.52-0.455,0.533-0.418,1.02
		c0.034,0.425,0.475,0.747,0.696,0.789c0.338,0.063,0.822-0.118,1.159-0.279c0.62-0.294,1.152-1.179,1.67-1.067
		c0.409,0.089,0.728,1.388,0.788,1.855c0.064,0.501-0.068,0.884-0.046,1.345c0.06,0.782,1.045,0.702,1.529,1.113
		c0.146,0.124,0.204,0.441,0.325,0.603c0.235,0.314,0.52,0.314,0.556,0.649c0.087,0.801-0.726,0.869-0.65,1.762
		c-0.168,0.347-0.59,0.326-0.556,0.788c0.054,0.732,1.105,0.171,1.391,0.742c0.155,0.307-0.026,0.535-0.139,0.973
		c0.359,0.429,0.357,1.113-0.278,1.114C83.015,170.868,82.909,170.454,82.519,170.358z M32.394,169.153
		c0.219-0.225-0.093-0.7-0.418-0.51C31.944,168.812,32.036,169.222,32.394,169.153z M64.76,173.372
		c-0.193-0.189-0.823-0.135-1.253-0.093c-0.303,0.031-0.664,0.095-0.696,0.324C63.294,173.825,64.609,173.984,64.76,173.372z
		 M62.348,172.584c0.364-0.287,0.203-0.872-0.185-0.974c-0.152-0.04-0.355,0.112-0.603,0.093c-0.262-0.02-0.524-0.26-0.741-0.279
		c-0.37-0.032-0.746,0.151-0.882,0.324c-0.014,0.277,0.204,0.322,0.186,0.603c-0.451,0.322-0.212,1.399,0.232,1.438
		c0.471,0.041,0.714-1.191,1.344-1.298C61.928,172.451,62.045,172.621,62.348,172.584z M61.699,174.438
		c-0.659-0.234-1.268,0.159-1.808,0.232c-0.322,0.043-0.909-0.066-0.835,0.417c0.06,0.393,0.667,0.251,1.02,0.139
		C60.809,174.994,61.272,174.795,61.699,174.438z M59.66,170.914c0.924-0.393-0.183-1.605-0.603-1.716
		c-0.752-0.197-1.821,0.552-2.69,0.788c-0.489,0.133-0.955,0.145-1.067,0.557c0.439,0.726,1.307-0.159,1.947-0.047
		c0.324,0.057,0.514,0.501,0.835,0.556C58.301,171.091,59.572,170.951,59.66,170.914z M59.01,171.656
		c-0.192-0.226-1.232,0.027-1.53,0.232c-0.205,0.142-0.344,0.487-0.556,0.742c-0.219,0.263-0.464,0.467-0.649,0.696
		c-0.167,0.206-1.107,1.561-0.371,1.715c0.314,0.065,0.959-0.586,1.02-0.835c0.209-0.85,0.592-1.457,1.252-1.855
		C58.557,172.121,58.948,172.15,59.01,171.656z M53.213,166.463c0.518-0.019,0.868-1.548,0-1.345
		C52.633,165.253,52.492,166.489,53.213,166.463z M50.71,201.24c0.024-0.069,0.068-0.117,0.092-0.186
		C50.662,200.592,50.217,201.222,50.71,201.24z M31.096,162.429c0.01-0.088-0.053-0.103-0.046-0.186
		c-0.142-0.001-0.306-0.027-0.279,0.14C30.838,162.516,31.017,162.539,31.096,162.429z M79.83,155.148
		c0.228,0.028,0.357-0.044,0.324-0.277C79.948,154.726,79.648,154.916,79.83,155.148z M74.498,150.605
		c-0.06-0.064-0.219-0.064-0.279,0c0,0.061,0,0.123,0,0.185C74.416,150.832,74.452,150.714,74.498,150.605z M56.877,154.175
		c0.155-0.1,0.391-0.234,0.277-0.464c-0.512-0.24-1.377-0.057-2.132-0.139c-0.428-0.605-1.145-0.699-1.206,0.279
		C54.679,154.551,55.986,153.524,56.877,154.175z M48.577,158.951c0.263-0.091,0.629-0.044,0.695-0.325
		c-0.217-0.173-0.439-0.407-0.695-0.417c-0.336-0.012-0.498,0.286-0.835,0.464c-0.392,0.207-0.936,0.258-0.973,0.603
		C47.486,159.416,48.133,159.104,48.577,158.951z M48.345,155.612c0.296-0.05,0.601,0.083,0.789-0.185
		c-0.221-1.021-1.633-0.397-2.458-0.324c-0.173,0.29-0.405,0.522-0.464,0.928C46.852,156.191,47.623,155.735,48.345,155.612z
		 M62.256,203.002c0.367-0.06,0.26-0.902-0.185-0.697C61.734,202.461,61.909,203.057,62.256,203.002z"/>
	<path style="fill:#2D93BA;" d="M31.05,162.243c-0.007,0.083,0.056,0.098,0.046,0.186c-0.078,0.11-0.258,0.087-0.324-0.047
		C30.744,162.216,30.908,162.242,31.05,162.243z"/>
	<path style="fill:#2D93BA;" d="M29.659,164.98c-0.098,0.303-0.367,0.437-0.65,0.556c-0.089-0.067-0.166-0.144-0.232-0.232
		C28.797,164.864,29.423,164.539,29.659,164.98z"/>
</g>
<ellipse style="fill:#E56353;" cx="229.527" cy="169.728" rx="21.801" ry="21.77"/>
<ellipse style="fill:#FCD462;" cx="201.116" cy="169.728" rx="21.801" ry="21.77"/>
<g>
	<rect x="21.199" y="222.157" style="fill:#FFFFFF;" width="70.881" height="8.663"/>
	<rect x="21.199" y="279.142" style="fill:#FFFFFF;" width="36.045" height="8.663"/>
	<rect x="86.249" y="279.194" style="fill:#FFFFFF;" width="36.045" height="8.663"/>
	<rect x="148.385" y="279.245" style="fill:#FFFFFF;" width="36.045" height="8.663"/>
	<rect x="213.435" y="279.245" style="fill:#FFFFFF;" width="36.045" height="8.663"/>
	<rect x="21.199" y="253.235" style="fill:#FFFFFF;" width="106.501" height="8.663"/>
</g>
<path style="fill:#FCD462;" d="M57.827,154.478H21.969c-1.973,0-3.571,1.597-3.571,3.567v35.807c0,1.97,1.598,3.567,3.571,3.567
	h35.858c1.972,0,3.571-1.597,3.571-3.567v-35.807C61.398,156.075,59.799,154.478,57.827,154.478z"/>
<path style="fill:#DC8744;" d="M61.397,168.531V164.8H51.046v-10.351h-3.731V164.8H32.481v-10.351H28.75V164.8H18.399v3.732H28.75
	v14.833H18.399v3.732H28.75v10.351h3.731v-10.351h14.833v10.351h3.731v-10.351h10.351v-3.732H51.046v-14.833H61.397z
	 M47.315,183.364H32.481v-14.833h14.833V183.364z"/>
<g>
</g>
<g>
</g>
<g>
</g>
<g>
</g>
<g>
</g>
<g>
</g>
<g>
</g>
<g>
</g>
<g>
</g>
<g>
</g>
<g>
</g>
<g>
</g>
<g>
</g>
<g>
</g>
<g>
</g>
</svg>
