<svg xmlns="http://www.w3.org/2000/svg" width="21" height="18" viewBox="0 0 21 18">
  <metadata><?xpacket begin="﻿" id="W5M0MpCehiHzreSzNTczkc9d"?>
<x:xmpmeta xmlns:x="adobe:ns:meta/" x:xmptk="Adobe XMP Core 5.6-c138 79.159824, 2016/09/14-01:09:01        ">
   <rdf:RDF xmlns:rdf="http://www.w3.org/1999/02/22-rdf-syntax-ns#">
      <rdf:Description rdf:about=""/>
   </rdf:RDF>
</x:xmpmeta>
                                                                                                    
                                                                                                    
                                                                                                    
                                                                                                    
                                                                                                    
                                                                                                    
                                                                                                    
                                                                                                    
                                                                                                    
                                                                                                    
                                                                                                    
                                                                                                    
                                                                                                    
                                                                                                    
                                                                                                    
                                                                                                    
                                                                                                    
                                                                                                    
                                                                                                    
                                                                                                    
                           
<?xpacket end="w"?></metadata>
<defs>
    <style>
      .cls-1 {
        fill: #d1d1d1;
        fill-rule: evenodd;
      }
    </style>
  </defs>
  <path id="Forma_1" data-name="Forma 1" class="cls-1" d="M477.983,3985H459.017a1.012,1.012,0,0,0-1.017,1.01v11.82a1.012,1.012,0,0,0,1.017,1.01h7.093v2.29h-2.76a0.935,0.935,0,1,0,0,1.87h10.3a0.935,0.935,0,1,0,0-1.87h-2.76v-2.29h7.093a1.012,1.012,0,0,0,1.017-1.01v-11.82A1.012,1.012,0,0,0,477.983,3985Zm-0.508,12.32h-17.95v-10.81h17.95v10.81Zm-14.665-4.83,3.207,1.48a0.6,0.6,0,0,0,.263.06,0.575,0.575,0,0,0,.335-0.1,0.608,0.608,0,0,0,.288-0.52v-0.02a0.617,0.617,0,0,0-.36-0.56l-2.007-.92,2.007-.93a0.617,0.617,0,0,0,.36-0.56v-0.02a0.608,0.608,0,0,0-.288-0.52,0.657,0.657,0,0,0-.336-0.1,0.6,0.6,0,0,0-.262.06l-3.207,1.48a0.618,0.618,0,0,0-.361.56v0.05A0.616,0.616,0,0,0,462.81,3992.49Zm4.122,3.02a0.62,0.62,0,0,0,.5.25h0.016a0.617,0.617,0,0,0,.594-0.43l2.113-6.5a0.628,0.628,0,0,0-.09-0.56,0.621,0.621,0,0,0-.5-0.25h-0.016a0.616,0.616,0,0,0-.593.43l-2.114,6.5A0.631,0.631,0,0,0,466.932,3995.51Zm3.165-5.09a0.617,0.617,0,0,0,.36.56l2.006,0.93-2.006.92a0.617,0.617,0,0,0-.36.56v0.02a0.608,0.608,0,0,0,.288.52,0.575,0.575,0,0,0,.335.1,0.606,0.606,0,0,0,.263-0.06l3.207-1.48a0.618,0.618,0,0,0,.361-0.56v-0.05a0.618,0.618,0,0,0-.361-0.56l-3.207-1.48a0.6,0.6,0,0,0-.262-0.06,0.66,0.66,0,0,0-.336.1,0.608,0.608,0,0,0-.288.52v0.02h0Z" transform="translate(-458 -3985)"/>
</svg>
