<svg xmlns="http://www.w3.org/2000/svg" width="20" height="18" viewBox="0 0 20 18">
  <metadata><?xpacket begin="﻿" id="W5M0MpCehiHzreSzNTczkc9d"?>
<x:xmpmeta xmlns:x="adobe:ns:meta/" x:xmptk="Adobe XMP Core 5.6-c138 79.159824, 2016/09/14-01:09:01        ">
   <rdf:RDF xmlns:rdf="http://www.w3.org/1999/02/22-rdf-syntax-ns#">
      <rdf:Description rdf:about=""/>
   </rdf:RDF>
</x:xmpmeta>
                                                                                                    
                                                                                                    
                                                                                                    
                                                                                                    
                                                                                                    
                                                                                                    
                                                                                                    
                                                                                                    
                                                                                                    
                                                                                                    
                                                                                                    
                                                                                                    
                                                                                                    
                                                                                                    
                                                                                                    
                                                                                                    
                                                                                                    
                                                                                                    
                                                                                                    
                                                                                                    
                           
<?xpacket end="w"?></metadata>
<defs>
    <style>
      .cls-1 {
        fill: #d1d1d1;
        fill-rule: evenodd;
      }
    </style>
  </defs>
  <path id="Forma_1" data-name="Forma 1" class="cls-1" d="M464.333,3700h0c4.6,0,8.334,3.06,8.334,6.83s-3.731,6.83-8.334,6.83a9.25,9.25,0,0,1-1.3-.09,7.916,7.916,0,0,1-5.923,2.18v-0.44a2.862,2.862,0,0,0,1.979-3.18,6.428,6.428,0,0,1-3.09-5.3C456,3703.06,459.731,3700,464.333,3700Zm8.959,15.3a2.625,2.625,0,0,0,1.6,2.32V3718a6.578,6.578,0,0,1-4.985-1.87,8.7,8.7,0,0,1-5.529-1.14,10.56,10.56,0,0,0,6.681-2.3,8.165,8.165,0,0,0,2.125-2.59,7.041,7.041,0,0,0,.805-3.27c0-.19-0.008-0.37-0.022-0.55a5.316,5.316,0,0,1,2.036,4.07,5.5,5.5,0,0,1-2.678,4.55A2.693,2.693,0,0,0,473.292,3715.3Z" transform="translate(-456 -3700)"/>
</svg>
