<svg xmlns="http://www.w3.org/2000/svg" width="17" height="18" viewBox="0 0 17 18">
  <metadata><?xpacket begin="﻿" id="W5M0MpCehiHzreSzNTczkc9d"?>
<x:xmpmeta xmlns:x="adobe:ns:meta/" x:xmptk="Adobe XMP Core 5.6-c138 79.159824, 2016/09/14-01:09:01        ">
   <rdf:RDF xmlns:rdf="http://www.w3.org/1999/02/22-rdf-syntax-ns#">
      <rdf:Description rdf:about=""/>
   </rdf:RDF>
</x:xmpmeta>
                                                                                                    
                                                                                                    
                                                                                                    
                                                                                                    
                                                                                                    
                                                                                                    
                                                                                                    
                                                                                                    
                                                                                                    
                                                                                                    
                                                                                                    
                                                                                                    
                                                                                                    
                                                                                                    
                                                                                                    
                                                                                                    
                                                                                                    
                                                                                                    
                                                                                                    
                                                                                                    
                           
<?xpacket end="w"?></metadata>
<defs>
    <style>
      .cls-1 {
        fill: #d1d1d1;
        fill-rule: evenodd;
      }
    </style>
  </defs>
  <path id="Forma_1" data-name="Forma 1" class="cls-1" d="M472.618,3858.43h-12.3a0.32,0.32,0,0,0,0,.64h12.3A2.251,2.251,0,1,0,472.618,3858.43Zm-6.418-6.75h-5.885a0.32,0.32,0,0,0,0,.64h5.865a2.264,2.264,0,0,0,4.509,0h6a0.32,0.32,0,0,0,0-.64h-6.016A2.259,2.259,0,0,0,466.2,3851.68Zm-4-8.68a2.251,2.251,0,1,0,2.178,2.57h12.3a0.32,0.32,0,0,0,0-.64h-12.3A2.22,2.22,0,0,0,462.2,3843Z" transform="translate(-460 -3843)"/>
</svg>
