<svg id="Icon" xmlns="http://www.w3.org/2000/svg" width="40" height="37" viewBox="0 0 40 37">
  <metadata><?xpacket begin="﻿" id="W5M0MpCehiHzreSzNTczkc9d"?>
<x:xmpmeta xmlns:x="adobe:ns:meta/" x:xmptk="Adobe XMP Core 5.6-c138 79.159824, 2016/09/14-01:09:01        ">
   <rdf:RDF xmlns:rdf="http://www.w3.org/1999/02/22-rdf-syntax-ns#">
      <rdf:Description rdf:about=""/>
   </rdf:RDF>
</x:xmpmeta>
                                                                                                    
                                                                                                    
                                                                                                    
                                                                                                    
                                                                                                    
                                                                                                    
                                                                                                    
                                                                                                    
                                                                                                    
                                                                                                    
                                                                                                    
                                                                                                    
                                                                                                    
                                                                                                    
                                                                                                    
                                                                                                    
                                                                                                    
                                                                                                    
                                                                                                    
                                                                                                    
                           
<?xpacket end="w"?></metadata>
<defs>
    <style>
      .cls-1, .cls-2 {
        fill: #42cba2;
      }

      .cls-1 {
        opacity: 0.1;
      }

      .cls-2 {
        fill-rule: evenodd;
      }
    </style>
  </defs>
  <rect id="Rounded_Rectangle_667" data-name="Rounded Rectangle 667" class="cls-1" x="6.969" y="5.28" width="33.031" height="31.72" rx="5" ry="5"/>
  <path id="icon-2" data-name="icon" class="cls-2" d="M468.454,3780.69l-0.816-.16a1.091,1.091,0,0,1-.827-0.7,1.124,1.124,0,0,1,.139-1.08l0.513-.7a0.586,0.586,0,0,0-.057-0.75l-1.107-1.12a0.571,0.571,0,0,0-.717-0.07l-0.688.47a1.058,1.058,0,0,1-1.071.1,1.09,1.09,0,0,1-.655-0.86l-0.132-.87a0.561,0.561,0,0,0-.558-0.48h-1.566a0.563,0.563,0,0,0-.555.46l-0.2,1.07a1.11,1.11,0,0,1-.668.83,1.071,1.071,0,0,1-1.051-.11l-0.888-.61a0.57,0.57,0,0,0-.717.07l-1.107,1.12a0.586,0.586,0,0,0-.057.75l0.513,0.7a1.124,1.124,0,0,1,.138,1.08,1.088,1.088,0,0,1-.826.7l-0.816.16a0.571,0.571,0,0,0-.459.56v1.59a0.564,0.564,0,0,0,.48.56l0.856,0.14a1.1,1.1,0,0,1,.852.66,1.132,1.132,0,0,1-.1,1.09l-0.465.69a0.582,0.582,0,0,0,.068.73l1.107,1.12a0.568,0.568,0,0,0,.734.06l0.7-.52a1.076,1.076,0,0,1,1.065-.14,1.1,1.1,0,0,1,.687.84l0.157,0.82a0.572,0.572,0,0,0,.555.47h1.566a0.571,0.571,0,0,0,.558-0.49l0.093-.61a1.113,1.113,0,0,1,1.76-.74l0.491,0.37a0.568,0.568,0,0,0,.734-0.06l1.107-1.12a0.585,0.585,0,0,0,.068-0.73l-0.465-.69a1.132,1.132,0,0,1-.1-1.09,1.094,1.094,0,0,1,.852-0.66l0.856-.14a0.564,0.564,0,0,0,.479-0.56v-1.59A0.571,0.571,0,0,0,468.454,3780.69Zm-0.671,1.66-0.377.06a2.2,2.2,0,0,0-1.716,1.33,2.294,2.294,0,0,0,.2,2.19l0.2,0.3-0.435.44-0.1-.07a2.236,2.236,0,0,0-3.546,1.49l-0.018.12H461.38l-0.069-.36a2.266,2.266,0,0,0-1.384-1.69,2.211,2.211,0,0,0-2.148.28l-0.307.23-0.434-.44,0.2-.3a2.3,2.3,0,0,0,.2-2.19,2.24,2.24,0,0,0-1.716-1.34l-0.377-.05v-0.63l0.358-.06a2.252,2.252,0,0,0,1.665-1.41,2.277,2.277,0,0,0-.279-2.17l-0.226-.31,0.435-.44,0.5,0.34a2.224,2.224,0,0,0,2.118.22,2.277,2.277,0,0,0,1.345-1.67l0.114-.61h0.614l0.058,0.39a2.245,2.245,0,0,0,1.321,1.73,2.191,2.191,0,0,0,2.156-.2l0.3-.2,0.434,0.44-0.225.31a2.287,2.287,0,0,0,1.386,3.58l0.358,0.06v0.63Zm-6.218-3.3a2.865,2.865,0,1,0,2.826,2.86A2.845,2.845,0,0,0,461.565,3779.05Zm0,4.58a1.72,1.72,0,1,1,1.7-1.72A1.709,1.709,0,0,1,461.565,3783.63Zm-20.63-25.2a2.58,2.58,0,1,0,2.543,2.58A2.567,2.567,0,0,0,440.935,3758.43Zm0,4.01a1.43,1.43,0,1,1,1.413-1.43A1.422,1.422,0,0,1,440.935,3762.44Zm22.326-2.86a0.575,0.575,0,1,1-.565.57A0.571,0.571,0,0,1,463.261,3759.58Zm-2.261,0a0.575,0.575,0,1,1-.565.57A0.571,0.571,0,0,1,461,3759.58Zm3.391,1.72a0.57,0.57,0,1,1-.565.57A0.565,0.565,0,0,1,464.391,3761.3Zm-2.261,0a0.57,0.57,0,1,1-.565.57A0.564,0.564,0,0,1,462.13,3761.3Zm-3.391-1.72a0.575,0.575,0,1,1-.565.57A0.571,0.571,0,0,1,458.739,3759.58Zm1.13,1.72a0.57,0.57,0,1,1-.565.57A0.564,0.564,0,0,1,459.869,3761.3Zm-3.391-1.72a0.575,0.575,0,1,1-.565.57A0.571,0.571,0,0,1,456.478,3759.58Zm1.131,1.72a0.57,0.57,0,1,1-.566.57A0.564,0.564,0,0,1,457.609,3761.3Zm-3.392-1.72a0.575,0.575,0,1,1-.565.57A0.571,0.571,0,0,1,454.217,3759.58Zm1.131,1.72a0.57,0.57,0,1,1-.565.57A0.564,0.564,0,0,1,455.348,3761.3Zm13.565,3.09v-6.75a2.622,2.622,0,0,0-2.6-2.64H437.6a2.622,2.622,0,0,0-2.6,2.64v6.75a2.62,2.62,0,0,0,1,2.06,2.655,2.655,0,0,0-1,2.07v6.74a2.625,2.625,0,0,0,1,2.07,2.655,2.655,0,0,0-1,2.07v6.74a2.622,2.622,0,0,0,2.6,2.64h16.048v-1.14H437.6a1.487,1.487,0,0,1-1.474-1.5v-6.74a1.487,1.487,0,0,1,1.474-1.5h13.222v-1.14H437.6a1.487,1.487,0,0,1-1.474-1.5v-6.74a1.487,1.487,0,0,1,1.474-1.5h28.7a1.488,1.488,0,0,1,1.475,1.5v6.52h1.13v-6.52A2.626,2.626,0,0,1,468.913,3764.39Zm-31.309,1.49a1.485,1.485,0,0,1-1.474-1.49v-6.75a1.487,1.487,0,0,1,1.474-1.5h28.7a1.488,1.488,0,0,1,1.475,1.5v6.75a1.485,1.485,0,0,1-1.474,1.49H437.6Zm0.787,6.01a2.544,2.544,0,1,0,2.544-2.58A2.567,2.567,0,0,0,438.391,3771.89Zm3.957,0a1.413,1.413,0,1,1-1.413-1.43A1.422,1.422,0,0,1,442.348,3771.89Zm20.913-1.43a0.571,0.571,0,0,1,.565.57,0.565,0.565,0,1,1-1.13,0A0.571,0.571,0,0,1,463.261,3770.46Zm-2.261,0a0.571,0.571,0,0,1,.565.57,0.565,0.565,0,1,1-1.13,0A0.571,0.571,0,0,1,461,3770.46Zm3.391,1.72a0.57,0.57,0,1,1-.565.57A0.565,0.565,0,0,1,464.391,3772.18Zm-2.261,0a0.57,0.57,0,1,1-.565.57A0.564,0.564,0,0,1,462.13,3772.18Zm-3.391-1.72a0.571,0.571,0,0,1,.565.57,0.565,0.565,0,1,1-1.13,0A0.571,0.571,0,0,1,458.739,3770.46Zm1.13,1.72a0.57,0.57,0,1,1-.565.57A0.564,0.564,0,0,1,459.869,3772.18Zm-3.391-1.72a0.571,0.571,0,0,1,.565.57,0.565,0.565,0,1,1-1.13,0A0.571,0.571,0,0,1,456.478,3770.46Zm1.131,1.72a0.57,0.57,0,1,1-.566.57A0.564,0.564,0,0,1,457.609,3772.18Zm-3.392-1.72a0.571,0.571,0,0,1,.566.57A0.566,0.566,0,1,1,454.217,3770.46Zm1.131,1.72a0.57,0.57,0,1,1-.565.57A0.564,0.564,0,0,1,455.348,3772.18Zm-16.957,10.59a2.544,2.544,0,1,0,2.544-2.58A2.567,2.567,0,0,0,438.391,3782.77Zm3.957,0a1.413,1.413,0,1,1-1.413-1.43A1.422,1.422,0,0,1,442.348,3782.77Z" transform="translate(-435 -3755)"/>
</svg>
