<svg id="Icon" xmlns="http://www.w3.org/2000/svg" width="38" height="43" viewBox="0 0 38 43">
  <metadata><?xpacket begin="﻿" id="W5M0MpCehiHzreSzNTczkc9d"?>
<x:xmpmeta xmlns:x="adobe:ns:meta/" x:xmptk="Adobe XMP Core 5.6-c138 79.159824, 2016/09/14-01:09:01        ">
   <rdf:RDF xmlns:rdf="http://www.w3.org/1999/02/22-rdf-syntax-ns#">
      <rdf:Description rdf:about=""/>
   </rdf:RDF>
</x:xmpmeta>
                                                                                                    
                                                                                                    
                                                                                                    
                                                                                                    
                                                                                                    
                                                                                                    
                                                                                                    
                                                                                                    
                                                                                                    
                                                                                                    
                                                                                                    
                                                                                                    
                                                                                                    
                                                                                                    
                                                                                                    
                                                                                                    
                                                                                                    
                                                                                                    
                                                                                                    
                                                                                                    
                           
<?xpacket end="w"?></metadata>
<defs>
    <style>
      .cls-1, .cls-2 {
        fill: #42cba2;
      }

      .cls-1 {
        opacity: 0.1;
      }

      .cls-2 {
        fill-rule: evenodd;
      }
    </style>
  </defs>
  <rect id="Rounded_Rectangle_663" data-name="Rounded Rectangle 663" class="cls-1" x="6.5" y="4.69" width="31.5" height="38.31" rx="5" ry="5"/>
  <path id="icon-2" data-name="icon" class="cls-2" d="M438.429,3492.51a0.7,0.7,0,1,1-.686.7A0.691,0.691,0,0,1,438.429,3492.51Zm0,4.18a0.7,0.7,0,1,1-.686.7A0.691,0.691,0,0,1,438.429,3496.69Zm2.058-2.09a0.7,0.7,0,1,1-.686.7A0.691,0.691,0,0,1,440.487,3494.6Zm4.115,0a0.7,0.7,0,1,1-.686.7A0.691,0.691,0,0,1,444.6,3494.6Zm-2.058,2.09a0.7,0.7,0,1,1-.686.7A0.691,0.691,0,0,1,442.544,3496.69Zm4.115,0a0.7,0.7,0,1,1-.685.7A0.691,0.691,0,0,1,446.659,3496.69Zm2.058-2.09a0.7,0.7,0,1,1-.686.7A0.691,0.691,0,0,1,448.717,3494.6Zm4.115,0a0.7,0.7,0,1,1-.686.7A0.691,0.691,0,0,1,452.832,3494.6Zm-2.057,2.09a0.7,0.7,0,1,1-.686.7A0.691,0.691,0,0,1,450.775,3496.69Zm4.115,0a0.7,0.7,0,1,1-.686.7A0.691,0.691,0,0,1,454.89,3496.69Zm2.057-2.09a0.7,0.7,0,1,1-.686.7A0.691,0.691,0,0,1,456.947,3494.6Zm4.115,0a0.7,0.7,0,1,1-.686.7A0.691,0.691,0,0,1,461.062,3494.6Zm-2.057,2.09a0.7,0.7,0,1,1-.686.7A0.691,0.691,0,0,1,459.005,3496.69Zm4.115,0a0.7,0.7,0,1,1-.686.7A0.691,0.691,0,0,1,463.12,3496.69Zm2.057-2.09a0.7,0.7,0,1,1-.685.7A0.691,0.691,0,0,1,465.177,3494.6Zm2.058-2.09a0.7,0.7,0,1,1-.686.7A0.691,0.691,0,0,1,467.235,3492.51Zm-22.633,6.27a0.7,0.7,0,1,1-.686.7A0.691,0.691,0,0,1,444.6,3498.78Zm4.115,0a0.7,0.7,0,1,1-.686.7A0.691,0.691,0,0,1,448.717,3498.78Zm4.115,0a0.7,0.7,0,1,1-.686.7A0.691,0.691,0,0,1,452.832,3498.78Zm4.115,0a0.7,0.7,0,1,1-.686.7A0.691,0.691,0,0,1,456.947,3498.78Zm4.115,0a0.7,0.7,0,0,1,0,1.4A0.7,0.7,0,0,1,461.062,3498.78Zm8.183-19.75a0.257,0.257,0,0,0-.02-0.05l-0.018-.05c-0.836-3.4-8.071-5.93-17.061-5.93s-16.224,2.53-17.06,5.93c-0.008.02-.011,0.03-0.018,0.05a0.172,0.172,0,0,0-.02.05,0.641,0.641,0,0,0-.048.24v25.78a0.678,0.678,0,0,0,.08.32c0.81,3.41,8.057,5.96,17.066,5.96,8.989,0,16.224-2.54,17.061-5.94a0.686,0.686,0,0,0,.086-0.34v-25.78A0.641,0.641,0,0,0,469.245,3479.03Zm-3.634,19.92a0.673,0.673,0,0,0-.434-0.17,0.691,0.691,0,0,0-.685.7c0,0.01,0,.01,0,0.02a23.872,23.872,0,0,1-5.174,1.46,0.686,0.686,0,0,0-.317-0.09,0.673,0.673,0,0,0-.5.23c-0.93.15-1.917,0.26-2.951,0.34a0.682,0.682,0,0,0-.66-0.57,0.69,0.69,0,0,0-.676.65c-0.674.03-1.359,0.05-2.068,0.05-0.234,0-.458-0.01-0.688-0.01a0.68,0.68,0,0,0-1.359-.04c-0.973-.05-1.913-0.12-2.806-0.22a0.69,0.69,0,0,0-.634-0.43,0.657,0.657,0,0,0-.533.28,28.493,28.493,0,0,1-5.142-1.2,0.689,0.689,0,1,0-1.183-.47c0,0.01,0,.01,0,0.02-2.186-.93-3.434-2.07-3.434-3.16a1.49,1.49,0,0,1,.021-0.23,0.8,0.8,0,0,0-.006-0.12,0.7,0.7,0,0,0-.015-1.39v-2.79a0.679,0.679,0,0,0,.675-0.64,15.871,15.871,0,0,0,4.833,2.15,0.665,0.665,0,0,0,1.195.31,40.013,40.013,0,0,0,9.071.97,38.591,38.591,0,0,0,10.308-1.29,0.681,0.681,0,0,0,.666.59,0.683,0.683,0,0,0,.613-0.99,12.265,12.265,0,0,0,4.188-2.29v5.18a0.685,0.685,0,0,0-.021.31,1.376,1.376,0,0,1,.021.23,1.616,1.616,0,0,1-.152.63,0.682,0.682,0,0,0-.534-0.28,0.7,0.7,0,0,0-.277,1.33A7.408,7.408,0,0,1,465.611,3498.95Zm2.31-10.8a0.3,0.3,0,0,0-.022.07c-0.389,2.41-6.812,4.99-15.753,4.99s-15.364-2.58-15.752-4.99c0-.03-0.017-0.04-0.022-0.07v-5.91c2.353,2.21,7.711,4,15.774,4s13.422-1.79,15.775-4v5.91Zm-15.775-13.76c8.942,0,15.365,2.58,15.753,4.99v0.01a1.384,1.384,0,0,1,.021.23c0,2.47-6.478,5.23-15.775,5.23s-15.774-2.76-15.774-5.23a1.384,1.384,0,0,1,.021-0.23v-0.01C436.782,3476.97,443.2,3474.39,452.146,3474.39Zm15.753,30.55c-0.389,2.41-6.812,4.99-15.753,4.99s-15.364-2.58-15.752-4.99c-0.006-.03-0.013-0.06-0.022-0.09v-5.88c2.353,2.2,7.711,3.99,15.774,3.99s13.422-1.79,15.775-3.99v5.88A0.59,0.59,0,0,0,467.9,3504.94Z" transform="translate(-435 -3473)"/>
</svg>
