<svg id="Icon" xmlns="http://www.w3.org/2000/svg" xmlns:xlink="http://www.w3.org/1999/xlink" width="70" height="73" viewBox="0 0 70 73">
  <metadata><?xpacket begin="﻿" id="W5M0MpCehiHzreSzNTczkc9d"?>
<x:xmpmeta xmlns:x="adobe:ns:meta/" x:xmptk="Adobe XMP Core 5.6-c138 79.159824, 2016/09/14-01:09:01        ">
   <rdf:RDF xmlns:rdf="http://www.w3.org/1999/02/22-rdf-syntax-ns#">
      <rdf:Description rdf:about=""/>
   </rdf:RDF>
</x:xmpmeta>
                                                                                                    
                                                                                                    
                                                                                                    
                                                                                                    
                                                                                                    
                                                                                                    
                                                                                                    
                                                                                                    
                                                                                                    
                                                                                                    
                                                                                                    
                                                                                                    
                                                                                                    
                                                                                                    
                                                                                                    
                                                                                                    
                                                                                                    
                                                                                                    
                                                                                                    
                                                                                                    
                           
<?xpacket end="w"?></metadata>
<defs>
    <style>
      .cls-1, .cls-3 {
        fill: #44ce7c;
      }

      .cls-1, .cls-2, .cls-3 {
        fill-rule: evenodd;
      }

      .cls-1 {
        opacity: 0.1;
      }

      .cls-2 {
        fill: url(#linear-gradient);
      }
    </style>
    <linearGradient id="linear-gradient" x1="890.219" y1="2781.39" x2="931.781" y2="2781.39" gradientUnits="userSpaceOnUse">
      <stop offset="0" stop-color="#44ce75"/>
      <stop offset="1" stop-color="#43cea2"/>
    </linearGradient>
  </defs>
  <path id="Rounded_Rectangle_540" data-name="Rounded Rectangle 540" class="cls-1" d="M901.969,2772.12h33.375a3,3,0,0,1,3,3V2804a3,3,0,0,1-3,3H901.969a3,3,0,0,1-3-3v-28.88A3,3,0,0,1,901.969,2772.12Z" transform="translate(-876 -2734)"/>
  <path id="icon-2" data-name="icon" class="cls-2" d="M931.118,2762.33H890.882a0.666,0.666,0,0,0-.663.67v36.79a0.666,0.666,0,0,0,.663.67h40.236a0.667,0.667,0,0,0,.663-0.67V2763A0.667,0.667,0,0,0,931.118,2762.33Zm-0.663,36.78h-38.91v-35.44h24.54v4.04h-22.55a0.675,0.675,0,0,0,0,1.35h34.93a0.675,0.675,0,0,0,0-1.35H917.411v-4.04h13.044v35.44Zm-6.5-34.09a0.667,0.667,0,0,1,.663.67,0.663,0.663,0,1,1-1.326,0A0.667,0.667,0,0,1,923.955,2765.02Zm-3.626,0a0.666,0.666,0,0,1,.663.67,0.663,0.663,0,1,1-1.326,0A0.667,0.667,0,0,1,920.329,2765.02Zm7.252,0a0.667,0.667,0,0,1,.663.67,0.664,0.664,0,1,1-1.327,0A0.667,0.667,0,0,1,927.581,2765.02ZM911,2778.85a4.991,4.991,0,0,0,0,9.98,4.78,4.78,0,0,0,2.249-.56,0.67,0.67,0,0,0,.286-0.9,0.66,0.66,0,0,0-.894-0.29,3.675,3.675,0,1,1,1.549-1.58,0.68,0.68,0,0,0,.286.91,0.659,0.659,0,0,0,.893-0.29,5.046,5.046,0,0,0,.546-2.28A4.96,4.96,0,0,0,911,2778.85Zm10.885,2.52H919.1a8.578,8.578,0,0,0-.653-1.59l1.974-2.01a0.652,0.652,0,0,0,.194-0.47,0.693,0.693,0,0,0-.194-0.48l-2.5-2.53a0.644,0.644,0,0,0-.938,0l-1.974,2a7.651,7.651,0,0,0-1.571-.66v-2.84a0.667,0.667,0,0,0-.663-0.67h-3.538a0.667,0.667,0,0,0-.663.67v2.84a7.651,7.651,0,0,0-1.571.66l-1.974-2a0.644,0.644,0,0,0-.938,0l-2.5,2.53a0.69,0.69,0,0,0-.195.48,0.649,0.649,0,0,0,.195.47l1.974,2.01a8.578,8.578,0,0,0-.653,1.59h-2.79a0.667,0.667,0,0,0-.663.67v3.59a0.669,0.669,0,0,0,.663.68h2.79a8.578,8.578,0,0,0,.653,1.59l-1.974,2a0.688,0.688,0,0,0,0,.96l2.5,2.53a0.644,0.644,0,0,0,.938,0l1.974-2a7.651,7.651,0,0,0,1.571.66v2.83a0.669,0.669,0,0,0,.663.68h3.538a0.669,0.669,0,0,0,.663-0.68v-2.83a7.651,7.651,0,0,0,1.571-.66l1.974,2a0.644,0.644,0,0,0,.938,0l2.5-2.53a0.691,0.691,0,0,0,0-.96l-1.974-2a8.647,8.647,0,0,0,.653-1.59h2.79a0.669,0.669,0,0,0,.663-0.68v-3.59A0.667,0.667,0,0,0,921.885,2781.37Zm-0.664,3.59h-2.635a0.67,0.67,0,0,0-.646.52,7.314,7.314,0,0,1-.89,2.18,0.677,0.677,0,0,0,.093.83l1.866,1.89-1.563,1.59-1.866-1.9a0.652,0.652,0,0,0-.82-0.09,7.042,7.042,0,0,1-2.142.9,0.67,0.67,0,0,0-.513.66v2.67h-2.211v-2.67a0.669,0.669,0,0,0-.512-0.66,7.042,7.042,0,0,1-2.142-.9,0.652,0.652,0,0,0-.82.09l-1.866,1.9-1.564-1.59,1.866-1.89a0.676,0.676,0,0,0,.094-0.83,7.314,7.314,0,0,1-.89-2.18,0.67,0.67,0,0,0-.646-0.52h-2.636v-2.24h2.636a0.67,0.67,0,0,0,.646-0.52,7.314,7.314,0,0,1,.89-2.18,0.677,0.677,0,0,0-.093-0.83l-1.867-1.89,1.564-1.59,1.866,1.9a0.652,0.652,0,0,0,.82.09,7.042,7.042,0,0,1,2.142-.9,0.669,0.669,0,0,0,.512-0.66v-2.67h2.211v2.67a0.67,0.67,0,0,0,.513.66,7.042,7.042,0,0,1,2.142.9,0.652,0.652,0,0,0,.82-0.09l1.866-1.9,1.563,1.59-1.866,1.89a0.677,0.677,0,0,0-.093.83,7.314,7.314,0,0,1,.89,2.18,0.67,0.67,0,0,0,.646.52h2.635v2.24h0Z" transform="translate(-876 -2734)"/>
  <path id="Star" class="cls-3" d="M940.531,2766.31H946v1.85h-5.469v-1.85Zm1.813-1.81h1.843v5.47h-1.843v-5.47Zm-44.469-17.44h3.281v1.13h-3.281v-1.13Zm1.094-1.09h1.093v3.28h-1.093v-3.28Zm-20.235,27.25a2.735,2.735,0,1,1-2.734,2.73A2.731,2.731,0,0,1,878.734,2773.22Zm52.5-23.97a1.64,1.64,0,1,1-1.64,1.64A1.638,1.638,0,0,1,931.234,2749.25Zm-21.328-13.47h5.469v1.84h-5.469v-1.84Zm1.813-1.78h1.843v5.47h-1.843V2734Zm-32.438,21.81h6.563v2.16h-6.563v-2.16Zm2.188-2.22h2.187v6.57h-2.187v-6.57Z" transform="translate(-876 -2734)"/>
</svg>
