<svg xmlns="http://www.w3.org/2000/svg" width="14" height="19" viewBox="0 0 14 19">
  <metadata><?xpacket begin="﻿" id="W5M0MpCehiHzreSzNTczkc9d"?>
<x:xmpmeta xmlns:x="adobe:ns:meta/" x:xmptk="Adobe XMP Core 5.6-c138 79.159824, 2016/09/14-01:09:01        ">
   <rdf:RDF xmlns:rdf="http://www.w3.org/1999/02/22-rdf-syntax-ns#">
      <rdf:Description rdf:about=""/>
   </rdf:RDF>
</x:xmpmeta>
                                                                                                    
                                                                                                    
                                                                                                    
                                                                                                    
                                                                                                    
                                                                                                    
                                                                                                    
                                                                                                    
                                                                                                    
                                                                                                    
                                                                                                    
                                                                                                    
                                                                                                    
                                                                                                    
                                                                                                    
                                                                                                    
                                                                                                    
                                                                                                    
                                                                                                    
                                                                                                    
                           
<?xpacket end="w"?></metadata>
<defs>
    <style>
      .cls-1 {
        fill: #d1d1d1;
        fill-rule: evenodd;
      }
    </style>
  </defs>
  <path id="Forma_1" data-name="Forma 1" class="cls-1" d="M459.147,3570h11.7a1.121,1.121,0,0,0,1.148-1.09v-16.82a1.121,1.121,0,0,0-1.148-1.09h-11.7a1.121,1.121,0,0,0-1.147,1.09v16.82A1.121,1.121,0,0,0,459.147,3570Zm10.877-1.34a0.656,0.656,0,1,1,.688-0.66A0.671,0.671,0,0,1,470.024,3568.66Zm0-16.18a0.677,0.677,0,0,1,.688.66,0.69,0.69,0,0,1-1.377,0A0.678,0.678,0,0,1,470.024,3552.48Zm-5.024.49a5.131,5.131,0,1,1,0,10.25,5.5,5.5,0,0,1-1.356-.16l1.012-1.63a0.56,0.56,0,0,0-.785-0.75l-2.348,1.32h-0.009a5.011,5.011,0,0,1-1.9-3.9A5.261,5.261,0,0,1,465,3552.97Zm-4.886-.49a0.677,0.677,0,0,1,.688.66,0.69,0.69,0,0,1-1.377,0A0.678,0.678,0,0,1,460.114,3552.48Zm0,14.87a0.656,0.656,0,1,1-.689.65A0.669,0.669,0,0,1,460.114,3567.35ZM465,3556.73a1.372,1.372,0,1,1-1.439,1.37A1.4,1.4,0,0,1,465,3556.73Z" transform="translate(-458 -3551)"/>
</svg>
