<svg id="Icon" xmlns="http://www.w3.org/2000/svg" width="40" height="34" viewBox="0 0 40 34">
  <metadata><?xpacket begin="﻿" id="W5M0MpCehiHzreSzNTczkc9d"?>
<x:xmpmeta xmlns:x="adobe:ns:meta/" x:xmptk="Adobe XMP Core 5.6-c138 79.159824, 2016/09/14-01:09:01        ">
   <rdf:RDF xmlns:rdf="http://www.w3.org/1999/02/22-rdf-syntax-ns#">
      <rdf:Description rdf:about=""/>
   </rdf:RDF>
</x:xmpmeta>
                                                                                                    
                                                                                                    
                                                                                                    
                                                                                                    
                                                                                                    
                                                                                                    
                                                                                                    
                                                                                                    
                                                                                                    
                                                                                                    
                                                                                                    
                                                                                                    
                                                                                                    
                                                                                                    
                                                                                                    
                                                                                                    
                                                                                                    
                                                                                                    
                                                                                                    
                                                                                                    
                           
<?xpacket end="w"?></metadata>
<defs>
    <style>
      .cls-1, .cls-2 {
        fill: #42cba2;
      }

      .cls-1 {
        opacity: 0.1;
      }

      .cls-2 {
        fill-rule: evenodd;
      }
    </style>
  </defs>
  <rect id="Rounded_Rectangle_664" data-name="Rounded Rectangle 664" class="cls-1" x="6.219" y="4.34" width="33.781" height="24.44" rx="5" ry="5"/>
  <path id="icon-2" data-name="icon" class="cls-2" d="M791.222,3480.52a2.635,2.635,0,1,0,2.667,2.63A2.652,2.652,0,0,0,791.222,3480.52Zm0,4.1a1.465,1.465,0,1,1,1.482-1.47A1.478,1.478,0,0,1,791.222,3484.62Zm23.408-2.93a0.585,0.585,0,1,1-.593.58A0.586,0.586,0,0,1,814.63,3481.69Zm-2.371,0a0.585,0.585,0,1,1-.592.58A0.587,0.587,0,0,1,812.259,3481.69Zm3.556,1.76a0.585,0.585,0,1,1-.593.58A0.586,0.586,0,0,1,815.815,3483.45Zm-2.371,0a0.585,0.585,0,1,1-.592.58A0.587,0.587,0,0,1,813.444,3483.45Zm-3.555-1.76a0.585,0.585,0,1,1-.593.58A0.586,0.586,0,0,1,809.889,3481.69Zm1.185,1.76a0.585,0.585,0,1,1-.593.58A0.587,0.587,0,0,1,811.074,3483.45Zm-3.556-1.76a0.585,0.585,0,1,1-.592.58A0.587,0.587,0,0,1,807.518,3481.69Zm1.186,1.76a0.585,0.585,0,1,1-.593.58A0.586,0.586,0,0,1,808.7,3483.45Zm-3.556-1.76a0.585,0.585,0,1,1-.593.58A0.587,0.587,0,0,1,805.148,3481.69Zm1.185,1.76a0.585,0.585,0,1,1-.592.58A0.587,0.587,0,0,1,806.333,3483.45Zm14.222,3.16v-6.91a2.717,2.717,0,0,0-2.73-2.7H787.731a2.718,2.718,0,0,0-2.731,2.7v6.91a2.659,2.659,0,0,0,1.053,2.11,2.693,2.693,0,0,0-1.053,2.12v6.91a2.718,2.718,0,0,0,2.731,2.7h14.454v4.75a2.952,2.952,0,0,0-2.31,2.28H785.592a0.585,0.585,0,1,0,0,1.17h14.283a2.968,2.968,0,0,0,5.806,0h14.282a0.585,0.585,0,1,0,0-1.17H805.681a2.955,2.955,0,0,0-2.311-2.28v-4.75h14.455a2.717,2.717,0,0,0,2.73-2.7v-6.91a2.693,2.693,0,0,0-1.053-2.12A2.659,2.659,0,0,0,820.555,3486.61Zm-16,21.46a1.778,1.778,0,1,1-1.777-1.76A1.771,1.771,0,0,1,804.555,3508.07Zm14.815-17.23v6.91a1.542,1.542,0,0,1-1.545,1.53H787.731a1.542,1.542,0,0,1-1.546-1.53v-6.91a1.542,1.542,0,0,1,1.546-1.53h30.093A1.542,1.542,0,0,1,819.37,3490.84Zm-31.639-2.7a1.542,1.542,0,0,1-1.546-1.53v-6.91a1.542,1.542,0,0,1,1.546-1.53h30.093a1.542,1.542,0,0,1,1.546,1.53v6.91a1.542,1.542,0,0,1-1.545,1.53H787.731Zm3.491,8.79a2.64,2.64,0,1,0-2.667-2.64A2.654,2.654,0,0,0,791.222,3496.93Zm0-4.1a1.465,1.465,0,1,1-1.481,1.46A1.47,1.47,0,0,1,791.222,3492.83Zm23.408,0a0.585,0.585,0,1,1-.593.58A0.586,0.586,0,0,1,814.63,3492.83Zm-2.371,0a0.585,0.585,0,1,1-.592.58A0.587,0.587,0,0,1,812.259,3492.83Zm3.556,1.76a0.585,0.585,0,1,1-.593.58A0.586,0.586,0,0,1,815.815,3494.59Zm-2.371,0a0.585,0.585,0,1,1-.592.58A0.587,0.587,0,0,1,813.444,3494.59Zm-3.555-1.76a0.585,0.585,0,1,1-.593.58A0.586,0.586,0,0,1,809.889,3492.83Zm1.185,1.76a0.585,0.585,0,1,1-.593.58A0.587,0.587,0,0,1,811.074,3494.59Zm-3.556-1.76a0.585,0.585,0,1,1-.592.58A0.587,0.587,0,0,1,807.518,3492.83Zm1.186,1.76a0.585,0.585,0,1,1-.593.58A0.586,0.586,0,0,1,808.7,3494.59Zm-3.556-1.76a0.585,0.585,0,1,1-.593.58A0.587,0.587,0,0,1,805.148,3492.83Zm1.185,1.76a0.585,0.585,0,1,1-.592.58A0.587,0.587,0,0,1,806.333,3494.59Z" transform="translate(-785 -3477)"/>
</svg>
