<svg xmlns="http://www.w3.org/2000/svg" width="18" height="22" viewBox="0 0 18 22">
  <metadata><?xpacket begin="﻿" id="W5M0MpCehiHzreSzNTczkc9d"?>
<x:xmpmeta xmlns:x="adobe:ns:meta/" x:xmptk="Adobe XMP Core 5.6-c138 79.159824, 2016/09/14-01:09:01        ">
   <rdf:RDF xmlns:rdf="http://www.w3.org/1999/02/22-rdf-syntax-ns#">
      <rdf:Description rdf:about=""/>
   </rdf:RDF>
</x:xmpmeta>
                                                                                                    
                                                                                                    
                                                                                                    
                                                                                                    
                                                                                                    
                                                                                                    
                                                                                                    
                                                                                                    
                                                                                                    
                                                                                                    
                                                                                                    
                                                                                                    
                                                                                                    
                                                                                                    
                                                                                                    
                                                                                                    
                                                                                                    
                                                                                                    
                                                                                                    
                                                                                                    
                           
<?xpacket end="w"?></metadata>
<defs>
    <style>
      .cls-1 {
        fill: #d1d1d1;
        fill-rule: evenodd;
      }
    </style>
  </defs>
  <path id="Forma_1" data-name="Forma 1" class="cls-1" d="M464.383,3775.14h1.677v7.41h-1.677v-7.41Zm5.386-.06a13.291,13.291,0,0,0-2.259.16v7.31h1.656v-2.65a4.626,4.626,0,0,0,.57.03,3.418,3.418,0,0,0,2.4-.78,2.376,2.376,0,0,0,.679-1.76,2.189,2.189,0,0,0-.789-1.72A3.58,3.58,0,0,0,469.769,3775.08Zm-0.045,3.56a2.8,2.8,0,0,1-.559-0.04v-2.19a3.12,3.12,0,0,1,.692-0.06,1.1,1.1,0,0,1,1.3,1.08A1.233,1.233,0,0,1,469.724,3778.64ZM468,3770.01a9.016,9.016,0,0,0-9,9.03c0,4.99,9,12.95,9,12.95s9-7.96,9-12.95A9.014,9.014,0,0,0,468,3770.01Zm0.023,14.53a6,6,0,1,1,5.979-6.01A5.994,5.994,0,0,1,468.023,3784.54Z" transform="translate(-459 -3770)"/>
</svg>
