<svg xmlns="http://www.w3.org/2000/svg" width="13" height="17" viewBox="0 0 13 17">
  <metadata><?xpacket begin="﻿" id="W5M0MpCehiHzreSzNTczkc9d"?>
<x:xmpmeta xmlns:x="adobe:ns:meta/" x:xmptk="Adobe XMP Core 5.6-c138 79.159824, 2016/09/14-01:09:01        ">
   <rdf:RDF xmlns:rdf="http://www.w3.org/1999/02/22-rdf-syntax-ns#">
      <rdf:Description rdf:about=""/>
   </rdf:RDF>
</x:xmpmeta>
                                                                                                    
                                                                                                    
                                                                                                    
                                                                                                    
                                                                                                    
                                                                                                    
                                                                                                    
                                                                                                    
                                                                                                    
                                                                                                    
                                                                                                    
                                                                                                    
                                                                                                    
                                                                                                    
                                                                                                    
                                                                                                    
                                                                                                    
                                                                                                    
                                                                                                    
                                                                                                    
                           
<?xpacket end="w"?></metadata>
<defs>
    <style>
      .cls-1 {
        fill: #d1d1d1;
        fill-rule: evenodd;
      }
    </style>
  </defs>
  <path id="Forma_1" data-name="Forma 1" class="cls-1" d="M470.6,3480h-7.038a1.415,1.415,0,0,0-.992.41l-3.156,3.15a1.374,1.374,0,0,0-.411.98v11.06a1.4,1.4,0,0,0,1.4,1.4H470.6a1.4,1.4,0,0,0,1.4-1.4v-14.2A1.4,1.4,0,0,0,470.6,3480ZM465,3484.22a0.351,0.351,0,0,1-.349.35h-1.42a0.352,0.352,0,0,1-.35-0.35v-2.53a0.352,0.352,0,0,1,.35-0.35h1.42a0.351,0.351,0,0,1,.349.35v2.53Zm2.842,0a0.351,0.351,0,0,1-.349.35h-1.421a0.351,0.351,0,0,1-.349-0.35v-2.53a0.351,0.351,0,0,1,.349-0.35H467.5a0.351,0.351,0,0,1,.349.35v2.53h0Zm2.841,0a0.351,0.351,0,0,1-.349.35h-1.421a0.351,0.351,0,0,1-.349-0.35v-2.53a0.351,0.351,0,0,1,.349-0.35h1.421a0.351,0.351,0,0,1,.349.35v2.53Z" transform="translate(-459 -3480)"/>
</svg>
