<svg xmlns="http://www.w3.org/2000/svg" width="21" height="20" viewBox="0 0 21 20">
  <metadata><?xpacket begin="﻿" id="W5M0MpCehiHzreSzNTczkc9d"?>
<x:xmpmeta xmlns:x="adobe:ns:meta/" x:xmptk="Adobe XMP Core 5.6-c138 79.159824, 2016/09/14-01:09:01        ">
   <rdf:RDF xmlns:rdf="http://www.w3.org/1999/02/22-rdf-syntax-ns#">
      <rdf:Description rdf:about=""/>
   </rdf:RDF>
</x:xmpmeta>
                                                                                                    
                                                                                                    
                                                                                                    
                                                                                                    
                                                                                                    
                                                                                                    
                                                                                                    
                                                                                                    
                                                                                                    
                                                                                                    
                                                                                                    
                                                                                                    
                                                                                                    
                                                                                                    
                                                                                                    
                                                                                                    
                                                                                                    
                                                                                                    
                                                                                                    
                                                                                                    
                           
<?xpacket end="w"?></metadata>
<defs>
    <style>
      .cls-1 {
        fill: #d1d1d1;
        fill-rule: evenodd;
      }
    </style>
  </defs>
  <path class="cls-1" d="M469.97,3643.8h0.1a2.516,2.516,0,0,1-1.885-1h-5.368a2.516,2.516,0,0,1-1.885,1H461a0.6,0.6,0,0,0,0,1.2h8.974a0.591,0.591,0,0,0,.583-0.6A0.582,0.582,0,0,0,469.97,3643.8Zm6.03-5.91v-11.32a1.546,1.546,0,0,0-1.526-1.57H456.526a1.546,1.546,0,0,0-1.526,1.57v13.91h0a1.361,1.361,0,0,0,1.344,1.33h18.307a1.365,1.365,0,0,0,1.345-1.33h0l0-2.59h0Zm-9.281,2.41a0.34,0.34,0,0,1-.337.35h-1.768a0.34,0.34,0,0,1-.337-0.35v-0.24a0.337,0.337,0,0,1,.337-0.34h1.768a0.337,0.337,0,0,1,.337.34v0.24Zm7.755-1.86H456.526a0.278,0.278,0,0,1-.268-0.28v-11.59a0.278,0.278,0,0,1,.268-0.28H474.47a0.278,0.278,0,0,1,.268.28v11.59h0A0.275,0.275,0,0,1,474.474,3638.44Zm-4.595-6.54h0.674l0.022-.02a4.7,4.7,0,0,0-.048-0.65Zm-1.548-3.94-2.139,2.2v0.7l2.55-2.63A4.145,4.145,0,0,0,468.331,3627.96Zm-0.951-.41-1.188,1.23v0.69l1.686-1.73A3.037,3.037,0,0,0,467.38,3627.55Zm-0.553-.12a4.358,4.358,0,0,0-.627-0.05l-0.008.01v0.7Zm1.037,4.47,2.149-2.21a4.406,4.406,0,0,0-.264-0.42l-2.559,2.63h0.674Zm1.587-3.02a1.862,1.862,0,0,0-.16-0.17c-0.056-.06-0.117-0.12-0.177-0.18l-2.922,3.02v0.35h0.328Zm-0.242,3.02,1.2-1.24c-0.048-.17-0.108-0.34-0.173-0.51l-1.7,1.75h0.67Zm-3.783-3.74a4.532,4.532,0,1,0,4.4,4.53h-4.4v-4.53Z" transform="translate(-455 -3625)"/>
</svg>
