<svg xmlns="http://www.w3.org/2000/svg" width="13" height="15" viewBox="0 0 13 15">
  <metadata><?xpacket begin="﻿" id="W5M0MpCehiHzreSzNTczkc9d"?>
<x:xmpmeta xmlns:x="adobe:ns:meta/" x:xmptk="Adobe XMP Core 5.6-c138 79.159824, 2016/09/14-01:09:01        ">
   <rdf:RDF xmlns:rdf="http://www.w3.org/1999/02/22-rdf-syntax-ns#">
      <rdf:Description rdf:about=""/>
   </rdf:RDF>
</x:xmpmeta>
                                                                                                    
                                                                                                    
                                                                                                    
                                                                                                    
                                                                                                    
                                                                                                    
                                                                                                    
                                                                                                    
                                                                                                    
                                                                                                    
                                                                                                    
                                                                                                    
                                                                                                    
                                                                                                    
                                                                                                    
                                                                                                    
                                                                                                    
                                                                                                    
                                                                                                    
                                                                                                    
                           
<?xpacket end="w"?></metadata>
<defs>
    <style>
      .cls-1 {
        fill: #43cea1;
        fill-rule: evenodd;
      }
    </style>
  </defs>
  <path class="cls-1" d="M1114.62,5340.59l-11.44-6.49a0.849,0.849,0,0,0-.79-0.01,0.753,0.753,0,0,0-.39.65v13.51a0.781,0.781,0,0,0,1.56,0v-12.2l9.18,5.21-6.86,4.2a0.805,0.805,0,0,0-.34.47,0.738,0.738,0,0,0,.11.56,0.8,0.8,0,0,0,.49.33,0.814,0.814,0,0,0,.59-0.11l7.91-4.85a0.721,0.721,0,0,0,.36-0.64A0.733,0.733,0,0,0,1114.62,5340.59Z" transform="translate(-1102 -5334)"/>
</svg>
