<svg xmlns="http://www.w3.org/2000/svg" width="17" height="18" viewBox="0 0 17 18">
  <metadata><?xpacket begin="﻿" id="W5M0MpCehiHzreSzNTczkc9d"?>
<x:xmpmeta xmlns:x="adobe:ns:meta/" x:xmptk="Adobe XMP Core 5.6-c138 79.159824, 2016/09/14-01:09:01        ">
   <rdf:RDF xmlns:rdf="http://www.w3.org/1999/02/22-rdf-syntax-ns#">
      <rdf:Description rdf:about=""/>
   </rdf:RDF>
</x:xmpmeta>
                                                                                                    
                                                                                                    
                                                                                                    
                                                                                                    
                                                                                                    
                                                                                                    
                                                                                                    
                                                                                                    
                                                                                                    
                                                                                                    
                                                                                                    
                                                                                                    
                                                                                                    
                                                                                                    
                                                                                                    
                                                                                                    
                                                                                                    
                                                                                                    
                                                                                                    
                                                                                                    
                           
<?xpacket end="w"?></metadata>
<defs>
    <style>
      .cls-1 {
        fill: #d1d1d1;
        fill-rule: evenodd;
      }
    </style>
  </defs>
  <path id="Forma_1" data-name="Forma 1" class="cls-1" d="M467.32,3409.23h-5.64a1.62,1.62,0,0,0-1.605,1.64v6.26a1.627,1.627,0,0,0,1.605,1.64h5.64a1.627,1.627,0,0,0,1.605-1.64v-6.26A1.62,1.62,0,0,0,467.32,3409.23Zm5,5.46a0.69,0.69,0,0,0,0-1.38h-1.54v-1.56h1.54a0.69,0.69,0,0,0,0-1.38h-1.553a3.339,3.339,0,0,0-2.724-3.02v-1.66a0.675,0.675,0,1,0-1.349,0v1.62h-1.525v-1.62a0.675,0.675,0,1,0-1.349,0v1.62H462.3v-1.62a0.675,0.675,0,1,0-1.349,0v1.66a3.339,3.339,0,0,0-2.724,3.02h-1.553a0.69,0.69,0,0,0,0,1.38h1.539v1.56h-1.539a0.69,0.69,0,0,0,0,1.38h1.539v1.56h-1.539a0.69,0.69,0,0,0,0,1.38h1.553a3.319,3.319,0,0,0,2.724,3.01v1.67a0.675,0.675,0,1,0,1.349,0v-1.62h1.524v1.62a0.675,0.675,0,1,0,1.35,0v-1.62H466.7v1.62a0.675,0.675,0,1,0,1.349,0v-1.67a3.319,3.319,0,0,0,2.724-3.01h1.553a0.69,0.69,0,0,0,0-1.38h-1.54v-1.56h1.54Zm-2.617,2.64a2.231,2.231,0,0,1-2.2,2.26h-6.016a2.231,2.231,0,0,1-2.2-2.26v-6.67a2.228,2.228,0,0,1,2.2-2.25h6.016a2.228,2.228,0,0,1,2.2,2.25v6.67h0Z" transform="translate(-456 -3405)"/>
</svg>
