<?xml version="1.0" encoding="utf-8"?>
<!-- Generator: Adobe Illustrator 22.0.0, SVG Export Plug-In . SVG Version: 6.00 Build 0)  -->
<svg version="1.1" id="WordPress" xmlns="http://www.w3.org/2000/svg" xmlns:xlink="http://www.w3.org/1999/xlink" x="0px" y="0px"
	 viewBox="0 0 199.6 51.3" style="enable-background:new 0 0 199.6 51.3;" xml:space="preserve">
<style type="text/css">
	.st0{fill:#4E5157;}
</style>
<g>
	<g>
		<path class="st0" d="M59.4,31.9c0,3.1-1.4,5.6-4.5,5.6c-3.1,0-4.5-2.5-4.5-5.6V21.3h-5.7v10.6c0,6.2,4,11.1,10.2,11.1
			c6.2,0,10.3-5,10.3-11.1V21.3h-5.8L59.4,31.9z"/>
	</g>
	<g>
		<rect x="117" y="14.8" class="st0" width="5.7" height="27.8"/>
	</g>
	<g>
		<polygon class="st0" points="127,15.8 128.6,15.8 128.6,20.2 129.8,20.2 129.8,15.8 131.4,15.8 131.4,14.8 127,14.8 		"/>
	</g>
	<g>
		<polygon class="st0" points="136.2,14.8 135,18.5 135,18.5 133.7,14.8 132,14.8 132,20.2 133.2,20.2 133.2,16.4 133.2,16.4 
			134.5,20.2 135.4,20.2 136.8,16.4 136.8,16.4 136.8,20.2 137.9,20.2 137.9,14.8 		"/>
	</g>
	<g>
		<path class="st0" d="M31.8,25c-0.1,0.1-0.1,0.2-0.3,0.2c-0.2,0-0.2-0.2-0.2-0.2l-0.6-3.7h-5.1v21.2h5.7V31c0-0.9,2.6-5.4,7.5-4.3
			c2.5,0.6,3.6,1.6,3.6,1.6s0-4.1,0-6.5c-0.9-0.5-1.6-0.7-2.4-0.9C35,19.9,31.9,24.7,31.8,25z"/>
	</g>
	<g>
		<path class="st0" d="M78.5,20.9c-6.3,0-11.3,5-11.3,11.2c0,0,0,15.3,0,17.4h5.8v-7.6l0-2.9c0,0,0-0.2,0.2-0.2
			c0.2,0,0.2,0.1,0.3,0.2c0.4,1.1,2.8,5.2,8.2,3.9c4.8-1.3,8.3-5.7,8.3-10.8C89.8,25.9,84.7,20.9,78.5,20.9z M78.5,37.8
			c-3.2,0-5.7-2.5-5.7-5.7c0-3.1,2.6-5.7,5.7-5.7c3.2,0,5.7,2.5,5.7,5.7C84.2,35.2,81.7,37.8,78.5,37.8z"/>
	</g>
	<g>
		<path class="st0" d="M103.3,20.9c-6.3,0-11.3,5-11.3,11.2c0,5.1,3.5,9.5,8.3,10.8c5.3,1.3,7.7-2.8,8.2-3.9c0-0.1,0.1-0.2,0.3-0.2
			c0.2,0,0.2,0.2,0.2,0.2l0,3.5h5.8V32.1C114.7,25.9,109.6,20.9,103.3,20.9z M103.3,37.8c-3.2,0-5.7-2.5-5.7-5.7
			c0-3.1,2.6-5.7,5.7-5.7c3.2,0,5.7,2.5,5.7,5.7C109.1,35.2,106.5,37.8,103.3,37.8z"/>
	</g>
	<g>
		<path class="st0" d="M8,14.7H1v27.7h6.5c8.6,0,15.4-1.7,15.4-13.9C23,16.3,16.5,14.7,8,14.7z M9.2,37.7l-2.4-0.1V19.6h2.3
			c5.3,0,8.1,0.7,8.1,9C17.2,37.3,14,37.7,9.2,37.7z"/>
	</g>
</g>
<g>
	<g>
		<path class="st0" d="M177.9,26.5c-3.6,0-6.6,2.9-6.6,6.6c0,3.6,2.9,6.6,6.6,6.6c3.6,0,6.6-2.9,6.6-6.6
			C184.5,29.5,181.6,26.5,177.9,26.5z"/>
	</g>
	<g>
		<path class="st0" d="M186.1,25.2c2,2,3.2,4.8,3.2,7.8c0,3.9-1.9,7.3-4.9,9.3c5.4-1.7,9.9-5.8,11.9-10.7c2.8-6.8,0.2-12-4.2-16.6
			c0.1,0.6,0.2,1.2,0.2,1.9C192.4,20.9,189.7,24.2,186.1,25.2z"/>
	</g>
	<g>
		<path class="st0" d="M178.7,16.9c0,2.8,2.3,5,5,5c2.8,0,5-2.3,5-5c0-2.8-2.3-5-5-5C180.9,11.9,178.7,14.1,178.7,16.9z"/>
	</g>
	<g>
		<path class="st0" d="M169.3,40.4c-1.7-2-2.7-4.5-2.7-7.3c0-5.8,4.4-10.6,10-11.2c-1-1.4-1.5-3.1-1.5-4.9c0-4.8,3.9-8.7,8.7-8.7
			c0.4,0,0.8,0,1.2,0.1c-2.8-2.4-5.7-4.9-7.9-7.6c1.1,11.9-10.8,7.6-15.2,18.5C158.8,26.6,161.4,35.6,169.3,40.4z"/>
	</g>
</g>
</svg>
