<?xml version="1.0" encoding="utf-8"?>
<!-- Generator: Adobe Illustrator 22.0.0, SVG Export Plug-In . SVG Version: 6.00 Build 0)  -->
<svg version="1.1" id="WordPress" xmlns="http://www.w3.org/2000/svg" xmlns:xlink="http://www.w3.org/1999/xlink" x="0px" y="0px"
	 viewBox="0 0 258.7 51.3" style="enable-background:new 0 0 258.7 51.3;" xml:space="preserve">
<style type="text/css">
	.st0{fill:#4E5157;}
</style>
<path class="st0" d="M33.9,5.6c-1.3-0.7-5-0.3-9.4,1.1C16.7,12,10.1,19.9,9.7,32.4c-0.1,0.3-0.9,0-1-0.1c-2.1-4-2.9-8.3-1.2-14.4
	c0.3-0.5-0.7-1.2-0.9-1c-0.4,0.4-2,2.1-3.1,3.9c-5.3,9.2-1.8,20.9,7.4,26.1c9.2,5.2,20.9,1.8,26.1-7.4C42.9,28.8,37.4,7.5,33.9,5.6
	L33.9,5.6z"/>
<path class="st0" d="M67,10.7c-11,0-18.9,8.2-18.9,19.4c0,11.3,7.9,19.2,19.3,19.2c5.7,0,10.3-1.8,13.9-5.5c1.1-1.2,1.2-2.3,1.2-2.7
	c0-1.8-1.4-3.2-3.2-3.2c-0.9,0-1.7,0.4-2.6,1.2c-2,1.9-4.7,3.9-9.2,3.9c-6.2,0-11.3-4.7-11.6-10.7h24.8c2.7,0,4-1.3,4-3.8
	c0-0.8,0-1.3-0.2-2.4C83.1,16.5,76.6,10.7,67,10.7L67,10.7z M67,16.7c5.9,0,9.8,3.8,10,9.9H55.8C56.4,21,61.1,16.7,67,16.7L67,16.7z
	"/>
<path class="st0" d="M108.2,10.7c-5,0-9.9,2.9-11.8,6.8v-2.5c0-3.8-3-4-3.5-4c-1.7,0-3.6,1.1-3.6,4v29.7c0,4,3.1,4.2,3.8,4.2
	c0.6,0,3.8-0.2,3.8-4.2V28.9c0-6.9,3.9-11.8,9.5-11.8c5.4,0,8.1,3.6,8.1,10.9v16.8c0,4,3.1,4.2,3.8,4.2c0.6,0,3.8-0.2,3.8-4.2V25.7
	C121.9,18.4,118.3,10.7,108.2,10.7L108.2,10.7z"/>
<path class="st0" d="M156.1,11.1c-1.7,0-3,1-3.8,3l-10.3,26l-10.2-26c-0.8-2-2.1-3-3.8-3c-2.1,0-3.8,1.6-3.8,3.6
	c0,0.5,0.1,1.1,0.5,2.1l11.9,28c1.4,3.4,3.7,4.1,5.4,4.1c1.7,0,4-0.7,5.4-4.1l11.9-28.2c0.4-1,0.5-1.7,0.5-2.1
	C159.8,12.6,158.2,11.1,156.1,11.1L156.1,11.1z"/>
<path class="st0" d="M178,10.7c-4.8,0-9.3,1.3-12.7,3.8c-1.1,0.8-1.7,1.8-1.7,3c0,1.7,1.3,3,2.9,3c0.7,0,1.5-0.3,2.2-0.8
	c2.9-1.9,5.6-2.8,8.5-2.8c5.6,0,8.8,2.8,8.8,7.8v0.8c-12.5,0-25.3,1.5-25.3,12.4c0,7.8,6.7,11.3,13.3,11.3c5.3,0,9.5-2.1,12.2-6.1
	v1.9c0,2.8,1.9,3.8,3.5,3.8c0.3,0,3.4-0.1,3.4-3.8v-20C193.3,16.1,187.6,10.7,178,10.7L178,10.7z M184.5,31h1.6v1.7
	c0,6.4-4,10.5-10.3,10.5c-1.7,0-7.2-0.4-7.2-5.5C168.5,31.7,177.6,31,184.5,31z"/>
<path class="st0" d="M213,18c3.3,0,3.5-2.6,3.5-3.1c0-1.5-0.9-3.2-3.5-3.2h-6.8V4.9c0-3.1-2-4.2-3.7-4.2c-0.6,0-3.8,0.2-3.8,4.2
	v32.6c0,7.5,3.7,11.5,10.7,11.5c1.8,0,3.6-0.3,4.7-0.9c1.3-0.7,2.1-1.8,2.1-3c0-1.7-1.3-3-3-3c-0.3,0-0.8,0.1-1.3,0.2
	c-0.6,0.2-1.1,0.2-1.6,0.2c-2.9,0-4.2-1.9-4.2-5.9V18L213,18L213,18z"/>
<path class="st0" d="M237.9,10.7c-11.4,0-19.7,8.1-19.7,19.2c0,5.4,2,10.4,5.6,13.9c3.6,3.5,8.6,5.5,14,5.5
	c11.3,0,19.8-8.3,19.8-19.4C257.7,18.8,249.4,10.7,237.9,10.7L237.9,10.7z M237.9,42.9c-7.8,0-11.9-6.5-11.9-13
	c0-8.9,6.2-12.9,11.9-12.9s11.9,4,11.9,12.9C249.8,38.9,243.6,42.9,237.9,42.9z"/>
</svg>
