<?xml version="1.0" encoding="utf-8"?>
<!-- Generator: Adobe Illustrator 22.0.0, SVG Export Plug-In . SVG Version: 6.00 Build 0)  -->
<svg version="1.1" id="WordPress" xmlns="http://www.w3.org/2000/svg" xmlns:xlink="http://www.w3.org/1999/xlink" x="0px" y="0px"
	 viewBox="0 0 243.3 51.3" style="enable-background:new 0 0 243.3 51.3;" xml:space="preserve">
<style type="text/css">
	.st0{fill:#4E5157;}
</style>
<g>
	<g>
		<path class="st0" d="M9.7,26.4l-0.9-0.9c-2.9-3-3.8-7.1-2.7-10.8C3.2,14,1,11.4,1,8.3c0-3.6,2.9-6.5,6.5-6.5
			c3.2,0,5.9,2.4,6.4,5.5c3.5-0.8,7.4,0.1,10.1,2.9l0.4,0.4l-4.8,4.8L19.3,15c-1.6-1.6-4.1-1.6-5.6,0c-1.6,1.6-1.6,4.1,0,5.7
			l0.9,0.9l4.8,4.8l5.1,5.1l-4.8,4.8l-5.1-5.1L9.7,26.4"/>
		<path class="st0" d="M15.1,21l5.1-5.1l4.8-4.8l0.9-0.9c2.9-2.9,7-3.8,10.7-2.7c0.4-3.2,3.2-5.6,6.5-5.6c3.6,0,6.5,2.9,6.5,6.5
			c0,3.3-2.5,6-5.7,6.5c1,3.7,0.1,7.7-2.7,10.6l-0.4,0.4L36,21l0.4-0.4c1.6-1.6,1.6-4.1,0-5.6c-1.6-1.6-4.1-1.6-5.6,0l-0.9,0.9
			L25,20.7l-5.1,5.1L15.1,21"/>
	</g>
</g>
<g>
	<g>
		<g>
			<path class="st0" d="M36.8,45.2c-3.7,1.1-7.9,0.2-10.8-2.7l-0.4-0.4l4.8-4.8l0.4,0.4c1.6,1.6,4.1,1.6,5.6,0
				c1.6-1.6,1.6-4.1,0-5.6l-0.9-0.9l-4.8-4.8l-5.1-5.1l4.8-4.8l5.1,5.1l4.8,4.8l0.9,0.9C44,30.1,44.9,34,44,37.5
				c3.2,0.4,5.6,3.2,5.6,6.4c0,3.6-2.9,6.5-6.5,6.5C40,50.4,37.4,48.2,36.8,45.2"/>
			<path class="st0" d="M34.9,31.7l-5.1,5.1L25,41.6l-0.9,0.9c-2.8,2.8-6.7,3.7-10.2,2.8c-0.7,2.9-3.3,5-6.3,5.1
				c-3.6,0-6.5-2.9-6.5-6.5c0-3.1,2.1-5.7,5-6.3C5.1,34,6,30.1,8.8,27.3l0.4-0.4l4.8,4.8l-0.4,0.4c-1.6,1.6-1.6,4.1,0,5.6
				c1.6,1.6,4.1,1.6,5.7,0l0.9-0.9L25,32l5.1-5.1L34.9,31.7"/>
		</g>
	</g>
</g>
<path class="st0" d="M74,11.4v20.4c0,1.8-0.5,3.3-1.6,4.5c-1.3,1.5-3.3,2.2-5.8,2.2l-2.3-0.2l-6.9-1.1l-1.1,2.6l7,1.1
	c1.3,0.2,2.5,0.3,3.6,0.3c3.8,0,6.7-1.1,8.5-3.2c1.5-1.7,2.3-4,2.3-6.7v-20H74"/>
<path class="st0" d="M104.4,22.7c-2.8-1.5-6.1-2.3-9.8-2.3c-3.7,0-7,0.8-9.8,2.3l0,0c-3.5,1.9-5.3,4.7-5.3,8.2s1.8,6.3,5.3,8.2
	c2.8,1.5,6.1,2.3,9.8,2.3c3.7,0,7-0.8,9.8-2.2c3.5-1.9,5.2-4.6,5.2-8.2C109.6,27.3,107.9,24.6,104.4,22.7 M102.3,37
	c-2.1,1.2-4.7,1.8-7.7,1.8S89,38.2,86.9,37l0,0c-2.6-1.4-3.8-3.4-3.8-6.2c0-2.7,1.3-4.7,3.8-6.1c2.1-1.2,4.7-1.8,7.7-1.8
	s5.6,0.6,7.7,1.8c2.5,1.4,3.8,3.5,3.8,6.1C106.1,33.5,104.8,35.6,102.3,37z"/>
<path class="st0" d="M136.4,22.7c-2.8-1.5-6.1-2.3-9.8-2.3s-7,0.8-9.8,2.3l0,0c-3.5,1.9-5.3,4.7-5.3,8.2s1.8,6.3,5.3,8.2
	c2.8,1.5,6.1,2.3,9.8,2.3c3.7,0,7-0.8,9.8-2.2c3.5-1.9,5.2-4.6,5.2-8.2C141.6,27.3,139.8,24.6,136.4,22.7 M134.2,37
	c-2.1,1.2-4.7,1.8-7.7,1.8s-5.6-0.6-7.7-1.8c-2.6-1.4-3.8-3.4-3.8-6.2c0-2.7,1.3-4.7,3.8-6.1c2.1-1.2,4.7-1.8,7.7-1.8
	s5.6,0.6,7.7,1.8c2.5,1.4,3.8,3.5,3.8,6.1C138,33.5,136.8,35.6,134.2,37z"/>
<path class="st0" d="M180.5,22.2c-2-1.2-4.5-1.8-7.5-1.8c-3.8,0-6.9,1.2-9.2,3.5c-2.2-2.3-5.3-3.5-9.2-3.5c-3.1,0-5.7,0.7-7.6,1.9
	c0-0.5,0-1.6,0-1.6h-3.4V41h3.4V27.1c0.2-1,0.9-1.9,2-2.7c1.4-1,3.3-1.5,5.5-1.5c2,0,3.7,0.4,5.1,1.2c1.7,1,2.5,2.3,2.5,4.1V41h3.4
	V28.2c0-1.8,0.8-3.1,2.5-4.1c1.4-0.8,3.2-1.2,5.2-1.2s3.8,0.4,5.2,1.2c1.7,1,2.5,2.3,2.5,4.1V41h3.4V28.7
	C184.2,25.8,183,23.6,180.5,22.2"/>
<polyline class="st0" points="187,11.4 187,41 190.4,41 190.4,11.4 187,11.4 "/>
<path class="st0" d="M219.8,20.7c0,0,0,2.8,0,3.5c-3-2.5-6.8-3.8-11.6-3.8c-3.9,0-7.2,0.7-9.9,2.2c-3.4,1.9-5.1,4.6-5.1,8.3
	c0,3.6,1.8,6.3,5.3,8.2c2.7,1.5,6.1,2.2,9.9,2.2c1.9,0,3.7-0.2,5.5-0.7c2.4-0.6,4.4-1.6,6-2.8c0,0.7,0,3.1,0,3.1h3.4V20.7H219.8
	 M196.7,30.9c0-2.7,1.3-4.8,3.8-6.2c2.1-1.2,4.7-1.8,7.8-1.8c3.8,0,6.7,0.9,8.8,2.7c1.8,1.6,2.7,3.7,2.7,6.2c0,0,0,2.2,0,2.4
	c-1.4,1.6-3.6,2.9-6.3,3.7c-1.6,0.5-3.4,0.8-5.2,0.8c-3.1,0-5.7-0.6-7.8-1.7C198,35.7,196.7,33.6,196.7,30.9z"/>
<path class="st0" d="M232.2,11h-3.4v23.3h3.4V11 M230.5,37.2c-2.4,0-2.8,1.2-2.8,2s0.4,2,2.8,2c2.4,0,2.7-1.3,2.7-2
	C233.3,38.4,232.9,37.2,230.5,37.2z"/>
<path class="st0" d="M239,11.8V12v0.4v1.9h-0.7V11h0.9l1.2,2.6l1.2-2.6h0.9v3.3h-0.6v-1.9v-0.3v-0.2l-1.1,2.5h-0.6L239,11.8
	 M237.8,11.5h-1.4v2.8h-0.7v-2.8h-1.4V11h3.5L237.8,11.5L237.8,11.5z"/>
</svg>
