<?xml version="1.0" encoding="utf-8"?>
<!-- Generator: Adobe Illustrator 22.0.0, SVG Export Plug-In . SVG Version: 6.00 Build 0)  -->
<svg version="1.1" id="WordPress" xmlns="http://www.w3.org/2000/svg" xmlns:xlink="http://www.w3.org/1999/xlink" x="0px" y="0px"
	 viewBox="0 0 243.3 51.3" style="enable-background:new 0 0 243.3 51.3;" xml:space="preserve">
<style type="text/css">
	.st0{fill:#4E5157;}
</style>
<g id="Logotype">
	<g id="Wordmark">
		<path class="st0" d="M138.5,18.9h-9.8v1c3.1,0,3.6,0.7,3.6,4.6v7c0,3.9-0.5,4.6-3.6,4.6c-2.4-0.3-4-1.6-6.2-4l-2.5-2.7
			c3.4-0.6,5.2-2.7,5.2-5.2c0-3-2.6-5.3-7.4-5.3h-9.7v1c3.1,0,3.6,0.7,3.6,4.6v7c0,3.9-0.5,4.6-3.6,4.6v1h10.9v-1
			c-3.1,0-3.6-0.7-3.6-4.6v-2h0.9l6.1,7.6h16c7.9,0,11.3-4.2,11.3-9.2C149.8,23,146.4,18.9,138.5,18.9z M115.5,27.9v-7.3h2.3
			c2.5,0,3.6,1.7,3.6,3.7c0,1.9-1.1,3.6-3.6,3.6H115.5z M138.7,35.5h-0.4c-2,0-2.3-0.5-2.3-3V20.6c0,0,2.4,0,2.6,0
			c5.7,0,6.8,4.2,6.8,7.4C145.4,31.3,144.4,35.5,138.7,35.5z"/>
		<path class="st0" d="M77.6,29.9l3.8-11.2c1.1-3.2,0.6-4.2-2.9-4.2v-1.1h10.3v1.1c-3.5,0-4.3,0.8-5.7,4.8l-6.3,18.8h-0.7l-5.6-17.2
			l-5.7,17.2h-0.7L58,19.4c-1.3-4-2.2-4.8-5.4-4.8v-1.1h12.2v1.1c-3.2,0-4.1,0.8-3,4.2l3.7,11.2l5.5-16.5h1L77.6,29.9z"/>
		<path class="st0" d="M96.2,37.9c-6,0-11-4.4-11-9.9c0-5.4,4.9-9.8,11-9.8c6,0,11,4.4,11,9.8C107.2,33.5,102.3,37.9,96.2,37.9z
			 M96.2,19.9c-5.1,0-6.8,4.6-6.8,8.1c0,3.6,1.8,8.1,6.8,8.1c5.1,0,6.9-4.5,6.9-8.1C103.1,24.5,101.4,19.9,96.2,19.9z"/>
		<path class="st0" d="M163.3,36.1v1.1h-12.6v-1.1c3.7,0,4.3-0.9,4.3-6.4v-8.8c0-5.5-0.7-6.4-4.3-6.4v-1.1h11.4
			c5.7,0,8.8,2.9,8.8,6.8c0,3.8-3.1,6.8-8.8,6.8H159v2.7C159,35.2,159.7,36.1,163.3,36.1z M162.1,15.4H159V25h3.1
			c3.1,0,4.5-2.1,4.5-4.7C166.6,17.6,165.2,15.4,162.1,15.4z"/>
		<path class="st0" d="M208.7,32l-0.3,1c-0.5,1.8-1.1,2.5-5,2.5h-0.8c-2.9,0-3.3-0.7-3.3-4.6v-2.5c4.3,0,4.6,0.4,4.6,3.2h1v-8.2h-1
			c0,2.9-0.3,3.2-4.6,3.2v-6.1h3c3.9,0,4.5,0.7,5,2.5l0.3,1h0.9l-0.4-5.2h-16.1v1c3.1,0,3.6,0.7,3.6,4.6v7c0,3.6-0.4,4.5-2.8,4.6
			c-2.3-0.4-3.9-1.6-6.1-4l-2.5-2.7c3.4-0.6,5.2-2.7,5.2-5.2c0-3-2.6-5.3-7.4-5.3h-9.7v1c3.1,0,3.6,0.7,3.6,4.6v7
			c0,3.9-0.5,4.6-3.6,4.6v1h10.9v-1c-3.1,0-3.6-0.7-3.6-4.6v-2h0.9l6.1,7.6h22.6l0.3-5.2H208.7z M179.5,27.9v-7.3h2.3
			c2.5,0,3.6,1.7,3.6,3.7c0,1.9-1.1,3.6-3.6,3.6H179.5z"/>
		<path class="st0" d="M219.8,37.9c-2.2,0-4.1-1.2-4.9-1.9c-0.3,0.3-0.8,1.1-0.9,1.9h-1v-7.6h1.1c0.4,3.6,3,5.8,6.2,5.8
			c1.8,0,3.2-1,3.2-2.6c0-1.4-1.3-2.5-3.5-3.6l-3.1-1.5c-2.2-1-3.8-2.9-3.8-5.3c0-2.6,2.5-4.9,5.9-4.9c1.8,0,3.3,0.7,4.3,1.4
			c0.3-0.2,0.5-0.8,0.7-1.5h1v6.5h-1.2c-0.4-2.6-1.8-4.7-4.7-4.7c-1.5,0-3,0.9-3,2.3c0,1.4,1.2,2.2,3.8,3.4l3,1.5
			c2.6,1.3,3.7,3.3,3.7,4.9C226.5,35.5,223.5,37.9,219.8,37.9z"/>
		<path class="st0" d="M236.4,37.9c-2.2,0-4.1-1.2-4.9-1.9c-0.3,0.3-0.8,1.1-0.9,1.9h-1v-7.6h1.1c0.4,3.6,3,5.8,6.2,5.8
			c1.8,0,3.2-1,3.2-2.6c0-1.4-1.3-2.5-3.5-3.6l-3.1-1.5c-2.2-1-3.8-2.9-3.8-5.3c0-2.6,2.5-4.9,5.9-4.9c1.8,0,3.3,0.7,4.3,1.4
			c0.3-0.2,0.5-0.8,0.7-1.5h1v6.5h-1.2c-0.4-2.6-1.8-4.7-4.7-4.7c-1.5,0-3,0.9-3,2.3c0,1.4,1.2,2.2,3.8,3.4l3,1.5
			c2.6,1.3,3.7,3.3,3.7,4.9C243.1,35.5,240.1,37.9,236.4,37.9z"/>
	</g>
	<g id="W_Mark">
		<path class="st0" d="M25.5,2.1c3.1,0,6.2,0.6,9,1.8c1.4,0.6,2.7,1.3,3.9,2.1c1.2,0.8,2.4,1.8,3.4,2.8c1.1,1.1,2,2.2,2.8,3.4
			c0.8,1.2,1.6,2.6,2.1,3.9c1.2,2.9,1.8,5.9,1.8,9s-0.6,6.2-1.8,9c-0.6,1.4-1.3,2.7-2.1,3.9c-0.8,1.2-1.8,2.4-2.8,3.4
			c-1.1,1.1-2.2,2-3.4,2.8c-1.2,0.8-2.6,1.6-3.9,2.1c-2.9,1.2-5.9,1.8-9,1.8c-3.1,0-6.2-0.6-9-1.8c-1.4-0.6-2.7-1.3-3.9-2.1
			c-1.2-0.8-2.4-1.8-3.4-2.8c-1.1-1.1-2-2.2-2.8-3.4c-0.8-1.2-1.6-2.6-2.1-3.9c-1.2-2.9-1.8-5.9-1.8-9s0.6-6.2,1.8-9
			c0.6-1.4,1.3-2.7,2.1-3.9C7,11.1,8,9.9,9,8.9c1.1-1.1,2.2-2,3.4-2.8c1.2-0.8,2.6-1.6,3.9-2.1C19.3,2.7,22.3,2.1,25.5,2.1
			 M25.5,0.6C11.8,0.6,0.7,11.6,0.7,25.3C0.7,38.9,11.8,50,25.5,50c13.6,0,24.7-11.1,24.7-24.7C50.2,11.6,39.1,0.6,25.5,0.6
			L25.5,0.6z"/>
		<path class="st0" d="M4.9,25.3c0,8.2,4.7,15.2,11.6,18.5L6.7,16.9C5.5,19.5,4.9,22.3,4.9,25.3z M39.4,24.2c0-2.5-0.9-4.3-1.7-5.7
			c-1-1.7-2-3.1-2-4.8c0-1.9,1.4-3.7,3.5-3.7c0.1,0,0.2,0,0.3,0c-3.7-3.4-8.5-5.4-13.9-5.4c-7.2,0-13.5,3.7-17.2,9.3
			c0.5,0,0.9,0,1.3,0c2.2,0,5.5-0.3,5.5-0.3c1.1-0.1,1.2,1.6,0.1,1.7c0,0-1.1,0.1-2.4,0.2l7.5,22.3l4.5-13.5l-3.2-8.8
			c-1.1-0.1-2.2-0.2-2.2-0.2c-1.1-0.1-1-1.8,0.1-1.7c0,0,3.4,0.3,5.4,0.3c2.2,0,5.5-0.3,5.5-0.3c1.1-0.1,1.2,1.6,0.1,1.7
			c0,0-1.1,0.1-2.4,0.2l7.4,22.1l2.1-6.7C38.8,28.1,39.4,26,39.4,24.2z M25.8,27.1l-6.2,18c1.8,0.5,3.8,0.8,5.8,0.8
			c2.4,0,4.7-0.4,6.8-1.2c-0.1-0.1-0.1-0.2-0.1-0.3L25.8,27.1z M43.5,15.4c0.1,0.7,0.1,1.4,0.1,2.1c0,2.1-0.4,4.4-1.6,7.4l-6.3,18.2
			c6.1-3.6,10.2-10.2,10.2-17.8C46.1,21.7,45.1,18.3,43.5,15.4z"/>
	</g>
</g>
</svg>
