<?xml version="1.0" encoding="utf-8"?>
<!-- Generator: Adobe Illustrator 16.0.0, SVG Export Plug-In . SVG Version: 6.00 Build 0)  -->
<!DOCTYPE svg PUBLIC "-//W3C//DTD SVG 1.1//EN" "http://www.w3.org/Graphics/SVG/1.1/DTD/svg11.dtd">
<svg version="1.1" id="Layer_1" xmlns="http://www.w3.org/2000/svg" xmlns:xlink="http://www.w3.org/1999/xlink" x="0px" y="0px"
	 width="512px" height="512px" viewBox="0 0 512 512" enable-background="new 0 0 512 512" xml:space="preserve">
<path fill="#5E686B" d="M226.23,507.5c-101.457,0-183.994-82.538-183.994-183.994s82.538-183.994,183.994-183.994
	c3.281,0,5.936,2.654,5.936,5.935c0,3.281-2.654,5.936-5.936,5.936c-94.905,0-172.124,77.217-172.124,172.124
	c0,94.907,77.217,172.124,172.124,172.124s172.118-77.217,172.118-172.124c0-3.28,2.654-5.936,5.936-5.936
	c3.28,0,5.936,2.654,5.936,5.936C410.218,424.962,327.68,507.5,226.23,507.5z"/>
<path fill="#5E686B" d="M255.906,418.471h-59.353c-3.28,0-5.936-2.653-5.936-5.935v-53.419H137.2c-3.281,0-5.936-2.654-5.936-5.937
	v-59.353c0-3.28,2.654-5.936,5.936-5.936h53.417v-53.417c0-3.281,2.654-5.935,5.936-5.935h59.353c3.282,0,5.936,2.654,5.936,5.935
	v53.417h53.418c3.281,0,5.935,2.654,5.935,5.936v59.353c0,3.281-2.652,5.937-5.935,5.937h-53.418v53.419
	C261.841,415.816,259.188,418.471,255.906,418.471z M202.489,406.601h47.482v-53.419c0-3.279,2.655-5.935,5.935-5.935h53.417
	v-47.481h-53.417c-3.279,0-5.935-2.656-5.935-5.937v-53.417h-47.482v53.417c0,3.28-2.653,5.937-5.935,5.937h-53.417v47.481h53.417
	c3.281,0,5.935,2.654,5.935,5.935V406.601L202.489,406.601z"/>
<path fill="#69C299" d="M398.348,240.412h-47.477c-3.281,0-5.937-2.655-5.937-5.935V192.93h-41.548c-3.28,0-5.935-2.655-5.935-5.936
	v-47.482c0-3.281,2.653-5.935,5.935-5.935h41.548V92.03c0-3.281,2.654-5.936,5.937-5.936h47.477c3.28,0,5.936,2.654,5.936,5.936
	v41.547h41.547c3.28,0,5.936,2.654,5.936,5.935v47.482c0,3.281-2.654,5.936-5.936,5.936h-41.547v41.547
	C404.282,237.757,401.628,240.412,398.348,240.412z M356.807,228.542h35.605v-41.547c0-3.281,2.654-5.936,5.936-5.936h41.547
	v-35.612h-41.547c-3.28,0-5.936-2.654-5.936-5.935V97.965h-35.605v41.547c0,3.281-2.655,5.935-5.936,5.935h-41.549v35.612h41.549
	c3.279,0,5.936,2.655,5.936,5.936V228.542z"/>
<path fill="#69C299" d="M291.518,97.965h-35.612c-3.279,0-5.935-2.655-5.935-5.935V74.224h-17.806c-3.28,0-5.936-2.655-5.936-5.936
	V32.676c0-3.28,2.655-5.935,5.936-5.935h17.806V8.936c0-3.281,2.655-5.936,5.935-5.936h35.612c3.281,0,5.937,2.654,5.937,5.936
	v17.806h17.806c3.281,0,5.935,2.655,5.935,5.935v35.612c0,3.281-2.652,5.936-5.935,5.936h-17.806V92.03
	C297.453,95.31,294.799,97.965,291.518,97.965z M261.841,86.094h23.741V68.288c0-3.28,2.654-5.936,5.936-5.936h17.807v-23.74
	h-17.807c-3.28,0-5.936-2.655-5.936-5.936V14.871h-23.741v17.806c0,3.281-2.653,5.936-5.936,5.936H238.1v23.741h17.806
	c3.282,0,5.936,2.655,5.936,5.936V86.094z"/>
</svg>
