<?xml version="1.0" encoding="utf-8"?>
<!-- Generator: Adobe Illustrator 16.0.0, SVG Export Plug-In . SVG Version: 6.00 Build 0)  -->
<!DOCTYPE svg PUBLIC "-//W3C//DTD SVG 1.1//EN" "http://www.w3.org/Graphics/SVG/1.1/DTD/svg11.dtd">
<svg version="1.1" id="Layer_1" xmlns="http://www.w3.org/2000/svg" xmlns:xlink="http://www.w3.org/1999/xlink" x="0px" y="0px"
	 width="512px" height="512px" viewBox="0 0 512 512" enable-background="new 0 0 512 512" xml:space="preserve">
<path fill="#5E686B" d="M447.336,88.566H72.703c-13.032,0-23.639,10.661-23.639,23.764v373.326c0,13.07,10.606,23.717,23.639,23.717
	h374.633c13.041,0,23.639-10.646,23.639-23.733V112.283C470.975,99.204,460.377,88.566,447.336,88.566z M454.944,485.641
	c0,4.242-3.413,7.702-7.607,7.702H72.703c-4.195,0-7.608-3.444-7.608-7.687V112.33c0-4.265,3.413-7.733,7.608-7.733v-0.001h374.633
	c4.194,0,7.607,3.453,7.607,7.687V485.641z"/>
<path fill="#69C299" d="M371.319,247.741h-57.45v-57.483c0-4.43-3.585-8.015-8.017-8.015h-91.641c-4.43,0-8.016,3.585-8.016,8.015
	v57.483h-57.475c-4.431,0-8.015,3.585-8.015,8.015v91.703c0,4.431,3.585,8.016,8.015,8.016h57.475v57.482
	c0,4.431,3.585,8.016,8.016,8.016h91.641c4.431,0,8.016-3.585,8.017-8.016v-57.482h57.45c4.432,0,8.017-3.585,8.017-8.016v-91.703
	C379.335,251.326,375.75,247.741,371.319,247.741z M363.304,339.444h-57.452c-4.43,0-8.015,3.585-8.015,8.015v57.483h-75.611
	v-57.483c0-4.43-3.585-8.015-8.015-8.015h-57.476V263.77h57.476c4.43,0,8.015-3.584,8.015-8.015v-57.483h75.611v57.483
	c0,4.431,3.585,8.015,8.015,8.015h57.452V339.444z"/>
<path fill="#5E686B" d="M380.242,21.973H139.798c-4.43,0-8.015-3.585-8.015-8.015c0-4.431,3.585-8.015,8.015-8.015h240.444
	c4.43,0,8.015,3.584,8.015,8.015C388.257,18.388,384.672,21.973,380.242,21.973z"/>
</svg>
