<?xml version="1.0" encoding="utf-8"?>
<!-- Generator: Adobe Illustrator 16.0.0, SVG Export Plug-In . SVG Version: 6.00 Build 0)  -->
<!DOCTYPE svg PUBLIC "-//W3C//DTD SVG 1.1//EN" "http://www.w3.org/Graphics/SVG/1.1/DTD/svg11.dtd">
<svg version="1.1" id="Layer_1" xmlns="http://www.w3.org/2000/svg" xmlns:xlink="http://www.w3.org/1999/xlink" x="0px" y="0px"
	 width="512px" height="512px" viewBox="0 0 512 512" enable-background="new 0 0 512 512" xml:space="preserve">
<path fill="#69C299" d="M262.67,278.295c0.021-0.097,0.045-0.191,0.062-0.291c0.027-0.145,0.048-0.29,0.066-0.436
	c0.009-0.072,0.019-0.146,0.025-0.219c0.016-0.17,0.021-0.338,0.024-0.507c0.001-0.038,0.006-0.077,0.006-0.116V95.125
	c0-3.79-3.065-6.857-6.855-6.857s-6.857,3.067-6.857,6.857v171.613L101.076,209.79c-3.551-1.339-7.499,0.416-8.865,3.938
	c-1.359,3.536,0.408,7.5,3.937,8.866l157.39,60.534c0.067,0.026,0.137,0.044,0.206,0.067c0.108,0.037,0.218,0.076,0.329,0.107
	c0.094,0.027,0.187,0.049,0.278,0.071c0.119,0.028,0.237,0.06,0.358,0.083c0.109,0.021,0.22,0.034,0.33,0.05
	c0.103,0.015,0.204,0.032,0.308,0.042c0.219,0.021,0.438,0.033,0.653,0.033c0.316,0,0.626-0.029,0.932-0.07
	c0.062-0.009,0.121-0.018,0.182-0.027c0.637-0.104,1.241-0.293,1.807-0.561c0.025-0.012,0.052-0.023,0.077-0.037
	c0.577-0.279,1.106-0.639,1.579-1.062c0.037-0.035,0.075-0.069,0.113-0.104c0.229-0.213,0.442-0.438,0.64-0.681
	c0.02-0.022,0.035-0.05,0.055-0.072c0.182-0.229,0.346-0.474,0.497-0.727c0.027-0.046,0.056-0.089,0.082-0.134
	c0.155-0.273,0.291-0.56,0.408-0.854c0.009-0.022,0.021-0.042,0.03-0.063c0.024-0.063,0.041-0.129,0.063-0.193
	c0.041-0.116,0.08-0.232,0.115-0.352C262.615,278.527,262.643,278.411,262.67,278.295z"/>
<path fill="#5E686B" d="M398.635,452.053c53.675-42.306,88.195-107.884,88.195-181.38C486.83,143.391,383.28,39.841,256,39.841
	c-127.282,0-230.832,103.55-230.832,230.832c0,73.493,34.518,139.069,88.188,181.375l-44.234,44.247
	c-2.681,2.678-2.681,7.019,0,9.696C70.461,507.33,72.216,508,73.97,508c1.755,0,3.509-0.67,4.849-2.009l45.688-45.7
	c37.337,25.975,82.665,41.228,131.494,41.228c48.826,0,94.149-15.251,131.485-41.223l45.694,45.695
	c1.34,1.339,3.094,2.009,4.849,2.009c1.754,0,3.509-0.67,4.849-2.009c2.679-2.679,2.679-7.019,0-9.696L398.635,452.053z
	 M128.334,446.188c-0.336-0.299-0.693-0.559-1.068-0.778C73.694,405.83,38.882,342.246,38.882,270.673
	c0-119.715,97.396-217.118,217.118-217.118c119.715,0,217.116,97.403,217.116,217.118c0,71.371-34.615,134.803-87.933,174.403
	c-0.683,0.327-1.325,0.767-1.891,1.332c-0.045,0.045-0.084,0.095-0.127,0.141C347.4,472.485,303.457,487.804,256,487.804
	C208.32,487.804,164.191,472.343,128.334,446.188z"/>
<path fill="#69C299" d="M214.859,17.241h82.283c3.79,0,6.856-3.067,6.856-6.857s-3.066-6.856-6.856-6.856h-82.283
	c-3.79,0-6.854,3.066-6.854,6.856S211.069,17.241,214.859,17.241z"/>
</svg>
