<?xml version="1.0" encoding="utf-8"?>
<!-- Generator: Adobe Illustrator 16.0.0, SVG Export Plug-In . SVG Version: 6.00 Build 0)  -->
<!DOCTYPE svg PUBLIC "-//W3C//DTD SVG 1.1//EN" "http://www.w3.org/Graphics/SVG/1.1/DTD/svg11.dtd">
<svg version="1.1" id="Layer_1" xmlns="http://www.w3.org/2000/svg" xmlns:xlink="http://www.w3.org/1999/xlink" x="0px" y="0px"
	 width="512px" height="512px" viewBox="0 0 512 512" enable-background="new 0 0 512 512" xml:space="preserve">
<path fill="#5E686B" d="M433.622,485.709h-0.013H80.413c-30.279-0.053-54.806-12.492-67.299-34.135
	c-13.132-22.734-11.387-51.915,4.782-80.03L195.93,64.888c15.956-27.496,37.651-42.639,61.091-42.639
	c23.429,0,45.123,15.143,61.078,42.639l178.026,307.029c16.143,28.088,17.899,57.149,4.849,79.764
	C488.509,473.256,463.963,485.656,433.622,485.709z M257.022,35.888c-18.379,0-35.879,12.726-49.291,35.846L29.71,378.363
	c-13.671,23.772-15.416,47.973-4.781,66.392c9.989,17.314,30.22,27.276,55.498,27.316h353.17
	c25.345-0.04,45.603-9.962,55.563-27.224c10.562-18.272,8.79-42.38-4.848-66.111L306.3,71.734
	C292.888,48.613,275.388,35.888,257.022,35.888z"/>
<path fill="#69C299" d="M257.022,311.585c-3.769,0-6.818-3.05-6.818-6.819V159.662c0-3.769,3.05-6.819,6.818-6.819
	c3.771,0,6.819,3.05,6.819,6.819v145.104C263.841,308.535,260.791,311.585,257.022,311.585z"/>
<path fill="#69C299" d="M256.09,411.419c-18.806,0-34.096-15.303-34.096-34.108c0-18.792,15.29-34.082,34.096-34.082
	c18.805,0,34.095,15.29,34.095,34.082C290.185,396.116,274.895,411.419,256.09,411.419z M256.09,356.867
	c-11.281,0-20.458,9.176-20.458,20.442c0,11.281,9.176,20.472,20.458,20.472c11.28,0,20.457-9.189,20.457-20.472
	C276.547,366.043,267.37,356.867,256.09,356.867z"/>
</svg>
