<?xml version="1.0" encoding="utf-8"?>
<!-- Generator: Adobe Illustrator 16.0.0, SVG Export Plug-In . SVG Version: 6.00 Build 0)  -->
<!DOCTYPE svg PUBLIC "-//W3C//DTD SVG 1.1//EN" "http://www.w3.org/Graphics/SVG/1.1/DTD/svg11.dtd">
<svg version="1.1" id="Layer_1" xmlns="http://www.w3.org/2000/svg" xmlns:xlink="http://www.w3.org/1999/xlink" x="0px" y="0px"
	 width="512px" height="512px" viewBox="0 0 512 512" enable-background="new 0 0 512 512" xml:space="preserve">
<path fill="#69C299" d="M252.178,361.819c-59.205,0-107.373-48.168-107.373-107.372s48.168-107.373,107.373-107.373
	c59.204,0,107.373,48.169,107.373,107.373S311.382,361.819,252.178,361.819z M252.178,160.496c-51.8,0-93.952,42.146-93.952,93.952
	s42.152,93.951,93.952,93.951c51.798,0,93.951-42.146,93.951-93.951S303.977,160.496,252.178,160.496z"/>
<path fill="#5E686C" d="M254.852,505.395c-138.358,0-250.934-112.562-250.947-250.921C3.898,187.444,29.994,124.419,77.389,77.018
	C124.791,29.609,187.809,3.5,254.839,3.5c138.384,0,250.96,112.576,250.96,250.947v24.419c0,44.098-35.874,79.979-79.979,79.979
	s-79.991-35.881-79.991-79.979V156.748c0-3.709,3-6.711,6.71-6.711s6.711,3.002,6.711,6.711v122.119
	c0,36.699,29.858,66.558,66.57,66.558c36.7,0,66.558-29.858,66.558-66.558v-24.419c0-130.972-106.561-237.526-237.539-237.526
	c-63.451,0-123.095,24.713-167.954,69.585C42.02,131.372,17.32,191.029,17.326,254.473c0.013,130.96,106.567,237.5,237.526,237.5
	c51.891,0,103.179-17.386,144.414-48.947c2.936-2.256,7.156-1.698,9.41,1.244c2.241,2.949,1.69,7.158-1.259,9.412
	C363.864,487.031,309.678,505.395,254.852,505.395z"/>
</svg>
