<?xml version="1.0" encoding="utf-8"?>
<!-- Generator: Adobe Illustrator 16.0.0, SVG Export Plug-In . SVG Version: 6.00 Build 0)  -->
<!DOCTYPE svg PUBLIC "-//W3C//DTD SVG 1.1//EN" "http://www.w3.org/Graphics/SVG/1.1/DTD/svg11.dtd">
<svg version="1.1" id="Layer_1" xmlns="http://www.w3.org/2000/svg" xmlns:xlink="http://www.w3.org/1999/xlink" x="0px" y="0px"
	 width="512px" height="512px" viewBox="0 0 512 512" enable-background="new 0 0 512 512" xml:space="preserve">
<g>
	<path fill="#69C299" d="M497.351,281.432c-36.225,0-65.036-60.204-92.959-118.528c-9.668-20.202-18.788-39.277-27.404-53.812
		c-1.979-3.318-0.874-7.605,2.444-9.579c3.305-1.946,7.619-0.88,9.571,2.451c8.943,15.067,18.201,34.416,28.006,54.897
		c24.604,51.416,55.519,115.407,83.783,110.273c3.741-0.628,7.429,1.829,8.124,5.639c0.684,3.797-1.844,7.442-5.64,8.125
		C501.283,281.253,499.304,281.432,497.351,281.432z"/>
	<path fill="#69C299" d="M200.005,358.4c-1.57,0-3.154-0.532-4.465-1.611c-2.963-2.471-3.373-6.882-0.901-9.845
		c23.704-28.523,45.551-82.882,66.682-135.445c16.289-40.533,31.664-78.813,47.408-104.197c2.049-3.284,6.377-4.261,9.626-2.253
		c3.277,2.035,4.288,6.343,2.254,9.626c-15.103,24.353-30.259,62.087-46.316,102.033c-21.533,53.566-43.797,108.962-68.907,139.166
		C204.006,357.54,202.012,358.4,200.005,358.4z"/>
	<path fill="#5E686C" d="M11.642,379.756c-1.153,0-2.328-0.286-3.406-0.887c-3.366-1.885-4.575-6.145-2.69-9.517
		c18.419-32.936,34.894-49.771,51.859-52.98c18.338-3.413,33.385,8.89,49.306,21.957c5.64,4.629,11.47,9.422,17.621,13.654
		c3.182,2.198,3.98,6.555,1.789,9.735c-2.198,3.182-6.561,3.974-9.722,1.789c-6.636-4.588-12.699-9.559-18.563-14.364
		c-13.907-11.429-25.964-21.287-37.836-19.021c-12.412,2.335-26.23,17.41-42.247,46.057
		C16.469,378.473,14.093,379.756,11.642,379.756z"/>
	<path fill="#5E686C" d="M502.034,465.588H12.659c-3.864,0-6.991-3.126-6.991-6.99s3.127-6.991,6.991-6.991h489.375
		c3.865,0,6.991,3.127,6.991,6.991S505.9,465.588,502.034,465.588z"/>
	<path fill="#69C299" d="M348.846,130.105c-26.981,0-48.938-21.957-48.938-48.938s21.956-48.938,48.938-48.938
		c26.98,0,48.937,21.957,48.937,48.938S375.826,130.105,348.846,130.105z M348.846,46.213c-19.281,0-34.956,15.682-34.956,34.955
		s15.675,34.955,34.956,34.955c19.279,0,34.955-15.682,34.955-34.955S368.125,46.213,348.846,46.213z"/>
	<path fill="#5E686C" d="M163.541,420.992c-26.981,0-48.937-21.956-48.937-48.937c0-26.981,21.956-48.938,48.937-48.938
		c26.981,0,48.938,21.956,48.938,48.938C212.479,399.036,190.522,420.992,163.541,420.992z M163.541,337.1
		c-19.273,0-34.955,15.676-34.955,34.956s15.682,34.955,34.955,34.955c19.273,0,34.956-15.675,34.956-34.955
		S182.814,337.1,163.541,337.1z"/>
</g>
</svg>
