<?xml version="1.0" encoding="utf-8"?>
<!-- Generator: Adobe Illustrator 16.0.0, SVG Export Plug-In . SVG Version: 6.00 Build 0)  -->
<!DOCTYPE svg PUBLIC "-//W3C//DTD SVG 1.1//EN" "http://www.w3.org/Graphics/SVG/1.1/DTD/svg11.dtd">
<svg version="1.1" id="Layer_1" xmlns="http://www.w3.org/2000/svg" xmlns:xlink="http://www.w3.org/1999/xlink" x="0px" y="0px"
	 width="512px" height="512px" viewBox="0 0 512 512" enable-background="new 0 0 512 512" xml:space="preserve">
<path fill="#5E686C" d="M384.672,170.216H135.236c-3.724,0-6.735,3.013-6.735,6.737V378.23c0,19.698,15.672,35.716,34.938,35.716
	h37.322v86.234c0,3.725,3.013,6.737,6.737,6.737c3.724,0,6.73-3.014,6.729-6.737v-86.234h88.436v86.234
	c0,3.725,3.013,6.737,6.736,6.737c3.725,0,6.737-3.014,6.737-6.737v-86.234h40.321c19.278,0,34.952-16.017,34.952-35.716V176.953
	C391.409,173.229,388.396,170.216,384.672,170.216z M377.935,378.23c0,12.264-9.633,22.238-21.477,22.238h-44.415
	c-0.812-0.347-1.705-0.539-2.646-0.539c-0.939,0-1.833,0.192-2.645,0.539H210.14c-0.812-0.347-1.704-0.539-2.644-0.539
	c-0.94,0-1.833,0.192-2.646,0.539h-41.414c-11.837,0-21.463-9.975-21.463-22.238V183.69h235.96L377.935,378.23L377.935,378.23z"/>
<path fill="#69C299" d="M326.946,47.635l19.841-30.42c2.024-3.113,1.156-7.291-1.961-9.324c-3.119-2.02-7.291-1.145-9.33,1.967
	L314.49,42.061c-34.327-13.384-74.664-13.451-109.286,0.086L184.441,9.891c-2.014-3.12-6.186-4.021-9.311-2.021
	c-3.132,2.014-4.034,6.186-2.021,9.311l19.656,30.537c-39.725,20.177-64.266,56.753-64.266,96.179c0,3.724,3.013,6.737,6.735,6.737
	h249.437c3.724,0,6.737-3.013,6.738-6.737C391.41,104.479,366.858,67.905,326.946,47.635z M142.258,137.159
	c2.704-32.564,24.884-62.299,59.067-78.656l8.126-3.56c31.583-12.593,69.602-12.508,100.79-0.085l3.243,1.419
	c0.549,0.332,1.121,0.584,1.71,0.749l3.165,1.385c34.388,16.45,56.586,46.191,59.299,78.748H142.258z"/>
<path fill="#69C299" d="M210.786,66.622c-14.864,0-26.951,12.081-26.951,26.925c0,14.877,12.087,26.977,26.951,26.977
	c14.851,0,26.943-12.1,26.942-26.977C237.73,78.703,225.637,66.622,210.786,66.622z M210.786,107.049
	c-7.431,0-13.478-6.06-13.478-13.502c0-7.415,6.047-13.449,13.478-13.449c7.429,0,13.469,6.034,13.469,13.449
	C224.255,100.989,218.215,107.049,210.786,107.049z"/>
<path fill="#69C299" d="M310.425,66.622c-14.87,0-26.964,12.081-26.964,26.925c0,14.877,12.094,26.977,26.964,26.977
	c14.856,0,26.938-12.1,26.938-26.977C337.363,78.703,325.281,66.622,310.425,66.622z M310.425,107.049
	c-7.437,0-13.489-6.06-13.489-13.502c0-7.415,6.053-13.449,13.489-13.449c7.422,0,13.462,6.034,13.462,13.449
	C323.887,100.989,317.847,107.049,310.425,107.049z"/>
<path fill="#5E686C" d="M89.375,170.216c-3.726,0-6.738,3.013-6.738,6.737v172.312c0,3.726,3.014,6.738,6.738,6.738
	c3.724,0,6.736-3.014,6.736-6.739V176.953C96.113,173.229,93.099,170.216,89.375,170.216z"/>
<path fill="#5E686C" d="M430.52,170.216c-3.723,0-6.737,3.013-6.737,6.737v172.312c0,3.726,3.015,6.738,6.737,6.738
	s6.738-3.014,6.738-6.739V176.953C437.258,173.229,434.243,170.216,430.52,170.216z"/>
</svg>
