<?xml version="1.0" encoding="utf-8"?>
<!-- Generator: Adobe Illustrator 16.0.0, SVG Export Plug-In . SVG Version: 6.00 Build 0)  -->
<!DOCTYPE svg PUBLIC "-//W3C//DTD SVG 1.1//EN" "http://www.w3.org/Graphics/SVG/1.1/DTD/svg11.dtd">
<svg version="1.1" id="Layer_1" xmlns="http://www.w3.org/2000/svg" xmlns:xlink="http://www.w3.org/1999/xlink" x="0px" y="0px"
	 width="512px" height="512px" viewBox="0 0 512 512" enable-background="new 0 0 512 512" xml:space="preserve">
<path fill="#69C299" d="M255.596,130.88L255.596,130.88c-1.938,0-3.878-0.073-5.805-0.213c-3.188-0.226-5.791-2.656-6.243-5.824
	c-4.49-31.594,12.379-62.802,29.661-81.479c20.297-22.096,54.182-38.269,82.396-39.298c4.064-0.558,6.588,2.484,7.014,5.998
	c3.295,28.067-7.584,59.322-29.091,83.597C313.099,116.621,283.239,130.88,255.596,130.88z M349.573,18.2
	c-23.204,2.949-50.155,16.73-66.36,34.383c-13.47,14.558-27.854,39.61-26.727,64.688c23.299-0.319,49.452-13.058,66.866-32.644
	C340.634,65.122,350.172,40.741,349.573,18.2z"/>
<path fill="#5E686C" d="M173.175,508.059c-35.612,0-61.381-30.656-86.798-64.808C35.755,375.122,6.745,262.682,52.685,188.502
	c24.295-39.292,68.249-64.078,114.712-64.682c0.026,0,1.368-0.013,1.401-0.013c20.011,0,38.767,6.927,55.317,13.037
	c11.582,4.271,22.515,8.309,30.312,8.309c6.868,0,17.215-3.799,29.196-8.202c20.109-7.379,45.8-16.73,72.34-14.272
	c19.42,0.79,68.926,7.425,101.217,51.332c1.143,1.541,1.566,3.494,1.195,5.366c-0.372,1.88-1.527,3.507-3.161,4.497
	c-13.099,7.544-54.195,35.32-53.638,87.496c0.664,68.102,63.572,91.879,66.242,92.849c1.7,0.624,3.095,1.899,3.854,3.533
	c0.757,1.634,0.85,3.52,0.237,5.207c-3.958,11.729-15.234,41.243-37.432,71.476c-21.465,29.21-45.8,62.324-86.008,62.976
	l-1.713,0.014c-17.68,0-29.887-4.928-41.709-9.684c-12.539-5.062-24.388-9.829-43.715-9.829c-20.271,0-32.703,4.94-45.854,10.161
	c-11.569,4.597-23.523,9.352-40.221,9.963L173.175,508.059z M168.798,137.408c-43.083,0.558-82.674,22.874-104.544,58.246
	c-42.785,69.085-14.91,174.952,33.042,239.48c23.265,31.255,46.577,59.322,75.879,59.322l1.601-0.026
	c14.34-0.519,24.713-4.637,35.686-8.993c13.124-5.22,28.001-11.131,50.874-11.131c21.971,0,36.223,5.751,48.803,10.812
	c11.582,4.675,21.584,8.7,36.621,8.7l1.487-0.015c33.474-0.544,55.683-30.764,75.262-57.422
	c18.197-24.772,28.639-48.988,33.474-62.02c-17.959-8.436-68.381-37.884-69.006-102.863c-0.558-52.481,35.399-83.086,53.677-95.227
	c-28.744-33.965-69.709-39.331-86.604-40.028c-2.948-0.266-5.525-0.378-8.104-0.378c-20.895,0-40.938,7.359-58.631,13.854
	c-13.189,4.849-24.601,9.033-33.886,9.033c-10.228,0-21.717-4.244-35.027-9.152C203.925,143.891,186.378,137.408,168.798,137.408z"
	/>
</svg>
