<?xml version="1.0" encoding="utf-8"?>
<!-- Generator: Adobe Illustrator 16.0.0, SVG Export Plug-In . SVG Version: 6.00 Build 0)  -->
<!DOCTYPE svg PUBLIC "-//W3C//DTD SVG 1.1//EN" "http://www.w3.org/Graphics/SVG/1.1/DTD/svg11.dtd">
<svg version="1.1" id="Layer_1" xmlns="http://www.w3.org/2000/svg" xmlns:xlink="http://www.w3.org/1999/xlink" x="0px" y="0px"
	 width="512px" height="512px" viewBox="0 0 512 512" enable-background="new 0 0 512 512" xml:space="preserve">
<path fill="#69C299" d="M432.19,450.389c-1.671,0-3.343-0.617-4.659-1.869c-2.685-2.565-2.79-6.83-0.21-9.528
	c42.236-44.237,66.469-108.969,66.469-177.609c0-68.64-24.231-133.378-66.469-177.616c-2.58-2.692-2.475-6.956,0.21-9.529
	c2.726-2.567,6.963-2.475,9.529,0.224c44.62,46.719,70.207,114.853,70.207,186.922c0,72.076-25.587,140.203-70.207,186.93
	C435.743,449.691,433.967,450.389,432.19,450.389z"/>
<path fill="#69C299" d="M378.199,400.333c-1.752,0-3.503-0.684-4.831-2.026c-2.594-2.672-2.54-6.937,0.117-9.543
	c31.722-30.931,49.911-77.366,49.911-127.383c0-50.016-18.189-96.452-49.911-127.39c-2.657-2.6-2.711-6.864-0.117-9.529
	c2.618-2.672,6.87-2.705,9.543-0.119c34.286,33.458,53.965,83.402,53.965,137.038s-19.679,103.586-53.965,137.044
	C381.595,399.701,379.897,400.333,378.199,400.333z"/>
<path fill="#5E686C" d="M324.84,349.304c-1.922,0-3.83-0.814-5.173-2.407c-2.383-2.856-2.001-7.107,0.843-9.504
	c20.361-17.031,32.523-45.449,32.523-76.012c0-31.023-12.452-59.69-33.287-76.656c-2.896-2.35-3.33-6.594-0.976-9.483
	c2.356-2.889,6.607-3.31,9.478-0.967c23.955,19.506,38.263,52.069,38.263,87.107c0,34.511-13.965,66.784-37.341,86.356
	C327.906,348.791,326.366,349.304,324.84,349.304z"/>
<path fill="#5E686C" d="M225.861,462.88c-1.435,0-2.843-0.447-4.041-1.343L86.171,360.084h-72.53c-3.725,0-6.739-3.015-6.739-6.739
	V169.43c0-3.725,3.015-6.739,6.739-6.739h72.53L221.82,61.225c2.055-1.521,4.791-1.771,7.056-0.632
	c2.29,1.145,3.725,3.475,3.725,6.028v389.52c0,2.555-1.435,4.885-3.725,6.028C227.927,462.643,226.887,462.88,225.861,462.88z
	 M20.38,346.605h68.035c1.454,0,2.869,0.474,4.034,1.343l126.672,94.741V80.079L92.449,174.827c-1.165,0.869-2.58,1.343-4.034,1.343
	H20.38V346.605z"/>
</svg>
