<?xml version="1.0" encoding="utf-8"?>
<!-- Generator: Adobe Illustrator 16.0.0, SVG Export Plug-In . SVG Version: 6.00 Build 0)  -->
<!DOCTYPE svg PUBLIC "-//W3C//DTD SVG 1.1//EN" "http://www.w3.org/Graphics/SVG/1.1/DTD/svg11.dtd">
<svg version="1.1" id="Layer_1" xmlns="http://www.w3.org/2000/svg" xmlns:xlink="http://www.w3.org/1999/xlink" x="0px" y="0px"
	 width="512px" height="512px" viewBox="0 0 512 512" enable-background="new 0 0 512 512" xml:space="preserve">
<path fill="#69C299" d="M261.13,505.149c-66.151,0-119.975-53.812-119.975-119.962c0-66.149,53.823-119.961,119.975-119.961
	c66.137,0,119.947,53.812,119.947,119.961C381.077,451.338,327.267,505.149,261.13,505.149z M261.13,278.557
	c-58.811,0-106.646,47.836-106.646,106.633c0,58.796,47.836,106.631,106.646,106.631c58.795,0,106.617-47.836,106.617-106.633
	C367.747,326.392,319.925,278.557,261.13,278.557z"/>
<path fill="#5E686C" d="M212.617,391.854c-3.685,0-6.665-2.98-6.665-6.664c0-30.421,24.757-55.179,55.178-55.179
	c3.684,0,6.664,2.981,6.664,6.665c0,3.686-2.98,6.664-6.664,6.664c-23.079,0-41.85,18.771-41.85,41.85
	C219.281,388.872,216.301,391.854,212.617,391.854z"/>
<path fill="#5E686C" d="M277.296,213.969c-2.785,0-5.39-1.764-6.326-4.556c-1.158-3.495,0.729-7.27,4.217-8.429l139.955-46.657
	l-15.01-75.073l-0.117-59.336H122.256v58.028l-15.151,76.381l139.953,46.657c3.488,1.159,5.377,4.934,4.219,8.429
	c-1.172,3.501-4.922,5.396-8.435,4.21L97.316,165.111c-3.188-1.061-5.089-4.328-4.425-7.628l16.167-80.846l-0.13-63.384
	c0-3.683,2.981-6.664,6.665-6.664h291.076c3.684,0,6.663,2.981,6.663,6.664v64.692l16.037,79.538c0.664,3.3-1.235,6.567-4.426,7.628
	l-145.539,48.512C278.702,213.858,277.999,213.969,277.296,213.969z"/>
<path fill="#5E686C" d="M212.617,134.099c-3.685,0-6.665-2.98-6.665-6.664V60.79c0-3.684,2.98-6.664,6.665-6.664
	c3.684,0,6.663,2.98,6.663,6.664v66.645C219.281,131.119,216.301,134.099,212.617,134.099z"/>
<path fill="#5E686C" d="M309.642,134.099c-3.684,0-6.664-2.98-6.664-6.664V60.79c0-3.684,2.98-6.664,6.664-6.664
	c3.685,0,6.666,2.98,6.666,6.664v66.645C316.308,131.119,313.325,134.099,309.642,134.099z"/>
</svg>
