<?xml version="1.0" encoding="utf-8"?>
<!-- Generator: Adobe Illustrator 16.0.0, SVG Export Plug-In . SVG Version: 6.00 Build 0)  -->
<!DOCTYPE svg PUBLIC "-//W3C//DTD SVG 1.1//EN" "http://www.w3.org/Graphics/SVG/1.1/DTD/svg11.dtd">
<svg version="1.1" id="Layer_1" xmlns="http://www.w3.org/2000/svg" xmlns:xlink="http://www.w3.org/1999/xlink" x="0px" y="0px"
	 width="512px" height="512px" viewBox="0 0 512 512" enable-background="new 0 0 512 512" xml:space="preserve">
<path fill="#5E686C" d="M258.064,6.861c-147.016,0-218.486,47.884-218.486,146.399c0,113.516,206.057,244.793,214.831,250.326
	c0.015,0.01,0.03,0.016,0.046,0.024c0.167,0.104,0.342,0.189,0.518,0.278c0.116,0.061,0.229,0.127,0.347,0.18
	c0.073,0.031,0.149,0.054,0.224,0.083c0.09,0.034,0.18,0.064,0.271,0.097c0.132,0.046,0.262,0.102,0.396,0.14
	c0.071,0.021,0.147,0.028,0.221,0.047c0.077,0.02,0.154,0.032,0.23,0.049c0.095,0.021,0.188,0.044,0.282,0.06
	c0.372,0.062,0.746,0.102,1.122,0.102s0.751-0.04,1.124-0.102c0.091-0.016,0.181-0.038,0.271-0.057
	c0.079-0.018,0.157-0.03,0.234-0.051c0.075-0.019,0.153-0.026,0.229-0.048c0.14-0.039,0.273-0.097,0.411-0.146
	c0.079-0.027,0.156-0.053,0.233-0.084c0.08-0.031,0.164-0.056,0.243-0.09c0.118-0.053,0.229-0.118,0.346-0.179
	c0.177-0.089,0.354-0.177,0.521-0.28c0.014-0.01,0.029-0.016,0.044-0.023c8.773-5.532,214.831-136.811,214.831-250.326
	C476.551,54.745,405.078,6.861,258.064,6.861z M321.753,153.26c0,88.844-46.719,193.909-63.689,229.135
	c-16.971-35.227-63.688-140.292-63.688-229.135c0-118.927,36.352-132.684,63.688-132.684S321.753,34.333,321.753,153.26z
	 M180.658,153.26c0,77.695,33.25,164.762,54.38,212.251c-42.484-44.246-119.034-134.739-119.034-212.251
	c0-75.298,31.242-117.131,97.537-129.072C191.485,46.077,180.658,88.842,180.658,153.26z M335.469,153.26
	c0-64.419-10.827-107.185-32.884-129.073c66.308,11.939,97.552,53.772,97.552,129.073c0,77.466-76.553,167.973-119.041,212.237
	C302.226,318.004,335.469,230.947,335.469,153.26z M53.293,153.26c0-64.63,33.183-104.603,103.008-122.185
	c-36.205,23.419-54.012,63.955-54.012,122.185c0,68.92,54.128,144.734,97.654,194.559C138.485,299.984,53.293,221.385,53.293,153.26
	z M316.237,347.764c43.521-49.824,97.615-125.609,97.615-194.502c0-58.229-17.811-98.764-54.018-122.183
	c69.819,17.583,103.001,57.556,103.001,122.183C462.835,221.338,377.691,299.916,316.237,347.764z"/>
<path fill="#69C299" d="M297.255,430.119h-78.383c-3.791,0-6.858,3.066-6.858,6.857v47.041c0,12.846,9.697,22.528,22.542,22.528
	h47.027c12.845,0,22.528-9.684,22.528-22.528v-47.041C304.114,433.188,301.046,430.119,297.255,430.119z M290.398,484.019
	c0,5.184-3.63,8.812-8.812,8.812h-47.027c-5.197,0-8.827-3.63-8.827-8.812v-40.183h64.668L290.398,484.019L290.398,484.019z"/>
</svg>
