<?xml version="1.0" encoding="utf-8"?>
<!-- Generator: Adobe Illustrator 16.0.0, SVG Export Plug-In . SVG Version: 6.00 Build 0)  -->
<!DOCTYPE svg PUBLIC "-//W3C//DTD SVG 1.1//EN" "http://www.w3.org/Graphics/SVG/1.1/DTD/svg11.dtd">
<svg version="1.1" id="Layer_1" xmlns="http://www.w3.org/2000/svg" xmlns:xlink="http://www.w3.org/1999/xlink" x="0px" y="0px"
	 width="512px" height="512px" viewBox="0 0 512 512" enable-background="new 0 0 512 512" xml:space="preserve">
<path fill="#69C299" d="M167.21,211.007c-0.767,0-1.546-0.127-2.306-0.4c-3.545-1.273-5.392-5.186-4.119-8.731L229.889,9.348
	c1.267-3.546,5.186-5.386,8.731-4.119c3.546,1.273,5.392,5.186,4.119,8.731l-69.104,192.528
	C172.636,209.274,170.01,211.007,167.21,211.007z"/>
<path fill="#69C299" d="M352.527,211.007c-2.826,0-5.452-1.76-6.438-4.572L278.738,13.906c-1.24-3.559,0.633-7.451,4.192-8.698
	c3.586-1.24,7.451,0.633,8.697,4.192l67.338,192.528c1.253,3.56-0.627,7.452-4.186,8.698
	C354.033,210.887,353.273,211.007,352.527,211.007z"/>
<path fill="#5E686C" d="M167.21,459.142c-3.772,0-6.825-3.053-6.825-6.825V315.822c0-3.772,3.053-6.825,6.825-6.825
	s6.825,3.053,6.825,6.825v136.494C174.035,456.089,170.983,459.142,167.21,459.142z"/>
<path fill="#5E686C" d="M352.527,459.142c-3.772,0-6.825-3.053-6.825-6.825V315.822c0-3.772,3.053-6.825,6.825-6.825
	s6.825,3.053,6.825,6.825v136.494C359.352,456.089,356.299,459.142,352.527,459.142z"/>
<path fill="#5E686C" d="M458.155,507.184H61.609c-9.838,0-17.836-7.998-17.836-17.836V265.86H28.576
	c-9.851,0-17.862-8.165-17.862-18.196v-32.152c0-10.011,8.011-18.156,17.862-18.156h462.611c9.837,0,17.835,8.145,17.835,18.156
	v32.152c0,10.031-7.998,18.196-17.835,18.196H475.99v223.487C475.99,499.186,467.992,507.184,458.155,507.184z M28.576,211.007
	c-2.319,0-4.212,2.02-4.212,4.505v32.152c0,2.506,1.893,4.546,4.212,4.546h22.021c3.772,0,6.825,3.052,6.825,6.825v230.312
	c0,2.307,1.879,4.186,4.186,4.186h396.546c2.307,0,4.187-1.879,4.187-4.186V259.035c0-3.772,3.052-6.825,6.825-6.825h22.021
	c2.306,0,4.186-2.04,4.186-4.546v-32.152c0-2.486-1.88-4.505-4.186-4.505H28.576z"/>
</svg>
