<?xml version="1.0" encoding="utf-8"?>
<!-- Generator: Adobe Illustrator 16.0.0, SVG Export Plug-In . SVG Version: 6.00 Build 0)  -->
<!DOCTYPE svg PUBLIC "-//W3C//DTD SVG 1.1//EN" "http://www.w3.org/Graphics/SVG/1.1/DTD/svg11.dtd">
<svg version="1.1" id="Layer_1" xmlns="http://www.w3.org/2000/svg" xmlns:xlink="http://www.w3.org/1999/xlink" x="0px" y="0px"
	 width="512px" height="512px" viewBox="0 0 512 512" enable-background="new 0 0 512 512" xml:space="preserve">
<path fill="#69C299" d="M182.124,137.292h-38.529V88.211c0-3.752-3.036-6.788-6.788-6.788s-6.788,3.036-6.788,6.788v49.081H81.151
	V88.211c0-3.752-3.037-6.788-6.789-6.788s-6.786,3.036-6.786,6.788v49.081H33.289c-3.752,0-6.788,3.036-6.788,6.788v45.966
	c0,26.575,22.443,49.028,49.026,49.028h25.376v261.45c0,3.752,3.036,6.787,6.788,6.787s6.788-3.036,6.788-6.788V239.074h25.376
	c27.046,0,49.056-21.995,49.057-49.028V144.08C188.912,140.328,185.876,137.292,182.124,137.292z M175.335,190.046
	c0,19.549-15.91,35.452-35.479,35.452H75.528c-19.211,0-35.45-16.234-35.45-35.452v-39.178h135.259L175.335,190.046L175.335,190.046
	z"/>
<path fill="#5E686C" d="M466.509,50.173H237.33c-12.648,0-23.334,11.097-23.334,24.236v408.68c0,13.125,10.686,24.224,23.334,24.224
	h229.179c12.661,0,23.358-11.099,23.358-24.224V74.409C489.867,61.27,479.17,50.173,466.509,50.173z M476.293,483.09
	c0,6.098-5.173,10.646-9.784,10.646H237.33c-5.197,0-9.76-4.973-9.76-10.646V74.41c0-5.681,4.562-10.66,9.76-10.66v-0.001h229.179
	c5.117,0,9.784,5.078,9.784,10.66V483.09z"/>
<path fill="#5E686C" d="M270.873,18.235h162.093c3.752,0,6.788-3.036,6.788-6.789c0-3.752-3.036-6.788-6.788-6.788H270.873
	c-3.753,0-6.789,3.036-6.789,6.788C264.084,15.199,267.12,18.235,270.873,18.235z"/>
<path fill="#69C299" d="M391.984,285.333l-69.604-7.771l40.172-96.438c1.433-3.46-0.198-7.438-3.659-8.876
	c-3.434-1.452-7.438,0.185-8.883,3.652l-43.646,104.792c-0.82,1.978-0.661,4.218,0.427,6.061c1.087,1.843,2.97,3.062,5.091,3.303
	l70.016,7.821l-31.991,87.94c-1.284,3.524,0.531,7.409,4.059,8.695c0.768,0.278,1.55,0.411,2.319,0.411
	c2.771,0,5.369-1.711,6.376-4.467l34.947-96.056c0.716-1.948,0.491-4.135-0.61-5.899
	C395.895,286.738,394.051,285.57,391.984,285.333z"/>
</svg>
