<?xml version="1.0" encoding="utf-8"?>
<!-- Generator: Adobe Illustrator 16.0.0, SVG Export Plug-In . SVG Version: 6.00 Build 0)  -->
<!DOCTYPE svg PUBLIC "-//W3C//DTD SVG 1.1//EN" "http://www.w3.org/Graphics/SVG/1.1/DTD/svg11.dtd">
<svg version="1.1" id="Layer_1" xmlns="http://www.w3.org/2000/svg" xmlns:xlink="http://www.w3.org/1999/xlink" x="0px" y="0px"
	 width="512px" height="512px" viewBox="0 0 512 512" enable-background="new 0 0 512 512" xml:space="preserve">
<path fill="#69C299" d="M162.336,398.041c-1.703,0-3.407-0.639-4.731-1.903c-2.708-2.621-2.788-6.934-0.173-9.635l43.055-44.639
	c2.622-2.715,6.934-2.769,9.636-0.187c2.708,2.622,2.788,6.935,0.173,9.636l-43.055,44.639
	C165.903,397.35,164.12,398.041,162.336,398.041z"/>
<path fill="#5E686C" d="M420.883,95.043c-1.198,0-2.409-0.313-3.5-0.972c-3.234-1.937-4.286-6.122-2.343-9.35
	c8.132-13.562,10.048-27.257,5.523-39.607c-4.299-11.738-14.175-21.234-26.405-25.407c-10.873-3.7-22.506-2.948-32.807,2.129
	c-10.288,5.071-17.994,13.841-21.693,24.708c-0.426,1.265-0.812,2.595-1.118,3.899c-0.839,3.653-4.472,5.989-8.158,5.124
	c-3.674-0.832-5.963-4.485-5.124-8.158c0.386-1.73,0.905-3.487,1.478-5.217C336.823,12.607,369.044-3.25,398.55,6.811
	c16.104,5.483,29.107,18.047,34.816,33.612c4.166,11.406,6.415,29.56-6.641,51.312C425.448,93.865,423.186,95.043,420.883,95.043z"
	/>
<path fill="#5E686C" d="M438.211,489.634c-3.314,0-6.215-2.423-6.721-5.803c-0.706-4.685-16.876-115.682,11.791-199.994
	c16.902-49.616,21.295-92.138,13.083-126.401c-10.607-44.292-42.882-75.895-95.891-93.941
	C266.658,31.599,199.328,73.31,160.427,187.56c-28.688,84.312-109.22,162.382-112.634,165.67c-2.722,2.635-7.027,2.515-9.636-0.187
	c-2.608-2.715-2.522-7.027,0.187-9.636c0.812-0.785,81.577-79.108,109.187-160.233C188.741,62.07,263.917,16.221,364.865,50.598
	c57.734,19.644,92.977,54.527,104.755,103.664c8.823,36.799,4.299,81.876-13.429,133.968
	c-27.616,81.211-11.393,192.461-11.232,193.578c0.559,3.727-1.997,7.188-5.724,7.746
	C438.89,489.606,438.557,489.634,438.211,489.634z"/>
<path fill="#69C299" d="M402.357,238.52c-3.673,0-6.694-2.915-6.814-6.601c-1.064-34.776-14.905-62.06-41.138-81.105
	c-3.048-2.216-3.713-6.475-1.504-9.522s6.481-3.713,9.516-1.51c29.812,21.66,45.544,52.517,46.755,91.712
	c0.106,3.766-2.849,6.907-6.602,7.027C402.49,238.52,402.423,238.52,402.357,238.52z"/>
<path fill="#5E686C" d="M384.789,508c-5.523,0-11.393-0.213-17.621-0.626c-41.298-2.728-93.416-14.227-146.738-32.367
	c-22.326-7.612-43.873-16.037-64.043-25.034c-3.44-1.544-4.984-5.562-3.447-9.01c1.537-3.434,5.577-4.965,8.997-3.447
	c19.797,8.837,40.958,17.115,62.885,24.582c52.231,17.78,103.098,29.026,143.25,31.688c42.669,2.781,60.916-4.951,63.697-13.163
	c2.808-8.211-6.881-25.473-42.442-49.296c-33.445-22.372-80.612-44.492-132.851-62.26c-52.224-17.794-103.098-29.04-143.244-31.701
	c-42.708-2.889-60.915,4.924-63.716,13.148c-2.841,8.372,7.187,25.966,43.873,50.255c3.141,2.076,4,6.309,1.923,9.449
	c-2.089,3.128-6.308,3.993-9.442,1.917c-26.698-17.675-56.916-43.48-49.25-66.013c5.989-17.595,32.78-25.313,77.511-22.359
	c41.305,2.742,93.416,14.241,146.738,32.395c53.329,18.153,101.641,40.818,136.031,63.856
	c37.251,24.928,53.768,47.406,47.778,65.001C439.529,500.161,418.953,508,384.789,508z"/>
<path fill="#69C299" d="M129.496,463.255c-5.217,0-10.388-0.852-15.372-2.542c-24.881-8.478-38.237-35.628-29.779-60.529
	c6.588-19.338,24.741-32.313,45.177-32.313c5.204,0,10.368,0.852,15.332,2.528c12.071,4.1,21.813,12.657,27.437,24.103
	c5.623,11.433,6.462,24.382,2.349,36.453C168.066,450.279,149.919,463.255,129.496,463.255z M129.523,381.498
	c-14.6,0-27.57,9.276-32.274,23.078c-6.042,17.794,3.494,37.185,21.268,43.228c17.475,5.922,37.332-3.913,43.228-21.241
	c2.935-8.624,2.335-17.874-1.684-26.046c-4.013-8.172-10.967-14.28-19.584-17.208C136.929,382.097,133.243,381.498,129.523,381.498z
	"/>
</svg>
