<?xml version="1.0" encoding="utf-8"?>
<!-- Generator: Adobe Illustrator 16.0.0, SVG Export Plug-In . SVG Version: 6.00 Build 0)  -->
<!DOCTYPE svg PUBLIC "-//W3C//DTD SVG 1.1//EN" "http://www.w3.org/Graphics/SVG/1.1/DTD/svg11.dtd">
<svg version="1.1" id="Layer_1" xmlns="http://www.w3.org/2000/svg" xmlns:xlink="http://www.w3.org/1999/xlink" x="0px" y="0px"
	 width="512px" height="512px" viewBox="0 0 512 512" enable-background="new 0 0 512 512" xml:space="preserve">
<path fill="#5E686C" d="M256.169,3.51C127.067,3.51,19.23,100.165,5.321,228.34c-0.396,3.675,2.258,6.978,5.938,7.376
	c3.562,0.313,6.971-2.263,7.376-5.938C31.804,108.418,133.919,16.903,256.169,16.903c131.751,0,238.938,107.189,238.938,238.939
	S387.919,494.781,256.169,494.781c-122.25,0-224.365-91.521-237.534-212.874c-0.405-3.683-3.799-6.382-7.376-5.938
	c-3.682,0.399-6.337,3.702-5.938,7.377C19.23,411.526,127.074,508.174,256.17,508.174c139.138,0,252.331-113.191,252.331-252.332
	C508.5,116.709,395.307,3.51,256.169,3.51z"/>
<path fill="#5E686C" d="M256.169,440.415c101.773,0,184.586-82.799,184.586-184.573c0-101.775-82.812-184.573-184.586-184.573
	c-101.771,0-184.567,82.798-184.567,184.573C71.602,357.616,154.4,440.415,256.169,440.415z M256.169,84.661
	c94.397,0,171.192,76.789,171.192,171.181c0,94.394-76.795,171.184-171.192,171.184c-94.386,0-171.175-76.79-171.175-171.184
	C84.994,161.45,161.783,84.661,256.169,84.661z"/>
<path fill="#69C299" d="M207.125,255.842v69.537h-10.247c-3.701,0-6.696,2.995-6.696,6.696c0,3.7,2.994,6.696,6.696,6.696h16.941
	h10.255v10.239c0,3.7,2.993,6.695,6.694,6.695s6.696-2.995,6.696-6.695v-10.239h37.431v10.239c0,3.7,2.995,6.695,6.695,6.695
	c3.701,0,6.696-2.995,6.696-6.695v-11.596c19.437-4.896,33.872-22.524,33.873-43.465c0-20.201-13.444-37.316-31.853-42.888
	c9.142-8.209,14.902-20.108,14.903-33.331c0-14.174-6.622-26.825-16.925-35.044v-20.016c0-3.7-2.995-6.696-6.696-6.696
	c-3.7,0-6.695,2.995-6.695,6.696v12.661c-4.549-1.56-9.42-2.419-14.491-2.419h-22.938v-10.241c0-3.7-2.995-6.696-6.696-6.696
	c-3.7,0-6.694,2.995-6.694,6.696v10.241h-10.254l0,0l0,0h-16.941c-3.701,0-6.696,2.995-6.696,6.696c0,3.701,2.994,6.696,6.696,6.696
	h10.248v69.517C207.126,255.829,207.125,255.835,207.125,255.842z M277.356,262.538c17.314,0,31.413,14.092,31.413,31.413
	c0,16.096-12.166,29.396-27.771,31.21c-0.124,0.011-0.246,0.029-0.368,0.047c-1.076,0.112-2.168,0.171-3.272,0.171h-56.839v-62.841
	h39.889H277.356L277.356,262.538z M291.819,217.732c0,17.322-14.098,31.414-31.413,31.414h-39.889v-62.841h39.889
	C277.721,186.305,291.819,200.403,291.819,217.732z"/>
</svg>
