<?xml version="1.0" encoding="utf-8"?>
<!-- Generator: Adobe Illustrator 16.0.0, SVG Export Plug-In . SVG Version: 6.00 Build 0)  -->
<!DOCTYPE svg PUBLIC "-//W3C//DTD SVG 1.1//EN" "http://www.w3.org/Graphics/SVG/1.1/DTD/svg11.dtd">
<svg version="1.1" id="Layer_1" xmlns="http://www.w3.org/2000/svg" xmlns:xlink="http://www.w3.org/1999/xlink" x="0px" y="0px"
	 width="512px" height="512px" viewBox="0 0 512 512" enable-background="new 0 0 512 512" xml:space="preserve">
<path fill="#5E686C" d="M338.75,504.95H176.869c-0.311,0-0.606-0.026-0.903-0.066C81.791,503.882,8.153,430.217,8.153,336.826
	V175.691c0-92.27,75.677-167.86,168.697-168.506h70.804c0.384-0.073,0.857-0.125,1.188-0.105
	c90.265,0.593,161.28,69.472,165.961,160.535c0.236,0.692,0.354,1.431,0.354,2.195c0,0.481-0.039,0.949-0.145,1.397
	c2.241,6.079,9.071,18.196,27.847,18.196h22.204c21.821,0,40.952,18.024,40.952,38.566v108.856
	c0,96.476-87.192,165.672-165.921,167.992C339.659,504.897,339.211,504.95,338.75,504.95z M177.72,491.448h159.83
	c0.343-0.065,0.698-0.092,1.055-0.105c72.795-1.516,153.91-65.345,153.91-154.517V227.97c0-12.882-13.344-25.065-27.451-25.065
	H442.86c-28.295,0-39.872-21.143-42.047-32.323c-0.251-1.345-0.093-2.703,0.408-3.909c-5.037-82.599-69.433-144.958-151.312-146.078
	c-0.356,0.059-0.726,0.092-1.107,0.092h-71.905c-87.027,0.6-155.242,68.688-155.242,155.004v161.135
	c0,86.151,68.194,154.042,155.256,154.568C177.186,491.396,177.449,491.409,177.72,491.448z"/>
<path fill="#69C299" d="M362.971,352.557H134.447c-3.73,0-6.751-3.02-6.751-6.751c0-3.73,3.021-6.751,6.751-6.751h228.524
	c3.731,0,6.751,3.021,6.751,6.751C369.722,349.537,366.702,352.557,362.971,352.557z"/>
<path fill="#69C299" d="M287.248,202.905H134.447c-3.73,0-6.751-3.02-6.751-6.751s3.021-6.75,6.751-6.75h152.803
	c3.73,0,6.751,3.019,6.751,6.75S290.98,202.905,287.248,202.905z"/>
</svg>
