<?xml version="1.0" encoding="utf-8"?>
<!-- Generator: Adobe Illustrator 16.0.0, SVG Export Plug-In . SVG Version: 6.00 Build 0)  -->
<!DOCTYPE svg PUBLIC "-//W3C//DTD SVG 1.1//EN" "http://www.w3.org/Graphics/SVG/1.1/DTD/svg11.dtd">
<svg version="1.1" id="Layer_1" xmlns="http://www.w3.org/2000/svg" xmlns:xlink="http://www.w3.org/1999/xlink" x="0px" y="0px"
	 width="512px" height="512px" viewBox="0 0 512 512" enable-background="new 0 0 512 512" xml:space="preserve">
<path fill="#5E686C" d="M246.269,509.863c-0.881,0-1.769-0.174-2.617-0.521c-2.557-1.055-4.219-3.551-4.219-6.316v-248.41
	l-96.688-89.165c-2.777-2.563-2.951-6.883-0.394-9.661c2.57-2.771,6.897-2.944,9.661-0.394l229.724,211.858
	c1.376,1.256,2.163,3.018,2.203,4.887c0.04,1.855-0.681,3.658-2.003,4.967L251.103,507.859
	C249.795,509.168,248.045,509.863,246.269,509.863z M253.106,267.227v219.295l114.127-114.047L253.106,267.227z"/>
<path fill="none" stroke="#5E686C" stroke-linecap="round" stroke-linejoin="round" stroke-miterlimit="10" d="M246.536,251.971"/>
<path fill="#5E686C" d="M148.726,350.109c-1.83,0-3.652-0.734-5-2.178c-2.571-2.75-2.424-7.076,0.333-9.654l97.81-91.307
	c2.777-2.57,7.084-2.417,9.668,0.334c2.57,2.764,2.423,7.09-0.334,9.667l-97.811,91.294
	C152.071,349.494,150.395,350.109,148.726,350.109z"/>
<path fill="#69C299" d="M246.269,258.809c-3.779,0-6.836-3.059-6.836-6.837V6.838c0-2.764,1.662-5.255,4.219-6.316
	c2.571-1.062,5.495-0.474,7.451,1.482l126.959,126.906c1.309,1.309,2.029,3.098,2.003,4.954c-0.026,1.849-0.814,3.612-2.177,4.88
	L251.203,256.972c-1.355,1.263-2.777,1.93-4.8,1.837C246.363,258.809,246.316,258.809,246.269,258.809z M253.106,23.335v213.153
	l110.282-102.911L253.106,23.335z"/>
</svg>
