<?xml version="1.0" encoding="utf-8"?>
<!-- Generator: Adobe Illustrator 16.0.0, SVG Export Plug-In . SVG Version: 6.00 Build 0)  -->
<!DOCTYPE svg PUBLIC "-//W3C//DTD SVG 1.1//EN" "http://www.w3.org/Graphics/SVG/1.1/DTD/svg11.dtd">
<svg version="1.1" id="Layer_1" xmlns="http://www.w3.org/2000/svg" xmlns:xlink="http://www.w3.org/1999/xlink" x="0px" y="0px"
	 width="512px" height="512px" viewBox="0 0 512 512" enable-background="new 0 0 512 512" xml:space="preserve">
<path fill="none" stroke="#69C299" stroke-linecap="round" stroke-linejoin="round" stroke-miterlimit="10" d="M92.499,415.727"/>
<path fill="#5E686C" d="M241.397,481.172c-3.486,0-7.077-0.76-10.68-2.255c-8.256-3.76-31.673-13.51-43.323-14.663
	c-16.275-1.638-39.916-2.463-70.252-2.463c-42.222,0-82.852,1.638-83.258,1.663c-0.013,0-0.026,0-0.04,0
	c-18.176,0-31.529-13.432-31.529-30.572V62.443c0-17.318,14.035-31.405,31.293-31.405h197.79c17.259,0,31.292,14.087,31.292,31.405
	V457.57C262.691,471.461,253.938,481.172,241.397,481.172z M117.142,448.372c30.782,0,54.868,0.852,71.589,2.528
	c16.236,1.6,46.075,15.136,47.333,15.712c1.756,0.721,3.629,1.141,5.333,1.141c7.102,0,7.876-7.116,7.876-10.183V62.443
	c0-9.921-8.021-17.986-17.875-17.986H33.609c-9.855,0-17.875,8.065-17.875,17.986v370.438c0,9.632,7.483,17.167,17.029,17.167
	C33.746,450.022,74.651,448.372,117.142,448.372z"/>
<path fill="#69C299" d="M270.501,481.133c-4.271,0-8.242-1.141-11.61-3.382c-6.107-4.088-9.618-11.439-9.618-20.181h13.417
	c0,4.246,1.299,7.444,3.657,9.017c2.371,1.599,5.818,1.546,9.736-0.065c1.048-0.485,30.913-14.021,47.136-15.621
	c50.53-5.059,151.132-1.021,155.392-0.865c4.639,0.237,9.095-1.52,12.423-4.717c3.342-3.236,5.176-7.653,5.176-12.437V62.443
	c0-9.921-8.02-17.986-17.874-17.986H280.566c-9.854,0-17.875,8.065-17.875,17.986h-13.417c0-17.318,14.034-31.405,31.292-31.405
	h197.771c17.258,0,31.293,14.087,31.293,31.405v370.438c0,8.452-3.289,16.302-9.277,22.081c-5.963,5.739-13.878,8.793-22.238,8.491
	c-1.101-0.039-103.995-4.14-153.557,0.786c-11.649,1.167-35.08,10.917-43.127,14.586C277.709,480.372,274,481.133,270.501,481.133z"
	/>
</svg>
