<?xml version="1.0" encoding="utf-8"?>
<!-- Generator: Adobe Illustrator 16.0.0, SVG Export Plug-In . SVG Version: 6.00 Build 0)  -->
<!DOCTYPE svg PUBLIC "-//W3C//DTD SVG 1.1//EN" "http://www.w3.org/Graphics/SVG/1.1/DTD/svg11.dtd">
<svg version="1.1" id="Layer_1" xmlns="http://www.w3.org/2000/svg" xmlns:xlink="http://www.w3.org/1999/xlink" x="0px" y="0px"
	 width="512px" height="512px" viewBox="0 0 512 512" enable-background="new 0 0 512 512" xml:space="preserve">
<g>
	<g>
		<defs>
			<path id="SVGID_1_" d="M464.495,193.514h-58.062c-3.729,0-6.747-3.018-6.747-6.747c0-3.729,3.019-6.747,6.747-6.747h51.314
				V100.63h-51.314c-3.729,0-6.747-3.018-6.747-6.747c0-3.729,3.019-6.747,6.747-6.747h58.062c3.729,0,6.747,3.018,6.747,6.747
				v92.883C471.242,190.496,468.225,193.514,464.495,193.514z"/>
		</defs>
		<use xlink:href="#SVGID_1_"  overflow="visible" fill="#5E686C"/>
		<clipPath id="SVGID_2_">
			<use xlink:href="#SVGID_1_"  overflow="visible"/>
		</clipPath>
		<path clip-path="url(#SVGID_2_)" fill="#5E686C" d="M464.495,193.514h-81.274c-3.729,0-6.746-3.018-6.746-6.747V93.883
			c0-3.729,3.018-6.747,6.746-6.747h81.274c3.729,0,6.747,3.018,6.747,6.747v92.883
			C471.242,190.496,468.225,193.514,464.495,193.514z M389.969,180.02h67.779V100.63h-67.779V180.02z"/>
	</g>
	<g>
		<defs>
			<path id="SVGID_3_" d="M139.406,507H46.523c-3.729,0-6.747-3.018-6.747-6.747V12.609c0-3.729,3.018-6.747,6.747-6.747H139.4
				c3.729,0,6.747,3.018,6.747,6.747s-3.018,6.747-6.747,6.747H53.27v474.149h86.137c3.729,0,6.747,3.018,6.747,6.747
				S143.135,507,139.406,507z"/>
		</defs>
		<defs>
			<path id="SVGID_4_" d="M359.956,507H141.047c-3.729,0-6.747-3.018-6.747-6.747s3.018-6.747,6.747-6.747h218.909
				c21.914,0,39.744-17.855,39.744-39.797V59.146c0-21.941-17.83-39.79-39.744-39.79h-218.31c-3.729,0-6.747-3.018-6.747-6.747
				s3.018-6.747,6.747-6.747h218.31c29.354,0,53.238,23.904,53.238,53.284v394.562C413.195,483.096,389.31,507,359.956,507z"/>
		</defs>
		<use xlink:href="#SVGID_3_"  overflow="visible" fill="#69C299"/>
		<use xlink:href="#SVGID_4_"  overflow="visible" fill="#5E686C"/>
		<clipPath id="SVGID_5_">
			<use xlink:href="#SVGID_3_"  overflow="visible"/>
		</clipPath>
		<clipPath id="SVGID_6_" clip-path="url(#SVGID_5_)">
			<use xlink:href="#SVGID_4_"  overflow="visible"/>
		</clipPath>
		<path clip-path="url(#SVGID_6_)" fill="#5E686C" d="M359.956,507H46.523c-3.729,0-6.747-3.018-6.747-6.747V12.609
			c0-3.729,3.018-6.747,6.747-6.747h313.434c29.354,0,53.238,23.904,53.238,53.284v394.562C413.195,483.096,389.31,507,359.956,507z
			 M53.27,493.506h306.687c21.914,0,39.744-17.855,39.744-39.797V59.146c0-21.941-17.83-39.79-39.744-39.79H53.27V493.506z"/>
	</g>
	<g>
		<defs>
			<path id="SVGID_7_" d="M139.406,507c-3.729,0-6.747-3.018-6.747-6.747V12.609c0-3.729,3.018-6.747,6.747-6.747
				c3.729,0,6.747,3.018,6.747,6.747v487.644C146.153,503.982,143.135,507,139.406,507z"/>
		</defs>
		<use xlink:href="#SVGID_7_"  overflow="visible" fill="#69C299"/>
		<clipPath id="SVGID_8_">
			<use xlink:href="#SVGID_7_"  overflow="visible"/>
		</clipPath>
		<path clip-path="url(#SVGID_8_)" fill="#69C299" d="M139.406,507H46.523c-3.729,0-6.747-3.018-6.747-6.747V12.609
			c0-3.729,3.018-6.747,6.747-6.747h92.884c3.729,0,6.747,3.018,6.747,6.747v487.644C146.153,503.982,143.135,507,139.406,507z
			 M53.27,493.506h79.39V19.356H53.27V493.506z"/>
	</g>
	<path fill="#5E686C" d="M313.564,134.734c-3.729,0-6.747-3.018-6.747-6.747v-67.47c0-3.729,3.018-6.747,6.747-6.747
		s6.747,3.018,6.747,6.747v67.47C320.311,131.717,317.293,134.734,313.564,134.734z"/>
</g>
</svg>
