<?xml version="1.0" encoding="utf-8"?>
<!-- Generator: Adobe Illustrator 16.0.0, SVG Export Plug-In . SVG Version: 6.00 Build 0)  -->
<!DOCTYPE svg PUBLIC "-//W3C//DTD SVG 1.1//EN" "http://www.w3.org/Graphics/SVG/1.1/DTD/svg11.dtd">
<svg version="1.1" id="Layer_1" xmlns="http://www.w3.org/2000/svg" xmlns:xlink="http://www.w3.org/1999/xlink" x="0px" y="0px"
	 width="512px" height="512px" viewBox="0 0 512 512" enable-background="new 0 0 512 512" xml:space="preserve">
<path fill="#69C299" d="M183.792,319.963c-1.724,0-3.447-0.658-4.763-1.975c-2.632-2.631-2.632-6.895,0-9.525l183.032-183.058
	c2.631-2.632,6.895-2.632,9.526,0c2.632,2.631,2.632,6.895,0,9.526L188.555,317.988C187.24,319.305,185.516,319.963,183.792,319.963
	z"/>
<path fill="#5E686C" d="M224.215,56.403c-1.724,0-3.448-0.658-4.763-1.974L183.792,18.77l-35.659,35.659
	c-2.632,2.631-6.895,2.631-9.527,0c-2.631-2.632-2.631-6.895,0-9.527L179.029,4.48c2.631-2.631,6.895-2.631,9.526,0l40.422,40.422
	c2.632,2.632,2.632,6.895,0,9.527C227.662,55.745,225.938,56.403,224.215,56.403z"/>
<path fill="#69C299" d="M366.823,194.064c-3.724,0-6.737-3.013-6.737-6.737v-50.422h-50.422c-3.724,0-6.737-3.013-6.737-6.737
	c0-3.724,3.014-6.737,6.737-6.737h57.159c3.724,0,6.737,3.013,6.737,6.737v57.159C373.561,191.051,370.547,194.064,366.823,194.064z
	"/>
<path fill="#5E686C" d="M183.792,510c-22.29,0-40.422-18.131-40.422-40.422c0-22.289,18.132-40.422,40.422-40.422
	s40.422,18.133,40.422,40.422C224.215,491.869,206.082,510,183.792,510z M183.792,442.631c-14.862,0-26.948,12.092-26.948,26.947
	s12.086,26.949,26.948,26.949s26.948-12.094,26.948-26.949S198.655,442.631,183.792,442.631z"/>
<path fill="#5E686C" d="M183.792,442.631c-3.724,0-6.737-3.014-6.737-6.738V9.059c0-3.724,3.013-6.737,6.737-6.737
	s6.737,3.013,6.737,6.737v426.833C190.53,439.617,187.516,442.631,183.792,442.631z"/>
</svg>
