<?xml version="1.0" encoding="utf-8"?>
<!-- Generator: Adobe Illustrator 16.0.0, SVG Export Plug-In . SVG Version: 6.00 Build 0)  -->
<!DOCTYPE svg PUBLIC "-//W3C//DTD SVG 1.1//EN" "http://www.w3.org/Graphics/SVG/1.1/DTD/svg11.dtd">
<svg version="1.1" id="Layer_1" xmlns="http://www.w3.org/2000/svg" xmlns:xlink="http://www.w3.org/1999/xlink" x="0px" y="0px"
	 width="512px" height="512px" viewBox="0 0 512 512" enable-background="new 0 0 512 512" xml:space="preserve">
<g>
	<defs>
		<path id="SVGID_1_" d="M345.831,120.476H168.769c-3.78,0-6.839-3.059-6.839-6.839v-29.72c0-25.131,20.403-45.575,45.481-45.575
			h99.791c25.071,0,45.468,20.443,45.468,45.575v29.72C352.67,117.417,349.612,120.476,345.831,120.476z M175.608,106.798h163.385
			V83.917c0-17.591-14.259-31.897-31.79-31.897h-99.791c-17.538,0-31.804,14.306-31.804,31.897V106.798z"/>
	</defs>
	<use xlink:href="#SVGID_1_"  overflow="visible" fill="#69C299"/>
	<clipPath id="SVGID_2_">
		<use xlink:href="#SVGID_1_"  overflow="visible"/>
	</clipPath>
	<path clip-path="url(#SVGID_2_)" fill="#69C299" d="M345.831,129.485H168.769c-3.78,0-6.839-3.059-6.839-6.839V83.917
		c0-25.131,20.403-45.575,45.481-45.575h99.791c25.071,0,45.468,20.443,45.468,45.575v38.729
		C352.67,126.427,349.612,129.485,345.831,129.485z M175.608,115.808h163.385v-31.89c0-17.585-14.259-31.897-31.79-31.897h-99.791
		c-17.538,0-31.804,14.312-31.804,31.897V115.808z"/>
</g>
<path fill="#5E686C" d="M168.769,474.594H80.238c-3.78,0-6.839-3.059-6.839-6.838V434.55c0-3.78,3.059-6.839,6.839-6.839
	s6.839,3.059,6.839,6.839v26.366h74.854V434.55c0-3.78,3.059-6.839,6.839-6.839s6.839,3.059,6.839,6.839v33.206
	C175.608,471.535,172.549,474.594,168.769,474.594z"/>
<path fill="#5E686C" d="M434.363,474.594h-88.531c-3.78,0-6.839-3.059-6.839-6.838V434.55c0-3.78,3.059-6.839,6.839-6.839
	s6.839,3.059,6.839,6.839v26.366h74.854V434.55c0-3.78,3.059-6.839,6.839-6.839s6.839,3.059,6.839,6.839v33.206
	C441.201,471.535,438.143,474.594,434.363,474.594z"/>
<g>
	<defs>
		<path id="SVGID_3_" d="M445.382,441.389H69.231C34.917,441.389,7,413.485,7,379.197V168.989c0-34.295,27.917-62.191,62.231-62.191
			h376.151c34.301,0,62.218,27.896,62.218,62.191v210.208C507.6,413.485,479.683,441.389,445.382,441.389z M69.231,120.476
			c-26.774,0-48.553,21.765-48.553,48.513v210.208c0,26.755,21.779,48.514,48.553,48.514h376.151
			c26.768,0,48.54-21.759,48.54-48.514V168.989c0-26.748-21.772-48.513-48.54-48.513H69.231z"/>
	</defs>
	<use xlink:href="#SVGID_3_"  overflow="visible" fill="#5E686C"/>
	<clipPath id="SVGID_4_">
		<use xlink:href="#SVGID_3_"  overflow="visible"/>
	</clipPath>
	<path clip-path="url(#SVGID_4_)" fill="#5E686C" d="M445.382,441.389H69.231C34.917,441.389,7,413.485,7,379.197V168.989
		c0-34.295,27.917-62.191,62.231-62.191h376.151c34.301,0,62.218,27.896,62.218,62.191v210.208
		C507.6,413.485,479.683,441.389,445.382,441.389z M69.231,120.476c-26.774,0-48.553,21.765-48.553,48.513v210.208
		c0,26.755,21.779,48.514,48.553,48.514h376.151c26.768,0,48.54-21.759,48.54-48.514V168.989c0-26.748-21.772-48.513-48.54-48.513
		H69.231z"/>
</g>
</svg>
