<?xml version="1.0" encoding="utf-8"?>
<!-- Generator: Adobe Illustrator 16.0.0, SVG Export Plug-In . SVG Version: 6.00 Build 0)  -->
<!DOCTYPE svg PUBLIC "-//W3C//DTD SVG 1.1//EN" "http://www.w3.org/Graphics/SVG/1.1/DTD/svg11.dtd">
<svg version="1.1" id="Layer_1" xmlns="http://www.w3.org/2000/svg" xmlns:xlink="http://www.w3.org/1999/xlink" x="0px" y="0px"
	 width="512px" height="512px" viewBox="0 0 512 512" enable-background="new 0 0 512 512" xml:space="preserve">
<path fill="#5E686C" d="M502.688,57.37H11.643c-3.766,0-6.812,3.047-6.812,6.812v392.804c0,3.765,3.047,6.812,6.812,6.812h491.046
	c3.764,0,6.812-3.047,6.812-6.811V64.182C509.5,60.417,506.451,57.37,502.688,57.37z M495.877,70.993v103.635H18.455V70.993H495.877
	z M18.455,450.175V188.252h477.422v261.923H18.455z"/>
<path fill="#69C299" d="M80.882,150.097c15.033,0,27.266-12.206,27.266-27.206c0-15.047-12.231-27.286-27.266-27.286
	c-15.013,0-27.228,12.239-27.228,27.286C53.656,137.891,65.869,150.097,80.882,150.097z M80.882,109.228
	c7.522,0,13.643,6.126,13.643,13.663c0,7.49-6.12,13.583-13.643,13.583c-7.503,0-13.604-6.093-13.604-13.583
	C67.279,115.354,73.379,109.228,80.882,109.228z"/>
<path fill="#69C299" d="M152.815,150.097c15.021,0,27.239-12.206,27.239-27.206c0-15.047-12.219-27.286-27.239-27.286
	c-15.024,0-27.252,12.239-27.252,27.286C125.563,137.891,137.789,150.097,152.815,150.097z M152.815,109.228
	c7.512,0,13.617,6.126,13.617,13.663c0,7.49-6.105,13.583-13.617,13.583c-7.516,0-13.629-6.093-13.629-13.583
	C139.186,115.354,145.298,109.228,152.815,109.228z"/>
<path fill="#69C299" d="M224.708,150.097c15.033,0,27.271-12.206,27.271-27.206c0-15.047-12.237-27.286-27.271-27.286
	c-15.006,0-27.212,12.239-27.212,27.286C197.496,137.891,209.702,150.097,224.708,150.097z M224.708,109.228
	c7.529,0,13.648,6.126,13.647,13.663c0,7.49-6.119,13.583-13.647,13.583c-7.49,0-13.583-6.093-13.583-13.583
	C211.125,115.354,217.218,109.228,224.708,109.228z"/>
</svg>
