<?xml version="1.0" encoding="utf-8"?>
<!-- Generator: Adobe Illustrator 16.0.0, SVG Export Plug-In . SVG Version: 6.00 Build 0)  -->
<!DOCTYPE svg PUBLIC "-//W3C//DTD SVG 1.1//EN" "http://www.w3.org/Graphics/SVG/1.1/DTD/svg11.dtd">
<svg version="1.1" id="Layer_1" xmlns="http://www.w3.org/2000/svg" xmlns:xlink="http://www.w3.org/1999/xlink" x="0px" y="0px"
	 width="512px" height="512px" viewBox="0 0 512 512" enable-background="new 0 0 512 512" xml:space="preserve">
<path fill="#69C299" d="M261.606,508.006c-28.874,0-47.527-21.949-47.527-55.906c0-6.592,1.228-13.184,3.643-19.615
	c0.113-0.506,0.287-1.014,0.527-1.494l1.515-3.348c3.329-7.365,12.182-26.926,12.182-68.756c0-24.357-28.493-25.592-34.204-25.592
	l-78.809,0.006c-16.098,0-29.194-13.109-29.194-29.221V31.208C89.737,15.103,102.833,2,118.931,2h285.349
	c16.091,0,29.193,13.103,29.193,29.208V304.08c0,16.111-13.103,29.221-29.193,29.221h-72.745c-28.82,0-39.281,15.299-39.281,25.586
	c0,46.752,7.352,60.615,10.874,67.287c0.654,1.229,1.201,2.268,1.614,3.229l-0.066,0.041c1.041,1.146,1.695,2.641,1.762,4.297
	c2.121,6.029,3.188,12.195,3.188,18.359C309.626,485.535,290.332,508.006,261.606,508.006z M230.997,435.967
	c-0.06,0.201-0.127,0.389-0.2,0.574c-2.028,5.137-3.056,10.367-3.056,15.559c0,20.428,8.893,42.242,33.864,42.242
	c25.338,0,34.357-21.814,34.357-42.242c0-5.191-1.027-10.422-3.055-15.559c-0.08-0.199-0.16-0.414-0.214-0.613
	c-0.054-0.133-0.094-0.213-0.106-0.24c-0.668-1.521-1.068-2.256-1.521-3.123c-4.057-7.631-12.476-23.523-12.476-73.678
	c0-15.777,14.104-39.248,52.944-39.248h72.745c8.565,0,15.53-6.979,15.53-15.559V31.208c0-8.573-6.965-15.544-15.53-15.544H118.931
	c-8.566,0-15.531,6.972-15.531,15.544V304.08c0,8.58,6.965,15.559,15.531,15.559h78.322c0.007,0,0.014,0,0.014,0
	c18.273,0,48.341,8.271,48.341,39.248c0,44.777-9.733,66.287-13.396,74.385l-0.694,1.549
	C231.511,434.834,231.204,435.514,230.997,435.967z"/>
<path fill="#5E686C" d="M426.643,269.764H96.569c-3.776,0-6.832-3.057-6.832-6.832s3.056-6.832,6.832-6.832h330.074
	c3.775,0,6.831,3.057,6.831,6.832S430.418,269.764,426.643,269.764z"/>
<path fill="#5E686C" d="M426.643,191.294H96.569c-3.776,0-6.832-3.056-6.832-6.832c0-3.776,3.056-6.832,6.832-6.832h330.074
	c3.775,0,6.831,3.055,6.831,6.832C433.474,188.239,430.418,191.294,426.643,191.294z"/>
</svg>
