<?xml version="1.0" encoding="utf-8"?>
<!-- Generator: Adobe Illustrator 16.0.0, SVG Export Plug-In . SVG Version: 6.00 Build 0)  -->
<!DOCTYPE svg PUBLIC "-//W3C//DTD SVG 1.1//EN" "http://www.w3.org/Graphics/SVG/1.1/DTD/svg11.dtd">
<svg version="1.1" id="Layer_1" xmlns="http://www.w3.org/2000/svg" xmlns:xlink="http://www.w3.org/1999/xlink" x="0px" y="0px"
	 width="512px" height="512px" viewBox="0 0 512 512" enable-background="new 0 0 512 512" xml:space="preserve">
<path fill="#5E686C" d="M255.986,2.592c-130.444,0-236.583,106.137-236.583,236.597c0,76.976,37.274,148.801,99.983,193.208
	l-23.062,69.157c-0.871,2.643-0.08,5.538,2.023,7.361c1.274,1.1,2.869,1.676,4.492,1.676c1.045,0,2.091-0.241,3.071-0.725
	l85.822-42.919c20.794,5.858,42.396,8.837,64.25,8.837c130.473,0,236.61-106.139,236.61-236.596
	C492.596,108.729,386.458,2.592,255.986,2.592z M255.987,462.055c-21.451,0-42.649-3.028-62.977-9.021
	c-1.69-0.497-3.46-0.337-5.015,0.439L114.6,490.172l19.441-58.326c0.965-2.922-0.121-6.14-2.668-7.855
	c-61.518-41.564-98.241-110.643-98.241-184.8c0-122.884,99.97-222.867,222.854-222.867c122.897,0,222.881,99.983,222.882,222.867
	C478.866,362.073,378.883,462.055,255.987,462.055z"/>
<path fill="#69C299" d="M152.088,225.029c-24.214,0-43.924,19.71-43.924,43.925c0,24.228,19.71,43.938,43.924,43.938
	c24.228,0,43.938-19.71,43.938-43.938C196.026,244.739,176.316,225.029,152.088,225.029z M152.088,299.161
	c-16.652,0-30.194-13.554-30.194-30.207s13.542-30.195,30.194-30.195c16.653,0,30.208,13.543,30.208,30.195
	C182.296,285.605,168.741,299.161,152.088,299.161z"/>
<path fill="#69C299" d="M344.305,145.387c0-24.215-19.71-43.925-43.925-43.925c-24.229,0-43.951,19.71-43.951,43.925
	c0,24.228,19.723,43.938,43.951,43.938C324.595,189.325,344.305,169.615,344.305,145.387z M270.158,145.387
	c0-16.653,13.556-30.195,30.222-30.195c16.653,0,30.194,13.541,30.194,30.195c0,16.653-13.541,30.208-30.194,30.208
	C283.714,175.595,270.158,162.04,270.158,145.387z"/>
<path fill="#69C299" d="M325.078,274.451c-24.218,0-43.928,19.71-43.928,43.924c0,24.228,19.71,43.952,43.928,43.952
	c24.228,0,43.948-19.725,43.948-43.952C369.028,294.161,349.306,274.451,325.078,274.451z M325.078,348.598
	c-16.653,0-30.195-13.557-30.195-30.223c0-16.652,13.542-30.193,30.195-30.193c16.665,0,30.221,13.541,30.221,30.193
	C355.299,335.041,341.743,348.598,325.078,348.598z"/>
</svg>
