<?xml version="1.0" encoding="utf-8"?>
<!-- Generator: Adobe Illustrator 16.0.0, SVG Export Plug-In . SVG Version: 6.00 Build 0)  -->
<!DOCTYPE svg PUBLIC "-//W3C//DTD SVG 1.1//EN" "http://www.w3.org/Graphics/SVG/1.1/DTD/svg11.dtd">
<svg version="1.1" id="Layer_1" xmlns="http://www.w3.org/2000/svg" xmlns:xlink="http://www.w3.org/1999/xlink" x="0px" y="0px"
	 width="512px" height="512px" viewBox="0 0 512 512" enable-background="new 0 0 512 512" xml:space="preserve">
<path fill="#69C299" d="M393.744,137.591h-0.013c-6.192-0.007-12.663-1.412-19.266-4.19c-10.952-4.614-19.238-12.53-23.322-22.295
	c-4.124-9.851-3.858-21.3,0.742-32.232c2.427-5.761,6.63-11.064,11.071-16.673c10.926-13.796,21.254-26.823,7.783-47.321
	c-1.524-2.327-1.485-5.356,0.119-7.637c1.618-2.28,4.429-3.374,7.146-2.685c46.261,11.19,63.02,52.319,59.029,85.792
	C433.654,118.604,416.258,137.591,393.744,137.591z M389.382,22.975c5.662,20.591-6.457,35.885-15.777,47.659
	c-3.858,4.866-7.491,9.46-9.202,13.511c-3.222,7.657-3.487,15.168-0.742,21.718c2.744,6.556,8.313,11.754,16.083,15.022
	c4.919,2.075,9.626,3.123,13.988,3.129h0.013c18.895,0,27.857-19,29.807-35.269C426.388,64.893,416.536,36.353,389.382,22.975z"/>
<path fill="#69C299" d="M314.662,230.934c-1.121,0-2.248-0.278-3.295-0.855c-3.275-1.823-4.455-5.96-2.632-9.235l55.945-100.476
	c1.816-3.288,5.967-4.428,9.229-2.632c3.274,1.823,4.455,5.96,2.625,9.235l-55.933,100.476
	C319.356,229.674,317.049,230.934,314.662,230.934z"/>
<path fill="#69C299" d="M357.534,230.934c-0.796,0-1.604-0.139-2.399-0.438c-3.501-1.326-5.277-5.244-3.951-8.75l35.176-93.118
	c1.312-3.507,5.197-5.297,8.751-3.951c3.5,1.326,5.276,5.244,3.951,8.751l-35.176,93.117
	C362.865,229.263,360.28,230.934,357.534,230.934z"/>
<path fill="#5E686C" d="M400.414,402.41h-21.427c-3.752,0-6.788-3.035-6.788-6.787s3.036-6.789,6.788-6.789h21.427
	c31.715,0,57.517-25.803,57.517-57.518s-25.802-57.518-57.517-57.518h-21.427c-3.752,0-6.788-3.035-6.788-6.787
	s3.036-6.789,6.788-6.789h21.427c39.206,0,71.094,31.895,71.094,71.094C471.508,370.518,439.62,402.41,400.414,402.41z"/>
<path fill="#5E686C" d="M336.109,509.59H143.185c-27.386,0-49.661-22.275-49.661-49.643V224.145c0-3.752,3.036-6.789,6.788-6.789
	h278.676c3.752,0,6.788,3.037,6.788,6.789v235.802C385.776,487.314,363.501,509.59,336.109,509.59z M107.101,230.934v229.014
	c0,19.889,16.189,36.064,36.084,36.064h192.924c19.901,0,36.091-16.176,36.091-36.064V230.934H107.101z"/>
<path fill="#5E686C" d="M186.329,230.934c-0.093-0.013-0.173-0.006-0.272,0h-64.306c-2.572,0-4.919-1.452-6.073-3.752
	l-32.153-64.305c-0.305-0.604-0.51-1.253-0.623-1.923l-10.72-64.306c-0.438-2.612,0.689-5.237,2.877-6.722
	c2.181-1.505,5.025-1.591,7.312-0.212l53.592,32.153c1.021,0.61,1.863,1.485,2.439,2.526l52.784,95.013
	c1.193,1.226,1.929,2.897,1.929,4.74C193.117,227.897,190.081,230.934,186.329,230.934z M125.948,217.356h48.574l-47.103-84.784
	l-39.425-23.654l8.135,48.8L125.948,217.356z"/>
<path fill="#5E686C" d="M89.606,166.628c-2.068,0-4.104-0.935-5.437-2.718c-2.254-2.997-1.644-7.253,1.359-9.5l42.873-32.153
	c2.983-2.248,7.246-1.657,9.5,1.359c2.254,2.997,1.644,7.252-1.359,9.5l-42.873,32.153
	C92.449,166.184,91.024,166.628,89.606,166.628z"/>
<path fill="#5E686C" d="M293.236,230.934H207.49c-3.752,0-6.789-3.036-6.789-6.789V9.789c0-3.752,3.036-6.789,6.789-6.789h85.745
	c3.752,0,6.788,3.037,6.788,6.789v214.356C300.024,227.897,296.988,230.934,293.236,230.934z M214.279,217.356h72.169V16.577
	h-72.169V217.356z"/>
<path fill="#5E686C" d="M293.236,59.457h-42.873c-3.752,0-6.789-3.036-6.789-6.789s3.036-6.789,6.789-6.789h42.873
	c3.752,0,6.788,3.036,6.788,6.789S296.988,59.457,293.236,59.457z"/>
<path fill="#5E686C" d="M293.236,102.322h-21.433c-3.753,0-6.789-3.036-6.789-6.789c0-3.752,3.036-6.788,6.789-6.788h21.433
	c3.752,0,6.788,3.036,6.788,6.788C300.024,99.286,296.988,102.322,293.236,102.322z"/>
<path fill="#5E686C" d="M293.236,145.188h-42.873c-3.752,0-6.789-3.037-6.789-6.789c0-3.752,3.036-6.789,6.789-6.789h42.873
	c3.752,0,6.788,3.036,6.788,6.789C300.024,142.152,296.988,145.188,293.236,145.188z"/>
<path fill="#5E686C" d="M293.236,188.068h-21.433c-3.753,0-6.789-3.037-6.789-6.789c0-3.752,3.036-6.789,6.789-6.789h21.433
	c3.752,0,6.788,3.036,6.788,6.789C300.024,185.031,296.988,188.068,293.236,188.068z"/>
</svg>
