<?xml version="1.0" encoding="utf-8"?>
<!-- Generator: Adobe Illustrator 16.0.0, SVG Export Plug-In . SVG Version: 6.00 Build 0)  -->
<!DOCTYPE svg PUBLIC "-//W3C//DTD SVG 1.1//EN" "http://www.w3.org/Graphics/SVG/1.1/DTD/svg11.dtd">
<svg version="1.1" id="Layer_1" xmlns="http://www.w3.org/2000/svg" xmlns:xlink="http://www.w3.org/1999/xlink" x="0px" y="0px"
	 width="512px" height="512px" viewBox="0 0 512 512" enable-background="new 0 0 512 512" xml:space="preserve">
<path fill="#5E686C" d="M259.98,429.606c-34.104,0-52.735-4.099-62.322-13.73c-8.572-8.604-8.525-19.767-8.479-31.573
	c0.046-12.399,0.099-26.461-9.481-41.746c-8.849-14.127-20.128-29.175-32.066-45.105c-29.629-39.532-60.268-80.409-60.268-115.883
	c0-96.274,77.438-174.602,172.618-174.602c95.182,0,172.625,78.327,172.625,174.602c0,35.487-30.638,76.364-60.261,115.896
	c-11.938,15.933-23.219,30.98-32.061,45.094c-9.595,15.285-9.541,29.347-9.488,41.746c0.04,11.82,0.079,22.981-8.499,31.586
	C312.716,425.509,294.07,429.606,259.98,429.606z M259.98,20.459c-87.742,0-159.125,72.272-159.125,161.108
	c0,30.98,29.268,70.038,57.572,107.792c12.11,16.168,23.555,31.428,32.707,46.027c11.648,18.606,11.589,35.436,11.537,48.969
	c-0.046,11.096,0.145,17.577,4.546,22.006c6.536,6.562,23.798,9.752,52.763,9.752c28.964,0,46.213-3.189,52.764-9.752
	c4.4-4.429,4.599-10.91,4.559-22.006c-0.052-13.533-0.118-30.361,11.544-48.969c9.146-14.587,20.583-29.859,32.693-46.016
	c28.306-37.767,57.571-76.812,57.571-107.805C419.111,92.731,347.729,20.459,259.98,20.459z"/>
<path fill="#5E686C" d="M304.203,473.844h-88.447c-3.729,0-6.747-3.018-6.747-6.747c0-3.729,3.018-6.747,6.747-6.747h88.447
	c3.729,0,6.747,3.019,6.747,6.747C310.95,470.826,307.932,473.844,304.203,473.844z"/>
<path fill="#5E686C" d="M304.203,507.024h-88.447c-3.729,0-6.747-3.019-6.747-6.747c0-3.729,3.018-6.747,6.747-6.747h88.447
	c3.729,0,6.747,3.019,6.747,6.747C310.95,504.007,307.932,507.024,304.203,507.024z"/>
<path fill="#69C299" d="M304.203,208.449c-1.728,0-3.453-0.659-4.771-1.977l-61.564-61.591l-61.585,61.591
	c-2.637,2.636-6.905,2.636-9.541,0c-2.637-2.636-2.637-6.905,0-9.541l66.354-66.362c1.265-1.265,2.979-1.977,4.771-1.977l0,0
	c1.792,0,3.505,0.712,4.77,1.977l66.335,66.362c2.636,2.636,2.636,6.905,0,9.541C307.656,207.791,305.93,208.449,304.203,208.449z"
	/>
<path fill="#69C299" d="M353.988,208.449c-1.727,0-3.451-0.659-4.771-1.977l-61.591-61.591l-61.592,61.591
	c-2.637,2.636-6.905,2.636-9.541,0c-2.637-2.636-2.636-6.905,0-9.541l66.361-66.362c2.637-2.635,6.905-2.635,9.54,0l66.362,66.362
	c2.636,2.636,2.636,6.905,0,9.541C357.44,207.791,355.714,208.449,353.988,208.449z"/>
</svg>
