<?xml version="1.0" encoding="utf-8"?>
<!-- Generator: Adobe Illustrator 16.0.0, SVG Export Plug-In . SVG Version: 6.00 Build 0)  -->
<!DOCTYPE svg PUBLIC "-//W3C//DTD SVG 1.1//EN" "http://www.w3.org/Graphics/SVG/1.1/DTD/svg11.dtd">
<svg version="1.1" id="Layer_1" xmlns="http://www.w3.org/2000/svg" xmlns:xlink="http://www.w3.org/1999/xlink" x="0px" y="0px"
	 width="512px" height="512px" viewBox="0 0 512 512" enable-background="new 0 0 512 512" xml:space="preserve">
<path fill="#5E686C" d="M341.901,148.698H195.157c-3.092,0-5.788-2.104-6.538-5.104L155.995,13.137
	c-0.5-2.006-0.053-4.144,1.224-5.775c1.276-1.638,3.236-2.592,5.314-2.592h211.978c2.079,0,4.039,0.954,5.314,2.592
	c1.275,1.631,1.724,3.762,1.224,5.775l-32.611,130.457C347.688,146.594,344.991,148.698,341.901,148.698z M200.419,135.228h136.219
	l29.243-116.986H171.162L200.419,135.228z"/>
<path fill="#69C299" d="M260.379,507.406c-1.157,0-2.302-0.289-3.342-0.881l-114.146-65.209c-2.513-1.447-3.828-4.328-3.263-7.171
	l48.923-244.596c0.737-3.657,4.446-6.031,7.919-5.282c3.657,0.73,6.024,4.275,5.288,7.926l-47.976,239.833l106.594,60.881
	l106.856-61.052l-32.02-240.098c-0.486-3.683,2.104-7.07,5.789-7.564c3.617-0.526,7.077,2.092,7.576,5.788l32.61,244.583
	c0.355,2.724-0.96,5.381-3.341,6.749l-114.132,65.209C262.681,507.117,261.536,507.406,260.379,507.406z"/>
<path fill="#5E686C" d="M211.443,360.65c-3.223,0-6.076-2.329-6.63-5.632c-0.604-3.67,1.868-7.143,5.538-7.747l97.833-16.285
	c3.592-0.672,7.13,1.854,7.748,5.538c0.605,3.67-1.867,7.143-5.538,7.747l-97.833,16.286
	C212.193,360.624,211.811,360.65,211.443,360.65z"/>
<path fill="#5E686C" d="M211.443,425.886c-3.223,0-6.076-2.329-6.63-5.631c-0.618-3.67,1.868-7.143,5.538-7.748l97.833-16.312
	c3.592-0.671,7.13,1.854,7.748,5.538c0.619,3.671-1.867,7.144-5.538,7.749l-97.833,16.312
	C212.193,425.859,211.811,425.886,211.443,425.886z"/>
</svg>
