<?xml version="1.0" encoding="utf-8"?>
<!-- Generator: Adobe Illustrator 16.0.0, SVG Export Plug-In . SVG Version: 6.00 Build 0)  -->
<!DOCTYPE svg PUBLIC "-//W3C//DTD SVG 1.1//EN" "http://www.w3.org/Graphics/SVG/1.1/DTD/svg11.dtd">
<svg version="1.1" id="Layer_1" xmlns="http://www.w3.org/2000/svg" xmlns:xlink="http://www.w3.org/1999/xlink" x="0px" y="0px"
	 width="512px" height="512px" viewBox="0 0 512 512" enable-background="new 0 0 512 512" xml:space="preserve">
<path fill="#5E686C" d="M440.261,436.55H73.624C36.334,436.55,6,406.209,6,368.926v-168.37c0-3.75,3.034-6.784,6.783-6.784H501.1
	c3.75,0,6.784,3.034,6.784,6.784v168.37C507.885,406.209,477.544,436.55,440.261,436.55z M19.567,207.339v161.587
	c0,29.812,24.252,54.058,54.058,54.058h366.637c29.811,0,54.057-24.246,54.057-54.058V207.339H19.567z"/>
<path fill="#69C299" d="M501.101,167.631H12.783c-3.75,0-6.783-3.034-6.783-6.784v-3.975c0-37.303,30.333-67.65,67.624-67.65
	h366.637c37.283,0,67.624,30.348,67.624,67.65v3.975C507.885,164.597,504.851,167.631,501.101,167.631z M19.64,154.064h474.61
	c-1.471-28.519-25.119-51.274-53.989-51.274H73.624C44.76,102.79,21.104,125.545,19.64,154.064z"/>
<path fill="#5E686C" d="M433.345,310.789H256.952c-3.75,0-6.784-3.034-6.784-6.784c0-3.749,3.034-6.782,6.784-6.782h176.393
	c3.75,0,6.783,3.033,6.783,6.782C440.128,307.755,437.095,310.789,433.345,310.789z"/>
</svg>
