<?xml version="1.0" encoding="utf-8"?>
<!-- Generator: Adobe Illustrator 16.0.0, SVG Export Plug-In . SVG Version: 6.00 Build 0)  -->
<!DOCTYPE svg PUBLIC "-//W3C//DTD SVG 1.1//EN" "http://www.w3.org/Graphics/SVG/1.1/DTD/svg11.dtd">
<svg version="1.1" id="Layer_1" xmlns="http://www.w3.org/2000/svg" xmlns:xlink="http://www.w3.org/1999/xlink" x="0px" y="0px"
	 width="512px" height="512px" viewBox="0 0 512 512" enable-background="new 0 0 512 512" xml:space="preserve">
<path fill="#5E686C" d="M105.017,53.964c0-3.756-3.039-6.796-6.796-6.796H9.742c-3.758,0-6.798,3.04-6.798,6.796
	c0,3.756,3.04,6.796,6.798,6.796h88.479C101.978,60.76,105.017,57.72,105.017,53.964z"/>
<path fill="#5E686C" d="M497.408,87.319H76.075c-6.598,0-11.959,5.362-11.881,12.994l35.443,228.77
	c-0.254,0.916-0.326,1.898-0.163,2.899l8.063,49.376c0.947,6.757,6.82,11.854,13.649,11.854h17.876
	c-1.713,5.28-2.65,10.906-2.65,16.751c0,29.983,24.382,54.366,54.358,54.366c29.984,0,54.373-24.383,54.374-54.366
	c0-5.845-0.938-11.471-2.651-16.751h106.118c-1.714,5.28-2.65,10.906-2.65,16.751c0,29.983,24.383,54.366,54.364,54.366
	c29.985,0,54.368-24.383,54.367-54.366c0-29.984-24.383-54.367-54.367-54.367c-18.756,0-35.319,9.543-45.095,24.028
	c-0.028,0-0.058-0.004-0.087-0.004H235.956c-0.027,0-0.054,0.004-0.08,0.004c-9.777-14.485-26.344-24.028-45.103-24.028
	c-18.752,0-35.313,9.542-45.089,24.027c-0.029,0-0.056-0.004-0.085-0.004l-24.622-0.292l-5.626-34.468l346.896-51.156
	c6.024,0,10.925-5.376,10.79-10.646l36.344-183.779C509.383,92.681,504.007,87.319,497.408,87.319z M400.328,369.188
	c22.486,0,40.776,18.29,40.775,40.775c0,22.484-18.29,40.774-40.775,40.774c-22.482,0-40.772-18.29-40.772-40.774
	C359.556,387.478,377.846,369.188,400.328,369.188z M190.775,369.188c22.485,0,40.781,18.29,40.782,40.775
	c0,22.484-18.297,40.774-40.782,40.774c-22.478,0-40.769-18.29-40.769-40.774C150.006,387.478,168.297,369.188,190.775,369.188z
	 M459.849,280.391l-346.184,50.97L77.96,100.911h417.381L459.849,280.391z"/>
<path fill="#69C299" d="M245.022,207.441c1.739,0,3.479-0.664,4.806-1.991l30.144-30.115v71.235c0,3.756,3.04,6.796,6.796,6.796
	s6.796-3.039,6.796-6.796v-71.223l30.104,30.104c1.327,1.327,3.065,1.991,4.805,1.991s3.479-0.664,4.804-1.991
	c2.655-2.655,2.655-6.955,0-9.61l-41.656-41.657c-0.333-0.339-0.701-0.644-1.1-0.907c-0.043-0.028-0.088-0.052-0.131-0.08
	c-0.143-0.09-0.286-0.178-0.436-0.258c-0.064-0.034-0.132-0.062-0.196-0.094c-0.133-0.065-0.266-0.13-0.402-0.187
	c-0.075-0.031-0.15-0.056-0.228-0.083c-0.131-0.048-0.261-0.098-0.396-0.138c-0.087-0.026-0.176-0.045-0.264-0.067
	c-0.125-0.032-0.248-0.067-0.376-0.092c-0.115-0.022-0.231-0.036-0.348-0.053c-0.104-0.015-0.203-0.034-0.308-0.044
	c-0.446-0.044-0.896-0.044-1.344,0c-0.097,0.01-0.191,0.028-0.287,0.042c-0.123,0.017-0.246,0.032-0.368,0.056
	c-0.12,0.024-0.235,0.057-0.354,0.087c-0.097,0.024-0.191,0.045-0.286,0.073c-0.125,0.038-0.246,0.084-0.368,0.129
	c-0.085,0.031-0.171,0.059-0.255,0.093c-0.127,0.052-0.248,0.113-0.371,0.172c-0.075,0.037-0.152,0.07-0.229,0.11
	c-0.136,0.072-0.266,0.153-0.396,0.234c-0.057,0.036-0.114,0.067-0.171,0.104c-0.177,0.118-0.348,0.244-0.512,0.376
	c-0.008,0.006-0.015,0.01-0.021,0.016c-0.192,0.157-0.376,0.324-0.55,0.501l-41.709,41.668c-2.654,2.648-2.654,6.955,0,9.61
	C241.544,206.777,243.284,207.441,245.022,207.441z"/>
</svg>
