<?xml version="1.0" encoding="utf-8"?>
<!-- Generator: Adobe Illustrator 16.0.0, SVG Export Plug-In . SVG Version: 6.00 Build 0)  -->
<!DOCTYPE svg PUBLIC "-//W3C//DTD SVG 1.1//EN" "http://www.w3.org/Graphics/SVG/1.1/DTD/svg11.dtd">
<svg version="1.1" id="Layer_1" xmlns="http://www.w3.org/2000/svg" xmlns:xlink="http://www.w3.org/1999/xlink" x="0px" y="0px"
	 width="512px" height="512px" viewBox="0 0 512 512" enable-background="new 0 0 512 512" xml:space="preserve">
<path fill="#5E686C" d="M104.834,54.034c0-3.754-3.039-6.793-6.794-6.793H9.593c-3.754,0-6.793,3.039-6.793,6.793
	c0,3.754,3.038,6.793,6.793,6.793H98.04C101.796,60.827,104.834,57.788,104.834,54.034z"/>
<path fill="#5E686C" d="M497.105,87.377H75.902c-6.594,0-11.955,5.361-11.875,12.99l35.431,228.689
	c-0.254,0.916-0.325,1.898-0.162,2.898l8.061,49.359c0.948,6.754,6.819,11.849,13.646,11.849h17.869
	c-1.713,5.278-2.65,10.902-2.65,16.745c0,29.974,24.374,54.348,54.341,54.348c29.975,0,54.354-24.374,54.354-54.348
	c0-5.843-0.938-11.467-2.65-16.745h106.095c-1.713,5.278-2.648,10.902-2.648,16.745c0,29.974,24.374,54.348,54.319,54.348
	c29.987,0,54.374-24.374,54.374-54.348c0-29.976-24.388-54.351-54.374-54.351c-18.733,0-35.286,9.54-45.056,24.022
	c-0.032,0-0.063-0.005-0.097-0.005H235.728c-0.026,0-0.053,0.004-0.08,0.004c-9.772-14.481-26.334-24.021-45.086-24.021
	c-18.747,0-35.304,9.54-45.075,24.021c-0.027,0-0.055-0.004-0.083-0.004l-24.611-0.292l-5.625-34.456l346.776-51.14
	c6.024,0,10.935-5.373,10.8-10.643L509.06,99.332C509.06,92.738,503.698,87.377,497.105,87.377z M400.031,369.148
	c22.491,0,40.788,18.282,40.787,40.761c0,22.477-18.297,40.761-40.787,40.761c-22.463,0-40.732-18.284-40.732-40.761
	C359.298,387.431,377.568,369.148,400.031,369.148z M190.562,369.148c22.479,0,40.769,18.282,40.77,40.761
	c0,22.477-18.291,40.761-40.77,40.761c-22.47,0-40.754-18.284-40.754-40.761C149.808,387.431,168.092,369.148,190.562,369.148z
	 M459.554,280.382l-346.076,50.951L77.786,100.965H495.02L459.554,280.382z"/>
<path fill="#69C299" d="M279.069,251.344c0.329,0.334,0.693,0.633,1.086,0.894c0.039,0.026,0.079,0.047,0.118,0.072
	c0.147,0.094,0.296,0.185,0.451,0.267c0.056,0.029,0.113,0.053,0.169,0.081c0.143,0.07,0.283,0.139,0.43,0.2
	c0.065,0.026,0.132,0.047,0.196,0.072c0.142,0.053,0.281,0.105,0.427,0.149c0.075,0.023,0.152,0.039,0.229,0.059
	c0.136,0.036,0.271,0.073,0.41,0.101c0.102,0.02,0.205,0.031,0.308,0.047c0.115,0.017,0.229,0.039,0.345,0.05
	c0.224,0.022,0.446,0.034,0.67,0.034s0.445-0.012,0.669-0.034c0.112-0.011,0.223-0.032,0.333-0.048
	c0.106-0.016,0.215-0.028,0.32-0.049c0.135-0.026,0.264-0.062,0.395-0.096c0.082-0.021,0.165-0.039,0.246-0.063
	c0.14-0.042,0.273-0.093,0.409-0.143c0.07-0.027,0.143-0.049,0.213-0.078c0.143-0.059,0.278-0.126,0.417-0.193
	c0.061-0.03,0.122-0.056,0.181-0.087c0.155-0.083,0.305-0.173,0.452-0.267c0.038-0.024,0.078-0.045,0.115-0.07
	c0.396-0.263,0.764-0.566,1.097-0.905l41.685-41.646c2.653-2.647,2.653-6.952,0-9.606c-2.651-2.653-6.952-2.653-9.604,0
	l-30.132,30.104V158.98c0-3.754-3.038-6.793-6.794-6.793c-3.757,0-6.794,3.038-6.794,6.793v71.199l-30.094-30.093
	c-2.651-2.653-6.953-2.653-9.604,0c-2.654,2.654-2.654,6.953,0,9.606L279.069,251.344z"/>
</svg>
