<?xml version="1.0" encoding="utf-8"?>
<!-- Generator: Adobe Illustrator 16.0.0, SVG Export Plug-In . SVG Version: 6.00 Build 0)  -->
<!DOCTYPE svg PUBLIC "-//W3C//DTD SVG 1.1//EN" "http://www.w3.org/Graphics/SVG/1.1/DTD/svg11.dtd">
<svg version="1.1" id="Layer_1" xmlns="http://www.w3.org/2000/svg" xmlns:xlink="http://www.w3.org/1999/xlink" x="0px" y="0px"
	 width="512px" height="512px" viewBox="0 0 512 512" enable-background="new 0 0 512 512" xml:space="preserve">
<path fill="#5E686C" d="M106.801,56.023c0-3.718-3.009-6.727-6.727-6.727H12.498c-3.721,0-6.729,3.009-6.729,6.727
	c0,3.718,3.009,6.727,6.729,6.727h87.573C103.791,62.75,106.801,59.741,106.801,56.023z"/>
<path fill="#5E686C" d="M495.195,89.038H78.153c-6.527,0-11.837,5.307-11.758,12.862l35.081,226.435
	c-0.251,0.907-0.322,1.88-0.161,2.87l7.981,48.872c0.938,6.687,6.753,11.73,13.512,11.73h17.688
	c-1.696,5.227-2.624,10.795-2.624,16.579c0,29.68,24.141,53.812,53.812,53.812s53.812-24.134,53.812-53.812
	c0-5.784-0.929-11.354-2.625-16.579h105.034c-1.695,5.227-2.624,10.795-2.624,16.579c0,29.68,24.135,53.812,53.812,53.812
	s53.812-24.134,53.812-53.812c0-29.678-24.134-53.812-53.812-53.812c-18.565,0-34.962,9.444-44.638,23.783
	c-0.027,0-0.056-0.005-0.083-0.005H236.402c-0.027,0-0.056,0.005-0.084,0.005c-9.677-14.339-26.073-23.783-44.635-23.783
	s-34.959,9.446-44.636,23.785c-0.026,0-0.051-0.004-0.077-0.004l-24.37-0.289l-5.569-34.118l343.363-50.637
	c5.965,0,10.812-5.318,10.681-10.535l35.958-181.903C507.031,94.346,501.724,89.038,495.195,89.038z M399.093,368.029
	c22.255,0,40.356,18.104,40.356,40.357s-18.103,40.358-40.356,40.358s-40.359-18.104-40.359-40.358S376.837,368.029,399.093,368.029
	z M191.682,368.029c22.255,0,40.359,18.104,40.359,40.357s-18.104,40.358-40.359,40.358c-22.254,0-40.356-18.104-40.356-40.358
	S169.427,368.029,191.682,368.029z M458.015,280.139l-342.656,50.448l-35.34-228.095h413.113L458.015,280.139z"/>
<path fill="#69C299" d="M274.601,203.306l-35.584,35.581c-2.627,2.628-2.627,6.885,0,9.512c1.314,1.314,3.035,1.971,4.756,1.971
	c1.723,0,3.442-0.657,4.756-1.971l35.584-35.58l35.604,35.606c1.312,1.314,3.035,1.971,4.756,1.971s3.441-0.657,4.755-1.971
	c2.627-2.628,2.627-6.885,0-9.512l-35.602-35.605l35.63-35.627c2.627-2.628,2.627-6.885,0-9.512c-2.628-2.627-6.885-2.627-9.512,0
	l-35.631,35.627l-35.598-35.601c-2.627-2.627-6.884-2.627-9.511,0c-2.628,2.628-2.628,6.885,0,9.512L274.601,203.306z"/>
</svg>
