<?xml version="1.0" encoding="utf-8"?>
<!-- Generator: Adobe Illustrator 16.0.0, SVG Export Plug-In . SVG Version: 6.00 Build 0)  -->
<!DOCTYPE svg PUBLIC "-//W3C//DTD SVG 1.1//EN" "http://www.w3.org/Graphics/SVG/1.1/DTD/svg11.dtd">
<svg version="1.1" id="Layer_1" xmlns="http://www.w3.org/2000/svg" xmlns:xlink="http://www.w3.org/1999/xlink" x="0px" y="0px"
	 width="512px" height="512px" viewBox="0 0 512 512" enable-background="new 0 0 512 512" xml:space="preserve">
<path fill="#5E686C" d="M106.298,56.028c0-3.718-3.008-6.726-6.728-6.726H11.998c-3.72,0-6.728,3.008-6.728,6.726
	c0,3.718,3.008,6.727,6.728,6.727h87.572C103.29,62.755,106.298,59.746,106.298,56.028z"/>
<path fill="#5E686C" d="M494.684,89.043H77.652c-6.527,0-11.837,5.307-11.758,12.861l35.08,226.427
	c-0.252,0.908-0.323,1.882-0.161,2.873l7.981,48.87c0.938,6.687,6.753,11.73,13.512,11.73h17.687
	c-1.696,5.227-2.624,10.794-2.624,16.578c0,29.677,24.141,53.812,53.811,53.812c29.671,0,53.812-24.134,53.812-53.812
	c0-5.784-0.929-11.353-2.624-16.578h105.045c-1.695,5.227-2.623,10.794-2.623,16.578c0,29.677,24.134,53.812,53.798,53.812
	c29.677,0,53.821-24.134,53.821-53.812c0-29.678-24.146-53.811-53.821-53.811c-18.558,0-34.949,9.443-44.623,23.781
	c-0.028,0-0.056-0.004-0.084-0.004H235.898c-0.028,0-0.057,0.004-0.086,0.004c-9.677-14.338-26.072-23.781-44.634-23.781
	s-34.958,9.444-44.635,23.783c-0.026,0-0.051-0.004-0.077-0.004l-24.37-0.287l-5.569-34.116l343.342-50.636
	c5.967,0,10.825-5.319,10.694-10.537l35.97-181.897C506.532,94.351,501.213,89.043,494.684,89.043z M398.584,368.026
	c22.254,0,40.369,18.104,40.369,40.356s-18.115,40.357-40.369,40.357c-22.242,0-40.347-18.104-40.347-40.357
	S376.342,368.026,398.584,368.026z M191.178,368.026c22.255,0,40.358,18.104,40.358,40.356s-18.104,40.357-40.358,40.357
	s-40.358-18.104-40.358-40.357S168.924,368.026,191.178,368.026z M457.505,280.139l-342.648,50.446l-35.339-228.09h413.116
	L457.505,280.139z"/>
<path fill="#69C299" d="M179.086,256.779c3.717,0,6.726-3.008,6.726-6.726v-94.168c0-3.718-3.008-6.726-6.726-6.726
	c-3.719,0-6.729,3.008-6.729,6.726v94.168C172.359,253.771,175.368,256.779,179.086,256.779z"/>
<path fill="#69C299" d="M248.221,256.779c3.718,0,6.726-3.008,6.726-6.726v-94.168c0-3.718-3.008-6.726-6.726-6.726
	s-6.727,3.008-6.727,6.726v94.168C241.494,253.771,244.503,256.779,248.221,256.779z"/>
<path fill="#69C299" d="M317.356,256.779c3.717,0,6.728-3.008,6.729-6.726v-94.168c0-3.718-3.011-6.726-6.729-6.726
	s-6.727,3.008-6.727,6.726v94.168C310.629,253.771,313.638,256.779,317.356,256.779z"/>
<path fill="#69C299" d="M386.485,256.779c3.719,0,6.728-3.008,6.729-6.726v-94.168c0-3.718-3.009-6.726-6.729-6.726
	c-3.718,0-6.727,3.008-6.727,6.726v94.168C379.758,253.771,382.767,256.779,386.485,256.779z"/>
</svg>
