<?xml version="1.0" encoding="utf-8"?>
<!-- Generator: Adobe Illustrator 16.0.0, SVG Export Plug-In . SVG Version: 6.00 Build 0)  -->
<!DOCTYPE svg PUBLIC "-//W3C//DTD SVG 1.1//EN" "http://www.w3.org/Graphics/SVG/1.1/DTD/svg11.dtd">
<svg version="1.1" id="Layer_1" xmlns="http://www.w3.org/2000/svg" xmlns:xlink="http://www.w3.org/1999/xlink" x="0px" y="0px"
	 width="512px" height="512px" viewBox="0 0 512 512" enable-background="new 0 0 512 512" xml:space="preserve">
<path fill="#69C299" d="M441.967,236.707c-0.999,0-1.998-0.217-2.959-0.684c-3.34-1.631-4.721-5.668-3.09-9.008l59.347-121.39
	c1.645-3.347,5.721-4.708,9.009-3.09c3.34,1.63,4.721,5.667,3.09,9.008l-59.347,121.39
	C446.846,235.319,444.452,236.707,441.967,236.707z"/>
<path fill="#5E686C" d="M205.631,453.245H16.82c-3.721,0-6.733-3.012-6.733-6.732c0-3.722,3.012-6.733,6.733-6.733h182.079V237.259
	c0-3.721,3.011-6.733,6.733-6.733s6.733,3.012,6.733,6.733v209.254C212.364,450.233,209.353,453.245,205.631,453.245z"/>
<path fill="#69C299" d="M345.365,250.764c-0.289,0-0.578-0.02-0.868-0.052L34.343,210.604c-10.961-1.42-19.232-5.832-24.584-13.117
	c-8.291-11.296-5.944-25.189-5.839-25.775L20.134,46.324c3.774-29.148,29.352-31.41,37.104-31.41c2.669,0,4.327,0.224,4.327,0.224
	l379.812,49.143c2.21,0.289,4.13,1.65,5.143,3.629c0.999,1.985,0.959,4.346-0.105,6.292l-95.143,173.07
	C350.073,249.443,347.798,250.764,345.365,250.764z M57.237,28.38c-9.672,0-21.639,3.413-23.743,19.667L17.227,173.75
	c-0.059,0.361-1.446,9.264,3.446,15.846c3.097,4.156,8.271,6.727,15.392,7.647l305.605,39.523l88.186-160.394L59.841,28.499
	C59.703,28.479,58.723,28.38,57.237,28.38z"/>
<path fill="#5E686C" d="M205.901,175.302c-1.729,0-3.479-0.112-5.24-0.342c-10.691-1.381-20.206-6.845-26.8-15.399
	c-6.588-8.547-9.455-19.146-8.074-29.838c2.833-21.81,22.855-37.813,45.244-34.861c22.066,2.847,37.728,23.138,34.894,45.23
	C243.3,160.172,226.093,175.302,205.901,175.302z M205.762,107.979c-13.439,0-24.88,10.093-26.623,23.473
	c-0.914,7.121,0.993,14.189,5.392,19.89c4.392,5.701,10.737,9.343,17.858,10.264c14.873,1.946,28.28-8.719,30.18-23.243
	c1.887-14.715-8.555-28.247-23.276-30.146C208.097,108.058,206.927,107.979,205.762,107.979z"/>
<path fill="#5E686C" d="M16.82,490.618c-3.721,0-6.733-3.012-6.733-6.732v-74.753c0-3.722,3.012-6.733,6.733-6.733
	c3.722,0,6.733,3.012,6.733,6.733v74.753C23.553,487.606,20.541,490.618,16.82,490.618z"/>
</svg>
