<?xml version="1.0" encoding="utf-8"?>
<!-- Generator: Adobe Illustrator 16.0.0, SVG Export Plug-In . SVG Version: 6.00 Build 0)  -->
<!DOCTYPE svg PUBLIC "-//W3C//DTD SVG 1.1//EN" "http://www.w3.org/Graphics/SVG/1.1/DTD/svg11.dtd">
<svg version="1.1" id="Layer_1" xmlns="http://www.w3.org/2000/svg" xmlns:xlink="http://www.w3.org/1999/xlink" x="0px" y="0px"
	 width="512px" height="512px" viewBox="0 0 512 512" enable-background="new 0 0 512 512" xml:space="preserve">
<path fill="#5E686C" d="M257.346,144.033c-38.126,0-69.149-31.023-69.149-69.15c0-38.126,31.023-69.149,69.149-69.149
	c38.127,0,69.15,31.023,69.15,69.149C326.496,113.01,295.473,144.033,257.346,144.033z M257.346,19.563
	c-30.509,0-55.319,24.817-55.319,55.32c0,30.502,24.812,55.32,55.319,55.32c30.51,0,55.32-24.817,55.32-55.32
	S287.856,19.563,257.346,19.563z"/>
<path fill="#5E686C" d="M289.193,400.373h-63.72c-3.822,0-6.915-3.094-6.915-6.915v-86.627
	c-41.423-18.084-63.707-77.293-63.707-125.752c0-3.822,3.093-6.915,6.915-6.915h191.148c3.821,0,6.915,3.093,6.915,6.915
	c0,48.458-22.299,107.668-63.722,125.752v86.627C296.108,397.279,293.016,400.373,289.193,400.373z M232.387,386.543h49.891v-84.426
	c0-2.944,1.853-5.551,4.635-6.521c38.408-13.453,56.913-68.678,58.91-107.602H168.857c1.998,38.923,20.488,94.148,58.898,107.602
	c2.782,0.971,4.632,3.577,4.632,6.521V386.543z"/>
<path fill="#5E686C" d="M257.346,453.464c-62.545,0-155.586-11.736-155.586-44.083c0-20.745,37.667-31.726,69.271-37.289
	c3.661-0.77,7.348,1.837,8.01,5.605c0.662,3.767-1.851,7.346-5.604,8.009c-42.138,7.414-57.846,18.462-57.846,23.675
	c0,10.266,50.039,30.254,141.756,30.254c91.719,0,141.758-19.989,141.758-30.254c0-5.226-15.64-16.261-57.603-23.635
	c-3.754-0.661-6.268-4.241-5.605-8.009c0.648-3.77,4.31-6.362,8.009-5.605c31.482,5.523,69.028,16.479,69.028,37.249
	C412.933,441.728,319.891,453.464,257.346,453.464z"/>
<path fill="#69C299" d="M257.346,506.569c-140.838,0-251.167-40.355-251.167-91.866c0-39.587,64.882-73.566,165.297-86.561
	c3.863-0.484,7.252,2.188,7.753,5.971c0.486,3.795-2.188,7.253-5.97,7.752c-90.232,11.67-153.25,41.626-153.25,72.838
	c0,37.681,95.364,78.036,237.337,78.036c141.959,0,237.324-40.355,237.324-78.036c0-31.212-63.004-61.168-153.209-72.838
	c-3.783-0.499-6.456-3.957-5.97-7.752c0.498-3.781,3.875-6.455,7.752-5.971C443.631,341.136,508.5,375.116,508.5,414.703
	C508.5,466.214,398.185,506.569,257.346,506.569z"/>
</svg>
