<?xml version="1.0" encoding="utf-8"?>
<!-- Generator: Adobe Illustrator 16.0.0, SVG Export Plug-In . SVG Version: 6.00 Build 0)  -->
<!DOCTYPE svg PUBLIC "-//W3C//DTD SVG 1.1//EN" "http://www.w3.org/Graphics/SVG/1.1/DTD/svg11.dtd">
<svg version="1.1" id="Layer_1" xmlns="http://www.w3.org/2000/svg" xmlns:xlink="http://www.w3.org/1999/xlink" x="0px" y="0px"
	 width="512px" height="512px" viewBox="0 0 512 512" enable-background="new 0 0 512 512" xml:space="preserve">
<path fill="#5E686C" d="M398.824,285.131c-0.332,0-0.663-0.025-1.008-0.077c-3.559-0.548-6.007-3.877-5.459-7.448l18.991-123.612
	c5.114-33.288-4.527-67.009-26.439-92.518c-21.924-25.584-53.821-40.245-87.505-40.245h-81.46
	c-33.671,0-65.556,14.661-87.474,40.232c-21.931,25.546-31.572,59.268-26.445,92.53l19.029,123.612
	c0.548,3.571-1.894,6.9-5.458,7.448c-3.559,0.562-6.894-1.9-7.448-5.458L89.118,155.983c-5.708-37.038,5.025-74.585,29.443-103.027
	c24.398-28.46,59.893-44.786,97.383-44.786h81.46c37.51,0,73.017,16.325,97.415,44.798c24.398,28.391,35.138,65.951,29.437,103.014
	l-18.991,123.612C404.768,282.822,401.988,285.131,398.824,285.131z"/>
<path fill="#5E686C" d="M145.045,507c-3.609,0-6.53-2.921-6.53-6.53v-39.181c0-3.609,2.921-6.53,6.53-6.53s6.53,2.921,6.53,6.53
	v39.181C151.575,504.079,148.655,507,145.045,507z"/>
<path fill="#5E686C" d="M368.367,500.47c-3.609,0-6.529-2.921-6.529-6.53v-26.12c0-3.609,2.92-6.53,6.529-6.53s6.53,2.921,6.53,6.53
	v26.12C374.898,497.549,371.977,500.47,368.367,500.47z"/>
<path fill="#69C299" d="M388.659,467.819H124.753c-37.185,0-67.431-30.24-67.431-67.418v-40.608c0-7.538-4.648-14.502-11.568-17.358
	c-17.645-7.347-29.028-24.437-29.028-43.529c0-25.993,21.14-47.139,47.126-47.139c42.783,0,77.596,34.793,77.596,77.569v20.05
	c15.585-6.339,50.569-16.428,115.258-16.428s99.673,10.089,115.258,16.428v-20.05c0-42.776,34.806-77.569,77.596-77.569
	c25.98,0,47.126,21.146,47.126,47.139c0,19.08-11.389,36.157-29.027,43.517c-7.041,2.896-11.568,9.706-11.568,17.371v40.608
	C456.09,437.579,425.837,467.819,388.659,467.819z M63.853,264.826c-18.787,0-34.066,15.292-34.066,34.079
	c0,13.812,8.233,26.158,20.967,31.464c11.913,4.91,19.629,16.453,19.629,29.424v40.608c0,29.972,24.392,54.357,54.37,54.357h263.906
	c29.984,0,54.37-24.386,54.37-54.357v-40.608c0-12.997,7.704-24.552,19.642-29.437c12.716-5.306,20.955-17.651,20.955-31.451
	c0-18.787-15.279-34.079-34.066-34.079c-35.584,0-64.535,28.938-64.535,64.51v30.457c0,2.41-1.326,4.616-3.443,5.752
	c-2.117,1.135-4.693,1.008-6.709-0.319c-0.255-0.165-30.712-19.207-118.166-19.207c-87.448,0-117.904,19.042-118.204,19.232
	c-2.009,1.314-4.585,1.403-6.683,0.269c-2.104-1.148-3.431-3.329-3.431-5.727v-30.457
	C128.388,293.765,99.437,264.826,63.853,264.826z"/>
</svg>
