<?xml version="1.0" encoding="utf-8"?>
<!-- Generator: Adobe Illustrator 16.0.0, SVG Export Plug-In . SVG Version: 6.00 Build 0)  -->
<!DOCTYPE svg PUBLIC "-//W3C//DTD SVG 1.1//EN" "http://www.w3.org/Graphics/SVG/1.1/DTD/svg11.dtd">
<svg version="1.1" id="Layer_1" xmlns="http://www.w3.org/2000/svg" xmlns:xlink="http://www.w3.org/1999/xlink" x="0px" y="0px"
	 width="512px" height="512px" viewBox="0 0 512 512" enable-background="new 0 0 512 512" xml:space="preserve">
<path fill="#5E686C" d="M223.553,505.731c-119.857,0-217.374-97.512-217.374-217.368c0-119.857,97.517-217.367,217.374-217.367
	c3.78,0,6.839,3.059,6.839,6.839s-3.059,6.839-6.839,6.839c-112.317,0-203.696,91.373-203.696,203.689
	c0,112.311,91.379,203.689,203.696,203.689c112.311,0,203.688-91.38,203.688-203.689c0-3.779,3.061-6.84,6.84-6.84
	s6.84,3.061,6.84,6.84C440.921,408.221,343.41,505.731,223.553,505.731z"/>
<path fill="#69C299" d="M499.118,246.622c-0.065,0.013-0.173,0.013-0.267,0H272.135c-3.78,0-6.84-3.059-6.84-6.839V13.051
	c0-3.78,3.06-6.839,6.84-6.839c119.403,0,232.328,112.284,233.543,231.62c0.188,0.614,0.281,1.269,0.281,1.95
	C505.959,243.562,502.9,246.622,499.118,246.622z M278.974,232.943H491.88C487.78,124.76,387.156,24.125,278.974,20.017V232.943z"/>
</svg>
