<?xml version="1.0" encoding="utf-8"?>
<!-- Generator: Adobe Illustrator 16.0.0, SVG Export Plug-In . SVG Version: 6.00 Build 0)  -->
<!DOCTYPE svg PUBLIC "-//W3C//DTD SVG 1.1//EN" "http://www.w3.org/Graphics/SVG/1.1/DTD/svg11.dtd">
<svg version="1.1" id="Layer_1" xmlns="http://www.w3.org/2000/svg" xmlns:xlink="http://www.w3.org/1999/xlink" x="0px" y="0px"
	 width="512px" height="512px" viewBox="0 0 512 512" enable-background="new 0 0 512 512" xml:space="preserve">
<path fill="#5E686C" d="M256.523,504.476c-138.962,0-252.026-113.058-252.026-252.026c0-128.269,95.959-235.919,223.217-250.393
	c3.706-0.492,7.302,2.311,7.752,6.16c0.438,3.842-2.324,7.315-6.167,7.746C109.124,29.635,18.497,131.303,18.497,252.449
	c0,131.25,106.774,238.025,238.024,238.025S494.547,383.7,494.547,252.449c0-121.152-90.642-222.82-210.829-236.494
	c-3.842-0.431-6.604-3.904-6.167-7.746c0.438-3.849,3.979-6.618,7.753-6.16c127.271,14.473,223.244,122.123,223.244,250.399
	C508.549,391.418,395.485,504.476,256.523,504.476z"/>
<path fill="#69C299" d="M256.523,387.795c-1.081,0-2.146-0.247-3.132-0.739l-116.674-58.337c-3.459-1.729-4.854-5.935-3.131-9.394
	c1.75-3.459,5.948-4.834,9.394-3.131l109.509,54.755l84.912-249.101c1.258-3.665,5.236-5.633,8.889-4.369
	c3.663,1.245,5.619,5.223,4.375,8.881l-87.511,256.689c-0.654,1.915-2.104,3.452-3.979,4.218
	C258.327,387.624,257.425,387.795,256.523,387.795z"/>
</svg>
