<?xml version="1.0" encoding="utf-8"?>
<!-- Generator: Adobe Illustrator 16.0.0, SVG Export Plug-In . SVG Version: 6.00 Build 0)  -->
<!DOCTYPE svg PUBLIC "-//W3C//DTD SVG 1.1//EN" "http://www.w3.org/Graphics/SVG/1.1/DTD/svg11.dtd">
<svg version="1.1" id="Layer_1" xmlns="http://www.w3.org/2000/svg" xmlns:xlink="http://www.w3.org/1999/xlink" x="0px" y="0px"
	 width="512px" height="512px" viewBox="0 0 512 512" enable-background="new 0 0 512 512" xml:space="preserve">
<path fill="#69C299" d="M260.859,510.025c-69.636,0-126.286-58.299-126.286-129.945V91.706c0-0.784,0.134-1.541,0.375-2.245
	c3.746-49.185,44.796-87.44,94.269-87.44c3.792,0,6.861,3.069,6.861,6.862c0,3.792-3.069,6.862-6.861,6.862
	c-42.819,0-78.26,33.538-80.693,76.35c-0.027,0.489-0.107,0.965-0.228,1.421V380.08c0,64.088,50.499,116.222,112.562,116.222
	c62.064,0,112.562-52.134,112.562-116.222V81.762c0-3.793,3.069-6.862,6.861-6.862c3.793,0,6.862,3.069,6.862,6.862V380.08
	C387.145,451.727,330.494,510.025,260.859,510.025z"/>
<path fill="#5E686C" d="M262.158,446.769c-34.027,0-61.715-27.688-61.715-61.729V126.497c0-3.793,3.069-6.862,6.862-6.862
	c3.792,0,6.861,3.069,6.861,6.862v258.542c0,26.469,21.53,48.006,47.992,48.006c26.469,0,48.006-21.537,48.006-48.006V93.515
	c-0.134-0.456-0.215-0.932-0.241-1.427c-2.399-42.806-37.854-76.344-80.706-76.344V2.021c49.526,0,90.597,38.282,94.282,87.494
	c0.255,0.69,0.389,1.427,0.389,2.191v293.333C323.888,419.08,296.199,446.769,262.158,446.769z"/>
</svg>
