<?xml version="1.0" encoding="utf-8"?>
<!-- Generator: Adobe Illustrator 16.0.0, SVG Export Plug-In . SVG Version: 6.00 Build 0)  -->
<!DOCTYPE svg PUBLIC "-//W3C//DTD SVG 1.1//EN" "http://www.w3.org/Graphics/SVG/1.1/DTD/svg11.dtd">
<svg version="1.1" id="Layer_1" xmlns="http://www.w3.org/2000/svg" xmlns:xlink="http://www.w3.org/1999/xlink" x="0px" y="0px"
	 width="512px" height="512px" viewBox="0 0 512 512" enable-background="new 0 0 512 512" xml:space="preserve">
<path fill="#5E686C" d="M449.134,91.631c-2.484-2.957-6.945-3.314-9.896-0.816c-2.965,2.511-3.321,6.945-0.811,9.903
	C474.868,143.702,494.95,198.49,494.95,255c0,131.757-107.194,238.944-238.95,238.944S17.056,386.757,17.056,255
	S124.243,16.055,256,16.055c56.724,0,111.635,20.192,154.625,56.847c2.93,2.532,7.384,2.175,9.901-0.79
	c2.527-2.95,2.169-7.384-0.782-9.903C374.21,23.385,316.059,2,256,2C116.495,2,3,115.495,3,255c0,139.499,113.495,253,253,253
	c139.506,0,253.007-113.501,253.007-253C509.007,195.168,487.743,137.147,449.134,91.631z"/>
<path fill="#69C299" d="M256,119.359c-3.884,0-7.027,3.143-7.027,7.027v87.043c-19.917,3.356-35.14,20.713-35.14,41.57
	c0,23.252,18.915,42.167,42.167,42.167c9.094,0,17.518-2.902,24.412-7.816l96.501,96.5c1.373,1.372,3.172,2.061,4.97,2.061
	c1.797,0,3.596-0.688,4.969-2.061c2.745-2.744,2.745-7.191,0-9.938l-96.501-96.502c4.914-6.895,7.816-15.316,7.816-24.411
	c0-20.858-15.224-38.214-35.141-41.57v-87.043C263.028,122.502,259.886,119.359,256,119.359z M284.111,255
	c0,15.497-12.605,28.109-28.109,28.109S227.889,270.497,227.889,255c0-15.496,12.608-28.111,28.111-28.111
	C271.504,226.889,284.112,239.503,284.111,255z"/>
</svg>
