<?xml version="1.0" encoding="utf-8"?>
<!-- Generator: Adobe Illustrator 16.0.0, SVG Export Plug-In . SVG Version: 6.00 Build 0)  -->
<!DOCTYPE svg PUBLIC "-//W3C//DTD SVG 1.1//EN" "http://www.w3.org/Graphics/SVG/1.1/DTD/svg11.dtd">
<svg version="1.1" id="Layer_1" xmlns="http://www.w3.org/2000/svg" xmlns:xlink="http://www.w3.org/1999/xlink" x="0px" y="0px"
	 width="512px" height="512px" viewBox="0 0 512 512" enable-background="new 0 0 512 512" xml:space="preserve">
<path fill="#5E686C" d="M434.996,76.371c-40.86-40.87-92.751-65.933-150.062-72.484c-3.866-0.556-7.346,2.321-7.78,6.187
	c-0.444,3.859,2.329,7.341,6.188,7.78c54.109,6.193,103.115,29.863,141.713,68.46c93.207,93.207,93.207,244.877,0,338.098
	c-93.214,93.193-244.884,93.193-338.098,0c-93.2-93.221-93.2-244.89,0-338.098c38.609-38.597,87.618-62.273,141.727-68.466
	c3.859-0.44,6.633-3.922,6.188-7.78c-0.435-3.866-4.031-6.722-7.78-6.187c-57.303,6.551-109.201,31.62-150.077,72.491
	c-98.687,98.693-98.687,259.284,0,357.984c49.352,49.342,114.171,74.021,178.992,74.021c64.82,0,129.641-24.679,178.988-74.021
	C533.686,335.655,533.686,175.064,434.996,76.371z"/>
<path fill="#69C299" d="M345.362,166.001c-2.745-2.746-7.194-2.746-9.94,0l-79.406,79.403l-79.405-79.403
	c-2.747-2.746-7.194-2.746-9.941,0c-2.746,2.747-2.746,7.196,0,9.943l79.404,79.402l-79.404,79.402
	c-2.746,2.747-2.746,7.196,0,9.943c1.373,1.373,3.172,2.06,4.971,2.06c1.8,0,3.599-0.687,4.972-2.06l79.405-79.403l79.406,79.403
	c1.373,1.373,3.173,2.06,4.972,2.06c1.798,0,3.597-0.687,4.97-2.06c2.747-2.747,2.747-7.196,0-9.943l-79.403-79.402l79.403-79.402
	C348.109,173.197,348.109,168.748,345.362,166.001z"/>
</svg>
