<?xml version="1.0" encoding="utf-8"?>
<!-- Generator: Adobe Illustrator 16.0.0, SVG Export Plug-In . SVG Version: 6.00 Build 0)  -->
<!DOCTYPE svg PUBLIC "-//W3C//DTD SVG 1.1//EN" "http://www.w3.org/Graphics/SVG/1.1/DTD/svg11.dtd">
<svg version="1.1" id="Layer_1" xmlns="http://www.w3.org/2000/svg" xmlns:xlink="http://www.w3.org/1999/xlink" x="0px" y="0px"
	 width="512px" height="512px" viewBox="0 0 512 512" enable-background="new 0 0 512 512" xml:space="preserve">
<path fill="#69C299" d="M323.106,342.473c-0.768,0-1.548-0.133-2.313-0.41c-3.52-1.282-5.33-5.157-4.047-8.677l19.547-53.749
	l-42.044-4.669c-2.116-0.237-3.994-1.454-5.079-3.293c-1.084-1.839-1.243-4.073-0.423-6.044l28.104-67.465
	c1.441-3.459,5.449-5.099,8.861-3.644c3.452,1.435,5.079,5.403,3.649,8.855l-24.64,59.132l41.635,4.616
	c2.063,0.225,3.901,1.389,4.999,3.161c1.099,1.759,1.322,3.928,0.608,5.886l-22.497,61.844
	C328.475,340.766,325.869,342.473,323.106,342.473z"/>
<path fill="none" stroke="#69C299" stroke-linecap="round" stroke-linejoin="round" stroke-miterlimit="10" d="M109.84,419.301"/>
<path fill="#5E686C" d="M337.39,426.072H126.253C59.78,426.072,5.7,371.992,5.7,305.532C5.7,239.073,59.774,185,126.24,185
	c3.743,0,6.772,3.029,6.772,6.771c0,3.743-3.029,6.772-6.772,6.772c-59,0-106.996,47.996-106.996,106.989
	c0,59.001,48.003,106.997,107.01,106.997H337.39c85.888,0,155.76-69.872,155.76-155.747c0-85.491-69.224-155.118-154.568-155.753
	c-75.863,0.529-157.003,49.325-157.003,155.753c0,3.743-3.029,6.771-6.772,6.771s-6.771-3.027-6.771-6.771
	c0-109.84,84.394-167.927,168.773-169.276c0.198-0.02,0.384-0.026,0.582-0.026h2.446c0.212,0,0.41,0.006,0.607,0.026
	c91.959,1.633,166.248,76.941,166.248,169.276C506.693,350.13,430.737,426.072,337.39,426.072z"/>
</svg>
