<?xml version="1.0" encoding="utf-8"?>
<!-- Generator: Adobe Illustrator 16.0.0, SVG Export Plug-In . SVG Version: 6.00 Build 0)  -->
<!DOCTYPE svg PUBLIC "-//W3C//DTD SVG 1.1//EN" "http://www.w3.org/Graphics/SVG/1.1/DTD/svg11.dtd">
<svg version="1.1" id="Layer_1" xmlns="http://www.w3.org/2000/svg" xmlns:xlink="http://www.w3.org/1999/xlink" x="0px" y="0px"
	 width="512px" height="512px" viewBox="0 0 512 512" enable-background="new 0 0 512 512" xml:space="preserve">
<path fill="#69C299" d="M340.728,31.527c-0.201-0.02-0.399-0.027-0.615-0.027h-2.483c-0.2,0-0.388,0.007-0.588,0.027
	c-85.246,1.376-170.519,60.061-170.519,171.024c0,3.781,3.062,6.842,6.844,6.842c3.78,0,6.842-3.06,6.842-6.842
	c0-107.522,81.972-156.819,158.624-157.36c86.231,0.648,156.188,70.992,156.188,157.36c0,86.768-70.612,157.368-157.394,157.368
	H124.294c-59.614,0-108.11-48.496-108.11-108.11c0-59.607,48.496-108.096,108.11-108.096c3.782,0,6.842-3.06,6.842-6.842
	c0-3.782-3.06-6.842-6.842-6.842C57.143,130.029,2.5,184.658,2.5,251.809s54.643,121.792,121.794,121.792h213.333
	c94.332,0,171.076-76.731,171.077-171.052C508.704,109.268,433.643,33.191,340.728,31.527z"/>
<path fill="#5E686C" d="M390.613,450.402H282.094c-2.478-9.603-10.054-17.177-19.662-19.658v-35.078
	c0-3.782-3.061-6.843-6.843-6.843c-3.781,0-6.842,3.061-6.842,6.843v35.072c-9.609,2.477-17.188,10.055-19.664,19.664H120.566
	c-3.78,0-6.842,3.06-6.842,6.842s3.062,6.842,6.842,6.842h108.523c3.047,11.793,13.763,20.526,26.487,20.526
	c12.733,0,23.462-8.733,26.512-20.526h108.524c3.781,0,6.841-3.06,6.841-6.842S394.394,450.402,390.613,450.402z M255.576,470.928
	c-7.532,0-13.662-6.137-13.672-13.681c0-0.001,0-0.002,0-0.003c0-0.006-0.001-0.011-0.001-0.016
	c0.002-7.536,6.137-13.67,13.673-13.67c7.55,0,13.696,6.135,13.695,13.673C269.273,464.782,263.126,470.928,255.576,470.928z"/>
<path fill="#5E686C" d="M339.846,110.893c3.782-0.047,6.816-3.147,6.762-6.929c-0.054-3.776-3.486-7.063-6.923-6.755
	c-54.081,0.682-101.989,43.471-106.8,96.684l0.134,1.209c0.094,2.486,0.16,4.964,0.16,7.45c0,3.781,3.062,6.842,6.842,6.842
	c3.782,0,6.843-3.061,6.843-6.841c0-2.646-0.066-5.299-0.188-8.366l-0.16-0.334C250.699,148.705,292.566,111.488,339.846,110.893z"
	/>
</svg>
