<?xml version="1.0" encoding="utf-8"?>
<!-- Generator: Adobe Illustrator 16.0.0, SVG Export Plug-In . SVG Version: 6.00 Build 0)  -->
<!DOCTYPE svg PUBLIC "-//W3C//DTD SVG 1.1//EN" "http://www.w3.org/Graphics/SVG/1.1/DTD/svg11.dtd">
<svg version="1.1" id="Layer_1" xmlns="http://www.w3.org/2000/svg" xmlns:xlink="http://www.w3.org/1999/xlink" x="0px" y="0px"
	 width="512px" height="512px" viewBox="0 0 512 512" enable-background="new 0 0 512 512" xml:space="preserve">
<path fill="#5E686C" d="M78.607,279.321c-0.283,0-0.572-0.02-0.869-0.053l-63.352-8.149c-3.357-0.435-5.878-3.298-5.878-6.688
	v-98.161c0-3.726,3.015-6.741,6.741-6.741h117.487c3.726,0,6.741,3.015,6.741,6.741v89.484c0,3.726-3.015,6.741-6.741,6.741
	c-3.726,0-6.741-3.016-6.741-6.741v-82.744H21.99V258.5l57.473,7.393c3.693,0.48,6.299,3.857,5.826,7.55
	C84.847,276.84,81.951,279.321,78.607,279.321z"/>
<path fill="#5E686C" d="M132.736,153.158H15.249c-3.726,0-6.741-3.015-6.741-6.741V48.48c0-3.364,2.481-6.214,5.819-6.675
	l117.487-16.259c1.896-0.276,3.884,0.316,5.352,1.593c1.468,1.277,2.311,3.133,2.311,5.082v114.196
	C139.477,150.143,136.462,153.158,132.736,153.158z M21.99,139.676h104.006V39.956L21.99,54.352V139.676z"/>
<path fill="#5E686C" d="M306.531,153.158H152.603c-3.726,0-6.741-3.015-6.741-6.741V30.681c0-3.364,2.482-6.214,5.819-6.675
	l153.93-21.262c1.909-0.276,3.896,0.309,5.345,1.593c1.475,1.277,2.317,3.133,2.317,5.082v136.999
	C313.273,150.143,310.258,153.158,306.531,153.158z M159.344,139.676h140.448V17.153L159.344,36.552V139.676z"/>
<path fill="#5E686C" d="M152.603,258.007c-3.726,0-6.741-3.015-6.741-6.741v-84.995c0-3.726,3.015-6.741,6.741-6.741h153.929
	c3.727,0,6.741,3.015,6.741,6.741c0,3.726-3.015,6.74-6.741,6.74H159.344v78.255C159.344,254.992,156.328,258.007,152.603,258.007z"
	/>
<path fill="#5E686C" d="M241.627,332.384c-3.726,0-6.741-3.015-6.741-6.74c0-64.148,53.359-103.15,104.954-103.802
	c0.026,0,0.053,0,0.079,0c3.687,0,6.688,2.962,6.74,6.655c0.053,3.726-2.936,6.78-6.661,6.826
	c-45.039,0.566-91.631,34.507-91.631,90.321C248.367,329.369,245.353,332.384,241.627,332.384z"/>
<path fill="#69C299" d="M338.682,494.16H128.51c-66.169,0-120.002-53.834-120.002-119.989c0-66.156,53.826-119.982,119.989-119.982
	c3.726,0,6.741,3.015,6.741,6.741c0,3.726-3.015,6.74-6.741,6.74c-58.73,0-106.507,47.771-106.507,106.501
	S69.773,480.679,128.51,480.679h210.172c85.495,0,155.048-69.553,155.048-155.035c0-85.101-68.907-154.403-153.863-155.035
	c-75.517,0.526-156.286,49.094-156.286,155.035c0,3.726-3.015,6.74-6.741,6.74s-6.741-3.015-6.741-6.74
	c0-109.332,84.008-167.154,168.002-168.497c0.198-0.02,0.383-0.026,0.58-0.026h2.436c0.211,0,0.408,0.006,0.605,0.026
	c91.539,1.626,165.488,76.59,165.488,168.497C507.211,418.564,431.603,494.16,338.682,494.16z"/>
<path fill="none" stroke="#69C299" stroke-linecap="round" stroke-linejoin="round" stroke-miterlimit="10" d="M102.14,506.114"/>
</svg>
