<?xml version="1.0" encoding="utf-8"?>
<!-- Generator: Adobe Illustrator 16.0.0, SVG Export Plug-In . SVG Version: 6.00 Build 0)  -->
<!DOCTYPE svg PUBLIC "-//W3C//DTD SVG 1.1//EN" "http://www.w3.org/Graphics/SVG/1.1/DTD/svg11.dtd">
<svg version="1.1" id="Layer_1" xmlns="http://www.w3.org/2000/svg" xmlns:xlink="http://www.w3.org/1999/xlink" x="0px" y="0px"
	 width="512px" height="512px" viewBox="0 0 512 512" enable-background="new 0 0 512 512" xml:space="preserve">
<path fill="none" stroke="#69C299" stroke-linecap="round" stroke-linejoin="round" stroke-miterlimit="10" d="M106.024,282.855"/>
<path fill="#5E686C" d="M363.325,254.031c-1.803,0-3.606-0.715-4.945-2.135c-2.572-2.731-2.439-7.026,0.292-9.599
	c25.165-23.72,39.034-55.833,39.034-90.413c0-68.138-55.184-123.639-123.202-124.169c-64.491,0.497-119.409,49.741-125.25,112.515
	c-0.206,2.32-0.106,4.693-0.021,7.067c0.054,1.525,0.106,3.049,0.106,4.587c0,3.752-3.036,6.789-6.789,6.789
	s-6.789-3.036-6.789-6.789c0-1.379-0.046-2.745-0.099-4.11c-0.1-2.93-0.186-5.847,0.066-8.751
	c6.437-69.224,66.467-123.599,137.237-124.872c0.185-0.013,0.37-0.02,0.557-0.02h1.976c0.185,0,0.37,0.007,0.557,0.02
	c74.807,1.366,135.228,62.622,135.228,137.733c0,38.358-15.381,73.985-43.304,100.303
	C366.667,253.421,364.996,254.031,363.325,254.031z"/>
<path fill="#5E686C" d="M194.938,158.673c-3.752,0-6.789-3.036-6.789-6.789c0-1.962-0.053-3.924-0.119-5.887
	c-0.013-0.292-0.139-1.87-0.113-2.161c3.892-42.071,42.7-76.763,86.508-77.319c0.04,0,0.066,0,0.093,0
	c3.712,0,6.735,2.983,6.788,6.702c0.053,3.746-2.957,6.828-6.695,6.868c-37.085,0.478-69.901,29.634-73.169,64.996
	c0.232,2.559,0.285,4.68,0.285,6.801C201.726,155.637,198.69,158.673,194.938,158.673z"/>
<path fill="#5E686C" d="M103.379,289.645c-54.309,0-98.494-44.165-98.494-98.46c0-54.295,44.172-98.461,98.474-98.461
	c3.752,0,6.789,3.036,6.789,6.789s-3.037,6.789-6.789,6.789c-46.811,0-84.897,38.08-84.897,84.884
	c0,46.803,38.093,84.883,84.917,84.883c3.752,0,6.789,3.036,6.789,6.788C110.167,286.608,107.131,289.645,103.379,289.645z"/>
<path fill="#5E686C" d="M306.06,505.686c-14.968,0-27.141-12.186-27.141-27.155c0-14.969,12.173-27.154,27.141-27.154
	c14.983,0,27.168,12.186,27.168,27.154C333.228,493.5,321.043,505.686,306.06,505.686z M306.06,464.953
	c-7.477,0-13.563,6.087-13.563,13.577c0,7.491,6.087,13.578,13.563,13.578c7.492,0,13.591-6.087,13.591-13.578
	C319.651,471.04,313.552,464.953,306.06,464.953z"/>
<path fill="#5E686C" d="M306.073,464.953c-3.752,0-6.788-3.035-6.788-6.788v-40.731c0-3.752,3.036-6.788,6.788-6.788
	c3.753,0,6.789,3.036,6.789,6.788v40.731C312.863,461.918,309.826,464.953,306.073,464.953z"/>
<path fill="#5E686C" d="M285.708,485.319H172.099c-3.752,0-6.788-3.036-6.788-6.789c0-3.752,3.036-6.788,6.788-6.788h113.609
	c3.752,0,6.788,3.036,6.788,6.788C292.496,482.283,289.46,485.319,285.708,485.319z"/>
<path fill="#5E686C" d="M440.042,485.319H326.44c-3.753,0-6.789-3.036-6.789-6.789c0-3.752,3.036-6.788,6.789-6.788h113.603
	c3.752,0,6.788,3.036,6.788,6.788C446.83,482.283,443.794,485.319,440.042,485.319z"/>
<path fill="#69C299" d="M416.096,345.89c-14.969,0-27.154-12.186-27.154-27.155c0-14.969,12.186-27.154,27.154-27.154
	c14.97,0,27.154,12.186,27.154,27.154C443.25,333.704,431.066,345.89,416.096,345.89z M416.096,305.157
	c-7.491,0-13.576,6.087-13.576,13.577c0,7.491,6.085,13.577,13.576,13.577c7.492,0,13.577-6.086,13.577-13.577
	C429.673,311.244,423.588,305.157,416.096,305.157z"/>
<path fill="#69C299" d="M479.672,397.068h-354.35c-15.294,0-27.738-11.51-27.738-25.669V266.07
	c0-14.161,12.443-25.669,27.738-25.669h354.35c15.287,0,27.725,11.508,27.725,25.669v105.329
	C507.397,385.559,494.959,397.068,479.672,397.068z M125.323,253.978c-7.81,0-14.161,5.422-14.161,12.092v105.329
	c0,6.669,6.351,12.092,14.161,12.092h354.35c7.796,0,14.147-5.423,14.147-12.092V266.07c0-6.67-6.352-12.092-14.147-12.092H125.323z
	"/>
</svg>
