<?xml version="1.0" encoding="utf-8"?>
<!-- Generator: Adobe Illustrator 16.0.0, SVG Export Plug-In . SVG Version: 6.00 Build 0)  -->
<!DOCTYPE svg PUBLIC "-//W3C//DTD SVG 1.1//EN" "http://www.w3.org/Graphics/SVG/1.1/DTD/svg11.dtd">
<svg version="1.1" id="Layer_1" xmlns="http://www.w3.org/2000/svg" xmlns:xlink="http://www.w3.org/1999/xlink" x="0px" y="0px"
	 width="512px" height="512px" viewBox="0 0 512 512" enable-background="new 0 0 512 512" xml:space="preserve">
<path fill="#5E686C" d="M248.277,330.77c0-55.139,46.028-88.672,90.521-89.232c3.681-0.046,6.633-3.063,6.581-6.744
	c-0.051-3.674-3.147-6.684-6.737-6.574c-50.971,0.644-103.683,39.182-103.683,102.553c0,3.681,2.978,6.658,6.659,6.658
	C245.299,337.429,248.278,334.45,248.277,330.77z"/>
<path fill="#69C299" d="M340.516,164.307c-0.196-0.019-0.391-0.026-0.599-0.026h-2.419c-0.195,0-0.377,0.006-0.572,0.026
	c-82.965,1.34-165.956,58.462-165.956,166.461c0,3.682,2.979,6.659,6.659,6.659s6.659-2.978,6.659-6.659
	c0-104.651,79.776-152.638,154.381-153.165c83.927,0.631,152.013,69.101,152.013,153.165c0,84.454-68.723,153.158-153.184,153.158
	H129.872c-58.021,0-105.227-47.199-105.227-105.219S71.851,273.49,129.872,273.49c3.681,0,6.657-2.979,6.657-6.659
	c0-3.681-2.978-6.658-6.657-6.658c-65.362,0-118.542,53.174-118.542,118.535s53.181,118.536,118.542,118.536h207.626
	c91.809,0,166.502-74.68,166.502-166.477C504,239.975,430.946,165.926,340.516,164.307z"/>
<path fill="#5E686C" d="M68.816,139.257h26.637c3.681,0,6.667-2.979,6.667-6.659c0-3.68-2.985-6.659-6.666-6.659H68.816
	c-3.68,0-6.657,2.979-6.657,6.659C62.157,136.278,65.135,139.257,68.816,139.257z"/>
<path fill="#5E686C" d="M148.6,139.257h26.637c3.682,0,6.658-2.979,6.658-6.659c0-3.68-2.978-6.659-6.659-6.659H148.6
	c-3.68,0-6.659,2.979-6.659,6.659C141.941,136.278,144.919,139.257,148.6,139.257z"/>
<path fill="#5E686C" d="M122.016,233.407c62.416,0,113.204-50.782,113.204-113.203C235.22,57.781,184.432,7,122.016,7
	C59.601,7,8.819,57.781,8.819,120.203S59.601,233.407,122.016,233.407z M122.016,20.318c19.506,0,37.72,5.625,53.116,15.33
	L36.315,68.959C53.786,39.844,85.662,20.318,122.016,20.318z M28.795,84.352L188.77,45.966
	c20.328,18.297,33.131,44.798,33.131,74.238c0,55.08-44.805,99.885-99.886,99.885c-55.073,0-99.879-44.805-99.879-99.885
	C22.137,107.573,24.499,95.486,28.795,84.352z"/>
</svg>
