<?xml version="1.0" encoding="utf-8"?>
<!-- Generator: Adobe Illustrator 16.0.0, SVG Export Plug-In . SVG Version: 6.00 Build 0)  -->
<!DOCTYPE svg PUBLIC "-//W3C//DTD SVG 1.1//EN" "http://www.w3.org/Graphics/SVG/1.1/DTD/svg11.dtd">
<svg version="1.1" id="Layer_1" xmlns="http://www.w3.org/2000/svg" xmlns:xlink="http://www.w3.org/1999/xlink" x="0px" y="0px"
	 width="512px" height="512px" viewBox="0 0 512 512" enable-background="new 0 0 512 512" xml:space="preserve">
<path fill="#69C299" d="M248.787,511c-41.091,0-74.522-33.432-74.522-74.509c0-41.078,33.431-74.509,74.522-74.509
	c41.078,0,74.495,33.431,74.495,74.509C323.281,477.568,289.865,511,248.787,511z M248.787,375.529
	c-33.624,0-60.975,27.346-60.975,60.962s27.352,60.961,60.975,60.961c33.61,0,60.948-27.345,60.948-60.961
	S282.397,375.529,248.787,375.529z"/>
<path fill="#69C299" d="M248.787,466.866c-3.744,0-6.773-3.029-6.773-6.773v-37.757c0-3.745,3.029-6.774,6.773-6.774
	c3.744,0,6.773,3.029,6.773,6.774v37.757C255.56,463.837,252.531,466.866,248.787,466.866z"/>
<path fill="#69C299" d="M281.821,363.041c-3.744,0-6.773-3.029-6.773-6.773v-21.247c0-3.744,3.029-6.773,6.773-6.773
	s6.773,3.029,6.773,6.773v21.247C288.594,360.012,285.565,363.041,281.821,363.041z"/>
<path fill="none" stroke="#69C299" stroke-linecap="round" stroke-linejoin="round" stroke-miterlimit="10" d="M131.494,331.66"/>
<path fill="#5E686C" d="M334.277,341.291H123.08c-66.492,0-120.587-54.096-120.587-120.574S56.582,100.15,123.067,100.15
	c3.744,0,6.774,3.029,6.774,6.773s-3.03,6.773-6.774,6.773c-59.017,0-107.027,48.01-107.027,107.02
	c0,59.017,48.017,107.027,107.04,107.027h211.197c85.911,0,155.804-69.892,155.804-155.797c0-85.509-69.244-155.149-154.613-155.784
	c-75.892,0.529-157.048,49.333-157.048,155.784c0,3.744-3.03,6.773-6.773,6.773s-6.773-3.029-6.773-6.773
	c0-109.865,84.417-167.962,168.822-169.312c0.198-0.02,0.384-0.026,0.583-0.026h2.447c0.211,0,0.409,0.007,0.608,0.026
	c91.984,1.634,166.295,76.956,166.295,169.312C503.627,265.328,427.65,341.291,334.277,341.291z"/>
<path fill="#5E686C" d="M236.748,178.721c-3.744,0-6.773-3.029-6.773-6.773c0-2.461-0.066-4.915-0.152-7.375l-0.132-1.198
	c4.756-52.68,52.184-95.041,105.724-95.715c0.026,0,0.054,0,0.079,0c3.705,0,6.721,2.977,6.773,6.688
	c0.054,3.744-2.949,6.813-6.694,6.859c-46.805,0.589-88.253,37.433-92.395,82.128l0.152,0.331c0.126,3.037,0.192,5.662,0.192,8.282
	C243.521,175.691,240.491,178.721,236.748,178.721z"/>
<path fill="#69C299" d="M215.726,363.041c-3.744,0-6.773-3.029-6.773-6.773v-21.247c0-15.451,12.581-28.021,28.046-28.021
	c3.745,0,6.773,3.03,6.773,6.773c0,3.744-3.029,6.773-6.773,6.773c-7.997,0-14.499,6.496-14.499,14.474v21.247
	C222.5,360.012,219.47,363.041,215.726,363.041z"/>
</svg>
