<?xml version="1.0" encoding="utf-8"?>
<!-- Generator: Adobe Illustrator 16.0.0, SVG Export Plug-In . SVG Version: 6.00 Build 0)  -->
<!DOCTYPE svg PUBLIC "-//W3C//DTD SVG 1.1//EN" "http://www.w3.org/Graphics/SVG/1.1/DTD/svg11.dtd">
<svg version="1.1" id="Layer_1" xmlns="http://www.w3.org/2000/svg" xmlns:xlink="http://www.w3.org/1999/xlink" x="0px" y="0px"
	 width="512px" height="512px" viewBox="0 0 512 512" enable-background="new 0 0 512 512" xml:space="preserve">
<path fill="#5E686C" d="M342.121,56.745c-0.201-0.02-0.401-0.027-0.615-0.027h-2.484c-0.214,0-0.415,0.007-0.614,0.027
	c-87.867,1.557-162.413,69.048-170.41,154.971c-0.314,3.555-0.206,7.162-0.08,10.797c0.06,1.724,0.121,3.447,0.121,5.184
	c0,3.781,3.06,6.841,6.841,6.841s6.841-3.059,6.841-6.841c0-1.897-0.066-3.782-0.126-5.665c-0.107-3.06-0.228-6.12,0.033-9.1
	c7.396-79.516,76.957-141.896,158.639-142.524c86.157,0.668,156.053,70.972,156.053,157.289
	c0,86.732-70.562,157.296-157.295,157.296c-3.78,0-6.842,3.06-6.842,6.842c0,3.781,3.062,6.841,6.842,6.841
	c94.28,0,170.979-76.697,170.979-170.979C510,134.458,434.988,58.409,342.121,56.745z"/>
<path fill="#5E686C" d="M340.359,136.049c3.782-0.046,6.815-3.146,6.764-6.928c-0.057-3.748-3.103-6.754-6.845-6.754
	c-0.023,0-0.053,0-0.079,0c-54.075,0.681-101.979,43.465-106.787,96.673l0.134,1.175c0.079,2.499,0.16,4.984,0.16,7.483
	c0,3.781,3.06,6.841,6.841,6.841s6.841-3.06,6.842-6.841c0-2.632-0.08-5.279-0.187-8.365l-0.16-0.334
	C251.222,173.857,293.084,136.644,340.359,136.049z"/>
<path fill="#5E686C" d="M174.932,384.993h-49.131c-59.607,0-108.098-48.479-108.098-108.058
	c0-59.582,48.482-108.059,108.069-108.059c3.781,0,6.843-3.06,6.843-6.841c0-3.781-3.061-6.841-6.843-6.841
	c-67.136,0-121.753,54.61-121.753,121.743c0,67.129,54.63,121.737,121.78,121.737h49.131c3.781,0,6.841-3.06,6.841-6.841
	C181.773,388.053,178.713,384.993,174.932,384.993z"/>
<path fill="#69C299" d="M301.568,403.286l-37.64,35.515V325.873c0-3.615-3.06-6.541-6.841-6.541c-3.782,0-6.841,2.926-6.841,6.541
	v112.944l-37.774-35.546c-2.752-2.577-7.075-2.457-9.674,0.296c-2.586,2.753-2.458,7.081,0.294,9.674l49.305,46.405
	c1.323,1.241,3.006,1.855,4.69,1.855c1.684,0,3.381-0.628,4.688-1.872l49.171-46.405c2.755-2.592,2.873-6.922,0.28-9.658
	C308.65,400.812,304.321,400.68,301.568,403.286z"/>
</svg>
