<?xml version="1.0" encoding="utf-8"?>
<!-- Generator: Adobe Illustrator 16.0.0, SVG Export Plug-In . SVG Version: 6.00 Build 0)  -->
<!DOCTYPE svg PUBLIC "-//W3C//DTD SVG 1.1//EN" "http://www.w3.org/Graphics/SVG/1.1/DTD/svg11.dtd">
<svg version="1.1" id="Layer_1" xmlns="http://www.w3.org/2000/svg" xmlns:xlink="http://www.w3.org/1999/xlink" x="0px" y="0px"
	 width="512px" height="512px" viewBox="0 0 512 512" enable-background="new 0 0 512 512" xml:space="preserve">
<path fill="#5E686C" d="M340.942,57.891c-0.2-0.02-0.4-0.027-0.615-0.027h-2.467c-0.199,0-0.416,0.007-0.614,0.027
	c-87.431,1.548-161.605,68.703-169.559,154.195c-0.314,3.551-0.208,7.142-0.081,10.746c0.062,1.715,0.121,3.429,0.121,5.158
	c0,3.792,3.068,6.86,6.86,6.86s6.858-3.068,6.858-6.86c0-1.889-0.064-3.765-0.127-5.627c-0.105-3.054-0.227-6.083,0.034-9.044
	c7.351-79.074,76.516-141.104,157.739-141.727c85.673,0.664,155.16,70.566,155.16,156.399c0,86.249-70.158,156.406-156.395,156.406
	c-3.792,0-6.858,3.066-6.858,6.857c0,3.792,3.066,6.86,6.858,6.86c93.805,0,170.112-76.32,170.112-170.126
	C507.972,135.216,433.325,59.546,340.942,57.891z"/>
<path fill="#5E686C" d="M339.184,136.892c3.779-0.047,6.821-3.162,6.769-6.947c-0.055-3.758-3.108-6.773-6.86-6.773
	c-0.027,0-0.054,0-0.094,0c-53.796,0.683-101.471,43.265-106.253,96.231l0.121,1.232c0.105,2.439,0.159,4.904,0.159,7.356
	c0,3.792,3.068,6.86,6.86,6.86s6.861-3.069,6.859-6.86c0-2.64-0.056-5.292-0.201-8.334l-0.147-0.308
	C250.564,174.483,292.181,137.488,339.184,136.892z"/>
<path fill="#5E686C" d="M174.639,384.396H125.76c-59.25,0-107.459-48.197-107.459-107.435c0-59.237,48.196-107.419,107.433-107.419
	c3.792,0,6.86-3.068,6.86-6.86s-3.068-6.86-6.86-6.86c-66.807,0-121.151,54.346-121.151,121.14
	c0,66.806,54.358,121.152,121.18,121.152h48.879c3.792,0,6.861-3.068,6.859-6.861C181.499,387.464,178.431,384.396,174.639,384.396z
	"/>
<path fill="#69C299" d="M260.91,323.765c-2.653-2.49-6.78-2.478-9.406,0.016l-48.913,46.158c-2.753,2.601-2.881,6.94-0.281,9.688
	c1.354,1.433,3.169,2.157,4.991,2.157c1.688,0,3.389-0.616,4.703-1.877l37.342-35.236v112.317c0,3.558,3.068,6.436,6.86,6.436
	s6.859-2.88,6.858-6.437V344.649l37.479,35.271c2.761,2.586,7.088,2.465,9.701-0.295c2.6-2.76,2.465-7.101-0.295-9.701
	L260.91,323.765z"/>
</svg>
