<?xml version="1.0" encoding="utf-8"?>
<!-- Generator: Adobe Illustrator 16.0.0, SVG Export Plug-In . SVG Version: 6.00 Build 0)  -->
<!DOCTYPE svg PUBLIC "-//W3C//DTD SVG 1.1//EN" "http://www.w3.org/Graphics/SVG/1.1/DTD/svg11.dtd">
<svg version="1.1" id="Layer_1" xmlns="http://www.w3.org/2000/svg" xmlns:xlink="http://www.w3.org/1999/xlink" x="0px" y="0px"
	 width="512px" height="512px" viewBox="0 0 512 512" enable-background="new 0 0 512 512" xml:space="preserve">
<path fill="#5E686C" d="M301.513,191.467H188.25c-37.492,0-67.984-30.492-67.984-67.971s30.493-67.971,67.984-67.971
	c3.839,0,6.944,3.106,6.944,6.945c0,3.839-3.105,6.945-6.944,6.945c-29.828,0-54.095,24.267-54.095,54.081
	s24.267,54.082,54.095,54.082h113.263c44.246,0,80.246-35.987,80.246-80.234c0-44.029-35.66-79.88-79.608-80.233
	c-39.105,0.285-80.913,25.42-80.913,80.233c0,3.839-3.105,6.945-6.943,6.945c-3.839,0-6.945-3.106-6.945-6.945
	c0-61.026,46.838-93.309,93.703-94.109c0.367-0.028,0.746-0.014,1.1-0.014c0.42,0.014,0.801-0.014,1.165,0.014
	c51.085,0.976,92.333,42.809,92.333,94.109C395.649,149.241,353.423,191.467,301.513,191.467z"/>
<path fill="#5E686C" d="M300.36,507.856H190.109c-36.597,0-66.371-29.762-66.371-66.345s29.773-66.355,66.356-66.355
	c3.839,0,6.945,3.104,6.945,6.943c0,3.84-3.106,6.945-6.945,6.945c-28.933,0-52.467,23.533-52.467,52.467
	c0,28.92,23.548,52.453,52.48,52.453H300.36c42.972,0,77.929-34.955,77.929-77.913c0-42.769-34.632-77.589-77.305-77.928
	c-37.979,0.285-78.579,24.688-78.579,77.928c0,3.838-3.105,6.944-6.944,6.944c-3.838,0-6.944-3.106-6.944-6.944
	c0-59.534,45.686-91.029,91.383-91.804c0.379-0.027,0.732-0.014,1.085-0.014c0.38,0.014,0.76,0,1.14,0.014
	c49.821,0.949,90.054,41.765,90.054,91.804C392.176,466.675,350.982,507.856,300.36,507.856z"/>
<path fill="#69C299" d="M64.217,416.718c-1.777,0-3.554-0.679-4.91-2.035c-26.505-26.505-41.704-65.23-41.711-106.275
	c0-41.032,15.206-79.772,41.711-106.278l14.486-14.487c2.713-2.713,7.107-2.713,9.82,0s2.713,7.108,0,9.821L69.127,211.95
	c-23.921,23.928-37.643,59.086-37.643,96.457c0,37.383,13.722,72.542,37.643,96.455c2.713,2.714,2.713,7.107,0,9.82
	C67.771,416.039,65.994,416.718,64.217,416.718z"/>
<path fill="#69C299" d="M78.704,244.138c-3.838,0-6.944-3.106-6.944-6.945v-37.695l-37.113,0.013c-3.832,0-6.944-3.106-6.944-6.944
	c0-3.839,3.105-6.946,6.944-6.946l44.058-0.013c1.838,0,3.607,0.732,4.911,2.034c1.302,1.303,2.034,3.066,2.034,4.91v44.641
	C85.649,241.032,82.543,244.138,78.704,244.138z"/>
<path fill="#69C299" d="M431.609,394.688c-1.776,0-3.555-0.678-4.91-2.033c-2.713-2.713-2.713-7.108,0-9.821l14.486-14.487
	c50.486-50.485,50.486-142.425,0-192.912c-2.714-2.713-2.714-7.108,0-9.82c2.713-2.713,7.106-2.713,9.82,0
	c55.627,55.627,55.627,156.925,0,212.553l-14.486,14.487C435.161,394.011,433.385,394.688,431.609,394.688z"/>
<path fill="#69C299" d="M431.609,394.688c-1.846,0-3.607-0.731-4.91-2.033c-1.303-1.304-2.035-3.065-2.035-4.911v-44.641
	c0-3.839,3.106-6.944,6.945-6.944s6.944,3.105,6.944,6.944v37.695l37.111-0.015c3.84,0,6.944,3.106,6.944,6.945
	c0,3.84-3.104,6.944-6.944,6.944L431.609,394.688z"/>
</svg>
