<?xml version="1.0" encoding="utf-8"?>
<!-- Generator: Adobe Illustrator 16.0.0, SVG Export Plug-In . SVG Version: 6.00 Build 0)  -->
<!DOCTYPE svg PUBLIC "-//W3C//DTD SVG 1.1//EN" "http://www.w3.org/Graphics/SVG/1.1/DTD/svg11.dtd">
<svg version="1.1" id="Layer_1" xmlns="http://www.w3.org/2000/svg" xmlns:xlink="http://www.w3.org/1999/xlink" x="0px" y="0px"
	 width="512px" height="512px" viewBox="0 0 512 512" enable-background="new 0 0 512 512" xml:space="preserve">
<path fill="none" stroke="#69C299" stroke-linecap="round" stroke-linejoin="round" stroke-miterlimit="10" d="M111.623,494.311"/>
<path fill="#5E686C" d="M92.06,281.051c-3.642,0-6.635-2.9-6.72-6.562l-0.144-6.182L73.98,257.059l-45.282-0.322
	c-2.71-0.02-5.146-1.66-6.169-4.167L9.082,219.822c-1.004-2.448-0.479-5.256,1.339-7.179l31.527-33.227l0.053-15.842l-31.79-32.255
	c-1.903-1.93-2.461-4.811-1.417-7.311l13.624-32.63c1.024-2.441,3.38-4.056,6.031-4.127l45.741-1.162L85.445,74.88l0.341-45.289
	c0.02-2.704,1.661-5.132,4.161-6.162l32.721-13.479c2.448-1.011,5.264-0.486,7.187,1.339l33.233,31.56l15.895,0.065l32.183-31.783
	c1.943-1.903,4.824-2.441,7.317-1.417l32.643,13.637c2.441,1.024,4.056,3.379,4.128,6.031l1.162,45.768l11.229,11.242l45.275,0.321
	c2.71,0.02,5.139,1.661,6.169,4.167l13.466,32.748c1.011,2.448,0.479,5.27-1.352,7.186l-31.566,33.135l-0.032,13.906
	c-0.007,3.708-3.02,6.707-6.721,6.707c-0.006,0-0.013,0-0.013,0c-3.715-0.007-6.714-3.025-6.707-6.733l0.039-16.59
	c0.007-1.726,0.67-3.38,1.857-4.62l30.404-31.914l-10.106-24.583l-43.569-0.309c-1.771-0.013-3.458-0.722-4.712-1.975
	l-15.067-15.094c-1.214-1.214-1.917-2.854-1.962-4.574l-1.122-44.094l-24.499-10.231l-30.969,30.588
	c-1.267,1.247-3.583,1.936-4.751,1.936l-21.342-0.092c-1.712-0.007-3.36-0.669-4.6-1.844l-32.006-30.392l-24.564,10.12
	l-0.328,43.589c-0.013,1.765-0.722,3.458-1.976,4.712L81.777,97.501c-1.214,1.208-2.848,1.91-4.567,1.956l-44.068,1.122
	l-10.225,24.485l30.595,31.047c1.247,1.267,1.943,2.966,1.936,4.738l-0.065,21.276c-0.007,1.713-0.663,3.36-1.844,4.607
	l-30.372,32.006l10.093,24.59l43.576,0.309c1.771,0.013,3.465,0.722,4.712,1.976l15.061,15.094c1.221,1.221,1.923,2.875,1.962,4.594
	l0.21,8.873c0.085,3.714-2.848,6.785-6.562,6.877C92.165,281.051,92.113,281.051,92.06,281.051z"/>
<path fill="#5E686C" d="M170.674,232.192c-8,0-15.816-1.568-23.238-4.666c-14.871-6.208-26.434-17.87-32.563-32.839
	c-6.136-14.963-6.084-31.402,0.131-46.28c9.444-22.588,31.383-37.184,55.907-37.184c7.98,0,15.783,1.568,23.186,4.659
	c14.897,6.215,26.487,17.877,32.636,32.84c6.143,14.956,6.097,31.396-0.125,46.292C217.17,217.604,195.212,232.192,170.674,232.192z
	 M170.91,124.664c-19.084,0-36.16,11.353-43.504,28.928c-4.836,11.57-4.869,24.354-0.098,35.996s13.755,20.712,25.305,25.535
	c5.769,2.408,11.846,3.629,18.061,3.629c19.104,0,36.187-11.347,43.53-28.921c4.843-11.576,4.876-24.367,0.092-36.002
	c-4.777-11.642-13.794-20.712-25.377-25.542C183.163,125.885,177.106,124.664,170.91,124.664z"/>
<path fill="#5E686C" d="M241.57,339.747c-3.714,0-6.72-3.006-6.72-6.72c0-2.441-0.065-4.883-0.151-7.311l-0.131-1.194
	c4.719-52.266,51.772-94.299,104.884-94.968c3.472-0.144,6.76,2.927,6.799,6.635c0.053,3.714-2.92,6.76-6.628,6.806
	c-46.443,0.584-87.572,37.138-91.673,81.488l0.151,0.328c0.125,3.02,0.19,5.618,0.19,8.217
	C248.29,336.741,245.284,339.747,241.57,339.747z"/>
<path fill="#69C299" d="M337.444,501.03H127.912c-65.967,0-119.636-53.669-119.636-119.623c0-65.955,53.662-119.624,119.623-119.624
	c3.715,0,6.72,3.006,6.72,6.721c0,3.714-3.005,6.72-6.72,6.72c-58.552,0-106.183,47.632-106.183,106.184
	S69.354,487.59,127.912,487.59h209.532c85.235,0,154.576-69.341,154.576-154.562c0-84.849-68.697-153.946-153.401-154.576
	c-75.286,0.525-155.804,48.951-155.804,154.576c0,3.714-3.005,6.72-6.72,6.72c-3.715,0-6.72-3.006-6.72-6.72
	c0-109.012,83.752-166.658,167.498-167.997c0.184-0.02,0.381-0.026,0.571-0.026h2.428c0.204,0,0.407,0.006,0.604,0.026
	c91.26,1.621,164.984,76.363,164.984,167.997C505.46,425.665,430.081,501.03,337.444,501.03z"/>
</svg>
