<?xml version="1.0" encoding="utf-8"?>
<!-- Generator: Adobe Illustrator 16.0.0, SVG Export Plug-In . SVG Version: 6.00 Build 0)  -->
<!DOCTYPE svg PUBLIC "-//W3C//DTD SVG 1.1//EN" "http://www.w3.org/Graphics/SVG/1.1/DTD/svg11.dtd">
<svg version="1.1" id="Layer_1" xmlns="http://www.w3.org/2000/svg" xmlns:xlink="http://www.w3.org/1999/xlink" x="0px" y="0px"
	 width="512px" height="512px" viewBox="0 0 512 512" enable-background="new 0 0 512 512" xml:space="preserve">
<path fill="none" stroke="#69C299" stroke-linecap="round" stroke-linejoin="round" stroke-miterlimit="10" d="M92.499,415.727"/>
<path fill="#69C299" d="M239.367,262.907c-3.818,0-6.907-3.089-6.907-6.907c0-65.735,54.674-105.692,107.541-106.366
	c3.479-0.352,6.934,3.008,6.986,6.825c0.055,3.804-3.009,6.935-6.825,6.989c-46.147,0.58-93.889,35.355-93.889,92.553
	C246.274,259.818,243.185,262.907,239.367,262.907z"/>
<path fill="#5E686C" d="M338.813,428.682h-215.35c-67.799,0-122.959-55.157-122.959-122.945
	c0-67.784,55.153-122.943,122.946-122.943c3.817,0,6.906,3.088,6.906,6.906c0,3.818-3.089,6.908-6.906,6.908
	c-60.179,0-109.133,48.954-109.133,109.131c0,60.178,48.961,109.133,109.146,109.133h215.351
	c87.604,0,158.869-71.266,158.869-158.869c0-87.198-70.605-158.222-157.654-158.869C262.651,97.685,179.89,147.448,179.89,256
	c0,3.818-3.088,6.907-6.907,6.907c-3.816,0-6.906-3.089-6.906-6.907c0-112.033,86.078-171.28,172.143-172.656
	c0.202-0.013,0.392-0.027,0.594-0.027h2.496c0.216,0,0.418,0.014,0.62,0.027C435.724,85.018,511.495,161.829,511.495,256
	C511.495,351.211,434.023,428.682,338.813,428.682z"/>
</svg>
