<?xml version="1.0" encoding="utf-8"?>
<!-- Generator: Adobe Illustrator 16.0.0, SVG Export Plug-In . SVG Version: 6.00 Build 0)  -->
<!DOCTYPE svg PUBLIC "-//W3C//DTD SVG 1.1//EN" "http://www.w3.org/Graphics/SVG/1.1/DTD/svg11.dtd">
<svg version="1.1" id="Layer_1" xmlns="http://www.w3.org/2000/svg" xmlns:xlink="http://www.w3.org/1999/xlink" x="0px" y="0px"
	 width="512px" height="512px" viewBox="0 0 512 512" enable-background="new 0 0 512 512" xml:space="preserve">
<path fill="#5E686C" d="M47.085,87.303c-22.312,0-40.461-18.143-40.461-40.448c0-22.318,18.149-40.475,40.461-40.475
	s40.461,18.156,40.461,40.475C87.546,69.16,69.396,87.303,47.085,87.303z M47.085,19.868c-14.876,0-26.974,12.104-26.974,26.987
	c0,14.863,12.098,26.961,26.974,26.961s26.974-12.098,26.974-26.961C74.059,31.972,61.961,19.868,47.085,19.868z"/>
<path fill="#5E686C" d="M256.964,473.1c-122.141,0-221.509-99.361-221.509-221.502S134.823,30.089,256.964,30.089
	c122.134,0,221.495,99.368,221.495,221.509S379.098,473.1,256.964,473.1z M256.964,43.576
	c-114.706,0-208.022,93.316-208.022,208.022c0,114.699,93.316,208.016,208.022,208.016c114.692,0,208.009-93.316,208.009-208.016
	C464.973,136.892,371.656,43.576,256.964,43.576z"/>
<path fill="#5E686C" d="M436.628,441.964c-1.725,0-3.45-0.658-4.768-1.976L302.43,310.702c-2.635-2.634-2.635-6.901,0-9.536
	c2.634-2.634,6.901-2.634,9.535,0l129.432,129.286c2.634,2.635,2.634,6.901,0,9.536
	C440.079,441.306,438.354,441.964,436.628,441.964z"/>
<path fill="#5E686C" d="M202.179,207.738c-1.725,0-3.451-0.659-4.768-1.969L67.724,76.246c-2.634-2.634-2.634-6.901-0.007-9.542
	c2.634-2.634,6.908-2.628,9.542-0.007L206.947,196.22c2.634,2.634,2.634,6.902,0.006,9.542
	C205.636,207.08,203.905,207.738,202.179,207.738z"/>
<path fill="#69C299" d="M71.602,442.122c-1.732,0-3.464-0.659-4.781-1.989c-2.628-2.647-2.614-6.914,0.026-9.535l134.265-133.422
	c2.641-2.621,6.901-2.635,9.536,0.026c2.627,2.647,2.614,6.915-0.026,9.535L76.357,440.159
	C75.04,441.463,73.322,442.122,71.602,442.122z"/>
<path fill="#69C299" d="M460.955,87.303c-22.299,0-40.448-18.143-40.448-40.448c0-22.318,18.149-40.475,40.448-40.475
	c22.312,0,40.475,18.156,40.475,40.475C501.43,69.16,483.267,87.303,460.955,87.303z M460.955,19.868
	c-14.87,0-26.961,12.104-26.961,26.987c0,14.863,12.091,26.961,26.961,26.961c14.883,0,26.987-12.098,26.987-26.961
	C487.943,31.972,475.838,19.868,460.955,19.868z"/>
<path fill="#69C299" d="M47.085,501.443c-22.312,0-40.461-18.136-40.461-40.435c0-22.324,18.149-40.487,40.461-40.487
	s40.461,18.163,40.461,40.487C87.546,483.308,69.396,501.443,47.085,501.443z M47.085,434.009c-14.876,0-26.974,12.117-26.974,27
	c0,14.857,12.098,26.948,26.974,26.948s26.974-12.091,26.974-26.948C74.059,446.126,61.961,434.009,47.085,434.009z"/>
<path fill="#5E686C" d="M460.955,501.443c-22.299,0-40.448-18.136-40.448-40.435c0-22.324,18.149-40.487,40.448-40.487
	c22.312,0,40.475,18.163,40.475,40.487C501.43,483.308,483.267,501.443,460.955,501.443z M460.955,434.009
	c-14.87,0-26.961,12.117-26.961,27c0,14.857,12.091,26.948,26.961,26.948c14.883,0,26.987-12.091,26.987-26.948
	C487.943,446.126,475.838,434.009,460.955,434.009z"/>
<path fill="#69C299" d="M256.964,329.932c-43.194,0-78.334-35.14-78.334-78.334s35.14-78.341,78.334-78.341
	c43.188,0,78.327,35.146,78.327,78.341S300.152,329.932,256.964,329.932z M256.964,186.744c-35.76,0-64.848,29.094-64.848,64.854
	c0,35.752,29.088,64.847,64.848,64.847c35.759,0,64.84-29.095,64.84-64.847C321.804,215.838,292.723,186.744,256.964,186.744z"/>
<path fill="#69C299" d="M308.146,206.869c-1.738,0-3.464-0.665-4.78-1.989c-2.635-2.647-2.608-6.915,0.025-9.536L431.795,67.784
	c2.66-2.641,6.928-2.602,9.535,0.026c2.635,2.647,2.608,6.915-0.026,9.536L312.901,204.907
	C311.583,206.217,309.859,206.869,308.146,206.869z"/>
</svg>
