<?xml version="1.0" encoding="utf-8"?>
<!-- Generator: Adobe Illustrator 16.0.0, SVG Export Plug-In . SVG Version: 6.00 Build 0)  -->
<!DOCTYPE svg PUBLIC "-//W3C//DTD SVG 1.1//EN" "http://www.w3.org/Graphics/SVG/1.1/DTD/svg11.dtd">
<svg version="1.1" id="Layer_1" xmlns="http://www.w3.org/2000/svg" xmlns:xlink="http://www.w3.org/1999/xlink" x="0px" y="0px"
	 width="512px" height="512px" viewBox="0 0 512 512" enable-background="new 0 0 512 512" xml:space="preserve">
<path fill="#5E686C" d="M255.972,505.375c-137.529,0-249.414-111.885-249.414-249.414c0-137.529,111.885-249.414,249.414-249.414
	c59.203,0,116.534,21.074,161.42,59.348c2.843,2.427,3.187,6.699,0.767,9.542c-2.445,2.857-6.719,3.201-9.549,0.76
	C366.158,40.014,311.961,20.09,255.972,20.09C125.909,20.09,20.1,125.898,20.1,255.961c0,130.057,105.81,235.871,235.872,235.871
	c130.063,0,235.878-105.814,235.878-235.871c0-55.777-19.824-109.868-55.811-152.301c-2.421-2.85-2.076-7.122,0.78-9.542
	c2.843-2.414,7.128-2.063,9.535,0.787c38.075,44.873,59.037,102.072,59.037,161.057C505.393,393.49,393.508,505.375,255.972,505.375
	z"/>
<path fill="#69C299" d="M333.518,324.256c-1.731,0-3.465-0.661-4.787-1.982c-2.645-2.646-2.645-6.932,0-9.575l56.736-56.736
	l-56.736-56.736c-2.645-2.645-2.645-6.93,0-9.575c2.646-2.645,6.931-2.645,9.575,0l61.522,61.523c2.646,2.645,2.646,6.93,0,9.575
	l-61.522,61.524C336.984,323.595,335.25,324.256,333.518,324.256z"/>
<path fill="#69C299" d="M178.446,324.256c-1.731,0-3.465-0.661-4.787-1.982l-61.523-61.524c-2.645-2.646-2.645-6.93,0-9.575
	l61.523-61.523c2.646-2.645,6.93-2.645,9.574,0c2.646,2.645,2.646,6.93,0,9.575l-56.735,56.736l56.735,56.736
	c2.646,2.645,2.646,6.93,0,9.575C181.911,323.595,180.179,324.256,178.446,324.256z"/>
<path fill="#5E686C" d="M222.711,364.315c-0.708,0-1.429-0.106-2.144-0.346c-3.544-1.188-5.462-5.024-4.277-8.568l67.713-203.139
	c1.189-3.544,5.052-5.456,8.568-4.278c3.546,1.177,5.464,5.012,4.285,8.563l-67.726,203.139
	C228.186,362.517,225.548,364.315,222.711,364.315z"/>
</svg>
