<?xml version="1.0" encoding="utf-8"?>
<!-- Generator: Adobe Illustrator 16.0.0, SVG Export Plug-In . SVG Version: 6.00 Build 0)  -->
<!DOCTYPE svg PUBLIC "-//W3C//DTD SVG 1.1//EN" "http://www.w3.org/Graphics/SVG/1.1/DTD/svg11.dtd">
<svg version="1.1" id="Layer_1" xmlns="http://www.w3.org/2000/svg" xmlns:xlink="http://www.w3.org/1999/xlink" x="0px" y="0px"
	 width="512px" height="512px" viewBox="0 0 512 512" enable-background="new 0 0 512 512" xml:space="preserve">
<path fill="#5E686C" d="M395.278,225.022c3.759-40.729,6.496-70.427,6.496-70.427c0.176-1.937-0.471-3.854-1.781-5.291
	c-1.309-1.438-3.156-2.254-5.101-2.254H47.411c-1.943,0-3.792,0.816-5.103,2.254c-1.309,1.431-1.957,3.354-1.782,5.291
	c0,0,25.21,275.577,27.641,301.393c4.076,43.278,31.064,52.36,52.981,52.36h197.627c30.864,0,52.078-21.159,55.358-55.234
	c1.699-17.583,12.304-132.328,19.87-214.304c43.705,2.81,78.297,35.101,78.297,74.408c0,29.042-19.325,55.684-49.221,67.841
	c-3.533,1.433-5.233,5.468-3.791,9.001c1.094,2.688,3.672,4.308,6.396,4.308c0.865,0,1.755-0.162,2.608-0.512
	c35.128-14.293,57.825-45.94,57.825-80.638C486.12,266.703,446.006,228.462,395.278,225.022z M360.37,451.791
	c-2.604,27.166-17.774,42.74-41.595,42.74H121.15c-24.195,0-36.667-12.658-39.218-39.839
	c-2.186-23.268-22.887-249.434-26.95-293.821h332.339C383.258,204.812,362.8,426.757,360.37,451.791z"/>
<path fill="#69C299" d="M134.294,99.438c3.818,0,6.91-3.09,6.91-6.909V26.307c0-3.82-3.093-6.91-6.91-6.91
	c-3.819,0-6.91,3.091-6.91,6.91v66.221C127.384,96.348,130.475,99.438,134.294,99.438z"/>
<path fill="#69C299" d="M221.151,116.564c3.819,0,6.91-3.091,6.91-6.91V9.181c0-3.82-3.09-6.91-6.91-6.91
	c-3.818,0-6.908,3.091-6.908,6.91v100.473C214.241,113.473,217.332,116.564,221.151,116.564z"/>
<path fill="#69C299" d="M308.034,99.438c3.818,0,6.908-3.09,6.907-6.909V26.307c0-3.82-3.09-6.91-6.907-6.91
	c-3.819,0-6.91,3.091-6.91,6.91v66.221C301.124,96.348,304.215,99.438,308.034,99.438z"/>
</svg>
