<?xml version="1.0" encoding="utf-8"?>
<!-- Generator: Adobe Illustrator 16.0.0, SVG Export Plug-In . SVG Version: 6.00 Build 0)  -->
<!DOCTYPE svg PUBLIC "-//W3C//DTD SVG 1.1//EN" "http://www.w3.org/Graphics/SVG/1.1/DTD/svg11.dtd">
<svg version="1.1" id="Layer_1" xmlns="http://www.w3.org/2000/svg" xmlns:xlink="http://www.w3.org/1999/xlink" x="0px" y="0px"
	 width="512px" height="512px" viewBox="0 0 512 512" enable-background="new 0 0 512 512" xml:space="preserve">
<path fill="#5E686C" d="M401.171,261.893c1.013-2.455,0.446-5.274-1.426-7.155L218.413,73.417V56.736
	c0-25.969-21.118-47.093-47.081-47.093c-25.978,0-47.105,21.123-47.105,47.093v99.482l-88.391,88.391
	c-8.899,8.898-13.796,20.726-13.796,33.297c0,12.57,4.896,24.4,13.796,33.297l94.674,94.674
	c8.898,8.899,20.719,13.804,33.297,13.804s24.399-4.904,33.297-13.804l139.936-139.932h58.067
	C397.76,265.945,400.156,264.348,401.171,261.893z M137.355,56.736c0-18.726,15.245-33.964,33.979-33.964
	c18.72,0,33.952,15.238,33.952,33.964V75.16l-67.931,67.93V56.736L137.355,56.736z M334.32,252.815
	c-1.743,0-3.409,0.692-4.642,1.923L187.821,396.596c-12.847,12.834-35.182,12.834-48.027,0l-94.674-94.674
	c-6.417-6.418-9.95-14.951-9.95-24.016c0-9.065,3.533-17.598,9.95-24.014l90.296-90.296c0.012-0.012,0.023-0.023,0.036-0.035
	l69.834-69.834v125.125c0,3.628,2.936,6.564,6.563,6.564s6.564-2.936,6.564-6.564V91.982L379.26,252.815H334.32z"/>
<path fill="#69C299" d="M420.99,316.774c-1.189-1.963-3.318-3.16-5.613-3.16c-2.298,0-4.425,1.197-5.616,3.16
	c-5.282,8.698-51.619,85.872-51.619,114.859c0,31.557,25.681,57.225,57.235,57.225c31.554,0,57.223-25.668,57.222-57.225
	C472.599,402.647,426.275,325.474,420.99,316.774z M415.377,475.73c-24.323,0-44.105-19.779-44.105-44.096
	c0-18.957,28.04-71.029,44.105-98.597c16.052,27.566,44.094,79.64,44.094,98.597C459.471,455.952,439.687,475.73,415.377,475.73z"/>
</svg>
