<?xml version="1.0" encoding="utf-8"?>
<!-- Generator: Adobe Illustrator 16.0.0, SVG Export Plug-In . SVG Version: 6.00 Build 0)  -->
<!DOCTYPE svg PUBLIC "-//W3C//DTD SVG 1.1//EN" "http://www.w3.org/Graphics/SVG/1.1/DTD/svg11.dtd">
<svg version="1.1" id="Layer_1" xmlns="http://www.w3.org/2000/svg" xmlns:xlink="http://www.w3.org/1999/xlink" x="0px" y="0px"
	 width="512px" height="512px" viewBox="0 0 512 512" enable-background="new 0 0 512 512" xml:space="preserve">
<path fill="#5E686C" d="M255.423,3C116.195,3,2.926,116.276,2.926,255.497c0,139.222,113.269,252.497,252.497,252.497
	c139.227,0,252.504-113.275,252.504-252.497C507.927,116.276,394.65,3,255.423,3z M262.437,493.854V447.98
	c0-3.88-3.136-7.017-7.014-7.017c-3.877,0-7.014,3.137-7.014,7.017v45.873c-125.934-3.655-227.688-105.41-231.344-231.343h45.882
	c3.878,0,7.015-3.137,7.016-7.014c0-3.876-3.138-7.013-7.016-7.013H17.066C20.722,122.55,122.476,20.795,248.409,17.139v47.027
	c0,3.876,3.138,7.014,7.014,7.014c3.878,0,7.014-3.138,7.014-7.015V17.139c125.939,3.656,227.693,105.411,231.35,231.345h-45.889
	c-3.878,0-7.015,3.137-7.015,7.013c0,3.877,3.137,7.014,7.015,7.014h45.889C490.131,388.443,388.376,490.198,262.437,493.854z"/>
<path fill="#5E686C" d="M261.115,271.1c1.369,1.371,3.164,2.055,4.958,2.055c1.798,0,3.592-0.684,4.96-2.055
	c2.739-2.738,2.739-7.178,0-9.918l-21.302-21.288c-2.738-2.74-7.178-2.74-9.918,0c-2.739,2.739-2.739,7.178,0,9.917L261.115,271.1z"
	/>
<path fill="#69C299" d="M364.28,137.03L223.79,221.322c-0.23,0.134-0.454,0.281-0.669,0.441c-0.046,0.034-0.087,0.072-0.133,0.107
	c-0.133,0.104-0.265,0.209-0.391,0.323c-0.095,0.086-0.183,0.178-0.271,0.269c-0.069,0.07-0.142,0.137-0.208,0.21
	c-0.119,0.131-0.229,0.269-0.338,0.408c-0.032,0.042-0.067,0.08-0.1,0.123c-0.133,0.18-0.257,0.365-0.372,0.556
	c-0.005,0.009-0.012,0.017-0.017,0.025l-0.003,0.005c-0.01,0.016-0.02,0.031-0.028,0.046l-84.313,140.51
	c-1.654,2.754-1.218,6.289,1.058,8.563c1.348,1.354,3.148,2.055,4.958,2.055c1.24,0,2.487-0.329,3.609-1l140.57-84.344
	c0.168-0.102,0.326-0.211,0.483-0.324c0.026-0.02,0.056-0.035,0.083-0.057c0.227-0.166,0.438-0.348,0.639-0.536
	c0.048-0.044,0.091-0.093,0.137-0.14c0.155-0.154,0.304-0.314,0.441-0.481c0.052-0.062,0.103-0.124,0.151-0.188
	c0.147-0.191,0.285-0.39,0.413-0.594c0.02-0.031,0.043-0.059,0.062-0.091l84.345-140.564c1.656-2.754,1.22-6.288-1.056-8.562
	C370.554,135.783,367.007,135.386,364.28,137.03z M278.426,278.492l-115.011,69.006l68.993-114.989l115.021-69.013L278.426,278.492z
	"/>
</svg>
