<?xml version="1.0" encoding="utf-8"?>
<!-- Generator: Adobe Illustrator 16.0.0, SVG Export Plug-In . SVG Version: 6.00 Build 0)  -->
<!DOCTYPE svg PUBLIC "-//W3C//DTD SVG 1.1//EN" "http://www.w3.org/Graphics/SVG/1.1/DTD/svg11.dtd">
<svg version="1.1" id="Layer_1" xmlns="http://www.w3.org/2000/svg" xmlns:xlink="http://www.w3.org/1999/xlink" x="0px" y="0px"
	 width="512px" height="512px" viewBox="0 0 512 512" enable-background="new 0 0 512 512" xml:space="preserve">
<path fill="#5E686C" d="M322.146,98.922h115.615c3.698,0,6.689-2.992,6.689-6.691c0-3.699-2.991-6.691-6.689-6.691H322.145
	c-3.369-33.756-31.94-60.207-66.577-60.207c-34.634,0-63.207,26.451-66.576,60.207H73.362c-3.696,0-6.689,2.992-6.689,6.691
	c0,3.698,2.993,6.691,6.689,6.691h115.63c3.366,33.771,31.94,60.235,66.576,60.235S318.778,132.692,322.146,98.922z
	 M255.568,145.774c-29.521,0-53.528-24.021-53.528-53.543c0-29.509,24.008-53.517,53.528-53.517c29.522,0,53.53,24.008,53.53,53.517
	C309.098,121.753,285.09,145.774,255.568,145.774z"/>
<path fill="#69C299" d="M238.036,369.347c-0.135-0.813-0.413-1.577-0.812-2.264L127.069,167.24
	c-0.239-0.479-0.542-0.928-0.896-1.343c-0.002-0.002-0.004-0.004-0.006-0.006c-0.139-0.161-0.284-0.316-0.438-0.465
	c-0.011-0.011-0.021-0.021-0.034-0.032c-0.144-0.137-0.293-0.267-0.45-0.392c-0.021-0.016-0.041-0.031-0.062-0.046
	c-0.149-0.116-0.305-0.227-0.467-0.331c-0.024-0.015-0.048-0.03-0.072-0.045c-0.107-0.068-0.213-0.139-0.327-0.202
	c-0.059-0.032-0.119-0.056-0.178-0.086c-0.009-0.005-0.019-0.009-0.028-0.014c-0.773-0.393-1.593-0.623-2.418-0.695
	c-0.042-0.004-0.085-0.004-0.127-0.007c-0.16-0.011-0.319-0.021-0.479-0.02c-0.129,0-0.257,0.009-0.386,0.016
	c-0.074,0.004-0.148,0.005-0.223,0.012c-0.191,0.017-0.384,0.045-0.575,0.079c-0.012,0.002-0.023,0.003-0.036,0.006
	c-0.61,0.112-1.211,0.314-1.788,0.605c-0.013,0.006-0.025,0.012-0.038,0.018c-0.06,0.03-0.12,0.055-0.18,0.087
	c-0.111,0.062-0.216,0.133-0.322,0.2c-0.025,0.016-0.051,0.03-0.074,0.046c-0.16,0.103-0.313,0.212-0.462,0.327
	c-0.023,0.018-0.046,0.035-0.069,0.053c-0.153,0.121-0.298,0.248-0.438,0.38c-0.018,0.016-0.034,0.032-0.052,0.048
	c-0.146,0.142-0.285,0.289-0.418,0.442c-0.009,0.011-0.019,0.022-0.028,0.033c-0.141,0.165-0.271,0.336-0.395,0.512
	c-0.003,0.004-0.006,0.008-0.009,0.013c-0.177,0.256-0.339,0.52-0.478,0.795L4.944,367.075c-0.505,0.866-0.818,1.854-0.891,2.911
	c-0.01,0.144-0.021,0.288-0.022,0.432c0,0.008-0.001,0.016-0.001,0.023c0,64.547,52.513,117.059,117.06,117.059
	c64.534,0,117.045-52.512,117.044-117.059c0-0.002,0-0.003,0-0.006C238.133,370.073,238.097,369.709,238.036,369.347z
	 M121.088,184.089L220.12,363.75H22.046L121.088,184.089z M121.089,474.117c-54.915,0-100.003-42.918-103.466-96.984h206.919
	C221.079,431.199,176.004,474.117,121.089,474.117z"/>
<path fill="#5E686C" d="M504.658,367.202L393.68,166.999c-0.036-0.064-0.078-0.122-0.115-0.184
	c-0.062-0.105-0.126-0.209-0.193-0.311c-0.051-0.073-0.103-0.144-0.153-0.215c-0.083-0.112-0.167-0.223-0.257-0.331
	c-0.049-0.058-0.101-0.115-0.15-0.171c-0.098-0.109-0.198-0.217-0.305-0.32c-0.05-0.05-0.103-0.097-0.154-0.145
	c-0.109-0.102-0.224-0.201-0.342-0.295c-0.054-0.042-0.108-0.083-0.163-0.125c-0.12-0.091-0.243-0.179-0.371-0.262
	c-0.058-0.037-0.115-0.072-0.174-0.107c-0.088-0.053-0.171-0.111-0.262-0.161c-0.046-0.025-0.095-0.043-0.141-0.067
	c-0.054-0.028-0.107-0.053-0.163-0.079c-0.144-0.069-0.286-0.136-0.434-0.195c-0.054-0.021-0.109-0.039-0.163-0.059
	c-0.146-0.055-0.294-0.107-0.443-0.15c-0.071-0.021-0.146-0.037-0.22-0.056c-0.129-0.033-0.258-0.067-0.388-0.092
	c-0.128-0.025-0.258-0.041-0.387-0.059c-0.073-0.01-0.146-0.023-0.221-0.03c-1.216-0.125-2.471,0.087-3.627,0.666
	c-0.044,0.021-0.088,0.042-0.131,0.065c-0.047,0.024-0.095,0.044-0.142,0.07c-0.08,0.044-0.153,0.097-0.231,0.144
	c-0.074,0.045-0.147,0.089-0.221,0.138c-0.11,0.073-0.216,0.149-0.319,0.227c-0.072,0.054-0.145,0.108-0.215,0.166
	c-0.104,0.084-0.203,0.172-0.301,0.262c-0.062,0.057-0.123,0.113-0.184,0.173c-0.103,0.101-0.198,0.206-0.294,0.312
	c-0.049,0.055-0.098,0.11-0.145,0.167c-0.101,0.121-0.193,0.244-0.284,0.371c-0.037,0.052-0.074,0.103-0.11,0.156
	c-0.093,0.138-0.179,0.279-0.261,0.422c-0.021,0.035-0.044,0.067-0.062,0.103l-108.608,198.14c-1.569,1.225-2.581,3.129-2.581,5.274
	c0,64.547,52.511,117.059,117.061,117.059c63.562,0,115.459-50.944,117.005-114.154C505.74,371.456,505.752,369.173,504.658,367.202
	z M387.857,184.1l99.588,179.65H289.383L387.857,184.1z M387.826,474.117c-54.916,0-100.006-42.918-103.469-96.984h206.919
	C487.814,431.199,442.74,474.117,387.826,474.117z"/>
</svg>
