<?xml version="1.0" encoding="utf-8"?>
<!-- Generator: Adobe Illustrator 16.0.0, SVG Export Plug-In . SVG Version: 6.00 Build 0)  -->
<!DOCTYPE svg PUBLIC "-//W3C//DTD SVG 1.1//EN" "http://www.w3.org/Graphics/SVG/1.1/DTD/svg11.dtd">
<svg version="1.1" id="Layer_1" xmlns="http://www.w3.org/2000/svg" xmlns:xlink="http://www.w3.org/1999/xlink" x="0px" y="0px"
	 width="512px" height="512px" viewBox="0 0 512 512" enable-background="new 0 0 512 512" xml:space="preserve">
<path fill="#5E686C" d="M128.211,232.349c-3.408,0-6.304-2.604-6.602-6.064l-5.844-67.799c-0.318-3.654,2.391-6.868,6.039-7.179
	c3.712-0.396,6.861,2.384,7.179,6.039l5.844,67.799c0.318,3.654-2.391,6.868-6.039,7.179
	C128.594,232.336,128.399,232.349,128.211,232.349z"/>
<path fill="#5E686C" d="M381.012,232.764c-0.168,0-0.337,0-0.505-0.013c-3.654-0.272-6.389-3.46-6.13-7.114l5.041-68.213
	c0.272-3.661,3.473-6.363,7.114-6.123c3.654,0.266,6.389,3.447,6.13,7.108l-5.041,68.213
	C387.362,230.107,384.447,232.764,381.012,232.764z"/>
<path fill="#5E686C" d="M360.46,164.55c-2.488,0-4.872-1.412-6-3.81l-41.752-88.682h-117.1l-43.67,88.785
	c-1.613,3.292-5.598,4.652-8.883,3.02c-3.285-1.607-4.639-5.585-3.026-8.876l45.497-92.492c1.115-2.268,3.428-3.706,5.955-3.706
	h125.438c2.572,0,4.911,1.484,6,3.81l43.54,92.491c1.568,3.317,0.143,7.27-3.174,8.825
	C362.378,164.343,361.406,164.55,360.46,164.55z"/>
<path fill="#5E686C" d="M286.506,69.726c-3.668,0-6.635-2.967-6.635-6.635V22.829H228.53v40.262c0,3.667-2.968,6.635-6.635,6.635
	s-6.635-2.967-6.635-6.635V16.195c0-3.667,2.968-6.635,6.635-6.635h64.611c3.667,0,6.635,2.967,6.635,6.635v46.896
	C293.141,66.759,290.173,69.726,286.506,69.726z"/>
<path fill="#69C299" d="M146.729,487.217c-2.967,0-5.676-2.009-6.427-5.028L81.949,249.04c-0.706-2.825,0.505-5.767,2.993-7.283
	c4.25-2.579,104.187-62.706,168.033-62.706c0.881,0,1.756,0,2.644,0c63.678,0,163.595,60.127,167.845,62.706
	c2.488,1.516,3.706,4.458,3.007,7.283l-58.34,233.149c-0.906,3.551-4.548,5.663-8.047,4.834c-3.563-0.895-5.715-4.497-4.834-8.048
	l57.135-228.342C392.714,239.23,308.548,192.32,255.47,192.32c-0.797,0-1.568,0.013-2.345,0c-53.227,0-137.418,46.91-157.102,58.312
	l57.146,228.342c0.895,3.551-1.27,7.153-4.82,8.048C147.804,487.151,147.267,487.217,146.729,487.217z"/>
<path fill="#69C299" d="M255.483,487.269c-3.667,0-6.635-2.968-6.635-6.635V185.776c0-3.667,2.967-6.635,6.635-6.635
	s6.634,2.968,6.634,6.635v294.858C262.117,484.301,259.151,487.269,255.483,487.269z"/>
<path fill="#5E686C" d="M390.433,504.736c-11.118,0-16.548-2.929-22.302-6.013c-5.805-3.162-11.637-6.323-23.117-6.323
	c-11.43,0-17.248,3.148-22.885,6.207c-5.975,3.213-11.391,6.129-22.51,6.129c-11.105,0-16.516-2.902-22.243-5.986
	c-5.928-3.201-11.76-6.35-23.176-6.35c-11.43,0-17.268,3.161-22.911,6.207c-5.909,3.188-11.339,6.129-22.509,6.129
	c-11.105,0-16.528-2.916-22.269-6c-5.864-3.175-11.688-6.336-23.125-6.336c-11.455,0-17.28,3.148-22.91,6.207
	c-5.974,3.213-11.391,6.129-22.509,6.129c-11.118,0-16.528-2.916-22.256-6c-5.883-3.188-11.708-6.336-23.163-6.336
	c-3.667,0-6.635-2.968-6.635-6.635c0-3.668,2.968-6.635,6.635-6.635c14.818,0,22.807,4.328,29.228,7.801
	c5.333,2.877,8.417,4.535,16.191,4.535s10.866-1.658,15.991-4.419c6.622-3.589,14.611-7.917,29.429-7.917
	c14.805,0,22.794,4.341,29.215,7.826c5.32,2.852,8.41,4.51,16.179,4.51c7.814,0,10.905-1.672,16.036-4.444
	c6.596-3.563,14.598-7.892,29.384-7.892c14.772,0,22.768,4.314,29.188,7.788c5.378,2.89,8.462,4.548,16.23,4.548
	c7.775,0,10.866-1.658,15.991-4.419c6.622-3.589,14.617-7.917,29.403-7.917c14.85,0,22.846,4.341,29.272,7.826
	c5.274,2.838,8.372,4.51,16.146,4.51c7.788,0,10.886-1.658,16.017-4.419c6.596-3.576,14.592-7.917,29.416-7.917
	c3.667,0,6.635,2.967,6.635,6.635c0,3.667-2.968,6.635-6.635,6.635c-11.455,0-17.287,3.161-22.924,6.22
	C406.981,501.82,401.565,504.736,390.433,504.736z"/>
<path fill="#5E686C" d="M386.04,164.55H122.373c-3.667,0-6.635-2.967-6.635-6.635c0-3.667,2.968-6.635,6.635-6.635H386.04
	c3.667,0,6.635,2.968,6.635,6.635C392.675,161.583,389.707,164.55,386.04,164.55z"/>
</svg>
