<?xml version="1.0" encoding="utf-8"?>
<!-- Generator: Adobe Illustrator 16.0.0, SVG Export Plug-In . SVG Version: 6.00 Build 0)  -->
<!DOCTYPE svg PUBLIC "-//W3C//DTD SVG 1.1//EN" "http://www.w3.org/Graphics/SVG/1.1/DTD/svg11.dtd">
<svg version="1.1" id="Layer_1" xmlns="http://www.w3.org/2000/svg" xmlns:xlink="http://www.w3.org/1999/xlink" x="0px" y="0px"
	 width="512px" height="512px" viewBox="0 0 512 512" enable-background="new 0 0 512 512" xml:space="preserve">
<path fill="#69C299" d="M351.714,152.033H159.498c-3.795,0-6.865,3.071-6.865,6.865v192.216c0,3.795,3.071,6.864,6.865,6.864
	h192.216c3.794,0,6.865-3.069,6.865-6.864V158.898C358.579,155.104,355.508,152.033,351.714,152.033z M344.849,344.249H166.363
	V165.763h178.486V344.249z"/>
<path fill="#5E686B" d="M502.74,220.682c3.795,0,6.865-3.071,6.865-6.865c0-3.795-3.07-6.865-6.865-6.865h-75.514v-68.648h75.514
	c3.795,0,6.865-3.071,6.865-6.865c0-3.795-3.07-6.866-6.865-6.866h-75.514V90.25c0-3.795-3.07-6.865-6.863-6.865H386.04V7.864
	c0-3.794-3.072-6.864-6.866-6.864s-6.864,3.07-6.864,6.864v75.521H303.66V7.864c0-3.794-3.071-6.864-6.865-6.864
	C293,1,289.93,4.07,289.93,7.864v75.521h-68.646V7.864c0-3.794-3.07-6.864-6.865-6.864c-3.794,0-6.864,3.07-6.864,6.864v75.521
	h-68.649V7.864c0-3.794-3.069-6.864-6.863-6.864s-6.864,3.07-6.864,6.864v75.521H90.849c-3.794,0-6.864,3.071-6.864,6.865v34.323
	H8.471c-3.795,0-6.865,3.071-6.865,6.866s3.07,6.865,6.865,6.865h75.514v68.648H8.471c-3.795,0-6.865,3.07-6.865,6.865
	c0,3.794,3.07,6.865,6.865,6.865h75.514v68.649H8.471c-3.795,0-6.865,3.071-6.865,6.866c0,3.793,3.07,6.863,6.865,6.863h75.514
	v68.646H8.471c-3.795,0-6.865,3.072-6.865,6.865c0,3.795,3.07,6.863,6.865,6.863h75.514v34.325c0,3.794,3.07,6.864,6.864,6.864
	h34.326v75.514c0,3.795,3.07,6.865,6.864,6.865s6.862-3.07,6.863-6.865v-75.514h68.649v75.514c0,3.795,3.07,6.865,6.864,6.865
	s6.864-3.07,6.864-6.865v-75.514h68.647v75.514c0,3.795,3.07,6.865,6.865,6.865c3.794,0,6.865-3.07,6.865-6.865v-75.514h68.647
	v75.514c0,3.795,3.07,6.865,6.864,6.865s6.866-3.07,6.866-6.865v-75.514h34.322c3.793,0,6.864-3.07,6.863-6.864v-34.325h75.514
	c3.795,0,6.865-3.068,6.865-6.863c0-3.793-3.07-6.865-6.865-6.865h-75.514v-68.646h75.514c3.795,0,6.865-3.072,6.865-6.863
	c0-3.795-3.07-6.866-6.865-6.866h-75.514v-68.649H502.74L502.74,220.682z M413.496,412.897H97.714V97.114h315.782V412.897
	L413.496,412.897z"/>
</svg>
