<?xml version="1.0" encoding="utf-8"?>
<!-- Generator: Adobe Illustrator 16.0.0, SVG Export Plug-In . SVG Version: 6.00 Build 0)  -->
<!DOCTYPE svg PUBLIC "-//W3C//DTD SVG 1.1//EN" "http://www.w3.org/Graphics/SVG/1.1/DTD/svg11.dtd">
<svg version="1.1" id="Layer_1" xmlns="http://www.w3.org/2000/svg" xmlns:xlink="http://www.w3.org/1999/xlink" x="0px" y="0px"
	 width="512px" height="512px" viewBox="0 0 512 512" enable-background="new 0 0 512 512" xml:space="preserve">
<path fill="#5E686B" d="M409.411,394.188H100.47c-3.711,0-6.715-3.003-6.715-6.715v-87.279L59.427,180.027
	c-29.01,1.994-54.61-21.41-54.604-50.407c0-27.85,22.951-50.506,51.162-50.506c28.224,0,51.188,22.656,51.188,50.506
	c0,4.256-0.531,8.446-1.587,12.512c58.053,17.928,102.585,12.518,125.215-16.84c-16.473-8.649-27.056-25.613-27.056-44.499
	c0-27.862,22.964-50.532,51.2-50.532c28.225,0,51.176,22.669,51.176,50.532c0,19.023-10.755,36.112-27.45,44.715
	c24.853,38.342,68.46,45.732,127.097,21.332c-2.021-5.508-3.068-11.351-3.068-17.22c0-27.836,22.951-50.479,51.174-50.479
	c28.237,0,51.201,22.643,51.201,50.479c0,28.873-25.062,52.447-54.27,50.427l-34.676,121.956v85.47
	C416.127,391.185,413.122,394.188,409.411,394.188z M107.185,380.758h295.513V301.07c0-0.615,0.092-1.231,0.263-1.836
	l36.513-128.395c0.931-3.325,4.21-5.456,7.659-4.767c2.188,0.4,4.444,0.649,6.739,0.649c20.827,0,37.771-16.643,37.771-37.102
	c0-20.427-16.944-37.05-37.771-37.05c-20.812,0-37.743,16.623-37.743,37.05c0,6.164,1.494,12.046,4.459,17.469
	c0.892,1.646,1.062,3.593,0.459,5.364c-0.604,1.777-1.915,3.22-3.62,3.98c-26.78,11.948-51.239,18.007-72.683,18.007
	c-45.286,0-69.417-26.591-81.681-48.893c-0.957-1.751-1.089-3.836-0.354-5.698c0.733-1.856,2.256-3.292,4.157-3.915
	c15.449-5.056,25.823-19.181,25.823-35.142c0-20.459-16.932-37.102-37.745-37.102c-20.826,0-37.771,16.643-37.771,37.102
	c0,15.987,10.4,30.105,25.863,35.135c1.954,0.636,3.515,2.125,4.223,4.046c0.708,1.928,0.512,4.072-0.551,5.823
	c-16.158,26.637-43.188,40.145-80.35,40.145c-21.193,0-45.227-4.413-71.431-13.122c-1.777-0.59-3.226-1.901-4-3.606
	c-0.772-1.705-0.793-3.659-0.064-5.384c1.907-4.512,2.879-9.298,2.879-14.21c0-20.446-16.938-37.076-37.759-37.076
	c-20.807,0-37.731,16.63-37.731,37.076c0,20.459,16.925,37.102,37.731,37.102c2.439,0,4.819-0.275,7.121-0.695
	c3.352-0.59,6.695,1.442,7.652,4.767l36.171,126.605c0.17,0.604,0.255,1.22,0.255,1.85L107.185,380.758L107.185,380.758z"/>
<path fill="#69C299" d="M408.337,484.877H99.46c-3.711,0-6.715-3.003-6.715-6.715c0-3.711,3.003-6.715,6.715-6.715h308.877
	c3.711,0,6.715,3.004,6.715,6.715C415.052,481.874,412.048,484.877,408.337,484.877z"/>
</svg>
