<?xml version="1.0" encoding="utf-8"?>
<!-- Generator: Adobe Illustrator 16.0.0, SVG Export Plug-In . SVG Version: 6.00 Build 0)  -->
<!DOCTYPE svg PUBLIC "-//W3C//DTD SVG 1.1//EN" "http://www.w3.org/Graphics/SVG/1.1/DTD/svg11.dtd">
<svg version="1.1" id="Layer_1" xmlns="http://www.w3.org/2000/svg" xmlns:xlink="http://www.w3.org/1999/xlink" x="0px" y="0px"
	 width="512px" height="512px" viewBox="0 0 512 512" enable-background="new 0 0 512 512" xml:space="preserve">
<path fill="#69C299" d="M222.203,133.679c-3.733,0-6.754-3.021-6.754-6.754V69.156c0-35.572,28.943-64.509,64.522-64.509
	s64.523,28.937,64.523,64.509c0,21.767,17.703,39.471,39.457,39.471s39.458-17.704,39.458-39.471
	c0-16.463,13.39-29.854,29.854-29.854c3.733,0,6.755,3.021,6.755,6.754s-3.021,6.754-6.755,6.754
	c-9.011,0-16.345,7.335-16.345,16.345c0,29.214-23.76,52.98-52.967,52.98s-52.967-23.766-52.967-52.98c0-28.119-22.881-51-51.014-51
	c-28.132,0-51.014,22.882-51.014,51v57.769C228.957,130.658,225.936,133.679,222.203,133.679z"/>
<path fill="#5E686C" d="M129.522,402.752c-2.137,0-4.235-1.002-5.547-2.889c-20.441-29.339-28.245-64.879-21.965-100.062
	c6.279-35.196,25.89-65.829,55.229-86.25c3.047-2.124,7.262-1.359,9.399,1.675c2.137,3.061,1.378,7.282-1.682,9.406
	c-26.371,18.363-44.002,45.895-49.649,77.543c-5.646,31.635,1.372,63.586,19.749,89.957c2.13,3.061,1.378,7.269-1.682,9.406
	C132.199,402.356,130.854,402.752,129.522,402.752z"/>
<path fill="#5E686C" d="M233.759,503.408c-99.284,0-180.059-80.775-180.059-180.072c0-74.417,46.232-141.301,115.537-167.936
	v-28.475c0-3.733,3.021-6.754,6.754-6.754h115.537c3.733,0,6.754,3.021,6.754,6.754V155.4
	c69.299,26.635,115.523,93.519,115.523,167.936C413.805,422.633,333.036,503.408,233.759,503.408z M182.745,133.679v26.424
	c0,2.863-1.801,5.409-4.499,6.365c-66.416,23.528-111.038,86.567-111.038,156.868c0,91.844,74.713,166.563,166.55,166.563
	c91.831,0,166.537-74.72,166.537-166.563c0-70.301-44.615-133.346-111.024-156.868c-2.698-0.957-4.498-3.502-4.498-6.365v-26.424
	H182.745z"/>
</svg>
