<?xml version="1.0" encoding="utf-8"?>
<!-- Generator: Adobe Illustrator 16.0.0, SVG Export Plug-In . SVG Version: 6.00 Build 0)  -->
<!DOCTYPE svg PUBLIC "-//W3C//DTD SVG 1.1//EN" "http://www.w3.org/Graphics/SVG/1.1/DTD/svg11.dtd">
<svg version="1.1" id="Layer_1" xmlns="http://www.w3.org/2000/svg" xmlns:xlink="http://www.w3.org/1999/xlink" x="0px" y="0px"
	 width="512px" height="512px" viewBox="0 0 512 512" enable-background="new 0 0 512 512" xml:space="preserve">
<path fill="#69C299" d="M360.379,217.761c12.573,0,22.812-10.238,22.812-22.824c0-12.567-10.237-22.785-22.812-22.785
	c-12.561,0-22.785,10.219-22.785,22.785C337.594,207.523,347.819,217.761,360.379,217.761z M360.379,185.438
	c5.256,0,9.523,4.263,9.522,9.498c0,5.262-4.268,9.537-9.522,9.537c-5.242,0-9.498-4.275-9.498-9.537
	C350.881,189.701,355.137,185.438,360.379,185.438z"/>
<path fill="#69C299" d="M360.379,301.855c-12.561,0-22.785,10.225-22.785,22.784c0,12.586,10.225,22.823,22.785,22.823
	c12.573,0,22.812-10.237,22.812-22.823C383.191,312.081,372.952,301.855,360.379,301.855z M360.379,334.178
	c-5.242,0-9.498-4.28-9.498-9.537c0-5.24,4.256-9.498,9.498-9.498c5.256,0,9.523,4.257,9.522,9.498
	C369.903,329.896,365.635,334.178,360.379,334.178z"/>
<path fill="#5E686C" d="M455.179,331.802v-128.7c0-0.019,0.002-0.037,0.002-0.056c0-0.013-0.002-0.026-0.002-0.039V74.264
	c0-45.843-102.857-70.574-199.635-70.574c-96.733,0-199.536,24.709-199.632,70.51c0,0.021-0.003,0.042-0.003,0.064v257.796
	c0,0.193,0.013,0.384,0.028,0.572c1.186,45.32,103.392,69.77,199.607,69.77c96.35,0,198.71-24.518,199.614-69.958
	c0.009-0.127,0.021-0.253,0.021-0.383v-0.165c0-0.02,0.002-0.037,0.002-0.057C455.181,331.828,455.179,331.815,455.179,331.802z
	 M69.196,100.95c30.837,28.665,110.457,43.875,186.35,43.875c75.89,0,155.509-15.21,186.347-43.874V203.09
	c-0.084,27.083-76.588,57.244-186.346,57.244c-109.818,0-186.35-30.195-186.35-57.288c0-0.006-0.001-0.013-0.001-0.02V100.95
	L69.196,100.95z M255.544,16.978c109.803,0,186.326,30.185,186.347,57.276c0,0.003,0,0.006,0,0.01v0.023
	c-0.042,27.087-76.56,57.252-186.347,57.252c-109.818,0-186.35-30.181-186.35-57.274C69.196,47.172,145.726,16.978,255.544,16.978z
	 M255.545,389.114c-109.818,0-186.35-30.182-186.35-57.273c0-0.007-0.001-0.013-0.001-0.02V229.738
	c30.836,28.671,110.457,43.882,186.35,43.882c75.889,0,155.508-15.21,186.347-43.879v102.144
	C441.807,358.966,365.303,389.114,255.545,389.114z"/>
<path fill="#5E686C" d="M381.945,475.48H276.576c-2.406-9.326-9.769-16.683-19.101-19.091v-34.058c0-3.672-2.972-6.644-6.644-6.644
	s-6.645,2.972-6.645,6.644v34.056c-9.328,2.407-16.687,9.765-19.092,19.093H119.729c-3.672,0-6.644,2.972-6.644,6.644
	c0,3.673,2.972,6.644,6.644,6.644h105.375c2.96,11.45,13.371,19.932,25.725,19.932c12.363,0,22.78-8.48,25.742-19.932h105.374
	c3.674,0,6.645-2.971,6.646-6.644C388.589,478.452,385.618,475.48,381.945,475.48z M250.827,495.411
	c-7.324,0-13.28-5.969-13.28-13.3c0-7.318,5.955-13.274,13.28-13.274c7.331,0,13.3,5.956,13.3,13.274
	C264.127,489.442,258.159,495.411,250.827,495.411z"/>
</svg>
