<?xml version="1.0" encoding="utf-8"?>
<!-- Generator: Adobe Illustrator 16.0.0, SVG Export Plug-In . SVG Version: 6.00 Build 0)  -->
<!DOCTYPE svg PUBLIC "-//W3C//DTD SVG 1.1//EN" "http://www.w3.org/Graphics/SVG/1.1/DTD/svg11.dtd">
<svg version="1.1" id="Layer_1" xmlns="http://www.w3.org/2000/svg" xmlns:xlink="http://www.w3.org/1999/xlink" x="0px" y="0px"
	 width="512px" height="512px" viewBox="0 0 512 512" enable-background="new 0 0 512 512" xml:space="preserve">
<path fill="#69C299" d="M394.906,283.932c-14.84,0-26.919,12.066-26.919,26.895c0,14.852,12.079,26.943,26.919,26.943
	s26.919-12.093,26.919-26.943C421.823,295.997,409.744,283.932,394.906,283.932z M394.906,324.31
	c-7.427,0-13.459-6.046-13.459-13.483c0-7.413,6.032-13.436,13.459-13.436s13.459,6.021,13.459,13.436
	C408.365,318.264,402.331,324.31,394.906,324.31z"/>
<path fill="#5E686C" d="M472.654,216.633H39.342c-17.843,0-32.354,13.368-32.354,29.811v128.798
	c0,16.441,14.513,29.824,32.354,29.824h433.312c17.823,0,32.334-13.382,32.334-29.824V246.444
	C504.988,230.001,490.477,216.633,472.654,216.633z M491.528,375.242c0,9.03-8.464,16.365-18.874,16.365H39.342
	c-10.417,0-18.896-7.335-18.896-16.365V246.444c0-9.017,8.479-16.351,18.896-16.351h433.312c10.41,0,18.874,7.334,18.874,16.351
	V375.242z"/>
<path fill="#69C299" d="M394.906,74.574c-14.84,0-26.919,12.066-26.919,26.893c0,14.859,12.079,26.945,26.919,26.945
	s26.919-12.086,26.919-26.945C421.823,86.64,409.744,74.574,394.906,74.574z M394.906,114.952c-7.427,0-13.459-6.053-13.459-13.486
	c0-7.407,6.032-13.433,13.459-13.433s13.459,6.027,13.459,13.433C408.365,108.899,402.331,114.952,394.906,114.952z"/>
<path fill="#5E686C" d="M472.654,7.276H39.342c-17.843,0-32.354,13.374-32.354,29.811v128.811c0,16.437,14.513,29.811,32.354,29.811
	h433.312c17.823,0,32.334-13.374,32.334-29.81V37.087C504.988,20.65,490.477,7.276,472.654,7.276z M491.528,165.899
	c0,9.017-8.464,16.351-18.874,16.351H39.342c-10.417,0-18.896-7.334-18.896-16.351V37.087c0-9.017,8.479-16.351,18.896-16.351
	h433.312c10.41,0,18.874,7.334,18.874,16.351V165.899z"/>
<path fill="#5E686C" d="M415.754,476.794H282.059c-2.438-9.45-9.893-16.909-19.342-19.351v-30.032c0-3.719-3.01-6.729-6.729-6.729
	c-3.719,0-6.729,3.011-6.729,6.729v30.032c-9.449,2.44-16.905,9.899-19.342,19.351H96.229c-3.719,0-6.729,3.009-6.729,6.73
	c0,3.719,3.009,6.729,6.729,6.729h133.696c3.001,11.589,13.55,20.176,26.062,20.176c12.513,0,23.062-8.587,26.063-20.176h133.702
	c3.72,0,6.729-3.01,6.729-6.729C422.483,479.804,419.474,476.794,415.754,476.794z M255.988,496.97
	c-7.426,0-13.459-6.032-13.459-13.46c0-7.426,6.033-13.459,13.459-13.459c7.428,0,13.459,6.033,13.459,13.459
	C269.447,490.938,263.415,496.97,255.988,496.97z"/>
</svg>
