<?xml version="1.0" encoding="utf-8"?>
<!-- Generator: Adobe Illustrator 16.0.0, SVG Export Plug-In . SVG Version: 6.00 Build 0)  -->
<!DOCTYPE svg PUBLIC "-//W3C//DTD SVG 1.1//EN" "http://www.w3.org/Graphics/SVG/1.1/DTD/svg11.dtd">
<svg version="1.1" id="Layer_1" xmlns="http://www.w3.org/2000/svg" xmlns:xlink="http://www.w3.org/1999/xlink" x="0px" y="0px"
	 width="512px" height="512px" viewBox="0 0 512 512" enable-background="new 0 0 512 512" xml:space="preserve">
<path fill="#5E686C" d="M409.93,505.06H105.272c-3.56,0-6.507-2.776-6.725-6.329L73.151,79.812
	c-0.224-3.718,2.605-6.909,6.316-7.132c3.698-0.158,6.909,2.605,7.132,6.316l25.016,412.589h291.973l25.016-412.589
	c0.229-3.711,3.507-6.488,7.131-6.316c3.712,0.224,6.541,3.415,6.317,7.132L416.655,498.73
	C416.437,502.283,413.49,505.06,409.93,505.06z"/>
<path fill="#5E686C" d="M187.772,368.041c-3.296,0-6.178-2.421-6.665-5.776l-19.042-132.189c-0.526-3.685,2.027-7.1,5.711-7.632
	c3.685-0.566,7.093,2.033,7.632,5.711l19.041,132.189c0.526,3.686-2.026,7.099-5.711,7.632
	C188.417,368.021,188.088,368.041,187.772,368.041z"/>
<path fill="#5E686C" d="M333.772,368.041c-0.315,0-0.639-0.021-0.967-0.066c-3.685-0.533-6.237-3.946-5.712-7.632l19.042-132.189
	c0.539-3.678,3.895-6.211,7.632-5.711c3.685,0.533,6.237,3.948,5.712,7.632l-19.042,132.189
	C339.949,365.62,337.068,368.041,333.772,368.041z"/>
<path fill="#5E686C" d="M260.97,368.041c-3.725,0-6.738-3.014-6.738-6.737V229.115c0-3.725,3.014-6.737,6.738-6.737
	c3.724,0,6.737,3.013,6.737,6.737v132.189C267.707,365.027,264.694,368.041,260.97,368.041z"/>
<path fill="#69C299" d="M473.593,86.142H41.792c-3.724,0-6.737-3.014-6.737-6.738s3.013-6.737,6.737-6.737h431.801
	c3.724,0,6.737,3.013,6.737,6.737S477.317,86.142,473.593,86.142z"/>
<path fill="#69C299" d="M346.463,86.142c-3.724,0-6.736-3.014-6.736-6.738V22.669H188.174v56.735c0,3.724-3.014,6.738-6.737,6.738
	c-3.724,0-6.737-3.014-6.737-6.738V15.931c0-3.724,3.013-6.737,6.737-6.737h165.027c3.724,0,6.738,3.013,6.738,6.737v63.473
	C353.201,83.128,350.187,86.142,346.463,86.142z"/>
</svg>
