<?xml version="1.0" encoding="utf-8"?>
<!-- Generator: Adobe Illustrator 16.0.0, SVG Export Plug-In . SVG Version: 6.00 Build 0)  -->
<!DOCTYPE svg PUBLIC "-//W3C//DTD SVG 1.1//EN" "http://www.w3.org/Graphics/SVG/1.1/DTD/svg11.dtd">
<svg version="1.1" id="Layer_1" xmlns="http://www.w3.org/2000/svg" xmlns:xlink="http://www.w3.org/1999/xlink" x="0px" y="0px"
	 width="512px" height="512px" viewBox="0 0 512 512" enable-background="new 0 0 512 512" xml:space="preserve">
<path fill="#5E686C" d="M343.889,422.109c-2.448,0-4.828-1.286-6.113-3.583l-70.718-126.128c-1.894-3.365-0.689-7.632,2.681-9.533
	c3.399-1.888,7.646-0.684,9.534,2.694l70.729,126.128c1.887,3.364,0.684,7.632-2.694,9.532
	C346.227,421.822,345.051,422.109,343.889,422.109z M163.121,420.141c-1.189,0-2.4-0.301-3.501-0.944
	c-3.351-1.942-4.493-6.223-2.551-9.573l73.287-126.484c1.936-3.365,6.217-4.499,9.567-2.544c3.351,1.942,4.493,6.223,2.551,9.574
	l-73.288,126.483C167.887,418.895,165.535,420.141,163.121,420.141z M431.365,265.646H291.424c-3.87,0-7.003-3.132-7.003-7.004
	c0-3.87,3.133-7.001,7.003-7.001h139.941c3.871,0,7.003,3.132,7.003,7.001C438.368,262.515,435.237,265.646,431.365,265.646z
	 M222.034,265.646H80.882c-3.871,0-7.002-3.132-7.002-7.004c0-3.87,3.132-7.001,7.002-7.001h141.152
	c3.871,0,7.002,3.132,7.002,7.001C229.037,262.515,225.905,265.646,222.034,265.646z M239.349,235.7
	c-2.448,0-4.828-1.286-6.113-3.576l-70.99-126.566c-1.895-3.371-0.691-7.638,2.681-9.532c3.351-1.881,7.639-0.691,9.533,2.681
	l70.99,126.566c1.894,3.371,0.69,7.638-2.681,9.533C241.688,235.414,240.512,235.7,239.349,235.7z M270.956,234.045
	c-1.189,0-2.399-0.301-3.501-0.944c-3.351-1.942-4.493-6.223-2.551-9.567l72.487-125.089c1.942-3.372,6.237-4.479,9.574-2.551
	c3.337,1.942,4.485,6.223,2.544,9.567l-72.488,125.089C275.723,232.794,273.371,234.045,270.956,234.045z"/>
<path fill="#5E686C" d="M138.366,420.141c-2.428,0-4.787-1.259-6.08-3.516L60.004,290.552c-1.928-3.364-0.766-7.646,2.592-9.561
	c3.331-1.915,7.631-0.767,9.553,2.585l72.283,126.073c1.928,3.365,0.766,7.646-2.592,9.561
	C140.746,419.84,139.549,420.141,138.366,420.141z"/>
<path fill="#5E686C" d="M326.855,445.06H185.401c-3.871,0-7.002-3.132-7.002-7.002c0-3.871,3.132-7.003,7.002-7.003h141.454
	c3.87,0,6.995,3.132,6.995,7.003C333.85,441.928,330.725,445.06,326.855,445.06z"/>
<path fill="#5E686C" d="M373.896,420.141c-1.189,0-2.38-0.301-3.487-0.931c-3.352-1.915-4.514-6.195-2.586-9.561l72.297-126.101
	c1.914-3.379,6.196-4.499,9.56-2.585c3.352,1.915,4.514,6.195,2.585,9.561l-72.296,126.101
	C378.682,418.882,376.317,420.141,373.896,420.141z"/>
<path fill="#5E686C" d="M446.123,237.13c-2.421,0-4.787-1.272-6.072-3.529l-72.214-125.95c-1.929-3.351-0.767-7.631,2.585-9.553
	c3.337-1.929,7.632-0.78,9.561,2.592l72.213,125.95c1.929,3.351,0.766,7.631-2.584,9.56
	C448.503,236.829,447.314,237.13,446.123,237.13z"/>
<path fill="#5E686C" d="M326.874,86.212H185.387c-3.871,0-7.003-3.132-7.003-7.002s3.133-7.002,7.003-7.002h141.487
	c3.871,0,7.003,3.132,7.003,7.002S330.745,86.212,326.874,86.212z"/>
<path fill="#5E686C" d="M66.056,237.253c-1.183,0-2.38-0.301-3.474-0.93c-3.358-1.929-4.521-6.209-2.592-9.56l72.31-126.129
	c1.915-3.364,6.202-4.52,9.553-2.591c3.357,1.921,4.52,6.202,2.591,9.553l-72.31,126.128
	C70.843,235.98,68.484,237.253,66.056,237.253z"/>
<path fill="#5E686C" d="M151.455,114.03c-23.162,0-42.009-18.846-42.009-42.015c0-23.169,18.847-42.016,42.009-42.016
	c23.169,0,42.022,18.847,42.022,42.016C193.477,95.184,174.624,114.03,151.455,114.03z M151.455,44.005
	c-15.441,0-28.003,12.562-28.003,28.01c0,15.447,12.562,28.01,28.003,28.01c15.448,0,28.017-12.562,28.017-28.01
	C179.472,56.567,166.903,44.005,151.455,44.005z"/>
<path fill="#5E686C" d="M46.198,300.632c-23.169,0-42.016-18.834-42.016-41.989c0-23.175,18.847-42.035,42.016-42.035
	c23.168,0,42.015,18.86,42.015,42.035C88.213,281.798,69.366,300.632,46.198,300.632z M46.198,230.612
	c-15.448,0-28.01,12.576-28.01,28.03c0,15.428,12.562,27.984,28.01,27.984c15.448,0,28.01-12.557,28.01-27.984
	C74.208,243.188,61.645,230.612,46.198,230.612z"/>
<path fill="#5E686C" d="M151.455,487.239c-23.162,0-42.009-18.848-42.009-42.016c0-23.169,18.847-42.016,42.009-42.016
	c23.169,0,42.022,18.847,42.022,42.016C193.477,468.392,174.624,487.239,151.455,487.239z M151.455,417.214
	c-15.441,0-28.003,12.568-28.003,28.01c0,15.44,12.562,28.011,28.003,28.011c15.448,0,28.017-12.57,28.017-28.011
	C179.472,429.782,166.903,417.214,151.455,417.214z"/>
<path fill="#5E686C" d="M360.793,486.938c-22.991,0-41.687-18.71-41.687-41.715c0-22.991,18.695-41.688,41.687-41.688
	s41.688,18.696,41.688,41.688C402.481,468.229,383.784,486.938,360.793,486.938z M360.793,417.541
	c-15.264,0-27.682,12.42-27.682,27.683c0,15.277,12.418,27.71,27.682,27.71c15.263,0,27.683-12.433,27.683-27.71
	C388.476,429.961,376.056,417.541,360.793,417.541z"/>
<path fill="#69C299" d="M256.726,300.632c-23.169,0-42.015-18.834-42.015-41.989c0-23.175,18.846-42.035,42.015-42.035
	c23.168,0,42.016,18.86,42.016,42.035C298.741,281.798,279.894,300.632,256.726,300.632z M256.726,230.612
	c-15.448,0-28.01,12.576-28.01,28.03c0,15.428,12.562,27.984,28.01,27.984s28.011-12.557,28.011-27.984
	C284.737,243.188,272.174,230.612,256.726,230.612z"/>
<path fill="#69C299" d="M466.05,300.632c-23.154,0-42.001-18.834-42.001-41.989c0-23.175,18.847-42.035,42.001-42.035
	c23.169,0,42.029,18.86,42.029,42.035C508.079,281.798,489.219,300.632,466.05,300.632z M466.05,230.612
	c-15.44,0-27.996,12.576-27.996,28.03c0,15.428,12.556,27.984,27.996,27.984c15.456,0,28.024-12.557,28.024-27.984
	C494.074,243.188,481.506,230.612,466.05,230.612z"/>
<path fill="#69C299" d="M360.793,114.03c-23.168,0-42.016-18.846-42.016-42.015c0-23.169,18.848-42.016,42.016-42.016
	c23.169,0,42.016,18.847,42.016,42.016C402.809,95.184,383.962,114.03,360.793,114.03z M360.793,44.005
	c-15.44,0-28.011,12.562-28.011,28.01c0,15.447,12.57,28.01,28.011,28.01c15.441,0,28.01-12.562,28.01-28.01
	C388.803,56.567,376.235,44.005,360.793,44.005z"/>
</svg>
