<?xml version="1.0" encoding="utf-8"?>
<!-- Generator: Adobe Illustrator 16.0.0, SVG Export Plug-In . SVG Version: 6.00 Build 0)  -->
<!DOCTYPE svg PUBLIC "-//W3C//DTD SVG 1.1//EN" "http://www.w3.org/Graphics/SVG/1.1/DTD/svg11.dtd">
<svg version="1.1" id="Layer_1" xmlns="http://www.w3.org/2000/svg" xmlns:xlink="http://www.w3.org/1999/xlink" x="0px" y="0px"
	 width="512px" height="512px" viewBox="0 0 512 512" enable-background="new 0 0 512 512" xml:space="preserve">
<path fill="#5E686C" d="M305.917,399.517H11.885c-3.741,0-6.768-3.026-6.768-6.767V83.571c0-3.74,3.027-6.767,6.768-6.767h294.032
	c3.74,0,6.767,3.027,6.767,6.767c0,3.741-3.026,6.767-6.767,6.767H18.652v295.645h287.266c3.74,0,6.767,3.027,6.767,6.767
	C312.684,396.49,309.657,399.517,305.917,399.517z"/>
<path fill="#5E686C" d="M305.917,306.498H13.174c-3.741,0-6.767-3.026-6.767-6.767c0-3.741,3.026-6.768,6.767-6.768h292.744
	c3.74,0,6.767,3.026,6.767,6.768C312.684,303.472,309.657,306.498,305.917,306.498z"/>
<path fill="#5E686C" d="M214.206,455.701c-3.74,0-6.767-3.026-6.767-6.767V392.75c0-3.739,3.027-6.767,6.767-6.767
	c3.741,0,6.767,3.027,6.767,6.767v56.185C220.973,452.675,217.947,455.701,214.206,455.701z"/>
<path fill="#5E686C" d="M305.917,455.701H115.26c-3.741,0-6.767-3.026-6.767-6.767s3.026-6.767,6.767-6.767h190.658
	c3.74,0,6.767,3.026,6.767,6.767S309.657,455.701,305.917,455.701z"/>
<path fill="#69C299" d="M472.078,505H333.277c-18.821,0-34.127-12.503-34.127-27.874V34.775c0-15.371,15.306-27.874,34.127-27.874
	h138.802c18.82,0,34.139,12.503,34.139,27.874v442.351C506.217,492.497,490.899,505,472.078,505z M333.277,20.436
	c-11.168,0-20.593,6.568-20.593,14.34v442.351c0,7.771,9.425,14.34,20.593,14.34h138.802c11.168,0,20.604-6.569,20.604-14.34V34.775
	c0-7.771-9.437-14.34-20.604-14.34H333.277z"/>
<path fill="#5E686C" d="M403.047,162.608c-1.745,0-3.503-0.12-5.274-0.344c-22.19-2.868-37.918-23.274-35.05-45.479
	c2.841-21.9,23.155-37.812,45.466-35.038c22.19,2.868,37.919,23.262,35.076,45.466C440.621,147.395,423.334,162.608,403.047,162.608
	z M402.902,94.938c-13.508,0-25.007,10.137-26.751,23.592c-1.917,14.803,8.564,28.403,23.367,30.306
	c15.027,1.943,28.416-8.762,30.32-23.354c1.902-14.803-8.592-28.403-23.395-30.306C405.254,95.017,404.077,94.938,402.902,94.938z"
	/>
</svg>
