<?xml version="1.0" encoding="utf-8"?>
<!-- Generator: Adobe Illustrator 16.0.0, SVG Export Plug-In . SVG Version: 6.00 Build 0)  -->
<!DOCTYPE svg PUBLIC "-//W3C//DTD SVG 1.1//EN" "http://www.w3.org/Graphics/SVG/1.1/DTD/svg11.dtd">
<svg version="1.1" id="Layer_1" xmlns="http://www.w3.org/2000/svg" xmlns:xlink="http://www.w3.org/1999/xlink" x="0px" y="0px"
	 width="512px" height="512px" viewBox="0 0 512 512" enable-background="new 0 0 512 512" xml:space="preserve">
<path fill="#69C299" d="M259.969,396.69c-1.284,0-2.582-0.366-3.723-1.127l-113.764-75.834c-1.868-1.245-2.988-3.342-2.988-5.583
	v-37.904c0-3.709,3.001-6.71,6.711-6.71c3.709,0,6.71,3.001,6.71,6.71v34.313l110.776,73.842c3.08,2.058,3.918,6.226,1.86,9.305
	C264.255,395.643,262.131,396.69,259.969,396.69z"/>
<path fill="#69C299" d="M179.758,278.575h-67.105c-3.709,0-6.71-3.001-6.71-6.71v-67.099c0-3.709,3.001-6.71,6.71-6.71h67.105
	c3.709,0,6.71,3.001,6.71,6.71v67.099C186.468,275.574,183.467,278.575,179.758,278.575z M119.363,265.154h53.684v-53.677h-53.684
	V265.154z"/>
<path fill="#5E686C" d="M316.851,74.384c-1.717,0-3.434-0.655-4.744-1.966L259.969,20.28l-52.138,52.137
	c-2.621,2.622-6.868,2.622-9.489,0c-2.622-2.621-2.622-6.868,0-9.489l56.882-56.882c2.621-2.621,6.867-2.621,9.488,0l56.883,56.882
	c2.621,2.621,2.621,6.868,0,9.489C320.285,73.729,318.568,74.384,316.851,74.384z"/>
<path fill="#5E686C" d="M259.969,434.621c-3.709,0-6.71-3.002-6.71-6.711V10.791c0-3.709,3.001-6.71,6.71-6.71
	s6.711,3.001,6.711,6.71V427.91C266.68,431.619,263.678,434.621,259.969,434.621z"/>
<path fill="#5E686C" d="M259.969,506.104c-22.202,0-40.263-18.061-40.263-40.263s18.061-40.264,40.263-40.264
	s40.263,18.062,40.263,40.264S282.171,506.104,259.969,506.104z M259.969,438.998c-14.797,0-26.842,12.045-26.842,26.843
	c0,14.797,12.045,26.842,26.842,26.842s26.842-12.045,26.842-26.842C286.811,451.043,274.766,438.998,259.969,438.998z"/>
<path fill="#5E686C" d="M259.969,339.809c-2.162,0-4.285-1.048-5.583-2.988c-2.058-3.08-1.219-7.248,1.86-9.306l110.776-73.835
	v-34.326c0-3.709,3.001-6.71,6.71-6.71s6.711,3.001,6.711,6.71v37.917c0,2.24-1.127,4.344-2.988,5.59l-113.764,75.82
	C262.551,339.441,261.253,339.809,259.969,339.809z"/>
<path fill="#5E686C" d="M373.733,221.7c-22.202,0-40.263-18.061-40.263-40.263c0-22.202,18.061-40.263,40.263-40.263
	c22.203,0,40.264,18.061,40.264,40.263C413.996,203.64,395.936,221.7,373.733,221.7z M373.733,154.595
	c-14.797,0-26.842,12.038-26.842,26.842s12.045,26.842,26.842,26.842c14.798,0,26.843-12.039,26.843-26.842
	S388.531,154.595,373.733,154.595z"/>
</svg>
