<?xml version="1.0" encoding="utf-8"?>
<!-- Generator: Adobe Illustrator 16.0.0, SVG Export Plug-In . SVG Version: 6.00 Build 0)  -->
<!DOCTYPE svg PUBLIC "-//W3C//DTD SVG 1.1//EN" "http://www.w3.org/Graphics/SVG/1.1/DTD/svg11.dtd">
<svg version="1.1" id="Layer_1" xmlns="http://www.w3.org/2000/svg" xmlns:xlink="http://www.w3.org/1999/xlink" x="0px" y="0px"
	 width="512px" height="512px" viewBox="0 0 512 512" enable-background="new 0 0 512 512" xml:space="preserve">
<path fill="#5E686C" d="M445.444,506.457c-33.393,0-60.557-27.164-60.557-60.557s27.164-60.557,60.557-60.557S506,412.508,506,445.9
	S478.836,506.457,445.444,506.457z M445.444,398.801c-25.968,0-47.1,21.133-47.1,47.1c0,25.969,21.132,47.1,47.1,47.1
	s47.1-21.131,47.1-47.1C492.543,419.934,471.411,398.801,445.444,398.801z"/>
<path fill="#5E686C" d="M64.18,506.457c-33.393,0-60.557-27.164-60.557-60.557s27.164-60.557,60.557-60.557
	s60.557,27.164,60.557,60.557S97.573,506.457,64.18,506.457z M64.18,398.801c-25.968,0-47.1,21.133-47.1,47.1
	c0,25.969,21.132,47.1,47.1,47.1s47.1-21.131,47.1-47.1C111.28,419.934,90.148,398.801,64.18,398.801z"/>
<path fill="#5E686C" d="M254.812,452.629c-33.393,0-60.557-27.164-60.557-60.557s27.164-60.557,60.557-60.557
	s60.557,27.164,60.557,60.557S288.204,452.629,254.812,452.629z M254.812,344.973c-25.968,0-47.1,21.133-47.1,47.1
	c0,25.969,21.132,47.1,47.1,47.1s47.1-21.131,47.1-47.1C301.911,366.105,280.78,344.973,254.812,344.973z"/>
<path fill="#5E686C" d="M254.812,344.973c-3.719,0-6.729-3.008-6.729-6.729V168.219c0-3.719,3.01-6.729,6.729-6.729
	s6.729,3.009,6.729,6.729v170.025C261.54,341.965,258.531,344.973,254.812,344.973z"/>
<path fill="#5E686C" d="M445.444,261.42H64.18c-3.719,0-6.729-3.01-6.729-6.729c0-3.719,3.009-6.729,6.729-6.729h381.264
	c3.72,0,6.729,3.01,6.729,6.729C452.172,258.41,449.163,261.42,445.444,261.42z"/>
<path fill="#5E686C" d="M445.444,398.801c-3.719,0-6.729-3.008-6.729-6.729V254.691c0-3.719,3.01-6.729,6.729-6.729
	c3.72,0,6.729,3.01,6.729,6.729v137.381C452.172,395.793,449.163,398.801,445.444,398.801z"/>
<path fill="#5E686C" d="M64.18,398.801c-3.719,0-6.729-3.008-6.729-6.729V254.691c0-3.719,3.009-6.729,6.729-6.729
	c3.719,0,6.729,3.01,6.729,6.729v137.381C70.908,395.793,67.899,398.801,64.18,398.801z"/>
<path fill="#69C299" d="M254.812,174.948c-48.229,0-87.471-39.241-87.471-87.471S206.582,0,254.812,0s87.471,39.248,87.471,87.477
	S303.041,174.948,254.812,174.948z M254.812,13.457c-40.805,0-74.014,33.202-74.014,74.02c0,40.805,33.209,74.014,74.014,74.014
	s74.014-33.209,74.014-74.014C328.825,46.659,295.616,13.457,254.812,13.457z"/>
</svg>
