<?xml version="1.0" encoding="utf-8"?>
<!-- Generator: Adobe Illustrator 16.0.0, SVG Export Plug-In . SVG Version: 6.00 Build 0)  -->
<!DOCTYPE svg PUBLIC "-//W3C//DTD SVG 1.1//EN" "http://www.w3.org/Graphics/SVG/1.1/DTD/svg11.dtd">
<svg version="1.1" id="Layer_1" xmlns="http://www.w3.org/2000/svg" xmlns:xlink="http://www.w3.org/1999/xlink" x="0px" y="0px"
	 width="512px" height="512px" viewBox="0 0 512 512" enable-background="new 0 0 512 512" xml:space="preserve">
<path fill="#5E686C" d="M501.412,176.181H343.427c-3.788,0-6.853-3.065-6.853-6.854c0-3.787,3.064-6.853,6.853-6.853h157.985
	c3.788,0,6.853,3.065,6.853,6.853C508.265,173.115,505.2,176.181,501.412,176.181z"/>
<path fill="#69C299" d="M343.427,176.181H167.882c-3.788,0-6.853-3.065-6.853-6.854c0-3.787,3.064-6.853,6.853-6.853h175.545
	c3.788,0,6.853,3.065,6.853,6.853C350.28,173.115,347.215,176.181,343.427,176.181z"/>
<path fill="#5E686C" d="M167.882,176.181H9.896c-3.788,0-6.853-3.065-6.853-6.854c0-3.787,3.065-6.853,6.853-6.853h157.986
	c3.788,0,6.853,3.065,6.853,6.853C174.734,173.115,171.669,176.181,167.882,176.181z"/>
<path fill="#5E686C" d="M167.882,176.181c-2.503,0-4.925-1.385-6.13-3.788L91.539,31.954c-1.693-3.386-0.321-7.501,3.065-9.195
	c3.386-1.68,7.488-0.321,9.194,3.065l70.213,140.439c1.686,3.386,0.321,7.502-3.065,9.195
	C169.956,175.946,168.912,176.181,167.882,176.181z"/>
<path fill="#5E686C" d="M343.427,176.181c-1.03,0-2.075-0.234-3.065-0.723c-3.386-1.693-4.752-5.809-3.064-9.195L407.51,25.824
	c1.699-3.393,5.822-4.718,9.194-3.065c3.387,1.693,4.752,5.809,3.065,9.195l-70.213,140.439
	C348.352,174.795,345.929,176.181,343.427,176.181z"/>
<path fill="#5E686C" d="M255.654,492.15c-2.115,0-4.109-0.976-5.407-2.643L4.489,173.537c-1.767-2.275-1.928-5.401-0.402-7.843
	L91.86,25.255c1.251-2.001,3.447-3.219,5.809-3.219H413.64c2.368,0,4.563,1.218,5.809,3.219l87.772,140.439
	c1.526,2.442,1.365,5.568-0.401,7.843L261.061,489.508C259.763,491.175,257.769,492.15,255.654,492.15z M18.248,168.899
	l237.406,305.237l237.407-305.237L409.839,35.742h-308.37L18.248,168.899z"/>
<path fill="#69C299" d="M255.654,492.15c-0.602,0-1.218-0.079-1.833-0.246c-3.64-1.018-5.782-4.793-4.765-8.44l86.957-313.065
	L249.845,32.522c-2.007-3.212-1.031-7.442,2.182-9.442c3.186-2.001,7.428-1.03,9.436,2.175l87.772,140.439
	c1.018,1.633,1.312,3.614,0.79,5.467l-87.773,315.972C261.409,490.164,258.665,492.15,255.654,492.15z"/>
<path fill="#69C299" d="M255.654,492.15c-3.011,0-5.755-1.986-6.599-5.018l-87.772-315.972c-0.522-1.854-0.228-3.834,0.79-5.467
	l87.772-140.439c2.021-3.205,6.264-4.176,9.435-2.175c3.213,2,4.189,6.23,2.183,9.442l-86.167,137.876l86.956,313.065
	c1.018,3.647-1.124,7.423-4.765,8.44C256.871,492.071,256.256,492.15,255.654,492.15z"/>
</svg>
