<?xml version="1.0" encoding="utf-8"?>
<!-- Generator: Adobe Illustrator 16.0.0, SVG Export Plug-In . SVG Version: 6.00 Build 0)  -->
<!DOCTYPE svg PUBLIC "-//W3C//DTD SVG 1.1//EN" "http://www.w3.org/Graphics/SVG/1.1/DTD/svg11.dtd">
<svg version="1.1" id="Layer_1" xmlns="http://www.w3.org/2000/svg" xmlns:xlink="http://www.w3.org/1999/xlink" x="0px" y="0px"
	 width="512px" height="512px" viewBox="0 0 512 512" enable-background="new 0 0 512 512" xml:space="preserve">
<path fill="#5E686C" d="M249.159,509.592c-3.788,0-6.852-3.064-6.852-6.852V238.565c0-3.788,3.064-6.853,6.852-6.853
	s6.853,3.065,6.853,6.853V502.74C256.012,506.527,252.947,509.592,249.159,509.592z"/>
<path fill="#5E686C" d="M249.159,107.588c-3.788,0-6.852-3.064-6.852-6.852V8.852c0-3.788,3.064-6.852,6.852-6.852
	s6.853,3.064,6.853,6.852v91.884C256.012,104.523,252.947,107.588,249.159,107.588z"/>
<path fill="#5E686C" d="M283.428,509.592h-68.523c-3.788,0-6.853-3.064-6.853-6.852c0-3.788,3.065-6.853,6.853-6.853h68.523
	c3.787,0,6.853,3.064,6.853,6.853C290.281,506.527,287.215,509.592,283.428,509.592z"/>
<path fill="#69C299" d="M398.478,245.417H53.902c-3.788,0-6.852-3.065-6.852-6.852V100.736c0-3.788,3.064-6.852,6.852-6.852h344.576
	c2.034,0,3.962,0.903,5.267,2.462l57.428,68.918c2.115,2.542,2.115,6.236,0,8.779l-57.428,68.911
	C402.44,244.514,400.512,245.417,398.478,245.417z M60.755,231.712h334.511l51.721-62.059l-51.721-62.065H60.755V231.712z"/>
</svg>
