<?xml version="1.0" encoding="utf-8"?>
<!-- Generator: Adobe Illustrator 16.0.0, SVG Export Plug-In . SVG Version: 6.00 Build 0)  -->
<!DOCTYPE svg PUBLIC "-//W3C//DTD SVG 1.1//EN" "http://www.w3.org/Graphics/SVG/1.1/DTD/svg11.dtd">
<svg version="1.1" id="Layer_1" xmlns="http://www.w3.org/2000/svg" xmlns:xlink="http://www.w3.org/1999/xlink" x="0px" y="0px"
	 width="512px" height="512px" viewBox="0 0 512 512" enable-background="new 0 0 512 512" xml:space="preserve">
<path fill="#5E686C" d="M259.823,506.042c-3.662,0-6.628-2.965-6.628-6.629V366.838c0-3.664,2.966-6.629,6.628-6.629
	c3.664,0,6.63,2.965,6.63,6.629v132.575C266.451,503.077,263.487,506.042,259.823,506.042z"/>
<path fill="#5E686C" d="M259.823,49.368c-3.662,0-6.628-2.965-6.628-6.628V16.225c0-3.664,2.966-6.629,6.628-6.629
	c3.664,0,6.63,2.965,6.63,6.629V42.74C266.451,46.403,263.487,49.368,259.823,49.368z"/>
<path fill="#69C299" d="M326.369,193.583H115.757c-6.163,0-14.209-3.146-18.721-7.315l-53.432-41.857
	c-3.341-3.062-5.017-6.868-5.011-10.785c0-3.917,1.683-7.704,4.609-10.403L97.45,80.661c4.109-3.819,12.156-6.953,18.307-6.953
	h210.612c8.183,0,14.838,6.609,14.838,14.733v90.408C341.207,186.974,334.552,193.583,326.369,193.583z M115.757,86.966
	c-2.835,0-7.651,1.877-9.723,3.787l-54.247,42.562l53.846,42.867c2.479,2.266,7.289,4.143,10.125,4.143H326.37
	c0.842,0,1.58-0.693,1.58-1.476V88.442c0-0.803-0.727-1.476-1.58-1.476H115.757z"/>
<path fill="#5E686C" d="M401.125,330.651H190.512c-8.195,0-14.863-6.616-14.863-14.733V225.51c0-8.118,6.667-14.734,14.863-14.734
	h210.613c6.148,0,14.188,3.146,18.707,7.315l53.433,41.857c3.34,3.056,5.021,6.862,5.021,10.784c0,3.924-1.694,7.717-4.635,10.41
	l-54.221,42.557C415.301,327.519,407.262,330.651,401.125,330.651z M190.512,224.034c-0.854,0-1.604,0.686-1.604,1.476v90.408
	c0,0.803,0.737,1.476,1.604,1.476h210.613c2.821,0,7.65-1.877,9.734-3.793l54.222-42.557l-53.833-42.867
	c-2.485-2.266-7.302-4.143-10.124-4.143H190.512z"/>
</svg>
