<?xml version="1.0" encoding="utf-8"?>
<!-- Generator: Adobe Illustrator 16.0.0, SVG Export Plug-In . SVG Version: 6.00 Build 0)  -->
<!DOCTYPE svg PUBLIC "-//W3C//DTD SVG 1.1//EN" "http://www.w3.org/Graphics/SVG/1.1/DTD/svg11.dtd">
<svg version="1.1" id="Layer_1" xmlns="http://www.w3.org/2000/svg" xmlns:xlink="http://www.w3.org/1999/xlink" x="0px" y="0px"
	 width="512px" height="512px" viewBox="0 0 512 512" enable-background="new 0 0 512 512" xml:space="preserve">
<path fill="#5E686C" d="M351.991,111.63c-30.309,0-54.953-24.646-54.953-54.939c0-30.307,24.646-54.966,54.953-54.966
	c30.307,0,54.951,24.659,54.951,54.966C406.944,86.985,382.298,111.63,351.991,111.63z M351.991,15.463
	c-22.729,0-41.216,18.494-41.216,41.228c0,22.72,18.487,41.201,41.216,41.201c22.727,0,41.215-18.481,41.215-41.201
	C393.206,33.957,374.718,15.463,351.991,15.463z"/>
<path fill="#69C299" d="M219.68,510.106c-76.741,0-139.18-62.439-139.18-139.182c0-76.739,62.438-139.18,139.18-139.18
	c3.797,0,6.869,3.072,6.869,6.869c0,3.797-3.072,6.869-6.869,6.869c-69.174,0-125.442,56.268-125.442,125.441
	c0,69.175,56.269,125.442,125.442,125.442c69.175,0,125.442-56.269,125.442-125.442c0-3.796,3.071-6.869,6.869-6.869
	c3.797,0,6.868,3.073,6.868,6.869C358.861,447.667,296.421,510.106,219.68,510.106z"/>
<path fill="#5E686C" d="M401.645,493.564c-0.456,0-0.899-0.041-1.355-0.136c-3.729-0.736-6.13-4.359-5.393-8.076l31.42-157.172
	H252.765c-2.281,0-4.414-1.127-5.688-3.019c-1.274-1.893-1.53-4.279-0.686-6.399l62.332-155.823l-103.506,1.57l-98.274,63.338
	c-3.167,2.026-7.433,1.141-9.484-2.053c-2.066-3.193-1.142-7.439,2.053-9.499l99.924-64.398c1.073-0.691,2.334-1.073,3.609-1.094
	l115.782-1.757c2.199,0.141,4.453,1.08,5.769,2.979c1.302,1.892,1.57,4.307,0.711,6.44l-62.397,155.978h171.78
	c2.053,0,4.012,0.926,5.312,2.51c1.302,1.596,1.824,3.688,1.423,5.701l-33.059,165.383
	C407.709,491.311,404.851,493.564,401.645,493.564z"/>
</svg>
