<?xml version="1.0" encoding="utf-8"?>
<!-- Generator: Adobe Illustrator 16.0.0, SVG Export Plug-In . SVG Version: 6.00 Build 0)  -->
<!DOCTYPE svg PUBLIC "-//W3C//DTD SVG 1.1//EN" "http://www.w3.org/Graphics/SVG/1.1/DTD/svg11.dtd">
<svg version="1.1" id="Layer_1" xmlns="http://www.w3.org/2000/svg" xmlns:xlink="http://www.w3.org/1999/xlink" x="0px" y="0px"
	 width="512px" height="512px" viewBox="0 0 512 512" enable-background="new 0 0 512 512" xml:space="preserve">
<path fill="#69C299" d="M357.123,135.691H70.045c-3.777,0-6.833-3.056-6.833-6.833V10.833C63.212,7.057,66.268,4,70.045,4
	s6.833,3.057,6.833,6.833v111.192h273.412V10.833c0-3.776,3.057-6.833,6.834-6.833c3.776,0,6.833,3.057,6.833,6.833v118.025
	C363.956,132.635,360.9,135.691,357.123,135.691z"/>
<path fill="#69C299" d="M328.042,376.52H123.048c-3.777,0-6.833-3.057-6.833-6.833c0-3.777,3.056-6.834,6.833-6.834h204.994
	c3.776,0,6.833,3.057,6.833,6.834C334.875,373.463,331.819,376.52,328.042,376.52z"/>
<path fill="#69C299" d="M328.042,436.329H123.048c-3.777,0-6.833-3.057-6.833-6.833c0-3.777,3.056-6.833,6.833-6.833h204.994
	c3.776,0,6.833,3.056,6.833,6.833C334.875,433.272,331.819,436.329,328.042,436.329z"/>
<g>
	<defs>
		<path id="SVGID_1_" d="M500.672,508.097H10.235c-3.777,0-6.833-3.056-6.833-6.833V10.833C3.402,7.057,6.458,4,10.235,4h377.771
			c1.842,0,3.617,0.748,4.911,2.075l112.667,116.157c1.228,1.274,1.922,2.983,1.922,4.758v374.274
			C507.505,505.041,504.449,508.097,500.672,508.097z M17.068,494.431h476.771V129.759L385.11,17.667H17.068V494.431z"/>
	</defs>
	<use xlink:href="#SVGID_1_"  overflow="visible" fill="#5E686C"/>
	<clipPath id="SVGID_2_">
		<use xlink:href="#SVGID_1_"  overflow="visible"/>
	</clipPath>
	<path clip-path="url(#SVGID_2_)" fill="#5E686C" d="M500.672,508.097H10.235c-3.777,0-6.833-3.056-6.833-6.833V10.833
		C3.402,7.057,6.458,4,10.235,4h377.771c1.842,0,3.617,0.748,4.911,2.075l112.667,116.157c1.228,1.274,1.922,2.983,1.922,4.758
		v374.274C507.505,505.041,504.449,508.097,500.672,508.097z M17.068,494.431h476.771V129.759L385.11,17.667H17.068V494.431z"/>
</g>
</svg>
