<?xml version="1.0" encoding="utf-8"?>
<!-- Generator: Adobe Illustrator 16.0.0, SVG Export Plug-In . SVG Version: 6.00 Build 0)  -->
<!DOCTYPE svg PUBLIC "-//W3C//DTD SVG 1.1//EN" "http://www.w3.org/Graphics/SVG/1.1/DTD/svg11.dtd">
<svg version="1.1" id="Layer_1" xmlns="http://www.w3.org/2000/svg" xmlns:xlink="http://www.w3.org/1999/xlink" x="0px" y="0px"
	 width="512px" height="512px" viewBox="0 0 512 512" enable-background="new 0 0 512 512" xml:space="preserve">
<path fill="#5E686C" d="M501.815,82.137H10.186c-3.752,0-6.789,3.036-6.789,6.789v304.332c0,3.752,3.037,6.789,6.789,6.789h239.025
	v27.156h-27.157c-3.753,0-6.789,3.037-6.789,6.789c0,3.753,3.036,6.789,6.789,6.789h67.891c3.753,0,6.789-3.036,6.789-6.789
	c0-3.752-3.036-6.789-6.789-6.789H262.79v-27.156h239.023c3.752,0,6.79-3.037,6.79-6.789V88.925
	C508.604,85.172,505.567,82.137,501.815,82.137z M495.026,386.468H16.975V95.714h478.051V386.468z"/>
<path fill="#69C299" d="M217.506,287.945c1.048,0.596,2.215,0.9,3.382,0.9c1.179,0,2.366-0.305,3.421-0.93l70.227-40.96
	c2.082-1.207,3.366-3.447,3.366-5.86c0-2.413-1.284-4.641-3.366-5.86l-70.227-40.974c-2.089-1.233-4.688-1.219-6.803-0.026
	c-2.108,1.206-3.407,3.461-3.407,5.888v81.935C214.099,284.484,215.398,286.739,217.506,287.945z M227.677,211.952l49.964,29.146
	l-49.964,29.146V211.952L227.677,211.952z"/>
</svg>
