<?xml version="1.0" encoding="utf-8"?>
<!-- Generator: Adobe Illustrator 16.0.0, SVG Export Plug-In . SVG Version: 6.00 Build 0)  -->
<!DOCTYPE svg PUBLIC "-//W3C//DTD SVG 1.1//EN" "http://www.w3.org/Graphics/SVG/1.1/DTD/svg11.dtd">
<svg version="1.1" id="Layer_1" xmlns="http://www.w3.org/2000/svg" xmlns:xlink="http://www.w3.org/1999/xlink" x="0px" y="0px"
	 width="512px" height="512px" viewBox="0 0 512 512" enable-background="new 0 0 512 512" xml:space="preserve">
<path fill="#5E686C" d="M255.51,420.961c-64.725,0-117.388-52.656-117.388-117.381c0-3.798,3.072-6.87,6.87-6.87
	s6.87,3.072,6.87,6.87c0,57.15,46.498,103.641,103.648,103.641c57.15,0,103.648-46.49,103.648-103.641
	c0-3.798,3.072-6.87,6.869-6.87s6.87,3.072,6.87,6.87C372.898,368.305,320.235,420.961,255.51,420.961z"/>
<path fill="#5E686C" d="M501.099,506.918H9.921c-3.797,0-6.87-3.072-6.87-6.869V303.58c0-3.798,3.072-6.87,6.87-6.87
	c3.797,0,6.87,3.072,6.87,6.87v189.599H494.23V303.58c0-3.798,3.072-6.87,6.869-6.87c3.798,0,6.87,3.072,6.87,6.87v196.469
	C507.969,503.846,504.897,506.918,501.099,506.918z"/>
<path fill="#69C299" d="M501.099,310.449H9.921c-3.797,0-6.87-3.072-6.87-6.869V107.104c0-3.797,3.072-6.87,6.87-6.87h135.071
	c3.797,0,6.87,3.073,6.87,6.87c0,57.151,46.498,103.648,103.648,103.648c57.15,0,103.648-46.498,103.648-103.648
	c0-3.797,3.072-6.87,6.869-6.87h135.071c3.798,0,6.87,3.073,6.87,6.87V303.58C507.969,307.377,504.897,310.449,501.099,310.449z
	 M16.79,296.71H494.23V113.974H372.696c-3.568,61.538-54.762,110.518-117.186,110.518s-113.617-48.98-117.187-110.518H16.79V296.71z
	"/>
<path fill="#69C299" d="M501.099,113.974c-2.777,0-5.394-1.697-6.427-4.455l-35.18-93.78H51.528l-35.174,93.78
	c-1.328,3.556-5.3,5.333-8.849,4.019c-3.549-1.335-5.347-5.293-4.018-8.849L40.331,6.455C41.337,3.778,43.9,2,46.764,2h417.491
	c2.858,0,5.421,1.778,6.427,4.455l36.844,98.234c1.342,3.556-0.456,7.514-4.012,8.849
	C502.723,113.833,501.905,113.974,501.099,113.974z"/>
</svg>
