<?xml version="1.0" encoding="utf-8"?>
<!-- Generator: Adobe Illustrator 16.0.0, SVG Export Plug-In . SVG Version: 6.00 Build 0)  -->
<!DOCTYPE svg PUBLIC "-//W3C//DTD SVG 1.1//EN" "http://www.w3.org/Graphics/SVG/1.1/DTD/svg11.dtd">
<svg version="1.1" id="Layer_1" xmlns="http://www.w3.org/2000/svg" xmlns:xlink="http://www.w3.org/1999/xlink" x="0px" y="0px"
	 width="512px" height="512px" viewBox="0 0 512 512" enable-background="new 0 0 512 512" xml:space="preserve">
<path fill="#69C299" d="M168.121,354.997c-22.854,0-41.444,18.588-41.444,41.442c0,22.854,18.59,41.441,41.444,41.441
	c22.853,0,41.441-18.589,41.441-41.441C209.563,373.586,190.974,354.997,168.121,354.997z M168.121,424.068
	c-15.238,0-27.629-12.398-27.629-27.629c0-15.231,12.391-27.63,27.629-27.63c15.235,0,27.628,12.397,27.628,27.63
	C195.749,411.671,183.358,424.068,168.121,424.068z"/>
<path fill="#69C299" d="M361.24,370.874H264.54c-3.817,0-6.907,3.089-6.907,6.907c0,3.815,3.09,6.906,6.907,6.906h96.699
	c3.817,0,6.907-3.09,6.907-6.906C368.147,373.963,365.057,370.874,361.24,370.874z"/>
<path fill="#69C299" d="M361.24,425.754H264.54c-3.817,0-6.907,3.089-6.907,6.907c0,3.815,3.09,6.907,6.907,6.907h96.699
	c3.817,0,6.907-3.09,6.907-6.907C368.147,428.843,365.057,425.754,361.24,425.754z"/>
<path fill="#5E686C" d="M446.87,123.401c0-2.543-1.376-4.758-3.421-5.957L330.94,4.925c-0.174-0.176-0.356-0.342-0.549-0.499
	c-0.01-0.008-0.021-0.015-0.031-0.023c-0.165-0.133-0.336-0.26-0.514-0.378c-0.048-0.032-0.098-0.058-0.146-0.088
	c-0.144-0.089-0.285-0.178-0.436-0.257c-0.061-0.032-0.124-0.059-0.186-0.089c-0.142-0.069-0.28-0.137-0.426-0.197
	c-0.064-0.027-0.133-0.048-0.198-0.073c-0.146-0.054-0.288-0.108-0.438-0.152c-0.067-0.021-0.139-0.035-0.209-0.054
	c-0.146-0.039-0.292-0.079-0.441-0.108c-0.085-0.017-0.17-0.025-0.255-0.039c-0.137-0.021-0.271-0.046-0.41-0.059
	c-0.149-0.015-0.3-0.018-0.448-0.023c-0.076-0.002-0.15-0.011-0.228-0.011c0,0,0,0-0.001,0l0,0H71.837
	c-3.817,0-6.907,3.09-6.907,6.907v495.311c0,3.818,3.09,6.907,6.907,6.907h368.127c3.816,0,6.905-3.089,6.905-6.907V123.42
	C446.869,123.414,446.87,123.407,446.87,123.401z M332.936,26.458l90.031,90.036h-90.031V26.458z M78.745,498.186V16.69h240.377
	v106.711c0,3.818,3.09,6.907,6.905,6.907h107.028v367.876L78.745,498.186L78.745,498.186z"/>
</svg>
