<?xml version="1.0" encoding="utf-8"?>
<!-- Generator: Adobe Illustrator 16.0.0, SVG Export Plug-In . SVG Version: 6.00 Build 0)  -->
<!DOCTYPE svg PUBLIC "-//W3C//DTD SVG 1.1//EN" "http://www.w3.org/Graphics/SVG/1.1/DTD/svg11.dtd">
<svg version="1.1" id="Layer_1" xmlns="http://www.w3.org/2000/svg" xmlns:xlink="http://www.w3.org/1999/xlink" x="0px" y="0px"
	 width="512px" height="512px" viewBox="0 0 512 512" enable-background="new 0 0 512 512" xml:space="preserve">
<path fill="none" stroke="#69C299" stroke-linecap="round" stroke-linejoin="round" stroke-miterlimit="10" d="M109.84,419.301"/>
<path fill="#5E686C" d="M264.325,483.636c-59.622,0-108.126-48.512-108.126-108.134c0-3.789,3.065-6.854,6.853-6.854
	c3.789,0,6.854,3.064,6.854,6.854c0,52.072,42.354,94.426,94.418,94.426c52.073,0,94.427-42.354,94.427-94.426
	c0-49.715-39.944-87.68-99.379-94.466c-67.727-7.71-116.881-57.172-116.881-117.617c0-64.883,52.781-117.665,117.658-117.665
	c64.883,0,117.664,52.781,117.664,117.665c0,3.788-3.065,6.854-6.854,6.854s-6.854-3.065-6.854-6.854
	c0-57.32-46.638-103.958-103.957-103.958s-103.95,46.638-103.95,103.958c0,54.22,43.063,96.976,104.727,103.99
	c66.717,7.616,111.533,51.055,111.533,108.093C372.459,435.124,323.948,483.636,264.325,483.636z"/>
<path fill="#69C299" d="M260.15,505.535c-3.788,0-6.854-3.065-6.854-6.854V10.348c0-3.788,3.066-6.854,6.854-6.854
	s6.854,3.065,6.854,6.854v488.334C267.003,502.47,263.938,505.535,260.15,505.535z"/>
</svg>
