<?xml version="1.0" encoding="utf-8"?>
<!-- Generator: Adobe Illustrator 16.0.0, SVG Export Plug-In . SVG Version: 6.00 Build 0)  -->
<!DOCTYPE svg PUBLIC "-//W3C//DTD SVG 1.1//EN" "http://www.w3.org/Graphics/SVG/1.1/DTD/svg11.dtd">
<svg version="1.1" id="Layer_1" xmlns="http://www.w3.org/2000/svg" xmlns:xlink="http://www.w3.org/1999/xlink" x="0px" y="0px"
	 width="512px" height="512px" viewBox="0 0 512 512" enable-background="new 0 0 512 512" xml:space="preserve">
<path fill="#5E686C" d="M103.163,321.954c-1.121,0-2.262-0.289-3.294-0.907c-50.772-30.224-82.312-85.669-82.319-144.706
	C17.55,83.546,93.04,8.056,185.835,8.056c92.789,0,168.279,75.49,168.279,168.285c0,31.168-8.58,61.594-24.818,88.013
	c-1.853,3.037-5.847,3.994-8.871,2.116c-3.034-1.863-3.98-5.833-2.116-8.868c14.979-24.379,22.904-52.486,22.904-81.261
	c0-85.677-69.708-155.385-155.377-155.385c-85.677,0-155.384,69.708-155.384,155.385c0.006,54.514,29.134,105.714,76.02,133.619
	c3.062,1.827,4.063,5.784,2.243,8.845C107.503,320.833,105.361,321.954,103.163,321.954z"/>
<path fill="#5E686C" d="M110.899,271.233c-2.64,0-5.115-1.626-6.066-4.259c-9.764-26.986-14.923-58.332-14.917-90.634
	c0-94.363,42.136-168.285,95.919-168.285c53.783,0,95.912,73.922,95.912,168.285c0,30.677-4.673,60.661-13.53,86.715
	c-1.159,3.378-4.812,5.166-8.182,4.033c-3.376-1.147-5.185-4.814-4.038-8.189c8.402-24.731,12.851-53.28,12.851-82.559
	c0-85.677-37.242-155.385-83.012-155.385c-45.777,0-83.019,69.708-83.019,155.385c-0.006,30.815,4.888,60.648,14.149,86.249
	c1.209,3.352-0.523,7.043-3.875,8.253C112.365,271.106,111.629,271.233,110.899,271.233z"/>
<path fill="#5E686C" d="M185.835,125.373c-50.747,0-97.821-14.198-132.556-39.988c-2.86-2.123-3.458-6.161-1.335-9.021
	c2.129-2.853,6.179-3.452,9.021-1.336c32.057,23.793,77.569,37.443,124.871,37.443c47.295,0,92.8-13.65,124.864-37.443
	c2.873-2.109,6.904-1.53,9.021,1.336c2.131,2.86,1.525,6.898-1.336,9.021C283.65,111.175,236.575,125.373,185.835,125.373z"/>
<path fill="#5E686C" d="M347.663,188.007H24c-3.566,0-6.451-2.885-6.451-6.451s2.885-6.45,6.451-6.45h323.663
	c3.565,0,6.45,2.885,6.45,6.45S351.229,188.007,347.663,188.007z"/>
<path fill="#5E686C" d="M185.835,267.402c-3.565,0-6.451-2.884-6.451-6.45V14.506c0-3.565,2.885-6.45,6.451-6.45
	s6.45,2.885,6.45,6.45v246.446C192.284,264.519,189.4,267.402,185.835,267.402z"/>
<path fill="none" stroke="#69C299" stroke-linecap="round" stroke-linejoin="round" stroke-miterlimit="10" d="M104.776,294.842"/>
<path fill="#5E686C" d="M286.333,506.573c-14.225,0-25.79-11.577-25.79-25.802c0-14.224,11.565-25.802,25.79-25.802
	c14.236,0,25.814,11.578,25.814,25.802C312.148,494.996,300.57,506.573,286.333,506.573z M286.333,467.87
	c-7.105,0-12.888,5.783-12.888,12.901s5.782,12.9,12.888,12.9c7.118,0,12.913-5.782,12.913-12.9S293.451,467.87,286.333,467.87z"/>
<path fill="#5E686C" d="M286.346,467.87c-3.566,0-6.45-2.885-6.45-6.449v-38.703c0-3.565,2.884-6.451,6.45-6.451
	c3.564,0,6.451,2.886,6.451,6.451v38.703C292.797,464.985,289.91,467.87,286.346,467.87z"/>
<path fill="#5E686C" d="M266.993,487.222h-107.95c-3.566,0-6.45-2.885-6.45-6.45c0-3.564,2.884-6.449,6.45-6.449h107.95
	c3.566,0,6.452,2.885,6.452,6.449C273.446,484.337,270.56,487.222,266.993,487.222z"/>
<path fill="#5E686C" d="M413.641,487.222H305.698c-3.566,0-6.451-2.885-6.451-6.45c0-3.564,2.885-6.449,6.451-6.449h107.943
	c3.566,0,6.451,2.885,6.451,6.449C420.092,484.337,417.207,487.222,413.641,487.222z"/>
<path fill="#69C299" d="M399.405,354.735c-14.224,0-25.802-11.578-25.802-25.802c0-14.223,11.578-25.802,25.802-25.802
	s25.803,11.579,25.803,25.802C425.207,343.157,413.628,354.735,399.405,354.735z M399.405,316.033c-7.118,0-12.9,5.782-12.9,12.9
	c0,7.119,5.782,12.901,12.9,12.901c7.119,0,12.902-5.782,12.902-12.901C412.307,321.815,406.524,316.033,399.405,316.033z"/>
<path fill="#69C299" d="M459.815,403.367H123.113c-14.534,0-26.356-10.937-26.356-24.393V278.893
	c0-13.456,11.823-24.391,26.356-24.391h336.702c14.526,0,26.344,10.935,26.344,24.391v100.082
	C486.158,392.431,474.341,403.367,459.815,403.367z M123.113,267.402c-7.42,0-13.456,5.153-13.456,11.49v100.082
	c0,6.338,6.035,11.491,13.456,11.491h336.702c7.408,0,13.443-5.153,13.443-11.491V278.893c0-6.337-6.035-11.49-13.443-11.49H123.113
	z"/>
</svg>
