<?xml version="1.0" encoding="utf-8"?>
<!-- Generator: Adobe Illustrator 16.0.0, SVG Export Plug-In . SVG Version: 6.00 Build 0)  -->
<!DOCTYPE svg PUBLIC "-//W3C//DTD SVG 1.1//EN" "http://www.w3.org/Graphics/SVG/1.1/DTD/svg11.dtd">
<svg version="1.1" id="Layer_1" xmlns="http://www.w3.org/2000/svg" xmlns:xlink="http://www.w3.org/1999/xlink" x="0px" y="0px"
	 width="512px" height="512px" viewBox="0 0 512 512" enable-background="new 0 0 512 512" xml:space="preserve">
<path fill="#69C299" d="M170.309,107.883c-0.259,0-0.511-0.014-0.77-0.041l-39.225-4.356c-1.916-0.211-3.661-1.213-4.819-2.754
	c-1.152-1.548-1.623-3.504-1.282-5.399l4.363-24.684c0.348-1.991,1.547-3.736,3.279-4.772L150.833,54.5l2.182-14.261l-2.556-10.253
	c-0.927-3.735,1.35-7.526,5.092-8.46c3.709-0.913,7.533,1.35,8.46,5.093l2.891,11.609c0.218,0.893,0.266,1.827,0.123,2.74
	l-2.89,18.89c-0.313,2.052-1.527,3.858-3.307,4.929l-19.06,11.425l-2.516,14.22l29.586,3.286l30.588-17.302l19.306-19.292
	c-2.509-3.436-4.854-8.174-4.356-13.484c0.375-4.029,2.529-9.762,10.675-14.207c14.397-7.867,27.077-25.346,27.207-25.523
	c2.243-3.136,6.599-3.838,9.741-1.588c3.129,2.25,3.845,6.612,1.589,9.741c-0.594,0.825-14.691,20.253-31.849,29.627
	c-2.052,1.118-3.381,2.365-3.463,3.245c-0.184,2.011,2.85,5.631,4.534,7.001c1.527,1.247,2.454,3.088,2.556,5.058
	c0.096,1.97-0.641,3.892-2.038,5.283L208.62,86.962c-0.45,0.45-0.947,0.832-1.5,1.139l-33.376,18.876
	C172.695,107.577,171.509,107.883,170.309,107.883z"/>
<path fill="#69C299" d="M9.933,241.796c-2.727,0-5.317-1.609-6.442-4.281c-1.486-3.559,0.191-7.649,3.75-9.135l35.489-14.847
	c0.852-0.368,1.766-0.545,2.693-0.545c1.581-0.354,12.373-4.268,22.55-8.167l6.817-63.998c0.232-2.182,1.473-4.118,3.347-5.25
	l3.865-2.318V73.042c0-3.858,3.123-6.98,6.981-6.98s6.98,3.122,6.98,6.98v64.168c0,2.454-1.289,4.731-3.388,5.985l-4.274,2.563
	l-6.898,64.775c-0.273,2.604-1.977,4.826-4.411,5.767c-19.674,7.662-26.729,9.803-29.606,10.416l-34.76,14.534
	C11.746,241.619,10.832,241.796,9.933,241.796z"/>
<path fill="#69C299" d="M215.84,505.409c-2.147,0-4.267-0.981-5.637-2.85l-28.557-38.952l-27.534-13.771
	c-0.668-0.341-1.282-0.777-1.807-1.309l-7.267-7.253l-16.367-19.333c-1.063-1.255-1.65-2.85-1.65-4.5v-18.855
	c0-1.432,0.443-2.822,1.261-3.995c3.251-4.662,6.421-10.048,7.383-12.488c-0.6-2.223-0.675-4.758-0.518-7.09l-7.185-3.6
	l-24.807-13.77h-5.447c-1.977,0-3.865-0.846-5.188-2.305L66.37,326.3c-2.052-2.291-2.379-5.645-0.797-8.276l1.179-1.949
	l-18.044-14.029l-31.024,12.979c-3.531,1.486-7.635-0.178-9.135-3.735c-1.486-3.559,0.191-7.649,3.75-9.135l34.78-14.562
	c2.318-0.995,4.99-0.627,6.974,0.927l26.15,20.328c2.795,2.168,3.524,6.067,1.704,9.108l-1.704,2.835l20.614,22.892h4.145
	c1.187,0,2.352,0.3,3.388,0.873l37.487,20.191c2.809,1.404,4.329,4.513,3.729,7.595c-0.443,2.235-0.647,5.222-0.429,6.135
	c1.022,1.978,2.972,5.917-8.153,22.278v14.139l14.315,16.946l6.061,6.013l28.038,14.016c0.988,0.491,1.854,1.228,2.509,2.113
	l29.558,40.316c2.277,3.108,1.609,7.484-1.506,9.762C218.717,504.973,217.271,505.409,215.84,505.409z"/>
<path fill="#69C299" d="M321.305,454.909c-1.799,0-3.585-0.695-4.936-2.045l-23.218-23.232c-0.941-0.941-1.596-2.127-1.875-3.423
	l-5.821-26.108c-0.703-3.122,0.817-6.312,3.674-7.758l6.531-3.272l7.689-16.66c0.749-1.5,1.826-4.404,2.686-6.831l-11.439-11.425
	c-1.227-1.228-1.949-2.863-2.031-4.608l-1.247-26.273l-11.835-5.467l-23.021,12.802c-2.931,1.65-6.605,0.969-8.753-1.622
	l-21.787-26.122c-0.961-1.159-1.527-2.591-1.609-4.091l-1.445-26.149c-0.068-1.214,0.177-2.414,0.723-3.504l24.678-49.383
	l18.692-44.569c0.437-1.05,1.132-1.977,2.011-2.7c0,0,16.014-13.129,23.308-18.938c4.036-3.231,10.566-15.652,13.921-23.437
	c0.627-1.458,1.73-2.672,3.135-3.408l45.66-23.696l-6.762-16.927c-0.887-2.215-0.586-4.724,0.805-6.66
	c32.039-44.645,34.793-43.267,40.274-40.561c3.449,1.718,4.854,5.91,3.136,9.36c-0.846,1.718-2.305,2.924-3.995,3.497
	c-3.858,3.49-15.638,18.706-25.836,32.749l7.28,18.222c1.173,2.924,0.232,6.278-2.276,8.173l-5.809,4.363l-43.792,22.673
	c-2.836,6.271-9.953,20.901-17.029,26.559c-5.985,4.772-17.847,14.466-21.828,17.724l-18.215,43.397l-24.043,48.141l1.22,21.992
	l16.6,19.905l21.071-11.711c1.943-1.077,4.288-1.159,6.326-0.246l18.896,8.739c2.359,1.091,3.913,3.409,4.036,6.013l1.322,27.8
	l12.611,12.598c1.868,1.868,2.522,4.636,1.69,7.145c-0.518,1.541-3.149,9.353-4.758,12.543l-8.604,18.651
	c-0.668,1.445-1.8,2.604-3.204,3.327l-3.845,1.922l4.186,18.815l17.779,17.792c6.953-4.608,13.797-9.476,15.161-11.003
	c1.377-2.276,8.835-18.883,15.256-33.662c0.354-0.805,0.859-1.54,1.473-2.154l33.403-33.376l17.711-24.677l13.129-30.159
	l-5.89-16.483l-9.299-10.634c-2.031-2.318-2.304-5.686-0.668-8.304l7.268-11.603c0.327-0.531,0.735-1.009,1.199-1.432
	c17.247-15.829,22.06-14.602,24.609-13.947c2.291,0.586,4.854,3.013,5.604,5.263c1.077,3.218,4.813,17.806,7.104,26.859
	l13.661-4.022l0.627-3.122c0.546-2.673,2.591-4.799,5.249-5.413l33.39-7.825c3.832-0.969,7.513,1.444,8.385,5.194
	c0.887,3.749-1.444,7.512-5.194,8.385l-29.026,6.804l-0.572,2.862c-0.519,2.536-2.387,4.595-4.882,5.317l-24.677,7.254
	c-1.827,0.531-3.791,0.3-5.427-0.642c-1.649-0.94-2.85-2.508-3.313-4.362c-1.977-7.908-4.785-18.951-6.68-26.123
	c-2.577,1.896-5.781,4.513-8.727,7.172l-4.008,6.395l6.749,7.73c0.586,0.654,1.036,1.418,1.322,2.249l7.267,20.328
	c0.6,1.664,0.532,3.504-0.177,5.127l-14.521,33.376c-0.191,0.463-0.437,0.899-0.736,1.309l-18.883,26.15l-33.186,33.28
	c-10.553,24.269-14.139,31.617-15.72,34.221c-0.846,1.637-3.367,5.182-24.146,18.488
	C323.909,454.541,322.601,454.909,321.305,454.909z"/>
<path fill="#5E686C" d="M255.971,508.654c-139.966,0-253.837-113.871-253.837-253.838C2.134,114.864,116.005,1,255.971,1
	c156.777,0,253.824,131.752,253.824,253.816C509.795,394.783,395.924,508.654,255.971,508.654z M255.971,14.961
	c-132.27,0-239.876,107.593-239.876,239.855c0,132.264,107.606,239.877,239.876,239.877c132.263,0,239.863-107.613,239.863-239.877
	C495.834,139.459,404.132,14.961,255.971,14.961z"/>
</svg>
