<?xml version="1.0" encoding="utf-8"?>
<!-- Generator: Adobe Illustrator 16.0.0, SVG Export Plug-In . SVG Version: 6.00 Build 0)  -->
<!DOCTYPE svg PUBLIC "-//W3C//DTD SVG 1.1//EN" "http://www.w3.org/Graphics/SVG/1.1/DTD/svg11.dtd">
<svg version="1.1" id="Layer_1" xmlns="http://www.w3.org/2000/svg" xmlns:xlink="http://www.w3.org/1999/xlink" x="0px" y="0px"
	 width="512px" height="512px" viewBox="0 0 512 512" enable-background="new 0 0 512 512" xml:space="preserve">
<path fill="#69C299" d="M12.783,4.172c1.55,0,3.1,0.537,4.346,1.57l293.02,244.166c1.537,1.292,2.438,3.199,2.438,5.213
	c0,2.013-0.901,3.921-2.438,5.212L17.129,504.5c-2.027,1.689-4.862,2.054-7.22,0.928C7.524,504.314,6,501.917,6,499.288V10.955
	c0-2.629,1.522-5.026,3.909-6.14C10.823,4.385,11.804,4.172,12.783,4.172z M295.207,255.122L19.565,25.434v459.375L295.207,255.122z
	"/>
<path fill="#5E686C" d="M201.817,4.173c1.562,0,3.101,0.537,4.347,1.57l292.992,244.166c1.55,1.292,2.438,3.199,2.438,5.213
	c0,2.013-0.889,3.921-2.438,5.212L206.162,504.5c-2.028,1.689-4.851,2.054-7.222,0.928c-2.385-1.112-3.907-3.511-3.907-6.14v-75.613
	c0-3.749,3.032-6.782,6.782-6.782s6.781,3.033,6.781,6.782v61.134l275.615-229.687L208.598,25.435v61.133
	c0,3.75-3.031,6.783-6.781,6.783s-6.782-3.033-6.782-6.783V10.955c0-2.629,1.522-5.026,3.907-6.14
	C199.857,4.386,200.836,4.173,201.817,4.173z"/>
</svg>
