<?xml version="1.0" encoding="utf-8"?>
<!-- Generator: Adobe Illustrator 16.0.0, SVG Export Plug-In . SVG Version: 6.00 Build 0)  -->
<!DOCTYPE svg PUBLIC "-//W3C//DTD SVG 1.1//EN" "http://www.w3.org/Graphics/SVG/1.1/DTD/svg11.dtd">
<svg version="1.1" id="Layer_1" xmlns="http://www.w3.org/2000/svg" xmlns:xlink="http://www.w3.org/1999/xlink" x="0px" y="0px"
	 width="512px" height="512px" viewBox="0 0 512 512" enable-background="new 0 0 512 512" xml:space="preserve">
<path fill="#69C299" d="M494.81,506.075c-1.55,0-3.1-0.537-4.346-1.57L197.444,260.339c-1.536-1.292-2.438-3.198-2.438-5.213
	c0-2.013,0.901-3.921,2.438-5.212L490.464,5.748c2.026-1.689,4.861-2.053,7.22-0.928c2.386,1.113,3.909,3.511,3.909,6.14v488.333
	c0,2.629-1.523,5.026-3.909,6.14C496.77,505.862,495.788,506.075,494.81,506.075z M212.386,255.126l275.643,229.688V25.439
	L212.386,255.126z"/>
<path fill="#5E686C" d="M305.777,506.075c-1.562,0-3.1-0.537-4.346-1.57L8.438,260.339C6.888,259.047,6,257.141,6,255.126
	c0-2.013,0.888-3.921,2.438-5.212L301.431,5.748c2.028-1.689,4.85-2.053,7.221-0.928c2.386,1.113,3.908,3.511,3.908,6.14v75.613
	c0,3.749-3.033,6.782-6.783,6.782s-6.78-3.033-6.78-6.782V25.439L23.38,255.126l275.615,229.688V423.68
	c0-3.75,3.03-6.782,6.78-6.782s6.783,3.032,6.783,6.782v75.613c0,2.629-1.522,5.026-3.908,6.14
	C307.737,505.862,306.757,506.075,305.777,506.075z"/>
</svg>
