<?xml version="1.0" encoding="utf-8"?>
<!-- Generator: Adobe Illustrator 16.0.0, SVG Export Plug-In . SVG Version: 6.00 Build 0)  -->
<!DOCTYPE svg PUBLIC "-//W3C//DTD SVG 1.1//EN" "http://www.w3.org/Graphics/SVG/1.1/DTD/svg11.dtd">
<svg version="1.1" id="Layer_1" xmlns="http://www.w3.org/2000/svg" xmlns:xlink="http://www.w3.org/1999/xlink" x="0px" y="0px"
	 width="512px" height="512px" viewBox="0 0 512 512" enable-background="new 0 0 512 512" xml:space="preserve">
<path fill="#5E686C" d="M488.386,394.836c-3.767,0-6.813,3.046-6.813,6.812v93.226H38.446v-93.226c0-3.767-3.047-6.812-6.812-6.812
	s-6.813,3.046-6.813,6.812v100.039c0,3.766,3.049,6.812,6.813,6.812h456.753c3.766,0,6.812-3.047,6.812-6.812V401.648
	C495.198,397.883,492.151,394.836,488.386,394.836z"/>
<path fill="#69C299" d="M256.001,406.519c1.315,1.277,3.034,1.916,4.735,1.916c1.703,0,3.421-0.639,4.737-1.916l131.124-126.665
	c2.701-2.606,2.78-6.918,0.159-9.633c-2.595-2.701-6.906-2.768-9.634-0.16L267.551,385.566V12.299c0-3.766-3.048-6.813-6.813-6.813
	c-3.765,0-6.812,3.047-6.812,6.813v373.27L134.373,270.061c-2.708-2.607-7.033-2.541-9.636,0.16
	c-2.613,2.715-2.542,7.026,0.166,9.633L256.001,406.519z"/>
</svg>
