<?xml version="1.0" encoding="utf-8"?>
<!-- Generator: Adobe Illustrator 16.0.0, SVG Export Plug-In . SVG Version: 6.00 Build 0)  -->
<!DOCTYPE svg PUBLIC "-//W3C//DTD SVG 1.1//EN" "http://www.w3.org/Graphics/SVG/1.1/DTD/svg11.dtd">
<svg version="1.1" id="Layer_1" xmlns="http://www.w3.org/2000/svg" xmlns:xlink="http://www.w3.org/1999/xlink" x="0px" y="0px"
	 width="512px" height="512px" viewBox="0 0 512 512" enable-background="new 0 0 512 512" xml:space="preserve">
<path fill="#69C299" d="M362.746,484.961c-3.406,0-6.37-2.535-6.799-6.009C334.692,308.854,275.049,175.24,156.541,32.185
	c-2.414-2.917-2.012-7.249,0.912-9.669c2.91-2.428,7.249-2.019,9.669,0.912c120.292,145.215,180.847,280.935,202.451,453.809
	c0.469,3.768-2.199,7.201-5.955,7.671C363.323,484.947,363.041,484.961,362.746,484.961z"/>
<path fill="#5E686C" d="M255.543,509.421c-139.757,0-253.457-113.707-253.457-253.457C2.086,116.201,115.786,2.5,255.543,2.5
	C395.293,2.5,509,116.201,509,255.964C509,395.714,395.293,509.421,255.543,509.421z M255.543,16.232
	c-132.187,0-239.725,107.545-239.725,239.731s107.538,239.725,239.725,239.725S495.268,388.15,495.268,255.964
	S387.73,16.232,255.543,16.232z"/>
<path fill="#5E686C" d="M10.025,238.812c-3.721,0-6.779-2.977-6.866-6.718c-0.081-3.789,2.923-6.934,6.712-7.021
	c223.143-4.989,332.169-42.947,416.642-145.041c2.414-2.923,6.745-3.326,9.655-0.912c2.924,2.421,3.339,6.746,0.912,9.669
	C349.671,194.45,237.955,233.709,10.179,238.799C10.126,238.799,10.072,238.812,10.025,238.812z"/>
<path fill="#5E686C" d="M86.351,442.288c-1.294,0-2.602-0.361-3.762-1.126c-3.172-2.079-4.05-6.343-1.972-9.508
	c104.675-159.275,238.679-208.197,421.744-153.979c3.648,1.072,5.713,4.895,4.641,8.528c-1.073,3.648-4.895,5.7-8.529,4.641
	c-176.374-52.261-305.509-5.096-406.376,148.346C90.776,441.202,88.583,442.288,86.351,442.288z"/>
</svg>
