<?xml version="1.0" encoding="utf-8"?>
<!-- Generator: Adobe Illustrator 16.0.0, SVG Export Plug-In . SVG Version: 6.00 Build 0)  -->
<!DOCTYPE svg PUBLIC "-//W3C//DTD SVG 1.1//EN" "http://www.w3.org/Graphics/SVG/1.1/DTD/svg11.dtd">
<svg version="1.1" id="Layer_1" xmlns="http://www.w3.org/2000/svg" xmlns:xlink="http://www.w3.org/1999/xlink" x="0px" y="0px"
	 width="512px" height="512px" viewBox="0 0 512 512" enable-background="new 0 0 512 512" xml:space="preserve">
<path fill="#5E686C" d="M226.574,500.927c-3.725,0-6.739-3.015-6.739-6.739V280.706c0-3.725,3.014-6.739,6.739-6.739
	s6.739,3.015,6.739,6.739v213.481C233.314,497.912,230.3,500.927,226.574,500.927z"/>
<path fill="#5E686C" d="M282.838,508.482H170.297c-3.725,0-6.739-3.015-6.739-6.739c0-3.726,3.014-6.739,6.739-6.739h112.542
	c3.726,0,6.74,3.014,6.74,6.739C289.578,505.468,286.564,508.482,282.838,508.482z"/>
<path fill="#5E686C" d="M387.983,186c-18.454,0-36.092-5.851-50.992-16.927c-2.988-2.218-3.606-6.443-1.389-9.431
	c2.231-2.975,6.443-3.587,9.432-1.389c12.557,9.333,27.411,14.269,42.949,14.269c40.377,0,73.231-33.657,73.231-75.028
	c0-41.364-32.854-75.015-73.231-75.015c-40.37,0-73.218,33.651-73.218,75.015c0,3.726-3.014,6.74-6.739,6.74
	c-3.725,0-6.739-3.014-6.739-6.74C301.286,48.699,340.176,9,387.983,9c47.814,0,86.711,39.699,86.711,88.493
	C474.694,146.294,435.797,186,387.983,186z"/>
<path fill="#69C299" d="M226.574,287.445c-1.81,0-3.547-0.73-4.818-2.026L44.052,103.732c-1.896-1.941-2.449-4.824-1.396-7.325
	s3.501-4.126,6.213-4.126h355.396c2.711,0,5.159,1.625,6.213,4.126c1.053,2.501,0.5,5.384-1.396,7.325L231.392,285.419
	C230.122,286.715,228.391,287.445,226.574,287.445z M64.889,105.76l161.686,165.312L388.246,105.76H64.889z"/>
</svg>
