<?xml version="1.0" encoding="utf-8"?>
<!-- Generator: Adobe Illustrator 16.0.0, SVG Export Plug-In . SVG Version: 6.00 Build 0)  -->
<!DOCTYPE svg PUBLIC "-//W3C//DTD SVG 1.1//EN" "http://www.w3.org/Graphics/SVG/1.1/DTD/svg11.dtd">
<svg version="1.1" id="Layer_1" xmlns="http://www.w3.org/2000/svg" xmlns:xlink="http://www.w3.org/1999/xlink" x="0px" y="0px"
	 width="512px" height="512px" viewBox="0 0 512 512" enable-background="new 0 0 512 512" xml:space="preserve">
<path fill="#5E686B" d="M442.5,7.54h-373c-3.79,0-6.856,3.066-6.856,6.856v481.792c0,3.789,3.066,6.855,6.856,6.855h373
	c3.789,0,6.854-3.066,6.854-6.855V14.396C449.355,10.606,446.289,7.54,442.5,7.54z M435.644,489.33H76.356V21.252h359.288V489.33
	L435.644,489.33z"/>
<path fill="#69C299" d="M256,363.172c20.931,0,40.482-5.999,57.041-16.357l30.792,46.192c1.326,1.982,3.495,3.053,5.706,3.053
	c1.311,0,2.638-0.375,3.802-1.149c3.146-2.104,4.004-6.363,1.902-9.51l-31.053-46.583c24.201-19.802,39.677-49.89,39.677-83.525
	c0-59.484-48.386-107.88-107.867-107.88c-59.484,0-107.88,48.396-107.88,107.88C148.12,314.776,196.516,363.172,256,363.172z
	 M256,161.124c51.919,0,94.152,42.249,94.152,94.167S307.918,349.458,256,349.458c-51.917,0-94.167-42.25-94.167-94.167
	S204.082,161.124,256,161.124z"/>
<path fill="#5E686B" d="M256,301.009c25.202,0,45.704-20.516,45.704-45.718S281.202,209.573,256,209.573
	c-25.203,0-45.705,20.516-45.705,45.718S230.797,301.009,256,301.009z M256,223.286c17.636,0,31.991,14.355,31.991,32.005
	c0,17.65-14.356,32.005-31.991,32.005c-17.638,0-31.992-14.354-31.992-32.005C224.008,237.641,238.364,223.286,256,223.286z"/>
</svg>
