<?xml version="1.0" encoding="utf-8"?>
<!-- Generator: Adobe Illustrator 16.0.0, SVG Export Plug-In . SVG Version: 6.00 Build 0)  -->
<!DOCTYPE svg PUBLIC "-//W3C//DTD SVG 1.1//EN" "http://www.w3.org/Graphics/SVG/1.1/DTD/svg11.dtd">
<svg version="1.1" id="Layer_1" xmlns="http://www.w3.org/2000/svg" xmlns:xlink="http://www.w3.org/1999/xlink" x="0px" y="0px"
	 width="512px" height="512px" viewBox="0 0 512 512" enable-background="new 0 0 512 512" xml:space="preserve">
<path fill="#5E686B" d="M445.883,3.347H66.117c-3.766,0-6.812,3.046-6.812,6.81V500.69c0,3.764,3.046,6.81,6.812,6.81h379.766
	c3.765,0,6.81-3.046,6.811-6.81V10.157C452.694,6.393,449.649,3.347,445.883,3.347z M439.072,493.88H72.928V16.968h105.137
	c-0.059,0.36-0.097,0.727-0.097,1.104v61.764c0,3.764,3.046,6.81,6.81,6.81c3.766,0,6.812-3.045,6.812-6.809V18.072
	c0-0.377-0.039-0.744-0.097-1.104h34.06c-0.059,0.36-0.097,0.727-0.097,1.104v61.764c0,3.764,3.047,6.81,6.811,6.81
	c3.765,0,6.812-3.045,6.812-6.809V18.072c0-0.377-0.039-0.744-0.098-1.104h34.033c-0.06,0.36-0.098,0.727-0.098,1.104v61.764
	c0,3.764,3.047,6.81,6.811,6.81c3.763,0,6.812-3.045,6.812-6.809V18.072c0-0.377-0.038-0.744-0.099-1.104h34.044
	c-0.059,0.36-0.097,0.727-0.097,1.104v61.764c0,3.764,3.047,6.81,6.812,6.81c3.767,0,6.812-3.045,6.812-6.809V18.072
	c0-0.377-0.038-0.744-0.097-1.104h105.161V493.88H439.072z"/>
<path fill="#69C299" d="M138.436,150.826v209.203c0,3.763,3.047,6.81,6.812,6.81h221.521c3.763,0,6.812-3.047,6.812-6.809V150.826
	c0-3.765-3.047-6.81-6.812-6.81H145.247C141.482,144.016,138.436,147.061,138.436,150.826z M152.057,157.636h207.9v195.582h-207.9
	V157.636z"/>
</svg>
