<?xml version="1.0" encoding="utf-8"?>
<!-- Generator: Adobe Illustrator 16.0.0, SVG Export Plug-In . SVG Version: 6.00 Build 0)  -->
<!DOCTYPE svg PUBLIC "-//W3C//DTD SVG 1.1//EN" "http://www.w3.org/Graphics/SVG/1.1/DTD/svg11.dtd">
<svg version="1.1" id="Layer_1" xmlns="http://www.w3.org/2000/svg" xmlns:xlink="http://www.w3.org/1999/xlink" x="0px" y="0px"
	 width="512px" height="512px" viewBox="0 0 512 512" enable-background="new 0 0 512 512" xml:space="preserve">
<path fill="#5E686C" d="M328.439,192.035c-1.718,0-3.435-0.656-4.745-1.966c-2.621-2.622-2.621-6.869,0-9.49l64.553-64.566
	c2.621-2.622,6.868-2.622,9.489,0c2.622,2.622,2.622,6.868,0,9.489l-64.553,64.566C331.872,191.379,330.156,192.035,328.439,192.035
	z"/>
<path fill="#5E686C" d="M120.992,399.469c-1.717,0-3.434-0.656-4.745-1.967c-2.621-2.621-2.621-6.868,0-9.49l65.103-65.089
	c2.622-2.621,6.868-2.621,9.489,0c2.622,2.621,2.622,6.869,0,9.489l-65.103,65.09C124.426,398.812,122.709,399.469,120.992,399.469z
	"/>
<path fill="#5E686C" d="M392.428,398.367c-1.718,0-3.435-0.655-4.746-1.967l-63.988-63.988c-2.621-2.62-2.621-6.868,0-9.489
	c2.622-2.621,6.867-2.621,9.489,0l63.989,63.989c2.622,2.621,2.622,6.868,0,9.488C395.861,397.712,394.144,398.367,392.428,398.367z
	"/>
<path fill="#5E686C" d="M186.082,192.009c-1.717,0-3.434-0.655-4.745-1.966l-65.089-65.091c-2.621-2.621-2.621-6.868,0-9.489
	c2.621-2.621,6.868-2.621,9.489,0l65.09,65.091c2.622,2.621,2.622,6.868,0,9.489C189.516,191.354,187.799,192.009,186.082,192.009z"
	/>
<path fill="#5E686C" d="M73.531,79.471c-1.717,0-3.434-0.656-4.745-1.967L51.052,59.758c-2.622-2.622-2.622-6.869,0-9.49
	c2.621-2.622,6.868-2.622,9.489,0l17.734,17.747c2.621,2.622,2.621,6.868,0,9.489C76.965,78.815,75.248,79.471,73.531,79.471z"/>
<path fill="#5E686C" d="M97.261,136.75c-22.204,0-40.265-18.062-40.265-40.266c0-22.203,18.062-40.264,40.265-40.264
	s40.265,18.061,40.265,40.264C137.527,118.688,119.465,136.75,97.261,136.75z M97.261,69.641c-14.804,0-26.844,12.045-26.844,26.843
	c0,14.798,12.04,26.844,26.844,26.844s26.843-12.045,26.843-26.844C124.105,81.686,112.066,69.641,97.261,69.641z"/>
<path fill="#5E686C" d="M120.985,79.471c-1.717,0-3.434-0.656-4.744-1.967c-2.622-2.621-2.622-6.868,0-9.489l56.314-56.314
	c2.622-2.622,6.868-2.622,9.489,0c2.622,2.621,2.622,6.868,0,9.489L125.73,77.504C124.419,78.815,122.702,79.471,120.985,79.471z"/>
<path fill="#5E686C" d="M17.223,183.227c-1.717,0-3.434-0.655-4.745-1.966c-2.622-2.622-2.622-6.868,0-9.489l56.309-56.309
	c2.621-2.621,6.868-2.621,9.49,0c2.621,2.622,2.621,6.868,0,9.489l-56.309,56.309C20.657,182.572,18.94,183.227,17.223,183.227z"/>
<path fill="#5E686C" d="M55.803,463.562c-1.717,0-3.434-0.654-4.745-1.966c-2.621-2.621-2.621-6.867,0-9.489l17.734-17.747
	c2.621-2.621,6.868-2.621,9.489,0c2.621,2.622,2.621,6.868,0,9.489l-17.734,17.747C59.238,462.907,57.521,463.562,55.803,463.562z"
	/>
<path fill="#5E686C" d="M97.261,455.646c-22.204,0-40.265-18.062-40.265-40.266c0-22.203,18.062-40.265,40.265-40.265
	s40.265,18.062,40.265,40.265C137.527,437.584,119.465,455.646,97.261,455.646z M97.261,388.536
	c-14.804,0-26.844,12.047-26.844,26.844c0,14.798,12.04,26.844,26.844,26.844s26.843-12.046,26.843-26.844
	C124.105,400.583,112.066,388.536,97.261,388.536z"/>
<path fill="#5E686C" d="M73.531,398.367c-1.717,0-3.434-0.655-4.745-1.967l-56.301-56.308c-2.622-2.621-2.622-6.868,0-9.488
	c2.621-2.622,6.868-2.622,9.489,0l56.302,56.308c2.621,2.621,2.621,6.868,0,9.488C76.965,397.712,75.248,398.367,73.531,398.367z"/>
<path fill="#5E686C" d="M177.293,502.123c-1.716,0-3.434-0.654-4.744-1.966l-56.263-56.256c-2.621-2.621-2.621-6.868,0-9.488
	c2.623-2.622,6.869-2.622,9.49,0l56.262,56.255c2.622,2.622,2.622,6.867,0,9.489C180.727,501.469,179.01,502.123,177.293,502.123z"
	/>
<path fill="#5E686C" d="M439.875,79.445c-1.718,0-3.434-0.656-4.745-1.966c-2.622-2.621-2.622-6.868,0-9.489l17.733-17.721
	c2.622-2.622,6.869-2.622,9.491,0c2.62,2.621,2.62,6.868,0,9.49l-17.734,17.72C443.309,78.789,441.592,79.445,439.875,79.445z"/>
<path fill="#5E686C" d="M416.151,136.75c-22.202,0-40.265-18.062-40.265-40.266c0-22.203,18.062-40.264,40.265-40.264
	c22.204,0,40.267,18.061,40.267,40.264C456.417,118.688,438.355,136.75,416.151,136.75z M416.151,69.641
	c-14.798,0-26.843,12.045-26.843,26.843c0,14.798,12.045,26.844,26.843,26.844c14.799,0,26.845-12.045,26.845-26.844
	C442.995,81.686,430.949,69.641,416.151,69.641z"/>
<path fill="#5E686C" d="M496.183,183.227c-1.717,0-3.433-0.655-4.744-1.966L435.091,124.9c-2.621-2.621-2.621-6.868,0-9.489
	c2.622-2.621,6.868-2.621,9.489,0l56.349,56.361c2.62,2.621,2.62,6.868,0,9.489C499.617,182.572,497.901,183.227,496.183,183.227z"
	/>
<path fill="#5E686C" d="M392.441,79.471c-1.718,0-3.435-0.656-4.745-1.967l-56.322-56.327c-2.62-2.621-2.62-6.868,0-9.49
	c2.622-2.622,6.869-2.622,9.49,0l56.321,56.328c2.622,2.622,2.622,6.868,0,9.489C395.874,78.815,394.157,79.471,392.441,79.471z"/>
<path fill="#5E686C" d="M457.596,463.562c-1.717,0-3.434-0.654-4.744-1.966l-17.722-17.747c-2.622-2.621-2.622-6.88,0-9.489
	c2.621-2.621,6.868-2.621,9.49,0l17.721,17.747c2.621,2.622,2.621,6.882,0,9.489C461.031,462.907,459.313,463.562,457.596,463.562z"
	/>
<path fill="#5E686C" d="M416.138,455.646c-22.204,0-40.266-18.062-40.266-40.266c0-22.203,18.062-40.265,40.266-40.265
	c22.203,0,40.267,18.062,40.267,40.265C456.405,437.584,438.341,455.646,416.138,455.646z M416.138,388.536
	c-14.797,0-26.844,12.047-26.844,26.844c0,14.798,12.047,26.844,26.844,26.844c14.799,0,26.843-12.046,26.843-26.844
	C442.981,400.583,430.937,388.536,416.138,388.536z"/>
<path fill="#5E686C" d="M336.093,502.123c-1.716,0-3.435-0.654-4.745-1.966c-2.621-2.622-2.621-6.867,0-9.489l56.334-56.309
	c2.622-2.621,6.868-2.621,9.49,0c2.622,2.622,2.622,6.868,0,9.489l-56.335,56.309C339.528,501.469,337.81,502.123,336.093,502.123z"
	/>
<path fill="#5E686C" d="M439.875,398.367c-1.718,0-3.434-0.655-4.745-1.967c-2.622-2.62-2.622-6.867,0-9.488l56.309-56.308
	c2.621-2.622,6.868-2.622,9.49,0c2.62,2.62,2.62,6.867,0,9.488L444.62,396.4C443.309,397.712,441.592,398.367,439.875,398.367z"/>
<path fill="#69C299" d="M257.267,363.868c-59.205,0-107.374-48.167-107.374-107.372s48.169-107.374,107.374-107.374
	c59.205,0,107.373,48.168,107.373,107.374S316.472,363.868,257.267,363.868z M257.267,162.544
	c-51.806,0-93.952,42.152-93.952,93.952c0,51.799,42.146,93.951,93.952,93.951c51.806,0,93.952-42.152,93.952-93.951
	C351.219,204.696,309.073,162.544,257.267,162.544z"/>
</svg>
