<?xml version="1.0" encoding="utf-8"?>
<!-- Generator: Adobe Illustrator 16.0.0, SVG Export Plug-In . SVG Version: 6.00 Build 0)  -->
<!DOCTYPE svg PUBLIC "-//W3C//DTD SVG 1.1//EN" "http://www.w3.org/Graphics/SVG/1.1/DTD/svg11.dtd">
<svg version="1.1" id="Layer_1" xmlns="http://www.w3.org/2000/svg" xmlns:xlink="http://www.w3.org/1999/xlink" x="0px" y="0px"
	 width="512px" height="512px" viewBox="0 0 512 512" enable-background="new 0 0 512 512" xml:space="preserve">
<path fill="#5E686C" d="M339.48,345.96c-1.159,0-2.318-0.293-3.384-0.905l-85.465-48.925c-3.271-1.866-4.403-6.036-2.532-9.301
	c1.872-3.291,6.022-4.396,9.313-2.531l85.452,48.925c3.277,1.865,4.41,6.036,2.531,9.3
	C344.143,344.734,341.838,345.96,339.48,345.96z"/>
<path fill="#5E686C" d="M99.353,208.459c-1.152,0-2.312-0.293-3.384-0.906L5.754,155.884c-3.271-1.865-4.403-6.036-2.531-9.3
	c1.885-3.304,6.029-4.423,9.313-2.532l90.215,51.669c3.271,1.865,4.403,6.036,2.531,9.3
	C104.016,207.233,101.718,208.459,99.353,208.459z"/>
<path fill="#5E686C" d="M339.48,345.96c-2.371,0-4.663-1.239-5.929-3.45c-1.865-3.265-0.72-7.436,2.558-9.301l153.316-87.323
	c3.265-1.839,7.408-0.72,9.3,2.558c1.865,3.265,0.72,7.436-2.558,9.301l-153.316,87.323
	C341.785,345.667,340.625,345.96,339.48,345.96z"/>
<path fill="#5E686C" d="M492.796,258.637c-1.253,0-2.519-0.347-3.65-1.053l-85.299-53.935c-3.185-2.012-4.131-6.235-2.118-9.42
	c2.038-3.184,6.262-4.09,9.42-2.118l85.298,53.935c3.185,2.012,4.131,6.235,2.118,9.42
	C497.26,257.518,495.048,258.637,492.796,258.637z"/>
<path fill="#5E686C" d="M9.152,156.79c-2.352,0-4.637-1.212-5.903-3.397c-1.898-3.251-0.786-7.435,2.472-9.327L173.76,46.43
	c3.231-1.892,7.421-0.8,9.32,2.471c1.898,3.258,0.786,7.428-2.472,9.32L12.569,155.871C11.496,156.497,10.317,156.79,9.152,156.79z"
	/>
<path fill="#5E686C" d="M256.187,109.064c-2.259,0-4.47-1.119-5.77-3.171c-2.019-3.184-1.072-7.395,2.112-9.419l78.823-49.911
	c3.157-2.025,7.381-1.085,9.42,2.112c2.012,3.185,1.065,7.401-2.119,9.414l-78.823,49.924
	C258.698,108.718,257.432,109.064,256.187,109.064z"/>
<path fill="#5E686C" d="M9.191,265.512c-2.258,0-4.47-1.119-5.769-3.171c-2.019-3.185-1.072-7.396,2.112-9.42l90.122-57.079
	c3.198-1.972,7.401-1.053,9.413,2.118c2.019,3.185,1.073,7.395-2.111,9.42l-90.122,57.079
	C11.703,265.165,10.437,265.512,9.191,265.512z"/>
<path fill="#5E686C" d="M503.042,147.17c-1.079,0-2.159-0.253-3.171-0.772l-168.039-88.03c-3.331-1.746-4.623-5.869-2.878-9.207
	c1.771-3.351,5.902-4.61,9.22-2.878l168.039,88.017c3.331,1.759,4.623,5.876,2.878,9.22
	C507.865,145.838,505.493,147.17,503.042,147.17z"/>
<path fill="#5E686C" d="M172.714,345.96c-2.312,0-4.57-1.172-5.849-3.304c-1.945-3.225-0.906-7.422,2.325-9.367l81.315-48.925
	c3.198-1.918,7.408-0.905,9.359,2.332c1.945,3.225,0.906,7.421-2.324,9.366l-81.315,48.925
	C175.125,345.641,173.912,345.96,172.714,345.96z"/>
<path fill="#5E686C" d="M405.259,206.008c-2.305,0-4.57-1.172-5.849-3.304c-1.933-3.225-0.893-7.421,2.331-9.367l97.783-58.837
	c3.251-1.906,7.435-0.906,9.366,2.332c1.932,3.224,0.893,7.421-2.331,9.367l-97.783,58.837
	C407.671,205.688,406.458,206.008,405.259,206.008z"/>
<path fill="#5E686C" d="M172.7,345.96c-1.012,0-2.039-0.227-3.004-0.706L6.174,264.806c-3.377-1.652-4.77-5.743-3.111-9.127
	c1.672-3.371,5.776-4.77,9.133-3.104l163.522,80.448c3.377,1.652,4.77,5.743,3.111,9.127
	C177.643,344.562,175.218,345.96,172.7,345.96z"/>
<path fill="#5E686C" d="M113.563,382.733c-3.771,0-6.822-3.051-6.822-6.821v-65.846c0-3.771,3.051-6.822,6.822-6.822
	s6.822,3.052,6.822,6.822v65.846C120.385,379.683,117.333,382.733,113.563,382.733z"/>
<path fill="#5E686C" d="M255.88,466.486c-1.172,0-2.365-0.307-3.451-0.945l-142.324-83.753c-3.251-1.905-4.33-6.089-2.425-9.341
	c1.905-3.25,6.089-4.316,9.34-2.411l142.324,83.753c3.251,1.905,4.33,6.089,2.426,9.34
	C260.496,465.287,258.219,466.486,255.88,466.486z"/>
<path fill="#5E686C" d="M255.893,466.486c-2.352,0-4.636-1.212-5.902-3.397c-1.898-3.251-0.792-7.435,2.465-9.326l152.47-88.63
	c3.237-1.892,7.422-0.812,9.326,2.479c1.893,3.251,0.786,7.435-2.478,9.326l-152.457,88.63
	C258.239,466.193,257.059,466.486,255.893,466.486z"/>
<path fill="#5E686C" d="M408.35,377.857c-3.771,0-6.821-3.052-6.821-6.822v-71.122c0-3.771,3.051-6.821,6.821-6.821
	c3.771,0,6.822,3.051,6.822,6.821v71.122C415.172,374.806,412.121,377.857,408.35,377.857z"/>
<path fill="#5E686C" d="M256.12,109.038c-1.246,0-2.505-0.346-3.637-1.052l-78.943-49.891c-3.184-2.019-4.137-6.229-2.125-9.413
	c2.019-3.171,6.235-4.117,9.413-2.125l78.943,49.891c3.185,2.012,4.137,6.222,2.125,9.42
	C260.597,107.918,258.385,109.038,256.12,109.038z"/>
<path fill="#69C299" d="M254.015,297.035c-1.152,0-2.312-0.293-3.384-0.905L95.969,207.553c-3.271-1.865-4.404-6.036-2.532-9.3
	c1.872-3.291,6.029-4.41,9.313-2.532l154.662,88.576c3.271,1.865,4.403,6.036,2.531,9.3
	C258.678,295.81,256.38,297.035,254.015,297.035z"/>
<path fill="#69C299" d="M99.313,208.433c-2.258,0-4.47-1.119-5.769-3.171c-2.019-3.185-1.072-7.395,2.112-9.42L252.53,96.474
	c3.204-1.972,7.395-1.066,9.413,2.118c2.019,3.185,1.072,7.395-2.112,9.42L102.957,207.38
	C101.824,208.086,100.559,208.433,99.313,208.433z"/>
<path fill="#69C299" d="M254.028,297.035c-2.312,0-4.57-1.172-5.849-3.304c-1.945-3.225-0.906-7.422,2.325-9.367l151.237-91.027
	c3.251-1.892,7.422-0.906,9.367,2.332c1.932,3.225,0.893,7.421-2.332,9.367l-151.237,91.027
	C256.44,296.716,255.227,297.035,254.028,297.035z"/>
<path fill="#69C299" d="M407.497,204.702c-1.252,0-2.518-0.347-3.65-1.053l-151.364-95.664c-3.185-2.012-4.137-6.223-2.125-9.42
	c2.025-3.185,6.235-4.104,9.413-2.119l151.378,95.665c3.184,2.012,4.13,6.222,2.118,9.42
	C411.961,203.583,409.749,204.702,407.497,204.702z"/>
</svg>
