<?xml version="1.0" encoding="utf-8"?>
<!-- Generator: Adobe Illustrator 16.0.0, SVG Export Plug-In . SVG Version: 6.00 Build 0)  -->
<!DOCTYPE svg PUBLIC "-//W3C//DTD SVG 1.1//EN" "http://www.w3.org/Graphics/SVG/1.1/DTD/svg11.dtd">
<svg version="1.1" id="Layer_1" xmlns="http://www.w3.org/2000/svg" xmlns:xlink="http://www.w3.org/1999/xlink" x="0px" y="0px"
	 width="512px" height="512px" viewBox="0 0 512 512" enable-background="new 0 0 512 512" xml:space="preserve">
<path fill="#5E686C" d="M259.954,503.171c-54.607,0-115.478-32.561-148.031-79.188c-25.097-35.957-31.15-76.915-17.045-115.341
	C130.62,211.275,249.244,19.856,254.273,11.759c1.201-1.934,3.305-3.128,5.577-3.161c2.024,0.052,4.414,1.078,5.669,2.984
	c5.041,7.588,123.854,187.116,159.59,297.296c14.235,43.871,8.046,85.941-17.907,121.662
	C375.621,473.979,316.455,503.171,259.954,503.171z M260.124,27.771C235.844,67.457,138.378,228.96,107.43,313.242
	c-16.091,43.845-0.477,80.259,15.464,103.089c30.196,43.257,86.561,73.466,137.061,73.466c52.426,0,107.242-26.97,136.42-67.118
	c23.34-32.116,28.878-70.031,16.013-109.673C381.629,218.197,284.783,65.778,260.124,27.771z"/>
<path fill="#69C299" d="M259.954,441.746c-59.924,0-108.672-48.743-108.672-108.666c0-3.696,2.99-6.688,6.687-6.688
	s6.688,2.99,6.688,6.688c0,52.544,42.747,95.291,95.298,95.291c3.695,0,6.688,2.992,6.688,6.688
	C266.642,438.755,263.651,441.746,259.954,441.746z"/>
</svg>
