<?xml version="1.0" encoding="utf-8"?>
<!-- Generator: Adobe Illustrator 16.0.0, SVG Export Plug-In . SVG Version: 6.00 Build 0)  -->
<!DOCTYPE svg PUBLIC "-//W3C//DTD SVG 1.1//EN" "http://www.w3.org/Graphics/SVG/1.1/DTD/svg11.dtd">
<svg version="1.1" id="Layer_1" xmlns="http://www.w3.org/2000/svg" xmlns:xlink="http://www.w3.org/1999/xlink" x="0px" y="0px"
	 width="512px" height="512px" viewBox="0 0 512 512" enable-background="new 0 0 512 512" xml:space="preserve">
<path fill="#5E686C" d="M449.128,91.632c-2.513-2.958-6.933-3.308-9.896-0.817c-2.965,2.511-3.323,6.945-0.811,9.903
	c36.441,42.984,56.522,97.771,56.522,154.282c0,131.757-107.188,238.944-238.943,238.944c-18.262,0-36.047-2.067-53.146-5.966
	c49.665-1.834,75.329-22.671,88.518-42.558c34.302-51.774,13.696-138.93-23.114-194.644C232.418,196.56,210.347,114.8,240.05,70.06
	c20.302-30.575,61.534-40.252,122.506-28.804c0.112,0.021,0.224,0.03,0.336,0.045c17.023,8.519,33.064,19.095,47.72,31.588
	c2.924,2.519,7.371,2.19,9.91-0.789c2.512-2.951,2.154-7.385-0.797-9.904C374.209,23.378,316.065,2,256,2C116.501,2,3,115.495,3,255
	c0,139.499,113.501,253,253,253c139.498,0,253-113.501,253-253C509,195.168,487.739,137.147,449.128,91.632z M17.056,255
	C17.056,123.243,124.243,16.056,256,16.056c19.066,0,37.928,2.292,56.201,6.713c-47.312,1.507-71.511,20.924-83.859,39.516
	c-33.396,50.313-11.105,136.808,28.193,196.242c34.796,52.682,52.969,134.091,23.113,179.126
	c-21.499,32.426-65.907,43.452-128.588,31.978C71.771,430.707,17.056,349.13,17.056,255z"/>
<path fill="#69C299" d="M173.918,399.852c19.395,0,35.166-15.771,35.166-35.15c0-19.367-15.771-35.125-35.166-35.125
	c-19.355,0-35.112,15.758-35.112,35.125C138.806,384.081,154.564,399.852,173.918,399.852z M173.918,343.63
	c11.64,0,21.109,9.45,21.108,21.069c0,11.633-9.47,21.097-21.108,21.097c-11.612,0-21.058-9.464-21.058-21.097
	C152.862,353.08,162.306,343.63,173.918,343.63z"/>
<path fill="#69C299" d="M310.109,146.386c0,19.381,15.744,35.152,35.084,35.152c19.409,0,35.193-15.771,35.193-35.152
	c0-19.367-15.784-35.125-35.193-35.125C325.853,111.261,310.109,127.018,310.109,146.386z M366.331,146.385
	c0,11.633-9.485,21.097-21.14,21.097c-11.598,0-21.026-9.464-21.026-21.097c0-11.619,9.429-21.07,21.026-21.07
	C356.846,125.315,366.33,134.766,366.331,146.385z"/>
</svg>
