<?xml version="1.0" encoding="utf-8"?>
<!-- Generator: Adobe Illustrator 16.0.0, SVG Export Plug-In . SVG Version: 6.00 Build 0)  -->
<!DOCTYPE svg PUBLIC "-//W3C//DTD SVG 1.1//EN" "http://www.w3.org/Graphics/SVG/1.1/DTD/svg11.dtd">
<svg version="1.1" id="Layer_1" xmlns="http://www.w3.org/2000/svg" xmlns:xlink="http://www.w3.org/1999/xlink" x="0px" y="0px"
	 width="512px" height="512px" viewBox="0 0 512 512" enable-background="new 0 0 512 512" xml:space="preserve">
<path fill="#69C299" d="M255.224,379.118c-3.777,0-6.833-3.056-6.833-6.833c0-3.778,3.056-6.834,6.833-6.834
	c61.036,0,110.688-49.651,110.688-110.675c0-3.777,3.058-6.833,6.834-6.833s6.835,3.056,6.835,6.833
	C379.58,323.341,323.788,379.118,255.224,379.118z"/>
<path fill="#5E686C" d="M255.224,509C115.038,509,1,394.955,1,254.776C1,124.888,98.221,16.256,227.141,2.087
	c3.618-0.387,7.114,2.289,7.541,6.046c0.414,3.75-2.294,7.128-6.045,7.541C106.657,29.081,14.667,131.868,14.667,254.776
	c0,132.645,107.912,240.557,240.557,240.557c132.646,0,240.556-107.912,240.556-240.557c0-122.908-91.977-225.701-213.954-239.102
	c-3.751-0.413-6.462-3.791-6.048-7.541c0.414-3.764,3.83-6.44,7.541-6.046c128.907,14.168,226.128,122.801,226.128,252.689
	C509.447,394.955,395.409,509,255.224,509z"/>
<path fill="#69C299" d="M255.224,329.641c-41.283,0-74.864-33.58-74.864-74.864c0-41.283,33.581-74.864,74.864-74.864
	s74.864,33.581,74.864,74.864C330.088,296.061,296.507,329.641,255.224,329.641z M255.224,193.58
	c-33.742,0-61.197,27.455-61.197,61.197c0,33.743,27.455,61.197,61.197,61.197c33.741,0,61.196-27.454,61.196-61.197
	C316.42,221.035,288.965,193.58,255.224,193.58z"/>
</svg>
