<?xml version="1.0" encoding="utf-8"?>
<!-- Generator: Adobe Illustrator 16.0.0, SVG Export Plug-In . SVG Version: 6.00 Build 0)  -->
<!DOCTYPE svg PUBLIC "-//W3C//DTD SVG 1.1//EN" "http://www.w3.org/Graphics/SVG/1.1/DTD/svg11.dtd">
<svg version="1.1" id="Layer_1" xmlns="http://www.w3.org/2000/svg" xmlns:xlink="http://www.w3.org/1999/xlink" x="0px" y="0px"
	 width="512px" height="512px" viewBox="0 0 512 512" enable-background="new 0 0 512 512" xml:space="preserve">
<path fill="#5E686C" d="M268.323,400.802h-15.717c-0.669,0-1.331-0.094-1.973-0.295c-42.411-12.747-130.67-39.286-130.67-145.919
	c0-102.981,70.702-179.91,127.52-241.73l7.926-8.642c2.595-2.822,7.503-2.822,10.099,0l7.905,8.608
	c56.825,61.827,127.554,138.77,127.554,241.764c0,106.633-88.259,133.172-130.67,145.919
	C269.656,400.708,268.992,400.802,268.323,400.802z M253.616,387.104h13.698c42.483-12.774,119.955-36.799,119.955-132.516
	c0-97.657-68.723-172.419-123.942-232.494l-2.868-3.124l-2.896,3.157c-55.199,60.062-123.902,134.824-123.902,232.46
	C133.661,350.305,211.132,374.329,253.616,387.104z"/>
<path fill="#69C299" d="M260.459,507.494c-3.787,0-6.85-3.063-6.85-6.849V128.191c0-3.785,3.062-6.849,6.85-6.849
	c3.785,0,6.848,3.063,6.848,6.849v372.454C267.307,504.431,264.244,507.494,260.459,507.494z"/>
<path fill="#69C299" d="M260.459,218.564c-1.753,0-3.505-0.668-4.843-2.007l-47.153-47.139c-2.676-2.675-2.676-7.009,0-9.685
	c2.675-2.675,7.009-2.675,9.684,0l47.153,47.139c2.675,2.675,2.675,7.009,0,9.685C263.963,217.896,262.211,218.564,260.459,218.564z
	"/>
<path fill="#69C299" d="M260.459,333.55c-1.753,0-3.505-0.668-4.843-2.006c-2.675-2.676-2.675-7.009,0-9.685l55.058-55.072
	c2.676-2.675,7.01-2.675,9.686,0c2.675,2.676,2.675,7.01,0,9.685l-55.059,55.072C263.963,332.882,262.211,333.55,260.459,333.55z"/>
</svg>
