<?xml version="1.0" encoding="utf-8"?>
<!-- Generator: Adobe Illustrator 16.0.0, SVG Export Plug-In . SVG Version: 6.00 Build 0)  -->
<!DOCTYPE svg PUBLIC "-//W3C//DTD SVG 1.1//EN" "http://www.w3.org/Graphics/SVG/1.1/DTD/svg11.dtd">
<svg version="1.1" id="Layer_1" xmlns="http://www.w3.org/2000/svg" xmlns:xlink="http://www.w3.org/1999/xlink" x="0px" y="0px"
	 width="512px" height="512px" viewBox="0 0 512 512" enable-background="new 0 0 512 512" xml:space="preserve">
<path fill="#5E686B" d="M507.252,196.899c0-0.469-0.014-0.925-0.067-1.247L477.643,18.558c-1.181-7.496-7.818-13.142-15.422-13.142
	H48.888c-7.676,0-14.167,5.512-15.421,13.088L3.73,198.227c0,23.334,10.983,45.285,29.549,59.419v235.806
	c0,8.621,7.021,15.646,15.645,15.646h413.324c8.622,0,15.639-7.026,15.639-15.646V257.473c17.605-13.583,28.12-34.089,29.126-57.114
	c0.228-0.711,0.36-1.461,0.36-2.132C507.371,197.771,507.331,197.328,507.252,196.899z M387.513,495.368h-86.816V349.547h86.816
	V495.368z M462.246,495.368h-61.003V342.681c0-3.795-3.068-6.864-6.863-6.864H293.832c-3.795,0-6.866,3.069-6.866,6.864v152.688
	H48.922c-1.073,0-1.911-0.845-1.911-1.916V264.896c0.465,0.218,0.93,0.435,1.389,0.647c4.227,1.974,8.026,3.741,8.806,4.011
	c7.872,2.319,14.609,3.393,21.202,3.393c23.197,0,44.963-10.889,59.004-28.979c14.053,18.091,35.844,28.979,59.062,28.979
	s44.997-10.889,59.038-29.006c14.047,18.118,35.838,29.006,59.058,29.006c23.192,0,44.971-10.889,59.031-28.979
	c14.062,18.091,35.845,28.979,59.062,28.979c6.618,0,13.356-1.086,21.769-3.621c0.213-0.08,3.325-1.528,7.053-3.286
	c0.865-0.409,1.768-0.835,2.666-1.261v228.673C464.151,494.511,463.293,495.368,462.246,495.368z M493.41,197.946
	c-0.04,0.268-0.063,0.55-0.079,0.805c-0.529,20.066-9.911,37.968-25.757,49.256c-1.445,0.651-4.54,2.11-11.958,5.617
	c-3.146,1.474-5.82,2.735-5.68,2.735c0,0,0.007,0,0.013,0c-6.537,1.946-12.033,2.857-17.283,2.857
	c-21.895,0-42.243-11.87-53.099-30.979c-1.221-2.145-3.501-3.473-5.968-3.473c-2.468,0-4.747,1.328-5.968,3.473
	c-10.869,19.11-31.199,30.979-53.063,30.979c-21.898,0-42.249-11.882-53.091-31.019c-2.438-4.291-9.507-4.291-11.946,0.014
	c-10.828,19.123-31.159,31.005-53.059,31.005c-21.898,0-42.242-11.87-53.097-30.979c-2.441-4.291-9.501-4.278-11.942,0
	c-10.835,19.11-31.158,30.979-53.03,30.979c-5.242,0-10.747-0.899-16.562-2.549c-0.543-0.242-3.909-1.824-7.631-3.554
	c-4.001-1.877-8.389-3.904-10.537-4.88c-16.424-11.46-26.214-30.108-26.307-48.878L47.011,20.758
	c0.161-0.952,0.932-1.609,1.877-1.609h413.333c0.896,0,1.717,0.684,1.865,1.609l29.365,176.249
	C493.426,197.316,493.41,197.637,493.41,197.946z"/>
<path fill="#69C299" d="M217.278,335.815H116.73c-3.795,0-6.866,3.069-6.866,6.864v100.481c0,3.795,3.071,6.866,6.866,6.866h100.549
	c3.797,0,6.866-3.071,6.865-6.866v-100.48C224.144,338.886,221.073,335.815,217.278,335.815z M210.414,436.296h-86.818v-86.749
	h86.818V436.296z"/>
</svg>
