<?xml version="1.0" encoding="utf-8"?>
<!-- Generator: Adobe Illustrator 16.0.0, SVG Export Plug-In . SVG Version: 6.00 Build 0)  -->
<!DOCTYPE svg PUBLIC "-//W3C//DTD SVG 1.1//EN" "http://www.w3.org/Graphics/SVG/1.1/DTD/svg11.dtd">
<svg version="1.1" id="Layer_1" xmlns="http://www.w3.org/2000/svg" xmlns:xlink="http://www.w3.org/1999/xlink" x="0px" y="0px"
	 width="512px" height="512px" viewBox="0 0 512 512" enable-background="new 0 0 512 512" xml:space="preserve">
<path fill="#5E686C" d="M436.907,348.886c-3.756,0-6.793-3.038-6.793-6.793v-16.411c0-79.278-50.774-146.583-126.343-167.479
	c-3.616-1.001-5.739-4.743-4.737-8.358c1.008-3.622,4.803-5.691,8.358-4.736c81.526,22.541,136.307,95.112,136.307,180.573v16.411
	C443.699,345.848,440.661,348.886,436.907,348.886z"/>
<path fill="#5E686C" d="M75.76,348.886c-3.754,0-6.792-3.038-6.792-6.793v-16.411c0-83.643,56.034-157.899,136.274-180.56
	c3.562-1.028,7.363,1.062,8.378,4.69c1.021,3.609-1.075,7.363-4.69,8.378c-74.409,21.022-126.376,89.898-126.376,167.492v16.411
	C82.554,345.848,79.515,348.886,75.76,348.886z"/>
<path fill="#69C299" d="M207.086,135.483h-98.496c-3.755,0-6.793-3.039-6.793-6.793s3.038-6.793,6.793-6.793h98.496
	c3.754,0,6.792,3.039,6.792,6.793S210.841,135.483,207.086,135.483z"/>
<path fill="#69C299" d="M404.076,135.483h-98.495c-3.754,0-6.792-3.039-6.792-6.793s3.038-6.793,6.792-6.793h98.495
	c3.756,0,6.794,3.039,6.794,6.793S407.832,135.483,404.076,135.483z"/>
<path fill="#69C299" d="M59.343,183.033C29.379,183.033,5,158.655,5,128.69c0-29.964,24.378-54.342,54.342-54.342
	c29.964,0,54.343,24.378,54.343,54.342C113.685,158.655,89.307,183.033,59.343,183.033z M59.343,87.934
	c-22.474,0-40.756,18.282-40.756,40.757s18.282,40.757,40.756,40.757c22.475,0,40.757-18.282,40.757-40.757
	S81.817,87.934,59.343,87.934z"/>
<path fill="#69C299" d="M453.325,183.033c-29.964,0-54.343-24.378-54.343-54.343c0-29.964,24.379-54.342,54.343-54.342
	c29.963,0,54.343,24.378,54.343,54.342C507.668,158.655,483.288,183.033,453.325,183.033z M453.325,87.934
	c-22.475,0-40.758,18.282-40.758,40.757s18.283,40.757,40.758,40.757s40.756-18.282,40.756-40.757S475.8,87.934,453.325,87.934z"/>
<path fill="#5E686C" d="M123.31,445.689H28.211c-3.755,0-6.793-3.038-6.793-6.793v-95.104c0-3.755,3.038-6.793,6.793-6.793h95.099
	c3.755,0,6.793,3.038,6.793,6.793v95.104C130.103,442.651,127.065,445.689,123.31,445.689z M35.004,432.104h81.514v-81.521H35.004
	V432.104z"/>
<path fill="#5E686C" d="M484.457,445.689h-95.101c-3.754,0-6.792-3.038-6.792-6.793v-95.104c0-3.755,3.038-6.793,6.792-6.793h95.101
	c3.754,0,6.792,3.038,6.792,6.793v95.104C491.249,442.651,488.211,445.689,484.457,445.689z M396.15,432.104h81.514v-81.521H396.15
	V432.104z"/>
<path fill="#5E686C" d="M303.884,183.033h-95.1c-3.755,0-6.793-3.038-6.793-6.793v-95.1c0-3.754,3.038-6.792,6.793-6.792h95.1
	c3.753,0,6.793,3.038,6.793,6.792v95.1C310.677,179.995,307.637,183.033,303.884,183.033z M215.577,169.447h81.513V87.934h-81.513
	V169.447z"/>
</svg>
