<?xml version="1.0" encoding="utf-8"?>
<!-- Generator: Adobe Illustrator 16.0.0, SVG Export Plug-In . SVG Version: 6.00 Build 0)  -->
<!DOCTYPE svg PUBLIC "-//W3C//DTD SVG 1.1//EN" "http://www.w3.org/Graphics/SVG/1.1/DTD/svg11.dtd">
<svg version="1.1" id="Layer_1" xmlns="http://www.w3.org/2000/svg" xmlns:xlink="http://www.w3.org/1999/xlink" x="0px" y="0px"
	 width="512px" height="512px" viewBox="0 0 512 512" enable-background="new 0 0 512 512" xml:space="preserve">
<path fill="#5E686C" d="M22.492,425.332c-1.45,0-2.92-0.463-4.159-1.43c-2.954-2.292-3.49-6.557-1.185-9.511l164.029-210.917
	c2.305-2.954,6.557-3.497,9.517-1.192c2.954,2.292,3.49,6.557,1.185,9.51L27.85,422.71
	C26.512,424.432,24.512,425.332,22.492,425.332z"/>
<path fill="#5E686C" d="M491.149,425.332c-2.013,0-4.013-0.9-5.351-2.622L321.769,211.792c-2.305-2.954-1.774-7.219,1.192-9.51
	c2.914-2.318,7.192-1.775,9.51,1.192L496.5,414.392c2.305,2.954,1.775,7.219-1.192,9.511
	C494.076,424.869,492.606,425.332,491.149,425.332z"/>
<path fill="#69C299" d="M256.815,261.29c-1.418,0-2.822-0.438-4.027-1.324L30.195,95.937c-3.02-2.226-3.662-6.464-1.437-9.484
	c2.212-3.006,6.477-3.669,9.477-1.43l218.58,161.062l218.6-161.062c3.02-2.239,7.271-1.59,9.483,1.43
	c2.225,3.02,1.576,7.258-1.431,9.484L260.841,259.966C259.635,260.853,258.232,261.29,256.815,261.29z"/>
<path fill="#5E686C" d="M479.467,437.041H34.188c-16.643,0-30.186-13.523-30.186-30.146V113.831
	c0-16.609,13.543-30.133,30.186-30.133c3.749,0,6.782,3.033,6.782,6.782c0,3.748-3.033,6.781-6.782,6.781
	c-9.166,0-16.623,7.431-16.623,16.57v293.064c0,9.14,7.457,16.584,16.623,16.584h445.279c9.166,0,16.623-7.444,16.623-16.584
	V113.831c0-9.139-7.457-16.57-16.623-16.57c-3.749,0-6.781-3.033-6.781-6.781c0-3.749,3.032-6.782,6.781-6.782
	c16.649,0,30.186,13.523,30.186,30.133v293.064C509.653,423.518,496.116,437.041,479.467,437.041z"/>
<path fill="#69C299" d="M479.467,97.261H34.188c-3.748,0-6.781-3.033-6.781-6.781c0-3.749,3.033-6.782,6.781-6.782h445.279
	c3.748,0,6.781,3.033,6.781,6.782C486.248,94.228,483.215,97.261,479.467,97.261z"/>
</svg>
