<?xml version="1.0" encoding="utf-8"?>
<!-- Generator: Adobe Illustrator 16.0.0, SVG Export Plug-In . SVG Version: 6.00 Build 0)  -->
<!DOCTYPE svg PUBLIC "-//W3C//DTD SVG 1.1//EN" "http://www.w3.org/Graphics/SVG/1.1/DTD/svg11.dtd">
<svg version="1.1" id="Layer_1" xmlns="http://www.w3.org/2000/svg" xmlns:xlink="http://www.w3.org/1999/xlink" x="0px" y="0px"
	 width="512px" height="512px" viewBox="0 0 512 512" enable-background="new 0 0 512 512" xml:space="preserve">
<path fill="#5E686C" d="M474.16,509.743H38.31c-16.387,0-29.719-13.312-29.719-29.666V193.208c0-16.348,13.332-29.652,29.719-29.652
	c3.76,0,6.802,3.042,6.802,6.802s-3.042,6.802-6.802,6.802c-8.888,0-16.115,7.201-16.115,16.048v286.869
	c0,8.861,7.227,16.062,16.115,16.062h435.85c8.888,0,16.114-7.2,16.114-16.062V193.208c0-8.848-7.227-16.048-16.114-16.048
	c-3.76,0-6.803-3.042-6.803-6.802s3.043-6.802,6.803-6.802c16.381,0,29.719,13.305,29.719,29.652v286.869
	C503.879,496.431,490.541,509.743,474.16,509.743z"/>
<path fill="#5E686C" d="M26.852,498.291c-1.455,0-2.93-0.465-4.172-1.435c-2.962-2.299-3.5-6.576-1.189-9.539l160.566-206.453
	c2.305-2.949,6.576-3.501,9.545-1.189c2.962,2.306,3.5,6.577,1.189,9.546L32.226,495.66
	C30.884,497.388,28.878,498.291,26.852,498.291z"/>
<path fill="#5E686C" d="M485.612,498.291c-2.019,0-4.025-0.903-5.367-2.631L319.679,289.221c-2.312-2.969-1.78-7.24,1.195-9.546
	c2.923-2.312,7.214-1.779,9.539,1.189l160.565,206.453c2.312,2.963,1.78,7.24-1.195,9.539
	C488.548,497.826,487.073,498.291,485.612,498.291z"/>
<path fill="#69C299" d="M256.229,337.719c-1.422,0-2.83-0.445-4.039-1.329L34.291,175.831c-3.029-2.226-3.673-6.483-1.441-9.506
	c2.226-3.029,6.49-3.673,9.506-1.441l213.873,157.583l213.866-157.583c3.042-2.219,7.28-1.594,9.512,1.441
	c2.232,3.022,1.581,7.28-1.435,9.506L260.267,336.39C259.058,337.273,257.65,337.719,256.229,337.719z"/>
<path fill="#69C299" d="M474.133,177.16c-1.408,0-2.816-0.432-4.038-1.329L256.229,18.248L42.356,175.831
	c-3.009,2.245-7.287,1.581-9.506-1.441c-2.232-3.022-1.587-7.28,1.441-9.506L252.19,4.325c2.418-1.767,5.66-1.767,8.077,0
	l217.905,160.559c3.016,2.226,3.667,6.483,1.435,9.506C478.279,176.203,476.219,177.16,474.133,177.16z"/>
</svg>
