<?xml version="1.0" encoding="utf-8"?>
<!-- Generator: Adobe Illustrator 16.0.0, SVG Export Plug-In . SVG Version: 6.00 Build 0)  -->
<!DOCTYPE svg PUBLIC "-//W3C//DTD SVG 1.1//EN" "http://www.w3.org/Graphics/SVG/1.1/DTD/svg11.dtd">
<svg version="1.1" id="Layer_1" xmlns="http://www.w3.org/2000/svg" xmlns:xlink="http://www.w3.org/1999/xlink" x="0px" y="0px"
	 width="512px" height="512px" viewBox="0 0 512 512" enable-background="new 0 0 512 512" xml:space="preserve">
<path fill="#69C299" d="M451.887,319.078c-3.765,0-6.812-3.047-6.812-6.812c0-3.766,3.047-6.811,6.812-6.811
	c23.158,0,41.992-18.836,41.992-41.992c0-23.159-18.834-41.993-41.992-41.993c-3.765,0-6.812-3.046-6.812-6.811
	c0-3.764,3.047-6.81,6.812-6.81c30.66,0,55.613,24.947,55.613,55.614C507.5,294.123,482.547,319.078,451.887,319.078z"/>
<path fill="#5E686C" d="M403.073,400.43H126.51c-3.765,0-6.81-3.047-6.81-6.811c0-3.767,3.045-6.812,6.81-6.812h269.752V140.12
	H126.51c-3.765,0-6.81-3.046-6.81-6.81c0-3.765,3.045-6.811,6.81-6.811h276.562c3.765,0,6.81,3.046,6.81,6.811v260.309
	C409.881,397.383,406.836,400.43,403.073,400.43z"/>
<path fill="#5E686C" d="M77.694,400.43H12.624c-3.766,0-6.812-3.047-6.812-6.811V133.311c0-3.765,3.046-6.811,6.812-6.811h65.069
	c3.765,0,6.811,3.046,6.811,6.811V393.62C84.504,397.383,81.458,400.43,77.694,400.43z M19.433,386.809h51.45V140.12h-51.45V386.809
	z"/>
</svg>
