<?xml version="1.0" encoding="utf-8"?>
<!-- Generator: Adobe Illustrator 16.0.0, SVG Export Plug-In . SVG Version: 6.00 Build 0)  -->
<!DOCTYPE svg PUBLIC "-//W3C//DTD SVG 1.1//EN" "http://www.w3.org/Graphics/SVG/1.1/DTD/svg11.dtd">
<svg version="1.1" id="Layer_1" xmlns="http://www.w3.org/2000/svg" xmlns:xlink="http://www.w3.org/1999/xlink" x="0px" y="0px"
	 width="512px" height="512px" viewBox="0 0 512 512" enable-background="new 0 0 512 512" xml:space="preserve">
<path fill="#5E686C" d="M259.399,266.769c-18.649,0-33.824-15.168-33.824-33.811c0-18.656,15.175-33.837,33.824-33.837
	c18.65,0,33.831,15.181,33.831,33.837C293.23,251.601,278.049,266.769,259.399,266.769z M259.399,212.65
	c-11.19,0-20.294,9.11-20.294,20.308c0,11.185,9.104,20.281,20.294,20.281c11.192,0,20.303-9.097,20.303-20.281
	C279.701,221.76,270.591,212.65,259.399,212.65z"/>
<path fill="#5E686C" d="M309.785,506.531H209.013c-1.936,0-3.779-0.832-5.06-2.272c-1.282-1.453-1.89-3.382-1.658-5.298
	l25.196-209.955c0.449-3.7,3.864-6.316,7.524-5.913c3.713,0.449,6.355,3.812,5.913,7.524l-24.292,202.385h85.525l-24.284-202.385
	c-0.449-3.713,2.193-7.075,5.906-7.524c3.594-0.455,7.068,2.193,7.519,5.913l25.195,209.955c0.238,1.916-0.369,3.845-1.65,5.298
	C313.565,505.699,311.715,506.531,309.785,506.531z"/>
<path fill="#69C299" d="M432.651,355.372L432.651,355.372c-3.118,0-6.198-0.541-9.17-1.592l-123.578-57.203h-78.344
	c-31.69,14.612-125.758,56.998-125.758,56.998c-14.375,5.213-26.531-0.567-32.833-11.825c-6.368-11.402-3.924-25.547,5.953-34.405
	c1.447-1.07,81.482-57.072,108.766-77.387l44.6-62.211c0.779-10.735,4.4-57.191,10.788-138.462
	c2.543-13.833,13.576-23.36,26.326-23.36c12.936,0,23.711,9.308,26.208,22.646c6.475,81.898,10.095,128.434,10.874,139.175
	l44.632,62.211c27.284,20.315,107.286,76.31,108.106,76.878c10.504,9.328,12.975,23.473,6.633,34.895
	C451.042,350.278,442.387,355.372,432.651,355.372z M220.072,283.047h81.324c0.978,0,1.956,0.211,2.841,0.627l124.357,57.594
	c0.938,0.298,2.497,0.575,4.057,0.575c4.77,0,9.023-2.51,11.389-6.705c3.237-5.833,1.916-13.127-3.211-17.719
	c-0.198-0.072-82.037-57.355-108.66-77.248c-0.556-0.416-1.031-0.911-1.44-1.473l-46.35-64.61c-0.819-1.149-1.269-2.531-1.269-3.944
	c-0.159-2.814-7.188-92.7-10.895-139.803c-1.182-6.117-6.493-10.887-12.816-10.887c-6.341,0-11.66,4.77-12.928,11.601
	c-3.613,46.39-10.655,136.275-10.821,139.367c-0.066,1.288-0.509,2.616-1.262,3.667l-46.317,64.61
	c-0.403,0.562-0.892,1.057-1.447,1.473c-26.61,19.892-108.482,77.175-109.308,77.75c-4.492,4.096-5.8,11.39-2.537,17.223
	c3.118,5.576,9.883,8.04,15.967,5.887c-0.007-0.02,96.326-43.424,126.484-57.363C218.123,283.258,219.094,283.047,220.072,283.047z"
	/>
</svg>
