<?xml version="1.0" encoding="utf-8"?>
<!-- Generator: Adobe Illustrator 16.0.0, SVG Export Plug-In . SVG Version: 6.00 Build 0)  -->
<!DOCTYPE svg PUBLIC "-//W3C//DTD SVG 1.1//EN" "http://www.w3.org/Graphics/SVG/1.1/DTD/svg11.dtd">
<svg version="1.1" id="Layer_1" xmlns="http://www.w3.org/2000/svg" xmlns:xlink="http://www.w3.org/1999/xlink" x="0px" y="0px"
	 width="512px" height="512px" viewBox="0 0 512 512" enable-background="new 0 0 512 512" xml:space="preserve">
<path fill="#5E686C" d="M290.138,508c-90.378,0-163.912-73.5-163.912-163.836V166.823c0-90.365,73.533-163.885,163.912-163.885
	c68.447,0,130.194,43.548,153.658,108.365c1.326,3.638-0.561,7.651-4.197,8.97c-3.597,1.326-7.644-0.561-8.956-4.197
	c-21.48-59.3-77.938-99.137-140.505-99.137c-82.667,0-149.91,67.237-149.91,149.884v177.341c0,82.617,67.244,149.833,149.91,149.833
	c62.567,0,119.024-39.828,140.505-99.128c1.312-3.63,5.374-5.503,8.956-4.196c3.637,1.318,5.523,5.33,4.197,8.967
	C420.332,464.45,358.585,508,290.138,508z"/>
<path fill="#69C299" d="M378.522,233.233H74.023c-3.87,0-7.001-3.131-7.001-7s3.131-7.001,7.001-7.001h304.499
	c3.868,0,7,3.131,7,7.001S382.39,233.233,378.522,233.233z"/>
<path fill="#69C299" d="M378.522,291.711H74.023c-3.87,0-7.001-3.13-7.001-7c0-3.868,3.131-7,7.001-7h304.499c3.868,0,7,3.132,7,7
	C385.522,288.581,382.39,291.711,378.522,291.711z"/>
</svg>
