<?xml version="1.0" encoding="utf-8"?>
<!-- Generator: Adobe Illustrator 16.0.0, SVG Export Plug-In . SVG Version: 6.00 Build 0)  -->
<!DOCTYPE svg PUBLIC "-//W3C//DTD SVG 1.1//EN" "http://www.w3.org/Graphics/SVG/1.1/DTD/svg11.dtd">
<svg version="1.1" id="Layer_1" xmlns="http://www.w3.org/2000/svg" xmlns:xlink="http://www.w3.org/1999/xlink" x="0px" y="0px"
	 width="512px" height="512px" viewBox="0 0 512 512" enable-background="new 0 0 512 512" xml:space="preserve">
<path fill="#5E686C" d="M257.83,405.54c-133.143,0-242.784-135.141-247.385-140.895c-1.933-2.421-1.946-5.856-0.026-8.292
	c4.53-5.753,112.524-140.907,247.411-140.907c133.116,0,242.771,135.115,247.38,140.869c1.938,2.433,1.938,5.896,0,8.33
	C500.602,270.399,390.947,405.54,257.83,405.54z M24.334,260.455C43.95,283.234,143.809,392.211,257.83,392.211
	c114.047,0,213.795-108.874,233.465-131.73c-19.683-22.845-119.521-131.705-233.465-131.705
	C142.234,128.776,43.709,237.623,24.334,260.455z"/>
<path fill="#69C299" d="M257.83,336.369c-60.906,0-110.454-49.557-110.454-110.461c0-60.906,49.548-110.461,110.454-110.461
	c60.899,0,110.442,49.556,110.442,110.461C368.273,286.812,318.73,336.369,257.83,336.369z M257.83,128.776
	c-53.558,0-97.125,43.567-97.125,97.132c0,53.564,43.567,97.131,97.125,97.131c53.545,0,97.113-43.567,97.113-97.131
	C354.944,172.343,311.375,128.776,257.83,128.776z"/>
<path fill="#5E686C" d="M257.83,267.146c-22.747,0-41.257-18.499-41.257-41.238c0-3.684,2.981-6.665,6.665-6.665
	c3.684,0,6.665,2.981,6.665,6.665c0,15.386,12.529,27.908,27.927,27.908c3.684,0,6.665,2.981,6.665,6.665
	C264.495,264.163,261.514,267.146,257.83,267.146z"/>
</svg>
