<?xml version="1.0" encoding="utf-8"?>
<!-- Generator: Adobe Illustrator 16.0.0, SVG Export Plug-In . SVG Version: 6.00 Build 0)  -->
<!DOCTYPE svg PUBLIC "-//W3C//DTD SVG 1.1//EN" "http://www.w3.org/Graphics/SVG/1.1/DTD/svg11.dtd">
<svg version="1.1" id="Layer_1" xmlns="http://www.w3.org/2000/svg" xmlns:xlink="http://www.w3.org/1999/xlink" x="0px" y="0px"
	 width="512px" height="512px" viewBox="0 0 512 512" enable-background="new 0 0 512 512" xml:space="preserve">
<path fill="#5E686C" d="M297.841,509.607h-99.334c-3.836,0-6.94-3.104-6.94-6.939V263.021h-42.721c-3.836,0-6.939-3.104-6.939-6.939
	v-73.962c0-3.836,3.104-6.939,6.939-6.939h42.721v-67.05c0-70.038,27.406-105.555,81.458-105.555h99.279
	c3.836,0,6.94,3.104,6.94,6.939c0,3.835-3.104,6.939-6.94,6.939h-99.279c-60.571,0-67.579,52.324-67.579,91.676v73.989
	c0,3.835-3.104,6.939-6.939,6.939h-42.721v60.083h42.721c3.835,0,6.939,3.104,6.939,6.939v239.647h92.395
	c3.835,0,6.939,3.104,6.939,6.939C304.781,506.503,301.676,509.607,297.841,509.607z"/>
<path fill="#69C299" d="M297.841,509.607c-3.835,0-6.939-3.104-6.939-6.939V256.081c0-3.836,3.104-6.939,6.939-6.939h67.524v-60.083
	h-67.524c-1.844,0-3.612-0.731-4.913-2.039c-1.301-1.308-2.034-3.077-2.026-4.92l0.114-41.257c0-28.53,13.053-39.651,46.551-39.651
	h27.799V9.514c0-3.836,3.104-6.939,6.938-6.939c3.836,0,6.94,3.104,6.94,6.939v98.616c0,3.836-3.104,6.939-6.94,6.939h-34.737
	c-29.445,0-32.671,8.261-32.671,25.792l-0.095,34.318h67.503c3.836,0,6.94,3.104,6.94,6.939v73.962c0,3.836-3.104,6.939-6.94,6.939
	h-67.523v239.647C304.781,506.503,301.676,509.607,297.841,509.607z"/>
</svg>
