<?xml version="1.0" encoding="utf-8"?>
<!-- Generator: Adobe Illustrator 16.0.0, SVG Export Plug-In . SVG Version: 6.00 Build 0)  -->
<!DOCTYPE svg PUBLIC "-//W3C//DTD SVG 1.1//EN" "http://www.w3.org/Graphics/SVG/1.1/DTD/svg11.dtd">
<svg version="1.1" id="Layer_1" xmlns="http://www.w3.org/2000/svg" xmlns:xlink="http://www.w3.org/1999/xlink" x="0px" y="0px"
	 width="512px" height="512px" viewBox="0 0 512 512" enable-background="new 0 0 512 512" xml:space="preserve">
<path fill="#5E686C" d="M153.419,88.882H11.399c-3.774,0-6.829-3.055-6.829-6.83V12.089c0-3.775,3.055-6.83,6.829-6.83h142.021
	c3.774,0,6.83,3.055,6.83,6.83v69.963C160.25,85.827,157.195,88.882,153.419,88.882z M18.229,75.223H146.59V18.919H18.229V75.223z"
	/>
<path fill="#5E686C" d="M501.774,509.5H11.192c-3.773,0-6.829-3.055-6.829-6.829v-384.83c0-3.775,3.056-6.83,6.829-6.83h141.98
	c3.774,0,6.83,3.055,6.83,6.83v95.96L499.8,111.304c2.065-0.627,4.308-0.24,6.042,1.054c1.732,1.294,2.761,3.321,2.761,5.482v384.83
	C508.604,506.445,505.549,509.5,501.774,509.5z M18.023,495.842h476.921V127.031L155.147,229.528
	c-2.061,0.64-4.314,0.227-6.049-1.054c-1.734-1.293-2.754-3.321-2.754-5.482V124.67H18.023V495.842z"/>
<path fill="#69C299" d="M256.697,402.121H153.419c-3.774,0-6.829-3.055-6.829-6.829V293.516c0-3.774,3.055-6.83,6.829-6.83h103.276
	c3.775,0,6.83,3.056,6.83,6.83v101.776C263.526,399.066,260.472,402.121,256.697,402.121z M160.25,388.462h89.618v-88.116H160.25
	V388.462z"/>
<path fill="#69C299" d="M430.977,402.121h-103.27c-3.775,0-6.829-3.055-6.829-6.829V293.516c0-3.774,3.054-6.83,6.829-6.83h103.27
	c3.775,0,6.83,3.056,6.83,6.83v101.776C437.807,399.066,434.752,402.121,430.977,402.121z M334.536,388.462h89.61v-88.116h-89.61
	V388.462z"/>
</svg>
