<?xml version="1.0" encoding="utf-8"?>
<!-- Generator: Adobe Illustrator 16.0.0, SVG Export Plug-In . SVG Version: 6.00 Build 0)  -->
<!DOCTYPE svg PUBLIC "-//W3C//DTD SVG 1.1//EN" "http://www.w3.org/Graphics/SVG/1.1/DTD/svg11.dtd">
<svg version="1.1" id="Layer_1" xmlns="http://www.w3.org/2000/svg" xmlns:xlink="http://www.w3.org/1999/xlink" x="0px" y="0px"
	 width="512px" height="512px" viewBox="0 0 512 512" enable-background="new 0 0 512 512" xml:space="preserve">
<path fill="#5E686C" d="M256.099,479.749c-2.066,0-4.104-0.925-5.453-2.689c-2.315-3.007-1.745-7.32,1.268-9.627
	c2.436-1.872,243.534-188.143,243.534-291.143c0-88.127-39.306-127.425-127.433-127.425c-42.778,0-82.486,21.299-106.199,56.967
	c-2.106,3.16-6.381,4.018-9.526,1.918c-3.16-2.1-4.018-6.366-1.918-9.526c26.277-39.512,70.25-63.098,117.644-63.098
	c94.99,0,141.171,46.173,141.171,141.164c0,109.736-238.75,294.243-248.913,302.038
	C259.031,479.286,257.556,479.749,256.099,479.749z"/>
<path fill="#69C299" d="M256.086,479.749c-1.422,0-2.857-0.442-4.091-1.355C241.824,470.834,3,291.915,3,176.29
	C3,51.897,74.371,35.126,144.184,35.126c47.381,0,91.354,23.586,117.631,63.098c2.1,3.16,1.24,7.426-1.919,9.526
	c-3.16,2.1-7.419,1.241-9.526-1.918c-23.714-35.668-63.414-56.967-106.187-56.967C77.993,48.865,16.74,64.301,16.74,176.29
	c0,108.795,241.017,289.263,243.453,291.076c3.045,2.268,3.675,6.567,1.415,9.612C260.259,478.789,258.185,479.749,256.086,479.749z
	"/>
</svg>
