<?xml version="1.0" encoding="utf-8"?>
<!-- Generator: Adobe Illustrator 16.0.0, SVG Export Plug-In . SVG Version: 6.00 Build 0)  -->
<!DOCTYPE svg PUBLIC "-//W3C//DTD SVG 1.1//EN" "http://www.w3.org/Graphics/SVG/1.1/DTD/svg11.dtd">
<svg version="1.1" id="Layer_1" xmlns="http://www.w3.org/2000/svg" xmlns:xlink="http://www.w3.org/1999/xlink" x="0px" y="0px"
	 width="512px" height="512px" viewBox="0 0 512 512" enable-background="new 0 0 512 512" xml:space="preserve">
<path fill="#69C299" d="M294.531,502.401c-0.862,0-1.733-0.169-2.565-0.521l-32.324-13.512c-2.423-1.015-4.021-3.353-4.086-5.978
	l-1.098-45.265l-11.103-11.146l-44.823-0.312c-2.683-0.013-5.093-1.65-6.105-4.132l-13.312-32.416
	c-0.993-2.416-0.474-5.196,1.325-7.094l31.208-32.896l0.053-15.682l-31.468-31.936c-1.884-1.91-2.436-4.756-1.402-7.225
	l13.485-32.299c1.015-2.43,3.347-4.027,5.971-4.094l45.277-1.155l11.142-11.082l0.338-44.836c0.02-2.676,1.644-5.08,4.119-6.093
	l32.391-13.343c2.416-1,5.203-0.481,7.111,1.325l32.896,31.233l15.734,0.065l31.856-31.455c1.931-1.884,4.773-2.442,7.242-1.403
	l32.299,13.499c2.43,1,4.027,3.339,4.094,5.964l1.156,45.304l11.121,11.121l44.822,0.325c2.678,0.013,5.08,1.65,6.106,4.117
	l13.316,32.416c0.988,2.431,0.469,5.224-1.338,7.121l-31.246,32.791l-0.039,15.761l31.467,31.935c1.871,1.91,2.43,4.756,1.392,7.225
	l-13.486,32.299c-1,2.417-3.338,4.027-5.963,4.093l-45.267,1.169L423.655,437.4l-0.299,44.771c-0.012,2.689-1.648,5.093-4.117,6.119
	l-32.454,13.33c-2.425,0.975-5.212,0.468-7.113-1.338l-32.844-31.233l-15.689-0.039l-31.934,31.48
	C297.93,501.738,296.246,502.401,294.531,502.401z M268.756,477.768l24.256,10.135l30.732-30.299
	c1.248-1.221,2.924-1.909,4.672-1.909c0.006,0,0.012,0,0.02,0l21.072,0.064c1.703,0,3.332,0.663,4.566,1.832l31.643,30.077
	l24.36-10.004l0.285-43.083c0.015-1.754,0.715-3.442,1.963-4.677l14.992-14.915c1.209-1.195,2.82-1.884,4.521-1.937l43.602-1.118
	l10.121-24.242l-30.285-30.739c-1.221-1.248-1.908-2.938-1.908-4.69l0.064-21.139c0-1.702,0.662-3.326,1.832-4.562l30.09-31.597
	l-9.992-24.321l-43.133-0.312c-1.742-0.013-3.418-0.714-4.652-1.948l-14.928-14.941c-1.209-1.208-1.902-2.832-1.949-4.534
	l-1.108-43.641l-24.244-10.134l-30.656,30.272c-1.26,1.247-3.356,2.104-4.703,1.923l-21.125-0.091
	c-1.694-0.013-3.325-0.663-4.553-1.832l-31.682-30.077l-24.316,10.017l-0.324,43.147c-0.014,1.754-0.715,3.431-1.961,4.664
	l-14.947,14.89c-1.208,1.195-2.826,1.896-4.528,1.937l-43.622,1.104l-10.121,24.243l30.285,30.74
	c1.234,1.247,1.923,2.937,1.917,4.689l-0.065,21.061c-0.006,1.688-0.655,3.325-1.824,4.548l-30.064,31.688l9.991,24.334
	l43.135,0.312c1.754,0.014,3.43,0.715,4.664,1.962l14.909,14.954c1.201,1.195,1.896,2.819,1.94,4.534L268.756,477.768z"/>
<path fill="#69C299" d="M339.069,401.373c-7.918,0-15.653-1.546-23.002-4.612c-14.721-6.158-26.166-17.694-32.233-32.52
	c-6.074-14.812-6.021-31.077,0.131-45.798c9.348-22.359,31.063-36.808,55.34-36.808c7.898,0,15.623,1.546,22.951,4.612
	c14.746,6.146,26.219,17.684,32.305,32.493c6.08,14.812,6.035,31.091-0.123,45.824C385.094,386.926,363.358,401.373,339.069,401.373
	z M339.303,294.939c-18.891,0-35.793,11.238-43.062,28.623c-4.787,11.459-4.82,24.112-0.099,35.638
	c4.723,11.524,13.615,20.502,25.049,25.283c5.711,2.378,11.728,3.586,17.877,3.586c18.91,0,35.82-11.238,43.091-28.622
	c4.793-11.474,4.825-24.127,0.09-35.65c-4.729-11.512-13.654-20.488-25.119-25.271C351.432,296.136,345.436,294.939,339.303,294.939
	z"/>
<path fill="#5E686B" d="M142.685,254.223h-25.406c-2.617,0-4.995-1.533-6.066-3.923L98.05,220.963l-9.205-3.794l-29.382,12.044
	c-2.449,1-5.314,0.455-7.225-1.455L34.232,209.75c-1.857-1.858-2.448-4.625-1.514-7.081l11.472-30.051l-3.794-9.153L11.08,151.168
	c-2.47-1.033-4.08-3.45-4.08-6.132v-25.439c0-2.625,1.546-5.002,3.942-6.074l29.35-13.109l3.794-9.179L32.043,61.808
	c-1.014-2.481-0.441-5.333,1.455-7.224l17.98-17.968c1.846-1.864,4.619-2.456,7.068-1.514l30.083,11.44l9.153-3.794l12.297-29.323
	c1.032-2.469,3.448-4.08,6.132-4.08h25.406c2.625,0,5.002,1.54,6.073,3.93l13.143,29.336l9.179,3.793l29.421-12.037
	c2.494-1,5.32-0.442,7.225,1.455l18,17.981c1.852,1.851,2.448,4.619,1.514,7.074l-11.459,30.077l3.793,9.198l29.285,12.252
	c2.475,1.039,4.086,3.456,4.086,6.139v25.413c0,2.624-1.54,5.002-3.938,6.074l-29.35,13.142l-3.787,9.199l12.05,29.414
	c1.015,2.481,0.442,5.327-1.455,7.224l-17.994,17.995c-1.852,1.871-4.632,2.468-7.08,1.507l-30.02-11.485l-9.205,3.807
	l-12.284,29.311C147.784,252.612,145.368,254.223,142.685,254.223z M121.586,240.919h16.675l11.635-27.765
	c0.675-1.624,1.968-2.91,3.592-3.573l14.188-5.859c1.579-0.65,3.333-0.676,4.917-0.065l28.459,10.888l11.81-11.81l-11.406-27.855
	c-0.663-1.624-0.656-3.43,0.006-5.054l5.84-14.174c0.649-1.579,1.877-2.839,3.436-3.541l27.836-12.459V122.97l-27.73-11.602
	c-1.624-0.682-2.911-1.975-3.58-3.599l-5.853-14.174c-0.649-1.565-0.677-3.326-0.071-4.911l10.868-28.511l-11.823-11.816
	l-27.862,11.4c-1.63,0.663-3.442,0.65-5.061-0.013l-14.155-5.847c-1.572-0.649-2.832-1.871-3.534-3.423l-12.459-27.823h-16.676
	L108.99,50.414c-0.676,1.618-1.962,2.897-3.586,3.573l-14.123,5.859c-1.553,0.656-3.333,0.683-4.91,0.072L57.839,49.069
	L46.035,60.866l11.4,27.862c0.663,1.624,0.656,3.443-0.013,5.061L51.57,107.95c-0.648,1.572-1.877,2.839-3.43,3.534l-27.836,12.427
	v16.702l27.765,11.647c1.617,0.676,2.903,1.968,3.573,3.586l5.854,14.123c0.648,1.572,0.675,3.326,0.07,4.924l-10.881,28.505
	l11.829,11.823l27.823-11.407c1.624-0.663,3.437-0.663,5.061,0.013l14.174,5.859c1.572,0.649,2.833,1.871,3.527,3.417
	L121.586,240.919z"/>
<path fill="#5E686B" d="M129.446,171.696c-22.003,0-39.905-17.91-39.905-39.925c0-22.002,17.902-39.899,39.905-39.899
	c22.01,0,39.918,17.896,39.918,39.899C169.365,153.786,151.455,171.696,129.446,171.696z M129.446,105.176
	c-14.668,0-26.602,11.934-26.602,26.595c0,14.681,11.934,26.621,26.602,26.621c14.675,0,26.614-11.94,26.614-26.621
	C156.06,117.109,144.12,105.176,129.446,105.176z"/>
</svg>
