<?xml version="1.0" encoding="utf-8"?>
<!-- Generator: Adobe Illustrator 16.0.0, SVG Export Plug-In . SVG Version: 6.00 Build 0)  -->
<!DOCTYPE svg PUBLIC "-//W3C//DTD SVG 1.1//EN" "http://www.w3.org/Graphics/SVG/1.1/DTD/svg11.dtd">
<svg version="1.1" id="Layer_1" xmlns="http://www.w3.org/2000/svg" xmlns:xlink="http://www.w3.org/1999/xlink" x="0px" y="0px"
	 width="512px" height="512px" viewBox="0 0 512 512" enable-background="new 0 0 512 512" xml:space="preserve">
<path fill="#5E686B" d="M257.334,112.589c-30.119,0-54.614-24.482-54.614-54.575c0-30.106,24.495-54.601,54.614-54.601
	c30.08,0,54.562,24.495,54.562,54.601C311.897,88.107,287.414,112.589,257.334,112.589z M257.334,17.06
	c-22.589,0-40.967,18.372-40.967,40.954c0,22.57,18.378,40.928,40.967,40.928c22.562,0,40.914-18.358,40.914-40.928
	C298.248,35.432,279.897,17.06,257.334,17.06z"/>
<path fill="#5E686B" d="M142.322,344.135c-0.119,0-0.253,0-0.372-0.014c-3.771-0.2-6.65-3.425-6.438-7.184l8.209-147.872
	c0.107-1.852,0.959-3.591,2.373-4.797l57.493-49.297c2.852-2.459,7.143-2.125,9.622,0.733c2.452,2.865,2.119,7.17-0.746,9.622
	l-55.281,47.404l-8.05,144.953C148.932,341.322,145.92,344.135,142.322,344.135z"/>
<path fill="#5E686B" d="M372.321,344.135c-3.598,0-6.608-2.812-6.809-6.45l-8.051-144.953l-55.281-47.404
	c-2.865-2.452-3.197-6.757-0.746-9.622c2.492-2.859,6.783-3.192,9.623-0.733l57.492,49.297c1.414,1.206,2.266,2.945,2.373,4.797
	l8.209,147.871c0.213,3.76-2.664,6.983-6.438,7.185C372.574,344.135,372.442,344.135,372.321,344.135z"/>
<path fill="#69C299" d="M339.457,393.418H175.186c-2.064,0-4.023-0.933-5.316-2.559c-1.307-1.612-1.786-3.72-1.347-5.744
	l32.838-147.864c0.812-3.665,4.425-5.951,8.144-5.185c3.678,0.82,5.997,4.465,5.185,8.143L183.69,379.771h147.265l-30.998-139.562
	c-0.812-3.678,1.506-7.323,5.184-8.143c3.732-0.766,7.33,1.52,8.144,5.185l32.838,147.864c0.44,2.024-0.039,4.132-1.347,5.744
	C343.481,392.485,341.522,393.418,339.457,393.418z"/>
<path fill="#5E686B" d="M290.172,508.418H224.47c-3.505,0-6.45-2.665-6.796-6.157l-6.397-65.263
	c-0.359-3.745,2.387-7.09,6.132-7.463c3.69-0.134,7.09,2.385,7.463,6.13l5.783,59.105h53.334l5.918-60.651
	c0.373-3.745,3.824-6.357,7.464-6.131c3.743,0.374,6.489,3.705,6.131,7.464l-6.531,66.809
	C296.623,505.753,293.678,508.418,290.172,508.418z"/>
</svg>
