<?xml version="1.0" encoding="utf-8"?>
<!-- Generator: Adobe Illustrator 16.0.0, SVG Export Plug-In . SVG Version: 6.00 Build 0)  -->
<!DOCTYPE svg PUBLIC "-//W3C//DTD SVG 1.1//EN" "http://www.w3.org/Graphics/SVG/1.1/DTD/svg11.dtd">
<svg version="1.1" id="Layer_1" xmlns="http://www.w3.org/2000/svg" xmlns:xlink="http://www.w3.org/1999/xlink" x="0px" y="0px"
	 width="512px" height="512px" viewBox="0 0 512 512" enable-background="new 0 0 512 512" xml:space="preserve">
<path fill="#5E686B" d="M509.222,11.126c-2.708-5.196-8.031-8.425-13.9-8.425H18.125c-5.857,0-11.194,3.229-13.902,8.432
	C1.528,16.33,1.928,22.532,5.211,27.229l220.114,327.47v107.422v39.062c0,3.775,3.056,6.832,6.828,6.832
	c3.776,0,6.831-3.057,6.832-6.833V462.12V352.617c0-1.36-0.399-2.683-1.159-3.815L16.484,19.504
	c-0.572-0.82-0.398-1.574-0.133-2.061c0.199-0.401,0.72-1.081,1.774-1.081h477.196c1.015,0,1.533,0.588,1.787,1.075
	c0.253,0.493,0.427,1.247-0.214,2.174L275.607,348.802c-0.76,1.133-1.16,2.455-1.16,3.815v70.708v38.796
	c0,3.775,3.057,6.831,6.83,6.831c3.775,0,6.831-3.056,6.831-6.831v-38.796v-68.626L508.168,27.335
	C511.517,22.532,511.93,16.323,509.222,11.126z"/>
<path fill="#69C299" d="M378.842,115.531c-2.081-2.308-5.483-2.961-8.258-1.507c-0.107,0.054-10.713,5.417-30.632,5.417
	c-24.241,0-51.19-7.538-80.102-22.4c-18.796-9.672-37.261-14.568-54.856-14.568c-45.573,0-69.787,32.179-70.788,33.54
	c-1.708,2.335-1.775,5.47-0.174,7.872l117.025,174.088c1.27,1.881,3.402,3.014,5.67,3.014c2.271,0,4.404-1.133,5.671-3.014
	l117.029-174.09C381.163,121.295,380.909,117.866,378.842,115.531z M256.729,281.91L148.267,120.577
	c7.125-7.538,26.455-24.441,56.728-24.44c15.408,0,31.766,4.389,48.614,13.047c30.857,15.875,59.913,23.92,86.344,23.92
	c6.815,0,12.739-0.561,17.729-1.361L256.729,281.91z"/>
</svg>
