<?xml version="1.0" encoding="utf-8"?>
<!-- Generator: Adobe Illustrator 16.0.0, SVG Export Plug-In . SVG Version: 6.00 Build 0)  -->
<!DOCTYPE svg PUBLIC "-//W3C//DTD SVG 1.1//EN" "http://www.w3.org/Graphics/SVG/1.1/DTD/svg11.dtd">
<svg version="1.1" id="Layer_1" xmlns="http://www.w3.org/2000/svg" xmlns:xlink="http://www.w3.org/1999/xlink" x="0px" y="0px"
	 width="512px" height="512px" viewBox="0 0 512 512" enable-background="new 0 0 512 512" xml:space="preserve">
<path fill="#5E686B" d="M474.213,79.374c-3.767,0-6.812,3.047-6.812,6.812v246.258c0,4.23-3.433,7.677-7.663,7.677H54.117
	c-4.231,0-7.679-3.446-7.679-7.677V86.186c0-3.765-3.046-6.812-6.812-6.812c-3.768,0-6.812,3.047-6.812,6.812v246.257
	c0,11.748,9.554,21.3,21.302,21.3h405.62c11.734,0,21.286-9.552,21.287-21.299V86.186C481.025,82.421,477.979,79.374,474.213,79.374
	z"/>
<path fill="#5E686B" d="M503.188,22.285H10.658c-3.767,0-6.812,3.046-6.812,6.812c0,3.766,3.047,6.812,6.812,6.812h492.529
	c3.764,0,6.812-3.046,6.812-6.812C510,25.331,506.951,22.285,503.188,22.285z"/>
<path fill="#69C299" d="M203.8,153.796c-2.482-2.494-6.46-2.674-9.18-0.419l-86.924,72.434c-2.887,2.408-3.277,6.705-0.869,9.592
	c2.406,2.887,6.705,3.286,9.599,0.865l82.139-68.443l82.525,82.519c1.277,1.278,3.006,1.996,4.814,1.996
	c1.812,0,3.54-0.718,4.817-1.996l104.25-104.262v55.996c0,3.766,3.046,6.812,6.812,6.812c3.767,0,6.812-3.047,6.813-6.812v-72.441
	c0-0.153-0.013-0.303-0.022-0.454c-0.005-0.068-0.004-0.136-0.011-0.205c-0.016-0.167-0.044-0.33-0.071-0.494
	c-0.009-0.054-0.014-0.108-0.023-0.162c-0.033-0.168-0.076-0.332-0.121-0.495c-0.014-0.049-0.023-0.099-0.038-0.148
	c-0.05-0.165-0.108-0.326-0.17-0.486c-0.019-0.046-0.032-0.093-0.051-0.139c-0.067-0.164-0.145-0.323-0.225-0.48
	c-0.02-0.04-0.037-0.082-0.058-0.121c-0.093-0.175-0.195-0.345-0.302-0.51c-0.015-0.02-0.024-0.041-0.037-0.061
	c-0.506-0.764-1.16-1.42-1.925-1.926c-0.035-0.023-0.072-0.043-0.108-0.066c-0.15-0.096-0.302-0.188-0.46-0.272
	c-0.059-0.031-0.118-0.056-0.177-0.084c-0.14-0.069-0.278-0.137-0.423-0.197c-0.068-0.028-0.139-0.05-0.207-0.076
	c-0.139-0.051-0.275-0.104-0.417-0.146c-0.077-0.023-0.156-0.04-0.234-0.06c-0.135-0.036-0.271-0.072-0.407-0.1
	c-0.102-0.02-0.204-0.031-0.307-0.047c-0.116-0.017-0.23-0.039-0.35-0.05c-0.207-0.02-0.414-0.03-0.622-0.031
	c-0.016,0-0.03-0.002-0.048-0.002h-72.428c-3.766,0-6.812,3.047-6.812,6.812c0,3.765,3.046,6.812,6.812,6.812h55.984l-99.438,99.447
	L203.8,153.796z"/>
<path fill="#5E686B" d="M361.5,485.76l-97.758-51.213v-47.264c0-3.768-3.048-6.812-6.812-6.812s-6.812,3.046-6.812,6.812v47.264
	L152.36,485.76c-3.333,1.756-4.624,5.867-2.874,9.206c1.736,3.326,5.867,4.591,9.193,2.874l98.25-51.474l98.237,51.474
	c1.012,0.52,2.089,0.771,3.167,0.771c2.445,0,4.814-1.33,6.04-3.646C366.116,491.627,364.826,487.516,361.5,485.76z"/>
</svg>
