<?xml version="1.0" encoding="utf-8"?>
<!-- Generator: Adobe Illustrator 16.0.0, SVG Export Plug-In . SVG Version: 6.00 Build 0)  -->
<!DOCTYPE svg PUBLIC "-//W3C//DTD SVG 1.1//EN" "http://www.w3.org/Graphics/SVG/1.1/DTD/svg11.dtd">
<svg version="1.1" id="Layer_1" xmlns="http://www.w3.org/2000/svg" xmlns:xlink="http://www.w3.org/1999/xlink" x="0px" y="0px"
	 width="512px" height="512px" viewBox="0 0 512 512" enable-background="new 0 0 512 512" xml:space="preserve">
<path fill="#5E686C" d="M499.926,20.51H10.786c-3.687,0-6.67-2.983-6.67-6.67c0-3.687,2.983-6.67,6.67-6.67h489.14
	c3.687,0,6.67,2.983,6.67,6.67C506.596,17.526,503.613,20.51,499.926,20.51z"/>
<path fill="#5E686C" d="M499.926,382.365H10.786c-3.687,0-6.67-2.983-6.67-6.671c0-3.687,2.983-6.67,6.67-6.67h489.14
	c3.687,0,6.67,2.983,6.67,6.67C506.596,379.382,503.613,382.365,499.926,382.365z"/>
<path fill="#5E686C" d="M499.926,500.836H10.786c-3.687,0-6.67-2.983-6.67-6.67s2.983-6.67,6.67-6.67h489.14
	c3.687,0,6.67,2.983,6.67,6.67S503.613,500.836,499.926,500.836z"/>
<path fill="#5E686C" d="M370.954,141.156c-3.687,0-6.67-2.983-6.67-6.67V13.853c0-3.687,2.983-6.67,6.67-6.67
	c3.688,0,6.671,2.983,6.671,6.67v120.634C377.625,138.173,374.642,141.156,370.954,141.156z"/>
<path fill="#5E686C" d="M129.166,141.143c-3.687,0-6.67-2.983-6.67-6.67V13.853c0-3.687,2.983-6.67,6.67-6.67
	c3.687,0,6.67,2.983,6.67,6.67v120.621C135.836,138.16,132.853,141.143,129.166,141.143z"/>
<path fill="#5E686C" d="M229.217,500.836c-3.687,0-6.67-2.983-6.67-6.67V376.815c0-3.688,2.983-6.67,6.67-6.67
	c3.687,0,6.67,2.982,6.67,6.67v117.351C235.887,497.853,232.904,500.836,229.217,500.836z"/>
<path fill="#5E686C" d="M454.33,500.836c-3.688,0-6.67-2.983-6.67-6.67V376.815c0-3.688,2.982-6.67,6.67-6.67
	c3.687,0,6.67,2.982,6.67,6.67v117.351C461,497.853,458.017,500.836,454.33,500.836z"/>
<path fill="#5E686C" d="M323.144,382.938c-3.687,0-6.67-2.982-6.67-6.67V255.654c0-3.687,2.983-6.67,6.67-6.67
	c3.688,0,6.671,2.983,6.671,6.67v120.614C329.815,379.955,326.831,382.938,323.144,382.938z"/>
<path fill="#5E686C" d="M71.911,382.938c-3.687,0-6.67-2.982-6.67-6.67V255.654c0-3.687,2.983-6.67,6.67-6.67
	c3.687,0,6.67,2.983,6.67,6.67v120.614C78.581,379.955,75.598,382.938,71.911,382.938z"/>
<path fill="#69C299" d="M499.926,141.13H10.786c-3.687,0-6.67-2.983-6.67-6.67c0-3.687,2.983-6.67,6.67-6.67h489.14
	c3.687,0,6.67,2.983,6.67,6.67C506.596,138.147,503.613,141.13,499.926,141.13z"/>
<path fill="#69C299" d="M499.926,261.751H10.786c-3.687,0-6.67-2.983-6.67-6.67c0-3.687,2.983-6.67,6.67-6.67h489.14
	c3.687,0,6.67,2.983,6.67,6.67C506.596,258.768,503.613,261.751,499.926,261.751z"/>
<path fill="#69C299" d="M248.667,261.764c-3.687,0-6.67-2.983-6.67-6.67V134.486c0-3.687,2.983-6.67,6.67-6.67
	c3.687,0,6.669,2.983,6.669,6.67v120.607C255.336,258.78,252.353,261.764,248.667,261.764z"/>
<path fill="#69C299" d="M417.645,261.764c-3.687,0-6.67-2.983-6.67-6.67V134.486c0-3.687,2.983-6.67,6.67-6.67s6.67,2.983,6.67,6.67
	v120.607C424.315,258.78,421.331,261.764,417.645,261.764z"/>
</svg>
