<?xml version="1.0" encoding="utf-8"?>
<!-- Generator: Adobe Illustrator 16.0.0, SVG Export Plug-In . SVG Version: 6.00 Build 0)  -->
<!DOCTYPE svg PUBLIC "-//W3C//DTD SVG 1.1//EN" "http://www.w3.org/Graphics/SVG/1.1/DTD/svg11.dtd">
<svg version="1.1" id="Layer_1" xmlns="http://www.w3.org/2000/svg" xmlns:xlink="http://www.w3.org/1999/xlink" x="0px" y="0px"
	 width="512px" height="512px" viewBox="0 0 512 512" enable-background="new 0 0 512 512" xml:space="preserve">
<path fill="#69C299" d="M433.815,269.445H76.147c-3.722,0-6.733-3.012-6.733-6.732s3.011-6.734,6.733-6.734h344.348l-75.55-102.538
	c-1.755-2.374-1.755-5.609,0-7.982l75.55-102.533H76.147c-3.722,0-6.733-3.011-6.733-6.733c0-3.721,3.011-6.732,6.733-6.732h357.668
	c2.538,0,4.866,1.426,6.009,3.695c1.146,2.269,0.921,4.984-0.591,7.029L358.727,149.45l80.506,109.273
	c1.512,2.043,1.736,4.76,0.591,7.027C438.681,268.02,436.353,269.445,433.815,269.445z"/>
<path fill="#5E686C" d="M76.147,507.9c-3.722,0-6.733-3.012-6.733-6.732V11.733C69.414,8.011,72.425,5,76.147,5
	c3.722,0,6.733,3.011,6.733,6.733v489.435C82.88,504.889,79.869,507.9,76.147,507.9z"/>
</svg>
