<?xml version="1.0" encoding="utf-8"?>
<!-- Generator: Adobe Illustrator 16.0.0, SVG Export Plug-In . SVG Version: 6.00 Build 0)  -->
<!DOCTYPE svg PUBLIC "-//W3C//DTD SVG 1.1//EN" "http://www.w3.org/Graphics/SVG/1.1/DTD/svg11.dtd">
<svg version="1.1" id="Layer_1" xmlns="http://www.w3.org/2000/svg" xmlns:xlink="http://www.w3.org/1999/xlink" x="0px" y="0px"
	 width="512px" height="512px" viewBox="0 0 512 512" enable-background="new 0 0 512 512" xml:space="preserve">
<path fill="#5E686C" d="M255.003,504.155C117.702,504.155,6,392.447,6,255.152C6,117.851,117.702,6.149,255.003,6.149
	c59.109,0,116.335,21.041,161.146,59.245c2.904,2.479,3.256,6.843,0.783,9.747c-2.498,2.911-6.855,3.269-9.754,0.777
	c-42.311-36.07-96.354-55.935-152.175-55.935c-129.675,0-235.169,105.494-235.169,235.169c0,129.675,105.494,235.17,235.169,235.17
	c129.669,0,235.162-105.494,235.162-235.17c0-55.631-19.764-109.56-55.631-151.837c-2.473-2.918-2.121-7.282,0.797-9.754
	c2.918-2.458,7.269-2.101,9.74,0.797C483.073,139.142,504,196.238,504,255.152C504,392.447,392.299,504.155,255.003,504.155z"/>
<path fill="#69C299" d="M200.851,445.322L200.851,445.322c-2.087,0-4.87-1.323-6.181-2.944s-2.021-4.77-1.58-6.81l33.84-143.887
	c-0.108-0.041-0.223-0.082-0.337-0.123l-43.115-14.468c-4.146-1.595-6.869-4.296-7.983-7.688c-1.102-3.377-0.534-7.077,1.601-10.414
	L302.158,68.893c1.547-2.412,4.165-3.891,6.963-3.891c2.141,0,4.938,1.378,6.248,3.066c1.561,2.013,2.073,4.62,1.411,7.16
	l-33.395,141.665l43.236,14.496c5.127,1.864,7.1,4.944,7.883,7.2c1.02,2.945,0.602,6.16-1.185,9.065l-125.153,193.44
	C206.674,443.647,203.884,445.322,200.851,445.322z M189.936,264.648l41.088,13.808c3.602,1.297,12.396,4.485,9.99,13.752
	l-26.85,114.153l105.304-162.746l-40.393-13.577c-3.479-1.256-12.104-4.377-9.423-15.185l26.229-111.262L189.936,264.648z"/>
</svg>
