<?xml version="1.0" encoding="utf-8"?>
<!-- Generator: Adobe Illustrator 16.0.0, SVG Export Plug-In . SVG Version: 6.00 Build 0)  -->
<!DOCTYPE svg PUBLIC "-//W3C//DTD SVG 1.1//EN" "http://www.w3.org/Graphics/SVG/1.1/DTD/svg11.dtd">
<svg version="1.1" id="Layer_1" xmlns="http://www.w3.org/2000/svg" xmlns:xlink="http://www.w3.org/1999/xlink" x="0px" y="0px"
	 width="512px" height="512px" viewBox="0 0 512 512" enable-background="new 0 0 512 512" xml:space="preserve">
<path fill="#5E686C" d="M465.895,479.611H47.23c-24.878,0-45.119-20.107-45.119-44.813V202.521c0-3.761,3.043-6.805,6.805-6.805
	c3.761,0,6.804,3.043,6.804,6.805v232.277c0,17.21,14.133,31.205,31.51,31.205h418.665c17.369,0,31.497-13.995,31.497-31.205
	V154.863c0-3.761,3.043-6.804,6.804-6.804c3.763,0,6.805,3.043,6.805,6.804v279.935C511,459.504,490.76,479.611,465.895,479.611z"/>
<path fill="#5E686C" d="M165.295,255.121H81.596c-39.49,0-64.575-15.868-78.954-49.956c-1.456-3.469,0.166-7.456,3.628-8.917
	c3.455-1.435,7.462,0.159,8.917,3.628c12.306,29.184,32.167,41.637,66.408,41.637h83.699c22.174,0,28.121-7.881,35.649-17.875
	c9.29-12.32,19.815-26.274,56.741-26.274h208.608c14.473,0,31.098-4.333,31.098-38.088c0-3.761,3.043-6.804,6.804-6.804
	c3.763,0,6.805,3.043,6.805,6.804c0,42.727-24.307,51.697-44.706,51.697H257.686c-30.142,0-37.431,9.662-45.876,20.865
	C203.576,242.749,194.247,255.121,165.295,255.121z"/>
<path fill="#69C299" d="M2.151,200.915l-0.041-64.709c0-45.025,9.037-96.696,79.486-96.696h83.699
	c28.972,0,38.301,12.492,46.534,23.509c8.445,11.296,15.735,21.064,45.856,21.064h208.608c20.399,0,44.706,9.037,44.706,52.122
	v23.071h-13.608v-23.071c0-34.142-16.625-38.514-31.098-38.514H257.686c-36.939,0-47.93-14.712-56.761-26.526
	c-7.528-10.087-13.475-18.047-35.629-18.047H81.596c-46.792,0-65.877,24.067-65.877,83.087l0.04,64.709H2.151z"/>
</svg>
