<?xml version="1.0" encoding="utf-8"?>
<!-- Generator: Adobe Illustrator 16.0.0, SVG Export Plug-In . SVG Version: 6.00 Build 0)  -->
<!DOCTYPE svg PUBLIC "-//W3C//DTD SVG 1.1//EN" "http://www.w3.org/Graphics/SVG/1.1/DTD/svg11.dtd">
<svg version="1.1" id="Layer_1" xmlns="http://www.w3.org/2000/svg" xmlns:xlink="http://www.w3.org/1999/xlink" x="0px" y="0px"
	 width="512px" height="512px" viewBox="0 0 512 512" enable-background="new 0 0 512 512" xml:space="preserve">
<path fill="#5E686C" d="M186.176,144.192c-0.255,0-0.509-0.013-0.757-0.04l-29.595-3.294c-1.889-0.215-3.596-1.193-4.735-2.713
	c-1.132-1.514-1.594-3.436-1.259-5.297l3.295-18.618c0.341-1.956,1.52-3.67,3.221-4.688l13.675-8.204l1.494-9.718l-1.855-7.421
	c-0.924-3.67,1.312-7.394,4.989-8.311c3.644-0.931,7.387,1.312,8.312,4.99l2.189,8.759c0.221,0.885,0.268,1.802,0.127,2.7
	l-2.19,14.265c-0.308,2.023-1.5,3.791-3.248,4.842l-13.756,8.251l-1.474,8.338l20.119,2.244l22.468-12.705l13.455-13.455
	c-1.748-2.712-3.161-6.202-2.792-10.153c0.314-3.429,2.116-8.284,8.874-11.968c10.474-5.726,16.381-13.381,16.435-13.455
	c2.283-3.013,6.576-3.609,9.604-1.319c3.014,2.284,3.623,6.557,1.353,9.577c-0.308,0.409-7.615,10.02-20.821,17.232
	c-1.266,0.697-1.761,1.246-1.842,1.406c0.094,0.563,1.54,2.565,2.933,3.737c1.467,1.232,2.371,3.047,2.451,4.97
	c0.081,1.915-0.623,3.797-1.982,5.157l-18.631,18.631c-0.436,0.442-0.931,0.817-1.474,1.119l-25.208,14.252
	C188.519,143.891,187.354,144.192,186.176,144.192z"/>
<path fill="#5E686C" d="M65.138,245.266c-2.679,0-5.224-1.581-6.329-4.212c-1.459-3.489,0.188-7.507,3.684-8.974l26.789-11.211
	c0.837-0.349,1.734-0.529,2.646-0.529c0.978-0.282,8.338-2.96,15.544-5.713l5.036-47.329c0.229-2.136,1.44-4.045,3.282-5.15
	l2.156-1.299v-44.543c0-3.79,3.067-6.857,6.858-6.857c3.791,0,6.858,3.067,6.858,6.857v48.421c0,2.404-1.259,4.634-3.322,5.88
	l-2.559,1.534l-5.116,48.105c-0.268,2.552-1.942,4.735-4.333,5.666c-14.593,5.679-20.071,7.4-22.489,7.916l-26.059,10.91
	C66.919,245.099,66.021,245.266,65.138,245.266z"/>
<path fill="#5E686C" d="M217.967,438.995c-2.036,0-4.052-0.897-5.404-2.625l-18.779-24.003l-20.541-10.247
	c-0.656-0.334-1.259-0.776-1.781-1.285l-5.478-5.485l-12.443-14.674c-1.045-1.238-1.621-2.806-1.621-4.426v-14.238
	c0-1.407,0.436-2.779,1.239-3.932c2.143-3.061,4.353-6.771,5.204-8.652c-0.301-1.373-0.388-2.833-0.355-4.246l-4.486-2.243
	l-18.438-10.248h-3.704c-1.942,0-3.797-0.823-5.096-2.27l-19.729-21.913c-2.017-2.237-2.338-5.532-0.784-8.117l0.161-0.268
	l-11.687-9.095l-15.973,7.105c-3.449,1.56-7.507-0.021-9.055-3.483c-1.534-3.462,0.02-7.513,3.482-9.054l19.724-8.773
	c2.317-1.004,5.009-0.702,6.999,0.857l19.73,15.35c2.739,2.13,3.455,5.968,1.667,8.94l-0.677,1.132l14.292,15.873h2.424
	c1.166,0,2.317,0.294,3.335,0.864l28.222,15.209c2.766,1.38,4.259,4.439,3.663,7.466c-0.274,1.414-0.428,3.35-0.321,3.986
	c0.857,1.566,2.484,4.855-6.121,17.641v9.596l14.727,16.603l20.936,10.455c0.91,0.455,1.708,1.111,2.33,1.901l19.73,25.209
	c2.338,2.987,1.808,7.3-1.172,9.63C220.934,438.514,219.441,438.995,217.967,438.995z"/>
<path fill="#5E686C" d="M300.155,406.125c-1.769,0-3.522-0.684-4.85-2.008l-17.532-17.541c-0.926-0.925-1.561-2.089-1.848-3.362
	l-4.387-19.715c-0.683-3.067,0.81-6.209,3.623-7.615l4.427-2.225l5.571-12.067c0.461-0.925,1.079-2.531,1.635-4.072l-7.931-7.923
	c-1.205-1.205-1.922-2.818-2.001-4.521l-0.892-18.859l-7.319-3.381l-16.683,9.261c-2.887,1.603-6.49,0.926-8.599-1.601
	l-16.435-19.716c-0.945-1.132-1.494-2.545-1.574-4.011l-1.092-19.73c-0.067-1.193,0.174-2.377,0.71-3.449l18.624-37.276
	l14.064-33.553c0.43-1.031,1.112-1.949,1.982-2.658c0,0,12.088-9.892,17.593-14.285c2.693-2.157,7.562-11.305,10.041-17.078
	c0.615-1.434,1.707-2.619,3.086-3.355l33.226-17.158l-4.608-11.492c-0.804-2.023-0.607-4.307,0.536-6.162
	c15.242-24.605,19.314-27.438,25.308-24.465c3.403,1.674,4.797,5.786,3.114,9.182c-0.764,1.554-2.036,2.686-3.516,3.302
	c-2.169,2.344-7.092,9.489-11.411,16.281l5.291,13.193c1.151,2.879,0.228,6.174-2.25,8.037l-4.387,3.294l-32.784,16.998
	c-2.316,5.069-7.661,15.805-13.085,20.139c-4.361,3.482-12.88,10.434-16.146,13.106l-13.596,32.395l-18.002,36.057l0.871,15.652
	l11.345,13.607l14.76-8.197c1.903-1.059,4.206-1.158,6.209-0.233l14.257,6.591c2.319,1.077,3.853,3.348,3.971,5.898l0.966,20.367
	l9.089,9.081c1.848,1.841,2.491,4.547,1.654,7.019c0,0-2.452,7.246-3.657,9.657l-6.49,14.057c-0.654,1.413-1.767,2.559-3.154,3.255
	l-1.786,0.897l2.792,12.552l12.175,12.175c4.654-3.12,9.041-6.263,10.058-7.34c0.904-1.595,6.479-14.004,11.239-24.96
	c0.341-0.792,0.831-1.507,1.438-2.117l25.216-25.194l13.093-18.298l9.585-22.025l-4.126-11.566l-6.818-7.796
	c-1.988-2.276-2.256-5.592-0.649-8.15l5.485-8.76c0.328-0.523,0.723-0.998,1.18-1.42c13.681-12.564,17.66-11.499,20.044-10.889
	c2.256,0.589,4.613,2.806,5.343,5.016c0.771,2.297,3.222,11.833,4.977,18.772l7.811-2.296l0.286-1.421
	c0.543-2.68,2.62-4.781,5.283-5.351l15.338-3.295c3.704-0.837,7.347,1.56,8.145,5.264c0.797,3.704-1.562,7.347-5.264,8.144
	l-10.944,2.351l-0.214,1.071c-0.503,2.498-2.351,4.507-4.788,5.224l-18.624,5.479c-1.809,0.51-3.725,0.296-5.345-0.622
	c-1.621-0.932-2.794-2.478-3.241-4.293c-1.255-5.003-3.041-12.055-4.435-17.387c-1.421,1.126-2.966,2.419-4.428,3.73l-2.276,3.637
	l4.32,4.943c0.562,0.649,1.005,1.399,1.292,2.209l5.479,15.351c0.588,1.641,0.528,3.442-0.168,5.042L374.393,318.7
	c-0.194,0.449-0.441,0.878-0.73,1.273l-14.245,19.742l-25.001,25.108c-7.693,17.674-10.479,23.453-11.812,25.684
	c-0.778,1.508-2.772,4.273-18.747,14.532C302.719,405.765,301.435,406.125,300.155,406.125z"/>
<path fill="#5E686C" d="M250.837,446.684c-106.512,0-193.167-86.661-193.167-193.18c0-106.512,86.655-193.16,193.167-193.16
	c106.511,0,193.166,86.648,193.166,193.16C444.002,360.022,357.348,446.684,250.837,446.684z M250.837,74.06
	c-98.951,0-179.45,80.5-179.45,179.444c0,98.957,80.5,179.464,179.45,179.464s179.452-80.507,179.452-179.464
	C430.288,154.56,349.787,74.06,250.837,74.06z"/>
<path fill="#69C299" d="M54.89,412.167c-22.958,0-39.901-5.88-47.784-19.269c-13.649-22.361,7.179-63.664,55.754-110.396
	c2.732-2.618,7.072-2.537,9.698,0.188c2.625,2.732,2.538,7.071-0.188,9.696c-47.852,46.037-61.279,80.716-53.503,93.46
	c17.231,29.279,133.307,6.188,272.393-73.622c106.969-62.264,189.765-136.595,201.324-180.757
	c1.955-7.453,1.595-13.535-1.072-18.062c-10.836-18.028-56.062-16.904-118.016,3.054c-3.611,1.165-7.468-0.817-8.633-4.427
	c-1.16-3.61,0.823-7.468,4.426-8.633c70.42-22.663,119.276-21.564,134.01,3.001c4.608,7.842,5.466,17.426,2.559,28.543
	c-12.604,48.153-96.083,124.171-207.733,189.155C211.739,373.671,113.632,412.167,54.89,412.167z"/>
</svg>
