<?xml version="1.0" encoding="utf-8"?>
<!-- Generator: Adobe Illustrator 16.0.0, SVG Export Plug-In . SVG Version: 6.00 Build 0)  -->
<!DOCTYPE svg PUBLIC "-//W3C//DTD SVG 1.1//EN" "http://www.w3.org/Graphics/SVG/1.1/DTD/svg11.dtd">
<svg version="1.1" id="Layer_1" xmlns="http://www.w3.org/2000/svg" xmlns:xlink="http://www.w3.org/1999/xlink" x="0px" y="0px"
	 width="512px" height="512px" viewBox="0 0 512 512" enable-background="new 0 0 512 512" xml:space="preserve">
<path fill="#5E686C" d="M260.497,302.678c-26.094,0-47.33-21.237-47.33-47.332c0-26.095,21.236-47.33,47.33-47.33
	c26.095,0,47.332,21.235,47.332,47.33C307.829,281.44,286.592,302.678,260.497,302.678z M260.497,221.54
	c-18.64,0-33.807,15.159-33.807,33.807c0,18.647,15.167,33.808,33.807,33.808c18.642,0,33.809-15.161,33.809-33.808
	C294.306,236.699,279.139,221.54,260.497,221.54z"/>
<path fill="#5E686C" d="M445.047,508.137c-67.701,0-178.896-65.7-276.694-163.49C36.398,212.691-28.034,70.382,21.666,20.681
	C32.832,9.509,48.746,3.85,68.951,3.85c67.708,0,178.902,65.707,276.7,163.498c62.122,62.128,111.769,129.427,139.794,189.501
	c28.993,62.147,31.436,109.9,6.866,134.464C481.151,502.472,465.251,508.137,445.047,508.137z M68.951,17.373
	c-16.495,0-29.186,4.332-37.723,12.87c-42.86,42.86,24.312,182.461,146.686,304.842c95.428,95.413,202.78,159.528,267.134,159.528
	c16.486,0,29.171-4.331,37.702-12.862c19.954-19.954,16.469-63.39-9.562-119.184c-27.375-58.688-76.06-124.613-137.099-185.659
	C240.662,81.482,133.304,17.373,68.951,17.373z"/>
<path fill="#69C299" d="M68.133,508.599c-19.936,0-35.624-5.586-46.638-16.6C-2.897,467.607-0.275,420,28.87,357.945
	c28.175-59.983,77.916-127.241,140.063-189.382C267.074,70.435,378.323,4.511,445.753,4.511c19.92,0,35.604,5.579,46.61,16.58
	c49.345,49.351-15.418,191.429-147.44,323.45C246.797,442.661,135.562,508.599,68.133,508.599z M445.753,18.034
	c-64.084,0-171.481,64.333-267.258,160.09c-61.072,61.072-109.861,126.97-137.383,185.566
	c-26.161,55.688-29.826,98.979-10.057,118.748c8.386,8.386,20.859,12.638,37.077,12.638c64.082,0,171.473-64.34,267.231-160.097
	C457.804,212.545,525.32,73.175,482.802,30.651C474.423,22.279,461.963,18.034,445.753,18.034z"/>
</svg>
