<?xml version="1.0" encoding="utf-8"?>
<!-- Generator: Adobe Illustrator 16.0.0, SVG Export Plug-In . SVG Version: 6.00 Build 0)  -->
<!DOCTYPE svg PUBLIC "-//W3C//DTD SVG 1.1//EN" "http://www.w3.org/Graphics/SVG/1.1/DTD/svg11.dtd">
<svg version="1.1" id="Layer_1" xmlns="http://www.w3.org/2000/svg" xmlns:xlink="http://www.w3.org/1999/xlink" x="0px" y="0px"
	 width="512px" height="512px" viewBox="0 0 512 512" enable-background="new 0 0 512 512" xml:space="preserve">
<path fill="#5E686B" d="M364.557,502.458c0.028-0.038,0.06-0.075,0.086-0.114c0.1-0.144,0.189-0.293,0.277-0.442
	c0.018-0.031,0.038-0.062,0.056-0.094c0.08-0.145,0.152-0.294,0.222-0.443c0.021-0.044,0.045-0.087,0.063-0.133
	c0.056-0.128,0.103-0.259,0.15-0.39c0.026-0.075,0.057-0.147,0.082-0.225c0.03-0.1,0.056-0.2,0.083-0.301
	c0.03-0.115,0.063-0.229,0.089-0.348c0.015-0.064,0.022-0.133,0.036-0.199c0.027-0.156,0.055-0.313,0.07-0.474
	c0.005-0.039,0.006-0.078,0.011-0.117c0.017-0.187,0.026-0.374,0.027-0.562c0-0.01,0.001-0.02,0.001-0.027
	c0-0.022-0.003-0.047-0.004-0.07c-0.002-0.188-0.01-0.375-0.028-0.562c-0.005-0.051-0.013-0.101-0.019-0.151
	c-0.02-0.162-0.042-0.324-0.074-0.487c-0.015-0.073-0.033-0.146-0.05-0.219c-0.023-0.102-0.041-0.203-0.069-0.306L278.268,187.2
	c21.688-6.615,37.51-26.789,37.509-50.591c0-29.19-23.751-52.941-52.938-52.941c-29.164,0-52.889,23.752-52.889,52.941
	c0,24.387,16.594,44.96,39.08,51.049L161.355,496.78c-0.015,0.053-0.021,0.104-0.036,0.157c-0.036,0.144-0.071,0.286-0.099,0.433
	c-0.017,0.089-0.027,0.178-0.041,0.267c-0.018,0.125-0.036,0.25-0.047,0.378c-0.009,0.109-0.012,0.219-0.016,0.327
	c-0.004,0.083-0.014,0.164-0.014,0.248c0,0.029,0.004,0.059,0.004,0.088c0.001,0.104,0.01,0.205,0.017,0.308
	c0.007,0.125,0.014,0.25,0.027,0.372c0.009,0.063,0.021,0.127,0.029,0.19c0.023,0.161,0.049,0.321,0.083,0.479
	c0.002,0.011,0.005,0.021,0.008,0.029c0.334,1.479,1.159,2.768,2.299,3.686c0.028,0.021,0.059,0.043,0.086,0.063
	c0.138,0.107,0.277,0.212,0.424,0.309c0.056,0.037,0.114,0.068,0.171,0.104c0.124,0.076,0.248,0.152,0.376,0.222
	c0.079,0.042,0.162,0.077,0.244,0.116c0.11,0.054,0.222,0.107,0.336,0.154c0.107,0.045,0.221,0.082,0.333,0.121
	c0.089,0.031,0.177,0.063,0.268,0.092c0.037,0.012,0.071,0.026,0.108,0.037c0.059,0.017,0.119,0.021,0.178,0.036
	c0.189,0.048,0.38,0.087,0.575,0.118c0.081,0.013,0.162,0.026,0.243,0.037c0.265,0.031,0.532,0.054,0.806,0.054h191.48
	c0.275,0,0.546-0.022,0.812-0.055c0.069-0.01,0.139-0.021,0.208-0.031c0.218-0.034,0.432-0.078,0.642-0.133
	c0.045-0.012,0.091-0.016,0.136-0.027c0.027-0.008,0.056-0.02,0.084-0.028c0.119-0.035,0.233-0.077,0.351-0.119
	c0.09-0.031,0.182-0.062,0.271-0.099c0.113-0.046,0.224-0.1,0.335-0.152c0.087-0.041,0.176-0.079,0.26-0.125
	c0.102-0.054,0.199-0.113,0.298-0.173c0.087-0.053,0.176-0.103,0.26-0.158c0.093-0.062,0.181-0.129,0.269-0.193
	c0.084-0.062,0.169-0.12,0.249-0.187c0.091-0.073,0.176-0.153,0.263-0.232c0.069-0.062,0.141-0.122,0.207-0.188
	c0.099-0.097,0.188-0.2,0.282-0.304c0.047-0.052,0.097-0.103,0.143-0.156C364.366,502.719,364.462,502.589,364.557,502.458z
	 M213.77,360.463h99.604l37.085,131.512h-173.99L213.77,360.463z M223.178,136.607c0-21.897,17.788-39.712,39.66-39.712
	c21.896,0,39.713,17.815,39.713,39.712c0,21.872-17.816,39.661-39.713,39.661C240.967,176.268,223.178,158.479,223.178,136.607z
	 M262.838,189.497c0.773,0,1.544-0.025,2.311-0.059l44.496,157.797h-92.123l44.743-157.753
	C262.456,189.484,262.646,189.497,262.838,189.497z"/>
<path fill="#69C299" d="M190.118,219.494c1.691,0,3.385-0.646,4.677-1.938c2.584-2.583,2.584-6.769,0-9.353
	c-37.167-37.166-37.167-102.393,0-139.573c2.584-2.584,2.584-6.77,0-9.354c-2.583-2.583-6.771-2.583-9.354,0
	c-42.89,42.904-42.89,115.39,0,158.28C186.733,218.848,188.426,219.494,190.118,219.494z"/>
<path fill="#69C299" d="M146.492,11.244c-2.583-2.583-6.771-2.583-9.354,0c-71.311,71.305-71.311,183.032,0,254.355
	c1.292,1.293,2.985,1.938,4.677,1.938c1.692,0,3.386-0.645,4.678-1.938c2.584-2.584,2.584-6.77,0-9.354
	c-66.062-66.079-66.066-169.583,0-235.65C149.076,18.014,149.076,13.828,146.492,11.244z"/>
<path fill="#69C299" d="M327.264,59.276c-2.584,2.584-2.584,6.77,0,9.354c37.167,37.179,37.167,102.4,0,139.573
	c-2.584,2.584-2.584,6.77,0,9.353c1.292,1.292,2.984,1.938,4.677,1.938c1.691,0,3.386-0.646,4.678-1.938
	c42.891-42.89,42.891-115.377,0-158.28C334.034,56.693,329.847,56.693,327.264,59.276z"/>
<path fill="#69C299" d="M384.92,11.244c-2.584-2.583-6.771-2.583-9.354,0c-2.583,2.584-2.583,6.77,0,9.353
	c66.062,66.072,66.062,169.584,0,235.65c-2.583,2.584-2.583,6.769,0,9.353c1.292,1.293,2.985,1.938,4.679,1.938
	c1.692,0,3.385-0.644,4.677-1.938C456.225,194.289,456.225,82.562,384.92,11.244z"/>
</svg>
