<?xml version="1.0" encoding="utf-8"?>
<!-- Generator: Adobe Illustrator 16.0.0, SVG Export Plug-In . SVG Version: 6.00 Build 0)  -->
<!DOCTYPE svg PUBLIC "-//W3C//DTD SVG 1.1//EN" "http://www.w3.org/Graphics/SVG/1.1/DTD/svg11.dtd">
<svg version="1.1" id="Layer_1" xmlns="http://www.w3.org/2000/svg" xmlns:xlink="http://www.w3.org/1999/xlink" x="0px" y="0px"
	 width="512px" height="512px" viewBox="0 0 512 512" enable-background="new 0 0 512 512" xml:space="preserve">
<path fill="#69C299" d="M450.96,311.137c-3.801,0-6.874-3.074-6.874-6.873c0-3.8,3.073-6.875,6.874-6.875
	c23.051,0,41.792-18.74,41.792-41.792c0-23.044-18.741-41.793-41.792-41.793c-3.801,0-6.874-3.074-6.874-6.874
	c0-3.8,3.073-6.874,6.874-6.874c30.622,0,55.54,24.917,55.54,55.541C506.5,286.221,481.582,311.137,450.96,311.137z"/>
<path fill="#5E686B" d="M402.307,392.238H126.525c-3.799,0-6.874-3.074-6.874-6.873c0-3.8,3.074-6.874,6.874-6.874h268.909v-245.79
	H126.525c-3.799,0-6.874-3.074-6.874-6.874c0-3.8,3.074-6.874,6.874-6.874h275.782c3.8,0,6.874,3.074,6.874,6.874v259.537
	C409.181,389.164,406.107,392.238,402.307,392.238z"/>
<path fill="#69C299" d="M223.872,344.848c-0.443,0-0.887-0.04-1.329-0.135c-3.732-0.724-6.162-4.336-5.423-8.054l31.925-163.48
	c0.725-3.738,4.35-6.195,8.067-5.43c3.732,0.724,6.162,4.336,5.438,8.061l-31.951,163.479
	C229.967,342.579,227.094,344.848,223.872,344.848z"/>
<path fill="#69C299" d="M142.77,344.848c-0.442,0-0.886-0.04-1.329-0.135c-3.731-0.724-6.163-4.336-5.438-8.054l31.952-163.48
	c0.711-3.738,4.362-6.195,8.055-5.43c3.732,0.724,6.162,4.336,5.423,8.061L149.51,339.289
	C148.865,342.579,145.992,344.848,142.77,344.848z"/>
<path fill="#69C299" d="M304.988,344.848c-0.442,0-0.887-0.04-1.328-0.12c-3.732-0.737-6.162-4.351-5.438-8.067l31.925-163.48
	c0.727-3.738,4.392-6.195,8.069-5.43c3.73,0.724,6.162,4.336,5.437,8.061L311.727,339.29
	C311.082,342.579,308.209,344.848,304.988,344.848z"/>
<path fill="#5E686B" d="M77.872,392.238H12.975c-3.799,0-6.874-3.074-6.874-6.873V125.828c0-3.799,3.075-6.874,6.874-6.874h64.897
	c3.799,0,6.874,3.074,6.874,6.874v259.537C84.746,389.164,81.672,392.238,77.872,392.238z M19.848,378.491h51.15v-245.79h-51.15
	V378.491z"/>
</svg>
