<?xml version="1.0" encoding="utf-8"?>
<!-- Generator: Adobe Illustrator 16.0.0, SVG Export Plug-In . SVG Version: 6.00 Build 0)  -->
<!DOCTYPE svg PUBLIC "-//W3C//DTD SVG 1.1//EN" "http://www.w3.org/Graphics/SVG/1.1/DTD/svg11.dtd">
<svg version="1.1" id="Layer_1" xmlns="http://www.w3.org/2000/svg" xmlns:xlink="http://www.w3.org/1999/xlink" x="0px" y="0px"
	 width="512px" height="512px" viewBox="0 0 512 512" enable-background="new 0 0 512 512" xml:space="preserve">
<path fill="#69C299" d="M502.235,4.62H371.628c-3.771,0-6.817,3.05-6.817,6.817s3.047,6.816,6.817,6.816h114.119l-230.224,228.07
	c-2.669,2.649-2.688,6.963-0.04,9.639c1.33,1.345,3.081,2.019,4.841,2.019c1.73,0,3.469-0.66,4.8-1.978L495.42,27.861v114.156
	c0,3.768,3.047,6.817,6.814,6.817c3.769,0,6.816-3.049,6.815-6.816V11.437C509.051,7.669,506.003,4.62,502.235,4.62z"/>
<path fill="#5E686B" d="M374.796,509.051H88.125c-46.045,0-83.504-37.465-83.504-83.504V138.876
	c0-46.046,37.458-83.504,83.504-83.504h184.049c3.768,0,6.817,3.049,6.817,6.817s-3.052,6.816-6.817,6.816H88.125
	c-38.53,0-69.87,31.341-69.87,69.871v286.671c0,38.53,31.34,69.871,69.87,69.871h286.671c38.527,0,69.869-31.341,69.869-69.871
	V234.708c0-3.768,3.05-6.816,6.816-6.816c3.77,0,6.815,3.049,6.815,6.816v190.839C458.299,471.586,420.842,509.051,374.796,509.051z
	"/>
</svg>
