<?xml version="1.0" encoding="utf-8"?>
<!-- Generator: Adobe Illustrator 16.0.0, SVG Export Plug-In . SVG Version: 6.00 Build 0)  -->
<!DOCTYPE svg PUBLIC "-//W3C//DTD SVG 1.1//EN" "http://www.w3.org/Graphics/SVG/1.1/DTD/svg11.dtd">
<svg version="1.1" id="Layer_1" xmlns="http://www.w3.org/2000/svg" xmlns:xlink="http://www.w3.org/1999/xlink" x="0px" y="0px"
	 width="512px" height="512px" viewBox="0 0 512 512" enable-background="new 0 0 512 512" xml:space="preserve">
<path fill="#5E686B" d="M307.085,433.227c1.219,0.151,2.438,0.233,3.63,0.233c14.026,0,25.971-10.507,27.793-24.465
	c1.959-15.328-8.904-29.416-24.218-31.402c-15.427-2.082-29.451,9.068-31.424,24.227
	C280.894,417.146,291.757,431.241,307.085,433.227z M296.784,403.611c0.902-6.973,6.861-12.231,13.861-12.231
	c0.604,0,1.205,0.041,1.835,0.116c7.657,1,13.097,8.048,12.109,15.705c-0.972,7.574-7.877,13.217-15.698,12.106
	C301.222,418.323,295.798,411.269,296.784,403.611z"/>
<path fill="#5E686B" d="M410.724,433.227c1.219,0.151,2.438,0.233,3.63,0.233c14.027,0,25.971-10.507,27.793-24.465
	c1.959-15.328-8.904-29.416-24.218-31.402c-15.383-2.082-29.45,9.068-31.423,24.227
	C384.534,417.146,395.396,431.241,410.724,433.227z M400.423,403.611c0.902-6.973,6.86-12.231,13.86-12.231
	c0.604,0,1.205,0.041,1.836,0.116c7.656,1,13.096,8.048,12.108,15.705c-0.986,7.574-7.93,13.217-15.697,12.106
	C404.861,418.323,399.437,411.269,400.423,403.611z"/>
<path fill="#5E686B" d="M501.487,214.291H263.032V7.014c0-3.877-3.139-7.014-7.015-7.014c-3.877,0-7.014,3.137-7.014,7.014v207.277
	H10.557c-3.876,0-7.013,3.138-7.013,7.014V501.84c0,3.877,3.137,7.014,7.013,7.014h490.93c3.877,0,7.015-3.137,7.016-7.014V221.305
	C508.501,217.428,505.364,214.291,501.487,214.291z M494.474,494.827H17.571V228.318h476.903V494.827z"/>
<path fill="#69C299" d="M61.404,368.586h63.121v63.12c0,3.877,3.139,7.014,7.015,7.014s7.014-3.137,7.014-7.014v-63.12h63.12
	c3.876,0,7.006-3.137,7.007-7.014c0-3.876-3.131-7.015-7.007-7.015h-63.12v-63.12c0-3.875-3.138-7.014-7.014-7.014
	s-7.015,3.139-7.015,7.014v63.12H61.404c-3.876,0-7.013,3.139-7.013,7.015C54.391,365.449,57.528,368.586,61.404,368.586z"/>
</svg>
