<?xml version="1.0" encoding="utf-8"?>
<!-- Generator: Adobe Illustrator 16.0.0, SVG Export Plug-In . SVG Version: 6.00 Build 0)  -->
<!DOCTYPE svg PUBLIC "-//W3C//DTD SVG 1.1//EN" "http://www.w3.org/Graphics/SVG/1.1/DTD/svg11.dtd">
<svg version="1.1" id="Layer_1" xmlns="http://www.w3.org/2000/svg" xmlns:xlink="http://www.w3.org/1999/xlink" x="0px" y="0px"
	 width="512px" height="512px" viewBox="0 0 512 512" enable-background="new 0 0 512 512" xml:space="preserve">
<path fill="#5E686B" d="M442.095,207.55H70.103c-3.894,0-7.045,3.151-7.045,7.045v287.447c0,3.894,3.151,7.045,7.045,7.045h371.992
	c3.894,0,7.045-3.151,7.045-7.045V214.595C449.14,210.701,445.989,207.55,442.095,207.55z M435.049,351.28H263.151V221.641h171.898
	V351.28z M249.054,221.641V351.28H77.149V221.641H249.054z M77.149,365.371h171.905v129.625H77.149V365.371z M263.151,494.996
	V365.371h171.898v129.625H263.151z"/>
<path fill="#69C299" d="M481.561,137.096h-86.818c11.082-14.432,17.108-32.003,17.108-50.502c0-45.837-37.292-83.128-83.114-83.128
	c-37.382,0-67.989,25.411-77.125,60.888c-11.642-16.968-31.167-28.125-53.251-28.125c-35.585,0-64.529,28.953-64.529,64.538
	c0,13.111,3.971,25.725,11.201,36.329H30.651c-3.894,0-7.045,3.151-7.045,7.045s3.151,7.045,7.045,7.045h450.91
	c3.893,0,7.045-3.151,7.045-7.045S485.453,137.096,481.561,137.096z M328.736,17.557c38.062,0,69.023,30.968,69.023,69.037
	c0,18.398-7.157,35.709-20.146,48.733c-0.529,0.534-0.953,1.132-1.278,1.769H262.903v-36.31c0-0.007,0.001-0.013,0.001-0.02
	c0-0.013-0.001-0.025-0.001-0.039V86.632c0-0.013,0.002-0.025,0.002-0.039C262.905,47.239,291.197,17.557,328.736,17.557z
	 M147.92,100.767c0-27.817,22.63-50.447,50.438-50.447c27.806,0,50.426,22.609,50.446,50.409v36.368h-85.418
	C153.525,127.597,147.92,114.53,147.92,100.767z"/>
</svg>
