<?xml version="1.0" encoding="utf-8"?>
<!-- Generator: Adobe Illustrator 16.0.0, SVG Export Plug-In . SVG Version: 6.00 Build 0)  -->
<!DOCTYPE svg PUBLIC "-//W3C//DTD SVG 1.1//EN" "http://www.w3.org/Graphics/SVG/1.1/DTD/svg11.dtd">
<svg version="1.1" id="Layer_1" xmlns="http://www.w3.org/2000/svg" xmlns:xlink="http://www.w3.org/1999/xlink" x="0px" y="0px"
	 width="512px" height="512px" viewBox="0 0 512 512" enable-background="new 0 0 512 512" xml:space="preserve">
<path fill="#69C299" d="M249.58,364.272c-1.201,0-2.414-0.31-3.521-0.972L111.923,283.63c-3.277-1.941-4.356-6.185-2.407-9.461
	c1.942-3.277,6.177-4.355,9.46-2.408l134.137,79.672c3.277,1.943,4.356,6.178,2.407,9.455
	C254.233,363.072,251.934,364.272,249.58,364.272z"/>
<path fill="#5E686C" d="M249.587,85.109c-22.846,0-41.43-18.584-41.43-41.431c0-22.847,18.584-41.431,41.43-41.431
	c22.847,0,41.431,18.584,41.431,41.431C291.018,66.524,272.434,85.109,249.587,85.109z M249.587,16.058
	c-15.233,0-27.621,12.387-27.621,27.621c0,15.233,12.387,27.621,27.621,27.621c15.234,0,27.621-12.388,27.621-27.621
	C277.207,28.445,264.821,16.058,249.587,16.058z"/>
<path fill="#5E686C" d="M393.104,274.743c-22.847,0-41.438-18.585-41.438-41.432c0-22.846,18.592-41.43,41.438-41.43
	c22.839,0,41.424,18.584,41.424,41.43C434.528,256.158,415.943,274.743,393.104,274.743z M393.104,205.692
	c-15.233,0-27.628,12.387-27.628,27.62c0,15.233,12.395,27.621,27.628,27.621c15.227,0,27.613-12.388,27.613-27.621
	C420.717,218.079,408.33,205.692,393.104,205.692z"/>
<path fill="#69C299" d="M115.45,193.864c-22.846,0-41.431-18.584-41.431-41.431s18.584-41.43,41.431-41.43
	s41.431,18.584,41.431,41.43S138.296,193.864,115.45,193.864z M115.45,124.813c-15.233,0-27.62,12.387-27.62,27.62
	c0,15.233,12.387,27.621,27.62,27.621s27.621-12.387,27.621-27.621C143.071,137.2,130.683,124.813,115.45,124.813z"/>
<path fill="#5E686C" d="M249.587,507.931c-3.816,0-6.905-3.089-6.905-6.904V79.89c0-3.817,3.089-6.905,6.905-6.905
	c3.817,0,6.905,3.088,6.905,6.905v421.137C256.492,504.842,253.404,507.931,249.587,507.931z"/>
<path fill="#5E686C" d="M429.315,507.931H69.852c-3.817,0-6.905-3.089-6.905-6.904c0-3.817,3.088-6.906,6.905-6.906h359.462
	c3.816,0,6.905,3.089,6.905,6.906C436.22,504.842,433.131,507.931,429.315,507.931z"/>
<path fill="#5E686C" d="M249.593,443.951c-2.239,0-4.43-1.078-5.758-3.089c-2.11-3.169-1.247-7.458,1.929-9.562l143.516-95.375
	c3.183-2.125,7.458-1.242,9.575,1.927c2.111,3.177,1.248,7.466-1.928,9.575L253.41,442.791
	C252.23,443.573,250.908,443.951,249.593,443.951z"/>
<path fill="#5E686C" d="M393.104,348.573c-3.817,0-6.905-3.081-6.905-6.897v-72.152c0-3.817,3.088-6.905,6.905-6.905
	c3.816,0,6.905,3.088,6.905,6.905v72.152C400.009,345.492,396.92,348.573,393.104,348.573z"/>
<path fill="#69C299" d="M115.45,284.601c-3.816,0-6.905-3.088-6.905-6.904v-89.039c0-3.816,3.089-6.905,6.905-6.905
	c3.817,0,6.905,3.089,6.905,6.905v89.039C122.355,281.513,119.267,284.601,115.45,284.601z"/>
</svg>
