<?xml version="1.0" encoding="utf-8"?>
<!-- Generator: Adobe Illustrator 16.0.0, SVG Export Plug-In . SVG Version: 6.00 Build 0)  -->
<!DOCTYPE svg PUBLIC "-//W3C//DTD SVG 1.1//EN" "http://www.w3.org/Graphics/SVG/1.1/DTD/svg11.dtd">
<svg version="1.1" id="Layer_1" xmlns="http://www.w3.org/2000/svg" xmlns:xlink="http://www.w3.org/1999/xlink" x="0px" y="0px"
	 width="512px" height="512px" viewBox="0 0 512 512" enable-background="new 0 0 512 512" xml:space="preserve">
<path fill="#69C299" d="M353.017,508.017H254.21c-3.872,0-7.006-3.133-7.006-7.006c0-3.871,3.134-7.006,7.006-7.006h91.801v-17.569
	c0-29.399-9.632-50.292-29.446-63.886c-2.422-1.664-3.558-4.674-2.818-7.527c0.739-2.853,3.188-4.939,6.116-5.221
	c13.096-1.259,25.424-3.059,36.631-5.363c11.028-2.292,22.837-5.631,35.109-9.927c12.11-4.248,23.126-9.366,32.718-15.215
	c9.414-5.741,18.69-13.391,27.559-22.729c8.661-9.161,16.104-19.8,22.126-31.609c5.938-11.809,10.728-26.236,14.202-42.876
	c3.558-16.79,5.364-35.59,5.364-55.896c0-38.429-12.671-71.584-37.67-98.54c-1.819-1.957-2.366-4.775-1.409-7.272
	c10.893-28.386,10.084-59.721-2.395-93.197l-5.569-0.664c-3.175-0.404-11.686,0.212-33.359,8.223
	c-16.968,6.281-36.412,16.824-57.798,31.328c-1.698,1.164-3.832,1.505-5.803,0.958c-30.281-8.409-62.177-12.671-94.771-12.671
	c-3.872,0-7.005-3.133-7.005-7.005s3.133-7.006,7.005-7.006c32.745,0,64.817,4.146,95.386,12.328
	c21.279-14.216,40.817-24.664,58.127-31.074c19.157-7.068,31.896-9.915,39.847-8.997l9.797,1.17
	c2.545,0.308,4.721,1.984,5.679,4.372c14.6,36.719,16.42,71.406,5.433,103.178c25.56,29.036,38.518,64.291,38.518,104.869
	c0,21.284-1.902,41.063-5.665,58.79c-3.722,17.803-8.908,33.388-15.421,46.311c-6.636,13.034-14.86,24.775-24.451,34.921
	c-9.729,10.241-19.965,18.67-30.433,25.047c-10.426,6.362-22.33,11.912-35.385,16.474c-12.848,4.503-25.259,8.013-36.903,10.435
	c-6.965,1.431-14.326,2.676-22.003,3.722c15.078,15.853,22.701,37.492,22.701,64.551v24.575
	C360.024,504.884,356.89,508.017,353.017,508.017z"/>
<path fill="#5E686C" d="M254.21,508.017h-97.274c-3.873,0-7.006-3.133-7.006-7.006v-24.575c0-27.188,7.499-48.828,22.331-64.551
	c-7.697-1.046-15.051-2.291-22.002-3.722c-11.638-2.415-24.063-5.918-36.938-10.435c-13.026-4.568-24.924-10.111-35.371-16.467
	c-10.481-6.39-20.709-14.818-30.404-25.054c-9.647-10.181-17.877-21.921-24.452-34.898c-6.486-12.822-11.692-28.407-15.482-46.339
	C3.889,257.148,2,237.376,2,216.187c0-40.584,12.951-75.839,38.505-104.862c-10.988-31.54-9.167-66.227,5.432-103.171
	c0.746-1.896,2.285-3.373,4.208-4.043c1.238-0.431,2.915-0.78,5.275-1.095c1.587-0.219,4.659-0.411,13.834,0.342
	c6.862,0.561,14.319,2.032,22.16,4.372c7.847,2.34,17.938,6.582,30.855,12.965c11.774,5.822,24.37,13.204,37.478,21.961
	c30.083-8.176,62.047-12.315,95.051-12.315v14.011c-32.867,0-64.625,4.263-94.387,12.657c-1.977,0.568-4.125,0.22-5.835-0.944
	c-13.553-9.202-26.511-16.878-38.512-22.81C104.036,27.31,94.39,23.239,87.405,21.153c-6.903-2.06-13.396-3.346-19.293-3.825
	c-7.211-0.588-9.749-0.527-10.516-0.459C45,50.674,44.145,82.111,55.071,110.36c0.964,2.498,0.425,5.323-1.396,7.287
	c-24.992,26.942-37.663,60.097-37.663,98.54c0,20.231,1.786,39.038,5.309,55.902c3.537,16.722,8.34,31.158,14.272,42.891
	c5.958,11.762,13.402,22.394,22.119,31.595c8.847,9.332,18.11,16.975,27.531,22.723c9.606,5.841,20.614,10.967,32.717,15.215
	c12.288,4.304,24.11,7.642,35.132,9.927c11.166,2.299,23.487,4.104,36.603,5.363c2.928,0.281,5.377,2.368,6.116,5.228
	c0.739,2.859-0.397,5.871-2.832,7.533c-19.54,13.334-29.036,34.229-29.036,63.873v17.569h90.269V508.017z"/>
</svg>
