<?xml version="1.0" encoding="utf-8"?>
<!-- Generator: Adobe Illustrator 16.0.0, SVG Export Plug-In . SVG Version: 6.00 Build 0)  -->
<!DOCTYPE svg PUBLIC "-//W3C//DTD SVG 1.1//EN" "http://www.w3.org/Graphics/SVG/1.1/DTD/svg11.dtd">
<svg version="1.1" id="Layer_1" xmlns="http://www.w3.org/2000/svg" xmlns:xlink="http://www.w3.org/1999/xlink" x="0px" y="0px"
	 width="512px" height="512px" viewBox="0 0 512 512" enable-background="new 0 0 512 512" xml:space="preserve">
<path fill="#5E686C" d="M286.531,248.353H218.6c-3.754,0-6.793-3.039-6.793-6.794c0-3.753,3.039-6.792,6.793-6.792h67.932
	c3.754,0,6.794,3.039,6.794,6.792C293.325,245.314,290.285,248.353,286.531,248.353z"/>
<path fill="#5E686C" d="M456.99,209.901c-1.737,0-3.475-0.663-4.803-1.99c-2.653-2.654-2.653-6.952,0-9.606l40.758-40.759
	c2.654-2.654,6.953-2.654,9.607,0c2.653,2.654,2.653,6.953,0,9.606l-40.759,40.758C460.467,209.238,458.728,209.901,456.99,209.901z
	"/>
<path fill="#5E686C" d="M54.191,204.516c-1.738,0-3.477-0.664-4.803-1.991L8.629,161.766c-2.653-2.653-2.653-6.952,0-9.606
	c2.654-2.653,6.953-2.653,9.606,0l40.759,40.759c2.653,2.654,2.653,6.953,0,9.606C57.667,203.852,55.929,204.516,54.191,204.516z"/>
<path fill="#69C299" d="M120.922,384.588c-59.932,0-108.69-48.76-108.69-108.691s48.758-108.69,108.69-108.69
	c59.93,0,108.69,48.759,108.69,108.69S180.852,384.588,120.922,384.588z M120.922,180.792c-52.442,0-95.104,42.67-95.104,95.104
	s42.662,95.104,95.104,95.104c52.441,0,95.104-42.67,95.104-95.104S173.363,180.792,120.922,180.792z"/>
<path fill="#69C299" d="M384.21,384.588c-59.932,0-108.691-48.76-108.691-108.691s48.76-108.69,108.691-108.69
	c59.93,0,108.69,48.759,108.69,108.69S444.14,384.588,384.21,384.588z M384.21,180.792c-52.442,0-95.105,42.67-95.105,95.104
	s42.663,95.104,95.105,95.104c52.44,0,95.104-42.67,95.104-95.104S436.651,180.792,384.21,180.792z"/>
</svg>
