<?xml version="1.0" encoding="utf-8"?>
<!-- Generator: Adobe Illustrator 16.0.0, SVG Export Plug-In . SVG Version: 6.00 Build 0)  -->
<!DOCTYPE svg PUBLIC "-//W3C//DTD SVG 1.1//EN" "http://www.w3.org/Graphics/SVG/1.1/DTD/svg11.dtd">
<svg version="1.1" id="Layer_1" xmlns="http://www.w3.org/2000/svg" xmlns:xlink="http://www.w3.org/1999/xlink" x="0px" y="0px"
	 width="512px" height="512px" viewBox="0 0 512 512" enable-background="new 0 0 512 512" xml:space="preserve">
<path fill="#69C299" d="M256.075,393.126c-140.698,0-250.924-56.468-250.924-128.552l0.312-18.02
	c0-71.969,110.077-128.436,250.598-128.436c140.535,0,250.611,56.467,250.611,128.558L507,264.444
	C507,336.658,396.775,393.126,256.075,393.126z M256.062,132.055c-130.491,0-236.661,51.418-236.661,114.622l-0.313,18.02
	c0,63.074,106.307,114.492,236.988,114.492c130.682,0,236.988-51.418,236.988-114.614l-0.326-17.769
	C492.738,183.473,386.567,132.055,256.062,132.055z"/>
<path fill="#5E686C" d="M256.075,506.74C117.759,506.74,5.219,394.2,5.219,255.877c0-138.324,112.54-250.856,250.856-250.856
	c138.317,0,250.856,112.533,250.856,250.856C506.932,394.2,394.393,506.74,256.075,506.74z M256.075,18.957
	c-130.64,0-236.92,106.279-236.92,236.92c0,130.647,106.28,236.927,236.92,236.927c130.642,0,236.919-106.279,236.919-236.927
	C492.994,125.236,386.717,18.957,256.075,18.957z"/>
<path fill="#5E686C" d="M247.392,506.277c-72.09,0-128.571-110.103-128.571-250.659c0-140.562,56.481-250.666,128.571-250.666
	c3.853,0,6.969,3.116,6.969,6.968s-3.116,6.968-6.969,6.968c-63.204,0-114.635,106.198-114.635,236.729
	c0,130.525,51.431,236.723,114.635,236.723c3.853,0,6.969,3.117,6.969,6.969S251.244,506.277,247.392,506.277z"/>
<path fill="#5E686C" d="M270.243,506.006c-3.852,0-6.968-3.116-6.968-6.969c0-3.852,3.116-6.969,6.968-6.969
	c63.205,0,114.636-106.074,114.636-236.45c0-130.375-51.431-236.443-114.636-236.443c-3.852,0-6.968-3.117-6.968-6.969
	c0-3.852,3.116-6.968,6.968-6.968c72.092,0,128.572,109.981,128.572,250.38C398.816,396.024,342.335,506.006,270.243,506.006z"/>
</svg>
