<?xml version="1.0" encoding="utf-8"?>
<!-- Generator: Adobe Illustrator 16.0.0, SVG Export Plug-In . SVG Version: 6.00 Build 0)  -->
<!DOCTYPE svg PUBLIC "-//W3C//DTD SVG 1.1//EN" "http://www.w3.org/Graphics/SVG/1.1/DTD/svg11.dtd">
<svg version="1.1" id="Layer_1" xmlns="http://www.w3.org/2000/svg" xmlns:xlink="http://www.w3.org/1999/xlink" x="0px" y="0px"
	 width="512px" height="512px" viewBox="0 0 512 512" enable-background="new 0 0 512 512" xml:space="preserve">
<path fill="#5E686B" d="M316.173,493.857h-28.159v-91.634c0-0.007,0.001-0.013,0.001-0.02c0-1.896-0.767-3.607-2.006-4.848
	c-1.24-1.24-2.953-2.008-4.848-2.008c-0.006,0-0.011,0.001-0.017,0.001C162.721,395.343,66.38,298.996,66.38,180.57
	c0-3.788-3.065-6.853-6.854-6.853s-6.853,3.065-6.853,6.853c0,123.702,98.804,224.738,221.634,228.375v84.912h-26.659
	c-3.788,0-6.852,3.062-6.852,6.852s3.062,6.854,6.852,6.854h68.524c3.788,0,6.853-3.064,6.853-6.854
	S319.961,493.857,316.173,493.857z"/>
<path fill="#69C299" d="M281.161,2.412c-98.244,0-178.165,79.92-178.165,178.157c0,98.238,79.921,178.167,178.165,178.167
	c98.235,0,178.163-79.929,178.163-178.166S379.398,2.412,281.161,2.412z M281.161,345.029c-90.683,0-164.459-73.771-164.459-164.459
	c0-90.676,73.776-164.454,164.459-164.454c90.688,0,164.458,73.779,164.458,164.454
	C445.619,271.258,371.849,345.029,281.161,345.029z"/>
</svg>
