<?xml version="1.0" encoding="utf-8"?>
<!-- Generator: Adobe Illustrator 16.0.0, SVG Export Plug-In . SVG Version: 6.00 Build 0)  -->
<!DOCTYPE svg PUBLIC "-//W3C//DTD SVG 1.1//EN" "http://www.w3.org/Graphics/SVG/1.1/DTD/svg11.dtd">
<svg version="1.1" id="Layer_1" xmlns="http://www.w3.org/2000/svg" xmlns:xlink="http://www.w3.org/1999/xlink" x="0px" y="0px"
	 width="512px" height="512px" viewBox="0 0 512 512" enable-background="new 0 0 512 512" xml:space="preserve">
<path fill="#5E686B" d="M256.011,206.779c-27.124,0-49.195,22.071-49.195,49.195c0,27.122,22.071,49.195,49.195,49.195
	c27.123,0,49.195-22.073,49.195-49.195C305.206,228.85,283.134,206.779,256.011,206.779z M256.011,291.114
	c-19.375,0-35.14-15.761-35.14-35.14c0-19.382,15.765-35.14,35.14-35.14c19.374,0,35.139,15.758,35.14,35.14
	C291.151,275.354,275.385,291.114,256.011,291.114z"/>
<path fill="#69C299" d="M256.011,108.389c-81.376,0-147.585,66.202-147.585,147.585S174.635,403.56,256.011,403.56
	c81.383,0,147.586-66.202,147.586-147.584S337.394,108.389,256.011,108.389z M256.011,389.503
	c-73.628,0-133.529-59.902-133.529-133.53c0-73.628,59.901-133.529,133.529-133.529s133.53,59.901,133.53,133.529
	C389.541,329.601,329.639,389.503,256.011,389.503z"/>
<path fill="#5E686B" d="M256.011,2.977C116.504,2.977,3.008,116.474,3.008,255.974c0,139.5,113.496,253.001,253.003,253.001
	c139.501,0,253.003-113.502,253.003-253.001C509.014,116.473,395.512,2.977,256.011,2.977z M263.038,494.81v-35.026
	c0-3.884-3.145-7.026-7.027-7.026c-3.885,0-7.028,3.142-7.028,7.026v35.026C122.797,491.146,20.838,389.188,17.175,263h35.028
	c3.884,0,7.024-3.141,7.024-7.026s-3.143-7.028-7.025-7.028H17.175C20.839,122.761,122.798,20.809,248.983,17.145v35.021
	c0,3.884,3.145,7.027,7.028,7.027s7.027-3.143,7.027-7.027V17.145c126.185,3.664,228.144,105.616,231.808,231.801h-36.729
	c-3.885,0-7.027,3.144-7.027,7.028c0,3.883,3.143,7.026,7.027,7.026h36.729C491.183,389.188,389.224,491.146,263.038,494.81z"/>
</svg>
