<?xml version="1.0" encoding="utf-8"?>
<!-- Generator: Adobe Illustrator 16.0.0, SVG Export Plug-In . SVG Version: 6.00 Build 0)  -->
<!DOCTYPE svg PUBLIC "-//W3C//DTD SVG 1.1//EN" "http://www.w3.org/Graphics/SVG/1.1/DTD/svg11.dtd">
<svg version="1.1" id="Layer_1" xmlns="http://www.w3.org/2000/svg" xmlns:xlink="http://www.w3.org/1999/xlink" x="0px" y="0px"
	 width="512px" height="512px" viewBox="0 0 512 512" enable-background="new 0 0 512 512" xml:space="preserve">
<path fill="#5E686B" d="M209.845,310.397c-96.291,0-145.113,27.013-145.113,80.274c0,54.871,41.515,88.967,108.335,88.967
	c72.062,0,111.735-26.57,111.736-74.83c0-42.355-33.921-66.525-58.694-84.165c-4.318-3.07-8.411-5.994-12.059-8.812
	C212.843,310.907,211.367,310.397,209.845,310.397z M271.068,404.809c0,50.499-53.289,61.097-98,61.097
	c-59.236,0-94.601-28.126-94.601-75.231c0-43.767,43.423-66.139,129.062-66.541c3.286,2.481,6.867,5.029,10.611,7.698
	C241.721,348.622,271.068,369.534,271.068,404.809z"/>
<path fill="#69C299" d="M326.704,4.248H167.072c-35.16,0-127.661,39.353-127.661,127.985c0,37.804,17.604,68.07,50.906,87.519
	c23.052,13.467,49.479,19.422,69.29,20.763c-5.899,13.265-5.592,31.118,14.521,52.485c0.932,1.02,1.683,1.877,2.28,2.602
	c-0.391,0.016-0.807,0.016-1.263,0.016c-17.107,0-167.137,3.219-167.137,114.599C8.009,478.459,82.691,509,156.703,509
	c50.895,0,98.59-14.19,124.464-37.034c31.372-27.725,47.601-63,45.695-99.349c-1.717-32.942-18.776-64.021-45.615-83.146
	c-27.725-19.729-48.997-35.825-49.654-48.594c-0.321-6.09,4.104-13.105,13.521-21.407c32.059-28.281,59.756-52.699,59.756-108.751
	c0-33.941-16.618-57.736-30.031-71.403c13.198-0.261,23.686-2.522,31.198-6.74c17.061-9.604,24.731-15.907,25.042-16.169
	c2.237-1.851,3.069-4.896,2.092-7.619C332.19,6.065,329.601,4.248,326.704,4.248z M299.3,20.607
	c-5.821,3.273-15.17,4.996-27.04,4.996c-9.201,0-16.592-1.066-16.659-1.08c-3.125-0.45-6.331,1.375-7.457,4.439
	c-1.113,3.058,0.067,6.478,2.83,8.195c0.402,0.248,40.158,25.416,40.158,73.562c0,49.849-24.317,71.296-55.113,98.45
	c-12.941,11.414-18.71,21.729-18.146,32.432c0.99,19.034,21.594,35.008,55.406,59.057c23.459,16.712,38.374,43.887,39.876,72.684
	c1.679,32.07-12.916,63.442-41.083,88.323c-23.473,20.723-67.682,33.6-115.369,33.6c-67.179,0-134.959-26.303-134.959-85.051
	c0-98.034,137.7-100.864,153.4-100.864c4.359,0,13.435,0,16.473-6.961c2.796-6.425-1.92-12.796-7.458-18.765
	c-16.144-17.155-18.384-31.573-7.05-45.375c1.726-2.092,2.046-5.002,0.847-7.417c-1.166-2.347-3.556-3.809-6.149-3.809
	c-0.094,0-0.188,0-0.282,0l-3.271,0.067c-32.018,0-115.108-17.034-115.108-94.855c0-79.122,82.549-114.25,113.928-114.25h136.805
	C302.439,18.823,300.923,19.702,299.3,20.607z"/>
<path fill="#5E686B" d="M160.418,20.398c-20.535,0-37.188,8.296-48.152,23.996c-9.383,13.454-14.345,31.923-14.345,53.437
	c0,57.695,34.713,121.989,84.521,121.989c21.764,0,39.268-7.685,50.642-22.232c9.816-12.568,15.009-30.152,15.009-50.848
	c0-57.239-38.415-126.369-86.124-126.369L160.418,20.398z M234.357,146.74c0,17.604-4.184,32.258-12.098,42.391
	c-8.792,11.254-22.191,16.954-39.816,16.954c-40.513,0-70.784-57.151-70.784-108.254c0-18.684,4.104-34.445,11.877-45.57
	c8.396-12.031,20.803-18.127,37.14-18.134l1.294-0.02C200.275,34.107,234.356,97.093,234.357,146.74z"/>
<path fill="#5E686B" d="M498.361,80.984h-61.807V19.179c0-3.796-3.071-6.868-6.867-6.868s-6.867,3.072-6.867,6.868v61.805h-61.807
	c-3.796,0-6.867,3.072-6.867,6.868c0,3.795,3.071,6.867,6.867,6.867h61.807v61.807c0,3.796,3.071,6.867,6.867,6.867
	s6.867-3.072,6.867-6.867V94.719h61.807c3.795,0,6.867-3.072,6.867-6.867C505.228,84.056,502.156,80.984,498.361,80.984z"/>
</svg>
