<?xml version="1.0" encoding="utf-8"?>
<!-- Generator: Adobe Illustrator 16.0.0, SVG Export Plug-In . SVG Version: 6.00 Build 0)  -->
<!DOCTYPE svg PUBLIC "-//W3C//DTD SVG 1.1//EN" "http://www.w3.org/Graphics/SVG/1.1/DTD/svg11.dtd">
<svg version="1.1" id="Layer_1" xmlns="http://www.w3.org/2000/svg" xmlns:xlink="http://www.w3.org/1999/xlink" x="0px" y="0px"
	 width="512px" height="512px" viewBox="0 0 512 512" enable-background="new 0 0 512 512" xml:space="preserve">
<path fill="#5E686C" d="M10.94,197.487c-2.505,0-4.921-1.354-6.16-3.736c-1.76-3.398-0.44-7.582,2.958-9.342L245.711,60.776
	c6.519-5.639,16.334-5.646,22.894-0.014l233.844,119.531c3.411,1.747,4.759,5.917,3.019,9.328c-1.739,3.412-5.909,4.752-9.328,3.019
	L261.463,72.683c-0.63-0.325-1.205-0.738-1.713-1.239c-1.422-1.394-3.75-1.394-5.172,0c-0.494,0.488-1.056,0.9-1.672,1.219
	L14.128,196.702C13.106,197.244,12.016,197.487,10.94,197.487z"/>
<path fill="#5E686C" d="M380.311,326.455H134.77c-10.053,0-17.925-6.241-17.925-14.215v-97.884c0-3.831,3.101-6.932,6.932-6.932
	c3.831,0,6.932,3.101,6.932,6.932v97.884c0.013-0.569,1.543,0.352,4.062,0.352h245.541c2.505,0,4.014-0.934,4.285-1.272
	l-0.244-101.729c0-3.831,3.101-6.932,6.932-6.932c3.832,0,6.932,3.101,6.932,6.932V312.24
	C398.215,320.214,390.35,326.455,380.311,326.455z"/>
<path fill="#69C299" d="M79.946,468.528c-3.832,0-6.932-3.101-6.932-6.932v-255.12c0-3.832,3.1-6.932,6.932-6.932
	c3.831,0,6.932,3.1,6.932,6.932v255.12C86.877,465.428,83.777,468.528,79.946,468.528z"/>
<path fill="#5E686C" d="M257.171,245.278c-0.406,0-0.819-0.041-1.232-0.108L10.77,201.089c-3.77-0.677-6.275-4.278-5.598-8.056
	c0.677-3.75,4.299-6.187,8.049-5.591l245.169,44.082c3.771,0.677,6.274,4.278,5.598,8.055
	C263.385,242.923,260.461,245.278,257.171,245.278z"/>
<path fill="#5E686C" d="M257.157,245.278c-3.202,0-6.072-2.22-6.769-5.483c-0.806-3.737,1.577-7.419,5.321-8.231l242.129-51.879
	c3.744-0.772,7.419,1.57,8.231,5.334c0.806,3.737-1.577,7.419-5.32,8.231l-242.13,51.879
	C258.125,245.224,257.639,245.278,257.157,245.278z"/>
</svg>
