<?xml version="1.0" encoding="utf-8"?>
<!-- Generator: Adobe Illustrator 16.0.0, SVG Export Plug-In . SVG Version: 6.00 Build 0)  -->
<!DOCTYPE svg PUBLIC "-//W3C//DTD SVG 1.1//EN" "http://www.w3.org/Graphics/SVG/1.1/DTD/svg11.dtd">
<svg version="1.1" id="Layer_1" xmlns="http://www.w3.org/2000/svg" xmlns:xlink="http://www.w3.org/1999/xlink" x="0px" y="0px"
	 width="512px" height="512px" viewBox="0 0 512 512" enable-background="new 0 0 512 512" xml:space="preserve">
<path fill="#69C299" d="M470.807,483c-0.402,0-0.805-0.039-1.208-0.104l-56.504-10.385c-1.689-0.312-3.196-1.272-4.197-2.677
	L284.714,296.361c-1.169-1.637-1.546-3.704-1.013-5.641l61.362-222.727c0.768-2.761,3.21-4.723,6.069-4.879
	c2.937-0.059,5.496,1.553,6.536,4.211l55.021,139.965c3.08,7.823-0.312,17.544-7.707,22.105l-21.363,13.086l120.636,167.652
	c1.064,1.481,1.469,3.327,1.13,5.12l-9.616,50.838c-0.351,1.833-1.442,3.432-3.014,4.405l-18.43,11.488
	C473.264,482.648,472.04,483,470.807,483z M418.151,459.907l51.318,9.435l13.774-8.59l8.537-45.159L368.625,244.432
	c-1.078-1.507-1.481-3.391-1.117-5.198c0.364-1.819,1.468-3.391,3.054-4.366l27.459-16.816c2.08-1.287,2.949-4.224,2.287-5.9
	L352.602,90.775l-55.229,200.427L418.151,459.907z"/>
<path fill="#5E686B" d="M173.033,504.039h-22.365c-1.729,0-3.404-0.675-4.64-1.884l-38.414-37.414
	c-1.286-1.261-2.015-2.978-2.015-4.771V260.846H81.858c-8.577,0-16.959-6.134-19.078-13.958L6.447,40.652
	c-1.117-4.119-0.416-8.485,1.924-11.988c2.481-3.723,6.602-6.199,11.306-6.803L142.195,5.793c5.913-0.728,15.219-1.293,21.248-1.293
	c5.913,0,15.399,0.578,21.131,1.287l122.61,16.082c4.717,0.604,8.851,3.1,11.331,6.855c2.327,3.516,3.003,7.882,1.846,11.982
	l-56.257,206.196c-2.079,7.797-10.486,13.944-19.154,13.944H221.22v199.126c0,1.885-0.793,3.679-2.197,4.938l-40.909,36.868
	C176.893,502.882,174.684,504.039,173.033,504.039z M153.371,490.732h17.128l37.414-33.724V254.192c0-3.678,2.975-6.654,6.652-6.654
	h30.384c2.885,0,5.809-2.248,6.303-4.093l56.282-206.3c-0.455-1.592-1.184-1.969-2.066-2.079L182.884,18.983
	c-5.146-0.637-14.074-1.176-19.441-1.176c-5.471,0-14.256,0.533-19.57,1.183L21.391,35.059c-0.91,0.116-1.611,0.48-1.962,1
	L75.62,243.392c0.507,1.884,3.404,4.146,6.237,4.146h30.396c3.678,0,6.654,2.977,6.654,6.654v202.973L153.371,490.732z"/>
<path fill="#69C299" d="M163.741,134.167c-25.68,0-46.562-20.89-46.562-46.562c0-25.692,20.883-46.588,46.562-46.588
	c25.69,0,46.588,20.896,46.588,46.588C210.329,113.277,189.433,134.167,163.741,134.167z M163.741,54.324
	c-18.337,0-33.256,14.932-33.256,33.281c0,18.336,14.919,33.255,33.256,33.255c18.349,0,33.28-14.918,33.28-33.255
	C197.023,69.255,182.091,54.324,163.741,54.324z"/>
</svg>
