<?xml version="1.0" encoding="utf-8"?>
<!-- Generator: Adobe Illustrator 16.0.0, SVG Export Plug-In . SVG Version: 6.00 Build 0)  -->
<!DOCTYPE svg PUBLIC "-//W3C//DTD SVG 1.1//EN" "http://www.w3.org/Graphics/SVG/1.1/DTD/svg11.dtd">
<svg version="1.1" id="Layer_1" xmlns="http://www.w3.org/2000/svg" xmlns:xlink="http://www.w3.org/1999/xlink" x="0px" y="0px"
	 width="512px" height="512px" viewBox="0 0 512 512" enable-background="new 0 0 512 512" xml:space="preserve">
<path fill="#5E686B" d="M468.394,190.814c-13.078-13.584-29.313-20.47-48.224-20.47c-4.315,0-8.584,0.4-12.739,1.172
	c-13.831-15.249-31.511-22.974-52.619-22.974c-8.837,0-17.439,1.551-25.638,4.621c-13.964-11.74-30.245-17.687-48.451-17.687
	c-0.546,0-1.178,0.013-1.905,0.04V82.923c0-21.162-7.47-39.661-22.191-54.984c-14.79-15.402-33.076-23.207-54.358-23.207
	c-21.036,0-39.248,7.545-54.104,22.421c-14.897,14.863-22.448,33.075-22.448,54.131v138.029c-8.923-3.583-18.499-5.394-28.594-5.394
	c-20.863,0-38.938,7.591-53.732,22.574c-14.769,14.983-22.261,33.135-22.261,53.978c0,17.048,5.134,32.523,15.256,46.027
	L141.03,476.032c7.146,9.31,16.223,16.794,26.996,22.228c10.821,5.46,22.349,8.218,34.241,8.218h195.562
	c13.467,0,25.698-4.194,36.366-12.465c10.615-8.284,17.659-19.11,20.938-32.203l25.022-100.19
	c5.207-20.283,7.857-41.459,7.857-62.969v-59.105C488.012,220.727,481.406,204.332,468.394,190.814z M474.371,298.65
	c0,20.361-2.503,40.393-7.443,59.61l-25.037,100.245c-2.544,10.202-7.804,18.299-16.075,24.745
	c-8.324,6.445-17.473,9.589-27.988,9.589H202.266c-9.748,0-19.205-2.275-28.101-6.752c-8.923-4.502-16.429-10.682-22.274-18.3
	L47.29,328.322c-8.432-11.242-12.526-23.627-12.526-37.852c0-17.367,6-31.885,18.333-44.39
	c12.306-12.466,26.703-18.526,44.023-18.526c11.612,0,22.354,2.891,31.931,8.579c2.104,1.264,4.735,1.277,6.852,0.066
	c2.134-1.212,3.45-3.476,3.45-5.927V81.284c0-17.546,6.032-32.089,18.445-44.482c12.392-12.406,26.936-18.432,44.469-18.432
	c17.673,0,32.23,6.219,44.519,19.017c12.372,12.872,18.393,27.769,18.393,45.535v59.919c0,0.031,0.005,0.062,0.005,0.093v29.059
	c0,3.769,3.049,6.819,6.818,6.819c3.769,0,6.817-3.05,6.816-6.819v-22.826c0.729-0.034,1.371-0.053,1.902-0.053
	c15.385,0,28.604,4.929,40.318,15.034v38.396c0,3.769,3.049,6.819,6.817,6.819c3.77,0,6.818-3.05,6.818-6.819v-36.855
	c6.454-2.318,13.206-3.51,20.134-3.51c17.803,0,32.037,6.425,43.474,19.603v55.629c0,3.77,3.049,6.819,6.819,6.819
	c3.768,0,6.818-3.049,6.818-6.819v-52.799c2.701-0.404,5.453-0.631,8.247-0.631c15.275,0,27.849,5.328,38.396,16.288
	c10.641,11.041,15.809,23.893,15.809,39.275V298.65L474.371,298.65z"/>
<path fill="#69C299" d="M254.567,283.652c-3.768,0-6.816,3.05-6.816,6.818v104.603c0,3.768,3.049,6.816,6.816,6.816
	c3.771,0,6.818-3.05,6.818-6.816V290.471C261.385,286.703,258.337,283.652,254.567,283.652z"/>
<path fill="#69C299" d="M327.257,283.652c-3.77,0-6.819,3.05-6.819,6.818v104.603c0,3.768,3.05,6.816,6.819,6.816
	c3.769,0,6.819-3.05,6.819-6.816V290.471C334.076,286.703,331.025,283.652,327.257,283.652z"/>
<path fill="#69C299" d="M399.934,283.652c-3.769,0-6.816,3.05-6.816,6.818v104.603c0,3.768,3.048,6.816,6.816,6.816
	s6.818-3.05,6.818-6.816V290.471C406.752,286.703,403.701,283.652,399.934,283.652z"/>
</svg>
