<?xml version="1.0" encoding="utf-8"?>
<!-- Generator: Adobe Illustrator 16.0.0, SVG Export Plug-In . SVG Version: 6.00 Build 0)  -->
<!DOCTYPE svg PUBLIC "-//W3C//DTD SVG 1.1//EN" "http://www.w3.org/Graphics/SVG/1.1/DTD/svg11.dtd">
<svg version="1.1" id="Layer_1" xmlns="http://www.w3.org/2000/svg" xmlns:xlink="http://www.w3.org/1999/xlink" x="0px" y="0px"
	 width="512px" height="512px" viewBox="0 0 512 512" enable-background="new 0 0 512 512" xml:space="preserve">
<path fill="#5E686C" d="M414.474,346.498H96.792c-3.752,0-6.789-3.036-6.789-6.79c0-3.752,3.037-6.788,6.789-6.788h317.682
	c3.753,0,6.789,3.036,6.789,6.788C421.263,343.462,418.227,346.498,414.474,346.498z"/>
<path fill="#5E686C" d="M414.474,409.032c-3.753,0-6.789-3.036-6.789-6.788V244.401c0-83.844-68.21-152.055-152.055-152.055
	c-83.837,0-152.049,68.21-152.049,152.055v157.843c0,3.752-3.036,6.788-6.789,6.788c-3.752,0-6.789-3.036-6.789-6.788V244.401
	c0-91.33,74.297-165.633,165.627-165.633c91.336,0,165.633,74.304,165.633,165.633v157.843
	C421.263,405.996,418.227,409.032,414.474,409.032z"/>
<path fill="#69C299" d="M403.879,410.041H107.381c-56.296,0-102.097-45.802-102.097-102.104c0-3.752,3.037-6.788,6.789-6.788
	s6.789,3.036,6.789,6.788c0,48.812,39.708,88.526,88.519,88.526h296.499c48.811,0,88.525-39.715,88.525-88.526
	c0-3.752,3.036-6.788,6.789-6.788s6.789,3.036,6.789,6.788C505.983,364.239,460.182,410.041,403.879,410.041z"/>
</svg>
