<?xml version="1.0" encoding="utf-8"?>
<!-- Generator: Adobe Illustrator 16.0.0, SVG Export Plug-In . SVG Version: 6.00 Build 0)  -->
<!DOCTYPE svg PUBLIC "-//W3C//DTD SVG 1.1//EN" "http://www.w3.org/Graphics/SVG/1.1/DTD/svg11.dtd">
<svg version="1.1" id="Layer_1" xmlns="http://www.w3.org/2000/svg" xmlns:xlink="http://www.w3.org/1999/xlink" x="0px" y="0px"
	 width="512px" height="512px" viewBox="0 0 512 512" enable-background="new 0 0 512 512" xml:space="preserve">
<path fill="#5E686B" d="M12.246,357.012c-3.729,0-6.746-3.018-6.746-6.746v-58.367c0-138.765,112.888-251.651,251.651-251.651
	c138.765,0,251.652,112.887,251.652,251.651v53.296c0,3.729-3.018,6.746-6.745,6.746c-3.729,0-6.747-3.019-6.747-6.746v-53.296
	c0-131.319-106.84-238.161-238.16-238.161c-131.319,0-238.159,106.84-238.159,238.161v58.366
	C18.992,353.994,15.975,357.012,12.246,357.012z"/>
<path fill="#69C299" d="M103.79,466.5c-30.186,0-54.731-24.545-54.731-54.73v-88.461c0-30.186,24.546-54.744,54.731-54.744
	c30.185,0,54.73,24.56,54.73,54.744v88.461C158.521,441.955,133.975,466.5,103.79,466.5z M103.79,282.057
	c-22.741,0-41.239,18.51-41.239,41.252v88.461c0,22.74,18.498,41.238,41.239,41.238c22.74,0,41.238-18.498,41.238-41.238v-88.461
	C145.029,300.566,126.531,282.057,103.79,282.057z"/>
<path fill="#69C299" d="M410.541,466.5c-30.185,0-54.73-24.545-54.73-54.73v-88.461c0-30.186,24.547-54.744,54.73-54.744
	c30.187,0,54.731,24.56,54.731,54.744v88.461C465.274,441.955,440.728,466.5,410.541,466.5z M410.541,282.057
	c-22.74,0-41.238,18.51-41.238,41.252v88.461c0,22.74,18.498,41.238,41.238,41.238c22.741,0,41.239-18.498,41.239-41.238v-88.461
	C451.781,300.566,433.282,282.057,410.541,282.057z"/>
</svg>
