<?xml version="1.0" encoding="utf-8"?>
<!-- Generator: Adobe Illustrator 16.0.0, SVG Export Plug-In . SVG Version: 6.00 Build 0)  -->
<!DOCTYPE svg PUBLIC "-//W3C//DTD SVG 1.1//EN" "http://www.w3.org/Graphics/SVG/1.1/DTD/svg11.dtd">
<svg version="1.1" id="Layer_1" xmlns="http://www.w3.org/2000/svg" xmlns:xlink="http://www.w3.org/1999/xlink" x="0px" y="0px"
	 width="512px" height="512px" viewBox="0 0 512 512" enable-background="new 0 0 512 512" xml:space="preserve">
<path fill="#5E686C" d="M191.915,332.211c-15.123,0-27.421-12.305-27.421-27.436c0-15.109,12.298-27.406,27.421-27.406
	c15.116,0,27.421,12.297,27.421,27.406C219.336,319.906,207.031,332.211,191.915,332.211z M191.915,291.08
	c-7.558,0-13.711,6.145-13.711,13.695c0,7.564,6.153,13.725,13.711,13.725c7.564,0,13.71-6.16,13.71-13.725
	C205.625,297.225,199.479,291.08,191.915,291.08z"/>
<path fill="#5E686C" d="M328.657,332.211c-15.131,0-27.434-12.305-27.434-27.436c0-15.109,12.303-27.406,27.434-27.406
	c15.116,0,27.407,12.297,27.407,27.406C356.065,319.906,343.774,332.211,328.657,332.211z M328.657,291.08
	c-7.566,0-13.724,6.145-13.724,13.695c0,7.564,6.157,13.725,13.724,13.725c7.551,0,13.696-6.16,13.696-13.725
	C342.354,297.225,336.208,291.08,328.657,291.08z"/>
<path fill="#69C299" d="M295.866,460.637c-18.904,0-34.274-15.375-34.274-34.275c0-18.898,15.37-34.275,34.274-34.275
	c18.906,0,34.277,15.377,34.277,34.275C330.144,445.262,314.773,460.637,295.866,460.637z M295.866,405.797
	c-11.34,0-20.565,9.227-20.565,20.564c0,11.342,9.226,20.564,20.565,20.564c11.342,0,20.566-9.223,20.566-20.564
	C316.433,415.023,307.208,405.797,295.866,405.797z"/>
<path fill="#5E686C" d="M397.264,246.112c-128.777,0.007-200.944-82.33-204.07-85.971c-2.397-3.133-4.05-2.792-5.898-0.341
	l-73.473,83.601c-2.497,2.845-6.842,3.119-9.673,0.623c-2.846-2.497-3.12-6.828-0.623-9.673l73.145-83.2
	c5.917-7.926,20.639-8.328,27.199,0.402c0.469,0.529,76.707,87.249,208.146,80.475c4.138-0.174,7.017,2.725,7.191,6.5
	c0.2,3.783-2.72,7.002-6.494,7.197C407.479,245.985,402.324,246.112,397.264,246.112z"/>
<path fill="#5E686C" d="M261.886,508.92c-96.75,0-166.975-72.924-166.975-173.402c0-3.789,3.066-6.857,6.855-6.857
	c3.789,0,6.854,3.068,6.854,6.857c0,92.533,64.455,159.691,153.265,159.691c88.81,0,153.277-64.789,153.277-154.055
	c0-3.789,3.066-6.855,6.855-6.855c3.79,0,6.854,3.066,6.854,6.855C428.873,436.799,357.082,508.92,261.886,508.92z"/>
<path fill="#69C299" d="M460.579,347.541h-27.42c-14.863,0-27.422-12.566-27.422-27.434v-95.974
	c0-14.855,12.559-27.407,27.422-27.407h27.42c14.861,0,27.421,12.552,27.421,27.407v95.974
	C488,334.975,475.441,347.541,460.579,347.541z M433.159,210.437c-7.177,0-13.711,6.527-13.711,13.697v95.974
	c0,7.182,6.534,13.723,13.711,13.723h27.42c7.177,0,13.711-6.541,13.711-13.723v-95.974c0-7.169-6.534-13.697-13.711-13.697H433.159
	z"/>
<path fill="#69C299" d="M324.855,433.004c-3.788,0-6.855-3.066-6.855-6.857c0-3.787,3.067-6.854,6.855-6.854h25.386
	c2.196-0.174,64.923-5.564,64.923-82.102c0-3.789,3.066-6.855,6.855-6.855c3.79,0,6.854,3.066,6.854,6.855
	c0,89.586-77.401,95.744-78.178,95.799L324.855,433.004z"/>
<path fill="#69C299" d="M87.962,348.01H60.354c-14.936,0-27.555-12.625-27.555-27.568v-96.629c0-14.935,12.619-27.555,27.555-27.555
	h8.335C69.405,89.567,156.414,3,263.265,3c107.193,0,194.409,89.768,194.409,200.113c0,3.79-3.065,6.855-6.854,6.855
	s-6.856-3.066-6.856-6.855c0-102.781-81.058-186.402-180.698-186.402c-99.287,0-180.149,80.415-180.866,179.547h5.563
	c14.942,0,27.567,12.62,27.567,27.555v96.629C115.53,335.385,102.905,348.01,87.962,348.01z M60.354,209.968
	c-7.244,0-13.844,6.601-13.844,13.844v96.629c0,7.25,6.601,13.857,13.844,13.857h27.608c7.25,0,13.858-6.607,13.858-13.857v-96.629
	c0-7.243-6.607-13.844-13.858-13.844H60.354z"/>
</svg>
