<?xml version="1.0" encoding="utf-8"?>
<!-- Generator: Adobe Illustrator 16.0.0, SVG Export Plug-In . SVG Version: 6.00 Build 0)  -->
<!DOCTYPE svg PUBLIC "-//W3C//DTD SVG 1.1//EN" "http://www.w3.org/Graphics/SVG/1.1/DTD/svg11.dtd">
<svg version="1.1" id="Layer_1" xmlns="http://www.w3.org/2000/svg" xmlns:xlink="http://www.w3.org/1999/xlink" x="0px" y="0px"
	 width="512px" height="512px" viewBox="0 0 512 512" enable-background="new 0 0 512 512" xml:space="preserve">
<path fill="#5E686C" d="M497.173,503.217H304.422c-3.805,0-6.884-3.079-6.884-6.884V303.582c0-3.805,3.079-6.884,6.884-6.884
	h192.751c3.805,0,6.884,3.079,6.884,6.884v192.751C504.057,500.138,500.978,503.217,497.173,503.217z M311.306,489.449h178.983
	V310.467H311.306V489.449z"/>
<path fill="#5E686C" d="M207.483,503.217H14.732c-3.805,0-6.884-3.079-6.884-6.884V303.582c0-3.805,3.079-6.884,6.884-6.884h192.75
	c3.805,0,6.884,3.079,6.884,6.884v192.751C214.366,500.138,211.287,503.217,207.483,503.217z M21.616,489.449h178.982V310.467
	H21.616V489.449z"/>
<path fill="#5E686C" d="M400.797,259.1h-289.69c-3.805,0-6.884-3.08-6.884-6.884c0-3.805,3.079-6.884,6.884-6.884h289.69
	c3.806,0,6.885,3.079,6.885,6.884C407.682,256.02,404.603,259.1,400.797,259.1z"/>
<path fill="#5E686C" d="M400.797,307.267c-3.805,0-6.884-3.079-6.884-6.884v-48.167c0-3.805,3.079-6.884,6.884-6.884
	c3.806,0,6.885,3.079,6.885,6.884v48.167C407.682,304.188,404.603,307.267,400.797,307.267z"/>
<path fill="#5E686C" d="M111.107,307.267c-3.805,0-6.884-3.079-6.884-6.884v-48.167c0-3.805,3.079-6.884,6.884-6.884
	c3.805,0,6.884,3.079,6.884,6.884v48.167C117.991,304.188,114.912,307.267,111.107,307.267z"/>
<path fill="#5E686C" d="M255.952,259.1c-3.805,0-6.884-3.08-6.884-6.884V209.93c0-3.805,3.079-6.884,6.884-6.884
	s6.884,3.079,6.884,6.884v42.285C262.836,256.02,259.757,259.1,255.952,259.1z"/>
<path fill="#69C299" d="M352.61,216.814H159.86c-3.805,0-6.884-3.079-6.884-6.884V10.767c0-3.805,3.079-6.884,6.884-6.884h192.75
	c3.806,0,6.885,3.079,6.885,6.884V209.93C359.494,213.735,356.415,216.814,352.61,216.814z M166.743,203.046h178.982V17.65H166.743
	V203.046z"/>
</svg>
