<?xml version="1.0" encoding="utf-8"?>
<!-- Generator: Adobe Illustrator 16.0.0, SVG Export Plug-In . SVG Version: 6.00 Build 0)  -->
<!DOCTYPE svg PUBLIC "-//W3C//DTD SVG 1.1//EN" "http://www.w3.org/Graphics/SVG/1.1/DTD/svg11.dtd">
<svg version="1.1" id="Layer_1" xmlns="http://www.w3.org/2000/svg" xmlns:xlink="http://www.w3.org/1999/xlink" x="0px" y="0px"
	 width="512px" height="512px" viewBox="0 0 512 512" enable-background="new 0 0 512 512" xml:space="preserve">
<path fill="#69C299" d="M324.226,502.991c-3.794,0-6.865-3.07-6.865-6.865V298.923H195.229V493.23c0,3.794-3.071,6.864-6.865,6.864
	s-6.865-3.07-6.865-6.864V292.059c0-3.795,3.07-6.865,6.865-6.865h135.862c3.794,0,6.865,3.07,6.865,6.865v204.067
	C331.091,499.921,328.02,502.991,324.226,502.991z"/>
<path fill="#5E686C" d="M426.85,507.04H85.753c-3.794,0-6.865-3.07-6.865-6.864V223.678c0-3.794,3.071-6.865,6.865-6.865
	s6.865,3.071,6.865,6.865v269.633h327.367V223.678c0-3.794,3.07-6.865,6.865-6.865s6.865,3.071,6.865,6.865v276.498
	C433.715,503.97,430.645,507.04,426.85,507.04z"/>
<path fill="#5E686C" d="M503.436,215.097c-1.395,0-2.789-0.416-3.996-1.28L256.301,39.903L13.163,213.816
	c-3.097,2.199-7.375,1.481-9.58-1.589c-2.206-3.084-1.495-7.374,1.589-9.58l247.134-176.77c2.387-1.703,5.604-1.703,7.991,0
	l247.134,176.77c3.084,2.206,3.795,6.496,1.583,9.58C507.672,214.098,505.568,215.097,503.436,215.097z"/>
</svg>
