<?xml version="1.0" encoding="utf-8"?>
<!-- Generator: Adobe Illustrator 16.0.0, SVG Export Plug-In . SVG Version: 6.00 Build 0)  -->
<!DOCTYPE svg PUBLIC "-//W3C//DTD SVG 1.1//EN" "http://www.w3.org/Graphics/SVG/1.1/DTD/svg11.dtd">
<svg version="1.1" id="Layer_1" xmlns="http://www.w3.org/2000/svg" xmlns:xlink="http://www.w3.org/1999/xlink" x="0px" y="0px"
	 width="512px" height="512px" viewBox="0 0 512 512" enable-background="new 0 0 512 512" xml:space="preserve">
<path fill="#5E686B" d="M499.13,250.368L263.659,14.896c-2.455-2.455-6.804-2.455-9.259,0L18.944,250.367
	c-2.557,2.557-2.557,6.699,0,9.257c1.278,1.278,2.953,1.918,4.628,1.918c1.676,0,3.351-0.64,4.63-1.918L259.03,28.781
	l230.844,230.844c2.559,2.557,6.699,2.557,9.258,0C501.688,257.066,501.688,252.925,499.13,250.368z"/>
<path fill="#5E686B" d="M453.522,248.641c-3.542-0.843-7.07,1.253-7.938,4.77L388.21,483.907h-58.411v-94.356
	c0-3.619-2.928-6.547-6.546-6.547h-128.33c-3.618,0-6.546,2.928-6.546,6.547v94.356H129.79L70.967,253.372
	c-0.896-3.491-4.456-5.614-7.959-4.719c-3.503,0.896-5.619,4.463-4.724,7.966l60.077,235.458c0.008,0.028,0.021,0.054,0.029,0.082
	c0.086,0.321,0.193,0.635,0.326,0.935c0.019,0.042,0.04,0.081,0.059,0.122c0.137,0.291,0.288,0.571,0.463,0.837
	c0.012,0.018,0.021,0.035,0.031,0.051c0.18,0.267,0.381,0.514,0.597,0.749c0.038,0.042,0.074,0.085,0.114,0.126
	c0.217,0.228,0.45,0.438,0.697,0.631c0.035,0.026,0.07,0.053,0.105,0.078c0.528,0.396,1.117,0.716,1.754,0.938
	c0.025,0.01,0.052,0.02,0.079,0.029c0.306,0.103,0.621,0.183,0.945,0.238c0.051,0.011,0.103,0.017,0.152,0.023
	c0.324,0.05,0.654,0.083,0.992,0.083H393.33c0.339,0,0.669-0.033,0.993-0.083c0.053-0.008,0.104-0.015,0.155-0.023
	c0.323-0.058,0.637-0.138,0.941-0.239c0.033-0.012,0.063-0.023,0.097-0.035c0.626-0.222,1.206-0.535,1.728-0.926
	c0.047-0.034,0.096-0.068,0.142-0.104c0.233-0.186,0.456-0.387,0.663-0.603c0.056-0.059,0.105-0.116,0.158-0.177
	c0.199-0.223,0.389-0.452,0.556-0.7c0.032-0.049,0.059-0.101,0.09-0.148c0.149-0.236,0.284-0.483,0.403-0.738
	c0.025-0.057,0.056-0.109,0.081-0.167c0.125-0.291,0.226-0.594,0.309-0.904c0.011-0.038,0.028-0.071,0.038-0.11l58.607-235.458
	C459.159,253.065,457.025,249.511,453.522,248.641z M201.469,396.097h115.236v87.812H201.469V396.097z"/>
<path fill="#69C299" d="M259.03,258.588c39.021,0,70.77-31.798,70.771-70.883c0-39.073-31.748-70.87-70.771-70.87
	c-39.008,0-70.755,31.797-70.755,70.87C188.275,226.79,220.022,258.588,259.03,258.588z M259.03,129.927
	c31.799,0,57.678,25.917,57.678,57.778c0,31.861-25.878,57.791-57.678,57.791c-31.797,0-57.66-25.93-57.66-57.791
	C201.368,155.844,227.233,129.927,259.03,129.927z"/>
</svg>
