<?xml version="1.0" encoding="utf-8"?>
<!-- Generator: Adobe Illustrator 16.0.0, SVG Export Plug-In . SVG Version: 6.00 Build 0)  -->
<!DOCTYPE svg PUBLIC "-//W3C//DTD SVG 1.1//EN" "http://www.w3.org/Graphics/SVG/1.1/DTD/svg11.dtd">
<svg version="1.1" id="Layer_1" xmlns="http://www.w3.org/2000/svg" xmlns:xlink="http://www.w3.org/1999/xlink" x="0px" y="0px"
	 width="512px" height="512px" viewBox="0 0 512 512" enable-background="new 0 0 512 512" xml:space="preserve">
<path fill="#5E686B" d="M259.453,510c-0.625,0-1.251-0.08-1.852-0.253L81.007,459.905c-2.723-0.772-4.687-3.143-4.939-5.964
	L36.702,11.228c-0.166-1.91,0.473-3.794,1.764-5.205s3.115-2.216,5.025-2.216L476.633,3.82c1.917,0,3.74,0.805,5.031,2.216
	c1.292,1.411,1.932,3.302,1.759,5.205l-39.393,442.7c-0.253,2.821-2.224,5.205-4.953,5.964l-177.786,49.842
	C260.692,509.92,260.079,510,259.453,510z M89.227,448.058l170.228,48.044l171.411-48.058l38.312-430.592L50.94,17.438
	L89.227,448.058z"/>
<path fill="#69C299" d="M382.182,237.68H135.494c-3.534,0-6.483-2.703-6.789-6.217l-11.39-129.73
	c-0.167-1.91,0.474-3.794,1.765-5.205c1.291-1.404,3.114-2.21,5.024-2.21h271.921c3.769,0,6.815,3.049,6.815,6.816
	c0,3.768-3.048,6.816-6.815,6.816H131.547l10.19,116.098h240.444c3.768,0,6.815,3.049,6.815,6.816
	C388.997,234.631,385.948,237.68,382.182,237.68z"/>
<path fill="#69C299" d="M260.665,415.828c-0.612,0-2.438-0.08-3.035-0.253l-111.366-30.832c-2.763-0.759-4.752-3.169-4.979-6.03
	l-6.776-85.561c-0.292-3.74,2.503-7.028,6.257-7.321c3.841-0.267,7.036,2.489,7.335,6.257l6.397,80.794l104.981,29.062
	l105.168-29.062l10.73-142.523c0.292-3.754,3.62-6.603,7.309-6.297c3.754,0.293,6.576,3.554,6.296,7.309l-11.089,147.314
	c-0.227,2.877-2.21,5.3-4.992,6.07l-108.79,30.062C263.101,415.455,261.916,415.828,260.665,415.828z"/>
</svg>
