<?xml version="1.0" encoding="utf-8"?>
<!-- Generator: Adobe Illustrator 16.0.0, SVG Export Plug-In . SVG Version: 6.00 Build 0)  -->
<!DOCTYPE svg PUBLIC "-//W3C//DTD SVG 1.1//EN" "http://www.w3.org/Graphics/SVG/1.1/DTD/svg11.dtd">
<svg version="1.1" id="Layer_1" xmlns="http://www.w3.org/2000/svg" xmlns:xlink="http://www.w3.org/1999/xlink" x="0px" y="0px"
	 width="512px" height="512px" viewBox="0 0 512 512" enable-background="new 0 0 512 512" xml:space="preserve">
<path fill="#5E686B" d="M455.2,505.373H64.309c-3.763,0-6.809-3.046-6.809-6.811v-358.32c0-3.764,3.045-6.809,6.809-6.809h390.893
	c3.765,0,6.81,3.045,6.81,6.809v358.322C462.01,502.327,458.965,505.373,455.2,505.373z M71.118,491.755h377.272V147.051H71.118
	V491.755z"/>
<path fill="#69C299" d="M409.559,81.911H109.952c-3.765,0-6.81-3.045-6.81-6.809s3.045-6.809,6.81-6.809h299.605
	c3.764,0,6.809,3.045,6.809,6.809S413.323,81.911,409.559,81.911z"/>
<path fill="#69C299" d="M341.465,16.758H178.044c-3.764,0-6.81-3.045-6.81-6.809c0-3.763,3.046-6.809,6.81-6.809h163.421
	c3.764,0,6.81,3.046,6.81,6.809C348.275,13.712,345.229,16.758,341.465,16.758z"/>
<path fill="#5E686B" d="M341.199,293.636H178.324c-3.765,0-6.811-3.046-6.811-6.811v-32.569c0-3.764,3.046-6.81,6.811-6.81
	c3.764,0,6.809,3.046,6.809,6.81v25.762h149.258v-25.762c0-3.764,3.045-6.81,6.81-6.81c3.764,0,6.81,3.046,6.81,6.81v32.569
	C348.009,290.59,344.963,293.636,341.199,293.636z"/>
</svg>
