<?xml version="1.0" encoding="utf-8"?>
<!-- Generator: Adobe Illustrator 16.0.0, SVG Export Plug-In . SVG Version: 6.00 Build 0)  -->
<!DOCTYPE svg PUBLIC "-//W3C//DTD SVG 1.1//EN" "http://www.w3.org/Graphics/SVG/1.1/DTD/svg11.dtd">
<svg version="1.1" id="Layer_1" xmlns="http://www.w3.org/2000/svg" xmlns:xlink="http://www.w3.org/1999/xlink" x="0px" y="0px"
	 width="512px" height="512px" viewBox="0 0 512 512" enable-background="new 0 0 512 512" xml:space="preserve">
<path fill="#5E686B" d="M58.379,400.201c-29.864,0-54.15,24.285-54.15,54.147c0,29.865,24.286,54.15,54.15,54.15
	s54.148-24.285,54.148-54.15C112.529,424.486,88.244,400.201,58.379,400.201z M58.379,494.962
	c-22.396,0-40.612-18.217-40.612-40.613c0-22.394,18.217-40.61,40.612-40.61c22.395,0,40.612,18.218,40.613,40.61
	C98.992,476.744,80.774,494.962,58.379,494.962z"/>
<path fill="#5E686B" d="M256.365,400.201c-12.61,0-24.219,4.343-33.432,11.597l-122.629-122.63
	c7.635-9.335,12.225-21.255,12.225-34.231c0-27.565-20.702-50.369-47.381-53.712v-91.99c26.679-3.343,47.381-26.147,47.381-53.712
	c0-29.858-24.283-54.15-54.148-54.15c-29.864,0-54.15,24.292-54.15,54.15c0,27.564,20.704,50.369,47.381,53.712v91.99
	C24.934,204.568,4.23,227.372,4.23,254.937c0,29.864,24.286,54.149,54.15,54.149c12.017,0,23.125-3.938,32.117-10.582
	l122.919,122.918c-7.017,9.131-11.201,20.546-11.201,32.928c0,29.865,24.286,54.15,54.148,54.15c29.864,0,54.15-24.285,54.15-54.15
	C310.515,424.486,286.229,400.201,256.365,400.201z M17.767,55.523c0-22.395,18.217-40.612,40.612-40.612
	c22.395,0,40.613,18.217,40.613,40.612S80.774,96.135,58.379,96.135C35.984,96.135,17.767,77.918,17.767,55.523z M17.767,254.936
	c0-22.395,18.217-40.612,40.612-40.612c22.395,0,40.612,18.218,40.613,40.612c0,11.343-4.681,21.61-12.204,28.986
	c-0.242,0.184-0.479,0.38-0.7,0.602c-0.151,0.151-0.292,0.311-0.426,0.473c-7.216,6.554-16.791,10.553-27.283,10.553
	C35.984,295.548,17.767,277.332,17.767,254.936z M256.365,494.962c-22.395,0-40.61-18.217-40.61-40.613
	c0-22.394,18.217-40.61,40.61-40.61c22.395,0,40.612,18.218,40.612,40.61C296.977,476.744,278.76,494.962,256.365,494.962z"/>
<path fill="#5E686B" d="M256.365,200.787c-29.862,0-54.148,24.292-54.148,54.15c0,29.864,24.286,54.149,54.148,54.149
	c29.864,0,54.15-24.285,54.15-54.149C310.515,225.079,286.229,200.787,256.365,200.787z M256.365,295.548
	c-22.395,0-40.61-18.216-40.61-40.612c0-22.395,18.217-40.612,40.61-40.612c22.395,0,40.612,18.218,40.612,40.612
	C296.977,277.331,278.76,295.548,256.365,295.548z"/>
<path fill="#5E686B" d="M454.35,400.201c-29.864,0-54.149,24.285-54.149,54.147c0,29.865,24.285,54.15,54.149,54.15
	c29.865,0,54.15-24.285,54.15-54.15C508.5,424.486,484.215,400.201,454.35,400.201z M454.35,494.962
	c-22.396,0-40.612-18.217-40.612-40.613c0-22.394,18.217-40.61,40.612-40.61c22.395,0,40.613,18.218,40.613,40.61
	C494.963,476.744,476.744,494.962,454.35,494.962z"/>
<path fill="#69C299" d="M454.35,200.787c-12.277,0-23.606,4.112-32.698,11.021L298.87,89.013
	c7.281-9.223,11.645-20.853,11.645-33.49c0-29.858-24.286-54.15-54.15-54.15c-29.862,0-54.148,24.292-54.148,54.15
	s24.286,54.15,54.148,54.15c12.354,0,23.747-4.166,32.867-11.154l122.747,122.758c-7.363,9.25-11.778,20.946-11.778,33.661
	c0,29.864,24.285,54.149,54.149,54.149c29.865,0,54.149-24.285,54.149-54.149C508.5,225.079,484.215,200.787,454.35,200.787z
	 M215.753,55.523c0-22.395,18.217-40.612,40.61-40.612c22.395,0,40.612,18.217,40.612,40.612c0,11.09-4.472,21.151-11.7,28.487
	c-0.178,0.145-0.35,0.3-0.516,0.465c-0.105,0.106-0.2,0.218-0.298,0.33c-7.301,7.009-17.201,11.33-28.1,11.33
	C233.97,96.135,215.753,77.918,215.753,55.523z M454.35,295.548c-22.396,0-40.612-18.216-40.612-40.612
	c0-22.395,18.217-40.612,40.612-40.612c22.395,0,40.613,18.218,40.613,40.612C494.963,277.331,476.744,295.548,454.35,295.548z"/>
<path fill="#5E686B" d="M454.35,109.673c29.865,0,54.15-24.292,54.15-54.15s-24.285-54.15-54.15-54.15
	c-29.864,0-54.149,24.292-54.149,54.15S424.486,109.673,454.35,109.673z M454.35,14.911c22.395,0,40.613,18.217,40.613,40.612
	s-18.219,40.612-40.613,40.612c-22.396,0-40.612-18.217-40.612-40.612S431.953,14.911,454.35,14.911z"/>
</svg>
