<?xml version="1.0" encoding="utf-8"?>
<!-- Generator: Adobe Illustrator 16.0.0, SVG Export Plug-In . SVG Version: 6.00 Build 0)  -->
<!DOCTYPE svg PUBLIC "-//W3C//DTD SVG 1.1//EN" "http://www.w3.org/Graphics/SVG/1.1/DTD/svg11.dtd">
<svg version="1.1" id="Layer_1" xmlns="http://www.w3.org/2000/svg" xmlns:xlink="http://www.w3.org/1999/xlink" x="0px" y="0px"
	 width="512px" height="512px" viewBox="0 0 512 512" enable-background="new 0 0 512 512" xml:space="preserve">
<path fill="#5E686C" d="M239.579,448.897c-0.312,0-0.625-0.025-0.939-0.064L10.746,416.752C7.452,416.289,5,413.465,5,410.139
	v-260.92c0-2.1,0.991-4.083,2.673-5.341l86.83-65.125c1.155-0.868,2.557-1.337,4.005-1.337h108.507c1.774,0,3.47,0.704,4.722,1.957
	l32.557,32.556c2.608,2.608,2.608,6.835,0,9.443c-2.609,2.608-6.835,2.608-9.444,0l-30.6-30.6H100.732l-82.376,61.787v251.776
	l217.003,30.541l71.243-174.364c1.402-3.416,5.29-5.06,8.707-3.658c3.417,1.396,5.054,5.296,3.658,8.706l-73.213,179.19
	C244.718,447.28,242.253,448.897,239.579,448.897z"/>
<path fill="#69C299" d="M451.201,172.175H141.917c-3.691,0-6.679-2.987-6.679-6.679c0-3.691,2.987-6.677,6.679-6.677h309.285
	c3.69,0,6.68,2.986,6.68,6.677C457.881,169.188,454.892,172.175,451.201,172.175z"/>
<path fill="#69C299" d="M239.494,270.065c-3.685,0-6.672-2.985-6.678-6.671c-0.007-3.685,2.98-6.679,6.671-6.686l211.708-0.234
	h0.006c3.685,0,6.671,2.987,6.68,6.672c0.006,3.685-2.981,6.679-6.674,6.685l-211.707,0.234H239.494z"/>
<path fill="#69C299" d="M451.201,269.831c-3.691,0-6.678-2.987-6.678-6.679c0-3.69,2.986-6.678,6.678-6.678
	c23.242,0,42.155-18.913,42.155-42.157c0-23.236-18.913-42.143-42.155-42.143c-3.691,0-6.678-2.987-6.678-6.679
	c0-3.691,2.986-6.677,6.678-6.677c30.612,0,55.513,24.899,55.513,55.499C506.714,244.931,481.814,269.831,451.201,269.831z"/>
</svg>
