<?xml version="1.0" encoding="utf-8"?>
<!-- Generator: Adobe Illustrator 16.0.0, SVG Export Plug-In . SVG Version: 6.00 Build 0)  -->
<!DOCTYPE svg PUBLIC "-//W3C//DTD SVG 1.1//EN" "http://www.w3.org/Graphics/SVG/1.1/DTD/svg11.dtd">
<svg version="1.1" id="Layer_1" xmlns="http://www.w3.org/2000/svg" xmlns:xlink="http://www.w3.org/1999/xlink" x="0px" y="0px"
	 width="512px" height="512px" viewBox="0 0 512 512" enable-background="new 0 0 512 512" xml:space="preserve">
<path fill="#69C299" d="M370.599,173.774H61.744c-3.682,0-6.661-2.979-6.661-6.661s2.979-6.66,6.661-6.66h308.855
	c3.681,0,6.66,2.979,6.66,6.66S374.28,173.774,370.599,173.774z"/>
<path fill="#69C299" d="M61.744,271.176c-30.566,0-55.433-24.835-55.433-55.368c0-30.52,24.867-55.354,55.433-55.354
	c3.681,0,6.66,2.979,6.66,6.66s-2.979,6.661-6.66,6.661c-23.222,0-42.111,18.857-42.111,42.033
	c0,23.183,18.889,42.047,42.111,42.047c3.681,0,6.66,2.979,6.66,6.66C68.404,268.195,65.425,271.176,61.744,271.176z"/>
<path fill="#5E686C" d="M273.08,449.774c-2.674,0-5.133-1.613-6.167-4.137l-73.112-178.716c-1.393-3.409,0.241-7.299,3.643-8.69
	c3.382-1.418,7.292,0.233,8.689,3.642l71.148,173.929l216.709-30.48V154.208l-82.271-61.625H308.348l-30.559,30.526
	c-2.602,2.589-6.822,2.595-9.425-0.006c-2.596-2.608-2.596-6.823,0.007-9.425l32.51-32.472c1.248-1.243,2.946-1.945,4.71-1.945
	h108.354c1.443,0,2.837,0.469,3.994,1.327l86.707,64.955c1.678,1.263,2.667,3.234,2.667,5.334V411.11
	c0,3.317-2.446,6.128-5.737,6.595l-227.565,32.003C273.698,449.748,273.387,449.774,273.08,449.774z"/>
<path fill="#69C299" d="M273.158,271.409h-0.006l-211.416-0.233c-3.682-0.007-6.66-2.992-6.654-6.668
	c0.006-3.675,2.986-6.653,6.661-6.653h0.006l211.414,0.233c3.682,0.007,6.66,2.992,6.654,6.668
	C279.813,268.43,276.833,271.409,273.158,271.409z"/>
</svg>
