<?xml version="1.0" encoding="utf-8"?>
<!-- Generator: Adobe Illustrator 16.0.0, SVG Export Plug-In . SVG Version: 6.00 Build 0)  -->
<!DOCTYPE svg PUBLIC "-//W3C//DTD SVG 1.1//EN" "http://www.w3.org/Graphics/SVG/1.1/DTD/svg11.dtd">
<svg version="1.1" id="Layer_1" xmlns="http://www.w3.org/2000/svg" xmlns:xlink="http://www.w3.org/1999/xlink" x="0px" y="0px"
	 width="512px" height="512px" viewBox="0 0 512 512" enable-background="new 0 0 512 512" xml:space="preserve">
<path fill="#5E686C" d="M258.474,474.011c-121.323,0-220.03-98.709-220.03-220.037c0-121.329,98.707-220.037,220.03-220.037
	c121.321,0,220.03,98.708,220.03,220.037C478.504,375.302,379.795,474.011,258.474,474.011z M258.474,47.335
	c-113.937,0-206.633,92.696-206.633,206.639c0,113.943,92.696,206.639,206.633,206.639c113.936,0,206.632-92.695,206.632-206.639
	C465.106,140.031,372.409,47.335,258.474,47.335z"/>
<path fill="#5E686C" d="M204.06,210.406c-1.714,0-3.428-0.654-4.736-1.962L10.517,19.794c-2.617-2.61-2.617-6.856,0-9.473
	c2.616-2.617,6.855-2.617,9.472,0l188.807,188.649c2.616,2.61,2.616,6.856,0,9.472C207.488,209.752,205.774,210.406,204.06,210.406z
	"/>
<path fill="#69C299" d="M309.329,209.542c-1.72,0-3.441-0.661-4.75-1.975c-2.61-2.617-2.597-6.863,0.026-9.473L492.922,10.609
	c2.609-2.617,6.855-2.604,9.472,0.026c2.61,2.616,2.597,6.862-0.025,9.472L314.051,207.593
	C312.75,208.895,311.036,209.542,309.329,209.542z"/>
<path fill="#5E686C" d="M14.769,502.82c-1.72,0-3.441-0.661-4.749-1.97c-2.611-2.624-2.597-6.868,0.019-9.479L203,299.255
	c2.604-2.616,6.856-2.596,9.472,0.02c2.61,2.624,2.597,6.87-0.019,9.479L19.492,500.871C18.191,502.172,16.477,502.82,14.769,502.82
	z"/>
<path fill="#5E686C" d="M15.254,84.413c-3.703,0-6.699-2.996-6.699-6.699V15.058c0-3.703,2.996-6.699,6.699-6.699
	c3.702,0,6.698,2.996,6.698,6.699v62.656C21.952,81.417,18.956,84.413,15.254,84.413z"/>
<path fill="#5E686C" d="M76.306,21.756H15.254c-3.703,0-6.699-2.996-6.699-6.698s2.996-6.699,6.699-6.699h61.053
	c3.703,0,6.699,2.996,6.699,6.699S80.01,21.756,76.306,21.756z"/>
<path fill="#5E686C" d="M77.432,502.82H14.769c-3.703,0-6.699-2.996-6.699-6.699s2.997-6.698,6.699-6.698h62.663
	c3.703,0,6.699,2.995,6.699,6.698S81.135,502.82,77.432,502.82z"/>
<path fill="#5E686C" d="M14.769,502.82c-3.703,0-6.699-2.996-6.699-6.699v-61.061c0-3.702,2.997-6.698,6.699-6.698
	s6.699,2.996,6.699,6.698v61.061C21.468,499.824,18.472,502.82,14.769,502.82z"/>
<path fill="#5E686C" d="M497.775,503.906c-3.702,0-6.698-2.997-6.698-6.699v-62.669c0-3.703,2.996-6.699,6.698-6.699
	c3.703,0,6.699,2.996,6.699,6.699v62.669C504.474,500.909,501.478,503.906,497.775,503.906z"/>
<path fill="#5E686C" d="M497.775,503.906h-61.061c-3.702,0-6.698-2.997-6.698-6.699s2.996-6.699,6.698-6.699h61.061
	c3.703,0,6.699,2.997,6.699,6.699S501.478,503.906,497.775,503.906z"/>
<path fill="#69C299" d="M497.645,22.058h-62.657c-3.701,0-6.697-2.997-6.697-6.699c0-3.703,2.996-6.699,6.697-6.699h62.657
	c3.702,0,6.698,2.996,6.698,6.699C504.343,19.061,501.347,22.058,497.645,22.058z"/>
<path fill="#69C299" d="M497.645,83.118c-3.703,0-6.698-2.997-6.698-6.699v-61.06c0-3.703,2.995-6.699,6.698-6.699
	c3.702,0,6.698,2.996,6.698,6.699v61.06C504.343,80.121,501.347,83.118,497.645,83.118z"/>
<path fill="#5E686C" d="M497.775,503.906c-1.714,0-3.428-0.654-4.736-1.963l-189.4-189.265c-2.617-2.609-2.617-6.854,0-9.473
	c2.616-2.616,6.854-2.616,9.473,0l189.4,189.265c2.617,2.611,2.617,6.856,0,9.473C501.203,503.252,499.489,503.906,497.775,503.906z
	"/>
<path fill="#69C299" d="M258.474,327.659c-40.631,0-73.686-33.055-73.686-73.686c0-40.63,33.055-73.685,73.686-73.685
	c40.63,0,73.686,33.055,73.686,73.685C332.159,294.604,299.104,327.659,258.474,327.659z M258.474,193.685
	c-33.245,0-60.288,27.044-60.288,60.289c0,33.245,27.043,60.289,60.288,60.289c33.244,0,60.288-27.044,60.288-60.289
	C318.762,220.729,291.718,193.685,258.474,193.685z"/>
</svg>
