<?xml version="1.0" encoding="utf-8"?>
<!-- Generator: Adobe Illustrator 16.0.0, SVG Export Plug-In . SVG Version: 6.00 Build 0)  -->
<!DOCTYPE svg PUBLIC "-//W3C//DTD SVG 1.1//EN" "http://www.w3.org/Graphics/SVG/1.1/DTD/svg11.dtd">
<svg version="1.1" id="Layer_1" xmlns="http://www.w3.org/2000/svg" xmlns:xlink="http://www.w3.org/1999/xlink" x="0px" y="0px"
	 width="512px" height="512px" viewBox="0 0 512 512" enable-background="new 0 0 512 512" xml:space="preserve">
<path fill="#5E686C" d="M501.512,266.415H361.366c-3.86,0-6.985-3.125-6.985-6.987c0-3.861,3.125-6.986,6.985-6.986h140.146
	c3.863,0,6.988,3.125,6.988,6.986C508.5,263.29,505.375,266.415,501.512,266.415z"/>
<path fill="#5E686C" d="M149.689,266.415H12.437c-3.862,0-6.987-3.125-6.987-6.987c0-3.861,3.125-6.986,6.987-6.986h137.252
	c3.862,0,6.987,3.125,6.987,6.986C156.676,263.29,153.551,266.415,149.689,266.415z"/>
<path fill="#5E686C" d="M461.039,509.5H52.91c-26.173,0-47.461-21.301-47.461-47.488V53.945c0-26.187,21.288-47.488,47.461-47.488
	h408.129c26.173,0,47.461,21.301,47.461,47.488v408.066C508.5,488.199,487.212,509.5,461.039,509.5z M52.91,20.43
	c-18.462,0-33.487,15.038-33.487,33.515v408.066c0,18.476,15.024,33.515,33.487,33.515h408.129
	c18.462,0,33.487-15.039,33.487-33.515V53.945c0-18.477-15.025-33.515-33.487-33.515H52.91z"/>
<path fill="#69C299" d="M256.961,369.771c-61.64,0-111.775-50.149-111.775-111.789c0-61.639,50.136-111.789,111.775-111.789
	c61.654,0,111.802,50.149,111.802,111.789C368.763,319.621,318.615,369.771,256.961,369.771z M256.961,160.166
	c-53.93,0-97.801,43.879-97.801,97.815c0,53.937,43.872,97.815,97.801,97.815c53.943,0,97.828-43.879,97.828-97.815
	C354.789,204.045,310.905,160.166,256.961,160.166z"/>
<path fill="#69C299" d="M405.677,158.201c-26.965,0-48.909-21.943-48.909-48.908c0-26.964,21.944-48.907,48.909-48.907
	s48.907,21.943,48.907,48.907C454.584,136.258,432.642,158.201,405.677,158.201z M405.677,74.36
	c-19.269,0-34.936,15.672-34.936,34.934s15.667,34.934,34.936,34.934c19.268,0,34.934-15.673,34.934-34.934
	S424.945,74.36,405.677,74.36z"/>
</svg>
