<?xml version="1.0" encoding="utf-8"?>
<!-- Generator: Adobe Illustrator 16.0.0, SVG Export Plug-In . SVG Version: 6.00 Build 0)  -->
<!DOCTYPE svg PUBLIC "-//W3C//DTD SVG 1.1//EN" "http://www.w3.org/Graphics/SVG/1.1/DTD/svg11.dtd">
<svg version="1.1" id="Layer_1" xmlns="http://www.w3.org/2000/svg" xmlns:xlink="http://www.w3.org/1999/xlink" x="0px" y="0px"
	 width="512px" height="512px" viewBox="0 0 512 512" enable-background="new 0 0 512 512" xml:space="preserve">
<path fill="#69C299" d="M419.673,104.821v70.003c0,4.276,3.46,7.736,7.734,7.736c4.277,0,7.737-3.461,7.737-7.737V86.02
	c0-4.276-3.46-7.737-7.736-7.737h-88.803c-4.275,0-7.734,3.461-7.734,7.737c0,4.277,3.459,7.737,7.734,7.737h70.244l-112.823,113.84
	H13.585c-4.276,0-7.736,3.46-7.736,7.736v285.675c0,4.275,3.46,7.736,7.736,7.736h285.659c4.275,0,7.736-3.461,7.735-7.736V218.509
	L419.673,104.821z M291.508,493.271H21.322V223.07h270.188L291.508,493.271L291.508,493.271z"/>
<path fill="#5E686B" d="M500.393,3.866H13.586c-4.276,0-7.736,3.46-7.736,7.736V160.15c0,4.277,3.46,7.737,7.736,7.737
	c4.274,0,7.734-3.461,7.734-7.737V19.338h471.334v471.365H361.983c-4.275,0-7.734,3.461-7.734,7.736s3.459,7.734,7.734,7.734
	h138.409c4.273,0,7.736-3.459,7.737-7.737V11.602C508.129,7.326,504.668,3.866,500.393,3.866z"/>
</svg>
