<?xml version="1.0" encoding="utf-8"?>
<!-- Generator: Adobe Illustrator 16.0.0, SVG Export Plug-In . SVG Version: 6.00 Build 0)  -->
<!DOCTYPE svg PUBLIC "-//W3C//DTD SVG 1.1//EN" "http://www.w3.org/Graphics/SVG/1.1/DTD/svg11.dtd">
<svg version="1.1" id="Layer_1" xmlns="http://www.w3.org/2000/svg" xmlns:xlink="http://www.w3.org/1999/xlink" x="0px" y="0px"
	 width="512px" height="512px" viewBox="0 0 512 512" enable-background="new 0 0 512 512" xml:space="preserve">
<path fill="#5E686C" d="M256.519,507.316c-138.476,0-251.14-112.665-251.14-251.147c0-138.488,112.664-251.153,251.14-251.153
	s251.14,112.665,251.14,251.153C507.658,394.651,394.994,507.316,256.519,507.316z M256.519,18.605
	c-130.991,0-237.551,106.573-237.551,237.564c0,130.984,106.561,237.558,237.551,237.558c130.99,0,237.552-106.574,237.552-237.558
	C494.071,125.179,387.509,18.605,256.519,18.605z"/>
<path fill="#5E686C" d="M256.519,176.256c-74.897,0-147.207-21.79-198.391-59.782c-3.012-2.236-3.649-6.489-1.407-9.501
	c2.243-3.019,6.489-3.623,9.502-1.407c48.901,36.288,118.251,57.102,190.295,57.102s141.395-20.814,190.296-57.102
	c3.025-2.216,7.284-1.612,9.501,1.407c2.243,3.012,1.605,7.265-1.406,9.501C403.725,154.466,331.416,176.256,256.519,176.256z"/>
<path fill="#5E686C" d="M450.862,408.107c-1.406,0-2.827-0.438-4.047-1.34c-48.874-36.294-118.238-57.103-190.282-57.103
	c-72.071,0-141.435,20.809-190.309,57.103c-2.986,2.229-7.259,1.631-9.502-1.407c-2.243-3.013-1.605-7.271,1.407-9.502
	c51.17-37.992,123.48-59.782,198.404-59.782c74.897,0,147.206,21.79,198.377,59.782c3.012,2.23,3.649,6.489,1.406,9.502
	C454.99,407.165,452.933,408.107,450.862,408.107z"/>
<path fill="#5E686C" d="M500.865,270.84H12.174c-3.755,0-6.794-3.039-6.794-6.794c0-3.756,3.039-6.794,6.794-6.794h488.691
	c3.755,0,6.794,3.038,6.794,6.794C507.658,267.801,504.619,270.84,500.865,270.84z"/>
<path fill="#5E686C" d="M256.519,507.316c-3.755,0-6.794-3.039-6.794-6.795V11.811c0-3.755,3.039-6.794,6.794-6.794
	s6.794,3.039,6.794,6.794v488.711C263.313,504.277,260.274,507.316,256.519,507.316z"/>
<path fill="#69C299" d="M256.519,507.316c-78.228,0-141.873-112.665-141.873-251.147c0-138.488,63.645-251.153,141.873-251.153
	c78.229,0,141.872,112.665,141.872,251.153C398.391,394.651,334.747,507.316,256.519,507.316z M256.519,18.605
	c-70.73,0-128.283,106.573-128.283,237.564c0,130.984,57.553,237.558,128.283,237.558s128.283-106.574,128.283-237.558
	C384.802,125.179,327.249,18.605,256.519,18.605z"/>
</svg>
