<?xml version="1.0" encoding="utf-8"?>
<!-- Generator: Adobe Illustrator 16.0.0, SVG Export Plug-In . SVG Version: 6.00 Build 0)  -->
<!DOCTYPE svg PUBLIC "-//W3C//DTD SVG 1.1//EN" "http://www.w3.org/Graphics/SVG/1.1/DTD/svg11.dtd">
<svg version="1.1" id="Layer_1" xmlns="http://www.w3.org/2000/svg" xmlns:xlink="http://www.w3.org/1999/xlink" x="0px" y="0px"
	 width="512px" height="512px" viewBox="0 0 512 512" enable-background="new 0 0 512 512" xml:space="preserve">
<path fill="#69C299" d="M206.006,367.972h-47.577c-2.436-9.447-9.887-16.902-19.335-19.344v-47.567c0-3.72-3.009-6.729-6.728-6.729
	c-3.721,0-6.729,3.009-6.729,6.729v47.567c-11.596,2.996-20.183,13.546-20.183,26.062c0,14.836,12.067,26.91,26.912,26.91
	c12.515,0,23.057-8.585,26.056-20.171h47.583c3.719,0,6.729-3.009,6.729-6.728S209.725,367.972,206.006,367.972z M132.366,388.143
	c-7.42,0-13.456-6.029-13.456-13.455c0-7.425,6.036-13.455,13.456-13.455c7.418,0,13.455,6.031,13.454,13.455
	C145.822,382.112,139.783,388.143,132.366,388.143z"/>
<path fill="#69C299" d="M301.664,144.661h47.549c2.438,9.452,9.894,16.907,19.349,19.346v47.566c0,3.719,3.009,6.728,6.729,6.728
	c3.719,0,6.729-3.009,6.729-6.728v-47.567c11.589-2.995,20.171-13.541,20.17-26.06c0-14.843-12.062-26.912-26.897-26.912
	c-12.521,0-23.069,8.581-26.069,20.171h-47.557c-3.721,0-6.729,3.009-6.729,6.728C294.936,141.652,297.945,144.661,301.664,144.661z
	 M375.29,124.49c7.411,0,13.441,6.038,13.441,13.456s-6.03,13.456-13.441,13.456c-7.425,0-13.471-6.038-13.471-13.456
	S367.865,124.49,375.29,124.49z"/>
<path fill="#5E686B" d="M196.952,236.12c0-3.719-3.011-6.728-6.729-6.728h-47.095V208.59H259.75c3.713,0,6.722-3.009,6.722-6.728
	V13.36c0-3.719-3.009-6.728-6.722-6.728H13.043c-3.719,0-6.729,3.009-6.729,6.728v188.502c0,3.719,3.011,6.728,6.729,6.728h116.629
	v20.802H82.576c-3.721,0-6.729,3.009-6.729,6.728c0,3.719,3.009,6.728,6.729,6.728h107.646
	C193.943,242.848,196.952,239.839,196.952,236.12z M253.024,20.088v118.33H19.771V20.088H253.024z M19.771,151.875h233.253v43.259
	H19.771V151.875z"/>
<path fill="#5E686B" d="M499.273,268.538H252.557c-3.719,0-6.728,3.009-6.728,6.728v188.517c0,3.719,3.009,6.728,6.728,6.728
	h116.622v20.801h-47.095c-3.719,0-6.729,3.012-6.729,6.729s3.012,6.728,6.729,6.728h107.646c3.719,0,6.729-3.009,6.729-6.728
	s-3.011-6.729-6.729-6.729h-47.095V470.51h116.637c3.718,0,6.729-3.009,6.729-6.727V275.266
	C506.001,271.547,502.99,268.538,499.273,268.538z M492.544,281.994v118.33H259.285v-118.33H492.544L492.544,281.994z
	 M259.285,457.053v-43.271h233.259v43.271H259.285z"/>
</svg>
