<?xml version="1.0" encoding="utf-8"?>
<!-- Generator: Adobe Illustrator 16.0.0, SVG Export Plug-In . SVG Version: 6.00 Build 0)  -->
<!DOCTYPE svg PUBLIC "-//W3C//DTD SVG 1.1//EN" "http://www.w3.org/Graphics/SVG/1.1/DTD/svg11.dtd">
<svg version="1.1" id="Layer_1" xmlns="http://www.w3.org/2000/svg" xmlns:xlink="http://www.w3.org/1999/xlink" x="0px" y="0px"
	 width="512px" height="512px" viewBox="0 0 512 512" enable-background="new 0 0 512 512" xml:space="preserve">
<path fill="#69C299" d="M502.049,136.118l-62.066-62.066l45.398-45.399c2.553-2.552,2.553-6.687,0-9.239
	c-2.552-2.552-6.687-2.552-9.238,0l-49.897,49.897c-0.042,0.04-0.087,0.074-0.128,0.115s-0.075,0.086-0.114,0.128l-66.47,66.469
	c-0.034,0.032-0.07,0.06-0.104,0.093c-0.034,0.033-0.062,0.07-0.094,0.104l-99.933,99.931c-2.552,2.552-2.552,6.687,0,9.239
	c1.276,1.277,2.948,1.915,4.62,1.915s3.345-0.638,4.619-1.914l95.411-95.411l62.062,62.065c1.277,1.277,2.949,1.915,4.621,1.915
	c1.671,0,3.343-0.638,4.619-1.914l66.691-66.69C504.6,142.805,504.6,138.67,502.049,136.118z M430.739,198.188l-57.445-57.446
	l57.449-57.451l57.447,57.445L430.739,198.188z"/>
<path fill="#5E686B" d="M130.63,249.999c-33.154,0-64.318,12.927-87.76,36.382C19.415,309.825,6.5,340.988,6.5,374.141
	c0,33.154,12.915,64.33,36.37,87.785c23.441,23.456,54.604,36.37,87.76,36.37c33.153,0,64.33-12.914,87.785-36.37
	c23.455-23.455,36.37-54.631,36.37-87.785c0-33.152-12.915-64.315-36.37-87.76C194.96,262.926,163.784,249.999,130.63,249.999z
	 M209.177,452.688c-20.98,20.979-48.876,32.541-78.546,32.541c-29.658,0-57.541-11.562-78.521-32.541
	c-20.979-20.979-32.542-48.877-32.542-78.547c0-29.656,11.562-57.541,32.541-78.521c20.98-20.992,48.864-32.554,78.521-32.554
	c29.67,0,57.564,11.562,78.547,32.554c20.979,20.979,32.541,48.864,32.541,78.521C241.718,403.811,230.156,431.707,209.177,452.688z
	"/>
</svg>
