<?xml version="1.0" encoding="utf-8"?>
<!-- Generator: Adobe Illustrator 16.0.0, SVG Export Plug-In . SVG Version: 6.00 Build 0)  -->
<!DOCTYPE svg PUBLIC "-//W3C//DTD SVG 1.1//EN" "http://www.w3.org/Graphics/SVG/1.1/DTD/svg11.dtd">
<svg version="1.1" id="Layer_1" xmlns="http://www.w3.org/2000/svg" xmlns:xlink="http://www.w3.org/1999/xlink" x="0px" y="0px"
	 width="512px" height="512px" viewBox="0 0 512 512" enable-background="new 0 0 512 512" xml:space="preserve">
<path fill="#5E686B" d="M99.012,508.866c-1.034,0-2.074-0.229-3.034-0.712c-2.35-1.153-3.841-3.544-3.841-6.163V6.875
	c0-3.8,3.075-6.875,6.875-6.875h313.975c3.8,0,6.875,3.075,6.875,6.875v495.117c0,2.619-1.49,5.01-3.841,6.163
	c-2.349,1.183-5.155,0.873-7.224-0.711l-152.811-117.54L103.202,507.443C101.98,508.382,100.503,508.866,99.012,508.866z
	 M255.987,374.355c1.478,0,2.954,0.471,4.189,1.423l145.937,112.249V13.75H105.887v474.278l145.91-112.249
	C253.033,374.826,254.509,374.355,255.987,374.355z"/>
<path fill="#69C299" d="M359.119,87.879H152.881c-3.8,0-6.874-3.075-6.874-6.875c0-3.8,3.074-6.875,6.874-6.875h206.238
	c3.8,0,6.875,3.075,6.875,6.875C365.994,84.804,362.919,87.879,359.119,87.879z"/>
<path fill="#69C299" d="M359.119,170.736H152.881c-3.8,0-6.874-3.074-6.874-6.875c0-3.799,3.074-6.875,6.874-6.875h206.238
	c3.8,0,6.875,3.076,6.875,6.875C365.994,167.663,362.919,170.736,359.119,170.736z"/>
</svg>
