<?xml version="1.0" encoding="utf-8"?>
<!-- Generator: Adobe Illustrator 16.0.0, SVG Export Plug-In . SVG Version: 6.00 Build 0)  -->
<!DOCTYPE svg PUBLIC "-//W3C//DTD SVG 1.1//EN" "http://www.w3.org/Graphics/SVG/1.1/DTD/svg11.dtd">
<svg version="1.1" id="Layer_1" xmlns="http://www.w3.org/2000/svg" xmlns:xlink="http://www.w3.org/1999/xlink" x="0px" y="0px"
	 width="512px" height="512px" viewBox="0 0 512 512" enable-background="new 0 0 512 512" xml:space="preserve">
<path fill="#69C299" d="M466.471,375.041H46.186c-3.872,0-7.005-3.133-7.005-7.005V87.842c0-3.872,3.133-7.005,7.005-7.005h420.285
	c3.872,0,7.005,3.133,7.005,7.005v280.194C473.476,371.908,470.343,375.041,466.471,375.041z M53.191,361.031h406.275V94.847H53.191
	V361.031z"/>
<path fill="#5E686B" d="M501.494,440.712H11.162c-3.872,0-7.005-3.133-7.005-7.005s3.133-7.005,7.005-7.005h490.332
	c3.872,0,7.006,3.133,7.006,7.005S505.366,440.712,501.494,440.712z"/>
</svg>
