<?xml version="1.0" encoding="utf-8"?>
<!-- Generator: Adobe Illustrator 16.0.0, SVG Export Plug-In . SVG Version: 6.00 Build 0)  -->
<!DOCTYPE svg PUBLIC "-//W3C//DTD SVG 1.1//EN" "http://www.w3.org/Graphics/SVG/1.1/DTD/svg11.dtd">
<svg version="1.1" id="Layer_1" xmlns="http://www.w3.org/2000/svg" xmlns:xlink="http://www.w3.org/1999/xlink" x="0px" y="0px"
	 width="512px" height="512px" viewBox="0 0 512 512" enable-background="new 0 0 512 512" xml:space="preserve">
<path fill="#69C299" d="M256.908,93.057c-41.067,0-74.478,33.409-74.478,74.47s33.409,74.47,74.478,74.47
	c41.062,0,74.47-33.409,74.47-74.47S297.97,93.057,256.908,93.057z M256.908,230.539c-34.752,0-63.021-28.268-63.021-63.013
	c0-34.745,28.268-63.013,63.021-63.013c34.739,0,63.013,28.268,63.013,63.013C319.921,202.271,291.648,230.539,256.908,230.539z"/>
<path fill="#5E686B" d="M256.908,280.26c-41.067,0-74.478,33.409-74.478,74.473c0,41.062,33.409,74.47,74.478,74.47
	c41.062,0,74.47-33.408,74.47-74.47C331.378,313.669,297.97,280.26,256.908,280.26z M256.908,417.745
	c-34.752,0-63.021-28.274-63.021-63.013c0-34.741,28.268-63.016,63.021-63.016c34.739,0,63.013,28.273,63.013,63.016
	C319.921,389.472,291.648,417.745,256.908,417.745z"/>
<path fill="#5E686B" d="M377.251,246.808h46.788c1.858,0,3.604-0.907,4.679-2.428l80.221-113.665c0.683-0.962,1.052-2.12,1.052-3.3
	v-20.05c0-3.167-2.562-5.729-5.729-5.729H377.251c-0.328,0-0.647,0.034-0.961,0.086V80.626c0-17.902-14.569-32.469-32.472-32.469
	H169.991c-17.902,0-32.471,14.567-32.471,32.469v21.011H9.539c-3.167,0-5.729,2.562-5.729,5.729v20.05
	c0,1.18,0.363,2.338,1.046,3.306L85.088,244.38c1.074,1.522,2.819,2.428,4.682,2.428h47.752v42.11
	c-0.312-0.053-0.633-0.087-0.962-0.087H9.539c-3.167,0-5.729,2.563-5.729,5.729v20.06c0,1.187,0.363,2.339,1.046,3.301
	l80.232,113.652c1.074,1.521,2.819,2.428,4.682,2.428h46.79c0.329,0,0.648-0.034,0.962-0.087v7.728
	c0,17.902,14.568,32.471,32.471,32.471H343.82c17.901,0,32.471-14.567,32.472-32.47v-7.729c0.312,0.053,0.633,0.087,0.961,0.087
	h46.789c1.857,0,3.604-0.906,4.678-2.429L508.94,317.92c0.684-0.962,1.052-2.114,1.052-3.301v-20.061
	c0-3.168-2.562-5.729-5.729-5.729H377.251c-0.328,0-0.647,0.034-0.961,0.087v-42.194
	C376.604,246.774,376.923,246.808,377.251,246.808z M92.74,235.351L15.266,125.598v-12.503h122.256v122.256H92.74z M136.559,422.544
	H92.74L15.266,312.798v-12.509H136.56c0.329,0,0.648-0.034,0.962-0.087v122.429C137.208,422.578,136.888,422.544,136.559,422.544z
	 M364.833,441.643c0,11.594-9.421,21.014-21.015,21.014H169.991c-11.588,0-21.014-9.42-21.014-21.014V107.405
	c0-0.013,0.002-0.025,0.002-0.039c0-0.014-0.002-0.026-0.002-0.039V80.626c0-11.586,9.427-21.012,21.014-21.012H343.82
	c11.594,0,21.015,9.426,21.015,21.012L364.833,441.643L364.833,441.643z M377.251,113.094h121.28v12.503L421.074,235.35h-43.823
	c-0.328,0-0.647,0.034-0.961,0.086V113.007C376.604,113.06,376.923,113.094,377.251,113.094z M377.251,300.287h121.28v12.52
	l-77.457,109.736h-43.823c-0.328,0-0.647,0.034-0.961,0.087V300.2C376.604,300.253,376.923,300.287,377.251,300.287z"/>
<path fill="#69C299" d="M256.908,138.883c-15.801,0-28.645,12.85-28.645,28.643s12.845,28.643,28.645,28.643
	c15.798,0,28.643-12.85,28.643-28.643S272.706,138.883,256.908,138.883z M256.908,184.713c-9.479,0-17.188-7.709-17.188-17.186
	s7.709-17.186,17.188-17.186c9.477,0,17.186,7.709,17.186,17.186S266.385,184.713,256.908,184.713z"/>
<path fill="#5E686B" d="M256.908,326.088c-15.801,0-28.645,12.844-28.645,28.645c0,15.798,12.845,28.642,28.645,28.642
	c15.798,0,28.643-12.844,28.643-28.642C285.551,338.932,272.706,326.088,256.908,326.088z M256.908,371.917
	c-9.479,0-17.188-7.708-17.188-17.185c0-9.479,7.709-17.188,17.188-17.188c9.477,0,17.186,7.709,17.186,17.188
	C274.094,364.209,266.385,371.917,256.908,371.917z"/>
</svg>
