<?xml version="1.0" encoding="utf-8"?>
<!-- Generator: Adobe Illustrator 16.0.0, SVG Export Plug-In . SVG Version: 6.00 Build 0)  -->
<!DOCTYPE svg PUBLIC "-//W3C//DTD SVG 1.1//EN" "http://www.w3.org/Graphics/SVG/1.1/DTD/svg11.dtd">
<svg version="1.1" id="Layer_1" xmlns="http://www.w3.org/2000/svg" xmlns:xlink="http://www.w3.org/1999/xlink" x="0px" y="0px"
	 width="512px" height="512px" viewBox="0 0 512 512" enable-background="new 0 0 512 512" xml:space="preserve">
<g>
	<path fill="#5E686B" d="M341.438,443.823c-9.355,0-18.16-3.639-24.789-10.228l-10.002-10.003
		c-6.629-6.614-10.278-15.418-10.278-24.788c0-7.051,2.082-13.798,5.957-19.518l-171.228-170.95
		c-13.343,8.961-32.749,7.288-44.358-4.296l-10.035-10.009c-13.653-13.659-13.653-35.878,0-49.531L206.886,14.557
		c13.284-13.192,36.306-13.192,49.55,0l10.029,9.982c6.642,6.635,10.292,15.452,10.279,24.828c0,7.05-2.083,13.771-5.944,19.478
		l171.214,170.963c13.363-9.027,32.762-7.314,44.385,4.309l9.989,10.002c6.615,6.604,10.278,15.393,10.278,24.736
		c0,9.355-3.649,18.158-10.278,24.787L366.24,433.583C359.598,440.186,350.794,443.823,341.438,443.823z M131.566,192.524
		c1.727,0,3.453,0.659,4.765,1.97l179.857,179.562c1.267,1.266,1.978,2.979,1.978,4.771s-0.711,3.506-1.978,4.771
		c-4.085,4.072-6.325,9.477-6.325,15.222c0,5.746,2.24,11.162,6.325,15.233l9.989,9.989c8.145,8.092,22.364,8.104,30.534-0.013
		l130.137-129.926c4.085-4.086,6.325-9.502,6.325-15.248c0-5.732-2.253-11.123-6.325-15.194l-9.989-10.002
		c-8.171-8.171-22.351-8.171-30.521,0c-2.637,2.636-6.905,2.636-9.541,0L256.938,74.071c-1.265-1.272-1.977-2.992-1.977-4.784
		s0.725-3.512,1.99-4.777c4.059-4.033,6.299-9.416,6.299-15.162c0.014-5.759-2.228-11.175-6.312-15.248l-10.027-9.982
		c-8.158-8.145-22.339-8.118-30.495,0L86.239,154.05c-8.388,8.388-8.388,22.041,0.007,30.435l10.028,10.009
		c8.125,8.111,22.364,8.111,30.541-0.013C128.133,193.177,129.846,192.524,131.566,192.524z"/>
</g>
<path fill="#69C299" d="M498.919,507H256.016c-3.729,0-6.748-3.018-6.748-6.747c0-3.729,3.019-6.747,6.748-6.747h242.903
	c3.729,0,6.747,3.019,6.747,6.747C505.666,503.982,502.649,507,498.919,507z"/>
<path fill="#5E686B" d="M12.459,506.486c-1.728,0-3.453-0.659-4.771-1.978c-2.636-2.636-2.636-6.906,0-9.542l149.206-149.191
	c2.636-2.636,6.906-2.636,9.541,0c2.636,2.636,2.636,6.905,0,9.542L17.23,504.51C15.912,505.827,14.186,506.486,12.459,506.486z"/>
</svg>
