<?xml version="1.0" encoding="utf-8"?>
<!-- Generator: Adobe Illustrator 16.0.0, SVG Export Plug-In . SVG Version: 6.00 Build 0)  -->
<!DOCTYPE svg PUBLIC "-//W3C//DTD SVG 1.1//EN" "http://www.w3.org/Graphics/SVG/1.1/DTD/svg11.dtd">
<svg version="1.1" id="Layer_1" xmlns="http://www.w3.org/2000/svg" xmlns:xlink="http://www.w3.org/1999/xlink" x="0px" y="0px"
	 width="512px" height="512px" viewBox="0 0 512 512" enable-background="new 0 0 512 512" xml:space="preserve">
<path fill="#5E686B" d="M255.235,272.916c-15.853,0-30.849-3.337-41.142-9.141L31.933,160.932
	c-10.452-5.908-16.446-14.012-16.446-22.249c0-8.322,5.835-16.216,16.427-22.236l182.18-102.831
	c21.478-12.153,60.792-12.16,82.284,0.006L478.55,116.434c10.603,6.033,16.433,13.934,16.433,22.249
	c0.039,8.216-5.948,16.34-16.446,22.249L296.369,263.775C286.075,269.579,271.079,272.916,255.235,272.916z M255.235,17.56
	c-13.143,0-25.718,2.849-34.502,7.814L38.567,128.199c-7.062,4.016-9.574,8.157-9.574,10.485c0,2.341,2.506,6.496,9.582,10.484
	l182.152,102.844c16.664,9.417,52.333,9.417,69.009,0l182.166-102.844c7.083-3.989,9.588-8.124,9.575-10.451
	c0-2.361-2.506-6.502-9.588-10.532L289.736,25.381C280.951,20.409,268.376,17.56,255.235,17.56z"/>
<path fill="#69C299" d="M255.235,394.078c-17.118,0-33.467-3.916-46.028-11.011L40.486,287.846
	c-15.101-8.521-23.416-20.812-23.416-34.621c0-3.733,3.021-6.753,6.752-6.753c3.732,0,6.753,3.02,6.753,6.753
	c0,8.716,5.875,16.83,16.545,22.855l168.728,95.221c21.141,11.949,57.64,11.949,78.768,0l168.688-95.221
	c10.694-6.04,16.591-14.15,16.591-22.855c0-3.733,3.021-6.753,6.752-6.753c3.733,0,6.753,3.02,6.753,6.753
	c0,13.781-8.335,26.085-23.448,34.621l-168.694,95.222C288.7,390.162,272.353,394.078,255.235,394.078z"/>
<path fill="#5E686B" d="M255.235,506.683c-17.08,0-33.427-3.917-46.021-11.025L40.486,400.423
	c-15.101-8.521-23.416-20.812-23.416-34.62c0-3.731,3.021-6.753,6.752-6.753c3.732,0,6.753,3.021,6.753,6.753
	c0,8.719,5.875,16.829,16.545,22.855l168.728,95.233c21.22,11.976,57.555,11.976,78.774,0l168.682-95.233
	c10.694-6.04,16.591-14.15,16.591-22.855c0-3.731,3.021-6.753,6.752-6.753c3.733,0,6.753,3.021,6.753,6.753
	c0,13.781-8.335,26.087-23.448,34.62l-168.694,95.233C288.66,502.766,272.314,506.683,255.235,506.683z"/>
</svg>
