<?xml version="1.0" encoding="utf-8"?>
<!-- Generator: Adobe Illustrator 16.0.0, SVG Export Plug-In . SVG Version: 6.00 Build 0)  -->
<!DOCTYPE svg PUBLIC "-//W3C//DTD SVG 1.1//EN" "http://www.w3.org/Graphics/SVG/1.1/DTD/svg11.dtd">
<svg version="1.1" id="Layer_1" xmlns="http://www.w3.org/2000/svg" xmlns:xlink="http://www.w3.org/1999/xlink" x="0px" y="0px"
	 width="512px" height="512px" viewBox="0 0 512 512" enable-background="new 0 0 512 512" xml:space="preserve">
<path fill="#5E686C" d="M250.609,493.016c-0.892,0-1.81-0.183-2.676-0.551c-0.789-0.354-1.483-0.825-2.06-1.403l0,0l0,0
	c-0.524-0.525-0.972-1.143-1.313-1.838v-0.014l0,0c-0.039-0.078-0.078-0.157-0.119-0.235
	c-11.037-25.421-59.609-33.021-77.406-33.821L23.51,455.167c-3.714,0-6.719-3.005-6.719-6.721V39.663c0-3.714,3.005-6.72,6.719-6.72
	h158.973c2.612,0.119,48.691,2.619,67.354,26.202c17.231-23.604,66.106-26.083,68.612-26.195l23.007-0.007
	c3.715,0,6.72,3.005,6.72,6.72c0,3.715-3.005,6.72-6.72,6.72H318.75c-0.314,0.02-61.303,3.557-61.421,31.032
	c0.014,0.676-0.079,1.339-0.262,1.961c-0.276,0.938-0.748,1.792-1.365,2.514c-0.67,0.774-1.523,1.404-2.507,1.811
	c-0.656,0.276-1.378,0.453-2.125,0.505c-0.801,0.02-1.603-0.04-2.35-0.256c-0.919-0.269-1.758-0.735-2.467-1.339l0,0
	c-0.014,0-0.014-0.006-0.014-0.006c-0.787-0.676-1.418-1.535-1.837-2.52c-0.236-0.564-0.394-1.168-0.458-1.798
	c-3.807-28.367-61.198-31.884-61.776-31.911L30.23,46.383v395.346h137.107c2.94,0.117,60.043,3.005,83.272,31.786
	c23.231-28.781,80.321-31.655,82.986-31.774l137.409-0.012V46.383h-53.547c-3.715,0-6.72-3.005-6.72-6.72
	c0-3.714,3.005-6.72,6.72-6.72h60.265c3.716,0,6.721,3.005,6.721,6.72v408.783c0,3.716-3.005,6.721-6.721,6.721H333.896
	c-0.341,0.026-63.835,3.241-77.117,33.808c-0.014,0-0.014,0.013-0.014,0.013l0,0V489l0,0c-0.013,0.014-0.013,0.014-0.013,0.014
	c0,0.013,0,0.013,0,0.013c0,0.014,0,0.014,0,0.014c-0.014,0-0.014,0-0.014,0.013l0,0c-0.013,0.013-0.013,0.04-0.026,0.053l0,0
	c0,0.013,0,0.013,0,0.013s-0.013,0-0.013,0.014l0,0c0,0.014,0,0.014,0,0.014c0,0.012,0-0.014-0.013,0.025l0,0
	c-0.328,0.695-0.774,1.326-1.286,1.851c-0.591,0.591-1.299,1.09-2.113,1.443C252.408,492.833,251.686,493.121,250.609,493.016z"/>
<path fill="#69C299" d="M417.168,192.678c-1.496,0-2.979-0.499-4.2-1.47l-33.663-26.924l-33.649,26.924
	c-2.035,1.608-4.777,1.917-7.114,0.807c-2.322-1.122-3.805-3.472-3.805-6.057V39.663c0-3.714,3.004-6.72,6.719-6.72
	s6.72,3.005,6.72,6.72v132.318l26.931-21.55c2.467-1.956,5.932-1.956,8.4,0l26.942,21.55V32.09c0.132-1.318,1.183-7.421-2.205-11.47
	c-2.506-2.992-7.139-4.515-13.793-4.515h-45.423c-1.115-0.085-11.641-1.607-18.15,3.688c-3.333,2.704-5.092,6.851-5.421,12.665
	c-0.195,3.701-3.412,6.798-7.073,6.339c-3.701-0.203-6.55-3.366-6.339-7.074c0.524-9.718,4.041-17.265,10.433-22.422
	c11.17-9.023,26.944-6.654,27.601-6.549l44.373-0.085c10.919,0,19.07,3.196,24.24,9.496c7.27,8.872,5.316,20.001,5.065,21.241
	l0.132,152.555c0,2.585-1.483,4.935-3.807,6.057C419.15,192.461,418.153,192.678,417.168,192.678z"/>
<path fill="#5E686C" d="M250.609,508.162c-3.713,0-6.718-3.005-6.718-6.721V77.5c0-3.715,3.005-6.72,6.718-6.72
	c3.715,0,6.72,3.005,6.72,6.72v423.941C257.329,505.157,254.324,508.162,250.609,508.162z"/>
</svg>
