<?xml version="1.0" encoding="utf-8"?>
<!-- Generator: Adobe Illustrator 16.0.0, SVG Export Plug-In . SVG Version: 6.00 Build 0)  -->
<!DOCTYPE svg PUBLIC "-//W3C//DTD SVG 1.1//EN" "http://www.w3.org/Graphics/SVG/1.1/DTD/svg11.dtd">
<svg version="1.1" id="Layer_1" xmlns="http://www.w3.org/2000/svg" xmlns:xlink="http://www.w3.org/1999/xlink" x="0px" y="0px"
	 width="512px" height="512px" viewBox="0 0 512 512" enable-background="new 0 0 512 512" xml:space="preserve">
<path fill="none" stroke="#69C299" stroke-linecap="round" stroke-linejoin="round" stroke-miterlimit="10" d="M891.022,1899.24
	c0-5.109,4.142-9.25,9.25-9.25s9.25,4.141,9.25,9.25"/>
<line fill="none" stroke="#69C299" stroke-linecap="round" stroke-linejoin="round" stroke-miterlimit="10" x1="891.022" y1="1899.24" x2="891.022" y2="1913.291"/>
<line fill="none" stroke="#69C299" stroke-linecap="round" stroke-linejoin="round" stroke-miterlimit="10" x1="909.522" y1="1899.24" x2="909.522" y2="1913.291"/>
<line fill="none" stroke="#5E686C" stroke-linecap="round" stroke-linejoin="round" stroke-miterlimit="10" x1="895.772" y1="1913.291" x2="895.772" y2="1925.842"/>
<line fill="none" stroke="#5E686C" stroke-linecap="round" stroke-linejoin="round" stroke-miterlimit="10" x1="904.772" y1="1913.291" x2="904.772" y2="1925.842"/>
<line fill="none" stroke="#5E686C" stroke-linecap="round" stroke-linejoin="round" stroke-miterlimit="10" x1="887.522" y1="1913.291" x2="912.522" y2="1913.291"/>
<line fill="none" stroke="#5E686C" stroke-linecap="round" stroke-linejoin="round" stroke-miterlimit="10" x1="895.772" y1="1908.041" x2="904.772" y2="1908.041"/>
<path fill="#69C299" d="M386.13,142.962c-3.782,0-6.842-3.06-6.842-6.841c0-66.019-53.704-119.729-119.729-119.729
	c-66.025,0-119.729,53.711-119.729,119.729c0,3.781-3.06,6.841-6.841,6.841c-3.782,0-6.842-3.06-6.842-6.841
	c0-73.562,59.851-133.413,133.413-133.413s133.412,59.851,133.412,133.413C392.972,139.902,389.911,142.962,386.13,142.962z"/>
<path fill="#69C299" d="M132.989,335.237c-3.782,0-6.842-3.061-6.842-6.843V136.121c0-3.782,3.06-6.842,6.842-6.842
	c3.781,0,6.841,3.061,6.841,6.842v192.274C139.83,332.177,136.77,335.237,132.989,335.237z"/>
<path fill="#69C299" d="M386.13,335.237c-3.782,0-6.842-3.061-6.842-6.843V136.121c0-3.782,3.06-6.842,6.842-6.842
	c3.781,0,6.842,3.061,6.842,6.842v192.274C392.972,332.177,389.911,335.237,386.13,335.237z"/>
<path fill="#5E686C" d="M197.985,506.967c-3.782,0-6.842-3.061-6.842-6.842v-171.73c0-3.781,3.06-6.841,6.842-6.841
	c3.781,0,6.841,3.06,6.841,6.841v171.73C204.826,503.906,201.766,506.967,197.985,506.967z"/>
<path fill="#5E686C" d="M321.135,506.967c-3.783,0-6.843-3.061-6.843-6.842v-171.73c0-3.781,3.06-6.841,6.843-6.841
	c3.781,0,6.841,3.06,6.841,6.841v171.73C327.976,503.906,324.916,506.967,321.135,506.967z"/>
<path fill="#5E686C" d="M427.18,335.237H85.097c-3.782,0-6.842-3.061-6.842-6.843c0-3.781,3.06-6.841,6.842-6.841H427.18
	c3.781,0,6.842,3.06,6.842,6.841C434.022,332.177,430.961,335.237,427.18,335.237z"/>
<path fill="#5E686C" d="M321.135,263.399h-123.15c-3.782,0-6.842-3.061-6.842-6.842c0-3.782,3.06-6.842,6.842-6.842h123.15
	c3.781,0,6.841,3.06,6.841,6.842C327.976,260.339,324.916,263.399,321.135,263.399z"/>
</svg>
