<?xml version="1.0" encoding="utf-8"?>
<!-- Generator: Adobe Illustrator 16.0.0, SVG Export Plug-In . SVG Version: 6.00 Build 0)  -->
<!DOCTYPE svg PUBLIC "-//W3C//DTD SVG 1.1//EN" "http://www.w3.org/Graphics/SVG/1.1/DTD/svg11.dtd">
<svg version="1.1" id="Layer_1" xmlns="http://www.w3.org/2000/svg" xmlns:xlink="http://www.w3.org/1999/xlink" x="0px" y="0px"
	 width="512px" height="512px" viewBox="0 0 512 512" enable-background="new 0 0 512 512" xml:space="preserve">
<path fill="#5E686B" d="M256.346,506.553c-128.527,0-235.227-96.297-248.201-223.984c-0.386-3.816,2.39-7.215,6.193-7.594
	c4.047-0.406,7.215,2.396,7.601,6.188c12.25,120.594,113.021,211.53,234.407,211.53c129.934,0,235.639-105.704,235.639-235.64
	c0-129.935-105.705-235.639-235.639-235.639c-118.293,0-218.772,88.344-233.724,205.494c-0.48,3.79-3.905,6.538-7.756,5.997
	c-3.798-0.487-6.478-3.953-5.997-7.756C24.7,101.102,131.095,7.553,256.346,7.553c137.568,0,249.5,111.924,249.5,249.5
	C505.846,394.621,393.914,506.553,256.346,506.553z"/>
<path fill="#69C299" d="M325.191,401.646c-1.771,0-3.546-0.678-4.898-2.03L182.634,261.953c-2.707-2.707-2.707-7.094,0-9.8
	l137.657-137.664c2.707-2.708,7.093-2.708,9.8,0c2.707,2.707,2.707,7.093,0,9.8L197.334,257.053l132.757,132.765
	c2.707,2.707,2.707,7.093,0,9.8C328.738,400.97,326.964,401.646,325.191,401.646z"/>
</svg>
