<?xml version="1.0" encoding="utf-8"?>
<!-- Generator: Adobe Illustrator 16.0.0, SVG Export Plug-In . SVG Version: 6.00 Build 0)  -->
<!DOCTYPE svg PUBLIC "-//W3C//DTD SVG 1.1//EN" "http://www.w3.org/Graphics/SVG/1.1/DTD/svg11.dtd">
<svg version="1.1" id="Layer_1" xmlns="http://www.w3.org/2000/svg" xmlns:xlink="http://www.w3.org/1999/xlink" x="0px" y="0px"
	 width="512px" height="512px" viewBox="0 0 512 512" enable-background="new 0 0 512 512" xml:space="preserve">
<path fill="#69C299" d="M382,263H130c-3.869,0-7-3.131-7-7s3.131-7,7-7h252c3.869,0,7,3.131,7,7S385.869,263,382,263z"/>
<path fill="#5E686B" d="M256,507.219c-138.954,0-252-113.053-252-252C4,126.963,99.956,19.324,227.207,4.839
	c3.924-0.479,7.308,2.324,7.745,6.159c0.438,3.842-2.317,7.308-6.159,7.745C108.624,32.429,18,134.093,18,255.219
	c0,131.236,106.764,238,238,238c131.235,0,238-106.764,238-238c0-121.14-90.632-222.804-210.808-236.476
	c-3.842-0.431-6.604-3.903-6.166-7.745c0.451-3.849,4.021-6.658,7.752-6.159C412.036,19.311,508,126.949,508,255.219
	C508,394.166,394.948,507.219,256,507.219z"/>
</svg>
