<?xml version="1.0" encoding="utf-8"?>
<!-- Generator: Adobe Illustrator 16.0.0, SVG Export Plug-In . SVG Version: 6.00 Build 0)  -->
<!DOCTYPE svg PUBLIC "-//W3C//DTD SVG 1.1//EN" "http://www.w3.org/Graphics/SVG/1.1/DTD/svg11.dtd">
<svg version="1.1" id="Layer_1" xmlns="http://www.w3.org/2000/svg" xmlns:xlink="http://www.w3.org/1999/xlink" x="0px" y="0px"
	 width="512px" height="512px" viewBox="0 0 512 512" enable-background="new 0 0 512 512" xml:space="preserve">
<path fill="#69C299" d="M103.453,504.116H12.071c-3.751,0-6.786-3.036-6.786-6.787v-364.93c0-3.751,3.035-6.787,6.786-6.787h91.383
	c3.751,0,6.787,3.036,6.787,6.787v364.93C110.24,501.08,107.204,504.116,103.453,504.116z M18.858,490.542h77.809V139.186H18.858
	V490.542z"/>
<path fill="#5E686B" d="M499.009,504.5h-91.012c-3.751,0-6.786-3.035-6.786-6.786V284.463c-0.676-3.234-20.068-51.775-54.559-54.055
	c-5.062-0.649-9.609-0.968-13.958-0.968c-54.387,0-69.922,48.21-70.213,55.076v212.812c0,3.751-3.036,6.787-6.787,6.787H164.36
	c-3.751,0-6.787-3.036-6.787-6.787v-364.93c0-3.751,3.036-6.787,6.787-6.787h91.335c3.75,0,6.787,3.036,6.787,6.787v44.246
	c17.616-17.789,55.514-50.025,114.962-51.033c106.521,1.412,125.223,83.627,128.325,118.913l0.025,253.189
	C505.795,501.465,502.761,504.5,499.009,504.5z M414.784,490.927h77.438V245.122c-3.435-38.666-22.934-104.717-114.751-105.936
	c-62.71,1.067-98.381,39.362-111.808,53.777c-3.446,3.698-5.024,5.395-6.934,6.349c-2.122,1.047-4.612,0.915-6.602-0.292
	c-2.001-1.246-3.221-3.434-3.221-5.78v-54.055h-77.763v351.356h77.763V284.463c0-8.15,17.695-68.596,83.786-68.596
	c4.932,0,10.073,0.358,15.298,1.034c43.715,2.876,65.36,58.919,66.688,66.369L414.784,490.927z"/>
<path fill="#69C299" d="M57.761,103.9c-26.192,0-47.506-21.314-47.506-47.507S31.57,8.887,57.761,8.887
	c26.193,0,47.507,21.314,47.507,47.507S83.954,103.9,57.761,103.9z M57.761,22.46c-18.709,0-33.933,15.223-33.933,33.933
	s15.224,33.934,33.933,33.934c18.71,0,33.934-15.224,33.934-33.934S76.471,22.46,57.761,22.46z"/>
</svg>
