<?xml version="1.0" encoding="utf-8"?>
<!-- Generator: Adobe Illustrator 16.0.0, SVG Export Plug-In . SVG Version: 6.00 Build 0)  -->
<!DOCTYPE svg PUBLIC "-//W3C//DTD SVG 1.1//EN" "http://www.w3.org/Graphics/SVG/1.1/DTD/svg11.dtd">
<svg version="1.1" id="Layer_1" xmlns="http://www.w3.org/2000/svg" xmlns:xlink="http://www.w3.org/1999/xlink" x="0px" y="0px"
	 width="512px" height="512px" viewBox="0 0 512 512" enable-background="new 0 0 512 512" xml:space="preserve">
<path fill="#5E686B" d="M82.529,400.471c-6.352,0-12.742-0.833-19.042-2.525c-18.856-5.057-34.631-17.158-44.383-34.07l-3.73-6.458
	c-20.155-34.921-8.152-79.722,26.77-99.875l167.85-96.92c34.908-20.161,79.729-8.138,99.896,26.777l3.72,6.457
	c9.767,16.899,12.373,36.604,7.317,55.474c-5.055,18.87-17.163,34.637-34.075,44.402l-14.874,8.576
	c-3.256,1.858-7.384,0.748-9.264-2.488c-1.865-3.24-0.754-7.385,2.488-9.25l14.873-8.575c13.776-7.952,23.636-20.794,27.75-36.165
	c4.13-15.377,2.012-31.429-5.955-45.21l-3.719-6.458c-16.422-28.425-52.932-38.224-81.383-21.802l-167.85,96.917
	c-13.776,7.953-23.634,20.797-27.765,36.166c-4.114,15.363-2.011,31.415,5.942,45.197l3.731,6.458
	c7.952,13.782,20.802,23.641,36.166,27.758c15.39,4.12,31.416,1.996,45.204-5.955l37.503-21.638c3.255-1.879,7.384-0.761,9.25,2.481
	c1.878,3.241,0.767,7.384-2.476,9.257l-37.502,21.635C107.711,397.143,95.207,400.471,82.529,400.471z"/>
<path fill="#69C299" d="M266.059,375.421c-6.352,0-12.744-0.833-19.043-2.521c-18.87-5.049-34.644-17.148-44.396-34.062
	l-3.731-6.458c-20.154-34.922-8.151-79.735,26.771-99.903l14.859-8.549c3.202-1.879,7.37-0.767,9.25,2.488
	c1.866,3.242,0.754,7.384-2.5,9.25l-14.848,8.548c-28.438,16.431-38.217,52.938-21.81,81.392l3.732,6.457
	c7.953,13.783,20.802,23.635,36.179,27.75c15.392,4.115,31.43,1.998,45.218-5.961l167.849-96.894
	c13.775-7.953,23.635-20.803,27.763-36.179c4.116-15.37,2.013-31.429-5.94-45.21l-3.73-6.438
	c-16.396-28.444-52.895-38.23-81.397-21.808l-37.476,21.649c-3.256,1.846-7.37,0.767-9.25-2.48c-1.88-3.236-0.768-7.385,2.474-9.257
	l37.478-21.649c34.936-20.134,79.77-8.151,99.896,26.764l3.732,6.438c9.766,16.926,12.358,36.629,7.304,55.507
	c-5.055,18.869-17.163,34.639-34.074,44.404l-167.849,96.892C291.24,372.099,278.736,375.421,266.059,375.421z"/>
</svg>
