<?xml version="1.0" encoding="utf-8"?>
<!-- Generator: Adobe Illustrator 16.0.0, SVG Export Plug-In . SVG Version: 6.00 Build 0)  -->
<!DOCTYPE svg PUBLIC "-//W3C//DTD SVG 1.1//EN" "http://www.w3.org/Graphics/SVG/1.1/DTD/svg11.dtd">
<svg version="1.1" id="Layer_1" xmlns="http://www.w3.org/2000/svg" xmlns:xlink="http://www.w3.org/1999/xlink" x="0px" y="0px"
	 width="512px" height="512px" viewBox="0 0 512 512" enable-background="new 0 0 512 512" xml:space="preserve">
<path fill="none" stroke="#69C299" stroke-linecap="round" stroke-linejoin="round" stroke-miterlimit="10" d="M49.045,283.485"/>
<path fill="#5E686C" d="M240.599,101.15c-14.597,0-26.467-11.869-26.467-26.465c0-14.597,11.87-26.466,26.467-26.466
	c14.596,0,26.465,11.87,26.465,26.466C267.065,89.282,255.195,101.15,240.599,101.15z M240.599,61.453
	c-7.295,0-13.233,5.938-13.233,13.233c0,7.294,5.938,13.232,13.233,13.232c7.294,0,13.232-5.938,13.232-13.232
	C253.831,67.391,247.893,61.453,240.599,61.453z"/>
<path fill="#5E686C" d="M312.662,250.636c-0.924,0-1.867-0.193-2.765-0.607c-3.321-1.538-4.769-5.466-3.238-8.788
	c4.052-8.761,6.191-18.815,6.191-29.037c0-31.842-20.302-57.745-45.257-57.745c-24.954,0-45.255,25.903-45.255,57.745
	c0,10.222,2.139,20.275,6.19,29.037c1.531,3.322,0.084,7.25-3.237,8.788c-3.321,1.525-7.25,0.077-8.781-3.23
	c-4.845-10.506-7.404-22.473-7.404-34.594c0-39.137,26.239-70.979,58.488-70.979c32.249,0,58.489,31.842,58.489,70.979
	c0,12.122-2.56,24.088-7.405,34.594C317.56,249.214,315.163,250.636,312.662,250.636z"/>
<path fill="#5E686C" d="M294.603,101.15c-14.595,0-26.465-11.869-26.465-26.465c0-14.597,11.87-26.466,26.465-26.466
	c14.597,0,26.466,11.87,26.466,26.466C321.069,89.282,309.199,101.15,294.603,101.15z M294.603,61.453
	c-7.295,0-13.232,5.938-13.232,13.233c0,7.294,5.938,13.232,13.232,13.232s13.233-5.938,13.233-13.232
	C307.836,67.391,301.898,61.453,294.603,61.453z"/>
<path fill="#5E686C" d="M267.594,130.241c-0.969,0-1.938-0.214-2.836-0.64l-26.996-12.807c-3.302-1.564-4.711-5.512-3.14-8.813
	c1.57-3.302,5.511-4.698,8.813-3.141l24.159,11.462l24.173-11.462c3.314-1.558,7.243-0.156,8.812,3.141
	c1.571,3.301,0.162,7.249-3.14,8.813l-27.009,12.807C269.532,130.027,268.565,130.241,267.594,130.241z"/>
<path fill="#5E686C" d="M116.753,251.851c-2.385,0-4.691-1.293-5.867-3.554c-7.237-13.827,8.555-37.889,37.082-79.217
	c22.814-33.056,48.679-70.526,48.679-91.707v-2.688c0-39.137,31.829-70.972,70.946-70.972c39.124,0,70.959,31.835,70.959,70.972
	v3.141c0,22.459,25.93,59.76,48.804,92.675c27.364,39.363,42.542,62.314,36.204,76.258c-1.5,3.321-5.415,4.795-8.763,3.282
	c-3.32-1.512-4.794-5.428-3.283-8.761c3.529-7.768-18.75-39.822-35.021-63.226c-25.161-36.196-51.174-73.621-51.174-100.228v-3.141
	c0-31.836-25.896-57.739-57.727-57.739c-31.822,0-57.712,25.903-57.712,57.739v2.688c0,25.303-25.942,62.883-51.026,99.228
	c-15.979,23.152-40.132,58.14-36.248,65.571c1.693,3.231,0.446,7.237-2.798,8.93C118.834,251.604,117.787,251.851,116.753,251.851z"
	/>
<path fill="#5E686C" d="M255.654,508.963c-14.583,0-26.453-11.889-26.453-26.491c0-14.579,11.87-26.441,26.453-26.441
	c14.603,0,26.48,11.862,26.48,26.441C282.134,497.074,270.256,508.963,255.654,508.963z M255.654,469.264
	c-7.288,0-13.22,5.918-13.22,13.208c0,7.313,5.932,13.257,13.22,13.257c7.301,0,13.246-5.943,13.246-13.257
	C268.9,475.182,262.954,469.264,255.654,469.264z"/>
<path fill="#5E686C" d="M255.666,469.264c-3.657,0-6.616-2.96-6.616-6.616v-39.7c0-3.656,2.959-6.615,6.616-6.615
	c3.657,0,6.618,2.959,6.618,6.615v39.7C262.284,466.304,259.323,469.264,255.666,469.264z"/>
<path fill="#5E686C" d="M235.818,489.113H125.095c-3.657,0-6.617-2.959-6.617-6.617c0-3.656,2.959-6.616,6.617-6.616h110.723
	c3.657,0,6.616,2.96,6.616,6.616C242.434,486.154,239.474,489.113,235.818,489.113z"/>
<path fill="#5E686C" d="M386.239,489.113H275.516c-3.656,0-6.616-2.959-6.616-6.617c0-3.656,2.96-6.616,6.616-6.616h110.723
	c3.656,0,6.616,2.96,6.616,6.616C392.855,486.154,389.895,489.113,386.239,489.113z"/>
<path fill="#69C299" d="M375.152,347.686c-14.598,0-26.467-11.877-26.467-26.466c0-14.59,11.869-26.467,26.467-26.467
	c14.595,0,26.466,11.877,26.466,26.467C401.617,335.809,389.746,347.686,375.152,347.686z M375.152,307.986
	c-7.295,0-13.234,5.933-13.234,13.233c0,7.302,5.939,13.232,13.234,13.232s13.232-5.931,13.232-13.232
	C388.384,313.919,382.447,307.986,375.152,307.986z"/>
<path fill="#69C299" d="M442.026,403.098H69.333c-15.798,0-28.65-11.888-28.65-26.491V265.832c0-14.589,12.852-26.465,28.65-26.465
	h372.693c15.793,0,28.638,11.876,28.638,26.465v110.774C470.663,391.21,457.819,403.098,442.026,403.098z M69.333,252.6
	c-8.503,0-15.417,5.932-15.417,13.232v110.774c0,7.315,6.913,13.26,15.417,13.26h372.693c8.498,0,15.404-5.944,15.404-13.26V265.832
	c0-7.301-6.906-13.232-15.404-13.232H69.333z"/>
</svg>
