<?xml version="1.0" encoding="utf-8"?>
<!-- Generator: Adobe Illustrator 16.0.0, SVG Export Plug-In . SVG Version: 6.00 Build 0)  -->
<!DOCTYPE svg PUBLIC "-//W3C//DTD SVG 1.1//EN" "http://www.w3.org/Graphics/SVG/1.1/DTD/svg11.dtd">
<svg version="1.1" id="Layer_1" xmlns="http://www.w3.org/2000/svg" xmlns:xlink="http://www.w3.org/1999/xlink" x="0px" y="0px"
	 width="512px" height="512px" viewBox="0 0 512 512" enable-background="new 0 0 512 512" xml:space="preserve">
<path fill="#69C299" d="M215.199,145.026c-19.149,0-34.723-15.586-34.723-34.742c0-19.156,15.573-34.742,34.723-34.742
	c19.176,0,34.769,15.586,34.769,34.742C249.968,129.44,234.375,145.026,215.199,145.026z M215.199,89.439
	c-11.481,0-20.825,9.35-20.825,20.845c0,11.495,9.344,20.845,20.825,20.845c11.508,0,20.872-9.351,20.872-20.845
	C236.072,98.79,226.707,89.439,215.199,89.439z"/>
<path fill="#69C299" d="M257.134,430.455c-48.219,0-87.446-47.906-87.446-106.777c0-58.898,39.229-106.806,87.446-106.806
	c48.204,0,87.425,47.905,87.425,106.806C344.559,382.549,305.338,430.455,257.134,430.455z M257.134,230.769
	c-40.551,0-73.549,41.676-73.549,92.909c0,51.217,32.999,92.881,73.549,92.881c40.537,0,73.528-41.664,73.528-92.881
	C330.662,272.445,297.671,230.769,257.134,230.769z"/>
<path fill="#69C299" d="M299.041,145.026c-19.162,0-34.742-15.586-34.742-34.742c0-19.156,15.58-34.742,34.742-34.742
	c19.163,0,34.742,15.586,34.742,34.742C333.783,129.44,318.204,145.026,299.041,145.026z M299.041,89.439
	c-11.494,0-20.846,9.35-20.846,20.845c0,11.495,9.352,20.845,20.846,20.845c11.495,0,20.846-9.351,20.846-20.845
	C319.887,98.79,310.536,89.439,299.041,89.439z"/>
<path fill="#69C299" d="M257.134,193.177c-1.02,0-2.036-0.224-2.973-0.665l-41.936-19.855c-3.474-1.648-4.954-5.788-3.312-9.255
	c1.655-3.474,5.809-4.947,9.256-3.311l38.963,18.45l38.936-18.443c3.447-1.629,7.601-0.184,9.256,3.304
	c1.643,3.467,0.162,7.607-3.312,9.249l-41.908,19.854C259.169,192.953,258.152,193.177,257.134,193.177z"/>
<path fill="#5E686B" d="M258.464,511c-78.659,0-145.851-49.874-176.792-130.663c-17.873,5.851-31.601,8.699-41.826,8.699
	c-0.007,0-0.007,0-0.014,0c-11.435,0-19.149-3.65-22.921-10.857c-10.355-19.705,15.029-58.261,57.297-119.521
	c35.679-51.7,76.113-110.307,76.113-144.208v-4.166c0-58.892,47.913-106.805,106.812-106.805
	c58.897,0,106.805,47.913,106.805,106.805v4.885c0,35.896,40.564,94.245,76.338,145.714c41.08,59.104,65.726,96.314,55.438,116.021
	c-7.247,13.855-27.536,15.063-66.241,3.379C401.991,461.099,337.028,511,258.464,511z M85.859,364.648
	c2.863,0,5.551,1.792,6.556,4.642c27.767,78.835,91.395,127.813,166.05,127.813c74.355,0,135.616-48.885,159.882-127.557
	c0.542-1.777,1.776-3.257,3.434-4.112c1.628-0.867,3.568-1.03,5.333-0.446c19.284,6.202,34.132,9.351,44.146,9.351
	c4.613,0,10.464-0.679,12.133-3.882c6.922-13.245-25.717-60.201-54.528-101.634c-36.94-53.159-78.82-113.401-78.82-153.653v-4.885
	c0-51.231-41.678-92.908-92.908-92.908c-51.231,0-92.915,41.677-92.915,92.908v4.166c0,38.23-39.947,96.118-78.577,152.105
	c-28.243,40.944-63.398,91.89-56.43,105.163c1.479,2.822,6.596,3.42,10.626,3.42c0,0,0,0,0.007,0c9.71,0,24.428-3.406,43.733-10.11
	C84.332,364.771,85.106,364.648,85.859,364.648z"/>
</svg>
