<?xml version="1.0" encoding="utf-8"?>
<!-- Generator: Adobe Illustrator 16.0.0, SVG Export Plug-In . SVG Version: 6.00 Build 0)  -->
<!DOCTYPE svg PUBLIC "-//W3C//DTD SVG 1.1//EN" "http://www.w3.org/Graphics/SVG/1.1/DTD/svg11.dtd">
<svg version="1.1" id="Layer_1" xmlns="http://www.w3.org/2000/svg" xmlns:xlink="http://www.w3.org/1999/xlink" x="0px" y="0px"
	 width="512px" height="512px" viewBox="0 0 512 512" enable-background="new 0 0 512 512" xml:space="preserve">
<path fill="#5E686C" d="M205.107,146.239c-3.816,0-7.037-2.941-7.316-6.814c-2.978-40.858-41.92-72.865-88.653-72.865
	c-4.06,0-7.346-3.285-7.346-7.345c0-4.06,3.286-7.345,7.346-7.345c54.394,0,99.771,37.989,103.3,86.493
	c0.294,4.045-2.747,7.56-6.793,7.861C205.466,146.239,205.287,146.239,205.107,146.239z"/>
<path fill="#5E686C" d="M54.466,239.821c-1.708,0-3.565-0.418-5.223-1.335c-3.271-1.779-5.337-5.208-5.409-8.938l-2.41-15.035
	C18.607,196.896,5.587,171.517,5.587,144.46c0-51.058,46.453-92.59,103.551-92.59c4.06,0,7.345,3.285,7.345,7.345
	c0,4.061-3.286,7.345-7.345,7.345c-49,0-88.861,34.947-88.861,77.9c0,23.256,11.757,45.133,32.25,60.025
	c1.579,1.147,2.64,2.869,2.941,4.806l2.181,13.973l13.958-6.025c1.664-0.703,3.543-0.79,5.258-0.186
	c17.101,5.824,36.188,6.871,53.754,2.983c3.917-0.889,7.877,1.636,8.758,5.581c0.875,3.959-1.628,7.892-5.587,8.766
	c-19.238,4.246-40.069,3.371-58.963-2.539l-16.146,6.885C57.607,239.432,56.1,239.821,54.466,239.821z"/>
<path fill="#69C299" d="M419.52,460.694c-2.404,0-4.786-0.675-6.873-1.922l-33.275-14.176
	c-21.777,7.131-44.567,10.745-67.807,10.745c-108.343,0-196.487-78.486-196.487-174.965S203.221,105.41,311.565,105.41
	c108.35,0,196.499,78.488,196.499,174.967c0,51.847-25.443,100.48-69.916,133.864l-5.372,34.315
	C432.745,454.783,426.765,460.694,419.52,460.694z M379.68,429.404c0.982,0,1.965,0.202,2.891,0.589l35.901,15.365l5.623-36.368
	c0.303-1.937,1.363-3.657,2.941-4.805c42.157-30.63,66.337-75.764,66.337-123.809c0-88.373-81.558-160.276-181.809-160.276
	c-100.245,0-181.796,71.903-181.796,160.276s81.551,160.274,181.796,160.274c22.573,0,44.694-3.658,65.733-10.846
	C378.073,429.533,378.876,429.404,379.68,429.404z"/>
<path fill="#5E686C" d="M393.05,239.777H221.34c-4.06,0-7.345-3.285-7.345-7.345s3.286-7.345,7.345-7.345h171.71
	c4.061,0,7.345,3.285,7.345,7.345S397.111,239.777,393.05,239.777z"/>
<path fill="#5E686C" d="M393.05,290.878H221.34c-4.06,0-7.345-3.286-7.345-7.346s3.286-7.345,7.345-7.345h171.71
	c4.061,0,7.345,3.285,7.345,7.345S397.111,290.878,393.05,290.878z"/>
<path fill="#5E686C" d="M393.05,341.033H221.34c-4.06,0-7.345-3.285-7.345-7.345c0-4.062,3.286-7.347,7.345-7.347h171.71
	c4.061,0,7.345,3.285,7.345,7.347C400.395,337.748,397.111,341.033,393.05,341.033z"/>
</svg>
