<?xml version="1.0" encoding="utf-8"?>
<!-- Generator: Adobe Illustrator 16.0.0, SVG Export Plug-In . SVG Version: 6.00 Build 0)  -->
<!DOCTYPE svg PUBLIC "-//W3C//DTD SVG 1.1//EN" "http://www.w3.org/Graphics/SVG/1.1/DTD/svg11.dtd">
<svg version="1.1" id="Layer_1" xmlns="http://www.w3.org/2000/svg" xmlns:xlink="http://www.w3.org/1999/xlink" x="0px" y="0px"
	 width="512px" height="512px" viewBox="0 0 512 512" enable-background="new 0 0 512 512" xml:space="preserve">
<path fill="#69C299" d="M256.754,506.469c-90.436,0-186.558-20.546-186.558-58.612c0-32.726,66.609-47.85,106.316-53.955
	c3.78-0.616,7.203,1.984,7.775,5.698c0.571,3.725-1.979,7.205-5.699,7.777c-69.945,10.752-94.757,28.529-94.757,40.479
	c0,21.229,73.951,44.978,172.922,44.978c98.113,0,171.412-23.747,171.412-44.978c0-11.272-24.939-27.797-79.679-37.455
	c-3.706-0.652-6.184-4.188-5.525-7.897c0.655-3.707,4.184-6.191,7.896-5.523c57.803,10.19,90.943,28.732,90.943,50.877
	C441.803,485.923,346.461,506.469,256.754,506.469z"/>
<path fill="#5E686B" d="M256.762,415.072c-2.203,0-4.272-1.065-5.551-2.86c-5.586-7.85-136.833-193.038-136.833-267.476
	c0-76.835,63.187-139.343,140.858-139.343c77.182,0,142.385,63.813,142.385,139.343c0,74.418-129.761,259.598-135.285,267.44
	c-1.271,1.812-3.343,2.892-5.554,2.896C256.776,415.072,256.77,415.072,256.762,415.072z M255.237,19.028
	c-70.149,0-127.225,56.389-127.225,125.708c0,61.809,103.306,214.865,128.717,251.568
	c25.165-36.764,127.258-189.773,127.258-251.568C383.987,76.597,325.029,19.028,255.237,19.028z"/>
<path fill="#5E686B" d="M256,217.05c-37.358,0-67.748-30.392-67.748-67.748c0-37.354,30.39-67.747,67.748-67.747
	c37.354,0,67.748,30.393,67.748,67.747C323.748,186.658,293.355,217.05,256,217.05z M256,95.19
	c-29.84,0-54.114,24.274-54.114,54.112c0,29.839,24.274,54.113,54.114,54.113c29.836,0,54.111-24.274,54.111-54.113
	C310.112,119.464,285.836,95.19,256,95.19z"/>
</svg>
