<?xml version="1.0" encoding="utf-8"?>
<!-- Generator: Adobe Illustrator 16.0.0, SVG Export Plug-In . SVG Version: 6.00 Build 0)  -->
<!DOCTYPE svg PUBLIC "-//W3C//DTD SVG 1.1//EN" "http://www.w3.org/Graphics/SVG/1.1/DTD/svg11.dtd">
<svg version="1.1" id="Layer_1" xmlns="http://www.w3.org/2000/svg" xmlns:xlink="http://www.w3.org/1999/xlink" x="0px" y="0px"
	 width="512px" height="512px" viewBox="0 0 512 512" enable-background="new 0 0 512 512" xml:space="preserve">
<path fill="#5E686B" d="M256,509c-101.564,0-184.194-82.624-184.194-184.194c0-101.57,82.63-184.194,184.194-184.194
	c101.562,0,184.193,82.624,184.193,184.194C440.194,426.376,357.563,509,256,509z M256,154.256
	c-94.042,0-170.55,76.508-170.55,170.55c0,94.043,76.508,170.552,170.55,170.552c94.043,0,170.551-76.509,170.551-170.552
	C426.551,230.764,350.043,154.256,256,154.256z"/>
<path fill="#69C299" d="M256,384.632c-3.771,0-6.822-3.052-6.822-6.822v-81.864c0-3.77,3.051-6.821,6.822-6.821
	c3.771,0,6.821,3.053,6.821,6.821v81.864C262.822,381.58,259.771,384.632,256,384.632z"/>
<path fill="#69C299" d="M340.632,126.075c-3.771,0-6.822-3.052-6.822-6.822V64.85c0-26.249-21.385-47.594-47.667-47.594h-60.285
	c-26.281,0-47.668,21.346-47.668,47.594v54.403c0,3.771-3.051,6.822-6.821,6.822c-3.771,0-6.821-3.052-6.821-6.822V64.85
	c0-33.763,27.501-61.238,61.312-61.238h60.285c33.811,0,61.312,27.475,61.312,61.238v54.403
	C347.454,123.023,344.403,126.075,340.632,126.075z"/>
</svg>
