<?xml version="1.0" encoding="utf-8"?>
<!-- Generator: Adobe Illustrator 16.0.0, SVG Export Plug-In . SVG Version: 6.00 Build 0)  -->
<!DOCTYPE svg PUBLIC "-//W3C//DTD SVG 1.1//EN" "http://www.w3.org/Graphics/SVG/1.1/DTD/svg11.dtd">
<svg version="1.1" id="Layer_1" xmlns="http://www.w3.org/2000/svg" xmlns:xlink="http://www.w3.org/1999/xlink" x="0px" y="0px"
	 width="512px" height="512px" viewBox="0 0 512 512" enable-background="new 0 0 512 512" xml:space="preserve">
<path fill="#5E686C" d="M76.999,511.287c-20.503,0-39.78-8.002-54.285-22.514c-29.924-29.924-29.924-78.627,0-108.57
	c14.505-14.498,33.781-22.48,54.285-22.48s39.78,7.982,54.285,22.48c14.512,14.505,22.507,33.781,22.507,54.292
	c0,20.503-7.996,39.779-22.507,54.278C116.779,503.285,97.502,511.287,76.999,511.287z M76.999,371.683
	c-16.775,0-32.548,6.53-44.415,18.391c-24.484,24.497-24.484,64.346,0,88.83c11.867,11.88,27.64,18.424,44.415,18.424
	s32.548-6.544,44.415-18.424c11.874-11.867,18.417-27.634,18.417-44.408c0-16.775-6.543-32.555-18.417-44.422
	C109.547,378.213,93.774,371.683,76.999,371.683z"/>
<path fill="#5E686C" d="M438.781,268.361c-20.503,0-39.779-7.996-54.285-22.508c-29.923-29.923-29.923-78.626,0-108.57
	c14.506-14.498,33.782-22.48,54.285-22.48c20.504,0,39.78,7.982,54.285,22.48c14.505,14.505,22.508,33.782,22.508,54.292
	c0,20.503-8.003,39.78-22.508,54.278C478.561,260.365,459.284,268.361,438.781,268.361z M438.781,128.764
	c-16.768,0-32.541,6.53-44.415,18.39c-24.484,24.498-24.484,64.346,0,88.83c11.874,11.874,27.647,18.417,44.415,18.417
	c16.769,0,32.541-6.544,44.415-18.417c11.874-11.867,18.418-27.633,18.418-44.408s-6.544-32.555-18.418-44.422
	C471.322,135.293,455.549,128.764,438.781,128.764z"/>
<path fill="#5E686C" d="M257.774,391.695c-20.51,0-39.787-7.988-54.292-22.494c-29.924-29.923-29.924-78.626,0-108.57
	c14.505-14.504,33.782-22.493,54.292-22.493c20.497,0,39.787,7.989,54.306,22.493c29.924,29.944,29.924,78.647,0,108.57
	C297.561,383.707,278.271,391.695,257.774,391.695z M257.774,252.098c-16.781,0-32.555,6.537-44.422,18.404
	c-24.484,24.497-24.484,64.346,0,88.829c11.867,11.867,27.641,18.404,44.422,18.404c16.775,0,32.555-6.537,44.436-18.404
	c24.484-24.483,24.484-64.332,0-88.829C290.328,258.635,274.549,252.098,257.774,252.098z"/>
<path fill="#69C299" d="M77.006,154.27c-20.51,0-39.787-7.989-54.292-22.494c-29.924-29.924-29.924-78.626,0-108.57
	C37.219,8.701,56.495,0.712,77.006,0.712c20.497,0,39.787,7.989,54.306,22.494c29.923,29.944,29.923,78.646,0,108.57
	C116.792,146.281,97.502,154.27,77.006,154.27z M77.006,14.672c-16.782,0-32.555,6.537-44.422,18.404
	c-24.484,24.498-24.484,64.346,0,88.83c11.867,11.867,27.64,18.404,44.422,18.404c16.775,0,32.555-6.537,44.436-18.404
	c24.484-24.484,24.484-64.332,0-88.83C109.56,21.209,93.781,14.672,77.006,14.672z"/>
<path fill="#5E686C" d="M317.526,285.865c-2.311,0-4.574-1.145-5.903-3.244c-2.065-3.259-1.098-7.573,2.161-9.632l67.55-42.752
	c3.23-2.065,7.552-1.104,9.638,2.161c2.059,3.258,1.091,7.573-2.167,9.631l-67.55,42.751
	C320.095,285.518,318.8,285.865,317.526,285.865z"/>
<path fill="#5E686C" d="M134.371,401.783c-2.311,0-4.573-1.145-5.902-3.244c-2.065-3.259-1.091-7.573,2.161-9.632l65.246-41.293
	c3.278-2.059,7.58-1.091,9.631,2.161c2.065,3.258,1.09,7.572-2.161,9.631L138.1,400.699
	C136.942,401.436,135.646,401.783,134.371,401.783z"/>
<path fill="#69C299" d="M76.999,369.951c-3.858,0-6.98-3.122-6.98-6.979V147.29c0-3.858,3.122-6.98,6.98-6.98s6.98,3.122,6.98,6.98
	v215.682C83.979,366.829,80.857,369.951,76.999,369.951z"/>
<path fill="#5E686C" d="M257.781,252.098c-3.858,0-6.979-3.122-6.979-6.98V29.437c0-3.858,3.122-6.98,6.979-6.98
	c3.858,0,6.98,3.122,6.98,6.98v215.681C264.761,248.976,261.639,252.098,257.781,252.098z"/>
</svg>
