<?xml version="1.0" encoding="utf-8"?>
<!-- Generator: Adobe Illustrator 16.0.0, SVG Export Plug-In . SVG Version: 6.00 Build 0)  -->
<!DOCTYPE svg PUBLIC "-//W3C//DTD SVG 1.1//EN" "http://www.w3.org/Graphics/SVG/1.1/DTD/svg11.dtd">
<svg version="1.1" id="Layer_1" xmlns="http://www.w3.org/2000/svg" xmlns:xlink="http://www.w3.org/1999/xlink" x="0px" y="0px"
	 width="512px" height="512px" viewBox="0 0 512 512" enable-background="new 0 0 512 512" xml:space="preserve">
<path fill="#5E686B" d="M500.554,147.39h-83.333c-3.839,0-6.945,3.106-6.945,6.944v102.58c0,83.754-68.535,151.883-152.775,151.883
	c-84.242,0-152.778-68.129-152.778-151.883v-102.58c0-3.838-3.106-6.944-6.944-6.944H14.444c-3.838,0-6.942,3.106-6.942,6.944
	v105.537c0,137.098,112.153,248.629,250,248.629c137.845,0,250-111.531,249.996-248.629V154.334
	C507.496,150.496,504.393,147.39,500.554,147.39z M493.611,161.279v90.387h-69.444v-90.387H493.611L493.611,161.279z
	 M90.834,161.279v90.387H21.389v-90.387H90.834L90.834,161.279z M257.5,494.611c-128.283,0-232.992-102.236-236.039-229.057h69.598
	c4.534,87.403,77.45,157.129,166.441,157.129c88.989,0,161.905-69.726,166.439-157.129h69.598
	C490.49,392.374,385.783,494.611,257.5,494.611z"/>
<path fill="#69C299" d="M56.112,100.189c3.84,0,6.944-3.106,6.944-6.944V9.912c0-3.839-3.104-6.945-6.944-6.945
	c-3.839,0-6.942,3.106-6.942,6.945v83.333C49.168,97.083,52.273,100.189,56.112,100.189z"/>
<path fill="#69C299" d="M97.792,100.203c3.838,0,6.942-3.106,6.942-6.944V51.592c0-3.839-3.104-6.945-6.942-6.945
	s-6.945,3.107-6.945,6.945v41.667C90.847,97.097,93.954,100.203,97.792,100.203z"/>
<path fill="#69C299" d="M14.458,100.203c3.839,0,6.943-3.106,6.942-6.944V51.592c0-3.839-3.104-6.945-6.942-6.945
	s-6.944,3.107-6.944,6.945v41.667C7.514,97.097,10.62,100.203,14.458,100.203z"/>
<path fill="#69C299" d="M457.153,100.189c3.838,0,6.945-3.106,6.945-6.944V9.912c0-3.839-3.106-6.945-6.945-6.945
	c-3.838,0-6.941,3.106-6.941,6.945v83.333C450.21,97.083,453.315,100.189,457.153,100.189z"/>
<path fill="#69C299" d="M498.82,100.203c3.838,0,6.944-3.106,6.944-6.944V51.592c0-3.839-3.105-6.945-6.944-6.945
	s-6.942,3.107-6.942,6.945v41.667C491.876,97.097,494.981,100.203,498.82,100.203z"/>
<path fill="#69C299" d="M415.487,100.203c3.837,0,6.944-3.106,6.944-6.944V51.592c0-3.839-3.106-6.945-6.944-6.945
	c-3.839,0-6.942,3.107-6.942,6.945v41.667C408.543,97.097,411.648,100.203,415.487,100.203z"/>
</svg>
