<?xml version="1.0" encoding="utf-8"?>
<!-- Generator: Adobe Illustrator 16.0.0, SVG Export Plug-In . SVG Version: 6.00 Build 0)  -->
<!DOCTYPE svg PUBLIC "-//W3C//DTD SVG 1.1//EN" "http://www.w3.org/Graphics/SVG/1.1/DTD/svg11.dtd">
<svg version="1.1" id="Layer_1" xmlns="http://www.w3.org/2000/svg" xmlns:xlink="http://www.w3.org/1999/xlink" x="0px" y="0px"
	 width="512px" height="512px" viewBox="0 0 512 512" enable-background="new 0 0 512 512" xml:space="preserve">
<path fill="#69C299" d="M248.107,470.937c-3.697,0-6.689-2.992-6.689-6.688V393.31c0-3.697,2.992-6.689,6.689-6.689
	s6.688,2.992,6.688,6.689v70.938C254.795,467.944,251.804,470.937,248.107,470.937z"/>
<path fill="#69C299" d="M381.347,52.461h-133.24c-3.697,0-6.689-2.992-6.689-6.688c0-3.698,2.992-6.689,6.689-6.689h133.24
	c3.698,0,6.689,2.992,6.689,6.689C388.036,49.469,385.045,52.461,381.347,52.461z"/>
<path fill="#5E686C" d="M496.965,396.889H14.259c-3.697,0-6.688-2.991-6.688-6.688v-156.43c0-56.273,45.783-102.05,102.057-102.05
	c56.274,0,102.057,45.777,102.057,102.05v76.451c0,3.697-2.991,6.689-6.688,6.689s-6.689-2.992-6.689-6.689v-76.451
	c0-48.892-39.78-88.672-88.679-88.672s-88.679,39.78-88.679,88.672v149.741h469.328V219.74c0-44.646-31.366-74.642-78.058-74.642
	H284.843c-3.697,0-6.688-2.992-6.688-6.689c0-3.697,2.991-6.688,6.688-6.688h127.375c54.687,0,91.436,35.371,91.436,88.02V390.2
	C503.654,393.897,500.661,396.889,496.965,396.889z"/>
<path fill="#5E686C" d="M143.072,316.911H76.183c-3.697,0-6.689-2.992-6.689-6.689s2.992-6.688,6.689-6.688h66.888
	c3.697,0,6.688,2.991,6.688,6.688S146.769,316.911,143.072,316.911z"/>
<path fill="#5E686C" d="M297.881,145.098H109.627c-3.697,0-6.688-2.992-6.688-6.689c0-3.697,2.992-6.688,6.688-6.688h188.254
	c3.696,0,6.688,2.992,6.688,6.688C304.57,142.106,301.577,145.098,297.881,145.098z"/>
<path fill="#69C299" d="M248.107,226.612c-3.697,0-6.689-2.992-6.689-6.689V45.772c0-3.698,2.992-6.689,6.689-6.689
	s6.688,2.992,6.688,6.689v174.15C254.795,223.62,251.804,226.612,248.107,226.612z"/>
</svg>
