<?xml version="1.0" encoding="utf-8"?>
<!-- Generator: Adobe Illustrator 16.0.0, SVG Export Plug-In . SVG Version: 6.00 Build 0)  -->
<!DOCTYPE svg PUBLIC "-//W3C//DTD SVG 1.1//EN" "http://www.w3.org/Graphics/SVG/1.1/DTD/svg11.dtd">
<svg version="1.1" id="Layer_1" xmlns="http://www.w3.org/2000/svg" xmlns:xlink="http://www.w3.org/1999/xlink" x="0px" y="0px"
	 width="512px" height="512px" viewBox="0 0 512 512" enable-background="new 0 0 512 512" xml:space="preserve">
<path fill="#69C299" d="M329.378,219.561c1.232,0.898,2.652,1.327,4.061,1.327c2.104,0,4.194-0.965,5.535-2.802L430.26,93.533
	c2.235-3.055,1.581-7.35-1.477-9.588c-3.067-2.238-7.356-1.588-9.595,1.481l-91.286,124.54
	C325.666,213.021,326.323,217.323,329.378,219.561z"/>
<path fill="#69C299" d="M247.5,219.561c1.219,0.898,2.64,1.327,4.047,1.327c2.11,0,4.194-0.965,5.542-2.802l91.266-124.553
	c2.238-3.055,1.582-7.35-1.474-9.588c-3.07-2.238-7.344-1.588-9.595,1.481l-91.269,124.54
	C243.781,213.021,244.445,217.323,247.5,219.561z"/>
<g>
	<path fill="#69C299" d="M496.184,272.202H19.008c-3.768,0-6.817-3.049-6.817-6.816V47.248c0-3.768,3.049-6.817,6.817-6.817h477.176
		c3.768,0,6.816,3.049,6.816,6.817v218.138C503,269.153,499.951,272.202,496.184,272.202z M25.825,258.568h463.542V54.065H25.825
		V258.568z"/>
	<path fill="#5E686C" d="M101.489,505.725c-3.768,0-6.817-3.049-6.817-6.817V275.118c0-3.769,3.049-6.817,6.817-6.817
		c3.768,0,6.817,3.049,6.817,6.817v223.789C108.306,502.676,105.257,505.725,101.489,505.725z"/>
	<path fill="#5E686C" d="M411.373,505.725c-3.769,0-6.817-3.049-6.817-6.817V275.118c0-3.769,3.049-6.817,6.817-6.817
		c3.768,0,6.817,3.049,6.817,6.817v223.789C418.191,502.676,415.141,505.725,411.373,505.725z"/>
	<path fill="#5E686C" d="M101.489,47.009c-3.768,0-6.817-3.049-6.817-6.817V12.924c0-3.768,3.049-6.817,6.817-6.817
		c3.768,0,6.817,3.049,6.817,6.817v27.267C108.306,43.959,105.257,47.009,101.489,47.009z"/>
	<path fill="#5E686C" d="M411.373,47.009c-3.769,0-6.817-3.049-6.817-6.817V12.924c0-3.768,3.049-6.817,6.817-6.817
		c3.768,0,6.817,3.049,6.817,6.817v27.267C418.191,43.959,415.141,47.009,411.373,47.009z"/>
	<path fill="#5E686C" d="M445.457,505.725h-68.168c-3.768,0-6.816-3.049-6.816-6.817s3.049-6.816,6.816-6.816h68.168
		c3.768,0,6.816,3.048,6.816,6.816S449.225,505.725,445.457,505.725z"/>
	<path fill="#5E686C" d="M135.573,505.725H67.405c-3.768,0-6.817-3.049-6.817-6.817s3.049-6.816,6.817-6.816h68.167
		c3.768,0,6.817,3.048,6.817,6.816S139.341,505.725,135.573,505.725z"/>
	<path fill="#5E686C" d="M334.298,220.464c-1.398,0-2.81-0.426-4.034-1.318c-3.036-2.223-3.688-6.491-1.464-9.527l90.708-123.74
		c2.224-3.036,6.484-3.688,9.533-1.471c3.035,2.223,3.688,6.491,1.465,9.526l-90.709,123.741
		C338.466,219.499,336.389,220.464,334.298,220.464z"/>
	<path fill="#5E686C" d="M252.949,220.464c-1.397,0-2.81-0.426-4.034-1.318c-3.035-2.223-3.688-6.491-1.465-9.527l90.669-123.74
		c2.224-3.036,6.484-3.688,9.533-1.471c3.035,2.223,3.688,6.491,1.464,9.526l-90.669,123.741
		C257.116,219.499,255.039,220.464,252.949,220.464z"/>
	<path fill="#5E686C" d="M171.561,220.464c-1.398,0-2.81-0.426-4.035-1.318c-3.035-2.223-3.688-6.491-1.464-9.527l90.696-123.74
		c2.223-3.036,6.482-3.688,9.532-1.471c3.035,2.223,3.688,6.491,1.465,9.526l-90.696,123.741
		C175.728,219.499,173.651,220.464,171.561,220.464z"/>
	<path fill="#5E686C" d="M90.198,220.464c-1.398,0-2.81-0.426-4.034-1.318c-3.036-2.223-3.688-6.491-1.464-9.527l90.668-123.74
		c2.223-3.036,6.484-3.688,9.533-1.471c3.036,2.223,3.688,6.491,1.464,9.526L95.697,217.675
		C94.366,219.499,92.289,220.464,90.198,220.464z"/>
</g>
</svg>
