<?xml version="1.0" encoding="utf-8"?>
<!-- Generator: Adobe Illustrator 16.0.0, SVG Export Plug-In . SVG Version: 6.00 Build 0)  -->
<!DOCTYPE svg PUBLIC "-//W3C//DTD SVG 1.1//EN" "http://www.w3.org/Graphics/SVG/1.1/DTD/svg11.dtd">
<svg version="1.1" id="Layer_1" xmlns="http://www.w3.org/2000/svg" xmlns:xlink="http://www.w3.org/1999/xlink" x="0px" y="0px"
	 width="512px" height="512px" viewBox="0 0 512 512" enable-background="new 0 0 512 512" xml:space="preserve">
<path fill="#5E686B" d="M300.497,196.564c-14.919,0-27.064,12.137-27.064,27.051c0,3.653,2.957,6.61,6.611,6.61
	c3.651,0,6.608-2.956,6.608-6.61c0-7.632,6.213-13.83,13.845-13.83c7.623,0,13.828,6.199,13.828,13.83
	c0,3.653,2.955,6.61,6.611,6.61c3.652,0,6.609-2.956,6.61-6.61C327.548,208.701,315.409,196.564,300.497,196.564z"/>
<path fill="#5E686B" d="M208.509,196.564c-14.914,0-27.051,12.137-27.051,27.051c0,3.653,2.958,6.61,6.609,6.61
	c3.655,0,6.612-2.956,6.612-6.61c0-7.632,6.203-13.83,13.828-13.83c7.619,0,13.816,6.199,13.816,13.83c0,3.653,2.956,6.61,6.61,6.61
	c3.653,0,6.61-2.956,6.611-6.61C235.548,208.701,223.417,196.564,208.509,196.564z"/>
<path fill="#69C299" d="M89.393,167.408c0,91.871,74.743,166.605,166.607,166.605c91.863,0,166.605-74.734,166.605-166.605
	S347.865,0.801,256,0.801c-69.202,0-128.682,42.414-153.819,102.612c-0.191,0.365-0.35,0.749-0.471,1.15
	C93.778,123.967,89.393,145.184,89.393,167.408z M256,320.793c-84.575,0-153.384-68.811-153.384-153.385
	c0-19.12,3.526-37.428,9.946-54.323h286.875c6.421,16.895,9.947,35.204,9.947,54.323C409.385,251.982,340.576,320.793,256,320.793z
	 M256,14.023c60.351,0,112.663,35.041,137.686,85.84H118.315C143.337,49.063,195.65,14.023,256,14.023z"/>
<path fill="#5E686B" d="M374.922,356.881H137.078c-41.158,0-74.646,33.482-74.646,74.646v68.164c0,3.653,2.957,6.56,6.611,6.56
	c0.298,0,0.594-0.026,0.878-0.065h373.034c3.654,0,6.611-2.957,6.611-6.609v-68.048
	C449.568,390.362,416.078,356.881,374.922,356.881z M436.345,492.964H75.654v-61.437c0-33.868,27.557-61.425,61.426-61.425h237.843
	c33.867,0,61.424,27.557,61.424,61.425L436.345,492.964L436.345,492.964z"/>
</svg>
