<?xml version="1.0" encoding="utf-8"?>
<!-- Generator: Adobe Illustrator 16.0.0, SVG Export Plug-In . SVG Version: 6.00 Build 0)  -->
<!DOCTYPE svg PUBLIC "-//W3C//DTD SVG 1.1//EN" "http://www.w3.org/Graphics/SVG/1.1/DTD/svg11.dtd">
<svg version="1.1" id="Layer_1" xmlns="http://www.w3.org/2000/svg" xmlns:xlink="http://www.w3.org/1999/xlink" x="0px" y="0px"
	 width="512px" height="512px" viewBox="0 0 512 512" enable-background="new 0 0 512 512" xml:space="preserve">
<g>
	<path fill="#69C299" d="M410.893,293.834c-14.259,0-25.866,11.594-25.866,25.841c0,14.272,11.607,25.893,25.866,25.893
		s25.865-11.619,25.865-25.893C436.758,305.428,425.152,293.834,410.893,293.834z M410.893,332.634
		c-7.136,0-12.933-5.81-12.933-12.958c0-7.123,5.797-12.908,12.933-12.908s12.932,5.785,12.933,12.908
		C423.824,326.824,418.029,332.634,410.893,332.634z"/>
	<path fill="#69C299" d="M471.465,245.071H316.426c-1.743-5.768-5.03-11.009-9.575-15.143c-1.729-1.553-2.286-4.029-1.39-6.176
		c0.77-1.831,2.941-3.341,4.534-3.366l2.941,0.082c16.886,0,31.106-12.712,33.077-29.572c1.452-12.491,1.479-25.209,0.088-37.807
		c-2.084-18.578-19.197-29.68-34.529-29.68c-2.448,0-4.598-1.326-5.418-3.321c-0.873-2.135-0.277-4.654,1.439-6.239
		c12.894-11.784,14.512-31.707,3.7-45.341c-7.83-9.94-16.709-18.913-26.383-26.649c-13.275-10.634-34.261-8.954-45.771,3.713
		c-0.594,0.669-2.539,1.591-4.642,1.591c-0.81,0-1.326-0.138-1.458-0.189c-2.137-0.896-3.486-3.081-3.366-5.38
		c1.08-17.682-11.878-33.153-29.503-35.218c-12.302-1.44-25.104-1.472-37.416-0.095C145.491,8.194,132.42,23.3,133,40.672
		c0.076,2.394-1.265,4.572-3.341,5.418c-0.252,0.108-0.759,0.215-1.422,0.215c-2.135,0-4.13-0.953-4.779-1.673
		c-11.234-12.358-31.656-14.322-45.393-3.789c-9.989,7.849-19.032,16.798-26.87,26.592c-11.068,13.753-9.483,33.841,3.612,45.738
		c1.749,1.585,2.33,4.067,1.465,6.151c-0.846,2.001-3.802,3.347-7.344,3.353c-17.176,0-31.151,12.402-33.235,29.509
		c-1.478,12.396-1.51,25.133-0.095,37.864c2.173,19.267,19.861,29.661,35.408,29.661c1.781,0,3.726,1.478,4.541,3.46
		c0.852,2.059,0.232,4.541-1.535,6.17c-12.8,11.79-14.392,31.669-3.644,45.246c7.697,9.826,16.563,18.793,26.346,26.662
		c5.929,4.761,13.368,7.375,20.946,7.375c3.341,0,6.663-0.519,9.84-1.498v62.728c0,13.488,11.853,24.451,26.421,24.451h337.542
		c14.549,0,26.396-10.963,26.396-24.452V269.521C497.861,256.04,486.014,245.071,471.465,245.071z M84.82,291.167
		c-9.012-7.249-17.177-15.509-24.285-24.59c-6.589-8.317-5.604-20.499,2.246-27.729c5.74-5.285,7.636-13.577,4.729-20.605
		c-2.812-6.858-9.454-11.468-16.521-11.468c-9.933,0-21.203-6.372-22.529-18.168c-1.309-11.739-1.282-23.479,0.076-34.877
		c1.28-10.502,9.856-18.124,20.408-18.124c8.941-0.019,16.317-4.326,19.262-11.285c2.974-7.161,1.079-15.497-4.705-20.732
		c-8.033-7.299-9.013-19.62-2.21-28.063c7.224-9.036,15.56-17.284,24.716-24.476c8.456-6.486,21.004-5.28,27.868,2.254
		c4.57,5.078,14.215,7.414,20.688,4.749c7.062-2.892,11.626-10.053,11.361-17.814c-0.354-10.666,7.666-19.936,18.269-21.104
		c11.354-1.263,23.156-1.238,34.479,0.082c10.811,1.27,18.761,10.748,18.092,21.635c-0.417,7.774,4.111,15.029,11.253,18.035
		c2.355,0.999,4.824,1.207,6.485,1.207c5.558,0,11.032-2.267,14.253-5.873c7.034-7.729,19.917-8.809,28.062-2.273
		c8.916,7.13,17.103,15.396,24.337,24.578c6.618,8.355,5.621,20.555-2.298,27.792c-5.684,5.235-7.564,13.52-4.674,20.681
		c2.88,6.89,9.701,11.342,17.392,11.342c9.65,0,20.397,6.801,21.675,18.18c1.288,11.62,1.263,23.352-0.089,34.871
		c-1.199,10.344-9.902,18.143-20.222,18.143l-2.792-0.076c-7.021,0.083-13.854,4.724-16.605,11.279
		c-3.044,7.218-1.163,15.585,4.646,20.789c1.764,1.602,3.208,3.484,4.308,5.544H133.923c-14.568,0-26.421,10.969-26.421,24.451
		v23.612C100.438,296.896,91.134,296.247,84.82,291.167z M484.928,369.854c0,6.354-6.037,11.521-13.463,11.521H133.923
		c-7.439,0-13.489-5.166-13.489-11.521v-100.33c0-6.354,6.05-11.52,13.489-11.52v-0.001h337.542c7.426,0,13.463,5.166,13.463,11.519
		V369.854z"/>
	<path fill="#69C299" d="M180.842,229.461c26.781,0,48.574-21.8,48.574-48.587s-21.793-48.586-48.574-48.586
		c-26.788,0-48.58,21.798-48.58,48.586S154.054,229.461,180.842,229.461z M180.842,145.221c19.652,0,35.641,15.996,35.641,35.654
		s-15.987,35.654-35.641,35.654c-19.658,0-35.647-15.996-35.647-35.654S161.184,145.221,180.842,145.221z"/>
	<path fill="#69C299" d="M433.7,473.657h-102.56c-2.343-9.078-9.506-16.237-18.584-18.582v-33.15c0-3.574-2.893-6.467-6.467-6.467
		s-6.466,2.893-6.466,6.467v33.15c-9.078,2.344-16.242,9.504-18.584,18.582H178.48c-3.574,0-6.466,2.892-6.466,6.466
		s2.892,6.467,6.466,6.467h102.567c2.882,11.146,13.02,19.399,25.044,19.399s22.163-8.254,25.045-19.399H433.7
		c3.575,0,6.468-2.893,6.468-6.467S437.276,473.657,433.7,473.657z M306.091,493.056c-7.136,0-12.933-5.809-12.933-12.943
		c0-7.124,5.797-12.921,12.933-12.921c7.135,0,12.931,5.795,12.933,12.917c0,0.006-0.001,0.011-0.001,0.016c0,0.001,0,0.003,0,0.004
		C319.014,487.254,313.222,493.056,306.091,493.056z"/>
</g>
<path fill="none" stroke="#69C299" stroke-linecap="round" stroke-linejoin="round" stroke-miterlimit="10" d="M116.334,284.864"/>
<path fill="#5E686C" d="M98.508,307.901c-7.541,0-14.955-2.605-20.872-7.34c-9.744-7.849-18.58-16.787-26.26-26.586
	c-10.712-13.527-9.127-33.348,3.638-45.099c1.737-1.599,2.354-4.13,1.523-6.15c-0.806-1.977-2.757-3.449-4.532-3.449
	c-15.484,0-33.108-10.36-35.286-29.564c-1.417-12.721-1.385-25.417,0.101-37.746c2.077-17.046,16-29.407,33.12-29.407
	c3.525-0.006,6.483-1.347,7.314-3.342c0.869-2.077,0.289-4.551-1.447-6.125c-13.067-11.858-14.641-31.88-3.613-45.596
	c7.83-9.769,16.843-18.694,26.801-26.505c13.67-10.511,34.039-8.561,45.23,3.783c0.642,0.699,2.643,1.662,4.771,1.662
	c0.654,0,1.158-0.107,1.41-0.214c2.077-0.849,3.411-3.015,3.323-5.388c-0.579-17.329,12.463-32.384,29.671-34.292
	c12.273-1.359,25.039-1.327,37.287,0.095c17.574,2.059,30.49,17.479,29.408,35.104c-0.126,2.259,1.258,4.481,3.36,5.362
	c0.126,0.05,0.643,0.189,1.449,0.189c2.102,0,4.028-0.914,4.606-1.574c11.48-12.659,32.428-14.313,45.647-3.714
	c9.68,7.754,18.528,16.692,26.283,26.568c10.789,13.589,9.177,33.448-3.675,45.187c-1.713,1.58-2.304,4.091-1.436,6.219
	c0.818,1.995,2.945,3.311,5.4,3.311c15.296,0,32.34,11.065,34.403,29.589c1.386,12.532,1.36,25.202-0.075,37.671
	c-1.963,16.812-16.138,29.482-32.969,29.482l-2.945-0.082c-1.586,0.025-3.751,1.529-4.52,3.354
	c-0.894,2.134-0.341,4.601,1.396,6.156c5.98,5.432,9.782,12.809,10.726,20.789c0.428,3.532-2.102,6.742-5.627,7.163
	c-3.538,0.417-6.734-2.095-7.162-5.639c-0.592-4.897-2.921-9.429-6.571-12.746c-5.791-5.193-7.679-13.533-4.646-20.721
	c2.745-6.533,9.556-11.159,16.555-11.241l2.794,0.076c10.284,0,18.958-7.774,20.154-18.084c1.335-11.493,1.358-23.188,0.076-34.756
	c-1.26-11.343-11.973-18.122-21.59-18.122c-7.691,0-14.489-4.443-17.335-11.323c-2.882-7.119-1.007-15.377,4.658-20.595
	c7.894-7.213,8.888-19.367,2.277-27.7c-7.174-9.121-15.332-17.36-24.245-24.504c-8.106-6.509-20.972-5.445-27.983,2.278
	c-3.186,3.582-8.649,5.847-14.2,5.847c-1.65,0-4.117-0.208-6.471-1.202c-7.125-3.003-11.632-10.234-11.205-17.983
	c0.655-10.845-7.263-20.293-18.039-21.558c-11.254-1.315-23.049-1.34-34.367-0.082c-10.562,1.164-18.555,10.404-18.203,21.036
	c0.265,7.729-4.28,14.873-11.33,17.756c-6.496,2.694-15.987,0.39-20.62-4.721c-6.848-7.553-19.336-8.736-27.77-2.259
	c-9.126,7.163-17.435,15.383-24.648,24.396c-6.772,8.421-5.803,20.702,2.204,27.971c5.778,5.218,7.666,13.526,4.695,20.67
	c-2.933,6.931-10.284,11.223-19.197,11.241c-10.512,0-19.059,7.598-20.343,18.065c-1.359,11.336-1.384,23.037-0.076,34.763
	c1.322,11.758,12.564,18.108,22.458,18.108c7.049,0,13.658,4.595,16.465,11.431c2.896,6.999,1.007,15.263-4.708,20.537
	c-7.83,7.208-8.824,19.349-2.253,27.638c7.1,9.058,15.232,17.298,24.208,24.51c7.125,5.709,18.015,5.81,25.165,0.34
	c2.832-2.158,6.86-1.623,9.039,1.216c2.165,2.832,1.611,6.872-1.208,9.032C112.935,305.484,105.772,307.901,98.508,307.901z"/>
<path fill="#5E686C" d="M181.416,228.996c-26.7,0-48.416-21.728-48.416-48.428c0-26.7,21.715-48.428,48.416-48.428
	c26.701,0,48.416,21.728,48.416,48.428C229.832,207.268,208.117,228.996,181.416,228.996z M181.416,145.031
	c-19.588,0-35.524,15.943-35.524,35.537c0,19.595,15.937,35.538,35.524,35.538c19.587,0,35.525-15.943,35.525-35.538
	C216.941,160.974,201.004,145.031,181.416,145.031z"/>
<path fill="#5E686C" d="M306.256,504.615c-14.212,0-25.769-11.568-25.769-25.782c0-14.212,11.557-25.78,25.769-25.78
	c14.226,0,25.794,11.568,25.794,25.78C332.05,493.047,320.482,504.615,306.256,504.615z M306.256,465.943
	c-7.1,0-12.878,5.778-12.878,12.89c0,7.113,5.778,12.892,12.878,12.892c7.113,0,12.904-5.778,12.904-12.892
	C319.16,471.722,313.369,465.943,306.256,465.943z"/>
<path fill="#5E686C" d="M306.269,465.943c-3.562,0-6.444-2.883-6.444-6.446v-38.671c0-3.562,2.882-6.445,6.444-6.445
	s6.446,2.883,6.446,6.445v38.671C312.715,463.061,309.831,465.943,306.269,465.943z"/>
<path fill="#5E686C" d="M286.934,485.279H179.074c-3.562,0-6.445-2.882-6.445-6.446c0-3.562,2.883-6.445,6.445-6.445h107.859
	c3.562,0,6.444,2.884,6.444,6.445C293.378,482.397,290.495,485.279,286.934,485.279z"/>
<path fill="#5E686C" d="M433.463,485.279H325.605c-3.562,0-6.444-2.882-6.444-6.446c0-3.562,2.883-6.445,6.444-6.445h107.858
	c3.562,0,6.445,2.884,6.445,6.445C439.908,482.397,437.026,485.279,433.463,485.279z"/>
<path fill="#69C299" d="M410.729,344.717c-14.212,0-25.782-11.569-25.782-25.801c0-14.201,11.57-25.756,25.782-25.756
	c14.213,0,25.781,11.555,25.781,25.756C436.51,333.147,424.942,344.717,410.729,344.717z M410.729,306.051
	c-7.112,0-12.891,5.771-12.891,12.865c0,7.118,5.778,12.915,12.891,12.915c7.111,0,12.891-5.797,12.891-12.915
	C423.619,311.822,417.84,306.051,410.729,306.051z"/>
<path fill="#69C299" d="M471.091,393.308H134.662c-14.527,0-26.335-10.927-26.335-24.373V268.927
	c0-13.439,11.808-24.372,26.335-24.372h336.429c14.513,0,26.322,10.933,26.322,24.372v100.008
	C497.413,382.381,485.604,393.308,471.091,393.308z M134.662,257.445c-7.414,0-13.445,5.149-13.445,11.481v100.008
	c0,6.333,6.031,11.482,13.445,11.482h336.429c7.401,0,13.432-5.149,13.432-11.482V268.927c0-6.332-6.03-11.481-13.432-11.481
	H134.662z"/>
</svg>
