<?xml version="1.0" encoding="utf-8"?>
<!-- Generator: Adobe Illustrator 16.0.0, SVG Export Plug-In . SVG Version: 6.00 Build 0)  -->
<!DOCTYPE svg PUBLIC "-//W3C//DTD SVG 1.1//EN" "http://www.w3.org/Graphics/SVG/1.1/DTD/svg11.dtd">
<svg version="1.1" id="Layer_1" xmlns="http://www.w3.org/2000/svg" xmlns:xlink="http://www.w3.org/1999/xlink" x="0px" y="0px"
	 width="512px" height="512px" viewBox="0 0 512 512" enable-background="new 0 0 512 512" xml:space="preserve">
<path fill="#5E686C" d="M13.292,478.204c-1.506,0-2.973-0.502-4.176-1.441c-1.639-1.281-2.591-3.251-2.591-5.325V89.567
	c0-3.12,2.128-5.835,5.167-6.575l162.081-39.503c3.608-0.892,7.282,1.348,8.168,4.976c0.885,3.627-1.335,7.289-4.969,8.174
	L20.059,94.879V462.82l153.715-37.441c3.688-0.898,7.282,1.348,8.168,4.969c0.885,3.635-1.335,7.297-4.969,8.168l-162.082,39.49
	C14.363,478.138,13.821,478.204,13.292,478.204z"/>
<path fill="#5E686C" d="M337.429,478.204c-3.054,0-5.815-2.075-6.568-5.168c-0.886-3.634,1.334-7.295,4.969-8.167l156.914-38.235
	V58.681l-153.716,37.46c-3.568,0.893-7.282-1.348-8.167-4.975c-0.886-3.628,1.334-7.289,4.969-8.174l162.082-39.503
	c2.008-0.496,4.149-0.026,5.774,1.256c1.639,1.282,2.591,3.244,2.591,5.319v381.883c0,3.119-2.128,5.842-5.168,6.568l-162.081,39.49
	C338.486,478.138,337.957,478.204,337.429,478.204z"/>
<path fill="#69C299" d="M337.429,478.204c-0.542,0-1.071-0.066-1.6-0.198l-162.055-39.543c-3.04-0.739-5.167-3.449-5.167-6.568
	V50.064c0-2.075,0.952-4.038,2.591-5.319c1.612-1.282,3.713-1.751,5.775-1.256l162.055,39.503c3.039,0.74,5.167,3.456,5.167,6.575
	v381.871c0,2.074-0.951,4.044-2.591,5.325C340.403,477.702,338.935,478.204,337.429,478.204z M182.14,426.582l148.522,36.238V94.879
	L182.14,58.681V426.582z"/>
</svg>
