<?xml version="1.0" encoding="utf-8"?>
<!-- Generator: Adobe Illustrator 16.0.0, SVG Export Plug-In . SVG Version: 6.00 Build 0)  -->
<!DOCTYPE svg PUBLIC "-//W3C//DTD SVG 1.1//EN" "http://www.w3.org/Graphics/SVG/1.1/DTD/svg11.dtd">
<svg version="1.1" id="Layer_1" xmlns="http://www.w3.org/2000/svg" xmlns:xlink="http://www.w3.org/1999/xlink" x="0px" y="0px"
	 width="512px" height="512px" viewBox="0 0 512 512" enable-background="new 0 0 512 512" xml:space="preserve">
<path fill="#69C299" d="M319.29,508c-1.778,0-3.53-0.695-4.841-2.006l-53.711-53.725c-0.428-0.428-1.21-1.577-1.511-2.1
	c-2.582-2.621-6.132-1.952-8.346,0.268c-0.234,0.349-0.923,1.538-1.217,1.832l-53.709,53.725c-1.953,1.952-4.908,2.527-7.463,1.483
	c-2.556-1.057-4.227-3.558-4.227-6.325V339.769c-0.087-1.402,0.254-2.808,1.017-4.037c1.251-2.021,3.45-3.237,5.817-3.237h19.486
	c1.204,0,2.387,0.321,3.424,0.923l41.192,23.806l41.245-23.806c1.044-0.602,2.221-0.923,3.424-0.923h19.433
	c2.367,0,4.567,1.218,5.817,3.237c0.763,1.229,1.104,2.635,1.017,4.037v161.385c0,2.769-1.672,5.27-4.226,6.325
	C321.063,507.826,320.173,508,319.29,508z M254.928,435.139c5.778,0,10.652,1.993,14.277,5.617c1.01,1.029,1.57,2.006,1.905,2.595
	l41.332,41.285V346.188h-10.738l-43.078,24.862c-2.112,1.23-4.734,1.23-6.848,0l-43.03-24.862h-10.786v138.435l42.021-42.034
	c-0.455,0.188,0.228-0.814,1.157-1.778C244.824,437.132,249.699,435.139,254.928,435.139z"/>
<path fill="#5E686B" d="M255.216,342.363c-1.184,0-2.367-0.309-3.431-0.923l-36.137-20.891h-41.812
	c-2.448,0-4.708-1.311-5.933-3.424l-20.896-36.163l-36.204-20.917c-2.12-1.217-3.424-3.478-3.424-5.925v-41.767l-20.896-36.177
	c-1.224-2.113-1.224-4.721,0-6.847l20.896-36.217v-41.78c0-2.447,1.304-4.708,3.424-5.932l36.21-20.923l20.897-36.143
	c1.224-2.113,3.477-3.417,5.925-3.417h41.819l36.137-20.87c2.112-1.217,4.722-1.217,6.848,0l36.163,20.87h41.82
	c2.446,0,4.708,1.304,5.932,3.424l20.883,36.143l36.19,20.917c2.119,1.224,3.424,3.484,3.424,5.932v41.78l20.896,36.217
	c1.217,2.126,1.217,4.734-0.014,6.847l-20.883,36.203v41.74c0,2.447-1.305,4.708-3.424,5.925l-36.203,20.917l-20.87,36.163
	c-1.224,2.113-3.484,3.424-5.932,3.424H294.81l-36.17,20.891C257.583,342.056,256.4,342.363,255.216,342.363z M177.787,306.855h39.7
	c1.204,0,2.388,0.32,3.432,0.923l34.297,19.834l34.331-19.834c1.036-0.603,2.22-0.923,3.424-0.923h39.7l19.807-34.332
	c0.604-1.043,1.465-1.897,2.508-2.5l34.371-19.86V210.55c0-1.204,0.314-2.38,0.916-3.424l19.834-34.371l-19.834-34.384
	c-0.602-1.043-0.916-2.22-0.916-3.424v-39.66L355,75.427c-1.043-0.602-1.906-1.465-2.508-2.508l-19.82-34.304h-39.7
	c-1.204,0-2.381-0.314-3.424-0.916l-34.331-19.813l-34.304,19.813c-1.043,0.602-2.221,0.916-3.425,0.916h-39.7l-19.84,34.311
	c-0.596,1.036-1.458,1.899-2.502,2.501l-34.37,19.86v39.66c0,1.204-0.314,2.381-0.916,3.424l-19.841,34.384L120.16,207.1
	c0.602,1.043,0.916,2.22,0.916,3.423v39.64l34.37,19.86c1.044,0.603,1.906,1.457,2.508,2.5L177.787,306.855z"/>
</svg>
