<?xml version="1.0" encoding="utf-8"?>
<!-- Generator: Adobe Illustrator 16.0.0, SVG Export Plug-In . SVG Version: 6.00 Build 0)  -->
<!DOCTYPE svg PUBLIC "-//W3C//DTD SVG 1.1//EN" "http://www.w3.org/Graphics/SVG/1.1/DTD/svg11.dtd">
<svg version="1.1" id="Layer_1" xmlns="http://www.w3.org/2000/svg" xmlns:xlink="http://www.w3.org/1999/xlink" x="0px" y="0px"
	 width="512px" height="512px" viewBox="0 0 512 512" enable-background="new 0 0 512 512" xml:space="preserve">
<path fill="#5E686C" d="M142.213,439.401H44.735c-3.733,0-6.754-3.021-6.754-6.755v-106.99H12.229c-3.734,0-6.755-3.021-6.755-6.755
	v-81.239c0-30.593,24.901-55.487,55.5-55.487h64.999c21.326,0,41.022,12.467,50.177,31.781c1.603,3.364,0.165,7.388-3.206,8.997
	c-3.384,1.57-7.408,0.158-8.998-3.219c-6.933-14.604-21.84-24.05-37.974-24.05H60.974c-23.153,0-41.991,18.825-41.991,41.978v74.484
	h25.751c3.733,0,6.754,3.021,6.754,6.755v106.99h90.724c3.733,0,6.755,3.021,6.755,6.755S145.947,439.401,142.213,439.401z"/>
<path fill="#5E686C" d="M93.468,145.448c-29.789,0-54.023-24.235-54.023-54.036c0-29.802,24.234-54.036,54.023-54.036
	c29.801,0,54.049,24.234,54.049,54.036C147.517,121.213,123.269,145.448,93.468,145.448z M93.468,50.884
	c-22.341,0-40.514,18.179-40.514,40.527c0,22.348,18.173,40.527,40.514,40.527c22.354,0,40.54-18.179,40.54-40.527
	C134.008,69.063,115.822,50.884,93.468,50.884z"/>
<path fill="#5E686C" d="M467.182,439.401h-97.479c-3.733,0-6.755-3.021-6.755-6.755s3.021-6.755,6.755-6.755h90.724v-106.99
	c0-3.733,3.021-6.755,6.755-6.755h25.752v-74.484c0-23.152-18.839-41.978-41.991-41.978h-65c-16.134,0-31.041,9.445-37.974,24.05
	c-1.597,3.377-5.613,4.789-8.997,3.219c-3.371-1.609-4.809-5.633-3.206-8.997c9.155-19.314,28.852-31.781,50.177-31.781h65
	c30.605,0,55.5,24.894,55.5,55.487v81.239c0,3.733-3.021,6.755-6.755,6.755h-25.751v106.99
	C473.937,436.38,470.915,439.401,467.182,439.401z"/>
<path fill="#5E686C" d="M418.449,145.448c-29.802,0-54.05-24.235-54.05-54.036c0-29.802,24.248-54.036,54.05-54.036
	c29.788,0,54.022,24.234,54.022,54.036C472.472,121.213,448.238,145.448,418.449,145.448z M418.449,50.884
	c-22.349,0-40.54,18.179-40.54,40.527c0,22.348,18.191,40.527,40.54,40.527c22.335,0,40.514-18.179,40.514-40.527
	C458.963,69.063,440.784,50.884,418.449,50.884z"/>
<path fill="#69C299" d="M304.704,504.387h-97.492c-3.733,0-6.754-3.021-6.754-6.755V374.415h-41.992
	c-3.733,0-6.754-3.021-6.754-6.755V253.916c0-39.564,32.183-71.741,71.741-71.741h65.012c39.558,0,71.74,32.176,71.74,71.741V367.66
	c0,3.734-3.021,6.755-6.754,6.755h-41.992v123.217C311.458,501.365,308.438,504.387,304.704,504.387z M213.967,490.878h83.982
	V367.66c0-3.733,3.021-6.754,6.755-6.754h41.991v-106.99c0-32.11-26.121-58.231-58.231-58.231h-65.012
	c-32.11,0-58.231,26.121-58.231,58.231v106.99h41.991c3.733,0,6.755,3.021,6.755,6.754V490.878z"/>
<path fill="#69C299" d="M255.958,142.704c-37.242,0-67.545-30.29-67.545-67.519c0-37.255,30.303-67.571,67.545-67.571
	s67.545,30.316,67.545,67.571C323.503,112.414,293.2,142.704,255.958,142.704z M255.958,21.122
	c-29.795,0-54.036,24.248-54.036,54.062c0,29.775,24.241,54.01,54.036,54.01s54.036-24.234,54.036-54.01
	C309.994,45.37,285.753,21.122,255.958,21.122z"/>
</svg>
