<?xml version="1.0" encoding="utf-8"?>
<!-- Generator: Adobe Illustrator 16.0.0, SVG Export Plug-In . SVG Version: 6.00 Build 0)  -->
<!DOCTYPE svg PUBLIC "-//W3C//DTD SVG 1.1//EN" "http://www.w3.org/Graphics/SVG/1.1/DTD/svg11.dtd">
<svg version="1.1" id="Layer_1" xmlns="http://www.w3.org/2000/svg" xmlns:xlink="http://www.w3.org/1999/xlink" x="0px" y="0px"
	 width="512px" height="512px" viewBox="0 0 512 512" enable-background="new 0 0 512 512" xml:space="preserve">
<path fill="#5E686B" d="M350.322,57.32c-6.328,0-12.533,1.65-17.725,4.654c-3.373,1.804-8.188,4.701-14.346,8.403
	C274.954,96.472,159.926,165.77,12.866,165.77c-3.798,0-6.867,3.072-6.867,6.868v135.577c0,3.796,3.069,6.867,6.867,6.867
	c49.359,0,95.393,8.492,136.338,20.8v124.865c0,3.796,3.069,6.867,6.865,6.867c3.797,0,6.867-3.071,6.867-6.867V340.215
	c76.444,25.207,133.348,62.549,158.151,78.831c5.524,3.621,9.442,6.17,11.562,7.297c4.972,2.669,11.12,4.131,17.312,4.131
	c5.593,0,10.885-1.207,14.895-3.394c5.474-2.991,8.604-7.819,8.604-13.278V74.522C373.439,64.556,363.709,57.32,350.322,57.32z
	 M19.735,179.459c15.044-0.213,29.738-1.132,44.056-2.62v127.394c-14.338-1.606-29.035-2.601-44.056-2.832V179.459z
	 M359.726,413.842c-0.269,0.806-3.676,2.897-9.765,2.897c-3.973,0-7.814-0.888-10.838-2.509c-1.945-1.032-5.48-3.382-10.502-6.666
	c-34.228-22.478-128.274-84.194-251.099-101.59v-130.75c119.363-15.694,210.161-70.389,247.817-93.076
	c5.896-3.555,10.503-6.331,13.93-8.169c3.259-1.884,7.185-2.924,11.052-2.924c6.104,0,9.403,2.481,9.403,3.48L359.726,413.842
	L359.726,413.842z"/>
<path fill="#69C299" d="M437.762,175.522c-3.796,0-6.867,3.071-6.867,6.867v123.613c0,3.796,3.071,6.867,6.867,6.867
	s6.867-3.071,6.867-6.867V182.389C444.629,178.593,441.558,175.522,437.762,175.522z"/>
<path fill="#69C299" d="M499.569,207.162c-3.796,0-6.867,3.072-6.867,6.868v68.674c0,3.796,3.071,6.866,6.867,6.866
	s6.867-3.07,6.867-6.866V214.03C506.436,210.234,503.365,207.162,499.569,207.162z"/>
</svg>
