<?xml version="1.0" encoding="utf-8"?>
<!-- Generator: Adobe Illustrator 16.0.0, SVG Export Plug-In . SVG Version: 6.00 Build 0)  -->
<!DOCTYPE svg PUBLIC "-//W3C//DTD SVG 1.1//EN" "http://www.w3.org/Graphics/SVG/1.1/DTD/svg11.dtd">
<svg version="1.1" id="Layer_1" xmlns="http://www.w3.org/2000/svg" xmlns:xlink="http://www.w3.org/1999/xlink" x="0px" y="0px"
	 width="512px" height="512px" viewBox="0 0 512 512" enable-background="new 0 0 512 512" xml:space="preserve">
<path fill="#5E686B" d="M500.357,89.734H11.733c-4.501,0-8.144-3.642-8.144-8.144c0-4.501,3.642-8.144,8.144-8.144h488.624
	c4.501,0,8.145,3.643,8.145,8.144C508.5,86.092,504.858,89.734,500.357,89.734z"/>
<path fill="#69C299" d="M500.357,268.895H11.733c-4.501,0-8.144-3.644-8.144-8.145s3.642-8.144,8.144-8.144h488.624
	c4.501,0,8.145,3.642,8.145,8.144C508.5,265.251,504.858,268.895,500.357,268.895z"/>
<path fill="#5E686B" d="M500.357,448.053H11.733c-4.501,0-8.144-3.643-8.144-8.144s3.642-8.145,8.144-8.145h488.624
	c4.501,0,8.145,3.644,8.145,8.145S504.858,448.053,500.357,448.053z"/>
</svg>
