<?xml version="1.0" encoding="utf-8"?>
<!-- Generator: Adobe Illustrator 16.0.0, SVG Export Plug-In . SVG Version: 6.00 Build 0)  -->
<!DOCTYPE svg PUBLIC "-//W3C//DTD SVG 1.1//EN" "http://www.w3.org/Graphics/SVG/1.1/DTD/svg11.dtd">
<svg version="1.1" id="Layer_1" xmlns="http://www.w3.org/2000/svg" xmlns:xlink="http://www.w3.org/1999/xlink" x="0px" y="0px"
	 width="512px" height="512px" viewBox="0 0 512 512" enable-background="new 0 0 512 512" xml:space="preserve">
<path fill="#5E686B" d="M393.34,509.427H118.66c-8.645,0-15.682-7.029-15.682-15.667V16.681C102.979,8.03,110.016,1,118.66,1h274.68
	c8.645,0,15.682,7.03,15.682,15.681V493.76C409.021,502.396,401.984,509.427,393.34,509.427z M118.66,14.712
	c-1.085,0-1.97,0.884-1.97,1.969V493.76c0,1.085,0.885,1.955,1.97,1.955h274.68c1.086,0,1.969-0.87,1.969-1.955V16.681
	c0-1.085-0.883-1.969-1.969-1.969H118.66z"/>
<path fill="#69C299" d="M276.568,59.343h-41.136c-3.79,0-6.855-3.066-6.855-6.856s3.065-6.856,6.855-6.856h41.136
	c3.789,0,6.855,3.066,6.855,6.856S280.357,59.343,276.568,59.343z"/>
<path fill="#69C299" d="M255.987,465.827c-15.11,0-27.41-12.308-27.41-27.438c0-15.117,12.3-27.41,27.41-27.41
	c15.132,0,27.438,12.293,27.438,27.41C283.424,453.521,271.118,465.827,255.987,465.827z M255.987,424.691
	c-7.552,0-13.698,6.146-13.698,13.697c0,7.565,6.146,13.727,13.698,13.727c7.566,0,13.726-6.16,13.726-13.727
	C269.712,430.837,263.553,424.691,255.987,424.691z"/>
</svg>
