<?xml version="1.0" encoding="utf-8"?>
<!-- Generator: Adobe Illustrator 16.0.0, SVG Export Plug-In . SVG Version: 6.00 Build 0)  -->
<!DOCTYPE svg PUBLIC "-//W3C//DTD SVG 1.1//EN" "http://www.w3.org/Graphics/SVG/1.1/DTD/svg11.dtd">
<svg version="1.1" id="Layer_1" xmlns="http://www.w3.org/2000/svg" xmlns:xlink="http://www.w3.org/1999/xlink" x="0px" y="0px"
	 width="512px" height="512px" viewBox="0 0 512 512" enable-background="new 0 0 512 512" xml:space="preserve">
<path fill="#5E686B" d="M151.872,106.981c0.983,2.785,3.612,4.646,6.562,4.646h189.419c2.948,0,5.577-1.861,6.562-4.641
	l17.457-49.531c3.197-7.975,2.232-16.989-2.581-24.114c-4.829-7.133-12.847-11.392-21.451-11.392h-49.336
	C286.552,9.87,270.201,3,253.15,3c-17.056,0-33.411,6.875-45.351,18.95h-49.353c-8.599,0-16.612,4.26-21.437,11.385
	c-4.816,7.126-5.788,16.146-2.69,23.842L151.872,106.981z M148.537,41.126c2.262-3.342,5.875-5.264,9.908-5.264h51.64
	c0.14,0,0.275-0.013,0.414-0.021c2.013,0.089,4.045-0.69,5.487-2.307c9.449-10.563,22.993-16.622,37.162-16.622
	c14.162,0,27.714,6.066,37.178,16.635c0.033,0.038,0.071,0.07,0.105,0.107c0.102,0.108,0.204,0.212,0.312,0.313
	c0.074,0.072,0.151,0.142,0.229,0.21c0.094,0.081,0.191,0.157,0.289,0.233c0.094,0.073,0.188,0.145,0.283,0.212
	c0.089,0.062,0.182,0.118,0.273,0.176c0.107,0.067,0.215,0.136,0.324,0.197c0.09,0.05,0.185,0.093,0.276,0.139
	c0.116,0.057,0.229,0.117,0.349,0.168c0.097,0.041,0.197,0.074,0.295,0.111c0.119,0.044,0.237,0.093,0.358,0.131
	c0.093,0.029,0.188,0.049,0.284,0.074c0.589,0.157,1.191,0.245,1.8,0.245c0.007,0,0.015-0.002,0.021-0.002h52.309
	c4.042,0,7.654,1.923,9.924,5.278c2.263,3.342,2.698,7.397,1.094,11.412l-15.929,45.164H163.358l-16.021-45.436
	C145.834,48.537,146.275,44.475,148.537,41.126z"/>
<path fill="#5E686B" d="M352.376,137.27c-1.256-1.087-2.867-1.678-4.524-1.678H158.434c-1.658,0-3.267,0.591-4.522,1.678
	c-5.517,4.72-135.023,117.274-135.023,251.523c0,78.699,59.048,120.609,101.672,120.609h265.185
	c42.621,0,101.662-41.91,101.661-120.609C487.405,254.544,357.892,141.991,352.376,137.27z M385.743,495.491H120.559
	c-36.796,0-87.761-37.074-87.761-106.698c0-119.266,112.241-224.829,128.278-239.29h184.135
	c16.038,14.448,128.283,119.917,128.283,239.29C473.494,458.417,422.536,495.491,385.743,495.491z"/>
<path fill="#69C299" d="M260.12,204.539v-15.911c0-3.845-3.111-6.956-6.956-6.956c-3.847,0-6.956,3.111-6.956,6.956v15.912
	c-33.117,3.487-59.015,31.57-59.015,65.601c0,32.006,24.47,58.51,59.015,64.987v94.019c-21.52-4.275-37.793-23.288-37.793-46.046
	c0-3.845-3.112-6.953-6.956-6.953c-3.847,0-6.956,3.108-6.956,6.953c0,30.44,22.472,55.735,51.705,60.171v5.405
	c0,3.847,3.11,6.955,6.956,6.955c3.844,0,6.955-3.109,6.956-6.956v-4.916c31.373-2.429,56.159-28.699,56.162-60.659
	c0-30.347-22.318-53.822-56.162-59.943V218.56c25.427,3.412,45.104,25.234,45.104,51.581c0,3.844,3.11,6.955,6.955,6.955
	s6.956-3.111,6.956-6.955C319.135,236.107,293.238,208.025,260.12,204.539z M201.106,270.141c0-26.346,19.678-48.167,45.104-51.581
	v102.377C219.293,314.974,201.106,294.941,201.106,270.141z M302.37,383.101c0,24.296-18.556,44.33-42.25,46.713v-92.47
	C285.692,342.885,302.37,360.578,302.37,383.101z"/>
</svg>
