<?xml version="1.0" encoding="utf-8"?>
<!-- Generator: Adobe Illustrator 16.0.0, SVG Export Plug-In . SVG Version: 6.00 Build 0)  -->
<!DOCTYPE svg PUBLIC "-//W3C//DTD SVG 1.1//EN" "http://www.w3.org/Graphics/SVG/1.1/DTD/svg11.dtd">
<svg version="1.1" id="Layer_1" xmlns="http://www.w3.org/2000/svg" xmlns:xlink="http://www.w3.org/1999/xlink" x="0px" y="0px"
	 width="512px" height="512px" viewBox="0 0 512 512" enable-background="new 0 0 512 512" xml:space="preserve">
<g>
	<path id="SVGID_1_" fill="#69C299" d="M256,507.242c-85.081,0-154.294-69.192-154.294-154.252V239.585
		c0-85.06,69.213-154.252,154.294-154.252c85.074,0,154.294,69.192,154.294,154.252V352.99
		C410.294,438.05,341.074,507.242,256,507.242z M256,99.281c-77.386,0-140.347,62.94-140.347,140.305V352.99
		c0,77.363,62.962,140.306,140.347,140.306c77.392,0,140.346-62.94,140.346-140.306V239.585
		C396.346,162.221,333.392,99.281,256,99.281z"/>
</g>
<g>
	<defs>
		<path id="SVGID_2_" d="M256,507.242c-85.081,0-154.294-69.192-154.294-154.252V239.585c0-85.06,69.213-154.252,154.294-154.252
			c85.074,0,154.294,69.192,154.294,154.252V352.99C410.294,438.05,341.074,507.242,256,507.242z M256,99.281
			c-77.386,0-140.347,62.94-140.347,140.305V352.99c0,77.363,62.962,140.306,140.347,140.306
			c77.392,0,140.346-62.94,140.346-140.306V239.585C396.346,162.221,333.392,99.281,256,99.281z"/>
	</defs>
	<use xlink:href="#SVGID_2_"  overflow="visible" fill="#656565"/>
	<clipPath id="SVGID_3_">
		<use xlink:href="#SVGID_2_"  overflow="visible"/>
	</clipPath>
	<path clip-path="url(#SVGID_3_)" fill="#656565" d="M256,507.242c-85.081,0-154.294-69.192-154.294-154.252V239.585
		c0-85.06,69.213-154.252,154.294-154.252c85.074,0,154.294,69.192,154.294,154.252V352.99
		C410.294,438.05,341.074,507.242,256,507.242z M256,99.281c-77.386,0-140.347,62.94-140.347,140.305V352.99
		c0,77.363,62.962,140.306,140.347,140.306c77.392,0,140.346-62.94,140.346-140.306V239.585
		C396.346,162.221,333.392,99.281,256,99.281z"/>
</g>
<path fill="#656565" d="M256,99.281c-3.854,0-6.975-3.119-6.975-6.974V9.848c0-3.854,3.119-6.974,6.975-6.974
	c3.854,0,6.975,3.12,6.975,6.974v82.458C262.975,96.162,259.854,99.281,256,99.281z"/>
<path fill="#69C299" d="M256,247.485c-23.073,0-41.843-18.782-41.843-41.856c0-23.059,18.77-41.828,41.843-41.828
	c23.072,0,41.842,18.769,41.842,41.828C297.842,228.703,279.073,247.485,256,247.485z M256,177.749
	c-15.384,0-27.896,12.503-27.896,27.881c0,15.392,12.512,27.909,27.896,27.909c15.385,0,27.895-12.517,27.895-27.909
	C283.895,190.252,271.385,177.749,256,177.749z"/>
</svg>
