<?xml version="1.0" encoding="utf-8"?>
<!-- Generator: Adobe Illustrator 16.0.0, SVG Export Plug-In . SVG Version: 6.00 Build 0)  -->
<!DOCTYPE svg PUBLIC "-//W3C//DTD SVG 1.1//EN" "http://www.w3.org/Graphics/SVG/1.1/DTD/svg11.dtd">
<svg version="1.1" id="Layer_1" xmlns="http://www.w3.org/2000/svg" xmlns:xlink="http://www.w3.org/1999/xlink" x="0px" y="0px"
	 width="512px" height="512px" viewBox="0 0 512 512" enable-background="new 0 0 512 512" xml:space="preserve">
<path fill="#69C299" d="M316.406,341.508c-1.719,0-3.438-0.656-4.75-1.969c-2.625-2.625-2.625-6.877,0-9.502l60.764-60.789
	l-60.764-60.775c-2.625-2.625-2.625-6.877,0-9.501c2.625-2.625,6.878-2.625,9.502,0l65.514,65.527c2.625,2.624,2.625,6.876,0,9.501
	l-65.514,65.54C319.846,340.852,318.126,341.508,316.406,341.508z"/>
<path fill="#5E686C" d="M500.168,451.549H13.529c-3.736,0-6.759-3.022-6.759-6.758V80.239c0-3.736,3.023-6.759,6.759-6.759h160.523
	c3.736,0,6.759,3.023,6.759,6.759c0,3.736-3.023,6.759-6.759,6.759H20.288v351.034H493.41V86.998H297.244
	c-3.735,0-6.76-3.023-6.76-6.759c0-3.736,3.024-6.759,6.76-6.759h202.924c3.738,0,6.761,3.023,6.761,6.759v364.552
	C506.929,448.526,503.906,451.549,500.168,451.549z"/>
<path fill="#69C299" d="M348.992,277.058h-77.518c-57.476,0-104.234-46.757-104.234-104.227c0-0.291,0.013-0.575,0.053-0.852v-91.74
	c0-3.736,3.023-6.759,6.759-6.759c3.736,0,6.759,3.023,6.759,6.759v92.592c0,0.277-0.013,0.547-0.053,0.818
	c0.449,49.642,40.976,89.894,90.716,89.894h77.518c3.736,0,6.759,3.021,6.759,6.758
	C355.751,274.035,352.729,277.058,348.992,277.058z"/>
<path fill="#69C299" d="M316.993,342.983c-1.73,0-3.459-0.659-4.779-1.979c-2.64-2.64-2.64-6.917,0-9.558l61.12-61.146
	l-61.12-61.141c-2.64-2.64-2.64-6.917,0-9.558c2.641-2.64,6.917-2.64,9.558,0l65.899,65.92c2.641,2.64,2.641,6.916,0,9.557
	l-65.899,65.926C320.45,342.324,318.723,342.983,316.993,342.983z"/>
</svg>
