<?xml version="1.0" encoding="utf-8"?>
<!-- Generator: Adobe Illustrator 16.0.0, SVG Export Plug-In . SVG Version: 6.00 Build 0)  -->
<!DOCTYPE svg PUBLIC "-//W3C//DTD SVG 1.1//EN" "http://www.w3.org/Graphics/SVG/1.1/DTD/svg11.dtd">
<svg version="1.1" id="Layer_1" xmlns="http://www.w3.org/2000/svg" xmlns:xlink="http://www.w3.org/1999/xlink" x="0px" y="0px"
	 width="512px" height="512px" viewBox="0 0 512 512" enable-background="new 0 0 512 512" xml:space="preserve">
<path fill="#69C299" d="M376.517,308.096c-25.801,0-46.787-20.971-46.787-46.746c0-25.809,20.986-46.801,46.787-46.801
	c12.503,0,24.249,4.875,33.084,13.716c8.836,8.842,13.69,20.594,13.678,33.09C423.279,287.125,402.306,308.096,376.517,308.096z
	 M376.517,227.913c-18.428,0-33.423,15.001-33.423,33.437c0,18.406,14.995,33.383,33.423,33.383
	c18.415,0,33.397-14.977,33.397-33.383c0.013-8.935-3.459-17.326-9.763-23.636C393.835,231.39,385.445,227.913,376.517,227.913z"/>
<path fill="#69C299" d="M257.167,188.76c-25.788,0-46.774-20.986-46.774-46.787c0-25.782,20.986-46.761,46.774-46.761
	s46.773,20.979,46.773,46.761C303.942,167.774,282.955,188.76,257.167,188.76z M257.167,108.575
	c-18.429,0-33.41,14.983-33.41,33.397c0,18.428,14.981,33.423,33.41,33.423c18.428,0,33.41-14.995,33.41-33.423
	C290.577,123.558,275.595,108.575,257.167,108.575z"/>
<path fill="#69C299" d="M137.804,308.096c-25.789,0-46.774-20.971-46.774-46.746c0-25.809,20.986-46.801,46.774-46.801
	s46.774,20.992,46.774,46.801C184.578,287.125,163.593,308.096,137.804,308.096z M137.804,227.913
	c-18.428,0-33.411,15.001-33.411,33.437c0,18.406,14.983,33.383,33.411,33.383c18.427,0,33.41-14.977,33.41-33.383
	C171.215,242.914,156.232,227.913,137.804,227.913z"/>
<path fill="#69C299" d="M257.167,427.486c-25.788,0-46.774-20.993-46.774-46.802c0-25.774,20.986-46.747,46.774-46.747
	s46.773,20.973,46.773,46.747C303.942,406.493,282.955,427.486,257.167,427.486z M257.167,347.301
	c-18.429,0-33.41,14.978-33.41,33.385c0,18.436,14.981,33.437,33.41,33.437c18.428,0,33.41-15.001,33.41-33.437
	C290.577,362.277,275.595,347.301,257.167,347.301z"/>
<path fill="#5E686B" d="M257.167,508.166C118.58,508.166,5.834,395.42,5.834,256.833S118.58,5.5,257.167,5.5
	S508.5,118.246,508.5,256.833c0,82.501-40.562,159.821-108.519,206.829c-3.027,2.082-7.19,1.351-9.292-1.689
	c-2.102-3.033-1.345-7.196,1.696-9.299c64.341-44.51,102.749-117.725,102.749-195.841c0-131.219-106.755-237.969-237.969-237.969
	c-131.213,0-237.97,106.75-237.97,237.969c0,131.22,106.756,237.97,237.97,237.97c3.692,0,6.682,2.988,6.682,6.683
	C263.848,505.179,260.861,508.166,257.167,508.166z"/>
<path fill="#5E686B" d="M497.303,508.166H257.167c-3.693,0-6.683-2.988-6.683-6.682c0-3.694,2.988-6.683,6.683-6.683h240.136
	c3.692,0,6.682,2.988,6.682,6.683C503.985,505.178,500.995,508.166,497.303,508.166z"/>
</svg>
