<?xml version="1.0" encoding="utf-8"?>
<!-- Generator: Adobe Illustrator 16.0.0, SVG Export Plug-In . SVG Version: 6.00 Build 0)  -->
<!DOCTYPE svg PUBLIC "-//W3C//DTD SVG 1.1//EN" "http://www.w3.org/Graphics/SVG/1.1/DTD/svg11.dtd">
<svg version="1.1" id="Layer_1" xmlns="http://www.w3.org/2000/svg" xmlns:xlink="http://www.w3.org/1999/xlink" x="0px" y="0px"
	 width="512px" height="512px" viewBox="0 0 512 512" enable-background="new 0 0 512 512" xml:space="preserve">
<path fill="#5E686B" d="M404.546,508H115.428c-16.036,0-29.077-13.034-29.077-29.044V34.654c0-16.016,13.041-29.044,29.077-29.044
	h289.118c16.021,0,29.069,13.034,29.069,29.057v444.289C433.615,494.966,420.569,508,404.546,508z M115.428,19.271
	c-8.498,0-15.416,6.897-15.416,15.383v444.302c0,8.485,6.917,15.383,15.416,15.383h289.118c8.498,0,15.408-6.896,15.408-15.383
	V34.667c0-8.492-6.91-15.396-15.408-15.396H115.428z"/>
<path fill="#69C299" d="M259.994,466.068c-60.271,0-109.299-49.028-109.299-109.291c0-60.262,49.029-109.292,109.299-109.292
	c60.262,0,109.291,49.03,109.291,109.292C369.285,417.04,320.256,466.068,259.994,466.068z M259.994,261.146
	c-52.731,0-95.638,42.905-95.638,95.631c0,52.725,42.905,95.63,95.638,95.63c52.724,0,95.629-42.905,95.629-95.63
	C355.623,304.052,312.718,261.146,259.994,261.146z"/>
<path fill="#5E686B" d="M362.454,220.871H157.527c-3.774,0-6.831-3.055-6.831-6.831V77.426c0-3.775,3.056-6.831,6.831-6.831h204.929
	c3.774,0,6.831,3.055,6.831,6.831V214.04C369.285,217.815,366.23,220.871,362.454,220.871z M164.358,207.209h191.267V84.257H164.358
	V207.209z"/>
<path fill="#69C299" d="M259.994,404.593c-26.363,0-47.815-21.453-47.815-47.814c0-26.362,21.453-47.814,47.815-47.814
	c26.36,0,47.813,21.452,47.813,47.814C307.808,383.14,286.356,404.593,259.994,404.593z M259.994,322.624
	c-18.839,0-34.154,15.315-34.154,34.153s15.314,34.152,34.154,34.152c18.837,0,34.152-15.314,34.152-34.152
	S278.831,322.624,259.994,322.624z"/>
</svg>
