<?xml version="1.0" encoding="utf-8"?>
<!-- Generator: Adobe Illustrator 16.0.0, SVG Export Plug-In . SVG Version: 6.00 Build 0)  -->
<!DOCTYPE svg PUBLIC "-//W3C//DTD SVG 1.1//EN" "http://www.w3.org/Graphics/SVG/1.1/DTD/svg11.dtd">
<svg version="1.1" id="Layer_1" xmlns="http://www.w3.org/2000/svg" xmlns:xlink="http://www.w3.org/1999/xlink" x="0px" y="0px"
	 width="512px" height="512px" viewBox="0 0 512 512" enable-background="new 0 0 512 512" xml:space="preserve">
<path fill="#69C299" d="M330.19,341.976c-1.728,0-3.456-0.658-4.774-1.979c-2.639-2.625-2.639-6.912,0-9.551l80.562-80.721
	l-80.562-80.681c-2.639-2.645-2.639-6.919,0-9.558c2.639-2.625,6.913-2.632,9.551,0.007l85.324,85.456
	c2.639,2.639,2.639,6.913,0,9.551l-85.324,85.496C333.647,341.316,331.918,341.976,330.19,341.976z"/>
<path fill="#69C299" d="M501.075,341.976c-1.729,0-3.456-0.658-4.774-1.979l-85.352-85.496c-2.639-2.638-2.639-6.912,0-9.551
	l85.352-85.456c2.639-2.639,6.912-2.632,9.551-0.007c2.639,2.638,2.639,6.913,0,9.558l-80.575,80.681l80.575,80.721
	c2.639,2.639,2.639,6.926,0,9.551C504.531,341.316,502.805,341.976,501.075,341.976z"/>
<path fill="#5E686B" d="M225.711,462.417c-1.438,0-2.851-0.462-4.05-1.346L85.76,359.389H13.093c-3.733,0-6.754-3.021-6.754-6.754
	V168.306c0-3.733,3.021-6.754,6.754-6.754H85.76L221.661,59.856c2.07-1.524,4.802-1.761,7.07-0.633
	c2.295,1.148,3.733,3.482,3.733,6.042v390.398c0,2.559-1.438,4.894-3.733,6.042C227.782,462.18,226.74,462.417,225.711,462.417z
	 M19.847,345.881h68.162c1.458,0,2.876,0.476,4.043,1.346l126.905,94.941V78.753L92.052,173.715
	c-1.167,0.871-2.586,1.345-4.043,1.345H19.847V345.881z"/>
</svg>
