<?xml version="1.0" encoding="utf-8"?>
<!-- Generator: Adobe Illustrator 16.0.0, SVG Export Plug-In . SVG Version: 6.00 Build 0)  -->
<!DOCTYPE svg PUBLIC "-//W3C//DTD SVG 1.1//EN" "http://www.w3.org/Graphics/SVG/1.1/DTD/svg11.dtd">
<svg version="1.1" id="Layer_1" xmlns="http://www.w3.org/2000/svg" xmlns:xlink="http://www.w3.org/1999/xlink" x="0px" y="0px"
	 width="512px" height="512px" viewBox="0 0 512 512" enable-background="new 0 0 512 512" xml:space="preserve">
<path fill="#5E686B" d="M255.707,509C115.818,509,2,395.183,2,255.287C2,126.155,98.613,17.794,226.719,3.225
	c3.758-0.523,7.364,2.333,7.805,6.2c0.44,3.868-2.339,7.364-6.208,7.798C107.326,30.988,16.095,133.333,16.095,255.287
	c0,132.125,107.487,239.618,239.612,239.618s239.611-107.493,239.611-239.618c0-121.947-91.23-224.293-212.222-238.064
	c-3.867-0.44-6.646-3.93-6.207-7.798c0.44-3.868,4.033-6.682,7.805-6.2C412.8,17.802,509.413,126.162,509.413,255.287
	C509.413,395.183,395.596,509,255.707,509z"/>
<path fill="#69C299" d="M268.329,428.279c-0.151,0-0.316-0.008-0.47-0.016c-3.138-0.214-5.752-2.463-6.414-5.532L230.408,280.6
	L88.262,249.547c-3.07-0.667-5.327-3.283-5.534-6.415c-0.206-3.132,1.681-6.022,4.625-7.089l280.493-101.912
	c2.562-0.929,5.45-0.296,7.392,1.637c1.94,1.934,2.573,4.818,1.638,7.392l-101.926,280.48
	C273.931,426.441,271.274,428.279,268.329,428.279z M115.047,240.971l122.779,26.828c2.698,0.585,4.804,2.684,5.383,5.383
	l26.812,122.766l88.451-243.418L115.047,240.971z"/>
</svg>
