<?xml version="1.0" encoding="utf-8"?>
<!-- Generator: Adobe Illustrator 16.0.0, SVG Export Plug-In . SVG Version: 6.00 Build 0)  -->
<!DOCTYPE svg PUBLIC "-//W3C//DTD SVG 1.1//EN" "http://www.w3.org/Graphics/SVG/1.1/DTD/svg11.dtd">
<svg version="1.1" id="Layer_1" xmlns="http://www.w3.org/2000/svg" xmlns:xlink="http://www.w3.org/1999/xlink" x="0px" y="0px"
	 width="512px" height="512px" viewBox="0 0 512 512" enable-background="new 0 0 512 512" xml:space="preserve">
<path fill="#5E686B" d="M260.105,397.989c108.924,0,197.549-88.611,197.549-197.535c0-108.937-88.625-197.562-197.549-197.562
	C151.18,2.892,62.56,91.507,62.55,200.437c0,0.001,0,0.003,0,0.004s0,0.001,0,0.002c0,0.004,0,0.007,0,0.011
	C62.55,309.378,151.174,397.989,260.105,397.989z M109.021,96.12c14.342,9.998,30.605,18.447,48.188,25.17
	c-5.552,22.244-8.839,46.616-9.346,72.213H76.571C77.92,157.43,89.717,123.99,109.021,96.12z M443.632,193.503H372.34
	c-0.506-25.596-3.792-49.966-9.345-72.21c17.584-6.722,33.849-15.169,48.193-25.165C430.49,123.997,442.281,157.434,443.632,193.503
	z M411.195,304.758c-14.345-9.994-30.61-18.438-48.197-25.158c5.554-22.246,8.84-46.621,9.345-72.221h71.292
	C442.287,243.448,430.495,276.889,411.195,304.758z M253.167,261.247c-29.247,0.638-57.34,5.291-83.056,13.608
	c-4.95-20.763-7.894-43.541-8.371-67.478h91.427V261.247z M253.167,275.134V383.65c-34.269-4.474-63.757-41.812-79.445-95.192
	C198.402,280.404,225.448,275.796,253.167,275.134z M267.043,383.65V275.134c27.714,0.662,54.759,5.271,79.438,13.322
	C330.795,341.838,301.308,379.176,267.043,383.65z M267.043,261.252v-53.873h91.421c-0.479,24.004-3.438,46.845-8.413,67.654
	C324.175,266.676,295.925,261.913,267.043,261.252z M358.463,193.503h-91.42v-53.847c28.879-0.662,57.129-5.429,83.007-13.793
	C355.025,146.668,357.983,169.503,358.463,193.503z M267.043,125.775V17.231c34.266,4.476,63.755,41.82,79.44,95.214
	C321.803,120.501,294.758,125.113,267.043,125.775z M253.167,17.231v108.543c-27.719-0.662-54.766-5.275-79.446-13.333
	C189.408,59.049,218.898,21.706,253.167,17.231z M253.167,139.656v53.847h-91.426c0.48-24,3.438-46.836,8.413-67.643
	C196.032,134.227,224.285,138.995,253.167,139.656z M147.864,207.379c0.504,25.539,3.774,49.857,9.304,72.061
	c-17.468,6.711-33.66,15.193-48.154,25.322c-19.304-27.871-31.099-61.312-32.443-97.383H147.864z M117.344,315.873
	c12.998-9.006,27.683-16.676,43.565-22.85c10.964,36.195,28.144,65.714,49.021,84.125
	C173.049,366.662,140.869,344.909,117.344,315.873z M310.274,377.149c20.877-18.411,38.059-47.932,49.022-84.13
	c15.884,6.172,30.57,13.842,43.57,22.847C379.342,344.907,347.159,366.664,310.274,377.149z M402.865,85.021
	c-12.998,9.009-27.686,16.683-43.566,22.857c-10.964-36.205-28.146-65.73-49.024-84.145
	C347.156,34.219,379.338,55.977,402.865,85.021z M209.932,23.734c-20.878,18.413-38.059,47.937-49.022,84.138
	c-15.88-6.176-30.563-13.85-43.562-22.86C140.873,55.974,173.052,34.22,209.932,23.734z"/>
<path fill="#69C299" d="M417.257,453.494c-12.91,0-23.783,8.855-26.865,20.814H286.983c-2.513-9.739-10.198-17.423-19.938-19.938
	v-35.568c0-3.834-3.104-6.938-6.938-6.938s-6.938,3.103-6.938,6.938v35.568c-9.74,2.515-17.427,10.197-19.939,19.938H129.343
	c-3.085-11.959-13.97-20.814-26.885-20.814c-15.3,0-27.746,12.438-27.746,27.739c0,15.312,12.447,27.767,27.746,27.767
	c12.906,0,23.786-8.855,26.878-20.814h103.896C236.326,500.145,247.203,509,260.104,509c12.902,0,23.779-8.855,26.872-20.814
	h103.421c3.09,11.959,13.957,20.814,26.859,20.814c15.312,0,27.767-12.453,27.767-27.767
	C445.024,465.934,432.57,453.494,417.257,453.494z M102.458,495.124c-7.65,0-13.87-6.235-13.87-13.891
	c0-7.644,6.221-13.862,13.87-13.862c7.382,0,13.417,5.786,13.842,13.051c-0.032,0.271-0.054,0.546-0.054,0.826
	c0,0.277,0.021,0.55,0.053,0.819C115.864,489.335,109.833,495.124,102.458,495.124z M260.105,495.124
	c-7.654,0-13.876-6.235-13.876-13.891c0-7.644,6.222-13.862,13.876-13.862c7.656,0,13.876,6.22,13.876,13.862
	C273.981,488.89,267.761,495.124,260.105,495.124z M417.257,495.124c-6.879,0-12.591-5.058-13.665-11.649
	c0.236-0.698,0.371-1.445,0.371-2.227c0-0.782-0.136-1.532-0.374-2.233c1.066-6.59,6.78-11.644,13.668-11.644
	c7.654,0,13.89,6.22,13.89,13.862C431.147,488.89,424.911,495.124,417.257,495.124z"/>
</svg>
