<?xml version="1.0" encoding="utf-8"?>
<!-- Generator: Adobe Illustrator 16.0.0, SVG Export Plug-In . SVG Version: 6.00 Build 0)  -->
<!DOCTYPE svg PUBLIC "-//W3C//DTD SVG 1.1//EN" "http://www.w3.org/Graphics/SVG/1.1/DTD/svg11.dtd">
<svg version="1.1" id="Layer_1" xmlns="http://www.w3.org/2000/svg" xmlns:xlink="http://www.w3.org/1999/xlink" x="0px" y="0px"
	 width="512px" height="512px" viewBox="0 0 512 512" enable-background="new 0 0 512 512" xml:space="preserve">
<path fill="#5E686B" d="M213.14,493.745H85.824c-19.612,0-35.57-15.945-35.57-35.556V89.11c8.981,9.361,21.603,15.207,35.571,15.207
	h353.869v88.616c0,3.801,3.075,6.877,6.877,6.877c3.804,0,6.878-3.076,6.879-6.878V97.439c0-3.801-3.075-6.877-6.878-6.877H85.825
	c-19.612,0-35.57-15.958-35.57-35.57c0-19.612,15.958-35.57,35.57-35.57h360.747c3.803,0,6.878-3.076,6.878-6.877
	c0-3.802-3.075-6.878-6.878-6.878H85.825c-27.201,0-49.325,22.13-49.325,49.325c0,2.641,0.214,5.232,0.616,7.762
	c-0.394,0.865-0.616,1.824-0.616,2.836v392.597c0,27.188,22.124,49.312,49.325,49.312H213.14c3.802,0,6.878-3.075,6.878-6.877
	S216.942,493.745,213.14,493.745z"/>
<path fill="#5E686B" d="M361.705,239.101c-74.016,0-134.221,60.206-134.221,134.206c0,74.001,60.205,134.193,134.221,134.193
	c74,0,134.192-60.192,134.191-134.193C495.898,299.307,435.705,239.101,361.705,239.101z M361.705,493.744
	c-66.426,0-120.464-54.027-120.464-120.438s54.038-120.451,120.464-120.451c66.41,0,120.438,54.04,120.438,120.451
	C482.143,439.718,428.115,493.744,361.705,493.744z"/>
<path fill="#69C299" d="M399.265,379.055l-30.682,30.691v-89.498c0-3.802-3.076-6.878-6.878-6.878c-3.803,0-6.877,3.076-6.877,6.878
	v89.502l-30.706-30.695c-2.688-2.688-7.039-2.688-9.728,0c-2.687,2.688-2.687,7.038,0,9.727l42.447,42.434
	c1.29,1.29,3.036,2.018,4.862,2.018s3.573-0.727,4.863-2.018l42.42-42.434c2.688-2.688,2.688-7.039,0-9.727
	C406.304,376.367,401.95,376.367,399.265,379.055z"/>
<path fill="#5E686B" d="M85.825,48.116c-3.803,0-6.879,3.075-6.879,6.877c0,3.801,3.076,6.877,6.879,6.877H425.35
	c3.802,0,6.878-3.077,6.878-6.877c0-3.801-3.076-6.877-6.878-6.877H85.825z"/>
</svg>
