<?xml version="1.0" encoding="utf-8"?>
<!-- Generator: Adobe Illustrator 16.0.0, SVG Export Plug-In . SVG Version: 6.00 Build 0)  -->
<!DOCTYPE svg PUBLIC "-//W3C//DTD SVG 1.1//EN" "http://www.w3.org/Graphics/SVG/1.1/DTD/svg11.dtd">
<svg version="1.1" id="Layer_1" xmlns="http://www.w3.org/2000/svg" xmlns:xlink="http://www.w3.org/1999/xlink" x="0px" y="0px"
	 width="512px" height="512px" viewBox="0 0 512 512" enable-background="new 0 0 512 512" xml:space="preserve">
<path fill="#5E686B" d="M14.22,141.95c-3.715,0-6.72-3.006-6.72-6.72V14.22c0-3.714,3.005-6.72,6.72-6.72
	c3.714,0,6.72,3.005,6.72,6.72v121.01C20.94,138.944,17.935,141.95,14.22,141.95z"/>
<path fill="#5E686B" d="M135.231,20.94H14.22c-3.715,0-6.72-3.006-6.72-6.72c0-3.714,3.005-6.72,6.72-6.72h121.01
	c3.714,0,6.721,3.005,6.721,6.72C141.95,17.935,138.945,20.94,135.231,20.94z"/>
<path fill="#5E686B" d="M498.051,20.94h-121.01c-3.715,0-6.72-3.006-6.72-6.72c0-3.714,3.005-6.72,6.72-6.72h121.01
	c3.715,0,6.721,3.005,6.721,6.72C504.772,17.935,501.766,20.94,498.051,20.94z"/>
<path fill="#5E686B" d="M498.051,141.95c-3.713,0-6.722-3.006-6.722-6.72V14.22c0-3.714,3.009-6.72,6.722-6.72
	c3.715,0,6.721,3.005,6.721,6.72v121.01C504.772,138.944,501.766,141.95,498.051,141.95z"/>
<path fill="#5E686B" d="M498.051,505.139c-3.713,0-6.722-3.006-6.722-6.721V377.409c0-3.716,3.009-6.722,6.722-6.722
	c3.715,0,6.721,3.006,6.721,6.722v121.009C504.772,502.133,501.766,505.139,498.051,505.139z"/>
<path fill="#5E686B" d="M498.051,505.139h-121.01c-3.715,0-6.72-3.006-6.72-6.721c0-3.714,3.005-6.72,6.72-6.72h121.01
	c3.715,0,6.721,3.006,6.721,6.72C504.772,502.133,501.766,505.139,498.051,505.139z"/>
<path fill="#5E686B" d="M135.231,505.139H14.22c-3.715,0-6.72-3.006-6.72-6.721c0-3.714,3.005-6.72,6.72-6.72h121.01
	c3.714,0,6.721,3.006,6.721,6.72C141.95,502.133,138.945,505.139,135.231,505.139z"/>
<path fill="#5E686B" d="M14.22,505.139c-3.715,0-6.72-3.006-6.72-6.721V377.409c0-3.716,3.005-6.722,6.72-6.722
	c3.714,0,6.72,3.006,6.72,6.722v121.009C20.94,502.133,17.935,505.139,14.22,505.139z"/>
<path fill="#69C299" d="M256.135,320.197c-40.752,0-73.918-33.166-73.918-73.918c0-40.752,33.167-73.919,73.918-73.919
	c40.753,0,73.919,33.167,73.919,73.919C330.055,287.031,296.889,320.197,256.135,320.197z M256.135,185.8
	c-33.35,0-60.478,27.128-60.478,60.479c0,33.35,27.128,60.479,60.478,60.479c33.351,0,60.48-27.129,60.48-60.479
	C316.615,212.929,289.487,185.8,256.135,185.8z"/>
</svg>
