<?xml version="1.0" encoding="utf-8"?>
<!-- Generator: Adobe Illustrator 16.0.0, SVG Export Plug-In . SVG Version: 6.00 Build 0)  -->
<!DOCTYPE svg PUBLIC "-//W3C//DTD SVG 1.1//EN" "http://www.w3.org/Graphics/SVG/1.1/DTD/svg11.dtd">
<svg version="1.1" id="Layer_1" xmlns="http://www.w3.org/2000/svg" xmlns:xlink="http://www.w3.org/1999/xlink" x="0px" y="0px"
	 width="512px" height="512px" viewBox="0 0 512 512" enable-background="new 0 0 512 512" xml:space="preserve">
<path fill="#5E686B" d="M260.084,507.309c-121.8,0-220.896-99.09-220.896-220.883c0-91.07,54.601-171.623,139.096-205.209
	c3.555-1.411,7.599,0.319,9.023,3.895c1.412,3.562-0.326,7.606-3.895,9.024c-79.169,31.462-130.328,106.947-130.328,192.29
	c0,114.141,92.86,206.987,207,206.987s207.001-92.848,207.001-206.987c0-85.33-51.16-160.814-130.329-192.291
	c-3.569-1.418-5.306-5.462-3.896-9.024c1.426-3.576,5.482-5.292,9.024-3.895c84.502,33.6,139.095,114.139,139.095,205.209
	C480.981,408.219,381.891,507.309,260.084,507.309z"/>
<path fill="#69C299" d="M260.057,187.485c-3.84,0-6.948-3.107-6.948-6.948V13.786c0-3.841,3.107-6.948,6.948-6.948
	s6.948,3.107,6.948,6.948v166.751C267.005,184.377,263.898,187.485,260.057,187.485z"/>
</svg>
