<?xml version="1.0" encoding="utf-8"?>
<!-- Generator: Adobe Illustrator 16.0.0, SVG Export Plug-In . SVG Version: 6.00 Build 0)  -->
<!DOCTYPE svg PUBLIC "-//W3C//DTD SVG 1.1//EN" "http://www.w3.org/Graphics/SVG/1.1/DTD/svg11.dtd">
<svg version="1.1" id="Layer_1" xmlns="http://www.w3.org/2000/svg" xmlns:xlink="http://www.w3.org/1999/xlink" x="0px" y="0px"
	 width="512px" height="512px" viewBox="0 0 512 512" enable-background="new 0 0 512 512" xml:space="preserve">
<path fill="#5E686B" d="M274.958,509C135.405,509,21.875,395.464,21.875,255.911c0-139.547,113.528-253.077,253.083-253.077
	c73.914,0,143.954,32.214,192.162,88.386c2.277,2.668,2.158,6.633-0.291,9.149L315.215,255.911l151.614,155.561
	c2.449,2.517,2.568,6.476,0.278,9.137C418.901,476.786,348.859,509,274.958,509z M274.958,16.393
	c-132.073,0-239.525,107.446-239.525,239.519c0,132.072,107.452,239.531,239.525,239.531c67.876,0,132.316-28.72,177.771-79.006
	L300.896,260.639c-2.567-2.623-2.567-6.833,0-9.455L452.73,95.404C407.287,45.111,342.848,16.393,274.958,16.393z"/>
<path fill="#69C299" d="M336.532,142.653c-22.424,0-40.669-18.245-40.669-40.674s18.245-40.674,40.669-40.674
	c22.429,0,40.681,18.245,40.681,40.674S358.961,142.653,336.532,142.653z M336.532,74.862c-14.948,0-27.11,12.161-27.11,27.116
	s12.162,27.116,27.109,27.116c14.955,0,27.122-12.161,27.122-27.116S351.488,74.862,336.532,74.862z"/>
</svg>
