<?xml version="1.0" encoding="utf-8"?>
<!-- Generator: Adobe Illustrator 16.0.0, SVG Export Plug-In . SVG Version: 6.00 Build 0)  -->
<!DOCTYPE svg PUBLIC "-//W3C//DTD SVG 1.1//EN" "http://www.w3.org/Graphics/SVG/1.1/DTD/svg11.dtd">
<svg version="1.1" id="Layer_1" xmlns="http://www.w3.org/2000/svg" xmlns:xlink="http://www.w3.org/1999/xlink" x="0px" y="0px"
	 width="512px" height="512px" viewBox="0 0 512 512" enable-background="new 0 0 512 512" xml:space="preserve">
<path fill="#5E686B" d="M441.862,508H78.645c-3.768,0-6.814-3.048-6.814-6.815V12.463c0-3.767,3.048-6.815,6.814-6.815h54.695
	c3.768,0,6.814,3.048,6.814,6.815s-3.048,6.815-6.814,6.815H85.46v475.091h349.586V19.278H195.011c-3.767,0-6.815-3.048-6.815-6.815
	s3.049-6.815,6.815-6.815h246.851c3.768,0,6.815,3.048,6.815,6.815v488.722C448.677,504.952,445.628,508,441.862,508z"/>
<path fill="#69C299" d="M369.448,180.73H155.597c-3.768,0-6.814-3.048-6.814-6.815s3.048-6.815,6.814-6.815h213.853
	c3.767,0,6.814,3.048,6.814,6.815S373.215,180.73,369.448,180.73z"/>
<path fill="#69C299" d="M365.269,248.631H159.777c-3.767,0-6.814-3.048-6.814-6.815S156.01,235,159.777,235h205.492
	c3.768,0,6.815,3.048,6.815,6.815S369.035,248.631,365.269,248.631z"/>
<path fill="#69C299" d="M278.293,316.518H163.943c-3.767,0-6.814-3.048-6.814-6.814c0-3.768,3.048-6.814,6.814-6.814h114.352
	c3.767,0,6.814,3.049,6.814,6.814C285.109,313.47,282.06,316.518,278.293,316.518z"/>
<path fill="#5E686B" d="M365.269,316.518h-35.808c-3.768,0-6.815-3.048-6.815-6.814c0-3.768,3.049-6.814,6.815-6.814h35.808
	c3.768,0,6.815,3.049,6.815,6.814C372.084,313.47,369.035,316.518,365.269,316.518z"/>
</svg>
