<?xml version="1.0" encoding="utf-8"?>
<!-- Generator: Adobe Illustrator 16.0.0, SVG Export Plug-In . SVG Version: 6.00 Build 0)  -->
<!DOCTYPE svg PUBLIC "-//W3C//DTD SVG 1.1//EN" "http://www.w3.org/Graphics/SVG/1.1/DTD/svg11.dtd">
<svg version="1.1" id="Layer_1" xmlns="http://www.w3.org/2000/svg" xmlns:xlink="http://www.w3.org/1999/xlink" x="0px" y="0px"
	 width="512px" height="512px" viewBox="0 0 512 512" enable-background="new 0 0 512 512" xml:space="preserve">
<path fill="#5E686C" d="M231.645,504.372H90.441c-2.044,0-3.97-0.924-5.241-2.515c-1.271-1.593-1.755-3.676-1.31-5.666l17.188-76.38
	c0.825-3.603,4.48-5.883,8.018-5.071c3.616,0.812,5.896,4.403,5.084,8.019l-15.355,68.197H226.26l23.765-107.874
	c0.682-3.079,3.407-5.267,6.551-5.267h45.631c85.184,0,151.764-52.339,169.621-133.337c11.346-51.48-4.678-85.223-20.124-104.468
	c-9-11.202-20.397-20.661-33.88-28.109c-3.235-1.788-4.414-5.87-2.619-9.112c1.781-3.249,5.856-4.421,9.117-2.627
	c15.001,8.293,27.735,18.873,37.837,31.45c17.28,21.531,35.268,59.086,22.77,115.755c-19.272,87.398-90.987,143.863-182.722,143.863
	H261.96l-23.765,107.876C237.514,502.184,234.789,504.372,231.645,504.372z"/>
<path fill="#69C299" d="M107.63,427.993H32.312c-2.044,0-3.97-0.925-5.241-2.516c-1.271-1.592-1.756-3.675-1.31-5.666
	l91.983-408.965c0.694-3.059,3.419-5.233,6.55-5.233h170.669c43.339,0,84.108,18.544,109.04,49.607
	c11.517,14.287,19.469,30.892,23.608,49.338c0.826,3.616-1.454,7.206-5.069,8.018c-3.538,0.812-7.193-1.461-8.019-5.07
	c-3.694-16.428-10.756-31.194-20.976-43.882c-22.415-27.925-59.27-44.596-98.585-44.596H129.666l-88.97,395.549h66.933
	c3.708,0,6.708,3,6.708,6.708C114.338,424.992,111.337,427.993,107.63,427.993z"/>
<path fill="#69C299" d="M172.153,427.993h-66.266c-3.708,0-6.708-3.001-6.708-6.708c0-3.708,3-6.708,6.708-6.708h60.868
	l23.883-108.411c0.681-3.079,3.406-5.268,6.55-5.268h45.854c85.59,0,152.498-52.582,170.446-133.965
	c4.939-22.377,5.136-43.333,0.603-62.29c-0.864-3.603,1.362-7.219,4.966-8.083c3.642-0.898,7.219,1.362,8.083,4.965
	c5.018,20.942,4.821,43.921-0.551,68.303c-19.362,87.771-91.406,144.486-183.546,144.486h-40.456l-23.883,108.412
	C178.022,425.805,175.297,427.993,172.153,427.993z"/>
<path fill="#5E686C" d="M260.336,215.702h-47.753c-2.043,0-3.982-0.937-5.253-2.535c-1.271-1.604-1.743-3.701-1.284-5.699
	l21.826-93.451c0.708-3.026,3.419-5.168,6.524-5.168h49.837c9.655,0,18.668,2.791,26.058,8.077
	c14.306,10.311,19.914,28.377,14.66,47.157c-2.856,12.034-9.669,23.458-19.625,32.779c-3.171,2.98-6.878,5.836-10.979,8.463
	C283.526,212.125,271.787,215.702,260.336,215.702z M221.033,202.287h39.303c8.923,0,18.198-2.862,26.831-8.286
	c3.354-2.155,6.394-4.494,8.975-6.924c7.927-7.416,13.547-16.77,15.825-26.353c3.827-13.671,0.25-25.875-9.497-32.897
	c-5.084-3.635-11.398-5.562-18.236-5.562h-44.532L221.033,202.287z"/>
</svg>
