<?xml version="1.0" encoding="utf-8"?>
<!-- Generator: Adobe Illustrator 16.0.0, SVG Export Plug-In . SVG Version: 6.00 Build 0)  -->
<!DOCTYPE svg PUBLIC "-//W3C//DTD SVG 1.1//EN" "http://www.w3.org/Graphics/SVG/1.1/DTD/svg11.dtd">
<svg version="1.1" id="Layer_1" xmlns="http://www.w3.org/2000/svg" xmlns:xlink="http://www.w3.org/1999/xlink" x="0px" y="0px"
	 width="512px" height="512px" viewBox="0 0 512 512" enable-background="new 0 0 512 512" xml:space="preserve">
<path fill="#5E686B" d="M432.993,82.622c-41.62-41.631-96.771-67.206-155.28-72.01c-3.774-0.271-6.981,2.468-7.291,6.183
	c-0.303,3.721,2.468,6.981,6.183,7.291c55.328,4.54,107.483,28.717,146.837,68.09c91.758,91.772,91.758,241.096,0,332.855
	c-91.784,91.771-241.096,91.771-332.86,0C46.145,380.61,21.678,321.5,21.678,258.604s24.467-122,68.902-166.429
	c39.512-39.512,91.816-63.702,147.282-68.103c3.724-0.296,6.5-3.549,6.203-7.271c-0.296-3.721-3.431-6.46-7.271-6.202
	c-58.667,4.658-113.99,30.233-155.771,72.022C34.037,129.602,8.158,192.103,8.164,258.604c0,66.513,25.88,128.999,72.86,175.981
	c48.52,48.525,112.253,72.781,175.988,72.781c63.729,0,127.457-24.256,175.979-72.78
	C530.019,337.562,530.019,179.659,432.993,82.622z"/>
<path fill="#69C299" d="M281.045,260.227c-31.535,31.541-44.052,35.367-47.102,35.815l-1.834-1.849
	c-9.185-9.289-18.674-18.896-34.174-18.896c-11.816,0-24.909,6.083-41.201,19.148c-14.266,11.494-21.458,23.161-21.979,35.632
	c-0.398,8.951,2.793,16.729,7.36,23.491c-10.182,6.478-27.689,20.239-34.843,41.728c-1.175,3.55,0.739,7.377,4.282,8.552
	c0.706,0.238,1.425,0.345,2.131,0.345c2.831,0,5.471-1.796,6.415-4.619c6.193-18.634,22.28-30.404,30.684-35.484
	c2.564,2.676,5.158,5.146,7.548,7.415l4.764,4.593c6.777,6.782,17.189,10.359,30.104,10.359c17.65,0,39.975-6.665,62.806-18.739
	c25.53-13.249,51.687-32.926,75.639-56.893c31.093-31.066,54.86-65.854,66.922-97.948c5.479-14.582,8.42-28.346,8.538-39.815
	c0.119-13.329-3.471-24.012-10.346-30.861c-1.439-1.445-2.944-3.002-4.513-4.691c-9.477-9.997-22.449-23.689-39.987-23.689
	c-13.026,0-25.141,7.219-37.058,22.066c-14.861,18.555-20.666,32.729-18.808,45.952c1.821,12.84,10.333,21.233,18.607,29.376
	l1.874,1.887c-0.211,1.583-1.465,5.555-5.754,12.154C305.077,234.545,294.954,246.316,281.045,260.227z M327.328,204.442
	l-2.892-2.904c-7.23-7.126-13.485-13.276-14.662-21.59c-1.293-9.224,3.629-20.211,15.97-35.612
	c9.186-11.441,17.855-17.004,26.514-17.004c11.719,0,21.523,10.34,30.129,19.419c1.636,1.762,3.246,3.425,4.803,4.995
	c4.276,4.256,6.493,11.58,6.401,21.181c-0.094,9.911-2.745,22.079-7.668,35.197c-11.415,30.327-34.075,63.397-63.834,93.144
	c-22.989,23.004-47.997,41.835-72.359,54.479c-20.964,11.086-41.036,17.196-56.528,17.196c-9.118,0-16.417-2.271-20.549-6.4
	l-5.002-4.83c-9.344-8.882-19.927-18.938-19.393-31.053c0.349-8.381,5.899-16.774,16.944-25.684
	c13.565-10.873,24.274-16.166,32.733-16.166c9.854,0,16.347,6.572,25.444,15.784c0.673,0.7,1.36,1.386,1.887,1.874
	c9.417,9.422,31.396-2.744,65.333-36.688c14.569-14.571,25.284-27.08,31.844-37.163
	C331.102,219.315,332.725,209.813,327.328,204.442z"/>
</svg>
