<?xml version="1.0" encoding="utf-8"?>
<!-- Generator: Adobe Illustrator 16.0.0, SVG Export Plug-In . SVG Version: 6.00 Build 0)  -->
<!DOCTYPE svg PUBLIC "-//W3C//DTD SVG 1.1//EN" "http://www.w3.org/Graphics/SVG/1.1/DTD/svg11.dtd">
<svg version="1.1" id="Layer_1" xmlns="http://www.w3.org/2000/svg" xmlns:xlink="http://www.w3.org/1999/xlink" x="0px" y="0px"
	 width="512px" height="512px" viewBox="0 0 512 512" enable-background="new 0 0 512 512" xml:space="preserve">
<path fill="#69C299" d="M363.431,250.284c-31.2,0-56.572-25.379-56.572-56.573c0-31.181,25.372-56.553,56.572-56.553
	c31.175,0,56.546,25.372,56.546,56.553C419.977,224.905,394.606,250.284,363.431,250.284z M363.431,150.754
	c-23.699,0-42.977,19.271-42.977,42.957c0,23.699,19.277,42.977,42.977,42.977c23.687,0,42.951-19.278,42.951-42.977
	C406.382,170.025,387.117,150.754,363.431,150.754z"/>
<path fill="#69C299" d="M10.831,500.771c-1.261,0-2.542-0.346-3.684-1.089c-3.153-2.031-4.056-6.24-2.018-9.4l153.865-238.193
	c1.288-1.992,3.611-3.113,5.908-3.107c2.383,0.073,4.547,1.381,5.722,3.452L243.86,382.05l38.476-51.183
	c1.288-1.713,2.669-2.934,5.431-2.708c2.124,0,4.115,0.995,5.403,2.682l121.151,159.017c2.283,2.987,1.699,7.249-1.288,9.52
	c-2.947,2.271-7.263,1.727-9.52-1.288L287.806,346.216l-39.326,52.311c-1.381,1.832-3.625,2.868-5.868,2.695
	c-2.297-0.146-4.355-1.447-5.483-3.438l-72.817-128.879L16.547,497.664C15.246,499.669,13.062,500.771,10.831,500.771z"/>
<path fill="#5E686C" d="M499.12,500.771H10.838c-3.757,0-6.798-3.041-6.798-6.798V14.208c0-3.757,3.041-6.798,6.798-6.798H499.12
	c3.758,0,6.798,3.041,6.798,6.798v479.766C505.918,497.73,502.878,500.771,499.12,500.771z M17.636,487.176h474.687V21.006H17.636
	V487.176z"/>
</svg>
