<?xml version="1.0" encoding="utf-8"?>
<!-- Generator: Adobe Illustrator 16.0.0, SVG Export Plug-In . SVG Version: 6.00 Build 0)  -->
<!DOCTYPE svg PUBLIC "-//W3C//DTD SVG 1.1//EN" "http://www.w3.org/Graphics/SVG/1.1/DTD/svg11.dtd">
<svg version="1.1" id="Layer_1" xmlns="http://www.w3.org/2000/svg" xmlns:xlink="http://www.w3.org/1999/xlink" x="0px" y="0px"
	 width="512px" height="512px" viewBox="0 0 512 512" enable-background="new 0 0 512 512" xml:space="preserve">
<path fill="#69C299" d="M256,509.353c-3.755,0-6.793-3.038-6.793-6.794V247.692c0-3.754,3.038-6.792,6.793-6.792
	s6.793,3.038,6.793,6.792v254.866C262.793,506.314,259.755,509.353,256,509.353z"/>
<path fill="#5E686C" d="M384.847,254.485H127.154c-3.754,0-6.793-3.038-6.793-6.793c0-3.754,3.039-6.792,6.793-6.792h257.693
	c3.754,0,6.793,3.038,6.793,6.792C391.64,251.448,388.601,254.485,384.847,254.485z"/>
<path fill="#5E686C" d="M345.657,16.241H155.465c-3.754,0-6.792-3.038-6.792-6.792c0-3.755,3.038-6.793,6.792-6.793h190.192
	c3.754,0,6.793,3.038,6.793,6.793C352.45,13.203,349.411,16.241,345.657,16.241z"/>
<path fill="#5E686C" d="M170.019,254.485c-0.173,0-0.345-0.006-0.518-0.02c-3.741-0.272-6.541-3.529-6.275-7.271L180.831,8.952
	c0.279-3.755,3.582-6.62,7.283-6.275c3.742,0.271,6.54,3.529,6.275,7.27L176.784,248.19
	C176.519,251.766,173.534,254.485,170.019,254.485z"/>
<path fill="#5E686C" d="M341.982,254.485c-3.383,0-6.315-2.534-6.726-5.983L306.759,10.258c-0.452-3.728,2.202-7.111,5.93-7.555
	c3.636-0.465,7.098,2.202,7.55,5.936l28.496,238.245c0.451,3.728-2.202,7.111-5.931,7.555
	C342.526,254.472,342.26,254.485,341.982,254.485z"/>
</svg>
