<?xml version="1.0" encoding="utf-8"?>
<!-- Generator: Adobe Illustrator 16.0.0, SVG Export Plug-In . SVG Version: 6.00 Build 0)  -->
<!DOCTYPE svg PUBLIC "-//W3C//DTD SVG 1.1//EN" "http://www.w3.org/Graphics/SVG/1.1/DTD/svg11.dtd">
<svg version="1.1" id="Layer_1" xmlns="http://www.w3.org/2000/svg" xmlns:xlink="http://www.w3.org/1999/xlink" x="0px" y="0px"
	 width="512px" height="512px" viewBox="0 0 512 512" enable-background="new 0 0 512 512" xml:space="preserve">
<path fill="#5E686C" d="M152.896,509.696c-0.953,0-1.92-0.12-2.879-0.39c-4.12-1.113-7.12-4.576-7.637-8.817
	c-3.751-24.707-8.428-70.7,0.953-109.99c5.1-21.191,32.042-134.477,36.216-152.024c-2.563-6.019-8.73-22.842-8.73-45.517
	c0-44.966,27.21-80.189,61.951-80.189c27.566,0,45.376,19.393,45.376,49.402c0,17.668-6.939,39.94-14.287,63.521
	c-3.966,12.742-8.072,25.916-11.105,38.551c-2.779,11.562-0.544,22.708,6.287,31.371c7.361,9.328,19.091,14.682,32.19,14.682
	c47.704,0,83.68-61.735,83.68-143.602c0-62.715-42.928-101.676-112.024-101.676c-64.87,0-133.819,45.134-133.819,128.786
	c0,20.809,5.624,37.504,17.192,51.026c6.771,7.831,8.012,12.776,5.522,22.017l-2.342,9.166c-1.302,5.14-2.697,10.663-3.482,13.582
	c-1.771,6.671-5.697,9.886-8.683,11.408c-4.309,2.188-9.556,2.281-14.757,0.282c-3.536-1.37-5.294-5.35-3.926-8.892
	c1.376-3.53,5.342-5.281,8.892-3.926c1.477,0.577,2.765,0.671,3.557,0.289c0.926-0.478,1.422-1.899,1.637-2.705
	c0.779-2.892,2.154-8.342,3.442-13.414l2.376-9.314c1.281-4.737,1.329-4.925-2.658-9.529c-13.81-16.151-20.514-35.767-20.514-59.991
	c0-69.097,51.717-142.529,147.562-142.529c76.397,0,125.766,45.301,125.766,115.419c0,89.704-41.88,157.345-97.421,157.345
	c-17.333,0-32.995-7.26-42.98-19.915c-9.489-12.04-12.643-27.34-8.865-43.089c3.147-13.079,7.321-26.473,11.354-39.43
	c7.027-22.554,13.663-43.859,13.663-59.434c0-8.368-2.281-35.659-31.633-35.659c-27.03,0-48.208,29.183-48.208,66.446
	c0,24.594,8.28,41.591,8.361,41.759c0.718,1.436,0.913,3.094,0.537,4.657c0,0-31.23,131.35-36.759,154.333
	c-8.684,36.357-4.194,80.518-1.322,100.771c1.698-0.095,3.329,0.308,4.738,1.381c3.02,2.309,3.597,6.616,1.295,9.637
	C159.351,508.193,156.198,509.696,152.896,509.696z"/>
<path fill="#69C299" d="M154.958,491.415c13-17.013,36.657-51.089,45.958-84.623c3.503-12.347,19.902-77.05,20.064-77.706
	c0.697-2.751,3.019-4.792,5.845-5.134c2.899-0.369,5.562,1.102,6.891,3.604c8.254,15.575,34.351,31.687,63.742,31.687
	c86.746,0,147.334-76.989,147.334-187.221c0-76.364-65.104-155.359-174.055-155.359c-81.961,0-197.38,52.757-197.38,170.055
	c0,50.745,19.762,87.846,54.219,101.79c3.518,1.424,5.215,5.43,3.792,8.946c-1.416,3.522-5.429,5.227-8.945,3.791
	c-39.329-15.909-62.809-58.729-62.809-114.527c0-115.05,107.347-183.798,211.123-183.798c117.554,0,187.798,85.98,187.798,169.102
	c0,116.446-67.741,200.964-161.077,200.964c-25.291,0-51.321-10.823-66.688-26.601c-5.08,19.943-14.065,55.112-16.622,64.118
	c-10.971,39.551-40.189,79.171-52.241,94.362C160.478,506.664,153.552,493.256,154.958,491.415z"/>
</svg>
