<?xml version="1.0" encoding="utf-8"?>
<!-- Generator: Adobe Illustrator 16.0.0, SVG Export Plug-In . SVG Version: 6.00 Build 0)  -->
<!DOCTYPE svg PUBLIC "-//W3C//DTD SVG 1.1//EN" "http://www.w3.org/Graphics/SVG/1.1/DTD/svg11.dtd">
<svg version="1.1" id="Layer_1" xmlns="http://www.w3.org/2000/svg" xmlns:xlink="http://www.w3.org/1999/xlink" x="0px" y="0px"
	 width="512px" height="512px" viewBox="0 0 512 512" enable-background="new 0 0 512 512" xml:space="preserve">
<path fill="#69C299" d="M94.958,134.309h32.226c3.696,0,6.688-2.99,6.688-6.686c0-3.696-2.991-6.686-6.688-6.686H94.958
	c-3.696,0-6.688,2.99-6.688,6.686C88.272,131.319,91.263,134.309,94.958,134.309z"/>
<path fill="#69C299" d="M191.65,134.309h32.229c3.693,0,6.686-2.99,6.686-6.686c0-3.696-2.991-6.686-6.686-6.686H191.65
	c-3.694,0-6.686,2.99-6.686,6.686C184.964,131.319,187.955,134.309,191.65,134.309z"/>
<path fill="#69C299" d="M352.783,134.309h64.463c3.696,0,6.688-2.99,6.688-6.686c0-3.696-2.991-6.686-6.688-6.686h-64.463
	c-3.696,0-6.688,2.99-6.688,6.686C346.097,131.319,349.088,134.309,352.783,134.309z"/>
<path fill="#5E686B" d="M497.815,40.371H14.385c-3.696,0-6.686,2.991-6.686,6.686v418.97c0,3.694,2.989,6.686,6.686,6.686h483.43
	c3.695,0,6.687-2.99,6.688-6.685V47.057C504.501,43.361,501.51,40.371,497.815,40.371z M491.13,53.742v147.761H21.071V53.742H491.13
	z M21.071,459.342V214.875h470.061v244.467H21.071L21.071,459.342z"/>
</svg>
