<?xml version="1.0" encoding="utf-8"?>
<!-- Generator: Adobe Illustrator 16.0.0, SVG Export Plug-In . SVG Version: 6.00 Build 0)  -->
<!DOCTYPE svg PUBLIC "-//W3C//DTD SVG 1.1//EN" "http://www.w3.org/Graphics/SVG/1.1/DTD/svg11.dtd">
<svg version="1.1" id="Layer_1" xmlns="http://www.w3.org/2000/svg" xmlns:xlink="http://www.w3.org/1999/xlink" x="0px" y="0px"
	 width="512px" height="512px" viewBox="0 0 512 512" enable-background="new 0 0 512 512" xml:space="preserve">
<path fill="#5E686C" d="M193.815,506.952c-0.227,0-0.454-0.013-0.681-0.033c-2.598-0.261-4.821-1.977-5.729-4.428L7.488,16.728
	c-1.316-3.546,0.495-7.479,4.034-8.788c3.566-1.343,7.473,0.494,8.788,4.034l175.055,472.64L304.96,307.602
	c1.983-3.212,6.211-4.2,9.416-2.217c3.212,1.99,4.201,6.204,2.217,9.416L199.632,503.713
	C198.377,505.737,196.166,506.952,193.815,506.952z"/>
<path fill="#69C299" d="M310.777,318.04c-1.763,0-3.513-0.681-4.835-2.004L9.064,19.185c-2.271-2.271-2.658-5.816-0.921-8.528
	c1.743-2.705,5.108-3.833,8.134-2.718l485.791,179.916c2.451,0.909,4.167,3.132,4.427,5.73c0.261,2.598-0.981,5.123-3.205,6.498
	L314.376,317.019C313.261,317.706,312.02,318.04,310.777,318.04z M40.845,31.62l270.939,270.913l172.404-106.717L40.845,31.62z"/>
</svg>
