<?xml version="1.0" encoding="utf-8"?>
<!-- Generator: Adobe Illustrator 16.0.0, SVG Export Plug-In . SVG Version: 6.00 Build 0)  -->
<!DOCTYPE svg PUBLIC "-//W3C//DTD SVG 1.1//EN" "http://www.w3.org/Graphics/SVG/1.1/DTD/svg11.dtd">
<svg version="1.1" id="Layer_1" xmlns="http://www.w3.org/2000/svg" xmlns:xlink="http://www.w3.org/1999/xlink" x="0px" y="0px"
	 width="512px" height="512px" viewBox="0 0 512 512" enable-background="new 0 0 512 512" xml:space="preserve">
<path fill="#5E686C" d="M63.668,506.844c-1.123,0-2.245-0.275-3.256-0.84c-2.14-1.183-3.467-3.441-3.467-5.883V16.07
	c0-3.716,3.007-6.723,6.723-6.723s6.723,3.007,6.723,6.723v471.917L447.353,252.4c3.138-1.963,7.287-1.024,9.257,2.134
	c1.969,3.152,1.012,7.301-2.14,9.264L67.233,505.82C66.143,506.503,64.908,506.844,63.668,506.844z"/>
<path fill="#69C299" d="M450.911,264.821c-1.222,0-2.456-0.328-3.559-1.023L60.103,21.769c-3.146-1.963-4.104-6.112-2.134-9.264
	c1.962-3.145,6.105-4.11,9.263-2.133L454.47,252.4c3.151,1.963,4.108,6.113,2.14,9.264
	C455.336,263.705,453.143,264.821,450.911,264.821z"/>
</svg>
