<?xml version="1.0" encoding="utf-8"?>
<!-- Generator: Adobe Illustrator 16.0.0, SVG Export Plug-In . SVG Version: 6.00 Build 0)  -->
<!DOCTYPE svg PUBLIC "-//W3C//DTD SVG 1.1//EN" "http://www.w3.org/Graphics/SVG/1.1/DTD/svg11.dtd">
<svg version="1.1" id="Layer_1" xmlns="http://www.w3.org/2000/svg" xmlns:xlink="http://www.w3.org/1999/xlink" x="0px" y="0px"
	 width="512px" height="512px" viewBox="0 0 512 512" enable-background="new 0 0 512 512" xml:space="preserve">
<path fill="#69C299" d="M377.207,344.84c-1.717,0-3.432-0.646-4.748-1.935L42.676,21.614c-2.693-2.62-2.747-6.936-0.12-9.629
	c2.633-2.687,6.936-2.732,9.629-0.119l329.77,321.291c2.7,2.619,2.753,6.936,0.133,9.63
	C380.744,344.155,378.976,344.84,377.207,344.84z"/>
<path fill="#69C299" d="M47.431,501.376c-1.769,0-3.544-0.691-4.875-2.062c-2.627-2.686-2.574-6.995,0.12-9.629l329.783-321.277
	c2.686-2.62,6.995-2.567,9.629,0.12c2.62,2.7,2.567,7.009-0.133,9.629l-329.77,321.29C50.862,500.738,49.147,501.376,47.431,501.376
	z"/>
<path fill="#5E686C" d="M69.35,507.467c-8.852,0-17.63-2.434-25.397-7.049c-15.308-9.057-24.452-25.098-24.452-42.906V53.807
	c0-17.802,9.144-33.849,24.459-42.926c15.036-8.878,34.121-9.184,49.376-0.812l368.605,201.849
	c16.213,8.884,25.896,25.23,25.896,43.73c0,18.541-9.683,34.894-25.908,43.752L93.33,501.257
	C85.868,505.325,77.575,507.467,69.35,507.467z M69.363,17.485c-6.424,0-12.808,1.769-18.467,5.114
	C39.77,29.195,33.12,40.867,33.12,53.807v403.705c0,12.941,6.644,24.605,17.776,31.189c10.939,6.504,24.599,6.782,35.904,0.598
	l368.599-201.85c11.784-6.437,18.819-18.32,18.819-31.8c0-13.446-7.035-25.33-18.819-31.787L86.786,22.007
	C81.399,19.047,75.374,17.485,69.363,17.485z"/>
</svg>
