<?xml version="1.0" encoding="utf-8"?>
<!-- Generator: Adobe Illustrator 16.0.0, SVG Export Plug-In . SVG Version: 6.00 Build 0)  -->
<!DOCTYPE svg PUBLIC "-//W3C//DTD SVG 1.1//EN" "http://www.w3.org/Graphics/SVG/1.1/DTD/svg11.dtd">
<svg version="1.1" id="Layer_1" xmlns="http://www.w3.org/2000/svg" xmlns:xlink="http://www.w3.org/1999/xlink" x="0px" y="0px"
	 width="512px" height="512px" viewBox="0 0 512 512" enable-background="new 0 0 512 512" xml:space="preserve">
<path fill="#69C299" d="M190.708,166.101c-3.72,0-6.73-3.01-6.73-6.73V11.248c0-3.72,3.01-6.73,6.73-6.73
	c3.72,0,6.73,3.01,6.73,6.73V159.37C197.438,163.09,194.428,166.101,190.708,166.101z"/>
<path fill="#69C299" d="M332.047,166.101c-3.72,0-6.73-3.01-6.73-6.73V11.248c0-3.72,3.011-6.73,6.73-6.73
	c3.721,0,6.731,3.01,6.731,6.73V159.37C338.779,163.09,335.768,166.101,332.047,166.101z"/>
<path fill="#5E686C" d="M202.487,509.302H96.482c-3.72,0-6.73-3.012-6.73-6.73c0-3.721,3.01-6.73,6.73-6.73h106.005
	c28.762,0,52.161-23.398,52.161-52.161c0-3.721,3.01-6.73,6.729-6.73c3.721,0,6.73,3.01,6.73,6.73
	C268.108,479.868,238.669,509.302,202.487,509.302z"/>
<path fill="#5E686C" d="M390.939,450.41h-270.9c-16.702,0-30.287-13.593-30.287-30.288V184.557
	c0-16.695,13.585-30.287,30.287-30.287h270.9c16.702,0,30.287,13.592,30.287,30.287v235.565
	C421.226,436.817,407.641,450.41,390.939,450.41z M120.039,167.73c-9.281,0-16.827,7.545-16.827,16.826v235.565
	c0,9.28,7.545,16.827,16.827,16.827h270.9c9.28,0,16.826-7.547,16.826-16.827V184.557c0-9.281-7.546-16.826-16.826-16.826H120.039z"
	/>
</svg>
