<?xml version="1.0" encoding="utf-8"?>
<!-- Generator: Adobe Illustrator 16.0.0, SVG Export Plug-In . SVG Version: 6.00 Build 0)  -->
<!DOCTYPE svg PUBLIC "-//W3C//DTD SVG 1.1//EN" "http://www.w3.org/Graphics/SVG/1.1/DTD/svg11.dtd">
<svg version="1.1" id="Layer_1" xmlns="http://www.w3.org/2000/svg" xmlns:xlink="http://www.w3.org/1999/xlink" x="0px" y="0px"
	 width="512px" height="512px" viewBox="0 0 512 512" enable-background="new 0 0 512 512" xml:space="preserve">
<path fill="#5E686B" d="M255.72,506.691C117.472,506.691,5,394.213,5,255.971C5,128.374,100.469,21.275,227.06,6.863
	c3.802-0.517,7.277,2.312,7.706,6.128c0.436,3.822-2.306,7.271-6.128,7.706C109.086,34.312,18.929,135.46,18.929,255.971
	c0,130.57,106.222,236.792,236.791,236.792c130.57,0,236.791-106.222,236.791-236.792c0-120.51-90.156-221.651-209.709-235.267
	c-3.822-0.435-6.562-3.883-6.127-7.706c0.428-3.809,3.666-6.665,7.705-6.128c126.592,14.412,222.06,121.504,222.06,249.101
	C506.439,394.213,393.968,506.691,255.72,506.691z"/>
<path fill="#69C299" d="M255.72,388.296c-3.85,0-6.964-3.115-6.964-6.965V130.604c0-3.85,3.115-6.965,6.964-6.965
	s6.965,3.115,6.965,6.965v250.727C262.685,385.181,259.569,388.296,255.72,388.296z"/>
<path fill="#69C299" d="M381.08,262.936H130.36c-3.85,0-6.964-3.115-6.964-6.964s3.115-6.964,6.964-6.964H381.08
	c3.849,0,6.964,3.115,6.964,6.964S384.929,262.936,381.08,262.936z"/>
</svg>
