<?xml version="1.0" encoding="utf-8"?>
<!-- Generator: Adobe Illustrator 16.0.0, SVG Export Plug-In . SVG Version: 6.00 Build 0)  -->
<!DOCTYPE svg PUBLIC "-//W3C//DTD SVG 1.1//EN" "http://www.w3.org/Graphics/SVG/1.1/DTD/svg11.dtd">
<svg version="1.1" id="Layer_1" xmlns="http://www.w3.org/2000/svg" xmlns:xlink="http://www.w3.org/1999/xlink" x="0px" y="0px"
	 width="512px" height="512px" viewBox="0 0 512 512" enable-background="new 0 0 512 512" xml:space="preserve">
<g id="Page-1">
	<g id="icon-46-bowling-pin-ball">
		<path fill="#5E686B" d="M247.376,465.778c-0.026,0.054-0.058,0.104-0.081,0.159c-5.894,13.151-11.258,22.581-13.981,27.095
			h-77.729c-8.075-13.442-39.615-70.563-39.615-142.863c0-82.519,41.049-144.218,41.457-144.836c0.75-1.118,1.158-2.433,1.158-3.775
			v-42.601c0-24.023-6.484-41.74-12.206-57.365c-4.88-13.33-9.104-24.845-9.104-38.478c0-19.315,17.73-46.521,57.161-46.521
			c39.434,0,57.161,27.207,57.161,46.521c0,13.633-4.209,25.148-9.089,38.478c-5.708,15.625-12.191,33.342-12.191,57.365v42.601
			c0,1.342,0.407,2.657,1.157,3.775c0.21,0.302,21.188,31.763,33.157,79.336c0.213,0.841,0.58,1.599,1.058,2.263
			c3.341-3.127,7.254-5.643,11.549-7.359c-11.12-43.048-28.744-72.606-33.451-80.012v-40.602c0-21.636,5.786-37.452,11.377-52.742
			c5.09-13.929,9.901-27.081,9.901-43.101c0-24.911-21.912-59.989-70.629-59.989c-44.206,0-70.629,30.501-70.629,59.989
			c0,16.02,4.813,29.179,9.917,43.108c5.604,15.29,11.391,31.099,11.391,52.735v40.602c-7.074,11.087-42.613,70.749-42.613,150.61
			c0,86.729,41.957,150.649,43.746,153.332c1.249,1.868,3.354,2.999,5.603,2.999h85.202c2.249,0,4.367-1.131,5.602-3.012
			c0.316-0.471,7.44-11.248,15.9-29.782C254.355,471.776,250.566,469.071,247.376,465.778z"/>
	</g>
</g>
<path fill="#69C299" d="M330.224,506.5c-68.312,0-123.896-55.569-123.896-123.884c0-68.328,55.583-123.91,123.896-123.91
	s123.896,55.582,123.896,123.91C454.119,450.931,398.536,506.5,330.224,506.5z M330.224,272.174
	c-60.896,0-110.429,49.546-110.429,110.442c0,60.883,49.532,110.416,110.429,110.416c60.897,0,110.43-49.533,110.43-110.416
	C440.654,321.72,391.12,272.174,330.224,272.174z"/>
<path fill="#5E686B" d="M237.051,208.292h-85.202c-3.722,0-6.732-3.012-6.732-6.734c0-3.722,3.012-6.734,6.732-6.734h85.202
	c3.723,0,6.734,3.012,6.734,6.734C243.785,205.28,240.774,208.292,237.051,208.292z"/>
</svg>
