<?xml version="1.0" encoding="utf-8"?>
<!-- Generator: Adobe Illustrator 16.0.0, SVG Export Plug-In . SVG Version: 6.00 Build 0)  -->
<!DOCTYPE svg PUBLIC "-//W3C//DTD SVG 1.1//EN" "http://www.w3.org/Graphics/SVG/1.1/DTD/svg11.dtd">
<svg version="1.1" id="Layer_1" xmlns="http://www.w3.org/2000/svg" xmlns:xlink="http://www.w3.org/1999/xlink" x="0px" y="0px"
	 width="512px" height="512px" viewBox="0 0 512 512" enable-background="new 0 0 512 512" xml:space="preserve">
<path fill="#5E686B" d="M64.532,317.551c-33.941,0-61.551-27.609-61.551-61.55c0-33.941,27.609-61.551,61.551-61.551
	c33.94,0,61.551,27.61,61.551,61.551C126.083,289.941,98.473,317.551,64.532,317.551z M64.532,208.127
	c-26.395,0-47.873,21.479-47.873,47.873c0,26.395,21.479,47.873,47.873,47.873c26.394,0,47.872-21.479,47.872-47.873
	C112.405,229.606,90.926,208.127,64.532,208.127z"/>
<path fill="#69C299" d="M256.003,317.551c-33.941,0-61.55-27.609-61.55-61.55c0-33.941,27.608-61.551,61.55-61.551
	c33.94,0,61.551,27.61,61.551,61.551C317.554,289.941,289.945,317.551,256.003,317.551z M256.003,208.127
	c-26.395,0-47.873,21.479-47.873,47.873c0,26.395,21.479,47.873,47.873,47.873s47.873-21.479,47.873-47.873
	C303.876,229.606,282.398,208.127,256.003,208.127z"/>
<path fill="#5E686B" d="M447.467,317.551c-33.941,0-61.55-27.609-61.55-61.55c0-33.941,27.607-61.551,61.55-61.551
	c33.941,0,61.552,27.61,61.552,61.551C509.019,289.941,481.407,317.551,447.467,317.551z M447.467,208.127
	c-26.395,0-47.871,21.479-47.871,47.873c0,26.395,21.478,47.873,47.871,47.873c26.396,0,47.873-21.479,47.873-47.873
	C495.34,229.606,473.863,208.127,447.467,208.127z"/>
</svg>
