<?xml version="1.0" encoding="utf-8"?>
<!-- Generator: Adobe Illustrator 16.0.0, SVG Export Plug-In . SVG Version: 6.00 Build 0)  -->
<!DOCTYPE svg PUBLIC "-//W3C//DTD SVG 1.1//EN" "http://www.w3.org/Graphics/SVG/1.1/DTD/svg11.dtd">
<svg version="1.1" id="Layer_1" xmlns="http://www.w3.org/2000/svg" xmlns:xlink="http://www.w3.org/1999/xlink" x="0px" y="0px"
	 width="512px" height="512px" viewBox="0 0 512 512" enable-background="new 0 0 512 512" xml:space="preserve">
<g>
	<path fill="#5E686C" d="M410.115,507.646H105.198c-3.833,0-6.933-3.102-6.933-6.934s3.101-6.933,6.933-6.933h304.917
		c3.832,0,6.934,3.101,6.934,6.933S413.947,507.646,410.115,507.646z"/>
	<path fill="#5E686C" d="M105.198,507.646c-2.613,0-5.105-1.476-6.283-4.008c-1.625-3.467-0.108-7.598,3.358-9.208
		c48.531-22.6,79.892-71.795,79.892-125.33c0-38.957-45.132-101.598-45.579-102.222c-24.916-27.867-38.321-64.556-38.321-105.565
		c0-87.888,71.497-159.392,159.391-159.392c87.896,0,159.393,71.504,159.393,159.392c0,3.832-3.102,6.934-6.934,6.934
		s-6.934-3.102-6.934-6.934c0-80.244-65.28-145.525-145.525-145.525c-80.244,0-145.525,65.282-145.525,145.525
		c0,37.55,12.187,71.05,35.234,96.873c2.41,3.257,48.667,67.455,48.667,110.914c0,58.91-34.503,113.034-87.909,137.896
		C107.175,507.443,106.186,507.646,105.198,507.646z"/>
	<path fill="#69C299" d="M373.852,278.755H105.198c-3.833,0-6.933-3.101-6.933-6.933s3.101-6.934,6.933-6.934h268.654
		c3.832,0,6.933,3.102,6.933,6.934S377.684,278.755,373.852,278.755z"/>
</g>
</svg>
