<?xml version="1.0" encoding="utf-8"?>
<!-- Generator: Adobe Illustrator 16.0.0, SVG Export Plug-In . SVG Version: 6.00 Build 0)  -->
<!DOCTYPE svg PUBLIC "-//W3C//DTD SVG 1.1//EN" "http://www.w3.org/Graphics/SVG/1.1/DTD/svg11.dtd">
<svg version="1.1" id="Layer_1" xmlns="http://www.w3.org/2000/svg" xmlns:xlink="http://www.w3.org/1999/xlink" x="0px" y="0px"
	 width="512px" height="512px" viewBox="0 0 512 512" enable-background="new 0 0 512 512" xml:space="preserve">
<path fill="#5E686B" d="M78.244,159.991V16.226c0-3.69-2.999-6.675-6.684-6.675c-3.688,0-6.675,2.986-6.675,6.675V159.99
	c-26.31,3.295-46.732,25.779-46.732,52.968s20.424,49.672,46.732,52.968v229.849c0,3.69,2.986,6.676,6.675,6.676
	c3.685,0,6.684-2.984,6.684-6.676v-229.85c26.299-3.3,46.712-25.781,46.712-52.967S104.543,163.291,78.244,159.991z M71.562,253.009
	c-22.085,0-40.057-17.966-40.057-40.051s17.972-40.051,40.057-40.051c22.079,0,40.044,17.966,40.044,40.051
	S93.641,253.009,71.562,253.009z"/>
<path fill="#69C299" d="M262.681,86.226v-70c0-3.69-2.986-6.675-6.675-6.675c-3.69,0-6.675,2.986-6.675,6.675v70
	c-26.312,3.295-46.739,25.779-46.739,52.968s20.429,49.673,46.739,52.968v303.611c0,3.69,2.984,6.676,6.675,6.676
	c3.688,0,6.676-2.984,6.675-6.676V192.162c26.298-3.297,46.713-25.779,46.713-52.968C309.394,112.006,288.979,89.523,262.681,86.226
	z M256.006,179.244c-22.084,0-40.063-17.965-40.063-40.05s17.979-40.051,40.063-40.051c22.072,0,40.039,17.966,40.039,40.051
	S278.078,179.244,256.006,179.244z"/>
<path fill="#5E686B" d="M493.845,397.409c0-27.189-20.417-49.674-46.728-52.969V16.226c0-3.69-2.982-6.675-6.674-6.675
	c-3.688,0-6.676,2.986-6.676,6.675V344.44c-26.308,3.296-46.724,25.779-46.724,52.969c0,27.188,20.416,49.672,46.724,52.968v45.396
	c0,3.69,2.987,6.676,6.676,6.676c3.69,0,6.674-2.984,6.674-6.676v-45.396C473.428,447.082,493.845,424.599,493.845,397.409z
	 M440.445,437.459c-22.086,0-40.051-17.965-40.051-40.051s17.965-40.051,40.051-40.051c22.084,0,40.049,17.965,40.049,40.051
	S462.529,437.459,440.445,437.459z"/>
</svg>
