<?xml version="1.0" encoding="utf-8"?>
<!-- Generator: Adobe Illustrator 16.0.0, SVG Export Plug-In . SVG Version: 6.00 Build 0)  -->
<!DOCTYPE svg PUBLIC "-//W3C//DTD SVG 1.1//EN" "http://www.w3.org/Graphics/SVG/1.1/DTD/svg11.dtd">
<svg version="1.1" id="Layer_1" xmlns="http://www.w3.org/2000/svg" xmlns:xlink="http://www.w3.org/1999/xlink" x="0px" y="0px"
	 width="512px" height="512px" viewBox="0 0 512 512" enable-background="new 0 0 512 512" xml:space="preserve">
<g>
	<path fill="#69C299" d="M399.819,157.232c-3.768,0-6.816-3.049-6.816-6.816V20.398H121.073v130.017
		c0,3.768-3.049,6.816-6.816,6.816c-3.768,0-6.817-3.049-6.817-6.816V13.582c0-3.768,3.049-6.816,6.817-6.816h285.562
		c3.768,0,6.816,3.049,6.816,6.816v136.833C406.635,154.183,403.586,157.232,399.819,157.232z"/>
	<path fill="#5E686C" d="M500.986,408.187h-99.171c-3.768,0-6.815-3.05-6.815-6.816c0-3.768,3.048-6.816,6.815-6.816h92.354V157.232
		H19.912v237.322h92.34c3.768,0,6.816,3.049,6.816,6.816c0,3.767-3.048,6.816-6.816,6.816H13.096c-3.768,0-6.816-3.05-6.816-6.816
		V150.416c0-3.768,3.049-6.816,6.816-6.816h487.89c3.769,0,6.816,3.049,6.816,6.816V401.37
		C507.802,405.137,504.754,408.187,500.986,408.187z"/>
	<path fill="#5E686C" d="M401.815,502.277H112.26c-3.768,0-6.816-3.049-6.816-6.816V287.249c0-3.768,3.049-6.816,6.816-6.816
		h289.555c3.769,0,6.817,3.049,6.817,6.816v208.212C408.632,499.229,405.583,502.277,401.815,502.277z M119.076,488.645h275.923
		V294.065H119.076V488.645z"/>
	<path fill="#69C299" d="M425.619,249.453c-16.881,0-30.62-13.739-30.62-30.621c0-16.875,13.739-30.607,30.62-30.607
		s30.62,13.732,30.62,30.607C456.24,235.713,442.5,249.453,425.619,249.453z M425.619,201.858c-9.372,0-16.987,7.615-16.987,16.974
		c0,9.366,7.615,16.988,16.987,16.988c9.373,0,16.988-7.622,16.988-16.988C442.608,209.473,434.992,201.858,425.619,201.858z"/>
</g>
</svg>
