<?xml version="1.0" encoding="utf-8"?>
<!-- Generator: Adobe Illustrator 16.0.0, SVG Export Plug-In . SVG Version: 6.00 Build 0)  -->
<!DOCTYPE svg PUBLIC "-//W3C//DTD SVG 1.1//EN" "http://www.w3.org/Graphics/SVG/1.1/DTD/svg11.dtd">
<svg version="1.1" id="Layer_1" xmlns="http://www.w3.org/2000/svg" xmlns:xlink="http://www.w3.org/1999/xlink" x="0px" y="0px"
	 width="512px" height="512px" viewBox="0 0 512 512" enable-background="new 0 0 512 512" xml:space="preserve">
<g>
	<path fill="#69C299" d="M423.391,442.321c-29.445,0-53.391-23.951-53.391-53.391c0-29.438,23.945-53.392,53.391-53.392
		c29.446,0,53.392,23.953,53.392,53.392C476.782,418.37,452.837,442.321,423.391,442.321z M423.391,348.887
		c-22.081,0-40.043,17.963-40.043,40.044c0,22.08,17.962,40.043,40.043,40.043s40.044-17.963,40.044-40.043
		C463.435,366.85,445.472,348.887,423.391,348.887z"/>
	<path fill="#69C299" d="M287.189,506.578c-29.446,0-53.398-23.945-53.398-53.385c0-29.44,23.952-53.392,53.398-53.392
		s53.392,23.951,53.392,53.392C340.58,482.633,316.635,506.578,287.189,506.578z M287.189,413.149
		c-22.081,0-40.05,17.963-40.05,40.044c0,22.074,17.969,40.037,40.05,40.037s40.044-17.963,40.044-40.037
		C327.233,431.112,309.27,413.149,287.189,413.149z"/>
	<path fill="#69C299" d="M403.461,188.426c-29.446,0-53.392-23.952-53.392-53.391c0-29.44,23.945-53.392,53.392-53.392
		c29.445,0,53.391,23.952,53.391,53.392C456.852,164.475,432.906,188.426,403.461,188.426z M403.461,94.991
		c-22.082,0-40.044,17.962-40.044,40.044c0,22.081,17.962,40.043,40.044,40.043c22.081,0,40.043-17.962,40.043-40.043
		C443.504,112.954,425.542,94.991,403.461,94.991z"/>
	<path fill="#69C299" d="M320.48,225.25c-1.707,0-3.415-0.651-4.719-1.955c-2.607-2.607-2.607-6.831,0-9.437l50.315-50.315
		c2.607-2.607,6.831-2.607,9.438,0s2.606,6.831,0,9.438l-50.315,50.315C323.895,224.599,322.188,225.25,320.48,225.25z"/>
	<path fill="#69C299" d="M391.104,361.896c-1.708,0-3.415-0.65-4.719-1.955l-69.973-69.971c-2.606-2.608-2.606-6.832,0-9.438
		c2.607-2.606,6.831-2.606,9.438,0l69.973,69.973c2.606,2.606,2.606,6.83,0,9.437C394.519,361.245,392.811,361.896,391.104,361.896z
		"/>
	<path fill="#69C299" d="M287.893,413.149c-3.689,0-6.675-2.984-6.675-6.675V298.728c0-3.688,2.985-6.673,6.675-6.673
		c3.688,0,6.674,2.984,6.674,6.673v107.747C294.567,410.165,291.581,413.149,287.893,413.149z"/>
	<path fill="#5E686C" d="M92.68,305.402c-29.439,0-53.391-23.952-53.391-53.391c0-29.439,23.952-53.392,53.391-53.392
		s53.391,23.952,53.391,53.392C146.072,281.45,122.12,305.402,92.68,305.402z M92.68,211.968c-22.081,0-40.043,17.962-40.043,40.043
		c0,22.081,17.962,40.043,40.043,40.043s40.043-17.963,40.043-40.043C132.724,229.93,114.761,211.968,92.68,211.968z"/>
	<path fill="#5E686C" d="M92.68,108.783c-29.439,0-53.391-23.952-53.391-53.392C39.289,25.952,63.241,2,92.68,2
		s53.391,23.952,53.391,53.391C146.072,84.831,122.12,108.783,92.68,108.783z M92.68,15.348c-22.081,0-40.043,17.962-40.043,40.043
		S70.599,95.435,92.68,95.435s40.043-17.963,40.043-40.044S114.761,15.348,92.68,15.348z"/>
	<path fill="#5E686C" d="M287.893,305.402c-29.446,0-53.392-23.952-53.392-53.391c0-29.439,23.945-53.392,53.392-53.392
		s53.392,23.952,53.392,53.392C341.284,281.45,317.339,305.402,287.893,305.402z M287.893,211.968
		c-22.082,0-40.044,17.962-40.044,40.043c0,22.081,17.962,40.043,40.044,40.043c22.081,0,40.043-17.963,40.043-40.043
		C327.936,229.93,309.974,211.968,287.893,211.968z"/>
	<path fill="#5E686C" d="M254.457,225.25c-1.707,0-3.415-0.651-4.718-1.955L120.282,93.832c-2.607-2.607-2.607-6.831,0-9.438
		c2.606-2.607,6.83-2.607,9.437,0l129.458,129.464c2.606,2.606,2.606,6.83,0,9.437C257.873,224.599,256.165,225.25,254.457,225.25z"
		/>
	<path fill="#5E686C" d="M241.175,258.685H139.398c-3.688,0-6.674-2.985-6.674-6.673c0-3.689,2.985-6.674,6.674-6.674h101.777
		c3.689,0,6.674,2.985,6.674,6.674C247.849,255.7,244.864,258.685,241.175,258.685z"/>
</g>
</svg>
