<?xml version="1.0" encoding="utf-8"?>
<!-- Generator: Adobe Illustrator 16.0.0, SVG Export Plug-In . SVG Version: 6.00 Build 0)  -->
<!DOCTYPE svg PUBLIC "-//W3C//DTD SVG 1.1//EN" "http://www.w3.org/Graphics/SVG/1.1/DTD/svg11.dtd">
<svg version="1.1" id="Layer_1" xmlns="http://www.w3.org/2000/svg" xmlns:xlink="http://www.w3.org/1999/xlink" x="0px" y="0px"
	 width="512px" height="512px" viewBox="0 0 512 512" enable-background="new 0 0 512 512" xml:space="preserve">
<path fill="#5E686B" d="M507,59.042c0-3.005-2.434-5.438-5.438-5.438H9.543c-0.188,0-0.374,0.009-0.557,0.028
	c-2.743,0.278-4.882,2.592-4.882,5.41v98.411v295.213c0,3.006,2.434,5.438,5.438,5.438h492.019c3.006,0,5.438-2.432,5.437-5.438
	V158.568c0-0.185-0.01-0.368-0.026-0.547c0.019-0.187,0.029-0.375,0.029-0.566L507,59.042L507,59.042z M496.121,64.48v87.535H14.981
	V64.48H496.121z M14.981,447.227V162.891h481.142v284.334L14.981,447.227L14.981,447.227z"/>
<path fill="#5E686B" d="M81.622,128.317c11.985,0,21.741-9.756,21.743-21.754c0-11.997-9.758-21.753-21.743-21.753
	c-12.002,0-21.766,9.756-21.766,21.753C59.858,118.561,69.62,128.317,81.622,128.317z M81.622,95.687
	c5.989,0,10.864,4.88,10.864,10.876s-4.875,10.877-10.864,10.877c-6.001,0-10.889-4.881-10.889-10.877S75.621,95.687,81.622,95.687z
	"/>
<path fill="#5E686B" d="M158.907,128.317c11.996,0,21.753-9.756,21.753-21.754c0-11.997-9.758-21.753-21.753-21.753
	c-11.997,0-21.755,9.756-21.755,21.753C137.154,118.561,146.909,128.317,158.907,128.317z M158.907,95.687
	c5.994,0,10.876,4.88,10.876,10.876s-4.882,10.877-10.876,10.877c-5.996,0-10.879-4.881-10.879-10.877
	S152.911,95.687,158.907,95.687z"/>
<path fill="#5E686B" d="M236.213,128.317c11.997,0,21.753-9.756,21.753-21.754c0-11.997-9.756-21.753-21.753-21.753
	s-21.753,9.756-21.753,21.753C214.46,118.561,224.215,128.317,236.213,128.317z M236.213,95.687c5.996,0,10.876,4.88,10.876,10.876
	s-4.88,10.877-10.876,10.877s-10.877-4.881-10.877-10.877S230.217,95.687,236.213,95.687z"/>
<path fill="#69C299" d="M255.566,267.518c-38.985,0-70.709,31.717-70.709,70.697c0,38.982,31.724,70.699,70.709,70.699
	c38.978,0,70.693-31.717,70.693-70.699C326.259,299.234,294.543,267.518,255.566,267.518z M255.566,398.037
	c-32.99,0-59.833-26.841-59.833-59.822c0-32.98,26.843-59.822,59.833-59.822c32.986,0,59.816,26.842,59.816,59.822
	C315.382,371.196,288.552,398.037,255.566,398.037z"/>
<path fill="#69C299" d="M255.566,321.274c-3.005,0-5.438,2.432-5.438,5.438v32.63c0,3.005,2.432,5.438,5.438,5.438
	s5.438-2.434,5.438-5.438v-32.63C261.004,323.707,258.571,321.274,255.566,321.274z"/>
<path fill="#69C299" d="M221.873,261.834c3.005,0,5.438-2.432,5.438-5.438v-21.647c0-8.944,7.292-16.22,16.251-16.22h24
	c8.965,0,16.252,7.276,16.252,16.22v21.647c0,3.004,2.434,5.438,5.438,5.438c3.007,0,5.438-2.434,5.438-5.438v-21.647
	c0-14.939-12.172-27.096-27.128-27.096h-24c-14.961,0-27.128,12.157-27.128,27.096v21.647
	C216.435,259.4,218.868,261.834,221.873,261.834z"/>
</svg>
