<?xml version="1.0" encoding="utf-8"?>
<!-- Generator: Adobe Illustrator 16.0.0, SVG Export Plug-In . SVG Version: 6.00 Build 0)  -->
<!DOCTYPE svg PUBLIC "-//W3C//DTD SVG 1.1//EN" "http://www.w3.org/Graphics/SVG/1.1/DTD/svg11.dtd">
<svg version="1.1" id="Layer_1" xmlns="http://www.w3.org/2000/svg" xmlns:xlink="http://www.w3.org/1999/xlink" x="0px" y="0px"
	 width="512px" height="512px" viewBox="0 0 512 512" enable-background="new 0 0 512 512" xml:space="preserve">
<g>
	<path fill="#69C299" d="M52.376,193.156c-1.723,0-3.445-0.645-4.769-1.949c-2.687-2.633-2.727-6.943-0.093-9.629L217.545,8.223
		c2.66-2.667,6.956-2.74,9.643-0.093c2.673,2.634,2.728,6.943,0.093,9.629L57.237,191.115
		C55.907,192.471,54.138,193.156,52.376,193.156z"/>
	<path fill="#69C299" d="M222.413,107.396c-3.765,0-6.811-3.046-6.811-6.81V19.8H136.5c-3.765,0-6.811-3.045-6.811-6.81
		c0-3.765,3.046-6.81,6.811-6.81h85.913c3.764,0,6.81,3.045,6.81,6.81v87.596C229.223,104.35,226.177,107.396,222.413,107.396z"/>
</g>
<path fill="#5E686B" d="M494.191,507.588H17.509c-3.764,0-6.81-3.046-6.81-6.811s3.046-6.811,6.81-6.811h476.682
	c3.764,0,6.811,3.046,6.811,6.811C501,504.542,497.953,507.588,494.191,507.588z"/>
<path fill="#5E686B" d="M402.605,433.559c-3.764,0-6.81-3.046-6.81-6.811V18.165c0-3.764,3.046-6.81,6.81-6.81
	c3.765,0,6.81,3.045,6.81,6.81v408.583C409.413,430.513,406.368,433.559,402.605,433.559z"/>
<path fill="#5E686B" d="M255.85,433.559c-3.764,0-6.81-3.046-6.81-6.811v-245.15c0-3.764,3.046-6.81,6.81-6.81
	s6.811,3.045,6.811,6.81v245.15C262.659,430.513,259.614,433.559,255.85,433.559z"/>
<path fill="#5E686B" d="M99.24,433.559c-3.764,0-6.81-3.046-6.81-6.811V290.555c0-3.765,3.046-6.811,6.81-6.811
	c3.765,0,6.811,3.046,6.811,6.811v136.193C106.049,430.513,103.003,433.559,99.24,433.559z"/>
</svg>
