<?xml version="1.0" encoding="utf-8"?>
<!-- Generator: Adobe Illustrator 16.0.0, SVG Export Plug-In . SVG Version: 6.00 Build 0)  -->
<!DOCTYPE svg PUBLIC "-//W3C//DTD SVG 1.1//EN" "http://www.w3.org/Graphics/SVG/1.1/DTD/svg11.dtd">
<svg version="1.1" id="Layer_1" xmlns="http://www.w3.org/2000/svg" xmlns:xlink="http://www.w3.org/1999/xlink" x="0px" y="0px"
	 width="512px" height="512px" viewBox="0 0 512 512" enable-background="new 0 0 512 512" xml:space="preserve">
<path fill="#5E686C" d="M307.13,494.151c-3.822,0-6.915-3.093-6.915-6.914V361.637c0-5.719-6.482-9.636-11.925-11.917
	c-8.427-3.532-20.405-5.557-32.883-5.557c-24.7,0-44.795,7.838-44.795,17.474v125.601c0,3.821-3.093,6.914-6.915,6.914
	c-3.821,0-6.915-3.093-6.915-6.914V361.637c0-21.627,29.454-31.304,58.624-31.304c29.183,0,58.637,9.677,58.637,31.304v125.601
	C314.044,491.059,310.951,494.151,307.13,494.151z"/>
<path fill="#5E686C" d="M292.356,235.544c-3.822,0-6.914-3.092-6.914-6.915v-59.109c0-3.822,3.092-6.915,6.914-6.915
	s6.914,3.093,6.914,6.915v59.109C299.27,232.452,296.178,235.544,292.356,235.544z"/>
<path fill="#5E686C" d="M351.465,213.383h-59.109c-3.822,0-6.914-3.092-6.914-6.915c0-3.822,3.092-6.914,6.914-6.914h59.109
	c3.822,0,6.915,3.092,6.915,6.914C358.38,210.291,355.287,213.383,351.465,213.383z"/>
<path fill="#5E686C" d="M499.246,494.151c-3.821,0-6.915-3.093-6.915-6.914v-192.11c0-5.07-2.794-7.859-7.859-7.859h-81.284
	c-3.821,0-6.914-3.093-6.914-6.914c0-3.822,3.093-6.915,6.914-6.915h81.284c12.775,0,21.688,8.92,21.688,21.688v192.11
	C506.16,491.059,503.069,494.151,499.246,494.151z"/>
<path fill="#5E686C" d="M11.58,494.151c-3.822,0-6.914-3.093-6.914-6.914v-192.11c0-12.769,8.92-21.688,21.688-21.688h81.285
	c3.822,0,6.914,3.093,6.914,6.915c0,3.821-3.092,6.914-6.914,6.914H26.355c-5.071,0-7.86,2.789-7.86,7.859v192.11
	C18.495,491.059,15.403,494.151,11.58,494.151z"/>
<path fill="#5E686C" d="M115.012,494.151H12.567c-3.822,0-6.915-3.093-6.915-6.914c0-3.822,3.093-6.915,6.915-6.915h102.446
	c3.822,0,6.915,3.093,6.915,6.915C121.927,491.059,118.834,494.151,115.012,494.151z"/>
<path fill="#69C299" d="M395.787,494.151H115.012c-3.821,0-6.915-3.093-6.915-6.914c0-3.822,3.093-6.915,6.915-6.915h280.775
	c3.822,0,6.915,3.093,6.915,6.915C402.702,491.059,399.61,494.151,395.787,494.151z"/>
<path fill="#5E686C" d="M499.246,494.151H395.787c-3.821,0-6.914-3.093-6.914-6.914c0-3.822,3.093-6.915,6.914-6.915h103.459
	c3.822,0,6.914,3.093,6.914,6.915C506.16,491.059,503.069,494.151,499.246,494.151z"/>
<path fill="#5E686C" d="M172.732,285.795c-3.822,0-6.915-3.092-6.915-6.914v-44.336c0-3.822,3.092-6.914,6.915-6.914
	c3.822,0,6.914,3.092,6.914,6.914v44.336C179.646,282.703,176.553,285.795,172.732,285.795z"/>
<path fill="#69C299" d="M395.801,494.151c-3.822,0-6.914-3.093-6.914-6.914V184.294c0-1.364,0.405-2.701,1.161-3.835l57.948-86.917
	V43.914c0-5.071-2.796-7.86-7.859-7.86H366.24c-5.064,0-7.859,2.789-7.859,7.86v44.335c0,3.822-3.093,6.915-6.915,6.915H307.13
	c-3.822,0-6.915-3.093-6.915-6.915V43.914c0-5.071-2.795-7.86-7.859-7.86h-73.884c-5.064,0-7.859,2.789-7.859,7.86v44.335
	c0,3.822-3.093,6.915-6.915,6.915h-44.335c-3.822,0-6.915-3.093-6.915-6.915V43.914c0-5.071-2.795-7.86-7.873-7.86H70.69
	c-5.071,0-7.859,2.789-7.859,7.86v49.629l57.948,86.917c0.756,1.134,1.162,2.471,1.162,3.835v302.943
	c0,3.821-3.092,6.914-6.915,6.914c-3.822,0-6.914-3.093-6.914-6.914v-300.85L50.163,99.472c-0.756-1.135-1.162-2.472-1.162-3.836
	V43.914c0-12.769,8.92-21.688,21.688-21.688h73.884c12.775,0,21.702,8.92,21.702,21.688v37.421h30.507V43.914
	c0-12.769,8.914-21.688,21.688-21.688h73.884c12.775,0,21.688,8.92,21.688,21.688v37.421h30.507V43.914
	c0-12.769,8.913-21.688,21.688-21.688h73.897c12.775,0,21.688,8.92,21.688,21.688v51.723c0,1.364-0.405,2.701-1.161,3.836
	l-57.948,86.916v300.85C402.715,491.059,399.623,494.151,395.801,494.151z"/>
</svg>
