<?xml version="1.0" encoding="utf-8"?>
<!-- Generator: Adobe Illustrator 16.0.0, SVG Export Plug-In . SVG Version: 6.00 Build 0)  -->
<!DOCTYPE svg PUBLIC "-//W3C//DTD SVG 1.1//EN" "http://www.w3.org/Graphics/SVG/1.1/DTD/svg11.dtd">
<svg version="1.1" id="Layer_1" xmlns="http://www.w3.org/2000/svg" xmlns:xlink="http://www.w3.org/1999/xlink" x="0px" y="0px"
	 width="512px" height="512px" viewBox="0 0 512 512" enable-background="new 0 0 512 512" xml:space="preserve">
<path fill="#5E686C" d="M261.488,508.649c-89.303,0-162.705-92.101-167.107-209.674c-0.13-3.659,2.719-6.734,6.384-6.87
	c3.639-0.279,6.734,2.726,6.876,6.377c4.131,110.413,71.705,196.906,153.847,196.906c82.167,0,149.754-86.493,153.871-196.906
	c0.143-3.651,3.264-6.694,6.877-6.377c3.665,0.136,6.514,3.211,6.385,6.87C424.23,416.549,350.817,508.649,261.488,508.649z"/>
<path fill="#5E686C" d="M437.219,209.763c-2.9,0-5.557-1.91-6.385-4.837c-20.46-72.812-71.38-127.732-132.892-143.318
	c-3.549-0.9-5.698-4.507-4.793-8.062c0.882-3.536,4.481-5.711,8.056-4.798c66.097,16.758,120.655,75.227,142.397,152.59
	c0.985,3.523-1.062,7.188-4.597,8.178C438.409,209.685,437.815,209.763,437.219,209.763z"/>
<path fill="#5E686C" d="M85.801,209.723c-0.596,0-1.198-0.077-1.8-0.246c-3.529-0.991-5.582-4.655-4.59-8.178
	c21.716-77.286,76.224-135.729,142.243-152.519c3.574-0.946,7.148,1.243,8.055,4.792c0.906,3.548-1.244,7.155-4.792,8.055
	c-61.435,15.631-112.302,70.526-132.738,143.259C91.35,207.813,88.695,209.723,85.801,209.723z"/>
<path fill="#5E686C" d="M261.488,57.056c-3.666,0-6.631-2.966-6.631-6.631V10.643c0-3.665,2.965-6.631,6.631-6.631
	c3.665,0,6.631,2.966,6.631,6.631v39.782C268.118,54.09,265.153,57.056,261.488,57.056z"/>
<path fill="#69C299" d="M261.488,351.424c-3.666,0-6.631-2.966-6.631-6.631V203.106c0-3.665,2.965-6.63,6.631-6.63
	c3.665,0,6.631,2.966,6.631,6.63v141.687C268.118,348.458,265.153,351.424,261.488,351.424z"/>
<path fill="#5E686C" d="M261.488,504.233c-3.666,0-6.631-2.966-6.631-6.631V391.516c0-3.665,2.965-6.631,6.631-6.631
	c3.665,0,6.631,2.966,6.631,6.631v106.087C268.118,501.268,265.153,504.233,261.488,504.233z"/>
<path fill="#69C299" d="M261.488,351.424c-0.647,0-1.295-0.091-1.956-0.292L73.9,293.971c-3.503-1.082-5.465-4.793-4.39-8.289
	c1.082-3.483,4.779-5.458,8.288-4.39l185.645,57.161c3.497,1.082,5.465,4.792,4.377,8.289
	C266.952,349.591,264.323,351.424,261.488,351.424z"/>
<path fill="#69C299" d="M261.488,351.424c-2.837,0-5.453-1.826-6.333-4.676c-1.088-3.503,0.88-7.213,4.377-8.295l185.432-57.161
	c3.496-1.062,7.2,0.887,8.288,4.384c1.088,3.502-0.881,7.213-4.378,8.295l-185.431,57.161
	C262.795,351.333,262.135,351.424,261.488,351.424z"/>
<path fill="#69C299" d="M460.412,209.737H62.588c-3.665,0-6.63-2.965-6.63-6.631c0-3.665,2.966-6.63,6.63-6.63h397.825
	c3.665,0,6.631,2.966,6.631,6.63C467.043,206.771,464.077,209.737,460.412,209.737z"/>
<path fill="#69C299" d="M75.842,294.261c-3.211,0-6.028-2.331-6.546-5.601l-13.26-84.524c-0.563-3.62,1.91-7.013,5.523-7.583
	c3.743-0.505,7.013,1.917,7.582,5.523l13.261,84.525c0.563,3.619-1.91,7.012-5.523,7.582
	C76.529,294.235,76.179,294.261,75.842,294.261z"/>
<path fill="#69C299" d="M446.932,294.261c-0.35,0-0.7-0.025-1.062-0.083c-3.612-0.577-6.074-3.977-5.504-7.589l13.494-84.525
	c0.596-3.626,3.925-6.087,7.602-5.504c3.613,0.577,6.074,3.976,5.504,7.589l-13.494,84.524
	C452.941,291.937,450.13,294.261,446.932,294.261z"/>
<path fill="#69C299" d="M395.494,276.04c-3.665,0-6.63-2.965-6.63-6.63v-66.304c0-3.665,2.965-6.63,6.63-6.63s6.63,2.966,6.63,6.63
	v66.304C402.124,273.075,399.159,276.04,395.494,276.04z"/>
<path fill="#69C299" d="M127.791,276.04c-3.665,0-6.631-2.965-6.631-6.63v-66.304c0-3.665,2.966-6.63,6.631-6.63
	s6.63,2.966,6.63,6.63v66.304C134.421,273.075,131.456,276.04,127.791,276.04z"/>
<path fill="#69C299" d="M325.045,302.614c-3.665,0-6.631-2.966-6.631-6.63v-92.827c0-3.665,2.966-6.63,6.631-6.63
	s6.631,2.966,6.631,6.63v92.827C331.676,299.648,328.71,302.614,325.045,302.614z"/>
<path fill="#69C299" d="M199.625,302.614c-3.665,0-6.63-2.966-6.63-6.63v-92.827c0-3.665,2.965-6.63,6.63-6.63s6.63,2.966,6.63,6.63
	v92.827C206.255,299.648,203.29,302.614,199.625,302.614z"/>
<path fill="#5E686C" d="M307.901,17.273h-92.826c-3.665,0-6.631-2.965-6.631-6.63s2.966-6.631,6.631-6.631h92.826
	c3.664,0,6.63,2.966,6.63,6.631S311.565,17.273,307.901,17.273z"/>
<path fill="#5E686C" d="M288.009,125.186h-53.043c-3.665,0-6.63-2.966-6.63-6.63c0-3.665,2.966-6.631,6.63-6.631h53.043
	c3.664,0,6.63,2.966,6.63,6.631C294.639,122.22,291.673,125.186,288.009,125.186z"/>
<path fill="#5E686C" d="M234.953,125.186c-3.134,0-5.918-2.234-6.514-5.426L208.547,11.847c-0.66-3.606,1.723-7.064,5.323-7.725
	c3.626-0.693,7.058,1.716,7.731,5.316l19.892,107.912c0.66,3.606-1.723,7.064-5.323,7.725
	C235.756,125.154,235.354,125.186,234.953,125.186z"/>
<path fill="#5E686C" d="M288.022,125.186c-0.401,0-0.803-0.032-1.218-0.11c-3.6-0.66-5.982-4.118-5.322-7.725L301.373,9.439
	c0.674-3.607,4.04-6.022,7.731-5.316c3.599,0.661,5.982,4.118,5.322,7.725L294.536,119.76
	C293.941,122.952,291.156,125.186,288.022,125.186z"/>
</svg>
