<?xml version="1.0" encoding="utf-8"?>
<!-- Generator: Adobe Illustrator 16.0.0, SVG Export Plug-In . SVG Version: 6.00 Build 0)  -->
<!DOCTYPE svg PUBLIC "-//W3C//DTD SVG 1.1//EN" "http://www.w3.org/Graphics/SVG/1.1/DTD/svg11.dtd">
<svg version="1.1" id="Layer_1" xmlns="http://www.w3.org/2000/svg" xmlns:xlink="http://www.w3.org/1999/xlink" x="0px" y="0px"
	 width="512px" height="512px" viewBox="0 0 512 512" enable-background="new 0 0 512 512" xml:space="preserve">
<path fill="#5E686B" d="M175.527,7.5H14.149c-3.674,0-6.646,2.973-6.646,6.648v161.366c0,3.674,2.973,6.648,6.646,6.648h161.378
	c3.677,0,6.649-2.974,6.648-6.649V14.148C182.175,10.474,179.202,7.5,175.527,7.5z M168.879,168.865H20.797V20.797h148.082V168.865z
	"/>
<path fill="#5E686B" d="M74.893,121.431h39.892c3.675,0,6.646-2.973,6.646-6.648v-39.89c0-3.674-2.973-6.648-6.646-6.648H74.893
	c-3.674,0-6.646,2.973-6.646,6.648v39.89C68.245,118.457,71.218,121.431,74.893,121.431z M81.541,81.541h26.593v26.593H81.541
	V81.541z"/>
<path fill="#5E686B" d="M175.527,330.245H14.149c-3.674,0-6.646,2.973-6.646,6.646v161.365c0,3.674,2.973,6.648,6.646,6.648h161.378
	c3.677,0,6.649-2.975,6.648-6.648V336.893C182.175,333.219,179.202,330.245,175.527,330.245z M168.879,491.609H20.797V343.541
	h148.082V491.609z"/>
<path fill="#5E686B" d="M74.893,444.162h39.892c3.675,0,6.646-2.976,6.646-6.648v-39.891c0-3.673-2.973-6.647-6.646-6.647H74.893
	c-3.674,0-6.646,2.975-6.646,6.647v39.891C68.245,441.188,71.218,444.162,74.893,444.162z M81.541,404.271h26.593v26.594H81.541
	V404.271z"/>
<path fill="#69C299" d="M498.259,7.5H336.906c-3.674,0-6.646,2.973-6.646,6.648v161.366c0,3.674,2.973,6.648,6.646,6.648h161.354
	c3.675,0,6.646-2.974,6.647-6.649V14.148C504.906,10.474,501.934,7.5,498.259,7.5z M491.61,168.865H343.554V20.797H491.61V168.865z"
	/>
<path fill="#69C299" d="M397.622,121.431h39.892c3.675,0,6.646-2.973,6.646-6.648v-39.89c0-3.674-2.973-6.648-6.646-6.648h-39.892
	c-3.672,0-6.646,2.973-6.646,6.648v39.89C390.976,118.457,393.949,121.431,397.622,121.431z M404.272,81.541h26.594v26.593h-26.594
	V81.541z"/>
<path fill="#5E686B" d="M498.257,491.609h-25.632v-41.761c0-0.013-0.003-0.024-0.003-0.039v-32.24c0-3.676-2.974-6.648-6.646-6.648
	s-6.647,2.973-6.647,6.648v25.633h-25.605c-3.674,0-6.648,2.973-6.648,6.646v41.761h-67.393v-57.9c0-3.674-2.973-6.648-6.646-6.648
	h-90.171v-25.617c0-3.676-2.974-6.648-6.646-6.648s-6.648,2.973-6.648,6.648v32.267v0.001v64.548c0,3.674,2.975,6.648,6.648,6.648
	s6.648-2.975,6.646-6.648V440.36h83.521v57.898c0,3.674,2.973,6.648,6.648,6.648h145.225c3.675,0,6.646-2.977,6.646-6.649
	S501.932,491.609,498.257,491.609z M440.368,456.498h18.96v35.111h-18.96V456.498z"/>
<path fill="#5E686B" d="M30.302,217.288c-3.674,0-6.648,2.973-6.648,6.648v32.268c0,3.674,2.975,6.647,6.648,6.647h90.169v25.618
	c0,3.675,2.973,6.648,6.648,6.648c3.675,0,6.646-2.974,6.646-6.646v-25.621H159.4c3.676,0,6.648-2.975,6.648-6.647
	c0-3.674-2.973-6.648-6.648-6.648H127.12l0,0l0,0H36.95v-25.62C36.95,220.261,33.976,217.288,30.302,217.288z"/>
<path fill="#5E686B" d="M498.258,346.372h-57.89v-83.521h57.889c3.674,0,6.646-2.975,6.646-6.647c0-3.674-2.973-6.648-6.646-6.648
	h-25.632v-25.62c0-3.675-2.976-6.648-6.648-6.648s-6.647,2.973-6.647,6.648v25.62h-25.607c-3.674,0-6.648,2.973-6.648,6.648v90.168
	H320.754c-3.674,0-6.648,2.974-6.648,6.646c0,3.676,2.975,6.648,6.648,6.648h112.97h64.536c3.675,0,6.646-2.974,6.646-6.648
	C504.906,349.346,501.933,346.372,498.258,346.372z"/>
<path fill="#5E686B" d="M278.992,304.611v-41.76h67.393v25.618c0,3.675,2.973,6.648,6.648,6.648c3.675,0,6.647-2.974,6.646-6.646
	v-32.27c0-3.674-2.973-6.648-6.646-6.648h-80.689h-25.633v-67.394h25.633c3.675,0,6.648-2.974,6.648-6.648
	c0-3.674-2.975-6.648-6.648-6.648h-25.633v-67.379h41.76c3.674,0,6.648-2.974,6.648-6.648V30.29c0-3.674-2.976-6.648-6.648-6.648
	s-6.647,2.973-6.647,6.648v57.9h-41.761c-3.674,0-6.646,2.973-6.646,6.648v161.366v48.407c0,3.675,2.973,6.647,6.646,6.647h32.281
	C276.019,311.26,278.992,308.286,278.992,304.611z M265.695,297.963h-18.982v-35.111h18.982V297.963z"/>
</svg>
