<?xml version="1.0" encoding="utf-8"?>
<!-- Generator: Adobe Illustrator 16.0.0, SVG Export Plug-In . SVG Version: 6.00 Build 0)  -->
<!DOCTYPE svg PUBLIC "-//W3C//DTD SVG 1.1//EN" "http://www.w3.org/Graphics/SVG/1.1/DTD/svg11.dtd">
<svg version="1.1" id="Layer_1" xmlns="http://www.w3.org/2000/svg" xmlns:xlink="http://www.w3.org/1999/xlink" x="0px" y="0px"
	 width="512px" height="512px" viewBox="0 0 512 512" enable-background="new 0 0 512 512" xml:space="preserve">
<path fill="#69C299" d="M257.762,415.44c-19.188,0-34.79-15.603-34.79-34.79c0-19.188,15.601-34.79,34.79-34.79
	s34.79,15.602,34.79,34.79C292.552,399.838,276.95,415.44,257.762,415.44z M257.762,359.776c-11.51,0-20.874,9.363-20.874,20.874
	s9.364,20.874,20.874,20.874c11.511,0,20.874-9.363,20.874-20.874C278.636,369.141,269.273,359.776,257.762,359.776z"/>
<path fill="#5E686B" d="M257.68,505.486C119.561,505.486,7.188,393.112,7.188,255C7.188,116.881,119.561,4.514,257.68,4.514
	c127.472,0,234.464,95.38,248.869,221.866c0.435,3.819-2.312,7.271-6.129,7.706c-3.807,0.312-7.271-2.311-7.705-6.129
	C479.112,108.51,378.073,18.43,257.68,18.43C127.232,18.43,21.103,124.552,21.103,255S127.232,491.569,257.68,491.569
	c120.405,0,221.445-90.071,235.035-209.513c0.435-3.818,3.928-6.469,7.705-6.129c3.817,0.436,6.562,3.887,6.129,7.705
	C492.156,410.113,385.165,505.486,257.68,505.486z"/>
<path fill="#69C299" d="M259.298,289.641c-3.846,0-6.958-3.111-6.958-6.959v-18.779c0-10.777,3.356-20.453,9.961-28.729
	c5.803-7.257,12.218-14.514,19.053-21.567c6.551-6.836,12.584-14.134,17.911-21.648c4.824-6.795,7.176-14.779,7.176-24.394
	c0-7.141-1.114-14.377-3.33-21.505c-2.146-6.843-5.489-12.924-9.935-18.047c-4.416-5.069-10.438-9.302-17.87-12.55
	c-7.542-3.322-16.797-5-27.519-5c-8.698,0-16.838,1.671-24.19,4.974c-7.42,3.295-13.862,7.943-19.175,13.834
	c-5.422,6.014-9.818,13.353-13.061,21.805c-3.274,8.555-5.055,18.156-5.285,28.538c-0.089,3.785-3.188,6.802-6.958,6.802
	c-0.048,0-0.103,0-0.156,0c-3.839-0.088-6.883-3.275-6.802-7.114c0.271-11.979,2.357-23.157,6.211-33.206
	c3.853-10.057,9.146-18.856,15.723-26.147c6.632-7.345,14.65-13.141,23.823-17.218c9.146-4.098,19.203-6.184,29.871-6.184
	c12.665,0,23.81,2.08,33.104,6.177c9.31,4.07,16.987,9.506,22.79,16.158c5.707,6.598,9.988,14.344,12.72,23.042
	c2.622,8.48,3.955,17.103,3.955,25.644c0,12.428-3.274,23.347-9.744,32.439c-5.708,8.072-12.188,15.9-19.229,23.252
	c-6.562,6.781-12.691,13.698-18.209,20.602c-4.648,5.83-6.918,12.394-6.918,20.044v18.781
	C266.255,286.527,263.144,289.641,259.298,289.641z"/>
</svg>
