<?xml version="1.0" encoding="utf-8"?>
<!-- Generator: Adobe Illustrator 16.0.0, SVG Export Plug-In . SVG Version: 6.00 Build 0)  -->
<!DOCTYPE svg PUBLIC "-//W3C//DTD SVG 1.1//EN" "http://www.w3.org/Graphics/SVG/1.1/DTD/svg11.dtd">
<svg version="1.1" id="Layer_1" xmlns="http://www.w3.org/2000/svg" xmlns:xlink="http://www.w3.org/1999/xlink" x="0px" y="0px"
	 width="512px" height="512px" viewBox="0 0 512 512" enable-background="new 0 0 512 512" xml:space="preserve">
<path fill="#69C299" d="M303.188,365.355c-13.942,0-25.296,11.339-25.296,25.271c0,13.957,11.354,25.321,25.296,25.321
	c13.945,0,25.297-11.364,25.297-25.321C328.485,376.695,317.133,365.355,303.188,365.355z M303.188,403.3
	c-6.978,0-12.646-5.682-12.646-12.673c0-6.967,5.668-12.624,12.646-12.624c6.979,0,12.648,5.657,12.648,12.624
	C315.836,397.618,310.167,403.3,303.188,403.3z"/>
<path fill="#5E686B" d="M385.624,365.355c-13.945,0-25.297,11.339-25.297,25.271c0,13.957,11.352,25.321,25.297,25.321
	c13.944,0,25.296-11.364,25.296-25.321C410.92,376.695,399.569,365.355,385.624,365.355z M385.624,403.3
	c-6.979,0-12.648-5.682-12.648-12.673c0-6.967,5.669-12.624,12.648-12.624c6.979,0,12.647,5.657,12.646,12.624
	C398.272,397.618,392.602,403.3,385.624,403.3z"/>
<path fill="#5E686B" d="M328.485,236.526c0-13.932-11.352-25.271-25.297-25.271c-13.942,0-25.296,11.338-25.296,25.271
	c0,13.964,11.354,25.322,25.296,25.322C317.133,261.848,328.485,250.489,328.485,236.526z M290.541,236.526
	c0-6.96,5.668-12.624,12.646-12.624c6.979,0,12.648,5.663,12.648,12.624c0,6.985-5.669,12.673-12.648,12.673
	C296.21,249.199,290.541,243.511,290.541,236.526z"/>
<path fill="#69C299" d="M410.92,236.526c0-13.932-11.353-25.271-25.296-25.271c-13.945,0-25.297,11.338-25.297,25.271
	c0,13.964,11.352,25.322,25.297,25.322C399.569,261.848,410.92,250.489,410.92,236.526z M372.976,236.526
	c0-6.96,5.669-12.624,12.648-12.624c6.979,0,12.647,5.663,12.646,12.624c0,6.985-5.67,12.673-12.646,12.673
	C378.646,249.199,372.976,243.511,372.976,236.526z"/>
<path fill="#5E686B" d="M303.188,107.746c13.945,0,25.297-11.358,25.297-25.321c0-13.933-11.352-25.272-25.297-25.272
	c-13.942,0-25.296,11.339-25.296,25.272C277.892,96.389,289.244,107.746,303.188,107.746z M303.188,69.801
	c6.979,0,12.648,5.663,12.648,12.624c0,6.985-5.669,12.673-12.648,12.673c-6.978,0-12.646-5.688-12.646-12.673
	C290.541,75.464,296.209,69.801,303.188,69.801z"/>
<path fill="#69C299" d="M385.624,107.746c13.944,0,25.296-11.358,25.296-25.321c0-13.933-11.353-25.272-25.296-25.272
	c-13.945,0-25.297,11.339-25.297,25.272C360.327,96.389,371.679,107.746,385.624,107.746z M385.624,69.801
	c6.979,0,12.647,5.663,12.646,12.624c0,6.985-5.67,12.673-12.646,12.673c-6.979,0-12.648-5.688-12.648-12.673
	C372.976,75.464,378.645,69.801,385.624,69.801z"/>
<path fill="#5E686B" d="M443.652,2.879H68.306c-15.724,0-28.514,11.808-28.514,26.321v414.712c0,14.513,12.79,26.322,28.514,26.322
	h34.729v31.621c0,3.494,2.826,6.322,6.322,6.322h63.241c3.495,0,6.324-2.828,6.324-6.325v-31.618H333.03v31.621
	c0,3.494,2.828,6.322,6.324,6.322h63.241c3.495,0,6.324-2.828,6.324-6.325v-31.618h34.731c15.726,0,28.508-11.81,28.508-26.322V29.2
	C472.159,14.687,459.377,2.879,443.652,2.879z M166.275,495.53h-50.593v-25.296h50.593V495.53z M396.272,495.53h-50.594v-25.296
	h50.594V495.53z M459.512,443.912c0,7.535-7.115,13.674-15.86,13.674H68.306c-8.751,0-15.866-6.139-15.866-13.674V29.2
	c0-7.54,7.115-13.673,15.866-13.673h375.346c8.745,0,15.86,6.132,15.86,13.673V443.912z"/>
<path fill="#5E686B" d="M414.08,156.449H97.87c-3.495,0-6.324,2.829-6.324,6.324s2.828,6.324,6.324,6.324h316.21
	c3.496,0,6.324-2.829,6.324-6.324S417.576,156.449,414.08,156.449z"/>
<path fill="#5E686B" d="M414.08,304.016H97.87c-3.495,0-6.324,2.83-6.324,6.324c0,3.496,2.828,6.324,6.324,6.324h316.21
	c3.496,0,6.324-2.828,6.324-6.324C420.406,306.846,417.576,304.016,414.08,304.016z"/>
</svg>
