<?xml version="1.0" encoding="utf-8"?>
<!-- Generator: Adobe Illustrator 16.0.0, SVG Export Plug-In . SVG Version: 6.00 Build 0)  -->
<!DOCTYPE svg PUBLIC "-//W3C//DTD SVG 1.1//EN" "http://www.w3.org/Graphics/SVG/1.1/DTD/svg11.dtd">
<svg version="1.1" id="Layer_1" xmlns="http://www.w3.org/2000/svg" xmlns:xlink="http://www.w3.org/1999/xlink" x="0px" y="0px"
	 width="512px" height="512px" viewBox="0 0 512 512" enable-background="new 0 0 512 512" xml:space="preserve">
<path fill="#5E686B" d="M433.388,212.873c-1.746,0-3.491-0.667-4.824-1.999c-2.665-2.665-2.665-6.984,0-9.649l62.904-62.904
	l-62.904-62.904c-2.665-2.666-2.665-6.983,0-9.649s6.983-2.666,9.648,0l67.729,67.729c2.667,2.666,2.667,6.983,0,9.648
	l-67.729,67.729C436.879,212.206,435.134,212.873,433.388,212.873z"/>
<path fill="#5E686B" d="M282.205,212.873c-1.32,0-2.652-0.373-3.826-1.173c-3.118-2.106-3.944-6.343-1.826-9.476l45.74-67.729
	c1.266-1.879,3.385-2.999,5.649-2.999h173.174c3.771,0,6.823,3.052,6.823,6.823s-3.052,6.824-6.823,6.824H331.569l-43.713,64.73
	C286.535,211.82,284.391,212.873,282.205,212.873z"/>
<path fill="#5E686B" d="M149.119,409.955H9.824c-3.771,0-6.824-3.052-6.824-6.824c0-3.771,3.052-6.823,6.824-6.823h135.67
	l47.604-70.486c2.12-3.119,6.357-3.932,9.477-1.826c3.117,2.105,3.944,6.344,1.824,9.477l-49.63,73.486
	C153.505,408.835,151.385,409.955,149.119,409.955z"/>
<path fill="#69C299" d="M433.388,478.137c-1.746,0-3.491-0.666-4.824-1.999c-2.665-2.665-2.665-6.982,0-9.648l62.904-62.904
	l-62.904-62.93c-2.665-2.667-2.665-6.984,0-9.649c2.665-2.666,6.983-2.666,9.648,0l67.729,67.755c2.667,2.666,2.667,6.984,0,9.649
	l-67.729,67.729C436.879,477.471,435.134,478.137,433.388,478.137z"/>
<path fill="#69C299" d="M499.97,410.382h-172c-2.266,0-4.385-1.12-5.65-2.999L145.494,145.57H9.824
	c-3.771,0-6.824-3.052-6.824-6.823s3.052-6.824,6.824-6.824h139.295c2.266,0,4.385,1.119,5.65,2.999l176.825,261.812H499.97
	c3.771,0,6.824,3.052,6.824,6.822C506.794,407.328,503.741,410.382,499.97,410.382z"/>
</svg>
