<?xml version="1.0" encoding="utf-8"?>
<!-- Generator: Adobe Illustrator 16.0.0, SVG Export Plug-In . SVG Version: 6.00 Build 0)  -->
<!DOCTYPE svg PUBLIC "-//W3C//DTD SVG 1.1//EN" "http://www.w3.org/Graphics/SVG/1.1/DTD/svg11.dtd">
<svg version="1.1" id="Layer_1" xmlns="http://www.w3.org/2000/svg" xmlns:xlink="http://www.w3.org/1999/xlink" x="0px" y="0px"
	 width="512px" height="512px" viewBox="0 0 512 512" enable-background="new 0 0 512 512" xml:space="preserve">
<path fill="#5E686B" d="M230.649,445.994c-19.266-49.46-63.504-163.77-89.379-230.674c-1.277-3.292-4.444-5.464-7.979-5.464
	c-2.924,0.468-6.776,2.223-8.021,5.581l-16.676,44.915c-4.019,10.83-13.276,22.894-20.152,22.894H14.419
	c-4.729,0-8.556,3.825-8.556,8.555s3.826,8.556,8.556,8.556h74.023c18.64,0,31.823-22.274,36.193-34.054l8.822-23.761
	l41.196,106.457c48.157,124.319,51.517,132.974,57.163,132.974c0.418,0,0.869-0.051,1.337-0.101
	c3.492-0.384,6.399-2.891,7.318-6.299l0.38-3.081L230.649,445.994z"/>
<path fill="#69C299" d="M501.793,283.243l-70.196,0.017c-9.073-0.652-16.793-7.252-19.216-16.426l-58.65-220.623
	c-1.002-3.751-4.395-6.358-8.271-6.358s-7.27,2.607-8.271,6.35l-106.54,399.791c0.005,0.085,10.205,26.497,10.205,26.497
	l104.588-390.82l50.397,189.558c4.294,16.209,18.163,27.905,35.14,29.125h70.814c4.729,0,8.556-3.826,8.556-8.556
	S506.522,283.243,501.793,283.243z"/>
</svg>
