<?xml version="1.0" encoding="utf-8"?>
<!-- Generator: Adobe Illustrator 16.0.0, SVG Export Plug-In . SVG Version: 6.00 Build 0)  -->
<!DOCTYPE svg PUBLIC "-//W3C//DTD SVG 1.1//EN" "http://www.w3.org/Graphics/SVG/1.1/DTD/svg11.dtd">
<svg version="1.1" id="Layer_1" xmlns="http://www.w3.org/2000/svg" xmlns:xlink="http://www.w3.org/1999/xlink" x="0px" y="0px"
	 width="512px" height="512px" viewBox="0 0 512 512" enable-background="new 0 0 512 512" xml:space="preserve">
<path fill="#5E686B" d="M409.877,235.075c-0.746,0-1.887-0.041-3.16-0.339l-78.16-15.625c-3.758-0.746-6.198-4.408-5.446-8.165
	c0.746-3.771,4.361-6.24,8.174-5.453l78.396,15.68c0.142-0.068,0.48-0.204,0.793-0.312c0.095-0.299,0.55-1.384,0.645-1.614
	l15.313-77.184c0.76-3.777,4.584-6.192,8.165-5.446c3.771,0.753,6.212,4.408,5.453,8.172l-15.681,78.39
	c-0.041,0.23-0.107,0.488-0.189,0.732c-0.015,0.054-0.027,0.108-0.04,0.149c-0.082,0.285-0.462,1.261-0.584,1.533
	c-0.488,1.194-0.882,2.062-1.396,2.862c-0.258,0.407-1.086,1.37-1.425,1.723c-0.76,0.841-1.601,1.573-2.562,2.251
	c-0.639,0.583-1.099,0.882-1.912,1.18c-0.252,0.095-0.542,0.19-0.841,0.258C413.981,234.587,411.939,235.075,409.877,235.075z"/>
<path fill="#5E686B" d="M413.343,234.153c-2.408,0-4.748-1.248-6.036-3.5L301.979,46.793c-11.542-19.918-26.13-30.905-41.057-30.905
	c-14.934,0-29.528,10.994-41.091,30.959l-48.559,72.267c-2.136,3.174-6.448,4.028-9.637,1.893c-3.188-2.143-4.028-6.457-1.892-9.637
	l48.312-71.874C221.961,15.454,240.821,2,260.922,2c20.088,0,38.947,13.448,53.095,37.862l105.348,183.902
	c1.899,3.323,0.746,7.568-2.576,9.467C415.702,233.855,414.516,234.153,413.343,234.153z"/>
<path fill="#5E686B" d="M166.296,271.373c-2.753,0-5.365-1.655-6.45-4.368l-31.359-78.398c-0.128-0.068-0.264-0.163-0.399-0.271
	c-0.359-0.054-0.631-0.23-1.059-0.298L49.114,203.73c-3.797,0.772-7.426-1.682-8.172-5.453c-0.752-3.757,1.688-7.419,5.446-8.166
	l78.397-15.679c1.336-0.312,2.591-0.258,3.404-0.19c0.563-0.068,1.072,0,1.655,0.108c1.62,0.177,3.465,0.787,5.133,1.736
	c0.299,0.176,0.651,0.42,0.99,0.692c1.18,0.773,2.225,1.723,3.106,2.821c0.258,0.312,0.922,1.37,1.118,1.723
	c0.347,0.475,1.019,1.668,1.229,2.225l31.325,78.303c1.424,3.555-0.312,7.596-3.872,9.021
	C168.032,271.21,167.157,271.373,166.296,271.373z"/>
<path fill="#5E686B" d="M151.173,454.86H80.629c-26.829-0.027-48.401-10.799-59.191-29.528c-11.44-19.816-9.73-45.574,4.693-70.667
	l99.665-175.715c1.898-3.323,6.131-4.53,9.468-2.604c3.336,1.886,4.51,6.131,2.617,9.468L38.195,361.557
	c-11.916,20.711-13.631,41.409-4.727,56.83c8.253,14.338,25.446,22.557,47.167,22.583h70.537c3.838,0,6.945,3.106,6.945,6.945
	S155.011,454.86,151.173,454.86z"/>
<path fill="#69C299" d="M245.243,455.416c-3.832,0-6.938-3.106-6.945-6.932c-0.007-3.84,3.1-6.959,6.938-6.959l188.154-0.244
	c21.837-0.055,39.076-8.231,47.269-22.461c8.789-15.178,7.026-35.671-4.802-56.221l-32.443-72.998
	c-1.561-3.515,0.026-7.609,3.526-9.17c3.5-1.533,7.608,0.014,9.169,3.526l32.118,72.361c14.038,24.318,15.788,49.859,4.463,69.444
	c-10.742,18.622-32.349,29.353-59.272,29.406l-188.167,0.244h-0.007V455.416z"/>
<path fill="#69C299" d="M294.573,508c-1.775,0-3.554-0.676-4.909-2.032l-46.13-46.157c-3.045-2.17-5.235-6.429-5.235-11.026
	c0-0.19,0.007-0.395,0.027-0.598c0.061-3.799,1.565-7.42,4.278-10.146l47.06-47.065c2.713-2.711,7.106-2.711,9.818,0
	c2.713,2.714,2.713,7.107,0,9.82l-47.038,47.038c0.008,0.258-0.047,0.651-0.129,1.059c0.319,0.299,0.834,0.896,1.038,1.1
	l46.129,46.156c2.713,2.713,2.713,7.107,0,9.82C298.126,507.324,296.351,508,294.573,508z"/>
</svg>
