<?xml version="1.0" encoding="utf-8"?>
<!-- Generator: Adobe Illustrator 16.0.0, SVG Export Plug-In . SVG Version: 6.00 Build 0)  -->
<!DOCTYPE svg PUBLIC "-//W3C//DTD SVG 1.1//EN" "http://www.w3.org/Graphics/SVG/1.1/DTD/svg11.dtd">
<svg version="1.1" id="Layer_1" xmlns="http://www.w3.org/2000/svg" xmlns:xlink="http://www.w3.org/1999/xlink" x="0px" y="0px"
	 width="512px" height="512px" viewBox="0 0 512 512" enable-background="new 0 0 512 512" xml:space="preserve">
<path fill="#69C299" d="M258.738,505.722L258.738,505.722L258.738,505.722c-1.01,0-2.006-0.219-2.936-0.665
	c-0.014-0.006-0.014-0.006-0.014-0.006l0,0c-0.57-0.277-1.116-0.637-1.607-1.082c-11.568-10.174-30.283-34.992-31.518-58.574
	c-2.55-24.081,9.962-43.173,10.493-43.976c2.059-3.12,6.269-3.978,9.403-1.886c3.122,2.064,3.986,6.282,1.926,9.41
	c-0.105,0.158-10.32,15.965-8.274,35.383c0.902,17.093,13.706,35.443,22.526,45.04c8.819-9.584,21.609-27.893,22.5-44.688
	c2.099-19.956-8.143-35.557-8.248-35.715c-2.086-3.121-1.234-7.345,1.886-9.43c3.081-2.08,7.331-1.249,9.43,1.886
	c0.531,0.796,13.057,19.895,10.479,44.329c-1.208,23.229-19.923,48.053-31.491,58.221c-0.491,0.445-1.022,0.805-1.594,1.076
	C260.756,505.496,259.746,505.722,258.738,505.722z"/>
<path fill="#5E686C" d="M312.623,369.821c-0.823,0-1.675-0.152-2.484-0.472c-3.493-1.369-5.22-5.32-3.853-8.813
	c89.761-228.676-28.596-329.254-43.924-341.042h-7.331c-16.297,11.847-134.48,107.876-43.857,339.854
	c1.368,3.499-0.358,7.444-3.865,8.811c-3.48,1.39-7.438-0.356-8.806-3.857c-51.68-132.282-35.477-222.135-12.778-274.22
	c24.825-56.98,61.829-82.016,63.396-83.052c1.116-0.744,2.417-1.136,3.758-1.136h11.715c1.367,0,2.695,0.412,3.825,1.176
	c1.514,1.029,149.795,105.565,50.537,358.434C317.896,368.187,315.331,369.821,312.623,369.821z"/>
<path fill="#5E686C" d="M311.454,406.135H206.021c-13.216,0-24.385-11.166-24.385-24.373c0-13.21,11.169-24.373,24.385-24.373
	h105.433c13.215,0,24.385,11.163,24.385,24.373C335.839,394.969,324.669,406.135,311.454,406.135z M206.021,370.989
	c-5.645,0-10.785,5.133-10.785,10.772c0,5.638,5.141,10.771,10.785,10.771h105.433c5.644,0,10.783-5.134,10.783-10.771
	c0-5.64-5.14-10.772-10.783-10.772H206.021z"/>
<path fill="#69C299" d="M258.738,176.727c-22.5,0-40.803-18.302-40.803-40.802c0-22.5,18.303-40.802,40.803-40.802
	c22.5,0,40.802,18.303,40.802,40.802C299.539,158.424,281.238,176.727,258.738,176.727z M258.738,108.723
	c-14.995,0-27.202,12.199-27.202,27.201s12.207,27.202,27.202,27.202c14.994,0,27.201-12.2,27.201-27.202
	S273.732,108.723,258.738,108.723z"/>
<path fill="#5E686C" d="M118.068,370.989c-1.262,0-2.523-0.346-3.666-1.068c-3.161-2.026-4.09-6.23-2.059-9.391l59.822-93.599
	c2.005-3.182,6.229-4.084,9.39-2.073c3.161,2.027,4.091,6.23,2.06,9.392l-59.822,93.599
	C122.504,369.88,120.299,370.989,118.068,370.989z"/>
<path fill="#5E686C" d="M194.306,370.989h-76.239c-3.759,0-6.8-3.04-6.8-6.8c0-3.758,3.042-6.801,6.8-6.801h76.239
	c3.759,0,6.801,3.043,6.801,6.801C201.107,367.949,198.065,370.989,194.306,370.989z"/>
<path fill="#5E686C" d="M399.859,370.989c-2.231,0-4.409-1.095-5.712-3.113l-60.353-93.599c-2.046-3.156-1.129-7.365,2.032-9.404
	c3.108-2.033,7.345-1.136,9.391,2.033l60.353,93.598c2.046,3.153,1.13,7.363-2.031,9.402
	C402.408,370.637,401.121,370.989,399.859,370.989z"/>
<path fill="#5E686C" d="M399.859,370.989h-76.956c-3.759,0-6.801-3.04-6.801-6.8c0-3.758,3.042-6.801,6.801-6.801h76.956
	c3.759,0,6.8,3.043,6.8,6.801C406.658,367.949,403.617,370.989,399.859,370.989z"/>
</svg>
