<?xml version="1.0" encoding="utf-8"?>
<!-- Generator: Adobe Illustrator 16.0.0, SVG Export Plug-In . SVG Version: 6.00 Build 0)  -->
<!DOCTYPE svg PUBLIC "-//W3C//DTD SVG 1.1//EN" "http://www.w3.org/Graphics/SVG/1.1/DTD/svg11.dtd">
<svg version="1.1" id="Layer_1" xmlns="http://www.w3.org/2000/svg" xmlns:xlink="http://www.w3.org/1999/xlink" x="0px" y="0px"
	 width="512px" height="512px" viewBox="0 0 512 512" enable-background="new 0 0 512 512" xml:space="preserve">
<path fill="#5E686B" d="M255.911,505.676c-122.023,0-221.302-99.276-221.302-221.301c0-122.023,99.278-221.301,221.302-221.301
	c3.721,0,6.73,3.011,6.73,6.731c0,3.721-3.011,6.732-6.73,6.732c-114.602,0-207.837,93.236-207.837,207.837
	c0,114.607,93.235,207.838,207.837,207.838c114.595,0,207.824-93.229,207.824-207.838c0-3.722,3.01-6.731,6.731-6.731
	c3.721,0,6.73,3.012,6.73,6.731C477.198,406.398,377.935,505.676,255.911,505.676z"/>
<path fill="#69C299" d="M255.911,133c-1.229,0-2.458-0.335-3.537-1.006c-1.985-1.229-3.195-3.392-3.195-5.726V13.337
	c0-2.334,1.21-4.503,3.195-5.726c1.979-1.236,4.458-1.328,6.547-0.295l112.925,56.469c2.274,1.144,3.722,3.471,3.722,6.021
	c0,2.551-1.446,4.878-3.722,6.022L258.922,132.29C257.969,132.763,256.944,133,255.911,133z M262.643,24.229v91.146l91.141-45.57
	L262.643,24.229z"/>
</svg>
