<?xml version="1.0" encoding="utf-8"?>
<!-- Generator: Adobe Illustrator 16.0.0, SVG Export Plug-In . SVG Version: 6.00 Build 0)  -->
<!DOCTYPE svg PUBLIC "-//W3C//DTD SVG 1.1//EN" "http://www.w3.org/Graphics/SVG/1.1/DTD/svg11.dtd">
<svg version="1.1" id="Layer_1" xmlns="http://www.w3.org/2000/svg" xmlns:xlink="http://www.w3.org/1999/xlink" x="0px" y="0px"
	 width="512px" height="512px" viewBox="0 0 512 512" enable-background="new 0 0 512 512" xml:space="preserve">
<path fill="#69C299" d="M462.13,193.051c-1.745,0-3.49-0.666-4.823-1.999L283.666,17.412c-2.664-2.665-2.664-6.981,0-9.646
	c2.665-2.664,6.979-2.664,9.646,0l173.641,173.641c2.665,2.665,2.665,6.981,0,9.645C465.619,192.385,463.875,193.051,462.13,193.051
	z"/>
<path fill="#69C299" d="M462.13,193.051h-87.74c-3.77,0-6.82-3.051-6.82-6.821c0-3.771,3.052-6.821,6.82-6.821h80.919V98.491
	c0-3.77,3.051-6.821,6.821-6.821c3.77,0,6.819,3.051,6.819,6.821v87.74C468.949,190,465.9,193.051,462.13,193.051z"/>
<path fill="#5E686B" d="M493.064,508H15.605c-3.77,0-6.82-3.051-6.82-6.821c0-3.77,3.051-6.819,6.82-6.819h477.459
	c3.771,0,6.821,3.051,6.821,6.819C499.885,504.949,496.834,508,493.064,508z"/>
<path fill="#5E686B" d="M104.464,433.849c-3.771,0-6.821-3.051-6.821-6.819V17.772c0-3.77,3.051-6.821,6.821-6.821
	c3.77,0,6.821,3.051,6.821,6.821v409.256C111.284,430.798,108.234,433.849,104.464,433.849z"/>
<path fill="#5E686B" d="M259.366,433.849c-3.771,0-6.82-3.051-6.82-6.819V181.474c0-3.77,3.051-6.821,6.82-6.821
	c3.771,0,6.82,3.051,6.82,6.821v245.554C266.188,430.798,263.137,433.849,259.366,433.849z"/>
<path fill="#5E686B" d="M414.277,433.849c-3.771,0-6.821-3.051-6.821-6.819v-136.42c0-3.771,3.052-6.821,6.821-6.821
	c3.771,0,6.821,3.051,6.821,6.821v136.419C421.098,430.798,418.047,433.849,414.277,433.849z"/>
</svg>
