<?xml version="1.0" encoding="utf-8"?>
<!-- Generator: Adobe Illustrator 16.0.0, SVG Export Plug-In . SVG Version: 6.00 Build 0)  -->
<!DOCTYPE svg PUBLIC "-//W3C//DTD SVG 1.1//EN" "http://www.w3.org/Graphics/SVG/1.1/DTD/svg11.dtd">
<svg version="1.1" id="Layer_1" xmlns="http://www.w3.org/2000/svg" xmlns:xlink="http://www.w3.org/1999/xlink" x="0px" y="0px"
	 width="512px" height="512px" viewBox="0 0 512 512" enable-background="new 0 0 512 512" xml:space="preserve">
<path fill="#69C299" d="M85.771,194.464c-3.552,0-6.426-2.874-6.426-6.426v-67.879H11.466c-3.553,0-6.427-2.875-6.427-6.426
	c0-3.552,2.874-6.427,6.427-6.427h74.305c3.552,0,6.427,2.875,6.427,6.427v74.305C92.198,191.59,89.323,194.464,85.771,194.464z"/>
<path fill="#5E686B" d="M500.073,415.083h-74.306c-3.552,0-6.426-2.874-6.426-6.426v-74.307c0-3.553,2.874-6.427,6.426-6.427
	c3.553,0,6.427,2.874,6.427,6.427v67.88h67.879c3.554,0,6.428,2.873,6.428,6.427C506.5,412.209,503.626,415.083,500.073,415.083z"/>
<path fill="#69C299" d="M255.794,492.827C127.969,492.827,23.973,388.826,23.973,261c0-55.642,20.007-109.438,56.338-151.485
	c2.334-2.679,6.376-2.968,9.068-0.659c2.68,2.322,2.98,6.382,0.659,9.068C55.722,157.631,36.826,208.446,36.826,261
	c0,120.746,98.229,218.976,218.968,218.976c41.897,0,82.603-11.85,117.697-34.277c2.975-1.884,6.966-1.056,8.873,1.958
	c1.921,2.999,1.042,6.966-1.945,8.886C343.241,480.276,300.152,492.827,255.794,492.827z"/>
<path fill="#5E686B" d="M426.119,415.083c-1.493,0-3-0.514-4.218-1.568c-2.674-2.335-2.962-6.389-0.64-9.074
	c34.505-39.765,53.508-90.699,53.508-143.44c0-120.746-98.229-218.975-218.976-218.975c-41.633,0-82.145,11.736-117.131,33.946
	c-2.993,1.901-6.979,1.016-8.874-1.984c-1.901-2.999-1.011-6.972,1.983-8.874c37.053-23.509,79.941-35.941,124.021-35.941
	c127.826,0,231.827,103.996,231.827,231.828c0,55.829-20.119,109.764-56.645,151.874
	C429.698,414.33,427.913,415.083,426.119,415.083z"/>
</svg>
