<?xml version="1.0" encoding="utf-8"?>
<!-- Generator: Adobe Illustrator 16.0.0, SVG Export Plug-In . SVG Version: 6.00 Build 0)  -->
<!DOCTYPE svg PUBLIC "-//W3C//DTD SVG 1.1//EN" "http://www.w3.org/Graphics/SVG/1.1/DTD/svg11.dtd">
<svg version="1.1" id="Layer_1" xmlns="http://www.w3.org/2000/svg" xmlns:xlink="http://www.w3.org/1999/xlink" x="0px" y="0px"
	 width="512px" height="512px" viewBox="0 0 512 512" enable-background="new 0 0 512 512" xml:space="preserve">
<path fill="#5E686B" d="M375.225,443.503c-87.271,55.43-203.762,42.507-276.982-30.722C17.339,331.893,10.437,205.24,81.414,116.354
	v62.307c0,3.658,2.96,6.617,6.615,6.617c3.658,0,6.617-2.959,6.617-6.617V102.15c0-3.658-2.959-6.617-6.617-6.617H11.52
	c-3.658,0-6.617,2.959-6.617,6.617c0,3.657,2.959,6.617,6.617,6.617h59.007C-4.103,202.896,3.38,336.654,88.884,422.138
	c45.325,45.338,106.294,68.849,167.604,68.849c43.607,0,87.401-11.903,125.831-36.317c3.083-1.95,4-6.048,2.035-9.137
	C382.398,442.468,378.308,441.551,375.225,443.503z"/>
<path fill="#5E686B" d="M501.185,401.577h-59.016c74.671-94.119,67.181-227.893-18.352-313.398
	c-77.551-77.577-200.971-91.244-293.43-32.491c-3.089,1.958-4,6.048-2.035,9.131c1.951,3.077,6.042,3.994,9.131,2.036
	c87.266-55.47,203.749-42.566,276.979,30.682c80.932,80.906,87.837,207.572,16.825,296.447v-62.304c0-3.655-2.959-6.615-6.615-6.615
	c-3.657,0-6.616,2.96-6.616,6.615v76.514c0,3.655,2.959,6.615,6.616,6.615h76.512c3.656,0,6.616-2.96,6.616-6.615
	C507.801,404.536,504.841,401.577,501.185,401.577z"/>
<path fill="#69C299" d="M397.622,200.08c-0.002-0.08,0.003-0.16-0.002-0.24c-0.006-0.137-0.022-0.273-0.039-0.41
	c-0.008-0.074-0.012-0.148-0.021-0.222c-0.02-0.133-0.049-0.264-0.076-0.396c-0.017-0.077-0.027-0.155-0.046-0.231
	c-0.03-0.124-0.071-0.245-0.109-0.367c-0.024-0.083-0.046-0.167-0.074-0.25c-0.04-0.113-0.091-0.224-0.138-0.335
	c-0.036-0.088-0.066-0.177-0.107-0.264c-0.056-0.116-0.119-0.228-0.181-0.341c-0.043-0.078-0.08-0.158-0.126-0.235
	c-0.085-0.144-0.182-0.282-0.278-0.42c-0.029-0.042-0.055-0.086-0.085-0.128c-0.139-0.187-0.286-0.369-0.446-0.544l-19.852-21.661
	c-1.223-1.332-2.94-2.107-4.749-2.146c-2.029-0.129-3.557,0.672-4.834,1.965l-12.978,13.104c-3.949,3.994-9.188,6.191-14.76,6.191
	h-0.007c-5.576,0-10.83-2.197-14.784-6.204c-8.195-8.258-8.188-21.706,0-29.978l12.987-13.092c2.553-2.572,2.56-6.727,0.014-9.312
	l-19.593-19.838c-0.023-0.024-0.05-0.043-0.074-0.067c-0.003-0.004-0.006-0.008-0.01-0.011c-0.024-0.023-0.051-0.043-0.074-0.066
	c-0.131-0.123-0.263-0.244-0.4-0.354c-0.075-0.062-0.154-0.115-0.231-0.173c-0.097-0.07-0.191-0.144-0.291-0.208
	c-0.104-0.067-0.208-0.126-0.313-0.188c-0.082-0.047-0.16-0.097-0.243-0.141c-0.111-0.058-0.227-0.108-0.34-0.159
	c-0.084-0.038-0.167-0.079-0.252-0.113c-0.103-0.042-0.207-0.075-0.311-0.111c-0.104-0.035-0.204-0.073-0.307-0.103
	c-0.081-0.023-0.162-0.041-0.244-0.061c-0.131-0.033-0.262-0.066-0.395-0.091c-0.051-0.01-0.103-0.015-0.152-0.023
	c-0.165-0.027-0.33-0.051-0.496-0.065c-0.018-0.001-0.033-0.001-0.051-0.003c-1.851-0.149-3.751,0.471-5.179,1.88
	c-0.023,0.024-0.045,0.051-0.068,0.076c-0.003,0.002-0.006,0.005-0.009,0.007l-23.128,23.632
	c-20.548,20.735-23.506,52.586-8.905,76.534l-148.078,108.12c-16.894,16.996-16.898,44.692-0.008,61.726
	c8.188,8.271,19.083,12.821,30.67,12.821h0.008c11.586,0,22.475-4.55,31.334-13.623l106.39-148.558
	c9.609,5.967,20.683,9.169,32.247,9.169c0.006,0,0.013,0,0.021,0.001c16.479-0.013,31.969-6.488,43.367-18.016l23.651-21.493
	c1.02-0.927,1.682-2.101,1.979-3.348c0.016-0.06,0.022-0.121,0.035-0.182c0.03-0.145,0.062-0.29,0.083-0.436
	c0.015-0.108,0.021-0.217,0.03-0.326c0.01-0.101,0.022-0.2,0.027-0.301C397.629,200.341,397.623,200.21,397.622,200.08z
	 M179.701,375.456c-5.675,5.726-13.223,8.892-21.247,8.892c-0.008,0-0.008,0-0.008,0c-8.03,0-15.586-3.152-21.271-8.892
	c-11.787-11.903-11.793-31.224-0.801-42.404l147.552-107.636c0.283,0.297,0.554,0.603,0.844,0.895
	c0.319,0.323,0.652,0.626,0.979,0.94L179.701,375.456z M362.658,217.007c-9.146,9.24-21.294,14.32-34.219,14.333
	c-0.007,0-0.007,0-0.013,0c-10.752,0-20.97-3.532-29.378-10.03c-0.182-0.163-0.372-0.319-0.576-0.464
	c-0.023-0.018-0.051-0.032-0.075-0.049c-1.469-1.175-2.887-2.432-4.232-3.79c-1.313-1.326-2.525-2.714-3.657-4.147
	c-0.064-0.1-0.124-0.202-0.195-0.299c-0.146-0.202-0.307-0.391-0.472-0.571c-14.467-19.198-13.031-46.774,4.355-64.321
	l18.449-18.852l10.263,10.386l-8.384,8.446c-13.277,13.415-13.277,35.225,0,48.614c6.457,6.527,15.044,10.119,24.188,10.119
	c0,0,0.007,0,0.014,0c9.131,0,17.719-3.592,24.161-10.119l8.085-8.168l10.671,11.645L362.658,217.007z"/>
<path fill="#69C299" d="M167.902,346.985h-18.363c-3.658,0-6.618,2.959-6.618,6.615c0,3.657,2.96,6.617,6.618,6.617h18.363
	c3.658,0,6.618-2.96,6.618-6.617C174.52,349.944,171.56,346.985,167.902,346.985z"/>
</svg>
