<?xml version="1.0" encoding="utf-8"?>
<!-- Generator: Adobe Illustrator 16.0.0, SVG Export Plug-In . SVG Version: 6.00 Build 0)  -->
<!DOCTYPE svg PUBLIC "-//W3C//DTD SVG 1.1//EN" "http://www.w3.org/Graphics/SVG/1.1/DTD/svg11.dtd">
<svg version="1.1" id="Layer_1" xmlns="http://www.w3.org/2000/svg" xmlns:xlink="http://www.w3.org/1999/xlink" x="0px" y="0px"
	 width="512px" height="512px" viewBox="0 0 512 512" enable-background="new 0 0 512 512" xml:space="preserve">
<path fill="#5E686B" d="M99.933,327.893c-2.346,0-4.519-1.205-5.751-3.193c-1.246-1.987-1.378-4.479-0.344-6.573l43.639-89
	c1.141-2.333,3.512-3.803,6.096-3.803h223.23c2.57,0,4.916,1.444,6.068,3.75l44.5,88.841c1.048,2.094,0.94,4.599-0.292,6.6
	c-1.244,2.001-3.419,3.222-5.776,3.222L99.933,327.893L99.933,327.893z M147.799,238.892l-36.986,75.431l289.503-0.159
	l-37.702-75.271L147.799,238.892L147.799,238.892z"/>
<path fill="#69C299" d="M322.726,149.918H187.781c-2.371,0-4.559-1.232-5.79-3.26c-1.232-2.021-1.325-4.539-0.238-6.639
	l68.22-131.884c1.166-2.26,3.498-3.671,6.029-3.671c0.014,0,0.026,0,0.026,0c2.558,0.013,4.876,1.451,6.029,3.724l66.724,131.884
	c1.061,2.101,0.954,4.605-0.277,6.613C327.271,148.692,325.084,149.918,322.726,149.918z M198.925,136.348h112.762L255.935,26.144
	L198.925,136.348z"/>
<path fill="#5E686B" d="M500.766,507.536H11.238c-2.346,0-4.52-1.206-5.752-3.193c-1.244-1.987-1.378-4.479-0.344-6.573
	l44.435-90.644c1.14-2.333,3.512-3.804,6.096-3.804h399.68c2.571,0,4.917,1.443,6.07,3.75l45.414,90.645
	c1.047,2.094,0.94,4.599-0.291,6.601C505.298,506.317,503.123,507.536,500.766,507.536z M22.117,493.966H489.78l-38.617-77.073
	H59.899L22.117,493.966z"/>
</svg>
