<?xml version="1.0" encoding="utf-8"?>
<!-- Generator: Adobe Illustrator 16.0.0, SVG Export Plug-In . SVG Version: 6.00 Build 0)  -->
<!DOCTYPE svg PUBLIC "-//W3C//DTD SVG 1.1//EN" "http://www.w3.org/Graphics/SVG/1.1/DTD/svg11.dtd">
<svg version="1.1" id="Layer_1" xmlns="http://www.w3.org/2000/svg" xmlns:xlink="http://www.w3.org/1999/xlink" x="0px" y="0px"
	 width="512px" height="512px" viewBox="0 0 512 512" enable-background="new 0 0 512 512" xml:space="preserve">
<path fill="#5E686B" d="M203.204,135.47h26.685c3.688,0,6.67-2.983,6.669-6.67c0-3.686-2.98-6.669-6.669-6.669h-26.685
	c-3.688,0-6.67,2.982-6.67,6.669S199.517,135.47,203.204,135.47z"/>
<path fill="#5E686B" d="M283.116,135.47h26.679c3.687,0,6.67-2.983,6.67-6.67c0-3.686-2.983-6.669-6.67-6.669h-26.68
	c-3.688,0-6.671,2.982-6.671,6.669S279.429,135.47,283.116,135.47z"/>
<path fill="#5E686B" d="M256.49,229.771c62.517,0,113.387-50.864,113.387-113.385c0-34.034-15.077-64.61-38.898-85.411
	c-0.723-1.119-1.75-1.981-2.954-2.491C308.495,12.563,283.588,3.002,256.49,3.002c-62.515,0-113.377,50.864-113.377,113.385
	S193.975,229.771,256.49,229.771z M256.49,16.341c19.471,0,37.653,5.595,53.039,15.253L170.722,64.941
	C188.237,35.845,220.127,16.341,256.49,16.341z M163.115,80.492l160.209-38.486c20.375,18.327,33.211,44.88,33.211,74.38
	c0,55.168-44.877,100.045-100.047,100.045c-55.159,0-100.036-44.877-100.036-100.045C156.452,103.741,158.816,91.639,163.115,80.492
	z"/>
<path fill="#5E686B" d="M126.451,354.149c0.245,0,0.493-0.015,0.741-0.039h259.354c3.687,0,6.67-2.983,6.67-6.67v-47.327
	c0-29.779-24.23-54.008-54.009-54.008H173.777c-29.771,0-53.996,24.23-53.996,54.008v47.403
	C119.781,351.205,122.764,354.149,126.451,354.149z M133.121,300.115c0-22.42,18.235-40.67,40.654-40.67h76.044v46.688
	c0,3.688,2.982,6.669,6.669,6.669c3.688,0,6.671-2.981,6.672-6.669v-46.688h76.049c22.419,0,40.669,18.25,40.669,40.67v40.656
	H133.121V300.115z"/>
<path fill="#69C299" d="M127.728,381.244l-79.093,79.1c-3.972-2.348-8.599-3.701-13.54-3.701c-14.714,0-26.679,11.959-26.679,26.666
	C8.416,498.029,20.382,510,35.095,510c14.714,0,26.679-11.972,26.679-26.691c0-4.938-1.354-9.565-3.705-13.536l79.092-79.097
	c2.604-2.604,2.604-6.827,0-9.432C134.554,378.639,130.333,378.639,127.728,381.244z M35.095,496.661
	c-7.354,0-13.339-5.993-13.339-13.354c0-7.347,5.985-13.324,13.339-13.324c7.353,0,13.339,5.979,13.339,13.324
	C48.434,490.669,42.449,496.661,35.095,496.661z"/>
<path fill="#69C299" d="M476.664,456.643c-5.055,0-9.786,1.375-13.84,3.761l-80.821-79.209c-2.62-2.567-6.84-2.528-9.434,0.104
	c-2.578,2.631-2.526,6.854,0.104,9.432l80.671,79.062c-2.378,3.967-3.749,8.587-3.749,13.52c0,14.721,12.141,26.691,27.067,26.691
	c14.943,0,27.098-11.972,27.098-26.691C503.762,468.602,491.608,456.643,476.664,456.643z M476.664,496.661
	c-7.566,0-13.729-5.993-13.729-13.354c0-7.347,6.161-13.324,13.729-13.324c7.582,0,13.759,5.979,13.759,13.324
	C490.423,490.669,484.246,496.661,476.664,496.661z"/>
<path fill="#69C299" d="M263.16,457.561v-74.506c0-3.687-2.983-6.669-6.672-6.669c-3.687,0-6.669,2.982-6.669,6.669v74.371
	c-11.623,2.876-20.27,13.385-20.27,25.883c0,14.721,11.971,26.691,26.679,26.691c14.707,0,26.68-11.972,26.681-26.691
	C282.909,470.998,274.519,460.619,263.16,457.561z M256.23,496.661c-7.359,0-13.34-5.993-13.34-13.354
	c0-7.347,5.98-13.324,13.34-13.324c7.36,0,13.339,5.979,13.339,13.324C269.569,490.669,263.589,496.661,256.23,496.661z"/>
</svg>
