<?xml version="1.0" encoding="utf-8"?>
<!-- Generator: Adobe Illustrator 16.0.0, SVG Export Plug-In . SVG Version: 6.00 Build 0)  -->
<!DOCTYPE svg PUBLIC "-//W3C//DTD SVG 1.1//EN" "http://www.w3.org/Graphics/SVG/1.1/DTD/svg11.dtd">
<svg version="1.1" id="Layer_1" xmlns="http://www.w3.org/2000/svg" xmlns:xlink="http://www.w3.org/1999/xlink" x="0px" y="0px"
	 width="512px" height="512px" viewBox="0 0 512 512" enable-background="new 0 0 512 512" xml:space="preserve">
<path fill="#5E686B" d="M500.776,507.646H11.94c-3.859,0-6.982-3.124-6.982-6.983V11.813c0-3.86,3.124-6.983,6.982-6.983h488.836
	c3.86,0,6.984,3.124,6.984,6.983v488.85C507.76,504.522,504.636,507.646,500.776,507.646z M18.923,493.68h474.868V18.797H18.923
	V493.68z"/>
<path fill="#69C299" d="M415.582,204.554c-3.859,0-6.982-3.124-6.982-6.983v-93.575h-93.566c-3.86,0-6.983-3.123-6.983-6.983
	c0-3.86,3.123-6.983,6.983-6.983h100.551c3.859,0,6.982,3.124,6.982,6.983v100.558C422.567,201.431,419.444,204.554,415.582,204.554
	z"/>
<path fill="#5E686B" d="M197.698,422.439H97.14c-3.86,0-6.984-3.123-6.984-6.983V314.892c0-3.859,3.124-6.982,6.984-6.982
	s6.983,3.123,6.983,6.982v93.581h93.573c3.86,0,6.983,3.124,6.983,6.983C204.681,419.316,201.557,422.439,197.698,422.439z"/>
<path fill="#69C299" d="M302.824,216.755c-1.787,0-3.573-0.682-4.938-2.046c-2.728-2.728-2.728-7.147,0-9.875L409.621,93.098
	c2.729-2.728,7.147-2.728,9.875,0c2.729,2.728,2.729,7.147,0,9.875L307.762,214.709
	C306.399,216.073,304.612,216.755,302.824,216.755z"/>
<path fill="#5E686B" d="M98.927,420.653c-1.787,0-3.574-0.684-4.938-2.046c-2.728-2.729-2.728-7.147,0-9.875l111.735-111.736
	c2.729-2.729,7.147-2.729,9.875,0c2.729,2.729,2.729,7.146,0,9.875L103.864,418.607C102.5,419.971,100.713,420.653,98.927,420.653z"
	/>
</svg>
