<?xml version="1.0" encoding="utf-8"?>
<!-- Generator: Adobe Illustrator 16.0.0, SVG Export Plug-In . SVG Version: 6.00 Build 0)  -->
<!DOCTYPE svg PUBLIC "-//W3C//DTD SVG 1.1//EN" "http://www.w3.org/Graphics/SVG/1.1/DTD/svg11.dtd">
<svg version="1.1" id="Layer_1" xmlns="http://www.w3.org/2000/svg" xmlns:xlink="http://www.w3.org/1999/xlink" x="0px" y="0px"
	 width="512px" height="512px" viewBox="0 0 512 512" enable-background="new 0 0 512 512" xml:space="preserve">
<path fill="#5E686B" d="M257.848,509.553c-138.127,0-250.506-112.38-250.506-250.5c0-138.127,112.379-250.5,250.506-250.5
	c125.767,0,232.574,93.931,248.462,218.494c0.489,3.819-2.216,7.298-6.021,7.788c-3.792,0.476-7.299-2.215-7.786-6.021
	C477.511,111.175,376.629,22.469,257.848,22.469c-130.455,0-236.59,106.128-236.59,236.583
	c0,130.455,106.135,236.583,236.59,236.583c122.057,0,223.251-91.464,235.4-212.759c0.381-3.819,3.859-6.659,7.61-6.226
	c3.819,0.382,6.619,3.793,6.226,7.61C494.228,412.693,387.08,509.553,257.848,509.553z"/>
<path fill="#69C299" d="M188.72,404.227c-1.78,0-3.561-0.68-4.919-2.039c-2.718-2.718-2.718-7.12,0-9.839l133.302-133.296
	L183.801,125.757c-2.718-2.718-2.718-7.122,0-9.84s7.121-2.718,9.839,0l138.222,138.215c1.306,1.305,2.039,3.071,2.039,4.92
	s-0.733,3.615-2.039,4.921L193.64,402.188C192.281,403.547,190.5,404.227,188.72,404.227z"/>
</svg>
