<?xml version="1.0" encoding="utf-8"?>
<!-- Generator: Adobe Illustrator 16.0.0, SVG Export Plug-In . SVG Version: 6.00 Build 0)  -->
<!DOCTYPE svg PUBLIC "-//W3C//DTD SVG 1.1//EN" "http://www.w3.org/Graphics/SVG/1.1/DTD/svg11.dtd">
<svg version="1.1" id="Layer_1" xmlns="http://www.w3.org/2000/svg" xmlns:xlink="http://www.w3.org/1999/xlink" x="0px" y="0px"
	 width="512px" height="512px" viewBox="0 0 512 512" enable-background="new 0 0 512 512" xml:space="preserve">
<path fill="#69C299" d="M255.672,148.506c-3.741,0-6.768-3.027-6.768-6.768V87.595c0-3.741,3.027-6.768,6.768-6.768
	s6.768,3.027,6.768,6.768v54.143C262.44,145.479,259.412,148.506,255.672,148.506z"/>
<path fill="#5E686C" d="M424.254,487.606H85.86c-3.741,0-6.768-3.027-6.768-6.768V142.452c0-3.741,3.027-6.768,6.768-6.768h338.394
	c3.74,0,6.768,3.027,6.768,6.768v338.387C431.022,484.579,427.994,487.606,424.254,487.606z M92.628,474.07h324.857V149.22H92.628
	V474.07z"/>
<path fill="#5E686C" d="M85.86,355.686H11.315c-3.741,0-6.768-3.026-6.768-6.768v-74.553c0-3.74,3.027-6.768,6.768-6.768H85.86
	c3.741,0,6.768,3.027,6.768,6.768c0,3.741-3.027,6.769-6.768,6.769H18.082v61.017H85.86c3.741,0,6.768,3.026,6.768,6.768
	S89.601,355.686,85.86,355.686z"/>
<path fill="#5E686C" d="M498.793,355.686h-74.539c-3.741,0-6.769-3.026-6.769-6.768s3.027-6.768,6.769-6.768h67.771v-61.017h-67.771
	c-3.741,0-6.769-3.027-6.769-6.769c0-3.74,3.027-6.768,6.769-6.768h74.539c3.74,0,6.768,3.027,6.768,6.768v74.553
	C505.561,352.659,502.533,355.686,498.793,355.686z"/>
<path fill="#5E686C" d="M345.128,487.606c-3.741,0-6.769-3.027-6.769-6.768V398.17H172.99v82.669c0,3.74-3.027,6.768-6.768,6.768
	c-3.741,0-6.768-3.027-6.768-6.768v-89.437c0-3.741,3.027-6.768,6.768-6.768h178.906c3.74,0,6.768,3.026,6.768,6.768v89.437
	C351.896,484.579,348.868,487.606,345.128,487.606z"/>
<path fill="#69C299" d="M255.672,94.363c-19.14,0-34.712-15.572-34.712-34.712s15.572-34.712,34.712-34.712
	c19.147,0,34.718,15.572,34.718,34.712S274.819,94.363,255.672,94.363z M255.672,38.475c-11.678,0-21.176,9.498-21.176,21.176
	c0,11.679,9.498,21.176,21.176,21.176s21.182-9.498,21.182-21.176C276.854,47.973,267.35,38.475,255.672,38.475z"/>
<path fill="#69C299" d="M188.581,303.394c-19.141,0-34.712-15.571-34.712-34.712c0-19.147,15.571-34.718,34.712-34.718
	c19.14,0,34.712,15.571,34.712,34.718C223.293,287.822,207.721,303.394,188.581,303.394z M188.581,247.499
	c-11.679,0-21.176,9.504-21.176,21.183c0,11.672,9.498,21.176,21.176,21.176s21.176-9.504,21.176-21.176
	C209.757,257.003,200.26,247.499,188.581,247.499z"/>
<path fill="#69C299" d="M315.875,303.394c-19.141,0-34.712-15.571-34.712-34.712c0-19.147,15.571-34.718,34.712-34.718
	s34.712,15.571,34.712,34.718C350.587,287.822,335.016,303.394,315.875,303.394z M315.875,247.499
	c-11.679,0-21.176,9.504-21.176,21.183c0,11.672,9.497,21.176,21.176,21.176s21.176-9.504,21.176-21.176
	C337.051,257.003,327.554,247.499,315.875,247.499z"/>
</svg>
