<?xml version="1.0" encoding="utf-8"?>
<!-- Generator: Adobe Illustrator 16.0.0, SVG Export Plug-In . SVG Version: 6.00 Build 0)  -->
<!DOCTYPE svg PUBLIC "-//W3C//DTD SVG 1.1//EN" "http://www.w3.org/Graphics/SVG/1.1/DTD/svg11.dtd">
<svg version="1.1" id="Layer_1" xmlns="http://www.w3.org/2000/svg" xmlns:xlink="http://www.w3.org/1999/xlink" x="0px" y="0px"
	 width="512px" height="512px" viewBox="0 0 512 512" enable-background="new 0 0 512 512" xml:space="preserve">
<path fill="#5E686B" d="M244.429,471.301c-123.426,0-223.844-100.404-223.844-223.832c0-61.876,22.694-116.618,65.639-158.323
	c2.647-2.569,6.874-2.511,9.443,0.144c2.569,2.642,2.504,6.874-0.144,9.443c-40.29,39.123-61.583,90.558-61.583,148.736
	c0,116.058,94.426,210.476,210.488,210.476c55.413,0,107.729-21.353,147.302-60.143c2.635-2.568,6.86-2.543,9.442,0.104
	c2.583,2.635,2.529,6.859-0.104,9.442C358.992,448.593,303.363,471.301,244.429,471.301z"/>
<path fill="#5E686B" d="M397.965,407.677c-1.709,0-3.418-0.651-4.722-1.956L86.152,98.662c-2.608-2.608-2.608-6.834,0-9.443
	c2.608-2.609,6.834-2.609,9.443,0l307.091,307.06c2.609,2.607,2.609,6.834,0,9.442C401.382,407.024,399.673,407.677,397.965,407.677
	z"/>
<path fill="#69C399" d="M418.076,206.358c-3.69,0-6.679-2.987-6.679-6.678c0-31.682-12.325-61.445-34.72-83.827
	c-22.369-22.375-52.134-34.708-83.814-34.721c-3.69,0-6.679-2.993-6.679-6.678c0-3.691,2.987-6.678,6.679-6.678l0,0
	c35.256,0.013,68.371,13.734,93.258,38.633c24.911,24.899,38.634,58.022,38.634,93.271
	C424.755,203.371,421.768,206.358,418.076,206.358z"/>
<path fill="#69C399" d="M483.031,196.302L483.031,196.302c-3.69,0-6.678-2.994-6.678-6.685
	c0.025-45.181-17.582-87.675-49.564-119.65c-31.954-31.968-74.448-49.576-119.629-49.576c-0.014,0-0.026,0-0.053,0
	c-3.69,0-6.679-2.987-6.679-6.678c0-3.685,2.987-6.678,6.679-6.678c0.014,0,0.039,0,0.053,0c48.755,0,94.587,18.997,129.072,53.489
	c34.512,34.499,53.503,80.352,53.478,129.106C489.709,193.315,486.723,196.302,483.031,196.302z"/>
<path fill="#5E686B" d="M89.921,504.782c-3.691,0-6.678-2.987-6.678-6.679v-98.058c0-3.69,2.986-6.679,6.678-6.679
	c3.69,0,6.678,2.987,6.678,6.679v98.058C96.599,501.795,93.612,504.782,89.921,504.782z"/>
<path fill="#69C399" d="M311.333,217.692c-20.126,0-36.494-16.369-36.494-36.495c0-20.126,16.368-36.494,36.494-36.494
	c20.125,0,36.494,16.369,36.494,36.494S331.458,217.692,311.333,217.692z M311.333,158.06c-12.756,0-23.14,10.382-23.14,23.138
	c0,12.756,10.384,23.138,23.14,23.138s23.138-10.382,23.138-23.138C334.471,168.442,324.089,158.06,311.333,158.06z"/>
</svg>
