<?xml version="1.0" encoding="utf-8"?>
<!-- Generator: Adobe Illustrator 16.0.0, SVG Export Plug-In . SVG Version: 6.00 Build 0)  -->
<!DOCTYPE svg PUBLIC "-//W3C//DTD SVG 1.1//EN" "http://www.w3.org/Graphics/SVG/1.1/DTD/svg11.dtd">
<svg version="1.1" id="Layer_1" xmlns="http://www.w3.org/2000/svg" xmlns:xlink="http://www.w3.org/1999/xlink" x="0px" y="0px"
	 width="512px" height="512px" viewBox="0 0 512 512" enable-background="new 0 0 512 512" xml:space="preserve">
<path fill="#5E686B" d="M152.046,265.223c-30.824,0-55.896-25.064-55.896-55.889c0-30.817,25.073-55.89,55.896-55.89
	c30.816,0,55.89,25.073,55.89,55.89C207.936,240.157,182.864,265.223,152.046,265.223z M152.046,167.416
	c-23.114,0-41.924,18.803-41.924,41.917s18.81,41.917,41.924,41.917c23.106,0,41.91-18.802,41.91-41.917
	S175.154,167.416,152.046,167.416z"/>
<path fill="#5E686B" d="M359.9,265.223c-30.811,0-55.876-25.064-55.876-55.889c0-30.817,25.065-55.89,55.876-55.89
	c30.823,0,55.903,25.073,55.903,55.89C415.803,240.157,390.723,265.223,359.9,265.223z M359.9,167.416
	c-23.102,0-41.903,18.803-41.903,41.917s18.803,41.917,41.903,41.917c23.114,0,41.931-18.802,41.931-41.917
	S383.014,167.416,359.9,167.416z"/>
<path fill="#5E686B" d="M255.966,509.74c-138.673,0-251.497-112.83-251.497-251.504c0-128.393,96.094-235.845,223.524-249.961
	c3.766-0.457,7.285,2.333,7.709,6.175c0.423,3.834-2.348,7.293-6.183,7.716C109.188,35.49,18.442,136.981,18.442,258.236
	c0,130.979,106.555,237.53,237.524,237.53c130.978,0,237.529-106.553,237.529-237.53c0-120.532-90.138-221.955-209.653-235.927
	c-3.834-0.45-6.576-3.916-6.14-7.75c0.449-3.828,3.983-6.611,7.75-6.126c126.569,14.791,222.017,122.184,222.017,249.805
	C507.469,396.91,394.639,509.74,255.966,509.74z"/>
<path fill="#69C299" d="M381.717,381.491H130.221c-3.861,0-6.986-3.124-6.986-6.986c0-3.861,3.125-6.985,6.986-6.985h251.496
	c3.862,0,6.986,3.124,6.986,6.985C388.703,378.367,385.579,381.491,381.717,381.491z"/>
</svg>
