<?xml version="1.0" encoding="utf-8"?>
<!-- Generator: Adobe Illustrator 16.0.0, SVG Export Plug-In . SVG Version: 6.00 Build 0)  -->
<!DOCTYPE svg PUBLIC "-//W3C//DTD SVG 1.1//EN" "http://www.w3.org/Graphics/SVG/1.1/DTD/svg11.dtd">
<svg version="1.1" id="Layer_1" xmlns="http://www.w3.org/2000/svg" xmlns:xlink="http://www.w3.org/1999/xlink" x="0px" y="0px"
	 width="512px" height="512px" viewBox="0 0 512 512" enable-background="new 0 0 512 512" xml:space="preserve">
<path fill="#5E686C" d="M425.126,494.5h-31.782c-21.517,0-38.362-16.859-38.362-38.375v-21.85
	c-50.706,13.375-106.869,14.188-156.646,2.256V454.9c0,21.516-16.859,38.375-38.389,38.375h-32.995
	c-21.517,0-38.362-16.859-38.362-38.375v-76.698c-6.023-6.036-11.996-12.086-17.233-18.123H43.856
	c-20.793,0-38.361-17.568-38.361-38.374v-68.43c0-19.801,17.93-37.162,38.361-37.162h8.075c7.443-15.002,17.62-29.308,29.681-41.678
	c2.465-21.142-6.166-40.335-27.745-61.915c-4.929-3.147-7.56-10.964-5.25-17.775c1.844-5.585,7.067-10.835,12.704-12.718
	c50.462-13.506,93.118-2.103,124.076,32.944c16.138-4.669,32.726-8.075,49.377-10.151c3.522-0.568,6.914,2.115,7.366,5.74
	c0.451,3.612-2.116,6.914-5.74,7.366c-17.337,2.167-34.596,5.83-51.312,10.913c-2.542,0.774-5.301-0.052-7.004-2.115
	C150.054,92.875,112.04,82.04,65.127,94.681c-1.303,0.438-3.433,2.567-3.986,4.244c-0.348,1.058,0.052,2.748,1.071,3.431
	c26.198,26.03,36.104,49.958,32.183,76.13c-0.207,1.393-0.864,2.696-1.856,3.689c-12.706,12.679-23.231,27.655-30.455,43.314
	c-1.083,2.335-3.418,3.831-5.998,3.831H43.856c-13.17,0-25.152,11.416-25.152,23.955v68.43c0,13.402,11.75,25.165,25.152,25.165
	h30.545c1.96,0,3.818,0.864,5.069,2.373c5.856,7.018,13.131,14.293,20.162,21.323c1.238,1.237,2.167,3.146,2.167,4.9V454.9
	c0,14.111,11.054,25.166,25.153,25.166h32.995c14.125,0,25.18-11.055,25.18-25.166v-26.883c0-2.062,0.955-3.999,2.593-5.25
	c1.625-1.251,3.754-1.649,5.753-1.122c52.241,14.241,112.828,13.352,166.244-2.411c1.999-0.567,4.165-0.206,5.816,1.045
	c1.678,1.251,2.657,3.212,2.657,5.289v30.557c0,14.111,11.055,25.167,25.153,25.167h31.782c14.796,0,26.392-11.596,26.392-26.392
	v-85.534c0-1.702,0.658-3.341,1.832-4.566c26.405-27.604,40.941-60.265,40.941-91.97c0-56.046-42.902-108.313-111.95-136.395
	c-3.38-1.368-5.006-5.225-3.625-8.604s5.225-5.031,8.604-3.625C461.449,154.352,507.5,211.301,507.5,272.83
	c0,34.363-15.171,69.487-42.773,99.155V454.9C464.727,476.738,446.965,494.5,425.126,494.5z"/>
<path fill="#69C299" d="M314.273,145.361c-32.775,0-59.438-26.662-59.438-59.438c0-32.777,26.663-59.439,59.438-59.439
	c32.776,0,59.438,26.662,59.438,59.439C373.711,118.699,347.049,145.361,314.273,145.361z M314.273,39.692
	c-25.488,0-46.229,20.741-46.229,46.23c0,25.488,20.741,46.229,46.229,46.229s46.229-20.741,46.229-46.229
	C360.502,60.434,339.761,39.692,314.273,39.692z"/>
</svg>
