<?xml version="1.0" encoding="utf-8"?>
<!-- Generator: Adobe Illustrator 16.0.0, SVG Export Plug-In . SVG Version: 6.00 Build 0)  -->
<!DOCTYPE svg PUBLIC "-//W3C//DTD SVG 1.1//EN" "http://www.w3.org/Graphics/SVG/1.1/DTD/svg11.dtd">
<svg version="1.1" id="Layer_1" xmlns="http://www.w3.org/2000/svg" xmlns:xlink="http://www.w3.org/1999/xlink" x="0px" y="0px"
	 width="512px" height="512px" viewBox="0 0 512 512" enable-background="new 0 0 512 512" xml:space="preserve">
<path fill="#69C299" d="M211.929,373.422c-15.182,0-27.535,12.354-27.535,27.528c0,15.174,12.354,27.526,27.535,27.526
	c15.176,0,27.528-12.354,27.528-27.526C239.457,385.775,227.105,373.422,211.929,373.422z M211.929,414.714
	c-7.595,0-13.771-6.169-13.771-13.764s6.177-13.767,13.771-13.767c7.595,0,13.765,6.172,13.765,13.767
	S219.524,414.714,211.929,414.714z"/>
<path fill="#69C299" d="M258.061,236.667c15.175,0,27.528-12.353,27.528-27.528c0-15.182-12.354-27.528-27.528-27.528
	s-27.526,12.346-27.526,27.528C230.533,224.314,242.885,236.667,258.061,236.667z M258.061,195.375
	c7.594,0,13.766,6.169,13.766,13.764c0,7.595-6.172,13.764-13.766,13.764c-7.595,0-13.765-6.169-13.765-13.764
	C244.296,201.544,250.466,195.375,258.061,195.375z"/>
<path fill="#69C299" d="M326.451,410.305c-15.177,0-27.528,12.354-27.528,27.528c0,15.174,12.352,27.527,27.528,27.527
	c15.175,0,27.526-12.354,27.525-27.527C353.978,422.658,341.626,410.305,326.451,410.305z M326.451,451.597
	c-7.597,0-13.767-6.17-13.767-13.764c0-7.595,6.17-13.765,13.767-13.765c7.594,0,13.764,6.17,13.764,13.765
	C340.215,445.427,334.045,451.597,326.451,451.597z"/>
<path fill="#5E686C" d="M181.182,19.076h142.527c3.804,0,6.882-3.078,6.882-6.882c0-3.804-3.078-6.882-6.882-6.882H181.182
	c-3.804,0-6.882,3.078-6.882,6.882C174.3,15.998,177.378,19.076,181.182,19.076z"/>
<path fill="#5E686C" d="M457.855,442.859l-98.459-157.534l-1.384-1.949c-8.59-12.272-43.255-73.041-43.255-124.697V43.862
	c0-3.804-3.078-6.882-6.882-6.882H197.016c-3.804,0-6.882,3.078-6.882,6.882v114.817c0,55.446-39.195,126.579-39.585,127.278
	L63.091,442.51c-16.701,23.496-14.895,38.727-10.438,47.368C57.392,499.059,69.799,510,102.011,510H418.74
	c32.207,0,44.613-10.941,49.346-20.122C472.547,481.249,474.348,466.005,457.855,442.859z M203.898,158.679V50.744h97.094v107.935
	c0,45.628,25.026,97.512,38.854,121.493c-5.095-0.663-10.446-1.003-16.137-1.003c-29.33,0-44.115,8.522-58.417,16.763
	c-13.309,7.66-25.861,14.905-51.481,14.905c-25.633,0-38.201-7.245-51.501-14.92l-1.179-0.676l1.439-2.577
	C164.259,289.626,203.898,217.66,203.898,158.679z M455.852,483.574c-4.22,8.159-17.393,12.662-37.112,12.662H102.011
	c-19.725,0-32.904-4.503-37.125-12.678c-3.817-7.404-0.47-19.152,9.826-33.696l79.703-142.605l1.02,0.583
	c14.281,8.24,29.054,16.762,58.376,16.762c29.289,0,44.075-8.509,58.351-16.747c13.318-7.677,25.889-14.921,51.549-14.921
	c9.751,0,18.316,1.076,26.116,3.266l96.588,154.296C456.322,464.42,459.669,476.168,455.852,483.574z"/>
</svg>
