<?xml version="1.0" encoding="utf-8"?>
<!-- Generator: Adobe Illustrator 16.0.0, SVG Export Plug-In . SVG Version: 6.00 Build 0)  -->
<!DOCTYPE svg PUBLIC "-//W3C//DTD SVG 1.1//EN" "http://www.w3.org/Graphics/SVG/1.1/DTD/svg11.dtd">
<svg version="1.1" id="Layer_1" xmlns="http://www.w3.org/2000/svg" xmlns:xlink="http://www.w3.org/1999/xlink" x="0px" y="0px"
	 width="512px" height="512px" viewBox="0 0 512 512" enable-background="new 0 0 512 512" xml:space="preserve">
<path fill="#5E686C" d="M254.876,507.037c-0.953,0-1.906-0.209-2.794-0.613C243.53,502.493,42.65,408.647,42.65,288.596V77.557
	c0-0.124,0.006-0.248,0.014-0.372c-0.014-0.137-0.014-0.281-0.014-0.424c0.039-3.695,3.245-7.058,6.75-6.62
	c1.326-0.17,140.037,0.607,200.814-61.502c0.013-0.02,0.025-0.032,0.039-0.045c0,0,0.025,0.078,0.013-0.013
	c0.483-0.483,1.02-0.875,1.593-1.182c0,0.006-0.091,0.039,0.026-0.006c0-0.007,0-0.007,0-0.007l0.013-0.006l0.014-0.007l0,0
	c0.991-0.516,2.429-0.796,3.159-0.757c0.014,0,0.014,0,0.014,0l0,0c0.993,0.013,1.959,0.242,2.858,0.679
	c0.015,0.006,0.015,0.006,0.015,0.006s0.013,0,0.013,0.007c0.627,0.307,1.215,0.725,1.736,1.247c0,0,0,0,0.014,0
	c0,0,0,0.006,0,0.013c0.026,0.02,0.052,0.046,0.078,0.072c58.055,59.308,196.544,61.443,210.464,61.502
	c3.97-0.777,7.874,2.481,7.874,6.581v211.875c0,120.144-211.574,213.948-220.584,217.879
	C256.704,506.854,255.79,507.037,254.876,507.037z M56.021,83.459v205.137c0,104.355,174.842,192.717,198.935,204.392
	c24.927-11.452,209.811-99.943,209.811-204.392V83.466c-30.061-0.522-150.033-6.085-209.746-60.855
	C196.058,77.081,84.82,82.885,56.021,83.459z"/>
<path fill="#69C299" d="M254.589,436.447c-0.94,0-1.88-0.195-2.755-0.588c-6.294-2.847-154.126-70.563-154.126-158.572V140.365
	c0-3.695,2.989-6.686,6.686-6.686s6.687,2.99,6.687,6.686v136.922c0,73.463,123.754,135.644,143.602,145.137
	c20.736-9.284,153.611-71.661,153.611-145.137V140.365c0-3.695,2.989-6.686,6.686-6.686s6.686,2.99,6.686,6.686v136.922
	c0,88.127-157.749,155.791-164.475,158.638C256.365,436.277,255.477,436.447,254.589,436.447z"/>
<path fill="#69C299" d="M105.079,141.39c-0.634,0-1.059-0.006-1.261-0.006c-3.694-0.052-6.64-3.088-6.594-6.777
	c0.052-3.695,2.65-6.509,6.777-6.594c0.907-0.02,98.429,0.731,146.631-48.784c2.585-2.638,6.83-2.696,9.454-0.13
	c2.65,2.579,2.703,6.81,0.131,9.454C210.507,139.627,117.569,141.39,105.079,141.39z"/>
<path fill="#69C299" d="M413.199,141.39c-13.356,0-112.856-1.756-162.567-52.838c-2.572-2.644-2.521-6.875,0.131-9.454
	c2.625-2.566,6.881-2.507,9.454,0.13c48.209,49.534,153.088,48.725,154.159,48.784c0.038,0,0.064,0,0.091,0
	c3.655,0,6.634,2.938,6.686,6.601c0.053,3.689-2.912,6.725-6.594,6.771C414.336,141.383,413.879,141.39,413.199,141.39z"/>
<path fill="#5E686C" d="M153.803,189.396c-1.71,0-3.421-0.653-4.727-1.958c-2.611-2.611-2.611-6.842,0-9.454l14.115-14.115
	c2.611-2.612,6.843-2.612,9.454,0c2.611,2.611,2.611,6.842,0,9.454l-14.115,14.115C157.225,188.743,155.514,189.396,153.803,189.396
	z"/>
<path fill="#5E686C" d="M146.746,252.922c-1.71,0-3.421-0.653-4.728-1.959c-2.61-2.611-2.61-6.842,0-9.454l77.654-77.641
	c2.611-2.612,6.842-2.612,9.454,0c2.611,2.611,2.611,6.842,0,9.454l-77.654,77.641C150.167,252.269,148.456,252.922,146.746,252.922
	z"/>
</svg>
