<?xml version="1.0" encoding="utf-8"?>
<!-- Generator: Adobe Illustrator 16.0.0, SVG Export Plug-In . SVG Version: 6.00 Build 0)  -->
<!DOCTYPE svg PUBLIC "-//W3C//DTD SVG 1.1//EN" "http://www.w3.org/Graphics/SVG/1.1/DTD/svg11.dtd">
<svg version="1.1" id="Layer_1" xmlns="http://www.w3.org/2000/svg" xmlns:xlink="http://www.w3.org/1999/xlink" x="0px" y="0px"
	 width="512px" height="512px" viewBox="0 0 512 512" enable-background="new 0 0 512 512" xml:space="preserve">
<path fill="#5E686C" d="M238.426,133.752h-94.538c-3.732,0-6.753-3.02-6.753-6.752V32.462c0-3.733,3.021-6.753,6.753-6.753h94.538
	c3.732,0,6.753,3.02,6.753,6.753V127C245.179,130.732,242.158,133.752,238.426,133.752z M150.64,120.247h81.033V39.214H150.64
	V120.247z"/>
<path fill="#69C299" d="M238.426,309.719h-90.45c-3.732,0-6.753-3.021-6.753-6.753s3.021-6.752,6.753-6.752h83.697v-81.033H150.64
	v33.698c0,3.732-3.02,6.752-6.752,6.752s-6.753-3.02-6.753-6.752v-40.451c0-3.732,3.021-6.752,6.753-6.752h94.538
	c3.732,0,6.753,3.02,6.753,6.752v94.538C245.179,306.698,242.158,309.719,238.426,309.719z"/>
<path fill="#5E686C" d="M238.426,485.679h-94.538c-3.732,0-6.753-3.021-6.753-6.753v-94.538c0-3.732,3.021-6.753,6.753-6.753h94.538
	c3.732,0,6.753,3.021,6.753,6.753v94.538C245.179,482.658,242.158,485.679,238.426,485.679z M150.64,472.173h81.033v-81.032H150.64
	V472.173z"/>
<path fill="#5E686C" d="M498.246,58.8H282.16c-3.732,0-6.753-3.02-6.753-6.752c0-3.733,3.021-6.753,6.753-6.753h216.086
	c3.732,0,6.754,3.02,6.754,6.753C505,55.78,501.979,58.8,498.246,58.8z"/>
<path fill="#5E686C" d="M444.832,100.556H282.767c-3.732,0-6.752-3.02-6.752-6.752s3.02-6.753,6.752-6.753h162.065
	c3.732,0,6.752,3.021,6.752,6.753S448.565,100.556,444.832,100.556z"/>
<path fill="#69C299" d="M498.246,238.644H282.16c-3.732,0-6.753-3.02-6.753-6.752s3.021-6.753,6.753-6.753h216.086
	c3.732,0,6.754,3.021,6.754,6.753S501.979,238.644,498.246,238.644z"/>
<path fill="#69C299" d="M444.832,280.413H282.767c-3.732,0-6.752-3.021-6.752-6.753s3.02-6.752,6.752-6.752h162.065
	c3.732,0,6.752,3.02,6.752,6.752S448.565,280.413,444.832,280.413z"/>
<path fill="#5E686C" d="M498.246,418.494H282.16c-3.732,0-6.753-3.02-6.753-6.752s3.021-6.754,6.753-6.754h216.086
	c3.732,0,6.754,3.021,6.754,6.754S501.979,418.494,498.246,418.494z"/>
<path fill="#5E686C" d="M444.225,460.25H282.16c-3.732,0-6.753-3.02-6.753-6.752s3.021-6.754,6.753-6.754h162.064
	c3.732,0,6.754,3.021,6.754,6.754S447.957,460.25,444.225,460.25z"/>
<path fill="#5E686C" d="M112.38,400.794c-0.146,0-0.304,0-0.449-0.013c-3.007-0.197-5.513-2.36-6.146-5.302L89.14,319.294
	l-76.199-16.645c-2.935-0.64-5.091-3.146-5.295-6.146c-0.198-2.995,1.609-5.771,4.432-6.793l153.928-55.947
	c2.466-0.89,5.209-0.284,7.083,1.57c1.859,1.853,2.466,4.616,1.569,7.083L118.723,396.35
	C117.747,399.027,115.201,400.794,112.38,400.794z M38.614,294.433l57.635,12.596c2.585,0.561,4.589,2.572,5.157,5.15l12.596,57.636
	l43.022-118.417L38.614,294.433z"/>
</svg>
