<?xml version="1.0" encoding="utf-8"?>
<!-- Generator: Adobe Illustrator 16.0.0, SVG Export Plug-In . SVG Version: 6.00 Build 0)  -->
<!DOCTYPE svg PUBLIC "-//W3C//DTD SVG 1.1//EN" "http://www.w3.org/Graphics/SVG/1.1/DTD/svg11.dtd">
<svg version="1.1" id="Layer_1" xmlns="http://www.w3.org/2000/svg" xmlns:xlink="http://www.w3.org/1999/xlink" x="0px" y="0px"
	 width="512px" height="512px" viewBox="0 0 512 512" enable-background="new 0 0 512 512" xml:space="preserve">
<path fill="#5E686B" d="M184.661,501.134H47.979c-18.549,0-33.637-12.313-33.637-27.454V38.004
	c0-15.139,15.087-27.454,33.637-27.454h136.683c18.511,0,33.577,12.314,33.577,27.454V473.68
	C218.239,488.819,203.172,501.134,184.661,501.134z M47.979,23.881c-11.006,0-20.307,6.47-20.307,14.124V473.68
	c0,7.654,9.301,14.124,20.307,14.124h136.683c10.974,0,20.241-6.47,20.241-14.124V38.004c0-7.654-9.268-14.124-20.241-14.124
	L47.979,23.881L47.979,23.881z"/>
<path fill="#5E686B" d="M471.295,501.134H334.587c-18.536,0-33.61-12.313-33.61-27.454V38.004c0-15.139,15.074-27.454,33.61-27.454
	h136.708c18.55,0,33.637,12.314,33.637,27.454V473.68C504.932,488.819,489.845,501.134,471.295,501.134z M334.587,23.881
	c-10.999,0-20.28,6.47-20.28,14.124V473.68c0,7.654,9.281,14.124,20.28,14.124h136.708c11.013,0,20.307-6.47,20.307-14.124V38.004
	c0-7.654-9.294-14.124-20.307-14.124L334.587,23.881L334.587,23.881z"/>
<path fill="#69C299" d="M116.326,163.901c-1.712,0-3.443-0.111-5.188-0.339c-10.583-1.367-20.001-6.775-26.529-15.243
	c-6.521-8.461-9.358-18.953-7.992-29.536c2.805-21.583,22.669-37.451,44.785-34.509c21.844,2.818,37.348,22.904,34.541,44.773
	C153.348,148.925,136.315,163.901,116.326,163.901z M116.19,97.259c-13.304,0-24.628,9.991-26.354,23.236
	c-0.904,7.049,0.982,14.045,5.337,19.688c4.348,5.643,10.628,9.249,17.677,10.16c14.801,1.9,27.994-8.631,29.875-23.008
	c1.868-14.566-8.468-27.961-23.041-29.842C118.5,97.337,117.342,97.259,116.19,97.259z"/>
<path fill="#69C299" d="M403.306,163.901c-1.719,0-3.45-0.111-5.194-0.339c-21.843-2.818-37.333-22.91-34.521-44.772
	c2.812-21.603,22.91-37.425,44.778-34.516c21.856,2.818,37.348,22.904,34.549,44.773C440.34,148.925,423.3,163.901,403.306,163.901z
	 M403.161,97.259c-13.304,0-24.628,9.991-26.347,23.236c-1.874,14.573,8.448,27.968,23.015,29.849
	c14.774,1.939,28-8.624,29.861-23.001c1.875-14.573-8.461-27.968-23.04-29.849C405.48,97.337,404.322,97.259,403.161,97.259z"/>
</svg>
