<?xml version="1.0" encoding="utf-8"?>
<!-- Generator: Adobe Illustrator 16.0.0, SVG Export Plug-In . SVG Version: 6.00 Build 0)  -->
<!DOCTYPE svg PUBLIC "-//W3C//DTD SVG 1.1//EN" "http://www.w3.org/Graphics/SVG/1.1/DTD/svg11.dtd">
<svg version="1.1" id="Layer_1" xmlns="http://www.w3.org/2000/svg" xmlns:xlink="http://www.w3.org/1999/xlink" x="0px" y="0px"
	 width="512px" height="512px" viewBox="0 0 512 512" enable-background="new 0 0 512 512" xml:space="preserve">
<path fill="none" stroke="#69C299" stroke-linecap="round" stroke-linejoin="round" stroke-miterlimit="10" d="M92.499,415.727"/>
<path fill="#5E686B" d="M255.59,508.929c-9.976,0-19.804-0.577-29.222-1.708c-25.396-2.86-44.07-25.188-42.477-50.824
	c0.252-4.848-2.604-9.424-7.133-11.321c-3.32-1.415-10.493,0.196-13.163,3.107c-16.351,18.098-46.741,20.555-65.92,5.158
	c-14.85-11.953-28.305-25.582-40.021-40.504c-15.5-19.598-13.188-48.309,5.273-65.343c3.693-3.387,4.94-8.607,3.122-12.997
	c-1.727-4.204-5.884-7.244-9.882-7.244c-22.54,0-48.188-15.011-51.323-42.83c-2.152-19.319-2.099-38.658,0.146-57.493
	c3.015-24.705,23.189-42.616,47.988-42.616c6.8-0.02,12.365-2.796,14.173-7.066c1.859-4.449,0.637-9.696-3.028-13.01
	c-18.915-17.201-21.199-46.203-5.222-66.04c11.901-14.87,25.637-28.464,40.831-40.399c19.75-15.188,49.317-12.372,65.534,5.493
	c2.061,2.278,9.298,4.516,13.058,3.015c4.383-1.793,7.227-6.356,7.065-11.35c-0.836-25.084,18.051-46.893,42.981-49.643
	c18.582-2.092,38.002-2.059,56.809,0.147c25.463,2.968,44.178,25.29,42.609,50.825c-0.266,4.888,2.577,9.47,7.094,11.37
	c0.611,0.252,1.86,0.538,3.453,0.538c4.117,0,7.969-1.806,9.496-3.506c16.617-18.277,46.94-20.688,66.067-5.34
	c14.742,11.794,28.211,25.409,40.06,40.465c15.606,19.69,13.281,48.459-5.312,65.475c-3.64,3.333-4.862,8.593-3.042,13.076
	c1.779,4.277,6.202,7.073,11.263,7.073c22.195,0,46.954,16.032,49.971,42.856c2.108,19.121,2.068,38.438-0.135,57.426
	c-2.867,24.354-23.392,42.709-47.75,42.709c-0.839,0-4.423-0.134-4.423-0.134c-3.879,0.047-8.303,3.089-9.976,7.087
	c-1.912,4.522-0.718,9.771,2.949,13.07c18.953,17.208,21.226,46.229,5.219,66.088c-11.98,14.922-25.729,28.517-40.843,40.384
	c-19.394,15.042-48.934,12.459-65.336-5.317c-2.725-2.955-9.883-4.545-13.189-3.202c-4.423,1.817-7.292,6.375-7.132,11.344
	c0.836,25.096-18.039,46.913-42.97,49.656C274.078,508.417,264.769,508.929,255.59,508.929z M173.346,430.9
	c3.148,0,6.15,0.564,8.688,1.641c9.787,4.104,16.004,14.014,15.434,24.64c-1.144,18.456,12.246,34.476,30.469,36.526
	c17.161,2.072,35.716,2.179,53.833,0.174c17.904-1.976,31.452-17.646,30.854-35.689c-0.347-10.613,5.925-20.409,15.595-24.374
	c8.726-3.567,21.876-0.467,28.344,6.573c11.755,12.753,33.032,14.624,46.953,3.812c14.278-11.203,27.269-24.062,38.611-38.191
	c11.504-14.272,9.855-35.119-3.745-47.472c-7.956-7.161-10.521-18.597-6.362-28.432c3.759-8.979,13.096-15.322,22.699-15.406
	c0.333,0.007,3.506,0.125,4.237,0.125c17.467,0,32.184-13.188,34.229-30.683c2.097-17.965,2.136-36.253,0.131-54.345
	c-2.165-19.253-20.229-30.762-36.446-30.762c-10.572,0-19.923-6.09-23.844-15.507c-3.956-9.769-1.366-21.106,6.433-28.271
	c13.36-12.228,15.034-32.874,3.823-47.02c-11.21-14.259-23.946-27.13-37.894-38.28c-13.763-11.058-35.545-9.258-47.46,3.851
	c-6.188,6.901-19.883,9.883-28.29,6.396c-9.829-4.138-16.006-14.06-15.422-24.713c1.116-18.369-12.325-34.395-30.603-36.525
	c-17.784-2.066-36.154-2.119-53.739-0.134c-17.918,1.973-31.48,17.646-30.882,35.677c0.344,10.66-5.897,20.455-15.541,24.387
	c-8.713,3.573-22.05,0.392-28.266-6.475c-11.635-12.811-32.886-14.803-47.111-3.885c-14.319,11.243-27.31,24.101-38.56,38.174
	c-11.489,14.258-9.842,35.098,3.745,47.451c7.917,7.152,10.521,18.549,6.442,28.345c-4.012,9.477-14.238,15.368-26.697,15.408
	c-17.853,0-32.357,12.884-34.521,30.642c-2.11,17.786-2.15,36.075-0.118,54.359c2.244,19.956,21.132,30.735,37.773,30.735
	c9.604,0,18.636,6.295,22.488,15.658c3.985,9.63,1.381,20.968-6.495,28.191c-13.256,12.233-14.93,32.842-3.787,46.921
	c11.091,14.133,23.817,27.018,37.842,38.318c13.787,11.031,35.57,9.317,47.353-3.718C158.15,434.002,165.721,430.9,173.346,430.9z"
	/>
<path fill="#69C299" d="M255.829,327.909c-39.462,0-71.566-32.104-71.566-71.558c0-39.456,32.104-71.559,71.566-71.559
	c39.447,0,71.552,32.103,71.552,71.559C327.381,295.807,295.277,327.909,255.829,327.909z M255.829,198.394
	c-31.958,0-57.966,26-57.966,57.958c0,31.957,26.008,57.957,57.966,57.957c31.957,0,57.949-26,57.949-57.957
	C313.779,224.394,287.786,198.394,255.829,198.394z"/>
</svg>
