<?xml version="1.0" encoding="utf-8"?>
<!-- Generator: Adobe Illustrator 16.0.0, SVG Export Plug-In . SVG Version: 6.00 Build 0)  -->
<!DOCTYPE svg PUBLIC "-//W3C//DTD SVG 1.1//EN" "http://www.w3.org/Graphics/SVG/1.1/DTD/svg11.dtd">
<svg version="1.1" id="Layer_1" xmlns="http://www.w3.org/2000/svg" xmlns:xlink="http://www.w3.org/1999/xlink" x="0px" y="0px"
	 width="512px" height="512px" viewBox="0 0 512 512" enable-background="new 0 0 512 512" xml:space="preserve">
<path fill="#5E686C" d="M440.998,395.886H71.135c-22.244,0-40.336-17.978-40.336-40.062V150.606c0-3.588,2.903-6.491,6.491-6.491
	s6.492,2.903,6.492,6.491v205.217c0,14.935,12.272,27.08,27.353,27.08h369.864c15.087,0,27.359-12.146,27.359-27.08V108.514
	c0-3.588,2.903-6.491,6.491-6.491s6.491,2.903,6.491,6.491v247.309C481.34,377.908,463.248,395.886,440.998,395.886z"/>
<path fill="#69C299" d="M37.322,157.097c-3.582,0-6.485-2.897-6.491-6.485L30.799,92.02c0-39.994,8.038-85.895,70.701-85.895h73.946
	c25.838,0,34.155,11.138,41.49,20.963c7.385,9.883,13.756,18.415,40.126,18.415h184.292c18.244,0,39.987,8.07,39.987,46.517v20.399
	c0,3.588-2.903,6.491-6.491,6.491s-6.491-2.903-6.491-6.491V92.02c0-29.724-14.428-33.534-27.005-33.534H257.061
	c-32.874,0-42.662-13.103-50.522-23.632c-6.573-8.799-11.765-15.747-31.093-15.747h-73.946c-40.996,0-57.718,21.122-57.718,72.913
	l0.031,58.58c0.006,3.582-2.897,6.491-6.485,6.498H37.322z"/>
<path fill="#5E686C" d="M175.445,197.566h-73.946c-35.1,0-57.407-14.124-70.193-44.438c-0.347-0.825-0.511-1.683-0.51-2.526
	l0.001-1.268h13.015c0,0-0.181-0.414,0,0c10.822,24.69,28.153,35.249,57.687,35.249h73.946c19.347,0,24.539-6.885,31.106-15.601
	c7.867-10.428,17.648-23.41,50.51-23.41h184.292c12.577,0,27.005-3.766,27.005-33.154h12.982c0,38.13-21.743,46.136-39.987,46.136
	H257.061c-26.389,0-32.76,8.457-40.139,18.244C209.581,186.536,201.264,197.566,175.445,197.566z"/>
<path fill="#5E686C" d="M256.06,507.252c-14.313,0-25.959-11.651-25.959-25.965s11.646-25.965,25.959-25.965
	c14.326,0,25.978,11.651,25.978,25.965S270.386,507.252,256.06,507.252z M256.06,468.305c-7.157,0-12.976,5.819-12.976,12.982
	s5.819,12.982,12.976,12.982c7.163,0,12.995-5.819,12.995-12.982S263.223,468.305,256.06,468.305z"/>
<path fill="#5E686C" d="M256.066,468.305c-3.588,0-6.491-2.903-6.491-6.491v-38.948c0-3.588,2.903-6.491,6.491-6.491
	c3.588,0,6.492,2.903,6.492,6.491v38.948C262.558,465.401,259.655,468.305,256.066,468.305z"/>
<path fill="#5E686C" d="M236.593,487.778H127.965c-3.588,0-6.491-2.903-6.491-6.491s2.903-6.491,6.491-6.491h108.627
	c3.588,0,6.491,2.903,6.491,6.491S240.18,487.778,236.593,487.778z"/>
<path fill="#5E686C" d="M384.174,487.778H275.546c-3.588,0-6.491-2.903-6.491-6.491s2.903-6.491,6.491-6.491h108.628
	c3.588,0,6.491,2.903,6.491,6.491S387.762,487.778,384.174,487.778z"/>
</svg>
