<?xml version="1.0" encoding="utf-8"?>
<!-- Generator: Adobe Illustrator 16.0.0, SVG Export Plug-In . SVG Version: 6.00 Build 0)  -->
<!DOCTYPE svg PUBLIC "-//W3C//DTD SVG 1.1//EN" "http://www.w3.org/Graphics/SVG/1.1/DTD/svg11.dtd">
<svg version="1.1" id="Layer_1" xmlns="http://www.w3.org/2000/svg" xmlns:xlink="http://www.w3.org/1999/xlink" x="0px" y="0px"
	 width="512px" height="512px" viewBox="0 0 512 512" enable-background="new 0 0 512 512" xml:space="preserve">
<path fill="#5E686B" d="M508.858,249.719L475.275,148.96c-0.762-2.274-2.894-3.809-5.289-3.809h-122.97V91.73
	c0-3.08-2.492-5.572-5.572-5.572H61.536c-3.08,0-5.572,2.492-5.572,5.572c0,0.02,0.003,0.04,0.003,0.06s-0.003,0.04-0.003,0.06
	v62.072c0,3.08,2.492,5.572,5.572,5.572s5.57-2.492,5.569-5.571V97.302h268.769v53.421c0,3.079,2.492,5.571,5.569,5.571h124.527
	l32.025,96.091v113.776h-37.589c-1.021,0-1.974,0.278-2.795,0.756c-1.654-29.245-25.968-52.536-55.621-52.536
	c-29.689,0-54.029,23.352-55.63,52.649c-0.861-0.548-1.883-0.869-2.98-0.869H224.836c-1.021,0-1.975,0.278-2.796,0.757
	c-1.656-29.246-25.975-52.537-55.632-52.537c-29.726,0-54.086,23.41-55.627,52.764c-0.897-0.618-1.984-0.982-3.159-0.982H67.107
	v-89.246c0-3.08-2.489-5.572-5.569-5.572s-5.572,2.492-5.572,5.572v94.817c0,3.08,2.492,5.569,5.572,5.569h46.086
	c1.288,0,2.469-0.438,3.412-1.172c3.018,27.895,26.696,49.687,55.374,49.687c28.6,0,52.229-21.66,55.363-49.433
	c0.879,0.579,1.932,0.918,3.063,0.918h118.546c1.211,0,2.328-0.39,3.242-1.044c3.076,27.832,26.73,49.559,55.368,49.559
	c28.597,0,52.22-21.66,55.354-49.433c0.879,0.579,1.93,0.918,3.062,0.918h43.159c3.081,0,5.572-2.489,5.571-5.569v-120.25
	C509.14,250.884,509.043,250.29,508.858,249.719z M166.408,414.672c-24.571,0-44.562-19.991-44.562-44.573
	c0-24.583,19.99-44.572,44.562-44.572c24.584,0,44.585,19.99,44.585,44.572S190.991,414.672,166.408,414.672z M401.992,414.672
	c-24.581,0-44.572-19.991-44.572-44.573c0-24.583,19.991-44.572,44.572-44.572c24.583,0,44.575,19.99,44.574,44.572
	C446.568,394.681,426.575,414.672,401.992,414.672z"/>
<path fill="#69C299" d="M474.056,261.788c0.088,0.011,0.163,0.011,0.218,0c3.08,0,5.572-2.493,5.572-5.573
	c0-1.164-0.35-2.242-0.957-3.139l-24.834-74.62c-0.762-2.28-2.896-3.814-5.288-3.814H341.445c-3.077,0-5.569,2.492-5.569,5.572
	v76.002c0,3.079,2.492,5.572,5.569,5.572H474.056z M347.017,185.786h97.731l21.579,64.858H347.017V185.786z"/>
<path fill="#69C299" d="M117.515,199.879c0-3.08-2.492-5.572-5.572-5.572H8.822c-3.077,0-5.569,2.492-5.569,5.572
	c0,3.079,2.491,5.571,5.569,5.571h103.121C115.023,205.45,117.515,202.958,117.515,199.879z"/>
<path fill="#69C299" d="M117.515,230.664c0-3.079-2.492-5.571-5.572-5.571H23.568c-3.079,0-5.569,2.491-5.569,5.571
	s2.489,5.572,5.569,5.572h88.375C115.023,236.236,117.515,233.744,117.515,230.664z"/>
</svg>
