<?xml version="1.0" encoding="utf-8"?>
<!-- Generator: Adobe Illustrator 16.0.0, SVG Export Plug-In . SVG Version: 6.00 Build 0)  -->
<!DOCTYPE svg PUBLIC "-//W3C//DTD SVG 1.1//EN" "http://www.w3.org/Graphics/SVG/1.1/DTD/svg11.dtd">
<svg version="1.1" id="Layer_1" xmlns="http://www.w3.org/2000/svg" xmlns:xlink="http://www.w3.org/1999/xlink" x="0px" y="0px"
	 width="512px" height="512px" viewBox="0 0 512 512" enable-background="new 0 0 512 512" xml:space="preserve">
<path fill="#69C299" d="M319.875,138.52c-3.74,0-6.766-3.026-6.766-6.765V36.02c0-8.918-25.579-18.887-59.805-18.887
	c-15.458,0-29.516,2.061-39.596,5.807c-6.573,2.451-14.415,6.698-14.415,13.08v95.735c0,3.739-3.025,6.765-6.765,6.765
	s-6.765-3.026-6.765-6.765V36.02c0-7.809,4.03-18.623,23.227-25.757c11.547-4.294,27.283-6.659,44.313-6.659
	c35.317,0,73.334,10.141,73.334,32.416v95.735C326.639,135.494,323.614,138.52,319.875,138.52z"/>
<path fill="#5E686C" d="M436.365,508.499H76.044c-3.739,0-6.765-3.025-6.765-6.765V131.755c0-3.739,3.026-6.765,6.765-6.765h360.321
	c3.74,0,6.765,3.026,6.765,6.765v369.979C443.13,505.474,440.106,508.499,436.365,508.499z M82.809,494.97h346.793V138.52H82.809
	V494.97z"/>
</svg>
