<?xml version="1.0" encoding="utf-8"?>
<!-- Generator: Adobe Illustrator 16.0.0, SVG Export Plug-In . SVG Version: 6.00 Build 0)  -->
<!DOCTYPE svg PUBLIC "-//W3C//DTD SVG 1.1//EN" "http://www.w3.org/Graphics/SVG/1.1/DTD/svg11.dtd">
<svg version="1.1" id="Layer_1" xmlns="http://www.w3.org/2000/svg" xmlns:xlink="http://www.w3.org/1999/xlink" x="0px" y="0px"
	 width="512px" height="512px" viewBox="0 0 512 512" enable-background="new 0 0 512 512" xml:space="preserve">
<path fill="#5E686B" d="M256.032,506.148c-137.707,0-249.733-112.033-249.733-249.74c0-127.576,95.479-234.282,222.089-248.215
	c3.626-0.453,7.016,2.253,7.423,5.952c0.407,3.692-2.26,7.016-5.952,7.423C110.081,34.746,19.753,135.71,19.753,256.408
	c0,130.283,105.996,236.286,236.279,236.286c130.282,0,236.285-106.003,236.285-236.286c0-120.698-90.329-221.662-210.113-234.853
	c-3.691-0.408-6.358-3.731-5.952-7.423c0.408-3.699,3.758-6.399,7.424-5.952c126.617,13.947,222.096,120.659,222.096,248.229
	C505.772,394.115,393.739,506.148,256.032,506.148z"/>
<path fill="#69C299" d="M373.124,364.526c-3.72,0-6.729-3.01-6.729-6.728c0-111.219-83.851-195.083-195.037-195.083
	c-3.718,0-6.727-3.009-6.727-6.727c0-3.718,3.009-6.727,6.727-6.727c118.859,0,208.491,89.646,208.491,208.537
	C379.851,361.518,376.842,364.526,373.124,364.526z M294.897,364.526c-3.719,0-6.728-3.01-6.728-6.728
	c0-72.959-44.776-118.274-116.842-118.274c-3.719,0-6.728-3.009-6.728-6.727c0-3.718,3.009-6.727,6.728-6.727
	c79.146,0,130.296,51.701,130.296,131.729C301.623,361.518,298.615,364.526,294.897,364.526z M194.445,363.2
	c-16.469,0-29.863-13.507-29.863-30.103c0-16.619,13.395-30.152,29.863-30.152c16.457,0,29.885,13.521,29.938,30.128
	C224.381,349.693,210.953,363.2,194.445,363.2z M194.445,316.399c-9.046,0-16.409,7.488-16.409,16.698
	c0,9.186,7.363,16.647,16.409,16.647c9.085,0,16.482-7.463,16.482-16.647C210.901,323.902,203.504,316.399,194.445,316.399z"/>
</svg>
