<?xml version="1.0" encoding="utf-8"?>
<!-- Generator: Adobe Illustrator 16.0.0, SVG Export Plug-In . SVG Version: 6.00 Build 0)  -->
<!DOCTYPE svg PUBLIC "-//W3C//DTD SVG 1.1//EN" "http://www.w3.org/Graphics/SVG/1.1/DTD/svg11.dtd">
<svg version="1.1" id="Layer_1" xmlns="http://www.w3.org/2000/svg" xmlns:xlink="http://www.w3.org/1999/xlink" x="0px" y="0px"
	 width="512px" height="512px" viewBox="0 0 512 512" enable-background="new 0 0 512 512" xml:space="preserve">
<path fill="#5E686B" d="M152.963,264.645c-30.824,0-55.903-25.065-55.903-55.89c0-30.817,25.079-55.89,55.903-55.89
	c30.81,0,55.876,25.072,55.876,55.89C208.839,239.579,183.773,264.645,152.963,264.645z M152.963,166.837
	c-23.121,0-41.931,18.803-41.931,41.917c0,23.114,18.81,41.917,41.931,41.917c23.106,0,41.903-18.803,41.903-41.917
	C194.866,185.64,176.071,166.837,152.963,166.837z"/>
<path fill="#5E686B" d="M360.823,264.645c-30.822,0-55.889-25.065-55.889-55.89c0-30.817,25.065-55.89,55.889-55.89
	c30.824,0,55.891,25.072,55.891,55.89C416.712,239.579,391.647,264.645,360.823,264.645z M360.823,166.837
	c-23.113,0-41.917,18.803-41.917,41.917c0,23.114,18.804,41.917,41.917,41.917c23.115,0,41.918-18.803,41.918-41.917
	C402.74,185.64,383.938,166.837,360.823,166.837z"/>
<path fill="#69C299" d="M256.904,411.641c-40.238,0-78.834-20.795-108.682-58.55c-2.395-3.028-1.883-7.423,1.146-9.824
	c3.043-2.388,7.43-1.843,9.811,1.146c27.146,34.345,61.852,53.257,97.725,53.257c35.858,0,70.544-18.898,97.67-53.216
	c2.401-3.017,6.81-3.507,9.824-1.146c3.017,2.401,3.534,6.795,1.146,9.824C335.702,390.859,297.115,411.641,256.904,411.641z"/>
<path fill="#5E686B" d="M228.972,507.592c-0.271,0-0.532-0.014-0.805-0.041C101.16,493.102,5.38,385.675,5.38,257.658
	c0-138.68,112.823-251.503,251.497-251.503c138.673,0,251.503,112.823,251.503,251.503c0,128.029-95.773,235.442-222.768,249.879
	c-3.794,0.301-7.301-2.319-7.736-6.153c-0.437-3.834,2.319-7.3,6.153-7.735c119.938-13.618,210.377-115.082,210.377-235.989
	c0-130.978-106.553-237.531-237.529-237.531c-130.972,0-237.524,106.553-237.524,237.531c0,120.907,90.452,222.356,210.398,236.002
	c3.834,0.438,6.59,3.903,6.153,7.737C235.494,504.959,232.465,507.592,228.972,507.592z"/>
</svg>
