<?xml version="1.0" encoding="utf-8"?>
<!-- Generator: Adobe Illustrator 16.0.0, SVG Export Plug-In . SVG Version: 6.00 Build 0)  -->
<!DOCTYPE svg PUBLIC "-//W3C//DTD SVG 1.1//EN" "http://www.w3.org/Graphics/SVG/1.1/DTD/svg11.dtd">
<svg version="1.1" id="Layer_1" xmlns="http://www.w3.org/2000/svg" xmlns:xlink="http://www.w3.org/1999/xlink" x="0px" y="0px"
	 width="512px" height="512px" viewBox="0 0 512 512" enable-background="new 0 0 512 512" xml:space="preserve">
<path fill="#5E686B" d="M254.813,495.352c-22.107,0-43.753-8.01-64.336-23.799c-35.385-26.85-67.207-32.821-105.462-20.146
	c-2.024,0.653-4.216,0.32-5.934-0.922c-1.705-1.258-2.704-3.243-2.691-5.37c0.244-26.439-14.443-29.771-34.77-34.386
	c-12.867-2.923-27.465-6.229-38.166-16.802c-1.647-1.615-2.32-3.985-1.763-6.241c0.552-2.242,2.249-4.023,4.46-4.703
	c46.478-14.148,79.657-41.459,101.444-83.471c7.177-13.969,9.343-23.658,6.818-30.449c-2.603-7.037-10.74-13.009-26.375-19.358
	c-7.935-3.255-15.584-7.049-22.979-10.714c-3.345-1.666-6.703-3.326-10.086-4.941c-2.857-1.365-4.332-4.588-3.499-7.651
	c0.987-3.588,1.961-7.17,3.103-10.605c1-3.012,4.062-4.902,7.15-4.428l11.355,1.538c7.459,0.98,14.969,1.974,22.338,3.236
	c4.498,0.833,8.15,1.23,11.239,1.23c6.934,0,8.895-2.095,9.534-2.781c2.603-2.769,3.614-8.914,3.013-18.256l-0.181-2.646
	c-0.896-12.899-1.78-25.811-2.357-38.71C114.054,97.612,137.2,54.897,183.593,31.444c15.315-8.824,43.728-14.405,73.845-14.405
	c17.123,0,48.854,1.91,69.115,14.713c45.869,23.139,69.014,65.861,66.4,123.231c-0.642,13.79-1.591,27.593-2.537,41.382
	c-0.615,9.317,0.396,15.456,2.983,18.225c0.642,0.686,2.603,2.781,9.549,2.781c3.103,0,6.754-0.397,11.177-1.217
	c7.42-1.275,14.903-2.262,22.338-3.243l11.405-1.544c3.103-0.468,6.15,1.416,7.15,4.428c1.141,3.435,2.115,7.017,3.102,10.605
	c0.834,3.063-0.641,6.28-3.497,7.651c-3.308,1.583-6.589,3.21-9.869,4.838c-7.459,3.704-15.175,7.536-23.185,10.81
	c-15.635,6.35-23.76,12.317-26.375,19.352c-2.524,6.792-0.346,16.48,6.845,30.488c21.747,41.985,54.93,69.296,101.411,83.444
	c2.218,0.68,3.908,2.461,4.459,4.703c0.554,2.242-0.114,4.613-1.756,6.241c-10.701,10.573-25.285,13.879-38.151,16.803
	c-20.326,4.612-35.013,7.944-34.771,34.385c0.014,2.127-0.986,4.112-2.69,5.37c-1.718,1.242-3.896,1.589-5.935,0.922
	c-38.062-12.599-70.219-6.612-105.485,20.173C298.539,487.342,276.895,495.352,254.813,495.352z M121.156,432.054
	c26.247,0,51.532,9.511,77.292,29.066c36.5,27.99,76.166,27.99,112.717,0.024c35.922-27.298,70.551-35.051,109.37-24.656
	c3.293-29.208,25.119-34.143,44.562-38.563c7.869-1.781,15.455-3.498,22.004-6.612c-43.549-16.16-75.269-44.316-96.733-85.75
	c-9.111-17.789-11.419-30.451-7.472-41.076c4.049-10.925,14.135-18.986,33.719-26.944c7.562-3.089,15.06-6.812,22.312-10.413
	c1.217-0.603,2.422-1.198,3.639-1.801l-4.383,0.596c-7.266,0.955-14.584,1.916-21.748,3.146
	c-16.303,3.038-26.221,1.308-32.604-5.511c-5.396-5.754-7.408-14.418-6.513-28.08c0.949-13.713,1.898-27.413,2.539-41.107
	c2.384-52.551-17.725-89.974-59.772-111.216c-13.304-8.375-35.937-12.996-62.646-12.996c-27.527,0-54.069,5.03-67.617,12.829
	c-42.344,21.416-62.438,58.832-60.055,111.39c0.577,12.803,1.461,25.606,2.345,38.402l0.192,2.672
	c0.872,13.7-1.141,22.357-6.536,28.111c-6.369,6.799-16.045,8.581-32.655,5.492c-7.112-1.224-14.442-2.185-21.748-3.146
	l-4.319-0.583c1.282,0.635,2.562,1.269,3.845,1.903c7.523,3.729,14.623,7.254,22.107,10.317
	c19.583,7.958,29.668,16.02,33.718,26.952c3.947,10.624,1.653,23.286-7.446,41.036c-21.505,41.46-53.236,69.616-96.76,85.777
	c6.549,3.113,14.136,4.83,22.005,6.611c19.455,4.409,41.28,9.355,44.574,38.563C100.061,433.553,110.813,432.054,121.156,432.054z"
	/>
<path fill="#69C299" d="M169.459,123.441c-0.256,0-0.538-0.013-0.809-0.052c-3.574-0.442-6.139-3.678-5.703-7.26
	c0.142-1.256,3.999-30.88,36.948-48.63c3.18-1.737,7.164-0.525,8.896,2.659c1.717,3.191,0.524,7.17-2.666,8.888
	c-26.722,14.405-30.027,37.672-30.155,38.659C175.546,121.013,172.714,123.441,169.459,123.441z"/>
<path fill="#69C299" d="M169.459,187.886c-3.627,0-6.562-2.935-6.562-6.562v-32.207c0-3.627,2.936-6.562,6.562-6.562
	s6.562,2.935,6.562,6.562v32.207C176.02,184.951,173.086,187.886,169.459,187.886z"/>
</svg>
