<?xml version="1.0" encoding="utf-8"?>
<!-- Generator: Adobe Illustrator 16.0.0, SVG Export Plug-In . SVG Version: 6.00 Build 0)  -->
<!DOCTYPE svg PUBLIC "-//W3C//DTD SVG 1.1//EN" "http://www.w3.org/Graphics/SVG/1.1/DTD/svg11.dtd">
<svg version="1.1" id="Layer_1" xmlns="http://www.w3.org/2000/svg" xmlns:xlink="http://www.w3.org/1999/xlink" x="0px" y="0px"
	 width="512px" height="512px" viewBox="0 0 512 512" enable-background="new 0 0 512 512" xml:space="preserve">
<path fill="#69C299" d="M102.347,63.71c-3.798,0-6.871,3.073-6.871,6.871v385.177h-85.37c-3.798,0-6.871,3.072-6.871,6.871
	c0,3.798,3.073,6.871,6.871,6.871h92.241c3.798,0,6.872-3.073,6.872-6.871V70.581C109.219,66.783,106.145,63.71,102.347,63.71z"/>
<path fill="#5E686B" d="M505.747,295.701l-43.36-32.52V139.765c0-29.218-23.782-52.999-53-52.999H363.26
	c-118.223,0-214.41,96.2-214.41,214.437v126.826c0,3.799,3.073,6.872,6.871,6.872h52.146c13.528,20.536,36.78,34.129,63.151,34.129
	c26.372,0,49.624-13.593,63.153-34.129h52.258c5.998,19.729,24.36,34.129,46.026,34.129s40.029-14.398,46.027-34.129h23.145
	c3.799,0,6.872-3.073,6.872-6.872V301.203C508.5,299.043,507.48,297.003,505.747,295.701z M271.019,455.289
	c-34.102,0-61.842-27.741-61.842-61.844c0-34.104,27.74-61.845,61.842-61.845c34.104,0,61.844,27.741,61.844,61.845
	C332.863,427.548,305.122,455.289,271.019,455.289z M432.456,455.288c-18.948,0-34.354-15.408-34.354-34.344
	c0-18.95,15.406-34.371,34.354-34.371c18.949,0,34.358,15.421,34.357,34.371C466.815,439.88,451.406,455.288,432.456,455.288z
	 M494.757,421.159h-14.205c0.001-0.072,0.006-0.144,0.006-0.215c0-26.533-21.581-48.114-48.102-48.114
	c-26.52,0-48.101,21.581-48.101,48.114c0,0.071,0.005,0.143,0.006,0.215h-43.046c3.399-8.589,5.288-17.934,5.288-27.715
	c0-41.671-33.914-75.585-75.586-75.585c-41.67,0-75.585,33.914-75.585,75.585c0,9.781,1.889,19.126,5.288,27.715h-38.129V301.203
	c0-110.667,90.014-200.694,200.667-200.694h46.127c21.646,0,39.256,17.609,39.256,39.256v126.853c0,2.161,1.021,4.2,2.751,5.503
	l43.363,32.52L494.757,421.159L494.757,421.159z"/>
</svg>
