<?xml version="1.0" encoding="utf-8"?>
<!-- Generator: Adobe Illustrator 16.0.0, SVG Export Plug-In . SVG Version: 6.00 Build 0)  -->
<!DOCTYPE svg PUBLIC "-//W3C//DTD SVG 1.1//EN" "http://www.w3.org/Graphics/SVG/1.1/DTD/svg11.dtd">
<svg version="1.1" id="Layer_1" xmlns="http://www.w3.org/2000/svg" xmlns:xlink="http://www.w3.org/1999/xlink" x="0px" y="0px"
	 width="512px" height="512px" viewBox="0 0 512 512" enable-background="new 0 0 512 512" xml:space="preserve">
<path fill="#69C299" d="M123.174,310.288c-2.87,0-5.54-1.813-6.497-4.684c-10.792-32.39-19.162-41.288-24.281-43.055
	c-4.617-1.612-10.23,1.753-18.868,7.474c-15.542,10.29-39.027,25.859-69.383-9.568c-1.064-1.237-1.646-2.823-1.646-4.456V123.181
	c0-3.787,3.064-6.851,6.852-6.851h149.19c23.886-21.484,15.194-34.611,5.165-49.759c-6.35-9.601-12.927-19.53-8.999-30.905
	c4.262-12.351,19.718-22.16,51.686-32.812c1.405-0.468,2.931-0.468,4.335,0c31.955,10.652,47.404,20.46,51.66,32.805
	c3.928,11.375-2.643,21.304-9,30.905c-10.029,15.148-18.721,28.282,5.166,49.766h130.229c3.787,0,6.852,3.064,6.852,6.851
	s-3.064,6.851-6.852,6.851H255.972c-1.633,0-3.218-0.582-4.463-1.652c-35.388-30.343-19.838-53.834-9.548-69.376
	c5.721-8.645,9.08-14.231,7.474-18.875c-1.726-5.005-10.264-13.107-40.874-23.545c-30.63,10.438-39.174,18.547-40.9,23.552
	c-1.605,4.643,1.753,10.23,7.474,18.868c10.291,15.549,25.84,39.034-9.548,69.376c-1.244,1.07-2.83,1.652-4.462,1.652H16.202
	v123.391c21.498,23.913,34.618,15.215,49.766,5.172c9.602-6.343,19.51-12.914,30.898-9c12.345,4.255,22.16,19.71,32.805,51.672
	c1.198,3.593-0.742,7.474-4.329,8.665C124.619,310.174,123.89,310.288,123.174,310.288z"/>
<path fill="#5E686C" d="M388.783,509.498H255.972c-1.633,0-3.218-0.588-4.456-1.646c-35.395-30.35-19.845-53.841-9.555-69.39
	c5.721-8.651,9.08-14.238,7.474-18.888c-1.726-4.998-10.271-13.107-40.874-23.545c-30.63,10.438-39.174,18.547-40.9,23.552
	c-1.605,4.649,1.753,10.236,7.474,18.888c10.291,15.542,25.84,39.047-9.554,69.383c-1.238,1.058-2.824,1.646-4.456,1.646H9.351
	c-3.787,0-6.852-3.063-6.852-6.851V350.881c0-1.633,0.582-3.219,1.646-4.456c30.342-35.421,53.827-19.858,69.383-9.581
	c8.638,5.714,14.211,9.039,18.875,7.474c4.996-1.727,13.104-10.271,23.543-40.882l13.724,2.169
	c-10.645,31.955-20.46,47.404-32.798,51.666c-11.374,3.914-21.303-2.643-30.905-8.999c-15.147-10.022-28.268-18.741-49.766,5.186
	v142.339h142.339c23.886-21.478,15.194-34.618,5.165-49.766c-6.35-9.608-12.927-19.537-8.999-30.918
	c4.262-12.352,19.718-22.16,51.686-32.812c1.405-0.469,2.931-0.469,4.335,0c31.948,10.645,47.404,20.46,51.66,32.805
	c3.928,11.381-2.643,21.316-9,30.918c-10.029,15.154-18.721,28.295,5.166,49.772h123.377V350.881c0-1.633,0.582-3.219,1.646-4.456
	c30.363-35.4,53.854-19.858,69.41-9.581c8.637,5.714,14.211,9.032,18.881,7.474c5.004-1.733,13.107-10.271,23.545-40.881
	c-10.438-30.616-18.541-39.161-23.545-40.887c-4.703-1.64-10.244,1.759-18.889,7.474c-15.562,10.283-39.066,25.84-69.396-9.568
	c-1.07-1.237-1.652-2.823-1.652-4.456V116.33c0,0,3.064,0,6.852,0s6.852,3.064,6.852,6.851v130.242
	c21.471,23.886,34.625,15.208,49.785,5.172c9.609-6.343,19.518-12.914,30.918-9c12.346,4.262,22.16,19.718,32.805,51.672
	c0.477,1.405,0.477,2.931,0,4.336c-10.645,31.948-20.453,47.404-32.805,51.659c-11.381,3.907-21.303-2.636-30.91-8.992
	c-15.168-10.022-28.309-18.721-49.793,5.186v149.19C395.635,506.435,392.571,509.498,388.783,509.498z"/>
</svg>
