<?xml version="1.0" encoding="utf-8"?>
<!-- Generator: Adobe Illustrator 16.0.0, SVG Export Plug-In . SVG Version: 6.00 Build 0)  -->
<!DOCTYPE svg PUBLIC "-//W3C//DTD SVG 1.1//EN" "http://www.w3.org/Graphics/SVG/1.1/DTD/svg11.dtd">
<svg version="1.1" id="Layer_1" xmlns="http://www.w3.org/2000/svg" xmlns:xlink="http://www.w3.org/1999/xlink" x="0px" y="0px"
	 width="512px" height="512px" viewBox="0 0 512 512" enable-background="new 0 0 512 512" xml:space="preserve">
<path fill="#5E686C" d="M131.105,462.482c-7.161,0-13.142-5.695-13.428-12.875c-0.048-1.145,0.19-2.291,0.688-3.324l20.901-43.262
	c-7.405-6.58-14.259-13.787-20.458-21.514l-78.134,26.854c-1.445,0.52-3.025,0.506-4.483,0.027
	c-6.942-2.329-10.777-9.877-8.563-16.841c0.354-1.09,0.974-2.098,1.806-2.888l60.734-58.596
	c-6.758-18.961-10.178-38.838-10.178-59.147c0-11.043,1.07-22.223,3.188-33.307l-51.306-23.245c-1.39-0.634-2.541-1.71-3.263-3.059
	c-3.461-6.445-1.097-14.6,5.266-18.176c1.022-0.58,2.167-0.886,3.338-0.899l57.479-0.668l-62.738-69.359
	c-1.001-1.104-1.615-2.494-1.771-3.965c-0.368-3.583,0.682-7.085,2.95-9.851c2.269-2.773,5.484-4.489,9.061-4.837
	c1.145-0.137,2.316,0.054,3.386,0.518l90.118,38.007c12.74-11.942,27.033-21.821,42.593-29.451l-4.299-23.45
	c-0.265-1.458-0.067-2.963,0.58-4.292c1.553-3.222,4.271-5.641,7.657-6.806c3.393-1.172,7.038-0.947,10.287,0.647
	c1.049,0.518,1.948,1.288,2.623,2.242l14.088,19.988c0.314-0.082,0.627-0.164,0.94-0.245l4.544-89.982
	c0.075-1.485,0.626-2.909,1.567-4.06c2.289-2.793,5.511-4.517,9.088-4.851c3.522-0.361,7.051,0.763,9.811,3.086
	c0.872,0.735,1.553,1.676,1.976,2.732l36.985,92.12c1.438,3.577-0.299,7.644-3.868,9.075c-3.599,1.417-7.638-0.3-9.075-3.87
	L228.09,22.508l-4.251,84.075c-0.157,3.092-2.343,5.716-5.354,6.431c-3.42,0.811-6.758,1.676-10.09,2.684
	c-2.861,0.899-5.988-0.198-7.726-2.657l-10.975-15.573l3.284,17.924c0.579,3.154-1.069,6.294-3.985,7.616
	c-17.393,7.855-33.157,18.708-46.864,32.245c-2.01,1.996-5.014,2.596-7.616,1.464l-84.927-35.821l61.287,67.759
	c1.948,2.153,2.357,5.28,1.042,7.862c-0.975,1.887-1.73,3.358-2.425,4.864c-1.131,2.439-3.563,4.005-6.247,4.04l-55.871,0.647
	l46.653,21.133c3.004,1.362,4.646,4.653,3.924,7.875c-2.657,11.908-4.006,23.966-4.006,35.841c0,20.152,3.652,39.827,10.859,58.487
	c1.016,2.615,0.354,5.585-1.662,7.534l-56.688,54.691l72.534-24.94c2.833-1.003,6.022-0.014,7.834,2.391
	c7.453,9.865,16.037,18.885,25.521,26.787c2.466,2.044,3.215,5.506,1.819,8.395l-18.783,38.886l35.201-28.845
	c2.18-1.798,5.232-2.099,7.726-0.749c3.856,2.071,7.855,4.019,11.888,5.831l19.88,7.277c14.211,4.141,29.294,6.334,44.384,6.388
	c3.856,0.014,6.97,3.148,6.957,7.005c-0.015,3.843-3.134,6.949-6.977,6.949c-0.007,0-0.014,0-0.021,0
	c-16.405-0.056-32.79-2.439-48.704-7.099l-20.785-7.604c-3.208-1.431-6.192-2.848-9.067-4.292l-40.133,32.894
	c-1.192,0.979-2.671,1.525-4.21,1.579C131.377,462.482,131.24,462.482,131.105,462.482z"/>
<path fill="#69C299" d="M282.189,507.5c-3.135,0-6.139-1.104-8.564-3.147c-0.864-0.736-1.539-1.675-1.961-2.724l-21.978-54.709
	l11.22-9.494l19.817,49.337l2.576-50.877c0.163-3.146,2.419-5.805,5.511-6.473c7.692-1.634,15.214-3.855,22.367-6.566
	c2.942-1.104,6.32-0.11,8.175,2.507l4.55,6.445l-1.472-7.999c-0.565-3.064,0.968-6.132,3.762-7.521
	c19.348-9.605,36.366-22.89,50.577-39.484c1.969-2.31,5.204-3.094,8.011-1.888l79.258,33.456l-59.862-66.19
	c-1.812-2.003-2.309-4.872-1.268-7.366c0.893-2.152,1.744-4.332,2.59-6.512c1.028-2.656,3.57-4.422,6.424-4.455l54.182-0.654
	l-47.859-21.713c-2.826-1.287-4.47-4.278-4.026-7.351c1.125-7.794,1.696-15.602,1.696-23.203c0-6.391-0.423-12.951-1.288-20.056
	c-0.333-2.678,0.92-5.308,3.202-6.745l35.419-22.319l-37.394,4.701c-3.291,0.422-6.479-1.587-7.515-4.782
	c-1.683-5.232-3.598-10.396-5.77-15.397c-1.159-2.67-0.546-5.777,1.553-7.8l63.063-60.892L383.67,166.33
	c-2.685,0.927-5.682,0.116-7.542-2.023c-6.131-7.079-12.938-13.673-20.234-19.614c-2.507-2.044-3.277-5.539-1.874-8.448
	l24.24-50.127l-46.086,37.769c-2.106,1.724-5.022,2.044-7.462,0.886c-18.081-8.754-37.447-13.959-57.565-15.458l5.393-13.533
	c18.824,1.874,37.015,6.747,54.19,14.528l51.156-41.918c1.171-0.961,2.615-1.513,4.127-1.574c7.318-0.34,13.627,5.437,13.952,12.822
	c0.057,1.151-0.184,2.303-0.687,3.345l-26.331,54.453c5.123,4.449,10.007,9.197,14.572,14.191l89.409-30.725
	c1.437-0.483,2.978-0.511,4.408-0.047c3.405,1.104,6.186,3.467,7.813,6.669c1.636,3.209,1.922,6.847,0.803,10.246
	c-0.354,1.083-0.966,2.064-1.784,2.854l-66.935,64.625c0.887,2.208,1.724,4.442,2.528,6.697l42.47-5.341
	c1.513-0.17,3.024,0.109,4.347,0.872c6.369,3.658,8.604,11.854,4.986,18.278c-0.564,1.008-1.376,1.86-2.357,2.473l-40.241,25.356
	c0.605,6.016,0.899,11.725,0.899,17.332c0,6.568-0.389,13.265-1.159,19.975l53.017,24.055c1.376,0.628,2.507,1.677,3.236,3.005
	c1.737,3.161,2.126,6.82,1.104,10.287c-1.008,3.427-3.291,6.247-6.411,7.938c-0.995,0.538-2.104,0.824-3.235,0.838l-57.473,0.693
	l62.752,69.389c1.022,1.117,1.642,2.548,1.777,4.046c0.321,3.624-0.776,7.126-3.092,9.893c-2.282,2.724-5.492,4.387-9.035,4.687
	c-1.108,0.108-2.253-0.081-3.302-0.519l-84.063-35.493c-13.543,14.934-29.28,27.236-46.891,36.652l2.528,13.761
	c0.272,1.484,0.062,2.999-0.601,4.346c-3.242,6.596-11.267,9.362-17.896,6.106c-1.057-0.52-1.955-1.296-2.637-2.25l-7.475-10.585
	c-4.578,1.565-9.278,2.942-14.041,4.113l-2.867,56.682c-0.075,1.484-0.635,2.915-1.581,4.075c-2.296,2.791-5.531,4.509-9.114,4.836
	C283,507.486,282.59,507.5,282.189,507.5z"/>
</svg>
