<?xml version="1.0" encoding="utf-8"?>
<!-- Generator: Adobe Illustrator 16.0.0, SVG Export Plug-In . SVG Version: 6.00 Build 0)  -->
<!DOCTYPE svg PUBLIC "-//W3C//DTD SVG 1.1//EN" "http://www.w3.org/Graphics/SVG/1.1/DTD/svg11.dtd">
<svg version="1.1" id="Layer_1" xmlns="http://www.w3.org/2000/svg" xmlns:xlink="http://www.w3.org/1999/xlink" x="0px" y="0px"
	 width="512px" height="512px" viewBox="0 0 512 512" enable-background="new 0 0 512 512" xml:space="preserve">
<path fill="#69C299" d="M250.092,266.727c-1.755,0-3.511-0.672-4.831-2.031c-2.613-2.666-2.561-6.942,0.105-9.556l127.686-125.046
	c2.666-2.607,6.956-2.547,9.556,0.106c2.613,2.666,2.562,6.942-0.104,9.556L254.817,264.8
	C253.51,266.08,251.794,266.727,250.092,266.727z"/>
<path fill="#5E686B" d="M255.886,505.731c-137.255,0-248.917-111.662-248.917-248.917c0-137.255,111.662-248.917,248.917-248.917
	c59.078,0,116.295,21.032,161.092,59.23c2.838,2.422,3.181,6.685,0.766,9.523c-2.441,2.844-6.705,3.181-9.528,0.759
	c-42.368-36.112-96.458-55.996-152.328-55.996c-129.804,0-235.401,105.597-235.401,235.401c0,129.798,105.598,235.4,235.401,235.4
	c129.798,0,235.4-105.604,235.4-235.4c0-55.673-19.771-109.656-55.686-151.999c-2.402-2.844-2.061-7.107,0.791-9.523
	c2.852-2.402,7.088-2.059,9.53,0.786c37.973,44.783,58.88,101.862,58.88,160.735C504.803,394.069,393.141,505.731,255.886,505.731z"
	/>
<path fill="#5E686B" d="M160.306,413.221c-1.221,0-2.461-0.33-3.57-1.028c-3.167-1.968-4.131-6.139-2.157-9.307
	c21.877-35.043,59.743-55.963,101.308-55.963c41.59,0,79.457,20.92,101.301,55.963c1.98,3.168,1.018,7.339-2.15,9.307
	c-3.114,1.992-7.325,1.043-9.306-2.151c-19.362-31.058-52.954-49.602-89.845-49.602c-36.864,0-70.449,18.544-89.838,49.602
	C164.761,412.099,162.564,413.221,160.306,413.221z"/>
<path fill="#69C299" d="M140.594,169.663c-14.908,0-27.031-12.124-27.031-27.031c0-14.908,12.123-27.031,27.031-27.031
	s27.031,12.123,27.031,27.031C167.625,157.539,155.502,169.663,140.594,169.663z M140.594,129.116
	c-7.451,0-13.516,6.065-13.516,13.516c0,7.451,6.064,13.516,13.516,13.516s13.516-6.065,13.516-13.516
	C154.11,135.181,148.045,129.116,140.594,129.116z"/>
<path fill="#69C299" d="M255.108,122.028c-14.901,0-27.031-12.123-27.031-27.031c0-14.908,12.13-27.031,27.031-27.031
	s27.031,12.123,27.031,27.031C282.139,109.905,270.009,122.028,255.108,122.028z M255.108,81.481
	c-7.458,0-13.516,6.065-13.516,13.516s6.058,13.516,13.516,13.516c7.457,0,13.517-6.065,13.517-13.516
	S262.565,81.481,255.108,81.481z"/>
<path fill="#69C299" d="M417.308,284.861c-14.901,0-27.031-12.129-27.031-27.03c0-14.902,12.13-27.032,27.031-27.032
	s27.031,12.13,27.031,27.032C444.339,272.732,432.209,284.861,417.308,284.861z M417.308,244.315
	c-7.457,0-13.516,6.059-13.516,13.516s6.059,13.517,13.516,13.517s13.516-6.06,13.516-13.517
	C430.823,250.374,424.765,244.315,417.308,244.315z"/>
</svg>
