<?xml version="1.0" encoding="utf-8"?>
<!-- Generator: Adobe Illustrator 16.0.0, SVG Export Plug-In . SVG Version: 6.00 Build 0)  -->
<!DOCTYPE svg PUBLIC "-//W3C//DTD SVG 1.1//EN" "http://www.w3.org/Graphics/SVG/1.1/DTD/svg11.dtd">
<svg version="1.1" id="Layer_1" xmlns="http://www.w3.org/2000/svg" xmlns:xlink="http://www.w3.org/1999/xlink" x="0px" y="0px"
	 width="512px" height="512px" viewBox="0 0 512 512" enable-background="new 0 0 512 512" xml:space="preserve">
<path fill="#5E686C" d="M228.324,236.725c-1.665,0-3.33-0.624-4.609-1.884L77.311,91.292c-2.597-2.545-2.636-6.711-0.09-9.309
	c2.533-2.604,6.711-2.648,9.309-0.09l146.403,143.549c2.598,2.546,2.636,6.711,0.09,9.309
	C231.738,236.062,230.028,236.725,228.324,236.725z"/>
<path fill="#5E686C" d="M432.983,437.404c-1.658,0-3.33-0.63-4.603-1.877L280.086,290.113c-2.597-2.546-2.648-6.711-0.103-9.309
	c2.571-2.577,6.725-2.642,9.309-0.09l148.294,145.407c2.597,2.539,2.648,6.718,0.103,9.302
	C436.39,436.748,434.693,437.404,432.983,437.404z"/>
<path fill="#5E686C" d="M285.203,235.876c-1.684,0-3.368-0.643-4.654-1.929c-2.571-2.571-2.571-6.737,0-9.309L427.248,77.939
	c2.572-2.571,6.737-2.571,9.309,0s2.571,6.737,0,9.309L289.858,233.947C288.573,235.233,286.888,235.876,285.203,235.876z"/>
<path fill="#5E686C" d="M87.037,434.036c-1.684,0-3.369-0.644-4.654-1.929c-2.571-2.571-2.571-6.737,0-9.309l141.158-141.151
	c2.571-2.572,6.737-2.572,9.309,0c2.571,2.571,2.571,6.736,0,9.309L91.692,432.107C90.406,433.393,88.722,434.036,87.037,434.036z"
	/>
<path fill="#5E686C" d="M53.944,426.084c-3.639,0-6.583-2.944-6.583-6.583V95.284c0-3.639,2.944-6.583,6.583-6.583
	c3.638,0,6.583,2.944,6.583,6.583v324.217C60.526,423.14,57.582,426.084,53.944,426.084z"/>
<path fill="#5E686C" d="M421.36,61.405H93.608c-3.639,0-6.583-2.944-6.583-6.583c0-3.638,2.944-6.583,6.583-6.583H421.36
	c3.639,0,6.583,2.944,6.583,6.583C427.943,58.461,424.998,61.405,421.36,61.405z"/>
<path fill="#5E686C" d="M460.857,425.942c-3.638,0-6.583-2.944-6.583-6.583V95.502c0-3.639,2.945-6.583,6.583-6.583
	c3.639,0,6.583,2.944,6.583,6.583v323.857C467.44,422.998,464.495,425.942,460.857,425.942z"/>
<path fill="#5E686C" d="M421.36,465.433H93.453c-3.639,0-6.583-2.944-6.583-6.583s2.944-6.583,6.583-6.583H421.36
	c3.639,0,6.583,2.944,6.583,6.583S424.998,465.433,421.36,465.433z"/>
<path fill="#5E686C" d="M54.625,101.867c-24.911,0-46.761-21.857-46.761-46.774c0-25.451,20.539-45.386,46.761-45.386
	c6.551,0,13.146,1.633,19.588,4.847c16.65,8.338,25.811,23.22,25.811,41.914C100.023,81.501,79.657,101.867,54.625,101.867z
	 M54.625,22.873c-18.835,0-33.596,14.156-33.596,32.22c0,17.903,15.699,33.608,33.596,33.608c17.775,0,32.233-14.458,32.233-32.233
	c0-13.648-6.409-24.068-18.534-30.137C63.734,24.036,59.118,22.873,54.625,22.873z"/>
<path fill="#69C299" d="M257.406,302.926c-25.418,0-46.093-20.668-46.093-46.067c0-25.418,20.674-46.092,46.093-46.092
	c24.969,0,46.067,21.105,46.067,46.092c0,19.466-11.662,36.289-29.713,42.853C269.042,301.273,264.041,302.926,257.406,302.926z
	 M257.406,223.932c-18.154,0-32.927,14.773-32.927,32.927c0,18.142,14.772,32.901,32.927,32.901c4.525,0,7.959-1.131,11.932-2.442
	c12.908-4.699,20.97-16.38,20.97-30.459C290.308,239.315,274.931,223.932,257.406,223.932z"/>
<path fill="#69C299" d="M460.844,101.159c-25.405,0-46.066-20.674-46.066-46.092C414.778,29.667,435.439,9,460.844,9
	c12.947,0,26.229,6.312,34.688,16.476c7.599,9.501,11.404,19.421,11.404,29.591C506.937,80.485,486.263,101.159,460.844,101.159z
	 M460.844,22.166c-18.141,0-32.901,14.76-32.901,32.901c0,18.154,14.761,32.927,32.901,32.927c18.154,0,32.927-14.773,32.927-32.927
	c0-7.207-2.764-14.162-8.446-21.266C479.384,26.659,469.973,22.166,460.844,22.166z"/>
<path fill="#69C299" d="M50.106,505.071c-8.698,0-17.087-3.317-25.65-10.145C14.041,486.3,7.876,472.838,7.876,458.85
	c0-25.328,20.668-45.932,46.067-45.932c24.987,0,46.092,21.04,46.092,45.932c0,25.342-20.674,45.951-46.092,45.951
	C53.256,504.968,51.668,505.071,50.106,505.071z M53.944,426.084c-18.142,0-32.901,14.701-32.901,32.766
	c0,10.119,4.384,19.787,11.719,25.868c7.072,5.632,13.449,7.972,20.25,6.981c19.086-0.063,33.859-14.772,33.859-32.85
	C86.87,441.39,71.487,426.084,53.944,426.084z"/>
<path fill="#5E686C" d="M460.844,504.93c-25.405,0-46.066-20.675-46.066-46.08s20.661-46.073,46.066-46.073
	c25.419,0,46.093,20.668,46.093,46.073c0,10.234-3.42,19.941-9.887,28.093C487.625,498.244,474.125,504.93,460.844,504.93z
	 M460.844,425.942c-18.141,0-32.901,14.766-32.901,32.907c0,18.154,14.761,32.914,32.901,32.914c9.425,0,19.145-4.911,25.997-13.14
	c4.5-5.67,6.93-12.549,6.93-19.774C493.771,440.708,478.998,425.942,460.844,425.942z"/>
</svg>
