<?xml version="1.0" encoding="utf-8"?>
<!-- Generator: Adobe Illustrator 16.0.0, SVG Export Plug-In . SVG Version: 6.00 Build 0)  -->
<!DOCTYPE svg PUBLIC "-//W3C//DTD SVG 1.1//EN" "http://www.w3.org/Graphics/SVG/1.1/DTD/svg11.dtd">
<svg version="1.1" id="Layer_1" xmlns="http://www.w3.org/2000/svg" xmlns:xlink="http://www.w3.org/1999/xlink" x="0px" y="0px"
	 width="512px" height="512px" viewBox="0 0 512 512" enable-background="new 0 0 512 512" xml:space="preserve">
<path fill="#5E686C" d="M401.018,505.885c-3.177,0-7.064-0.881-11.658-3.451l-117.512-65.719
	c-4.407-2.469-10.688-3.888-17.192-3.911c-3.757-0.012-6.798-3.058-6.785-6.815c0.014-3.742,3.054-6.778,6.798-6.778h0.014
	c8.881,0.029,17.341,2.026,23.805,5.636l117.509,65.719c3.359,1.895,5.417,1.881,5.829,1.573c0.333-0.23,1.434-2.111,0.665-6.997
	l-21.693-137.662c-2.391-15.241,4.062-35.57,14.696-46.269l95.948-96.762c2.964-2.985,3.638-5.296,3.376-6.12
	c-0.254-0.75-1.992-2.077-5.778-2.675l-131.661-20.937c-14.779-2.357-31.4-15.149-37.865-29.116L261.334,20.097
	c-1.888-4.076-3.638-5.045-3.971-5.064c-3.758-0.247-6.585-3.485-6.346-7.229c0.251-3.75,3.876-6.5,7.223-6.34
	c3.638,0.239,10.489,2.236,15.44,12.911l58.178,125.511c4.595,9.951,17.259,19.748,27.655,21.408l131.647,20.937
	c11.633,1.832,15.362,8.219,16.572,11.863c1.206,3.71,1.978,11.237-6.627,19.922l-95.961,96.766
	c-7.662,7.706-12.654,23.538-10.913,34.585l21.693,137.663c1.95,12.442-3.135,18.037-6.332,20.27
	C407.865,504.499,404.999,505.885,401.018,505.885z"/>
<path fill="#69C299" d="M107.963,503.947c-4.076,0-6.997-1.454-8.737-2.694c-3.185-2.271-8.205-7.933-6.107-20.354l23.381-137.35
	c1.858-11.014-2.96-26.915-10.515-34.706l-94.781-98.047c-8.511-8.789-7.66-16.312-6.401-20.009
	c1.249-3.629,5.06-9.963,16.717-11.643l131.901-19.205c10.41-1.52,23.194-11.152,27.908-21.037l59.692-124.726
	c5.814-12.108,14.046-12.919,17.22-12.713l-0.877,13.569l0,0c-0.279,0-2.097,0.876-4.089,5.024l-59.679,124.707
	c-6.625,13.887-23.406,26.459-38.208,28.624L23.47,192.599c-3.796,0.544-5.548,1.846-5.802,2.584
	c-0.278,0.815,0.372,3.132,3.307,6.159l94.768,98.041c10.501,10.827,16.729,31.227,14.166,46.437l-23.381,137.359
	c-0.823,4.872,0.253,6.763,0.584,7.004c0.438,0.298,2.43,0.351,5.828-1.495l118.294-64.153c6.36-3.438,14.618-5.324,23.288-5.324
	c0,0,0,13.594,0.146,13.594h-0.013c-0.04,0-0.094,0-0.133,0c-6.359,0-12.481,1.342-16.822,3.686L119.435,500.63
	C114.92,503.093,111.095,503.947,107.963,503.947z"/>
</svg>
