<?xml version="1.0" encoding="utf-8"?>
<!-- Generator: Adobe Illustrator 16.0.0, SVG Export Plug-In . SVG Version: 6.00 Build 0)  -->
<!DOCTYPE svg PUBLIC "-//W3C//DTD SVG 1.1//EN" "http://www.w3.org/Graphics/SVG/1.1/DTD/svg11.dtd">
<svg version="1.1" id="Layer_1" xmlns="http://www.w3.org/2000/svg" xmlns:xlink="http://www.w3.org/1999/xlink" x="0px" y="0px"
	 width="512px" height="512px" viewBox="0 0 512 512" enable-background="new 0 0 512 512" xml:space="preserve">
<path fill="#5E686C" d="M322.893,507.889h-66.556c-3.731,0-6.75-3.02-6.75-6.75s3.02-6.751,6.75-6.751h66.556
	c2.361,0,4.279-1.965,4.279-4.391v-19.843c0-2.426-1.918-4.392-4.279-4.392H281.77c-1.977,0-3.969-0.87-5.247-2.373
	c-1.286-1.517-1.943-3.507-1.628-5.472c0.461-2.795,0.441-4.931,0.437-5.155c-0.146-0.157-6.797-32.696,2.873-52.737
	c7.582-15.703,4.879-39.33,3.343-43.049c-3.079-5.393-6.177-28.334,0.189-39.078c4.068-6.816,5.822-25.328,8.24-50.934l0.187-1.91
	c2.161-22.771-2.802-28.532-2.854-28.584c-1.762-1.267-2.27-2.861-2.27-5.037v-23.68c0-3.731,3.02-6.75,6.752-6.75h5.088
	c8.557-0.593,11.899-27.424,13.324-38.881l0.782-6.052c0.66-4.562,1.945-8.86,3.187-13.013c3.223-10.798,5.772-19.342-1.971-30.048
	c-9.521-13.185-32.705-20.476-40.834-22.176c-3.218-0.672-5.479-3.547-5.365-6.83l0.553-16.547c0.061-1.912,0.93-3.705,2.394-4.931
	c-0.007,0-0.007,0-0.007,0c-0.025,0,5.959-6.447,5.32-26.633c-0.58-17.074-12.479-18.208-14.859-18.261h-7.021
	c-3.731,0-6.75-3.019-6.75-6.75s3.02-6.75,6.75-6.75h7.093c9.414,0,27.443,6.553,28.275,31.327
	c0.651,20.383-4.49,30.509-7.786,34.86l-0.29,8.702c10.33,2.927,32.369,10.706,43.469,26.079
	c11.644,16.112,7.385,30.364,3.969,41.822c-1.151,3.863-2.239,7.502-2.762,11.062l-0.752,5.814
	c-2.393,19.25-5.992,48.137-25.057,50.577v14.556c3.229,4.614,7.186,15.004,5.057,37.392l-0.178,1.912
	c-2.783,29.4-4.457,47.146-10.08,56.562c-3.164,5.354-1.549,22.203,0.139,25.896c3.23,5.604,6.539,35.202-3.119,55.203
	c-6.36,13.186-3.36,37.182-1.674,45.315c0.033,0.264,0.06,0.62,0.078,1.055h34.129c9.803,0,17.779,8.029,17.779,17.893V490
	C340.672,499.859,332.696,507.889,322.893,507.889z"/>
<path fill="#69C299" d="M256.337,507.889h-67.406c-9.783,0-17.747-8.028-17.747-17.892v-19.843c0-9.862,7.963-17.893,17.747-17.893
	h34.135c1.826-9.493,4.733-33.265-1.556-46.344c-9.631-19.948-6.381-49.574-3.092-55.362c1.622-3.56,3.25-20.423,0.065-25.763
	c-5.557-9.309-7.231-26.896-10-56.048l-0.224-2.427c-2.149-22.387,1.812-32.763,5.056-37.378v-14.608
	c-19.11-2.795-22.696-31.405-25.09-50.523l-0.758-5.801c-0.508-3.6-1.602-7.278-2.762-11.181
	c-3.402-11.431-7.635-25.657,3.975-41.729c11.128-15.373,33.133-23.113,43.47-26.04l-0.303-8.688
	c-3.283-4.351-8.412-14.477-7.74-34.874c0.831-24.813,18.861-31.366,28.274-31.366l0.059,13.5
	c-2.405,0.053-14.266,1.213-14.846,18.313c-0.666,20.37,5.432,26.765,5.491,26.831c1.2,1.2,2.108,3.02,2.169,4.72l0.573,16.534
	c0.119,3.283-2.149,6.17-5.366,6.843c-0.29,0.066-29.396,6.329-40.846,22.137c-7.714,10.68-5.176,19.197-1.972,29.969
	c1.252,4.206,2.544,8.543,3.191,13.132l0.784,6.025c1.438,11.458,4.799,38.288,13.798,38.881l4.646-0.013
	c3.731,0,6.75,3.02,6.75,6.75v23.706c0,2.176-1.048,4.219-2.808,5.485l0.007-0.014c0.165,0-4.43,6.078-2.321,28.109l0.231,2.426
	c2.413,25.382,4.153,43.707,8.154,50.405c6.381,10.719,3.29,33.687,0.079,39.343c-1.404,3.468-4.095,27.095,3.514,42.837
	c9.289,19.315,3.44,50.286,2.762,53.661c0.119,0.026,0.14,1.714,0.528,4.232c0.315,1.95-0.244,3.941-1.53,5.444
	c-1.279,1.503-3.158,2.373-5.135,2.373h-41.367c-2.34,0-4.246,1.965-4.246,4.392v19.843c0,2.426,1.905,4.391,4.246,4.391h67.406
	L256.337,507.889z"/>
</svg>
