<?xml version="1.0" encoding="utf-8"?>
<!-- Generator: Adobe Illustrator 16.0.0, SVG Export Plug-In . SVG Version: 6.00 Build 0)  -->
<!DOCTYPE svg PUBLIC "-//W3C//DTD SVG 1.1//EN" "http://www.w3.org/Graphics/SVG/1.1/DTD/svg11.dtd">
<svg version="1.1" id="Layer_1" xmlns="http://www.w3.org/2000/svg" xmlns:xlink="http://www.w3.org/1999/xlink" x="0px" y="0px"
	 width="512px" height="512px" viewBox="0 0 512 512" enable-background="new 0 0 512 512" xml:space="preserve">
<path fill="#5E686C" d="M176.35,506.081c-0.987,0-1.98-0.212-2.901-0.649l-161.566-76.5C9.51,427.806,8,425.42,8,422.797V12.346
	c0-2.325,1.192-4.492,3.153-5.73c1.974-1.252,4.432-1.391,6.532-0.397l161.566,76.5c2.372,1.12,3.882,3.504,3.882,6.128v410.45
	c0,2.318-1.193,4.491-3.153,5.737C178.874,505.724,177.615,506.081,176.35,506.081z M21.567,418.504l148,70.074V93.139l-148-70.075
	V418.504z"/>
<path fill="#5E686C" d="M499.489,506.081c-0.986,0-1.98-0.212-2.9-0.649l-161.566-76.5c-3.386-1.604-4.836-5.658-3.226-9.036
	c1.608-3.392,5.663-4.797,9.028-3.232l151.881,71.915V93.139L335.022,18.474c-3.386-1.604-4.836-5.645-3.226-9.029
	c1.608-3.385,5.663-4.83,9.028-3.227l161.566,76.5c2.371,1.12,3.882,3.504,3.882,6.128v410.45c0,2.318-1.192,4.491-3.153,5.737
	C502.014,505.724,500.754,506.081,499.489,506.081z"/>
<path fill="#5E686C" d="M176.357,506.081c-2.544,0-4.981-1.432-6.141-3.882c-1.603-3.379-0.152-7.433,3.233-9.037l157.691-74.658
	V23.064L179.251,94.981c-3.378,1.603-7.439,0.152-9.036-3.233c-1.603-3.385-0.152-7.433,3.233-9.029L335.022,6.212
	c2.105-0.987,4.57-0.848,6.532,0.404c1.96,1.239,3.152,3.405,3.152,5.73v410.451c0,2.623-1.51,5.009-3.882,6.135l-161.573,76.5
	C178.318,505.869,177.33,506.081,176.357,506.081z"/>
<path fill="#69C299" d="M449.229,211.844c-1.736,0-3.472-0.662-4.796-1.987l-61.052-61.059c-2.65-2.649-2.65-6.942,0-9.592
	c2.649-2.649,6.941-2.649,9.592,0l61.052,61.059c2.65,2.65,2.65,6.943,0,9.592C452.7,211.182,450.965,211.844,449.229,211.844z"/>
<path fill="#69C299" d="M388.176,211.844c-1.735,0-3.471-0.662-4.795-1.987c-2.65-2.649-2.65-6.942,0-9.592l61.052-61.059
	c2.649-2.649,6.941-2.649,9.592,0c2.65,2.65,2.65,6.943,0,9.592l-61.052,61.059C391.649,211.182,389.912,211.844,388.176,211.844z"
	/>
<path fill="#69C299" d="M65.038,379.181c-3.75,0-6.784-3.034-6.784-6.783c0-58.641,25.12-112.062,70.73-150.431
	c59.767-50.267,146.481-70.008,237.946-54.109c3.697,0.635,6.168,4.146,5.525,7.843c-0.648,3.697-4.153,6.293-7.843,5.512
	c-87.484-15.21-170.191,3.432-226.898,51.141c-42.49,35.747-65.895,85.483-65.895,140.043
	C71.821,376.146,68.787,379.181,65.038,379.181z"/>
</svg>
