<?xml version="1.0" encoding="utf-8"?>
<!-- Generator: Adobe Illustrator 16.0.0, SVG Export Plug-In . SVG Version: 6.00 Build 0)  -->
<!DOCTYPE svg PUBLIC "-//W3C//DTD SVG 1.1//EN" "http://www.w3.org/Graphics/SVG/1.1/DTD/svg11.dtd">
<svg version="1.1" id="Layer_1" xmlns="http://www.w3.org/2000/svg" xmlns:xlink="http://www.w3.org/1999/xlink" x="0px" y="0px"
	 width="512px" height="512px" viewBox="0 0 512 512" enable-background="new 0 0 512 512" xml:space="preserve">
<path fill="#5E686B" d="M256,405.481c-95.998,0-175.059-77.303-176.222-172.312l-0.026-2.359c0-3.783,3.062-6.845,6.845-6.845
	s6.845,3.062,6.845,6.845l0.026,2.012c1.07,87.737,73.98,158.97,162.532,158.97c94.312,0,161.156-58.681,162.533-142.7
	c0.027-1.578,0.027-32.732,0.027-33.682c0-3.783,3.061-6.844,6.844-6.844c3.781,0,6.844,3.061,6.844,6.844
	c0,0.969,0,33.02-0.026,33.982C430.739,339.804,356.623,405.481,256,405.481z"/>
<path fill="#5E686B" d="M256,508.659c-3.782,0-6.846-3.062-6.846-6.845v-41.735c0-3.783,3.062-6.846,6.846-6.846
	c3.784,0,6.846,3.062,6.846,6.846v41.735C262.846,505.598,259.783,508.659,256,508.659z"/>
<path fill="#5E686B" d="M295.223,508.659h-78.418c-3.784,0-6.845-3.062-6.845-6.845c0-3.783,3.061-6.845,6.845-6.845h78.418
	c3.783,0,6.846,3.062,6.846,6.845C302.069,505.597,299.006,508.659,295.223,508.659z"/>
<path fill="#69C299" d="M256,328.775c-53.874,0-97.695-43.407-97.695-96.761V98.919c0-53.353,43.822-96.76,97.695-96.76
	c53.887,0,97.723,43.407,97.723,96.76v133.095C353.723,285.368,309.887,328.775,256,328.775z M256,15.849
	c-46.32,0-84.007,37.264-84.007,83.071v133.095c0,45.807,37.687,83.071,84.007,83.071c46.334,0,84.034-37.264,84.034-83.071V98.919
	C340.033,53.113,302.334,15.849,256,15.849z"/>
</svg>
