<?xml version="1.0" encoding="utf-8"?>
<!-- Generator: Adobe Illustrator 16.0.0, SVG Export Plug-In . SVG Version: 6.00 Build 0)  -->
<!DOCTYPE svg PUBLIC "-//W3C//DTD SVG 1.1//EN" "http://www.w3.org/Graphics/SVG/1.1/DTD/svg11.dtd">
<svg version="1.1" id="Layer_1" xmlns="http://www.w3.org/2000/svg" xmlns:xlink="http://www.w3.org/1999/xlink" x="0px" y="0px"
	 width="512px" height="512px" viewBox="0 0 512 512" enable-background="new 0 0 512 512" xml:space="preserve">
<path fill="#5E686C" d="M254.25,505.125c-4.146,0-7.5-3.355-7.5-7.501V103.761c0-4.146,3.355-7.5,7.5-7.5s7.5,3.354,7.5,7.5v393.863
	C261.75,501.77,258.396,505.125,254.25,505.125z"/>
<path fill="#5E686C" d="M389.272,175.028H119.259c-4.146,0-7.5-3.354-7.5-7.5c0-4.146,3.355-7.5,7.5-7.5h270.013
	c4.146,0,7.5,3.354,7.5,7.5C396.772,171.674,393.417,175.028,389.272,175.028z"/>
<path fill="#5E686C" d="M254.25,109.005c-28.947,0-52.502-23.556-52.502-52.502S225.303,4,254.25,4
	c28.946,0,52.502,23.556,52.502,52.502S283.197,109.005,254.25,109.005z M254.25,19c-20.677,0-37.502,16.825-37.502,37.502
	s16.825,37.501,37.502,37.501c20.678,0,37.502-16.824,37.502-37.501S274.928,19,254.25,19z"/>
<path fill="#69C299" d="M254.25,505.125c-119.354,0-228.058-108.704-228.058-228.065v-31.51c0-4.146,3.354-7.5,7.5-7.5
	c4.146,0,7.5,3.355,7.5,7.5v31.51c0,111.509,101.547,213.064,213.057,213.064c111.509,0,213.071-101.556,213.071-213.064v-31.51
	c0-4.146,3.354-7.5,7.501-7.5c4.146,0,7.5,3.355,7.5,7.5v31.51C482.323,396.421,373.612,505.125,254.25,505.125z"/>
<path fill="#69C299" d="M93.696,253.05H33.693c-4.146,0-7.5-3.354-7.5-7.5c0-4.146,3.354-7.5,7.5-7.5h60.002
	c4.146,0,7.5,3.355,7.5,7.5C101.196,249.695,97.842,253.05,93.696,253.05z"/>
<path fill="#69C299" d="M476.214,253.05h-60.003c-4.146,0-7.5-3.354-7.5-7.5c0-4.146,3.354-7.5,7.5-7.5h60.003
	c4.146,0,7.5,3.355,7.5,7.5C483.714,249.695,480.36,253.05,476.214,253.05z"/>
</svg>
