<?xml version="1.0" encoding="utf-8"?>
<!-- Generator: Adobe Illustrator 16.0.0, SVG Export Plug-In . SVG Version: 6.00 Build 0)  -->
<!DOCTYPE svg PUBLIC "-//W3C//DTD SVG 1.1//EN" "http://www.w3.org/Graphics/SVG/1.1/DTD/svg11.dtd">
<svg version="1.1" id="Layer_1" xmlns="http://www.w3.org/2000/svg" xmlns:xlink="http://www.w3.org/1999/xlink" x="0px" y="0px"
	 width="512px" height="512px" viewBox="0 0 512 512" enable-background="new 0 0 512 512" xml:space="preserve">
<path fill="#5E686B" d="M255.884,413.883c-86.471,0-156.828-70.356-156.828-156.828c0-86.479,70.357-156.83,156.828-156.83
	c86.472,0,156.829,70.351,156.829,156.83C412.713,343.525,342.356,413.883,255.884,413.883z M255.884,113.862
	c-78.96,0-143.191,64.238-143.191,143.191c0,78.961,64.231,143.192,143.191,143.192c78.961,0,143.191-64.231,143.191-143.192
	C399.075,178.101,334.845,113.862,255.884,113.862z"/>
<path fill="#69C299" d="M255.884,73.07c-3.769,0-6.818-3.05-6.818-6.818V11.703c0-3.769,3.051-6.819,6.818-6.819
	c3.77,0,6.819,3.05,6.819,6.819v54.549C262.703,70.021,259.654,73.07,255.884,73.07z"/>
<path fill="#69C299" d="M500.557,263.873h-54.55c-3.77,0-6.818-3.05-6.818-6.818c0-3.77,3.05-6.819,6.818-6.819h54.55
	c3.769,0,6.818,3.05,6.818,6.819S504.324,263.873,500.557,263.873z"/>
<path fill="#69C299" d="M65.868,263.873h-54.55c-3.769,0-6.817-3.05-6.817-6.818c0-3.77,3.05-6.819,6.817-6.819h54.55
	c3.769,0,6.818,3.05,6.818,6.819S69.637,263.873,65.868,263.873z"/>
<path fill="#69C299" d="M112.533,121.254c-1.745,0-3.489-0.666-4.821-1.998L69.144,80.688c-2.664-2.664-2.664-6.979,0-9.642
	s6.979-2.664,9.643,0l38.567,38.568c2.664,2.664,2.664,6.979,0,9.642C116.022,120.588,114.278,121.254,112.533,121.254z"/>
<path fill="#69C299" d="M437.271,445.992c-1.744,0-3.489-0.666-4.82-1.998l-38.567-38.568c-2.663-2.663-2.663-6.979,0-9.642
	s6.979-2.663,9.642,0l38.568,38.567c2.663,2.663,2.663,6.979,0,9.643C440.76,445.326,439.016,445.992,437.271,445.992z"/>
<path fill="#69C299" d="M399.169,120.788c-1.745,0-3.489-0.666-4.821-1.998c-2.663-2.664-2.663-6.979,0-9.642l38.567-38.568
	c2.663-2.664,6.979-2.664,9.643,0c2.664,2.664,2.664,6.979,0,9.642L403.99,118.79C402.657,120.122,400.913,120.788,399.169,120.788z
	"/>
<path fill="#69C299" d="M74.431,445.525c-1.745,0-3.489-0.666-4.821-1.997c-2.664-2.664-2.664-6.979,0-9.644l38.568-38.566
	c2.664-2.664,6.979-2.664,9.642,0c2.664,2.663,2.664,6.979,0,9.642l-38.567,38.568C77.921,444.859,76.176,445.525,74.431,445.525z"
	/>
<path fill="#69C299" d="M255.884,506.827c-3.769,0-6.818-3.05-6.818-6.819v-54.549c0-3.769,3.051-6.818,6.818-6.818
	c3.77,0,6.819,3.051,6.819,6.818v54.549C262.703,503.777,259.654,506.827,255.884,506.827z"/>
</svg>
