<?xml version="1.0" encoding="utf-8"?>
<!-- Generator: Adobe Illustrator 16.0.0, SVG Export Plug-In . SVG Version: 6.00 Build 0)  -->
<!DOCTYPE svg PUBLIC "-//W3C//DTD SVG 1.1//EN" "http://www.w3.org/Graphics/SVG/1.1/DTD/svg11.dtd">
<svg version="1.1" id="Layer_1" xmlns="http://www.w3.org/2000/svg" xmlns:xlink="http://www.w3.org/1999/xlink" x="0px" y="0px"
	 width="512px" height="512px" viewBox="0 0 512 512" enable-background="new 0 0 512 512" xml:space="preserve">
<path fill="#5E686C" d="M256.181,506.489c-66.824,0-129.658-26.021-176.922-73.285C32.009,385.954,5.981,323.12,5.981,256.296
	c0.007-66.824,26.028-129.65,73.292-176.901c47.25-47.257,110.084-73.278,176.908-73.278c66.824,0,129.657,26.021,176.907,73.265
	c47.251,47.257,73.287,110.084,73.287,176.915c0,66.824-26.022,129.658-73.287,176.908
	C385.838,480.468,323.019,506.489,256.181,506.489z M256.181,20.016c-63.105,0-122.45,24.576-167.081,69.207
	c-44.631,44.631-69.213,103.962-69.22,167.074c0,63.118,24.576,122.45,69.207,167.08c44.631,44.631,103.976,69.214,167.094,69.214
	c63.118,0,122.463-24.583,167.08-69.214c44.631-44.63,69.213-103.962,69.213-167.08c0-63.119-24.582-122.457-69.213-167.087
	C378.63,44.591,319.299,20.016,256.181,20.016z"/>
<path fill="#5E686C" d="M339.727,179.706c-1.777,0-3.556-0.679-4.913-2.036c-2.714-2.714-2.714-7.113,0-9.827l88.447-88.448
	c2.714-2.715,7.113-2.715,9.827,0c2.715,2.715,2.715,7.113,0,9.828l-88.447,88.447C343.284,179.027,341.506,179.706,339.727,179.706
	z"/>
<path fill="#5E686C" d="M84.186,435.24c-1.778,0-3.556-0.679-4.914-2.036c-2.715-2.715-2.715-7.112,0-9.828l88.447-88.446
	c2.714-2.715,7.113-2.715,9.827,0c2.715,2.715,2.715,7.112,0,9.828L89.1,433.204C87.743,434.562,85.965,435.24,84.186,435.24z"/>
<path fill="#5E686C" d="M428.176,435.24c-1.779,0-3.557-0.679-4.915-2.036l-88.447-88.446c-2.714-2.716-2.714-7.113,0-9.828
	c2.715-2.715,7.112-2.715,9.827,0l88.447,88.446c2.715,2.716,2.715,7.113,0,9.828C431.732,434.562,429.952,435.24,428.176,435.24z"
	/>
<path fill="#5E686C" d="M172.634,179.706c-1.779,0-3.556-0.679-4.914-2.036L79.273,89.222c-2.715-2.715-2.715-7.112,0-9.828
	c2.715-2.715,7.112-2.715,9.828,0l88.447,88.448c2.715,2.714,2.715,7.113,0,9.827C176.19,179.027,174.412,179.706,172.634,179.706z"
	/>
<path fill="#69C299" d="M256.181,381.406c-33.419,0-64.829-13.017-88.461-36.648c-23.632-23.62-36.636-55.03-36.636-88.449
	c0-33.425,13.003-64.842,36.636-88.467c23.632-23.626,55.042-36.636,88.461-36.636s64.828,13.01,88.46,36.636
	c23.632,23.625,36.637,55.042,36.637,88.467c0,33.418-13.005,64.829-36.637,88.449C321.009,368.39,289.6,381.406,256.181,381.406z
	 M256.181,145.106c-29.7,0-57.635,11.564-78.634,32.563c-20.999,20.999-32.563,48.927-32.563,78.64
	c0,29.701,11.565,57.621,32.563,78.621c20.999,21.012,48.934,32.577,78.634,32.577c29.699,0,57.635-11.565,78.633-32.577
	c20.999-21,32.563-48.92,32.563-78.621c0-29.713-11.564-57.641-32.563-78.64C313.816,156.67,285.88,145.106,256.181,145.106z"/>
</svg>
