<?xml version="1.0" encoding="utf-8"?>
<!-- Generator: Adobe Illustrator 16.0.0, SVG Export Plug-In . SVG Version: 6.00 Build 0)  -->
<!DOCTYPE svg PUBLIC "-//W3C//DTD SVG 1.1//EN" "http://www.w3.org/Graphics/SVG/1.1/DTD/svg11.dtd">
<svg version="1.1" id="Layer_1" xmlns="http://www.w3.org/2000/svg" xmlns:xlink="http://www.w3.org/1999/xlink" x="0px" y="0px"
	 width="512px" height="512px" viewBox="0 0 512 512" enable-background="new 0 0 512 512" xml:space="preserve">
<path fill="#69C299" d="M257.019,409.102c-42.199,0-76.536-34.33-76.536-76.528c0-42.214,34.337-76.556,76.536-76.556
	c42.198,0,76.542,34.342,76.542,76.556C333.561,374.771,299.217,409.102,257.019,409.102z M257.019,269.934
	c-34.534,0-62.619,28.105-62.619,62.64c0,34.521,28.085,62.611,62.619,62.611c34.533,0,62.626-28.092,62.626-62.611
	C319.645,298.039,291.552,269.934,257.019,269.934z"/>
<path fill="#5E686B" d="M153.512,222.719c-30.701,0-55.674-24.966-55.674-55.667c0-30.694,24.973-55.667,55.674-55.667
	c30.694,0,55.667,24.973,55.667,55.667C209.179,197.753,184.206,222.719,153.512,222.719z M153.512,125.301
	c-23.022,0-41.757,18.728-41.757,41.75s18.734,41.75,41.757,41.75c23.016,0,41.744-18.728,41.744-41.75
	C195.256,144.029,176.528,125.301,153.512,125.301z"/>
<path fill="#5E686B" d="M360.538,222.719c-30.688,0-55.653-24.966-55.653-55.667c0-30.694,24.966-55.667,55.653-55.667
	c30.7,0,55.682,24.973,55.682,55.667C416.22,197.753,391.24,222.719,360.538,222.719z M360.538,125.301
	c-23.01,0-41.736,18.728-41.736,41.75s18.728,41.75,41.736,41.75c23.021,0,41.765-18.728,41.765-41.75
	C402.303,144.029,383.561,125.301,360.538,125.301z"/>
<path fill="#5E686B" d="M229.226,505.596c-0.271,0-0.53-0.014-0.802-0.041C101.922,491.162,6.522,384.163,6.522,256.654
	c0-138.128,112.375-250.502,250.497-250.502s250.503,112.375,250.503,250.502c0,127.509-95.393,234.508-221.881,248.887
	c-3.778,0.299-7.271-2.311-7.706-6.13c-0.436-3.818,2.312-7.271,6.129-7.706c119.462-13.576,209.541-114.623,209.541-235.05
	c0-130.457-106.13-236.586-236.586-236.586c-130.45,0-236.58,106.129-236.58,236.586c0,120.427,90.093,221.486,209.562,235.062
	c3.818,0.437,6.563,3.889,6.129,7.706C235.722,502.973,232.705,505.596,229.226,505.596z"/>
</svg>
