<?xml version="1.0" encoding="utf-8"?>
<!-- Generator: Adobe Illustrator 16.0.0, SVG Export Plug-In . SVG Version: 6.00 Build 0)  -->
<!DOCTYPE svg PUBLIC "-//W3C//DTD SVG 1.1//EN" "http://www.w3.org/Graphics/SVG/1.1/DTD/svg11.dtd">
<svg version="1.1" id="Layer_1" xmlns="http://www.w3.org/2000/svg" xmlns:xlink="http://www.w3.org/1999/xlink" x="0px" y="0px"
	 width="512px" height="512px" viewBox="0 0 512 512" enable-background="new 0 0 512 512" xml:space="preserve">
<path fill="#5E686B" d="M386.668,232.944H125.332c-63.851,0-115.787-51.929-115.787-115.761S61.482,1.414,125.332,1.414h261.336
	c63.85,0,115.786,51.938,115.786,115.77S450.518,232.944,386.668,232.944z M125.332,19.092c-54.096,0-98.108,44.004-98.108,98.091
	c0,54.086,44.013,98.083,98.108,98.083h261.336c54.094,0,98.106-43.997,98.106-98.083c0-54.087-44.014-98.091-98.106-98.091H125.332
	L125.332,19.092z"/>
<path fill="#69C299" d="M125.314,179.056c-34.112,0-61.872-27.76-61.872-61.873c0-34.113,27.76-61.873,61.872-61.873
	c34.113,0,61.873,27.76,61.873,61.873C187.187,151.296,159.428,179.056,125.314,179.056z M125.314,72.989
	c-24.367,0-44.193,19.827-44.193,44.194c0,24.367,19.826,44.195,44.193,44.195c24.368,0,44.195-19.827,44.195-44.195
	C169.509,92.815,149.683,72.989,125.314,72.989z"/>
<path fill="#69C299" d="M386.684,458.104c-34.111,0-61.871-27.76-61.871-61.872c0-34.111,27.76-61.871,61.871-61.871
	c34.115,0,61.873,27.76,61.873,61.871C448.557,430.344,420.799,458.104,386.684,458.104z M386.684,352.036
	c-24.367,0-44.192,19.828-44.192,44.194c0,24.367,19.825,44.194,44.192,44.194c24.369,0,44.195-19.827,44.195-44.194
	C430.879,371.864,411.053,352.036,386.684,352.036z"/>
<path fill="#5E686B" d="M386.668,512H125.332C61.482,512,9.545,460.062,9.545,396.23s51.937-115.76,115.787-115.76h261.336
	c63.85,0,115.786,51.928,115.786,115.76S450.518,512,386.668,512z M125.332,298.148c-54.096,0-98.108,43.994-98.108,98.082
	s44.013,98.093,98.108,98.093h261.336c54.094,0,98.106-44.005,98.106-98.093s-44.014-98.082-98.106-98.082H125.332L125.332,298.148z
	"/>
</svg>
