<?xml version="1.0" encoding="utf-8"?>
<!-- Generator: Adobe Illustrator 16.0.0, SVG Export Plug-In . SVG Version: 6.00 Build 0)  -->
<!DOCTYPE svg PUBLIC "-//W3C//DTD SVG 1.1//EN" "http://www.w3.org/Graphics/SVG/1.1/DTD/svg11.dtd">
<svg version="1.1" id="Layer_1" xmlns="http://www.w3.org/2000/svg" xmlns:xlink="http://www.w3.org/1999/xlink" x="0px" y="0px"
	 width="512px" height="512px" viewBox="0 0 512 512" enable-background="new 0 0 512 512" xml:space="preserve">
<path fill="#69C299" d="M435.633,167.624c-1.604,0-3.204-0.611-4.43-1.834c-2.445-2.447-2.445-6.41,0-8.857l61.168-61.167
	l-61.168-61.167c-2.445-2.447-2.445-6.41,0-8.857c2.447-2.446,6.411-2.446,8.857,0l65.596,65.595c2.447,2.447,2.447,6.41,0,8.857
	l-65.596,65.596C438.838,167.012,437.237,167.624,435.633,167.624z"/>
<path fill="#69C299" d="M9.264,241.697c-3.462,0-6.264-2.801-6.264-6.264v-84.924c0-36.523,29.708-66.231,66.23-66.231h329.763
	c3.462,0,6.265,2.801,6.265,6.264c0,3.462-2.803,6.264-6.265,6.264H69.232c-29.61,0-53.704,24.093-53.704,53.704v84.924
	C15.528,238.896,12.726,241.697,9.264,241.697z"/>
<path fill="#5E686B" d="M441.261,421.809H110.764c-3.462,0-6.263-2.802-6.263-6.263c0-3.463,2.801-6.265,6.263-6.265h330.497
	c29.609,0,53.704-24.087,53.704-53.704v-86.612c0-3.462,2.802-6.264,6.264-6.264s6.264,2.802,6.264,6.264v86.612
	C507.491,392.094,477.782,421.809,441.261,421.809z"/>
<path fill="#5E686B" d="M176.384,487.404c-1.604,0-3.206-0.612-4.429-1.835l-65.62-65.597c-1.174-1.174-1.834-2.764-1.834-4.428
	s0.66-3.254,1.834-4.43l65.62-65.619c2.446-2.447,6.411-2.447,8.856,0c2.447,2.446,2.447,6.41,0,8.856l-61.19,61.191l61.19,61.166
	c2.447,2.446,2.447,6.411,0,8.857C179.589,486.792,177.987,487.404,176.384,487.404z"/>
</svg>
