<?xml version="1.0" encoding="utf-8"?>
<!-- Generator: Adobe Illustrator 16.0.0, SVG Export Plug-In . SVG Version: 6.00 Build 0)  -->
<!DOCTYPE svg PUBLIC "-//W3C//DTD SVG 1.1//EN" "http://www.w3.org/Graphics/SVG/1.1/DTD/svg11.dtd">
<svg version="1.1" id="Layer_1" xmlns="http://www.w3.org/2000/svg" xmlns:xlink="http://www.w3.org/1999/xlink" x="0px" y="0px"
	 width="512px" height="512px" viewBox="0 0 512 512" enable-background="new 0 0 512 512" xml:space="preserve">
<path fill="#5E686B" d="M434.007,509.487H86.199c-12.467,0-22.613-10.153-22.613-22.619V28.396c0-12.473,10.146-22.62,22.613-22.62
	h347.808c12.466,0,22.619,10.147,22.619,22.62v458.473C456.626,499.334,446.473,509.487,434.007,509.487z M86.199,19.385
	c-4.965,0-9.005,4.04-9.005,9.011v458.473c0,4.971,4.04,9.011,9.005,9.011h347.808c4.971,0,9.011-4.04,9.011-9.011V28.396
	c0-4.971-4.04-9.011-9.011-9.011H86.199z"/>
<path fill="#69C299" d="M260.097,469.047c-15.005,0-27.218-12.214-27.218-27.218s12.213-27.218,27.218-27.218
	c15.004,0,27.217,12.214,27.217,27.218S275.101,469.047,260.097,469.047z M260.097,428.22c-7.509,0-13.609,6.102-13.609,13.609
	s6.101,13.608,13.609,13.608s13.608-6.101,13.608-13.608S267.606,428.22,260.097,428.22z"/>
<path fill="#69C299" d="M280.51,59.56h-40.827c-3.761,0-6.804-3.043-6.804-6.804c0-3.761,3.043-6.805,6.804-6.805h40.827
	c3.761,0,6.804,3.043,6.804,6.805C287.314,56.517,284.271,59.56,280.51,59.56z"/>
</svg>
