<?xml version="1.0" encoding="utf-8"?>
<!-- Generator: Adobe Illustrator 16.0.0, SVG Export Plug-In . SVG Version: 6.00 Build 0)  -->
<!DOCTYPE svg PUBLIC "-//W3C//DTD SVG 1.1//EN" "http://www.w3.org/Graphics/SVG/1.1/DTD/svg11.dtd">
<svg version="1.1" id="Layer_1" xmlns="http://www.w3.org/2000/svg" xmlns:xlink="http://www.w3.org/1999/xlink" x="0px" y="0px"
	 width="512px" height="512px" viewBox="0 0 512 512" enable-background="new 0 0 512 512" xml:space="preserve">
<path fill="#5E686C" d="M400.328,507h-92.76c-3.738,0-6.762-3.024-6.762-6.764c0-38.202-30.187-71.723-64.597-71.723
	c-10.806,0-14.861,1.467-18.441,2.762l-1.849,0.653c-3.541,1.195-7.384-0.713-8.56-4.26c-1.189-3.547,0.713-7.378,4.253-8.567
	l1.559-0.548c4.161-1.505,9.868-3.566,23.038-3.566c39.537,0,74.464,35.957,77.858,78.486h79.496v-36.037
	c0-3.738,3.025-6.763,6.765-6.763c3.738,0,6.762,3.024,6.762,6.763v42.8C407.09,503.976,404.067,507,400.328,507z M164.85,507
	H72.092c-3.738,0-6.763-3.024-6.763-6.764V57.835c0-3.738,3.025-6.763,6.763-6.763h42.813c3.738,0,6.764,3.025,6.764,6.763
	s-3.025,6.764-6.764,6.764H78.855v428.875h79.443c0.542-10.106,2.523-28.679,9.67-39.716c2.034-3.131,6.248-4.01,9.352-2.002
	c3.144,2.035,4.029,6.223,2.008,9.354c-6.103,9.418-7.714,29.708-7.714,39.127C171.614,503.976,168.589,507,164.85,507z"/>
<path fill="#69C299" d="M443.142,464.2h-92.76c-3.738,0-6.764-3.024-6.764-6.764c0-38.216-30.185-71.735-64.597-71.735
	c-34.781,0-65.294,33.52-65.294,71.735c0,3.739-3.025,6.764-6.764,6.764h-92.059c-3.738,0-6.763-3.024-6.763-6.764V15.022
	c0-3.738,3.025-6.763,6.763-6.763h92.759c3.738,0,6.764,3.025,6.764,6.763c0,38.209,30.184,71.729,64.595,71.729
	c34.412,0,64.597-33.52,64.597-71.729c0-3.738,3.025-6.763,6.764-6.763h92.76c3.736,0,6.762,3.025,6.762,6.763v442.415
	C449.904,461.176,446.878,464.2,443.142,464.2z M356.881,450.674h79.496V21.786h-79.496c-3.396,42.535-38.321,78.492-77.859,78.492
	c-39.536,0-74.462-35.957-77.857-78.492h-79.496v428.888h78.809c3.421-42.536,38.652-78.499,78.544-78.499
	C318.56,372.175,353.486,408.138,356.881,450.674z"/>
<path fill="#5E686C" d="M407.897,164.504H164.415c-3.739,0-6.763-3.025-6.763-6.764c0-3.738,3.024-6.763,6.763-6.763h243.482
	c3.738,0,6.764,3.025,6.764,6.763C414.66,161.479,411.635,164.504,407.897,164.504z"/>
</svg>
