<?xml version="1.0" encoding="utf-8"?>
<!-- Generator: Adobe Illustrator 16.0.0, SVG Export Plug-In . SVG Version: 6.00 Build 0)  -->
<!DOCTYPE svg PUBLIC "-//W3C//DTD SVG 1.1//EN" "http://www.w3.org/Graphics/SVG/1.1/DTD/svg11.dtd">
<svg version="1.1" id="Layer_1" xmlns="http://www.w3.org/2000/svg" xmlns:xlink="http://www.w3.org/1999/xlink" x="0px" y="0px"
	 width="512px" height="512px" viewBox="0 0 512 512" enable-background="new 0 0 512 512" xml:space="preserve">
<path fill="#5E686B" d="M199.978,146.956c3.989-3.171,8.63-5.54,13.668-6.833c-5.465-46.212-49.424-81.886-101.854-81.886
	c-4.02,0-7.271,3.25-7.271,7.268c0,4.017,3.251,7.268,7.271,7.268c46.242,0,84.774,31.67,87.721,72.099
	C199.566,145.605,199.728,146.304,199.978,146.956z"/>
<path fill="#5E686B" d="M136.385,224.703c-1.062-0.273-2.194-0.316-3.319-0.066c-17.46,3.833-36.291,2.796-53.205-2.967
	c-1.682-0.596-3.549-0.496-5.201,0.185l-13.812,5.962l-2.158-13.812c-0.298-1.916-1.348-3.62-2.91-4.755
	c-20.277-14.728-31.91-36.376-31.91-59.394c0-42.502,39.44-77.082,87.927-77.082c4.018,0,7.268-3.251,7.268-7.268
	c0-4.018-3.251-7.268-7.268-7.268C55.295,58.237,9.33,99.34,9.33,149.855c0,26.772,12.889,51.877,35.46,69.331l2.385,14.848
	c0.071,3.677,2.108,7.07,5.33,8.844c1.646,0.908,3.492,1.32,5.188,1.32c1.611,0,3.104-0.369,4.178-1.065l15.982-6.828
	c16.54,5.172,34.539,6.453,51.747,3.753C130.641,234.402,133.013,229.165,136.385,224.703z"/>
<path fill="#69C299" d="M418.905,462.752c-2.385,0-4.727-0.653-6.8-1.889l-32.934-14.024c-21.521,7.055-44.077,10.632-67.088,10.632
	c-107.197,0-194.414-77.663-194.414-173.128c0-95.472,87.217-173.143,194.414-173.143c107.219,0,194.448,77.67,194.448,173.143
	c0,51.305-25.183,99.411-69.203,132.444l-5.295,33.97C431.99,456.932,426.059,462.752,418.905,462.752z M379.484,431.806
	c0.979,0,1.944,0.198,2.854,0.582l35.545,15.203l5.551-36c0.298-1.916,1.349-3.619,2.91-4.755
	c41.721-30.308,65.652-74.952,65.652-122.493c0-87.458-80.716-158.606-179.912-158.606c-99.186,0-179.878,71.148-179.878,158.606
	c0,87.444,80.692,158.592,179.878,158.592c22.356,0,44.231-3.604,65.044-10.729C377.894,431.934,378.689,431.806,379.484,431.806z"
	/>
</svg>
