<?xml version="1.0" encoding="utf-8"?>
<!-- Generator: Adobe Illustrator 16.0.0, SVG Export Plug-In . SVG Version: 6.00 Build 0)  -->
<!DOCTYPE svg PUBLIC "-//W3C//DTD SVG 1.1//EN" "http://www.w3.org/Graphics/SVG/1.1/DTD/svg11.dtd">
<svg version="1.1" id="Layer_1" xmlns="http://www.w3.org/2000/svg" xmlns:xlink="http://www.w3.org/1999/xlink" x="0px" y="0px"
	 width="512px" height="512px" viewBox="0 0 512 512" enable-background="new 0 0 512 512" xml:space="preserve">
<path fill="#69C299" d="M193.123,375.765c-30.265,0-54.888-24.618-54.888-54.89s24.623-54.888,54.888-54.888
	c30.265,0,54.888,24.616,54.888,54.888S223.388,375.765,193.123,375.765z M193.123,279.708c-22.7,0-41.166,18.467-41.166,41.167
	s18.466,41.165,41.166,41.165c22.701,0,41.167-18.465,41.167-41.165S215.824,279.708,193.123,279.708z"/>
<path fill="#5E686C" d="M193.123,444.372c-68.094,0-123.498-55.396-123.498-123.497c0-68.102,55.404-123.499,123.498-123.499
	c68.095,0,123.499,55.396,123.499,123.499C316.622,388.976,261.218,444.372,193.123,444.372z M193.123,211.099
	c-60.529,0-109.776,49.246-109.776,109.776c0,60.527,49.247,109.776,109.776,109.776c60.53,0,109.776-49.249,109.776-109.776
	C302.9,260.345,253.653,211.099,193.123,211.099z"/>
<path fill="#5E686C" d="M193.123,509.018c-103.746,0-188.155-84.396-188.155-188.143c0-103.76,84.409-188.168,188.155-188.168
	c103.746,0,188.154,84.409,188.154,188.168C381.278,424.621,296.869,509.018,193.123,509.018z M193.123,146.428
	c-96.181,0-174.433,78.258-174.433,174.447c0,96.175,78.252,174.418,174.433,174.418c96.182,0,174.434-78.243,174.434-174.418
	C367.557,224.687,289.305,146.428,193.123,146.428z"/>
<path fill="#5E686C" d="M410.94,180.988c-17.346,0-34.854-8.71-52.04-25.903c-21.434-21.441-29.634-43.176-24.361-64.603
	C347.783,36.639,442.98,6.313,447.028,5.041c2.083-0.616,4.361-0.254,6.111,1.018c1.755,1.3,2.794,3.351,2.794,5.535v46.472h46.458
	c2.185,0,4.235,1.045,5.527,2.801c1.294,1.756,1.676,4.02,1.02,6.111C507.484,71.627,472.595,180.988,410.94,180.988z
	 M442.21,21.255c-23.344,8.67-85.093,34.854-94.346,72.51c-4.041,16.456,2.935,33.809,20.737,51.619
	c14.52,14.526,28.764,21.883,42.338,21.883c42.601,0,72.437-70.218,81.791-95.478h-43.66c-3.793,0-6.86-3.069-6.86-6.861V21.255z"/>
<path fill="#5E686C" d="M11.83,509.018c-1.756,0-3.511-0.672-4.852-2.013c-2.68-2.68-2.68-7.021,0-9.699l53.32-53.307
	c2.68-2.682,7.022-2.682,9.702,0c2.681,2.678,2.681,7.02,0,9.699l-53.32,53.307C15.34,508.346,13.585,509.018,11.83,509.018z"/>
<path fill="#5E686C" d="M374.417,509.018c-1.756,0-3.511-0.672-4.852-2.013l-53.319-53.307c-2.68-2.68-2.68-7.021,0-9.699
	c2.68-2.682,7.021-2.682,9.702,0l53.32,53.307c2.681,2.678,2.681,7.02,0,9.699C377.929,508.346,376.173,509.018,374.417,509.018z"/>
<path fill="#69C299" d="M193.123,327.734c-1.755,0-3.51-0.67-4.851-2.009c-2.681-2.68-2.681-7.021,0-9.703L444.22,60.076
	c2.681-2.68,7.022-2.68,9.702,0c2.68,2.68,2.68,7.021,0,9.702L197.975,325.726C196.635,327.064,194.879,327.734,193.123,327.734z"/>
<path fill="#69C299" d="M395.752,125.095c-3.793,0-6.862-3.069-6.862-6.861V34.938c0-3.792,3.069-6.861,6.862-6.861
	c3.79,0,6.86,3.069,6.86,6.861v83.296C402.613,122.026,399.542,125.095,395.752,125.095z"/>
</svg>
