<?xml version="1.0" encoding="utf-8"?>
<!-- Generator: Adobe Illustrator 16.0.0, SVG Export Plug-In . SVG Version: 6.00 Build 0)  -->
<!DOCTYPE svg PUBLIC "-//W3C//DTD SVG 1.1//EN" "http://www.w3.org/Graphics/SVG/1.1/DTD/svg11.dtd">
<svg version="1.1" id="Layer_1" xmlns="http://www.w3.org/2000/svg" xmlns:xlink="http://www.w3.org/1999/xlink" x="0px" y="0px"
	 width="512px" height="512px" viewBox="0 0 512 512" enable-background="new 0 0 512 512" xml:space="preserve">
<path fill="none" stroke="#69C299" stroke-linecap="round" stroke-linejoin="round" stroke-miterlimit="10" d="M109.84,419.301"/>
<path fill="#5E686B" d="M460.851,508.742H50.384c-3.781,0-6.841-3.061-6.841-6.842c0-3.78,3.06-6.841,6.841-6.841h410.467
	c3.78,0,6.841,3.061,6.841,6.841C467.692,505.683,464.631,508.742,460.851,508.742z"/>
<g id="Cofee_cup_1_1_">
	<g>
		<path fill="#5E686B" d="M322.93,445.475H131.424c-3.508,0-6.989-1.148-9.801-3.247C75.959,408.209,49.77,356.432,49.77,300.18
			v-96.553c0-9.059,7.376-16.435,16.436-16.435h322.039c9.058,0,16.435,7.376,16.435,16.435v34.06
			c37.52,7.957,64.844,41.161,64.43,79.548c-0.561,44.106-36.825,79.978-80.838,79.978c-4.743-0.041-8.793-0.829-12.627-1.724
			c-12.053,18.8-26.47,34.499-42.905,46.738C329.947,444.312,326.458,445.475,322.93,445.475z M66.204,200.874
			c-1.518,0-2.752,1.236-2.752,2.752v96.552c0,51.892,24.178,99.666,66.341,131.065c0.467,0.36,1.049,0.548,1.63,0.548H322.93
			c0.575,0,1.163-0.188,1.617-0.535c16.273-12.104,30.411-27.952,42.05-47.133c1.562-2.545,4.649-3.795,7.442-3.106l2.189,0.534
			c4.062,0.996,7.91,1.944,11.237,1.979c37.373,0,67.504-29.812,67.959-66.454c0.359-33.485-24.8-62.239-58.524-66.863
			c-3.381-0.468-5.905-3.36-5.905-6.781v-39.805c0-1.516-1.229-2.752-2.752-2.752H66.204L66.204,200.874z"/>
	</g>
</g>
<path fill="#69C299" d="M146.642,140.386c-3.781,0-6.841-3.06-6.841-6.841V51.45c0-3.781,3.06-6.841,6.841-6.841
	s6.841,3.06,6.841,6.841v82.095C153.484,137.326,150.424,140.386,146.642,140.386z"/>
<path fill="#69C299" d="M307.779,140.386c-3.781,0-6.842-3.06-6.842-6.841V51.45c0-3.781,3.061-6.841,6.842-6.841
	s6.842,3.06,6.842,6.841v82.095C314.619,137.326,311.56,140.386,307.779,140.386z"/>
<path fill="#69C299" d="M227.154,140.386c-3.78,0-6.841-3.06-6.841-6.841V10.403c0-3.782,3.061-6.842,6.841-6.842
	c3.782,0,6.842,3.06,6.842,6.842v123.142C233.995,137.326,230.935,140.386,227.154,140.386z"/>
</svg>
