<?xml version="1.0" encoding="utf-8"?>
<!-- Generator: Adobe Illustrator 16.0.0, SVG Export Plug-In . SVG Version: 6.00 Build 0)  -->
<!DOCTYPE svg PUBLIC "-//W3C//DTD SVG 1.1//EN" "http://www.w3.org/Graphics/SVG/1.1/DTD/svg11.dtd">
<svg version="1.1" id="Layer_1" xmlns="http://www.w3.org/2000/svg" xmlns:xlink="http://www.w3.org/1999/xlink" x="0px" y="0px"
	 width="512px" height="512px" viewBox="0 0 512 512" enable-background="new 0 0 512 512" xml:space="preserve">
<path fill="#5E686B" d="M249.06,507.736H27.812c-12.443,0-22.568-10.125-22.568-22.576V26.881c0-12.451,10.125-22.576,22.568-22.576
	h331.854c12.451,0,22.575,10.125,22.575,22.576v79.001c0,3.741-3.026,6.768-6.769,6.768c-3.74,0-6.767-3.027-6.767-6.768V26.881
	c0-4.983-4.06-9.041-9.041-9.041H27.812c-4.982,0-9.034,4.058-9.034,9.041V485.16c0,4.982,4.052,9.041,9.034,9.041H249.06
	c3.741,0,6.769,3.025,6.769,6.768C255.828,504.709,252.801,507.736,249.06,507.736z"/>
<path fill="#69C299" d="M486.105,507.736H312.267c-12.451,0-22.575-10.125-22.575-22.576V169.102
	c0-12.451,10.124-22.575,22.575-22.575h173.838c12.438,0,22.562,10.125,22.562,22.575V485.16
	C508.665,497.611,498.541,507.736,486.105,507.736z M312.267,160.061c-4.982,0-9.041,4.058-9.041,9.041V485.16
	c0,4.982,4.059,9.041,9.041,9.041h173.838c4.982,0,9.027-4.059,9.027-9.041V169.102c0-4.983-4.045-9.041-9.027-9.041H312.267z"/>
<path fill="#5E686B" d="M193.745,472.736c-14.93,0-27.07-12.147-27.07-27.083c0-14.923,12.141-27.058,27.07-27.058
	c14.929,0,27.069,12.135,27.069,27.058C220.815,460.589,208.674,472.736,193.745,472.736z M193.745,432.132
	c-7.461,0-13.535,6.066-13.535,13.521c0,7.468,6.073,13.548,13.535,13.548s13.534-6.08,13.534-13.548
	C207.28,438.198,201.206,432.132,193.745,432.132z"/>
<path fill="#69C299" d="M399.186,472.736c-14.923,0-27.068-12.147-27.068-27.083c0-14.923,12.146-27.058,27.068-27.058
	s27.069,12.135,27.069,27.058C426.255,460.589,414.109,472.736,399.186,472.736z M399.186,432.132
	c-7.468,0-13.535,6.066-13.535,13.521c0,7.468,6.067,13.548,13.535,13.548s13.535-6.08,13.535-13.548
	C412.721,438.198,406.654,432.132,399.186,432.132z"/>
</svg>
