<?xml version="1.0" encoding="utf-8"?>
<!-- Generator: Adobe Illustrator 16.0.0, SVG Export Plug-In . SVG Version: 6.00 Build 0)  -->
<!DOCTYPE svg PUBLIC "-//W3C//DTD SVG 1.1//EN" "http://www.w3.org/Graphics/SVG/1.1/DTD/svg11.dtd">
<svg version="1.1" id="Layer_1" xmlns="http://www.w3.org/2000/svg" xmlns:xlink="http://www.w3.org/1999/xlink" x="0px" y="0px"
	 width="512px" height="512px" viewBox="0 0 512 512" enable-background="new 0 0 512 512" xml:space="preserve">
<path fill="#5E686B" d="M400.769,50.673c-1.45-3.665-4.401-6.539-8.167-7.91c-3.65-1.285-7.791-0.995-11.127,0.778l-168.07,88.679
	c-6.161,3.263-8.926,10.632-6.427,17.152l1.358,3.54l-91.882,50.387c-6.19,3.415-8.808,10.903-6.099,17.376l0.758,1.819
	l-97.279,46.498C7.216,272.182,4.243,280,7.064,286.764l21.16,50.969c2.162,5.168,7.165,8.503,12.735,8.503
	c1.581,0,3.144-0.276,4.612-0.805l101.601-35.99l0.771,1.856c2.169,5.168,7.181,8.519,12.764,8.519c1.441,0,2.834-0.225,3.814-0.566
	l96.769-27.87l0.861,2.241c2.532,6.604,10.312,10.351,16.937,8.253l183.501-56.452c3.665-1.134,6.734-3.757,8.396-7.198
	c1.688-3.494,1.818-7.554,0.369-11.114L400.769,50.673z M160.4,306.104l-3.204-7.752c-1.369-3.309-5.107-4.971-8.488-3.783
	l-107.69,38.152c-0.046,0.015-0.064,0.015-0.064,0.015l0.007,6.75l-0.277-6.947L19.68,281.161l103.029-49.242
	c3.235-1.543,4.691-5.353,3.32-8.675l-3.07-8.121l90.248-49.489l43.228,113.073L160.4,306.104z M274.753,288.781l-55.039-144.623
	l168.504-88.501l70.397,176.856L274.753,288.781z"/>
<path fill="#69C299" d="M506.632,234.162l-84.719-211.74c-1.385-3.468-5.325-5.148-8.767-3.764
	c-3.468,1.384-5.143,5.313-3.758,8.774l84.717,211.74c1.055,2.637,3.586,4.245,6.263,4.245c0.83,0,1.688-0.159,2.507-0.488
	C506.342,241.545,508.017,237.616,506.632,234.162z"/>
<path fill="#5E686B" d="M295.874,389.449v-15.019c0-20.21-15.366-36.028-34.978-36.028H218.54c-19.94,0-34.978,15.042-34.978,34.987
	v16.06l-81.369,94.934c-2.426,2.835-2.096,7.093,0.738,9.521c2.835,2.438,7.087,2.097,9.521-0.738l82.988-96.832
	c1.048-1.227,1.622-2.783,1.622-4.391v-18.551c0-12.443,9.031-21.487,21.478-21.487h42.357c12.043,0,21.478,9.898,21.478,22.528
	v17.51c0,1.607,0.571,3.164,1.622,4.391l82.988,96.832c1.339,1.555,3.23,2.36,5.128,2.36c1.557,0,3.118-0.541,4.391-1.622
	c2.835-2.428,3.164-6.686,0.738-9.521L295.874,389.449z"/>
<path fill="#5E686B" d="M239.726,386.628c-3.729,0-6.75,3.021-6.75,6.75v95.396c0,3.729,3.021,6.75,6.75,6.75
	c3.731,0,6.75-3.021,6.75-6.75v-95.396C246.476,389.647,243.457,386.628,239.726,386.628z"/>
</svg>
