<?xml version="1.0" encoding="utf-8"?>
<!-- Generator: Adobe Illustrator 16.0.0, SVG Export Plug-In . SVG Version: 6.00 Build 0)  -->
<!DOCTYPE svg PUBLIC "-//W3C//DTD SVG 1.1//EN" "http://www.w3.org/Graphics/SVG/1.1/DTD/svg11.dtd">
<svg version="1.1" id="Layer_1" xmlns="http://www.w3.org/2000/svg" xmlns:xlink="http://www.w3.org/1999/xlink" x="0px" y="0px"
	 width="512px" height="512px" viewBox="0 0 512 512" enable-background="new 0 0 512 512" xml:space="preserve">
<path fill="#69C299" d="M84.392,79.27c-16.719,0-30.313,13.596-30.313,30.315c0,16.719,13.596,30.315,30.313,30.315
	c16.72,0,30.315-13.596,30.315-30.315C114.707,92.866,101.111,79.27,84.392,79.27z M84.392,124.743
	c-8.354,0-15.158-6.802-15.158-15.158s6.804-15.158,15.158-15.158c8.356,0,15.158,6.802,15.158,15.158
	S92.748,124.743,84.392,124.743z"/>
<path fill="#5E686B" d="M494.885,237.257c5.537-18.563,5.313-45.044-11.9-65.013c0.888-31.455-7.399-55.413-24.068-69.719
	c-1.286-18.304-9.771-39.101-21.716-52.786c-9.844-11.45-21.515-17.497-33.74-17.497H191.977c-9.532,0-19.697,3.165-29.848,9.221
	c-6.49-18.684-24.26-32.135-45.126-32.135H51.768C25.427,9.328,4,30.755,4,57.096v240.509c0,26.332,21.427,47.752,47.768,47.752
	h65.234c22.353,0,41.159-15.429,46.343-36.189c23.7,23.836,39.038,58.093,54.979,103.867v60.273c0,3.493,0.933,6.884,2.7,9.814
	c8.371,13.928,22.788,21.907,39.561,21.907c20.397,0,41.684-12.005,56.937-32.137c13.744-18.206,34.062-58.483,20.672-127.508
	h87.188c26.726,0,77.838-25.742,77.838-66.108C503.219,266.506,501.709,249.38,494.885,237.257z M149.611,297.605
	c0,17.971-14.631,32.596-32.607,32.596H51.768c-17.977,0-32.607-14.625-32.607-32.596V57.096c0-17.978,14.631-32.61,32.607-32.61
	h65.234c17.977,0,32.607,14.632,32.607,32.61L149.611,297.605L149.611,297.605z M425.381,330.229h-96.542
	c-2.311,0-4.492,1.052-5.928,2.857c-1.438,1.806-1.979,4.174-1.458,6.424c15.777,68.713-3.272,107.349-16.019,124.251
	c-12.396,16.341-29.168,26.112-44.852,26.112c-11.324,0-21.005-5.314-26.578-14.566c-0.347-0.575-0.525-1.258-0.525-1.998v-61.548
	c0-0.843-0.141-1.687-0.422-2.485c-18.731-53.999-36.84-93.04-68.29-119.354V57.841c9.483-6.748,19.045-10.441,27.207-10.441
	h211.481c7.677,0,15.372,4.226,22.285,12.264c10.438,11.953,17.911,31.181,18.18,46.753c0.044,2.339,1.152,4.523,3.032,5.929
	c14.967,11.242,22.159,32.801,20.782,62.34c-0.103,2.072,0.651,4.1,2.088,5.595c15.838,16.519,15.083,40.188,9.621,55.435
	c-0.844,2.338-0.474,4.944,0.962,6.957c4.931,6.927,7.653,19.925,7.653,36.606C488.062,310.453,443.98,330.229,425.381,330.229z"/>
</svg>
