<?xml version="1.0" encoding="utf-8"?>
<!-- Generator: Adobe Illustrator 16.0.0, SVG Export Plug-In . SVG Version: 6.00 Build 0)  -->
<!DOCTYPE svg PUBLIC "-//W3C//DTD SVG 1.1//EN" "http://www.w3.org/Graphics/SVG/1.1/DTD/svg11.dtd">
<svg version="1.1" id="Layer_1" xmlns="http://www.w3.org/2000/svg" xmlns:xlink="http://www.w3.org/1999/xlink" x="0px" y="0px"
	 width="512px" height="512px" viewBox="0 0 512 512" enable-background="new 0 0 512 512" xml:space="preserve">
<path fill="#69C299" d="M86.51,370.631c-16.744,0-30.36,13.623-30.36,30.359c0,16.734,13.616,30.357,30.36,30.357
	c16.743,0,30.359-13.623,30.359-30.357C116.869,384.254,103.254,370.631,86.51,370.631z M86.51,416.17
	c-8.368,0-15.18-6.804-15.18-15.18s6.812-15.182,15.18-15.182s15.18,6.806,15.18,15.182S94.878,416.17,86.51,416.17z"/>
<path fill="#5E686B" d="M497.599,273.133c6.834-12.14,8.346-29.292,8.346-42.085c0-40.425-51.186-66.204-77.943-66.204h-87.319
	c13.408-69.124-6.938-109.453-20.709-127.716C304.704,16.989,283.387,4.967,262.96,4.967c-16.796,0-31.234,7.997-39.617,21.932
	c-1.772,2.935-2.706,6.337-2.706,9.836V97.09c-15.965,45.847-31.325,80.153-55.058,104.025
	c-5.192-20.793-24.026-36.242-46.411-36.242h-65.33C27.458,164.873,6,186.323,6,212.695v240.86
	c0,26.372,21.458,47.837,47.837,47.837h65.33c20.894,0,38.688-13.472,45.189-32.177c10.166,6.062,20.347,9.229,29.894,9.229h211.788
	c12.244,0,23.935-6.062,33.762-17.479c11.993-13.741,20.485-34.567,21.774-52.906c16.693-14.318,24.994-38.318,24.104-69.819
	C502.92,318.242,503.143,291.723,497.599,273.133z M151.824,453.554c0,18.013-14.654,32.657-32.657,32.657h-65.33
	c-18.004,0-32.657-14.645-32.657-32.657V212.695c0-17.996,14.654-32.642,32.657-32.642h65.33c18.004,0,32.657,14.646,32.657,32.642
	V453.554z M483.101,267.707c-1.438,2.016-1.81,4.625-0.963,6.968c5.469,15.269,6.225,38.974-9.636,55.518
	c-1.439,1.498-2.195,3.526-2.093,5.604c1.379,29.587-5.823,51.171-20.812,62.438c-1.883,1.393-2.994,3.587-3.039,5.93
	c-0.266,15.594-7.753,34.85-18.233,46.857c-6.892,8.006-14.601,12.243-22.287,12.243H194.25c-8.174,0-17.75-3.691-27.246-10.46
	V220.388c31.496-26.352,49.63-65.449,68.389-119.526c0.281-0.8,0.422-1.645,0.422-2.49V36.734c0-0.733,0.18-1.423,0.526-2.001
	c5.581-9.273,15.276-14.587,26.617-14.587c15.706,0,32.501,9.776,44.909,26.142c12.771,16.937,31.849,55.627,16.047,124.44
	c-0.521,2.253,0.021,4.625,1.46,6.434c1.438,1.808,3.625,2.861,5.937,2.861H428c18.634,0,62.765,19.805,62.765,51.024
	C490.765,247.754,488.036,260.77,483.101,267.707z"/>
</svg>
