<?xml version="1.0" encoding="utf-8"?>
<!-- Generator: Adobe Illustrator 16.0.0, SVG Export Plug-In . SVG Version: 6.00 Build 0)  -->
<!DOCTYPE svg PUBLIC "-//W3C//DTD SVG 1.1//EN" "http://www.w3.org/Graphics/SVG/1.1/DTD/svg11.dtd">
<svg version="1.1" id="Layer_1" xmlns="http://www.w3.org/2000/svg" xmlns:xlink="http://www.w3.org/1999/xlink" x="0px" y="0px"
	 width="512px" height="512px" viewBox="0 0 512 512" enable-background="new 0 0 512 512" xml:space="preserve">
<path fill="#5E686B" d="M143.892,76.61c3.755,0,6.794-3.039,6.793-6.794V20.72h53.979c3.748,0,6.8-3.038,6.8-6.793
	c0-3.755-3.052-6.794-6.8-6.794h-60.772c-3.754,0-6.793,3.039-6.793,6.794v55.89C137.099,73.571,140.137,76.61,143.892,76.61z"/>
<path fill="#5E686B" d="M253.103,20.708h95.032c3.756,0,6.794-3.039,6.794-6.793c0-3.755-3.038-6.794-6.794-6.794h-95.032
	c-3.755,0-6.794,3.039-6.794,6.794C246.309,17.669,249.348,20.708,253.103,20.708z"/>
<path fill="#5E686B" d="M394.762,20.708h53.978v53.978c0,3.754,3.039,6.793,6.794,6.793s6.794-3.038,6.793-6.792V13.915
	c0-3.755-3.039-6.794-6.794-6.794h-60.771c-3.756,0-6.794,3.039-6.794,6.794C387.968,17.669,391.006,20.708,394.762,20.708z"/>
<path fill="#5E686B" d="M455.532,225.263c-3.755,0-6.794,3.038-6.794,6.793v76.775c0,3.755,3.039,6.794,6.794,6.794
	s6.794-3.039,6.794-6.794v-76.775C462.326,228.302,459.287,225.263,455.532,225.263z"/>
<path fill="#5E686B" d="M455.532,106.199c-3.755,0-6.794,3.039-6.794,6.794v76.788c0,3.755,3.039,6.794,6.794,6.794
	s6.794-3.039,6.794-6.794v-76.788C462.326,109.238,459.287,106.199,455.532,106.199z"/>
<path fill="#5E686B" d="M455.532,348.864c-3.755,0-6.794,3.039-6.794,6.794v48.804l-64.909-38.087v15.25l68.215,40.643
	c1.072,0.639,2.28,0.955,3.487,0.955c1.155,0,2.311-0.292,3.357-0.889c2.124-1.208,3.437-3.463,3.437-5.904v-60.771
	C462.326,351.903,459.287,348.864,455.532,348.864z"/>
<path fill="#69C299" d="M383.829,97.588c0-3.755-3.038-6.794-6.793-6.794H65.407c-3.757,0-6.796,3.039-6.796,6.794v402.516
	c0,2.44,1.314,4.696,3.443,5.903c2.123,1.222,4.743,1.184,6.833-0.064l152.315-90.985l152.341,90.985
	c1.075,0.638,2.282,0.956,3.49,0.956c1.153,0,2.309-0.292,3.355-0.892c2.124-1.207,3.438-3.463,3.438-5.903L383.829,97.588z
	 M370.242,488.135L224.681,401.21c-1.062-0.638-2.269-0.956-3.477-0.956s-2.415,0.318-3.49,0.956L72.199,488.135V104.382h298.043
	V488.135z"/>
</svg>
