<?xml version="1.0" encoding="utf-8"?>
<!-- Generator: Adobe Illustrator 16.0.0, SVG Export Plug-In . SVG Version: 6.00 Build 0)  -->
<!DOCTYPE svg PUBLIC "-//W3C//DTD SVG 1.1//EN" "http://www.w3.org/Graphics/SVG/1.1/DTD/svg11.dtd">
<svg version="1.1" id="Layer_1" xmlns="http://www.w3.org/2000/svg" xmlns:xlink="http://www.w3.org/1999/xlink" x="0px" y="0px"
	 width="512px" height="512px" viewBox="0 0 512 512" enable-background="new 0 0 512 512" xml:space="preserve">
<path fill="#69C299" d="M259.044,341.267c-12.827,0-24.883-4.997-33.952-14.066c-18.714-18.72-18.714-49.182,0-67.896
	c18.131-18.125,49.759-18.138,67.89,0c9.069,9.054,14.073,21.111,14.073,33.938c0,12.833-4.997,24.896-14.073,33.958
	C283.92,336.27,271.864,341.267,259.044,341.267z M259.044,258.969c-9.163,0-17.777,3.564-24.253,10.034
	c-13.369,13.368-13.369,35.123,0,48.498c12.954,12.969,35.539,12.969,48.493,0c6.483-6.476,10.054-15.09,10.054-24.259
	c0-9.155-3.57-17.769-10.047-24.233C276.814,262.533,268.2,258.963,259.044,258.969z"/>
<path fill="#5E686C" d="M297.403,92.366c-3.791,0-6.859-3.067-6.859-6.859V49.271c0-17.361-14.131-31.48-31.506-31.48
	c-17.375,0-31.507,14.119-31.507,31.48v31.976c0,3.791-3.068,6.859-6.858,6.859c-3.791,0-6.859-3.068-6.859-6.859V49.271
	c0-24.923,20.288-45.197,45.225-45.197c24.936,0,45.224,20.274,45.224,45.197v36.235C304.261,89.298,301.194,92.366,297.403,92.366z
	"/>
<path fill="#69C299" d="M367.643,121.716c-1.252,0-2.511-0.341-3.649-1.058c-3.202-2.016-4.166-6.249-2.144-9.458l23.188-36.812
	c0.978-1.554,2.545-2.652,4.34-3.047c1.795-0.388,3.684-0.041,5.224,0.971l25.171,16.53c3.162,2.083,4.046,6.33,1.97,9.498
	c-2.076,3.182-6.35,4.025-9.498,1.969l-19.33-12.692l-19.464,30.897C372.151,120.584,369.921,121.716,367.643,121.716z"/>
<path fill="#69C299" d="M390.583,84.891c-1.3,0-2.605-0.361-3.771-1.125l-25.158-16.544c-3.16-2.083-4.037-6.336-1.961-9.504
	c2.09-3.155,6.335-4.039,9.503-1.962l25.151,16.544c3.175,2.083,4.046,6.336,1.969,9.504
	C394.991,83.806,392.807,84.891,390.583,84.891z"/>
<path fill="#69C299" d="M259.037,257.495c-3.792,0-6.859-3.067-6.859-6.858V161.34c0-3.791,3.067-6.858,6.859-6.858
	c3.791,0,6.858,3.068,6.858,6.858v89.297C265.896,254.428,262.828,257.495,259.037,257.495z"/>
<path fill="#69C299" d="M384.662,300.147h-83c-3.791,0-6.858-3.066-6.858-6.858c0-3.791,3.067-6.858,6.858-6.858h83
	c3.791,0,6.858,3.067,6.858,6.858C391.521,297.081,388.453,300.147,384.662,300.147z"/>
<path fill="#5E686C" d="M52.012,272.659c-0.294,0-0.597-0.02-0.898-0.061c-3.757-0.487-6.403-3.937-5.907-7.688
	C59.239,158.112,151.174,77.577,259.051,77.577c16.537,0,32.973,1.869,48.847,5.546c22.385,5.19,43.69,13.898,63.322,25.881
	c3.235,1.976,4.26,6.195,2.284,9.423c-1.976,3.242-6.202,4.267-9.425,2.284c-18.385-11.219-38.325-19.37-59.275-24.22
	c-14.863-3.45-30.255-5.198-45.753-5.198c-101.019,0-187.106,75.405-200.248,175.397C58.355,270.148,55.401,272.659,52.012,272.659z
	"/>
<path fill="#5E686C" d="M259.051,508.929c-108.982,0-201.031-81.46-214.125-189.471c-0.456-3.764,2.224-7.187,5.988-7.643
	c3.838-0.395,7.18,2.225,7.636,5.988c12.25,101.131,98.452,177.407,200.502,177.407c111.358,0,201.954-90.595,201.954-201.963
	c0-71.003-36.235-135.504-96.926-172.537c-3.234-1.969-4.259-6.195-2.283-9.424c1.976-3.242,6.202-4.267,9.424-2.284
	c64.815,39.537,103.503,108.418,103.503,184.244C474.723,412.17,377.972,508.929,259.051,508.929z"/>
</svg>
