<?xml version="1.0" encoding="utf-8"?>
<!-- Generator: Adobe Illustrator 16.0.0, SVG Export Plug-In . SVG Version: 6.00 Build 0)  -->
<!DOCTYPE svg PUBLIC "-//W3C//DTD SVG 1.1//EN" "http://www.w3.org/Graphics/SVG/1.1/DTD/svg11.dtd">
<svg version="1.1" id="Layer_1" xmlns="http://www.w3.org/2000/svg" xmlns:xlink="http://www.w3.org/1999/xlink" x="0px" y="0px"
	 width="512px" height="512px" viewBox="0 0 512 512" enable-background="new 0 0 512 512" xml:space="preserve">
<path fill="#5E686C" d="M419.602,18.657H103.217c-3.753,0-6.79-3.037-6.79-6.79c0-3.752,3.036-6.789,6.79-6.789h316.385
	c3.753,0,6.789,3.037,6.789,6.789C426.391,15.62,423.355,18.657,419.602,18.657z"/>
<path fill="#69C299" d="M261.409,221.522c-0.033,0-0.061,0-0.093,0c-1.91-0.027-3.72-0.855-4.986-2.287l-69.767-78.752
	c-1.777-2.002-2.208-4.853-1.114-7.286c1.101-2.44,3.521-4.005,6.192-4.005h143.441c2.705,0,5.151,1.604,6.226,4.084
	c1.081,2.487,0.584,5.371-1.267,7.347l-73.673,78.751C265.083,220.747,263.285,221.522,261.409,221.522z M206.725,142.771
	l54.824,61.878l57.887-61.878H206.725z"/>
<path fill="#5E686C" d="M419.602,508H103.217c-3.753,0-6.79-3.036-6.79-6.789s3.036-6.789,6.79-6.789h316.385
	c3.753,0,6.789,3.036,6.789,6.789S423.355,508,419.602,508z"/>
<path fill="#69C299" d="M261.409,341.672c-3.753,0-6.79-3.036-6.79-6.789V320.27c0-3.751,3.037-6.789,6.79-6.789
	s6.789,3.038,6.789,6.789v14.613C268.198,338.636,265.162,341.672,261.409,341.672z"/>
<path fill="#69C299" d="M261.409,297.834c-3.753,0-6.79-3.036-6.79-6.789v-14.626c0-3.752,3.037-6.79,6.79-6.79
	s6.789,3.038,6.789,6.79v14.626C268.198,294.798,265.162,297.834,261.409,297.834z"/>
<path fill="#69C299" d="M346.698,457.981c-1.736,0-3.474-0.662-4.8-1.987l-80.488-80.47l-80.482,80.47
	c-2.652,2.652-6.948,2.652-9.6,0c-2.652-2.652-2.652-6.948,0-9.601l85.283-85.269c2.65-2.652,6.948-2.652,9.6,0l85.289,85.269
	c2.652,2.652,2.652,6.948,0,9.601C350.172,457.319,348.435,457.981,346.698,457.981z"/>
<path fill="#5E686C" d="M392.949,460.635h-263.08c-3.752,0-6.789-3.036-6.789-6.79v-52.781c0-70.808,52.583-119.261,89.485-144.542
	c-32.063-22.197-88.286-71.544-88.286-144.501V59.232c0-3.753,3.037-6.789,6.789-6.789h261.88c3.752,0,6.789,3.036,6.789,6.789
	v52.788c0,70.815-52.576,119.261-89.479,144.535c32.447,22.409,89.479,72.167,89.479,144.933v52.356
	C399.739,457.599,396.701,460.635,392.949,460.635z M136.658,447.056H386.16v-45.567c0-73.089-64.232-121.7-91.847-139.21
	c-1.969-1.248-3.155-3.408-3.155-5.735c0-2.328,1.187-4.489,3.155-5.736c34.298-21.747,91.847-68.7,91.847-138.787V66.021H137.859
	v45.999c0,73.381,63.39,121.502,90.646,138.787c1.969,1.247,3.156,3.408,3.156,5.736c0,2.327-1.187,4.487-3.156,5.735
	c-34.297,21.753-91.846,68.706-91.846,138.785V447.056z"/>
</svg>
