<?xml version="1.0" encoding="utf-8"?>
<!-- Generator: Adobe Illustrator 16.0.0, SVG Export Plug-In . SVG Version: 6.00 Build 0)  -->
<!DOCTYPE svg PUBLIC "-//W3C//DTD SVG 1.1//EN" "http://www.w3.org/Graphics/SVG/1.1/DTD/svg11.dtd">
<svg version="1.1" id="Layer_1" xmlns="http://www.w3.org/2000/svg" xmlns:xlink="http://www.w3.org/1999/xlink" x="0px" y="0px"
	 width="512px" height="512px" viewBox="0 0 512 512" enable-background="new 0 0 512 512" xml:space="preserve">
<path fill="#5E686B" d="M33.942,83.438c7.446,7.521,17.351,11.66,27.896,11.66c0.007,0,0.007,0,0.007,0
	c8.243,0,16.09-2.539,22.679-7.231l98.561,95.933c1.335,1.302,3.059,1.946,4.79,1.946c1.792,0,3.576-0.698,4.924-2.079
	c2.644-2.717,2.583-7.064-0.134-9.714L94.178,78.091c10.718-15.462,9.25-36.974-4.441-50.784L78.226,15.688
	c-2.576-2.604-7.178-2.604-9.754,0L22.437,62.152c-2.657,2.676-2.657,6.997,0,9.674L33.942,83.438z M73.35,30.285l6.634,6.695
	c10.058,10.15,10.063,26.654-0.007,36.797c-4.837,4.892-11.284,7.582-18.133,7.582c-6.857,0-13.297-2.697-18.141-7.588l-6.724-6.782
	L73.35,30.285z"/>
<path fill="#5E686B" d="M338.208,340.356l88.942,89.786c1.342,1.355,3.113,2.04,4.884,2.04c1.745,0,3.502-0.656,4.831-1.984
	c2.697-2.669,2.726-7.019,0.055-9.713l-88.943-89.79c-2.656-2.686-7.031-2.738-9.715-0.056
	C335.564,333.312,335.539,337.659,338.208,340.356z"/>
<path fill="#5E686B" d="M482.93,373.858L384.082,274.1c-2.656-2.685-7.044-2.738-9.713-0.055c-2.698,2.671-2.727,7.03-0.057,9.715
	l98.846,99.759c22.797,23.037,22.838,60.42,0.082,83.361c-11.016,11.123-25.641,17.255-41.19,17.271c0,0,0,0-0.016,0
	c-15.469-0.015-30.042-6.093-40.987-17.147l-99.049-99.947c-2.669-2.694-7.043-2.723-9.713-0.052
	c-2.698,2.669-2.726,7.03-0.057,9.714l99.048,99.945c13.566,13.687,31.585,21.227,50.758,21.227c0.016,0,0.016,0,0.027-0.001
	c19.227-0.014,37.328-7.594,50.933-21.334C511.036,448.285,511.012,402.222,482.93,373.858z"/>
<path fill="#69C299" d="M379.548,234.505c0.014,0,0.027,0,0.027,0c27.919-0.013,54.149-10.988,73.618-30.672l41.907-38.074
	c0.025-0.022,0.053-0.041,0.077-0.064c0.276-0.255,0.521-0.532,0.746-0.818c0.058-0.072,0.119-0.141,0.173-0.214
	c0.024-0.035,0.046-0.073,0.07-0.108c1.799-2.57,1.647-6.127-0.549-8.548c-0.024-0.028-0.055-0.052-0.079-0.08L460.387,117.6
	c-1.263-1.389-3.046-2.187-4.924-2.227c-1.761-0.148-3.691,0.704-5.021,2.032l-23.01,23.232
	c-15.832,16.008-43.46,16.021-59.316-0.013c-16.409-16.523-16.409-43.446,0.014-60.009l23.022-23.226
	c2.645-2.676,2.645-6.984,0-9.667l-34.725-35.153c-0.011-0.011-0.023-0.02-0.034-0.031c-0.016-0.016-0.028-0.034-0.046-0.05
	c-0.083-0.081-0.172-0.152-0.258-0.228c-0.072-0.064-0.143-0.132-0.217-0.192c-0.109-0.089-0.225-0.169-0.337-0.25
	c-0.071-0.052-0.143-0.106-0.216-0.155c-0.123-0.082-0.253-0.155-0.382-0.229c-0.064-0.038-0.13-0.079-0.195-0.114
	c-0.142-0.074-0.285-0.139-0.431-0.202c-0.058-0.025-0.114-0.054-0.174-0.078c-0.154-0.063-0.311-0.116-0.468-0.167
	c-0.052-0.017-0.104-0.037-0.156-0.053c-0.163-0.048-0.327-0.087-0.493-0.123c-0.049-0.011-0.098-0.025-0.146-0.034
	c-0.166-0.033-0.333-0.055-0.501-0.076c-0.051-0.006-0.103-0.015-0.153-0.02c-0.163-0.016-0.326-0.022-0.489-0.026
	c-0.058-0.001-0.114-0.006-0.172-0.006c-0.155,0-0.309,0.009-0.463,0.019c-0.067,0.004-0.135,0.006-0.202,0.012
	c-0.142,0.014-0.281,0.036-0.421,0.058c-0.08,0.012-0.161,0.022-0.24,0.038c-0.126,0.024-0.25,0.057-0.374,0.088
	c-0.093,0.023-0.187,0.044-0.277,0.071c-0.108,0.032-0.214,0.072-0.32,0.11c-0.106,0.037-0.213,0.072-0.317,0.115
	c-0.09,0.037-0.177,0.08-0.266,0.121c-0.118,0.054-0.236,0.107-0.353,0.168c-0.07,0.038-0.14,0.081-0.208,0.121
	c-0.131,0.075-0.261,0.149-0.387,0.233c-0.051,0.034-0.1,0.072-0.148,0.108c-0.141,0.099-0.279,0.199-0.413,0.31
	c-0.032,0.027-0.062,0.056-0.094,0.083c-0.122,0.104-0.245,0.206-0.361,0.32c-0.025,0.025-0.046,0.052-0.07,0.077
	c-0.004,0.003-0.008,0.006-0.011,0.01L305.604,54.52c-40.733,41.104-40.733,107.977,0,149.061
	C325.368,223.53,351.625,234.505,379.548,234.505z M315.398,64.157l36.171-36.962l25.04,25.349L358.362,70.94
	c-21.695,21.903-21.695,57.507,0,79.357c10.521,10.634,24.526,16.49,39.42,16.49c14.895,0,28.9-5.857,39.42-16.483l17.938-18.107
	l25.673,27.989l-37.117,33.732c-17.134,17.308-39.902,26.834-64.119,26.848c0,0-0.015,0-0.027,0
	c-24.232,0-47.016-9.54-64.176-26.862C279.91,158.153,279.91,99.962,315.398,64.157z"/>
<path fill="#69C299" d="M62.366,425.838c-3.798,0-6.869,3.072-6.869,6.869s3.071,6.869,6.869,6.869h32.559
	c3.796,0,6.869-3.072,6.869-6.869s-3.074-6.869-6.87-6.869H62.366z"/>
<path fill="#5E686B" d="M282.177,282.244c1.341,1.342,3.099,2.013,4.858,2.013c1.758,0,3.515-0.671,4.855-2.013
	c2.685-2.684,2.685-7.044,0-9.715l-64.579-64.443c-2.683-2.683-7.028-2.683-9.714,0c-2.683,2.684-2.683,7.045,0,9.715
	L282.177,282.244z"/>
<path fill="#69C299" d="M250.553,304.195c-3.073-2.24-7.379-1.528-9.58,1.558L119.297,474.865
	c-10.99,11.097-25.594,17.215-41.138,17.229h-0.009c-15.544-0.014-30.169-6.119-41.171-17.229
	c-22.762-22.984-22.762-60.325-0.816-82.56L204.565,268.84c3.065-2.242,3.725-6.547,1.482-9.607
	c-2.254-3.071-6.554-3.729-9.602-1.476L27.227,381.922c-28.049,28.271-28.056,74.306-0.007,102.604
	c13.606,13.738,31.692,21.307,50.933,21.307c0,0,0.008,0,0.015,0c19.231-0.014,37.312-7.58,51.59-22.125L252.11,313.776
	C254.336,310.704,253.639,306.41,250.553,304.195z"/>
</svg>
