<?xml version="1.0" encoding="utf-8"?>
<!-- Generator: Adobe Illustrator 16.0.0, SVG Export Plug-In . SVG Version: 6.00 Build 0)  -->
<!DOCTYPE svg PUBLIC "-//W3C//DTD SVG 1.1//EN" "http://www.w3.org/Graphics/SVG/1.1/DTD/svg11.dtd">
<svg version="1.1" id="Layer_1" xmlns="http://www.w3.org/2000/svg" xmlns:xlink="http://www.w3.org/1999/xlink" x="0px" y="0px"
	 width="512px" height="512px" viewBox="0 0 512 512" enable-background="new 0 0 512 512" xml:space="preserve">
<path fill="#5E686B" d="M257.703,5.403C118.945,5.403,6.057,118.291,6.057,257.042c0,138.758,112.888,251.639,251.646,251.639
	c138.758,0,251.638-112.881,251.639-251.639C509.342,118.291,396.461,5.403,257.703,5.403z M257.702,494.808
	c-131.109,0-237.772-106.663-237.772-237.766c0-131.103,106.663-237.766,237.772-237.766c131.104,0,237.766,106.663,237.766,237.766
	C495.468,388.145,388.806,494.808,257.702,494.808z"/>
<path fill="#69C299" d="M439.242,258.004H269.44l85.063-154.724c1.814-3.306,0.649-7.458-2.614-9.348
	c-57.485-33.233-131.05-33.185-188.384,0.007c-3.268,1.889-4.424,6.042-2.604,9.341l85.063,154.723H76.141
	c-3.834,0-6.937,3.103-6.937,6.937c0,64.896,33.488,120.009,94.3,155.205c1.091,0.639,2.289,0.937,3.468,0.937
	c2.344,0,4.627-1.192,5.936-3.334l84.796-139.464L342.5,417.748c1.3,2.141,3.576,3.333,5.92,3.333c1.191,0,2.385-0.298,3.48-0.934
	c60.79-35.198,94.28-90.324,94.28-155.206C446.181,261.107,443.076,258.004,439.242,258.004z M339.003,102.664l-81.301,147.875
	l-81.314-147.882C226.542,76.164,288.7,76.117,339.003,102.664z M164.635,404.647c-50.533-31.379-79.188-78.104-81.416-132.771
	h162.142L164.635,404.647z M350.763,404.647l-80.718-132.771h162.127C429.937,326.543,401.297,373.27,350.763,404.647z"/>
</svg>
