<?xml version="1.0" encoding="utf-8"?>
<!-- Generator: Adobe Illustrator 16.0.0, SVG Export Plug-In . SVG Version: 6.00 Build 0)  -->
<!DOCTYPE svg PUBLIC "-//W3C//DTD SVG 1.1//EN" "http://www.w3.org/Graphics/SVG/1.1/DTD/svg11.dtd">
<svg version="1.1" id="Layer_1" xmlns="http://www.w3.org/2000/svg" xmlns:xlink="http://www.w3.org/1999/xlink" x="0px" y="0px"
	 width="512px" height="512px" viewBox="0 0 512 512" enable-background="new 0 0 512 512" xml:space="preserve">
<path fill="#5E686C" d="M212.895,432.86c-48.864,0-140.492-13.147-205.118-101.17c-2.031-2.767-1.645-6.612,0.885-8.926
	c2.543-2.307,6.416-2.327,8.972-0.065c3.52,3.112,87.06,75.19,172.147-4.392c2.7-2.523,6.947-2.392,9.483,0.321
	c2.53,2.706,2.392,6.954-0.321,9.483C141.362,381.977,83.4,371.978,46.844,355.906c57.41,54.475,126.5,63.532,166.051,63.532
	c35.135,0,116.551-14.877,173.208-71.192c33.43-33.248,44.84-63.468,48.529-82.971c0.604-3.205,3.12-5.4,6.699-5.466
	c10.191,0.065,26.274-0.977,39.467-8.166c-16.915,0.071-38.268-1.409-40.024-9.509c-0.733-3.362,1.862-7.308,5.126-8.382
	c0.491-0.164,1.001-0.269,1.514-0.315c14.557-1.278,24.223-5.25,30.593-9.549c-12.119,1.776-27.664,1.521-41.453-6.58
	c-1.593-0.938-2.733-2.491-3.139-4.292c-10.283-45.043-46.145-88.173-94.622-83.58c-2.118,0.223-4.281-0.642-5.709-2.281
	c-1.423-1.631-1.96-3.86-1.46-5.97c1.735-7.235,1.769-16.922-0.781-19.045c-0.911-0.76-3.835-0.845-9.058,1.448
	c-20.486,9.005-44.801,49.553-66.724,111.243c-1.238,3.487-5.092,5.283-8.572,4.077c-3.493-1.239-5.315-5.079-4.076-8.572
	c13.605-38.293,41.308-104.676,73.973-119.028c9.751-4.299,17.518-4.129,23.074,0.544c6.777,5.669,7.32,16.155,6.627,23.816
	c50.765,0.039,87.864,44.323,99.694,91.372c20.803,10.191,47.397-0.95,47.672-1.068c2.38-1.003,5.125-0.597,7.072,1.121
	c1.94,1.697,2.739,4.365,2.045,6.849c-0.229,0.833-4.412,14.897-22.847,24.492c5.956,0.032,12.621-0.191,19.28-0.918
	c2.641-0.236,5.244,1.029,6.56,3.356c1.325,2.326,1.142,5.216-0.471,7.353c-15.105,20.061-41.19,24.465-58.427,24.97
	c-5.039,21.305-18.134,51.793-51.099,84.574C335.804,417.171,249.944,432.86,212.895,432.86z"/>
<path fill="#69C299" d="M186.668,330.405c-21.431,0-32.697-10.971-34.408-22.989c-0.845-5.965,0.728-12.36,4.831-17.657
	c-27.63-5.183-35.6-17.885-41.138-30.729c-2.595-5.997-1.311-10.388,0.223-13.009c2.28-3.899,6.298-6.207,11.299-7.7
	c-20.533-10.998-36.57-26.72-33.798-45.352c1.816-7.55,9.07-9.202,16.162-9.516c-14.261-10.761-35.921-30.095-28.745-58.708
	c0.498-1.979,1.868-3.631,3.723-4.476c1.861-0.826,4.011-0.793,5.819,0.124c11.345,5.754,25.343,10.952,40.168,16.457
	c37.907,14.078,85.074,31.595,122.791,71.101c2.556,2.68,2.457,6.927-0.223,9.49c-2.673,2.556-6.92,2.451-9.489-0.223
	c-35.574-37.265-79.235-53.478-117.75-67.785c-11.738-4.359-22.972-8.527-33.018-13.016c0.315,16.936,15.034,29.243,29.275,39.624
	c5.728,4.168,8.598,6.265,9.706,9.575c0.688,2.058,0.229,5.499-1.048,7.249c-2.995,4.129-8.428,4.05-15.231,3.971
	c-2.53-0.045-6.796-0.091-9.103,0.322c-0.151,12.603,18.737,28.2,47.108,37.998c2.962,1.023,4.824,3.959,4.483,7.072
	c-0.341,3.113-2.785,5.577-5.898,5.937l-5.151,0.557c-6.023,0.629-17.119,1.776-19.386,3.978c0.072,0.092,0.164,0.452,0.406,1.009
	c4.686,10.867,9.988,23.173,50.392,24.878c3.44,0.144,6.206,2.864,6.416,6.298s-2.215,6.469-5.61,7.025
	c-10.171,1.671-14.707,8.112-13.92,13.612c0.97,6.821,10.172,13.212,28.004,11.022c3.722-0.394,7.026,2.184,7.471,5.859
	c0.439,3.685-2.183,7.025-5.859,7.472C192.173,330.236,189.342,330.405,186.668,330.405z"/>
</svg>
