<?xml version="1.0" encoding="utf-8"?>
<!-- Generator: Adobe Illustrator 16.0.0, SVG Export Plug-In . SVG Version: 6.00 Build 0)  -->
<!DOCTYPE svg PUBLIC "-//W3C//DTD SVG 1.1//EN" "http://www.w3.org/Graphics/SVG/1.1/DTD/svg11.dtd">
<svg version="1.1" id="Layer_1" xmlns="http://www.w3.org/2000/svg" xmlns:xlink="http://www.w3.org/1999/xlink" x="0px" y="0px"
	 width="512px" height="512px" viewBox="0 0 512 512" enable-background="new 0 0 512 512" xml:space="preserve">
<path fill="#5E686C" d="M259.313,469.411c-3.759,0-6.799-3.042-6.799-6.8V228.832c0-3.759,3.041-6.8,6.799-6.8s6.8,3.041,6.8,6.8
	v233.779C266.113,466.369,263.072,469.411,259.313,469.411z"/>
<path fill="#5E686C" d="M259.313,53.271c-3.759,0-6.799-3.042-6.799-6.8V13.534c0-3.758,3.041-6.8,6.799-6.8s6.8,3.042,6.8,6.8
	v32.937C266.113,50.229,263.072,53.271,259.313,53.271z"/>
<path fill="#5E686C" d="M218.699,509.918c-26.017,0-47.174-21.223-47.174-47.307c0-3.759,3.042-6.8,6.8-6.8
	c3.759,0,6.8,3.041,6.8,6.8c0,18.579,15.061,33.707,33.574,33.707c18.527,0,33.601-15.128,33.601-33.707c0-3.759,3.042-6.8,6.8-6.8
	c3.76,0,6.8,3.041,6.8,6.8C265.9,488.695,244.731,509.918,218.699,509.918z"/>
<path fill="#69C299" d="M467.585,235.632H50.456c-1.966,0-3.878-0.876-5.167-2.364c-4.117-4.735-0.451-40.514-0.398-40.859
	c1.952-14.377,6.588-28.481,14.145-43.071c7.849-15.06,17.956-29.059,30.055-41.616c21.861-22.823,47.812-40.162,77.123-51.524
	c23.986-9.343,49.671-14.901,76.353-16.515l32.499-0.013c18.752,1.202,37,4.389,54.664,9.496c23.096,6.7,44.478,16.289,63.536,28.5
	c19.324,12.312,36.324,28.216,50.548,47.261c16.747,22.412,26.416,44.027,28.727,64.26l0.226,2.337
	c4.117,37.08,2.218,39.285,0.2,41.623c-1.235,1.428-3.241,2.411-5.141,2.477C467.744,235.632,467.665,235.632,467.585,235.632z
	 M57.043,222.032h404.565c-0.159-6.069-1.035-17.053-2.363-29.039l-0.239-2.51c-2.019-17.557-10.797-36.961-26.084-57.414
	c-13.241-17.723-29.046-32.505-46.975-43.947c-17.983-11.515-38.156-20.559-60.004-26.894c-16.707-4.828-33.986-7.849-51.317-8.971
	l-31.649,0.013c-24.862,1.514-49.167,6.773-71.837,15.605c-27.465,10.639-51.756,26.881-72.235,48.264
	c-11.209,11.641-20.559,24.576-27.797,38.468c-6.826,13.175-10.997,25.825-12.75,38.681
	C58.039,196.852,57.242,213.094,57.043,222.032z"/>
</svg>
