<?xml version="1.0" encoding="utf-8"?>
<!-- Generator: Adobe Illustrator 16.0.0, SVG Export Plug-In . SVG Version: 6.00 Build 0)  -->
<!DOCTYPE svg PUBLIC "-//W3C//DTD SVG 1.1//EN" "http://www.w3.org/Graphics/SVG/1.1/DTD/svg11.dtd">
<svg version="1.1" id="Layer_1" xmlns="http://www.w3.org/2000/svg" xmlns:xlink="http://www.w3.org/1999/xlink" x="0px" y="0px"
	 width="512px" height="512px" viewBox="0 0 512 512" enable-background="new 0 0 512 512" xml:space="preserve">
<path fill="#5E686B" d="M256,509c-99.545,0-180.526-80.987-180.526-180.526c0-99.539,80.98-180.524,180.526-180.524
	c99.545,0,180.524,80.987,180.524,180.524C436.525,428.013,355.545,509,256,509z M256,161.834
	c-91.883,0-166.64,74.75-166.64,166.639c0,91.892,74.757,166.641,166.64,166.641c91.885,0,166.639-74.749,166.639-166.641
	C422.639,236.584,347.885,161.834,256,161.834z"/>
<path fill="#69C299" d="M256,388.468c-3.838,0-6.943-3.104-6.943-6.941v-83.319c0-3.838,3.105-6.943,6.943-6.943
	s6.942,3.105,6.942,6.943v83.319C262.943,385.364,259.838,388.468,256,388.468z"/>
<path fill="#69C299" d="M138.385,160.031c-2.577,0-5.045-1.437-6.245-3.906l-22.485-46.108c-6.813-13.955-7.77-29.752-2.69-44.466
	c5.079-14.741,15.582-26.607,29.577-33.428L187.62,7.211c28.897-14.09,63.873-2.075,77.941,26.756
	c1.683,3.458,0.25,7.608-3.192,9.289c-3.438,1.695-7.595,0.244-9.282-3.187c-10.734-21.983-37.361-31.096-59.377-20.382
	l-51.079,24.911c-10.666,5.208-18.667,14.253-22.539,25.468c-3.865,11.216-3.139,23.244,2.041,33.862l22.484,46.122
	c1.682,3.444,0.252,7.594-3.193,9.276C140.438,159.8,139.402,160.031,138.385,160.031z"/>
</svg>
