<?xml version="1.0" encoding="utf-8"?>
<!-- Generator: Adobe Illustrator 16.0.0, SVG Export Plug-In . SVG Version: 6.00 Build 0)  -->
<!DOCTYPE svg PUBLIC "-//W3C//DTD SVG 1.1//EN" "http://www.w3.org/Graphics/SVG/1.1/DTD/svg11.dtd">
<svg version="1.1" id="Layer_1" xmlns="http://www.w3.org/2000/svg" xmlns:xlink="http://www.w3.org/1999/xlink" x="0px" y="0px"
	 width="512px" height="512px" viewBox="0 0 512 512" enable-background="new 0 0 512 512" xml:space="preserve">
<path fill="#5E686C" d="M496.787,494.339H282.394c0.004-0.098,0.015-0.193,0.015-0.292V386.988c0.179-0.611,0.279-1.256,0.279-1.925
	c0-0.67-0.101-1.315-0.279-1.927v-231.17c0-3.774-3.055-6.83-6.83-6.83c-3.774,0-6.829,3.055-6.829,6.83v103.328H144.664V151.967
	c0-3.774-3.055-6.83-6.83-6.83c-3.775,0-6.83,3.055-6.83,6.83v103.328H19.292c-0.099,0-0.195,0.011-0.293,0.015V13.401
	c0-3.774-3.054-6.83-6.83-6.83c-3.775,0-6.83,3.055-6.83,6.83v487.768c0,3.776,3.055,6.831,6.83,6.831h484.619
	c3.775,0,6.831-3.055,6.831-6.831C503.618,497.395,500.563,494.339,496.787,494.339z M18.998,391.892h112.006v102.155
	c0,0.099,0.011,0.194,0.015,0.292H18.998V391.892z M144.664,494.047V391.892h124.085v102.155c0,0.099,0.011,0.194,0.015,0.292
	H144.649C144.653,494.241,144.664,494.146,144.664,494.047z M268.749,268.955V378.23H144.664V268.955H268.749z M19.292,268.955
	h111.712V378.23H18.998V268.94C19.096,268.944,19.193,268.955,19.292,268.955z"/>
<path fill="#69C299" d="M496.787,215.809c-3.773,0-6.829-3.055-6.829-6.829V137.4h-71.567c-3.773,0-6.829-3.055-6.829-6.829
	c0-3.777,3.056-6.832,6.829-6.832h78.396c3.775,0,6.831,3.054,6.831,6.832v78.41C503.618,212.754,500.563,215.809,496.787,215.809z"
	/>
<path fill="#69C299" d="M494.12,132.558c-2.843-2.467-7.164-2.16-9.63,0.693L276.209,374.217l-51.921-68.418
	c-0.087-0.114-0.183-0.218-0.276-0.324c-0.052-0.061-0.097-0.123-0.151-0.182c-0.005-0.006-0.012-0.011-0.017-0.017
	c-0.04-0.042-0.083-0.08-0.124-0.121c-1.423-1.453-3.342-2.145-5.234-2.046c-0.009,0-0.019-0.001-0.028,0
	c-0.099,0.006-0.198,0.021-0.297,0.03c-0.612,0.061-1.219,0.202-1.805,0.433c-0.772,0.303-1.503,0.746-2.147,1.345l-0.02,0.018
	c-0.005,0.005-0.011,0.011-0.016,0.016L7.533,496.153c-2.774,2.562-2.941,6.885-0.38,9.658C8.5,507.266,10.334,508,12.168,508
	c1.661,0,3.321-0.602,4.635-1.814l201.148-186.121l52.464,69.133c0.14,0.183,0.291,0.351,0.444,0.516
	c0.009,0.009,0.017,0.02,0.025,0.028c0.122,0.13,0.253,0.248,0.383,0.366c0.042,0.038,0.078,0.079,0.121,0.116
	c0.009,0.007,0.018,0.012,0.026,0.019c0.295,0.252,0.605,0.476,0.932,0.671c0.06,0.035,0.12,0.066,0.181,0.101
	c0.283,0.158,0.574,0.297,0.874,0.412c0.051,0.02,0.101,0.045,0.152,0.063c0.324,0.116,0.656,0.2,0.993,0.267
	c0.089,0.017,0.178,0.031,0.268,0.045c0.346,0.054,0.693,0.091,1.043,0.091c0.319,0,0.638-0.03,0.954-0.075
	c0.082-0.012,0.162-0.024,0.243-0.039c0.312-0.055,0.623-0.125,0.927-0.224c0.03-0.01,0.06-0.024,0.089-0.034
	c0.278-0.096,0.549-0.213,0.814-0.344c0.084-0.041,0.167-0.083,0.25-0.129c0.272-0.148,0.538-0.311,0.79-0.498
	c0.022-0.017,0.047-0.026,0.068-0.043c0.428-0.325,0.801-0.695,1.129-1.093l213.69-247.225
	C497.282,139.334,496.975,135.025,494.12,132.558z"/>
</svg>
