<?xml version="1.0" encoding="utf-8"?>
<!-- Generator: Adobe Illustrator 16.0.0, SVG Export Plug-In . SVG Version: 6.00 Build 0)  -->
<!DOCTYPE svg PUBLIC "-//W3C//DTD SVG 1.1//EN" "http://www.w3.org/Graphics/SVG/1.1/DTD/svg11.dtd">
<svg version="1.1" id="Layer_1" xmlns="http://www.w3.org/2000/svg" xmlns:xlink="http://www.w3.org/1999/xlink" x="0px" y="0px"
	 width="512px" height="512px" viewBox="0 0 512 512" enable-background="new 0 0 512 512" xml:space="preserve">
<path fill="#5E686B" d="M488.348,508.5H31.621c-3.77,0-6.819-3.05-6.819-6.819V401.655c0-3.771,3.05-6.819,6.819-6.819
	s6.818,3.05,6.818,6.819v93.206h443.088v-93.206c0-3.771,3.05-6.819,6.819-6.819c3.769,0,6.819,3.05,6.819,6.819V501.68
	C495.166,505.45,492.116,508.5,488.348,508.5z"/>
<path fill="#69C299" d="M391.813,145.798c-1.705,0-3.41-0.632-4.742-1.911L260.7,21.826L134.357,143.881
	c-2.696,2.63-7.025,2.55-9.636-0.167c-2.617-2.704-2.544-7.026,0.167-9.637L255.959,7.441c2.637-2.557,6.818-2.551,9.482-0.007
	l131.111,126.637c2.704,2.617,2.784,6.939,0.16,9.643C395.382,145.099,393.597,145.798,391.813,145.798z"/>
<path fill="#69C299" d="M260.7,408.475c-3.77,0-6.819-3.05-6.819-6.818V12.343c0-3.77,3.05-6.819,6.819-6.819
	s6.818,3.05,6.818,6.819v389.312C267.52,405.425,264.47,408.475,260.7,408.475z"/>
</svg>
