<?xml version="1.0" encoding="utf-8"?>
<!-- Generator: Adobe Illustrator 16.0.0, SVG Export Plug-In . SVG Version: 6.00 Build 0)  -->
<!DOCTYPE svg PUBLIC "-//W3C//DTD SVG 1.1//EN" "http://www.w3.org/Graphics/SVG/1.1/DTD/svg11.dtd">
<svg version="1.1" id="Layer_1" xmlns="http://www.w3.org/2000/svg" xmlns:xlink="http://www.w3.org/1999/xlink" x="0px" y="0px"
	 width="512px" height="512px" viewBox="0 0 512 512" enable-background="new 0 0 512 512" xml:space="preserve">
<path fill="#5E686B" d="M305.252,76.247h-98.21c-3.736,0-6.76-3.023-6.76-6.76V11.319c0-3.736,3.022-6.759,6.76-6.759h98.21
	c3.734,0,6.759,3.023,6.759,6.759v58.168C312.011,73.224,308.988,76.247,305.252,76.247z M213.801,62.728h84.69v-44.65h-84.69
	V62.728z"/>
<path fill="#5E686B" d="M351.848,509.274H160.412c-13.216,0-23.969-10.761-23.969-23.988V125.372
	c0-13.228,10.753-23.988,23.969-23.988h191.436c13.229,0,23.988,10.76,23.988,23.988v359.915
	C375.836,498.515,365.076,509.274,351.848,509.274z M160.412,114.902c-5.764,0-10.45,4.693-10.45,10.469v359.915
	c0,5.769,4.687,10.47,10.45,10.47h191.436c5.776,0,10.47-4.701,10.47-10.47V125.372c0-5.776-4.692-10.469-10.47-10.469
	L160.412,114.902L160.412,114.902z"/>
<path fill="#69C299" d="M305.252,457.43h-98.21c-3.736,0-6.76-3.022-6.76-6.76V193.256c0-2.97,1.935-5.584,4.771-6.456
	l98.204-30.266c2.046-0.621,4.284-0.244,6.008,1.023c1.729,1.274,2.745,3.294,2.745,5.439V450.67
	C312.011,454.406,308.988,457.43,305.252,457.43z M213.801,443.911h84.69V172.146l-84.69,26.101V443.911z"/>
</svg>
