<?xml version="1.0" encoding="utf-8"?>
<!-- Generator: Adobe Illustrator 16.0.0, SVG Export Plug-In . SVG Version: 6.00 Build 0)  -->
<!DOCTYPE svg PUBLIC "-//W3C//DTD SVG 1.1//EN" "http://www.w3.org/Graphics/SVG/1.1/DTD/svg11.dtd">
<svg version="1.1" id="Layer_1" xmlns="http://www.w3.org/2000/svg" xmlns:xlink="http://www.w3.org/1999/xlink" x="0px" y="0px"
	 width="512px" height="512px" viewBox="0 0 512 512" enable-background="new 0 0 512 512" xml:space="preserve">
<path fill="#5E686B" d="M223.227,81.41c-3.661,0-6.623,2.962-6.623,6.623v36.905c0,3.661,2.962,6.623,6.623,6.623
	c3.66,0,6.623-2.963,6.623-6.624V88.033C229.85,84.372,226.888,81.41,223.227,81.41z"/>
<path fill="#5E686B" d="M297.01,81.41c-3.661,0-6.623,2.962-6.623,6.623v36.905c0,3.661,2.962,6.623,6.623,6.623
	c3.66,0,6.622-2.963,6.622-6.624V88.033C303.632,84.372,300.67,81.41,297.01,81.41z"/>
<path fill="#5E686B" d="M315.481,265.893H204.775c-3.661,0-6.623,2.963-6.623,6.623c0,3.661,2.962,6.623,6.623,6.623h110.706
	c3.661,0,6.623-2.962,6.623-6.623C322.104,268.855,319.142,265.893,315.481,265.893z"/>
<path fill="#5E686B" d="M389.263,192.097H130.992c-3.661,0-6.623,2.962-6.623,6.623v166.038c0,74.857,60.898,135.756,135.75,135.756
	c74.868,0,135.769-60.898,135.768-135.756V198.72C395.886,195.059,392.924,192.097,389.263,192.097z M382.641,364.758
	c0,67.548-54.961,122.51-122.521,122.51c-67.55,0-122.504-54.962-122.504-122.51V205.343h245.024V364.758z"/>
<path fill="#69C299" d="M174.519,20.873H345.75v171.224h13.245V14.25c0-3.661-2.962-6.623-6.623-6.623H167.896
	c-3.661,0-6.623,2.963-6.623,6.623v177.847h13.246V20.873z"/>
</svg>
