<?xml version="1.0" encoding="utf-8"?>
<!-- Generator: Adobe Illustrator 16.0.0, SVG Export Plug-In . SVG Version: 6.00 Build 0)  -->
<!DOCTYPE svg PUBLIC "-//W3C//DTD SVG 1.1//EN" "http://www.w3.org/Graphics/SVG/1.1/DTD/svg11.dtd">
<svg version="1.1" id="Layer_1" xmlns="http://www.w3.org/2000/svg" xmlns:xlink="http://www.w3.org/1999/xlink" x="0px" y="0px"
	 width="512px" height="512px" viewBox="0 0 512 512" enable-background="new 0 0 512 512" xml:space="preserve">
<path fill="#5E686B" d="M257.63,113.724c-29.867,0-54.155-24.288-54.155-54.142c0-29.868,24.288-54.169,54.155-54.169
	s54.156,24.301,54.156,54.169C311.786,89.436,287.497,113.724,257.63,113.724z M257.63,18.952c-22.397,0-40.616,18.226-40.616,40.63
	c0,22.391,18.219,40.604,40.616,40.604s40.617-18.213,40.617-40.604C298.247,37.178,280.029,18.952,257.63,18.952z"/>
<path fill="#5E686B" d="M143.529,343.436c-0.118,0-0.251,0-0.369-0.013c-3.742-0.198-6.599-3.397-6.387-7.127l8.146-146.7
	c0.105-1.844,0.952-3.563,2.354-4.766l57.064-48.907c2.829-2.413,7.1-2.103,9.546,0.74c2.433,2.836,2.102,7.113-0.74,9.546
	l-54.87,47.022l-7.985,143.804C150.087,340.646,147.098,343.436,143.529,343.436z"/>
<path fill="#5E686B" d="M371.734,343.436c-3.569,0-6.559-2.789-6.758-6.398l-8.012-143.804l-54.844-47.029
	c-2.843-2.433-3.172-6.704-0.74-9.546c2.459-2.836,6.744-3.167,9.547-0.728l57.037,48.907c1.402,1.197,2.248,2.916,2.354,4.76
	l8.173,146.7c0.211,3.729-2.646,6.915-6.388,7.127C371.984,343.436,371.851,343.436,371.734,343.436z"/>
<path fill="#69C299" d="M290.236,506.418h-65.209c-3.477,0-6.386-2.631-6.729-6.095l-16.289-162.982l-0.04-98.475
	c0-3.742,3.028-6.77,6.769-6.77c3.742,0,6.771,3.028,6.771,6.77v97.8l15.641,156.213h52.965l15.683-156.887l-0.039-97.126
	c0-3.742,3.027-6.77,6.77-6.77c3.74,0,6.771,3.028,6.771,6.77v97.8l-16.33,163.657C296.62,503.787,293.712,506.418,290.236,506.418z
	"/>
</svg>
