<?xml version="1.0" encoding="utf-8"?>
<!-- Generator: Adobe Illustrator 16.0.0, SVG Export Plug-In . SVG Version: 6.00 Build 0)  -->
<!DOCTYPE svg PUBLIC "-//W3C//DTD SVG 1.1//EN" "http://www.w3.org/Graphics/SVG/1.1/DTD/svg11.dtd">
<svg version="1.1" id="Layer_1" xmlns="http://www.w3.org/2000/svg" xmlns:xlink="http://www.w3.org/1999/xlink" x="0px" y="0px"
	 width="512px" height="512px" viewBox="0 0 512 512" enable-background="new 0 0 512 512" xml:space="preserve">
<path fill="#5E686B" d="M258.52,503.545c-85.882,0-164.294-42.279-209.754-113.106c-2.051-3.201-1.123-7.464,2.078-9.521
	c3.194-2.071,7.45-1.13,9.514,2.071c42.911,66.875,116.994,106.787,198.162,106.787c129.486,0,234.828-105.334,234.828-234.82
	c0-129.487-105.342-234.834-234.828-234.834c-86.312,0-165.35,46.353-206.271,120.974c-1.822,3.335-6.012,4.579-9.347,2.73
	c-3.335-1.829-4.559-6.011-2.729-9.346C83.514,55.446,167.178,6.349,258.52,6.349c137.077,0,248.598,111.52,248.598,248.605
	C507.116,392.024,395.597,503.545,258.52,503.545z"/>
<path fill="#69C299" d="M251.192,110.917c-15.169,0-27.514-12.351-27.514-27.527c0-15.196,12.344-27.554,27.514-27.554
	c15.202,0,27.566,12.358,27.566,27.554C278.758,98.566,266.394,110.917,251.192,110.917z M251.192,69.606
	c-7.578,0-13.742,6.186-13.742,13.784c0,7.584,6.166,13.756,13.742,13.756c7.604,0,13.797-6.172,13.797-13.756
	C264.989,75.792,258.796,69.606,251.192,69.606z"/>
<path fill="#5E686B" d="M263.616,316.906c-34.13,0-61.898-27.783-61.898-61.926c0-34.197,27.769-62.007,61.898-62.007
	c34.203,0,62.032,27.81,62.032,62.007C325.65,289.123,297.821,316.906,263.616,316.906z M263.616,206.744
	c-26.539,0-48.129,21.637-48.129,48.236c0,26.559,21.59,48.157,48.129,48.157c26.612,0,48.264-21.599,48.264-48.157
	C311.88,228.381,290.23,206.744,263.616,206.744z"/>
<path fill="#69C299" d="M251.192,453.345c-15.169,0-27.514-12.372-27.514-27.566c0-15.169,12.344-27.515,27.514-27.515
	c15.202,0,27.566,12.346,27.566,27.515C278.758,440.973,266.394,453.345,251.192,453.345z M251.192,412.034
	c-7.578,0-13.742,6.158-13.742,13.743c0,7.61,6.166,13.798,13.742,13.798c7.604,0,13.797-6.188,13.797-13.798
	C264.989,418.192,258.796,412.034,251.192,412.034z"/>
<path fill="#69C299" d="M432.485,292.189c-15.169,0-27.515-12.358-27.515-27.555c0-15.183,12.346-27.527,27.515-27.527
	c15.195,0,27.567,12.344,27.567,27.527C460.052,279.831,447.68,292.189,432.485,292.189z M432.485,250.879
	c-7.585,0-13.744,6.172-13.744,13.757c0,7.599,6.159,13.784,13.744,13.784c7.61,0,13.797-6.188,13.797-13.784
	C446.281,257.051,440.095,250.879,432.485,250.879z"/>
<path fill="#69C299" d="M392.189,171.337c-15.169,0-27.514-12.345-27.514-27.514c0-15.203,12.345-27.567,27.514-27.567
	c15.202,0,27.574,12.365,27.574,27.567C419.763,158.992,407.391,171.337,392.189,171.337z M392.189,130.026
	c-7.577,0-13.743,6.192-13.743,13.797c0,7.578,6.166,13.743,13.743,13.743c7.611,0,13.804-6.166,13.804-13.743
	C405.991,136.219,399.8,130.026,392.189,130.026z"/>
<path fill="#69C299" d="M372.058,413.057c-15.169,0-27.514-12.358-27.514-27.541c0-15.182,12.345-27.541,27.514-27.541
	c15.202,0,27.567,12.359,27.567,27.541C399.625,400.698,387.26,413.057,372.058,413.057z M372.058,371.745
	c-7.578,0-13.743,6.173-13.743,13.771c0,7.599,6.165,13.771,13.743,13.771c7.604,0,13.798-6.173,13.798-13.771
	C385.856,377.918,379.662,371.745,372.058,371.745z"/>
<path fill="#69C299" d="M130.339,399.636c-15.169,0-27.514-12.372-27.514-27.566c0-15.169,12.345-27.516,27.514-27.516
	c15.202,0,27.566,12.347,27.566,27.516C157.906,387.264,145.541,399.636,130.339,399.636z M130.339,358.324
	c-7.578,0-13.743,6.159-13.743,13.744c0,7.609,6.166,13.797,13.743,13.797c7.604,0,13.797-6.188,13.797-13.797
	C144.135,364.483,137.943,358.324,130.339,358.324z"/>
<path fill="#69C299" d="M130.339,171.337c-15.169,0-27.514-12.345-27.514-27.514c0-15.203,12.345-27.567,27.514-27.567
	c15.202,0,27.566,12.365,27.566,27.567C157.906,158.992,145.541,171.337,130.339,171.337z M130.339,130.026
	c-7.578,0-13.743,6.192-13.743,13.797c0,7.578,6.166,13.743,13.743,13.743c7.604,0,13.797-6.166,13.797-13.743
	C144.135,136.219,137.943,130.026,130.339,130.026z"/>
<path fill="#5E686B" d="M13.385,352.111c-3.806,0-6.885-3.079-6.885-6.886V184.085c0-3.806,3.079-6.885,6.885-6.885
	c3.805,0,6.885,3.079,6.885,6.885v161.141C20.271,349.032,17.191,352.111,13.385,352.111z"/>
</svg>
