<?xml version="1.0" encoding="utf-8"?>
<!-- Generator: Adobe Illustrator 16.0.0, SVG Export Plug-In . SVG Version: 6.00 Build 0)  -->
<!DOCTYPE svg PUBLIC "-//W3C//DTD SVG 1.1//EN" "http://www.w3.org/Graphics/SVG/1.1/DTD/svg11.dtd">
<svg version="1.1" id="Layer_1" xmlns="http://www.w3.org/2000/svg" xmlns:xlink="http://www.w3.org/1999/xlink" x="0px" y="0px"
	 width="512px" height="512px" viewBox="0 0 512 512" enable-background="new 0 0 512 512" xml:space="preserve">
<path fill="#5E686B" d="M308.093,464.159H12.844c-3.864,0-6.991-3.127-6.991-6.991V269.957c0-3.864,3.127-6.991,6.991-6.991h295.249
	c3.864,0,6.991,3.127,6.991,6.991v187.211C315.084,461.032,311.957,464.159,308.093,464.159z M19.835,450.177h281.268V276.947
	H19.835V450.177z"/>
<path fill="#69C299" d="M502.198,434.134c-0.546,0-1.092-0.067-1.625-0.19l-131.446-31.5c-3.154-0.751-5.366-3.563-5.366-6.801
	v-63.055c0-3.208,2.185-6.008,5.312-6.786l131.447-32.618c2.034-0.533,4.273-0.041,5.98,1.282c1.691,1.324,2.688,3.347,2.688,5.503
	v127.174c0,2.145-0.982,4.165-2.662,5.489C505.284,433.615,503.756,434.134,502.198,434.134z M377.742,390.127l117.467,28.154
	V308.912L377.742,338.05V390.127z"/>
<path fill="#5E686B" d="M67.003,207.967c-26.975,0-48.923-21.956-48.923-48.95c0-26.974,21.948-48.923,48.923-48.923
	c26.994,0,48.95,21.949,48.95,48.923C115.953,186.012,93.997,207.967,67.003,207.967z M67.003,124.077
	c-19.267,0-34.941,15.675-34.941,34.941c0,19.279,15.675,34.968,34.941,34.968c19.279,0,34.968-15.688,34.968-34.968
	C101.971,139.751,86.282,124.077,67.003,124.077z"/>
<path fill="#5E686B" d="M238.212,211.367c-42.396,0-76.886-34.497-76.886-76.9c0-42.403,34.489-76.9,76.886-76.9
	c42.41,0,76.914,34.497,76.914,76.9C315.126,176.87,280.621,211.367,238.212,211.367z M238.212,71.549
	c-34.682,0-62.904,28.223-62.904,62.918c0,34.695,28.223,62.918,62.904,62.918c34.695,0,62.932-28.223,62.932-62.918
	C301.144,99.772,272.906,71.549,238.212,71.549z"/>
</svg>
