<?xml version="1.0" encoding="utf-8"?>
<!-- Generator: Adobe Illustrator 16.0.0, SVG Export Plug-In . SVG Version: 6.00 Build 0)  -->
<!DOCTYPE svg PUBLIC "-//W3C//DTD SVG 1.1//EN" "http://www.w3.org/Graphics/SVG/1.1/DTD/svg11.dtd">
<svg version="1.1" id="Layer_1" xmlns="http://www.w3.org/2000/svg" xmlns:xlink="http://www.w3.org/1999/xlink" x="0px" y="0px"
	 width="512px" height="512px" viewBox="0 0 512 512" enable-background="new 0 0 512 512" xml:space="preserve">
<path fill="#5E686B" d="M230.633,467.281c-46.615-3.633-63.52-69.365-74.809-113.279c-1.568-6.115-3.038-11.836-4.481-16.97
	c-2.136-7.577-4.625-17.257-7.42-28.113c-19.542-76.03-37.819-139.493-64.083-146.299c-0.36-0.058-2.025-0.189-2.391-0.189
	c-10.993,0-30.197,13.024-40.164,20.378l-14.579-19.935c10.646-8.877,22.163-19.733,34.253-31.131
	c35.683-33.639,76.134-71.765,107.938-71.765c40.549,0,52.3,48.159,58.949,100.211c17.583,135.042,40.417,163.007,54.111,166.185
	c0.025-4.741,0.059-9.483-0.171-14.221c-11.717-8.653-29.089-64.742-40.667-153.674c-5.003-39.099-14.306-111.876-72.223-111.876
	c-37.12,0-79.616,40.066-117.114,75.409c-13.796,12.999-26.819,25.279-38.382,34.436c-2.815,2.234-3.363,6.29-1.248,9.19
	l22.352,30.568c1.071,1.47,2.698,2.436,4.494,2.678c1.809,0.287,3.625-0.255,5.049-1.365c13.259-10.444,31.333-21.712,37.009-21.829
	c20.145,5.239,42.954,93.934,53.914,136.56c2.822,10.987,5.337,20.758,7.499,28.4c1.41,5.043,2.854,10.673,4.402,16.683
	c12.371,48.129,30.945,120.339,88.083,123.379C230.98,476.231,230.921,471.754,230.633,467.281z"/>
<path fill="#69C299" d="M423.744,41.39c-66.271,0-116.475,43.861-137.755,120.342c-0.704,2.521,0.132,5.219,2.131,6.904
	c2.012,1.705,4.833,2.064,7.172,0.928c9.811-4.644,21.397-7.42,31.013-7.42c16.813,0,25.645,7.577,27.002,23.168
	c2.261,26.114-28.7,86.781-54.356,114.75c-7.354,8.017-12.279,11.201-15.153,12.459l-6.011-0.368
	c0.045,2.242,0.171,14.221,0.171,14.221c0.406,0.474,5.904,0.063,5.904,0.063c7.247-1.268,15.443-6.973,24.95-17.338
	c28.23-30.789,60.458-94.488,57.819-124.938c-1.946-22.496-16.643-35.396-40.327-35.396c-7.42,0-15.533,1.28-23.449,3.638
	c21.424-63.103,63.974-97.637,120.891-97.637c48.518,0,70.151,27.734,70.151,89.93c0,81.877-164.298,319.442-257.256,322.711
	l-6.008-0.126l0.322,13.431l6,0.069c107.032-3.535,270.319-258.222,270.318-336.084C507.273,119.145,507.273,41.39,423.744,41.39z"
	/>
</svg>
