<?xml version="1.0" encoding="utf-8"?>
<!-- Generator: Adobe Illustrator 16.0.0, SVG Export Plug-In . SVG Version: 6.00 Build 0)  -->
<!DOCTYPE svg PUBLIC "-//W3C//DTD SVG 1.1//EN" "http://www.w3.org/Graphics/SVG/1.1/DTD/svg11.dtd">
<svg version="1.1" id="Layer_1" xmlns="http://www.w3.org/2000/svg" xmlns:xlink="http://www.w3.org/1999/xlink" x="0px" y="0px"
	 width="512px" height="512px" viewBox="0 0 512 512" enable-background="new 0 0 512 512" xml:space="preserve">
<path fill="#69C299" d="M305.207,99.073c-4.499-1.549-12.941-3.23-12.941-3.23"/>
<path fill="#69C299" d="M294.518,82.77c2.927,0.915,9.367,2.017,13.187,3.03"/>
<path fill="#5E686B" d="M498.865,273.298h-41.938c-1.048-31.667-9.454-61.5-23.565-87.844l36.339-20.989
	c3.224-1.861,4.326-5.976,2.459-9.198c-1.854-3.241-5.981-4.326-9.189-2.465l-36.363,21.004
	c-14.229-22.758-32.876-42.481-54.743-57.947c-0.42-0.375-0.877-0.691-1.362-0.945c-18.85-13.101-40.033-23.06-62.797-29.114
	c0.07-0.194-13.132-3.19-13.187-3.03c-12.445-2.42-25.292-3.703-38.434-3.703c-11.719,0-23.2,1.025-34.374,2.962l-19,4.257
	c-22.13,6.102-42.743,15.891-61.127,28.679c-0.405,0.222-0.789,0.488-1.147,0.796c-21.932,15.482-40.633,35.242-54.895,58.052
	L49.18,152.805c-3.221-1.861-7.344-0.769-9.198,2.465c-1.859,3.215-0.756,7.337,2.465,9.198l36.341,20.995
	c-14.111,26.342-22.519,56.173-23.565,87.837H13.266c-3.721,0-6.73,3.011-6.73,6.731c0,3.72,3.011,6.732,6.73,6.732h41.953
	c1.048,31.666,9.454,61.498,23.564,87.842L42.444,395.6c-3.221,1.854-4.323,5.971-2.465,9.191c1.249,2.156,3.513,3.366,5.838,3.366
	c1.146,0,2.303-0.289,3.361-0.907l36.354-21.005c35.542,56.854,98.697,94.76,170.55,94.76c71.846,0,134.993-37.901,170.529-94.754
	l36.355,20.999c1.062,0.618,2.221,0.907,3.365,0.907c2.314,0,4.59-1.21,5.824-3.366c1.867-3.221,0.765-7.337-2.459-9.191
	l-36.338-20.987c14.11-26.346,22.518-56.181,23.564-87.85h41.938c3.723,0,6.733-3.012,6.732-6.731
	C505.597,276.309,502.587,273.298,498.865,273.298z M249.35,467.405c-100.293-3.559-180.791-86.238-180.791-187.376
	c0-61.829,30.092-116.755,76.396-150.928c31.6,20.966,67.86,32.054,104.396,33.268V467.405z M157.058,120.875
	c15.498-9.675,32.5-17.149,50.574-21.986c0,0.003,0.001,0.007,0.001,0.011c-0.001-0.011,13.184-3.029,13.19-2.985
	c-0.002-0.015-0.004-0.03-0.006-0.044c11.427-2.183,23.211-3.339,35.265-3.339c10.967,0,21.708,0.968,32.163,2.785
	c5.819,0.497,16.219,3.83,16.255,3.564c18.087,4.839,35.102,12.32,50.608,22.004C294.685,158.413,217.434,158.398,157.058,120.875z
	 M262.809,467.405V162.37c36.542-1.21,72.812-12.295,104.402-33.259c46.29,34.174,76.374,89.096,76.374,150.918
	C443.585,381.169,363.091,463.85,262.809,467.405z"/>
<path fill="#69C299" d="M217.829,82.899l-2.137-5.191c-11.635-27.699-39.009-47.211-70.878-47.211c-3.721,0-6.73,3.011-6.73,6.732
	s3.01,6.732,6.73,6.732c25.294,0,47.16,14.898,57.328,36.378l2.192,5.585c0,0,3.839,11.327,3.839,19.199c0,0,0.045,1.51,0.045,2.27
	c0,3.721,3.01,6.732,6.732,6.732c3.722,0,6.731-3.012,6.731-6.732C222.202,95.612,217.829,82.899,217.829,82.899z"/>
<path fill="#69C299" d="M307.704,85.8l2.594-6.099c10.296-21.137,31.98-35.741,57.023-35.741c3.722,0,6.732-3.011,6.732-6.732
	s-3.011-6.732-6.732-6.732c-31.549,0-58.703,19.128-70.53,46.394l-2.273,5.88c0,0-4.435,14.063-4.069,24.621
	c0,3.692,3.011,6.732,6.731,6.732s6.732-3.012,6.733-6.732C304.417,96.583,307.704,85.8,307.704,85.8z"/>
</svg>
