<?xml version="1.0" encoding="utf-8"?>
<!-- Generator: Adobe Illustrator 16.0.0, SVG Export Plug-In . SVG Version: 6.00 Build 0)  -->
<!DOCTYPE svg PUBLIC "-//W3C//DTD SVG 1.1//EN" "http://www.w3.org/Graphics/SVG/1.1/DTD/svg11.dtd">
<svg version="1.1" id="Layer_1" xmlns="http://www.w3.org/2000/svg" xmlns:xlink="http://www.w3.org/1999/xlink" x="0px" y="0px"
	 width="512px" height="512px" viewBox="0 0 512 512" enable-background="new 0 0 512 512" xml:space="preserve">
<path fill="#5E686B" d="M472.821,213.634H213.989c-3.719,0-6.729,3.011-6.729,6.73c0,3.719,3.009,6.729,6.729,6.729h258.832
	c10.41,0,18.875,7.334,18.875,16.351v128.797c0,9.03-8.465,16.365-18.875,16.365H39.509c-10.417,0-18.896-7.335-18.896-16.365
	V243.443c0-9.017,8.479-16.351,18.896-16.351h66.811c3.721,0,6.729-3.009,6.729-6.729c0-3.72-3.009-6.73-6.729-6.73H39.509
	c-17.843,0-32.354,13.368-32.354,29.811v128.798c0,16.441,14.513,29.824,32.354,29.824h433.312
	c17.823,0,32.334-13.382,32.334-29.823V243.445C505.155,227.002,490.644,213.634,472.821,213.634z"/>
<path fill="#5E686B" d="M472.821,4.277H213.989c-3.719,0-6.729,3.009-6.729,6.729c0,3.72,3.009,6.73,6.729,6.73h258.832
	c10.41,0,18.875,7.334,18.875,16.351v128.811c0,9.017-8.465,16.351-18.875,16.351H39.509c-10.417,0-18.896-7.334-18.896-16.351
	V34.086c0-9.017,8.479-16.351,18.896-16.351h66.811c3.721,0,6.729-3.011,6.729-6.73c0-3.719-3.009-6.729-6.729-6.729H39.509
	c-17.843,0-32.354,13.374-32.354,29.811v128.811c0,16.437,14.513,29.811,32.354,29.811h433.312
	c17.823,0,32.334-13.374,32.334-29.809V34.088C505.155,17.651,490.644,4.277,472.821,4.277z"/>
<path fill="#69C299" d="M412.437,314.58c3.719,0,6.729-3.01,6.729-6.729c0-3.719-3.01-6.729-6.729-6.729H377.71
	c-3.719,0-6.729,3.011-6.729,6.729c0,3.721,3.009,6.729,6.729,6.729H412.437z"/>
<path fill="#69C299" d="M412.437,105.196c3.719,0,6.729-3.009,6.729-6.729c0-3.72-3.01-6.73-6.729-6.73H377.71
	c-3.719,0-6.729,3.011-6.729,6.73c0,3.719,3.009,6.729,6.729,6.729H412.437z"/>
<path fill="#5E686B" d="M415.906,473.794h-133.68c-2.437-9.45-9.893-16.909-19.342-19.351v-30.032c0-3.719-3.01-6.729-6.729-6.729
	c-3.719,0-6.729,3.011-6.729,6.729v30.032c-9.449,2.44-16.905,9.899-19.342,19.351H96.396c-3.719,0-6.729,3.009-6.729,6.73
	c0,3.719,3.009,6.729,6.729,6.729h133.696c3.001,11.589,13.55,20.176,26.062,20.176c12.513,0,23.062-8.587,26.063-20.176h133.688
	c3.722,0,6.731-3.01,6.73-6.729C422.636,476.804,419.626,473.794,415.906,473.794z M256.155,493.97
	c-7.426,0-13.459-6.032-13.459-13.46c0-7.426,6.033-13.459,13.459-13.459c7.428,0,13.459,6.033,13.459,13.459
	C269.614,487.938,263.582,493.97,256.155,493.97z"/>
</svg>
