<?xml version="1.0" encoding="utf-8"?>
<!-- Generator: Adobe Illustrator 16.0.0, SVG Export Plug-In . SVG Version: 6.00 Build 0)  -->
<!DOCTYPE svg PUBLIC "-//W3C//DTD SVG 1.1//EN" "http://www.w3.org/Graphics/SVG/1.1/DTD/svg11.dtd">
<svg version="1.1" id="Layer_1" xmlns="http://www.w3.org/2000/svg" xmlns:xlink="http://www.w3.org/1999/xlink" x="0px" y="0px"
	 width="512px" height="512px" viewBox="0 0 512 512" enable-background="new 0 0 512 512" xml:space="preserve">
<path fill="#69C299" d="M370.204,365.73c26.65,0,48.339-21.675,48.339-48.307c0-26.604-21.688-48.252-48.339-48.252
	c-26.593,0-48.227,21.646-48.227,48.252C321.979,344.056,343.613,365.73,370.204,365.73z M370.204,282.969
	c19.047,0,34.543,15.463,34.543,34.457c0,19.033-15.496,34.512-34.543,34.512c-18.987,0-34.433-15.479-34.433-34.512
	C335.773,298.432,351.218,282.969,370.204,282.969z"/>
<path fill="#5E686B" d="M485.894,124.361c-1.293-1.286-3.044-2.014-4.876-2.014c0,0,0,0-0.014,0l-101.627,0.129v-94.8
	c0-11.383-5.044-17.768-9.281-21.122c-12.863-10.197-33.764-5.671-37.043-4.829L22.627,123.404c-0.022,0.009-0.042,0.02-0.064,0.029
	c-0.133,0.054-0.263,0.115-0.392,0.177c-0.083,0.04-0.167,0.077-0.249,0.12c-0.103,0.054-0.198,0.113-0.296,0.171
	c-0.103,0.061-0.206,0.12-0.305,0.185c-0.065,0.044-0.128,0.092-0.191,0.139c-0.121,0.087-0.243,0.174-0.357,0.268
	c-0.04,0.032-0.076,0.068-0.114,0.102c-0.131,0.112-0.261,0.226-0.381,0.346c-0.031,0.032-0.061,0.067-0.092,0.099
	c-0.121,0.125-0.239,0.251-0.35,0.385c-0.047,0.057-0.089,0.118-0.134,0.176c-0.087,0.113-0.176,0.224-0.256,0.342
	c-0.068,0.102-0.131,0.209-0.194,0.315c-0.048,0.079-0.1,0.156-0.145,0.237c-0.077,0.139-0.144,0.283-0.211,0.428
	c-0.024,0.054-0.054,0.105-0.077,0.16c-0.064,0.15-0.12,0.306-0.176,0.461c-0.019,0.054-0.042,0.107-0.059,0.161
	c-0.045,0.14-0.081,0.284-0.117,0.427c-0.021,0.077-0.042,0.153-0.06,0.23c-0.025,0.119-0.044,0.24-0.062,0.36
	c-0.018,0.108-0.037,0.215-0.049,0.324c-0.011,0.1-0.017,0.202-0.023,0.304c-0.009,0.13-0.018,0.261-0.02,0.393
	c0,0.027-0.004,0.054-0.004,0.081V472.7c0,24.058,14.784,37.312,41.624,37.312H481.02c3.811,0,6.896-3.084,6.896-6.896V129.244
	C487.913,127.412,487.187,125.661,485.894,124.361z M337.148,14.86c4.25-1.004,17.844-2.675,24.382,2.505
	c2.729,2.162,4.057,5.537,4.057,10.312v94.817L61.734,122.88L337.148,14.86z M474.12,496.219H59.873
	c-24.664,0-27.83-12.567-27.83-23.52V136.713l442.077-0.566V496.219z"/>
<path fill="#69C299" d="M105.322,418.076c3.812,0,6.897-3.084,6.897-6.896V204.274c0-3.812-3.085-6.897-6.897-6.897
	c-3.812,0-6.896,3.085-6.896,6.897V411.18C98.426,414.992,101.51,418.076,105.322,418.076z"/>
</svg>
