<?xml version="1.0" encoding="utf-8"?>
<!-- Generator: Adobe Illustrator 16.0.0, SVG Export Plug-In . SVG Version: 6.00 Build 0)  -->
<!DOCTYPE svg PUBLIC "-//W3C//DTD SVG 1.1//EN" "http://www.w3.org/Graphics/SVG/1.1/DTD/svg11.dtd">
<svg version="1.1" id="Layer_1" xmlns="http://www.w3.org/2000/svg" xmlns:xlink="http://www.w3.org/1999/xlink" x="0px" y="0px"
	 width="512px" height="512px" viewBox="0 0 512 512" enable-background="new 0 0 512 512" xml:space="preserve">
<path fill="#69C299" d="M301.469,508.791c-0.026,0-0.054,0-0.093,0c-83.737-1.133-150.951-70.164-149.832-153.896
	c0-42.333,19.685-76.183,36.828-100.932c9.647-14.304,20.475-28.201,30.945-41.648c3.662-4.702,7.316-9.391,10.933-14.106
	c11.163-15.173,22.392-30.387,33.633-45.5c0.1-0.158,30.091-44.915,38.916-44.915c2.146,0,4.347,1.106,5.624,2.838L399.03,233.06
	c25.736,34.694,52.356,70.573,52.356,121.928c1.054,83.783-66.161,152.723-149.825,153.803
	C301.534,508.791,301.495,508.791,301.469,508.791z M302.035,124.686c-8.232,9.8-24.604,31.993-27.121,35.774
	c-11.433,15.397-22.647,30.583-33.876,45.836c-3.714,4.86-7.396,9.576-11.077,14.304c-10.333,13.264-21.016,26.989-30.453,40.977
	c-16.076,23.208-34.478,54.715-34.478,93.412c-1.021,76.354,60.175,139.234,136.424,140.313
	c76.21-1.013,137.403-63.813,136.442-140.038c0-47.18-24.144-79.714-49.709-114.169L302.035,124.686z"/>
<path fill="#5E686B" d="M117.035,302.986c-0.981,0-1.977-0.211-2.917-0.672c-41.2-19.81-67.426-62.155-66.812-107.886
	c0-32.863,15.227-59.061,28.49-78.206c7.376-10.932,15.642-21.542,23.636-31.809l8.502-10.979
	c8.535-11.604,17.144-23.241,25.75-34.832c3.695-5.598,23.558-35.056,31.084-35.056c2.147,0,4.308,1.093,5.578,2.825l69.42,93.807
	c3.333,4.478,6.6,8.91,9.747,13.336c1.173,1.646,1.542,3.727,1.015,5.677c-3.839,14.186-23.359,38.381-48.083,69.018
	c-26.572,32.942-59.646,73.945-79.449,111.193C121.79,301.684,119.459,302.986,117.035,302.986z M164.117,20.625
	c-6.521,7.995-17.677,23.129-19.396,25.724c-8.805,11.867-17.399,23.491-26,35.181l-8.654,11.176
	c-7.85,10.083-15.977,20.507-23.135,31.13c-12.197,17.597-26.139,41.471-26.139,70.684c-0.515,38.448,20.29,74.117,53.495,92.701
	c20.587-36.722,52.094-75.775,77.658-107.479c20.18-25,39.317-48.728,44.561-61.221c-2.463-3.418-4.999-6.843-7.574-10.307
	L164.117,20.625z"/>
</svg>
