<?xml version="1.0" encoding="utf-8"?>
<!-- Generator: Adobe Illustrator 16.0.0, SVG Export Plug-In . SVG Version: 6.00 Build 0)  -->
<!DOCTYPE svg PUBLIC "-//W3C//DTD SVG 1.1//EN" "http://www.w3.org/Graphics/SVG/1.1/DTD/svg11.dtd">
<svg version="1.1" id="Layer_1" xmlns="http://www.w3.org/2000/svg" xmlns:xlink="http://www.w3.org/1999/xlink" x="0px" y="0px"
	 width="512px" height="512px" viewBox="0 0 512 512" enable-background="new 0 0 512 512" xml:space="preserve">
<path fill="#5E686B" d="M250.142,455.198c-35.801,0-64.932-29.124-64.932-64.933c0-35.808,29.131-64.932,64.932-64.932
	c35.809,0,64.945,29.124,64.945,64.932C315.087,426.074,285.949,455.198,250.142,455.198z M250.142,338.86
	c-28.345,0-51.406,23.062-51.406,51.405c0,28.345,23.062,51.407,51.406,51.407c28.358,0,51.42-23.062,51.42-51.407
	C301.562,361.921,278.5,338.86,250.142,338.86z"/>
<path fill="#5E686B" d="M348.873,298.312c-1.73,0-3.46-0.662-4.781-1.981c-25.082-25.083-58.446-38.897-93.95-38.897
	c-35.49,0-68.848,13.814-93.924,38.897c-2.642,2.642-6.921,2.642-9.562,0c-2.641-2.642-2.642-6.922,0-9.563
	c27.625-27.645,64.384-42.867,103.486-42.867c39.123,0,75.882,15.223,103.513,42.867c2.644,2.643,2.644,6.922,0,9.563
	C352.334,297.65,350.604,298.312,348.873,298.312z"/>
<path fill="#69C299" d="M422.906,235.909c-1.729,0-3.46-0.661-4.78-1.981c-44.868-44.869-104.53-69.581-167.982-69.581
	s-123.114,24.712-167.981,69.581c-2.643,2.642-6.921,2.642-9.562,0c-2.642-2.642-2.642-6.921,0-9.563
	c47.424-47.424,110.48-73.543,177.545-73.543c67.071,0,130.114,26.119,177.546,73.543c2.641,2.642,2.641,6.921,0,9.563
	C426.365,235.248,424.636,235.909,422.906,235.909z"/>
<path fill="#69C299" d="M498.642,171.809c-1.73,0-3.46-0.661-4.781-1.981c-63.519-63.551-148.012-98.546-237.894-98.546
	c-89.896,0-174.382,34.995-237.907,98.546c-2.642,2.642-6.921,2.642-9.562,0c-2.643-2.642-2.643-6.921,0-9.562
	c66.073-66.102,153.961-102.51,247.469-102.51c93.501,0,181.375,36.408,247.456,102.509c2.642,2.642,2.642,6.921,0,9.562
	C502.103,171.148,500.371,171.809,498.642,171.809z"/>
</svg>
