<?xml version="1.0" encoding="utf-8"?>
<!-- Generator: Adobe Illustrator 16.0.0, SVG Export Plug-In . SVG Version: 6.00 Build 0)  -->
<!DOCTYPE svg PUBLIC "-//W3C//DTD SVG 1.1//EN" "http://www.w3.org/Graphics/SVG/1.1/DTD/svg11.dtd">
<svg version="1.1" id="Layer_1" xmlns="http://www.w3.org/2000/svg" xmlns:xlink="http://www.w3.org/1999/xlink" x="0px" y="0px"
	 width="512px" height="512px" viewBox="0 0 512 512" enable-background="new 0 0 512 512" xml:space="preserve">
<path fill="#5E686B" d="M331.796,441.462H260.69c0.215-0.659,0.334-1.362,0.334-2.094v-41.312c0-3.726-3.015-6.74-6.742-6.74
	c-3.727,0-6.741,3.015-6.741,6.74v41.312c0,0.73,0.12,1.435,0.335,2.094h-69.296c-3.729,0-6.743,3.015-6.743,6.742
	c0,3.727,3.016,6.743,6.743,6.743h153.218c3.728,0,6.743-3.017,6.743-6.743C338.539,444.478,335.524,441.462,331.796,441.462z"/>
<path fill="#5E686B" d="M104.04,231.886H69.312v0c-26.911,0-48.805-21.9-48.805-48.805V80.255h69.827V66.769H13.765
	c-3.727,0-6.743,3.016-6.743,6.743V183.08c0,34.346,27.946,62.291,62.291,62.291h41.257
	C108.785,241.71,104.04,231.886,104.04,231.886z"/>
<path fill="#5E686B" d="M500.365,66.769H423.5l0.006,13.56l70.112-0.074v102.826h0.001c0,26.905-21.899,48.805-48.806,48.805
	h-34.853c-2.007,4.138-6.352,13.485-6.352,13.485h41.205c34.345,0,62.291-27.945,62.292-62.291V73.512
	C507.107,69.785,504.092,66.769,500.365,66.769z"/>
<path fill="#69C299" d="M411.151,229.27c7.954-19.417,12.355-40.653,12.355-62.9l-0.006-99.6H90.334l0.044,99.384
	c0,23.25,5.015,45.613,13.662,65.732c0,0,6.446,13.359,6.46,13.356c28.158,52.113,83.297,87.6,146.572,87.6
	c63.266,0,118.39-35.488,146.537-87.603C403.669,245.251,410.945,229.562,411.151,229.27z M257.074,319.356
	c-84.363,0-152.994-68.625-152.994-152.987V80.255h305.94v86.114C410.022,250.731,341.41,319.356,257.074,319.356z"/>
</svg>
