<?xml version="1.0" encoding="utf-8"?>
<!-- Generator: Adobe Illustrator 16.0.0, SVG Export Plug-In . SVG Version: 6.00 Build 0)  -->
<!DOCTYPE svg PUBLIC "-//W3C//DTD SVG 1.1//EN" "http://www.w3.org/Graphics/SVG/1.1/DTD/svg11.dtd">
<svg version="1.1" id="Layer_1" xmlns="http://www.w3.org/2000/svg" xmlns:xlink="http://www.w3.org/1999/xlink" x="0px" y="0px"
	 width="512px" height="512px" viewBox="0 0 512 512" enable-background="new 0 0 512 512" xml:space="preserve">
<path fill="#5E686B" d="M94.992,169.177h129.922c3.555,0,6.432-2.877,6.432-6.433V36.466c0-1.86-0.804-3.631-2.205-4.85
	c-1.4-1.225-3.311-1.771-5.105-1.52L94.112,48.075c-3.184,0.44-5.553,3.16-5.553,6.37v108.299
	C88.559,166.3,91.437,169.177,94.992,169.177z M101.425,60.048l117.057-16.201v112.465H101.425V60.048z"/>
<path fill="#5E686B" d="M246.875,169.177H417.08c3.558,0,6.435-2.877,6.435-6.432V11.251c0-1.86-0.804-3.631-2.211-4.85
	c-1.396-1.225-3.254-1.79-5.103-1.52L245.995,28.387c-3.187,0.44-5.555,3.16-5.555,6.37v127.987
	C240.442,166.3,243.319,169.177,246.875,169.177z M253.308,40.361L410.65,18.632v137.68H253.308V40.361z"/>
<path fill="#69C299" d="M372.205,294.061c-14.186,0-25.73,11.532-25.73,25.719c0,14.195,11.545,25.743,25.73,25.743
	c14.184,0,25.729-11.547,25.729-25.743C397.935,305.593,386.389,294.061,372.205,294.061z M372.205,332.657
	c-7.1,0-12.865-5.779-12.865-12.878c0-7.086,5.766-12.854,12.865-12.854c7.098,0,12.864,5.768,12.863,12.854
	C385.07,326.878,379.303,332.657,372.205,332.657z"/>
<path fill="#5E686B" d="M101.425,191.139h117.056v49.06h12.865v-55.493c0-3.556-2.877-6.433-6.433-6.433H94.992
	c-3.558,0-6.435,2.877-6.435,6.433v55.493h12.867V191.139z"/>
<path fill="#5E686B" d="M253.308,191.138h157.341v49.061h12.866v-55.494c0-3.556-2.877-6.433-6.435-6.433H246.875
	c-3.558,0-6.435,2.877-6.435,6.433v55.494h12.867V191.138z"/>
<path fill="#69C299" d="M437.235,240.199H74.89c-15.359,0-27.854,11.547-27.854,25.744V373.64c0,14.197,12.493,25.743,27.854,25.743
	h362.345c15.354,0,27.841-11.546,27.842-25.743V265.943C465.075,251.745,452.589,240.199,437.235,240.199z M452.213,373.64
	L452.213,373.64c-0.001,7.101-6.725,12.878-14.979,12.878H74.89c-8.266,0-14.988-5.777-14.988-12.878V265.943
	c0-7.098,6.723-12.878,14.988-12.878h362.345c8.255,0,14.979,5.779,14.979,12.878V373.64z"/>
<path fill="#5E686B" d="M382.984,475.757H280.958c-2.33-9.028-9.454-16.148-18.485-18.48v-32.979c0-3.556-2.87-6.433-6.426-6.433
	s-6.435,2.877-6.435,6.433v32.977c-9.03,2.328-16.156,9.452-18.485,18.484H129.103c-3.556,0-6.433,2.877-6.433,6.435
	c0,3.556,2.877,6.433,6.433,6.433h102.029c2.866,11.087,12.946,19.298,24.902,19.298c11.967,0,22.052-8.211,24.919-19.298h102.03
	c3.557,0,6.434-2.877,6.434-6.433C389.417,478.634,386.54,475.757,382.984,475.757z M256.034,495.056
	c-7.082,0-12.845-5.77-12.854-12.861c0-0.001,0-0.002,0-0.003c0-0.007-0.001-0.012-0.001-0.017
	c0.002-7.085,5.768-12.85,12.854-12.85c7.092,0,12.87,5.767,12.869,12.853C268.905,489.277,263.126,495.056,256.034,495.056z"/>
</svg>
