<?xml version="1.0" encoding="utf-8"?>
<!-- Generator: Adobe Illustrator 16.0.0, SVG Export Plug-In . SVG Version: 6.00 Build 0)  -->
<!DOCTYPE svg PUBLIC "-//W3C//DTD SVG 1.1//EN" "http://www.w3.org/Graphics/SVG/1.1/DTD/svg11.dtd">
<svg version="1.1" id="Layer_1" xmlns="http://www.w3.org/2000/svg" xmlns:xlink="http://www.w3.org/1999/xlink" x="0px" y="0px"
	 width="512px" height="512px" viewBox="0 0 512 512" enable-background="new 0 0 512 512" xml:space="preserve">
<path fill="#5E686B" d="M210.865,473.6c-0.293,0-0.586-0.014-0.864-0.054L12.815,448.191c-3.391-0.438-5.937-3.323-5.937-6.754
	V276.706c0-3.763,3.044-6.808,6.807-6.808h197.179c3.764,0,6.808,3.045,6.808,6.808v190.086c0,1.954-0.837,3.815-2.313,5.105
	C214.109,473.001,212.513,473.6,210.865,473.6z M20.492,435.454l183.563,23.6v-175.54H20.492V435.454z"/>
<path fill="#5E686B" d="M210.865,250.182H13.685c-3.763,0-6.807-3.045-6.807-6.807V79.002c0-3.397,2.506-6.275,5.876-6.741
	l197.179-27.283c1.941-0.286,3.937,0.312,5.398,1.609c1.488,1.29,2.34,3.165,2.34,5.132v191.655
	C217.672,247.137,214.627,250.182,210.865,250.182z M20.492,236.567h183.563V59.531L20.492,84.932V236.567z"/>
<path fill="#69C299" d="M502.54,250.182H244.21c-3.764,0-6.809-3.045-6.809-6.807V49.127c0-3.397,2.514-6.275,5.876-6.741
	L501.611,6.714c1.941-0.299,3.937,0.319,5.397,1.609c1.488,1.29,2.341,3.164,2.341,5.132v229.919
	C509.349,247.137,506.304,250.182,502.54,250.182z M251.017,236.567h244.717V21.266L251.017,55.057V236.567z"/>
<path fill="#5E686B" d="M502.54,509.125c-0.293,0-0.57-0.014-0.863-0.053l-258.332-33.159c-3.404-0.439-5.943-3.324-5.943-6.755
	V276.706c0-3.763,3.045-6.808,6.809-6.808h258.331c3.764,0,6.809,3.045,6.809,6.808v225.611c0,1.954-0.838,3.815-2.313,5.104
	C505.784,508.526,504.19,509.125,502.54,509.125z M251.017,463.176l244.717,31.404V283.514H251.017V463.176z"/>
</svg>
