<?xml version="1.0" encoding="utf-8"?>
<!-- Generator: Adobe Illustrator 16.0.0, SVG Export Plug-In . SVG Version: 6.00 Build 0)  -->
<!DOCTYPE svg PUBLIC "-//W3C//DTD SVG 1.1//EN" "http://www.w3.org/Graphics/SVG/1.1/DTD/svg11.dtd">
<svg version="1.1" id="Layer_1" xmlns="http://www.w3.org/2000/svg" xmlns:xlink="http://www.w3.org/1999/xlink" x="0px" y="0px"
	 width="512px" height="512px" viewBox="0 0 512 512" enable-background="new 0 0 512 512" xml:space="preserve">
<path fill="#69C299" d="M182.633,219.896H87.66c-3.75,0-6.784,3.034-6.784,6.784v162.811c0,3.75,3.034,6.784,6.784,6.784h94.973
	c3.75,0,6.784-3.034,6.784-6.783V226.68C189.417,222.93,186.383,219.896,182.633,219.896z M175.85,382.707H94.444V233.464h81.406
	V382.707z"/>
<path fill="#5E686B" d="M507.505,163.125c0.015-0.181,0.026-0.362,0.026-0.547V64.69c0-3.75-3.034-6.784-6.781-6.784H11.356
	c-3.75,0-6.784,3.034-6.784,6.784v97.888v293.638c0,3.75,3.034,6.784,6.784,6.784H500.75c3.747,0,6.781-3.034,6.782-6.785V163.691
	C507.532,163.5,507.521,163.312,507.505,163.125z M18.139,71.474h475.827v84.32H18.139V71.474z M18.14,449.432v-280.07h475.827
	v280.07H18.14z"/>
<path fill="#5E686B" d="M83.036,84.83C68.07,84.83,55.9,96.999,55.9,111.965c0,14.966,12.17,27.135,27.137,27.135
	c14.965,0,27.135-12.17,27.135-27.135C110.171,96.999,98.001,84.83,83.036,84.83z M83.036,125.532
	c-7.48,0-13.568-6.087-13.568-13.567s6.089-13.568,13.568-13.568c7.479,0,13.566,6.089,13.566,13.568S90.516,125.532,83.036,125.532
	z"/>
<path fill="#5E686B" d="M159.924,84.83c-14.965,0-27.135,12.169-27.135,27.135c0,14.966,12.17,27.135,27.135,27.135
	s27.135-12.17,27.135-27.135C187.059,96.999,174.889,84.83,159.924,84.83z M159.924,125.532c-7.48,0-13.568-6.087-13.568-13.567
	s6.089-13.568,13.568-13.568c7.479,0,13.567,6.089,13.567,13.568S167.403,125.532,159.924,125.532z"/>
<path fill="#5E686B" d="M236.818,84.83c-14.959,0-27.135,12.169-27.135,27.135c0,14.966,12.176,27.135,27.135,27.135
	s27.136-12.17,27.137-27.135C263.953,96.999,251.777,84.83,236.818,84.83z M236.818,125.532c-7.484,0-13.565-6.087-13.565-13.567
	s6.081-13.568,13.565-13.568c7.485,0,13.567,6.089,13.567,13.568S244.304,125.532,236.818,125.532z"/>
<path fill="#69C299" d="M418.866,275.227H256.056c-3.75,0-6.784,3.035-6.784,6.783c0,3.75,3.034,6.784,6.784,6.784h162.811
	c3.75,0,6.784-3.034,6.784-6.784C425.651,278.262,422.616,275.227,418.866,275.227z"/>
<path fill="#69C299" d="M418.866,327.801H256.056c-3.75,0-6.784,3.034-6.784,6.784c0,3.749,3.034,6.783,6.784,6.783h162.811
	c3.75,0,6.784-3.034,6.784-6.783C425.651,330.835,422.616,327.801,418.866,327.801z"/>
<path fill="#69C299" d="M379.356,380.522H257.248c-3.75,0-6.784,3.032-6.784,6.781c0,3.75,3.034,6.784,6.784,6.784h122.107
	c3.75,0,6.784-3.034,6.783-6.784C386.14,383.556,383.106,380.522,379.356,380.522z"/>
</svg>
