<?xml version="1.0" encoding="utf-8"?>
<!-- Generator: Adobe Illustrator 16.0.0, SVG Export Plug-In . SVG Version: 6.00 Build 0)  -->
<!DOCTYPE svg PUBLIC "-//W3C//DTD SVG 1.1//EN" "http://www.w3.org/Graphics/SVG/1.1/DTD/svg11.dtd">
<svg version="1.1" id="Layer_1" xmlns="http://www.w3.org/2000/svg" xmlns:xlink="http://www.w3.org/1999/xlink" x="0px" y="0px"
	 width="512px" height="512px" viewBox="0 0 512 512" enable-background="new 0 0 512 512" xml:space="preserve">
<path fill="#5E686B" d="M282.322,253.328H65.43c-3.76,0-6.803-3.043-6.803-6.803c0-3.76,3.042-6.803,6.803-6.803h216.891
	c21.564,0,39.104-17.539,39.104-39.103s-17.538-39.103-39.104-39.103c-21.562,0-39.102,17.539-39.102,39.103
	c0,3.76-3.042,6.803-6.803,6.803c-3.76,0-6.803-3.042-6.803-6.803c0-29.065,23.649-52.708,52.708-52.708
	s52.708,23.644,52.708,52.708C335.03,229.684,311.379,253.328,282.322,253.328z"/>
<path fill="#5E686B" d="M380.231,384.121c-20.354,0-36.91-16.568-36.91-36.923c0-3.761,3.043-6.805,6.804-6.805
	s6.803,3.044,6.803,6.805c0,12.859,10.456,23.316,23.305,23.316c12.861,0,23.331-10.457,23.331-23.316
	c0-12.862-10.47-23.319-23.331-23.319H120.504c-3.76,0-6.803-3.042-6.803-6.802c0-3.761,3.043-6.804,6.803-6.804h259.727
	c20.368,0,36.938,16.567,36.938,36.925C417.166,367.553,400.599,384.121,380.231,384.121z"/>
<path fill="none" stroke="#69C299" stroke-linecap="round" stroke-linejoin="round" stroke-miterlimit="10" d="M366.48,217.44"/>
<path fill="#69C299" d="M433.603,291.367H10.358c-3.76,0-6.803-3.043-6.803-6.803c0-3.762,3.042-6.804,6.803-6.804h423.245
	c33.27,0,60.335-27.059,60.335-60.322c0-33.269-27.065-60.334-60.335-60.334c-33.256,0-60.321,27.065-60.321,60.334
	c0,3.76-3.042,6.803-6.802,6.803c-3.761,0-6.804-3.042-6.804-6.803c0-40.77,33.164-73.94,73.927-73.94
	c40.777,0,73.94,33.17,73.94,73.94C507.543,258.203,474.38,291.367,433.603,291.367z"/>
</svg>
