<?xml version="1.0" encoding="utf-8"?>
<!-- Generator: Adobe Illustrator 16.0.0, SVG Export Plug-In . SVG Version: 6.00 Build 0)  -->
<!DOCTYPE svg PUBLIC "-//W3C//DTD SVG 1.1//EN" "http://www.w3.org/Graphics/SVG/1.1/DTD/svg11.dtd">
<svg version="1.1" id="Layer_1" xmlns="http://www.w3.org/2000/svg" xmlns:xlink="http://www.w3.org/1999/xlink" x="0px" y="0px"
	 width="512px" height="512px" viewBox="0 0 512 512" enable-background="new 0 0 512 512" xml:space="preserve">
<path fill="#5E686B" d="M108.435,416.46l79.41-82.171l-10.078-9.35l-79.024,81.83l-80.549-80.548c-2.676-2.676-7.011-2.676-9.687,0
	c-2.677,2.678-2.677,7.014,0,9.688l85.358,85.357c0.064,0.068,0.125,0.141,0.192,0.206c0.033,0.031,0.068,0.059,0.103,0.089
	l85.315,85.316c1.339,1.338,3.091,2.007,4.844,2.007c1.752,0,3.507-0.669,4.846-2.007c2.676-2.677,2.676-7.012,0-9.688
	L108.435,416.46z"/>
<path fill="#69C299" d="M143.613,267.124c6.746,20.191,17.605,39.366,32.625,56.235l1.557,1.553l-0.027,0.027
	c3.842,4.618,10.875,10.036,12.67,12.452c29.379,25.703,66.993,39.85,106.103,39.85c0.013,0,0,0,0.013,0
	c42.963,0,83.358-16.739,113.756-47.139l62.98-62.98L143.613,267.124z M400.62,320.416c-27.803,27.803-64.771,43.124-104.068,43.124
	h-0.013c-36.206,0-71.035-13.246-97.77-37.023l-12.577-12.55c-9.095-10.222-16.507-21.387-22.262-33.143h276.282L400.62,320.416z"/>
<path fill="#5E686B" d="M506.591,224.133L288.31,5.838c-1.406-1.404-2.863-2.515-5.084-2.314c-1.994,0.147-3.533,0.843-4.711,2.462
	l-96.175,96.175c-42.606,42.606-56.468,103.636-40.776,158.339l2.049,6.624h14.895l-2.68-6.624
	c-16.075-50.926-3.794-108.658,36.2-148.652l91.387-91.533l208.646,208.662l-38.021,38.145h19.249l33.303-33.303
	C509.267,231.144,509.267,226.809,506.591,224.133z"/>
</svg>
