<?xml version="1.0" encoding="utf-8"?>
<!-- Generator: Adobe Illustrator 16.0.0, SVG Export Plug-In . SVG Version: 6.00 Build 0)  -->
<!DOCTYPE svg PUBLIC "-//W3C//DTD SVG 1.1//EN" "http://www.w3.org/Graphics/SVG/1.1/DTD/svg11.dtd">
<svg version="1.1" id="Layer_1" xmlns="http://www.w3.org/2000/svg" xmlns:xlink="http://www.w3.org/1999/xlink" x="0px" y="0px"
	 width="512px" height="512px" viewBox="0 0 512 512" enable-background="new 0 0 512 512" xml:space="preserve">
<path fill="#5E686B" d="M153.044,264.211c-30.912,0-56.063-25.137-56.063-56.049c0-30.906,25.151-56.05,56.063-56.05
	c30.898,0,56.03,25.144,56.03,56.05C209.074,239.074,183.943,264.211,153.044,264.211z M153.044,166.124
	c-23.188,0-42.051,18.857-42.051,42.038c0,23.181,18.862,42.037,42.051,42.037c23.174,0,42.023-18.856,42.023-42.037
	C195.068,184.981,176.219,166.124,153.044,166.124z"/>
<path fill="#5E686B" d="M410.531,264.211c-3.872,0-7.006-3.133-7.006-7.006c0-23.181-18.855-42.037-42.038-42.037
	c-23.181,0-42.036,18.856-42.036,42.037c0,3.873-3.135,7.006-7.007,7.006c-3.873,0-7.007-3.133-7.007-7.006
	c0-30.912,25.139-56.05,56.05-56.05c30.912,0,56.05,25.138,56.05,56.05C417.535,261.078,414.403,264.211,410.531,264.211z"/>
<path fill="#69C299" d="M257.282,411.63c-40.354,0-79.061-20.854-108.993-58.719c-2.401-3.037-1.89-7.443,1.148-9.854
	c3.053-2.395,7.458-1.847,9.839,1.149c27.226,34.443,62.03,53.409,98.006,53.409c35.947,0,70.746-18.952,97.965-53.368
	c2.436-3.023,6.842-3.517,9.853-1.149c3.023,2.409,3.544,6.815,1.149,9.854C336.308,390.789,297.61,411.63,257.282,411.63z"/>
<path fill="#5E686B" d="M257.269,509.43c-139.078,0-252.23-113.152-252.23-252.225c0-128.35,96.042-236.091,223.398-250.603
	c3.708-0.52,7.309,2.313,7.759,6.165c0.438,3.845-2.325,7.314-6.171,7.752C109.748,34.23,19.05,135.985,19.05,257.205
	c0,131.354,106.866,238.212,238.219,238.212c131.354,0,238.212-106.858,238.212-238.212c0-121.254-90.697-223.002-210.979-236.672
	c-3.846-0.431-6.609-3.907-6.172-7.752c0.438-3.852,3.969-6.617,7.76-6.165c127.356,14.471,223.404,122.199,223.404,250.589
	C509.492,396.276,396.34,509.43,257.269,509.43z"/>
</svg>
