<?xml version="1.0" encoding="utf-8"?>
<!-- Generator: Adobe Illustrator 16.0.0, SVG Export Plug-In . SVG Version: 6.00 Build 0)  -->
<!DOCTYPE svg PUBLIC "-//W3C//DTD SVG 1.1//EN" "http://www.w3.org/Graphics/SVG/1.1/DTD/svg11.dtd">
<svg version="1.1" id="Layer_1" xmlns="http://www.w3.org/2000/svg" xmlns:xlink="http://www.w3.org/1999/xlink" x="0px" y="0px"
	 width="512px" height="512px" viewBox="0 0 512 512" enable-background="new 0 0 512 512" xml:space="preserve">
<path fill="#69C299" d="M488.727,285.034l-64.641-107.712c0.104-2.437,0.17-4.885,0.17-7.348c0-29.287-7.527-56.845-20.738-80.854
	c-0.205-0.481-0.454-0.933-0.753-1.344C373.911,36.459,318.937,1.711,255.986,1.711c-92.773,0-168.256,75.482-168.256,168.263
	c0,2.464,0.064,4.914,0.17,7.353L23.275,285.034c-1.269,2.11-1.296,4.743-0.093,6.896c1.215,2.146,3.501,3.469,5.96,3.469h114.82
	c29.771,26.621,69.039,42.834,112.023,42.834c42.992,0,82.262-16.213,112.036-42.834h114.836c2.459,0,4.745-1.322,5.963-3.476
	C490.023,289.777,489.995,287.145,488.727,285.034z M255.986,15.397c54.84,0,103.095,28.704,130.543,71.874l-284.274,66.586
	C110.338,76.166,176.192,15.397,255.986,15.397z M90.377,199.795c5.584,31.092,19.747,59.24,39.93,81.917H41.224L90.377,199.795z
	 M101.415,169.975c0-0.626,0.017-1.248,0.023-1.872l292.195-68.44c10.825,21.104,16.937,45.007,16.937,70.312
	c0,85.23-69.348,154.571-154.585,154.571C170.749,324.546,101.415,255.205,101.415,169.975z M381.677,281.712
	c20.186-22.679,34.35-50.828,39.933-81.922l49.168,81.922H381.677z"/>
<path fill="#5E686B" d="M297.241,199.222c-15.144,0-27.45,12.322-27.45,27.464c0,3.782,3.061,6.842,6.843,6.842
	c3.781,0,6.842-3.06,6.842-6.842c0-7.598,6.175-13.779,13.768-13.779c7.604,0,13.792,6.181,13.792,13.779
	c0,3.782,3.061,6.842,6.843,6.842c3.781,0,6.842-3.06,6.841-6.842C324.718,211.544,312.395,199.222,297.241,199.222z"/>
<path fill="#5E686B" d="M204.428,199.222c-15.142,0-27.463,12.322-27.463,27.464c0,3.782,3.06,6.842,6.842,6.842
	s6.843-3.06,6.843-6.842c0-7.598,6.188-13.779,13.778-13.779c7.604,0,13.792,6.181,13.792,13.779c0,3.782,3.06,6.842,6.842,6.842
	s6.842-3.06,6.843-6.842C231.905,211.544,219.583,199.222,204.428,199.222z"/>
<path fill="#5E686B" d="M368.675,360.964h-239.97c-41.615,0-75.47,33.864-75.47,75.494v68.76c0,3.782,3.062,6.782,6.845,6.782
	c0.307,0,0.601-0.021,0.906-0.059h376.338c3.782,0,6.845-3.062,6.845-6.845v-68.64C444.169,394.828,410.303,360.964,368.675,360.964
	z M430.484,498.255H66.922v-61.797c0-34.079,27.718-61.81,61.783-61.81h239.97c34.08,0,61.809,27.73,61.809,61.81V498.255
	L430.484,498.255z"/>
</svg>
