<?xml version="1.0" encoding="utf-8"?>
<!-- Generator: Adobe Illustrator 16.0.0, SVG Export Plug-In . SVG Version: 6.00 Build 0)  -->
<!DOCTYPE svg PUBLIC "-//W3C//DTD SVG 1.1//EN" "http://www.w3.org/Graphics/SVG/1.1/DTD/svg11.dtd">
<svg version="1.1" id="Layer_1" xmlns="http://www.w3.org/2000/svg" xmlns:xlink="http://www.w3.org/1999/xlink" x="0px" y="0px"
	 width="512px" height="512px" viewBox="0 0 512 512" enable-background="new 0 0 512 512" xml:space="preserve">
<path fill="#69C299" d="M166.635,446.916c-1.004,0-2.015-0.225-2.953-0.674C90.907,410.944,43.885,336.201,43.885,255.817
	c0-30.859,6.691-60.556,19.353-85.879c1.202-2.417,3.646-3.917,6.435-3.725c2.701,0.152,5.046,1.896,5.971,4.432l96.751,265.558
	c0.799,1.109,1.275,2.471,1.275,3.95c0.006,3.791-3.448,6.896-6.896,6.764C166.727,446.916,166.681,446.916,166.635,446.916z
	 M68.727,191.18c-7.431,19.829-11.313,41.87-11.313,64.638c0,69.406,37.464,134.321,96.771,169.909L68.727,191.18z"/>
<path fill="#69C299" d="M357.171,386.849c-2.972,0-5.588-1.929-6.459-4.769l-68.351-221.614c-0.634-2.054-0.251-4.287,1.018-6.011
	c1.281-1.73,3.29-2.748,5.442-2.748c11.56,0,21.36-1.922,21.467-1.942l3.646,6.308l-1.969-6.473
	c0.014-0.053-0.198-1.024-0.845-2.074c-0.502-0.819-1.059-0.931-1.586-0.931c-0.938,0.072-33.157,2.074-53.852,2.074
	c-20.681,0-52.907-2.001-54.267-2.087c-1.784,0.013-2.135,0.951-2.267,1.308c-0.297,0.779-0.065,1.533,0.086,1.671
	c0.449,0,1.42,0.119,1.855,0.205c0.093,0.02,9.862,1.942,19.386,1.942c2.86,0,5.41,1.796,6.367,4.491l31.071,86.989
	c0.541,1.506,0.527,3.157-0.04,4.656l-45.568,121.091c-1.004,2.656-3.408,4.531-6.381,4.388c-2.833-0.027-5.356-1.812-6.314-4.479
	L125.055,160.75c-0.74-2.068-0.429-4.373,0.839-6.169c1.262-1.803,3.329-2.873,5.529-2.873c11.545,0,21.36-1.922,21.46-1.942
	c0,0,1.433-0.139,1.658-0.165c-0.245-0.013-0.205-1.09-0.819-2.074c-0.509-0.819-1.062-0.931-1.592-0.931
	c-0.938,0.072-33.164,2.074-53.844,2.074H85.854c-2.482,0-4.769-1.36-5.951-3.547c-1.182-2.186-1.069-4.841,0.291-6.916
	c37.986-58.092,105.232-94.175,175.491-94.175c52.412,0,101.566,18.884,142.241,54.631c2.112,1.143,3.554,3.388,3.554,5.964
	c0,3.738-3.025,6.764-6.764,6.764c-0.053,0.006-0.159,0.013-0.265,0h-2.074c-17.016,0-28.441,15.779-28.441,30.516
	c0,12.933,7.662,25.04,16.526,39.062l3.144,4.986c7.979,11.942,17.609,32.127,17.609,59.505c0,13.17-4.584,27.979-10.396,46.724
	c-2.033,6.605-4.239,13.713-6.445,21.414l-20.728,68.442c-0.858,2.853-3.488,4.795-6.46,4.808L357.171,386.849L357.171,386.849z
	 M297.884,164.912l59.234,192.03l14.279-47.16c2.206-7.702,4.438-14.915,6.5-21.599c5.47-17.649,9.788-31.6,9.788-42.723
	c0-23.99-8.4-41.612-15.441-52.167l-3.21-5.092c-9.577-15.139-18.626-29.439-18.626-46.295c0-17.114,10.91-35.199,28.256-41.619
	c-36.023-28.005-78.257-42.728-122.98-42.728c-61.414,0-120.351,29.439-156.798,77.583c20.304-0.04,52.498-2.041,52.821-2.061
	c0.006,0,0.02,0,0.025,0c10.198,0,16.043,8.27,16.043,16.262c0,7.992-5.692,13.798-13.533,13.818
	c0.316,0.026-5.298,1.136-13.343,1.717l65.239,182.063l38.204-101.541L215.67,165.11c-9.042-0.456-16.851-2.001-17.232-2.08
	c-7.087,0.145-12.959-6.097-12.959-14.347c0-4.036,1.5-7.833,4.222-10.7c3.005-3.17,7.317-4.914,12.14-4.914
	c0.753,0.033,33.593,2.074,53.845,2.074c20.271,0,53.099-2.041,53.428-2.061c0.015,0,0.015,0,0.026,0
	c10.198,0,16.037,8.263,16.037,16.255c0,7.999-5.693,13.805-13.526,13.824C311.966,163.188,306.154,164.337,297.884,164.912z"/>
<path fill="#69C299" d="M269.205,467.629c-23.674,0-42.213-2.668-60.12-8.639c-1.717-0.582-3.13-1.812-3.931-3.437
	c-0.799-1.624-0.911-3.5-0.316-5.218l62.135-178.111c0.938-2.709,4.055-4.308,6.38-4.531c2.854,0,5.391,1.783,6.367,4.465
	l62.616,171.48c1.611,1.611,2.299,3.91,1.85,6.144c-0.462,2.22-2.008,4.068-4.121,4.914
	C319.549,462.913,293.723,467.629,269.205,467.629z M219.925,448.171c14.531,4.082,30.046,5.931,49.281,5.931
	c20.013,0,40.911-3.342,58.533-9.272l-54.268-150.16L219.925,448.171z"/>
<path fill="#69C299" d="M359.245,438.62c-1.532,0-3.053-0.517-4.28-1.533c-2.192-1.796-3.038-4.755-2.113-7.437l62.127-180.174
	c11.11-25.998,16.209-48.191,16.209-70.292c0-2.82-0.502-6.103-0.978-9.392c-0.567-3.957-1.109-7.92-1.109-11.321
	c0-3.138,2.153-5.859,5.205-6.585c3.104-0.707,6.209,0.747,7.607,3.56c16.977,33.924,25.575,67.696,25.575,100.371
	c0,74.268-40.172,143.951-104.821,181.878C361.61,438.316,360.421,438.62,359.245,438.62z M443.868,195.44
	c-1.928,18.679-7.226,37.774-16.273,58.904l-55.522,161.039c50.938-37.002,81.891-96.525,81.891-159.565
	C453.962,236.101,450.579,215.896,443.868,195.44z"/>
<path fill="#5E686B" d="M255.684,509.043c-139.625,0-253.219-113.594-253.219-253.226c0-139.632,113.594-253.225,253.219-253.225
	s253.219,113.594,253.219,253.226C508.904,393.084,392.945,509.043,255.684,509.043z M255.684,16.119
	c-132.167,0-239.691,107.531-239.691,239.699c0,132.168,107.523,239.698,239.691,239.698c129.929,0,239.692-109.763,239.692-239.698
	C495.376,123.649,387.846,16.119,255.684,16.119z"/>
</svg>
