<?xml version="1.0" encoding="utf-8"?>
<!-- Generator: Adobe Illustrator 16.0.0, SVG Export Plug-In . SVG Version: 6.00 Build 0)  -->
<!DOCTYPE svg PUBLIC "-//W3C//DTD SVG 1.1//EN" "http://www.w3.org/Graphics/SVG/1.1/DTD/svg11.dtd">
<svg version="1.1" id="Layer_1" xmlns="http://www.w3.org/2000/svg" xmlns:xlink="http://www.w3.org/1999/xlink" x="0px" y="0px"
	 width="512px" height="512px" viewBox="0 0 512 512" enable-background="new 0 0 512 512" xml:space="preserve">
<path fill="#5E686B" d="M457.79,460.86H54.26C27.094,460.86,5,438.766,5,411.602V114.259C5,87.094,27.094,65,54.26,65h403.532
	c27.165,0,49.272,22.094,49.272,49.259v297.343C507.065,438.766,484.956,460.86,457.79,460.86z M54.26,78.556
	c-19.686,0-35.704,16.018-35.704,35.703v297.343c0,19.686,16.019,35.703,35.704,35.703h403.532
	c19.698,0,35.717-16.019,35.717-35.703V114.259c0-19.685-16.019-35.703-35.717-35.703H54.26z"/>
<path fill="#69C299" d="M213.554,333.43c-9.591,0-17.395-7.811-17.395-17.407V209.825c-0.008-13,15.229-22.479,27.271-14.085
	l81.674,51.192c6.498,2.674,10.81,9.002,10.81,15.992c0,5.348-2.543,10.34-6.978,13.715l-85.194,53.257
	C221.219,332.04,217.453,333.43,213.554,333.43z M213.554,205.986c-2.118,0-3.839,1.721-3.839,3.839v106.196
	c0,2.117,1.721,3.853,3.839,3.853c0.278,0,1.118,0,2.297-0.966l85.385-53.403c0.232-0.212,1.119-1.178,1.119-2.581
	c0-1.92-1.391-3.098-2.582-3.521c-0.463-0.158-0.905-0.37-1.321-0.635l-82.501-51.722
	C214.553,206.079,213.925,205.986,213.554,205.986z"/>
</svg>
