<?xml version="1.0" encoding="utf-8"?>
<!-- Generator: Adobe Illustrator 16.0.0, SVG Export Plug-In . SVG Version: 6.00 Build 0)  -->
<!DOCTYPE svg PUBLIC "-//W3C//DTD SVG 1.1//EN" "http://www.w3.org/Graphics/SVG/1.1/DTD/svg11.dtd">
<svg version="1.1" id="Layer_1" xmlns="http://www.w3.org/2000/svg" xmlns:xlink="http://www.w3.org/1999/xlink" x="0px" y="0px"
	 width="512px" height="512px" viewBox="0 0 512 512" enable-background="new 0 0 512 512" xml:space="preserve">
<path fill="none" stroke="#69C299" stroke-linecap="round" stroke-linejoin="round" stroke-miterlimit="10" d="M109.84,419.301"/>
<path fill="#69C299" d="M399.602,221.819c-3.622,0-6.601-2.874-6.719-6.509c-1.233-39.303-16.876-70.141-46.521-91.656
	c-3.006-2.185-3.661-6.384-1.482-9.389c2.179-3.019,6.404-3.661,9.383-1.49c33.174,24.087,50.68,58.442,52.058,102.115
	c0.118,3.707-2.795,6.811-6.509,6.922C399.745,221.819,399.666,221.819,399.602,221.819z"/>
<path fill="#5E686B" d="M255.101,423.726c-80.508,0-157.341-46.835-191.532-125.189c-7.349-16.863-12.46-34.554-15.183-52.59
	c-0.551-3.667,1.975-7.093,5.643-7.65c3.675-0.519,7.094,1.975,7.65,5.643c2.546,16.883,7.322,33.443,14.212,49.217
	c43.029,98.656,158.319,143.902,256.956,100.86c98.644-43.043,143.877-158.312,100.835-256.976
	c-20.854-47.787-59.064-84.596-107.594-103.643c-48.516-19.041-101.569-18.05-149.356,2.802
	C113.54,63.77,69.165,123.471,60.931,192.004c-0.446,3.688-3.891,6.358-7.474,5.873c-3.688-0.446-6.312-3.792-5.872-7.474
	C56.39,117.159,103.815,53.35,171.358,23.882C222.412,1.593,279.134,0.517,330.996,20.89
	c51.874,20.36,92.711,59.702,114.993,110.782c46.009,105.448-2.336,228.656-107.764,274.651
	C311.155,418.135,282.902,423.726,255.101,423.726z"/>
<path fill="#5E686B" d="M379.944,507.658c-2.57,0-5.039-1.496-6.153-4.017l-44.407-100.77c-1.496-3.386,0.053-7.349,3.451-8.857
	c3.347-1.481,7.336,0.039,8.857,3.451l44.407,100.771c1.496,3.386-0.053,7.349-3.451,8.856
	C381.768,507.475,380.85,507.658,379.944,507.658z"/>
</svg>
