<?xml version="1.0" encoding="utf-8"?>
<!-- Generator: Adobe Illustrator 22.1.0, SVG Export Plug-In . SVG Version: 6.00 Build 0)  -->
<svg version="1.1" id="OBJECTS" xmlns="http://www.w3.org/2000/svg" xmlns:xlink="http://www.w3.org/1999/xlink" x="0px" y="0px"
	 viewBox="0 0 1315 681" style="enable-background:new 0 0 1315 681;" xml:space="preserve">
<style type="text/css">
	.st0{opacity:0.15;fill:url(#SVGID_1_);}
</style>
<linearGradient id="SVGID_1_" gradientUnits="userSpaceOnUse" x1="0" y1="340.5" x2="1315" y2="340.5">
	<stop  offset="0" style="stop-color:#230FAE"/>
	<stop  offset="1" style="stop-color:#9F1EE5"/>
</linearGradient>
<path class="st0" d="M1122,0c31.1,101.7,12.6,236.4-110.4,252.5c-126.5,18.1-271.1-102.4-367.5,12c-72.3,84.3,18.1,222.9-96.4,283.2
	c-138.6,66.3-277.1-12-415.7-6c-0.3,0-0.6,0-0.9,0c-46.4,0.2-86.9,31.4-100.2,75.9c-8.8,29.5-19.2,49.3-30.9,63v0.4h995.3
	c11.9-29.7,32.6-56.7,57.9-76.4c50.8-39.3,116.3-53.9,180.2-60.4c27.1-2.7,54.6-4.3,81.6-7.9V0H1122z"/>
</svg>
