<?xml version="1.0" encoding="utf-8"?>
<!-- Generator: Adobe Illustrator 22.1.0, SVG Export Plug-In . SVG Version: 6.00 Build 0)  -->
<svg version="1.1" id="OBJECTS" xmlns="http://www.w3.org/2000/svg" xmlns:xlink="http://www.w3.org/1999/xlink" x="0px" y="0px"
	 viewBox="0 0 1000 1000.5" style="enable-background:new 0 0 1000 1000.5;" xml:space="preserve">
<style type="text/css">
	.st0{opacity:0.8;fill:url(#SVGID_1_);enable-background:new    ;}
	.st1{opacity:0.8;fill:url(#SVGID_2_);enable-background:new    ;}
	.st2{opacity:0.8;fill:url(#SVGID_3_);enable-background:new    ;}
</style>
<g>
	<title>banner-bg</title>
	<g>
		
			<linearGradient id="SVGID_1_" gradientUnits="userSpaceOnUse" x1="746.3051" y1="-130.5055" x2="-51.2497" y2="310.8919" gradientTransform="matrix(-0.6259 -0.7799 0.7799 -0.6259 709.6602 853.4653)">
			<stop  offset="0" style="stop-color:#230FAE"/>
			<stop  offset="0.38" style="stop-color:#5815C5"/>
			<stop  offset="0.8" style="stop-color:#8B1CDC"/>
			<stop  offset="1" style="stop-color:#9F1EE5"/>
		</linearGradient>
		<path class="st0" d="M316.8,943.3c0,0,627.7,297.6,483.8-465.3S320.5,19.5,191.9,335.8C61.7,657.6,46.7,801.6,316.8,943.3z"/>
		
			<linearGradient id="SVGID_2_" gradientUnits="userSpaceOnUse" x1="819.3516" y1="-101.6742" x2="-58.6554" y2="297.2787" gradientTransform="matrix(-0.6259 -0.7799 0.7799 -0.6259 709.6602 853.4653)">
			<stop  offset="0" style="stop-color:#230FAE"/>
			<stop  offset="0.38" style="stop-color:#5815C5"/>
			<stop  offset="0.8" style="stop-color:#8B1CDC"/>
			<stop  offset="1" style="stop-color:#9F1EE5"/>
		</linearGradient>
		<path class="st1" d="M689,867.9c0,0,649.8-168.1,70.8-643.6s-639.8-42.5-539,271.1C322.7,814.5,400.7,930,689,867.9z"/>
		
			<linearGradient id="SVGID_3_" gradientUnits="userSpaceOnUse" x1="757.8198" y1="-197.8994" x2="-28.3511" y2="194.9708" gradientTransform="matrix(-0.6259 -0.7799 0.7799 -0.6259 709.6602 853.4653)">
			<stop  offset="0" style="stop-color:#230FAE"/>
			<stop  offset="0.38" style="stop-color:#5815C5"/>
			<stop  offset="0.8" style="stop-color:#8B1CDC"/>
			<stop  offset="1" style="stop-color:#9F1EE5"/>
		</linearGradient>
		<path class="st2" d="M743.9,834c0,0,488.4-425.6-216.9-585.8S-44.1,487.9,178.3,714.9C404.6,945.8,522,1012.1,743.9,834z"/>
	</g>
</g>
</svg>
