<svg id="OBJECTS" xmlns="http://www.w3.org/2000/svg" xmlns:xlink="http://www.w3.org/1999/xlink" viewBox="0 0 266 262"><defs><style>.cls-1{fill:url(#linear-gradient);}</style><linearGradient id="linear-gradient" y1="131" x2="266" y2="131" gradientUnits="userSpaceOnUse"><stop offset="0" stop-color="#230fae"/><stop offset="1" stop-color="#9f1ee5"/></linearGradient></defs><title>plan-bg2</title><path class="cls-1" d="M266,128.28v124a9.68,9.68,0,0,1-9.69,9.68H234.6a9.64,9.64,0,0,1-9.55-8.82,44.76,44.76,0,0,0-5.71-18.28c-7-12-19.3-19.45-32.24-23.63-14.12-4.58-30-2-43.47-7.56-5.86-2.44-11.1-7.07-12.83-13.16-1.61-5.65-.07-11.64.54-17.48s-.2-12.6-4.91-16.08c-4.87-3.61-11.67-2.2-17.53-.63-9.63,2.58-30.1,12.71-36.69-.26-4.53-8.92,5.49-18,8.6-27.53,3.3-10.12-2-21.58-10.45-28.09s-19.31-9-29.91-10c-8-.81-16.24-1-23.85-3.64S1.86,78.34.33,70.42c-3.09-16,16.51-27.27,20.23-43.11a24,24,0,0,0,.38-8.69A16.18,16.18,0,0,1,36.81,0H38A19,19,0,0,1,56.86,17.82c.86,11.86,6.76,22.45,20.41,24.23,21,3,45-17,61,2,12,14-3,37,16,47,23,11,46-2,69-1h.16A17.49,17.49,0,0,1,240,102.62c4.22,14.19,10.83,14.93,17.9,16.11A9.69,9.69,0,0,1,266,128.28Z" transform="translate(0 0)"/></svg>