<?xml version="1.0" encoding="utf-8"?>
<!-- Generator: Adobe Illustrator 22.0.0, SVG Export Plug-In . SVG Version: 6.00 Build 0)  -->
<svg version="1.1" id="Layer_1" xmlns="http://www.w3.org/2000/svg" xmlns:xlink="http://www.w3.org/1999/xlink" x="0px" y="0px"
	 viewBox="0 0 1100.6 600.5" style="enable-background:new 0 0 1100.6 600.5;" xml:space="preserve">
<style type="text/css">
	.dom0{fill:none;stroke:#FFFFFF;stroke-linecap:round;stroke-linejoin:round;stroke-miterlimit:10;}
	.dom1{fill:none;stroke:#808080;stroke-linecap:round;stroke-linejoin:round;stroke-miterlimit:10;}
	.dom2{fill:url(#SVGID_1_);}
	.dom3{fill:none;stroke:#EE5586;stroke-width:3;stroke-linecap:round;stroke-linejoin:round;stroke-miterlimit:10;}
	.dom4{fill:url(#SVGID_2_);}
	.dom5{fill:none;stroke:#EE5586;stroke-linecap:round;stroke-linejoin:round;stroke-miterlimit:10;}
	.dom6{fill:none;stroke:#808080;stroke-miterlimit:10;}
	.dom7{fill:#FFFFFF;stroke:#EE5586;stroke-linecap:round;stroke-linejoin:round;stroke-miterlimit:10;}
</style>
<path class="dom0" d="M197.4,73.2c-1.7,0-3-1.3-3-3s1.3-3,3-3s3,1.3,3,3C200.4,71.8,199.1,73.2,197.4,73.2z"/>
<path class="dom1" d="M189.6,18.5c-1.7,0-3-1.3-3-3s1.3-3,3-3s3,1.3,3,3C192.6,17.1,191.2,18.5,189.6,18.5z"/>
<path class="dom1" d="M282.8,48.1c-1.7,0-3-1.3-3-3s1.3-3,3-3c1.7,0,3,1.3,3,3S284.5,48.1,282.8,48.1z"/>
<path class="dom1" d="M423.4,73.2c-1.7,0-3-1.3-3-3s1.3-3,3-3s3,1.3,3,3C426.4,71.8,425,73.2,423.4,73.2z"/>
<path class="dom0" d="M458.7,52.2c-1.7,0-3-1.3-3-3s1.3-3,3-3s3,1.3,3,3C461.7,50.8,460.3,52.2,458.7,52.2z"/>
<path class="dom1" d="M399.2,111c-1.7,0-3-1.3-3-3s1.3-3,3-3c1.7,0,3,1.3,3,3S400.9,111,399.2,111z"/>
<path class="dom1" d="M516.3,58.1c-1.7,0-3-1.3-3-3s1.3-3,3-3s3,1.3,3,3C519.3,56.7,518,58.1,516.3,58.1z"/>
<path class="dom1" d="M558.4,66c-1.7,0-3-1.3-3-3s1.3-3,3-3s3,1.3,3,3S560.1,66,558.4,66z"/>
<path class="dom1" d="M601.7,73.3c-1.7,0-3-1.3-3-3s1.3-3,3-3s3,1.3,3,3S603.4,73.3,601.7,73.3z"/>
<path class="dom1" d="M665.9,67.2c-1.7,0-3-1.3-3-3s1.3-3,3-3s3,1.3,3,3C668.9,65.9,667.6,67.2,665.9,67.2z"/>
<path class="dom1" d="M632.4,37.3c-1.7,0-3-1.3-3-3s1.3-3,3-3s3,1.3,3,3S634.1,37.3,632.4,37.3z"/>
<path class="dom1" d="M726,69.6c-1.7,0-3-1.3-3-3s1.3-3,3-3s3,1.3,3,3C729,68.2,727.7,69.6,726,69.6z"/>
<path class="dom1" d="M800,62.6c-1.7,0-3-1.3-3-3s1.3-3,3-3s3,1.3,3,3C803,61.3,801.7,62.6,800,62.6z"/>
<path class="dom1" d="M897.8,11.7c-1.7,0-3-1.3-3-3s1.3-3,3-3s3,1.3,3,3C900.8,10.3,899.5,11.7,897.8,11.7z"/>
<path class="dom1" d="M700.8,106.1c-1.7,0-3-1.3-3-3s1.3-3,3-3s3,1.3,3,3C703.8,104.8,702.5,106.1,700.8,106.1z"/>
<path class="dom1" d="M740.9,29.8c-1.7,0-3-1.3-3-3s1.3-3,3-3s3,1.3,3,3C743.9,28.4,742.5,29.8,740.9,29.8z"/>
<path class="dom1" d="M727.8,120.3c-1.7,0-3-1.3-3-3s1.3-3,3-3s3,1.3,3,3C730.8,118.9,729.4,120.3,727.8,120.3z"/>
<path class="dom1" d="M792.5,149.7c-1.7,0-3-1.3-3-3s1.3-3,3-3s3,1.3,3,3S794.2,149.7,792.5,149.7z"/>
<path class="dom1" d="M753.6,186.5c-1.7,0-3-1.3-3-3s1.3-3,3-3s3,1.3,3,3C756.6,185.1,755.3,186.5,753.6,186.5z"/>
<path class="dom1" d="M771.9,238.4c-1.7,0-3-1.3-3-3s1.3-3,3-3s3,1.3,3,3C774.9,237,773.5,238.4,771.9,238.4z"/>
<path class="dom1" d="M803.6,285.2c-1.7,0-3-1.3-3-3s1.3-3,3-3s3,1.3,3,3C806.6,283.9,805.2,285.2,803.6,285.2z"/>
<path class="dom1" d="M780.1,339.7c-1.7,0-3-1.3-3-3s1.3-3,3-3s3,1.3,3,3C783.1,338.3,781.7,339.7,780.1,339.7z"/>
<path class="dom1" d="M836.3,325.8c-1.7,0-3-1.3-3-3s1.3-3,3-3s3,1.3,3,3C839.3,324.4,838,325.8,836.3,325.8z"/>
<path class="dom1" d="M803,382.1c-1.7,0-3-1.3-3-3s1.3-3,3-3s3,1.3,3,3C806,380.8,804.7,382.1,803,382.1z"/>
<path class="dom1" d="M769.7,430.6c-1.7,0-3-1.3-3-3s1.3-3,3-3s3,1.3,3,3C772.7,429.3,771.3,430.6,769.7,430.6z"/>
<path class="dom1" d="M854.3,474.4c-1.7,0-3-1.3-3-3s1.3-3,3-3s3,1.3,3,3S855.9,474.4,854.3,474.4z"/>
<path class="dom1" d="M836.4,410.9c-1.7,0-3-1.3-3-3s1.3-3,3-3s3,1.3,3,3S838.1,410.9,836.4,410.9z"/>
<path class="dom1" d="M801.9,505.8c-1.7,0-3-1.3-3-3s1.3-3,3-3s3,1.3,3,3C804.9,504.4,803.5,505.8,801.9,505.8z"/>
<path class="dom1" d="M851.3,592.6c-1.7,0-3-1.3-3-3s1.3-3,3-3s3,1.3,3,3S852.9,592.6,851.3,592.6z"/>
<path class="dom1" d="M830.6,536.9c-1.7,0-3-1.3-3-3s1.3-3,3-3s3,1.3,3,3C833.6,535.6,832.2,536.9,830.6,536.9z"/>
<path class="dom1" d="M876.2,534.6c-1.7,0-3-1.3-3-3s1.3-3,3-3s3,1.3,3,3S877.9,534.6,876.2,534.6z"/>
<path class="dom0" d="M775.1,581c-1.7,0-3-1.3-3-3s1.3-3,3-3s3,1.3,3,3C778.1,579.6,776.8,581,775.1,581z"/>
<path class="dom1" d="M916.5,583.6c-1.7-0.1-2.9-1.6-2.8-3.2c0.1-1.7,1.6-2.9,3.2-2.7c1.7,0.1,2.9,1.6,2.7,3.2
	C919.6,582.5,918.1,583.7,916.5,583.6z"/>
<path class="dom1" d="M753.1,545.8c-1.7,0-3-1.3-3-3s1.3-3,3-3s3,1.3,3,3C756.1,544.4,754.7,545.8,753.1,545.8z"/>
<path class="dom1" d="M672.4,577.6c-1.7,0-3-1.3-3-3s1.3-3,3-3s3,1.3,3,3S674,577.6,672.4,577.6z"/>
<path class="dom1" d="M650.4,534.6c-1.7,0-3-1.3-3-3s1.3-3,3-3s3,1.3,3,3C653.4,533.2,652,534.6,650.4,534.6z"/>
<path class="dom1" d="M602.5,558.8c-1.7,0-3-1.3-3-3s1.3-3,3-3s3,1.3,3,3S604.1,558.8,602.5,558.8z"/>
<path class="dom1" d="M553.2,580.6c-1.7,0-3-1.3-3-3s1.3-3,3-3s3,1.3,3,3S554.9,580.6,553.2,580.6z"/>
<path class="dom1" d="M517.5,557.1c-1.7,0-3-1.3-3-3s1.3-3,3-3s3,1.3,3,3S519.2,557.1,517.5,557.1z"/>
<path class="dom1" d="M456,557.1c-1.7,0-3-1.3-3-3s1.3-3,3-3s3,1.3,3,3S457.6,557.1,456,557.1z"/>
<path class="dom1" d="M496.6,592.6c-1.7,0-3-1.3-3-3s1.3-3,3-3s3,1.3,3,3S498.2,592.6,496.6,592.6z"/>
<path class="dom1" d="M423.3,591.3c-1.7,0-3-1.3-3-3s1.3-3,3-3s3,1.3,3,3S424.9,591.3,423.3,591.3z"/>
<path class="dom1" d="M396.6,523.7c-1.7,0-3-1.3-3-3s1.3-3,3-3c1.7,0,3,1.3,3,3C399.6,522.3,398.3,523.7,396.6,523.7z"/>
<path class="dom1" d="M307,555.8c-1.7,0-3-1.3-3-3s1.3-3,3-3c1.7,0,3,1.3,3,3S308.7,555.8,307,555.8z"/>
<path class="dom1" d="M233.9,563.9c-1.7,0-3-1.3-3-3s1.3-3,3-3s3,1.3,3,3C236.9,562.6,235.5,563.9,233.9,563.9z"/>
<path class="dom1" d="M304,508.1c-1.7,0-3-1.3-3-3s1.3-3,3-3c1.7,0,3,1.3,3,3C307,506.7,305.7,508.1,304,508.1z"/>
<path class="dom1" d="M169.6,584.7c-1.7,0-3-1.3-3-3s1.3-3,3-3s3,1.3,3,3C172.6,583.3,171.2,584.7,169.6,584.7z"/>
<path class="dom0" d="M319.7,471.4c-1.7,0-3-1.3-3-3s1.3-3,3-3c1.7,0,3,1.3,3,3S321.4,471.4,319.7,471.4z"/>
<path class="dom1" d="M317.4,437c-1.7,0-3-1.3-3-3s1.3-3,3-3c1.7,0,3,1.3,3,3S319,437,317.4,437z"/>
<path class="dom1" d="M296.6,212.3c-1.7,0-3-1.3-3-3s1.3-3,3-3c1.7,0,3,1.3,3,3C299.6,210.9,298.3,212.3,296.6,212.3z"/>
<path class="dom0" d="M287.1,172.2c-1.7,0-3-1.3-3-3s1.3-3,3-3c1.7,0,3,1.3,3,3S288.8,172.2,287.1,172.2z"/>
<path class="dom0" d="M107.5,132.7c-1.7,0-3-1.3-3-3s1.3-3,3-3s3,1.3,3,3S109.2,132.7,107.5,132.7z"/>
<path class="dom0" d="M189.6,327.6c-1.7,0-3-1.3-3-3s1.3-3,3-3s3,1.3,3,3S191.3,327.6,189.6,327.6z"/>
<path class="dom1" d="M9,593.6c-1.7,0-3-1.3-3-3s1.3-3,3-3s3,1.3,3,3C12,592.2,10.6,593.6,9,593.6z"/>
<path class="dom1" d="M260.8,240.2c-1.7,0-3-1.3-3-3s1.3-3,3-3c1.7,0,3,1.3,3,3S262.5,240.2,260.8,240.2z"/>
<path class="dom1" d="M333.9,152.4c-1.7,0-3-1.3-3-3s1.3-3,3-3c1.7,0,3,1.3,3,3C336.9,151.1,335.6,152.4,333.9,152.4z"/>
<path class="dom1" d="M249.6,139.4c-1.7,0-3-1.3-3-3s1.3-3,3-3s3,1.3,3,3C252.6,138,251.3,139.4,249.6,139.4z"/>
<path class="dom1" d="M84.1,88.6c-1.7,0-3-1.3-3-3s1.3-3,3-3c1.7,0,3,1.3,3,3C87,87.3,85.7,88.6,84.1,88.6z"/>
<path class="dom1" d="M288,363.8c-1.7,0-3-1.3-3-3s1.3-3,3-3c1.7,0,3,1.3,3,3C291,362.4,289.7,363.8,288,363.8z"/>
<path class="dom1" d="M282.8,322.9c-1.7,0-3-1.3-3-3s1.3-3,3-3c1.7,0,3,1.3,3,3C285.8,321.5,284.5,322.9,282.8,322.9z"/>
<path class="dom1" d="M239.5,315.4c-1.7,0-3-1.3-3-3s1.3-3,3-3s3,1.3,3,3C242.5,314,241.1,315.4,239.5,315.4z"/>
<path class="dom1" d="M254,382.1c-1.7,0-3-1.3-3-3s1.3-3,3-3s3,1.3,3,3C257,380.8,255.7,382.1,254,382.1z"/>
<path class="dom1" d="M246.6,448.4c-1.7,0-3-1.3-3-3s1.3-3,3-3s3,1.3,3,3S248.3,448.4,246.6,448.4z"/>
<path class="dom1" d="M260.7,504.1c-1.7,0-3-1.3-3-3s1.3-3,3-3c1.7,0,3,1.3,3,3C263.7,502.7,262.4,504.1,260.7,504.1z"/>
<path class="dom1" d="M54.1,211.9c-1.7,0-3-1.3-3-3s1.3-3,3-3s3,1.3,3,3C57.1,210.6,55.7,211.9,54.1,211.9z"/>
<path class="dom1" d="M42.1,330.6c-1.7,0-3-1.3-3-3s1.3-3,3-3s3,1.3,3,3S43.8,330.6,42.1,330.6z"/>
<path class="dom1" d="M34.6,37.3c-1.7,0-3-1.3-3-3s1.3-3,3-3s3,1.3,3,3C37.6,35.9,36.3,37.3,34.6,37.3z"/>
<path class="dom1" d="M192.6,382.1c-1.7,0-3-1.3-3-3s1.3-3,3-3s3,1.3,3,3C195.6,380.8,194.3,382.1,192.6,382.1z"/>
<path class="dom1" d="M199.3,504.1c-1.7,0-3-1.3-3-3s1.3-3,3-3s3,1.3,3,3C202.3,502.7,201,504.1,199.3,504.1z"/>
<path class="dom1" d="M87.1,451c-1.7,0-3-1.3-3-3s1.3-3,3-3s3,1.3,3,3C90.1,449.7,88.7,451,87.1,451z"/>
<path class="dom1" d="M106.9,552c-1.7,0-3-1.3-3-3c0-1.7,1.3-3,3-3c1.7,0,3,1.3,3,3C109.9,550.6,108.5,552,106.9,552z"/>
<path class="dom1" d="M48,520.7c-1.7,0-3-1.3-3-3s1.3-3,3-3s3,1.3,3,3C51,519.3,49.6,520.7,48,520.7z"/>
<path class="dom1" d="M125.5,291.9c-1.7,0-3-1.3-3-3s1.3-3,3-3s3,1.3,3,3C128.5,290.5,127.1,291.9,125.5,291.9z"/>
<path class="dom1" d="M129.9,349.4c-1.7,0-3-1.3-3-3s1.3-3,3-3s3,1.3,3,3C132.9,348.1,131.6,349.4,129.9,349.4z"/>
<path class="dom1" d="M136.6,471.4c-1.7,0-3-1.3-3-3s1.3-3,3-3s3,1.3,3,3C139.6,470,138.3,471.4,136.6,471.4z"/>
<path class="dom1" d="M194.4,276.2c-1.7,0-3-1.3-3-3s1.3-3,3-3s3,1.3,3,3C197.4,274.9,196,276.2,194.4,276.2z"/>
<path class="dom1" d="M103.9,177.6c-1.7,0-3-1.3-3-3s1.3-3,3-3c1.7,0,3,1.3,3,3C106.9,176.2,105.5,177.6,103.9,177.6z"/>
<path class="dom1" d="M148.7,36.9c-1.7,0-3-1.3-3-3s1.3-3,3-3s3,1.3,3,3C151.7,35.5,150.3,36.9,148.7,36.9z"/>
<path class="dom1" d="M174.2,126.3c-1.7,0-3-1.3-3-3s1.3-3,3-3s3,1.3,3,3C177.2,125,175.9,126.3,174.2,126.3z"/>
<path class="dom1" d="M159.8,216.4c-1.7,0-3-1.3-3-3s1.3-3,3-3s3,1.3,3,3C162.8,215,161.5,216.4,159.8,216.4z"/>
<path class="dom1" d="M364.8,489c-1.7,0-3-1.3-3-3s1.3-3,3-3c1.7,0,3,1.3,3,3C367.8,487.6,366.5,489,364.8,489z"/>
<path class="dom1" d="M336.9,587.7c-1.7,0-3-1.3-3-3s1.3-3,3-3c1.7,0,3,1.3,3,3C339.9,586.3,338.6,587.7,336.9,587.7z"/>
<path class="dom1" d="M253.7,597.6c-1.7,0-3-1.3-3-3s1.3-3,3-3s3,1.3,3,3C256.6,596.2,255.3,597.6,253.7,597.6z"/>
<path class="dom1" d="M717.1,547.5c-1.7,0-3-1.3-3-3s1.3-3,3-3s3,1.3,3,3C720.1,546.1,718.8,547.5,717.1,547.5z"/>
<path class="dom1" d="M717.4,491.8c-1.7,0-3-1.3-3-3s1.3-3,3-3s3,1.3,3,3S719.1,491.8,717.4,491.8z"/>
<path class="dom0" d="M821.5,191.4c-1.7,0-3-1.3-3-3s1.3-3,3-3s3,1.3,3,3C824.5,190,823.2,191.4,821.5,191.4z"/>
<path class="dom1" d="M876.6,70.2c-1.7,0-3-1.3-3-3s1.3-3,3-3s3,1.3,3,3C879.6,68.9,878.3,70.2,876.6,70.2z"/>
<path class="dom1" d="M833.4,251.5c-1.7,0-3-1.3-3-3s1.3-3,3-3s3,1.3,3,3C836.4,250.1,835.1,251.5,833.4,251.5z"/>
<path class="dom1" d="M857.3,237.6c-1.7,0-3-1.3-3-3s1.3-3,3-3s3,1.3,3,3C860.3,236.2,859,237.6,857.3,237.6z"/>
<path class="dom1" d="M916.6,221.6c-1.7,0-3-1.3-3-3s1.3-3,3-3s3,1.3,3,3C919.6,220.2,918.3,221.6,916.6,221.6z"/>
<path class="dom1" d="M847.1,145.1c-1.7,0-3-1.3-3-3s1.3-3,3-3s3,1.3,3,3S848.7,145.1,847.1,145.1z"/>
<path class="dom1" d="M1003,305c-1.7,0-3-1.3-3-3s1.3-3,3-3s3,1.3,3,3S1004.6,305,1003,305z"/>
<path class="dom1" d="M894.8,325.8c-1.7,0-3-1.3-3-3s1.3-3,3-3s3,1.3,3,3C897.8,324.4,896.5,325.8,894.8,325.8z"/>
<path class="dom1" d="M1055,128.7c-1.7,0-3-1.3-3-3s1.3-3,3-3s3,1.3,3,3C1058,127.3,1056.7,128.7,1055,128.7z"/>
<path class="dom1" d="M1027.9,58.1c-1.7,0-3-1.3-3-3s1.3-3,3-3s3,1.3,3,3C1030.9,56.7,1029.6,58.1,1027.9,58.1z"/>
<path class="dom1" d="M1090,14.7c-1.7,0-3-1.3-3-3s1.3-3,3-3s3,1.3,3,3C1093,13.3,1091.7,14.7,1090,14.7z"/>
<path class="dom1" d="M912.8,474.4c-1.7,0-3-1.3-3-3s1.3-3,3-3s3,1.3,3,3S914.4,474.4,912.8,474.4z"/>
<path class="dom1" d="M894.9,410.9c-1.7,0-3-1.3-3-3s1.3-3,3-3s3,1.3,3,3S896.6,410.9,894.9,410.9z"/>
<path class="dom1" d="M943,303.9c-1.7,0-3-1.3-3-3s1.3-3,3-3s3,1.3,3,3S944.7,303.9,943,303.9z"/>
<path class="dom1" d="M905.6,145.1c-1.7,0-3-1.3-3-3s1.3-3,3-3s3,1.3,3,3S907.2,145.1,905.6,145.1z"/>
<path class="dom1" d="M833.3,100.1c-1.7,0-3-1.3-3-3s1.3-3,3-3s3,1.3,3,3C836.3,98.8,835,100.1,833.3,100.1z"/>
<path class="dom0" d="M836.3,20.8c-1.7,0-3-1.3-3-3s1.3-3,3-3s3,1.3,3,3C839.3,19.4,838,20.8,836.3,20.8z"/>
<path class="dom0" d="M970,220.1c-1.7,0-3-1.3-3-3c0-1.7,1.3-3,3-3s3,1.3,3,3C973,218.8,971.7,220.1,970,220.1z"/>
<path class="dom0" d="M928,367.7c-1.7,0-3-1.3-3-3c0-1.7,1.3-3,3-3s3,1.3,3,3C931,366.3,929.7,367.7,928,367.7z"/>
<path class="dom0" d="M1014,485.8c-1.7,0-3-1.3-3-3s1.3-3,3-3s3,1.3,3,3C1017,484.4,1015.7,485.8,1014,485.8z"/>
<path class="dom1" d="M367,61.1c-1.7,0-3-1.3-3-3s1.3-3,3-3c1.7,0,3,1.3,3,3C370,59.8,368.6,61.1,367,61.1z"/>
<path class="dom1" d="M331.8,32.8c-1.7,0-3-1.3-3-3s1.3-3,3-3c1.7,0,3,1.3,3,3C334.8,31.4,333.4,32.8,331.8,32.8z"/>
<path class="dom1" d="M299.1,110.3c-1.7,0-3-1.3-3-3s1.3-3,3-3c1.7,0,3,1.3,3,3S300.7,110.3,299.1,110.3z"/>
<path class="dom1" d="M254.1,18.5c-1.7,0-3-1.3-3-3s1.3-3,3-3s3,1.3,3,3C257,17.1,255.7,18.5,254.1,18.5z"/>
<line class="dom0" x1="800.2" y1="88.4" x2="854.9" y2="47"/>
<line class="dom0" x1="788.8" y1="122.6" x2="819.7" y2="99.2"/>
<line class="dom0" x1="329.6" y1="549.2" x2="275" y2="590.6"/>
<line class="dom0" x1="341" y1="515" x2="310.1" y2="538.5"/>
<radialGradient id="SVGID_1_" cx="687.8405" cy="264.5224" r="0.1924" gradientTransform="matrix(1 0 0 -1 0 600)" gradientUnits="userSpaceOnUse">
	<stop  offset="0" style="stop-color:#27AAE1"/>
	<stop  offset="0.1987" style="stop-color:#2AABE1"/>
	<stop  offset="0.3466" style="stop-color:#33AEE1"/>
	<stop  offset="0.4781" style="stop-color:#44B3E2"/>
	<stop  offset="0.6001" style="stop-color:#5ABAE3"/>
	<stop  offset="0.7154" style="stop-color:#78C4E4"/>
	<stop  offset="0.8259" style="stop-color:#9CCFE5"/>
	<stop  offset="0.9305" style="stop-color:#C6DDE7"/>
	<stop  offset="1" style="stop-color:#E6E7E8"/>
</radialGradient>
<path class="dom2" d="M688,335.6L688,335.6C687.6,335.3,687.5,335.3,688,335.6z"/>
<path id="svg-concept" class="dom3" d="M775.1,312.7c0,125.4-101.7,227.1-227.1,227.1S320.9,438.1,320.9,312.7S422.6,85.6,548,85.6
	C673.4,85.5,775.1,187.2,775.1,312.7z"/>
<path class="dom0" d="M566.3,418.2c0,2.2-1.8,4-4,4s-4-1.8-4-4s1.8-4,4-4S566.3,415.9,566.3,418.2z"/>
<path class="dom0" d="M554.4,408.7c0,2.2-1.8,4-4,4s-4-1.8-4-4s1.8-4,4-4S554.4,406.5,554.4,408.7z"/>
<path class="dom0" d="M587.7,382.6c0,2.2-1.8,4-4,4s-4-1.8-4-4s1.8-4,4-4S587.7,380.4,587.7,382.6z"/>
<path class="dom0" d="M593,351.1c0,2.2-1.8,4-4,4s-4-1.8-4-4s1.8-4,4-4S593,348.9,593,351.1z"/>
<path class="dom0" d="M609.3,324.7c0,2.2-1.8,4-4,4s-4-1.8-4-4s1.8-4,4-4S609.3,322.5,609.3,324.7z"/>
<path class="dom0" d="M597,322.6c0,2.2-1.8,4-4,4s-4-1.8-4-4s1.8-4,4-4S597,320.4,597,322.6z"/>
<path class="dom0" d="M583.9,290.2c0,2.2-1.8,4-4,4s-4-1.8-4-4s1.8-4,4-4S583.9,288,583.9,290.2z"/>
<path class="dom0" d="M603.7,313.4c0,2.2-1.8,4-4,4s-4-1.8-4-4s1.8-4,4-4S603.7,311.1,603.7,313.4z"/>
<path class="dom0" d="M624.6,300c0,2.2-1.8,4-4,4s-4-1.8-4-4s1.8-4,4-4C622.8,296,624.6,297.8,624.6,300z"/>
<path class="dom0" d="M585.9,276c0,2.2-1.8,4-4,4s-4-1.8-4-4s1.8-4,4-4S585.9,273.8,585.9,276z"/>
<path class="dom0" d="M583.9,265.3c0,2.2-1.8,4-4,4s-4-1.8-4-4s1.8-4,4-4S583.9,263.1,583.9,265.3z"/>
<path class="dom0" d="M570.8,264.5c0,2.2-1.8,4-4,4s-4-1.8-4-4s1.8-4,4-4S570.8,262.3,570.8,264.5z"/>
<path class="dom0" d="M558.4,282.3c0,2.2-1.8,4-4,4s-4-1.8-4-4s1.8-4,4-4S558.4,280.1,558.4,282.3z"/>
<path class="dom0" d="M516.8,272c0,2.2-1.8,4-4,4c-2.2,0-4-1.8-4-4s1.8-4,4-4C515,268,516.8,269.8,516.8,272z"/>
<path class="dom0" d="M540.3,250.5c0,2.2-1.8,4-4,4s-4-1.8-4-4s1.8-4,4-4S540.3,248.3,540.3,250.5z"/>
<path class="dom0" d="M551,257.9c0,2.2-1.8,4-4,4s-4-1.8-4-4s1.8-4,4-4S551,255.7,551,257.9z"/>
<path class="dom0" d="M542.3,222.6c0,2.2-1.8,4-4,4s-4-1.8-4-4s1.8-4,4-4S542.3,220.3,542.3,222.6z"/>
<path class="dom0" d="M538,199c0,2.2-1.8,4-4,4s-4-1.8-4-4s1.8-4,4-4S538,196.8,538,199z"/>
<path class="dom0" d="M566.1,172.9c0,2.2-1.8,4-4,4s-4-1.8-4-4s1.8-4,4-4C564.3,168.9,566.1,170.7,566.1,172.9z"/>
<path class="dom0" d="M591.1,184.8c0,2.2-1.8,4-4,4s-4-1.8-4-4s1.8-4,4-4C589.3,180.8,591.1,182.5,591.1,184.8z"/>
<path class="dom0" d="M616.6,178.1c0,2.2-1.8,4-4,4s-4-1.8-4-4s1.8-4,4-4C614.8,174.1,616.6,175.9,616.6,178.1z"/>
<path class="dom0" d="M632.4,169.9c0,2.2-1.8,4-4,4s-4-1.8-4-4s1.8-4,4-4C630.7,165.9,632.4,167.7,632.4,169.9z"/>
<path class="dom0" d="M654.4,162.8c0,2.2-1.8,4-4,4s-4-1.8-4-4s1.8-4,4-4C652.7,158.8,654.4,160.5,654.4,162.8z"/>
<path class="dom0" d="M645.4,170.6c0,2.2-1.8,4-4,4s-4-1.8-4-4s1.8-4,4-4S645.4,168.4,645.4,170.6z"/>
<path class="dom0" d="M677.2,152.9c0,2.2-1.8,4-4,4s-4-1.8-4-4s1.8-4,4-4S677.2,150.7,677.2,152.9z"/>
<path class="dom0" d="M698.6,165.7c0,2.2-1.8,4-4,4s-4-1.8-4-4s1.8-4,4-4S698.6,163.5,698.6,165.7z"/>
<path class="dom0" d="M746.9,243.9c0,2.2-1.8,4-4,4s-4-1.8-4-4s1.8-4,4-4C745.2,239.9,746.9,241.7,746.9,243.9z"/>
<path class="dom0" d="M740.8,266.5c0,2.2-1.8,4-4,4s-4-1.8-4-4s1.8-4,4-4S740.8,264.3,740.8,266.5z"/>
<path class="dom0" d="M729.8,257.5c0,2.2-1.8,4-4,4s-4-1.8-4-4s1.8-4,4-4S729.8,255.3,729.8,257.5z"/>
<path class="dom0" d="M729.8,283.6c0,2.2-1.8,4-4,4s-4-1.8-4-4s1.8-4,4-4S729.8,281.4,729.8,283.6z"/>
<path class="dom0" d="M714.3,302c0,2.2-1.8,4-4,4s-4-1.8-4-4s1.8-4,4-4S714.3,299.8,714.3,302z"/>
<path class="dom0" d="M708.2,323.6c0,2.2-1.8,4-4,4s-4-1.8-4-4s1.8-4,4-4S708.2,321.4,708.2,323.6z"/>
<path class="dom0" d="M695.2,315c0,2.2-1.8,4-4,4s-4-1.8-4-4s1.8-4,4-4S695.2,312.8,695.2,315z"/>
<path class="dom0" d="M679.9,296.9c0,2.2-1.8,4-4,4s-4-1.8-4-4s1.8-4,4-4C678.1,292.9,679.9,294.6,679.9,296.9z"/>
<path class="dom0" d="M642.1,291.1c0,2.2-1.8,4-4,4s-4-1.8-4-4s1.8-4,4-4C640.3,287.1,642.1,288.9,642.1,291.1z"/>
<path class="dom0" d="M672.9,259.7c0,2.2-1.8,4-4,4s-4-1.8-4-4s1.8-4,4-4S672.9,257.5,672.9,259.7z"/>
<path class="dom0" d="M704.2,227.6c0,2.2-1.8,4-4,4s-4-1.8-4-4s1.8-4,4-4S704.2,225.4,704.2,227.6z"/>
<path class="dom0" d="M587.1,215.5c0,2.2-1.8,4-4,4s-4-1.8-4-4s1.8-4,4-4C585.3,211.5,587.1,213.3,587.1,215.5z"/>
<path class="dom0" d="M642.1,226.6c0,2.2-1.8,4-4,4s-4-1.8-4-4s1.8-4,4-4C640.3,222.6,642.1,224.3,642.1,226.6z"/>
<path class="dom0" d="M628.6,289c0,2.2-1.8,4-4,4s-4-1.8-4-4s1.8-4,4-4C626.8,285,628.6,286.8,628.6,289z"/>
<path class="dom0" d="M702.2,338c0,2.2-1.8,4-4,4s-4-1.8-4-4s1.8-4,4-4S702.2,335.8,702.2,338z"/>
<path class="dom0" d="M749.3,374.7c0,2.2-1.8,4-4,4s-4-1.8-4-4s1.8-4,4-4S749.3,372.5,749.3,374.7z"/>
<path class="dom0" d="M604,399.9c0,2.2-1.8,4-4,4s-4-1.8-4-4s1.8-4,4-4S604,397.7,604,399.9z"/>
<path class="dom0" d="M607.7,377.3c0,2.2-1.8,4-4,4s-4-1.8-4-4s1.8-4,4-4S607.7,375.1,607.7,377.3z"/>
<path class="dom0" d="M743.9,320.9c0,2.2-1.8,4-4,4s-4-1.8-4-4s1.8-4,4-4C742.1,316.9,743.9,318.7,743.9,320.9z"/>
<path class="dom0" d="M751.4,276.7c0,2.2-1.8,4-4,4s-4-1.8-4-4s1.8-4,4-4C749.6,272.7,751.4,274.5,751.4,276.7z"/>
<path class="dom0" d="M754.7,346.7c0,2.2-1.8,4-4,4s-4-1.8-4-4s1.8-4,4-4S754.7,344.5,754.7,346.7z"/>
<path class="dom0" d="M738.3,350.3c0,2.2-1.8,4-4,4s-4-1.8-4-4s1.8-4,4-4S738.3,348.1,738.3,350.3z"/>
<path class="dom0" d="M714.3,361.6c0,2.2-1.8,4-4,4s-4-1.8-4-4s1.8-4,4-4S714.3,359.4,714.3,361.6z"/>
<path class="dom0" d="M702.2,351c0,2.2-1.8,4-4,4s-4-1.8-4-4s1.8-4,4-4S702.2,348.8,702.2,351z"/>
<path class="dom0" d="M737.2,308.2c0,2.2-1.8,4-4,4s-4-1.8-4-4s1.8-4,4-4S737.2,306,737.2,308.2z"/>
<path class="dom0" d="M732.8,295.9c0,2.2-1.8,4-4,4s-4-1.8-4-4s1.8-4,4-4S732.8,293.7,732.8,295.9z"/>
<path class="dom0" d="M731.8,386.6c0,2.2-1.8,4-4,4s-4-1.8-4-4s1.8-4,4-4S731.8,384.4,731.8,386.6z"/>
<path class="dom0" d="M742.7,395.4c0,2.2-1.8,4-4,4s-4-1.8-4-4s1.8-4,4-4S742.7,393.2,742.7,395.4z"/>
<path class="dom0" d="M519.8,227.4c0,2.2-1.8,4-4,4s-4-1.8-4-4s1.8-4,4-4S519.8,225.2,519.8,227.4z"/>
<path class="dom0" d="M507.9,219.2c0,2.2-1.8,4-4,4s-4-1.8-4-4s1.8-4,4-4S507.9,217,507.9,219.2z"/>
<path class="dom0" d="M503.5,294.2c0,2.2-1.8,4-4,4s-4-1.8-4-4s1.8-4,4-4S503.5,292,503.5,294.2z"/>
<path class="dom0" d="M500.6,319.3c0,2.2-1.8,4-4,4s-4-1.8-4-4s1.8-4,4-4C498.8,315.3,500.6,317.1,500.6,319.3z"/>
<path class="dom0" d="M522.3,298.2c0,2.2-1.8,4-4,4s-4-1.8-4-4s1.8-4,4-4S522.3,296,522.3,298.2z"/>
<path class="dom0" d="M554.4,311.7c0,2.2-1.8,4-4,4s-4-1.8-4-4s1.8-4,4-4S554.4,309.5,554.4,311.7z"/>
<path class="dom0" d="M569.6,342.5c0,2.2-1.8,4-4,4s-4-1.8-4-4s1.8-4,4-4C567.8,338.6,569.6,340.3,569.6,342.5z"/>
<path class="dom0" d="M567.7,381.5c0,2.2-1.8,4-4,4s-4-1.8-4-4s1.8-4,4-4S567.7,379.3,567.7,381.5z"/>
<path class="dom0" d="M546.8,384.6c0,2.2-1.8,4-4,4s-4-1.8-4-4s1.8-4,4-4C545.1,380.6,546.8,382.3,546.8,384.6z"/>
<path class="dom0" d="M549.5,369.4c0,2.2-1.8,4-4,4s-4-1.8-4-4s1.8-4,4-4C547.8,365.4,549.5,367.2,549.5,369.4z"/>
<path class="dom0" d="M542.8,338.5c0,2.2-1.8,4-4,4s-4-1.8-4-4s1.8-4,4-4C541.1,334.6,542.8,336.3,542.8,338.5z"/>
<path class="dom0" d="M510.4,189c0,2.2-1.8,4-4,4s-4-1.8-4-4s1.8-4,4-4S510.4,186.8,510.4,189z"/>
<path class="dom0" d="M549.3,152c0,2.2-1.8,4-4,4s-4-1.8-4-4s1.8-4,4-4S549.3,149.8,549.3,152z"/>
<path class="dom0" d="M545.3,140.5c0,2.2-1.8,4-4,4s-4-1.8-4-4s1.8-4,4-4S545.3,138.3,545.3,140.5z"/>
<path class="dom0" d="M562.8,136.5c0,2.2-1.8,4-4,4s-4-1.8-4-4s1.8-4,4-4C561.1,132.5,562.8,134.3,562.8,136.5z"/>
<path class="dom0" d="M611.3,138.1c0,2.2-1.8,4-4,4s-4-1.8-4-4s1.8-4,4-4C609.6,134.1,611.3,135.9,611.3,138.1z"/>
<path class="dom0" d="M622.4,151.8c0,2.2-1.8,4-4,4s-4-1.8-4-4s1.8-4,4-4S622.4,149.6,622.4,151.8z"/>
<line class="dom0" x1="542.4" y1="144.3" x2="543.9" y2="148.2"/>
<line class="dom0" x1="605.9" y1="165.3" x2="615.7" y2="154.8"/>
<radialGradient id="SVGID_2_" cx="425.6581" cy="352.7" r="2.549938e-02" gradientTransform="matrix(1 0 0 -1 0 600)" gradientUnits="userSpaceOnUse">
	<stop  offset="0" style="stop-color:#27AAE1"/>
	<stop  offset="0.1987" style="stop-color:#2AABE1"/>
	<stop  offset="0.3466" style="stop-color:#33AEE1"/>
	<stop  offset="0.4781" style="stop-color:#44B3E2"/>
	<stop  offset="0.6001" style="stop-color:#5ABAE3"/>
	<stop  offset="0.7154" style="stop-color:#78C4E4"/>
	<stop  offset="0.8259" style="stop-color:#9CCFE5"/>
	<stop  offset="0.9305" style="stop-color:#C6DDE7"/>
	<stop  offset="1" style="stop-color:#E6E7E8"/>
</radialGradient>
<path class="dom4" d="M425.7,247.3L425.7,247.3C425.6,247.3,425.6,247.3,425.7,247.3z"/>
<path class="dom0" d="M467.1,199.9c0,2.2-1.8,4-4,4s-4-1.8-4-4s1.8-4,4-4C465.3,195.9,467.1,197.7,467.1,199.9z"/>
<path class="dom0" d="M443.3,428.1c0,2.2-1.8,4-4,4s-4-1.8-4-4s1.8-4,4-4C441.6,424.1,443.3,425.9,443.3,428.1z"/>
<path class="dom0" d="M416.7,417.1c0,2.2-1.8,4-4,4c-2.2,0-4-1.8-4-4s1.8-4,4-4C414.9,413.1,416.7,414.9,416.7,417.1z"/>
<path class="dom0" d="M434.3,405.7c0,2.2-1.8,4-4,4s-4-1.8-4-4s1.8-4,4-4S434.3,403.4,434.3,405.7z"/>
<path class="dom0" d="M449.7,348.9c0,2.2-1.8,4-4,4s-4-1.8-4-4s1.8-4,4-4C447.9,345,449.7,346.7,449.7,348.9z"/>
<path class="dom0" d="M425.7,327.9c0,2.2-1.8,4-4,4s-4-1.8-4-4s1.8-4,4-4C424,323.9,425.7,325.7,425.7,327.9z"/>
<path class="dom0" d="M402.5,329.3c0,2.2-1.8,4-4,4c-2.2,0-4-1.8-4-4s1.8-4,4-4C400.7,325.3,402.5,327.1,402.5,329.3z"/>
<path class="dom0" d="M388,320.2c0,2.2-1.8,4-4,4c-2.2,0-4-1.8-4-4s1.8-4,4-4C386.2,316.2,388,318,388,320.2z"/>
<path class="dom0" d="M345,288.4c0,2.2-1.8,4-4,4c-2.2,0-4-1.8-4-4s1.8-4,4-4C343.2,284.4,345,286.2,345,288.4z"/>
<path class="dom0" d="M369.2,284.4c0,2.2-1.8,4-4,4c-2.2,0-4-1.8-4-4s1.8-4,4-4C367.5,280.4,369.2,282.2,369.2,284.4z"/>
<path class="dom0" d="M398.5,288.4c0,2.2-1.8,4-4,4c-2.2,0-4-1.8-4-4s1.8-4,4-4C396.7,284.4,398.5,286.2,398.5,288.4z"/>
<path class="dom0" d="M409.7,267c0,2.2-1.8,4-4,4c-2.2,0-4-1.8-4-4s1.8-4,4-4C407.9,263,409.7,264.8,409.7,267z"/>
<path class="dom0" d="M417.1,201.6c0,2.2-1.8,4-4,4c-2.2,0-4-1.8-4-4s1.8-4,4-4C415.3,197.6,417.1,199.4,417.1,201.6z"/>
<path class="dom0" d="M408.7,227.6c0,2.2-1.8,4-4,4c-2.2,0-4-1.8-4-4s1.8-4,4-4C406.9,223.6,408.7,225.4,408.7,227.6z"/>
<path class="dom0" d="M388.3,209.7c0,2.2-1.8,4-4,4c-2.2,0-4-1.8-4-4s1.8-4,4-4C386.5,205.7,388.3,207.5,388.3,209.7z"/>
<path class="dom0" d="M408.8,165.3c0,2.2-1.8,4-4,4c-2.2,0-4-1.8-4-4s1.8-4,4-4C407,161.3,408.8,163.1,408.8,165.3z"/>
<path class="dom0" d="M405.2,184.4c0,2.2-1.8,4-4,4c-2.2,0-4-1.8-4-4s1.8-4,4-4C403.5,180.4,405.2,182.1,405.2,184.4z"/>
<path class="dom0" d="M430.7,173.2c0,2.2-1.8,4-4,4s-4-1.8-4-4s1.8-4,4-4C428.9,169.2,430.7,171,430.7,173.2z"/>
<path class="dom0" d="M430.7,193.4c0,2.2-1.8,4-4,4s-4-1.8-4-4s1.8-4,4-4C428.9,189.4,430.7,191.2,430.7,193.4z"/>
<path class="dom0" d="M360.4,231c0,2.2-1.8,4-4,4c-2.2,0-4-1.8-4-4s1.8-4,4-4S360.4,228.8,360.4,231z"/>
<path class="dom0" d="M380.2,246.3c0,2.2-1.8,4-4,4c-2.2,0-4-1.8-4-4s1.8-4,4-4C378.4,242.3,380.2,244.1,380.2,246.3z"/>
<path class="dom0" d="M420.7,350.6c0,2.2-1.8,4-4,4s-4-1.8-4-4s1.8-4,4-4C418.9,346.6,420.7,348.4,420.7,350.6z"/>
<path class="dom0" d="M445.7,373.8c0,2.2-1.8,4-4,4s-4-1.8-4-4s1.8-4,4-4C443.9,369.9,445.7,371.6,445.7,373.8z"/>
<path class="dom0" d="M462,182c0,2.2-1.8,4-4,4s-4-1.8-4-4s1.8-4,4-4S462,179.7,462,182z"/>
<path class="dom0" d="M492.5,176.5c0,2.2-1.8,4-4,4s-4-1.8-4-4s1.8-4,4-4S492.5,174.3,492.5,176.5z"/>
<path class="dom0" d="M506.4,148.1c0,2.2-1.8,4-4,4s-4-1.8-4-4s1.8-4,4-4S506.4,145.9,506.4,148.1z"/>
<path class="dom0" d="M516.4,136.3c0,2.2-1.8,4-4,4s-4-1.8-4-4s1.8-4,4-4S516.4,134.1,516.4,136.3z"/>
<path class="dom0" d="M508.3,127.6c0,2.2-1.8,4-4,4s-4-1.8-4-4s1.8-4,4-4S508.3,125.3,508.3,127.6z"/>
<path class="dom0" d="M477.8,129.7c0,2.2-1.8,4-4,4s-4-1.8-4-4s1.8-4,4-4S477.8,127.5,477.8,129.7z"/>
<path class="dom0" d="M448,140.3c0,2.2-1.8,4-4,4s-4-1.8-4-4s1.8-4,4-4S448,138.1,448,140.3z"/>
<path class="dom0" d="M438.6,151.5c0,2.2-1.8,4-4,4s-4-1.8-4-4s1.8-4,4-4C436.8,147.5,438.6,149.2,438.6,151.5z"/>
<path class="dom0" d="M456,159.3c0,2.2-1.8,4-4,4s-4-1.8-4-4s1.8-4,4-4S456,157.1,456,159.3z"/>
<path class="dom0" d="M483.3,147.5c0,2.2-1.8,4-4,4s-4-1.8-4-4s1.8-4,4-4S483.3,145.2,483.3,147.5z"/>
<line class="dom0" x1="462.3" y1="195.9" x2="459.7" y2="185.6"/>
<line class="dom0" x1="460.4" y1="178.8" x2="468.1" y2="170.6"/>
<line class="dom0" x1="467.1" y1="164.9" x2="455.7" y2="160.9"/>
<line class="dom0" x1="466.4" y1="197.1" x2="485.9" y2="179.6"/>
<line class="dom0" x1="491.1" y1="173.5" x2="496.1" y2="166.6"/>
<line class="dom0" x1="500.1" y1="159.7" x2="501.6" y2="152.1"/>
<line class="dom0" x1="498.4" y1="148.1" x2="483.3" y2="147.5"/>
<line class="dom0" x1="504.6" y1="144.8" x2="509.7" y2="139.3"/>
<line class="dom0" x1="500.4" y1="128.3" x2="477.7" y2="128.7"/>
<line class="dom0" x1="474.9" y1="133.7" x2="478.4" y2="143.5"/>
<line class="dom0" x1="470.4" y1="131.6" x2="448" y2="138.6"/>
<line class="dom0" x1="441.6" y1="143.5" x2="437.3" y2="148.1"/>
<line class="dom0" x1="448.7" y1="157.1" x2="438.1" y2="153.5"/>
<line class="dom0" x1="476.1" y1="150" x2="454.9" y2="156.5"/>
<line class="dom0" x1="477.8" y1="151.5" x2="472.6" y2="162.9"/>
<line class="dom0" x1="421.2" y1="468" x2="411.4" y2="448"/>
<line class="dom0" x1="412.9" y1="442" x2="435.3" y2="428.1"/>
<line class="dom0" x1="435.3" y1="428.1" x2="415.7" y2="419.7"/>
<line class="dom0" x1="415" y1="413.8" x2="427.4" y2="408.4"/>
<line class="dom0" x1="427.9" y1="402.4" x2="411.1" y2="383.2"/>
<line class="dom0" x1="434.3" y1="404.1" x2="456.6" y2="396.3"/>
<line class="dom0" x1="456.6" y1="396.3" x2="444.2" y2="377.6"/>
<line class="dom0" x1="445" y1="371.5" x2="466.1" y2="362.6"/>
<line class="dom0" x1="466.5" y1="358.6" x2="449.4" y2="351"/>
<line class="dom0" x1="409.8" y1="376.2" x2="414.5" y2="353.9"/>
<line class="dom0" x1="414.5" y1="353.9" x2="399.9" y2="355.8"/>
<line class="dom0" x1="396.1" y1="350.6" x2="397.8" y2="333.3"/>
<line class="dom0" x1="402.5" y1="329.3" x2="417.7" y2="327.9"/>
<line class="dom0" x1="424.9" y1="330.4" x2="442.6" y2="346.5"/>
<line class="dom0" x1="419.5" y1="353.4" x2="438.2" y2="372"/>
<line class="dom0" x1="394.5" y1="329.3" x2="386.8" y2="323.1"/>
<line class="dom0" x1="382.2" y1="316.2" x2="379.2" y2="308.2"/>
<line class="dom0" x1="373.7" y1="304.5" x2="360.4" y2="305.4"/>
<line class="dom0" x1="357.3" y1="301.4" x2="363.4" y2="288"/>
<line class="dom0" x1="361.2" y1="284.4" x2="344.9" y2="287.6"/>
<line class="dom0" x1="341" y1="284.4" x2="355" y2="234.7"/>
<line class="dom0" x1="358.6" y1="227.6" x2="381.7" y2="212.7"/>
<line class="dom0" x1="387.7" y1="213.7" x2="401.6" y2="225.1"/>
<line class="dom0" x1="406.5" y1="224" x2="413.1" y2="205.6"/>
<line class="dom0" x1="415.7" y1="204.7" x2="440.5" y2="235"/>
<line class="dom0" x1="424.9" y1="239.2" x2="415.7" y2="204.7"/>
<line class="dom0" x1="404.7" y1="231.6" x2="405.7" y2="263"/>
<line class="dom0" x1="403.5" y1="270.3" x2="396.5" y2="285"/>
<line class="dom0" x1="368.2" y1="281.8" x2="391" y2="286.5"/>
<line class="dom0" x1="359.3" y1="233.7" x2="372.8" y2="244.2"/>
<line class="dom0" x1="378.9" y1="243.4" x2="401.7" y2="230.3"/>
<line class="dom0" x1="378.8" y1="249.3" x2="402.4" y2="264.8"/>
<line class="dom0" x1="374.5" y1="250" x2="365.2" y2="280.4"/>
<line class="dom0" x1="384.3" y1="205.7" x2="383.7" y2="187.6"/>
<line class="dom0" x1="387.7" y1="183.6" x2="397.2" y2="184.4"/>
<line class="dom0" x1="401.2" y1="180.4" x2="404.8" y2="169.3"/>
<line class="dom0" x1="408.8" y1="165.3" x2="422.7" y2="171.2"/>
<line class="dom0" x1="426.7" y1="177.2" x2="426.7" y2="189.4"/>
<line class="dom0" x1="553.5" y1="411.3" x2="559" y2="415.9"/>
<line class="dom0" x1="565.6" y1="414.2" x2="569.6" y2="406.7"/>
<line class="dom0" x1="569.6" y1="399.7" x2="563.7" y2="385.5"/>
<line class="dom0" x1="574.3" y1="398.7" x2="581.9" y2="386.6"/>
<line class="dom0" x1="550.4" y1="404.7" x2="542.8" y2="388.6"/>
<line class="dom0" x1="542.8" y1="380.6" x2="545.5" y2="373.4"/>
<line class="dom0" x1="549.5" y1="371.4" x2="559.7" y2="378.6"/>
<line class="dom0" x1="545.5" y1="365.4" x2="563.7" y2="346.1"/>
<line class="dom0" x1="538.8" y1="342.6" x2="545.5" y2="365.4"/>
<line class="dom0" x1="569.6" y1="344.6" x2="585" y2="351.1"/>
<line class="dom0" x1="565.6" y1="378" x2="589" y2="355.1"/>
<line class="dom0" x1="583.7" y1="378.6" x2="589" y2="355.1"/>
<line class="dom0" x1="589" y1="347.1" x2="605.3" y2="328.7"/>
<line class="dom0" x1="597.1" y1="323.6" x2="601.4" y2="324.1"/>
<line class="dom0" x1="590.6" y1="319.4" x2="582.2" y2="293.4"/>
<line class="dom0" x1="596.7" y1="310.7" x2="582.2" y2="293.4"/>
<line class="dom0" x1="603" y1="311.2" x2="617.7" y2="302.8"/>
<line class="dom0" x1="617.4" y1="296.9" x2="608.7" y2="282.9"/>
<line class="dom0" x1="621.3" y1="286.7" x2="608.7" y2="282.9"/>
<line class="dom0" x1="628.6" y1="289" x2="634.3" y2="289.9"/>
<line class="dom0" x1="640.2" y1="294.5" x2="652.3" y2="324.4"/>
<line class="dom0" x1="657" y1="325.3" x2="673.2" y2="299.8"/>
<line class="dom0" x1="678.9" y1="299.4" x2="688.2" y2="312.3"/>
<line class="dom0" x1="693.6" y1="318.2" x2="695.9" y2="334.7"/>
<line class="dom0" x1="701.2" y1="321" x2="693.6" y2="318.2"/>
<line class="dom0" x1="705.6" y1="319.6" x2="709.3" y2="305.9"/>
<line class="dom0" x1="712.3" y1="298.5" x2="723.6" y2="286.9"/>
<line class="dom0" x1="724.5" y1="279.8" x2="725.8" y2="261.5"/>
<line class="dom0" x1="729.2" y1="259.6" x2="734" y2="263.7"/>
<line class="dom0" x1="738" y1="262.7" x2="741.6" y2="247.6"/>
<line class="dom0" x1="741" y1="240.4" x2="722" y2="201.1"/>
<line class="dom0" x1="718.1" y1="194.2" x2="697.1" y2="168.9"/>
<line class="dom0" x1="691.7" y1="163" x2="676.1" y2="155.6"/>
<line class="dom0" x1="673.2" y1="156.9" x2="668.2" y2="187.1"/>
<line class="dom0" x1="668.7" y1="154.7" x2="653.5" y2="160.1"/>
<line class="dom0" x1="647.2" y1="165.1" x2="644.1" y2="167.6"/>
<line class="dom0" x1="643.7" y1="173.9" x2="664" y2="188.7"/>
<line class="dom0" x1="637.4" y1="170.6" x2="632.4" y2="169.9"/>
<line class="dom0" x1="624.4" y1="172.1" x2="616" y2="176"/>
<line class="dom0" x1="608.8" y1="179.4" x2="590.9" y2="183.5"/>
<line class="dom0" x1="583.5" y1="183.1" x2="565.4" y2="175.1"/>
<line class="dom0" x1="558.8" y1="175.1" x2="536.5" y2="195.9"/>
<line class="dom0" x1="534.7" y1="202.9" x2="537.2" y2="218.7"/>
<line class="dom0" x1="514.6" y1="208.2" x2="515.3" y2="211.5"/>
<line class="dom0" x1="516.8" y1="219.5" x2="515.8" y2="223.4"/>
<line class="dom0" x1="525.7" y1="234.5" x2="536" y2="225.8"/>
<line class="dom0" x1="522.6" y1="241.8" x2="522.6" y2="246.4"/>
<line class="dom0" x1="518.6" y1="251.2" x2="511.2" y2="252.9"/>
<line class="dom0" x1="511" y1="256.8" x2="512.9" y2="258.7"/>
<line class="dom0" x1="539.6" y1="252.7" x2="543.8" y2="255.4"/>
<line class="dom0" x1="550.1" y1="255.5" x2="555.8" y2="253.9"/>
<line class="dom0" x1="561.5" y1="254.5" x2="564.5" y2="261.3"/>
<line class="dom0" x1="570.8" y1="264.5" x2="575.9" y2="265.3"/>
<line class="dom0" x1="580.3" y1="269.9" x2="581.9" y2="272"/>
<line class="dom0" x1="578.3" y1="277.8" x2="558.2" y2="281.1"/>
<line class="dom0" x1="551" y1="280.2" x2="539.2" y2="271.5"/>
<line class="dom0" x1="532.6" y1="268.5" x2="516.6" y2="271"/>
<line class="dom0" x1="510.9" y1="275.6" x2="501.5" y2="290.8"/>
<line class="dom0" x1="514.3" y1="275.9" x2="518.3" y2="294.2"/>
<line class="dom0" x1="521.8" y1="300.2" x2="547" y2="309.7"/>
<line class="dom0" x1="554.4" y1="286.3" x2="550.4" y2="307.7"/>
<line class="dom0" x1="575.9" y1="293.1" x2="554.4" y2="309.4"/>
<line class="dom0" x1="552.4" y1="315.3" x2="563" y2="337.9"/>
<line class="dom0" x1="548.1" y1="315.7" x2="540.6" y2="334.6"/>
<line class="dom0" x1="534.3" y1="337.9" x2="519.6" y2="333.9"/>
<line class="dom0" x1="511.1" y1="332" x2="499.5" y2="321.9"/>
<line class="dom0" x1="496.6" y1="315.3" x2="499.5" y2="298.2"/>
<line class="dom0" x1="503.1" y1="296" x2="514.3" y2="297"/>
<line class="dom0" x1="542.3" y1="222.6" x2="579.1" y2="215.5"/>
<line class="dom0" x1="587.1" y1="188.8" x2="583.1" y2="211.5"/>
<line class="dom0" x1="587.1" y1="215.5" x2="634.1" y2="226.6"/>
<line class="dom0" x1="583.1" y1="219.5" x2="579.9" y2="261.3"/>
<line class="dom0" x1="640.9" y1="229.4" x2="667.2" y2="255.5"/>
<line class="dom0" x1="671.9" y1="257.1" x2="697.4" y2="230.6"/>
<line class="dom0" x1="702.9" y1="230.6" x2="722.6" y2="255.2"/>
<line class="dom0" x1="717" y1="199.7" x2="701.9" y2="223.6"/>
<line class="dom0" x1="690.6" y1="168.9" x2="670.7" y2="188.3"/>
<line class="dom0" x1="670.4" y1="193.5" x2="696.2" y2="224.4"/>
<line class="dom0" x1="664" y1="193.5" x2="640.1" y2="222.6"/>
<line class="dom0" x1="640" y1="287.6" x2="665.1" y2="262.5"/>
<line class="dom0" x1="668.9" y1="263.7" x2="675.9" y2="292.9"/>
<line class="dom0" x1="672.3" y1="261.7" x2="707.5" y2="299.2"/>
<line class="dom0" x1="642.1" y1="291.1" x2="671.9" y2="296.9"/>
<line class="dom0" x1="679.9" y1="296.9" x2="706.3" y2="302"/>
<line class="dom0" x1="672.9" y1="259.7" x2="721.8" y2="257.5"/>
<line class="dom0" x1="603.7" y1="275.9" x2="585.1" y2="219"/>
<line class="dom0" x1="585.9" y1="276" x2="601.9" y2="280"/>
<line class="dom0" x1="718.1" y1="416.5" x2="715.6" y2="402"/>
<line class="dom0" x1="718.5" y1="395.2" x2="724.9" y2="389.4"/>
<line class="dom0" x1="731" y1="384.3" x2="742.7" y2="377.8"/>
<line class="dom0" x1="745.3" y1="378.7" x2="739.9" y2="391.4"/>
<line class="dom0" x1="736.9" y1="399" x2="732.8" y2="407.9"/>
<line class="dom0" x1="723.8" y1="418.8" x2="727.8" y2="415"/>
<line class="dom0" x1="727.8" y1="407.9" x2="718.9" y2="400.3"/>
<line class="dom0" x1="734.7" y1="395.4" x2="718.9" y2="400.3"/>
<line class="dom0" x1="735.5" y1="393" x2="730.9" y2="389.2"/>
<line class="dom0" x1="717.9" y1="346.6" x2="723.3" y2="339.3"/>
<line class="dom0" x1="603.7" y1="381.3" x2="600" y2="395.9"/>
<line class="dom0" x1="424.9" y1="468.2" x2="437.7" y2="431.8"/>
<line class="dom0" x1="409.7" y1="440.4" x2="411.7" y2="421"/>
<line class="dom0" x1="412.7" y1="413.1" x2="411.1" y2="383.2"/>
<line class="dom0" x1="441.7" y1="424.9" x2="458" y2="401.5"/>
<line class="dom0" x1="461.6" y1="394.1" x2="470.1" y2="364.4"/>
<line class="dom0" x1="397.8" y1="358.6" x2="406.3" y2="376.8"/>
<line class="dom0" x1="408.3" y1="264" x2="423.8" y2="245.4"/>
<line class="dom0" x1="356.4" y1="227" x2="381.7" y2="187.1"/>
<path id="svg-concept" class="dom5" d="M474.1,360.4c0,2.2-1.8,4-4,4s-4-1.8-4-4s1.8-4,4-4C472.3,356.4,474.1,358.2,474.1,360.4z"
	/>
<path id="svg-concept" class="dom5" d="M464.1,398.1c0,2.2-1.8,4-4,4s-4-1.8-4-4s1.8-4,4-4C462.3,394.1,464.1,395.9,464.1,398.1z"
	/>
<path id="svg-concept" class="dom5" d="M426.8,471.6c0,2.2-1.8,4-4,4s-4-1.8-4-4s1.8-4,4-4S426.8,469.4,426.8,471.6z"/>
<path id="svg-concept" class="dom5" d="M413.8,444.4c0,2.2-1.8,4-4,4c-2.2,0-4-1.8-4-4s1.8-4,4-4
	C412,440.4,413.8,442.2,413.8,444.4z"/>
<path id="svg-concept" class="dom5" d="M400.1,354.6c0,2.2-1.8,4-4,4c-2.2,0-4-1.8-4-4s1.8-4,4-4
	C398.3,350.6,400.1,352.4,400.1,354.6z"/>
<path id="svg-concept" class="dom5" d="M195.2,441.4c0,2.2-1.8,4-4,4s-4-1.8-4-4s1.8-4,4-4S195.2,439.2,195.2,441.4z"/>
<path id="svg-concept" class="dom5" d="M215.6,196.1c0,2.2-1.8,4-4,4s-4-1.8-4-4s1.8-4,4-4S215.6,193.9,215.6,196.1z"/>
<path id="svg-concept" class="dom5" d="M29.1,142.1c0,2.2-1.8,4-4,4s-4-1.8-4-4s1.8-4,4-4S29.1,139.8,29.1,142.1z"/>
<path id="svg-concept" class="dom5" d="M412.7,380c0,2.2-1.8,4-4,4c-2.2,0-4-1.8-4-4s1.8-4,4-4C410.9,376,412.7,377.8,412.7,380z"
	/>
<path id="svg-concept" class="dom5" d="M445.8,238.7c0,2.2-1.8,4-4,4s-4-1.8-4-4s1.8-4,4-4C444,234.8,445.8,236.5,445.8,238.7z"/>
<path id="svg-concept" class="dom5" d="M387.7,183.6c0,2.2-1.8,4-4,4c-2.2,0-4-1.8-4-4s1.8-4,4-4
	C385.9,179.6,387.7,181.4,387.7,183.6z"/>
<path id="svg-concept" class="dom5" d="M430.7,242.7c0,2.2-1.8,4-4,4s-4-1.8-4-4s1.8-4,4-4C428.9,238.8,430.7,240.5,430.7,242.7z"
	/>
<path id="svg-concept" class="dom5" d="M254.6,79.8c0,2.2-1.8,4-4,4s-4-1.8-4-4s1.8-4,4-4C252.8,75.9,254.6,77.6,254.6,79.8z"/>
<path id="svg-concept" class="dom5" d="M381.7,304.5c0,2.2-1.8,4-4,4c-2.2,0-4-1.8-4-4s1.8-4,4-4
	C379.9,300.5,381.7,302.3,381.7,304.5z"/>
<path id="svg-concept" class="dom5" d="M61.1,391c0,2.2-1.8,4-4,4s-4-1.8-4-4s1.8-4,4-4S61.1,388.8,61.1,391z"/>
<path id="svg-concept" class="dom5" d="M360.4,305.4c0,2.2-1.8,4-4,4c-2.2,0-4-1.8-4-4s1.8-4,4-4S360.4,303.2,360.4,305.4z"/>
<path id="svg-concept" class="dom5" d="M502.4,163.3c0,2.2-1.8,4-4,4s-4-1.8-4-4s1.8-4,4-4S502.4,161.1,502.4,163.3z"/>
<path id="svg-concept" class="dom5" d="M474.4,167.3c0,2.2-1.8,4-4,4s-4-1.8-4-4s1.8-4,4-4S474.4,165.1,474.4,167.3z"/>
<path id="svg-concept" class="dom5" d="M576.3,402.7c0,2.2-1.8,4-4,4s-4-1.8-4-4s1.8-4,4-4S576.3,400.5,576.3,402.7z"/>
<path id="svg-concept" class="dom5" d="M540.6,268.5c0,2.2-1.8,4-4,4s-4-1.8-4-4s1.8-4,4-4C538.8,264.5,540.6,266.3,540.6,268.5z
	"/>
<path id="svg-concept" class="dom5" d="M519.1,333.8c0,2.2-1.8,4-4,4s-4-1.8-4-4s1.8-4,4-4C517.3,329.8,519.1,331.6,519.1,333.8z
	"/>
<path id="svg-concept" class="dom5" d="M511.6,254.7c0,2.2-1.8,4-4,4s-4-1.8-4-4s1.8-4,4-4C509.8,250.7,511.6,252.4,511.6,254.7z
	"/>
<path id="svg-concept" class="dom5" d="M520.8,259.6c0,2.2-1.8,4-4,4s-4-1.8-4-4s1.8-4,4-4S520.8,257.4,520.8,259.6z"/>
<path id="svg-concept" class="dom5" d="M526.6,250.4c0,2.2-1.8,4-4,4s-4-1.8-4-4s1.8-4,4-4C524.8,246.4,526.6,248.2,526.6,250.4z
	"/>
<path id="svg-concept" class="dom5" d="M527.6,238c0,2.2-1.8,4-4,4s-4-1.8-4-4s1.8-4,4-4C525.9,234,527.6,235.8,527.6,238z"/>
<line id="svg-concept" class="dom5" x1="526.4" y1="249.2" x2="532.6" y2="249.1"/>
<path id="svg-concept" class="dom5" d="M724.2,420.5c0,2.2-1.8,4-4,4s-4-1.8-4-4s1.8-4,4-4S724.2,418.3,724.2,420.5z"/>
<path id="svg-concept" class="dom5" d="M734.3,411.9c0,2.2-1.8,4-4,4s-4-1.8-4-4s1.8-4,4-4S734.3,409.7,734.3,411.9z"/>
<path id="svg-concept" class="dom5" d="M719.6,398c0,2.2-1.8,4-4,4s-4-1.8-4-4s1.8-4,4-4S719.6,395.8,719.6,398z"/>
<path id="svg-concept" class="dom5" d="M562.9,251.5c0,2.2-1.8,4-4,4s-4-1.8-4-4s1.8-4,4-4S562.9,249.2,562.9,251.5z"/>
<path id="svg-concept" class="dom5" d="M658.4,328.4c0,2.2-1.8,4-4,4s-4-1.8-4-4s1.8-4,4-4C656.7,324.4,658.4,326.2,658.4,328.4z
	"/>
<path id="svg-concept" class="dom5" d="M609.9,280c0,2.2-1.8,4-4,4s-4-1.8-4-4s1.8-4,4-4C608.2,276,609.9,277.8,609.9,280z"/>
<path id="svg-concept" class="dom5" d="M720.5,350.3c0,2.2-1.8,4-4,4s-4-1.8-4-4s1.8-4,4-4S720.5,348.1,720.5,350.3z"/>
<path id="svg-concept" class="dom5" d="M728.9,335.6c0,2.2-1.8,4-4,4s-4-1.8-4-4s1.8-4,4-4C727.1,331.6,728.9,333.4,728.9,335.6z
	"/>
<path id="svg-concept" class="dom5" d="M520.8,215.5c0,2.2-1.8,4-4,4s-4-1.8-4-4s1.8-4,4-4S520.8,213.3,520.8,215.5z"/>
<path id="svg-concept" class="dom5" d="M517.7,204.3c0,2.2-1.8,4-4,4c-2.2,0-4-1.8-4-4s1.8-4,4-4
	C515.9,200.3,517.7,202.1,517.7,204.3z"/>
<path id="svg-concept" class="dom5" d="M724.3,197.5c0,2.2-1.8,4-4,4s-4-1.8-4-4s1.8-4,4-4S724.3,195.3,724.3,197.5z"/>
<path id="svg-concept" class="dom5" d="M862.9,289c0,2.2-1.8,4-4,4s-4-1.8-4-4s1.8-4,4-4S862.9,286.8,862.9,289z"/>
<path id="svg-concept" class="dom5" d="M954,513c0,2.2-1.8,4-4,4s-4-1.8-4-4s1.8-4,4-4S954,510.8,954,513z"/>
<path class="dom1" d="M959,445c-1.7,0-3-1.3-3-3s1.3-3,3-3s3,1.3,3,3S960.6,445,959,445z"/>
<path class="dom1" d="M1003,592.6c-1.7,0-3-1.3-3-3s1.3-3,3-3s3,1.3,3,3S1004.6,592.6,1003,592.6z"/>
<path class="dom1" d="M1027.9,534.6c-1.7,0-3-1.3-3-3s1.3-3,3-3s3,1.3,3,3S1029.6,534.6,1027.9,534.6z"/>
<path class="dom1" d="M1068.2,583.6c-1.7-0.1-2.9-1.6-2.8-3.2c0.1-1.7,1.6-2.9,3.2-2.7c1.7,0.1,2.9,1.6,2.7,3.2
	C1071.3,582.5,1069.8,583.7,1068.2,583.6z"/>
<path class="dom1" d="M1009,237.6c-1.7,0-3-1.3-3-3s1.3-3,3-3s3,1.3,3,3C1012,236.2,1010.7,237.6,1009,237.6z"/>
<path class="dom1" d="M1068.3,221.6c-1.7,0-3-1.3-3-3s1.3-3,3-3c1.7,0,3,1.3,3,3C1071.3,220.2,1070,221.6,1068.3,221.6z"/>
<path class="dom1" d="M1046.5,325.8c-1.7,0-3-1.3-3-3s1.3-3,3-3s3,1.3,3,3C1049.5,324.4,1048.2,325.8,1046.5,325.8z"/>
<path class="dom1" d="M1064.5,474.4c-1.7,0-3-1.3-3-3s1.3-3,3-3s3,1.3,3,3S1066.1,474.4,1064.5,474.4z"/>
<path class="dom1" d="M1046.6,410.9c-1.7,0-3-1.3-3-3s1.3-3,3-3c1.7,0,3,1.3,3,3S1048.3,410.9,1046.6,410.9z"/>
<path id="svg-concept" class="dom5" d="M991,377c0,2.2-1.8,4-4,4s-4-1.8-4-4s1.8-4,4-4S991,374.8,991,377z"/>
<path id="svg-concept" class="dom5" d="M1014,84.4c0,2.2-1.8,4-4,4s-4-1.8-4-4s1.8-4,4-4S1014,82.2,1014,84.4z"/>
<path id="svg-concept" class="dom5" d="M671.2,191.1c0,2.2-1.8,4-4,4s-4-1.8-4-4s1.8-4,4-4S671.2,188.9,671.2,191.1z"/>
<path id="svg-concept" class="dom5" d="M999,158.8c0,2.2-1.8,4-4,4s-4-1.8-4-4s1.8-4,4-4C997.2,154.8,999,156.6,999,158.8z"/>
<path id="svg-concept" class="dom5" d="M936,108c0,2.2-1.8,4-4,4s-4-1.8-4-4s1.8-4,4-4C934.2,104,936,105.8,936,108z"/>
<path id="svg-concept" class="dom5" d="M607.3,168.4c0,2.2-1.8,4-4,4s-4-1.8-4-4s1.8-4,4-4C605.6,164.4,607.3,166.2,607.3,168.4z
	"/>
<path id="svg-concept" class="dom5" d="M661.5,140.5c0,2.2-1.8,4-4,4s-4-1.8-4-4s1.8-4,4-4S661.5,138.3,661.5,140.5z"/>
<g>
	<path class="dom6" d="M518.6,538.7c-33.3,24.2-64.1,33-86.8,21.4c-54.7-27.8-41.7-163,29-302s172.3-229,226.9-201.2
		c26.8,13.6,37.3,53,32.8,106"/>
	<path class="dom6" d="M763.3,385.4c18.8,56.1,16.4,104-11.5,129.9c-25.7,23.9-68.4,24.7-117.6,6.9"/>
	<path class="dom6" d="M348.5,203.9c-9.6-44-4-80.7,19.2-102.3c54.2-50.3,184.1,1.5,290.2,115.8c51.4,55.4,87.8,115.3,105.5,168"/>
	<path class="dom6" d="M775,305.3c41.1,26.8,63.4,53.9,57.6,75.7c-12.2,45.9-144.2,50.6-294.9,10.6S274.7,281.9,286.9,236
		c4.5-17,28.2-34.4,61.6-32.1"/>
</g>
<path id="svg-concept" class="dom7" d="M779,475.6c0,4.1-3.4,7.5-7.5,7.5s-7.5-3.4-7.5-7.5s3.4-7.5,7.5-7.5S779,471.5,779,475.6z
	"/>
<path id="svg-concept" class="dom7" d="M481.9,233.6c0,4.1-3.4,7.5-7.5,7.5s-7.5-3.4-7.5-7.5s3.4-7.5,7.5-7.5
	C478.5,226.2,481.9,229.5,481.9,233.6z"/>
<path id="svg-concept_38_" class="dom7" d="M296.2,257.1c0,4.1-3.4,7.5-7.5,7.5s-7.5-3.4-7.5-7.5s3.4-7.5,7.5-7.5
	S296.2,252.9,296.2,257.1z"/>
</svg>
