<svg xmlns="http://www.w3.org/2000/svg" viewBox="0 0 402.773 402.773"><circle cx="201.387" cy="201.387" r="194.56" fill="#8facc1"/><path d="M201.387 402.773C90.341 402.773 0 312.433 0 201.387S90.341 0 201.387 0s201.387 90.341 201.387 201.387-90.341 201.386-201.387 201.386zm0-389.12c-103.516 0-187.733 84.221-187.733 187.733S97.871 389.12 201.387 389.12 389.12 304.899 389.12 201.387 304.903 13.653 201.387 13.653z" fill="#688fab"/><path d="M370.835 105.813H148.528c-25.475 0-46.128 20.652-46.128 46.128v35.792h293.016c-2.057-29.629-10.733-57.42-24.581-81.92z" fill="#fff"/><path d="M402.734 194.56H95.573v-42.621c0-29.199 23.753-52.953 52.953-52.953h226.29l1.959 3.466c14.797 26.18 23.361 54.714 25.45 84.806l.509 7.302zm-293.507-13.653H387.96c-2.594-24.054-9.694-46.973-21.156-68.267H148.526c-21.67 0-39.299 17.626-39.299 39.299v28.968z" fill="#688fab"/><circle cx="146.773" cy="150.187" r="17.067" fill="#8facc1"/><path d="M146.773 174.08c-13.174 0-23.893-10.72-23.893-23.893 0-13.174 10.72-23.893 23.893-23.893 13.174 0 23.893 10.72 23.893 23.893.001 13.173-10.719 23.893-23.893 23.893zm0-34.133c-5.647 0-10.24 4.593-10.24 10.24s4.593 10.24 10.24 10.24 10.24-4.593 10.24-10.24c0-5.648-4.592-10.24-10.24-10.24z" fill="#688fab"/><circle cx="201.387" cy="150.187" r="17.067" fill="#8facc1"/><path d="M201.387 174.08c-13.174 0-23.893-10.72-23.893-23.893 0-13.174 10.72-23.893 23.893-23.893s23.893 10.72 23.893 23.893-10.72 23.893-23.893 23.893zm0-34.133c-5.647 0-10.24 4.593-10.24 10.24s4.593 10.24 10.24 10.24 10.24-4.593 10.24-10.24c0-5.648-4.593-10.24-10.24-10.24z" fill="#688fab"/><circle cx="256" cy="150.187" r="17.067" fill="#8facc1"/><path d="M256 174.08c-13.174 0-23.893-10.72-23.893-23.893 0-13.174 10.72-23.893 23.893-23.893 13.174 0 23.893 10.72 23.893 23.893S269.174 174.08 256 174.08zm0-34.133c-5.647 0-10.24 4.593-10.24 10.24s4.593 10.24 10.24 10.24 10.24-4.593 10.24-10.24c0-5.648-4.593-10.24-10.24-10.24z" fill="#688fab"/><path d="M102.4 368.872c29.005 17.179 62.833 27.075 98.987 27.075 107.452 0 194.56-87.108 194.56-194.56 0-4.594-.217-9.137-.531-13.653H102.4v181.138z" fill="#fff"/><path d="M201.387 402.773c-36.081 0-71.513-9.694-102.467-28.027l-3.347-1.98v-191.86h306.214l.44 6.354c.374 5.373.546 9.859.546 14.126 0 111.047-90.34 201.387-201.386 201.387zm-92.16-37.84c28.044 15.833 59.82 24.187 92.16 24.187 103.516 0 187.733-84.221 187.733-187.733 0-2.167-.049-4.407-.154-6.827h-279.74v170.373z" fill="#688fab"/><circle cx="197.973" cy="269.653" r="40.96" fill="#edf2f5"/><g fill="#688fab"><path d="M197.973 317.44c-26.349 0-47.787-21.439-47.787-47.787s21.437-47.787 47.787-47.787 47.787 21.439 47.787 47.787-21.437 47.787-47.787 47.787zm0-81.92c-18.819 0-34.133 15.314-34.133 34.133s15.314 34.133 34.133 34.133 34.133-15.314 34.133-34.133-15.313-34.133-34.133-34.133z"/><path d="M273.067 351.573a6.803 6.803 0 0 1-4.826-2L223.867 305.2c-2.666-2.666-2.666-6.987 0-9.653s6.987-2.666 9.653 0l44.373 44.373a6.825 6.825 0 0 1-4.826 11.653z"/></g></svg>