<svg xmlns="http://www.w3.org/2000/svg" viewBox="0 0 273.1 409.6"><path fill="#98a6be" d="M136.5 0C70.6.1 17.1 53.5 17.1 119.5v76.8c0 4.7 3.8 8.5 8.5 8.5h34.1c4.7 0 8.5-3.8 8.5-8.5v-76.8c0-37.7 30.6-68.3 68.3-68.3s68.3 30.6 68.3 68.3v76.8c0 4.7 3.8 8.5 8.5 8.5h34.1c4.7 0 8.5-3.8 8.5-8.5v-76.8C255.9 53.5 202.5.1 136.5 0zm0 0"/><path fill="#607498" d="M247.5 187.7H25.6C11.5 187.7 0 199.2 0 213.3v153.6c0 23.6 19.1 42.7 42.7 42.7h187.7c23.6 0 42.7-19.1 42.7-42.7V213.3c0-14.1-11.5-25.6-25.6-25.6zm0 0"/><path fill="#98a6be" d="M159.6 298.2c7.1-6.4 11.1-15.5 11.1-25.1 0-18.9-15.3-34.1-34.1-34.1-18.9 0-34.1 15.3-34.1 34.1 0 9.6 4 18.7 11.1 25.1L103 330.1c-1.5 4.5.9 9.3 5.4 10.8.9.3 1.8.4 2.7.4h51.2c4.7 0 8.5-3.8 8.5-8.5 0-.9-.1-1.8-.4-2.7l-10.8-31.9zm0 0"/></svg>