<svg xmlns="http://www.w3.org/2000/svg" viewBox="0 0 512 512"><path d="M512 320v-42.667c0-23.531-19.146-42.667-42.667-42.667h-85.499L383.667 224c0-30.118-18.021-55.982-43.768-67.776C332.637 92.021 278.285 42.667 213 42.667c-46.376 0-87.992 24.74-110.801 64.75-2.122-.142-4.229-.417-6.366-.417C43 107 0 149.99 0 202.833s43 95.833 95.833 95.833H128V320c0 12.805 5.786 24.174 14.746 32-8.96 7.826-14.746 19.195-14.746 32v42.667c0 23.531 19.146 42.667 42.667 42.667h298.667c23.521 0 42.667-19.135 42.667-42.667V384c0-12.805-5.786-24.174-14.746-32 8.959-7.826 14.745-19.195 14.745-32z" fill="#303c42"/><g fill="#e6e6e6"><path d="M95.833 277.333c-41.083 0-74.5-33.417-74.5-74.5s33.417-74.5 74.5-74.5c13.083 0 25.938 3.427 37.167 9.917 5.104 2.938 11.646 1.219 14.563-3.906 2.958-5.104 1.208-11.625-3.896-14.573-6.078-3.508-12.573-6.152-19.243-8.236C144.077 81.938 176.859 64 213 64c51.445 0 94.464 36.908 104.126 86.155-2.704-.298-5.344-.822-8.126-.822A10.66 10.66 0 0 0 298.333 160 10.66 10.66 0 0 0 309 170.667c29.417 0 53.333 23.927 53.333 53.5l.164 10.5h-191.83c-23.521 0-42.667 19.135-42.667 42.667H95.833zM490.667 384v42.667c0 11.76-9.563 21.333-21.333 21.333H170.667c-11.771 0-21.333-9.573-21.333-21.333V384c0-11.76 9.563-21.333 21.333-21.333h298.667c11.77 0 21.333 9.573 21.333 21.333z"/><path d="M170.667 341.333c-11.771 0-21.333-9.573-21.333-21.333v-42.667c0-11.76 9.563-21.333 21.333-21.333h298.667c11.771 0 21.333 9.573 21.333 21.333V320c0 11.76-9.563 21.333-21.333 21.333H170.667z"/></g><path d="M170.667 320v-42.667c0-11.76 8.367-21.333 18.667-21.333h-18.667c-11.771 0-21.333 9.573-21.333 21.333V320c0 11.76 9.563 21.333 21.333 21.333h18.667c-10.3 0-18.667-9.573-18.667-21.333z" opacity=".2" fill="#fff"/><path d="M469.333 256h-18.667c10.299 0 18.667 9.573 18.667 21.333V320c0 11.76-8.367 21.333-18.667 21.333h18.667c11.771 0 21.333-9.573 21.333-21.333v-42.667c.001-11.76-9.562-21.333-21.333-21.333z" opacity=".1"/><path d="M224 277.333A10.66 10.66 0 0 0 213.333 288v21.333A10.66 10.66 0 0 0 224 320a10.66 10.66 0 0 0 10.667-10.667V288A10.66 10.66 0 0 0 224 277.333zm42.667 0A10.66 10.66 0 0 0 256 288v21.333A10.66 10.66 0 0 0 266.667 320a10.66 10.66 0 0 0 10.667-10.667V288a10.662 10.662 0 0 0-10.667-10.667zm181.333 0c-11.771 0-21.333 9.573-21.333 21.333 0 11.76 9.563 21.333 21.333 21.333 11.771 0 21.333-9.573 21.333-21.333 0-11.76-9.562-21.333-21.333-21.333zm-64 0c-11.771 0-21.333 9.573-21.333 21.333 0 11.76 9.563 21.333 21.333 21.333 11.771 0 21.333-9.573 21.333-21.333 0-11.76-9.562-21.333-21.333-21.333zM224 426.667A10.66 10.66 0 0 0 234.667 416v-21.333A10.66 10.66 0 0 0 224 384a10.66 10.66 0 0 0-10.667 10.667V416A10.66 10.66 0 0 0 224 426.667zm42.667 0A10.66 10.66 0 0 0 277.334 416v-21.333A10.66 10.66 0 0 0 266.667 384 10.66 10.66 0 0 0 256 394.667V416a10.66 10.66 0 0 0 10.667 10.667zm181.333 0c11.771 0 21.333-9.573 21.333-21.333S459.771 384 448 384c-11.771 0-21.333 9.573-21.333 21.333s9.562 21.334 21.333 21.334zm-64 0c11.771 0 21.333-9.573 21.333-21.333S395.771 384 384 384c-11.771 0-21.333 9.573-21.333 21.333s9.562 21.334 21.333 21.334z" fill="#303c42"/><path d="M170.667 426.667V384c0-11.76 8.367-21.333 18.667-21.333h-18.667c-11.771 0-21.333 9.573-21.333 21.333v42.667c0 11.76 9.563 21.333 21.333 21.333h18.667c-10.3 0-18.667-9.573-18.667-21.333z" opacity=".2" fill="#fff"/><path d="M469.333 362.667h-18.667c10.299 0 18.667 9.573 18.667 21.333v42.667c0 11.76-8.367 21.333-18.667 21.333h18.667c11.771 0 21.333-9.573 21.333-21.333V384c.001-11.76-9.562-21.333-21.333-21.333z" opacity=".1"/><path d="M181.333 277.333A10.66 10.66 0 0 0 170.666 288v21.333A10.66 10.66 0 0 0 181.333 320 10.66 10.66 0 0 0 192 309.333V288a10.66 10.66 0 0 0-10.667-10.667zM170.667 416a10.66 10.66 0 0 0 10.667 10.667A10.66 10.66 0 0 0 192.001 416v-21.333A10.66 10.66 0 0 0 181.334 384a10.66 10.66 0 0 0-10.667 10.667V416z" fill="#303c42"/><linearGradient id="a" gradientUnits="userSpaceOnUse" x1="-46.354" y1="638.721" x2="-22.071" y2="627.395" gradientTransform="matrix(21.3333 0 0 -21.3333 996.333 13791.667)"><stop offset="0" stop-color="#fff" stop-opacity=".2"/><stop offset="1" stop-color="#fff" stop-opacity="0"/></linearGradient><path d="M512 320v-42.667c0-23.531-19.146-42.667-42.667-42.667h-85.499L383.667 224c0-30.118-18.021-55.982-43.768-67.776C332.637 92.021 278.285 42.667 213 42.667c-46.376 0-87.992 24.74-110.801 64.75-2.122-.142-4.229-.417-6.366-.417C43 107 0 149.99 0 202.833s43 95.833 95.833 95.833H128V320c0 12.805 5.786 24.174 14.746 32-8.96 7.826-14.746 19.195-14.746 32v42.667c0 23.531 19.146 42.667 42.667 42.667h298.667c23.521 0 42.667-19.135 42.667-42.667V384c0-12.805-5.786-24.174-14.746-32 8.959-7.826 14.745-19.195 14.745-32z" fill="url(#a)"/></svg>