<svg xmlns="http://www.w3.org/2000/svg" viewBox="0 0 469.333 469.333"><path d="M469.333 192a42.393 42.393 0 0 0-5.031-20.063L373.583 25.271C363.792 9.448 346.833 0 328.219 0H141.115C122.5 0 105.542 9.448 95.75 25.271L5.031 171.938A42.386 42.386 0 0 0 0 192v85.333c0 12.805 5.784 24.174 14.741 32C5.784 317.159 0 328.529 0 341.333v85.333c0 23.531 19.135 42.667 42.667 42.667h384c23.531 0 42.667-19.135 42.667-42.667v-85.333c0-12.805-5.784-24.174-14.741-32 8.957-7.826 14.741-19.195 14.741-32V192z" fill="#303c42"/><path d="M113.896 36.5c5.875-9.5 16.052-15.167 27.219-15.167h187.104c11.167 0 21.344 5.667 27.219 15.167l69.792 112.833H44.104L113.896 36.5z" fill="#f2f2f2"/><path d="M448 426.667c0 11.76-9.573 21.333-21.333 21.333h-384c-11.76 0-21.333-9.573-21.333-21.333v-85.333c0-11.76 9.573-21.333 21.333-21.333h384c11.76 0 21.333 9.573 21.333 21.333v85.333zm0-149.334c0 11.76-9.573 21.333-21.333 21.333h-384c-11.76 0-21.333-9.573-21.333-21.333V192c0-11.76 9.573-21.333 21.333-21.333h384c11.76 0 21.333 9.573 21.333 21.333v85.333z" fill="#e6e6e6"/><linearGradient id="a" gradientUnits="userSpaceOnUse" x1="-60.719" y1="620.787" x2="-44.851" y2="604.924" gradientTransform="matrix(21.3333 0 0 -21.3333 1430.111 13315.223)"><stop offset="0" stop-opacity=".1"/><stop offset="1" stop-opacity="0"/></linearGradient><path d="M426.667 320H181.333l128 128h117.333c11.76 0 21.333-9.573 21.333-21.333v-85.333C448 329.573 438.427 320 426.667 320zm0-149.333h-384c-3.12 0-6.034.749-8.708 1.958L160 298.667h266.667c11.76 0 21.333-9.573 21.333-21.333V192c0-11.76-9.573-21.333-21.333-21.333z" fill="url(#a)"/><g fill="#303c42"><path d="M74.667 192A10.66 10.66 0 0 0 64 202.667v64a10.66 10.66 0 0 0 10.667 10.667 10.66 10.66 0 0 0 10.667-10.667v-64A10.662 10.662 0 0 0 74.667 192zm42.666 0a10.66 10.66 0 0 0-10.667 10.667v64c0 5.896 4.771 10.667 10.667 10.667S128 272.563 128 266.667v-64A10.66 10.66 0 0 0 117.333 192zM160 192a10.66 10.66 0 0 0-10.667 10.667v64A10.66 10.66 0 0 0 160 277.334a10.66 10.66 0 0 0 10.667-10.667v-64A10.66 10.66 0 0 0 160 192z"/><circle cx="384" cy="234.667" r="21.333"/><circle cx="320" cy="234.667" r="21.333"/><path d="M74.667 341.333A10.66 10.66 0 0 0 64 352v64a10.66 10.66 0 0 0 10.667 10.667A10.66 10.66 0 0 0 85.334 416v-64a10.662 10.662 0 0 0-10.667-10.667zm42.666 0A10.66 10.66 0 0 0 106.666 352v64c0 5.896 4.771 10.667 10.667 10.667S128 421.896 128 416v-64a10.66 10.66 0 0 0-10.667-10.667zm42.667 0A10.66 10.66 0 0 0 149.333 352v64A10.66 10.66 0 0 0 160 426.667 10.66 10.66 0 0 0 170.667 416v-64A10.66 10.66 0 0 0 160 341.333z"/><circle cx="384" cy="384" r="21.333"/><circle cx="320" cy="384" r="21.333"/></g><linearGradient id="b" gradientUnits="userSpaceOnUse" x1="-66.409" y1="616.939" x2="-43.786" y2="606.39" gradientTransform="matrix(21.3333 0 0 -21.3333 1430.111 13315.223)"><stop offset="0" stop-color="#fff" stop-opacity=".2"/><stop offset="1" stop-color="#fff" stop-opacity="0"/></linearGradient><path d="M469.333 192a42.393 42.393 0 0 0-5.031-20.063L373.583 25.271C363.792 9.448 346.833 0 328.219 0H141.115C122.5 0 105.542 9.448 95.75 25.271L5.031 171.938A42.386 42.386 0 0 0 0 192v85.333c0 12.805 5.784 24.174 14.741 32C5.784 317.159 0 328.529 0 341.333v85.333c0 23.531 19.135 42.667 42.667 42.667h384c23.531 0 42.667-19.135 42.667-42.667v-85.333c0-12.805-5.784-24.174-14.741-32 8.957-7.826 14.741-19.195 14.741-32V192z" fill="url(#b)"/></svg>