<svg xmlns="http://www.w3.org/2000/svg" viewBox="0 0 469.333 469.333"><path d="M437.333 170.667H384v-21.333c0-10.348-3.85-19.717-9.999-27.112l.165-.138-86.541-103.042C277.479 6.938 262.583 0 246.792 0H137.208c-15.792 0-30.688 6.938-40.833 19.031L9.833 122.083l.165.138C3.85 129.616 0 138.986 0 149.333V192c0 12.805 5.786 24.174 14.746 32C5.786 231.826 0 243.195 0 256v42.667c0 23.531 19.146 42.667 42.667 42.667h106.667v32c0 17.646 14.354 32 32 32h84.59C263.43 425.948 254.505 448 245.333 448a10.66 10.66 0 0 0-10.667 10.667 10.66 10.66 0 0 0 10.667 10.667h128A10.66 10.66 0 0 0 384 458.667 10.66 10.66 0 0 0 373.333 448c-9.172 0-18.096-22.052-20.59-42.667h84.59c17.646 0 32-14.354 32-32V202.667c0-17.646-14.354-32-32-32z" fill="#303c42"/><path d="M448 202.667v138.667H170.667V202.667c0-5.885 4.792-10.667 10.667-10.667h256c5.874 0 10.666 4.781 10.666 10.667z" fill="#5c6671"/><linearGradient id="a" gradientUnits="userSpaceOnUse" x1="-59.101" y1="614.623" x2="-45.892" y2="608.461" gradientTransform="matrix(21.3333 0 0 -21.3333 1430.111 13315.223)"><stop offset="0" stop-color="#fff" stop-opacity=".2"/><stop offset="1" stop-color="#fff" stop-opacity="0"/></linearGradient><path d="M448 202.667v138.667H170.667V202.667c0-5.885 4.792-10.667 10.667-10.667h256c5.874 0 10.666 4.781 10.666 10.667z" fill="url(#a)"/><linearGradient id="b" gradientUnits="userSpaceOnUse" x1="-57.464" y1="616.431" x2="-47.609" y2="606.578" gradientTransform="matrix(21.3333 0 0 -21.3333 1430.111 13315.223)"><stop offset="0" stop-color="#fff" stop-opacity=".2"/><stop offset="1" stop-color="#fff" stop-opacity="0"/></linearGradient><path d="M448 202.667v138.667H170.667V202.667c0-5.885 4.792-10.667 10.667-10.667h256c5.874 0 10.666 4.781 10.666 10.667z" fill="url(#b)"/><path d="M112.708 32.75c6.104-7.25 15.021-11.417 24.5-11.417h109.583c9.479 0 18.396 4.167 24.5 11.427l62.065 73.906H50.641l62.067-73.916z" fill="#f2f2f2"/><path d="M21.333 192v-42.667c0-11.76 9.563-21.333 21.333-21.333h298.667c11.771 0 21.333 9.573 21.333 21.333v21.333h-21.333c0-11.76-9.563-21.333-21.333-21.333-11.771 0-21.333 9.573-21.333 21.333h-21.333c0-11.76-9.563-21.333-21.333-21.333-11.771 0-21.333 9.573-21.333 21.333h-53.333c-17.646 0-32 14.354-32 32v10.667H42.667c-11.771 0-21.334-9.573-21.334-21.333zm21.334 128c-11.771 0-21.333-9.573-21.333-21.333V256c0-11.76 9.563-21.333 21.333-21.333h106.667v32c0-5.896-4.771-10.667-10.667-10.667S128 260.771 128 266.667V288c0 5.896 4.771 10.667 10.667 10.667s10.667-4.771 10.667-10.667v32H42.667z" fill="#e6e6e6"/><path d="M343.521 448h-68.375c7.138-13.021 10.855-29.531 12.208-42.667h43.96c1.353 13.136 5.069 29.646 12.207 42.667zm93.812-64h-256c-5.875 0-10.667-4.781-10.667-10.667v-10.667H448v10.667c0 5.886-4.792 10.667-10.667 10.667z" fill="#f2f2f2"/><path d="M53.333 149.333A10.66 10.66 0 0 0 42.666 160v21.333c0 5.896 4.771 10.667 10.667 10.667S64 187.229 64 181.333V160a10.66 10.66 0 0 0-10.667-10.667zm42.667 0A10.66 10.66 0 0 0 85.333 160v21.333A10.66 10.66 0 0 0 96 192a10.66 10.66 0 0 0 10.667-10.667V160A10.66 10.66 0 0 0 96 149.333zm53.333 32V160c0-5.896-4.771-10.667-10.667-10.667S128 154.104 128 160v21.333c0 5.896 4.771 10.667 10.667 10.667s10.666-4.771 10.666-10.667zm-96 74.667a10.66 10.66 0 0 0-10.667 10.667V288c0 5.896 4.771 10.667 10.667 10.667S64 293.896 64 288v-21.333A10.66 10.66 0 0 0 53.333 256zM96 256a10.66 10.66 0 0 0-10.667 10.667V288A10.66 10.66 0 0 0 96 298.667 10.66 10.66 0 0 0 106.667 288v-21.333A10.66 10.66 0 0 0 96 256z" fill="#303c42"/><linearGradient id="c" gradientUnits="userSpaceOnUse" x1="-53.052" y1="605.666" x2="-50.735" y2="603.35" gradientTransform="matrix(21.3333 0 0 -21.3333 1430.111 13315.223)"><stop offset="0" stop-opacity=".1"/><stop offset="1" stop-opacity="0"/></linearGradient><path d="M343.521 448c-7.138-13.021-10.854-29.531-12.207-42.667h-43.96L330.021 448h13.5z" fill="url(#c)"/><linearGradient id="d" gradientUnits="userSpaceOnUse" x1="-66.634" y1="618.443" x2="-44.249" y2="608.009" gradientTransform="matrix(21.3333 0 0 -21.3333 1430.111 13315.223)"><stop offset="0" stop-color="#fff" stop-opacity=".2"/><stop offset="1" stop-color="#fff" stop-opacity="0"/></linearGradient><path d="M437.333 170.667H384v-21.333c0-10.348-3.85-19.717-9.999-27.112l.165-.138-86.541-103.042C277.479 6.938 262.583 0 246.792 0H137.208c-15.792 0-30.688 6.938-40.833 19.031L9.833 122.083l.165.138C3.85 129.616 0 138.986 0 149.333V192c0 12.805 5.786 24.174 14.746 32C5.786 231.826 0 243.195 0 256v42.667c0 23.531 19.146 42.667 42.667 42.667h106.667v32c0 17.646 14.354 32 32 32h84.59C263.43 425.948 254.505 448 245.333 448a10.66 10.66 0 0 0-10.667 10.667 10.66 10.66 0 0 0 10.667 10.667h128A10.66 10.66 0 0 0 384 458.667 10.66 10.66 0 0 0 373.333 448c-9.172 0-18.096-22.052-20.59-42.667h84.59c17.646 0 32-14.354 32-32V202.667c0-17.646-14.354-32-32-32z" fill="url(#d)"/></svg>