<svg version="1.1" id="el_Vw_V3st5L" xmlns="http://www.w3.org/2000/svg" xmlns:xlink="http://www.w3.org/1999/xlink" x="0px" y="0px" viewBox="0 0 409 409" style="enable-background:new 0 0 409.6 409.6;" xml:space="preserve"><style>@-webkit-keyframes el_mZjOvYZxvX_J1gy7g6mp_Animation{0%{-webkit-transform: translate(204.95000457763672px, 204.95000457763672px) rotate(0deg) translate(-204.95000457763672px, -204.95000457763672px);transform: translate(204.95000457763672px, 204.95000457763672px) rotate(0deg) translate(-204.95000457763672px, -204.95000457763672px);}100%{-webkit-transform: translate(204.95000457763672px, 204.95000457763672px) rotate(360deg) translate(-204.95000457763672px, -204.95000457763672px);transform: translate(204.95000457763672px, 204.95000457763672px) rotate(360deg) translate(-204.95000457763672px, -204.95000457763672px);}}@keyframes el_mZjOvYZxvX_J1gy7g6mp_Animation{0%{-webkit-transform: translate(204.95000457763672px, 204.95000457763672px) rotate(0deg) translate(-204.95000457763672px, -204.95000457763672px);transform: translate(204.95000457763672px, 204.95000457763672px) rotate(0deg) translate(-204.95000457763672px, -204.95000457763672px);}100%{-webkit-transform: translate(204.95000457763672px, 204.95000457763672px) rotate(360deg) translate(-204.95000457763672px, -204.95000457763672px);transform: translate(204.95000457763672px, 204.95000457763672px) rotate(360deg) translate(-204.95000457763672px, -204.95000457763672px);}}#el_Vw_V3st5L *{-webkit-animation-duration: 8s;animation-duration: 8s;-webkit-animation-iteration-count: infinite;animation-iteration-count: infinite;-webkit-animation-timing-function: cubic-bezier(0, 0, 1, 1);animation-timing-function: cubic-bezier(0, 0, 1, 1);}#el_mZjOvYZxvX{fill: url(#SVGID_1_);}#el_xoJCdlut6a{fill: #132B7E;}#el_SzcdCmCP3j{fill: #029EF5;}#el_Nm-e_3ZfeR{fill: #029EF5;}#el_4bqEdQvAaF{fill: #029EF5;}#el_1geVoW40nl{fill: #029EF5;}#el_31X5Ev61fB{fill: #029EF5;}#el_kqnWUyaXsW{fill: #029EF5;}#el_hCNFD4MWUL{fill: #029EF5;}#el_NoFCwIobUn{fill: #029EF5;}#el_0NAfGyqBLn{fill: #029EF5;}#el_mZjOvYZxvX_J1gy7g6mp{-webkit-animation-name: el_mZjOvYZxvX_J1gy7g6mp_Animation;animation-name: el_mZjOvYZxvX_J1gy7g6mp_Animation;}</style>

<linearGradient id="SVGID_1_" gradientUnits="userSpaceOnUse" x1="185.4893" y1="201.8273" x2="220.1168" y2="207.4092">
	<stop offset="0.6" style="stop-color:#132B7E"/>
	<stop offset="0.6" style="stop-color:#029EF5"/>
</linearGradient>
<g id="el_mZjOvYZxvX_J1gy7g6mp" data-animator-group="true" data-animator-type="1"><path d="M281.8,46.9c-0.1-2.2,1-4.3,2.9-5.5c1.8-1.2,4.1-1.3,6.1-0.3c5.6,2.9,11.1,6.2,16.4,9.7&#10;&#9;c2.8,1.9,3.6,5.8,1.7,8.6c-1.9,2.8-5.8,3.6-8.6,1.7c-5-3.3-10.2-6.3-15.4-9.1C283,51,281.7,49,281.8,46.9z M246,37.3&#10;&#9;c5.8,1.4,11.5,3.2,17.1,5.1c2.1,0.8,4.4,0.4,6.1-1s2.5-3.7,2.1-5.9c-0.5-2.2-2-4-4.1-4.7c-6-2.2-12.1-4-18.3-5.5&#10;&#9;c-2.2-0.7-4.6-0.1-6.2,1.5c-1.6,1.6-2.3,4-1.5,6.2C241.9,35.3,243.8,36.9,246,37.3z M319.1,75.6c4.4,4,8.7,8.1,12.7,12.5&#10;&#9;c1.2,1.3,2.8,2,4.5,2c2.4,0,4.6-1.4,5.6-3.7s0.5-4.8-1.1-6.6c-4.3-4.7-8.9-9.1-13.6-13.4c-2.5-2.3-6.4-2-8.7,0.5&#10;&#9;C316.3,69.5,316.6,73.4,319.1,75.6z M389.9,201.4c-0.1-6.5-0.6-12.8-1.4-19.1c-0.5-3.3-3.6-5.7-6.9-5.3c-3.3,0.5-5.8,3.5-5.4,6.8&#10;&#9;c0.8,5.9,1.1,11.8,1.3,17.8c0,0.6,0.2,1.2,0.4,1.7c-0.2,0.5-0.3,1.1-0.4,1.7c-0.1,64.3-35.7,123.2-92.8,153l6-15.1&#10;&#9;c1.3-3.1-0.2-6.7-3.4-8c-3.1-1.3-6.7,0.2-8,3.4l-10.8,27.1c-20.3,8-41.8,12.2-63.6,12.2c-6,0-11.9-0.3-17.8-0.9&#10;&#9;c-3.4-0.3-6.2,2.2-6.6,5.5c-0.4,3.4,2,6.3,5.3,6.8c6.4,0.6,12.8,1,19.1,1c22.8,0,45.4-4.3,66.7-12.6l30.7,6.2&#10;&#9;c0.4,0.1,0.8,0.1,1.3,0.1c3.1,0,5.7-2.4,6.1-5.5c0.3-3.2-1.8-6.1-4.9-6.7l-14-2.8c60.8-32,98.9-95.1,99-163.8c0-0.6-0.2-1.3-0.4-1.8&#10;&#9;C389.6,202.6,389.7,201.9,389.9,201.4z M366.1,143.4c2.1,5.6,4,11.2,5.5,17c0.9,3.3,4.2,5.2,7.6,4.3c3.3-0.9,5.2-4.2,4.3-7.6&#10;&#9;c-1.6-6.1-3.6-12.3-5.9-18.2c-1.3-3.1-4.8-4.6-7.9-3.4C366.6,136.7,365,140.3,366.1,143.4z M356.1,121.8c1.7,2.9,5.4,4,8.3,2.3&#10;&#9;c3-1.6,4.1-5.3,2.4-8.3c-3.1-5.6-6.4-11-10.1-16.3c-1.3-1.8-3.3-2.9-5.6-2.7c-2.3,0.2-4.2,1.5-5.1,3.5c-0.9,2-0.7,4.4,0.5,6.2&#10;&#9;C350.1,111.5,353.2,116.6,356.1,121.8z M42.8,272.3c1.2-1.7,1.4-3.8,0.7-5.7c-2.1-5.6-4-11.2-5.5-17c-0.9-3.3-4.2-5.2-7.6-4.3&#10;&#9;c-3.3,0.9-5.2,4.2-4.3,7.6c1.6,6.1,3.6,12.3,5.9,18.2c0.9,2.3,3.2,4,5.8,4C39.7,274.9,41.6,273.9,42.8,272.3z M204.8,32.5&#10;&#9;c6,0,11.9,0.3,17.8,0.9c0.2,0,0.5,0,0.6,0c3.3,0,6-2.5,6.2-5.9c0.2-3.3-2.3-6.2-5.5-6.6c-6.3-0.6-12.7-1-19.1-1&#10;&#9;c-22.8,0-45.4,4.3-66.7,12.6l-30.7-6.1c-3.3-0.7-6.6,1.4-7.3,4.8c-0.7,3.3,1.4,6.6,4.8,7.3l14,2.8c-60.8,32-98.9,95-98.9,163.8&#10;&#9;c0,0.6,0.2,1.3,0.4,1.8c-0.2,0.5-0.3,1.2-0.4,1.8c0.1,6.4,0.5,12.7,1.4,19.1c0.4,3.1,3,5.4,6.1,5.4c0.3,0,0.5,0,0.7,0&#10;&#9;c3.3-0.5,5.8-3.5,5.3-6.9c-0.7-5.9-1.1-11.8-1.3-17.8c0-0.6-0.2-1.2-0.4-1.7c0.2-0.5,0.3-1.1,0.4-1.7c0.1-64.3,35.7-123.2,92.8-153&#10;&#9;l-6,15.1c-1.3,3.2,0.3,6.8,3.4,8c3.2,1.3,6.8-0.3,8-3.4l10.8-27.1C161.4,36.7,183,32.5,204.8,32.5z M163.6,372.7&#10;&#9;c-5.8-1.4-11.5-3.2-17.1-5.1c-3.2-1.1-6.7,0.5-7.8,3.8c-1.2,3.2,0.5,6.7,3.6,7.9c6,2.2,12.1,4,18.3,5.5c0.5,0.1,1,0.2,1.4,0.2&#10;&#9;c3.1,0,5.8-2.3,6.1-5.4C168.6,376.3,166.6,373.4,163.6,372.7z M53.4,288c-1.7-2.8-5.3-3.9-8.3-2.3c-2.9,1.6-4,5.3-2.4,8.3&#10;&#9;c3.1,5.6,6.4,11.1,10.1,16.3c1.3,1.8,3.3,2.9,5.6,2.7c2.2-0.2,4.1-1.5,5.1-3.5c0.9-2,0.8-4.4-0.5-6.2&#10;&#9;C59.5,298.4,56.4,293.3,53.4,288z M124.7,358c-5.2-2.8-10.4-5.8-15.4-9.1c-1.8-1.3-4.2-1.4-6.1-0.4c-2,1-3.3,3-3.4,5.1&#10;&#9;c-0.1,2.2,0.9,4.3,2.7,5.5c5.3,3.5,10.8,6.8,16.4,9.7c2,1,4.3,0.9,6.1-0.3c1.9-1.2,3-3.3,2.9-5.5C127.9,360.9,126.6,359,124.7,358z&#10;&#9; M77.8,321.8c-1.4-1.7-3.8-2.4-6-2c-2.2,0.5-4,2.1-4.6,4.2c-0.6,2.2-0.1,4.5,1.4,6.1c4.3,4.7,8.9,9.1,13.6,13.4&#10;&#9;c2.5,2.3,6.4,2,8.7-0.5c2.4-2.5,2.1-6.4-0.4-8.7C86.1,330.3,81.8,326.2,77.8,321.8z" id="el_mZjOvYZxvX"/></g>
<g id="el_uBBAzzn8np">
	<path d="M328.1,143.2v-24.7c0-17-13.8-30.8-30.8-30.8l-184.9,0.1c-17,0-30.8,13.8-30.8,30.8v24.7&#10;&#9;&#9;c0,9.8,4.7,18.9,12.6,24.6c-7.9,5.8-12.5,14.9-12.5,24.7v24.7c0,9.8,4.7,18.9,12.6,24.6c-7.9,5.8-12.5,14.9-12.5,24.7v24.7&#10;&#9;&#9;c0,17,13.8,30.8,30.8,30.8l184.9-0.1c17,0,30.8-13.8,30.8-30.8v-24.7c0-9.8-4.7-18.9-12.6-24.7c7.9-5.8,12.5-14.9,12.5-24.7v-24.7&#10;&#9;&#9;c0-9.8-4.7-18.9-12.6-24.6C323.5,162.1,328.2,152.9,328.1,143.2L328.1,143.2z M315.9,266.5v24.7c0,10.2-8.3,18.5-18.5,18.5&#10;&#9;&#9;l-184.9,0.1c-10.2,0-18.5-8.3-18.5-18.5v-24.7c0-10.2,8.3-18.5,18.5-18.5l184.9-0.1C307.6,248,315.9,256.3,315.9,266.5L315.9,266.5&#10;&#9;&#9;z M315.9,192.5v24.7c0,10.2-8.3,18.5-18.5,18.5l-184.9,0.1c-10.2,0-18.5-8.3-18.5-18.5v-24.7c0-10.2,8.3-18.5,18.5-18.5l184.9-0.1&#10;&#9;&#9;C307.6,174,315.9,182.3,315.9,192.5L315.9,192.5z M315.9,143.2c0,10.2-8.3,18.5-18.5,18.5l-184.9,0.1c-10.2,0-18.5-8.3-18.5-18.5&#10;&#9;&#9;v-24.7c0-10.2,8.3-18.5,18.5-18.5l184.9-0.1c10.2,0,18.5,8.3,18.5,18.5V143.2z" id="el_xoJCdlut6a"/>
	<path d="M278.8,124.7h-12.4c-3.4,0-6.1,2.8-6.1,6.1c0,3.4,2.8,6.1,6.1,6.1h12.4c3.4,0,6.1-2.8,6.1-6.1&#10;&#9;&#9;C285,127.4,282.3,124.7,278.8,124.7L278.8,124.7z" id="el_SzcdCmCP3j"/>
	<path d="M241.9,124.8h-12.4c-3.4,0-6.1,2.8-6.1,6.1c0,3.4,2.8,6.1,6.1,6.1h12.4c3.4,0,6.1-2.8,6.1-6.1&#10;&#9;&#9;C248,127.5,245.2,124.8,241.9,124.8L241.9,124.8z" id="el_Nm-e_3ZfeR"/>
	<path d="M137.1,112.4c-10.2,0-18.5,8.3-18.5,18.5c0,10.2,8.3,18.5,18.5,18.5c10.2,0,18.5-8.3,18.5-18.5&#10;&#9;&#9;C155.6,120.7,147.3,112.4,137.1,112.4L137.1,112.4z M137.1,137.1c-3.4,0-6.1-2.8-6.1-6.1c0-3.4,2.8-6.1,6.1-6.1&#10;&#9;&#9;c3.4,0,6.1,2.8,6.1,6.1C143.2,134.4,140.5,137.1,137.1,137.1L137.1,137.1z" id="el_4bqEdQvAaF"/>
	<path d="M278.9,198.7h-12.4c-3.4,0-6.1,2.8-6.1,6.1c0,3.4,2.8,6.1,6.1,6.1h12.4c3.4,0,6.1-2.8,6.1-6.1&#10;&#9;&#9;C285,201.4,282.3,198.7,278.9,198.7L278.9,198.7z" id="el_1geVoW40nl"/>
	<path d="M241.9,198.7h-12.4c-3.4,0-6.1,2.8-6.1,6.1c0,3.4,2.8,6.1,6.1,6.1h12.4c3.4,0,6.1-2.8,6.1-6.1&#10;&#9;&#9;C248.1,201.4,245.3,198.7,241.9,198.7L241.9,198.7z" id="el_31X5Ev61fB"/>
	<path d="M137.1,186.4c-10.2,0-18.5,8.3-18.5,18.5c0,10.2,8.3,18.5,18.5,18.5c10.2,0,18.5-8.3,18.5-18.5&#10;&#9;&#9;C155.6,194.7,147.3,186.4,137.1,186.4L137.1,186.4z M137.1,211c-3.4,0-6.1-2.8-6.1-6.1c0-3.4,2.8-6.1,6.1-6.1&#10;&#9;&#9;c3.4,0,6.1,2.8,6.1,6.1C143.2,208.3,140.5,211,137.1,211L137.1,211z" id="el_kqnWUyaXsW"/>
	<path d="M278.9,272.7h-12.4c-3.4,0-6.1,2.8-6.1,6.1c0,3.4,2.8,6.1,6.1,6.1h12.4c3.4,0,6.1-2.8,6.1-6.1&#10;&#9;&#9;C285,275.4,282.3,272.7,278.9,272.7L278.9,272.7z" id="el_hCNFD4MWUL"/>
	<path d="M241.9,272.7h-12.4c-3.4,0-6.1,2.8-6.1,6.1c0,3.4,2.8,6.1,6.1,6.1h12.4c3.4,0,6.1-2.8,6.1-6.1&#10;&#9;&#9;C248.1,275.4,245.3,272.7,241.9,272.7L241.9,272.7z" id="el_NoFCwIobUn"/>
	<path d="M137.1,260.3c-10.2,0-18.5,8.3-18.5,18.5s8.3,18.5,18.5,18.5c10.2,0,18.5-8.3,18.5-18.5&#10;&#9;&#9;C155.6,268.6,147.3,260.3,137.1,260.3L137.1,260.3z M137.1,285c-3.4,0-6.1-2.8-6.1-6.1c0-3.4,2.8-6.1,6.1-6.1&#10;&#9;&#9;c3.4,0,6.1,2.8,6.1,6.1C143.2,282.3,140.5,285,137.1,285L137.1,285z" id="el_0NAfGyqBLn"/>
</g>
</svg>