<svg version="1.1" id="el_lgo6-R229" xmlns="http://www.w3.org/2000/svg" xmlns:xlink="http://www.w3.org/1999/xlink" x="0px" y="0px" viewBox="0 0 87 124" style="enable-background:new 0 0 87 124;" xml:space="preserve"><style>@-webkit-keyframes el_X8K5RQwCwK_tp0XWah4F_Animation{0%{-webkit-transform: translate(0px, 0px) translate(0px, 0px) translate(0px, 5px);transform: translate(0px, 0px) translate(0px, 0px) translate(0px, 5px);}50%{-webkit-transform: translate(0px, 0px) translate(0px, 0px) translate(0px, 0px);transform: translate(0px, 0px) translate(0px, 0px) translate(0px, 0px);}100%{-webkit-transform: translate(0px, 0px) translate(0px, 0px) translate(0px, 5px);transform: translate(0px, 0px) translate(0px, 0px) translate(0px, 5px);}}@keyframes el_X8K5RQwCwK_tp0XWah4F_Animation{0%{-webkit-transform: translate(0px, 0px) translate(0px, 0px) translate(0px, 5px);transform: translate(0px, 0px) translate(0px, 0px) translate(0px, 5px);}50%{-webkit-transform: translate(0px, 0px) translate(0px, 0px) translate(0px, 0px);transform: translate(0px, 0px) translate(0px, 0px) translate(0px, 0px);}100%{-webkit-transform: translate(0px, 0px) translate(0px, 0px) translate(0px, 5px);transform: translate(0px, 0px) translate(0px, 0px) translate(0px, 5px);}}#el_lgo6-R229 *{-webkit-animation-duration: 2s;animation-duration: 2s;-webkit-animation-iteration-count: infinite;animation-iteration-count: infinite;-webkit-animation-timing-function: cubic-bezier(0, 0, 1, 1);animation-timing-function: cubic-bezier(0, 0, 1, 1);}#el_ECtjCl8_nS{fill: #28357A;}#el_3UhbSr1vxc{fill: #28357A;}#el_X8K5RQwCwK{fill: #4297D3;}#el_X8K5RQwCwK_tp0XWah4F{-webkit-animation-name: el_X8K5RQwCwK_tp0XWah4F_Animation;animation-name: el_X8K5RQwCwK_tp0XWah4F_Animation;-webkit-transform: translate(0px, 0px) translate(0px, 0px) translate(0px, 5px);transform: translate(0px, 0px) translate(0px, 0px) translate(0px, 5px);}</style>

<path d="M44,76.1c-1-0.1-1.9-0.3-2.6-0.5c-0.7-0.2-1.4-0.4-2.2-0.7l0-4c1.2,0.5,1.8,0.6,3,0.9c1.4,0.3,2.4,0.4,3.4,0.4&#10;&#9;c1.7,0,3-0.5,4.1-1.4c1-0.9,1.5-2.1,1.5-3.5c0-0.9-0.1-1.7-0.4-2.4c-0.3-0.7-0.7-1.2-1.2-1.7c-0.5-0.4-1.7-1.1-3.5-1.9l-2.5-1.2&#10;&#9;c-2.2-1-3.7-2.2-4.5-3.6c-0.9-1.4-1.3-3-1.3-5c0-2,0.6-3.7,1.9-5.2c1.3-1.5,2.5-2.1,4.3-2.6l0-3.6h4.1l0,3.4c2,0,3.5,0.7,4.6,1.3&#10;&#9;l0,4c-0.6-0.4-1.5-0.8-2.6-1.2c-1.2-0.4-2.3-0.6-3.3-0.6c-1.5,0-2.6,0.4-3.5,1.3s-1.3,1.9-1.3,3.2c0,0.8,0.2,1.5,0.5,2.2&#10;&#9;s0.7,1.2,1.3,1.7c0.6,0.5,1.7,1.1,3.3,1.9l2,0.9c2.2,1.1,3.9,2.3,4.9,3.9c1,1.5,1.6,3.5,1.6,5.8c0,2-0.7,3.7-2.1,5.1&#10;&#9;c-1.4,1.5-2.9,2.3-5.3,2.7l0,3.7H44L44,76.1z" id="el_ECtjCl8_nS"/>
<path d="M87,67.6c0-8.4-2.9-16.9-8.1-23.9L65.3,25.4c1.1-0.8,1.9-2.1,1.9-3.6v-1.4c0-1.6-0.9-3-2.2-3.8l8.8-8.5L68.7,3&#10;&#9;c-1.7-1.7-4-2.7-6.4-2.7S57.6,1.3,55.9,3l-1.6,1.6c-2-2-4.7-3-7.5-3s-5.5,1.1-7.5,3L37.8,3c-1.7-1.7-4-2.7-6.4-2.7&#10;&#9;C29,0.3,26.7,1.3,25,3l-5.1,5.1l8.7,8.4c-1.4,0.7-2.4,2.2-2.4,3.9v1.4c0,1.5,0.7,2.8,1.9,3.6L14.5,43.6c-5.3,7.1-8.1,15.6-8.1,23.9&#10;&#9;c0,10.7,4.6,19,13.2,24l0,0c2.7,1.5,11.1,5.3,26,5.3c19.9,0,29.6-6.1,31.1-7.1l0,0c0,0,0.1,0,0.1-0.1c0.1,0,0.1-0.1,0.1-0.1l0,0&#10;&#9;C83.5,84.6,87,76.9,87,67.6z M27.8,5.8c1-1,2.2-1.5,3.6-1.5S34,4.9,35,5.8l4.4,4.4l2.7-2.7c1.3-1.3,3-2,4.8-2c1.8,0,3.5,0.7,4.8,2&#10;&#9;l2.7,2.7l4.4-4.4c1-1,2.2-1.5,3.6-1.5s2.6,0.5,3.6,1.5l2.2,2.2l-8.2,8H33.8l-8.2-8L27.8,5.8z M61.6,20h1.3c0.2,0,0.4,0.2,0.4,0.4&#10;&#9;v1.4c0,0.2-0.2,0.4-0.4,0.4H30.5c-0.2,0-0.4-0.2-0.4-0.4v-1.4c0-0.2,0.2-0.4,0.4-0.4h1.6H61.6z M20.8,87.7L20.8,87.7&#10;&#9;c-6.9-4.3-10.4-11.1-10.4-20.1c0-7.5,2.6-15.1,7.3-21.5l14.7-19.8H61L75.7,46c4.7,6.4,7.3,14,7.3,21.5c0,8.2-2.9,14.6-8.7,18.9&#10;&#9;c-0.9,0.6-10,6.4-28.8,6.4C28.8,92.9,20.8,87.7,20.8,87.7z" id="el_3UhbSr1vxc"/>
<g id="el_X8K5RQwCwK_tp0XWah4F" data-animator-group="true" data-animator-type="0"><path d="M85.1,90.7c-1.4-1.8-4.7-4.5-11.1-2.8c-0.8,0.2-1.5,0.5-2,0.7l-15.1,6.4c-0.2-0.1-0.4-0.3-0.6-0.4&#10;&#9;c-2.4-1.4-5.4-1.4-8.1-0.1c-5.9,2.9-11.1,0.9-11.9,0.6c-2.3-1.4-4.6-2.6-6.9-3.6C19.8,87.7,9,89,0.4,95.1l2.3,3.3&#10;&#9;c7.4-5.2,17-6.4,25.1-3.1c2.1,0.9,4.3,2,6.4,3.3l0.2,0.1c0.3,0.1,7.4,3.3,15.4-0.6c1.5-0.7,3.1-0.7,4.4,0c0.5,0.3,0.9,0.6,1.2,1&#10;&#9;l-3.4,2.3c-3.9,2.7-8.5,4.1-13.2,4.1h-5.3v4h5.3c5.5,0,10.9-1.6,15.4-4.7l3.9-2.7c1.3-0.9,1.8-2.5,1.4-3.9l14-6&#10;&#9;c0.4-0.2,0.9-0.4,1.5-0.5c3.3-0.9,5.2-0.2,6.3,0.8L50,109.1c-4.7,2.5-9.9,3.6-15,3.3c-21.2-1.2-33.2,1.1-33.8,1.2l0.8,3.9&#10;&#9;c0.1,0,12.2-2.3,32.8-1.1c5.9,0.3,11.8-1,17.1-3.8l32.2-17c0.9-0.5,1.5-1.3,1.7-2.2C85.9,92.5,85.7,91.5,85.1,90.7z" id="el_X8K5RQwCwK"/></g>
</svg>