<svg version="1.1" id="el_P9xGy9KSvC" xmlns="http://www.w3.org/2000/svg" xmlns:xlink="http://www.w3.org/1999/xlink" x="0px" y="0px" viewBox="0 0 410 411" style="enable-background:new 0 0 410 411;" xml:space="preserve"><style>@-webkit-keyframes el_bKrSXW-MHC_Animation{0%{opacity: 0;}50%{opacity: 1;}100%{opacity: 0;}}@keyframes el_bKrSXW-MHC_Animation{0%{opacity: 0;}50%{opacity: 1;}100%{opacity: 0;}}@-webkit-keyframes el_majtTZVO4X_Animation{0%{opacity: 1;}50%{opacity: 0;}100%{opacity: 1;}}@keyframes el_majtTZVO4X_Animation{0%{opacity: 1;}50%{opacity: 0;}100%{opacity: 1;}}@-webkit-keyframes el_3TQHvIcsNM_Animation{0%{opacity: 1;}50%{opacity: 0;}100%{opacity: 1;}}@keyframes el_3TQHvIcsNM_Animation{0%{opacity: 1;}50%{opacity: 0;}100%{opacity: 1;}}@-webkit-keyframes el__3pzYUJIWW_Animation{0%{opacity: 0;}50%{opacity: 1;}100%{opacity: 0;}}@keyframes el__3pzYUJIWW_Animation{0%{opacity: 0;}50%{opacity: 1;}100%{opacity: 0;}}#el_P9xGy9KSvC *{-webkit-animation-duration: 2s;animation-duration: 2s;-webkit-animation-iteration-count: infinite;animation-iteration-count: infinite;-webkit-animation-timing-function: cubic-bezier(0, 0, 1, 1);animation-timing-function: cubic-bezier(0, 0, 1, 1);}#el_majtTZVO4X{fill: #029EF5;-webkit-animation-name: el_majtTZVO4X_Animation;animation-name: el_majtTZVO4X_Animation;}#el_bKrSXW-MHC{fill: #029EF5;-webkit-animation-name: el_bKrSXW-MHC_Animation;animation-name: el_bKrSXW-MHC_Animation;}#el__63OhkTDLa{fill: #132B7E;}#el__3pzYUJIWW{fill: #029EF5;-webkit-animation-name: el__3pzYUJIWW_Animation;animation-name: el__3pzYUJIWW_Animation;opacity: 0;}#el_3TQHvIcsNM{fill: #029EF5;-webkit-animation-name: el_3TQHvIcsNM_Animation;animation-name: el_3TQHvIcsNM_Animation;}</style>

<path d="M88.8,177.8c0-3.7,3-6.8,6.8-6.8h54.6c3.7,0,6.8,3,6.8,6.8c0,3.7-3,6.8-6.8,6.8H95.6&#10;&#9;C91.8,184.6,88.7,181.6,88.8,177.8z M150.2,198.4H95.6c-3.8,0-6.8,3.1-6.8,6.8c-0.1,3.7,3,6.8,6.8,6.8h54.6c3.8,0,6.8-3.1,6.8-6.8&#10;&#9;C157,201.4,153.9,198.4,150.2,198.4z M150.2,225.6H95.6c-3.8,0-6.8,3.1-6.8,6.8c0,3.8,3.1,6.8,6.8,6.8h54.6c3.8,0,6.8-3.1,6.8-6.8&#10;&#9;C157,228.7,154,225.6,150.2,225.6z M150.2,280.2c0,15.1-12.2,27.3-27.3,27.3c-15.1,0-27.3-12.2-27.3-27.3&#10;&#9;c0-15.1,12.2-27.3,27.3-27.3C138,252.9,150.2,265.1,150.2,280.2z M136.6,280.2c0-7.6-6.2-13.7-13.7-13.7c-7.6,0-13.7,6.2-13.7,13.7&#10;&#9;c0,7.6,6.2,13.7,13.7,13.7S136.5,287.8,136.6,280.2z" id="el_majtTZVO4X"/>
<path d="M252.6,177.8c0-3.7,3-6.8,6.8-6.8H314c3.8,0,6.9,3.1,6.8,6.8c0,3.7-3,6.8-6.8,6.8h-54.6&#10;&#9;C255.7,184.6,252.6,181.6,252.6,177.8z M314,198.3h-54.6c-3.8,0-6.8,3.1-6.8,6.8c0,3.8,3.1,6.8,6.8,6.8H314c3.8,0,6.8-3.1,6.8-6.8&#10;&#9;C320.9,201.4,317.8,198.3,314,198.3z M314,225.6h-54.6c-3.8,0-6.8,3.1-6.8,6.8c0,3.8,3.1,6.8,6.8,6.8H314c3.8,0,6.8-3.1,6.8-6.8&#10;&#9;C320.9,228.7,317.8,225.6,314,225.6z M314,280.2c0,15.1-12.2,27.3-27.3,27.3s-27.3-12.2-27.3-27.3c0-15.1,12.2-27.3,27.3-27.3&#10;&#9;S314,265.1,314,280.2z M300.4,280.2c0-7.6-6.2-13.7-13.7-13.7c-7.6,0-13.7,6.2-13.7,13.7c0,7.6,6.2,13.7,13.7,13.7&#10;&#9;C294.3,293.9,300.4,287.8,300.4,280.2z" id="el_bKrSXW-MHC"/>
<path d="M409.6,382.6c0,3.7-3,6.8-6.8,6.8h-20.5c-3.7,0-6.8-3-6.8-6.8c0-3.7,3-6.8,6.8-6.8h20.5&#10;&#9;C406.5,375.8,409.6,378.9,409.6,382.6z M361.8,382.6c0,3.7-3,6.8-6.8,6.8h-42.1c-3,12.1-13.9,20.5-26.3,20.5&#10;&#9;c-12.4,0-23.2-8.5-26.3-20.5H149.1c-3,12.1-13.9,20.5-26.3,20.5c-12.4,0-23.2-8.5-26.3-20.5H6.8c-3.7,0-6.8-3-6.8-6.8&#10;&#9;c0-3.7,3-6.8,6.8-6.8h89.7c2.5-9.5,9.9-17,19.5-19.5v-21.5H88.7c-15.1,0-27.3-12.2-27.3-27.3v-43.6C26.1,254.7,1.1,223.3,0,186.8&#10;&#9;c-0.2-31.9,18.2-61.1,47-74.8c11-5.9,23.2-9.1,35.7-9.3C89,49.5,130.9,7.5,184.2,1.2C237.4-5.2,288,25.6,306.8,75.8h0.1&#10;&#9;c47.3-3.7,90.1,28,100.5,74.3c10.3,46.3-14.9,93.2-59.2,110.1v47.4c0,15.1-12.2,27.3-27.3,27.3h-27.3v21.4c9.5,2.5,17,9.9,19.5,19.5&#10;&#9;H355C358.8,375.8,361.8,378.8,361.8,382.6z M334.5,171c0-7.6-6.2-13.7-13.7-13.7h-68.3c-7.6,0-13.7,6.2-13.7,13.7v136.5&#10;&#9;c0,7.6,6.2,13.7,13.7,13.7h68.3c7.6,0,13.7-6.2,13.7-13.7V171z M88.7,143.7h68.2c15.1,0,27.3,12.2,27.3,27.3v81.9h41V171&#10;&#9;c0-15.1,12.2-27.3,27.3-27.3h68.3c15.1,0,27.3,12.2,27.3,27.3v74.5c33.6-15.4,52.7-51.3,46.8-87.7c-6.5-42.1-44.6-72.1-87.1-68.4&#10;&#9;c-1.6,0.1-3.3,0.3-4.9,0.5c-3.3,0.4-6.4-1.5-7.4-4.7c-15-47-61.4-76.6-110.3-70.4c-48.9,6.1-86.5,46.3-89.4,95.5&#10;&#9;c-0.2,1.9-1,3.6-2.4,4.8c-1.4,1.2-3.3,1.8-5.1,1.6c-12.2-1.2-24.5,1.4-35.2,7.6c-24.1,11.3-39.5,35.6-39.5,62.2&#10;&#9;c0.9,29.1,20.1,54.4,47.8,63.2V171C61.4,155.9,73.7,143.7,88.7,143.7z M157,321.2c7.6,0,13.7-6.2,13.7-13.7V171&#10;&#9;c0-7.6-6.2-13.7-13.7-13.7H88.7c-7.6,0-13.7,6.2-13.7,13.7v136.5c0,7.6,6.2,13.7,13.7,13.7H157z M136.6,382.6&#10;&#9;c0-7.6-6.2-13.7-13.7-13.7c-7.6,0-13.7,6.2-13.7,13.7c0,7.6,6.2,13.7,13.7,13.7S136.5,390.2,136.6,382.6z M279.9,356.3v-21.4h-27.3&#10;&#9;c-15.1,0-27.3-12.2-27.3-27.3v-41h-41v41c0,15.1-12.2,27.3-27.3,27.3h-27.3v21.4c9.5,2.5,17,9.9,19.5,19.5h111.2&#10;&#9;C262.9,366.2,270.3,358.8,279.9,356.3z M300.4,382.6c0-7.6-6.2-13.7-13.7-13.7c-7.6,0-13.7,6.2-13.7,13.7c0,7.6,6.2,13.7,13.7,13.7&#10;&#9;C294.3,396.3,300.4,390.2,300.4,382.6z" id="el__63OhkTDLa"/>
<path d="M133.1,382.6c0-5.7-4.6-10.2-10.2-10.2c-5.7,0-10.2,4.6-10.2,10.2c0,5.7,4.6,10.2,10.2,10.2&#10;&#9;S133,388.3,133.1,382.6z" id="el__3pzYUJIWW"/>
<circle cx="286.7" cy="382.6" r="10.2" id="el_3TQHvIcsNM"/>
</svg>