<svg version="1.1" id="el_ZBkisJkhb" xmlns="http://www.w3.org/2000/svg" xmlns:xlink="http://www.w3.org/1999/xlink" x="0px" y="0px" viewBox="0 0 434 390" style="enable-background:new 0 0 434.8 390.7;" xml:space="preserve"><style>@-webkit-keyframes el__6cBU7nt4cq_Animation{0%{opacity: 1;}50%{opacity: 0;}100%{opacity: 1;}}@keyframes el__6cBU7nt4cq_Animation{0%{opacity: 1;}50%{opacity: 0;}100%{opacity: 1;}}#el_ZBkisJkhb *{-webkit-animation-duration: 2s;animation-duration: 2s;-webkit-animation-iteration-count: infinite;animation-iteration-count: infinite;-webkit-animation-timing-function: cubic-bezier(0, 0, 1, 1);animation-timing-function: cubic-bezier(0, 0, 1, 1);}#el_UPwCK_S60i{fill: url(#SVGID_1_);}#el_AKJF7dGhjh{fill: none;stroke: url(#SVGID_2_);stroke-width: 4;stroke-miterlimit: 10;}#el_aPAi1qQItV{opacity: 0.8;fill: url(#SVGID_3_);enable-background: new;}#el__OR5XlxaKC{fill: none;stroke: url(#SVGID_4_);stroke-width: 4;stroke-miterlimit: 10;}#el_-Ni9WR8h04{fill: #42E5E0;}#el_iT7ibTyb0n{fill: #0F0A4C;}#el_Bwzet0Jt5k{opacity: 0.8;fill: #50EBE5;enable-background: new;}#el_WKf6ZCqQQr{fill: #408AAF;}#el_zuk3toBxYJ{fill: url(#SVGID_5_);}#el_3epAuJzqFa{fill: url(#SVGID_6_);}#el_eVsw1Q70aM{fill: url(#SVGID_7_);}#el_GNfDIeC81N{fill: url(#SVGID_8_);}#el_uQ1mVQAcF_{fill: url(#SVGID_9_);}#el_bwyAa8p3eZJ{fill: url(#SVGID_10_);}#el_kaIxJOZmek3{fill: url(#SVGID_11_);}#el_femyUDU4oxd{opacity: 0.8;fill: #50EBE5;enable-background: new;}#el_mPpulHMGpMr{fill: #4EEEE6;}#el_gz3bkZUpCfM{fill: url(#SVGID_12_);}#el_yDDxIqRIqJt{opacity: 0.8;fill: #46B7C7;enable-background: new;}#el_n3nsOIGJ4R0{opacity: 0.8;fill: #50EBE5;enable-background: new;}#el_qT9zbsck1eC{opacity: 0.8;fill: #4CE5E2;enable-background: new;}#el_Qqo4Syk9AIj{opacity: 0.7;fill: #4EEEE6;enable-background: new;}#el_Mp3iN1Ey3Ln{fill: #4CD3D9;}#el_ZF939Q7ndEx{fill: url(#SVGID_13_);}#el_d6yQYZ5kWVL{opacity: 0.9;fill: #45BFCA;enable-background: new;}#el_j9gJosH2GHI{opacity: 0.7;fill: #4EEEE6;enable-background: new;}#el_Xkb9aE4VXrf{fill: url(#SVGID_14_);}#el_zkTgCGwbCNX{fill: url(#SVGID_15_);}#el_3Wk50p14Qae{opacity: 0.8;fill: #45BFCA;enable-background: new;}#el__GIuJBu64xN{opacity: 0.7;fill: #4EEEE6;enable-background: new;}#el_duaXIWN9v8s{opacity: 0.3;fill: #43E4DF;enable-background: new;}#el_LJM1ougky1p{fill: #42E5E0;}#el_Z3Es7f_cNC_{fill: url(#SVGID_16_);}#el_QG6Dz-J2rAx{fill: #42E5E0;}#el_GLb7MQC3nYk{fill: url(#SVGID_17_);}#el_oqRKkepWM_q{opacity: 0.5;fill: url(#SVGID_18_);enable-background: new;}#el_Iq7e1G2c-it{fill: #42E5E0;}#el_atOqMO4rPNZ{fill: url(#SVGID_19_);}#el_MCbBrY9X9bp{fill: #42E5E0;}#el_WjVL2PXDZ6J{fill: url(#SVGID_20_);}#el__6cBU7nt4cq{fill: url(#SVGID_21_);-webkit-animation-name: el__6cBU7nt4cq_Animation;animation-name: el__6cBU7nt4cq_Animation;opacity: 1;}#el_gUkWFUBDNeH{opacity: 0.8;fill: #46B7C7;enable-background: new;}</style>

<g id="el_PTsyKsr3pU">
	
		<linearGradient id="SVGID_1_" gradientUnits="userSpaceOnUse" x1="217.175" y1="623.4778" x2="217.175" y2="475.4925" gradientTransform="matrix(1 0 0 1 0 -235.222)">
		<stop offset="0" style="stop-color:#132B7E;stop-opacity:0"/>
		<stop offset="1" style="stop-color:#132B7E"/>
	</linearGradient>
	<path d="M434.3,252.6c-0.4,1.5-1.5,2.9-3.4,4l-205.2,120c-4.7,2.8-12.5,2.8-17.3,0L3.3,256.6c-1.9-1.1-3-2.5-3.4-4&#10;&#9;&#9;h-0.1v138.1h434.7V252.6H434.3z" id="el_UPwCK_S60i"/>
	
		<linearGradient id="SVGID_2_" gradientUnits="userSpaceOnUse" x1="237.825" y1="374.322" x2="237.825" y2="374.322" gradientTransform="matrix(1 0 0 1 0 -235.222)">
		<stop offset="0" style="stop-color:#40E5DF;stop-opacity:0"/>
		<stop offset="1" style="stop-color:#42E7E1"/>
	</linearGradient>
	<path d="M237.8,139.1" id="el_AKJF7dGhjh"/>
	
		<radialGradient id="SVGID_3_" cx="-3.4781" cy="327.3009" r="9.372" gradientTransform="matrix(2.4074 0 0 1.2963 359.7981 -255.9801)" gradientUnits="userSpaceOnUse">
		<stop offset="0" style="stop-color:#42E7E1"/>
		<stop offset="0.7821" style="stop-color:#41E6E0;stop-opacity:0.2"/>
		<stop offset="1" style="stop-color:#40E5DF;stop-opacity:0"/>
	</radialGradient>
	<ellipse cx="351.4" cy="168.3" rx="22.6" ry="12.2" id="el_aPAi1qQItV"/>
	
		<linearGradient id="SVGID_4_" gradientUnits="userSpaceOnUse" x1="279.7314" y1="424.972" x2="352.8186" y2="424.972" gradientTransform="matrix(1 0 0 1 0 -235.222)">
		<stop offset="0" style="stop-color:#40E5DF;stop-opacity:0"/>
		<stop offset="1" style="stop-color:#42E7E1"/>
	</linearGradient>
	<line x1="351.8" y1="169.4" x2="280.7" y2="210.1" id="el__OR5XlxaKC"/>
	<circle cx="353.6" cy="169" r="5.5" id="el_-Ni9WR8h04"/>
	<g id="el_zONnpu0waO">
		<path d="M3.3,257.7c-4.7-2.8-4.7-7.3,0-10.1l205.2-120c4.7-2.8,12.5-2.8,17.3,0l205.2,120c4.7,2.8,4.7,7.3,0,10.1&#10;&#9;&#9;&#9;l-205.2,120c-4.7,2.8-12.5,2.8-17.3,0L3.3,257.7z" id="el_iT7ibTyb0n"/>
	</g>
	<polygon points="217.1,246.3 54.3,153.6 54.3,253.4 217.1,346.1 &#9;" id="el_Bwzet0Jt5k"/>
	<polygon points="379.9,253.4 217.1,346.1 217.1,246.3 379.9,153.6 &#9;" id="el_WKf6ZCqQQr"/>
	
		<linearGradient id="SVGID_5_" gradientUnits="userSpaceOnUse" x1="144.9226" y1="415.9383" x2="218.9083" y2="490.4172" gradientTransform="matrix(1 0 0 1 0 -235.222)">
		<stop offset="0" style="stop-color:#49B1CE"/>
		<stop offset="1" style="stop-color:#4795C6"/>
	</linearGradient>
	<polygon points="217.1,346.1 54.3,253.4 217.1,160.7 379.9,253.4 &#9;" id="el_zuk3toBxYJ"/>
	
		<linearGradient id="SVGID_6_" gradientUnits="userSpaceOnUse" x1="54.325" y1="541.672" x2="217.125" y2="541.672" gradientTransform="matrix(1 0 0 1 0 -235.222)">
		<stop offset="0" style="stop-color:#378CB3"/>
		<stop offset="1" style="stop-color:#312B8F"/>
	</linearGradient>
	<polygon points="217.1,359.5 54.3,266.8 54.3,253.4 217.1,346.1 &#9;" id="el_3epAuJzqFa"/>
	
		<linearGradient id="SVGID_7_" gradientUnits="userSpaceOnUse" x1="54.325" y1="428.472" x2="217.125" y2="428.472" gradientTransform="matrix(1 0 0 1 0 -235.222)">
		<stop offset="0" style="stop-color:#3584AD"/>
		<stop offset="1" style="stop-color:#302B91"/>
	</linearGradient>
	<polygon points="217.1,246.3 54.3,153.6 54.3,140.2 217.1,232.9 &#9;" id="el_eVsw1Q70aM"/>
	
		<linearGradient id="SVGID_8_" gradientUnits="userSpaceOnUse" x1="217.125" y1="428.472" x2="379.925" y2="428.472" gradientTransform="matrix(1 0 0 1 0 -235.222)">
		<stop offset="0" style="stop-color:#251D73"/>
		<stop offset="1" style="stop-color:#180D5B"/>
	</linearGradient>
	<polygon points="379.9,140.2 217.1,232.9 217.1,246.3 379.9,153.6 &#9;" id="el_GNfDIeC81N"/>
	
		<linearGradient id="SVGID_9_" gradientUnits="userSpaceOnUse" x1="217.125" y1="541.672" x2="379.925" y2="541.672" gradientTransform="matrix(1 0 0 1 0 -235.222)">
		<stop offset="0" style="stop-color:#251B71"/>
		<stop offset="1" style="stop-color:#1B105F"/>
	</linearGradient>
	<polygon points="379.9,253.4 217.1,346.1 217.1,359.5 379.9,266.8 &#9;" id="el_uQ1mVQAcF_"/>
	
		<linearGradient id="SVGID_10_" gradientUnits="userSpaceOnUse" x1="144.9236" y1="302.7392" x2="218.9093" y2="377.2182" gradientTransform="matrix(1 0 0 1 0 -235.222)">
		<stop offset="0" style="stop-color:#3274A6"/>
		<stop offset="1" style="stop-color:#312A91"/>
	</linearGradient>
	<polygon points="217.1,232.9 54.3,140.2 217.1,47.5 379.9,140.2 &#9;" id="el_bwyAa8p3eZJ"/>
	
		<linearGradient id="SVGID_11_" gradientUnits="userSpaceOnUse" x1="54.325" y1="375.472" x2="147.825" y2="375.472" gradientTransform="matrix(1 0 0 1 0 -235.222)">
		<stop offset="0.2" style="stop-color:#4FECE5"/>
		<stop offset="1" style="stop-color:#3260A0"/>
	</linearGradient>
	<polygon points="55.1,140.2 147.8,87 54.3,140.2 147.8,193.5 &#9;" id="el_kaIxJOZmek3"/>
	<polygon points="154.2,226 136.5,215.9 73.6,253.3 136.5,289.2 154.2,279.1 &#9;" id="el_femyUDU4oxd"/>
	<polygon points="231.3,253.7 297.8,289.1 360.7,253.3 296.1,216.8 &#9;" id="el_mPpulHMGpMr"/>
	
		<linearGradient id="SVGID_12_" gradientUnits="userSpaceOnUse" x1="73.625" y1="452.522" x2="217.125" y2="452.522" gradientTransform="matrix(1 0 0 1 0 -235.222)">
		<stop offset="0" style="stop-color:#42E7E1"/>
		<stop offset="1" style="stop-color:#40E5DF;stop-opacity:0"/>
	</linearGradient>
	<polygon points="73.6,180 217.1,261.8 217.1,246.3 88.2,172.8 &#9;" id="el_gz3bkZUpCfM"/>
	<polygon points="297.8,215.9 297.8,289.1 360.7,253.3 360.7,180 &#9;" id="el_yDDxIqRIqJt"/>
	<polygon points="217.1,335 154.2,299 217.1,263 280,299 &#9;" id="el_n3nsOIGJ4R0"/>
	<polygon points="154.2,226 154.2,299.2 217.1,335 217.1,261.8 &#9;" id="el_qT9zbsck1eC"/>
	<polygon points="73.6,180 73.6,253.3 136.5,289.1 136.5,215.9 &#9;" id="el_Qqo4Syk9AIj"/>
	<polygon points="73.6,164.5 73.6,180 88.2,172.8 88.2,172.8 &#9;" id="el_Mp3iN1Ey3Ln"/>
	
		<linearGradient id="SVGID_13_" gradientUnits="userSpaceOnUse" x1="154.225" y1="475.122" x2="280.025" y2="475.122" gradientTransform="matrix(1 0 0 1 0 -235.222)">
		<stop offset="0" style="stop-color:#42E7E0;stop-opacity:0"/>
		<stop offset="0.5" style="stop-color:#42E7E1"/>
		<stop offset="1" style="stop-color:#40E5DF;stop-opacity:0"/>
	</linearGradient>
	<polygon points="217.1,246.3 167.8,218 154.2,225.8 217.1,261.8 280,225.8 266.4,218 &#9;" id="el_ZF939Q7ndEx"/>
	<polygon points="217.1,246.3 217.1,252.2 280,288.1 280,226 266.3,218.1 &#9;" id="el_d6yQYZ5kWVL"/>
	<polygon points="217.1,246.3 231.2,253.8 280,226 280,279.7 297.8,289.1 297.8,200.3 &#9;" id="el_j9gJosH2GHI"/>
	
		<linearGradient id="SVGID_14_" gradientUnits="userSpaceOnUse" x1="154.225" y1="475.122" x2="280.025" y2="475.122" gradientTransform="matrix(1 0 0 1 0 -235.222)">
		<stop offset="0" style="stop-color:#42E7E0;stop-opacity:0"/>
		<stop offset="0.5" style="stop-color:#42E7E1"/>
		<stop offset="1" style="stop-color:#40E5DF;stop-opacity:0"/>
	</linearGradient>
	<polygon points="217.1,246.3 167.8,218 154.2,225.8 217.1,261.8 280,225.8 266.4,218 &#9;" id="el_Xkb9aE4VXrf"/>
	
		<linearGradient id="SVGID_15_" gradientUnits="userSpaceOnUse" x1="217.125" y1="452.522" x2="360.725" y2="452.522" gradientTransform="matrix(1 0 0 1 0 -235.222)">
		<stop offset="0" style="stop-color:#42E7E0;stop-opacity:0"/>
		<stop offset="0.4333" style="stop-color:#42E7E1"/>
		<stop offset="1" style="stop-color:#42E7E1;stop-opacity:0.85"/>
	</linearGradient>
	<polygon points="360.7,180 217.1,261.8 217.1,246.3 346.1,172.8 &#9;" id="el_zkTgCGwbCNX"/>
	<polygon points="217.1,261.8 217.1,335 280,299.2 280,226 &#9;" id="el_3Wk50p14Qae"/>
	<polygon points="297.8,217.7 297.8,289.1 360.7,253.3 &#9;" id="el__GIuJBu64xN"/>
	<polygon points="217.1,204.4 104.7,140.4 217.1,76.3 329.6,140.4 &#9;" id="el_duaXIWN9v8s"/>
	<polygon points="134.3,133.9 154.8,145.6 163.9,140.4 134.3,123.5 104.7,140.4 113.8,145.6 &#9;" id="el_LJM1ougky1p"/>
	
		<linearGradient id="SVGID_16_" gradientUnits="userSpaceOnUse" x1="138.875" y1="392.1849" x2="138.875" y2="369.3721" gradientTransform="matrix(1 0 0 1 0 -235.222)">
		<stop offset="0" style="stop-color:#42E7E1;stop-opacity:0.75"/>
		<stop offset="1" style="stop-color:#40E5DF;stop-opacity:0"/>
	</linearGradient>
	<polygon points="154.8,145.6 134.3,133.9 113.8,145.6 134.3,157.2 163.9,140.4 &#9;" id="el_Z3Es7f_cNC_"/>
	<polygon points="300,133.9 320.5,145.6 329.6,140.4 300,123.5 270.4,140.4 279.5,145.6 &#9;" id="el_QG6Dz-J2rAx"/>
	
		<linearGradient id="SVGID_17_" gradientUnits="userSpaceOnUse" x1="304.575" y1="392.1849" x2="304.575" y2="369.3721" gradientTransform="matrix(1 0 0 1 0 -235.222)">
		<stop offset="0" style="stop-color:#42E7E1;stop-opacity:0.75"/>
		<stop offset="1" style="stop-color:#40E5DF;stop-opacity:0"/>
	</linearGradient>
	<polygon points="320.5,145.6 300,133.9 279.5,145.6 300,157.2 329.6,140.4 &#9;" id="el_GLb7MQC3nYk"/>
	
		<linearGradient id="SVGID_18_" gradientUnits="userSpaceOnUse" x1="203.9861" y1="315.1954" x2="217.44" y2="328.739" gradientTransform="matrix(1 0 0 1 0 -235.222)">
		<stop offset="0" style="stop-color:#3274A6"/>
		<stop offset="1" style="stop-color:#312A91"/>
	</linearGradient>
	<polygon points="217.1,86.7 237.6,98.4 246.7,93.2 217.1,76.3 187.5,93.2 196.6,98.4 &#9;" id="el_oqRKkepWM_q"/>
	<polygon points="217.1,86.7 237.6,98.4 246.7,93.2 217.1,76.3 187.5,93.2 196.6,98.4 &#9;" id="el_Iq7e1G2c-it"/>
	
		<linearGradient id="SVGID_19_" gradientUnits="userSpaceOnUse" x1="221.675" y1="344.9932" x2="221.675" y2="322.1804" gradientTransform="matrix(1 0 0 1 0 -235.222)">
		<stop offset="0" style="stop-color:#42E7E1;stop-opacity:0.75"/>
		<stop offset="1" style="stop-color:#40E5DF;stop-opacity:0"/>
	</linearGradient>
	<polygon points="237.6,98.4 217.1,86.7 196.6,98.4 217.1,110.1 246.7,93.2 &#9;" id="el_atOqMO4rPNZ"/>
	<polygon points="217.1,181.1 237.6,192.8 246.7,187.6 217.1,170.7 187.5,187.6 196.6,192.8 &#9;" id="el_MCbBrY9X9bp"/>
	
		<linearGradient id="SVGID_20_" gradientUnits="userSpaceOnUse" x1="221.675" y1="439.3766" x2="221.675" y2="416.5638" gradientTransform="matrix(1 0 0 1 0 -235.222)">
		<stop offset="0" style="stop-color:#42E7E1;stop-opacity:0.75"/>
		<stop offset="1" style="stop-color:#40E5DF;stop-opacity:0"/>
	</linearGradient>
	<polygon points="237.6,192.8 217.1,181.1 196.6,192.8 217.1,204.4 246.7,187.6 &#9;" id="el_WjVL2PXDZ6J"/>
	
		<linearGradient id="SVGID_21_" gradientUnits="userSpaceOnUse" x1="217.175" y1="195.4829" x2="217.175" y2="360.6611" gradientTransform="matrix(1 0 0 -1 0 391.9)">
		<stop offset="0" style="stop-color:#42E7E1;stop-opacity:0.5"/>
		<stop offset="1" style="stop-color:#40E5DF;stop-opacity:0"/>
	</linearGradient>
	<path d="M104.7,27.2h59.2v113.2l-29.6,16.8l-29.6-16.8C104.7,140.4,104.7,27.2,104.7,27.2z M270.4,27.2v113.2&#10;&#9;&#9;l29.6,16.8l29.6-16.8V27.2H270.4z M187.5,187.6l29.6,16.8l29.6-16.8V0h-59.2L187.5,187.6L187.5,187.6z" id="el__6cBU7nt4cq"/>
	<polygon points="346.1,172.8 346.1,172.8 360.7,180 360.7,164.5 &#9;" id="el_gUkWFUBDNeH"/>
</g>
</svg>