<!-- Generated by IcoMoon.io -->
<svg version="1.1" xmlns="http://www.w3.org/2000/svg" width="32" height="32" viewBox="0 0 32 32">
<title>add</title>
<path fill="#5e686b" d="M14.137 31.719c-6.344 0-11.5-5.156-11.5-11.5s5.156-11.5 11.5-11.5c0.206 0 0.369 0.169 0.369 0.369 0 0.206-0.169 0.369-0.369 0.369-5.931 0-10.756 4.825-10.756 10.756s4.825 10.756 10.756 10.756 10.756-4.825 10.756-10.756c0-0.206 0.169-0.369 0.369-0.369 0.206 0 0.369 0.169 0.369 0.369 0.006 6.35-5.15 11.506-11.494 11.506z"></path>
<path fill="#5e686b" d="M15.994 26.156h-3.713c-0.206 0-0.369-0.169-0.369-0.369v-3.337h-3.338c-0.206 0-0.369-0.169-0.369-0.369v-3.712c0-0.206 0.169-0.369 0.369-0.369h3.338v-3.338c0-0.206 0.169-0.369 0.369-0.369h3.713c0.206 0 0.369 0.169 0.369 0.369v3.338h3.337c0.206 0 0.369 0.169 0.369 0.369v3.712c0 0.206-0.169 0.369-0.369 0.369h-3.337v3.337c0 0.2-0.163 0.369-0.369 0.369zM12.656 25.413h2.969v-3.337c0-0.206 0.169-0.369 0.369-0.369h3.338v-2.969h-3.338c-0.206 0-0.369-0.169-0.369-0.369v-3.338h-2.969v3.338c0 0.206-0.169 0.369-0.369 0.369h-3.338v2.969h3.338c0.206 0 0.369 0.169 0.369 0.369v3.337z"></path>
<path id="svg-ico" fill="#ee5586" d="M24.894 15.025h-2.969c-0.206 0-0.369-0.169-0.369-0.369v-2.594h-2.594c-0.206 0-0.369-0.169-0.369-0.369v-2.969c0-0.206 0.169-0.369 0.369-0.369h2.594v-2.606c0-0.206 0.169-0.369 0.369-0.369h2.969c0.206 0 0.369 0.169 0.369 0.369v2.594h2.594c0.206 0 0.369 0.169 0.369 0.369v2.975c0 0.206-0.169 0.369-0.369 0.369h-2.594v2.594c0.006 0.213-0.163 0.375-0.369 0.375zM22.3 14.281h2.225v-2.594c0-0.206 0.169-0.369 0.369-0.369h2.594v-2.225h-2.594c-0.206 0-0.369-0.169-0.369-0.369v-2.6h-2.225v2.594c0 0.206-0.169 0.369-0.369 0.369h-2.594v2.225h2.594c0.206 0 0.369 0.169 0.369 0.369v2.6z"></path>
<path id="svg-ico" fill="#ee5586" d="M18.219 6.125h-2.225c-0.206 0-0.369-0.169-0.369-0.369v-1.119h-1.113c-0.206 0-0.369-0.169-0.369-0.369v-2.225c0-0.206 0.169-0.369 0.369-0.369h1.113v-1.119c0-0.206 0.169-0.369 0.369-0.369h2.225c0.206 0 0.369 0.169 0.369 0.369v1.113h1.113c0.206 0 0.369 0.169 0.369 0.369v2.225c0 0.206-0.169 0.369-0.369 0.369h-1.113v1.119c0.006 0.206-0.163 0.375-0.369 0.375zM16.363 5.381h1.481v-1.112c0-0.206 0.169-0.369 0.369-0.369h1.113v-1.488h-1.113c-0.206 0-0.369-0.169-0.369-0.369v-1.113h-1.481v1.113c0 0.206-0.169 0.369-0.369 0.369h-1.113v1.481h1.113c0.206 0 0.369 0.169 0.369 0.369v1.119z"></path>
</svg>
