<!-- Generated by IcoMoon.io -->
<svg version="1.1" xmlns="http://www.w3.org/2000/svg" width="32" height="32" viewBox="0 0 32 32">
<title>aid</title>
<path fill="#5e686b" d="M27.956 5.537h-23.413c-0.813 0-1.475 0.669-1.475 1.487v23.331c0 0.819 0.663 1.481 1.475 1.481h23.413c0.813 0 1.475-0.663 1.475-1.481v-23.337c0.006-0.819-0.656-1.481-1.475-1.481zM28.431 30.35c0 0.262-0.212 0.481-0.475 0.481h-23.413c-0.263 0-0.475-0.212-0.475-0.481v-23.331c0-0.269 0.213-0.481 0.475-0.481v0h23.413c0.262 0 0.475 0.219 0.475 0.481v23.331z"></path>
<path id="svg-ico" fill="#ee5586" d="M23.206 15.481h-3.594v-3.594c0-0.275-0.225-0.5-0.5-0.5h-5.725c-0.275 0-0.5 0.225-0.5 0.5v3.594h-3.594c-0.275 0-0.5 0.225-0.5 0.5v5.731c0 0.275 0.225 0.5 0.5 0.5h3.594v3.6c0 0.275 0.225 0.5 0.5 0.5h5.725c0.275 0 0.5-0.225 0.5-0.5v-3.594h3.594c0.275 0 0.5-0.225 0.5-0.5v-5.731c0-0.281-0.219-0.506-0.5-0.506zM22.706 21.212h-3.594c-0.275 0-0.5 0.225-0.5 0.5v3.594h-4.725v-3.594c0-0.275-0.225-0.5-0.5-0.5h-3.594v-4.731h3.594c0.275 0 0.5-0.225 0.5-0.5v-3.594h4.725v3.594c0 0.275 0.225 0.5 0.5 0.5h3.594v4.731z"></path>
<path fill="#5e686b" d="M23.762 1.375h-15.025c-0.275 0-0.5-0.225-0.5-0.5s0.225-0.5 0.5-0.5h15.025c0.275 0 0.5 0.225 0.5 0.5 0.006 0.275-0.219 0.5-0.5 0.5z"></path>
</svg>
