<!-- Generated by IcoMoon.io -->
<svg version="1.1" xmlns="http://www.w3.org/2000/svg" width="32" height="32" viewBox="0 0 32 32">
<title>alarm</title>
<path id="svg-ico" fill="#ee5586" d="M16.419 17.394c0-0.006 0-0.012 0.006-0.019 0-0.006 0-0.019 0.006-0.025 0-0.006 0-0.006 0-0.012 0-0.012 0-0.019 0-0.031 0 0 0-0.006 0-0.006v-11.356c0-0.237-0.194-0.431-0.431-0.431s-0.431 0.194-0.431 0.431v10.725l-9.256-3.556c-0.225-0.081-0.469 0.025-0.556 0.244s0.025 0.469 0.244 0.556l9.838 3.781c0.006 0 0.006 0 0.012 0.006 0.006 0 0.012 0.006 0.019 0.006s0.012 0 0.019 0.006c0.006 0 0.012 0.006 0.025 0.006 0.006 0 0.012 0 0.019 0s0.012 0 0.019 0 0.025 0 0.044 0c0.019 0 0.038 0 0.056-0.006 0.006 0 0.006 0 0.012 0 0.038-0.006 0.075-0.019 0.113-0.038 0 0 0.006 0 0.006 0 0.038-0.019 0.069-0.038 0.1-0.069 0 0 0.006-0.006 0.006-0.006 0.012-0.012 0.025-0.025 0.038-0.044 0 0 0 0 0.006-0.006 0.012-0.012 0.019-0.031 0.031-0.044 0 0 0.006-0.006 0.006-0.006 0.012-0.019 0.019-0.038 0.025-0.056 0 0 0 0 0-0.006s0-0.006 0.006-0.012c0-0.006 0.006-0.012 0.006-0.025 0.006 0.006 0.006 0 0.012-0.006z"></path>
<path fill="#5e686b" d="M24.913 28.256c3.356-2.644 5.512-6.744 5.512-11.337 0-7.956-6.475-14.425-14.425-14.425-7.956 0-14.425 6.475-14.425 14.425 0 4.594 2.156 8.694 5.513 11.337l-2.763 2.762c-0.169 0.169-0.169 0.438 0 0.606 0.081 0.081 0.194 0.125 0.3 0.125 0.112 0 0.219-0.044 0.3-0.125l2.856-2.856c2.331 1.625 5.169 2.575 8.219 2.575s5.881-0.956 8.219-2.575l2.856 2.856c0.081 0.081 0.194 0.125 0.3 0.125 0.113 0 0.219-0.044 0.3-0.125 0.169-0.169 0.169-0.438 0-0.606l-2.762-2.762zM8.019 27.887c-0.019-0.019-0.044-0.038-0.069-0.050-3.35-2.475-5.525-6.45-5.525-10.919 0.006-7.481 6.094-13.569 13.575-13.569s13.569 6.088 13.569 13.569c0 4.463-2.163 8.425-5.494 10.9-0.044 0.019-0.081 0.050-0.119 0.081 0 0-0.006 0.006-0.006 0.006-2.238 1.619-4.981 2.581-7.95 2.581-2.981 0-5.738-0.969-7.981-2.6z"></path>
<path id="svg-ico" fill="#ee5586" d="M13.431 1.075h5.144c0.238 0 0.431-0.194 0.431-0.431s-0.194-0.431-0.431-0.431h-5.144c-0.238 0-0.431 0.194-0.431 0.431s0.194 0.431 0.431 0.431z"></path>
</svg>
