<!-- Generated by IcoMoon.io -->
<svg version="1.1" xmlns="http://www.w3.org/2000/svg" width="32" height="32" viewBox="0 0 32 32">
<title>alert</title>
<path fill="#5e686b" d="M27.1 30.356v0h-22.075c-1.894-0.006-3.425-0.781-4.206-2.131-0.819-1.419-0.713-3.244 0.3-5l11.125-19.169c1-1.719 2.356-2.663 3.819-2.663s2.819 0.944 3.819 2.663l11.125 19.188c1.006 1.756 1.119 3.569 0.3 4.988-0.775 1.35-2.306 2.125-4.206 2.125zM16.063 2.244c-1.15 0-2.244 0.794-3.081 2.237l-11.125 19.163c-0.856 1.488-0.963 3-0.3 4.15 0.625 1.081 1.887 1.706 3.469 1.706h22.075c1.581 0 2.85-0.625 3.475-1.7 0.663-1.144 0.55-2.65-0.3-4.131l-11.125-19.188c-0.844-1.444-1.938-2.237-3.087-2.237z"></path>
<path id="svg-ico" fill="#ee5586" d="M16.063 19.475c-0.238 0-0.425-0.188-0.425-0.425v-9.069c0-0.238 0.194-0.425 0.425-0.425 0.238 0 0.425 0.194 0.425 0.425v9.069c0 0.231-0.188 0.425-0.425 0.425z"></path>
<path id="svg-ico" fill="#ee5586" d="M16.006 25.712c-1.175 0-2.131-0.956-2.131-2.131s0.956-2.131 2.131-2.131c1.175 0 2.131 0.956 2.131 2.131s-0.956 2.131-2.131 2.131zM16.006 22.306c-0.706 0-1.281 0.575-1.281 1.275 0 0.706 0.575 1.281 1.281 1.281s1.281-0.575 1.281-1.281c-0.006-0.706-0.575-1.275-1.281-1.275z"></path>
</svg>
