<!-- Generated by IcoMoon.io -->
<svg version="1.1" xmlns="http://www.w3.org/2000/svg" width="32" height="32" viewBox="0 0 32 32">
<title>apple</title>
<path id="svg-ico" fill="#ee5586" d="M15.975 8.181v0c-0.119 0-0.244-0.006-0.363-0.012-0.2-0.012-0.363-0.169-0.387-0.362-0.281-1.975 0.775-3.925 1.856-5.094 1.269-1.381 3.387-2.394 5.15-2.456 0.256-0.038 0.413 0.156 0.438 0.375 0.206 1.756-0.475 3.706-1.819 5.225-1.281 1.431-3.15 2.325-4.875 2.325zM21.85 1.137c-1.45 0.181-3.137 1.044-4.15 2.15-0.844 0.912-1.744 2.475-1.669 4.044 1.456-0.019 3.094-0.819 4.181-2.038 1.075-1.225 1.675-2.75 1.637-4.156z"></path>
<path fill="#5e686c" d="M10.825 31.756c-2.225 0-3.838-1.919-5.425-4.050-3.163-4.262-4.981-11.287-2.106-15.925 1.519-2.456 4.263-4.006 7.169-4.044 0 0 0.088 0 0.088 0 1.25 0 2.425 0.431 3.456 0.813 0.725 0.269 1.406 0.519 1.894 0.519 0.431 0 1.075-0.238 1.825-0.512 1.256-0.463 2.863-1.044 4.519-0.894 1.212 0.050 4.306 0.462 6.325 3.206 0.069 0.094 0.1 0.219 0.075 0.338s-0.094 0.219-0.2 0.281c-0.819 0.469-3.387 2.206-3.35 5.469 0.044 4.256 3.975 5.744 4.137 5.8 0.106 0.038 0.194 0.119 0.244 0.219s0.056 0.219 0.012 0.325c-0.25 0.731-0.95 2.575-2.337 4.469-1.344 1.825-2.863 3.894-5.375 3.938h-0.106c-1.106 0-1.869-0.306-2.606-0.606-0.781-0.319-1.525-0.613-2.731-0.613-1.269 0-2.044 0.306-2.869 0.637-0.725 0.288-1.469 0.587-2.513 0.625l-0.125 0.006zM10.55 8.588c-2.694 0.037-5.169 1.431-6.531 3.638-2.675 4.319-0.931 10.938 2.063 14.969 1.456 1.956 2.912 3.706 4.744 3.706h0.1c0.894-0.031 1.544-0.288 2.231-0.563 0.819-0.325 1.75-0.694 3.181-0.694 1.375 0 2.262 0.363 3.050 0.675 0.725 0.294 1.35 0.544 2.288 0.544h0.094c2.094-0.031 3.481-1.925 4.706-3.587 1.137-1.55 1.788-3.063 2.094-3.875-1.125-0.525-4.275-2.369-4.313-6.431-0.038-3.281 2.212-5.194 3.356-5.95-1.794-2.125-4.356-2.456-5.412-2.5-0.181-0.019-0.344-0.025-0.506-0.025-1.306 0-2.556 0.463-3.663 0.869-0.825 0.3-1.538 0.563-2.119 0.563-0.637 0-1.356-0.262-2.188-0.575-0.981-0.356-2.075-0.762-3.175-0.762z"></path>
</svg>
