<!-- Generated by IcoMoon.io -->
<svg version="1.1" xmlns="http://www.w3.org/2000/svg" width="32" height="32" viewBox="0 0 32 32">
<title>award</title>
<path id="svg-ico" fill="#ee5586" d="M16.319 31.569c-4.137 0-7.5-3.363-7.5-7.5 0-4.131 3.363-7.5 7.5-7.5 4.131 0 7.494 3.363 7.494 7.5 0.006 4.137-3.356 7.5-7.494 7.5zM16.319 17.413c-3.675 0-6.662 2.988-6.662 6.663s2.987 6.663 6.662 6.663c3.675 0 6.663-2.988 6.663-6.663s-2.988-6.663-6.663-6.663z"></path>
<path fill="#5e686c" d="M13.287 24.494c-0.231 0-0.419-0.188-0.419-0.419 0-1.9 1.55-3.45 3.45-3.45 0.231 0 0.419 0.188 0.419 0.419s-0.188 0.419-0.419 0.419c-1.444 0-2.619 1.175-2.619 2.619 0.006 0.225-0.181 0.413-0.412 0.413z"></path>
<path fill="#5e686c" d="M17.331 13.375c-0.175 0-0.337-0.113-0.394-0.287-0.075-0.219 0.044-0.456 0.262-0.525l8.75-2.919-0.938-4.694-0.012-3.706h-17.356v3.625l-0.95 4.775 8.75 2.919c0.219 0.075 0.338 0.306 0.262 0.525s-0.306 0.338-0.525 0.262l-9.1-3.031c-0.2-0.069-0.319-0.269-0.275-0.475l1.013-5.050-0.006-3.962c0-0.231 0.188-0.419 0.419-0.419h18.194c0.231 0 0.419 0.188 0.419 0.419v4.044l1 4.969c0.044 0.206-0.075 0.412-0.275 0.475l-9.094 3.031c-0.056 0.019-0.1 0.025-0.144 0.025z"></path>
<path fill="#5e686c" d="M13.287 8.381c-0.231 0-0.419-0.188-0.419-0.419v-4.162c0-0.231 0.188-0.419 0.419-0.419s0.419 0.188 0.419 0.419v4.162c0 0.231-0.188 0.419-0.419 0.419z"></path>
<path fill="#5e686c" d="M19.35 8.381c-0.231 0-0.419-0.188-0.419-0.419v-4.162c0-0.231 0.188-0.419 0.419-0.419s0.419 0.188 0.419 0.419v4.162c0 0.231-0.188 0.419-0.419 0.419z"></path>
</svg>
