<!-- Generated by IcoMoon.io -->
<svg version="1.1" xmlns="http://www.w3.org/2000/svg" width="32" height="32" viewBox="0 0 32 32">
<title>ballon</title>
<path fill="#5e686c" d="M16.131 0.431c-9.194 0-13.656 2.987-13.656 9.15 0 7.094 12.881 15.3 13.425 15.644 0 0 0 0 0 0 0.012 0.006 0.019 0.012 0.031 0.019 0.006 0.006 0.012 0.006 0.019 0.012 0.006 0 0.006 0.006 0.012 0.006s0.012 0.006 0.019 0.006c0.006 0 0.019 0.006 0.025 0.006s0.006 0 0.012 0 0.012 0 0.012 0 0.012 0 0.019 0.006c0.025 0.006 0.044 0.006 0.069 0.006s0.050 0 0.069-0.006c0.006 0 0.012 0 0.019-0.006 0.006 0 0.012 0 0.012-0.006 0.006 0 0.012 0 0.012 0 0.006 0 0.019-0.006 0.025-0.006s0.012-0.006 0.012-0.006c0.006 0 0.012-0.006 0.012-0.006 0.006-0.006 0.012-0.006 0.019-0.012 0.012-0.006 0.025-0.012 0.031-0.019 0 0 0 0 0 0 0.55-0.344 13.425-8.55 13.425-15.644 0.031-6.156-4.438-9.144-13.625-9.144zM20.113 9.581c0 5.55-2.919 12.119-3.981 14.319-1.063-2.2-3.981-8.769-3.981-14.319 0-7.431 2.275-8.294 3.981-8.294s3.981 0.856 3.981 8.294zM11.294 9.581c0 4.856 2.075 10.3 3.4 13.269-2.656-2.762-7.438-8.419-7.438-13.269 0-4.706 1.95-7.319 6.094-8.069-1.381 1.369-2.056 4.037-2.056 8.069zM20.969 9.581c0-4.025-0.675-6.7-2.056-8.069 4.144 0.744 6.1 3.362 6.1 8.069 0 4.844-4.788 10.5-7.438 13.262 1.313-2.969 3.394-8.412 3.394-13.262zM3.331 9.581c0-4.037 2.075-6.537 6.438-7.638-2.263 1.462-3.375 4-3.375 7.638 0 4.306 3.381 9.044 6.106 12.162-3.844-2.994-9.169-7.906-9.169-12.162zM19.762 21.738c2.719-3.113 6.1-7.85 6.1-12.156 0-3.638-1.113-6.175-3.375-7.638 4.363 1.1 6.438 3.6 6.438 7.638 0 4.25-5.319 9.162-9.163 12.156z"></path>
<path id="svg-ico" fill="#ee5586" d="M18.581 26.881h-4.9c-0.238 0-0.431 0.194-0.431 0.431v2.938c0 0.8 0.606 1.406 1.406 1.406h2.938c0.8 0 1.406-0.606 1.406-1.406v-2.938c0.006-0.238-0.188-0.431-0.419-0.431zM18.15 30.25c0 0.325-0.225 0.55-0.55 0.55h-2.938c-0.325 0-0.55-0.225-0.55-0.55v-2.512h4.044l-0.006 2.512z"></path>
</svg>
