<!-- Generated by IcoMoon.io -->
<svg version="1.1" xmlns="http://www.w3.org/2000/svg" width="32" height="32" viewBox="0 0 32 32">
<title>bell</title>
<path id="svg-ico" fill="#ee5586" d="M10.144 24.875c-0.106 0-0.213-0.038-0.294-0.119-0.169-0.163-0.175-0.431-0.012-0.6l2.694-2.788c0.162-0.169 0.431-0.175 0.6-0.012s0.175 0.431 0.012 0.6l-2.694 2.794c-0.081 0.087-0.194 0.125-0.306 0.125z"></path>
<path fill="#5e686c" d="M26.306 5.938c-0.075 0-0.15-0.019-0.219-0.063-0.2-0.119-0.269-0.381-0.144-0.581 0.506-0.85 0.625-1.706 0.344-2.475-0.269-0.731-0.887-1.325-1.65-1.587-0.681-0.231-1.406-0.181-2.050 0.131-0.644 0.319-1.125 0.863-1.356 1.544-0.025 0.081-0.050 0.163-0.069 0.244-0.050 0.231-0.281 0.375-0.512 0.319-0.231-0.050-0.375-0.281-0.319-0.513 0.025-0.106 0.056-0.219 0.094-0.325 0.625-1.844 2.637-2.831 4.481-2.206 1.006 0.344 1.819 1.125 2.175 2.1 0.262 0.712 0.4 1.85-0.413 3.206-0.081 0.138-0.219 0.206-0.363 0.206z"></path>
<path fill="#5e686c" d="M27.387 30.6c-0.206 0-0.387-0.15-0.419-0.363-0.044-0.294-1.056-7.231 0.738-12.5 1.056-3.1 1.331-5.756 0.819-7.9-0.663-2.769-2.681-4.744-5.994-5.869-5.863-1.994-10.069 0.612-12.5 7.756-1.8 5.269-6.831 10.144-7.044 10.35-0.169 0.163-0.438 0.156-0.6-0.012s-0.156-0.438 0.013-0.6c0.050-0.050 5.1-4.944 6.825-10.012 2.575-7.569 7.275-10.438 13.581-8.287 3.606 1.225 5.813 3.406 6.55 6.481 0.55 2.3 0.269 5.119-0.837 8.375-1.725 5.075-0.712 12.031-0.7 12.1 0.038 0.231-0.125 0.45-0.356 0.481-0.031 0-0.050 0-0.075 0z"></path>
<path id="svg-ico" fill="#ee5586" d="M25.15 14.906c-0.231 0-0.419-0.181-0.425-0.412-0.069-2.175-0.931-3.881-2.569-5.069-0.188-0.137-0.231-0.406-0.094-0.594s0.406-0.231 0.594-0.094c1.863 1.356 2.844 3.281 2.925 5.731 0.006 0.238-0.175 0.431-0.413 0.438-0.012 0-0.019 0-0.019 0z"></path>
<path fill="#5e686c" d="M24.050 31.75c-0.344 0-0.712-0.012-1.1-0.038-2.581-0.169-5.838-0.887-9.169-2.025-1.394-0.475-2.744-1-4-1.563-0.213-0.094-0.313-0.35-0.213-0.563 0.094-0.212 0.35-0.313 0.563-0.212 1.238 0.55 2.563 1.069 3.931 1.538 3.262 1.113 6.444 1.813 8.95 1.981 2.669 0.175 3.806-0.313 3.981-0.825s-0.431-1.594-2.65-3.081c-2.087-1.4-5.038-2.781-8.306-3.894-3.262-1.113-6.444-1.813-8.95-1.981-2.669-0.181-3.806 0.306-3.981 0.819-0.175 0.525 0.45 1.625 2.744 3.144 0.194 0.131 0.25 0.394 0.119 0.587s-0.394 0.25-0.588 0.119c-1.669-1.106-3.556-2.719-3.075-4.125 0.375-1.1 2.050-1.581 4.844-1.4 2.581 0.169 5.837 0.887 9.169 2.025s6.35 2.55 8.5 3.994c2.331 1.556 3.363 2.962 2.988 4.063-0.337 0.95-1.619 1.438-3.756 1.438z"></path>
<path id="svg-ico" fill="#ee5586" d="M8.094 28.956c-0.325 0-0.65-0.056-0.963-0.156-1.556-0.531-2.388-2.225-1.862-3.781 0.412-1.206 1.544-2.019 2.825-2.019 0.325 0 0.65 0.056 0.956 0.156 0.756 0.256 1.363 0.794 1.713 1.506s0.406 1.525 0.144 2.281c-0.4 1.2-1.537 2.012-2.813 2.012zM8.094 23.844c-0.912 0-1.725 0.581-2.019 1.444-0.375 1.113 0.219 2.325 1.331 2.7 1.094 0.369 2.331-0.244 2.7-1.325 0.181-0.538 0.144-1.119-0.106-1.625-0.25-0.512-0.688-0.894-1.225-1.075-0.219-0.081-0.45-0.119-0.681-0.119z"></path>
</svg>
