<!-- Generated by IcoMoon.io -->
<svg version="1.1" xmlns="http://www.w3.org/2000/svg" width="32" height="32" viewBox="0 0 32 32">
<title>blog</title>
<path fill="#5e686c" d="M21.175 31.563h-10.119c-0.019 0-0.037 0-0.056-0.006-5.888-0.063-10.488-4.669-10.488-10.506v-10.069c0-5.769 4.725-10.494 10.544-10.531h4.425c0.025-0.006 0.056-0.006 0.075-0.006 5.644 0.037 10.081 4.344 10.375 10.031 0.012 0.044 0.025 0.088 0.025 0.137 0 0.031 0 0.056-0.006 0.088 0.137 0.381 0.569 1.137 1.738 1.137h1.387c1.363 0 2.563 1.125 2.563 2.412v6.806c0 6.031-5.45 10.356-10.369 10.5-0.038 0-0.069 0.006-0.094 0.006zM11.106 30.712h9.988c0.019-0.006 0.044-0.006 0.069-0.006 4.55-0.094 9.619-4.081 9.619-9.656v-6.8c0-0.806-0.831-1.569-1.719-1.569h-1.387c-1.769 0-2.494-1.319-2.625-2.019-0.019-0.081-0.006-0.169 0.025-0.244-0.313-5.162-4.338-9.063-9.456-9.131-0.025 0.006-0.044 0.006-0.069 0.006h-4.494c-5.438 0.038-9.7 4.294-9.7 9.688v10.069c0 5.387 4.263 9.625 9.706 9.663 0.012 0 0.025 0 0.044 0z"></path>
<path id="svg-ico" fill="#ee5586" d="M22.688 22.038h-14.287c-0.231 0-0.425-0.188-0.425-0.425 0-0.231 0.188-0.425 0.425-0.425h14.287c0.231 0 0.425 0.188 0.425 0.425-0.006 0.231-0.194 0.425-0.425 0.425z"></path>
<path id="svg-ico" fill="#ee5586" d="M17.95 12.681h-9.55c-0.231 0-0.425-0.188-0.425-0.425s0.187-0.425 0.425-0.425h9.55c0.231 0 0.425 0.188 0.425 0.425s-0.188 0.425-0.425 0.425z"></path>
</svg>
