<!-- Generated by IcoMoon.io -->
<svg version="1.1" xmlns="http://www.w3.org/2000/svg" width="32" height="32" viewBox="0 0 32 32">
<title>book</title>
<path fill="#5e686c" d="M15.088 30.075c-0.219 0-0.444-0.050-0.669-0.144-0.519-0.238-1.981-0.844-2.706-0.919-1.019-0.1-2.494-0.156-4.394-0.156-2.638 0-5.181 0.1-5.206 0.106 0 0 0 0 0 0-1.137 0-1.969-0.837-1.969-1.913v-23.15c0-1.081 0.875-1.962 1.956-1.962h12.363c1.081 0 1.956 0.881 1.956 1.962v24.694c0 0.875-0.55 1.481-1.331 1.481zM7.319 28.025c1.925 0 3.431 0.056 4.475 0.156 1.012 0.1 2.881 0.944 2.956 0.981 0.113 0.044 0.225 0.069 0.331 0.069 0.444 0 0.494-0.444 0.494-0.637v-24.694c0-0.619-0.5-1.125-1.119-1.125h-12.356c-0.619 0-1.119 0.506-1.119 1.125v23.15c0 0.6 0.469 1.075 1.063 1.075 0.063 0 2.625-0.1 5.275-0.1z"></path>
<path id="svg-ico" fill="#ee5586" d="M16.906 30.069c-0.269 0-0.512-0.069-0.725-0.212-0.381-0.256-0.6-0.712-0.6-1.262h0.838c0 0.262 0.081 0.462 0.231 0.563s0.363 0.094 0.606-0.006c0.063-0.031 1.931-0.875 2.944-0.975 3.156-0.319 9.444-0.063 9.713-0.056 0.288 0.012 0.569-0.094 0.775-0.294s0.325-0.481 0.325-0.775v-23.15c0-0.619-0.5-1.125-1.119-1.125h-12.356c-0.619 0-1.119 0.506-1.119 1.125h-0.838c0-1.081 0.875-1.962 1.956-1.962h12.363c1.081 0 1.956 0.881 1.956 1.962v23.15c0 0.531-0.206 1.019-0.581 1.381-0.375 0.356-0.869 0.55-1.387 0.531-0.069 0-6.5-0.256-9.6 0.050-0.725 0.075-2.194 0.681-2.694 0.913-0.238 0.1-0.469 0.144-0.688 0.144z"></path>
</svg>
