<!-- Generated by IcoMoon.io -->
<svg version="1.1" xmlns="http://www.w3.org/2000/svg" width="32" height="32" viewBox="0 0 32 32">
<title>brush</title>
<path id="svg-ico" fill="#ee5586" d="M16.35 31.75c-1.806 0-2.969-1.369-2.969-3.494 0-0.413 0.075-0.825 0.225-1.225 0.006-0.031 0.019-0.063 0.031-0.094l0.094-0.206c0.206-0.462 0.762-1.681 0.762-4.3 0-1.525-1.781-1.6-2.138-1.6h-4.925c-1.006 0-1.825-0.819-1.825-1.825v-17.056c0-1.006 0.819-1.825 1.825-1.825h17.831c1.006 0 1.825 0.819 1.825 1.825v17.056c0 1.006-0.819 1.825-1.825 1.825h-4.544c-1.8 0-2.456 0.956-2.456 1.6 0 2.925 0.462 3.788 0.681 4.206 0.044 0.075 0.075 0.144 0.1 0.2h-0.006c0.063 0.069 0.106 0.163 0.113 0.269 0.131 0.375 0.2 0.762 0.2 1.15 0 2.087-1.206 3.494-3 3.494zM14.438 27.25c-0.006 0.012-0.006 0.025-0.012 0.038-0.125 0.319-0.194 0.65-0.194 0.975 0 1.275 0.556 2.637 2.119 2.637 1.581 0 2.15-1.363 2.15-2.637 0-0.325-0.063-0.65-0.194-0.975-0.006-0.012-0.012-0.025-0.012-0.038-0.006-0.006-0.006-0.012-0.006-0.012-0.044-0.094-0.069-0.144-0.094-0.194-0.256-0.475-0.781-1.469-0.781-4.606 0-0.988 0.881-2.45 3.306-2.45h4.544c0.538 0 0.969-0.438 0.969-0.975v-17.063c0-0.538-0.438-0.969-0.969-0.969h-17.831c-0.537 0-0.969 0.438-0.969 0.969v17.056c0 0.538 0.438 0.975 0.969 0.975h4.894c0 0 0 0 0 0 1.144 0 3.019 0.519 3.019 2.45 0 2.8-0.606 4.144-0.838 4.65l-0.044 0.094c0.006 0-0.012 0.044-0.025 0.075z"></path>
<path fill="#5e686c" d="M26.663 16.863h-20.625c-0.237 0-0.425-0.194-0.425-0.425s0.194-0.425 0.425-0.425h20.631c0.238 0 0.425 0.194 0.425 0.425s-0.194 0.425-0.431 0.425z"></path>
<path fill="#5e686c" d="M26.663 11.956h-20.625c-0.237 0-0.425-0.194-0.425-0.425s0.194-0.425 0.425-0.425h20.631c0.238 0 0.425 0.194 0.425 0.425s-0.194 0.425-0.431 0.425z"></path>
</svg>
