<!-- Generated by IcoMoon.io -->
<svg version="1.1" xmlns="http://www.w3.org/2000/svg" width="32" height="32" viewBox="0 0 32 32">
<title>bubble</title>
<path fill="#5e686c" d="M16 0.163c-8.156 0-14.787 6.631-14.787 14.787 0 4.813 2.331 9.3 6.25 12.075l-1.444 4.325c-0.056 0.163-0.006 0.344 0.125 0.462 0.081 0.069 0.181 0.106 0.281 0.106 0.063 0 0.131-0.012 0.194-0.044l5.362-2.681c1.3 0.369 2.65 0.55 4.012 0.55 8.156 0 14.788-6.631 14.788-14.787 0.006-8.162-6.625-14.794-14.781-14.794zM16 28.881c-1.344 0-2.662-0.188-3.938-0.563-0.106-0.031-0.219-0.019-0.313 0.025l-4.588 2.294 1.213-3.644c0.063-0.181-0.006-0.381-0.169-0.494-3.844-2.6-6.138-6.913-6.138-11.55 0-7.681 6.25-13.931 13.931-13.931s13.931 6.25 13.931 13.931c0 7.681-6.25 13.931-13.931 13.931z"></path>
<path id="svg-ico" fill="#ee5586" d="M9.506 14.063c-1.513 0-2.744 1.231-2.744 2.744s1.231 2.744 2.744 2.744c1.512 0 2.744-1.231 2.744-2.744s-1.231-2.744-2.744-2.744zM9.506 18.7c-1.044 0-1.888-0.85-1.888-1.887s0.844-1.887 1.888-1.887c1.044 0 1.887 0.844 1.887 1.887 0 1.038-0.85 1.887-1.887 1.887z"></path>
<path id="svg-ico" fill="#ee5586" d="M21.519 9.088c0-1.513-1.231-2.744-2.744-2.744s-2.75 1.231-2.75 2.744c0 1.512 1.231 2.744 2.75 2.744 1.512 0 2.744-1.231 2.744-2.744zM16.887 9.088c0-1.044 0.85-1.888 1.887-1.888 1.044 0 1.887 0.844 1.887 1.888s-0.844 1.887-1.887 1.887c-1.044 0-1.887-0.85-1.887-1.887z"></path>
<path id="svg-ico" fill="#ee5586" d="M20.319 17.156c-1.512 0-2.744 1.231-2.744 2.744s1.231 2.75 2.744 2.75c1.512 0 2.744-1.231 2.744-2.75 0-1.512-1.231-2.744-2.744-2.744zM20.319 21.788c-1.044 0-1.887-0.85-1.887-1.887 0-1.044 0.844-1.887 1.887-1.887s1.887 0.844 1.887 1.887c0 1.038-0.85 1.887-1.887 1.887z"></path>
</svg>
