<!-- Generated by IcoMoon.io -->
<svg version="1.1" xmlns="http://www.w3.org/2000/svg" width="32" height="32" viewBox="0 0 32 32">
<title>builder</title>
<path id="svg-ico" fill="#ee5586" d="M24.606 8.6v0c-0.387 0-0.794-0.088-1.206-0.262-0.688-0.287-1.2-0.781-1.456-1.394-0.256-0.619-0.244-1.331 0.044-2.013 0.15-0.362 0.413-0.694 0.694-1.044 0.681-0.862 1.331-1.675 0.488-2.956-0.094-0.144-0.094-0.338 0.006-0.475 0.1-0.144 0.275-0.212 0.444-0.169 2.894 0.7 3.938 3.269 3.688 5.362-0.2 1.763-1.288 2.95-2.7 2.95zM24.337 1.438c0.356 1.288-0.406 2.244-0.988 2.981-0.244 0.306-0.469 0.594-0.575 0.844-0.2 0.481-0.219 0.95-0.044 1.356 0.169 0.412 0.519 0.737 1.006 0.938 0.306 0.131 0.6 0.194 0.875 0.194v0c1.181 0 1.744-1.188 1.863-2.206 0.175-1.487-0.444-3.269-2.137-4.106z"></path>
<path id="svg-ico" fill="#ee5586" d="M19.669 14.431c-0.069 0-0.137-0.019-0.206-0.056-0.206-0.113-0.281-0.375-0.163-0.575l3.494-6.281c0.113-0.206 0.375-0.275 0.575-0.162 0.206 0.112 0.281 0.375 0.163 0.575l-3.494 6.281c-0.075 0.144-0.225 0.219-0.369 0.219z"></path>
<path id="svg-ico" fill="#ee5586" d="M22.344 14.431c-0.050 0-0.1-0.006-0.15-0.025-0.219-0.081-0.331-0.325-0.25-0.55l2.2-5.819c0.081-0.219 0.325-0.331 0.55-0.25 0.219 0.081 0.331 0.325 0.25 0.55l-2.2 5.819c-0.063 0.175-0.225 0.275-0.4 0.275z"></path>
<path fill="#5e686c" d="M25.025 25.15h-1.337c-0.238 0-0.425-0.188-0.425-0.425s0.188-0.425 0.425-0.425h1.337c1.981 0 3.594-1.613 3.594-3.594s-1.613-3.594-3.594-3.594h-1.337c-0.238 0-0.425-0.188-0.425-0.425s0.188-0.425 0.425-0.425h1.337c2.45 0 4.444 1.994 4.444 4.444s-1.994 4.444-4.444 4.444z"></path>
<path fill="#5e686c" d="M21.006 31.85h-12.056c-1.713 0-3.106-1.394-3.106-3.1v-14.744c0-0.238 0.188-0.425 0.425-0.425h17.419c0.238 0 0.425 0.188 0.425 0.425v14.737c0 1.712-1.394 3.106-3.106 3.106zM6.694 14.431v14.312c0 1.244 1.013 2.256 2.256 2.256h12.056c1.244 0 2.256-1.012 2.256-2.256v-14.313h-16.569z"></path>
<path fill="#5e686c" d="M11.644 14.431c-0.006 0-0.012 0-0.019 0h-4.019c-0.162 0-0.306-0.094-0.381-0.238l-2.013-4.019c-0.019-0.037-0.031-0.081-0.037-0.119l-0.662-4.019c-0.025-0.162 0.044-0.325 0.181-0.419s0.313-0.1 0.456-0.013l3.35 2.013c0.063 0.037 0.119 0.094 0.15 0.156l3.3 5.938c0.075 0.075 0.119 0.181 0.119 0.294 0 0.238-0.188 0.425-0.425 0.425zM7.869 13.588h3.037l-2.944-5.3-2.463-1.481 0.506 3.050 1.862 3.731z"></path>
<path fill="#5e686c" d="M5.6 10.412c-0.131 0-0.256-0.056-0.338-0.169-0.144-0.188-0.1-0.456 0.088-0.594l2.681-2.013c0.188-0.138 0.45-0.106 0.594 0.088 0.144 0.188 0.1 0.456-0.088 0.594l-2.681 2.012c-0.081 0.056-0.169 0.081-0.256 0.081z"></path>
<path fill="#5e686c" d="M18.325 14.431h-5.356c-0.238 0-0.425-0.188-0.425-0.425v-13.394c0-0.237 0.188-0.425 0.425-0.425h5.356c0.238 0 0.425 0.188 0.425 0.425v13.4c0 0.231-0.188 0.419-0.425 0.419zM13.394 13.588h4.512v-12.55h-4.512v12.55z"></path>
<path fill="#5e686c" d="M18.325 3.719h-2.681c-0.238 0-0.425-0.188-0.425-0.425s0.188-0.425 0.425-0.425h2.681c0.238 0 0.425 0.188 0.425 0.425s-0.188 0.425-0.425 0.425z"></path>
<path fill="#5e686c" d="M18.325 6.394h-1.337c-0.238 0-0.425-0.188-0.425-0.425s0.188-0.425 0.425-0.425h1.337c0.238 0 0.425 0.188 0.425 0.425s-0.188 0.425-0.425 0.425z"></path>
<path fill="#5e686c" d="M18.325 9.075h-2.681c-0.238 0-0.425-0.188-0.425-0.425s0.188-0.425 0.425-0.425h2.681c0.238 0 0.425 0.188 0.425 0.425s-0.188 0.425-0.425 0.425z"></path>
<path fill="#5e686c" d="M18.325 11.756h-1.337c-0.238 0-0.425-0.188-0.425-0.425s0.188-0.425 0.425-0.425h1.337c0.238 0 0.425 0.188 0.425 0.425 0 0.231-0.188 0.425-0.425 0.425z"></path>
</svg>
