<!-- Generated by IcoMoon.io -->
<svg version="1.1" xmlns="http://www.w3.org/2000/svg" width="32" height="32" viewBox="0 0 32 32">
<title>card</title>
<path fill="#5e686c" d="M27.519 27.281h-22.919c-2.331 0-4.225-1.894-4.225-4.225v-10.519c0-0.238 0.188-0.425 0.425-0.425h30.519c0.238 0 0.425 0.188 0.425 0.425v10.525c0 2.325-1.9 4.219-4.225 4.219zM1.225 12.956v10.1c0 1.863 1.519 3.381 3.381 3.381h22.913c1.863 0 3.381-1.512 3.381-3.381v-10.1h-29.675z"></path>
<path id="svg-ico" fill="#ee5586" d="M31.319 10.475h-30.519c-0.238 0-0.425-0.188-0.425-0.425v-0.25c0-2.331 1.894-4.231 4.225-4.231h22.913c2.331 0 4.225 1.894 4.225 4.231v0.25c0.006 0.238-0.181 0.425-0.419 0.425zM1.225 9.631h29.663c-0.094-1.781-1.569-3.206-3.375-3.206h-22.913c-1.8 0-3.281 1.419-3.375 3.206z"></path>
<path fill="#5e686c" d="M27.081 19.425h-11.019c-0.238 0-0.425-0.188-0.425-0.425 0-0.231 0.188-0.425 0.425-0.425h11.025c0.238 0 0.425 0.188 0.425 0.425-0.006 0.238-0.194 0.425-0.431 0.425z"></path>
</svg>
