<!-- Generated by IcoMoon.io -->
<svg version="1.1" xmlns="http://www.w3.org/2000/svg" width="32" height="32" viewBox="0 0 32 32">
<title>cartnull</title>
<path fill="#5e686c" d="M6.675 3.5c0-0.231-0.188-0.419-0.419-0.419h-5.475c-0.231 0-0.419 0.188-0.419 0.419s0.188 0.419 0.419 0.419h5.475c0.231 0.006 0.419-0.188 0.419-0.419z"></path>
<path fill="#5e686c" d="M30.95 5.563h-26.063c-0.406 0-0.737 0.331-0.737 0.806l2.194 14.15c-0.019 0.056-0.019 0.119-0.013 0.181l0.5 3.056c0.056 0.419 0.425 0.731 0.844 0.731h1.106c-0.106 0.325-0.162 0.675-0.162 1.038 0 1.856 1.506 3.363 3.362 3.363s3.363-1.506 3.363-3.363c0-0.363-0.056-0.712-0.162-1.038h6.562c-0.106 0.325-0.163 0.675-0.163 1.038 0 1.856 1.506 3.363 3.363 3.363s3.363-1.506 3.363-3.363-1.506-3.363-3.363-3.363c-1.163 0-2.188 0.587-2.788 1.488 0 0-0.006 0-0.006 0h-7.375c0 0-0.006 0-0.006 0-0.606-0.894-1.631-1.488-2.787-1.488s-2.188 0.587-2.787 1.488c0 0-0.006 0-0.006 0l-1.525-0.019-0.35-2.131 21.462-3.163c0.375 0 0.675-0.331 0.669-0.656l2.25-11.369c-0.006-0.419-0.337-0.75-0.744-0.75zM24.944 23c1.394 0 2.525 1.131 2.525 2.525s-1.131 2.525-2.525 2.525-2.525-1.131-2.525-2.525 1.131-2.525 2.525-2.525zM11.981 23c1.394 0 2.525 1.131 2.525 2.525s-1.131 2.525-2.525 2.525c-1.394 0-2.525-1.131-2.525-2.525s1.131-2.525 2.525-2.525zM28.625 17.506l-21.419 3.15-2.206-14.25h25.819l-2.194 11.1z"></path>
<path id="svg-ico" fill="#ee5586" d="M17.163 12.706l-2.225 2.225c-0.162 0.162-0.162 0.431 0 0.594 0.081 0.081 0.188 0.125 0.3 0.125 0.106 0 0.213-0.044 0.3-0.125l2.225-2.225 2.225 2.225c0.081 0.081 0.188 0.125 0.3 0.125s0.212-0.044 0.3-0.125c0.163-0.162 0.163-0.431 0-0.594l-2.225-2.225 2.225-2.225c0.163-0.162 0.163-0.431 0-0.594s-0.431-0.162-0.594 0l-2.225 2.225-2.225-2.225c-0.162-0.162-0.431-0.162-0.594 0s-0.162 0.431 0 0.594l2.213 2.225z"></path>
</svg>
