<!-- Generated by IcoMoon.io -->
<svg version="1.1" xmlns="http://www.w3.org/2000/svg" width="32" height="32" viewBox="0 0 32 32">
<title>cartdown</title>
<path fill="#5e686c" d="M6.55 3.375c0-0.237-0.188-0.425-0.425-0.425h-5.525c-0.237 0-0.425 0.188-0.425 0.425s0.188 0.425 0.425 0.425h5.525c0.237 0 0.425-0.188 0.425-0.425z"></path>
<path fill="#5e686c" d="M31.069 5.463h-26.325c-0.412 0-0.75 0.338-0.744 0.813l2.213 14.294c-0.019 0.056-0.019 0.119-0.013 0.181l0.506 3.087c0.056 0.425 0.425 0.738 0.85 0.738h1.119c-0.106 0.331-0.162 0.681-0.162 1.044 0 1.875 1.525 3.394 3.394 3.394 1.875 0 3.4-1.525 3.4-3.394 0-0.363-0.056-0.719-0.162-1.044h6.631c-0.106 0.331-0.163 0.681-0.163 1.044 0 1.875 1.525 3.394 3.394 3.394 1.875 0 3.4-1.525 3.4-3.394 0-1.875-1.525-3.4-3.4-3.4-1.169 0-2.206 0.594-2.819 1.5 0 0-0.006 0-0.006 0h-7.45c0 0-0.006 0-0.006 0-0.613-0.906-1.644-1.5-2.819-1.5-1.169 0-2.206 0.594-2.819 1.5 0 0-0.006 0-0.006 0l-1.537-0.019-0.35-2.156 21.675-3.194c0.375 0 0.681-0.337 0.675-0.663l2.269-11.481c0.006-0.412-0.331-0.744-0.744-0.744zM25 23.069c1.406 0 2.55 1.144 2.55 2.55s-1.144 2.55-2.55 2.55c-1.406 0-2.544-1.144-2.544-2.55s1.144-2.55 2.544-2.55zM11.912 23.069c1.406 0 2.55 1.144 2.55 2.55s-1.144 2.55-2.55 2.55c-1.406 0-2.55-1.144-2.55-2.55s1.144-2.55 2.55-2.55zM28.725 17.525l-21.631 3.188-2.231-14.4h26.075l-2.212 11.213z"></path>
<path id="svg-ico" fill="#ee5586" d="M17.444 15.706c0.019 0.019 0.044 0.037 0.069 0.056 0 0 0.006 0 0.006 0.006 0.006 0.006 0.019 0.012 0.031 0.019 0.006 0 0.006 0.006 0.012 0.006 0.006 0.006 0.019 0.006 0.025 0.012 0.006 0 0.006 0 0.012 0.006s0.019 0.006 0.025 0.006c0.006 0 0.012 0 0.012 0.006 0.006 0 0.019 0.006 0.025 0.006s0.012 0 0.019 0c0.006 0 0.012 0 0.019 0.006 0.012 0 0.025 0 0.044 0s0.025 0 0.044 0c0.006 0 0.012 0 0.019 0s0.012 0 0.019 0c0.006 0 0.019-0.006 0.025-0.006s0.012 0 0.012-0.006c0.006 0 0.019-0.006 0.025-0.006s0.006 0 0.012-0.006 0.019-0.006 0.025-0.012c0.006 0 0.006-0.006 0.012-0.006 0.012-0.006 0.019-0.012 0.031-0.019 0 0 0.006 0 0.006-0.006 0.025-0.019 0.050-0.037 0.069-0.056l2.606-2.6c0.169-0.162 0.169-0.438 0-0.6-0.169-0.169-0.438-0.169-0.6 0l-1.881 1.881v-4.456c0-0.238-0.188-0.425-0.425-0.425s-0.425 0.188-0.425 0.425v4.45l-1.881-1.881c-0.169-0.169-0.438-0.169-0.6 0-0.169 0.169-0.169 0.438 0 0.6l2.606 2.6z"></path>
</svg>
