<!-- Generated by IcoMoon.io -->
<svg version="1.1" xmlns="http://www.w3.org/2000/svg" width="32" height="32" viewBox="0 0 32 32">
<title>cloud</title>
<path id="svg-ico" fill="#ee5585" d="M14.963 16.431c-0.238 0-0.431-0.194-0.431-0.431 0-4.106 3.419-6.606 6.719-6.65 0.219-0.025 0.431 0.188 0.438 0.425s-0.188 0.431-0.425 0.438c-2.881 0.037-5.869 2.213-5.869 5.787 0 0.237-0.194 0.431-0.431 0.431z"></path>
<path fill="#5e686c" d="M21.175 26.794h-13.456c-4.237 0-7.688-3.45-7.688-7.681 0-4.238 3.45-7.681 7.681-7.681 0.237 0 0.431 0.194 0.431 0.431s-0.194 0.431-0.431 0.431c-3.763 0-6.819 3.063-6.819 6.819 0 3.762 3.063 6.819 6.819 6.819h13.463c5.475 0 9.931-4.456 9.931-9.931 0-5.45-4.413-9.887-9.856-9.931-4.838 0.037-10.006 3.144-10.006 9.931 0 0.237-0.194 0.431-0.431 0.431s-0.431-0.194-0.431-0.431c0-7 5.381-10.706 10.756-10.794 0.012 0 0.025 0 0.038 0h0.156c0.012 0 0.025 0 0.038 0 5.863 0.106 10.6 4.906 10.6 10.794 0 5.95-4.844 10.794-10.794 10.794z"></path>
</svg>
