<!-- Generated by IcoMoon.io -->
<svg version="1.1" xmlns="http://www.w3.org/2000/svg" width="32" height="32" viewBox="0 0 32 32">
<title>cloudup</title>
<path fill="#5e686c" d="M21.306 3.619c-0.012 0-0.025 0-0.038 0h-0.156c-0.012 0-0.025 0-0.038 0-5.463 0.094-10.1 4.294-10.6 9.637-0.019 0.225-0.012 0.444-0.006 0.669 0.006 0.106 0.006 0.213 0.006 0.325 0 0.238 0.194 0.431 0.431 0.431s0.431-0.194 0.431-0.431c0-0.119-0.006-0.238-0.006-0.35-0.006-0.194-0.012-0.381 0-0.563 0.463-4.944 4.781-8.819 9.856-8.856 5.356 0.044 9.7 4.412 9.7 9.775 0 5.388-4.387 9.775-9.775 9.775-0.238 0-0.431 0.194-0.431 0.431s0.194 0.431 0.431 0.431c5.863 0 10.631-4.769 10.631-10.631 0.006-5.813-4.663-10.544-10.438-10.644z"></path>
<path fill="#5e686c" d="M21.2 8.556c0.238 0 0.425-0.2 0.425-0.431-0.006-0.237-0.194-0.425-0.431-0.425 0 0-0.006 0-0.006 0-3.363 0.044-6.344 2.706-6.644 6.013l0.006 0.075c0.006 0.15 0.012 0.306 0.012 0.463 0 0.238 0.194 0.431 0.431 0.431s0.431-0.194 0.431-0.431c0-0.162-0.006-0.331-0.012-0.519l-0.006-0.019c0.256-2.806 2.856-5.119 5.794-5.156z"></path>
<path fill="#5e686c" d="M10.912 24.025h-3.056c-3.7 0-6.719-3.012-6.719-6.712s3.013-6.713 6.713-6.713c0.238 0 0.431-0.194 0.431-0.431s-0.194-0.431-0.431-0.431c-4.169 0-7.563 3.4-7.563 7.575s3.4 7.575 7.575 7.575h3.056c0.238 0 0.431-0.194 0.431-0.431-0.006-0.238-0.2-0.431-0.438-0.431z"></path>
<path id="svg-ico" fill="#ee5586" d="M16.306 20.238c-0.169-0.156-0.425-0.156-0.588 0l-3.056 2.887c-0.175 0.163-0.181 0.431-0.019 0.606 0.088 0.087 0.2 0.137 0.313 0.137 0.106 0 0.213-0.038 0.294-0.119l2.331-2.2v7.012c0 0.225 0.194 0.4 0.431 0.4s0.431-0.181 0.431-0.4v-7.025l2.344 2.206c0.175 0.163 0.444 0.156 0.606-0.019s0.156-0.444-0.019-0.606l-3.069-2.881z"></path>
</svg>
