<!-- Generated by IcoMoon.io -->
<svg version="1.1" xmlns="http://www.w3.org/2000/svg" width="32" height="32" viewBox="0 0 32 32">
<title>color</title>
<path fill="#5e686c" d="M25.075 16.369c0.063-0.156 0.025-0.331-0.087-0.45l-11.338-11.331v-1.044c0-1.625-1.319-2.944-2.944-2.944s-2.944 1.319-2.944 2.944v6.219l-5.525 5.525c-0.556 0.556-0.863 1.294-0.863 2.081s0.306 1.525 0.863 2.081l5.919 5.919c0.556 0.556 1.294 0.863 2.081 0.863s1.525-0.306 2.081-0.863l8.744-8.75h3.631c0.169 0 0.319-0.1 0.381-0.25zM8.588 3.544c0-1.169 0.95-2.125 2.125-2.125 1.169 0 2.125 0.95 2.125 2.125v1.15l-4.244 4.244v-5.394h-0.006zM20.894 15.8c-0.106 0-0.212 0.044-0.288 0.119l-8.869 8.869c-0.8 0.8-2.2 0.8-3 0l-5.919-5.919c-0.4-0.4-0.625-0.938-0.625-1.5s0.219-1.1 0.625-1.5l5.644-5.644c0 0 0 0 0 0l4.363-4.362v7.819c0 0.225 0.181 0.412 0.412 0.412s0.412-0.181 0.412-0.412v-7.931l10.050 10.050h-2.806z"></path>
<path id="svg-ico" fill="#ee5586" d="M26.313 19.8c-0.075-0.125-0.206-0.2-0.35-0.2s-0.275 0.075-0.35 0.2c-0.331 0.544-3.225 5.369-3.225 7.181 0 1.975 1.606 3.575 3.575 3.575s3.575-1.606 3.575-3.575c0-1.819-2.894-6.637-3.225-7.181zM25.962 29.731c-1.519 0-2.756-1.238-2.756-2.756 0-1.188 1.75-4.438 2.756-6.162 1.006 1.725 2.756 4.975 2.756 6.163 0 1.525-1.238 2.756-2.756 2.756z"></path>
</svg>
