<!-- Generated by IcoMoon.io -->
<svg version="1.1" xmlns="http://www.w3.org/2000/svg" width="32" height="32" viewBox="0 0 32 32">
<title>compare</title>
<path fill="#5e686c" d="M20.131 6.181h7.225c0.231 0 0.419-0.188 0.419-0.419s-0.188-0.419-0.419-0.419h-7.225c-0.212-2.112-1.994-3.763-4.162-3.763-2.162 0-3.95 1.656-4.162 3.763h-7.219c-0.231 0-0.419 0.188-0.419 0.419s0.188 0.419 0.419 0.419h7.225c0.213 2.112 1.994 3.763 4.162 3.763s3.95-1.65 4.156-3.763zM15.975 9.113c-1.844 0-3.344-1.5-3.344-3.344s1.5-3.344 3.344-3.344c1.844 0 3.344 1.5 3.344 3.344s-1.5 3.344-3.344 3.344z"></path>
<path id="svg-ico" fill="#ee5586" d="M14.875 23.081c-0.006-0.050-0.025-0.1-0.050-0.144l-6.881-12.488c-0.013-0.031-0.031-0.056-0.056-0.081 0 0 0 0 0 0-0.006-0.012-0.019-0.019-0.025-0.031 0 0 0 0 0 0-0.006-0.006-0.019-0.019-0.025-0.025 0 0 0 0-0.006 0-0.006-0.006-0.019-0.012-0.031-0.019 0 0 0 0-0.006 0-0.006-0.006-0.013-0.006-0.019-0.012-0.006 0-0.006-0.006-0.013-0.006 0 0 0 0 0 0-0.050-0.025-0.1-0.037-0.15-0.044 0 0-0.006 0-0.006 0-0.013 0-0.019 0-0.031 0-0.006 0-0.019 0-0.025 0s-0.006 0-0.013 0c-0.013 0-0.025 0-0.037 0.006 0 0 0 0 0 0-0.037 0.006-0.075 0.019-0.112 0.037 0 0 0 0 0 0-0.006 0-0.006 0.006-0.013 0.006-0.006 0.006-0.013 0.006-0.019 0.012 0 0-0.006 0-0.006 0-0.013 0.006-0.019 0.012-0.031 0.019 0 0 0 0-0.006 0.006-0.013 0.006-0.019 0.012-0.025 0.025 0 0 0 0-0.006 0-0.006 0.006-0.019 0.019-0.025 0.025 0 0 0 0 0 0-0.006 0.012-0.019 0.019-0.025 0.031 0 0 0 0 0 0-0.013 0.019-0.019 0.031-0.031 0.050l-6.894 12.494c-0.031 0.056-0.050 0.119-0.056 0.181 0 0.006 0 0.019 0 0.025 0 0 0 0 0 0 0 4.038 3.281 7.319 7.319 7.319 4.031 0 7.312-3.281 7.312-7.319 0 0 0 0 0 0 0-0.019 0-0.044-0.006-0.069zM7.569 11.506l6.188 11.231h-12.381l6.194-11.231zM7.569 29.631c-3.431 0-6.25-2.681-6.469-6.063h12.931c-0.213 3.381-3.031 6.063-6.463 6.063z"></path>
<path fill="#5e686c" d="M31.544 22.95l-6.938-12.512c0-0.006-0.006-0.006-0.006-0.012-0.006-0.006-0.006-0.012-0.012-0.019s-0.006-0.006-0.012-0.012-0.012-0.012-0.019-0.019c0-0.006-0.006-0.006-0.006-0.012-0.006-0.006-0.012-0.012-0.019-0.019 0-0.006-0.006-0.006-0.012-0.006-0.006-0.006-0.012-0.012-0.019-0.019-0.006 0-0.006-0.006-0.012-0.006-0.006-0.006-0.012-0.012-0.025-0.019-0.006 0-0.006-0.006-0.012-0.006-0.006-0.006-0.012-0.006-0.019-0.012 0 0-0.006 0-0.006-0.006-0.006 0-0.006-0.006-0.012-0.006-0.006-0.006-0.019-0.006-0.025-0.012-0.006 0-0.006 0-0.012-0.006s-0.019-0.006-0.025-0.006c-0.006 0-0.006 0-0.012-0.006-0.006 0-0.019-0.006-0.025-0.006s-0.019 0-0.025-0.006c-0.006 0-0.006 0-0.012 0-0.075-0.006-0.156 0.006-0.225 0.044 0 0-0.006 0-0.006 0.006 0 0-0.006 0-0.006 0.006-0.006 0-0.012 0.006-0.012 0.006-0.006 0-0.006 0.006-0.012 0.006-0.006 0.006-0.012 0.006-0.019 0.012s-0.006 0.006-0.012 0.012-0.012 0.012-0.019 0.019c-0.006 0.006-0.006 0.006-0.012 0.012s-0.012 0.012-0.019 0.019c0 0.006-0.006 0.006-0.006 0.012-0.006 0.006-0.012 0.012-0.019 0.025 0 0.006-0.006 0.006-0.006 0.012-0.006 0.006-0.012 0.019-0.019 0.025 0 0 0 0.006-0.006 0.006l-6.794 12.381c-0.1 0.075-0.163 0.194-0.163 0.331 0 4.031 3.281 7.319 7.319 7.319 3.975 0 7.219-3.181 7.313-7.137 0.056-0.119 0.063-0.262-0.006-0.387zM24.244 11.506l6.225 11.225h-12.381l6.156-11.225zM24.238 29.631c-3.431 0-6.25-2.681-6.469-6.063h12.931c-0.212 3.381-3.031 6.063-6.462 6.063z"></path>
</svg>
