<!-- Generated by IcoMoon.io -->
<svg version="1.1" xmlns="http://www.w3.org/2000/svg" width="32" height="32" viewBox="0 0 32 32">
<title>container</title>
<path fill="#5e686c" d="M8.012 14.519c-0.213 0-0.394-0.162-0.412-0.381l-0.362-4.237c-0.019-0.231 0.15-0.431 0.375-0.45 0.231-0.025 0.431 0.15 0.45 0.375l0.363 4.238c0.019 0.231-0.15 0.431-0.375 0.45-0.012 0.006-0.025 0.006-0.037 0.006z"></path>
<path fill="#5e686c" d="M23.813 14.55c-0.012 0-0.019 0-0.031 0-0.231-0.019-0.4-0.219-0.381-0.444l0.313-4.263c0.019-0.231 0.219-0.4 0.444-0.381 0.231 0.019 0.4 0.213 0.381 0.444l-0.313 4.262c-0.012 0.213-0.2 0.381-0.413 0.381z"></path>
<path fill="#5e686c" d="M22.531 10.287c-0.156 0-0.306-0.088-0.375-0.238l-2.613-5.544h-7.319l-2.731 5.55c-0.1 0.206-0.35 0.294-0.556 0.188-0.206-0.1-0.287-0.35-0.188-0.556l2.844-5.781c0.069-0.144 0.213-0.231 0.375-0.231h7.838c0.163 0 0.306 0.094 0.375 0.237l2.719 5.781c0.1 0.206 0.006 0.456-0.2 0.55-0.050 0.025-0.113 0.044-0.169 0.044z"></path>
<path fill="#5e686c" d="M17.906 4.356c-0.231 0-0.413-0.188-0.413-0.413v-2.519h-3.206v2.519c0 0.231-0.188 0.413-0.412 0.413s-0.412-0.188-0.412-0.413v-2.931c0-0.231 0.188-0.412 0.412-0.412h4.037c0.231 0 0.413 0.188 0.413 0.412v2.931c-0.006 0.231-0.188 0.413-0.419 0.413z"></path>
<path id="svg-ico" fill="#ee5586" d="M9.169 30.45c-0.188 0-0.356-0.125-0.4-0.313l-3.65-14.575c-0.044-0.175 0.031-0.363 0.188-0.456 0.263-0.162 6.512-3.919 10.5-3.919 0.056 0 0.113 0 0.162 0 3.981 0 10.225 3.756 10.487 3.919 0.156 0.094 0.231 0.281 0.188 0.456l-3.644 14.569c-0.056 0.225-0.281 0.356-0.5 0.3-0.225-0.056-0.356-0.281-0.3-0.5l3.569-14.269c-1.231-0.713-6.488-3.644-9.806-3.644-0.050 0-0.1 0-0.144 0-3.325 0-8.588 2.931-9.819 3.644l3.575 14.275c0.056 0.225-0.081 0.45-0.3 0.5-0.037 0.012-0.069 0.012-0.106 0.012z"></path>
<path id="svg-ico" fill="#ee5586" d="M15.969 30.456c-0.231 0-0.412-0.188-0.412-0.413v-18.431c0-0.231 0.188-0.412 0.412-0.412s0.413 0.188 0.413 0.412v18.431c0 0.225-0.181 0.413-0.412 0.413z"></path>
<path fill="#5e686c" d="M24.4 31.544c-0.694 0-1.031-0.181-1.394-0.375-0.363-0.2-0.725-0.394-1.444-0.394-0.712 0-1.075 0.194-1.431 0.387-0.375 0.2-0.712 0.381-1.406 0.381s-1.031-0.181-1.387-0.375c-0.369-0.2-0.738-0.4-1.45-0.4s-1.081 0.2-1.431 0.387c-0.369 0.2-0.706 0.381-1.406 0.381-0.694 0-1.031-0.181-1.394-0.375-0.369-0.2-0.731-0.394-1.444-0.394-0.719 0-1.081 0.194-1.431 0.387-0.375 0.2-0.713 0.381-1.406 0.381s-1.031-0.181-1.394-0.375c-0.369-0.2-0.731-0.394-1.45-0.394-0.231 0-0.412-0.188-0.412-0.413 0-0.231 0.188-0.413 0.412-0.413 0.925 0 1.425 0.269 1.825 0.488 0.331 0.181 0.525 0.281 1.013 0.281s0.681-0.106 1-0.275c0.412-0.225 0.912-0.494 1.838-0.494s1.425 0.269 1.825 0.488c0.331 0.181 0.525 0.281 1.012 0.281s0.681-0.106 1-0.275c0.412-0.225 0.912-0.494 1.838-0.494s1.425 0.269 1.825 0.488c0.337 0.181 0.531 0.281 1.012 0.281 0.488 0 0.681-0.106 1-0.275 0.413-0.225 0.913-0.494 1.837-0.494 0.931 0 1.425 0.269 1.831 0.488 0.331 0.175 0.525 0.281 1.006 0.281 0.488 0 0.681-0.106 1-0.275 0.413-0.225 0.913-0.494 1.837-0.494 0.231 0 0.413 0.188 0.413 0.413 0 0.231-0.188 0.413-0.413 0.413-0.719 0-1.081 0.2-1.431 0.387-0.363 0.206-0.7 0.387-1.4 0.387z"></path>
<path fill="#5e686c" d="M24.125 10.287h-16.475c-0.231 0-0.412-0.188-0.412-0.412 0-0.231 0.188-0.412 0.412-0.412h16.475c0.231 0 0.413 0.188 0.413 0.412 0.006 0.225-0.181 0.412-0.413 0.412z"></path>
</svg>
