<!-- Generated by IcoMoon.io -->
<svg version="1.1" xmlns="http://www.w3.org/2000/svg" width="32" height="32" viewBox="0 0 32 32">
<title>coupon</title>
<path fill="#5e686c" d="M5.862 12.85c-3.038 0-5.506-2.469-5.506-5.506s2.469-5.506 5.506-5.506 5.506 2.469 5.506 5.506c-0.006 3.037-2.475 5.506-5.506 5.506zM5.862 2.688c-2.569 0-4.656 2.088-4.656 4.656s2.087 4.656 4.656 4.656c2.569 0 4.656-2.088 4.656-4.656s-2.094-4.656-4.656-4.656z"></path>
<path fill="#5e686c" d="M5.862 30.531c-3.038 0-5.506-2.469-5.506-5.506s2.469-5.506 5.506-5.506 5.506 2.469 5.506 5.506c-0.006 3.031-2.475 5.506-5.506 5.506zM5.862 20.369c-2.569 0-4.656 2.087-4.656 4.656s2.087 4.656 4.656 4.656c2.569 0 4.656-2.087 4.656-4.656s-2.094-4.656-4.656-4.656z"></path>
<path fill="#5e686c" d="M20.031 15.1c-0.137 0-0.275-0.069-0.356-0.2-0.125-0.2-0.063-0.463 0.131-0.581l10.775-6.781c0.2-0.125 0.462-0.069 0.581 0.131 0.125 0.2 0.063 0.463-0.131 0.581l-10.775 6.787c-0.069 0.044-0.144 0.063-0.225 0.063z"></path>
<path fill="#5e686c" d="M9.569 21.631c-0.144 0-0.281-0.069-0.363-0.2-0.125-0.2-0.063-0.462 0.137-0.581l5.862-3.637c0.2-0.119 0.463-0.063 0.581 0.137 0.125 0.2 0.063 0.462-0.137 0.581l-5.863 3.637c-0.063 0.044-0.144 0.063-0.219 0.063z"></path>
<path fill="#5e686c" d="M30.813 24.4c-0.075 0-0.15-0.019-0.219-0.063l-10.781-6.512c-0.2-0.119-0.262-0.381-0.144-0.581s0.381-0.262 0.581-0.144l10.775 6.519c0.2 0.119 0.262 0.381 0.144 0.581-0.075 0.131-0.212 0.2-0.356 0.2z"></path>
<path fill="#5e686c" d="M15.431 15.1c-0.075 0-0.15-0.019-0.219-0.063l-5.862-3.519c-0.2-0.119-0.269-0.381-0.144-0.581 0.119-0.2 0.381-0.262 0.581-0.144l5.863 3.519c0.2 0.119 0.269 0.381 0.144 0.581-0.075 0.137-0.219 0.206-0.363 0.206z"></path>
<path id="svg-ico" fill="#ee5586" d="M31.044 16.444h-2.544c-0.231 0-0.425-0.188-0.425-0.425 0-0.231 0.188-0.425 0.425-0.425h2.538c0.231 0 0.425 0.188 0.425 0.425 0.006 0.231-0.188 0.425-0.419 0.425z"></path>
<path fill="#ef5587" d="M25.113 16.444h-2.538c-0.231 0-0.425-0.188-0.425-0.425 0-0.231 0.188-0.425 0.425-0.425h2.538c0.231 0 0.425 0.188 0.425 0.425 0 0.231-0.188 0.425-0.425 0.425z"></path>
<path id="svg-ico" fill="#ee5586" d="M17.762 18.981c-1.637 0-2.963-1.331-2.963-2.962s1.331-2.963 2.963-2.963c1.631 0 2.962 1.331 2.962 2.963s-1.331 2.962-2.962 2.962zM17.762 13.9c-1.169 0-2.119 0.95-2.119 2.119s0.95 2.119 2.119 2.119c1.169 0 2.119-0.95 2.119-2.119s-0.95-2.119-2.119-2.119z"></path>
</svg>
