<!-- Generated by IcoMoon.io -->
<svg version="1.1" xmlns="http://www.w3.org/2000/svg" width="32" height="32" viewBox="0 0 32 32">
<title>desktop</title>
<path fill="#5e686c" d="M19.119 24.969h-18.375c-0.231 0-0.425-0.188-0.425-0.425v-19.319c0-0.231 0.187-0.425 0.425-0.425h18.375c0.231 0 0.425 0.188 0.425 0.425 0 0.231-0.188 0.425-0.425 0.425h-17.95v18.475h17.956c0.231 0 0.425 0.188 0.425 0.425-0.006 0.231-0.194 0.419-0.431 0.419z"></path>
<path fill="#5e686c" d="M19.119 19.156h-18.294c-0.231 0-0.425-0.188-0.425-0.425s0.187-0.425 0.425-0.425h18.294c0.231 0 0.425 0.188 0.425 0.425s-0.188 0.425-0.425 0.425z"></path>
<path fill="#5e686c" d="M13.387 28.481c-0.231 0-0.425-0.188-0.425-0.425v-3.512c0-0.231 0.188-0.425 0.425-0.425 0.231 0 0.425 0.188 0.425 0.425v3.512c0 0.238-0.194 0.425-0.425 0.425z"></path>
<path fill="#5e686c" d="M19.119 28.481h-11.912c-0.231 0-0.425-0.188-0.425-0.425s0.188-0.425 0.425-0.425h11.919c0.231 0 0.425 0.188 0.425 0.425s-0.194 0.425-0.431 0.425z"></path>
<path id="svg-ico" fill="#ee5586" d="M29.506 31.563h-8.675c-1.175 0-2.131-0.781-2.131-1.744v-27.644c0-0.962 0.956-1.744 2.131-1.744h8.675c1.175 0 2.131 0.781 2.131 1.744v27.65c0 0.956-0.956 1.738-2.131 1.738zM20.831 1.275c-0.7 0-1.288 0.413-1.288 0.894v27.65c0 0.488 0.587 0.894 1.288 0.894h8.675c0.7 0 1.288-0.413 1.288-0.894v-27.644c0-0.488-0.587-0.894-1.288-0.894l-8.675-0.006z"></path>
<path fill="#5e686c" d="M25.188 10.162c-0.106 0-0.219-0.006-0.331-0.019-1.387-0.181-2.369-1.456-2.188-2.844 0.175-1.369 1.45-2.362 2.844-2.188 1.387 0.181 2.369 1.456 2.194 2.844-0.169 1.256-1.25 2.206-2.519 2.206zM25.181 5.931c-0.844 0-1.563 0.631-1.675 1.475-0.119 0.925 0.538 1.775 1.462 1.894 0.938 0.119 1.775-0.55 1.894-1.463 0.119-0.925-0.538-1.775-1.462-1.894-0.069-0.006-0.144-0.013-0.219-0.013z"></path>
</svg>
