<!-- Generated by IcoMoon.io -->
<svg version="1.1" xmlns="http://www.w3.org/2000/svg" width="32" height="32" viewBox="0 0 32 32">
<title>diamond</title>
<path fill="#5e686c" d="M31.337 11.012h-9.875c-0.238 0-0.431-0.194-0.431-0.431s0.194-0.431 0.431-0.431h9.875c0.238 0 0.431 0.194 0.431 0.431s-0.194 0.431-0.431 0.431z"></path>
<path id="svg-ico" fill="#ee5586" d="M21.462 11.012h-10.969c-0.238 0-0.431-0.194-0.431-0.431s0.194-0.431 0.431-0.431h10.969c0.238 0 0.431 0.194 0.431 0.431s-0.194 0.431-0.431 0.431z"></path>
<path fill="#5e686c" d="M10.494 11.012h-9.875c-0.237 0-0.431-0.194-0.431-0.431s0.194-0.431 0.431-0.431h9.875c0.238 0 0.431 0.194 0.431 0.431-0.006 0.238-0.194 0.431-0.431 0.431z"></path>
<path fill="#5e686c" d="M10.494 11.012c-0.156 0-0.306-0.088-0.381-0.238l-4.394-8.775c-0.106-0.212-0.019-0.469 0.194-0.575s0.469-0.019 0.575 0.194l4.387 8.775c0.106 0.213 0.019 0.469-0.194 0.575-0.056 0.025-0.125 0.044-0.188 0.044z"></path>
<path fill="#5e686c" d="M21.462 11.012c-0.063 0-0.131-0.012-0.194-0.044-0.212-0.106-0.3-0.363-0.194-0.575l4.387-8.775c0.106-0.212 0.363-0.294 0.575-0.194 0.212 0.106 0.3 0.363 0.194 0.575l-4.387 8.775c-0.069 0.15-0.225 0.238-0.381 0.238z"></path>
<path fill="#5e686c" d="M15.981 30.756c-0.131 0-0.256-0.063-0.338-0.163l-15.363-19.75c-0.112-0.144-0.119-0.338-0.025-0.488l5.487-8.775c0.081-0.125 0.213-0.2 0.362-0.2h19.75c0.15 0 0.288 0.075 0.363 0.2l5.488 8.775c0.094 0.15 0.087 0.35-0.025 0.488l-15.363 19.75c-0.081 0.106-0.206 0.163-0.338 0.163zM1.137 10.556l14.838 19.075 14.838-19.075-5.2-8.325h-19.269l-5.206 8.325z"></path>
<path id="svg-ico" fill="#ee5586" d="M15.981 30.756c-0.037 0-0.075-0.006-0.113-0.012-0.225-0.063-0.363-0.3-0.3-0.525l5.438-19.569-5.394-8.619c-0.125-0.2-0.063-0.462 0.137-0.587s0.462-0.063 0.587 0.137l5.488 8.775c0.063 0.1 0.081 0.225 0.050 0.344l-5.488 19.75c-0.050 0.188-0.219 0.306-0.406 0.306z"></path>
<path id="svg-ico" fill="#ee5586" d="M15.981 30.756c-0.188 0-0.363-0.125-0.412-0.313l-5.487-19.75c-0.031-0.119-0.012-0.238 0.050-0.344l5.488-8.775c0.125-0.2 0.394-0.262 0.587-0.137 0.2 0.125 0.262 0.387 0.137 0.588l-5.387 8.619 5.438 19.569c0.063 0.225-0.069 0.462-0.3 0.525-0.038 0.019-0.075 0.019-0.113 0.019z"></path>
</svg>
