<!-- Generated by IcoMoon.io -->
<svg version="1.1" xmlns="http://www.w3.org/2000/svg" width="32" height="32" viewBox="0 0 32 32">
<title>directions</title>
<path fill="#5e686c" d="M16.238 31.625c-0.231 0-0.412-0.188-0.412-0.413v-8.288c0-0.231 0.188-0.413 0.412-0.413 0.231 0 0.413 0.188 0.413 0.413v8.288c0.006 0.231-0.181 0.413-0.413 0.413z"></path>
<path fill="#5e686c" d="M16.238 3.087c-0.231 0-0.412-0.188-0.412-0.413v-1.663c0-0.231 0.188-0.412 0.412-0.412 0.231 0 0.413 0.188 0.413 0.412v1.656c0.006 0.231-0.181 0.419-0.413 0.419z"></path>
<path id="svg-ico" fill="#ee5586" d="M20.4 12.1h-13.162c-0.388 0-0.888-0.194-1.169-0.456l-3.337-2.619c-0.206-0.194-0.313-0.431-0.313-0.675s0.106-0.481 0.288-0.65l3.388-2.662c0.256-0.237 0.763-0.438 1.144-0.438h13.162c0.512 0 0.925 0.412 0.925 0.919v5.65c0 0.519-0.413 0.931-0.925 0.931zM7.237 5.438c-0.175 0-0.481 0.119-0.606 0.237l-3.388 2.663 3.362 2.681c0.156 0.144 0.456 0.256 0.631 0.256h13.162c0.050 0 0.1-0.044 0.1-0.094v-5.656c0-0.050-0.044-0.094-0.1-0.094h-13.162z"></path>
<path fill="#5e686c" d="M25.069 20.669h-13.162c-0.512 0-0.931-0.413-0.931-0.919v-5.65c0-0.506 0.419-0.919 0.931-0.919h13.162c0.381 0 0.887 0.194 1.169 0.456l3.337 2.619c0.206 0.194 0.313 0.431 0.313 0.675s-0.106 0.481-0.288 0.65l-3.387 2.663c-0.256 0.225-0.756 0.425-1.144 0.425zM11.906 14c-0.056 0-0.1 0.044-0.1 0.094v5.65c0 0.050 0.044 0.094 0.1 0.094h13.163c0.175 0 0.475-0.119 0.606-0.238l3.387-2.663-3.363-2.681c-0.156-0.144-0.456-0.256-0.631-0.256h-13.162z"></path>
</svg>
