<!-- Generated by IcoMoon.io -->
<svg version="1.1" xmlns="http://www.w3.org/2000/svg" width="32" height="32" viewBox="0 0 32 32">
<title>direction</title>
<path fill="#5e686c" d="M15.575 31.85c-0.238 0-0.431-0.194-0.431-0.431v-16.506c0-0.238 0.194-0.431 0.431-0.431s0.431 0.194 0.431 0.431v16.512c-0.006 0.231-0.2 0.425-0.431 0.425z"></path>
<path fill="#5e686c" d="M15.575 6.725c-0.238 0-0.431-0.194-0.431-0.431v-5.737c0-0.237 0.194-0.431 0.431-0.431s0.431 0.194 0.431 0.431v5.744c-0.006 0.231-0.2 0.425-0.431 0.425z"></path>
<path fill="#5e686c" d="M17.712 31.85h-4.281c-0.238 0-0.431-0.194-0.431-0.431s0.194-0.431 0.431-0.431h4.281c0.238 0 0.431 0.194 0.431 0.431s-0.194 0.431-0.431 0.431z"></path>
<path id="svg-ico" fill="#ee5586" d="M24.906 15.338h-21.538c-0.237 0-0.431-0.194-0.431-0.431v-8.613c0-0.237 0.194-0.431 0.431-0.431h21.538c0.125 0 0.25 0.056 0.331 0.156l3.587 4.306c0.131 0.156 0.131 0.387 0 0.55l-3.594 4.313c-0.081 0.094-0.2 0.15-0.325 0.15zM3.8 14.481h20.906l3.231-3.881-3.231-3.881h-20.906v7.762z"></path>
</svg>
