<!-- Generated by IcoMoon.io -->
<svg version="1.1" xmlns="http://www.w3.org/2000/svg" width="32" height="32" viewBox="0 0 32 32">
<title>domainserver</title>
<path fill="#5e686c" d="M6.45 20.125c-0.069 0-0.144-0.019-0.206-0.056-3.175-1.887-5.144-5.356-5.144-9.044-0.006-5.806 4.713-10.519 10.512-10.519s10.519 4.719 10.519 10.519c0 1.95-0.538 3.85-1.55 5.5-0.119 0.188-0.363 0.25-0.556 0.131-0.188-0.119-0.25-0.363-0.131-0.556 0.938-1.525 1.431-3.281 1.431-5.081 0-5.35-4.356-9.706-9.713-9.706-5.35 0-9.706 4.356-9.706 9.706 0 3.406 1.819 6.606 4.75 8.35 0.194 0.113 0.256 0.363 0.138 0.55-0.075 0.131-0.206 0.206-0.344 0.206z"></path>
<path fill="#5e686c" d="M6.931 16.95c-0.162 0-0.319-0.1-0.381-0.269-0.612-1.688-0.931-3.644-0.931-5.662 0-5.894 2.638-10.512 5.994-10.512s5.994 4.619 5.994 10.519c0 1.919-0.294 3.794-0.844 5.419-0.075 0.212-0.3 0.325-0.512 0.25-0.212-0.069-0.325-0.3-0.25-0.512 0.525-1.544 0.806-3.331 0.806-5.162 0-5.356-2.325-9.713-5.188-9.713s-5.188 4.356-5.188 9.713c0 1.925 0.306 3.787 0.881 5.388 0.075 0.212-0.031 0.438-0.244 0.519-0.044 0.019-0.094 0.025-0.138 0.025z"></path>
<path fill="#5e686c" d="M11.613 7.838c-3.169 0-6.112-0.888-8.287-2.5-0.181-0.131-0.219-0.388-0.081-0.563 0.131-0.181 0.388-0.219 0.563-0.081 2.006 1.487 4.85 2.337 7.806 2.337s5.8-0.856 7.806-2.338c0.181-0.131 0.431-0.094 0.563 0.081 0.131 0.181 0.094 0.431-0.081 0.563-2.175 1.612-5.113 2.5-8.287 2.5z"></path>
<path fill="#5e686c" d="M21.731 11.75h-20.231c-0.225 0-0.406-0.181-0.406-0.406s0.181-0.4 0.406-0.4h20.231c0.225 0 0.406 0.181 0.406 0.4s-0.188 0.406-0.406 0.406z"></path>
<path fill="#5e686c" d="M11.613 16.712c-0.225 0-0.406-0.181-0.406-0.406v-15.4c0-0.225 0.181-0.4 0.406-0.4s0.4 0.181 0.4 0.4v15.406c0.006 0.219-0.175 0.4-0.4 0.4z"></path>
<path fill="#5e686c" d="M17.894 31.663c-0.887 0-1.613-0.725-1.613-1.613s0.725-1.613 1.613-1.613c0.887 0 1.613 0.725 1.613 1.613s-0.719 1.613-1.613 1.613zM17.894 29.244c-0.444 0-0.806 0.363-0.806 0.806s0.363 0.806 0.806 0.806c0.444 0 0.806-0.363 0.806-0.806s-0.356-0.806-0.806-0.806z"></path>
<path fill="#5e686c" d="M17.894 29.244c-0.225 0-0.406-0.181-0.406-0.4v-2.419c0-0.225 0.181-0.406 0.406-0.406s0.406 0.181 0.406 0.406v2.419c0 0.219-0.181 0.4-0.406 0.4z"></path>
<path fill="#5e686c" d="M16.688 30.45h-6.75c-0.225 0-0.4-0.181-0.4-0.406s0.181-0.4 0.4-0.4h6.75c0.225 0 0.406 0.181 0.406 0.4-0.006 0.225-0.181 0.406-0.406 0.406z"></path>
<path fill="#5e686c" d="M25.85 30.45h-6.744c-0.225 0-0.406-0.181-0.406-0.406s0.181-0.4 0.406-0.4h6.744c0.225 0 0.406 0.181 0.406 0.4 0 0.225-0.181 0.406-0.406 0.406z"></path>
<path id="svg-ico" fill="#ee5586" d="M24.962 22.169c-0.887 0-1.613-0.725-1.613-1.613s0.725-1.613 1.613-1.613 1.613 0.725 1.613 1.613c0 0.894-0.725 1.613-1.613 1.613zM24.962 19.75c-0.444 0-0.806 0.363-0.806 0.806s0.363 0.806 0.806 0.806c0.444 0 0.806-0.363 0.806-0.806s-0.363-0.806-0.806-0.806z"></path>
<path id="svg-ico" fill="#ee5586" d="M28.738 25.212h-21.044c-0.906 0-1.65-0.681-1.65-1.525v-6.256c0-0.844 0.737-1.525 1.65-1.525h21.044c0.906 0 1.644 0.681 1.644 1.525v6.256c0.006 0.837-0.738 1.525-1.644 1.525zM7.694 16.712c-0.463 0-0.844 0.325-0.844 0.719v6.256c0 0.394 0.375 0.719 0.844 0.719h21.044c0.462 0 0.837-0.325 0.837-0.719v-6.256c0-0.394-0.375-0.719-0.837-0.719h-21.044z"></path>
</svg>
