<!-- Generated by IcoMoon.io -->
<svg version="1.1" xmlns="http://www.w3.org/2000/svg" width="32" height="32" viewBox="0 0 32 32">
<title>download</title>
<path fill="#5e686c" d="M30.525 24.675c-0.238 0-0.425 0.188-0.425 0.425v5.825h-27.7v-5.825c0-0.238-0.188-0.425-0.425-0.425s-0.425 0.188-0.425 0.425v6.25c0 0.238 0.188 0.425 0.425 0.425h28.55c0.238 0 0.425-0.188 0.425-0.425v-6.25c0-0.231-0.188-0.425-0.425-0.425z"></path>
<path id="svg-ico" fill="#ee5586" d="M16 25.406c0.081 0.081 0.188 0.119 0.294 0.119s0.212-0.038 0.294-0.119l8.194-7.919c0.169-0.163 0.175-0.431 0.012-0.6s-0.431-0.175-0.6-0.012l-7.469 7.225v-23.331c0-0.238-0.188-0.425-0.425-0.425s-0.425 0.187-0.425 0.425v23.331l-7.475-7.219c-0.169-0.163-0.438-0.156-0.6 0.012s-0.156 0.438 0.013 0.6l8.188 7.912z"></path>
</svg>
