<!-- Generated by IcoMoon.io -->
<svg version="1.1" xmlns="http://www.w3.org/2000/svg" width="32" height="32" viewBox="0 0 32 32">
<title>drink</title>
<path fill="#5e686c" d="M14.162 31.306c-0.231 0-0.419-0.188-0.419-0.419v-13.344c0-0.231 0.188-0.419 0.419-0.419s0.419 0.188 0.419 0.419v13.344c0 0.231-0.188 0.419-0.419 0.419z"></path>
<path fill="#5e686c" d="M17.675 31.781h-7.031c-0.231 0-0.419-0.188-0.419-0.419s0.188-0.419 0.419-0.419h7.031c0.231 0 0.419 0.188 0.419 0.419 0.006 0.231-0.181 0.419-0.419 0.419z"></path>
<path fill="#5e686c" d="M24.25 11.625c-1.156 0-2.256-0.369-3.188-1.056-0.188-0.137-0.225-0.4-0.087-0.588s0.4-0.225 0.587-0.088c0.788 0.581 1.712 0.894 2.681 0.894 2.525 0 4.575-2.106 4.575-4.688 0-2.587-2.056-4.688-4.575-4.688-2.525 0-4.575 2.106-4.575 4.688 0 0.231-0.188 0.419-0.419 0.419s-0.419-0.188-0.419-0.419c0-3.056 2.431-5.537 5.419-5.537s5.419 2.481 5.419 5.531c0 3.050-2.431 5.531-5.419 5.531z"></path>
<path id="svg-ico" fill="#ee5586" d="M14.162 17.962c-0.113 0-0.219-0.044-0.3-0.125l-11.106-11.356c-0.119-0.119-0.15-0.3-0.087-0.456s0.219-0.256 0.388-0.256h22.212c0.169 0 0.325 0.1 0.387 0.256 0.069 0.156 0.031 0.338-0.087 0.456l-11.106 11.356c-0.081 0.081-0.188 0.125-0.3 0.125zM4.056 6.612l10.106 10.331 10.106-10.331h-20.212z"></path>
</svg>
