<!-- Generated by IcoMoon.io -->
<svg version="1.1" xmlns="http://www.w3.org/2000/svg" width="32" height="32" viewBox="0 0 32 32">
<title>duality</title>
<path fill="#5e686c" d="M28.069 5.725c-0.156-0.188-0.431-0.206-0.619-0.050s-0.206 0.431-0.050 0.619c2.275 2.687 3.531 6.112 3.531 9.644 0 8.238-6.7 14.931-14.931 14.931-1.144 0-2.25-0.131-3.319-0.375 3.106-0.113 4.706-1.419 5.531-2.663 2.144-3.238 0.856-8.681-1.444-12.162-2.238-3.388-3.619-8.5-1.762-11.294 1.269-1.913 3.844-2.519 7.656-1.8 0.006 0 0.012 0 0.019 0 1.063 0.531 2.069 1.194 2.981 1.975 0.181 0.156 0.462 0.138 0.619-0.050s0.137-0.463-0.050-0.619c-2.844-2.419-6.475-3.756-10.231-3.756-8.719 0-15.813 7.094-15.813 15.813s7.094 15.813 15.813 15.813c8.719 0 15.813-7.094 15.813-15.813 0-3.738-1.331-7.369-3.744-10.213zM1.069 15.938c0-8.238 6.694-14.931 14.931-14.931 1.194 0 2.369 0.144 3.512 0.419-2.956 0.094-4.469 1.306-5.244 2.469-2.088 3.144-0.694 8.55 1.763 12.262 2.175 3.294 3.313 8.381 1.444 11.194-1.344 2.025-4.119 2.719-8.037 2-4.95-2.431-8.369-7.531-8.369-13.412z"></path>
<path id="svg-ico" fill="#ee5586" d="M10.869 24.994c1.213 0 2.2-0.988 2.2-2.194 0-1.212-0.988-2.194-2.2-2.194s-2.194 0.988-2.194 2.194c0 1.206 0.988 2.194 2.194 2.194zM10.869 21.475c0.725 0 1.319 0.594 1.319 1.319s-0.594 1.319-1.319 1.319c-0.725 0-1.319-0.594-1.319-1.319 0.006-0.725 0.594-1.319 1.319-1.319z"></path>
<path id="svg-ico" fill="#ee5586" d="M19.381 9.15c0 1.213 0.981 2.2 2.194 2.2s2.2-0.988 2.2-2.2c0-1.213-0.988-2.194-2.2-2.194-1.206 0-2.194 0.981-2.194 2.194zM22.894 9.15c0 0.725-0.594 1.319-1.319 1.319s-1.313-0.594-1.313-1.319c0-0.725 0.587-1.319 1.313-1.319s1.319 0.594 1.319 1.319z"></path>
</svg>
