<!-- Generated by IcoMoon.io -->
<svg version="1.1" xmlns="http://www.w3.org/2000/svg" width="32" height="32" viewBox="0 0 32 32">
<title>dvd</title>
<path id="svg-ico" fill="#ee5586" d="M15.95 23.694c-0.238 0-0.425-0.194-0.425-0.425 0-0.238 0.194-0.425 0.425-0.425 3.813 0 6.919-3.106 6.919-6.919 0-0.238 0.194-0.425 0.425-0.425s0.425 0.194 0.425 0.425c0.006 4.281-3.481 7.769-7.769 7.769z"></path>
<path fill="#5e686c" d="M15.95 31.813c-8.762 0-15.887-7.125-15.887-15.887 0-8.119 6.075-14.906 14.131-15.794 0.225-0.025 0.444 0.144 0.469 0.375 0.025 0.238-0.144 0.444-0.375 0.469-7.625 0.837-13.375 7.262-13.375 14.944 0 8.287 6.744 15.037 15.037 15.037 8.287 0 15.037-6.744 15.037-15.037 0-7.681-5.75-14.106-13.375-14.944-0.238-0.025-0.406-0.238-0.375-0.469 0.025-0.237 0.238-0.4 0.469-0.375 8.056 0.887 14.131 7.675 14.131 15.794 0 8.762-7.125 15.887-15.887 15.887z"></path>
<path id="svg-ico" fill="#ee5586" d="M15.95 20.6c-2.581 0-4.681-2.1-4.681-4.681s2.1-4.681 4.681-4.681 4.681 2.1 4.681 4.681c0 2.588-2.1 4.681-4.681 4.681zM15.95 12.1c-2.106 0-3.825 1.719-3.825 3.825s1.719 3.825 3.825 3.825c2.106 0 3.825-1.719 3.825-3.825 0-2.113-1.712-3.825-3.825-3.825z"></path>
</svg>
