<!-- Generated by IcoMoon.io -->
<svg version="1.1" xmlns="http://www.w3.org/2000/svg" width="32" height="32" viewBox="0 0 32 32">
<title>ecommerce</title>
<path fill="#5e686b" d="M31.706 12.306c0-0.031 0-0.056-0.006-0.075l-1.85-11.069c-0.075-0.469-0.488-0.819-0.962-0.819h-25.831c-0.481 0-0.888 0.344-0.962 0.819l-1.863 11.225c0 1.456 0.688 2.831 1.844 3.713v14.738c0 0.538 0.438 0.975 0.975 0.975h25.831c0.538 0 0.975-0.438 0.975-0.975v-14.75c1.1-0.85 1.756-2.131 1.819-3.569 0.012-0.044 0.025-0.094 0.025-0.131 0.012-0.025 0.006-0.056 0.006-0.081zM24.219 30.962h-5.425v-9.119h5.425v9.119zM28.887 30.962h-3.813v-9.544c0-0.238-0.194-0.431-0.431-0.431h-6.281c-0.238 0-0.431 0.194-0.431 0.431v9.544h-14.875c-0.069 0-0.119-0.050-0.119-0.119v-14.288c0.031 0.012 0.056 0.025 0.087 0.038 0.263 0.125 0.5 0.231 0.55 0.25 0.494 0.144 0.912 0.212 1.325 0.212 1.45 0 2.813-0.681 3.688-1.813 0.881 1.131 2.238 1.813 3.694 1.813s2.813-0.681 3.688-1.813c0.875 1.131 2.237 1.813 3.694 1.813 1.45 0 2.813-0.681 3.688-1.813 0.881 1.131 2.238 1.813 3.694 1.813 0.413 0 0.837-0.069 1.363-0.225 0.012-0.006 0.206-0.094 0.444-0.206 0.056-0.025 0.113-0.050 0.169-0.081v14.294c-0.006 0.069-0.063 0.125-0.131 0.125zM30.837 12.369c0 0.019-0.006 0.037-0.006 0.050-0.031 1.256-0.619 2.375-1.613 3.081-0.087 0.044-0.281 0.131-0.75 0.35-0.194 0.094-0.363 0.169-0.356 0.169 0 0 0 0 0 0-0.406 0.119-0.75 0.181-1.081 0.181-1.369 0-2.637-0.744-3.319-1.938-0.075-0.131-0.219-0.219-0.375-0.219s-0.294 0.081-0.375 0.219c-0.681 1.194-1.95 1.938-3.319 1.938s-2.637-0.744-3.319-1.938c-0.15-0.269-0.594-0.269-0.744 0-0.675 1.194-1.95 1.938-3.319 1.938s-2.637-0.744-3.319-1.938c-0.15-0.269-0.594-0.269-0.744 0-0.675 1.194-1.95 1.938-3.313 1.938-0.325 0-0.669-0.056-1.038-0.156-0.031-0.012-0.244-0.113-0.475-0.225-0.25-0.119-0.525-0.244-0.656-0.306-1.025-0.719-1.637-1.881-1.644-3.056l1.863-11.156c0.013-0.063 0.056-0.1 0.119-0.1h25.831c0.056 0 0.106 0.044 0.119 0.1l1.837 11.012c-0.006 0.019-0.006 0.037-0.006 0.056z"></path>
<path id="svg-ico" fill="#ee5586" d="M13.581 20.988h-6.287c-0.237 0-0.431 0.194-0.431 0.431v6.281c0 0.238 0.194 0.431 0.431 0.431h6.281c0.238 0 0.431-0.194 0.431-0.431v-6.281c0-0.238-0.188-0.431-0.425-0.431zM13.15 27.269h-5.425v-5.419h5.425v5.419z"></path>
</svg>
