<!-- Generated by IcoMoon.io -->
<svg version="1.1" xmlns="http://www.w3.org/2000/svg" width="32" height="32" viewBox="0 0 32 32">
<title>editable</title>
<path fill="#5e686c" d="M27.306 21.806c-0.238 0-0.425-0.188-0.425-0.425v-1.025c0-4.956-3.175-9.162-7.894-10.469-0.225-0.063-0.356-0.294-0.294-0.525 0.063-0.225 0.3-0.356 0.525-0.294 5.094 1.406 8.519 5.944 8.519 11.287v1.025c-0.006 0.231-0.194 0.425-0.431 0.425z"></path>
<path fill="#5e686c" d="M4.737 21.806c-0.237 0-0.425-0.188-0.425-0.425v-1.025c0-5.225 3.5-9.869 8.519-11.287 0.225-0.063 0.463 0.069 0.525 0.294s-0.069 0.463-0.294 0.525c-4.65 1.313-7.9 5.619-7.9 10.469v1.025c0 0.231-0.194 0.425-0.425 0.425z"></path>
<path id="svg-ico" fill="#ee5586" d="M12.944 8.469h-6.156c-0.237 0-0.425-0.188-0.425-0.425s0.188-0.425 0.425-0.425h6.156c0.238 0 0.425 0.188 0.425 0.425s-0.194 0.425-0.425 0.425z"></path>
<path id="svg-ico" fill="#ee5586" d="M25.256 8.469h-6.156c-0.238 0-0.425-0.188-0.425-0.425s0.188-0.425 0.425-0.425h6.156c0.238 0 0.425 0.188 0.425 0.425s-0.194 0.425-0.425 0.425z"></path>
<path id="svg-ico" fill="#ee5586" d="M3.706 11.438c-1.869 0-3.394-1.519-3.394-3.394s1.525-3.394 3.394-3.394 3.394 1.525 3.394 3.394c0.006 1.875-1.519 3.394-3.394 3.394zM3.706 5.494c-1.406 0-2.55 1.144-2.55 2.55s1.144 2.55 2.55 2.55c1.406 0 2.55-1.144 2.55-2.55s-1.144-2.55-2.55-2.55z"></path>
<path id="svg-ico" fill="#ee5586" d="M28.331 11.438c-1.875 0-3.394-1.525-3.394-3.394 0-1.875 1.525-3.394 3.394-3.394 1.875 0 3.394 1.525 3.394 3.394 0.006 1.875-1.519 3.394-3.394 3.394zM28.331 5.494c-1.406 0-2.55 1.144-2.55 2.55s1.144 2.55 2.55 2.55 2.55-1.144 2.55-2.55-1.144-2.55-2.55-2.55z"></path>
<path fill="#5e686c" d="M7.706 27.856h-5.944c-0.238 0-0.425-0.188-0.425-0.425v-5.944c0-0.238 0.188-0.425 0.425-0.425h5.944c0.237 0 0.425 0.188 0.425 0.425v5.944c0 0.238-0.188 0.425-0.425 0.425zM2.188 27.006h5.094v-5.094h-5.094v5.094z"></path>
<path fill="#5e686c" d="M30.281 27.856h-5.944c-0.238 0-0.425-0.188-0.425-0.425v-5.944c0-0.238 0.188-0.425 0.425-0.425h5.944c0.238 0 0.425 0.188 0.425 0.425v5.944c-0.006 0.238-0.194 0.425-0.425 0.425zM24.756 27.006h5.094v-5.094h-5.094v5.094z"></path>
<path fill="#5e686c" d="M18.994 11.438h-5.944c-0.238 0-0.425-0.188-0.425-0.425v-5.944c0-0.237 0.188-0.425 0.425-0.425h5.944c0.238 0 0.425 0.188 0.425 0.425v5.944c0 0.238-0.194 0.425-0.425 0.425zM13.475 10.588h5.094v-5.094h-5.094v5.094z"></path>
</svg>
