<!-- Generated by IcoMoon.io -->
<svg version="1.1" xmlns="http://www.w3.org/2000/svg" width="32" height="32" viewBox="0 0 32 32">
<title>emailopen</title>
<path fill="#5e686c" d="M29.637 31.856h-27.244c-1.025 0-1.856-0.831-1.856-1.856v-17.925c0-1.019 0.831-1.856 1.856-1.856 0.237 0 0.425 0.188 0.425 0.425s-0.188 0.425-0.425 0.425c-0.556 0-1.006 0.45-1.006 1v17.931c0 0.556 0.45 1.006 1.006 1.006h27.244c0.556 0 1.006-0.45 1.006-1.006v-17.925c0-0.55-0.45-1-1.006-1-0.238 0-0.425-0.188-0.425-0.425s0.188-0.425 0.425-0.425c1.025 0 1.856 0.831 1.856 1.856v17.931c0 1.012-0.837 1.844-1.856 1.844z"></path>
<path fill="#5e686c" d="M1.681 31.144c-0.094 0-0.181-0.031-0.262-0.087-0.188-0.144-0.219-0.413-0.075-0.594l10.037-12.906c0.144-0.181 0.412-0.219 0.594-0.075 0.188 0.144 0.219 0.413 0.075 0.594l-10.037 12.906c-0.081 0.106-0.206 0.163-0.331 0.163z"></path>
<path fill="#5e686c" d="M30.35 31.144c-0.125 0-0.25-0.056-0.337-0.163l-10.031-12.906c-0.144-0.188-0.113-0.45 0.075-0.594 0.181-0.144 0.45-0.113 0.594 0.075l10.037 12.9c0.144 0.188 0.113 0.45-0.075 0.594-0.081 0.063-0.169 0.094-0.262 0.094z"></path>
<path id="svg-ico" fill="#ee5586" d="M16.012 21.106c-0.088 0-0.175-0.025-0.25-0.081l-13.619-10.037c-0.188-0.137-0.231-0.406-0.087-0.594 0.138-0.188 0.406-0.231 0.594-0.088l13.369 9.85 13.369-9.85c0.188-0.137 0.456-0.1 0.594 0.088s0.1 0.456-0.087 0.594l-13.625 10.037c-0.075 0.056-0.169 0.081-0.256 0.081z"></path>
<path id="svg-ico" fill="#ee5586" d="M29.631 11.075c-0.087 0-0.175-0.025-0.25-0.081l-13.369-9.856-13.363 9.85c-0.188 0.137-0.456 0.1-0.594-0.088s-0.1-0.456 0.087-0.594l13.619-10.037c0.15-0.112 0.356-0.112 0.506 0l13.619 10.037c0.188 0.137 0.231 0.406 0.087 0.594-0.081 0.113-0.212 0.175-0.344 0.175z"></path>
</svg>
