<!-- Generated by IcoMoon.io -->
<svg version="1.1" xmlns="http://www.w3.org/2000/svg" width="32" height="32" viewBox="0 0 32 32">
<title>empty</title>
<path id="svg-ico" fill="#ee5586" d="M28.244 19.944c-0.238 0-0.425-0.188-0.425-0.425s0.188-0.425 0.425-0.425c1.45 0 2.625-1.175 2.625-2.625s-1.175-2.625-2.625-2.625c-0.238 0-0.425-0.188-0.425-0.425s0.188-0.425 0.425-0.425c1.919 0 3.475 1.556 3.475 3.475 0 1.913-1.563 3.475-3.475 3.475z"></path>
<path fill="#5e686c" d="M25.194 25.025h-17.288c-0.237 0-0.425-0.188-0.425-0.425s0.188-0.425 0.425-0.425h16.863v-15.419h-16.863c-0.237 0-0.425-0.188-0.425-0.425s0.188-0.425 0.425-0.425h17.288c0.238 0 0.425 0.187 0.425 0.425v16.269c0 0.238-0.194 0.425-0.425 0.425z"></path>
<path fill="#5e686c" d="M4.856 25.025h-4.069c-0.238 0-0.425-0.188-0.425-0.425v-16.269c0-0.238 0.187-0.425 0.425-0.425h4.069c0.237 0 0.425 0.187 0.425 0.425v16.269c0 0.238-0.188 0.425-0.425 0.425zM1.212 24.175h3.219v-15.419h-3.219c0 0 0 15.419 0 15.419z"></path>
</svg>
