<!-- Generated by IcoMoon.io -->
<svg version="1.1" xmlns="http://www.w3.org/2000/svg" width="32" height="32" viewBox="0 0 32 32">
<title>energy</title>
<path fill="#5e686c" d="M16.212 16.675c-1.162 0-2.113-0.95-2.113-2.113 0-1.169 0.95-2.113 2.113-2.113s2.113 0.95 2.113 2.113c0 1.162-0.95 2.113-2.113 2.113zM16.212 13.287c-0.7 0-1.269 0.569-1.269 1.269s0.569 1.269 1.269 1.269c0.7 0 1.269-0.569 1.269-1.269 0-0.694-0.569-1.269-1.269-1.269z"></path>
<path fill="#5e686c" d="M19.363 31.656h-6.3c-0.119 0-0.238-0.050-0.319-0.144s-0.119-0.212-0.106-0.331l1.575-13.125c0.025-0.231 0.244-0.394 0.469-0.369 0.231 0.025 0.4 0.238 0.369 0.469l-1.512 12.656h5.344l-1.519-12.65c-0.025-0.231 0.137-0.444 0.369-0.469 0.225-0.031 0.444 0.137 0.469 0.369l1.575 13.125c0.012 0.119-0.025 0.238-0.1 0.331-0.075 0.087-0.194 0.137-0.313 0.137z"></path>
<path id="svg-ico" fill="#ee5586" d="M27.044 22.212v0c-0.194 0-0.387-0.031-0.575-0.1l-7.725-3.575h-4.894c-1.981 0.913-7.862 3.563-7.862 3.563-0.9 0.325-1.656-0.038-2.050-0.738-0.4-0.712-0.244-1.594 0.375-2.15 0.088-0.069 5.094-3.569 6.8-4.838l2.787-3.888c0.050-0.669 0.275-3.575 0.675-8.656 0.156-0.863 0.85-1.462 1.644-1.462 0.806 0 1.481 0.581 1.637 1.413 0.406 5.119 0.631 8.025 0.681 8.7l2.788 3.887c1.706 1.269 6.706 4.769 6.756 4.806 0.656 0.581 0.813 1.469 0.413 2.181-0.306 0.538-0.844 0.856-1.45 0.856zM13.756 17.688h5.081c0.063 0 0.125 0.012 0.175 0.038l7.775 3.6c0.056 0.019 0.156 0.038 0.256 0.038 0.3 0 0.563-0.156 0.712-0.419 0.2-0.363 0.119-0.819-0.2-1.106-0.012-0.006-5.125-3.587-6.794-4.825-0.038-0.025-0.063-0.056-0.087-0.094l-2.9-4.037c-0.050-0.069-0.081-0.156-0.081-0.244-0.012-0.175-0.45-5.794-0.681-8.738-0.075-0.381-0.406-0.681-0.8-0.681s-0.731 0.3-0.806 0.725c-0.225 2.9-0.669 8.519-0.675 8.713-0.006 0.081-0.031 0.162-0.081 0.231l-2.894 4.037c-0.025 0.037-0.056 0.069-0.088 0.094-1.669 1.237-6.787 4.812-6.838 4.85-0.281 0.256-0.362 0.712-0.156 1.075 0.194 0.35 0.619 0.5 1 0.369 0 0 6.019-2.712 7.906-3.587 0.050-0.019 0.113-0.038 0.175-0.038z"></path>
</svg>
