<!-- Generated by IcoMoon.io -->
<svg version="1.1" xmlns="http://www.w3.org/2000/svg" width="32" height="32" viewBox="0 0 32 32">
<title>euro</title>
<path fill="#5e686c" d="M18.131 31.75c-5.65 0-10.244-4.594-10.244-10.238v-11.088c0-5.65 4.594-10.244 10.244-10.244 4.275 0 8.137 2.719 9.606 6.775 0.081 0.225-0.038 0.481-0.262 0.563s-0.475-0.037-0.563-0.263c-1.344-3.706-4.869-6.194-8.781-6.194-5.169 0-9.369 4.2-9.369 9.369v11.081c0 5.162 4.2 9.363 9.369 9.363 3.913 0 7.438-2.488 8.781-6.194 0.081-0.225 0.337-0.344 0.563-0.262s0.344 0.331 0.262 0.563c-1.469 4.050-5.325 6.769-9.606 6.769z"></path>
<path id="svg-ico" fill="#ee5586" d="M23.656 14.575h-19.031c-0.244 0-0.438-0.194-0.438-0.438s0.194-0.438 0.438-0.438h19.031c0.244 0 0.438 0.194 0.438 0.438s-0.194 0.438-0.438 0.438z"></path>
<path id="svg-ico" fill="#ee5586" d="M23.656 18.231h-19.031c-0.244 0-0.438-0.194-0.438-0.438s0.194-0.438 0.438-0.438h19.031c0.244 0 0.438 0.194 0.438 0.438s-0.194 0.438-0.438 0.438z"></path>
</svg>
