<!-- Generated by IcoMoon.io -->
<svg version="1.1" xmlns="http://www.w3.org/2000/svg" width="32" height="32" viewBox="0 0 32 32">
<title>favorite</title>
<path fill="#5e686c" d="M16.006 29.981c-0.131 0-0.256-0.056-0.344-0.169-0.144-0.188-0.106-0.456 0.081-0.6 0.15-0.119 15.219-11.756 15.219-18.194 0-5.506-2.456-7.963-7.963-7.963-2.675 0-5.156 1.331-6.637 3.563-0.131 0.2-0.4 0.25-0.594 0.119-0.2-0.131-0.25-0.4-0.119-0.594 1.644-2.469 4.388-3.944 7.35-3.944 5.938 0 8.825 2.887 8.825 8.825 0 6.856-14.925 18.387-15.556 18.875-0.081 0.056-0.169 0.081-0.262 0.081z"></path>
<path id="svg-ico" fill="#ee5586" d="M16.006 29.981c-0.088 0-0.181-0.025-0.256-0.087-0.637-0.469-15.563-11.65-15.563-18.875 0-7.775 4.463-8.825 8.825-8.825 2.963 0 5.713 1.475 7.35 3.944 0.131 0.2 0.075 0.463-0.119 0.594-0.2 0.131-0.463 0.075-0.594-0.119-1.481-2.231-3.963-3.563-6.637-3.563-4.138 0.006-7.969 0.969-7.969 7.969 0 6.8 15.063 18.081 15.219 18.194 0.188 0.144 0.231 0.413 0.087 0.6-0.081 0.113-0.212 0.169-0.344 0.169z"></path>
</svg>
