<!-- Generated by IcoMoon.io -->
<svg version="1.1" xmlns="http://www.w3.org/2000/svg" width="32" height="32" viewBox="0 0 32 32">
<title>financial</title>
<path fill="#5e686b" d="M29.637 4.963c-0.238 0-0.425 0.188-0.425 0.425v15.394c0 0.262-0.212 0.481-0.481 0.481h-25.35c-0.263 0-0.481-0.212-0.481-0.481v-15.394c0-0.237-0.188-0.425-0.425-0.425s-0.425 0.188-0.425 0.425v15.394c0 0.731 0.6 1.331 1.331 1.331h25.35c0.731 0 1.331-0.6 1.331-1.331v-15.394c0-0.237-0.188-0.425-0.425-0.425z"></path>
<path fill="#5e686b" d="M31.45 1.394h-30.781c-0.237 0-0.425 0.188-0.425 0.425s0.188 0.425 0.425 0.425h30.781c0.238 0 0.425-0.188 0.425-0.425s-0.188-0.425-0.425-0.425z"></path>
<path id="svg-ico" fill="#ee5586" d="M12.738 9.613c-0.156-0.156-0.406-0.169-0.575-0.025l-5.431 4.525c-0.181 0.15-0.206 0.419-0.056 0.6s0.419 0.206 0.6 0.056l5.131-4.275 5.156 5.156c0.081 0.081 0.188 0.125 0.3 0.125s0.219-0.044 0.3-0.125l6.525-6.519v3.5c0 0.238 0.188 0.425 0.425 0.425s0.425-0.188 0.425-0.425v-4.525c0-0.012 0-0.019 0-0.031 0-0.006 0-0.006 0-0.012 0-0.012 0-0.019-0.006-0.031 0-0.006 0-0.006 0-0.012 0-0.012-0.006-0.019-0.006-0.031 0 0 0-0.006 0-0.006 0-0.013-0.006-0.019-0.012-0.031 0 0 0-0.006-0.006-0.006-0.006-0.013-0.006-0.019-0.012-0.031 0 0 0-0.006-0.006-0.006-0.006-0.013-0.012-0.019-0.019-0.031 0 0 0 0 0-0.006-0.031-0.050-0.075-0.088-0.119-0.119 0 0-0.006 0-0.006-0.006-0.006-0.006-0.019-0.013-0.031-0.019-0.006 0-0.006-0.006-0.012-0.006-0.006-0.006-0.019-0.006-0.025-0.013-0.006 0-0.006-0.006-0.012-0.006-0.006-0.006-0.019-0.006-0.025-0.006s-0.012 0-0.012-0.006c-0.006 0-0.019-0.006-0.025-0.006s-0.012 0-0.019 0c-0.006 0-0.012 0-0.025-0.006-0.012 0-0.025 0-0.038 0 0 0 0 0 0 0h-4.525c-0.238 0-0.425 0.188-0.425 0.425s0.188 0.425 0.425 0.425h3.5l-6.212 6.213-5.144-5.125z"></path>
<path fill="#5e686b" d="M22.594 30.363l-6.113-3.2v-2.956c0-0.238-0.188-0.425-0.425-0.425s-0.425 0.188-0.425 0.425v2.956l-6.113 3.2c-0.206 0.113-0.287 0.369-0.181 0.575s0.369 0.288 0.575 0.181l6.144-3.219 6.137 3.219c0.063 0.031 0.131 0.050 0.2 0.050 0.15 0 0.3-0.081 0.375-0.225 0.113-0.219 0.031-0.475-0.175-0.581z"></path>
</svg>
