<!-- Generated by IcoMoon.io -->
<svg version="1.1" xmlns="http://www.w3.org/2000/svg" width="32" height="32" viewBox="0 0 32 32">
<title>firewall</title>
<path fill="#5e686c" d="M31.244 1.281h-30.569c-0.231 0-0.419-0.188-0.419-0.419s0.188-0.419 0.419-0.419h30.569c0.231 0 0.419 0.188 0.419 0.419s-0.188 0.419-0.419 0.419z"></path>
<path fill="#5e686c" d="M31.244 23.9h-30.569c-0.231 0-0.419-0.188-0.419-0.419s0.188-0.419 0.419-0.419h30.569c0.231 0 0.419 0.188 0.419 0.419s-0.188 0.419-0.419 0.419z"></path>
<path fill="#5e686c" d="M31.244 31.3h-30.569c-0.231 0-0.419-0.188-0.419-0.419s0.188-0.419 0.419-0.419h30.569c0.231 0 0.419 0.188 0.419 0.419s-0.188 0.419-0.419 0.419z"></path>
<path fill="#5e686c" d="M23.188 8.825c-0.231 0-0.419-0.188-0.419-0.419v-7.537c0-0.231 0.188-0.419 0.419-0.419s0.419 0.188 0.419 0.419v7.537c-0.006 0.231-0.194 0.419-0.419 0.419z"></path>
<path fill="#5e686c" d="M8.075 8.819c-0.231 0-0.419-0.188-0.419-0.419v-7.531c0-0.231 0.188-0.419 0.419-0.419s0.419 0.188 0.419 0.419v7.537c-0.006 0.231-0.188 0.412-0.419 0.412z"></path>
<path fill="#5e686c" d="M14.325 31.3c-0.231 0-0.419-0.188-0.419-0.419v-7.331c0-0.231 0.188-0.419 0.419-0.419s0.419 0.188 0.419 0.419v7.338c0 0.231-0.188 0.413-0.419 0.413z"></path>
<path fill="#5e686c" d="M28.394 31.3c-0.231 0-0.419-0.188-0.419-0.419v-7.331c0-0.231 0.188-0.419 0.419-0.419s0.419 0.188 0.419 0.419v7.338c0 0.231-0.188 0.413-0.419 0.413z"></path>
<path fill="#5e686c" d="M20.194 23.931c-0.231 0-0.419-0.188-0.419-0.419v-7.531c0-0.231 0.188-0.419 0.419-0.419s0.419 0.188 0.419 0.419v7.537c0 0.231-0.188 0.413-0.419 0.413z"></path>
<path fill="#5e686c" d="M4.494 23.931c-0.231 0-0.419-0.188-0.419-0.419v-7.531c0-0.231 0.188-0.419 0.419-0.419s0.419 0.188 0.419 0.419v7.537c0 0.231-0.188 0.413-0.419 0.413z"></path>
<path id="svg-ico" fill="#ee5586" d="M31.244 8.819h-30.569c-0.231 0-0.419-0.188-0.419-0.419s0.188-0.419 0.419-0.419h30.569c0.231 0 0.419 0.187 0.419 0.419s-0.188 0.419-0.419 0.419z"></path>
<path id="svg-ico" fill="#ee5586" d="M31.244 16.363h-30.569c-0.231 0-0.419-0.188-0.419-0.419s0.188-0.419 0.419-0.419h30.569c0.231 0 0.419 0.188 0.419 0.419s-0.188 0.419-0.419 0.419z"></path>
<path id="svg-ico" fill="#ee5586" d="M15.544 16.363c-0.231 0-0.419-0.188-0.419-0.419v-7.537c0-0.231 0.188-0.419 0.419-0.419s0.419 0.187 0.419 0.419v7.537c-0.006 0.231-0.188 0.419-0.419 0.419z"></path>
<path id="svg-ico" fill="#ee5586" d="M26.1 16.363c-0.231 0-0.419-0.188-0.419-0.419v-7.537c0-0.231 0.188-0.419 0.419-0.419s0.419 0.187 0.419 0.419v7.537c0 0.231-0.188 0.419-0.419 0.419z"></path>
</svg>
