<!-- Generated by IcoMoon.io -->
<svg version="1.1" xmlns="http://www.w3.org/2000/svg" width="32" height="32" viewBox="0 0 32 32">
<title>frequency</title>
<path fill="#5e686b" d="M22.788 31.406c0 0 0.006-0.006 0.006-0.006 0.006-0.006 0.012-0.019 0.019-0.025 0 0 0-0.006 0.006-0.006 0.006-0.006 0.012-0.019 0.012-0.025 0 0 0-0.006 0.006-0.006 0.006-0.006 0.006-0.019 0.006-0.025s0.006-0.006 0.006-0.012c0-0.006 0.006-0.012 0.006-0.019s0.006-0.012 0.006-0.019c0-0.006 0-0.006 0-0.012 0-0.012 0.006-0.019 0.006-0.031 0 0 0-0.006 0-0.006 0-0.012 0-0.025 0-0.038 0 0 0 0 0 0s0 0 0-0.006c0-0.012 0-0.025 0-0.038 0-0.006 0-0.006 0-0.012 0-0.012 0-0.019-0.006-0.031 0-0.006 0-0.006 0-0.012s0-0.012-0.006-0.019l-5.456-19.35c1.356-0.412 2.344-1.675 2.344-3.162 0-1.825-1.488-3.306-3.306-3.306-1.825 0-3.306 1.487-3.306 3.306 0 1.525 1.037 2.813 2.444 3.188l-5.481 19.319c0 0.006 0 0.006 0 0.012s-0.006 0.019-0.006 0.025c0 0.006 0 0.012 0 0.019s0 0.012 0 0.025c0 0.006 0 0.012 0 0.019s0 0.012 0 0.012c0 0 0 0.006 0 0.006 0 0.006 0 0.012 0 0.019s0 0.012 0 0.025c0 0.006 0 0.006 0 0.012 0 0.012 0 0.019 0.006 0.031 0 0 0 0 0 0 0.019 0.094 0.075 0.175 0.144 0.231 0 0 0.006 0 0.006 0.006 0.006 0.006 0.019 0.012 0.025 0.019 0.006 0 0.006 0.006 0.012 0.006 0.006 0.006 0.012 0.012 0.025 0.012 0.006 0 0.012 0.006 0.012 0.006 0.006 0.006 0.012 0.006 0.019 0.012 0.006 0 0.012 0.006 0.019 0.006s0.012 0.006 0.019 0.006c0 0 0.006 0 0.006 0 0.006 0 0.006 0 0.012 0 0.012 0 0.025 0.006 0.037 0.006 0.006 0 0.012 0 0.012 0 0.019 0 0.031 0.006 0.050 0.006h11.969c0.019 0 0.031 0 0.050-0.006 0.006 0 0.006 0 0.012 0 0.012 0 0.025-0.006 0.038-0.006 0 0 0.006 0 0.006 0s0.006 0 0.006 0 0.012-0.006 0.025-0.006c0.006 0 0.012-0.006 0.019-0.006s0.012-0.006 0.019-0.012c0.006 0 0.012-0.006 0.019-0.006 0.006-0.006 0.012-0.006 0.019-0.012s0.012-0.006 0.019-0.012c0.006-0.006 0.012-0.006 0.019-0.012s0.012-0.006 0.012-0.012 0.012-0.012 0.019-0.012c0.006-0.006 0.006-0.006 0.012-0.012s0.012-0.012 0.019-0.019c0-0.006 0.006-0.006 0.006-0.012-0.006-0.006 0-0.012 0.006-0.019zM13.363 22.531h6.225l2.319 8.219h-10.875l2.331-8.219zM13.95 8.537c0-1.369 1.113-2.481 2.481-2.481s2.481 1.112 2.481 2.481c0 1.369-1.113 2.481-2.481 2.481s-2.481-1.113-2.481-2.481zM16.425 11.844c0.050 0 0.094 0 0.144-0.006l2.781 9.863h-5.756l2.794-9.863c0.019 0.006 0.025 0.006 0.038 0.006z"></path>
<path id="svg-ico" fill="#ee5586" d="M11.881 13.719c0.106 0 0.213-0.037 0.294-0.119 0.162-0.162 0.162-0.425 0-0.588-2.325-2.325-2.325-6.4 0-8.725 0.162-0.162 0.162-0.425 0-0.587s-0.425-0.163-0.588 0c-2.681 2.681-2.681 7.213 0 9.894 0.081 0.081 0.188 0.125 0.294 0.125z"></path>
<path id="svg-ico" fill="#ee5586" d="M9.156 0.7c-0.162-0.162-0.425-0.162-0.588 0-4.456 4.456-4.456 11.438 0 15.9 0.081 0.081 0.188 0.119 0.294 0.119s0.213-0.038 0.294-0.119c0.162-0.163 0.162-0.425 0-0.587-4.131-4.131-4.131-10.6 0-14.725 0.162-0.163 0.162-0.425 0-0.588z"></path>
<path id="svg-ico" fill="#ee5586" d="M20.456 3.706c-0.163 0.163-0.163 0.425 0 0.588 2.325 2.325 2.325 6.4 0 8.725-0.163 0.162-0.163 0.425 0 0.588 0.081 0.081 0.188 0.119 0.294 0.119s0.212-0.037 0.294-0.119c2.681-2.681 2.681-7.213 0-9.894-0.169-0.169-0.431-0.169-0.587-0.006z"></path>
<path id="svg-ico" fill="#ee5586" d="M24.056 0.7c-0.163-0.162-0.425-0.162-0.587 0s-0.163 0.425 0 0.588c4.131 4.131 4.131 10.6 0 14.731-0.163 0.163-0.163 0.425 0 0.587 0.081 0.081 0.188 0.119 0.294 0.119s0.212-0.038 0.294-0.119c4.456-4.463 4.456-11.444 0-15.906z"></path>
</svg>
