<!-- Generated by IcoMoon.io -->
<svg version="1.1" xmlns="http://www.w3.org/2000/svg" width="32" height="32" viewBox="0 0 32 32">
<title>gift</title>
<path fill="#5e686b" d="M27.631 12.975h-23.25c-0.244 0-0.438 0.2-0.438 0.438v17.962c0 0.244 0.2 0.438 0.438 0.438h23.25c0.244 0 0.438-0.2 0.438-0.438v-17.962c0-0.244-0.194-0.438-0.438-0.438zM27.188 21.956h-10.738v-8.106h10.738v8.106zM15.569 13.85v8.1h-10.75v-8.1h10.75zM4.819 22.837h10.744v8.1h-10.744v-8.1zM16.45 30.938v-8.1h10.738v8.1h-10.738z"></path>
<path id="svg-ico" fill="#ee5586" d="M30.1 8.569h-5.425c0.694-0.9 1.069-2 1.069-3.156 0-2.862-2.331-5.194-5.194-5.194-2.337 0-4.25 1.587-4.819 3.806-0.725-1.063-1.95-1.756-3.331-1.756-2.225 0-4.031 1.813-4.031 4.031 0 0.819 0.25 1.606 0.7 2.269h-7.15c-0.244 0-0.438 0.2-0.438 0.438s0.2 0.438 0.438 0.438h28.181c0.244 0 0.438-0.2 0.438-0.438s-0.194-0.438-0.438-0.438zM20.544 1.1c2.381 0 4.313 1.938 4.313 4.313 0 1.15-0.45 2.231-1.256 3.044-0.031 0.031-0.063 0.069-0.081 0.113h-7.087v-2.269c0 0 0 0 0 0s0 0 0 0v-0.888c0 0 0 0 0 0 0-2.462 1.769-4.313 4.113-4.313zM9.244 6.3c0-1.737 1.412-3.15 3.15-3.15s3.15 1.413 3.15 3.15v2.275h-5.338c-0.613-0.6-0.963-1.419-0.963-2.275z"></path>
</svg>
