<!-- Generated by IcoMoon.io -->
<svg version="1.1" xmlns="http://www.w3.org/2000/svg" width="32" height="32" viewBox="0 0 32 32">
<title>global</title>
<path id="svg-ico" fill="#ee5586" d="M16.006 24.569c-8.794 0-15.681-3.531-15.681-8.038l0.019-1.125c0-4.5 6.881-8.025 15.662-8.025s15.663 3.531 15.663 8.037l0.019 1.113c0 4.512-6.887 8.038-15.681 8.038zM16.006 8.256c-8.156 0-14.794 3.213-14.794 7.162l-0.019 1.125c0 3.944 6.644 7.156 14.813 7.156s14.813-3.212 14.813-7.162l-0.019-1.113c-0.006-3.956-6.637-7.169-14.794-7.169z"></path>
<path fill="#5e686c" d="M16.006 31.669c-8.644 0-15.681-7.031-15.681-15.675s7.037-15.681 15.681-15.681c8.644 0 15.681 7.031 15.681 15.681-0.006 8.644-7.038 15.675-15.681 15.675zM16.006 1.188c-8.169 0-14.806 6.638-14.806 14.806 0 8.162 6.644 14.806 14.806 14.806s14.806-6.644 14.806-14.806c0-8.169-6.644-14.806-14.806-14.806z"></path>
<path fill="#5e686c" d="M15.463 31.644c-4.506 0-8.037-6.881-8.037-15.669 0-8.781 3.531-15.662 8.037-15.662 0.244 0 0.438 0.194 0.438 0.438s-0.194 0.438-0.438 0.438c-3.95 0-7.162 6.638-7.162 14.794s3.213 14.794 7.162 14.794c0.244 0 0.438 0.194 0.438 0.438s-0.2 0.431-0.438 0.431z"></path>
<path fill="#5e686c" d="M16.887 31.625c-0.244 0-0.438-0.194-0.438-0.438s0.194-0.438 0.438-0.438c3.95 0 7.162-6.631 7.162-14.775 0-8.15-3.212-14.775-7.163-14.775-0.244 0-0.438-0.194-0.438-0.438s0.194-0.438 0.438-0.438c4.506 0 8.038 6.875 8.038 15.65s-3.531 15.65-8.038 15.65z"></path>
</svg>
