<!-- Generated by IcoMoon.io -->
<svg version="1.1" xmlns="http://www.w3.org/2000/svg" width="32" height="32" viewBox="0 0 32 32">
<title>headphones</title>
<path fill="#5e686b" d="M0.762 22.313c-0.231 0-0.419-0.188-0.419-0.419v-3.65c0-8.675 7.056-15.731 15.731-15.731s15.731 7.056 15.731 15.731v3.331c0 0.231-0.188 0.419-0.419 0.419s-0.419-0.188-0.419-0.419v-3.331c0-8.206-6.675-14.887-14.887-14.887-8.219 0-14.894 6.681-14.894 14.887v3.65c0 0.231-0.188 0.419-0.425 0.419z"></path>
<path id="svg-ico" fill="#ee5586" d="M6.487 29.156c-1.888 0-3.419-1.531-3.419-3.419v-5.531c0-1.887 1.531-3.419 3.419-3.419s3.419 1.538 3.419 3.419v5.531c0 1.887-1.531 3.419-3.419 3.419zM6.487 17.631c-1.419 0-2.575 1.156-2.575 2.581v5.531c0 1.419 1.156 2.575 2.575 2.575s2.575-1.156 2.575-2.575v-5.531c0-1.425-1.156-2.581-2.575-2.581z"></path>
<path id="svg-ico" fill="#ee5586" d="M25.656 29.156c-1.887 0-3.419-1.531-3.419-3.419v-5.531c0-1.887 1.531-3.419 3.419-3.419s3.419 1.538 3.419 3.419v5.531c0.006 1.887-1.531 3.419-3.419 3.419zM25.656 17.631c-1.419 0-2.575 1.156-2.575 2.581v5.531c0 1.419 1.156 2.575 2.575 2.575s2.575-1.156 2.575-2.575v-5.531c0.006-1.425-1.15-2.581-2.575-2.581z"></path>
</svg>
