<!-- Generated by IcoMoon.io -->
<svg version="1.1" xmlns="http://www.w3.org/2000/svg" width="32" height="32" viewBox="0 0 32 32">
<title>housebird</title>
<path fill="#5e686b" d="M31.194 15.65l-14.712-14.719c-0.156-0.156-0.425-0.156-0.581 0l-14.719 14.719c-0.163 0.162-0.163 0.419 0 0.581 0.081 0.081 0.188 0.119 0.288 0.119 0.106 0 0.212-0.038 0.288-0.119l14.431-14.431 14.425 14.425c0.163 0.163 0.419 0.163 0.581 0 0.163-0.156 0.163-0.419 0-0.575z"></path>
<path fill="#5e686b" d="M28.344 15.537c-0.219-0.050-0.444 0.081-0.494 0.3l-3.587 14.406h-3.65v-5.9c0-0.225-0.181-0.406-0.406-0.406h-8.025c-0.225 0-0.406 0.181-0.406 0.406v5.9h-3.662l-3.675-14.406c-0.056-0.219-0.281-0.35-0.5-0.294s-0.35 0.281-0.294 0.5l3.756 14.719c0 0 0 0.006 0 0.006 0.006 0.019 0.013 0.038 0.019 0.056 0 0 0 0.006 0.006 0.006 0.006 0.019 0.019 0.038 0.031 0.050 0 0 0 0 0 0.006 0.013 0.019 0.025 0.031 0.037 0.044 0 0 0.006 0.006 0.006 0.006 0.013 0.012 0.025 0.025 0.044 0.038 0 0 0.006 0.006 0.006 0.006 0.031 0.025 0.069 0.044 0.112 0.056 0 0 0.006 0 0.006 0 0.019 0.006 0.037 0.012 0.056 0.012 0.006 0 0.006 0 0.013 0 0.019 0 0.044 0.006 0.063 0.006h16.788c0.019 0 0.044 0 0.063-0.006 0.006 0 0.006 0 0.012 0 0.019-0.006 0.038-0.006 0.056-0.012 0 0 0.006 0 0.006 0 0.038-0.012 0.075-0.031 0.106-0.056 0 0 0.006-0.006 0.006-0.006 0.012-0.012 0.031-0.025 0.044-0.038 0.006-0.006 0.006-0.006 0.012-0.012 0.012-0.012 0.025-0.031 0.038-0.044 0 0 0.006-0.006 0.006-0.006 0.006-0.012 0.019-0.031 0.025-0.044 0-0.006 0.006-0.006 0.006-0.012 0.006-0.019 0.012-0.038 0.019-0.056 0 0 0-0.006 0-0.006l3.663-14.719c0.050-0.219-0.087-0.444-0.306-0.5zM12.594 24.756h7.2v5.488h-7.2v-5.488z"></path>
<path id="svg-ico" fill="#ee5586" d="M16.188 16.163c2.438 0 4.425-1.988 4.425-4.431s-1.981-4.431-4.425-4.431c-2.438 0-4.425 1.988-4.425 4.431 0.006 2.444 1.988 4.431 4.425 4.431zM16.188 8.119c1.988 0 3.606 1.619 3.606 3.612s-1.619 3.613-3.606 3.613c-1.988 0-3.606-1.619-3.606-3.613 0.006-1.994 1.619-3.613 3.606-3.613z"></path>
</svg>
