<!-- Generated by IcoMoon.io -->
<svg version="1.1" xmlns="http://www.w3.org/2000/svg" width="32" height="32" viewBox="0 0 32 32">
<title>inbox</title>
<path fill="#5e686b" d="M28.45 31.587h-24.431c-0.237 0-0.425-0.188-0.425-0.425v-22.4c0-0.238 0.188-0.425 0.425-0.425h24.431c0.238 0 0.425 0.188 0.425 0.425v22.394c0 0.238-0.188 0.431-0.425 0.431zM4.444 30.738h23.581v-21.544h-23.581v21.544z"></path>
<path id="svg-ico" fill="#ee5586" d="M25.6 5.119h-18.725c-0.237 0-0.425-0.188-0.425-0.425s0.188-0.425 0.425-0.425h18.725c0.238 0 0.425 0.188 0.425 0.425s-0.194 0.425-0.425 0.425z"></path>
<path id="svg-ico" fill="#ee5586" d="M21.344 1.050h-10.219c-0.238 0-0.425-0.188-0.425-0.425s0.188-0.425 0.425-0.425h10.212c0.238 0 0.425 0.188 0.425 0.425 0.006 0.231-0.188 0.425-0.419 0.425z"></path>
<path fill="#5e686b" d="M21.325 18.35h-10.181c-0.238 0-0.425-0.188-0.425-0.425v-2.037c0-0.238 0.188-0.425 0.425-0.425s0.425 0.188 0.425 0.425v1.612h9.331v-1.613c0-0.238 0.188-0.425 0.425-0.425s0.425 0.188 0.425 0.425v2.038c0 0.238-0.188 0.425-0.425 0.425z"></path>
</svg>
