<!-- Generated by IcoMoon.io -->
<svg version="1.1" xmlns="http://www.w3.org/2000/svg" width="32" height="32" viewBox="0 0 32 32">
<title>interface</title>
<path id="svg-ico" fill="#ee5586" d="M26.231 6.55v4.375c0 0.269 0.219 0.481 0.481 0.481 0.269 0 0.481-0.219 0.481-0.481v-5.55c0-0.269-0.219-0.481-0.481-0.481h-5.55c-0.269 0-0.481 0.219-0.481 0.481 0 0.269 0.219 0.481 0.481 0.481h4.387l-7.050 7.119h-17.65c-0.269 0-0.481 0.219-0.481 0.481v17.856c0 0.269 0.219 0.481 0.481 0.481h17.856c0.269 0 0.481-0.219 0.481-0.481v-17.656l7.044-7.106zM18.219 30.831h-16.887v-16.887h16.887v16.887z"></path>
<path fill="#5e686b" d="M31.275 0.244h-30.425c-0.269 0-0.481 0.219-0.481 0.481v9.281c0 0.269 0.219 0.481 0.481 0.481 0.269 0 0.481-0.219 0.481-0.481v-8.8h29.456v29.462h-8.162c-0.269 0-0.481 0.219-0.481 0.481s0.219 0.481 0.481 0.481h8.65c0.269 0 0.481-0.219 0.481-0.481v-30.425c0-0.269-0.212-0.481-0.481-0.481z"></path>
</svg>
