<!-- Generated by IcoMoon.io -->
<svg version="1.1" xmlns="http://www.w3.org/2000/svg" width="32" height="32" viewBox="0 0 32 32">
<title>key</title>
<path id="svg-ico" fill="#ee5586" d="M31.375 8.506l-3.875-3.875 2.837-2.837c0.163-0.163 0.163-0.419 0-0.575-0.163-0.163-0.419-0.163-0.575 0l-3.119 3.119c0 0-0.006 0.006-0.006 0.006s-0.006 0.006-0.006 0.006l-4.162 4.15c0 0-0.006 0.006-0.006 0.006s-0.006 0.006-0.006 0.006l-6.244 6.244c-0.163 0.162-0.163 0.419 0 0.575 0.081 0.081 0.181 0.119 0.288 0.119s0.206-0.037 0.288-0.119l5.962-5.963 3.881 3.881c0.081 0.081 0.181 0.119 0.288 0.119s0.206-0.037 0.288-0.119l4.169-4.169c0.163-0.156 0.163-0.412 0-0.575zM26.919 12.387l-3.587-3.588 3.587-3.594 3.587 3.588-3.587 3.594z"></path>
<path fill="#5e686b" d="M8.162 15.625c-2.075 0-4.019 0.806-5.487 2.275-1.462 1.462-2.269 3.413-2.269 5.481 0 2.075 0.806 4.019 2.275 5.488 1.462 1.469 3.413 2.275 5.487 2.275s4.019-0.806 5.488-2.275c1.469-1.469 2.275-3.413 2.275-5.488s-0.806-4.019-2.275-5.488c-1.469-1.462-3.419-2.269-5.494-2.269zM13.075 28.294c-1.313 1.313-3.056 2.031-4.906 2.031-1.856 0-3.594-0.725-4.906-2.031-1.313-1.313-2.031-3.056-2.031-4.906 0-1.856 0.725-3.594 2.031-4.906 1.313-1.313 3.056-2.038 4.906-2.038 1.856 0 3.6 0.725 4.906 2.038 1.313 1.313 2.031 3.056 2.031 4.906s-0.719 3.594-2.031 4.906z"></path>
</svg>
