<!-- Generated by IcoMoon.io -->
<svg version="1.1" xmlns="http://www.w3.org/2000/svg" width="32" height="32" viewBox="0 0 32 32">
<title>latency</title>
<path id="svg-ico" fill="#ee5586" d="M16.056 5.819c-2.569 0-4.656 2.088-4.656 4.656s2.088 4.656 4.656 4.656c2.569 0 4.656-2.088 4.656-4.656s-2.087-4.656-4.656-4.656zM16.056 14.406c-2.175 0-3.938-1.769-3.938-3.938s1.769-3.938 3.938-3.938c2.169 0 3.938 1.769 3.938 3.938s-1.769 3.938-3.938 3.938z"></path>
<path fill="#5e686b" d="M16.056 17.519c-2.569 0-4.656 2.087-4.656 4.656s2.088 4.656 4.656 4.656c2.569 0 4.656-2.087 4.656-4.656s-2.087-4.656-4.656-4.656zM16.056 26.106c-2.175 0-3.938-1.769-3.938-3.938s1.769-3.938 3.938-3.938c2.169 0 3.938 1.769 3.938 3.938 0 2.175-1.769 3.938-3.938 3.938z"></path>
<path fill="#5e686b" d="M23.581 15.425h2.919c0.119 0 0.225-0.056 0.294-0.15l5.012-7.106c0.044-0.063 0.069-0.131 0.069-0.206v-1.256c0-0.2-0.163-0.356-0.356-0.356h-7.938c-0.019 0-0.038 0-0.063 0.006v-1.319c0-1.119-0.913-2.031-2.031-2.031h-10.863c-1.119 0-2.031 0.913-2.031 2.031v1.313h-8c-0.2 0-0.356 0.162-0.356 0.356v1.256c0 0.075 0.025 0.144 0.063 0.206l5.013 7.106c0.069 0.094 0.175 0.15 0.294 0.15h2.987v2.631c-0.019-0.006-0.037-0.006-0.063-0.006h-7.938c-0.2 0-0.356 0.163-0.356 0.356v1.256c0 0.075 0.025 0.144 0.063 0.206l5.013 7.106c0.069 0.094 0.175 0.15 0.294 0.15h2.925c0.019 0 0.037 0 0.063-0.006v0.481c0 1.119 0.912 2.031 2.031 2.031h10.863c1.119 0 2.031-0.913 2.031-2.031v-0.481c0.019 0.006 0.038 0.006 0.063 0.006h2.919c0.119 0 0.225-0.056 0.294-0.15l5.012-7.106c0.044-0.063 0.069-0.131 0.069-0.206v-1.256c0-0.2-0.163-0.356-0.356-0.356h-7.938c-0.019 0-0.038 0-0.063 0.006v-2.637c0.019 0.006 0.038 0.006 0.063 0.006zM5.794 14.713l-4.838-6.862v-0.781h7.644v7.644h-2.806zM8.537 26.406h-2.744l-4.838-6.856v-0.781h7.581c0.019 0 0.037 0 0.063-0.006v7.65c-0.025 0-0.044-0.006-0.063-0.006zM22.8 27.6c0 0.725-0.587 1.313-1.313 1.313h-10.863c-0.725 0-1.313-0.587-1.313-1.313v-20.887c0 0 0 0 0 0s0 0 0 0v-1.675c0-0.725 0.588-1.313 1.313-1.313h10.863c0.725 0 1.313 0.588 1.313 1.313v22.563zM23.581 7.069h7.581v0.781l-4.844 6.862h-2.738c-0.019 0-0.038 0-0.063 0.006v-7.656c0.019 0.006 0.038 0.006 0.063 0.006zM23.581 18.769h7.581v0.781l-4.844 6.856h-2.738c-0.019 0-0.038 0-0.063 0.006v-7.65c0.019 0.006 0.038 0.006 0.063 0.006z"></path>
<path id="svg-ico" fill="#ee5586" d="M16.056 8.681c-0.988 0-1.787 0.806-1.787 1.787s0.8 1.787 1.787 1.787c0.988 0 1.788-0.806 1.788-1.787s-0.8-1.787-1.788-1.787zM16.056 11.544c-0.594 0-1.075-0.481-1.075-1.075s0.481-1.075 1.075-1.075c0.594 0 1.075 0.481 1.075 1.075s-0.481 1.075-1.075 1.075z"></path>
<path fill="#5e686b" d="M16.056 20.381c-0.988 0-1.787 0.8-1.787 1.788s0.8 1.788 1.787 1.788c0.988 0 1.788-0.8 1.788-1.788 0.006-0.988-0.8-1.788-1.788-1.788zM16.056 23.244c-0.594 0-1.075-0.481-1.075-1.075s0.481-1.075 1.075-1.075c0.594 0 1.075 0.481 1.075 1.075s-0.481 1.075-1.075 1.075z"></path>
</svg>
