<!-- Generated by IcoMoon.io -->
<svg version="1.1" xmlns="http://www.w3.org/2000/svg" width="32" height="32" viewBox="0 0 32 32">
<title>led</title>
<path id="svg-ico" fill="#ee5586" d="M24.131 8.938c-0.238 0-0.425-0.194-0.425-0.425 0-4.125-3.356-7.481-7.481-7.481s-7.488 3.35-7.488 7.475c0 0.238-0.194 0.425-0.425 0.425-0.238 0-0.425-0.194-0.425-0.425-0.006-4.594 3.737-8.338 8.338-8.338s8.337 3.744 8.337 8.338c0 0.238-0.194 0.431-0.431 0.431z"></path>
<path id="svg-ico" fill="#ee5586" d="M8.313 20.95c-0.238 0-0.425-0.194-0.425-0.425v-12.019c0-0.238 0.194-0.425 0.425-0.425 0.238 0 0.425 0.194 0.425 0.425v12.019c0 0.238-0.188 0.425-0.425 0.425z"></path>
<path id="svg-ico" fill="#ee5586" d="M24.131 20.95c-0.238 0-0.425-0.194-0.425-0.425v-12.019c0-0.238 0.194-0.425 0.425-0.425 0.238 0 0.425 0.194 0.425 0.425v12.019c0.006 0.238-0.188 0.425-0.425 0.425z"></path>
<path fill="#5e686c" d="M12.375 31.688c-0.238 0-0.425-0.194-0.425-0.425v-10.738c0-0.238 0.194-0.425 0.425-0.425 0.238 0 0.425 0.194 0.425 0.425v10.731c0 0.238-0.188 0.431-0.425 0.431z"></path>
<path fill="#5e686c" d="M20.069 31.688c-0.238 0-0.425-0.194-0.425-0.425v-10.738c0-0.238 0.194-0.425 0.425-0.425 0.238 0 0.425 0.194 0.425 0.425v10.731c0.006 0.238-0.188 0.431-0.425 0.431z"></path>
<path fill="#5e686c" d="M26.7 20.95h-21.381c-0.237 0-0.425-0.194-0.425-0.425 0-0.238 0.194-0.425 0.425-0.425h21.381c0.238 0 0.425 0.194 0.425 0.425 0 0.238-0.188 0.425-0.425 0.425z"></path>
<path fill="#5e686c" d="M20.069 16.462h-7.694c-0.238 0-0.425-0.194-0.425-0.425 0-0.238 0.194-0.425 0.425-0.425h7.694c0.238 0 0.425 0.194 0.425 0.425 0.006 0.231-0.188 0.425-0.425 0.425z"></path>
</svg>
