<!-- Generated by IcoMoon.io -->
<svg version="1.1" xmlns="http://www.w3.org/2000/svg" width="32" height="32" viewBox="0 0 32 32">
<title>less</title>
<path id="svg-ico" fill="#ee5586" d="M23.875 16.438h-15.75c-0.244 0-0.438-0.194-0.438-0.438s0.194-0.438 0.438-0.438h15.75c0.244 0 0.438 0.194 0.438 0.438s-0.194 0.438-0.438 0.438z"></path>
<path fill="#5e686b" d="M16 31.7c-8.688 0-15.75-7.069-15.75-15.75 0-8.012 6-14.744 13.95-15.65 0.244-0.031 0.456 0.144 0.481 0.387 0.025 0.238-0.144 0.456-0.387 0.481-7.506 0.856-13.169 7.213-13.169 14.781 0 8.2 6.675 14.875 14.875 14.875s14.875-6.675 14.875-14.875c0-7.569-5.663-13.925-13.175-14.781-0.238-0.025-0.413-0.244-0.387-0.481 0.031-0.237 0.25-0.419 0.488-0.388 7.95 0.906 13.95 7.631 13.95 15.65 0 8.688-7.069 15.75-15.75 15.75z"></path>
</svg>
