<!-- Generated by IcoMoon.io -->
<svg version="1.1" xmlns="http://www.w3.org/2000/svg" width="32" height="32" viewBox="0 0 32 32">
<title>linkedin</title>
<path id="svg-ico" fill="#ee5586" d="M6.469 31.506h-5.713c-0.238 0-0.425-0.188-0.425-0.425v-22.806c0-0.238 0.187-0.425 0.425-0.425h5.713c0.237 0 0.425 0.187 0.425 0.425v22.806c-0.006 0.238-0.194 0.425-0.425 0.425zM1.181 30.656h4.862v-21.956h-4.862v21.956z"></path>
<path fill="#5e686b" d="M31.188 31.531h-5.688c-0.238 0-0.425-0.188-0.425-0.425v-13.325c-0.044-0.2-1.256-3.238-3.413-3.381-0.319-0.037-0.6-0.063-0.875-0.063-3.4 0-4.369 3.013-4.387 3.444v13.3c0 0.238-0.188 0.425-0.425 0.425h-5.706c-0.238 0-0.425-0.188-0.425-0.425v-22.806c0-0.238 0.188-0.425 0.425-0.425h5.706c0.238 0 0.425 0.187 0.425 0.425v2.762c1.1-1.113 3.469-3.125 7.188-3.188 6.663 0.088 7.831 5.225 8.025 7.431v15.825c0 0.238-0.188 0.425-0.425 0.425zM25.925 30.681h4.838v-15.363c-0.212-2.419-1.431-6.544-7.175-6.619-3.919 0.069-6.15 2.463-6.988 3.362-0.212 0.231-0.313 0.338-0.431 0.394-0.131 0.063-0.287 0.056-0.412-0.019s-0.2-0.213-0.2-0.363v-3.381h-4.862v21.962h4.863v-12.875c0-0.506 1.106-4.287 5.238-4.287 0.306 0 0.631 0.025 0.956 0.063 2.731 0.181 4.087 3.681 4.169 4.15l0.006 12.975z"></path>
<path id="svg-ico" fill="#ee5586" d="M3.612 6.494c-1.637 0-2.969-1.331-2.969-2.969s1.331-2.969 2.969-2.969c1.638 0 2.969 1.331 2.969 2.969s-1.331 2.969-2.969 2.969zM3.612 1.406c-1.169 0-2.119 0.95-2.119 2.119s0.95 2.119 2.119 2.119c1.169 0 2.119-0.95 2.119-2.119s-0.95-2.119-2.119-2.119z"></path>
</svg>
