<!-- Generated by IcoMoon.io -->
<svg version="1.1" xmlns="http://www.w3.org/2000/svg" width="32" height="32" viewBox="0 0 32 32">
<title>lock</title>
<path fill="#5e686b" d="M16 31.813c-6.348 0-11.512-5.164-11.512-11.512s5.164-11.512 11.512-11.512c6.348 0 11.512 5.164 11.512 11.512s-5.164 11.512-11.512 11.512zM16 9.641c-5.878 0-10.659 4.782-10.659 10.659s4.782 10.66 10.659 10.66c5.878 0 10.659-4.782 10.659-10.66s-4.782-10.659-10.659-10.659z"></path>
<path id="svg-ico" fill="#ee5586" d="M16 24.040c-0.236 0-0.426-0.191-0.426-0.426v-5.116c0-0.236 0.191-0.426 0.426-0.426s0.426 0.191 0.426 0.426v5.117c0 0.236-0.191 0.426-0.426 0.426z"></path>
<path id="svg-ico" fill="#ee5586" d="M21.29 7.88c-0.236 0-0.426-0.191-0.426-0.426v-3.4c0-1.641-1.337-2.975-2.979-2.975h-3.768c-1.643 0-2.979 1.334-2.979 2.975v3.4c0 0.236-0.191 0.426-0.426 0.426s-0.426-0.191-0.426-0.426v-3.4c0-2.11 1.719-3.827 3.832-3.827h3.768c2.113 0 3.832 1.717 3.832 3.827v3.4c-0 0.236-0.191 0.426-0.427 0.426z"></path>
</svg>
