<!-- Generated by IcoMoon.io -->
<svg version="1.1" xmlns="http://www.w3.org/2000/svg" width="32" height="32" viewBox="0 0 32 32">
<title>man</title>
<path fill="#5e686b" d="M18.781 12.287c-0.931 0-1.694 0.756-1.694 1.694 0 0.231 0.188 0.412 0.413 0.412 0.231 0 0.413-0.188 0.413-0.412 0-0.475 0.387-0.863 0.863-0.863s0.863 0.387 0.863 0.863c0 0.231 0.188 0.412 0.413 0.412 0.231 0 0.413-0.188 0.413-0.412 0.006-0.938-0.75-1.694-1.681-1.694z"></path>
<path fill="#5e686b" d="M13.031 12.287c-0.931 0-1.694 0.756-1.694 1.694 0 0.231 0.188 0.412 0.412 0.412 0.231 0 0.412-0.188 0.412-0.412 0-0.475 0.387-0.863 0.863-0.863s0.863 0.387 0.863 0.863c0 0.231 0.188 0.412 0.412 0.412 0.231 0 0.412-0.188 0.412-0.412 0.006-0.938-0.75-1.694-1.681-1.694z"></path>
<path id="svg-ico" fill="#ee5586" d="M5.588 10.463c0 5.744 4.669 10.412 10.412 10.412s10.413-4.669 10.413-10.412-4.669-10.412-10.413-10.412c-4.325 0-8.044 2.65-9.613 6.412-0.013 0.025-0.019 0.044-0.031 0.075-0.494 1.212-0.769 2.538-0.769 3.925zM16 20.050c-5.287 0-9.588-4.3-9.588-9.588 0-1.194 0.219-2.338 0.619-3.394h17.931c0.4 1.056 0.619 2.2 0.619 3.394 0.006 5.287-4.294 9.588-9.581 9.588zM16 0.875c3.775 0 7.044 2.188 8.606 5.362h-17.212c1.563-3.169 4.831-5.362 8.606-5.362z"></path>
<path fill="#5e686b" d="M23.431 22.306h-14.863c-2.575 0-4.662 2.094-4.662 4.663v4.262c0 0.231 0.188 0.413 0.412 0.413 0.019 0 0.037 0 0.056-0.006h23.313c0.231 0 0.413-0.188 0.413-0.413v-4.25c0-2.575-2.094-4.669-4.669-4.669zM27.269 30.813h-22.538v-3.837c0-2.119 1.725-3.837 3.838-3.837h14.862c2.119 0 3.837 1.725 3.837 3.837v3.837z"></path>
</svg>
