<!-- Generated by IcoMoon.io -->
<svg version="1.1" xmlns="http://www.w3.org/2000/svg" width="32" height="32" viewBox="0 0 32 32">
<title>megaphone</title>
<path fill="#5e686b" d="M21.894 3.581c-0.394 0-0.781 0.106-1.106 0.294-0.212 0.112-0.512 0.294-0.894 0.525-2.706 1.631-9.9 5.963-19.087 5.963-0.238 0-0.431 0.194-0.431 0.431v8.475c0 0.238 0.194 0.431 0.431 0.431 3.087 0 5.963 0.531 8.519 1.3v7.806c0 0.238 0.194 0.431 0.431 0.431s0.431-0.194 0.431-0.431v-7.544c4.775 1.575 8.331 3.906 9.887 4.925 0.344 0.225 0.587 0.387 0.725 0.456 0.313 0.169 0.694 0.256 1.081 0.256 0.35 0 0.681-0.075 0.931-0.212 0.344-0.188 0.538-0.488 0.538-0.831v-21.2c-0.012-0.619-0.619-1.075-1.456-1.075zM1.231 11.219c0.938-0.012 1.856-0.069 2.756-0.162v7.963c-0.894-0.1-1.813-0.163-2.756-0.175v-7.625zM22.481 25.863c-0.019 0.050-0.231 0.181-0.613 0.181-0.25 0-0.488-0.056-0.675-0.156-0.119-0.063-0.344-0.212-0.656-0.419-2.137-1.4-8.019-5.256-15.694-6.344v-8.175c7.463-0.981 13.137-4.4 15.487-5.819 0.369-0.225 0.656-0.394 0.869-0.513 0.206-0.119 0.45-0.181 0.694-0.181 0.381 0 0.587 0.156 0.587 0.219v21.206z"></path>
<path id="svg-ico" fill="#ee5586" d="M27.363 10.969c-0.238 0-0.431 0.194-0.431 0.431v7.725c0 0.238 0.194 0.431 0.431 0.431s0.431-0.194 0.431-0.431v-7.725c-0.006-0.238-0.194-0.431-0.431-0.431z"></path>
<path id="svg-ico" fill="#ee5586" d="M31.225 12.95c-0.238 0-0.431 0.194-0.431 0.431v4.294c0 0.238 0.194 0.431 0.431 0.431s0.431-0.194 0.431-0.431v-4.3c-0.006-0.238-0.194-0.425-0.431-0.425z"></path>
</svg>
