<!-- Generated by IcoMoon.io -->
<svg version="1.1" xmlns="http://www.w3.org/2000/svg" width="32" height="32" viewBox="0 0 32 32">
<title>money</title>
<path fill="#5e686b" d="M9.494 6.688c0.063 0.175 0.225 0.287 0.412 0.287h11.837c0.181 0 0.35-0.119 0.413-0.287l1.094-3.094c0.2-0.5 0.137-1.063-0.163-1.506s-0.8-0.712-1.344-0.712h-3.081c-0.75-0.756-1.775-1.188-2.844-1.188s-2.088 0.431-2.838 1.188h-3.088c-0.537 0-1.037 0.269-1.338 0.712s-0.363 1.006-0.169 1.488l1.106 3.112zM9.281 2.569c0.144-0.206 0.369-0.331 0.619-0.331h3.225c0.006 0 0.019 0 0.025 0 0.125 0.006 0.25-0.044 0.344-0.144 0.588-0.663 1.438-1.038 2.325-1.038s1.731 0.381 2.325 1.038c0 0 0.006 0.006 0.006 0.006 0.006 0.006 0.012 0.013 0.019 0.019s0.012 0.006 0.012 0.013 0.012 0.013 0.019 0.013c0.006 0.006 0.012 0.006 0.019 0.013s0.012 0.006 0.019 0.013c0.006 0.006 0.012 0.006 0.019 0.013 0.006 0 0.012 0.006 0.019 0.006 0.006 0.006 0.012 0.006 0.019 0.013 0.006 0 0.012 0.006 0.019 0.006s0.012 0.006 0.025 0.006c0.006 0 0.012 0 0.019 0.006 0.038 0.013 0.075 0.013 0.113 0.013 0 0 0 0 0 0h3.269c0.25 0 0.481 0.119 0.619 0.331 0.144 0.206 0.169 0.462 0.069 0.712l-0.994 2.825h-11.219l-1-2.837c-0.1-0.231-0.069-0.481 0.069-0.694z"></path>
<path fill="#5e686b" d="M22.025 8.581c-0.081-0.069-0.181-0.106-0.281-0.106h-11.844c-0.106 0-0.206 0.037-0.281 0.106-0.344 0.294-8.438 7.331-8.438 15.719 0 4.919 3.688 7.537 6.356 7.537h16.575c2.663 0 6.356-2.619 6.356-7.538-0.006-8.394-8.1-15.425-8.444-15.719zM24.106 30.969h-16.569c-2.3 0-5.487-2.319-5.487-6.669 0-7.456 7.013-14.050 8.019-14.956h11.506c1 0.9 8.019 7.494 8.019 14.956 0 4.35-3.188 6.669-5.488 6.669z"></path>
<path id="svg-ico" fill="#ee5586" d="M16.256 12.781v-0.994c0-0.238-0.194-0.438-0.438-0.438-0.238 0-0.438 0.194-0.438 0.438v0.994c-2.069 0.219-3.688 1.975-3.688 4.1 0 2 1.531 3.656 3.688 4.063v5.875c-1.344-0.269-2.363-1.456-2.363-2.875 0-0.238-0.194-0.438-0.438-0.438-0.238 0-0.438 0.194-0.438 0.438 0 1.9 1.406 3.481 3.231 3.762v0.337c0 0.238 0.194 0.438 0.438 0.438 0.238 0 0.438-0.194 0.438-0.438v-0.306c1.962-0.15 3.512-1.794 3.512-3.794 0-1.894-1.394-3.363-3.512-3.744v-6.537c1.587 0.213 2.819 1.575 2.819 3.225 0 0.238 0.194 0.438 0.438 0.438s0.438-0.194 0.438-0.438c0-2.131-1.619-3.887-3.688-4.106zM12.569 16.881c0-1.644 1.231-3.012 2.819-3.225v6.4c-1.681-0.369-2.819-1.625-2.819-3.175zM18.9 23.944c0 1.519-1.163 2.769-2.637 2.919v-5.781c1.594 0.35 2.637 1.456 2.637 2.863z"></path>
</svg>
