<!-- Generated by IcoMoon.io -->
<svg version="1.1" xmlns="http://www.w3.org/2000/svg" width="32" height="32" viewBox="0 0 32 32">
<title>navigation</title>
<path fill="#5e686b" d="M15.981 31.813c-8.744 0-15.856-7.113-15.856-15.856 0-8.069 6.037-14.844 14.044-15.756 0.238-0.031 0.463 0.144 0.488 0.387s-0.144 0.463-0.387 0.488c-7.563 0.863-13.262 7.256-13.262 14.881 0 8.256 6.719 14.975 14.975 14.975s14.975-6.719 14.975-14.975c0-7.619-5.7-14.019-13.262-14.881-0.244-0.025-0.413-0.244-0.387-0.488s0.25-0.419 0.488-0.388c8.006 0.912 14.044 7.681 14.044 15.756 0 8.744-7.113 15.856-15.856 15.856z"></path>
<path id="svg-ico" fill="#ee5586" d="M16.769 26.769c-0.012 0-0.019 0-0.031 0-0.194-0.012-0.363-0.156-0.4-0.344l-1.938-8.881-8.881-1.95c-0.194-0.044-0.331-0.206-0.344-0.4s0.106-0.375 0.287-0.444l17.531-6.369c0.163-0.056 0.344-0.019 0.462 0.1s0.163 0.3 0.1 0.463l-6.369 17.531c-0.069 0.175-0.231 0.294-0.419 0.294zM7.188 15.063l7.675 1.675c0.169 0.038 0.3 0.169 0.338 0.337l1.675 7.669 5.531-15.213-15.219 5.531z"></path>
</svg>
