<!-- Generated by IcoMoon.io -->
<svg version="1.1" xmlns="http://www.w3.org/2000/svg" width="32" height="32" viewBox="0 0 32 32">
<title>on</title>
<path fill="#5e686b" d="M16.256 31.706c-7.613 0-13.806-6.194-13.806-13.806 0-5.694 3.412-10.725 8.694-12.825 0.225-0.088 0.475 0.019 0.563 0.244s-0.019 0.475-0.244 0.563c-4.95 1.969-8.144 6.688-8.144 12.019 0 7.131 5.806 12.938 12.938 12.938s12.938-5.8 12.938-12.938c0-5.331-3.2-10.050-8.144-12.019-0.225-0.088-0.331-0.344-0.244-0.563 0.087-0.225 0.344-0.331 0.563-0.244 5.281 2.1 8.694 7.138 8.694 12.825 0 7.613-6.194 13.806-13.806 13.806z"></path>
<path id="svg-ico" fill="#ee5586" d="M16.256 11.719c-0.238 0-0.431-0.194-0.431-0.431v-10.425c0-0.238 0.194-0.431 0.431-0.431s0.431 0.194 0.431 0.431v10.425c0 0.238-0.194 0.431-0.431 0.431z"></path>
</svg>
