<!-- Generated by IcoMoon.io -->
<svg version="1.1" xmlns="http://www.w3.org/2000/svg" width="32" height="32" viewBox="0 0 32 32">
<title>paper</title>
<path fill="#5e686b" d="M27.619 31.75h-22.706c-0.237 0-0.425-0.188-0.425-0.425v-30.544c0-0.238 0.188-0.425 0.425-0.425h3.419c0.238 0 0.425 0.187 0.425 0.425s-0.188 0.425-0.425 0.425h-2.987v29.694h21.844v-29.694h-15c-0.238 0-0.425-0.188-0.425-0.425s0.188-0.425 0.425-0.425h15.431c0.238 0 0.425 0.187 0.425 0.425v30.544c0 0.238-0.194 0.425-0.425 0.425z"></path>
<path id="svg-ico" fill="#ee5586" d="M23.087 11.294h-13.363c-0.238 0-0.425-0.188-0.425-0.425s0.188-0.425 0.425-0.425h13.369c0.238 0 0.425 0.188 0.425 0.425s-0.194 0.425-0.431 0.425z"></path>
<path id="svg-ico" fill="#ee5586" d="M22.831 15.537h-12.844c-0.238 0-0.425-0.188-0.425-0.425s0.188-0.425 0.425-0.425h12.844c0.238 0 0.425 0.188 0.425 0.425s-0.194 0.425-0.425 0.425z"></path>
<path id="svg-ico" fill="#ee5586" d="M17.394 19.781h-7.15c-0.238 0-0.425-0.188-0.425-0.425s0.188-0.425 0.425-0.425h7.15c0.238 0 0.425 0.188 0.425 0.425s-0.188 0.425-0.425 0.425z"></path>
<path fill="#5e686b" d="M22.831 19.781h-2.238c-0.238 0-0.425-0.188-0.425-0.425s0.188-0.425 0.425-0.425h2.238c0.238 0 0.425 0.188 0.425 0.425s-0.194 0.425-0.425 0.425z"></path>
</svg>
