<!-- Generated by IcoMoon.io -->
<svg version="1.1" xmlns="http://www.w3.org/2000/svg" width="32" height="32" viewBox="0 0 32 32">
<title>paypal</title>
<path fill="#5e686c" d="M14.475 31.525h-8.825c-0.125 0-0.25-0.056-0.325-0.156-0.081-0.1-0.112-0.231-0.081-0.356l1.075-4.775c0.050-0.225 0.281-0.369 0.5-0.319 0.225 0.050 0.369 0.275 0.319 0.5l-0.963 4.269h7.962l1.488-6.744c0.044-0.194 0.213-0.331 0.413-0.331h2.85c5.325 0 9.488-3.269 10.6-8.331 0.706-3.219-0.294-5.325-1.256-6.531-0.563-0.7-1.275-1.294-2.119-1.756-0.2-0.112-0.275-0.369-0.163-0.569s0.369-0.275 0.569-0.162c0.938 0.519 1.731 1.181 2.363 1.969 1.081 1.344 2.206 3.694 1.425 7.237-1.206 5.462-5.688 8.994-11.419 8.994h-2.512l-1.488 6.744c-0.044 0.181-0.213 0.319-0.412 0.319z"></path>
<path id="svg-ico" fill="#ee5586" d="M6.725 26.75h-4.706c-0.125 0-0.25-0.056-0.325-0.156-0.081-0.1-0.113-0.231-0.081-0.356l5.75-25.563c0.044-0.194 0.213-0.325 0.412-0.325h10.663c2.706 0 5.256 1.156 6.813 3.1 0.719 0.894 1.219 1.931 1.475 3.081 0.050 0.225-0.094 0.45-0.319 0.5-0.219 0.050-0.45-0.094-0.5-0.319-0.231-1.025-0.675-1.95-1.313-2.744-1.4-1.738-3.7-2.781-6.156-2.781h-10.331l-5.563 24.719h4.181c0.231 0 0.419 0.188 0.419 0.419 0 0.238-0.188 0.425-0.419 0.425z"></path>
<path id="svg-ico" fill="#ee5586" d="M10.762 26.75h-4.144c-0.231 0-0.419-0.188-0.419-0.419s0.188-0.419 0.419-0.419h3.806l1.494-6.775c0.044-0.194 0.213-0.331 0.412-0.331h2.856c5.35 0 9.531-3.287 10.65-8.375 0.306-1.4 0.319-2.706 0.038-3.894-0.056-0.225 0.087-0.45 0.313-0.506s0.45 0.088 0.506 0.313c0.313 1.306 0.3 2.744-0.038 4.269-1.212 5.487-5.712 9.031-11.469 9.031h-2.531l-1.494 6.775c-0.037 0.194-0.206 0.331-0.4 0.331z"></path>
<path fill="#5e686c" d="M16.269 13.481h-2.988c-0.125 0-0.25-0.056-0.331-0.156s-0.106-0.231-0.081-0.356l1.363-5.844c0.044-0.188 0.213-0.325 0.406-0.325h3.113c0.606 0 1.169 0.175 1.631 0.506 0.894 0.644 1.244 1.775 0.919 2.95-0.181 0.75-0.606 1.469-1.225 2.050-0.2 0.188-0.431 0.363-0.688 0.531-0.669 0.419-1.4 0.644-2.119 0.644zM13.813 12.644h2.456c0.556 0 1.137-0.181 1.675-0.519 0.212-0.137 0.4-0.281 0.563-0.431 0.494-0.463 0.844-1.050 0.988-1.65 0.238-0.856 0.012-1.619-0.594-2.056-0.319-0.225-0.712-0.35-1.137-0.35h-2.781l-1.169 5.006z"></path>
</svg>
