<!-- Generated by IcoMoon.io -->
<svg version="1.1" xmlns="http://www.w3.org/2000/svg" width="32" height="32" viewBox="0 0 32 32">
<title>placard</title>
<path id="svg-ico" fill="#ee5586" d="M5.938 8.394h2.013c0.231 0 0.419-0.188 0.419-0.419s-0.188-0.419-0.419-0.419h-2.013c-0.231 0-0.419 0.188-0.419 0.419s0.188 0.419 0.419 0.419z"></path>
<path id="svg-ico" fill="#ee5586" d="M11.975 8.394h2.013c0.231 0 0.419-0.188 0.419-0.419s-0.188-0.419-0.419-0.419h-2.012c-0.231 0-0.419 0.188-0.419 0.419 0.006 0.231 0.194 0.419 0.419 0.419z"></path>
<path id="svg-ico" fill="#ee5586" d="M22.050 8.394h4.031c0.231 0 0.419-0.188 0.419-0.419s-0.188-0.419-0.419-0.419h-4.031c-0.231 0-0.419 0.188-0.419 0.419s0.188 0.419 0.419 0.419z"></path>
<path fill="#5e686b" d="M31.113 2.525h-30.212c-0.231 0-0.419 0.188-0.419 0.419v26.188c0 0.231 0.188 0.419 0.419 0.419h30.212c0.231 0 0.419-0.188 0.419-0.419v-26.188c0-0.231-0.188-0.419-0.419-0.419zM30.694 3.356v9.238h-29.375v-9.238h29.375zM1.319 28.706v-15.275h29.381v15.281l-29.381-0.006z"></path>
</svg>
