<!-- Generated by IcoMoon.io -->
<svg version="1.1" xmlns="http://www.w3.org/2000/svg" width="32" height="32" viewBox="0 0 32 32">
<title>play</title>
<path fill="#5e686c" d="M3.981 31.675c-0.069 0-0.138-0.019-0.206-0.050-0.131-0.075-0.219-0.212-0.219-0.369v-30.25c0-0.231 0.188-0.419 0.419-0.419s0.419 0.188 0.419 0.419v29.494l23.563-14.725c0.194-0.125 0.456-0.063 0.581 0.131 0.125 0.2 0.063 0.456-0.131 0.581l-24.2 15.125c-0.075 0.044-0.15 0.063-0.225 0.063z"></path>
<path id="svg-ico" fill="#ee5586" d="M28.181 16.55c-0.075 0-0.156-0.019-0.225-0.063l-24.2-15.125c-0.194-0.125-0.256-0.381-0.131-0.581 0.125-0.194 0.381-0.256 0.581-0.131l24.2 15.125c0.2 0.125 0.256 0.381 0.131 0.581-0.081 0.125-0.219 0.194-0.356 0.194z"></path>
</svg>
