<!-- Generated by IcoMoon.io -->
<svg version="1.1" xmlns="http://www.w3.org/2000/svg" width="32" height="32" viewBox="0 0 32 32">
<title>playstore</title>
<path id="svg-ico" fill="#ee5586" d="M23.575 21.55c-0.106 0-0.212-0.038-0.294-0.119l-20.613-20.081c-0.169-0.163-0.175-0.431-0.006-0.6 0.163-0.169 0.431-0.169 0.6-0.006l20.613 20.081c0.169 0.163 0.175 0.431 0.006 0.6-0.087 0.087-0.194 0.125-0.306 0.125z"></path>
<path id="svg-ico" fill="#ee5586" d="M2.962 31.337c-0.112 0-0.219-0.044-0.306-0.131-0.163-0.169-0.163-0.438 0.006-0.6l20.613-20.081c0.169-0.162 0.438-0.162 0.6 0.006s0.163 0.438-0.006 0.6l-20.606 20.081c-0.081 0.081-0.194 0.125-0.3 0.125z"></path>
<path fill="#5e686c" d="M4.331 31.719c-0.556 0-1.1-0.15-1.587-0.438-0.956-0.569-1.531-1.569-1.531-2.681v-25.238c0.006-1.112 0.575-2.112 1.538-2.681 0.938-0.556 2.131-0.575 3.081-0.050l23.038 12.613c1.012 0.556 1.619 1.575 1.619 2.731s-0.606 2.181-1.619 2.738l-23.038 12.619c-0.463 0.25-0.981 0.387-1.5 0.387zM4.338 1.094c-0.4 0-0.8 0.113-1.156 0.319-0.694 0.413-1.112 1.144-1.112 1.95v25.231c0 0.806 0.413 1.538 1.112 1.95 0.681 0.406 1.537 0.425 2.244 0.038l23.038-12.619c0.738-0.4 1.175-1.144 1.175-1.988 0-0.838-0.438-1.581-1.175-1.988l-23.038-12.613c-0.338-0.188-0.713-0.281-1.088-0.281z"></path>
</svg>
