<!-- Generated by IcoMoon.io -->
<svg version="1.1" xmlns="http://www.w3.org/2000/svg" width="32" height="32" viewBox="0 0 32 32">
<title>plug</title>
<path id="svg-ico" fill="#ee5586" d="M11.919 10.381c-0.231 0-0.419-0.188-0.419-0.419v-9.262c0-0.231 0.188-0.419 0.419-0.419s0.419 0.188 0.419 0.419v9.256c0 0.238-0.188 0.425-0.419 0.425z"></path>
<path id="svg-ico" fill="#ee5586" d="M20.75 10.381c-0.231 0-0.419-0.188-0.419-0.419v-9.262c0-0.231 0.188-0.419 0.419-0.419s0.419 0.188 0.419 0.419v9.256c0.006 0.238-0.181 0.425-0.419 0.425z"></path>
<path fill="#5e686c" d="M12.656 31.831h-6.625c-0.231 0-0.419-0.188-0.419-0.419s0.188-0.419 0.419-0.419h6.625c1.8 0 3.262-1.462 3.262-3.262 0-0.231 0.188-0.419 0.419-0.419s0.419 0.188 0.419 0.419c0 2.262-1.838 4.1-4.1 4.1z"></path>
<path fill="#5e686c" d="M24.431 28.15h-16.931c-1.044 0-1.894-0.85-1.894-1.894v-14.719c0-1.044 0.85-1.894 1.894-1.894h16.931c1.044 0 1.894 0.85 1.894 1.894v14.725c0 1.038-0.85 1.887-1.894 1.887zM7.5 10.481c-0.581 0-1.050 0.469-1.050 1.050v14.725c0 0.581 0.469 1.050 1.050 1.050h16.931c0.581 0 1.050-0.469 1.050-1.050v-14.719c0-0.581-0.469-1.050-1.050-1.050l-16.931-0.006z"></path>
</svg>
