<!-- Generated by IcoMoon.io -->
<svg version="1.1" xmlns="http://www.w3.org/2000/svg" width="32" height="32" viewBox="0 0 32 32">
<title>plus</title>
<path fill="#5e686b" d="M15.981 31.669c-8.637 0-15.669-7.031-15.669-15.669 0-7.975 5.969-14.669 13.881-15.569 0.238-0.031 0.456 0.144 0.481 0.381s-0.144 0.456-0.381 0.481c-7.475 0.85-13.113 7.175-13.113 14.706 0 8.163 6.638 14.8 14.8 14.8s14.8-6.637 14.8-14.8c0-7.531-5.637-13.856-13.106-14.706-0.238-0.025-0.413-0.244-0.381-0.481 0.025-0.238 0.231-0.419 0.481-0.381 7.913 0.9 13.875 7.594 13.875 15.569 0 8.637-7.025 15.669-15.669 15.669z"></path>
<path id="svg-ico" fill="#ee5586" d="M15.981 24.269c-0.244 0-0.438-0.194-0.438-0.438v-15.669c0-0.237 0.194-0.438 0.438-0.438s0.438 0.194 0.438 0.438v15.669c0 0.244-0.194 0.438-0.438 0.438z"></path>
<path id="svg-ico" fill="#ee5586" d="M23.819 16.431h-15.669c-0.237 0-0.438-0.194-0.438-0.438s0.194-0.438 0.438-0.438h15.669c0.238 0 0.438 0.194 0.438 0.438-0.006 0.244-0.2 0.438-0.438 0.438z"></path>
</svg>
