<!-- Generated by IcoMoon.io -->
<svg version="1.1" xmlns="http://www.w3.org/2000/svg" width="32" height="32" viewBox="0 0 32 32">
<title>points</title>
<path fill="#5e686b" d="M4.031 19.85c-2.119 0-3.844-1.731-3.844-3.85s1.725-3.85 3.85-3.85c2.119 0 3.85 1.725 3.85 3.85-0.006 2.119-1.731 3.85-3.856 3.85zM4.031 13.006c-1.65 0-2.994 1.344-2.994 2.994s1.344 2.994 2.994 2.994 2.994-1.344 2.994-2.994c0-1.65-1.344-2.994-2.994-2.994z"></path>
<path id="svg-ico" fill="#ee5586" d="M16 19.85c-2.119 0-3.85-1.725-3.85-3.844s1.725-3.85 3.85-3.85c2.119 0 3.85 1.725 3.85 3.85 0 2.113-1.731 3.844-3.85 3.844zM16 13.006c-1.65 0-2.994 1.344-2.994 2.994s1.344 2.994 2.994 2.994 2.994-1.344 2.994-2.994c0-1.65-1.344-2.994-2.994-2.994z"></path>
<path fill="#5e686b" d="M27.969 19.85c-2.119 0-3.844-1.725-3.844-3.844s1.725-3.85 3.844-3.85c2.119 0 3.85 1.725 3.85 3.85-0.006 2.113-1.731 3.844-3.85 3.844zM27.969 13.006c-1.65 0-2.994 1.344-2.994 2.994s1.344 2.994 2.994 2.994c1.65 0 2.994-1.344 2.994-2.994-0.006-1.65-1.344-2.994-2.994-2.994z"></path>
</svg>
