<!-- Generated by IcoMoon.io -->
<svg version="1.1" xmlns="http://www.w3.org/2000/svg" width="32" height="32" viewBox="0 0 32 32">
<title>print</title>
<path id="svg-ico" fill="#ee5586" d="M24.988 9.825c-0.238 0-0.425-0.188-0.425-0.425v-8.125h-16.994v8.125c0 0.238-0.188 0.425-0.425 0.425s-0.425-0.188-0.425-0.425v-8.55c0-0.238 0.188-0.425 0.425-0.425h17.85c0.238 0 0.425 0.187 0.425 0.425v8.55c-0.006 0.238-0.194 0.425-0.431 0.425z"></path>
<path fill="#5e686c" d="M31.313 25.512h-6.2c-0.238 0-0.425-0.188-0.425-0.425s0.188-0.425 0.425-0.425h5.775v-14.838h-29.644v14.831h5.769c0.237 0 0.425 0.188 0.425 0.425s-0.188 0.425-0.425 0.425h-6.194c-0.238 0-0.425-0.188-0.425-0.425v-15.688c0-0.238 0.187-0.425 0.425-0.425h30.494c0.238 0 0.425 0.188 0.425 0.425v15.688c0 0.238-0.188 0.431-0.425 0.431z"></path>
<path fill="#5e686c" d="M25.113 31.394h-18.094c-0.237 0-0.425-0.188-0.425-0.425v-13.019c0-0.238 0.188-0.425 0.425-0.425h18.1c0.238 0 0.425 0.188 0.425 0.425v13.012c-0.006 0.238-0.194 0.431-0.431 0.431zM7.444 30.538h17.244v-12.156h-17.244v12.156z"></path>
<path id="svg-ico" fill="#ee5586" d="M26.6 15.594c-1.056 0-1.913-0.856-1.913-1.912s0.856-1.912 1.913-1.912 1.913 0.856 1.913 1.912c0 1.050-0.856 1.912-1.913 1.912zM26.6 12.619c-0.587 0-1.063 0.475-1.063 1.063s0.475 1.063 1.063 1.063c0.587 0 1.063-0.475 1.063-1.063s-0.475-1.063-1.063-1.063z"></path>
</svg>
