<!-- Generated by IcoMoon.io -->
<svg version="1.1" xmlns="http://www.w3.org/2000/svg" width="32" height="32" viewBox="0 0 32 32">
<title>progress</title>
<path id="svg-ico" fill="#ee5586" d="M3.275 12.075c-0.106 0-0.212-0.037-0.3-0.119-0.169-0.162-0.169-0.431-0.006-0.6l10.625-10.838c0.169-0.169 0.438-0.169 0.6-0.006 0.169 0.162 0.169 0.431 0.006 0.6l-10.625 10.838c-0.081 0.081-0.194 0.125-0.3 0.125z"></path>
<path id="svg-ico" fill="#ee5586" d="M13.9 6.713c-0.238 0-0.425-0.188-0.425-0.425v-5.050h-4.944c-0.238 0-0.425-0.188-0.425-0.425s0.188-0.425 0.425-0.425h5.369c0.238 0 0.425 0.187 0.425 0.425v5.475c0 0.231-0.188 0.425-0.425 0.425z"></path>
<path fill="#5e686b" d="M30.887 31.725h-29.794c-0.238 0-0.425-0.188-0.425-0.425s0.188-0.425 0.425-0.425h29.794c0.238 0 0.425 0.188 0.425 0.425 0 0.231-0.188 0.425-0.425 0.425z"></path>
<path fill="#5e686b" d="M25.163 27.1c-0.238 0-0.425-0.188-0.425-0.425v-25.538c0-0.238 0.188-0.425 0.425-0.425s0.425 0.188 0.425 0.425v25.538c0 0.231-0.188 0.425-0.425 0.425z"></path>
<path fill="#5e686b" d="M15.994 27.1c-0.238 0-0.425-0.188-0.425-0.425v-15.325c0-0.238 0.188-0.425 0.425-0.425s0.425 0.188 0.425 0.425v15.319c0 0.238-0.194 0.431-0.425 0.431z"></path>
<path fill="#5e686b" d="M6.2 27.1c-0.237 0-0.425-0.188-0.425-0.425v-8.512c0-0.238 0.188-0.425 0.425-0.425s0.425 0.188 0.425 0.425v8.512c0 0.231-0.188 0.425-0.425 0.425z"></path>
</svg>
