<!-- Generated by IcoMoon.io -->
<svg version="1.1" xmlns="http://www.w3.org/2000/svg" width="32" height="32" viewBox="0 0 32 32">
<title>question</title>
<path id="svg-ico" fill="#ee5586" d="M16.113 25.962c-1.2 0-2.175-0.975-2.175-2.175s0.975-2.175 2.175-2.175 2.175 0.975 2.175 2.175-0.975 2.175-2.175 2.175zM16.113 22.488c-0.719 0-1.306 0.587-1.306 1.306s0.588 1.306 1.306 1.306c0.719 0 1.306-0.587 1.306-1.306-0.006-0.725-0.587-1.306-1.306-1.306z"></path>
<path fill="#5e686b" d="M16.106 31.594c-8.631 0-15.656-7.025-15.656-15.656s7.025-15.656 15.656-15.656c7.969 0 14.656 5.963 15.556 13.869 0.025 0.238-0.144 0.456-0.381 0.481-0.238 0.019-0.456-0.144-0.481-0.381-0.85-7.463-7.162-13.094-14.688-13.094-8.162-0.006-14.794 6.631-14.794 14.781s6.631 14.788 14.788 14.788c7.525 0 13.837-5.631 14.688-13.094 0.025-0.238 0.244-0.406 0.481-0.381s0.413 0.244 0.381 0.481c-0.894 7.9-7.581 13.863-15.55 13.863z"></path>
<path id="svg-ico" fill="#ee5586" d="M16.206 18.1c-0.238 0-0.438-0.194-0.438-0.438v-1.175c0-0.675 0.213-1.281 0.625-1.794 0.363-0.456 0.762-0.906 1.194-1.35 0.413-0.425 0.788-0.881 1.119-1.35 0.3-0.425 0.45-0.925 0.45-1.525 0-0.444-0.069-0.9-0.206-1.344-0.131-0.425-0.344-0.806-0.619-1.125s-0.65-0.581-1.119-0.787c-0.469-0.206-1.050-0.313-1.719-0.313-0.544 0-1.050 0.106-1.512 0.313s-0.869 0.494-1.2 0.863c-0.338 0.375-0.613 0.838-0.819 1.363-0.206 0.537-0.319 1.137-0.331 1.781-0.006 0.238-0.2 0.425-0.438 0.425 0 0-0.006 0-0.012 0-0.238-0.006-0.431-0.206-0.425-0.444 0.019-0.75 0.15-1.45 0.387-2.075 0.244-0.631 0.569-1.181 0.981-1.631 0.412-0.456 0.912-0.819 1.488-1.075 0.569-0.256 1.2-0.388 1.869-0.388 0.794 0 1.488 0.131 2.069 0.388s1.063 0.594 1.425 1.013c0.356 0.412 0.625 0.894 0.794 1.438 0.163 0.531 0.25 1.069 0.25 1.6 0 0.775-0.206 1.456-0.606 2.025-0.356 0.506-0.762 0.994-1.2 1.456-0.413 0.425-0.794 0.856-1.137 1.287-0.288 0.363-0.431 0.775-0.431 1.25v1.175c0 0.244-0.2 0.438-0.438 0.438z"></path>
</svg>
