<!-- Generated by IcoMoon.io -->
<svg version="1.1" xmlns="http://www.w3.org/2000/svg" width="32" height="32" viewBox="0 0 32 32">
<title>ram</title>
<path fill="#5e686b" d="M30.9 13.287c0.238 0 0.431-0.194 0.431-0.431s-0.194-0.431-0.431-0.431h-5.438v-6.319h5.438c0.238 0 0.431-0.194 0.431-0.431s-0.194-0.431-0.431-0.431h-5.438v-4.694c0-0.237-0.194-0.431-0.431-0.431h-18.45c-0.237 0-0.431 0.194-0.431 0.431v4.694h-5.15c-0.238 0-0.431 0.194-0.431 0.431s0.194 0.431 0.431 0.431h5.15v6.319h-5.15c-0.238 0-0.431 0.194-0.431 0.431s0.194 0.431 0.431 0.431h5.15v6.319h-5.15c-0.238 0-0.431 0.194-0.431 0.431s0.194 0.431 0.431 0.431h5.15v6.319h-5.15c-0.238 0-0.431 0.194-0.431 0.431s0.194 0.431 0.431 0.431h5.15v3.663c0 0.238 0.194 0.431 0.431 0.431h18.456c0.238 0 0.431-0.194 0.431-0.431v-3.669h5.438c0.238 0 0.431-0.194 0.431-0.431s-0.194-0.431-0.431-0.431h-5.438v-6.319h5.438c0.238 0 0.431-0.194 0.431-0.431s-0.194-0.431-0.431-0.431h-5.438v-6.313h5.431zM24.606 30.881h-17.594v-29.9h17.6l-0.006 29.9z"></path>
<path id="svg-ico" fill="#ee5586" d="M19.913 7.294h-8.206c-0.238 0-0.431 0.194-0.431 0.431v16.406c0 0.238 0.194 0.431 0.431 0.431h8.206c0.238 0 0.431-0.194 0.431-0.431v-16.406c-0.006-0.237-0.194-0.431-0.431-0.431zM19.481 23.706h-7.344v-15.55h7.344v15.55z"></path>
</svg>
