<!-- Generated by IcoMoon.io -->
<svg version="1.1" xmlns="http://www.w3.org/2000/svg" width="32" height="32" viewBox="0 0 32 32">
<title>recycle</title>
<path fill="#5e686b" d="M25.619 14.694c-0.044 0-0.119 0-0.2-0.019l-4.887-0.975c-0.238-0.044-0.387-0.275-0.337-0.512 0.044-0.238 0.275-0.387 0.512-0.344l4.9 0.981c0.006-0.006 0.031-0.012 0.050-0.019 0.006-0.019 0.031-0.088 0.038-0.1l0.956-4.825c0.050-0.238 0.288-0.387 0.512-0.338 0.238 0.050 0.387 0.275 0.344 0.512l-0.981 4.9c0 0.012-0.006 0.031-0.012 0.044 0 0.006 0 0.006 0 0.006-0.006 0.019-0.031 0.081-0.038 0.094-0.031 0.075-0.056 0.131-0.087 0.181-0.019 0.025-0.069 0.088-0.087 0.106-0.050 0.050-0.1 0.1-0.163 0.144-0.038 0.037-0.069 0.056-0.119 0.075-0.019 0.006-0.031 0.012-0.050 0.019-0.094 0.037-0.225 0.069-0.35 0.069z"></path>
<path fill="#5e686b" d="M25.831 14.637c-0.15 0-0.294-0.075-0.375-0.219l-6.581-11.494c-0.719-1.244-1.631-1.931-2.569-1.931-0.931 0-1.844 0.688-2.569 1.938l-3.037 4.519c-0.131 0.2-0.4 0.25-0.6 0.119s-0.25-0.406-0.119-0.6l3.019-4.494c0.875-1.506 2.050-2.35 3.306-2.35s2.438 0.838 3.319 2.369l6.581 11.494c0.119 0.206 0.044 0.475-0.163 0.594-0.063 0.037-0.137 0.056-0.212 0.056z"></path>
<path fill="#5e686b" d="M10.394 16.962c-0.175 0-0.338-0.106-0.4-0.275l-1.963-4.9c-0.006-0.006-0.019-0.012-0.025-0.019-0.025-0.006-0.037-0.012-0.069-0.019l-4.869 0.981c-0.237 0.050-0.462-0.106-0.513-0.344s0.106-0.463 0.337-0.512l4.9-0.981c0.081-0.019 0.162-0.019 0.213-0.012 0.037-0.006 0.069 0 0.106 0.006 0.1 0.012 0.219 0.050 0.319 0.106 0.019 0.012 0.044 0.025 0.063 0.044 0.075 0.050 0.137 0.106 0.194 0.175 0.019 0.019 0.056 0.088 0.069 0.106 0.019 0.031 0.063 0.106 0.075 0.137l1.956 4.894c0.088 0.225-0.019 0.475-0.244 0.563-0.044 0.038-0.094 0.050-0.15 0.050z"></path>
<path fill="#5e686b" d="M9.45 28.431h-4.412c-1.675 0-3.025-0.675-3.7-1.844-0.713-1.238-0.606-2.85 0.294-4.419l6.231-10.981c0.119-0.206 0.381-0.281 0.594-0.162 0.206 0.119 0.281 0.381 0.162 0.594l-6.231 10.981c-0.744 1.294-0.85 2.587-0.294 3.55 0.519 0.894 1.587 1.413 2.95 1.413h4.406c0.238 0 0.431 0.194 0.431 0.431s-0.194 0.438-0.431 0.438z"></path>
<path id="svg-ico" fill="#ee5586" d="M15.325 28.462c-0.238 0-0.431-0.194-0.431-0.431s0.194-0.438 0.431-0.438l11.762-0.012c1.363-0.006 2.444-0.512 2.956-1.406 0.55-0.95 0.438-2.231-0.3-3.512l-2.025-4.563c-0.1-0.219 0-0.475 0.219-0.575 0.219-0.094 0.475 0 0.575 0.219l2.006 4.525c0.875 1.519 0.988 3.119 0.281 4.337-0.669 1.163-2.019 1.837-3.706 1.837l-11.769 0.019z"></path>
<path id="svg-ico" fill="#ee5586" d="M18.413 31.75c-0.113 0-0.225-0.044-0.306-0.125l-2.881-2.887c-0.188-0.137-0.325-0.4-0.325-0.688 0-0.012 0-0.025 0-0.038 0.006-0.238 0.1-0.462 0.269-0.631l2.944-2.944c0.169-0.169 0.444-0.169 0.613 0s0.169 0.444 0 0.613l-2.938 2.938c0 0.019 0 0.044-0.006 0.069 0.019 0.019 0.050 0.056 0.063 0.069l2.881 2.887c0.169 0.169 0.169 0.444 0 0.613-0.094 0.081-0.2 0.125-0.313 0.125z"></path>
</svg>
