<!-- Generated by IcoMoon.io -->
<svg version="1.1" xmlns="http://www.w3.org/2000/svg" width="32" height="32" viewBox="0 0 32 32">
<title>redundancy</title>
<path id="svg-ico" fill="#ee5586" d="M16.169 31.606v0 0c-0.063 0-0.125-0.012-0.181-0.044 0 0 0 0 0 0v0c-0.037-0.019-0.069-0.038-0.1-0.069-0.725-0.637-1.894-2.188-1.969-3.663-0.162-1.506 0.625-2.7 0.656-2.75 0.131-0.194 0.394-0.25 0.588-0.119s0.25 0.394 0.119 0.587c-0.006 0.012-0.644 1-0.519 2.212 0.056 1.069 0.856 2.212 1.406 2.813 0.55-0.6 1.35-1.744 1.406-2.794 0.131-1.25-0.506-2.225-0.512-2.231-0.131-0.194-0.075-0.456 0.119-0.587s0.456-0.075 0.587 0.119c0.031 0.050 0.819 1.244 0.656 2.769-0.075 1.45-1.244 3.006-1.969 3.637-0.031 0.025-0.063 0.050-0.1 0.069-0.056 0.038-0.125 0.050-0.188 0.050z"></path>
<path fill="#5e686c" d="M19.538 23.113c-0.050 0-0.106-0.012-0.156-0.031-0.219-0.087-0.325-0.331-0.244-0.55 5.613-14.294-1.788-20.581-2.744-21.313h-0.456c-1.019 0.738-8.406 6.744-2.744 21.244 0.088 0.219-0.025 0.462-0.244 0.55s-0.463-0.025-0.55-0.244c-3.225-8.269-2.213-13.881-0.794-17.137 1.55-3.563 3.863-5.125 3.963-5.194 0.069-0.044 0.15-0.069 0.238-0.069h0.731c0.087 0 0.169 0.025 0.238 0.075 0.094 0.063 9.363 6.6 3.156 22.4-0.063 0.169-0.225 0.269-0.394 0.269z"></path>
<path fill="#5e686c" d="M19.469 25.381h-6.594c-0.825 0-1.525-0.7-1.525-1.525s0.7-1.525 1.525-1.525h6.587c0.825 0 1.525 0.7 1.525 1.525 0 0.831-0.694 1.525-1.519 1.525zM12.875 23.188c-0.35 0-0.675 0.319-0.675 0.675 0 0.35 0.319 0.675 0.675 0.675h6.587c0.35 0 0.675-0.319 0.675-0.675 0-0.35-0.319-0.675-0.675-0.675h-6.588z"></path>
<path id="svg-ico" fill="#ee5586" d="M16.169 11.044c-1.406 0-2.55-1.144-2.55-2.55s1.144-2.55 2.55-2.55 2.55 1.144 2.55 2.55c0 1.406-1.144 2.55-2.55 2.55zM16.169 6.794c-0.938 0-1.7 0.763-1.7 1.7s0.762 1.7 1.7 1.7c0.938 0 1.7-0.762 1.7-1.7s-0.762-1.7-1.7-1.7z"></path>
<path fill="#5e686c" d="M7.381 23.188c-0.081 0-0.156-0.019-0.231-0.069-0.2-0.125-0.256-0.387-0.131-0.587l3.737-5.85c0.125-0.2 0.387-0.256 0.588-0.131s0.256 0.387 0.131 0.587l-3.737 5.85c-0.081 0.131-0.219 0.2-0.356 0.2z"></path>
<path fill="#5e686c" d="M12.144 23.188h-4.763c-0.237 0-0.425-0.188-0.425-0.425s0.188-0.425 0.425-0.425h4.763c0.238 0 0.425 0.188 0.425 0.425 0 0.231-0.188 0.425-0.425 0.425z"></path>
<path fill="#5e686c" d="M24.994 23.188c-0.137 0-0.275-0.069-0.356-0.194l-3.775-5.85c-0.125-0.2-0.069-0.462 0.125-0.587s0.456-0.069 0.587 0.125l3.775 5.85c0.125 0.2 0.069 0.462-0.125 0.587-0.075 0.044-0.156 0.069-0.231 0.069z"></path>
<path fill="#5e686c" d="M24.994 23.188h-4.813c-0.238 0-0.425-0.188-0.425-0.425s0.188-0.425 0.425-0.425h4.813c0.238 0 0.425 0.188 0.425 0.425 0 0.231-0.194 0.425-0.425 0.425z"></path>
</svg>
