<!-- Generated by IcoMoon.io -->
<svg version="1.1" xmlns="http://www.w3.org/2000/svg" width="32" height="32" viewBox="0 0 32 32">
<title>regression</title>
<path id="svg-ico" fill="#ee5586" d="M28.881 12.069c-0.106 0-0.219-0.044-0.3-0.125l-10.85-10.856c-0.169-0.169-0.169-0.438 0-0.6 0.169-0.169 0.438-0.169 0.6 0l10.856 10.85c0.169 0.169 0.169 0.438 0 0.6-0.087 0.088-0.194 0.131-0.306 0.131z"></path>
<path id="svg-ico" fill="#ee5586" d="M28.881 12.069h-5.481c-0.238 0-0.425-0.194-0.425-0.425 0-0.238 0.194-0.425 0.425-0.425h5.056v-5.063c0-0.237 0.194-0.425 0.425-0.425 0.238 0 0.425 0.194 0.425 0.425v5.481c0 0.238-0.188 0.431-0.425 0.431z"></path>
<path fill="#5e686b" d="M30.819 31.75h-29.844c-0.238 0-0.425-0.194-0.425-0.425 0-0.238 0.194-0.425 0.425-0.425h29.844c0.238 0 0.425 0.194 0.425 0.425s-0.194 0.425-0.425 0.425z"></path>
<path fill="#5e686b" d="M6.531 27.113c-0.237 0-0.425-0.194-0.425-0.425v-25.575c0-0.238 0.194-0.425 0.425-0.425s0.425 0.194 0.425 0.425v25.575c0 0.238-0.194 0.425-0.425 0.425z"></path>
<path fill="#5e686b" d="M16.212 27.113c-0.238 0-0.425-0.194-0.425-0.425v-15.344c0-0.238 0.194-0.425 0.425-0.425 0.238 0 0.425 0.194 0.425 0.425v15.344c0 0.238-0.194 0.425-0.425 0.425z"></path>
<path fill="#5e686b" d="M25.894 27.113c-0.238 0-0.425-0.194-0.425-0.425v-8.525c0-0.238 0.194-0.425 0.425-0.425 0.238 0 0.425 0.194 0.425 0.425v8.525c0 0.238-0.194 0.425-0.425 0.425z"></path>
</svg>
