<!-- Generated by IcoMoon.io -->
<svg version="1.1" xmlns="http://www.w3.org/2000/svg" width="32" height="32" viewBox="0 0 32 32">
<title>reload</title>
<path id="svg-ico" fill="#ee5586" d="M5.362 12.156c-0.225 0-0.4-0.181-0.4-0.4v-4.244h-4.244c-0.225 0-0.4-0.181-0.4-0.4 0-0.225 0.181-0.4 0.4-0.4h4.644c0.225 0 0.4 0.181 0.4 0.4v4.638c0 0.225-0.181 0.406-0.4 0.406z"></path>
<path fill="#5e686b" d="M31.256 25.944h-4.644c-0.225 0-0.4-0.181-0.4-0.4v-4.644c0-0.225 0.181-0.4 0.4-0.4 0.225 0 0.4 0.181 0.4 0.4v4.244h4.244c0.225 0 0.4 0.181 0.4 0.4s-0.181 0.4-0.4 0.4z"></path>
<path id="svg-ico" fill="#ee5586" d="M15.988 30.8c-7.988 0-14.488-6.5-14.488-14.488 0-3.475 1.25-6.838 3.519-9.469 0.144-0.169 0.4-0.188 0.569-0.044s0.188 0.4 0.044 0.569c-2.15 2.481-3.331 5.656-3.331 8.944 0 7.544 6.138 13.688 13.688 13.688 2.619 0 5.162-0.744 7.356-2.144 0.188-0.119 0.438-0.069 0.556 0.125 0.119 0.188 0.063 0.438-0.119 0.556-2.331 1.481-5.019 2.262-7.794 2.262z"></path>
<path fill="#5e686b" d="M26.631 25.944c-0.094 0-0.188-0.031-0.262-0.1-0.169-0.144-0.188-0.4-0.038-0.569 2.156-2.488 3.344-5.669 3.344-8.962 0-7.544-6.137-13.688-13.688-13.688-2.6 0-5.131 0.731-7.319 2.119-0.188 0.119-0.438 0.063-0.556-0.125s-0.063-0.438 0.125-0.556c2.319-1.469 4.994-2.244 7.75-2.244 7.988 0 14.488 6.5 14.488 14.488 0 3.488-1.256 6.863-3.538 9.494-0.081 0.094-0.194 0.144-0.306 0.144z"></path>
</svg>
