<!-- Generated by IcoMoon.io -->
<svg version="1.1" xmlns="http://www.w3.org/2000/svg" width="32" height="32" viewBox="0 0 32 32">
<title>reseller</title>
<path fill="#5e686b" d="M12.7 8.469h1.669c0.231 0 0.419-0.188 0.419-0.419s-0.188-0.419-0.419-0.419h-1.669c-0.231 0-0.419 0.188-0.419 0.419s0.188 0.419 0.419 0.419z"></path>
<path fill="#5e686b" d="M17.694 8.469h1.669c0.231 0 0.419-0.188 0.419-0.419s-0.188-0.419-0.419-0.419h-1.669c-0.231 0-0.419 0.188-0.419 0.419s0.188 0.419 0.419 0.419z"></path>
<path fill="#5e686b" d="M16.031 14.363c3.906 0 7.087-3.181 7.087-7.088 0-2.125-0.944-4.037-2.431-5.338-0.044-0.069-0.113-0.125-0.188-0.156-1.219-0.994-2.775-1.594-4.469-1.594-3.906 0-7.088 3.181-7.088 7.088s3.181 7.088 7.088 7.088zM16.031 1.019c1.219 0 2.356 0.35 3.313 0.956l-8.675 2.081c1.094-1.819 3.088-3.038 5.363-3.038zM10.194 5.031l10.012-2.406c1.275 1.144 2.075 2.806 2.075 4.65 0 3.45-2.806 6.25-6.25 6.25-3.45 0-6.25-2.806-6.25-6.25 0-0.794 0.144-1.55 0.412-2.244z"></path>
<path fill="#5e686b" d="M7.906 22.131c0.013 0 0.031 0 0.044 0h16.212c0.231 0 0.419-0.188 0.419-0.419v-2.956c0-1.863-1.512-3.375-3.375-3.375h-10.344c-1.863 0-3.375 1.512-3.375 3.375v2.962c0 0.231 0.188 0.413 0.419 0.413zM8.319 18.756c0-1.4 1.137-2.544 2.544-2.544h4.75v2.919c0 0.231 0.188 0.419 0.419 0.419s0.419-0.188 0.419-0.419v-2.919h4.75c1.4 0 2.544 1.137 2.544 2.544v2.544h-15.425v-2.544z"></path>
<path id="svg-ico" fill="#ee5586" d="M7.981 23.825l-4.944 4.944c-0.25-0.144-0.538-0.231-0.844-0.231-0.919 0-1.669 0.75-1.669 1.669s0.75 1.669 1.669 1.669c0.919 0 1.669-0.75 1.669-1.669 0-0.306-0.087-0.6-0.231-0.844l4.944-4.944c0.162-0.163 0.162-0.425 0-0.587-0.162-0.169-0.431-0.169-0.594-0.006zM2.194 31.044c-0.462 0-0.831-0.375-0.831-0.837 0-0.456 0.375-0.831 0.831-0.831 0.462 0 0.831 0.375 0.831 0.831 0 0.462-0.375 0.837-0.831 0.837z"></path>
<path id="svg-ico" fill="#ee5586" d="M29.794 28.538c-0.319 0-0.613 0.087-0.863 0.238l-5.056-4.95c-0.163-0.163-0.425-0.156-0.587 0.006s-0.156 0.431 0.006 0.587l5.044 4.944c-0.15 0.25-0.231 0.538-0.231 0.844 0 0.919 0.756 1.669 1.694 1.669 0.931 0 1.694-0.75 1.694-1.669-0.006-0.919-0.769-1.669-1.7-1.669zM29.794 31.044c-0.475 0-0.856-0.375-0.856-0.837 0-0.456 0.387-0.831 0.856-0.831 0.475 0 0.863 0.375 0.863 0.831-0.006 0.462-0.394 0.837-0.863 0.837z"></path>
<path id="svg-ico" fill="#ee5586" d="M16.45 28.6v-4.656c0-0.231-0.188-0.419-0.419-0.419s-0.419 0.188-0.419 0.419v4.65c-0.725 0.181-1.269 0.837-1.269 1.619 0 0.919 0.75 1.669 1.669 1.669s1.669-0.75 1.669-1.669c0-0.775-0.525-1.425-1.231-1.613zM16.012 31.044c-0.463 0-0.831-0.375-0.831-0.837 0-0.456 0.375-0.831 0.831-0.831 0.462 0 0.831 0.375 0.831 0.831 0.006 0.462-0.369 0.837-0.831 0.837z"></path>
</svg>
