<!-- Generated by IcoMoon.io -->
<svg version="1.1" xmlns="http://www.w3.org/2000/svg" width="32" height="32" viewBox="0 0 32 32">
<title>robot</title>
<path id="svg-ico" fill="#ee5586" d="M15.981 9.281c-0.231 0-0.425-0.188-0.425-0.425v-3.381c0-0.231 0.188-0.425 0.425-0.425 0.231 0 0.425 0.188 0.425 0.425v3.381c-0.006 0.238-0.194 0.425-0.425 0.425z"></path>
<path fill="#5e686c" d="M26.519 30.475h-21.15c-0.231 0-0.425-0.188-0.425-0.425v-21.144c0-0.231 0.188-0.425 0.425-0.425h21.15c0.231 0 0.425 0.188 0.425 0.425v21.15c-0.006 0.231-0.194 0.419-0.425 0.419zM5.787 29.631h20.306v-20.306h-20.306v20.306z"></path>
<path fill="#5e686c" d="M5.369 22.231h-4.662c-0.231 0-0.425-0.188-0.425-0.425v-4.663c0-0.231 0.188-0.425 0.425-0.425h4.656c0.231 0 0.425 0.188 0.425 0.425s-0.188 0.425-0.425 0.425h-4.231v3.813h4.237c0.231 0 0.425 0.188 0.425 0.425s-0.194 0.425-0.425 0.425z"></path>
<path fill="#5e686c" d="M31.175 22.231h-4.656c-0.231 0-0.425-0.188-0.425-0.425s0.188-0.425 0.425-0.425h4.231v-3.813h-4.238c-0.231 0-0.425-0.188-0.425-0.425 0-0.231 0.188-0.425 0.425-0.425h4.656c0.231 0 0.425 0.188 0.425 0.425v4.663c0.006 0.238-0.188 0.425-0.419 0.425z"></path>
<path fill="#5e686c" d="M21.569 30.475c-0.231 0-0.425-0.188-0.425-0.425v-5.169h-10.331v5.169c0 0.231-0.188 0.425-0.425 0.425-0.231 0-0.425-0.188-0.425-0.425v-5.588c0-0.231 0.188-0.425 0.425-0.425h11.181c0.231 0 0.425 0.188 0.425 0.425v5.587c0 0.238-0.188 0.425-0.425 0.425z"></path>
<path id="svg-ico" fill="#ee5586" d="M15.981 5.9c-1.194 0-2.169-0.975-2.169-2.169s0.975-2.169 2.169-2.169c1.194 0 2.169 0.975 2.169 2.169s-0.975 2.169-2.169 2.169zM15.981 2.406c-0.731 0-1.325 0.594-1.325 1.325s0.594 1.325 1.325 1.325c0.731 0 1.325-0.594 1.325-1.325s-0.594-1.325-1.325-1.325z"></path>
<path id="svg-ico" fill="#ee5586" d="M11.787 18.962c-1.194 0-2.169-0.975-2.169-2.169s0.975-2.169 2.169-2.169c1.194 0 2.169 0.975 2.169 2.169s-0.975 2.169-2.169 2.169zM11.787 15.469c-0.731 0-1.325 0.594-1.325 1.325s0.594 1.325 1.325 1.325 1.325-0.594 1.325-1.325c0-0.731-0.594-1.325-1.325-1.325z"></path>
<path id="svg-ico" fill="#ee5586" d="M19.744 18.962c-1.194 0-2.169-0.975-2.169-2.169s0.975-2.169 2.169-2.169 2.169 0.975 2.169 2.169c0 1.194-0.975 2.169-2.169 2.169zM19.744 15.469c-0.731 0-1.325 0.594-1.325 1.325s0.594 1.325 1.325 1.325 1.325-0.594 1.325-1.325c0-0.731-0.594-1.325-1.325-1.325z"></path>
</svg>
