<!-- Generated by IcoMoon.io -->
<svg version="1.1" xmlns="http://www.w3.org/2000/svg" width="32" height="32" viewBox="0 0 32 32">
<title>savings</title>
<path fill="#5e686c" d="M26.569 30.906h-1.988c-1.344 0-2.4-1.056-2.4-2.4v-1.369c-3.169 0.837-6.681 0.887-9.787 0.144v1.15c0 1.344-1.056 2.4-2.4 2.4h-2.063c-1.344 0-2.4-1.056-2.4-2.4v-4.794c-0.375-0.375-0.75-0.756-1.075-1.131h-1.712c-1.3 0-2.4-1.1-2.4-2.4v-4.275c0-1.238 1.119-2.325 2.4-2.325h0.506c0.462-0.938 1.1-1.831 1.856-2.606 0.156-1.319-0.388-2.519-1.731-3.869-0.306-0.194-0.475-0.688-0.325-1.112 0.112-0.35 0.444-0.675 0.794-0.794 3.156-0.844 5.819-0.131 7.756 2.056 1.006-0.294 2.044-0.506 3.088-0.638 0.219-0.037 0.431 0.131 0.463 0.356s-0.131 0.431-0.356 0.463c-1.081 0.138-2.162 0.362-3.206 0.681-0.156 0.050-0.331-0.006-0.438-0.131-1.75-2.112-4.125-2.794-7.063-2-0.081 0.025-0.212 0.162-0.25 0.263-0.019 0.069 0.006 0.169 0.069 0.213 1.637 1.625 2.256 3.125 2.013 4.756-0.013 0.088-0.056 0.169-0.119 0.231-0.794 0.794-1.45 1.731-1.906 2.706-0.069 0.144-0.212 0.238-0.375 0.238h-0.775c-0.825 0-1.575 0.713-1.575 1.5v4.275c0 0.837 0.738 1.575 1.575 1.575h1.906c0.125 0 0.237 0.056 0.319 0.15 0.369 0.438 0.819 0.894 1.263 1.331 0.075 0.075 0.138 0.194 0.138 0.306v4.962c0 0.881 0.694 1.575 1.575 1.575h2.062c0.881 0 1.575-0.694 1.575-1.575v-1.669c0-0.131 0.063-0.25 0.162-0.325 0.1-0.081 0.238-0.1 0.363-0.069 3.263 0.887 7.050 0.837 10.387-0.15 0.125-0.038 0.262-0.012 0.363 0.063 0.106 0.081 0.169 0.2 0.169 0.331v1.913c0 0.881 0.694 1.575 1.575 1.575h1.988c0.925 0 1.65-0.725 1.65-1.65v-5.344c0-0.106 0.044-0.206 0.113-0.288 1.65-1.725 2.556-3.769 2.556-5.75 0-3.5-2.681-6.769-7-8.525-0.212-0.088-0.313-0.325-0.225-0.537s0.325-0.313 0.538-0.225c4.631 1.881 7.512 5.444 7.512 9.287 0 2.15-0.95 4.344-2.675 6.2v5.181c-0.012 1.356-1.119 2.469-2.488 2.469z"></path>
<path id="svg-ico" fill="#ee5586" d="M19.644 9.088c-2.050 0-3.713-1.669-3.713-3.713 0-2.050 1.669-3.712 3.713-3.712 2.050 0 3.712 1.669 3.712 3.712s-1.669 3.713-3.712 3.713zM19.644 2.481c-1.594 0-2.887 1.294-2.887 2.888s1.294 2.888 2.887 2.888 2.887-1.294 2.887-2.888-1.294-2.888-2.887-2.888z"></path>
</svg>
