<!-- Generated by IcoMoon.io -->
<svg version="1.1" xmlns="http://www.w3.org/2000/svg" width="32" height="32" viewBox="0 0 32 32">
<title>security</title>
<path fill="#5e686c" d="M15.931 31.688c-0.063 0-0.119-0.012-0.175-0.038-0.537-0.244-13.088-6.113-13.088-13.613v-13.188c0-0.006 0-0.013 0-0.025 0-0.006 0-0.019 0-0.025 0-0.231 0.2-0.444 0.425-0.412 0.081-0.013 8.75 0.037 12.55-3.844 0 0 0 0 0 0s0 0.006 0 0c0.031-0.031 0.063-0.056 0.1-0.075 0 0-0.006 0 0 0 0 0 0 0 0 0v0 0 0c0.063-0.031 0.15-0.050 0.2-0.050 0 0 0 0 0 0v0c0.063 0 0.125 0.013 0.181 0.044 0 0 0 0 0 0s0 0 0 0c0.038 0.019 0.075 0.044 0.106 0.075 0 0 0 0 0 0s0 0 0 0 0.006 0 0.006 0.006c3.631 3.706 12.281 3.838 13.156 3.844 0.25-0.050 0.494 0.156 0.494 0.412v13.244c0 7.506-13.225 13.369-13.787 13.619-0.056 0.019-0.113 0.025-0.169 0.025zM3.5 5.219v12.819c0 6.525 10.931 12.044 12.438 12.775 1.556-0.719 13.113-6.244 13.113-12.775v-12.819c-1.881-0.031-9.375-0.381-13.106-3.806-3.688 3.406-10.644 3.769-12.444 3.806z"></path>
<path id="svg-ico" fill="#ee5586" d="M15.912 27.275c-0.056 0-0.119-0.012-0.175-0.038-0.394-0.175-9.631-4.413-9.631-9.913v-8.55c0-0.231 0.188-0.419 0.419-0.419s0.419 0.188 0.419 0.419v8.556c0 4.594 7.737 8.475 8.975 9.069 1.294-0.581 9.6-4.481 9.6-9.069v-8.556c0-0.231 0.188-0.419 0.419-0.419s0.419 0.188 0.419 0.419v8.556c0 5.506-9.856 9.738-10.281 9.913-0.050 0.025-0.106 0.031-0.162 0.031z"></path>
<path id="svg-ico" fill="#ee5586" d="M6.569 8.838c-0.037 0-0.069 0-0.081 0-0.231-0.006-0.412-0.194-0.412-0.425 0.006-0.231 0.169-0.406 0.425-0.412 0.056 0 6.15 0.044 9.162-3.050 0.162-0.162 0.425-0.169 0.594-0.006 0.163 0.162 0.169 0.425 0.006 0.594-3.106 3.188-8.912 3.3-9.694 3.3z"></path>
<path id="svg-ico" fill="#ee5586" d="M25.825 8.838c-0.837 0-7.056-0.113-10.162-3.3-0.162-0.162-0.156-0.431 0.006-0.594s0.431-0.156 0.594 0.006c3.012 3.094 9.569 3.044 9.637 3.050 0 0 0.006 0 0.006 0 0.231 0 0.413 0.181 0.419 0.412s-0.181 0.419-0.413 0.425c-0.019 0-0.044 0-0.087 0z"></path>
<path fill="#5e686c" d="M9.613 11.838c-0.106 0-0.213-0.044-0.294-0.125-0.162-0.162-0.162-0.425 0-0.594l0.881-0.881c0.162-0.162 0.425-0.162 0.594 0 0.162 0.162 0.162 0.425 0 0.594l-0.881 0.881c-0.088 0.081-0.194 0.125-0.3 0.125z"></path>
<path fill="#5e686c" d="M9.169 15.806c-0.106 0-0.213-0.044-0.294-0.125-0.162-0.162-0.162-0.425 0-0.594l4.856-4.85c0.162-0.162 0.425-0.162 0.594 0 0.162 0.162 0.162 0.425 0 0.594l-4.856 4.856c-0.081 0.081-0.188 0.119-0.3 0.119z"></path>
</svg>
