<!-- Generated by IcoMoon.io -->
<svg version="1.1" xmlns="http://www.w3.org/2000/svg" width="32" height="32" viewBox="0 0 32 32">

<title>select</title>
<path fill="#5e686c" d="M14.9 8.363h-5.906c-0.231 0-0.425-0.188-0.425-0.425v-5.906c0-0.231 0.188-0.425 0.425-0.425h5.906c0.231 0 0.425 0.188 0.425 0.425v5.906c0 0.231-0.188 0.425-0.425 0.425zM9.412 7.513h5.063v-5.063h-5.063v5.063z"></path>
<path id="svg-ico" d="M14.9 19.356h-5.65c-0.231 0-0.425-0.188-0.425-0.425s0.188-0.425 0.425-0.425h5.231v-5.063h-5.063v2.106c0 0.231-0.188 0.425-0.425 0.425s-0.425-0.188-0.425-0.425v-2.531c0-0.231 0.188-0.425 0.425-0.425h5.906c0.231 0 0.425 0.188 0.425 0.425v5.919c0 0.231-0.188 0.419-0.425 0.419z"></path>
<path fill="#5e686c" d="M14.9 30.356h-5.906c-0.231 0-0.425-0.188-0.425-0.425v-5.906c0-0.231 0.188-0.425 0.425-0.425h5.906c0.231 0 0.425 0.188 0.425 0.425v5.906c0 0.238-0.188 0.425-0.425 0.425zM9.412 29.512h5.063v-5.063h-5.063v5.063z"></path>
<path fill="#5e686c" d="M31.137 3.675h-13.5c-0.231 0-0.425-0.188-0.425-0.425 0-0.231 0.188-0.425 0.425-0.425h13.506c0.231 0 0.425 0.188 0.425 0.425-0.006 0.237-0.194 0.425-0.431 0.425z"></path>
<path fill="#5e686c" d="M27.8 6.287h-10.125c-0.231 0-0.425-0.188-0.425-0.425s0.188-0.425 0.425-0.425h10.131c0.231 0 0.425 0.188 0.425 0.425s-0.194 0.425-0.431 0.425z"></path>
<path id="svg-ico" d="M31.137 14.912h-13.5c-0.231 0-0.425-0.188-0.425-0.425s0.188-0.425 0.425-0.425h13.506c0.231 0 0.425 0.188 0.425 0.425s-0.194 0.425-0.431 0.425z"></path>
<path id="svg-ico" d="M27.8 17.525h-10.125c-0.231 0-0.425-0.188-0.425-0.425s0.188-0.425 0.425-0.425h10.131c0.231 0 0.425 0.188 0.425 0.425s-0.194 0.425-0.431 0.425z"></path>
<path fill="#5e686c" d="M31.137 26.156h-13.5c-0.231 0-0.425-0.188-0.425-0.425s0.188-0.425 0.425-0.425h13.506c0.231 0 0.425 0.188 0.425 0.425s-0.194 0.425-0.431 0.425z"></path>
<path fill="#5e686c" d="M27.762 28.762h-10.125c-0.231 0-0.425-0.188-0.425-0.425s0.188-0.425 0.425-0.425h10.131c0.231 0 0.425 0.188 0.425 0.425s-0.194 0.425-0.431 0.425z"></path>
<path fill="#5e686c" d="M7.025 25.050c-0.006 0-0.019 0-0.025 0-0.188-0.012-0.344-0.15-0.381-0.331l-1.037-4.762-4.763-1.038c-0.181-0.038-0.319-0.194-0.331-0.381s0.1-0.363 0.275-0.425l9.613-3.5c0.156-0.056 0.325-0.019 0.444 0.1s0.156 0.287 0.1 0.444l-3.494 9.619c-0.069 0.163-0.225 0.275-0.4 0.275zM2.413 18.4l3.6 0.788c0.162 0.038 0.287 0.163 0.325 0.319l0.787 3.6 2.688-7.4-7.4 2.694z"></path>
</svg>
