<!-- Generated by IcoMoon.io -->
<svg version="1.1" xmlns="http://www.w3.org/2000/svg" width="32" height="32" viewBox="0 0 32 32">
<title>servers</title>
<path fill="#5e686b" d="M11.544 31.319h-8.544c-1.156 0-2.1-0.769-2.1-1.719v-27.225c0-0.944 0.944-1.719 2.1-1.719h8.544c1.156 0 2.1 0.769 2.1 1.719v27.231c-0.006 0.944-0.944 1.712-2.1 1.712zM3 1.494c-0.688 0-1.269 0.406-1.269 0.881v27.231c0 0.481 0.581 0.881 1.269 0.881h8.544c0.688 0 1.262-0.406 1.262-0.881v-27.231c0-0.481-0.581-0.881-1.262-0.881h-8.544z"></path>
<path fill="#5e686b" d="M29.456 31.319h-8.544c-1.156 0-2.1-0.769-2.1-1.719v-27.225c0-0.944 0.944-1.719 2.1-1.719h8.544c1.156 0 2.1 0.769 2.1 1.719v27.231c0 0.944-0.944 1.712-2.1 1.712zM20.913 1.494c-0.688 0-1.269 0.406-1.269 0.881v27.231c0 0.481 0.581 0.881 1.269 0.881h8.544c0.688 0 1.269-0.406 1.269-0.881v-27.231c0-0.481-0.581-0.881-1.269-0.881h-8.544z"></path>
<path id="svg-ico" fill="#ee5586" d="M7.269 10.244c-0.106 0-0.213-0.006-0.325-0.019-0.662-0.088-1.25-0.425-1.656-0.95-0.406-0.531-0.588-1.188-0.5-1.844 0.175-1.35 1.419-2.344 2.8-2.156 1.362 0.175 2.331 1.431 2.156 2.8-0.162 1.231-1.225 2.169-2.475 2.169zM7.263 6.081c-0.831 0-1.538 0.625-1.65 1.45-0.056 0.438 0.063 0.875 0.331 1.231 0.269 0.35 0.662 0.575 1.106 0.637 0.925 0.119 1.75-0.537 1.869-1.438 0.119-0.912-0.531-1.75-1.438-1.862-0.075-0.019-0.15-0.019-0.219-0.019z"></path>
<path id="svg-ico" fill="#ee5586" d="M25.206 10.244c-0.106 0-0.219-0.006-0.325-0.019-1.363-0.175-2.331-1.431-2.156-2.8 0.175-1.35 1.431-2.337 2.8-2.156 1.369 0.175 2.331 1.431 2.156 2.8-0.163 1.238-1.225 2.175-2.475 2.175zM25.2 6.081c-0.831 0-1.538 0.625-1.644 1.45-0.119 0.912 0.525 1.75 1.438 1.863 0.925 0.119 1.75-0.537 1.869-1.438 0.119-0.912-0.531-1.75-1.438-1.862-0.081-0.013-0.156-0.013-0.225-0.013z"></path>
</svg>
