<!-- Generated by IcoMoon.io -->
<svg version="1.1" xmlns="http://www.w3.org/2000/svg" width="32" height="32" viewBox="0 0 32 32">
<title>shop</title>
<path id="svg-ico" fill="#ee5586" d="M19.994 8.656c-0.231 0-0.425-0.188-0.425-0.425v-5.981c0-0.556-1.6-1.181-3.738-1.181-0.969 0-1.844 0.131-2.475 0.363-0.412 0.156-0.9 0.419-0.9 0.819v5.981c0 0.231-0.188 0.425-0.425 0.425s-0.425-0.188-0.425-0.425v-5.981c0-0.488 0.25-1.163 1.45-1.613 0.719-0.269 1.706-0.419 2.769-0.419 2.206 0 4.581 0.631 4.581 2.025v5.981c0.006 0.244-0.181 0.431-0.413 0.431z"></path>
<path fill="#5e686c" d="M27.275 31.781h-22.525c-0.231 0-0.425-0.188-0.425-0.425v-23.125c0-0.231 0.188-0.425 0.425-0.425h22.519c0.231 0 0.425 0.188 0.425 0.425v23.125c0 0.238-0.188 0.425-0.419 0.425zM5.175 30.938h21.675v-22.281h-21.675v22.281z"></path>
</svg>
