<!-- Generated by IcoMoon.io -->
<svg version="1.1" xmlns="http://www.w3.org/2000/svg" width="32" height="32" viewBox="0 0 32 32">
<title>solid</title>
<path id="svg-ico" fill="#ee5586" d="M6.394 3.981c-0.237 0-0.431 0.194-0.431 0.431v24.075h-5.331c-0.237 0-0.431 0.194-0.431 0.431s0.194 0.431 0.431 0.431h5.763c0.237 0 0.431-0.194 0.431-0.431v-24.5c0-0.244-0.194-0.438-0.431-0.438z"></path>
<path fill="#5e686b" d="M31.606 18.481l-2.712-2.031v-7.713c0-1.825-1.488-3.313-3.313-3.313h-2.881c-7.387 0-13.394 6.013-13.394 13.4v7.925c0 0.238 0.194 0.431 0.431 0.431h3.256c0.844 1.281 2.3 2.131 3.95 2.131s3.1-0.85 3.95-2.131h3.269c0.375 1.231 1.525 2.131 2.875 2.131s2.5-0.9 2.875-2.131h1.444c0.238 0 0.431-0.194 0.431-0.431v-7.925c-0.006-0.137-0.069-0.262-0.181-0.344zM16.938 28.456c-2.131 0-3.863-1.731-3.863-3.863s1.731-3.863 3.863-3.863c2.131 0 3.863 1.731 3.863 3.863 0.006 2.125-1.731 3.863-3.863 3.863zM27.031 28.456c-1.181 0-2.15-0.962-2.15-2.144 0-1.188 0.962-2.15 2.15-2.15 1.181 0 2.15 0.962 2.15 2.15-0.006 1.181-0.969 2.144-2.15 2.144zM30.925 26.325h-0.887c0-0.006 0-0.006 0-0.012 0-1.656-1.35-3.006-3.006-3.006s-3.006 1.35-3.006 3.006c0 0.006 0 0.006 0 0.012h-2.688c0.212-0.538 0.331-1.119 0.331-1.731 0-2.606-2.119-4.725-4.725-4.725s-4.725 2.119-4.725 4.725c0 0.613 0.119 1.194 0.331 1.731h-2.381v-7.5c0-6.919 5.625-12.544 12.544-12.544h2.881c1.35 0 2.456 1.1 2.456 2.456v7.931c0 0.137 0.063 0.262 0.175 0.344l2.712 2.031-0.012 7.281z"></path>
</svg>
