<!-- Generated by IcoMoon.io -->
<svg version="1.1" xmlns="http://www.w3.org/2000/svg" width="32" height="32" viewBox="0 0 32 32">
<title>statuette</title>
<path fill="#5e686c" d="M20.181 31.744h-4.163c-0.231 0-0.425-0.188-0.425-0.425s0.188-0.425 0.425-0.425h4.163c0.15 0 0.269-0.125 0.269-0.275v-1.238c0-0.15-0.119-0.275-0.269-0.275h-2.569c-0.125 0-0.25-0.056-0.325-0.15-0.081-0.094-0.119-0.219-0.1-0.344 0.031-0.175 0.025-0.306 0.025-0.325-0.006-0.012-0.425-2.044 0.181-3.294 0.475-0.981 0.306-2.456 0.206-2.688-0.194-0.337-0.387-1.769 0.012-2.444 0.256-0.425 0.363-1.581 0.512-3.181l0.012-0.119c0.137-1.425-0.175-1.781-0.181-1.787-0.113-0.081-0.144-0.181-0.144-0.313v-1.481c0-0.231 0.188-0.425 0.425-0.425h0.319c0.538-0.037 0.744-1.713 0.831-2.431l0.050-0.381c0.044-0.287 0.119-0.556 0.2-0.813 0.2-0.675 0.363-1.206-0.125-1.875-0.594-0.825-2.044-1.281-2.55-1.388-0.2-0.044-0.344-0.219-0.337-0.425l0.038-1.031c0.006-0.119 0.056-0.231 0.15-0.306 0 0 0 0 0 0s0.375-0.4 0.331-1.663c-0.038-1.069-0.781-1.137-0.931-1.144h-0.438c-0.231 0-0.425-0.188-0.425-0.425s0.188-0.425 0.425-0.425h0.444c0.587 0 1.712 0.413 1.769 1.956 0.044 1.275-0.281 1.906-0.488 2.181l-0.019 0.544c0.644 0.181 2.025 0.669 2.719 1.631 0.725 1.006 0.462 1.9 0.25 2.613-0.075 0.244-0.137 0.469-0.175 0.694l-0.050 0.363c-0.15 1.2-0.375 3.006-1.569 3.162v0.912c0.2 0.287 0.45 0.938 0.319 2.338l-0.012 0.119c-0.175 1.837-0.281 2.944-0.631 3.538-0.2 0.337-0.094 1.387 0.006 1.619 0.2 0.35 0.406 2.2-0.194 3.45-0.4 0.825-0.212 2.325-0.106 2.831 0 0.019 0.006 0.038 0.006 0.069h2.131c0.613 0 1.113 0.5 1.113 1.119v1.238c0.006 0.619-0.494 1.119-1.106 1.119z"></path>
<path id="svg-ico" fill="#ee5586" d="M16.019 31.744h-4.213c-0.613 0-1.106-0.5-1.106-1.119v-1.238c0-0.619 0.5-1.119 1.106-1.119h2.131c0.113-0.594 0.294-2.081-0.1-2.894-0.6-1.244-0.4-3.1-0.194-3.462 0.1-0.225 0.2-1.275 0.006-1.613-0.35-0.581-0.45-1.681-0.625-3.5l-0.012-0.15c-0.131-1.4 0.113-2.050 0.319-2.338v-0.912c-1.194-0.175-1.419-1.963-1.569-3.156l-0.050-0.363c-0.031-0.225-0.1-0.456-0.175-0.7-0.213-0.713-0.475-1.606 0.25-2.606 0.694-0.963 2.069-1.444 2.719-1.625l-0.019-0.544c-0.206-0.275-0.525-0.906-0.481-2.181 0.050-1.55 1.181-1.962 1.769-1.962l0.006 0.844c-0.15 0.006-0.894 0.075-0.925 1.144-0.044 1.275 0.338 1.675 0.344 1.675 0.075 0.075 0.131 0.188 0.137 0.294l0.037 1.031c0.006 0.206-0.131 0.388-0.338 0.425-0.019 0.006-1.838 0.394-2.55 1.381-0.481 0.669-0.325 1.2-0.125 1.875 0.081 0.262 0.156 0.531 0.2 0.819l0.050 0.375c0.088 0.719 0.3 2.394 0.863 2.431h0.287c0.231 0 0.425 0.188 0.425 0.425v1.481c0 0.137-0.063 0.262-0.175 0.344v0c0.012 0-0.275 0.381-0.144 1.756l0.012 0.15c0.15 1.587 0.262 2.731 0.512 3.15 0.4 0.669 0.206 2.106 0.006 2.456-0.088 0.219-0.256 1.694 0.219 2.675 0.581 1.206 0.213 3.144 0.175 3.356 0.006 0 0.006 0.106 0.031 0.262 0.019 0.125-0.012 0.244-0.094 0.337s-0.2 0.15-0.319 0.15h-2.588c-0.144 0-0.262 0.125-0.262 0.275v1.25c0 0.15 0.119 0.275 0.262 0.275h4.212l-0.019 0.844z"></path>
</svg>
