<!-- Generated by IcoMoon.io -->
<svg version="1.1" xmlns="http://www.w3.org/2000/svg" width="32" height="32" viewBox="0 0 32 32">
<title>stream</title>
<path fill="#5e686b" d="M16 25.344c-6 0-10.944-4.831-11.012-10.769v-0.15c0-0.238 0.194-0.425 0.425-0.425s0.425 0.194 0.425 0.425v0.125c0.069 5.481 4.625 9.937 10.156 9.937 5.894 0 10.075-3.669 10.156-8.919 0-0.1 0-2.044 0-2.106 0-0.238 0.194-0.425 0.425-0.425 0.238 0 0.425 0.194 0.425 0.425 0 0.063 0 2.063 0 2.125-0.081 5.65-4.712 9.756-11 9.756z"></path>
<path fill="#5e686b" d="M16 31.794c-0.238 0-0.425-0.194-0.425-0.425v-2.606c0-0.238 0.194-0.425 0.425-0.425s0.425 0.194 0.425 0.425v2.606c0 0.231-0.188 0.425-0.425 0.425z"></path>
<path fill="#5e686b" d="M18.45 31.794h-4.9c-0.238 0-0.425-0.194-0.425-0.425s0.194-0.425 0.425-0.425h4.9c0.238 0 0.425 0.194 0.425 0.425s-0.188 0.425-0.425 0.425z"></path>
<path id="svg-ico" fill="#ee5586" d="M16 20.55c-3.369 0-6.106-2.712-6.106-6.050v-8.319c0-3.337 2.738-6.050 6.106-6.050s6.106 2.712 6.106 6.050v8.319c0 3.337-2.738 6.050-6.106 6.050zM16 0.988c-2.894 0-5.25 2.331-5.25 5.194v8.319c0 2.863 2.356 5.194 5.25 5.194s5.25-2.331 5.25-5.194v-8.319c0-2.862-2.356-5.194-5.25-5.194z"></path>
</svg>
