<!-- Generated by IcoMoon.io -->
<svg version="1.1" xmlns="http://www.w3.org/2000/svg" width="32" height="32" viewBox="0 0 32 32">
<title>surprise</title>
<path id="svg-ico" fill="#ee5586" d="M16.063 25.569c-2.637 0-4.781-2.144-4.781-4.781s2.144-4.788 4.781-4.788c2.637 0 4.781 2.144 4.781 4.788 0.006 2.637-2.144 4.781-4.781 4.781zM16.063 16.869c-2.156 0-3.912 1.756-3.912 3.913s1.756 3.913 3.912 3.913c2.156 0 3.913-1.756 3.913-3.913s-1.75-3.913-3.913-3.913z"></path>
<path fill="#5e686b" d="M9.594 13.919c-1.919 0-3.481-1.563-3.481-3.481s1.563-3.481 3.481-3.481c1.919 0 3.481 1.563 3.481 3.481 0 1.925-1.563 3.481-3.481 3.481zM9.594 7.831c-1.438 0-2.612 1.169-2.612 2.606s1.169 2.613 2.612 2.613c1.438 0 2.606-1.169 2.606-2.613s-1.169-2.606-2.606-2.606z"></path>
<path fill="#5e686b" d="M22.531 13.919c-1.919 0-3.481-1.563-3.481-3.481s1.563-3.481 3.481-3.481c1.919 0 3.481 1.563 3.481 3.481 0 1.925-1.563 3.481-3.481 3.481zM22.531 7.831c-1.438 0-2.606 1.169-2.606 2.606s1.169 2.613 2.606 2.613c1.438 0 2.613-1.169 2.613-2.613 0-1.438-1.169-2.606-2.613-2.606z"></path>
<path fill="#5e686b" d="M14.325 31.6c-0.019 0-0.031 0-0.050 0-7.906-0.9-13.869-7.587-13.869-15.556 0-8.637 7.025-15.656 15.656-15.656s15.656 7.025 15.656 15.656c0 7.969-5.962 14.656-13.869 15.556-0.238 0.019-0.456-0.144-0.481-0.381s0.144-0.456 0.381-0.481c7.469-0.85 13.094-7.162 13.094-14.694 0-8.156-6.631-14.787-14.787-14.787-8.15 0-14.787 6.631-14.787 14.787 0 7.525 5.631 13.844 13.1 14.694 0.238 0.025 0.412 0.244 0.381 0.481-0.019 0.219-0.206 0.381-0.425 0.381z"></path>
</svg>
