<!-- Generated by IcoMoon.io -->
<svg version="1.1" xmlns="http://www.w3.org/2000/svg" width="32" height="32" viewBox="0 0 32 32">
<title>switch</title>
<path fill="#5e686b" d="M24.169 14.556h-16.337c-3.987 0-7.237-3.244-7.237-7.231s3.25-7.237 7.237-7.237h16.331c3.994 0 7.238 3.244 7.238 7.237s-3.244 7.231-7.231 7.231zM7.831 1.194c-3.381 0-6.131 2.75-6.131 6.131s2.75 6.131 6.131 6.131h16.331c3.381 0 6.131-2.75 6.131-6.131s-2.75-6.131-6.131-6.131h-16.331z"></path>
<path id="svg-ico" fill="#ee5586" d="M7.831 11.194c-2.131 0-3.869-1.738-3.869-3.869s1.738-3.869 3.869-3.869c2.131 0 3.869 1.738 3.869 3.869s-1.738 3.869-3.869 3.869zM7.831 4.563c-1.525 0-2.763 1.237-2.763 2.763s1.237 2.763 2.763 2.763c1.525 0 2.763-1.238 2.763-2.763s-1.238-2.763-2.763-2.763z"></path>
<path id="svg-ico" fill="#ee5586" d="M24.169 28.631c-2.131 0-3.869-1.738-3.869-3.869s1.738-3.869 3.869-3.869c2.131 0 3.869 1.738 3.869 3.869s-1.738 3.869-3.869 3.869zM24.169 22c-1.525 0-2.762 1.238-2.762 2.762s1.238 2.762 2.762 2.762c1.525 0 2.762-1.238 2.762-2.762 0-1.519-1.238-2.762-2.762-2.762z"></path>
<path fill="#5e686b" d="M24.169 32h-16.337c-3.987 0-7.237-3.244-7.237-7.238s3.244-7.238 7.237-7.238h16.331c3.994 0 7.238 3.244 7.238 7.238s-3.244 7.238-7.231 7.238zM7.831 18.631c-3.381 0-6.131 2.75-6.131 6.131s2.75 6.131 6.131 6.131h16.331c3.381 0 6.131-2.75 6.131-6.131s-2.75-6.131-6.131-6.131h-16.331z"></path>
</svg>
