<!-- Generated by IcoMoon.io -->
<svg version="1.1" xmlns="http://www.w3.org/2000/svg" width="32" height="32" viewBox="0 0 32 32">
<title>sync</title>
<path id="svg-ico" fill="#ee5586" d="M27.225 10.475c-0.1 0-0.2-0.037-0.275-0.113-0.15-0.15-0.15-0.4 0-0.556l3.825-3.825-3.825-3.825c-0.15-0.15-0.15-0.4 0-0.556 0.15-0.15 0.4-0.15 0.556 0l4.1 4.1c0.15 0.15 0.15 0.4 0 0.556l-4.1 4.1c-0.081 0.081-0.181 0.119-0.281 0.119z"></path>
<path id="svg-ico" fill="#ee5586" d="M0.581 15.106c-0.219 0-0.394-0.175-0.394-0.394v-5.306c0-2.281 1.856-4.138 4.138-4.138h20.613c0.219 0 0.394 0.175 0.394 0.394s-0.175 0.394-0.394 0.394h-20.613c-1.85 0-3.356 1.506-3.356 3.356v5.306c0 0.213-0.175 0.387-0.387 0.387z"></path>
<path fill="#5e686b" d="M27.581 26.363h-20.656c-0.219 0-0.394-0.175-0.394-0.394s0.175-0.394 0.394-0.394h20.656c1.85 0 3.356-1.506 3.356-3.356v-5.406c0-0.219 0.175-0.394 0.394-0.394s0.394 0.175 0.394 0.394v5.413c-0.006 2.281-1.863 4.137-4.144 4.137z"></path>
<path fill="#5e686b" d="M11.025 30.462c-0.1 0-0.2-0.038-0.275-0.113l-4.106-4.1c-0.075-0.075-0.112-0.175-0.112-0.275s0.044-0.206 0.112-0.275l4.1-4.1c0.15-0.15 0.4-0.15 0.556 0 0.15 0.15 0.15 0.4 0 0.556l-3.825 3.825 3.825 3.825c0.15 0.15 0.15 0.4 0 0.556-0.075 0.063-0.175 0.1-0.275 0.1z"></path>
</svg>
