<!-- Generated by IcoMoon.io -->
<svg version="1.1" xmlns="http://www.w3.org/2000/svg" width="32" height="32" viewBox="0 0 32 32">
<title>tag</title>
<path fill="#5e686c" d="M25.019 31.688h-5.8c-0.231 0-0.425-0.188-0.425-0.425 0-2.387-1.887-4.481-4.037-4.481-0.675 0-0.931 0.094-1.15 0.175l-0.113 0.044c-0.219 0.075-0.463-0.044-0.537-0.269-0.075-0.219 0.044-0.462 0.269-0.538l0.1-0.031c0.262-0.094 0.619-0.225 1.438-0.225 2.469 0 4.656 2.25 4.869 4.906h4.969v-2.25c0-0.231 0.188-0.425 0.425-0.425 0.231 0 0.425 0.188 0.425 0.425v2.675c-0.006 0.231-0.194 0.419-0.431 0.419zM10.306 31.688h-5.8c-0.231 0-0.425-0.188-0.425-0.425v-27.65c0-0.231 0.188-0.425 0.425-0.425h2.675c0.231 0 0.425 0.188 0.425 0.425s-0.188 0.425-0.425 0.425h-2.25v26.806h4.963c0.031-0.631 0.156-1.794 0.606-2.481 0.125-0.194 0.387-0.25 0.588-0.125 0.194 0.125 0.25 0.387 0.125 0.587-0.381 0.587-0.481 1.856-0.481 2.444-0.006 0.231-0.194 0.419-0.425 0.419z"></path>
<path id="svg-ico" fill="#ee5586" d="M27.694 29.012h-5.8c-0.231 0-0.425-0.188-0.425-0.425 0-2.387-1.887-4.481-4.038-4.481-2.175 0-4.081 2.094-4.081 4.481 0 0.231-0.188 0.425-0.425 0.425h-5.756c-0.231 0-0.425-0.188-0.425-0.425v-27.65c0-0.231 0.188-0.425 0.425-0.425h5.8c0.231 0 0.425 0.188 0.425 0.425 0 2.388 1.887 4.481 4.038 4.481s4.038-2.094 4.038-4.481c0-0.231 0.188-0.425 0.425-0.425h5.8c0.231 0 0.425 0.188 0.425 0.425v27.65c0 0.238-0.188 0.425-0.425 0.425zM22.306 28.169h4.969v-26.806h-4.969c-0.212 2.656-2.394 4.906-4.869 4.906-2.469 0-4.656-2.25-4.869-4.906h-4.969v26.806h4.925c0.213-2.656 2.419-4.906 4.906-4.906 2.481 0 4.663 2.244 4.875 4.906z"></path>
<path fill="#5e686c" d="M25.494 10.281h-15.219c-0.231 0-0.425-0.188-0.425-0.425 0-0.231 0.188-0.425 0.425-0.425h15.219c0.231 0 0.425 0.188 0.425 0.425s-0.194 0.425-0.425 0.425z"></path>
</svg>
