<!-- Generated by IcoMoon.io -->
<svg version="1.1" xmlns="http://www.w3.org/2000/svg" width="32" height="32" viewBox="0 0 32 32">
<title>tea</title>
<path fill="#5e686b" d="M28.806 31.794h-25.656c-0.237 0-0.425-0.194-0.425-0.425 0-0.238 0.194-0.425 0.425-0.425h25.656c0.238 0 0.425 0.194 0.425 0.425 0 0.238-0.194 0.425-0.425 0.425z"></path>
<path fill="#5e686b" d="M20.181 27.844h-11.969c-0.219 0-0.438-0.069-0.612-0.2-2.856-2.125-4.494-5.363-4.494-8.875v-6.037c0-0.569 0.462-1.025 1.025-1.025h20.125c0.569 0 1.025 0.463 1.025 1.025v2.131c2.344 0.5 4.050 2.575 4.025 4.969-0.038 2.756-2.3 5-5.050 5-0.294 0-0.55-0.050-0.788-0.106-0.756 1.175-1.656 2.156-2.681 2.919-0.169 0.125-0.381 0.2-0.606 0.2zM4.138 12.556c-0.094 0-0.175 0.075-0.175 0.175v6.037c0 3.244 1.513 6.231 4.144 8.194 0.031 0.025 0.063 0.031 0.1 0.031h11.969c0.038 0 0.075-0.012 0.1-0.031 1.019-0.756 1.9-1.75 2.625-2.944 0.1-0.156 0.288-0.238 0.462-0.194l0.137 0.031c0.256 0.063 0.494 0.119 0.7 0.125 2.337 0 4.219-1.863 4.25-4.156 0.025-2.094-1.55-3.887-3.656-4.181-0.212-0.031-0.369-0.213-0.369-0.425v-2.487c0-0.094-0.075-0.175-0.175-0.175h-20.113z"></path>
<path id="svg-ico" fill="#ee5586" d="M9.162 8.775c-0.238 0-0.425-0.194-0.425-0.425v-5.131c0-0.237 0.194-0.425 0.425-0.425s0.425 0.194 0.425 0.425v5.131c0.006 0.231-0.188 0.425-0.425 0.425z"></path>
<path id="svg-ico" fill="#ee5586" d="M19.238 8.775c-0.238 0-0.425-0.194-0.425-0.425v-5.131c0-0.237 0.194-0.425 0.425-0.425s0.425 0.194 0.425 0.425v5.131c0 0.231-0.188 0.425-0.425 0.425z"></path>
<path id="svg-ico" fill="#ee5586" d="M14.2 8.775c-0.238 0-0.425-0.194-0.425-0.425v-7.7c0-0.237 0.194-0.425 0.425-0.425 0.238 0 0.425 0.194 0.425 0.425v7.694c0 0.238-0.194 0.431-0.425 0.431z"></path>
</svg>
