<!-- Generated by IcoMoon.io -->
<svg version="1.1" xmlns="http://www.w3.org/2000/svg" width="32" height="32" viewBox="0 0 32 32">
<title>technology</title>
<path fill="#5e686b" d="M15.569 31.731h-13.831c-0.775 0-1.413-0.631-1.413-1.413v-28.637c0-0.781 0.631-1.413 1.413-1.413h20.744c0.781 0 1.413 0.631 1.413 1.413v4.938c0 0.231-0.188 0.425-0.425 0.425-0.231 0-0.425-0.188-0.425-0.425v-4.938c0-0.313-0.256-0.563-0.563-0.563h-20.744c-0.313 0-0.563 0.256-0.563 0.563v28.644c0 0.313 0.256 0.563 0.563 0.563h13.825c0.231 0 0.425 0.188 0.425 0.425 0 0.231-0.188 0.419-0.419 0.419z"></path>
<path id="svg-ico" fill="#ee5586" d="M30.381 31.731h-10.863c-0.781 0-1.413-0.631-1.413-1.413v-19.75c0-0.781 0.631-1.412 1.413-1.412h10.863c0.775 0 1.413 0.631 1.413 1.412v19.756c0 0.775-0.637 1.406-1.413 1.406zM19.519 10.006c-0.313 0-0.563 0.256-0.563 0.563v19.756c0 0.313 0.256 0.563 0.563 0.563h10.863c0.313 0 0.563-0.256 0.563-0.563v-19.756c0-0.313-0.25-0.563-0.563-0.563h-10.863z"></path>
<path fill="#5e686b" d="M12.106 29.544c-0.931 0-1.694-0.756-1.694-1.694 0-0.931 0.756-1.694 1.694-1.694s1.694 0.756 1.694 1.694c0 0.938-0.756 1.694-1.694 1.694zM12.106 27.006c-0.469 0-0.844 0.381-0.844 0.844 0 0.469 0.381 0.844 0.844 0.844s0.844-0.381 0.844-0.844c0.006-0.462-0.375-0.844-0.844-0.844z"></path>
<path id="svg-ico" fill="#ee5586" d="M24.95 29.544c-0.931 0-1.694-0.756-1.694-1.694 0-0.931 0.756-1.694 1.694-1.694s1.694 0.756 1.694 1.694c0 0.938-0.762 1.694-1.694 1.694zM24.95 27.006c-0.469 0-0.844 0.381-0.844 0.844 0 0.469 0.381 0.844 0.844 0.844s0.844-0.381 0.844-0.844c0-0.462-0.375-0.844-0.844-0.844z"></path>
</svg>
