<!-- Generated by IcoMoon.io -->
<svg version="1.1" xmlns="http://www.w3.org/2000/svg" width="32" height="32" viewBox="0 0 32 32">
<title>thumbup</title>
<path id="svg-ico" fill="#ee5586" d="M5.406 23.163c-1.044 0-1.9 0.85-1.9 1.9 0 1.044 0.85 1.9 1.9 1.9 1.044 0 1.9-0.85 1.9-1.9 0-1.044-0.85-1.9-1.9-1.9zM5.406 26.012c-0.525 0-0.95-0.425-0.95-0.95s0.425-0.95 0.95-0.95 0.95 0.425 0.95 0.95-0.425 0.95-0.95 0.95z"></path>
<path fill="#5e686b" d="M31.1 17.069c0.425-0.756 0.519-1.831 0.519-2.631 0-2.525-3.2-4.138-4.869-4.138h-5.456c0.837-4.319-0.431-6.844-1.294-7.981-0.956-1.256-2.288-2.006-3.563-2.006-1.050 0-1.95 0.5-2.475 1.369-0.113 0.181-0.169 0.394-0.169 0.612v3.775c-1 2.862-1.956 5.013-3.444 6.5-0.325-1.3-1.5-2.263-2.9-2.263h-4.088c-1.644 0-2.987 1.338-2.987 2.988v15.056c0 1.65 1.344 2.988 2.987 2.988h4.081c1.306 0 2.419-0.844 2.825-2.012 0.637 0.381 1.269 0.575 1.869 0.575h13.237c0.762 0 1.494-0.381 2.113-1.094 0.75-0.856 1.281-2.163 1.363-3.306 1.044-0.894 1.563-2.394 1.506-4.363 1.075-1.25 1.087-2.906 0.744-4.069zM9.488 28.35c0 1.125-0.919 2.044-2.044 2.044h-4.081c-1.125 0-2.044-0.913-2.044-2.044v-15.056c0-1.125 0.919-2.037 2.044-2.037h4.081c1.125 0 2.044 0.912 2.044 2.037v15.056zM30.194 16.731c-0.087 0.125-0.113 0.288-0.063 0.438 0.344 0.956 0.387 2.438-0.6 3.469-0.087 0.094-0.137 0.219-0.131 0.35 0.087 1.85-0.363 3.2-1.3 3.9-0.119 0.087-0.188 0.225-0.188 0.369-0.019 0.975-0.488 2.181-1.137 2.931-0.431 0.5-0.913 0.762-1.394 0.762h-13.244c-0.512 0-1.113-0.231-1.7-0.656v-14.519c1.969-1.65 3.1-4.088 4.275-7.469 0.019-0.050 0.025-0.1 0.025-0.156v-3.856c0-0.044 0.012-0.087 0.031-0.125 0.35-0.581 0.956-0.913 1.662-0.913 0.981 0 2.031 0.613 2.806 1.631 0.8 1.056 1.988 3.475 1 7.775-0.031 0.144 0 0.287 0.094 0.4 0.087 0.113 0.225 0.181 0.369 0.181h6.050c1.163 0 3.925 1.238 3.925 3.188 0 1.056-0.175 1.869-0.481 2.3z"></path>
</svg>
