<!-- Generated by IcoMoon.io -->
<svg version="1.1" xmlns="http://www.w3.org/2000/svg" width="32" height="32" viewBox="0 0 32 32">
<title>ticket</title>
<path fill="#5e686b" d="M8.994 4.787c0.238 0 0.425-0.188 0.425-0.425v-3.069h3.375c0.231 0 0.425-0.188 0.425-0.425s-0.194-0.425-0.425-0.425h-3.8c-0.238 0-0.425 0.187-0.425 0.425v3.494c0 0.237 0.188 0.425 0.425 0.425z"></path>
<path fill="#5e686b" d="M15.819 1.294h5.938c0.238 0 0.425-0.188 0.425-0.425s-0.188-0.425-0.425-0.425h-5.938c-0.238 0-0.425 0.187-0.425 0.425s0.188 0.425 0.425 0.425z"></path>
<path fill="#5e686b" d="M24.675 1.294h3.375v3.375c0 0.237 0.188 0.425 0.425 0.425s0.425-0.188 0.425-0.425v-3.8c0-0.238-0.188-0.425-0.425-0.425h-3.8c-0.238 0-0.425 0.187-0.425 0.425s0.188 0.425 0.425 0.425z"></path>
<path fill="#5e686b" d="M28.469 14.081c-0.238 0-0.425 0.188-0.425 0.425v4.8c0 0.238 0.188 0.425 0.425 0.425s0.425-0.188 0.425-0.425v-4.8c0-0.238-0.188-0.425-0.425-0.425z"></path>
<path fill="#5e686b" d="M28.469 6.638c-0.238 0-0.425 0.188-0.425 0.425v4.8c0 0.238 0.188 0.425 0.425 0.425s0.425-0.188 0.425-0.425v-4.8c0-0.237-0.188-0.425-0.425-0.425z"></path>
<path fill="#5e686b" d="M28.469 21.806c-0.238 0-0.425 0.188-0.425 0.425v3.050l-4.056-2.381v0.95l4.262 2.538c0.069 0.038 0.144 0.063 0.219 0.063s0.144-0.019 0.212-0.056c0.131-0.075 0.212-0.219 0.212-0.369v-3.8c0-0.231-0.188-0.419-0.425-0.419z"></path>
<path id="svg-ico" fill="#ee5586" d="M23.988 6.1c0-0.237-0.188-0.425-0.425-0.425h-19.475c-0.237 0-0.425 0.188-0.425 0.425v25.156c0 0.15 0.081 0.294 0.212 0.369s0.294 0.075 0.425-0.006l9.519-5.688 9.519 5.688c0.069 0.038 0.144 0.063 0.219 0.063s0.144-0.019 0.212-0.056c0.131-0.075 0.212-0.219 0.212-0.369l0.006-25.156zM23.137 30.506l-9.1-5.431c-0.069-0.038-0.144-0.063-0.219-0.063s-0.15 0.019-0.219 0.063l-9.088 5.431v-23.981h18.625v23.981z"></path>
</svg>
