<!-- Generated by IcoMoon.io -->
<svg version="1.1" xmlns="http://www.w3.org/2000/svg" width="32" height="32" viewBox="0 0 32 32">
<title>twitter</title>
<path fill="#5e686c" d="M13.306 27.056c-3.056 0-8.781-0.819-12.819-6.325-0.125-0.175-0.1-0.413 0.056-0.556s0.4-0.144 0.562-0.006c0.219 0.194 5.444 4.7 10.756-0.275 0.169-0.156 0.431-0.15 0.594 0.019 0.156 0.169 0.15 0.438-0.019 0.594-3.6 3.369-7.225 2.744-9.512 1.738 3.588 3.406 7.906 3.969 10.381 3.969 2.194 0 7.287-0.931 10.825-4.45 2.087-2.075 2.8-3.969 3.031-5.188 0.038-0.2 0.194-0.337 0.419-0.344 0.637 0.006 1.644-0.063 2.469-0.512-1.056 0.006-2.394-0.088-2.5-0.594-0.044-0.213 0.119-0.456 0.319-0.525 0.031-0.012 0.063-0.019 0.094-0.019 0.913-0.081 1.512-0.325 1.913-0.594-0.756 0.113-1.731 0.094-2.594-0.412-0.1-0.056-0.169-0.156-0.194-0.269-0.644-2.813-2.881-5.513-5.912-5.225-0.131 0.012-0.269-0.037-0.356-0.144-0.087-0.1-0.125-0.244-0.094-0.375 0.106-0.45 0.113-1.056-0.050-1.188-0.056-0.050-0.238-0.050-0.569 0.088-1.281 0.563-2.8 3.1-4.169 6.95-0.075 0.219-0.319 0.331-0.537 0.256s-0.331-0.319-0.256-0.537c0.85-2.394 2.581-6.544 4.625-7.438 0.613-0.269 1.094-0.256 1.444 0.031 0.425 0.356 0.456 1.013 0.413 1.487 3.175 0 5.494 2.769 6.231 5.713 1.3 0.637 2.962-0.056 2.981-0.069 0.15-0.063 0.319-0.037 0.444 0.069 0.119 0.106 0.169 0.275 0.125 0.425-0.012 0.050-0.275 0.931-1.425 1.531 0.375 0 0.788-0.012 1.206-0.056 0.163-0.012 0.325 0.063 0.413 0.213 0.081 0.144 0.069 0.325-0.031 0.463-0.944 1.256-2.575 1.531-3.65 1.563-0.313 1.331-1.131 3.238-3.194 5.288-3.738 3.725-9.106 4.706-11.419 4.706z"></path>
<path id="svg-ico" fill="#ee5586" d="M11.669 20.65c-1.338 0-2.044-0.688-2.15-1.438-0.050-0.375 0.044-0.775 0.3-1.106-1.725-0.325-2.225-1.119-2.569-1.919-0.162-0.375-0.081-0.65 0.013-0.813 0.144-0.244 0.394-0.387 0.706-0.481-1.281-0.688-2.287-1.669-2.112-2.838 0.112-0.475 0.569-0.575 1.013-0.594-0.894-0.675-2.244-1.881-1.794-3.669 0.031-0.125 0.119-0.225 0.231-0.281 0.119-0.050 0.25-0.050 0.362 0.006 0.706 0.362 1.581 0.688 2.513 1.031 2.369 0.881 5.319 1.975 7.675 4.444 0.163 0.169 0.156 0.431-0.012 0.594s-0.431 0.156-0.594-0.012c-2.225-2.331-4.95-3.344-7.362-4.237-0.731-0.275-1.438-0.531-2.063-0.813 0.019 1.056 0.938 1.825 1.831 2.475 0.356 0.262 0.537 0.394 0.606 0.6 0.044 0.131 0.012 0.344-0.063 0.45-0.188 0.256-0.525 0.256-0.95 0.25-0.156 0-0.425-0.006-0.569 0.019-0.013 0.787 1.169 1.762 2.944 2.375 0.188 0.063 0.3 0.25 0.281 0.444s-0.175 0.35-0.369 0.369l-0.325 0.037c-0.375 0.037-1.069 0.113-1.213 0.25 0.006 0.006 0.012 0.031 0.025 0.063 0.294 0.681 0.625 1.45 3.15 1.556 0.213 0.006 0.387 0.181 0.4 0.394s-0.137 0.406-0.35 0.438c-0.637 0.106-0.919 0.506-0.869 0.85 0.063 0.425 0.637 0.825 1.75 0.688 0.231-0.025 0.438 0.137 0.469 0.369 0.025 0.231-0.137 0.438-0.369 0.469-0.194 0.019-0.375 0.031-0.537 0.031z"></path>
</svg>
