<!-- Generated by IcoMoon.io -->
<svg version="1.1" xmlns="http://www.w3.org/2000/svg" width="32" height="32" viewBox="0 0 32 32">
<title>umbrella</title>
<path fill="#5e686c" d="M16.206 29.337c-0.238 0-0.425-0.188-0.425-0.425v-14.613c0-0.238 0.188-0.425 0.425-0.425s0.425 0.188 0.425 0.425v14.613c0 0.238-0.188 0.425-0.425 0.425z"></path>
<path fill="#5e686c" d="M16.206 3.331c-0.238 0-0.425-0.188-0.425-0.425v-2.063c0-0.238 0.188-0.425 0.425-0.425s0.425 0.187 0.425 0.425v2.056c0 0.237-0.188 0.431-0.425 0.431z"></path>
<path fill="#5e686c" d="M13.669 31.869c-1.625 0-2.95-1.325-2.95-2.956 0-0.238 0.188-0.425 0.425-0.425s0.425 0.188 0.425 0.425c0 1.163 0.944 2.106 2.1 2.106s2.1-0.944 2.1-2.106c0-0.238 0.188-0.425 0.425-0.425s0.425 0.188 0.425 0.425c0 1.631-1.325 2.956-2.95 2.956z"></path>
<path id="svg-ico" fill="#ee5586" d="M29.225 14.725h-26.069c-0.125 0-0.244-0.056-0.325-0.15-0.256-0.294-0.031-2.531-0.025-2.556 0.125-0.9 0.413-1.781 0.881-2.694 0.487-0.944 1.125-1.819 1.881-2.6 1.369-1.425 2.987-2.513 4.819-3.219 1.5-0.581 3.106-0.931 4.775-1.031h2.031c1.175 0.075 2.313 0.275 3.419 0.594 1.444 0.419 2.781 1.019 3.969 1.781 1.206 0.769 2.269 1.763 3.156 2.956 1.044 1.4 1.65 2.75 1.794 4.019l0.012 0.144c0.256 2.319 0.137 2.456 0.012 2.6-0.075 0.088-0.2 0.15-0.319 0.156-0.006 0-0.006 0-0.012 0zM3.563 13.875h25.288c-0.012-0.381-0.063-1.069-0.15-1.813l-0.012-0.156c-0.125-1.1-0.675-2.313-1.631-3.588-0.825-1.106-1.813-2.031-2.938-2.744-1.125-0.719-2.387-1.287-3.75-1.681-1.044-0.3-2.125-0.487-3.206-0.563h-1.975c-1.556 0.094-3.075 0.425-4.487 0.975-1.719 0.662-3.237 1.681-4.513 3.019-0.7 0.725-1.288 1.537-1.737 2.406-0.425 0.825-0.688 1.613-0.8 2.419-0.025 0.156-0.075 1.169-0.087 1.725z"></path>
</svg>
