<!-- Generated by IcoMoon.io -->
<svg version="1.1" xmlns="http://www.w3.org/2000/svg" width="32" height="32" viewBox="0 0 32 32">
<title>unlock</title>
<path fill="#5e686b" d="M16 31.813c-6.219 0-11.281-5.063-11.281-11.281s5.063-11.281 11.281-11.281c6.219 0 11.281 5.063 11.281 11.281s-5.063 11.281-11.281 11.281zM16 10.113c-5.744 0-10.412 4.675-10.412 10.412 0 5.744 4.675 10.413 10.412 10.413 5.744 0 10.413-4.669 10.413-10.413 0-5.738-4.669-10.412-10.413-10.412z"></path>
<path id="svg-ico" fill="#ee5586" d="M16 24.281c-0.238 0-0.431-0.194-0.431-0.431v-5.206c0-0.238 0.194-0.431 0.431-0.431s0.431 0.194 0.431 0.431v5.206c0 0.238-0.194 0.431-0.431 0.431z"></path>
<path id="svg-ico" fill="#ee5586" d="M8.65 10c-0.162 0-0.313-0.088-0.387-0.244l-1.406-2.881c-0.425-0.875-0.487-1.862-0.169-2.781s0.975-1.663 1.85-2.087l3.194-1.556c1.806-0.881 3.994-0.131 4.869 1.675 0.106 0.219 0.012 0.475-0.2 0.581s-0.475 0.013-0.581-0.2c-0.669-1.375-2.338-1.944-3.713-1.275l-3.194 1.556c-0.662 0.325-1.162 0.894-1.406 1.594s-0.194 1.45 0.125 2.119l1.406 2.881c0.106 0.213 0.019 0.475-0.2 0.581-0.063 0.025-0.125 0.037-0.188 0.037z"></path>
</svg>
