<!-- Generated by IcoMoon.io -->
<svg version="1.1" xmlns="http://www.w3.org/2000/svg" width="32" height="32" viewBox="0 0 32 32">
<title>usb</title>
<path fill="#5e686b" d="M13.95 5.088c-0.231 0-0.412 0.188-0.412 0.412v2.306c0 0.231 0.188 0.412 0.412 0.412 0.231 0 0.412-0.188 0.412-0.412v-2.306c0.006-0.225-0.181-0.412-0.412-0.412z"></path>
<path fill="#5e686b" d="M18.563 5.088c-0.231 0-0.413 0.188-0.413 0.412v2.306c0 0.231 0.188 0.412 0.413 0.412 0.231 0 0.413-0.188 0.413-0.412v-2.306c0-0.225-0.181-0.412-0.413-0.412z"></path>
<path fill="#5e686b" d="M19.719 16.619h-6.919c-0.231 0-0.412 0.188-0.412 0.413 0 0.231 0.188 0.413 0.412 0.413h6.919c0.231 0 0.413-0.188 0.413-0.413s-0.188-0.413-0.413-0.413z"></path>
<path fill="#5e686b" d="M24.331 12.006h-16.144c-0.231 0-0.412 0.188-0.412 0.412v10.375c0 4.681 3.806 8.488 8.488 8.488s8.488-3.806 8.488-8.488v-10.375c-0.006-0.225-0.194-0.412-0.419-0.412zM23.913 22.8c0 4.219-3.438 7.656-7.656 7.656-4.225 0-7.656-3.438-7.656-7.656v-9.969h15.313v9.969z"></path>
<path id="svg-ico" fill="#ee5586" d="M10.906 1.306h10.7v10.7h0.831v-11.119c0-0.231-0.188-0.412-0.413-0.412h-11.531c-0.231 0-0.412 0.188-0.412 0.412v11.113h0.825v-10.694z"></path>
</svg>
