<!-- Generated by IcoMoon.io -->
<svg version="1.1" xmlns="http://www.w3.org/2000/svg" width="32" height="32" viewBox="0 0 32 32">
<title>video</title>
<path fill="#5e686b" d="M19.256 29.012h-18.456c-0.244 0-0.438-0.194-0.438-0.438v-11.7c0-0.244 0.194-0.438 0.438-0.438h18.45c0.244 0 0.438 0.194 0.438 0.438v11.7c0.006 0.238-0.188 0.438-0.431 0.438zM1.238 28.137h17.581v-10.831h-17.581v10.831z"></path>
<path id="svg-ico" fill="#ee5586" d="M31.387 27.131c-0.031 0-0.069-0.006-0.1-0.012l-8.213-1.969c-0.2-0.050-0.337-0.225-0.337-0.425v-3.944c0-0.2 0.137-0.375 0.331-0.425l8.213-2.038c0.125-0.031 0.269 0 0.375 0.081s0.169 0.206 0.169 0.344v7.95c0 0.131-0.063 0.262-0.169 0.344-0.075 0.063-0.169 0.094-0.269 0.094zM23.606 24.381l7.344 1.762v-6.838l-7.344 1.819v3.256z"></path>
<path fill="#5e686b" d="M4.188 13c-1.688 0-3.056-1.375-3.056-3.056 0-1.688 1.369-3.056 3.056-3.056s3.063 1.369 3.063 3.056c0 1.681-1.375 3.056-3.063 3.056zM4.188 7.756c-1.206 0-2.181 0.981-2.181 2.181 0 1.206 0.981 2.188 2.181 2.188 1.206 0 2.188-0.981 2.188-2.188 0-1.2-0.981-2.181-2.188-2.181z"></path>
<path fill="#5e686b" d="M14.887 13.213c-2.65 0-4.806-2.156-4.806-4.806s2.156-4.806 4.806-4.806c2.65 0 4.806 2.156 4.806 4.806s-2.156 4.806-4.806 4.806zM14.887 4.469c-2.169 0-3.931 1.763-3.931 3.931s1.762 3.931 3.931 3.931c2.169 0 3.931-1.762 3.931-3.931s-1.762-3.931-3.931-3.931z"></path>
</svg>
