<!-- Generated by IcoMoon.io -->
<svg version="1.1" xmlns="http://www.w3.org/2000/svg" width="32" height="32" viewBox="0 0 32 32">
<title>virus</title>
<path id="svg-ico" fill="#ee5586" d="M19.075 6.194c-0.281-0.094-0.806-0.2-0.806-0.2z"></path>
<path id="svg-ico" fill="#ee5586" d="M18.406 5.175c0.181 0.056 0.587 0.125 0.825 0.188z"></path>
<path fill="#5e686b" d="M31.181 17.081h-2.619c-0.063-1.981-0.594-3.844-1.475-5.488l2.269-1.313c0.2-0.119 0.269-0.375 0.156-0.575-0.119-0.2-0.375-0.269-0.575-0.156l-2.275 1.313c-0.887-1.425-2.056-2.656-3.419-3.619-0.025-0.025-0.056-0.044-0.087-0.056-1.181-0.819-2.5-1.444-3.925-1.819 0.006-0.013-0.819-0.2-0.825-0.188-0.775-0.15-1.581-0.231-2.4-0.231-0.731 0-1.45 0.063-2.15 0.188l-1.188 0.269c-1.381 0.381-2.669 0.994-3.819 1.794-0.025 0.013-0.050 0.031-0.069 0.050-1.369 0.969-2.537 2.2-3.431 3.631l-2.275-1.313c-0.2-0.119-0.456-0.050-0.575 0.156-0.119 0.2-0.050 0.456 0.156 0.575l2.269 1.313c-0.881 1.644-1.406 3.513-1.475 5.487h-2.625c-0.231 0-0.419 0.188-0.419 0.419s0.188 0.419 0.419 0.419h2.625c0.063 1.981 0.594 3.844 1.475 5.488l-2.269 1.313c-0.2 0.119-0.269 0.375-0.156 0.575 0.075 0.137 0.219 0.212 0.362 0.212 0.069 0 0.144-0.019 0.212-0.056l2.275-1.313c2.219 3.556 6.169 5.925 10.662 5.925 4.488 0 8.438-2.369 10.656-5.925l2.275 1.313c0.069 0.038 0.137 0.056 0.212 0.056 0.144 0 0.288-0.075 0.363-0.212 0.119-0.2 0.050-0.456-0.156-0.575l-2.269-1.313c0.881-1.644 1.406-3.512 1.475-5.494h2.619c0.231 0 0.419-0.188 0.419-0.419-0.006-0.244-0.194-0.431-0.425-0.431zM15.588 29.212c-6.269-0.225-11.3-5.387-11.3-11.712 0-3.863 1.881-7.3 4.775-9.431 1.975 1.313 4.244 2.006 6.525 2.081v19.063zM9.819 7.556c0.969-0.606 2.031-1.069 3.162-1.375 0 0 0 0 0 0s0.825-0.188 0.825-0.188c0 0 0 0 0 0 0.713-0.138 1.45-0.206 2.206-0.206 0.688 0 1.356 0.063 2.012 0.175 0.363 0.031 1.012 0.237 1.019 0.225 1.131 0.3 2.194 0.769 3.163 1.375-3.788 2.338-8.619 2.338-12.387-0.006zM16.425 29.212v-19.063c2.281-0.075 4.55-0.769 6.525-2.081 2.894 2.137 4.775 5.569 4.775 9.431 0 6.325-5.031 11.494-11.3 11.712z"></path>
<path id="svg-ico" fill="#ee5586" d="M13.613 5.181l-0.131-0.325c-0.725-1.731-2.438-2.95-4.431-2.95-0.231 0-0.419 0.188-0.419 0.419s0.188 0.419 0.419 0.419c1.581 0 2.95 0.931 3.581 2.275l0.137 0.35c0 0 0.238 0.706 0.238 1.2 0 0 0 0.094 0 0.144 0 0.231 0.188 0.419 0.419 0.419s0.419-0.188 0.419-0.419c0.044-0.737-0.231-1.531-0.231-1.531z"></path>
<path id="svg-ico" fill="#ee5586" d="M19.231 5.362l0.163-0.381c0.644-1.319 2-2.231 3.563-2.231 0.231 0 0.419-0.188 0.419-0.419s-0.188-0.419-0.419-0.419c-1.969 0-3.669 1.194-4.406 2.9l-0.144 0.369c0 0-0.275 0.881-0.256 1.537 0 0.231 0.188 0.419 0.419 0.419s0.419-0.188 0.419-0.419c0.038-0.681 0.244-1.356 0.244-1.356z"></path>
</svg>
