<!-- Generated by IcoMoon.io -->
<svg version="1.1" xmlns="http://www.w3.org/2000/svg" width="32" height="32" viewBox="0 0 32 32">
<title>youtube</title>
<path fill="#5e686b" d="M28.613 28.806h-25.219c-1.7 0-3.081-1.381-3.081-3.081v-18.581c0-1.7 1.381-3.081 3.081-3.081h25.219c1.7 0 3.081 1.381 3.081 3.081v18.581c0 1.7-1.381 3.081-3.081 3.081zM3.394 4.912c-1.231 0-2.231 1-2.231 2.231v18.581c0 1.231 1 2.231 2.231 2.231h25.219c1.231 0 2.231-1 2.231-2.231v-18.581c0-1.231-1-2.231-2.231-2.231h-25.219z"></path>
<path id="svg-ico" fill="#ee5586" d="M13.35 20.837c-0.6 0-1.088-0.488-1.088-1.087v-6.637c0-0.813 0.95-1.406 1.706-0.881l5.106 3.2c0.406 0.169 0.675 0.563 0.675 1 0 0.331-0.156 0.644-0.438 0.856l-5.325 3.331c-0.162 0.131-0.394 0.219-0.637 0.219zM13.35 12.875c-0.131 0-0.238 0.106-0.238 0.238v6.637c0 0.131 0.106 0.244 0.238 0.244 0.019 0 0.069 0 0.144-0.063l5.338-3.337c0.012-0.012 0.069-0.075 0.069-0.163 0-0.119-0.087-0.194-0.163-0.219-0.031-0.012-0.056-0.025-0.081-0.038l-5.156-3.238c-0.088-0.056-0.131-0.063-0.15-0.063z"></path>
</svg>
