<!-- Generated by IcoMoon.io -->
<svg version="1.1" xmlns="http://www.w3.org/2000/svg" width="32" height="32" viewBox="0 0 32 32">
<title>zoom</title>
<path id="svg-ico" fill="#ee5586" d="M24.975 13.863c-0.225 0-0.413-0.181-0.419-0.406-0.075-2.456-1.056-4.381-2.906-5.731-0.188-0.138-0.231-0.4-0.094-0.588s0.4-0.231 0.587-0.094c2.075 1.506 3.169 3.65 3.256 6.381 0.006 0.231-0.175 0.425-0.406 0.431-0.012 0.006-0.012 0.006-0.019 0.006z"></path>
<path fill="#5e686b" d="M15.944 26.481c-5.031 0-9.831-2.925-11.969-7.825-0.456-1.056-0.781-2.163-0.95-3.287-0.038-0.231 0.125-0.444 0.35-0.475 0.231-0.031 0.444 0.125 0.481 0.35 0.156 1.056 0.456 2.088 0.887 3.075 2.688 6.169 9.894 8.994 16.063 6.306 6.163-2.688 8.994-9.894 6.3-16.063-1.306-2.987-3.694-5.287-6.725-6.475s-6.35-1.125-9.338 0.175c-3.95 1.725-6.719 5.456-7.237 9.738-0.025 0.231-0.244 0.4-0.469 0.369-0.231-0.025-0.394-0.238-0.369-0.469 0.55-4.575 3.512-8.569 7.737-10.406 3.194-1.394 6.738-1.462 9.975-0.188 3.244 1.275 5.794 3.731 7.188 6.925 2.875 6.588-0.144 14.294-6.738 17.169-1.681 0.731-3.45 1.081-5.188 1.081z"></path>
<path fill="#5e686b" d="M23.744 31.731c-0.163 0-0.313-0.094-0.387-0.25l-2.775-6.3c-0.094-0.212 0.006-0.456 0.219-0.556 0.206-0.094 0.456 0 0.556 0.219l2.775 6.3c0.094 0.212-0.006 0.456-0.219 0.556-0.050 0.019-0.106 0.031-0.169 0.031z"></path>
</svg>
