<?xml version="1.0" encoding="iso-8859-1"?>
<!-- Generator: Adobe Illustrator 21.0.0, SVG Export Plug-In . SVG Version: 6.00 Build 0)  -->
<svg xmlns="http://www.w3.org/2000/svg" xmlns:xlink="http://www.w3.org/1999/xlink" version="1.1" id="Capa_1" x="0px" y="0px" viewBox="0 0 512 512" style="enable-background:new 0 0 512 512;" xml:space="preserve" width="512px" height="512px">
<g>
	<g>
		<g>
			<path d="M512,264.534V230.4c-0.028-23.552-19.114-42.638-42.667-42.667H392.32c-1.996-46.487-20.507-90.738-52.207-124.8     c-0.193-0.318-0.41-0.62-0.649-0.905c-0.154-0.145-0.358-0.196-0.521-0.324C301.936,22.33,250.303,0,196.267,0     C142.231,0,90.597,22.33,53.589,61.705c-0.18,0.097-0.354,0.205-0.521,0.324c-0.239,0.285-0.456,0.587-0.648,0.905     c-69.979,75.337-69.882,191.933,0.222,267.153c0.137,0.137,0.282,0.265,0.418,0.41c32.867,35.089,77.542,56.795,125.44,60.945     c2.641,3.688,5.846,6.936,9.498,9.626c-10.863,7.986-17.293,20.651-17.331,34.133v34.133     c0.028,23.552,19.114,42.638,42.667,42.667h256c23.552-0.028,42.638-19.114,42.667-42.667V435.2     c-0.038-13.482-6.469-26.147-17.331-34.133c10.863-7.986,17.293-20.651,17.331-34.133V332.8     c-0.038-13.482-6.469-26.147-17.331-34.133C505.531,290.681,511.962,278.016,512,264.534z M375.031,187.734h-67.951     c-0.479-26.539-4.182-52.921-11.025-78.566c13.461-7.908,25.928-17.396,37.137-28.262     C358.532,110.93,373.24,148.486,375.031,187.734z M321.57,68.386c-9.334,9.1-19.635,17.153-30.72,24.013     c-7.832-24.611-20.96-47.207-38.46-66.202C278.367,34.798,302.031,49.229,321.57,68.386z M204.8,17.92     c29.244,5.308,55.023,37.547,70.4,83.157c-21.984,10.788-45.941,16.971-70.4,18.167V17.92z M204.8,136.312     c26.104-1.174,51.713-7.535,75.332-18.714c5.945,22.925,9.224,46.459,9.771,70.135H204.8V136.312z M187.733,17.92v101.325     c-24.459-1.197-48.416-7.379-70.4-18.167C132.71,55.467,158.49,23.228,187.733,17.92z M102.63,187.734     c0.547-23.677,3.825-47.211,9.771-70.135c23.619,11.178,49.228,17.54,75.332,18.714v51.422H102.63z M179.422,204.8     c-5.647,7.342-8.724,16.337-8.755,25.6v27.307c-20.261,2.591-39.979,8.398-58.411,17.203c-5.844-22.93-9.053-46.452-9.566-70.11     H179.422z M140.143,26.198c-17.506,18.993-30.639,41.589-38.477,66.202c-11.085-6.86-21.386-14.912-30.72-24.013     C90.49,49.227,114.16,34.795,140.143,26.198z M59.341,80.905c11.209,10.866,23.676,20.354,37.137,28.262     c-6.844,25.646-10.546,52.028-11.025,78.566H17.502C19.293,148.486,34.001,110.93,59.341,80.905z M17.468,204.8h68.164     c0.522,26.506,4.273,52.849,11.17,78.447c-13.572,7.934-26.124,17.497-37.376,28.476C34.027,281.687,19.275,244.094,17.468,204.8     z M71.04,324.224c9.343-9.168,19.678-17.268,30.814-24.149c7.987,24.732,21.295,47.413,38.989,66.449     C114.61,358.028,90.712,343.546,71.04,324.224z M170.667,332.8v34.133c0,0.538,0.137,1.024,0.154,1.553     c-21.922-12.049-41.216-39.364-53.76-76.732c17.283-8.614,35.872-14.309,55.014-16.853c2.385,9.402,7.91,17.708,15.659,23.543     v0.444C177.028,306.879,170.706,319.441,170.667,332.8z M494.933,435.2v34.133c0,14.138-11.461,25.6-25.6,25.6h-256     c-14.139,0-25.6-11.461-25.6-25.6V435.2c0-14.138,11.461-25.6,25.6-25.6h256C483.472,409.6,494.933,421.062,494.933,435.2z      M494.933,332.8v34.133c0,14.138-11.461,25.6-25.6,25.6h-256c-14.139,0-25.6-11.461-25.6-25.6V332.8     c0-14.138,11.461-25.6,25.6-25.6h256C483.472,307.2,494.933,318.662,494.933,332.8z M494.933,264.534     c0,14.138-11.461,25.6-25.6,25.6h-256c-14.139,0-25.6-11.462-25.6-25.6V230.4c0-14.138,11.461-25.6,25.6-25.6h256     c14.138,0,25.6,11.462,25.6,25.6V264.534z" fill="#8bc34a"/>
			<path d="M443.733,238.934h-17.067c-4.713,0-8.533,3.82-8.533,8.533s3.82,8.533,8.533,8.533h17.067     c4.713,0,8.533-3.82,8.533-8.533S448.446,238.934,443.733,238.934z" fill="#8bc34a"/>
			<path d="M392.533,238.934h-17.067c-4.713,0-8.533,3.82-8.533,8.533s3.82,8.533,8.533,8.533h17.067     c4.713,0,8.533-3.82,8.533-8.533S397.246,238.934,392.533,238.934z" fill="#8bc34a"/>
			<path d="M247.467,221.867c-14.138,0-25.6,11.461-25.6,25.6c0,14.138,11.461,25.6,25.6,25.6s25.6-11.461,25.6-25.6     C273.067,233.328,261.605,221.867,247.467,221.867z M247.467,256c-4.713,0-8.533-3.82-8.533-8.533s3.82-8.533,8.533-8.533     s8.533,3.82,8.533,8.533S252.179,256,247.467,256z" fill="#8bc34a"/>
			<path d="M443.733,341.334h-17.067c-4.713,0-8.533,3.82-8.533,8.533s3.82,8.533,8.533,8.533h17.067     c4.713,0,8.533-3.82,8.533-8.533S448.446,341.334,443.733,341.334z" fill="#8bc34a"/>
			<path d="M392.533,341.334h-17.067c-4.713,0-8.533,3.82-8.533,8.533s3.82,8.533,8.533,8.533h17.067     c4.713,0,8.533-3.82,8.533-8.533S397.246,341.334,392.533,341.334z" fill="#8bc34a"/>
			<path d="M247.467,324.267c-14.138,0-25.6,11.462-25.6,25.6s11.461,25.6,25.6,25.6s25.6-11.461,25.6-25.6     S261.605,324.267,247.467,324.267z M247.467,358.4c-4.713,0-8.533-3.82-8.533-8.533s3.82-8.533,8.533-8.533     s8.533,3.82,8.533,8.533S252.179,358.4,247.467,358.4z" fill="#8bc34a"/>
			<path d="M443.733,443.734h-17.067c-4.713,0-8.533,3.821-8.533,8.533c0,4.713,3.82,8.533,8.533,8.533h17.067     c4.713,0,8.533-3.821,8.533-8.533C452.267,447.554,448.446,443.734,443.733,443.734z" fill="#8bc34a"/>
			<path d="M392.533,443.734h-17.067c-4.713,0-8.533,3.821-8.533,8.533c0,4.713,3.82,8.533,8.533,8.533h17.067     c4.713,0,8.533-3.821,8.533-8.533C401.067,447.554,397.246,443.734,392.533,443.734z" fill="#8bc34a"/>
			<path d="M247.467,426.667c-14.138,0-25.6,11.462-25.6,25.6c0,14.138,11.461,25.6,25.6,25.6s25.6-11.462,25.6-25.6     C273.067,438.128,261.605,426.667,247.467,426.667z M247.467,460.8c-4.713,0-8.533-3.821-8.533-8.533     c0-4.713,3.82-8.533,8.533-8.533s8.533,3.821,8.533,8.533C256,456.98,252.179,460.8,247.467,460.8z" fill="#8bc34a"/>
		</g>
	</g>
</g>
<g>
</g>
<g>
</g>
<g>
</g>
<g>
</g>
<g>
</g>
<g>
</g>
<g>
</g>
<g>
</g>
<g>
</g>
<g>
</g>
<g>
</g>
<g>
</g>
<g>
</g>
<g>
</g>
<g>
</g>
</svg>
