<?xml version="1.0" encoding="iso-8859-1"?>
<!-- Generator: Adobe Illustrator 21.0.0, SVG Export Plug-In . SVG Version: 6.00 Build 0)  -->
<svg xmlns="http://www.w3.org/2000/svg" xmlns:xlink="http://www.w3.org/1999/xlink" version="1.1" id="Capa_1" x="0px" y="0px" viewBox="0 0 512 512" style="enable-background:new 0 0 512 512;" xml:space="preserve" width="512px" height="512px">
<g>
	<g>
		<g>
			<path d="M392.533,98.133H409.6c4.713,0,8.533-3.82,8.533-8.533s-3.82-8.533-8.533-8.533h-17.067c-4.713,0-8.533,3.82-8.533,8.533     S387.821,98.133,392.533,98.133z" fill="#182c3b"/>
			<path d="M341.333,98.133H358.4c4.713,0,8.533-3.82,8.533-8.533s-3.82-8.533-8.533-8.533h-17.067c-4.713,0-8.533,3.82-8.533,8.533     S336.621,98.133,341.333,98.133z" fill="#182c3b"/>
			<path d="M341.333,200.533H358.4c4.713,0,8.533-3.82,8.533-8.533s-3.82-8.533-8.533-8.533h-17.067     c-4.713,0-8.533,3.82-8.533,8.533S336.621,200.533,341.333,200.533z" fill="#182c3b"/>
			<path d="M128,115.2c14.138,0,25.6-11.462,25.6-25.6S142.138,64,128,64s-25.6,11.461-25.6,25.6S113.862,115.2,128,115.2z      M128,81.067c4.713,0,8.533,3.82,8.533,8.533s-3.82,8.533-8.533,8.533s-8.533-3.82-8.533-8.533S123.287,81.067,128,81.067z" fill="#182c3b"/>
			<path d="M128,217.6c14.138,0,25.6-11.461,25.6-25.6s-11.462-25.6-25.6-25.6s-25.6,11.462-25.6,25.6S113.862,217.6,128,217.6z      M128,183.467c4.713,0,8.533,3.82,8.533,8.533s-3.82,8.533-8.533,8.533s-8.533-3.82-8.533-8.533S123.287,183.467,128,183.467z" fill="#182c3b"/>
			<path d="M128,268.8c-14.138,0-25.6,11.462-25.6,25.6c0,14.138,11.461,25.6,25.6,25.6s25.6-11.462,25.6-25.6     C153.6,280.262,142.138,268.8,128,268.8z M128,302.933c-4.713,0-8.533-3.82-8.533-8.533s3.82-8.533,8.533-8.533     s8.533,3.821,8.533,8.533S132.713,302.933,128,302.933z" fill="#182c3b"/>
			<path d="M443.733,448H332.8c0-9.426-7.641-17.067-17.067-17.067H281.6v-51.2c0-4.713-3.821-8.533-8.533-8.533h-34.133     c-4.713,0-8.533,3.82-8.533,8.533v51.2h-34.133c-9.426,0-17.067,7.641-17.067,17.067H8.533C3.82,448,0,451.82,0,456.533     s3.82,8.533,8.533,8.533H179.2c0,9.426,7.641,17.067,17.067,17.067h119.467c9.426,0,17.067-7.641,17.067-17.067h110.933     c4.713,0,8.533-3.82,8.533-8.533S448.446,448,443.733,448z M247.467,388.267h17.067v42.667h-17.067V388.267z M315.733,465.067     H196.267V448h119.467V465.067z" fill="#182c3b"/>
			<path d="M503.467,448h-25.6c-4.713,0-8.533,3.82-8.533,8.533s3.82,8.533,8.533,8.533h25.6c4.713,0,8.533-3.82,8.533-8.533     S508.18,448,503.467,448z" fill="#182c3b"/>
			<path d="M503.467,234.667c-15.723-0.823-31.008-5.472-44.527-13.542c1.207-3.906,1.834-7.969,1.86-12.058v-34.133     c-0.038-13.482-6.469-26.147-17.331-34.133c10.863-7.986,17.293-20.651,17.331-34.133V72.533     c-0.028-23.552-19.114-42.638-42.667-42.667H93.867C70.314,29.895,51.228,48.981,51.2,72.533v34.133     c0.038,13.482,6.469,26.147,17.331,34.133c-10.863,7.986-17.293,20.651-17.331,34.133v34.133     c0.038,13.482,6.469,26.147,17.331,34.133c-10.863,7.986-17.293,20.651-17.331,34.133v34.133     c0.028,23.552,19.114,42.638,42.667,42.667h266.001c16.265,23.966,37.668,44.004,62.652,58.658     c0.419,0.206,0.852,0.379,1.297,0.521c0.23,0.077,0.444,0.205,0.683,0.265c0.707,0.189,1.436,0.287,2.167,0.29     c0.729-0.004,1.455-0.101,2.159-0.29c0.253-0.082,0.501-0.179,0.742-0.29c0.425-0.132,0.838-0.298,1.237-0.495l0.111-0.06     C435.046,410.453,512,366.455,512,294.4v-51.2C512,238.487,508.18,234.667,503.467,234.667z M68.267,106.667V72.533     c0-14.138,11.461-25.6,25.6-25.6h324.267c14.138,0,25.6,11.461,25.6,25.6v34.133c0,14.138-11.461,25.6-25.6,25.6H93.867     C79.728,132.267,68.267,120.805,68.267,106.667z M68.267,209.067v-34.133c0-14.138,11.461-25.6,25.6-25.6h324.267     c14.138,0,25.6,11.462,25.6,25.6v33.98c-3.718-3.89-6.99-8.183-9.754-12.8c-0.06-0.111-0.179-0.162-0.247-0.273     c-0.343-0.457-0.728-0.88-1.152-1.263c-0.378-0.418-0.795-0.798-1.246-1.135c-0.102-0.068-0.162-0.179-0.273-0.247     c-0.364-0.163-0.741-0.297-1.126-0.401c-0.525-0.25-1.074-0.448-1.638-0.589c-1.677-0.38-3.433-0.163-4.966,0.614     c-0.362,0.096-0.716,0.221-1.058,0.375c-0.102,0.06-0.162,0.171-0.265,0.239c-0.874,0.726-1.68,1.532-2.406,2.406     c-0.068,0.111-0.188,0.162-0.247,0.273c-22.716,37.88-69.043,38.554-69.487,38.554h-256     C79.728,234.667,68.267,223.205,68.267,209.067z M93.867,337.067c-14.139,0-25.6-11.461-25.6-25.6v-34.133     c0-14.138,11.461-25.6,25.6-25.6h247.467V294.4c0.101,14.731,3.323,29.273,9.455,42.667H93.867z M494.933,294.4     c0,53.666-53.026,91.238-68.267,100.941c-15.266-9.634-68.267-47.13-68.267-100.941v-43.264     c26.52-2.717,50.971-15.554,68.267-35.84c17.296,20.286,41.747,33.123,68.267,35.84V294.4z" fill="#182c3b"/>
			<path d="M403.567,343.1c3.332,3.331,8.734,3.331,12.066,0l51.2-51.2c3.234-3.348,3.188-8.671-0.104-11.962     c-3.292-3.292-8.614-3.338-11.962-0.104l-51.2,51.2C400.236,334.366,400.236,339.767,403.567,343.1z" fill="#182c3b"/>
			<path d="M395.034,288.367c-2.218,2.143-3.108,5.315-2.327,8.299c0.781,2.984,3.111,5.313,6.094,6.094s6.156-0.109,8.299-2.327     l34.133-34.133c3.234-3.348,3.188-8.671-0.104-11.962c-3.292-3.292-8.614-3.338-11.962-0.104L395.034,288.367z" fill="#182c3b"/>
		</g>
	</g>
</g>
<g>
</g>
<g>
</g>
<g>
</g>
<g>
</g>
<g>
</g>
<g>
</g>
<g>
</g>
<g>
</g>
<g>
</g>
<g>
</g>
<g>
</g>
<g>
</g>
<g>
</g>
<g>
</g>
<g>
</g>
</svg>
