<?xml version="1.0" encoding="utf-8"?>
<!-- Generator: Adobe Illustrator 22.0.0, SVG Export Plug-In . SVG Version: 6.00 Build 0)  -->
<svg version="1.1" id="Layer_1" xmlns="http://www.w3.org/2000/svg" xmlns:xlink="http://www.w3.org/1999/xlink" x="0px" y="0px"
	 viewBox="0 0 512 512" style="enable-background:new 0 0 512 512;" xml:space="preserve">
<style type="text/css">
	.st0{fill:#FFFFFF;}
</style>
<path class="st0" d="M435,76.4c-40.9-40.9-92.8-65.9-150.1-72.5c-3.9-0.6-7.3,2.3-7.8,6.2c-0.4,3.9,2.3,7.3,6.2,7.8
	c54.1,6.2,103.1,29.9,141.7,68.5c93.2,93.2,93.2,244.9,0,338.1c-93.2,93.2-244.9,93.2-338.1,0C-6.2,331.2-6.2,179.5,87,86.3
	c38.6-38.6,87.6-62.3,141.7-68.5c3.9-0.4,6.6-3.9,6.2-7.8c-0.4-3.9-4-6.7-7.8-6.2C169.8,10.4,117.9,35.5,77,76.4
	c-98.7,98.7-98.7,259.3,0,358c49.4,49.3,114.2,74,179,74c64.8,0,129.6-24.7,179-74C533.7,335.7,533.7,175.1,435,76.4z"/>
<path class="st0" d="M345.4,166c-2.7-2.7-7.2-2.7-9.9,0L256,245.4L176.6,166c-2.7-2.7-7.2-2.7-9.9,0c-2.7,2.7-2.7,7.2,0,9.9
	l79.4,79.4l-79.4,79.4c-2.7,2.7-2.7,7.2,0,9.9c1.4,1.4,3.2,2.1,5,2.1c1.8,0,3.6-0.7,5-2.1l79.4-79.4l79.4,79.4
	c1.4,1.4,3.2,2.1,5,2.1c1.8,0,3.6-0.7,5-2.1c2.7-2.7,2.7-7.2,0-9.9L266,255.3l79.4-79.4C348.1,173.2,348.1,168.7,345.4,166z"/>
</svg>
