<?xml version="1.0" encoding="utf-8"?>
<!-- Generator: Adobe Illustrator 22.0.0, SVG Export Plug-In . SVG Version: 6.00 Build 0)  -->
<svg version="1.1" id="Layer_1" xmlns="http://www.w3.org/2000/svg" xmlns:xlink="http://www.w3.org/1999/xlink" x="0px" y="0px"
	 viewBox="0 0 225.4 75.3" style="enable-background:new 0 0 225.4 75.3;" xml:space="preserve">
<style type="text/css">
	.st0{fill:#FFFFFF;}
	.st1{fill:#EE5586;}
</style>
<path class="st0" d="M225,66.8v5.7H0v-5.7H225z"/>
<g>
	<path class="st0" d="M37.8,32.1v22.7H27v-5c-2.1,3.6-6.3,5.5-12.1,5.5C5.5,55.4,0,50.3,0,43.4c0-7,5-11.9,17.1-11.9h9.2
		c0-5-3-7.8-9.2-7.8c-4.2,0-8.6,1.4-11.5,3.7l-4.1-8.1c4.4-3.1,10.8-4.8,17.1-4.8C30.7,14.5,37.8,20.1,37.8,32.1z M26.2,42.3v-4.1
		h-7.9c-5.4,0-7.1,2-7.1,4.7c0,2.9,2.4,4.8,6.5,4.8C21.6,47.7,24.9,45.9,26.2,42.3z"/>
	<path class="st0" d="M88.8,32.1v22.8H77.3v-21c0-6.4-3-9.4-8.1-9.4c-5.5,0-9.5,3.4-9.5,10.7v19.7H48.2V15.1h11v4.7
		c3.1-3.4,7.8-5.2,13.2-5.2C81.8,14.5,88.8,19.9,88.8,32.1z"/>
	<path class="st0" d="M124.9,52.9c-2.4,1.7-5.8,2.5-9.4,2.5c-9.4,0-14.9-4.8-14.9-14.3V24.8h-6.1V16h6.1V6.3h11.5V16h9.9v8.9h-9.9
		V41c0,3.4,1.8,5.2,5,5.2c1.7,0,3.4-0.5,4.7-1.5L124.9,52.9z"/>
	<path class="st0" d="M131.4,0H143v54.8h-11.5V0H131.4z"/>
	<path class="st0" d="M192.4,38.2h-30.1c1.1,5,5.3,8,11.4,8c4.2,0,7.2-1.3,10-3.8l6.1,6.7c-3.7,4.2-9.2,6.4-16.4,6.4
		c-13.7,0-22.7-8.6-22.7-20.5s9.1-20.5,21.2-20.5c11.7,0,20.7,7.8,20.7,20.6C192.6,36,192.5,37.2,192.4,38.2z M162.2,31.5h19.6
		c-0.8-5-4.6-8.3-9.8-8.3S163,26.4,162.2,31.5z"/>
	<path class="st0" d="M225,14.5v10.6c-1-0.1-1.7-0.1-2.6-0.1c-6.4,0-10.6,3.5-10.6,11.1v18.8h-11.5V15.1h11v5.2
		C214.1,16.5,218.9,14.5,225,14.5z"/>
</g>
<g>
	<circle id="svg-ico" class="st1" cx="5.2" cy="69.6" r="4"/>
	
		<animateMotion  accumulate="none" additive="replace" begin="0s" calcMode="paced" dur="6s" fill="remove" path="M210,0 0 0 210,0" repeatCount="indefinite" restart="always">
		</animateMotion>
</g>
</svg>
