<?xml version="1.0" encoding="utf-8"?>
<!-- Generator: Adobe Illustrator 19.0.0, SVG Export Plug-In . SVG Version: 6.00 Build 0)  -->
<svg version="1.1" id="Layer_1" xmlns="http://www.w3.org/2000/svg" xmlns:xlink="http://www.w3.org/1999/xlink" x="0px" y="0px"
	 viewBox="-60 151.9 490.1 490.1" style="enable-background:new -60 151.9 490.1 490.1;" xml:space="preserve">
<style type="text/css">
	.st0{fill:#2C2F33;}
	.st1{fill:#5CB233;}
</style>
<g>
	<g>
		<path class="st0" d="M63.3,405.7h79.5c2.8,8,9.9,13.7,18.1,13.7h48.4c8.2,0,15.3-5.7,18.1-13.7H307c5.5,0,9.9-4.4,9.9-9.9
			s-4.4-9.9-9.9-9.9h-88.1c-5.5,0-9.9,4.4-9.9,9.9v2.1c0,0.9-0.2,1.4-0.4,1.8h-46.8c-0.2-0.3-0.4-0.9-0.4-1.8v-2.1
			c0-5.5-4.4-9.9-9.9-9.9H63.4c-5.5,0-9.9,4.4-9.9,9.9S57.8,405.7,63.3,405.7z"/>
		<path class="st0" d="M-11,180.5v212.2h-23.5c-5.5,0-9.9,4.4-9.9,9.9v21.9c0,23.6,19.2,42.9,42.9,42.9h373.1
			c23.6,0,42.9-19.2,42.9-42.9v-21.9c0-5.5-4.4-9.9-9.9-9.9h-23.6V180.5c0-0.3,0-0.6,0-1c-1.6-15.7-14.4-27.6-29.7-27.6H17.8
			C1.8,151.9-11,164.7-11,180.5z M361.3,181.1v221.6c0,5.5,4.5,9.9,10,9.9h23.5v12c0,12.7-10.4,23.1-23.1,23.1H-1.5
			c-12.7,0-23.1-10.4-23.1-23.1v-12h23.5c5.5,0,9.9-4.4,9.9-9.9V180.5c0-4.9,4-8.9,8.9-8.9h333.6
			C356.3,171.7,360.5,175.8,361.3,181.1z"/>
		<path class="st1" d="M408.5,585.1H231c-3.9-18-18.1-32.2-36-36v-41.4c0-5.5-4.4-9.9-9.9-9.9s-9.9,4.4-9.9,9.9v41.4
			c-18,3.9-32.2,18-36,36H-38.3c-5.5,0-9.9,4.4-9.9,9.9s4.4,9.9,9.9,9.9h177.5c4.6,21.2,23.4,37.1,45.9,37.1s41.4-15.9,45.9-37.1
			h177.5c5.5,0,9.9-4.4,9.9-9.9S414,585.1,408.5,585.1z M185.1,622.1c-15,0-27.2-12.2-27.2-27.2s12.2-27.2,27.2-27.2
			c15,0,27.2,12.2,27.2,27.2S200,622.1,185.1,622.1z"/>
	</g>
</g>
</svg>
