<?xml version="1.0" encoding="utf-8"?>
<!-- Generator: Adobe Illustrator 19.0.0, SVG Export Plug-In . SVG Version: 6.00 Build 0)  -->
<svg version="1.1" id="Layer_1" xmlns="http://www.w3.org/2000/svg" xmlns:xlink="http://www.w3.org/1999/xlink" x="0px" y="0px"
	 viewBox="-60 152.1 489.9 489.9" style="enable-background:new -60 152.1 489.9 489.9;" xml:space="preserve">
<style type="text/css">
	.st0{fill:#2C2F33;}
	.st1{fill:#5CB233;}
</style>
<g>
	<g>
		<path class="st0" d="M143.1,154.1h-175c-15.5,0-28.1,12.6-28.1,28.1v125.7c0,15.5,12.6,28.1,28.1,28.1h77.6v25.5H20.3
			c-5.5,0-9.9,4.4-9.9,9.9s4.4,9.9,9.9,9.9h70.4c5.5,0,9.9-4.4,9.9-9.9s-4.4-9.9-9.9-9.9H65.4V336H143c15.5,0,28.1-12.6,28.1-28.1
			V182.1C171.1,166.7,158.5,154.1,143.1,154.1z M151.3,307.8c0,4.5-3.7,8.3-8.3,8.3H-32c-4.6,0-8.3-3.7-8.3-8.3V182.1
			c0-4.5,3.7-8.3,8.3-8.3h175c4.6,0,8.3,3.7,8.3,8.3V307.8z"/>
		<path class="st0" d="M401.8,412.8h-175c-15.5,0-28.1,12.6-28.1,28.1v125.7c0,15.5,12.6,28.1,28.1,28.1h77.6v25.5h-25.3
			c-5.5,0-9.9,4.4-9.9,9.9s4.4,9.9,9.9,9.9h70.4c5.5,0,9.9-4.4,9.9-9.9s-4.4-9.9-9.9-9.9h-25.3v-25.5h77.6
			c15.5,0,28.1-12.6,28.1-28.1V440.8C429.8,425.3,417.2,412.8,401.8,412.8z M410,566.5c0,4.5-3.7,8.3-8.3,8.3h-175
			c-4.6,0-8.3-3.7-8.3-8.3V440.8c0-4.5,3.7-8.3,8.3-8.3h175c4.5,0,8.3,3.7,8.3,8.3V566.5z"/>
		<path class="st1" d="M314.2,235.1h-95.8c-5.5,0-9.9,4.4-9.9,9.9s4.4,9.9,9.9,9.9h85.9v94.7L289.7,335c-3.9-3.9-10.1-3.9-14,0
			s-3.9,10.1,0,14l31.5,31.5c1.9,1.9,4.5,2.9,7,2.9s5.1-1,7-2.9l31.5-31.5c3.9-3.9,3.9-10.1,0-14s-10.1-3.9-14,0l-14.6,14.6V245
			C324.1,239.5,319.7,235.1,314.2,235.1z"/>
		<path class="st1" d="M151.4,544.4H65.5v-94.7l14.6,14.6c1.9,1.9,4.5,2.9,7,2.9s5.1-1,7-2.9c3.9-3.9,3.9-10.1,0-14l-31.5-31.5
			c-3.9-3.9-10.1-3.9-14,0l-31.5,31.5c-3.9,3.9-3.9,10.1,0,14s10.1,3.9,14,0l14.6-14.6v104.6c0,5.5,4.4,9.9,9.9,9.9h95.8
			c5.5,0,9.9-4.4,9.9-9.9C161.3,548.8,156.8,544.4,151.4,544.4z"/>
	</g>
</g>
</svg>
