<?xml version="1.0" encoding="utf-8"?>
<!-- Generator: Adobe Illustrator 19.0.0, SVG Export Plug-In . SVG Version: 6.00 Build 0)  -->
<svg version="1.1" id="Layer_1" xmlns="http://www.w3.org/2000/svg" xmlns:xlink="http://www.w3.org/1999/xlink" x="0px" y="0px"
	 viewBox="-60 151.8 490.2 490.2" style="enable-background:new -60 151.8 490.2 490.2;" xml:space="preserve">
<style type="text/css">
	.st0{fill:#2C2F33;}
	.st1{fill:#5CB233;}
</style>
<g>
	<g>
		<path class="st0" d="M140.9,521.7H25.8c-5.5,0-9.9,4.4-9.9,9.9s4.4,9.9,9.9,9.9h106.6c3.1,8.6,11.4,14.7,21,14.7h63.2
			c9.6,0,17.9-6.1,21-14.7h106.7c5.5,0,9.9-4.4,9.9-9.9s-4.4-9.9-9.9-9.9H229.2c-5.5,0-9.9,4.4-9.9,9.9v2.2c0,1.4-1.2,2.6-2.6,2.6
			h-63.2c-1.4,0-2.6-1.2-2.6-2.6v-2.2C150.8,526.1,146.4,521.7,140.9,521.7z"/>
		<path class="st0" d="M420.3,521.7h-26V293.6c0-5.5-4.4-9.9-9.9-9.9s-9.9,4.4-9.9,9.9v238c0,5.5,4.5,9.9,10,9.9h25.9v13.6
			c0,14-11.4,25.4-25.4,25.4H-14.8c-14,0-25.4-11.4-25.4-25.4v-13.6h25.9c5.5,0,9.9-4.4,9.9-9.9v-238c0-5.5-4.4-9.9-9.9-9.9
			s-9.9,4.4-9.9,9.9v228.1h-25.9c-5.5,0-9.9,4.4-9.9,9.9v23.5c0,24.9,20.3,45.2,45.2,45.2H385c24.9,0,45.2-20.3,45.2-45.2v-23.5
			C430.2,526.1,425.8,521.7,420.3,521.7z"/>
		<path class="st1" d="M223.6,263.1l-57.1,56.8l-19.9-20c-3.9-3.9-10.1-3.9-14,0s-3.9,10.1,0,14l26.8,27c1.9,1.9,4.5,2.9,7,2.9
			s5-1,7-2.9l64.2-63.8c3.9-3.9,3.9-10.1,0-14C233.8,259.3,227.5,259.2,223.6,263.1z"/>
		<path class="st0" d="M307.3,193.5H62.9c-20,0-36.3,16.3-36.3,36.3v144.4c0,20,16.3,36.3,36.3,36.3h10.3V454
			c0,8.1,6.6,14.6,14.7,14.6c4.2,0,8.2-1.8,11-5.1l45.8-53h162.6c20,0,36.3-16.3,36.3-36.3V229.8
			C343.6,209.8,327.3,193.5,307.3,193.5z M323.8,374.2c0,9.1-7.4,16.5-16.5,16.5H140.1c-2.9,0-5.6,1.2-7.5,3.4L92.9,440v-39.4
			c0-5.5-4.4-9.9-9.9-9.9H62.8c-9.1,0-16.5-7.4-16.5-16.5V229.8c0-9.1,7.4-16.5,16.5-16.5h244.4c9.1,0,16.5,7.4,16.5,16.5
			L323.8,374.2L323.8,374.2z"/>
	</g>
</g>
</svg>
