<?xml version="1.0" encoding="utf-8"?>
<!-- Generator: Adobe Illustrator 22.0.0, SVG Export Plug-In . SVG Version: 6.00 Build 0)  -->
<svg version="1.1" id="WordPress" xmlns="http://www.w3.org/2000/svg" xmlns:xlink="http://www.w3.org/1999/xlink" x="0px" y="0px"
	 viewBox="0 0 155.9 56.7" style="enable-background:new 0 0 155.9 56.7;" xml:space="preserve">
<style type="text/css">
	.st0{fill:#82868E;}
	.st1{fill:#4E5157;}
</style>
<g id="BG">
</g>
<ellipse class="st0" cx="89.8" cy="20" rx="2.9" ry="2.5"/>
<path class="st1" d="M77.3,20.2v22h5.3V19h-4.1C77.8,19,77.3,19.5,77.3,20.2z"/>
<path class="st1" d="M87.1,26.4v15.8h5.3V25.2h-4.1C87.7,25.2,87.1,25.7,87.1,26.4z"/>
<path class="st1" d="M106.8,24.8c-2.4,0-4.1,1.3-4.9,1.9v-1.5h-4.1c-0.7,0-1.2,0.6-1.2,1.2V49h5.3v-7.5c0.8,0.6,1.9,1,3.4,1
	c5,0,8.8-4.3,8.8-9.7C114.1,27.5,110.2,24.8,106.8,24.8z M105.1,40.7c-1.1,0-2.2-1-3.1-2.1v-9.1c0.8-0.8,2.2-2,3.5-2
	c1.8,0,3.5,2.5,3.5,6.2C108.9,37.3,107.3,40.7,105.1,40.7z"/>
<path class="st1" d="M124.2,24.8c-4.7,0-6.2,1-6.2,1l0.6,1.2c0,0,1.7-0.6,4.6-0.6c3.2,0,3.5,1.7,3.5,3.8v1c-0.7-0.2-2-0.5-3.6-0.5
	c-2.4,0-6.7,1-6.7,5.9c0,5,3.8,6.1,6.3,6.1c1.5,0,3-0.8,4-1.4v1h5.3V30.1C132,26.5,128.9,24.8,124.2,24.8z M123.9,40.3
	c-2.2,0-3.6-1.3-3.6-3.7c0-2.4,2.5-3.9,4.4-3.9c1,0,1.6,0.3,1.9,0.6v5.9C126,39.7,125.1,40.3,123.9,40.3z"/>
<path class="st1" d="M153.1,24.8h-3.6l-4.8,10.9l-0.1-0.3l-5.5-10.6h-5.4L142,41l0.2,0.4l-0.9,2c-1.3,2.7-5.2,2.5-5.2,2.5v2.2
	c0,0,1.7,0.1,2.9,0c1.1-0.1,3.7-0.9,4.9-3.5l0,0l2.5-5.5l0,0L153.1,24.8z"/>
<path class="st1" d="M64.1,19h-2.3L60,22.8l-9.4,19.4h3.6l1.9-3.8h11.1l1.8,3.8h5.9L64.8,20.4L64.1,19z M66.5,36.7h-9.6l4.9-10.2
	L66.5,36.7z"/>
<g>
	<path class="st0" d="M44.8,39.6V17.9c0-3.6-2.9-6.5-6.5-6.5H9.8c-3.6,0-6.5,2.9-6.5,6.5v28.5c0,3.6,2.9,6.5,6.5,6.5h28.5
		c3.6,0,6.5-2.9,6.5-6.4c-4.3-2.4-10.2-5.6-15.9-8.2c-3,4.1-7.8,7.5-13.8,7.5c-6.5,0-8.7-4.2-9-7.1c-0.4-3.6,1.4-7.6,9.2-7.6
		c3.3,0,7.4,1,11.8,2.3c1.5-2.8,2.4-5.6,2.4-5.6H13.1v-1.6h8.5v-2.9H11.5v-1.8h10.1V17h4.7v4.7h10.1v1.8H26.4v2.9h8.2
		c0,0-1.4,4.3-3.5,8.4C35.6,36.3,40.3,38.1,44.8,39.6z"/>
	<path class="st0" d="M7.7,38.4c0.1,1.9,1,5,6.5,5c4.8,0,8.6-3.7,10.9-6.8c-4.1-1.7-7.8-2.9-10.1-2.9C8.7,33.7,7.6,36.7,7.7,38.4z"
		/>
</g>
</svg>
