<?xml version="1.0" encoding="utf-8"?>
<!-- Generator: Adobe Illustrator 22.0.0, SVG Export Plug-In . SVG Version: 6.00 Build 0)  -->
<svg version="1.1" id="WordPress" xmlns="http://www.w3.org/2000/svg" xmlns:xlink="http://www.w3.org/1999/xlink" x="0px" y="0px"
	 viewBox="0 0 155.9 56.7" style="enable-background:new 0 0 155.9 56.7;" xml:space="preserve">
<style type="text/css">
	.st0{fill-rule:evenodd;clip-rule:evenodd;fill:#4E5157;}
</style>
<path class="st0" d="M10.9,6.1L3.5,23.4h4.9L9.7,20h8l1.4,3.5h5L16.6,6.1H10.9L10.9,6.1z M13.7,10.1l2.4,6.1h-4.9L13.7,10.1
	L13.7,10.1z"/>
<polygon class="st0" points="24.5,23.4 24.5,6.1 31.4,6.1 35.5,17.3 39.4,6.1 46.2,6.1 46.2,23.4 41.9,23.4 41.9,10.6 37.3,23.4 
	33.5,23.4 28.9,10.6 28.9,23.4 24.5,23.4 "/>
<polygon class="st0" points="49.2,23.4 49.2,6.1 63.3,6.1 63.3,10 53.6,10 53.6,12.9 63.1,12.9 63.1,16.6 53.6,16.6 53.6,19.7 
	63.3,19.7 63.3,23.4 49.2,23.4 "/>
<path class="st0" d="M65.8,6.1v17.3h4.3v-6.2H72l5.2,6.2h5.3L76.8,17c2.3-0.2,4.8-2.2,4.8-5.3c0-3.7-2.9-5.6-6.1-5.6H65.8L65.8,6.1z
	 M70.2,10h5c1.2,0,2.1,0.9,2.1,1.8c0,1.2-1.1,1.8-2,1.8h-5L70.2,10L70.2,10L70.2,10z"/>
<polygon class="st0" points="87.8,23.4 83.3,23.4 83.3,6.1 87.8,6.1 87.8,23.4 "/>
<path class="st0" d="M98.3,23.4h-1c-4.6,0-7.4-3.6-7.4-8.6c0-5.1,2.8-8.7,8.6-8.7h4.8v4.1h-5c-2.4,0-4,1.9-4,4.7
	c0,3.4,1.9,4.8,4.7,4.8h1.1L98.3,23.4L98.3,23.4z"/>
<path class="st0" d="M107.7,6.1l-7.5,17.3h4.9l1.4-3.5h8l1.4,3.5h5l-7.5-17.3H107.7L107.7,6.1z M110.5,10.1l2.4,6.1H108L110.5,10.1
	L110.5,10.1z"/>
<polygon class="st0" points="121.3,23.4 121.3,6.1 126.8,6.1 133.9,17 133.9,6.1 138.2,6.1 138.2,23.4 132.9,23.4 125.6,12.2 
	125.6,23.4 121.3,23.4 "/>
<polygon class="st0" points="35,53.8 35,36.4 49.2,36.4 49.2,40.3 39.4,40.3 39.4,43.3 49,43.3 49,46.9 39.4,46.9 39.4,50 49.2,50 
	49.2,53.8 35,53.8 "/>
<polygon class="st0" points="104.4,53.8 104.4,36.4 118.5,36.4 118.5,40.3 108.8,40.3 108.8,43.3 118.2,43.3 118.2,46.9 108.8,46.9 
	108.8,50 118.5,50 118.5,53.8 104.4,53.8 "/>
<polygon class="st0" points="49.7,53.8 56.6,45.2 49.6,36.4 55,36.4 59.2,41.9 63.5,36.4 68.7,36.4 61.7,45.1 68.6,53.8 63.2,53.8 
	59.1,48.4 55.1,53.8 49.7,53.8 "/>
<path class="st0" d="M69.2,36.4v17.3h4.5v-5.5h4.6c3.9,0,6.8-2,6.8-6c0-3.3-2.3-5.8-6.2-5.8H69.2L69.2,36.4z M73.6,40.4h4.8
	c1.2,0,2.1,0.8,2.1,2c0,1.2-0.9,2-2.2,2h-4.8V40.4L73.6,40.4L73.6,40.4z"/>
<path class="st0" d="M86.8,36.4v17.3h4.3v-6.2H93l5.2,6.2h5.3l-5.7-6.4c2.3-0.2,4.8-2.2,4.8-5.3c0-3.6-2.9-5.6-6.1-5.6L86.8,36.4
	L86.8,36.4L86.8,36.4z M91.2,40.3h5c1.2,0,2.1,0.9,2.1,1.8c0,1.2-1.1,1.8-2,1.8h-5V40.3L91.2,40.3z"/>
<path class="st0" d="M120.5,53.8V50h8.7c1.3,0,1.8-0.7,1.8-1.5c0-0.7-0.6-1.5-1.8-1.5h-3.9c-3.4,0-5.3-2.1-5.3-5.2
	c0-2.8,1.7-5.5,6.8-5.5h8.4l-1.8,3.9h-7.3c-1.4,0-1.8,0.7-1.8,1.4c0,0.7,0.5,1.5,1.6,1.5h4.1c3.8,0,5.4,2.2,5.4,5
	c0,3-1.8,5.5-5.7,5.5L120.5,53.8L120.5,53.8z"/>
<path class="st0" d="M136.4,53.8V50h8.3c1.3,0,1.8-0.7,1.8-1.5c0-0.7-0.6-1.5-1.8-1.5h-3.6c-3.4,0-5.3-2.1-5.3-5.2
	c0-2.8,1.7-5.5,6.8-5.5h8.3l-1.8,3.9H142c-1.4,0-1.8,0.7-1.8,1.4c0,0.7,0.5,1.5,1.6,1.5h3.7c3.8,0,5.4,2.2,5.4,5
	c0,3-1.8,5.5-5.7,5.5L136.4,53.8L136.4,53.8z"/>
</svg>
