<?xml version="1.0" encoding="utf-8"?>
<!-- Generator: Adobe Illustrator 22.0.0, SVG Export Plug-In . SVG Version: 6.00 Build 0)  -->
<svg version="1.1" id="WordPress" xmlns="http://www.w3.org/2000/svg" xmlns:xlink="http://www.w3.org/1999/xlink" x="0px" y="0px"
	 viewBox="0 0 155.9 56.7" style="enable-background:new 0 0 155.9 56.7;" xml:space="preserve">
<style type="text/css">
	.st0{fill:#4E5157;}
	.st1{fill:#93989E;}
</style>
<path class="st0" d="M30.5,23.9C30.6,30,36,32,36,32c0,0.1-0.9,2.9-2.9,5.7c-1.7,2.4-3.5,4.9-6.3,4.9S23.2,41,20,41
	s-4.1,1.5-6.8,1.6S8.4,40,6.7,37.5c-3.5-5-6.2-14-2.6-20.1c1.8-3,5-5,8.5-5c2.7,0,5.2,1.7,6.8,1.7c1.6,0,4.7-2.1,7.9-1.8
	c1.3,0.1,5.1,0.5,7.5,4C34.8,16.5,30.5,18.9,30.5,23.9"/>
<path class="st0" d="M25.3,9.1c1.4-1.7,2.4-4,2.1-6.4c-2.1,0.1-4.6,1.3-6.1,3c-1.3,1.5-2.5,3.9-2.2,6.2
	C21.5,12.1,23.9,10.8,25.3,9.1"/>
<path class="st1" d="M65.7,11.6c-0.5-1.2-1.2-2.2-2.1-3.1c-1-1-2.3-1.7-3.9-2.2c-1.6-0.5-3.5-0.8-5.7-0.8c-1.4,0-2.8,0.1-4.2,0.2
	c-1.2,0.1-2.4,0.3-3.5,0.5v35.9h2.6V26.6c1.2,0.3,2.6,0.4,4.4,0.4c1.9,0,3.7-0.2,5.3-0.7s3-1.2,4.2-2.1c1.2-1,2.1-2.2,2.8-3.5
	c0.7-1.4,1-3,1-4.9C66.4,14.2,66.2,12.8,65.7,11.6z M61,22.5c-1.8,1.5-4.4,2.3-7.7,2.3c-0.9,0-1.7,0-2.5-0.1s-1.5-0.2-2.1-0.4l0,0
	V8.1c0.5-0.1,1.2-0.2,2-0.3c0.8-0.1,1.9-0.1,3-0.1c1.5,0,2.8,0.2,4,0.5C59.1,8.5,60.1,9,61,9.7s1.6,1.5,2,2.6c0.5,1,0.7,2.3,0.7,3.7
	C63.8,18.8,62.8,21,61,22.5z"/>
<path class="st1" d="M87.1,39.1C87,38,87,37,87,36l0,0V25.8c0-1.2-0.1-2.4-0.4-3.6c-0.2-1.2-0.7-2.3-1.4-3.3c-0.7-1-1.6-1.8-2.7-2.4
	c-1.2-0.6-2.7-0.9-4.5-0.9c-1.3,0-2.6,0.2-3.9,0.5c-1.2,0.3-2.5,0.9-3.6,1.7l0.8,1.9c0.9-0.6,1.9-1.1,3.1-1.4s2.3-0.5,3.4-0.5
	c1.5,0,2.7,0.3,3.6,0.8s1.5,1.2,2,2c0.4,0.8,0.7,1.6,0.9,2.5c0.1,0.9,0.2,1.7,0.2,2.3v0.7c-5.3-0.1-9.3,0.7-11.9,2.4
	c-2.6,1.7-3.9,4-3.9,7.1c0,0.9,0.2,1.8,0.5,2.6c0.3,0.9,0.8,1.6,1.4,2.3s1.4,1.2,2.4,1.6c1,0.4,2.1,0.6,3.4,0.6c1,0,1.9-0.1,2.8-0.4
	c0.9-0.3,1.6-0.6,2.3-1c0.7-0.4,1.3-0.9,1.8-1.4s0.9-1,1.3-1.5h0.1l0.4,3.7h2.4C87.2,41.1,87.1,40.1,87.1,39.1z M84.4,33.9
	c0,0.3-0.1,0.8-0.3,1.6c-0.2,0.6-0.5,1.3-1,1.9c-0.4,0.6-0.9,1.2-1.6,1.6c-0.6,0.5-1.4,0.9-2.2,1.2c-0.8,0.3-1.8,0.4-2.9,0.4
	c-1.3,0-2.5-0.4-3.6-1.3c-1.1-0.9-1.6-2.2-1.6-4c0-1.5,0.4-2.8,1.3-3.7c0.8-0.9,1.9-1.6,3.2-2.1c1.3-0.5,2.7-0.8,4.2-0.9
	s2.9-0.2,4.4-0.2l0,0L84.4,33.9L84.4,33.9z"/>
<path class="st1" d="M92.1,16.2L98.8,33c0.4,1,0.7,1.9,1,2.9s0.6,1.9,0.9,2.7h0.1c0.3-0.8,0.6-1.7,0.9-2.7s0.7-2,1.1-3l6.3-16.7h2.8
	l-7.7,19c-0.7,1.8-1.4,3.7-2.2,5.5c-0.6,1.5-1.3,3-2.1,4.4c-0.6,1.2-1.3,2.4-2.1,3.5c-0.7,1-1.5,1.9-2.4,2.6c-1,0.9-2,1.6-2.8,2
	c-0.9,0.4-1.4,0.7-1.7,0.8L90,51.9c0.8-0.3,1.5-0.7,2.2-1.1c0.9-0.5,1.7-1.1,2.4-1.8c0.7-0.6,1.4-1.5,2.2-2.6
	c0.8-1.1,1.5-2.3,2.1-3.9c0.2-0.6,0.3-1,0.3-1.1c0-0.3-0.1-0.6-0.3-1.1l-9.5-24L92.1,16.2L92.1,16.2z"/>
</svg>
