<?xml version="1.0" encoding="utf-8"?>
<!-- Generator: Adobe Illustrator 22.0.0, SVG Export Plug-In . SVG Version: 6.00 Build 0)  -->
<svg version="1.1" id="WordPress" xmlns="http://www.w3.org/2000/svg" xmlns:xlink="http://www.w3.org/1999/xlink" x="0px" y="0px"
	 viewBox="0 0 155.9 56.7" style="enable-background:new 0 0 155.9 56.7;" xml:space="preserve">
<style type="text/css">
	.st0{fill:#4E5157;}
	.st1{fill:#82868E;}
</style>
<g id="BG">
</g>
<g>
	<g id="XMLID_49_">
		<g>
			<path id="XMLID_41_" class="st0" d="M14.1,49.1c-0.1,0.1-0.3,0.2-0.4,0.2c-0.4,0.2-0.8,0.5-1.2,0.7c-0.2,0.1-0.3,0.2-0.5,0.3
				c-0.2,0.1-0.4,0.3-0.7,0.4c-0.4,0.2-0.8,0.5-1.2,0.7c-0.3,0.1-0.6-0.1-0.8-0.3c-0.1-0.2-0.1-0.5,0-0.7c0.1-0.4,0.2-0.8,0.3-1.2
				c0.1-0.4,0.2-0.8,0.3-1.2c0.1-0.2,0.1-0.4,0.2-0.6c0.1-0.2,0.1-0.4,0.1-0.6c0-0.3,0-0.5-0.2-0.8c-0.1-0.2-0.2-0.3-0.4-0.4
				c-0.3-0.2-0.6-0.4-0.8-0.6c-0.2-0.2-0.4-0.3-0.6-0.5C8.2,44.2,8,44,7.8,43.8c-0.2-0.2-0.5-0.5-0.7-0.7c-0.2-0.2-0.4-0.4-0.5-0.6
				c-0.2-0.2-0.3-0.4-0.5-0.6c-0.2-0.3-0.5-0.6-0.7-1c0-0.1-0.1-0.1-0.1-0.2C5,40.4,4.8,40,4.6,39.6c-0.1-0.3-0.3-0.6-0.4-0.9
				c0-0.1-0.1-0.2-0.1-0.3c-0.2-0.4-0.3-0.8-0.4-1.2c-0.1-0.4-0.2-0.8-0.3-1.2c-0.1-0.4-0.1-0.8-0.2-1.2C3,33.6,3,32.4,3.2,31.2
				c0.1-0.4,0.1-0.8,0.2-1.2c0.1-0.4,0.2-0.8,0.3-1.2c0.1-0.4,0.3-0.8,0.5-1.2l0,0c0.2-0.4,0.4-0.8,0.6-1.2c0.5-0.8,1-1.6,1.6-2.4
				c0.1-0.1,0.1-0.2,0.2-0.3c0.3-0.3,0.6-0.6,0.8-0.9c0.1-0.1,0.2-0.2,0.3-0.3c0.3-0.3,0.6-0.6,0.9-0.9c0.1-0.1,0.2-0.2,0.3-0.2
				c0.7-0.6,1.5-1.1,2.4-1.6c0.3-0.2,0.7-0.4,1-0.5c0.1,0,0.2-0.1,0.2-0.1c0.4-0.2,0.8-0.4,1.2-0.5c0.8-0.3,1.6-0.6,2.4-0.8
				c0.4-0.1,0.9-0.2,1.3-0.3c0.4-0.1,0.7-0.2,1.1-0.2c0.4-0.1,0.9-0.1,1.3-0.2c0.7-0.1,1.4-0.1,2.2-0.2h1.1c0.8,0,1.7,0.1,2.5,0.2
				c0.4,0.1,0.8,0.1,1.2,0.2c0.4,0.1,0.8,0.2,1.2,0.3c0.4,0.1,0.8,0.2,1.2,0.3c0.8,0.2,1.6,0.5,2.4,0.9c0.4,0.2,0.8,0.4,1.2,0.6l0,0
				c0.4,0.2,0.8,0.4,1.2,0.7c0.8,0.5,1.6,1.1,2.4,1.7c0,0,0,0,0.1,0.1c0.4,0.3,0.7,0.7,1.1,1c0.1,0.1,0.1,0.1,0.2,0.2
				c0.3,0.3,0.5,0.6,0.8,0.9c-0.2,0.1-0.3,0.1-0.5,0.2c-0.2,0.1-0.4,0.2-0.5,0.2c-0.4,0.2-0.8,0.3-1.2,0.5c-0.3,0.2-0.7,0.3-1,0.5
				c-0.1,0-0.1,0-0.1,0.1c-0.4,0.2-0.8,0.4-1.2,0.5c-0.8,0.4-1.6,0.7-2.4,1.1c-0.8,0.3-1.6,0.7-2.4,1.1c-0.4,0.2-0.8,0.4-1.2,0.5
				c-0.2,0.1-0.5,0.2-0.7,0.3c-0.2,0.1-0.3,0.1-0.5,0.2c-0.4,0.2-0.8,0.4-1.2,0.5c-0.3,0.1-0.7,0.3-1,0.4c-0.1,0-0.1,0.1-0.2,0.1
				c-0.4,0.2-0.8,0.4-1.2,0.5c-0.8,0.4-1.6,0.7-2.4,1.1c-0.6,0.3-1.2,0.5-1.8,0.8c-0.2,0.1-0.4,0.2-0.6,0.2c-0.4,0.1-0.8,0-1.2-0.2
				c-0.1,0-0.2-0.1-0.3-0.1c-0.3-0.2-0.6-0.4-0.9-0.7c-0.3-0.2-0.5-0.4-0.8-0.5c-0.1-0.1-0.3-0.2-0.4-0.3c-0.4-0.3-0.8-0.6-1.2-0.8
				c0,0,0,0,0,0c-0.3-0.2-0.6-0.4-0.8-0.6c-0.1-0.1-0.2-0.1-0.4-0.2c-0.4,0-0.8,0.4-0.7,0.8c0.3,0.8,0.7,1.6,1.1,2.3
				c0.2,0.4,0.4,0.8,0.6,1.2c0.1,0.2,0.1,0.3,0.2,0.5c0.1,0.2,0.2,0.5,0.3,0.7c0.2,0.4,0.4,0.8,0.5,1.2c0.1,0.3,0.2,0.5,0.3,0.8
				c0.1,0.1,0.1,0.3,0.2,0.4c0.2,0.4,0.3,0.9,0.6,1.2c0.1,0.1,0.2,0.2,0.4,0.3c0.4,0.2,0.9,0.2,1.3-0.1c0.1-0.1,0.3-0.2,0.4-0.2
				c0.3-0.1,0.5-0.3,0.8-0.4c0.8-0.5,1.6-0.9,2.4-1.4c0.3-0.2,0.7-0.4,1-0.6c0.1,0,0.1-0.1,0.2-0.1c0.4-0.2,0.8-0.5,1.2-0.7
				c0.2-0.1,0.5-0.3,0.7-0.4c0.2-0.1,0.3-0.2,0.5-0.3c0.4-0.2,0.8-0.5,1.2-0.7c0.1-0.1,0.2-0.1,0.4-0.2c0.3-0.2,0.6-0.3,0.8-0.5
				c0.8-0.5,1.6-0.9,2.4-1.4c0.3-0.2,0.6-0.3,0.9-0.5c0.1-0.1,0.2-0.1,0.3-0.2c0.4-0.2,0.8-0.5,1.2-0.7c0.2-0.1,0.4-0.2,0.6-0.4
				c0.2-0.1,0.4-0.2,0.6-0.3c0.8-0.5,1.6-0.9,2.4-1.4c0.4-0.2,0.8-0.4,1.1-0.7c0,0,0.1,0,0.1-0.1c0.4-0.2,0.8-0.5,1.2-0.7
				c0.3-0.2,0.6-0.3,0.8-0.5c0.1-0.1,0.2-0.1,0.3-0.2c0.4-0.2,0.7-0.4,1.1-0.6c0.1,0.3,0.3,0.5,0.5,0.8c0.2,0.4,0.4,0.8,0.6,1.2
				c0.1,0.1,0.1,0.2,0.1,0.4c0.1,0.3,0.2,0.6,0.3,0.8c0.1,0.4,0.2,0.8,0.3,1.2c0.1,0.4,0.2,0.8,0.2,1.2c0.1,0.4,0.1,0.8,0.1,1.2
				c0,0.4,0,0.8,0,1.2c0,0.4,0,0.8-0.1,1.2c0,0.4-0.1,0.8-0.2,1.2c-0.1,0.4-0.2,0.8-0.3,1.2c-0.3,0.8-0.6,1.6-1,2.4
				c-0.4,0.8-0.9,1.6-1.5,2.4c-0.1,0.1-0.2,0.3-0.3,0.4c-0.2,0.3-0.4,0.5-0.7,0.8c-0.2,0.2-0.3,0.3-0.5,0.5
				c-0.2,0.2-0.5,0.5-0.8,0.7c-0.1,0.1-0.3,0.2-0.4,0.4c-0.3,0.3-0.7,0.6-1.1,0.8c-0.1,0-0.1,0.1-0.2,0.1c-0.4,0.3-0.8,0.5-1.2,0.8
				c-0.2,0.1-0.3,0.2-0.5,0.3c-0.2,0.1-0.5,0.3-0.7,0.4c-0.4,0.2-0.8,0.4-1.2,0.6c-0.2,0.1-0.4,0.2-0.6,0.2
				c-0.2,0.1-0.4,0.2-0.6,0.2c-0.4,0.1-0.8,0.3-1.2,0.4c-0.4,0.1-0.8,0.2-1.2,0.3c-0.4,0.1-0.7,0.2-1.1,0.2c0,0-0.1,0-0.1,0
				c-0.4,0.1-0.8,0.1-1.2,0.2c-0.4,0.1-0.8,0.1-1.2,0.1c-0.4,0-0.8,0.1-1.2,0.1c-0.4,0-0.8,0-1.2,0c-0.4,0-0.8,0-1.2-0.1
				c-0.4,0-0.8-0.1-1.2-0.1c-0.4,0-0.7-0.1-1.1-0.2c-0.1,0-0.3,0-0.4-0.1c-0.3-0.1-0.6-0.1-0.9-0.2c-0.4-0.1-0.8-0.2-1.2-0.3
				c-0.4-0.1-0.8-0.1-1.2,0.1"/>
		</g>
	</g>
	<g>
		<path class="st1" d="M63.1,41.8h-0.8l-3.2-11.2c-0.3-0.9-0.5-1.7-0.6-2.3c-0.1,0.6-0.3,1.2-0.5,2s-1.3,4.6-3.2,11.5H54l-4-14.5
			h1.1l2.5,9.3c0.1,0.4,0.2,0.7,0.3,1c0.1,0.3,0.2,0.6,0.2,0.9c0.1,0.3,0.1,0.6,0.2,0.8c0.1,0.3,0.1,0.5,0.2,0.8
			c0.2-0.9,0.5-2.3,1-4.1l2.5-8.8h1.1L62,37.4c0.3,1.2,0.6,2.1,0.7,2.8c0.1-0.5,0.2-1,0.3-1.5c0.1-0.5,1.2-4.3,3.1-11.4h1L63.1,41.8
			z"/>
		<path class="st1" d="M73.8,42c-1.6,0-2.8-0.5-3.7-1.4c-0.9-1-1.3-2.3-1.3-4.1c0-1.7,0.4-3.1,1.3-4.1c0.8-1,2-1.6,3.4-1.6
			c1.3,0,2.3,0.4,3,1.3c0.7,0.9,1.1,2.1,1.1,3.6v0.8h-7.8c0,1.5,0.4,2.6,1,3.4c0.7,0.8,1.6,1.2,2.9,1.2c0.6,0,1.2,0,1.6-0.1
			c0.5-0.1,1.1-0.3,1.8-0.6v0.9c-0.6,0.3-1.2,0.4-1.7,0.5C75,41.9,74.4,42,73.8,42z M73.5,31.7c-1,0-1.9,0.3-2.5,1
			c-0.6,0.7-1,1.7-1.1,3h6.7c0-1.2-0.3-2.2-0.8-2.9C75.2,32,74.4,31.7,73.5,31.7z"/>
		<path class="st1" d="M87,28c-1.8,0-3.2,0.6-4.3,1.7s-1.6,2.8-1.6,4.8c0,2.1,0.5,3.7,1.5,4.8c1,1.1,2.4,1.7,4.2,1.7
			c1.2,0,2.3-0.2,3.3-0.5v0.9c-1,0.3-2.2,0.5-3.6,0.5c-2,0-3.6-0.7-4.8-2c-1.2-1.3-1.8-3.2-1.8-5.5c0-1.5,0.3-2.8,0.8-3.9
			s1.4-2,2.4-2.6c1-0.6,2.3-0.9,3.7-0.9c1.4,0,2.7,0.3,3.8,0.8l-0.4,0.9C89.3,28.3,88.1,28,87,28z"/>
		<path class="st1" d="M100.7,41.8v-7c0-1.1-0.2-1.9-0.7-2.4c-0.5-0.5-1.2-0.7-2.1-0.7c-1.3,0-2.2,0.3-2.8,1s-0.9,1.7-0.9,3.2v5.9
			h-1V26.4h1v4.9l0,1.4h0.1c0.4-0.6,0.9-1.1,1.5-1.4s1.4-0.4,2.3-0.4c2.4,0,3.7,1.3,3.7,3.9v7H100.7z"/>
		<path class="st1" d="M111.7,41.8l-0.2-1.7h-0.1c-0.5,0.7-1.1,1.2-1.7,1.5s-1.2,0.4-2,0.4c-1.1,0-1.9-0.3-2.5-0.8
			c-0.6-0.5-0.9-1.3-0.9-2.2c0-1.1,0.4-1.9,1.3-2.4c0.9-0.6,2.1-0.9,3.8-0.9l2.1-0.1v-0.7c0-1-0.2-1.8-0.6-2.3
			c-0.4-0.5-1.1-0.8-2-0.8c-1,0-2,0.3-3.1,0.8l-0.4-0.9c1.2-0.6,2.4-0.8,3.5-0.8c1.2,0,2.1,0.3,2.7,0.9c0.6,0.6,0.9,1.6,0.9,2.9v7.2
			H111.7z M107.7,41.1c1.1,0,2.1-0.3,2.7-1c0.7-0.7,1-1.6,1-2.7v-1.1l-1.9,0.1c-1.5,0.1-2.6,0.3-3.2,0.7c-0.6,0.4-1,1-1,1.9
			c0,0.7,0.2,1.2,0.6,1.6C106.4,40.9,106.9,41.1,107.7,41.1z"/>
		<path class="st1" d="M118.7,41.1c0.6,0,1.2-0.1,1.6-0.2v0.8c-0.5,0.2-1,0.2-1.6,0.2c-1,0-1.7-0.3-2.1-0.8
			c-0.5-0.5-0.7-1.3-0.7-2.4v-7h-1.6v-0.6l1.6-0.4l0.5-2.4h0.5V31h3.2v0.9h-3.2v6.8c0,0.8,0.1,1.4,0.4,1.8
			C117.6,40.9,118.1,41.1,118.7,41.1z"/>
		<path class="st1" d="M131.6,31.5c0,1.4-0.5,2.5-1.4,3.2c-1,0.7-2.3,1.1-4,1.1h-2.2v6h-1V27.3h3.5
			C129.9,27.3,131.6,28.7,131.6,31.5z M123.9,34.9h2c1.6,0,2.8-0.3,3.5-0.8c0.7-0.5,1.1-1.4,1.1-2.6c0-1.1-0.3-1.9-1-2.5
			s-1.8-0.8-3.2-0.8h-2.4V34.9z"/>
		<path class="st1" d="M141.1,41.8l-0.2-1.7h-0.1c-0.5,0.7-1.1,1.2-1.7,1.5s-1.2,0.4-2,0.4c-1.1,0-1.9-0.3-2.5-0.8
			c-0.6-0.5-0.9-1.3-0.9-2.2c0-1.1,0.4-1.9,1.3-2.4c0.9-0.6,2.1-0.9,3.8-0.9l2.1-0.1v-0.7c0-1-0.2-1.8-0.6-2.3
			c-0.4-0.5-1.1-0.8-2-0.8c-1,0-2,0.3-3.1,0.8l-0.4-0.9c1.2-0.6,2.4-0.8,3.5-0.8c1.2,0,2.1,0.3,2.7,0.9c0.6,0.6,0.9,1.6,0.9,2.9v7.2
			H141.1z M137.1,41.1c1.1,0,2.1-0.3,2.7-1c0.7-0.7,1-1.6,1-2.7v-1.1l-1.9,0.1c-1.5,0.1-2.6,0.3-3.2,0.7c-0.6,0.4-1,1-1,1.9
			c0,0.7,0.2,1.2,0.6,1.6C135.8,40.9,136.4,41.1,137.1,41.1z"/>
		<path class="st1" d="M143.5,31h1l2.3,6c0.7,1.9,1.1,3.1,1.3,3.8h0.1c0.3-0.9,0.7-2.1,1.4-3.8l2.3-6h1L148,43.5
			c-0.4,1-0.7,1.7-1,2.1c-0.3,0.4-0.6,0.6-0.9,0.8c-0.4,0.2-0.8,0.3-1.3,0.3c-0.4,0-0.8-0.1-1.3-0.2v-0.9c0.4,0.1,0.8,0.2,1.2,0.2
			c0.3,0,0.6-0.1,0.9-0.2s0.5-0.4,0.7-0.7c0.2-0.3,0.4-0.9,0.7-1.6c0.3-0.7,0.5-1.2,0.5-1.4L143.5,31z"/>
	</g>
</g>
</svg>
