<?xml version="1.0" encoding="utf-8"?>
<!-- Generator: Adobe Illustrator 22.0.0, SVG Export Plug-In . SVG Version: 6.00 Build 0)  -->
<svg version="1.1" id="WordPress" xmlns="http://www.w3.org/2000/svg" xmlns:xlink="http://www.w3.org/1999/xlink" x="0px" y="0px"
	 viewBox="0 0 155.9 56.7" style="enable-background:new 0 0 155.9 56.7;" xml:space="preserve">
<style type="text/css">
	.st0{fill-rule:evenodd;clip-rule:evenodd;fill:#4E5157;}
	.st1{fill-rule:evenodd;clip-rule:evenodd;fill:#80868E;}
</style>
<path class="st0" d="M2.4,29.4c0-0.4,0.1-0.5,0.5-0.5c2.3,0,4.5,0,6.8,0C13,29,16,30,18.5,32.3c1.7,1.6,2.8,3.6,3.2,5.9
	c0.8,4.6-0.5,8.5-4,11.6c-1.9,1.7-4.2,2.6-6.7,2.8c-2.8,0.2-5.6,0-8.4,0.1c-0.3,0-0.3-0.2-0.3-0.4C2.4,50,2.4,33.2,2.4,29.4z
	 M7,48.2c0,0.3,0.1,0.4,0.4,0.4c0.9,0,1.9,0,2.8-0.1c1.7-0.2,3.3-0.7,4.5-1.9c2.1-2.1,2.8-4.6,2.3-7.5c-0.6-2.9-2.2-4.9-5.1-5.8
	C10.5,32.9,9,33,7.5,32.9C7.1,32.9,7,33,7,33.5C7,35.9,7,45.8,7,48.2z"/>
<path class="st0" d="M143.4,42.7c2.5,3.3,5,6.6,7.5,10c-0.4,0-0.7,0-1,0c-1.4,0-2.8,0-4.2,0c-0.4,0-0.6-0.1-0.9-0.5
	c-1.9-2.9-3.9-5.8-5.9-8.7c0,0-0.1-0.1-0.1-0.1c-0.1-0.3-0.4-0.3-0.6-0.2c-0.2,0.1-0.1,0.3-0.1,0.4c0,2.9,0,5.7,0,8.6
	c0,0.5-0.1,0.6-0.6,0.6c-1.2,0-2.5,0-3.7,0c-0.3,0-0.4-0.1-0.4-0.4c0-7.7,0-15.4,0-23.1c0-0.3,0-0.4,0.4-0.4c2.7,0.1,5.3-0.1,8,0.1
	c1.8,0.1,3.6,0.6,5,1.9c1.7,1.5,2.2,3.5,2.1,5.6c-0.2,3.2-1.9,5.3-5,6.1C143.6,42.6,143.5,42.7,143.4,42.7z M138.1,36.3
	c0,1.1,0,2.1,0,3.2c0,0.4,0.1,0.4,0.4,0.4c0.7,0,1.4,0,2.1-0.1c2-0.2,3.2-1.4,3.3-3.4c0.1-1.6-0.7-2.9-2.3-3.4
	c-1-0.3-2.1-0.3-3.1-0.3c-0.3,0-0.5,0.1-0.5,0.4C138.1,34.1,138.1,35.2,138.1,36.3z"/>
<path class="st0" d="M117.2,29.3c0-0.4,0.1-0.5,0.5-0.5c4.1,0,8.2,0,12.3,0c0.3,0,0.4,0.1,0.4,0.4c0,1.1,0,2.2,0,3.3
	c0,0.3-0.1,0.4-0.4,0.4c-2.5,0-5.1,0-7.6,0c-0.4,0-0.5,0.1-0.5,0.5c0,1.4,0,2.9,0,4.3c0,0.4,0.1,0.4,0.4,0.4c2.4,0,4.9,0,7.3,0
	c0.4,0,0.5,0.1,0.5,0.5c0,1.1,0,2.1,0,3.2c0,0.3-0.1,0.4-0.4,0.4c-2.4,0-4.9,0-7.3,0c-0.5,0-0.5,0.1-0.5,0.6c0,1.8,0,3.6,0,5.4
	c0,0.4,0.1,0.5,0.5,0.5c2.5,0,5.1,0,7.6,0c0.4,0,0.5,0.1,0.5,0.5c0,1.1,0,2.2,0,3.3c0,0.3-0.1,0.3-0.3,0.3c-4.2,0-8.3,0-12.5,0
	c-0.4,0-0.3-0.2-0.3-0.4C117.2,48.4,117.2,33.1,117.2,29.3z"/>
<path class="st0" d="M33.5,45.8c0.6,1.2,1.5,2.1,2.7,2.7c1.3,0.6,2.7,0.8,4,0.2c1.2-0.6,1.9-1.5,2-2.9c0.1-1.3-0.7-2.2-1.8-2.8
	c-1.3-0.7-2.8-1.1-4.1-1.6c-1.3-0.6-2.6-1.2-3.5-2.4c-0.6-0.7-0.9-1.5-1-2.4c-0.5-3.9,1.7-6.7,4.9-7.6c3.4-1,6.5-0.1,9.2,2
	c0.2,0.2,0.3,0.3,0.1,0.5c-0.7,0.9-1.4,1.8-2,2.7c-0.2,0.3-0.3,0.2-0.5,0c-0.7-0.8-1.6-1.4-2.7-1.6c-1.4-0.2-2.7,0-3.7,1.1
	c-0.9,1-0.7,2.3,0.4,3.1c1,0.7,2.1,1.1,3.2,1.5c1,0.4,2.1,0.9,3,1.4c2,1.1,3.1,2.8,3.2,5.1c0.2,3.9-1.8,7.2-5.6,8.2
	c-4.1,1-8.1-0.1-10.7-4c-0.1-0.2-0.1-0.3,0-0.4C31.6,47.7,32.5,46.8,33.5,45.8z"/>
<path class="st0" d="M92.2,28.9c1.6,0,3.2,0,4.7,0c0.3,0,0.4,0.1,0.5,0.4c1.4,3.6,5.5,13.9,6.2,15.5c0.3-0.3,4.4-10.7,6.3-15.5
	c0.1-0.2,0.1-0.4,0.4-0.4c1.6,0,3.2,0,4.8,0C114.7,29.8,108,45.8,105,53c-0.1,0.3-0.3,0.4-0.5,0.4c-0.6,0-1.2,0-1.8,0
	c-0.3,0-0.4-0.1-0.5-0.3c-1.9-4.5-8.4-20.2-9.7-23.6C92.3,29.3,92.3,29.1,92.2,28.9z"/>
<path class="st0" d="M66.8,35.3c-0.9-0.8-1.7-1.5-2.7-2c-4-1.8-8.7,0.1-10.3,4.3c-1.2,3.2-0.8,6.3,1.6,8.9c1.6,1.8,3.7,2.4,6,2.4
	c1.8,0,3.4-0.8,4.7-2c0.2-0.2,0.4-0.4,0.6-0.5c0.2,0.1,0.1,0.2,0.1,0.3c0,1.6,0,3.1,0,4.7c0,0.2,0,0.4-0.3,0.5
	c-4.8,2.3-10.8,1.4-14.6-2.4c-2.3-2.4-3.5-5.2-3.5-8.6c-0.1-5.6,3.6-10.5,8.8-12.1c3.2-1,6.3-0.8,9.3,0.7c0.2,0.1,0.3,0.2,0.3,0.4
	C66.8,31.8,66.8,33.5,66.8,35.3z"/>
<path class="st0" d="M28.8,52.2c0,0.4-0.1,0.5-0.5,0.5c-1.3,0-2.5,0-3.8,0c-0.3,0-0.4-0.1-0.4-0.4c0-7.7,0-15.4,0-23.1
	c0-0.3,0.1-0.4,0.4-0.4c1.2,0,2.5,0,3.7,0c0.4,0,0.5,0.1,0.5,0.5C28.7,33.2,28.7,48.4,28.8,52.2z"/>
<path class="st0" d="M150.9,29.4c0,0.1,0,0.1,0,0.2c0,0.6,0,1.3,0,1.9c0,0.1,0,0.2,0,0.2C150.1,31.1,150.1,30,150.9,29.4z"/>
<path class="st0" d="M151.7,28.7c-1,0-1.8,0.8-1.8,1.8s0.8,1.8,1.8,1.8c1,0,1.8-0.8,1.8-1.8S152.7,28.7,151.7,28.7z M151.7,32
	c-0.8,0-1.4-0.7-1.4-1.5s0.6-1.5,1.4-1.5c0.8,0,1.4,0.7,1.4,1.5S152.5,32,151.7,32z"/>
<path class="st0" d="M151.9,30.7c0.2,0.3,0.4,0.6,0.7,0.9c0,0-0.1,0-0.1,0c-0.1,0-0.3,0-0.4,0c0,0-0.1,0-0.1,0
	c-0.2-0.3-0.4-0.5-0.5-0.8c0,0,0,0,0,0c0,0,0,0-0.1,0c0,0,0,0,0,0c0,0.3,0,0.5,0,0.8c0,0,0,0.1-0.1,0.1c-0.1,0-0.2,0-0.3,0
	c0,0,0,0,0,0c0-0.7,0-1.4,0-2.1c0,0,0,0,0,0c0.2,0,0.5,0,0.7,0c0.2,0,0.3,0.1,0.4,0.2c0.2,0.1,0.2,0.3,0.2,0.5
	C152.4,30.5,152.2,30.7,151.9,30.7C151.9,30.7,151.9,30.7,151.9,30.7z M151.4,30.2c0,0.1,0,0.2,0,0.3c0,0,0,0,0,0c0.1,0,0.1,0,0.2,0
	c0.2,0,0.3-0.1,0.3-0.3c0-0.1-0.1-0.3-0.2-0.3c-0.1,0-0.2,0-0.3,0c0,0,0,0,0,0C151.4,30,151.4,30.1,151.4,30.2z"/>
<circle class="st1" cx="80.9" cy="40.8" r="12.7"/>
</svg>
