<?xml version="1.0" encoding="utf-8"?>
<!-- Generator: Adobe Illustrator 22.0.0, SVG Export Plug-In . SVG Version: 6.00 Build 0)  -->
<svg version="1.1" id="WordPress" xmlns="http://www.w3.org/2000/svg" xmlns:xlink="http://www.w3.org/1999/xlink" x="0px" y="0px"
	 viewBox="0 0 155.9 56.7" style="enable-background:new 0 0 155.9 56.7;" xml:space="preserve">
<style type="text/css">
	.st0{fill:#93989E;}
	.st1{fill:#4E5157;}
</style>
<path class="st0" d="M62.4,28v15h-4.8V5.9h12.6c3-0.1,6,1.1,8.2,3.2c2.2,2,3.5,4.9,3.4,7.8c0.1,3-1.2,5.9-3.4,7.9
	c-2.2,2.1-4.9,3.2-8.2,3.2C70.2,28,62.4,28,62.4,28z M62.4,10.4v13h8c1.8,0.1,3.5-0.7,4.7-1.9c2.5-2.4,2.5-6.4,0.1-8.9l-0.1-0.1
	c-1.2-1.3-2.9-2-4.7-2L62.4,10.4z M92.9,16.8c3.5,0,6.3,0.9,8.3,2.8s3,4.5,3,7.8V43h-4.6v-3.5h-0.2c-2,2.9-4.6,4.3-7.9,4.3
	c-2.8,0-5.1-0.8-7-2.5c-1.8-1.5-2.9-3.8-2.8-6.2c0-2.6,1-4.7,3-6.3c2-1.6,4.6-2.3,8-2.3c2.8,0,5.1,0.5,7,1.5v-1.1
	c0-1.6-0.7-3.2-2-4.2c-1.3-1.1-2.9-1.7-4.6-1.7c-2.7,0-4.8,1.1-6.3,3.4l-4.2-2.6C85,18.4,88.4,16.8,92.9,16.8L92.9,16.8z M86.7,35.2
	c0,1.2,0.6,2.4,1.6,3.1c1.1,0.8,2.4,1.3,3.7,1.2c2,0,3.9-0.8,5.4-2.2c1.6-1.5,2.4-3.2,2.4-5.2c-1.5-1.2-3.6-1.8-6.2-1.8
	c-1.9,0-3.6,0.5-4.9,1.4C87.4,32.7,86.7,33.8,86.7,35.2z M130.4,17.6l-15.9,36.6h-4.9l5.9-12.8L105,17.6h5.2l7.5,18.2h0.1l7.4-18.2
	L130.4,17.6z"/>
<path class="st1" d="M42.8,20.4H22.7v8.2h11.5c-0.5,2.6-2,5-4.3,6.5c-1.9,1.3-4.4,2-7.2,2c-5.6,0-10.3-3.8-12-8.8
	c-0.9-2.6-0.9-5.5,0-8.1l0,0c1.7-5.1,6.4-8.8,12-8.8c3-0.1,6,1.1,8.2,3.2L37,8.5c-3.9-3.7-9-5.6-14.3-5.6c-8,0-15.4,4.6-19,11.7
	c-3,6-3,13.1,0,19.1l0,0c3.6,7.2,11,11.7,19,11.7c5.7,0,10.6-1.9,14.1-5.1c4-3.7,6.3-9.2,6.3-15.7C43.2,23.2,43.1,21.8,42.8,20.4z"
	/>
</svg>
