<?xml version="1.0" encoding="utf-8"?>
<!-- Generator: Adobe Illustrator 22.0.0, SVG Export Plug-In . SVG Version: 6.00 Build 0)  -->
<svg version="1.1" id="WordPress" xmlns="http://www.w3.org/2000/svg" xmlns:xlink="http://www.w3.org/1999/xlink" x="0px" y="0px"
	 viewBox="0 0 155.9 56.7" style="enable-background:new 0 0 155.9 56.7;" xml:space="preserve">
<style type="text/css">
	.st0{fill:#4E5157;}
</style>
<g id="BG">
</g>
<g>
	<path class="st0" d="M5.1,2.9C4.5,3,4,3.3,3.8,3.8L3.6,4.1v24.1c0,23.6,0,24.1,0.1,24.4c0.2,0.4,0.5,0.8,0.9,1L5,53.7l17.1,0
		c17.2,0,18.4,0,20-0.2c5.7-0.8,10.8-3.2,14.8-7.3c4.1-4.1,6.6-9.3,7.3-15.2c0.2-1.3,0.2-4.2,0-5.5c-0.8-6.8-4-12.7-9.2-17
		c-3.3-2.7-7.5-4.6-11.7-5.4C41.1,2.8,42.3,2.9,23,2.8C13.3,2.8,5.2,2.8,5.1,2.9L5.1,2.9z M41.8,6.9c5.4,0.7,9.6,2.7,12.9,6.1
		c2.6,2.7,4.5,6.3,5.3,10.3c0.4,1.9,0.4,2.6,0.4,5.1c0,2,0,2.4-0.1,3.3c-0.6,4.4-2.1,7.9-4.6,11c-1.1,1.3-2.9,2.9-4.3,3.8
		c-2.7,1.7-5.9,2.8-9.5,3.3c-0.9,0.1-1.9,0.1-17,0.1H8.7l-0.3-0.1c-0.3-0.2-0.6-0.5-0.8-0.8l-0.2-0.3l0-20C7.4,5.8,7.4,8,7.9,7.5
		c0.3-0.3,0.5-0.4,1-0.6c0.3-0.1,1-0.1,16.2-0.1C39.9,6.8,41,6.8,41.8,6.9L41.8,6.9z"/>
	<path class="st0" d="M24.8,8.8c-0.7,0.2-1.1,0.5-1.4,1l-0.2,0.4v2.8c0,1.5,0,3.8,0,5.1l0,2.4l2.3,0c2.6,0,3,0,3.7,0.4
		c0.8,0.4,1.5,1.2,1.9,2.2c0.3,0.7,0.3,1.2,0.3,2.1c0,1.3-0.2,2.2-0.8,3.3c-0.3,0.7-0.6,1-1.2,1.3c-1,0.5-1.2,0.5-3.9,0.5l-2.4,0
		l0,8l0,8l0.1,0.3c0.2,0.6,0.5,0.8,0.9,1.1l0.4,0.2l6.9,0c7.5,0,7.4,0,9.2-0.4c5.8-1.2,10.8-5,13.5-10.2c0.8-1.5,1.3-2.9,1.7-4.6
		c0.2-0.7,0.4-2.3,0.4-2.4c0,0-2.7-0.1-5.6-0.1l-0.5,0v-4.9v-4.9h1.1h1.1v3.9v3.9h2c1.6,0,2,0,2-0.1c0-0.5-0.1-2.1-0.2-2.6
		c-0.9-6.3-4.9-11.9-10.6-14.7c-2.3-1.2-4.7-1.8-7.3-2C37.3,8.7,25.2,8.7,24.8,8.8L24.8,8.8z M38.4,21.4v1h-1.7h-1.7l0,1l0,1l1.5,0
		l1.5,0v0.9v0.9l-1.5,0l-1.5,0v1v1l1.8,0l1.8,0v1v1h-2.8H33v-4.9v-4.9h2.7h2.7V21.4L38.4,21.4z M45.1,20.6c0,0.1,0.8,2.2,1.8,4.8
		c1,2.6,1.8,4.7,1.8,4.8c0,0.1,0,0.1-1,0.1h-1.1l-0.3-1.1l-0.3-1.1h-2h-2l-0.4,1c-0.2,0.6-0.4,1-0.4,1.1c-0.1,0-2,0.2-2,0.1
		c0,0,3.6-9.5,3.7-9.7c0,0,0.5,0,1.1,0C44.9,20.5,45,20.5,45.1,20.6L45.1,20.6z"/>
	<path class="st0" d="M14.5,18.7c-0.1,0-0.4,0.1-0.7,0.2c-2.1,0.5-3.7,2.3-4.2,4.4c-0.2,0.7-0.1,1.9,0,2.5c0.8,3.2,4,5.1,7.2,4.3
		c0.5-0.1,1.5-0.6,2-1c1.5-1.1,2.4-3.1,2.3-5c-0.1-1.1-0.5-2.2-1.1-3c-0.3-0.4-1.1-1.2-1.5-1.5c-0.4-0.3-1.3-0.7-1.8-0.8
		C16.3,18.7,15,18.6,14.5,18.7L14.5,18.7z"/>
	<path class="st0" d="M25.7,22.4l-0.4,0v2.9v2.9l1.2,0c1.5-0.1,1.6-0.1,2-0.4c0.6-0.6,0.7-1.1,0.7-2.6c0-1,0-1.2-0.1-1.7
		c-0.1-0.4-0.2-0.5-0.4-0.7c-0.4-0.3-0.7-0.4-1.6-0.4C26.5,22.4,25.9,22.4,25.7,22.4L25.7,22.4z"/>
	<path class="st0" d="M11,32.2c-0.6,0.1-1.2,0.6-1.4,1.2C9.5,33.7,9.5,34,9.5,40v6.3l0.2,0.3c0.2,0.4,0.5,0.7,0.9,1l0.3,0.2h4.4h4.4
		l0.3-0.2c0.4-0.2,0.8-0.6,1-1l0.2-0.3V40v-6.4l-0.2-0.3c-0.2-0.4-0.5-0.8-1-1l-0.3-0.2l-4.2,0C13.1,32.2,11.1,32.2,11,32.2L11,32.2
		z"/>
	<path class="st0" d="M43.3,24.3c-0.3,1-0.6,1.8-0.6,1.9c0,0.1,0.3,0.1,1.3,0.1c0.7,0,1.3,0,1.3,0c0,0-1.3-3.6-1.3-3.6
		C44,22.5,43.7,23.3,43.3,24.3L43.3,24.3z"/>
</g>
</svg>
