<?xml version="1.0" encoding="utf-8"?>
<!-- Generator: Adobe Illustrator 22.0.0, SVG Export Plug-In . SVG Version: 6.00 Build 0)  -->
<svg version="1.1" id="WordPress" xmlns="http://www.w3.org/2000/svg" xmlns:xlink="http://www.w3.org/1999/xlink" x="0px" y="0px"
	 viewBox="0 0 155.9 56.7" style="enable-background:new 0 0 155.9 56.7;" xml:space="preserve">
<style type="text/css">
	.st0{fill:#4E5157;}
	.st1{fill:#686C72;}
	.st2{fill:#93989E;}
</style>
<path class="st0" d="M17.7,39.7c0-4.4,2-8.2,5.2-10.8c-2.3-1.9-5.3-3-8.5-3C6.8,25.9,0.7,32,0.7,39.6s6.1,13.7,13.7,13.7
	c3.2,0,6.2-1.1,8.5-3C19.7,48,17.7,44.1,17.7,39.7z"/>
<ellipse class="st1" cx="22.9" cy="39.7" rx="5.2" ry="10.8"/>
<g>
	<path class="st0" d="M67.7,36c-0.3-0.3-0.7-0.6-1.1-0.7c-0.4-0.2-0.9-0.3-1.4-0.3c-0.3,0-0.6,0-0.9,0.1c-0.3,0-0.6,0.1-0.9,0.3
		c-0.3,0.1-0.6,0.3-0.8,0.5c-0.3,0.2-0.5,0.5-0.7,0.8c-0.3-0.5-0.7-0.9-1.2-1.2c-0.5-0.3-1.1-0.4-1.8-0.4c-0.2,0-0.5,0-0.7,0.1
		c-0.2,0-0.5,0.1-0.7,0.2c-0.2,0.1-0.5,0.2-0.7,0.4s-0.4,0.4-0.6,0.7v-1.1h-1.9v9.1h1.9v-5c0-0.4,0.1-0.7,0.2-1
		c0.1-0.3,0.3-0.6,0.5-0.8c0.2-0.2,0.4-0.4,0.7-0.5c0.3-0.1,0.6-0.2,0.9-0.2c0.6,0,1.2,0.2,1.5,0.6c0.4,0.4,0.5,1,0.5,1.8v5.1h1.9
		v-5c0-0.4,0.1-0.7,0.2-1c0.1-0.3,0.3-0.6,0.5-0.8c0.2-0.2,0.4-0.4,0.7-0.5c0.3-0.1,0.6-0.2,0.9-0.2c0.6,0,1.2,0.2,1.5,0.6
		c0.4,0.4,0.5,1,0.5,1.8v5.1h1.9v-5.7c0-0.5-0.1-1-0.3-1.5C68.2,36.7,68,36.4,67.7,36z"/>
	<path class="st0" d="M77.9,36.4c-0.3-0.4-0.7-0.7-1.2-1c-0.5-0.2-1-0.4-1.7-0.4c-0.6,0-1.2,0.1-1.8,0.4c-0.6,0.2-1,0.6-1.4,1
		c-0.4,0.4-0.7,0.9-1,1.5c-0.2,0.6-0.4,1.2-0.4,1.9s0.1,1.3,0.4,1.9c0.2,0.6,0.6,1.1,1,1.5s0.9,0.8,1.4,1c0.6,0.2,1.1,0.4,1.8,0.4
		c0.7,0,1.2-0.1,1.7-0.4c0.5-0.2,0.9-0.6,1.2-1v1.1h2v-9.1h-2V36.4z M77.8,41c-0.1,0.4-0.3,0.7-0.6,0.9c-0.2,0.3-0.5,0.5-0.9,0.6
		c-0.3,0.1-0.7,0.2-1.1,0.2s-0.8-0.1-1.2-0.2c-0.3-0.2-0.6-0.4-0.9-0.6c-0.2-0.3-0.4-0.6-0.5-0.9c-0.1-0.4-0.2-0.7-0.2-1.1
		c0-0.4,0.1-0.8,0.2-1.1c0.1-0.4,0.3-0.7,0.5-0.9c0.2-0.3,0.5-0.5,0.9-0.6c0.3-0.2,0.7-0.2,1.2-0.2c0.4,0,0.8,0.1,1.1,0.2
		c0.3,0.1,0.6,0.4,0.9,0.6c0.2,0.3,0.4,0.6,0.6,0.9c0.1,0.4,0.2,0.7,0.2,1.2S77.9,40.6,77.8,41z"/>
	<path class="st0" d="M89,39.8c-0.6-0.4-1.3-0.7-2.3-0.9l-1-0.1c-0.2,0-0.4-0.1-0.6-0.1s-0.3-0.1-0.5-0.2c-0.1-0.1-0.2-0.2-0.3-0.3
		c-0.1-0.1-0.1-0.2-0.1-0.4c0-0.3,0.2-0.6,0.5-0.8c0.3-0.2,0.7-0.3,1.3-0.3c0.3,0,0.6,0,0.8,0.1c0.3,0.1,0.5,0.1,0.8,0.2
		c0.2,0.1,0.5,0.2,0.7,0.3c0.2,0.1,0.4,0.2,0.5,0.3l0.9-1.5c-0.5-0.3-1-0.5-1.7-0.7c-0.6-0.2-1.3-0.3-2-0.3c-0.6,0-1.1,0.1-1.6,0.2
		c-0.5,0.1-0.9,0.3-1.2,0.6c-0.3,0.3-0.6,0.6-0.8,0.9c-0.2,0.4-0.3,0.8-0.3,1.2c0,0.7,0.3,1.3,0.8,1.8s1.3,0.7,2.3,0.9l0.9,0.1
		c0.5,0.1,0.9,0.2,1.2,0.4c0.3,0.2,0.4,0.4,0.4,0.6c0,0.3-0.2,0.6-0.5,0.8c-0.3,0.2-0.9,0.3-1.5,0.3c-0.4,0-0.7,0-1-0.1
		c-0.3-0.1-0.6-0.1-0.8-0.2c-0.2-0.1-0.5-0.2-0.7-0.3c-0.2-0.1-0.4-0.2-0.5-0.4l-0.9,1.5c0.3,0.2,0.7,0.4,1,0.6s0.7,0.3,1.1,0.4
		c0.3,0.1,0.7,0.1,1,0.2c0.3,0,0.6,0,0.8,0c0.7,0,1.2-0.1,1.8-0.2c0.5-0.1,0.9-0.3,1.3-0.6s0.6-0.6,0.8-0.9c0.2-0.4,0.3-0.8,0.3-1.2
		C89.8,40.8,89.5,40.2,89,39.8z"/>
	<path class="st0" d="M107.6,36.3c-0.4-0.4-0.8-0.7-1.4-1c-0.5-0.2-1.1-0.3-1.7-0.3c-0.7,0-1.3,0.1-1.8,0.3c-0.6,0.2-1,0.6-1.4,1
		c-0.4,0.4-0.7,0.9-0.9,1.5c-0.2,0.6-0.3,1.2-0.3,1.9c0,0.7,0.1,1.4,0.3,2c0.2,0.6,0.5,1.1,1,1.5c0.4,0.4,0.9,0.7,1.5,1
		c0.6,0.2,1.2,0.3,1.9,0.3c0.7,0,1.3-0.1,2-0.3c0.6-0.2,1.2-0.5,1.8-1l-1-1.4c-0.4,0.3-0.8,0.5-1.3,0.7s-0.9,0.3-1.4,0.3
		c-0.3,0-0.6,0-0.9-0.1c-0.3-0.1-0.6-0.2-0.8-0.4c-0.2-0.2-0.4-0.4-0.6-0.7s-0.3-0.6-0.4-1.1h6.7c0-0.1,0-0.2,0-0.4
		c0-0.1,0-0.3,0-0.4c0-0.7-0.1-1.4-0.3-1.9C108.2,37.3,107.9,36.8,107.6,36.3z M102,39c0.1-0.3,0.1-0.6,0.3-0.9
		c0.1-0.3,0.3-0.5,0.5-0.7s0.4-0.4,0.7-0.5c0.3-0.1,0.6-0.2,0.9-0.2c0.6,0,1.1,0.2,1.5,0.6c0.4,0.4,0.7,0.9,0.8,1.7H102z"/>
	<path class="st0" d="M133.9,36.4c-0.3-0.4-0.7-0.7-1.2-1c-0.5-0.2-1-0.4-1.7-0.4c-0.6,0-1.2,0.1-1.8,0.4c-0.6,0.2-1,0.6-1.4,1
		c-0.4,0.4-0.7,0.9-1,1.5c-0.2,0.6-0.4,1.2-0.4,1.9s0.1,1.3,0.4,1.9c0.2,0.6,0.6,1.1,1,1.5s0.9,0.8,1.4,1c0.6,0.2,1.1,0.4,1.8,0.4
		s1.2-0.1,1.7-0.4c0.5-0.2,0.9-0.6,1.2-1v1.1h2v-9.1h-2V36.4z M133.8,41c-0.1,0.4-0.3,0.7-0.6,0.9c-0.2,0.3-0.5,0.5-0.9,0.6
		c-0.3,0.1-0.7,0.2-1.1,0.2c-0.4,0-0.8-0.1-1.2-0.2c-0.3-0.2-0.6-0.4-0.9-0.6c-0.2-0.3-0.4-0.6-0.5-0.9c-0.1-0.4-0.2-0.7-0.2-1.1
		c0-0.4,0.1-0.8,0.2-1.1c0.1-0.4,0.3-0.7,0.5-0.9c0.2-0.3,0.5-0.5,0.9-0.6c0.3-0.2,0.7-0.2,1.2-0.2c0.4,0,0.8,0.1,1.1,0.2
		c0.3,0.1,0.6,0.4,0.9,0.6c0.2,0.3,0.4,0.6,0.6,0.9c0.1,0.4,0.2,0.7,0.2,1.2S134,40.6,133.8,41z"/>
	<path class="st0" d="M97.5,42.5c-0.3,0.1-0.6,0.2-0.9,0.2c-0.2,0-0.4,0-0.6-0.1c-0.2-0.1-0.3-0.2-0.5-0.3c-0.1-0.1-0.2-0.3-0.3-0.5
		c-0.1-0.2-0.1-0.5-0.1-0.8v-4h3.2v-1.8h-3.2v-2.8h-2v2.8h-1.8V37h1.8v4c0,1.2,0.3,2.1,0.9,2.7s1.4,0.9,2.4,0.9
		c0.6,0,1.1-0.1,1.6-0.3c0.3-0.1,0.6-0.3,0.8-0.4l-0.7-1.7C97.9,42.4,97.7,42.5,97.5,42.5z"/>
	<path class="st0" d="M115.4,35c-0.6,0-1.1,0.1-1.5,0.3s-0.8,0.7-1.1,1.1v-1.2H111v9.1h1.8v-5c0-0.4,0.1-0.7,0.2-1s0.3-0.6,0.4-0.8
		c0.2-0.2,0.4-0.4,0.7-0.5c0.3-0.1,0.6-0.2,0.9-0.2c0.2,0,0.5,0,0.8,0.1c0.1,0,0.3,0.1,0.4,0.1l0.6-1.9c-0.2-0.1-0.3-0.1-0.5-0.1
		C116,35,115.7,35,115.4,35z"/>
	<path class="st0" d="M143,35c-0.6,0-1.1,0.1-1.5,0.3s-0.8,0.7-1.1,1.1v-1.2h-1.8v9.1h1.8v-5c0-0.4,0.1-0.7,0.2-1
		c0.1-0.3,0.3-0.6,0.4-0.8c0.2-0.2,0.4-0.4,0.7-0.5c0.3-0.1,0.6-0.2,0.9-0.2c0.2,0,0.5,0,0.8,0.1c0.1,0,0.3,0.1,0.4,0.1l0.6-1.9
		c-0.2-0.1-0.3-0.1-0.5-0.1C143.6,35,143.3,35,143,35z"/>
	<path class="st0" d="M152.3,31.6v4.8c-0.3-0.4-0.7-0.7-1.2-1c-0.5-0.2-1-0.4-1.7-0.4c-0.6,0-1.2,0.1-1.8,0.4c-0.6,0.2-1,0.6-1.4,1
		c-0.4,0.4-0.7,0.9-1,1.5c-0.2,0.6-0.4,1.2-0.4,1.9c0,0.7,0.1,1.3,0.4,1.9c0.2,0.6,0.6,1.1,1,1.5s0.9,0.8,1.4,1
		c0.6,0.2,1.1,0.4,1.8,0.4s1.2-0.1,1.7-0.4c0.5-0.2,0.9-0.6,1.2-1v1.1h2V31.6H152.3z M152.2,41c-0.1,0.4-0.3,0.7-0.6,0.9
		c-0.2,0.3-0.5,0.5-0.9,0.6c-0.3,0.1-0.7,0.2-1.1,0.2c-0.4,0-0.8-0.1-1.2-0.2c-0.3-0.2-0.6-0.4-0.9-0.6c-0.2-0.3-0.4-0.6-0.5-0.9
		c-0.1-0.4-0.2-0.7-0.2-1.1c0-0.4,0.1-0.8,0.2-1.1c0.1-0.4,0.3-0.7,0.5-0.9c0.2-0.3,0.5-0.5,0.9-0.6c0.3-0.2,0.7-0.2,1.2-0.2
		c0.4,0,0.8,0.1,1.1,0.2c0.3,0.1,0.6,0.4,0.9,0.6c0.2,0.3,0.4,0.6,0.6,0.9c0.1,0.4,0.2,0.7,0.2,1.2S152.3,40.6,152.2,41z"/>
	<path class="st0" d="M120.1,37.7c0.3-0.3,0.6-0.5,0.9-0.6c0.3-0.1,0.7-0.2,1.1-0.2l0,0c0.4,0,0.9,0.1,1.2,0.2
		c0.4,0.1,0.7,0.3,1,0.6l1-1.6c-0.4-0.3-0.8-0.5-1.2-0.7c-0.6-0.2-1.2-0.4-2-0.4c-0.7,0-1.4,0.1-2,0.4c-0.6,0.2-1.1,0.6-1.5,1
		c-0.4,0.4-0.8,0.9-1,1.5c-0.2,0.6-0.4,1.2-0.4,1.9c0,0.7,0.1,1.3,0.4,1.9c0.2,0.6,0.6,1.1,1,1.5s0.9,0.8,1.5,1s1.2,0.4,2,0.4
		c0.7,0,1.4-0.1,2-0.4c0.4-0.2,0.9-0.4,1.2-0.7l-1-1.6c-0.3,0.2-0.6,0.4-1,0.6c-0.4,0.1-0.8,0.2-1.2,0.2l0,0c-0.4,0-0.8-0.1-1.1-0.2
		c-0.3-0.1-0.6-0.3-0.9-0.6c-0.3-0.3-0.5-0.6-0.6-0.9c-0.1-0.4-0.2-0.8-0.2-1.2s0.1-0.8,0.2-1.2C119.7,38.3,119.9,38,120.1,37.7z"/>
</g>
<path class="st2" d="M31.4,26c-3.2,0-6.2,1.1-8.5,3c3.2,2.5,5.2,6.4,5.2,10.8s-2,8.2-5.2,10.8c2.3,1.9,5.3,3,8.5,3
	c7.6,0,13.7-6.1,13.7-13.7S39,26,31.4,26z"/>
</svg>
