<?xml version="1.0" encoding="utf-8"?>
<!-- Generator: Adobe Illustrator 22.0.0, SVG Export Plug-In . SVG Version: 6.00 Build 0)  -->
<svg version="1.1" id="WordPress" xmlns="http://www.w3.org/2000/svg" xmlns:xlink="http://www.w3.org/1999/xlink" x="0px" y="0px"
	 viewBox="0 0 155.9 56.7" style="enable-background:new 0 0 155.9 56.7;" xml:space="preserve">
<style type="text/css">
	.st0{fill:#82868E;}
	.st1{fill:#4E5157;}
</style>
<g id="BG">
</g>
<path class="st0" d="M117.6,25.1h-8.1c-0.6,0-1,0.4-1.1,0.9l-3.3,20.7c-0.1,0.4,0.3,0.8,0.7,0.8h4.1c0.4,0,0.7-0.3,0.8-0.7l0.9-5.9
	c0.1-0.5,0.6-0.9,1.1-0.9h2.6c5.3,0,8.4-2.6,9.2-7.7c0.4-2.2,0-4-1-5.2C122.3,25.8,120.3,25.1,117.6,25.1z M118.5,32.7
	c-0.4,2.9-2.7,2.9-4.8,2.9h-1.2l0.9-5.4c0.1-0.3,0.3-0.6,0.7-0.6h0.6c1.5,0,2.8,0,3.5,0.8C118.5,30.9,118.7,31.7,118.5,32.7z"/>
<path class="st1" d="M59.9,25.1h-8.1c-0.6,0-1,0.4-1.1,0.9l-3.3,20.7c-0.1,0.4,0.3,0.8,0.7,0.8H52c0.6,0,1-0.4,1.1-0.9L54,41
	c0.1-0.5,0.6-0.9,1.1-0.9h2.6c5.3,0,8.4-2.6,9.2-7.7c0.4-2.2,0-4-1-5.2C64.6,25.8,62.6,25.1,59.9,25.1z M60.8,32.7
	c-0.4,2.9-2.7,2.9-4.8,2.9h-1.2l0.9-5.4c0.1-0.3,0.3-0.6,0.7-0.6h0.6c1.5,0,2.8,0,3.5,0.8C60.9,30.9,61,31.7,60.8,32.7z"/>
<path class="st1" d="M84.1,32.6h-3.9c-0.3,0-0.6,0.2-0.7,0.6l-0.2,1.1l-0.3-0.4c-0.8-1.2-2.7-1.6-4.6-1.6c-4.3,0-7.9,3.2-8.6,7.8
	c-0.4,2.3,0.2,4.4,1.4,5.9c1.2,1.4,2.9,2,4.9,2c3.4,0,5.4-2.2,5.4-2.2l-0.2,1.1c-0.1,0.4,0.3,0.8,0.7,0.8h3.5c0.6,0,1-0.4,1.1-0.9
	l2.1-13.3C84.8,33,84.5,32.6,84.1,32.6z M78.7,40.1c-0.4,2.2-2.1,3.7-4.4,3.7c-1.1,0-2-0.4-2.6-1c-0.6-0.7-0.8-1.6-0.6-2.7
	c0.3-2.2,2.1-3.7,4.3-3.7c1.1,0,2,0.4,2.6,1.1C78.6,38.1,78.8,39.1,78.7,40.1z"/>
<path class="st0" d="M141.7,32.6h-3.9c-0.3,0-0.6,0.2-0.7,0.6l-0.2,1.1l-0.3-0.4c-0.8-1.2-2.7-1.6-4.6-1.6c-4.3,0-7.9,3.2-8.6,7.8
	c-0.4,2.3,0.2,4.4,1.4,5.9c1.2,1.4,2.9,2,4.9,2c3.4,0,5.4-2.2,5.4-2.2l-0.2,1.1c-0.1,0.4,0.3,0.8,0.7,0.8h3.5c0.6,0,1-0.4,1.1-0.9
	l2.1-13.3C142.5,33,142.1,32.6,141.7,32.6z M136.3,40.1c-0.4,2.2-2.1,3.7-4.4,3.7c-1.1,0-2-0.4-2.6-1c-0.6-0.7-0.8-1.6-0.6-2.7
	c0.3-2.2,2.1-3.7,4.3-3.7c1.1,0,2,0.4,2.6,1.1C136.3,38.1,136.5,39.1,136.3,40.1z"/>
<path class="st1" d="M104.7,32.6h-3.9c-0.4,0-0.7,0.2-0.9,0.5L94.5,41l-2.3-7.6c-0.1-0.5-0.6-0.8-1.1-0.8h-3.8
	c-0.5,0-0.8,0.5-0.6,0.9L91,46.1l-4,5.7c-0.3,0.4,0,1.1,0.5,1.1h3.9c0.4,0,0.7-0.2,0.9-0.5l12.9-18.7
	C105.5,33.2,105.2,32.6,104.7,32.6z"/>
<path class="st0" d="M146.3,25.7L143,46.8c-0.1,0.4,0.3,0.8,0.7,0.8h3.3c0.6,0,1-0.4,1.1-0.9l3.3-20.7c0.1-0.4-0.3-0.8-0.7-0.8H147
	C146.6,25.1,146.3,25.4,146.3,25.7z"/>
<path class="st0" d="M31.6,26.2c0.4-2.8,0-4.7-1.5-6.4c-1.7-1.9-4.6-2.7-8.5-2.7H10.5c-0.8,0-1.4,0.6-1.6,1.3L4.3,47.8
	c-0.1,0.6,0.4,1.1,0.9,1.1h6.8l-0.5,3c-0.1,0.5,0.3,1,0.8,1h5.8c0.7,0,1.3-0.5,1.4-1.2l0.1-0.3l1.1-6.9l0.1-0.4
	c0.1-0.7,0.7-1.2,1.4-1.2h0.9c5.6,0,10-2.3,11.2-8.8c0.5-2.7,0.3-5-1.2-6.6C32.7,26.9,32.2,26.5,31.6,26.2L31.6,26.2"/>
<path class="st1" d="M31.6,26.2c0.4-2.8,0-4.7-1.5-6.4c-1.7-1.9-4.6-2.7-8.5-2.7H10.5c-0.8,0-1.4,0.6-1.6,1.3L4.3,47.8
	c-0.1,0.6,0.4,1.1,0.9,1.1h6.8L13.9,38l-0.1,0.3c0.1-0.8,0.8-1.3,1.6-1.3h3.3C25,37,30,34.4,31.5,26.9
	C31.5,26.6,31.5,26.4,31.6,26.2"/>
<path class="st1" d="M15.7,26.3c0.1-0.5,0.4-0.8,0.8-1c0.2-0.1,0.4-0.1,0.6-0.1h8.7c1,0,2,0.1,2.9,0.2c0.3,0,0.5,0.1,0.7,0.1
	c0.2,0.1,0.5,0.1,0.7,0.2c0.1,0,0.2,0.1,0.3,0.1c0.4,0.1,0.8,0.3,1.2,0.5c0.4-2.8,0-4.7-1.5-6.4c-1.7-1.9-4.6-2.7-8.5-2.7H10.5
	c-0.8,0-1.4,0.6-1.6,1.3L4.3,47.8c-0.1,0.6,0.4,1.1,0.9,1.1h6.8L13.9,38L15.7,26.3z"/>
</svg>
