<?xml version="1.0" encoding="utf-8"?>
<!-- Generator: Adobe Illustrator 22.0.0, SVG Export Plug-In . SVG Version: 6.00 Build 0)  -->
<svg version="1.1" id="WordPress" xmlns="http://www.w3.org/2000/svg" xmlns:xlink="http://www.w3.org/1999/xlink" x="0px" y="0px"
	 viewBox="0 0 155.9 56.7" style="enable-background:new 0 0 155.9 56.7;" xml:space="preserve">
<style type="text/css">
	.st0{fill:#93989E;}
	.st1{fill:#4E5157;}
</style>
<path class="st0" d="M131,31.7v1.3c-1.3-1.1-2.9-1.7-4.6-1.7c-4.2,0-7.6,3.7-7.6,8.2c0,4.5,3.4,8.2,7.6,8.2c1.7,0,3.3-0.6,4.6-1.7
	v1.4h3.5V31.7H131z M126.8,44.5c-2.5,0-4.6-2.3-4.6-5.1c0-2.8,2.1-5.1,4.6-5.1s4.6,2.3,4.6,5.1C131.4,42.3,129.3,44.5,126.8,44.5z"
	/>
<path class="st0" d="M109.1,31.3c-1.7,0-3.4,0.6-4.7,1.7v-1.3h-3.5V53h3.5v-7.1c1.3,1.1,3,1.7,4.7,1.7c4.2,0,7.6-3.7,7.6-8.2
	S113.4,31.3,109.1,31.3z M108.7,44.5c-2.5,0-4.6-2.3-4.6-5.1c0-2.8,2.1-5.1,4.6-5.1s4.6,2.3,4.6,5.1
	C113.3,42.3,111.3,44.5,108.7,44.5z"/>
<polygon class="st0" points="149.4,31.7 144.9,42.3 140.1,31.7 136.6,31.7 143.2,46.3 140.4,53 143.8,53 152.8,31.7 "/>
<polygon class="st1" points="78.7,33.8 78.9,44.2 78.8,44.2 75.8,33.8 70.9,33.8 70.9,46.9 74.1,46.9 73.9,36.2 74,36.2 77.3,46.9 
	82,46.9 82,33.8 "/>
<polygon class="st1" points="16.8,33.8 14.3,47 17.9,47 19.7,35 19.8,35 21.5,47 25.1,47 22.6,33.8 "/>
<polygon class="st1" points="36.6,33.8 35,43.9 34.9,43.9 33.3,33.8 28,33.8 27.7,47 31,47 31,35.2 31.1,35.2 33.3,47 36.6,47 
	38.8,35.2 38.9,35.2 39,47 42.3,47 42,33.8 "/>
<path class="st1" d="M8.8,43.3c0.1,0.3,0.1,0.7,0,1c-0.1,0.4-0.4,0.9-1.3,0.9c-0.8,0-1.3-0.5-1.3-1.2v-1.3H2.7v1
	c0,2.9,2.3,3.8,4.8,3.8c2.4,0,4.3-0.8,4.7-3c0.1-0.7,0.1-1.4,0-2.2c-0.6-2.8-5.6-3.6-5.9-5.1c0-0.2,0-0.5,0-0.7
	c0.1-0.4,0.4-0.9,1.2-0.9c0.6-0.1,1.2,0.4,1.2,1c0,0.1,0,0.1,0,0.2v0.8h3.3v-0.9c0-2.9-2.6-3.3-4.4-3.3c-2.3,0-4.3,0.8-4.6,2.9
	c-0.1,0.6-0.1,1.2,0,1.8C3.4,40.8,8.1,41.6,8.8,43.3"/>
<path class="st1" d="M51.6,43.3c0.1,0.3,0.1,0.6,0,1c-0.1,0.4-0.4,0.9-1.3,0.9c-0.8,0-1.3-0.5-1.3-1.2v-1.3h-3.5v1
	c0,2.9,2.3,3.8,4.7,3.8c2.4,0,4.3-0.8,4.6-3c0.1-0.7,0.1-1.4,0-2.1c-0.6-2.7-5.5-3.5-5.9-5.1c0-0.2,0-0.4,0-0.7
	c0.1-0.4,0.4-0.9,1.2-0.9c0.6-0.1,1.2,0.4,1.2,1c0,0.1,0,0.1,0,0.2v0.8h3.2v-0.9c0-2.8-2.5-3.3-4.4-3.3c-2.3,0-4.2,0.8-4.6,2.9
	c-0.1,0.6-0.1,1.2,0,1.8C46.3,40.8,50.9,41.6,51.6,43.3"/>
<path class="st1" d="M62.6,45c0.6,0.1,1.1-0.4,1.3-0.9c0-0.2,0-0.3,0-0.5v-9.7h3.3v9.4c0,0.2,0,0.7,0,0.9c-0.2,2.5-2.2,3.3-4.6,3.3
	c-2.4,0-4.4-0.8-4.6-3.3c0-0.1,0-0.6,0-0.9v-9.4h3.3v9.7c0,0.2,0,0.3,0,0.5C61.5,44.7,62,45.1,62.6,45"/>
<path class="st1" d="M90.1,44.9c1,0,1.3-0.6,1.3-0.9c0-0.2,0-0.3,0-0.5v-1.9h-1.3v-1.9h4.7v3.5c0,0.2,0,0.4,0,0.9
	c-0.2,2.4-2.3,3.3-4.6,3.3c-2.3,0-4.4-0.9-4.6-3.3c0-0.4,0-0.6,0-0.9v-5.6c0-0.3,0-0.6,0.1-0.9c0.3-2.5,2.3-3.3,4.6-3.3
	s4.4,0.8,4.6,3.3c0,0.3,0,0.6,0,0.9V38h-3.3v-0.7c0-0.2,0-0.3,0-0.5c-0.1-0.3-0.3-1-1.3-1c-0.6-0.1-1.2,0.4-1.3,1
	c0,0.2-0.1,0.4-0.1,0.6v6c0,0.2,0,0.3,0,0.5C88.8,44.3,89.1,44.9,90.1,44.9"/>
</svg>
