<?xml version="1.0" encoding="utf-8"?>
<!-- Generator: Adobe Illustrator 22.0.0, SVG Export Plug-In . SVG Version: 6.00 Build 0)  -->
<svg version="1.1" id="WordPress" xmlns="http://www.w3.org/2000/svg" xmlns:xlink="http://www.w3.org/1999/xlink" x="0px" y="0px"
	 viewBox="0 0 155.9 56.7" style="enable-background:new 0 0 155.9 56.7;" xml:space="preserve">
<style type="text/css">
	.st0{fill:#4E5157;}
	.st1{fill:#93989E;}
</style>
<path class="st0" d="M32.8,17.1h-9c0-1.5-0.2-2.5-0.5-3c-0.5-0.7-2-1.1-4.4-1.1c-2.4,0-3.9,0.2-4.7,0.6c-0.8,0.4-1.1,1.4-1.1,2.8
	c0,1.3,0.3,2.2,1,2.6c0.5,0.3,1.1,0.5,1.9,0.5l1.8,0.1c3.9,0.3,6.3,0.4,7.3,0.5c3.1,0.3,5.3,1.1,6.7,2.5c1.1,1,1.7,2.4,2,4.1
	c0.1,1,0.2,2.1,0.2,3.4c0,2.9-0.3,5-0.8,6.4c-1,2.5-3.3,4-6.8,4.7c-1.5,0.3-3.7,0.4-6.8,0.4c-5.1,0-8.6-0.3-10.6-0.9
	c-2.4-0.7-4.1-2.2-4.8-4.5C3.7,35,3.4,32.9,3.4,30h9c0,0.3,0,0.6,0,0.7c0,1.6,0.4,2.6,1.3,3c0.6,0.3,1.4,0.5,2.3,0.5h3.3
	c1.7,0,2.8-0.1,3.2-0.3c0.8-0.3,1.4-0.9,1.6-1.6c0.1-0.4,0.2-1,0.2-1.7c0-1.6-0.6-2.6-1.7-2.9c-0.4-0.1-2.4-0.3-6-0.6
	c-2.9-0.2-4.9-0.4-6-0.6c-3-0.6-4.9-1.7-5.9-3.4c-0.9-1.5-1.3-3.7-1.3-6.7c0-2.3,0.2-4.1,0.7-5.4C4.7,9.7,5.4,8.7,6.4,8
	C8,6.9,9.9,6.2,12.3,6c2-0.2,4.2-0.3,6.6-0.3c3.8,0,6.5,0.2,8.1,0.6c3.9,1.1,5.9,4,5.9,8.9C32.9,15.7,32.8,16.3,32.8,17.1z"/>
<path class="st0" d="M72.5,41.7V5.6h14.1h2.2h1.7c2.5,0,4.4,0.2,5.7,0.6c3,0.9,5,2.8,6,5.7c0.5,1.5,0.8,3.8,0.8,6.8
	c0,3.7-0.3,6.3-0.9,7.9c-1.2,3.2-3.5,5-7.2,5.5c-0.4,0.1-2.2,0.1-5.4,0.2L88,32.3h-5.8v9.3H72.5z M82.2,24h6.1
	c1.9-0.1,3.1-0.2,3.5-0.4c0.6-0.3,1-0.9,1.2-1.9c0.1-0.6,0.2-1.6,0.2-2.8c0-1.5-0.1-2.7-0.4-3.4c-0.3-1-1.2-1.7-2.5-1.9
	c-0.3,0-0.9-0.1-1.9-0.1h-6.1V24z"/>
<g>
	<path class="st0" d="M3.5,48.8l1.4-0.1c0.1,0.5,0.2,0.8,0.5,1c0.2,0.2,0.6,0.3,1,0.3c0.4,0,0.8-0.1,1-0.3c0.2-0.2,0.3-0.4,0.3-0.7
		c0-0.2,0-0.3-0.1-0.4c-0.1-0.1-0.3-0.2-0.5-0.3c-0.2-0.1-0.5-0.2-1.1-0.3c-0.7-0.2-1.3-0.4-1.6-0.7C4,47,3.7,46.5,3.7,46
		c0-0.3,0.1-0.7,0.3-1c0.2-0.3,0.5-0.5,0.9-0.7s0.8-0.2,1.4-0.2c0.9,0,1.5,0.2,2,0.6c0.4,0.4,0.7,0.9,0.7,1.5l-1.4,0.1
		c-0.1-0.4-0.2-0.6-0.4-0.8c-0.2-0.2-0.5-0.2-0.9-0.2c-0.4,0-0.7,0.1-0.9,0.2c-0.1,0.1-0.2,0.2-0.2,0.4c0,0.2,0.1,0.3,0.2,0.4
		c0.2,0.1,0.6,0.3,1.3,0.5c0.7,0.2,1.2,0.3,1.5,0.5c0.3,0.2,0.6,0.4,0.8,0.7c0.2,0.3,0.3,0.7,0.3,1.1c0,0.4-0.1,0.8-0.3,1.1
		c-0.2,0.3-0.5,0.6-0.9,0.8c-0.4,0.2-0.9,0.3-1.5,0.3c-0.9,0-1.5-0.2-2-0.6C3.8,50.2,3.6,49.6,3.5,48.8z"/>
	<path class="st0" d="M10.5,45.4v-1.2h1.3v1.2H10.5z M10.5,51.1v-5h1.3v5H10.5z"/>
	<path class="st0" d="M18,51.1h-1.3v-2.6c0-0.5,0-0.9-0.1-1c-0.1-0.2-0.1-0.3-0.3-0.4C16.2,47,16.1,47,15.9,47
		c-0.2,0-0.4,0.1-0.6,0.2c-0.2,0.1-0.3,0.3-0.4,0.5c-0.1,0.2-0.1,0.6-0.1,1.1v2.3h-1.3v-5h1.2v0.7c0.4-0.6,1-0.9,1.6-0.9
		c0.3,0,0.6,0.1,0.8,0.2c0.2,0.1,0.4,0.2,0.5,0.4c0.1,0.2,0.2,0.3,0.3,0.6c0,0.2,0.1,0.5,0.1,0.9V51.1z"/>
	<path class="st0" d="M19.5,51.4l1.5,0.2c0,0.2,0.1,0.3,0.2,0.4c0.1,0.1,0.3,0.1,0.6,0.1c0.3,0,0.6-0.1,0.8-0.2
		c0.1-0.1,0.2-0.2,0.3-0.3c0-0.1,0.1-0.3,0.1-0.6l0-0.7c-0.4,0.5-0.9,0.8-1.5,0.8c-0.7,0-1.2-0.3-1.6-0.9c-0.3-0.4-0.5-1-0.5-1.7
		c0-0.8,0.2-1.5,0.6-1.9c0.4-0.4,0.9-0.7,1.5-0.7c0.6,0,1.1,0.3,1.5,0.8v-0.7h1.2v4.5c0,0.6,0,1-0.1,1.3c-0.1,0.3-0.2,0.5-0.4,0.7
		c-0.2,0.2-0.4,0.3-0.7,0.4c-0.3,0.1-0.7,0.1-1.1,0.1c-0.8,0-1.4-0.1-1.8-0.4c-0.4-0.3-0.5-0.7-0.5-1.1
		C19.5,51.5,19.5,51.5,19.5,51.4z M20.7,48.5c0,0.5,0.1,0.9,0.3,1.2c0.2,0.2,0.5,0.4,0.8,0.4c0.3,0,0.6-0.1,0.8-0.4
		c0.2-0.3,0.3-0.6,0.3-1.1c0-0.5-0.1-0.9-0.3-1.2c-0.2-0.3-0.5-0.4-0.8-0.4c-0.3,0-0.6,0.1-0.8,0.4C20.8,47.6,20.7,48,20.7,48.5z"/>
	<path class="st0" d="M25.8,51.1v-6.9h1.3v6.9H25.8z"/>
	<path class="st0" d="M31.7,49.5l1.3,0.2c-0.2,0.5-0.4,0.8-0.8,1.1c-0.4,0.3-0.8,0.4-1.4,0.4c-0.9,0-1.5-0.3-1.9-0.9
		c-0.3-0.5-0.5-1-0.5-1.7c0-0.8,0.2-1.5,0.7-2c0.4-0.5,1-0.7,1.6-0.7c0.7,0,1.3,0.2,1.8,0.7c0.4,0.5,0.6,1.2,0.6,2.3h-3.3
		c0,0.4,0.1,0.7,0.3,0.9c0.2,0.2,0.5,0.3,0.8,0.3c0.2,0,0.4-0.1,0.5-0.2C31.5,49.9,31.6,49.7,31.7,49.5z M31.8,48.2
		c0-0.4-0.1-0.7-0.3-0.9c-0.2-0.2-0.4-0.3-0.7-0.3c-0.3,0-0.5,0.1-0.7,0.3c-0.2,0.2-0.3,0.5-0.3,0.9H31.8z"/>
	<path class="st0" d="M37.4,51.1v-6.9h5.1v1.2h-3.7v1.5h3.4V48h-3.4v1.9h3.8v1.2H37.4z"/>
	<path class="st0" d="M47.4,51.1v-0.7c-0.2,0.3-0.4,0.5-0.7,0.6s-0.6,0.2-0.9,0.2c-0.3,0-0.6-0.1-0.9-0.2c-0.3-0.1-0.5-0.4-0.6-0.6
		c-0.1-0.3-0.2-0.6-0.2-1.1v-3.2h1.3v2.3c0,0.7,0,1.1,0.1,1.3c0,0.2,0.1,0.3,0.3,0.4c0.1,0.1,0.3,0.1,0.5,0.1c0.2,0,0.4-0.1,0.6-0.2
		c0.2-0.1,0.3-0.3,0.4-0.5c0.1-0.2,0.1-0.6,0.1-1.3v-2.1h1.3v5H47.4z"/>
	<path class="st0" d="M51.6,51.1h-1.3v-5h1.2v0.7c0.2-0.3,0.4-0.6,0.6-0.7c0.2-0.1,0.4-0.2,0.6-0.2c0.3,0,0.6,0.1,0.9,0.3l-0.4,1.2
		c-0.2-0.1-0.4-0.2-0.6-0.2c-0.2,0-0.3,0.1-0.5,0.2c-0.1,0.1-0.2,0.3-0.3,0.6c-0.1,0.3-0.1,0.8-0.1,1.7V51.1z"/>
	<path class="st0" d="M54,48.5c0-0.4,0.1-0.9,0.3-1.3c0.2-0.4,0.5-0.7,0.9-0.9c0.4-0.2,0.8-0.3,1.3-0.3c0.8,0,1.4,0.2,1.9,0.7
		c0.5,0.5,0.7,1.1,0.7,1.9c0,0.8-0.2,1.4-0.7,1.9c-0.5,0.5-1.1,0.7-1.8,0.7c-0.5,0-0.9-0.1-1.3-0.3c-0.4-0.2-0.7-0.5-0.9-0.9
		C54.1,49.6,54,49.1,54,48.5z M55.4,48.6c0,0.5,0.1,0.9,0.4,1.1c0.2,0.3,0.5,0.4,0.9,0.4c0.3,0,0.6-0.1,0.9-0.4
		c0.2-0.3,0.4-0.6,0.4-1.2c0-0.5-0.1-0.9-0.4-1.1c-0.2-0.3-0.5-0.4-0.9-0.4c-0.3,0-0.6,0.1-0.9,0.4C55.5,47.7,55.4,48.1,55.4,48.6z"
		/>
	<path class="st0" d="M63.5,51.1v-6.9h2.2c0.8,0,1.4,0,1.7,0.1c0.4,0.1,0.7,0.3,1,0.7c0.3,0.3,0.4,0.8,0.4,1.3
		c0,0.4-0.1,0.8-0.2,1.1c-0.2,0.3-0.3,0.5-0.6,0.7c-0.2,0.2-0.5,0.3-0.7,0.3c-0.3,0.1-0.8,0.1-1.4,0.1h-0.9v2.6H63.5z M64.9,45.3v2
		h0.8c0.5,0,0.9,0,1.1-0.1c0.2-0.1,0.3-0.2,0.4-0.3c0.1-0.2,0.2-0.3,0.2-0.5c0-0.3-0.1-0.5-0.2-0.6c-0.1-0.2-0.3-0.3-0.6-0.3
		c-0.2,0-0.5,0-1,0H64.9z"/>
	<path class="st0" d="M71.1,47.6L70,47.4c0.1-0.5,0.4-0.8,0.7-1.1c0.3-0.2,0.8-0.3,1.5-0.3c0.6,0,1,0.1,1.3,0.2
		c0.3,0.1,0.5,0.3,0.6,0.5c0.1,0.2,0.2,0.6,0.2,1.2l0,1.5c0,0.4,0,0.8,0.1,1c0,0.2,0.1,0.4,0.2,0.7h-1.3c0-0.1-0.1-0.2-0.1-0.4
		c0-0.1,0-0.1,0-0.2c-0.2,0.2-0.5,0.4-0.7,0.5c-0.3,0.1-0.5,0.2-0.8,0.2c-0.5,0-0.9-0.1-1.2-0.4c-0.3-0.3-0.4-0.6-0.4-1.1
		c0-0.3,0.1-0.5,0.2-0.8c0.1-0.2,0.3-0.4,0.6-0.5c0.2-0.1,0.6-0.2,1.1-0.3c0.6-0.1,1-0.2,1.3-0.3v-0.1c0-0.3-0.1-0.4-0.2-0.6
		C72.6,47,72.4,47,72,47c-0.2,0-0.4,0-0.6,0.1C71.3,47.2,71.2,47.4,71.1,47.6z M72.9,48.7c-0.2,0.1-0.4,0.1-0.8,0.2
		c-0.4,0.1-0.6,0.2-0.7,0.2c-0.2,0.1-0.3,0.3-0.3,0.5c0,0.2,0.1,0.3,0.2,0.5c0.1,0.1,0.3,0.2,0.5,0.2c0.2,0,0.5-0.1,0.7-0.2
		c0.2-0.1,0.3-0.3,0.3-0.4c0-0.1,0.1-0.3,0.1-0.6V48.7z"/>
	<path class="st0" d="M75.2,46.1h1.4l1.2,3.5l1.2-3.5h1.4l-1.8,4.8l-0.3,0.9c-0.1,0.3-0.2,0.5-0.3,0.7c-0.1,0.2-0.2,0.3-0.4,0.4
		C77.4,52.9,77.2,53,77,53c-0.2,0.1-0.4,0.1-0.7,0.1c-0.3,0-0.5,0-0.7-0.1l-0.1-1c0.2,0,0.4,0.1,0.6,0.1c0.3,0,0.5-0.1,0.7-0.3
		c0.1-0.2,0.3-0.4,0.3-0.7L75.2,46.1z"/>
	<path class="st0" d="M81.3,46.1h1.2v0.7c0.4-0.5,1-0.8,1.6-0.8c0.3,0,0.6,0.1,0.8,0.2c0.2,0.1,0.4,0.3,0.6,0.6
		c0.2-0.3,0.5-0.5,0.7-0.6c0.3-0.1,0.5-0.2,0.8-0.2c0.4,0,0.7,0.1,0.9,0.2c0.3,0.1,0.4,0.4,0.6,0.7c0.1,0.2,0.1,0.6,0.1,1v3.2h-1.3
		v-2.9c0-0.5,0-0.8-0.1-1c-0.1-0.2-0.3-0.3-0.6-0.3c-0.2,0-0.4,0.1-0.5,0.2c-0.2,0.1-0.3,0.3-0.4,0.5c-0.1,0.2-0.1,0.6-0.1,1v2.4
		h-1.3v-2.7c0-0.5,0-0.8-0.1-0.9c0-0.1-0.1-0.2-0.2-0.3C84,47,83.8,47,83.7,47c-0.2,0-0.4,0.1-0.5,0.2c-0.2,0.1-0.3,0.3-0.3,0.5
		c-0.1,0.2-0.1,0.6-0.1,1v2.4h-1.3V46.1z"/>
	<path class="st0" d="M93.2,49.5l1.3,0.2c-0.2,0.5-0.4,0.8-0.8,1.1c-0.4,0.3-0.8,0.4-1.4,0.4c-0.9,0-1.5-0.3-1.9-0.9
		c-0.3-0.5-0.5-1-0.5-1.7c0-0.8,0.2-1.5,0.7-2c0.4-0.5,1-0.7,1.6-0.7c0.7,0,1.3,0.2,1.8,0.7c0.4,0.5,0.6,1.2,0.6,2.3h-3.3
		c0,0.4,0.1,0.7,0.3,0.9c0.2,0.2,0.5,0.3,0.8,0.3c0.2,0,0.4-0.1,0.5-0.2C93,49.9,93.1,49.7,93.2,49.5z M93.3,48.2
		c0-0.4-0.1-0.7-0.3-0.9c-0.2-0.2-0.4-0.3-0.7-0.3c-0.3,0-0.5,0.1-0.7,0.3c-0.2,0.2-0.3,0.5-0.3,0.9H93.3z"/>
	<path class="st0" d="M100.5,51.1h-1.3v-2.6c0-0.5,0-0.9-0.1-1c-0.1-0.2-0.1-0.3-0.3-0.4C98.7,47,98.5,47,98.3,47
		c-0.2,0-0.4,0.1-0.6,0.2c-0.2,0.1-0.3,0.3-0.4,0.5c-0.1,0.2-0.1,0.6-0.1,1.1v2.3h-1.3v-5h1.2v0.7c0.4-0.6,1-0.9,1.6-0.9
		c0.3,0,0.6,0.1,0.8,0.2c0.2,0.1,0.4,0.2,0.5,0.4c0.1,0.2,0.2,0.3,0.3,0.6c0,0.2,0.1,0.5,0.1,0.9V51.1z"/>
	<path class="st0" d="M104.4,46.1v1.1h-0.9v2c0,0.4,0,0.6,0,0.7c0,0.1,0.1,0.1,0.1,0.2c0.1,0,0.1,0.1,0.2,0.1c0.1,0,0.3,0,0.5-0.1
		l0.1,1c-0.3,0.1-0.7,0.2-1,0.2c-0.2,0-0.5,0-0.6-0.1s-0.3-0.2-0.4-0.3c-0.1-0.1-0.2-0.3-0.2-0.5c0-0.2,0-0.5,0-0.9v-2.2h-0.6v-1.1
		h0.6v-1l1.3-0.8v1.8H104.4z"/>
	<path class="st0" d="M105.1,49.7l1.3-0.2c0.1,0.3,0.2,0.4,0.3,0.6c0.2,0.1,0.4,0.2,0.7,0.2c0.3,0,0.6-0.1,0.8-0.2
		c0.1-0.1,0.2-0.2,0.2-0.4c0-0.1,0-0.2-0.1-0.3c-0.1-0.1-0.2-0.1-0.4-0.2c-1.1-0.2-1.8-0.5-2-0.6c-0.4-0.3-0.6-0.6-0.6-1.1
		c0-0.4,0.2-0.8,0.5-1.1c0.3-0.3,0.9-0.4,1.6-0.4c0.7,0,1.2,0.1,1.5,0.3c0.3,0.2,0.6,0.5,0.7,1l-1.2,0.2c-0.1-0.2-0.2-0.3-0.3-0.4
		c-0.2-0.1-0.4-0.2-0.6-0.2c-0.4,0-0.6,0-0.8,0.1c-0.1,0.1-0.2,0.2-0.2,0.3c0,0.1,0,0.2,0.1,0.2c0.1,0.1,0.5,0.2,1.2,0.4
		c0.7,0.2,1.2,0.4,1.5,0.6c0.3,0.2,0.4,0.6,0.4,1c0,0.5-0.2,0.9-0.6,1.2c-0.4,0.3-0.9,0.5-1.7,0.5c-0.7,0-1.2-0.1-1.6-0.4
		C105.5,50.5,105.3,50.1,105.1,49.7z"/>
	<path class="st0" d="M120.4,51.1h-1.5l-0.6-1.6h-2.8l-0.6,1.6h-1.5l2.7-6.9h1.5L120.4,51.1z M117.9,48.3l-1-2.6l-0.9,2.6H117.9z"/>
	<path class="st0" d="M122.7,51.1h-1.3v-5h1.2v0.7c0.2-0.3,0.4-0.6,0.6-0.7c0.2-0.1,0.4-0.2,0.6-0.2c0.3,0,0.6,0.1,0.9,0.3l-0.4,1.2
		c-0.2-0.1-0.4-0.2-0.6-0.2c-0.2,0-0.3,0.1-0.5,0.2c-0.1,0.1-0.2,0.3-0.3,0.6c-0.1,0.3-0.1,0.8-0.1,1.7V51.1z"/>
	<path class="st0" d="M128.4,49.5l1.3,0.2c-0.2,0.5-0.4,0.8-0.8,1.1c-0.4,0.3-0.8,0.4-1.4,0.4c-0.9,0-1.5-0.3-1.9-0.9
		c-0.3-0.5-0.5-1-0.5-1.7c0-0.8,0.2-1.5,0.7-2c0.4-0.5,1-0.7,1.6-0.7c0.7,0,1.3,0.2,1.8,0.7c0.4,0.5,0.6,1.2,0.6,2.3h-3.3
		c0,0.4,0.1,0.7,0.3,0.9c0.2,0.2,0.5,0.3,0.8,0.3c0.2,0,0.4-0.1,0.5-0.2C128.2,49.9,128.3,49.7,128.4,49.5z M128.5,48.2
		c0-0.4-0.1-0.7-0.3-0.9c-0.2-0.2-0.4-0.3-0.7-0.3c-0.3,0-0.5,0.1-0.7,0.3c-0.2,0.2-0.3,0.5-0.3,0.9H128.5z"/>
	<path class="st0" d="M132.1,47.6l-1.2-0.2c0.1-0.5,0.4-0.8,0.7-1.1c0.3-0.2,0.8-0.3,1.5-0.3c0.6,0,1,0.1,1.3,0.2
		c0.3,0.1,0.5,0.3,0.6,0.5c0.1,0.2,0.2,0.6,0.2,1.2l0,1.5c0,0.4,0,0.8,0.1,1c0,0.2,0.1,0.4,0.2,0.7h-1.3c0-0.1-0.1-0.2-0.1-0.4
		c0-0.1,0-0.1,0-0.2c-0.2,0.2-0.5,0.4-0.7,0.5c-0.3,0.1-0.5,0.2-0.8,0.2c-0.5,0-0.9-0.1-1.2-0.4c-0.3-0.3-0.4-0.6-0.4-1.1
		c0-0.3,0.1-0.5,0.2-0.8c0.1-0.2,0.3-0.4,0.6-0.5c0.2-0.1,0.6-0.2,1.1-0.3c0.6-0.1,1-0.2,1.3-0.3v-0.1c0-0.3-0.1-0.4-0.2-0.6
		c-0.1-0.1-0.4-0.2-0.7-0.2c-0.2,0-0.4,0-0.6,0.1C132.3,47.2,132.2,47.4,132.1,47.6z M133.9,48.7c-0.2,0.1-0.4,0.1-0.8,0.2
		c-0.4,0.1-0.6,0.2-0.7,0.2c-0.2,0.1-0.3,0.3-0.3,0.5c0,0.2,0.1,0.3,0.2,0.5c0.1,0.1,0.3,0.2,0.5,0.2c0.2,0,0.5-0.1,0.7-0.2
		c0.2-0.1,0.3-0.3,0.3-0.4c0-0.1,0.1-0.3,0.1-0.6V48.7z"/>
</g>
<path class="st0" d="M123.7,35.4h-13l-1.7,6.2H99l10.8-36.1h14.6l11,36.1h-9.8L123.7,35.4z M121.8,28.4l-4.5-15.6l-4.4,15.6H121.8z"
	/>
<path class="st1" d="M59.1,10.7c4,0,7.6,1.8,9.9,4.7l2.1-4.5c-3.3-3.1-7.7-5-12.6-5c-7.6,0-14.2,4.6-16.9,11.2h-4.1l-2.4,5.2h5.2
	c0,0.5-0.1,1-0.1,1.4c0,0.6,0,1.2,0.1,1.8h-2.6l-2.4,5.2h6.4c2.8,6.4,9.2,10.8,16.8,10.8c3.8,0,7.3-1.1,10.2-3.1V32
	c-2.3,2.7-5.8,4.4-9.6,4.4c-4.5,0-8.4-2.3-10.7-5.8h13.4l2.4-5.2H46.4c-0.1-0.6-0.1-1.3-0.1-1.9c0-0.4,0-0.9,0.1-1.3h19.3l2.4-5.2
	H48C50.2,13.2,54.4,10.7,59.1,10.7z"/>
</svg>
