<?xml version="1.0" encoding="utf-8"?>
<!-- Generator: Adobe Illustrator 22.0.0, SVG Export Plug-In . SVG Version: 6.00 Build 0)  -->
<svg version="1.1" id="WordPress" xmlns="http://www.w3.org/2000/svg" xmlns:xlink="http://www.w3.org/1999/xlink" x="0px" y="0px"
	 viewBox="0 0 155.9 56.7" style="enable-background:new 0 0 155.9 56.7;" xml:space="preserve">
<style type="text/css">
	.st0{fill:#4E5157;}
</style>
<g id="BG">
</g>
<g>
	<path class="st0" d="M37,29.3c0.5,0.5,1.4,0.5,1.9,0l0.1-0.1c0.5-0.5,0.5-1.3,0.1-1.8c-0.8,0-1.6-0.4-2.1-1.1l-1.8-2.6
		c-0.5-0.4-1.2-0.3-1.6,0.1l-0.1,0.1c-0.5,0.5-0.4,1.6,0.4,2.4L37,29.3z"/>
	<path class="st0" d="M44.8,44.1c-0.9,0-1.6,0.7-1.6,1.6c0,0.9,0.7,1.6,1.6,1.6s1.6-0.7,1.6-1.6C46.4,44.8,45.7,44.1,44.8,44.1z"/>
	<path class="st0" d="M33.5,44.1c-0.9,0-1.6,0.7-1.6,1.6c0,0.9,0.7,1.6,1.6,1.6c0.9,0,1.6-0.7,1.6-1.6
		C35.1,44.8,34.4,44.1,33.5,44.1z"/>
	<path class="st0" d="M38,25.6c0.4,0.6,1.3,0.8,1.9,0.4l0.1-0.1c0.2-0.1,0.3-0.3,0.4-0.5c-0.6-0.6-0.7-1.4-0.6-2.2l-1.3-1.9
		c0,0,0,0-0.1-0.1l-0.6-0.9c-0.7-1-1.4-1.4-2.2-0.9l-0.1,0.1c-0.6,0.4-0.7,1.5-0.1,2.5L38,25.6z"/>
	<path class="st0" d="M43,22.2c-0.3-0.1-0.7-0.1-1,0c-0.5,0.1-0.8,0.4-1,0.9c-0.2,0.7-0.2,1.3,0.3,1.7c0.1,0,0.1,0.1,0.2,0.1
		c0.3,0.2,0.8,0.4,1.4,0.6l4.2,0.9c0.7,0.2,0.5,1.2-0.2,1.1c0,0-0.1,0-0.1,0c-0.5-0.1-1.1,0-1.7,0.2c-1,0.4-1.7,1.3-1.7,2.9
		c0,0.3-0.3,0.5-0.6,0.5c-0.3,0-0.5-0.3-0.5-0.6c0.1-1.8,0.8-3,1.9-3.6l-1.5-0.3c-0.5-0.1-1-0.3-1.3-0.5c-0.2,0.3-0.4,0.5-0.7,0.7
		l-0.1,0.1C40.4,27,40.3,27,40.2,27c0.5,0.9,0.4,2.1-0.4,2.9L39.7,30c-0.9,1-2.5,1-3.5,0l-0.8-0.8c0.7,3.3,3.6,5.5,7,5.5
		c5.4,0,7.7-3.1,8.1-8c0.1-1.4-0.1-2.3-0.5-2.7c-0.1-0.1-0.2-0.2-0.3-0.2c-0.1,0-0.1,0-0.1,0l-6.4-1.5C43.1,22.2,43.1,22.2,43,22.2z
		"/>
	<path class="st0" d="M38.3,10.7l1.2,10.1l0.8,1.2c0.3-0.5,0.8-0.8,1.4-0.9c0.5-0.1,1-0.1,1.5,0c0.1,0,0.2,0,0.3,0.1l4.2,1L50,10.4
		c0.2-0.8-0.3-1.5-1-1.8c-0.9-0.2-1.7,0.3-2,1.2l-2.7,9.3c0,0,0,0.1-0.1,0.1c0,0,0,0,0,0c0,0.1-0.1,0.1-0.1,0.1c0,0,0,0,0,0
		c-0.1,0-0.1,0.1-0.2,0.1c0,0,0,0,0,0c0,0,0,0,0,0c-0.1,0-0.1,0-0.2,0c0,0,0,0-0.1,0c0,0,0,0,0,0c0,0-0.1,0-0.1,0c0,0-0.1,0-0.1,0
		c0,0-0.1,0-0.1-0.1c0,0-0.1-0.1-0.1-0.1c0,0,0,0,0-0.1c0,0,0-0.1,0-0.1l-2.2-9.3c-0.1-0.4-0.3-0.7-0.6-1c-0.3-0.2-0.7-0.3-1.1-0.2
		C38.6,8.9,38.1,9.8,38.3,10.7L38.3,10.7z"/>
	<path class="st0" d="M3.8,3.7v50.7h76V3.7H3.8z M32.8,23.1l0.1-0.1c0.4-0.4,1-0.7,1.6-0.7c-0.7-1.4-0.5-2.8,0.6-3.6l0.2-0.1
		c1.2-0.7,2.2-0.4,3,0.5l-1-8.2c-0.3-1.4,0.5-3,1.9-3.3c0.7-0.1,1.4,0,2,0.4c0.6,0.4,1,1,1.1,1.6l1.7,7.2L46,9.6
		c0.4-1.4,1.8-2.3,3.3-1.9c1.3,0.4,2.1,1.7,1.8,3l-2.4,11.8l1,0.2c0.3,0,0.7,0.2,1,0.6c0.7,0.7,1,1.9,0.8,3.6c-0.5,5.4-3.1,9-9.2,9
		c0,0,0,0,0,0c0,0,0,0,0,0c0,0-0.1,0-0.1,0c0,0,0,0,0,0c-4.3-0.1-8-3.3-8.1-7.8l-1-1C32,25.8,31.8,24.1,32.8,23.1z M26.6,49
		c-1.2,0-2.2-0.6-2.9-1.4l1.2-1.2c0.4,0.5,0.9,0.9,1.7,0.9c0.7,0,1.2-0.4,1.2-1.1c0-0.7-0.6-0.9-1.5-1.2c-1.7-0.5-2.4-1.4-2.4-2.5
		c0-1.4,1.1-2.7,2.8-2.7c1.1,0,2.1,0.5,2.5,1.5l-1.4,0.9c-0.3-0.4-0.6-0.7-1.2-0.7c-0.6,0-1,0.4-1,0.9c0,0.6,0.5,0.8,1.4,1.1
		c1.4,0.4,2.5,1.1,2.5,2.7C29.6,47.8,28.3,49,26.6,49z M33.5,49c-1.8,0-3.3-1.5-3.3-3.2c0-1.8,1.5-3.2,3.3-3.2
		c1.8,0,3.3,1.5,3.3,3.2C36.8,47.5,35.3,49,33.5,49z M41.1,41.6c-1,0-1.7,0.4-1.7,1.5v0.7c0.4-0.4,0.9-0.6,1.6-0.6v1.6
		c-1,0-1.6,0.6-1.6,1.5v2.6h-1.7V43c0-1.6,1-3,3.1-3h0.3V41.6z M44.8,49c-1.8,0-3.3-1.5-3.3-3.2c0-1.8,1.5-3.2,3.3-3.2
		c1.8,0,3.3,1.5,3.3,3.2C48.2,47.5,46.7,49,44.8,49z M52.4,44.4c-1,0-1.6,0.6-1.6,1.6v2.8h-1.7v-6.1h1.7v0.7
		c0.3-0.6,0.9-0.8,1.7-0.8V44.4z M56.8,48.8h-0.3c-2.1,0-3.1-1.4-3.1-3v-5.1h1.7v1c0,0.8,0.7,1.5,1.6,1.5v1.6
		c-0.7,0-1.2-0.2-1.6-0.6v1.5c0,1.1,0.7,1.5,1.7,1.5V48.8z M58.9,48.9c-0.6,0-1.2-0.5-1.2-1.2c0-0.6,0.5-1.2,1.2-1.2
		c0.6,0,1.2,0.5,1.2,1.2C60,48.4,59.5,48.9,58.9,48.9z"/>
</g>
</svg>
