<?xml version="1.0" encoding="utf-8"?>
<!-- Generator: Adobe Illustrator 22.0.0, SVG Export Plug-In . SVG Version: 6.00 Build 0)  -->
<svg version="1.1" id="WordPress" xmlns="http://www.w3.org/2000/svg" xmlns:xlink="http://www.w3.org/1999/xlink" x="0px" y="0px"
	 viewBox="0 0 155.9 56.7" style="enable-background:new 0 0 155.9 56.7;" xml:space="preserve">
<style type="text/css">
	.st0{fill:#4E5157;}
	.st1{fill:#93989E;}
</style>
<path class="st0" d="M101.4,3.6c-12.2,0-20.8,6.5-20.9,15.8c-0.1,6.9,6.1,10.7,10.8,13c4.8,2.3,6.4,3.8,6.4,5.9
	c0,3.2-3.9,4.7-7.4,4.7c-4.9,0-7.6-0.7-11.6-2.5l-1.6-0.8l-1.7,10.7c2.9,1.3,8.2,2.5,13.8,2.5c13,0,21.4-6.4,21.5-16.3
	c0.1-5.5-3.2-9.6-10.4-13c-4.3-2.2-7-3.7-6.9-5.9c0-2,2.2-4.1,7.1-4.1c4-0.1,7,0.9,9.2,1.8l1.1,0.5l1.7-10.4
	C110,4.7,106.2,3.6,101.4,3.6L101.4,3.6z M63,4.5l-7.7,47.9h12.4l7.7-47.9L63,4.5L63,4.5z M44.9,4.5L32.9,37.1l-1.3-6.6
	c-3-8.1-9.5-16.7-17.1-20.1l11.1,41.9l13.1,0L58,4.5L44.9,4.5L44.9,4.5z M134.6,4.5c-3,0-5.2,0.8-6.5,4l-18.3,43.8h13
	c0,0,2.1-5.9,2.6-7.2c1.4,0,14,0,15.8,0c0.4,1.7,1.5,7.2,1.5,7.2h11.5l-10-47.8L134.6,4.5L134.6,4.5z M135.5,17.4l0.8,4.1
	c0,0,2.4,11.4,2.9,13.8h-10.3c1-2.7,4.9-13.4,4.9-13.4C133.8,22.1,134.9,19.2,135.5,17.4L135.5,17.4z"/>
<path class="st1" d="M21.6,4.5H1.7L1.6,5.3c15.5,4,25.7,13.7,30,25.2l-4.3-22C26.5,5.5,24.3,4.6,21.6,4.5"/>
</svg>
