<?xml version="1.0" encoding="utf-8"?>
<!-- Generator: Adobe Illustrator 22.0.0, SVG Export Plug-In . SVG Version: 6.00 Build 0)  -->
<svg version="1.1" id="WordPress" xmlns="http://www.w3.org/2000/svg" xmlns:xlink="http://www.w3.org/1999/xlink" x="0px" y="0px"
	 viewBox="0 0 155.9 56.7" style="enable-background:new 0 0 155.9 56.7;" xml:space="preserve">
<style type="text/css">
	.st0{fill:#4E5157;}
	.st1{fill:#93989E;}
</style>
<path class="st0" d="M25.3,31.2L20,41.8c-1.1,2.3-2.2,4.6-3.1,6.9h-0.1c-0.1-2.3-0.3-4.6-0.6-6.9l-0.5-5.6l-0.5-5.1h-0.6h-4.6l0,0
	H3.2H3v0.8h0.4c5.7,0.3,7.1,3.6,7.5,5.3l-0.7-5.3l0,0l0.7,5.5c0,0,0-0.1,0-0.2l0.1,1c0,0,0,0,0-0.1l2,15.4h5.8l12-22.4H25.3z"/>
<path class="st0" d="M38.6,31.1l-4.4,22.4h-5l4.4-22.4H38.6z"/>
<path class="st0" d="M38.9,48.3c1.4,0.8,3.4,1.4,5.5,1.4c1.9,0,3.7-0.9,3.7-2.6c0-1.3-1-2.1-3.1-3.2c-2.5-1.3-4.8-3-4.8-6
	c0-4.5,4.1-7.3,9.2-7.3c2.8,0,4.5,0.6,5.5,1.1l-2.2,4c-0.8-0.4-1.4-1.2-3.7-1.2c-2.3,0-3.5,1.3-3.5,2.5c0,1.3,1.4,2.1,3.4,3.2
	c2.8,1.4,4.6,3.2,4.6,5.9c0,5-4.3,7.5-9.5,7.5c-3.2,0-5.9-1.3-7-2.1L38.9,48.3z"/>
<path class="st0" d="M60.6,47.7l-2.8,5.8h-5.3l11.3-22.4h6.4L73,53.5h-5.2l-0.5-5.8H60.6z M67.1,44l-0.5-4.8c-0.1-1.2-0.2-3-0.3-4.4
	h-0.1c-0.6,1.4-1.2,3.1-1.9,4.4L62.1,44H67.1z"/>
<path class="st1" d="M80.6,54c-1.5,0-2.7-0.4-3.5-1.1c-0.8-0.7-1.2-1.8-1.2-3.2c0-1.1,0.2-2.1,0.5-3c0.4-0.9,0.9-1.6,1.5-2.3
	c0.6-0.6,1.4-1.1,2.2-1.5c0.9-0.4,1.8-0.5,2.7-0.5c0.8,0,1.5,0.1,2.1,0.2s1.2,0.4,1.8,0.7l-0.7,2.7h-0.3c-0.5-0.5-0.9-0.9-1.4-1.1
	c-0.5-0.2-1-0.4-1.6-0.4c-1.1,0-2,0.5-2.8,1.3c-0.7,0.9-1.1,2-1.1,3.4c0,0.9,0.2,1.5,0.6,1.9c0.4,0.4,1,0.6,1.7,0.6
	c0.7,0,1.3-0.1,1.9-0.4c0.6-0.3,1.2-0.6,1.7-1.1h0.3L84.6,53c-0.2,0.1-0.5,0.2-0.8,0.3s-0.6,0.2-0.9,0.3c-0.4,0.1-0.7,0.2-1,0.2
	C81.6,54,81.2,54,80.6,54z"/>
<path class="st1" d="M95.9,47.3c0,0.1,0,0.3,0,0.5c0,0.2,0,0.4-0.1,0.6l-1.3,5.5h-2.7l1-4.2c0.1-0.3,0.1-0.6,0.2-0.8
	c0-0.2,0.1-0.4,0.1-0.6c0-0.3-0.1-0.6-0.2-0.7c-0.2-0.1-0.5-0.2-0.9-0.2c-0.2,0-0.5,0-0.7,0.1c-0.3,0.1-0.6,0.2-0.9,0.4l-1.4,6h-2.7
	l2.7-11.6h2.7l-1,4.2c0.5-0.4,1.1-0.7,1.5-0.9s1-0.3,1.5-0.3c0.8,0,1.4,0.2,1.8,0.6C95.7,46.1,95.9,46.6,95.9,47.3z"/>
<path class="st1" d="M101.3,54c-1.4,0-2.5-0.3-3.3-0.9c-0.8-0.6-1.2-1.5-1.2-2.6c0-0.8,0.1-1.5,0.4-2.1c0.2-0.6,0.6-1.2,1.1-1.7
	c0.5-0.5,1-0.8,1.7-1.1c0.7-0.3,1.4-0.4,2.3-0.4c1.2,0,2.2,0.2,2.8,0.8c0.6,0.5,0.9,1.3,0.9,2.2c0,0.3,0,0.7-0.1,1s-0.2,0.7-0.3,1
	h-6.3c0,0,0,0.1,0,0.1c0,0,0,0.1,0,0.1c0,0.6,0.2,1,0.6,1.4c0.4,0.3,1,0.5,1.9,0.5c0.6,0,1.2-0.1,1.7-0.3c0.5-0.2,1-0.4,1.4-0.7h0.3
	l-0.5,2.2c-0.5,0.2-1.1,0.4-1.6,0.5C102.6,54,102,54,101.3,54z M103.4,48.6c0-0.1,0-0.2,0-0.2c0-0.1,0-0.2,0-0.2
	c0-0.4-0.1-0.7-0.4-0.9c-0.2-0.2-0.6-0.3-1.1-0.3c-0.6,0-1,0.2-1.4,0.5s-0.7,0.7-0.9,1.3L103.4,48.6L103.4,48.6z"/>
<path class="st1" d="M110.7,54c-0.6,0-1.1-0.1-1.6-0.2c-0.5-0.1-0.9-0.4-1.3-0.7c-0.4-0.3-0.7-0.7-0.9-1.1c-0.2-0.4-0.3-1-0.3-1.5
	c0-0.7,0.1-1.4,0.4-2.1c0.3-0.7,0.7-1.2,1.2-1.7c0.5-0.5,1.1-0.9,1.9-1.1c0.7-0.3,1.5-0.4,2.4-0.4c0.5,0,1,0.1,1.5,0.2
	c0.5,0.1,1,0.3,1.4,0.5l-0.6,2.3h-0.4c-0.3-0.4-0.6-0.6-1-0.8c-0.4-0.2-0.8-0.3-1.2-0.3c-0.8,0-1.5,0.3-2,0.9
	c-0.5,0.6-0.8,1.4-0.8,2.3c0,0.6,0.2,1.1,0.5,1.4c0.3,0.3,0.8,0.5,1.5,0.5c0.5,0,1-0.1,1.4-0.3c0.4-0.2,0.8-0.5,1.1-0.7h0.4
	l-0.6,2.3c-0.5,0.2-1,0.4-1.4,0.5C111.9,54,111.3,54,110.7,54z"/>
<path class="st1" d="M124,53.8h-2.8l-1.7-3.7l-1.2,1.1l-0.6,2.7H115l2.7-11.6h2.7l-1.6,6.9l3.8-3.7h3.1l-3.9,3.7L124,53.8z"/>
<path class="st1" d="M134.5,48.5c0,0.8-0.1,1.5-0.4,2.2c-0.3,0.7-0.6,1.3-1.1,1.8c-0.5,0.5-1.1,0.9-1.7,1.2s-1.4,0.4-2.3,0.4
	c-1.2,0-2.2-0.3-2.9-0.9c-0.7-0.6-1-1.4-1-2.5c0-0.7,0.1-1.5,0.4-2.1c0.2-0.7,0.6-1.3,1.1-1.8c0.5-0.5,1.1-0.9,1.7-1.2
	c0.7-0.3,1.5-0.4,2.3-0.4c1.3,0,2.2,0.3,2.9,0.9C134.2,46.6,134.5,47.5,134.5,48.5z M131,51.2c0.2-0.3,0.4-0.7,0.5-1.2
	c0.1-0.4,0.2-0.9,0.2-1.5c0-0.5-0.1-0.9-0.3-1.2c-0.2-0.3-0.6-0.4-1.1-0.4c-0.4,0-0.7,0.1-1,0.3c-0.3,0.2-0.5,0.5-0.8,0.8
	c-0.2,0.3-0.4,0.7-0.5,1.2c-0.1,0.5-0.2,0.9-0.2,1.4c0,0.6,0.1,1,0.4,1.2s0.6,0.4,1,0.4c0.3,0,0.6-0.1,0.9-0.3
	C130.6,51.8,130.8,51.6,131,51.2z"/>
<path class="st1" d="M145.3,45.4l-1.9,8.4h-2.7l0.2-0.9c-0.3,0.2-0.5,0.3-0.8,0.5c-0.2,0.2-0.5,0.3-0.7,0.4
	c-0.3,0.1-0.6,0.2-0.8,0.2S138,54,137.8,54c-0.7,0-1.3-0.2-1.7-0.5c-0.4-0.4-0.6-0.9-0.6-1.6c0-0.2,0-0.4,0-0.5c0-0.2,0-0.3,0.1-0.5
	l1.3-5.5h2.7l-1,4.2c-0.1,0.3-0.1,0.6-0.2,0.8c0,0.2-0.1,0.4-0.1,0.6c0,0.3,0.1,0.6,0.2,0.7c0.2,0.1,0.5,0.2,0.9,0.2
	c0.2,0,0.5,0,0.8-0.1c0.3-0.1,0.6-0.2,0.9-0.4l1.4-6L145.3,45.4L145.3,45.4z"/>
<path class="st1" d="M148.7,54c-0.9,0-1.6-0.2-2-0.5c-0.4-0.3-0.6-0.8-0.6-1.4c0-0.2,0-0.3,0-0.5c0-0.2,0.1-0.3,0.1-0.5l0.9-4H146
	l0.4-1.8h1.1l0.6-2.4h2.7l-0.5,2.4h2.5l-0.4,1.8h-2.5l-0.7,3c0,0.2-0.1,0.4-0.1,0.6c0,0.2-0.1,0.4-0.1,0.5c0,0.3,0.1,0.5,0.2,0.6
	c0.2,0.1,0.4,0.2,0.8,0.2c0.1,0,0.3,0,0.5-0.1c0.2,0,0.4-0.1,0.5-0.2h0.2l-0.4,1.8c-0.3,0.1-0.6,0.1-1,0.2S149.2,54,148.7,54z"/>
</svg>
