<?xml version="1.0" encoding="utf-8"?>
<!-- Generator: Adobe Illustrator 22.0.0, SVG Export Plug-In . SVG Version: 6.00 Build 0)  -->
<svg version="1.1" id="Layer_1" xmlns="http://www.w3.org/2000/svg" xmlns:xlink="http://www.w3.org/1999/xlink" x="0px" y="0px"
	 viewBox="0 0 16 16" style="enable-background:new 0 0 16 16;" xml:space="preserve">
<style type="text/css">
	.st0{fill:#5E686B;}
	.st1{fill:#3EB1FC;}
</style>
<path class="st0" d="M15.9,0.3c0-0.2-0.2-0.3-0.4-0.3h-15C0.3,0,0.1,0.1,0.1,0.3C0,0.4,0,0.6,0.1,0.8L7,11.1v3.4v1.2
	c0,0.1,0.1,0.2,0.2,0.2s0.2-0.1,0.2-0.2v-1.2V11v-0.1l-7-10.4c0,0,0,0,0-0.1c0,0,0,0,0.1,0h15c0,0,0,0,0.1,0c0,0,0,0,0,0.1l-7,10.4
	V11v2.2v1.2c0,0.1,0.1,0.2,0.2,0.2c0.1,0,0.2-0.1,0.2-0.2v-1.2V11l6.9-10.3C16,0.6,16,0.4,15.9,0.3z"/>
<path class="st1" d="M11.8,3.5c-0.1-0.1-0.2-0.1-0.3,0c0,0-0.3,0.2-1,0.2C9.9,3.7,9,3.4,8.1,3C7.5,2.7,6.9,2.5,6.4,2.5
	c-1.4,0-2.2,1-2.2,1.1c-0.1,0.1-0.1,0.2,0,0.2l3.7,5.5c0,0.1,0.1,0.1,0.2,0.1c0.1,0,0.1,0,0.2-0.1L12,3.8
	C11.9,3.7,11.9,3.6,11.8,3.5z"/>
</svg>
