<?xml version="1.0"?>
<svg xmlns="http://www.w3.org/2000/svg" xmlns:xlink="http://www.w3.org/1999/xlink" version="1.1" id="Layer_1" x="0px" y="0px" viewBox="0 0 511.999 511.999" style="enable-background:new 0 0 511.999 511.999;" xml:space="preserve" width="512px" height="512px" class=""><g><path style="fill:#E4D61C" d="M456.959,136.366V54.799c0-8.705-7.058-15.761-15.761-15.761H335.792V54.14  c0,8.705-7.056,15.763-15.762,15.763H191.972c-8.707,0-15.763-7.058-15.763-15.763V39.037H70.804  c-8.704,0-15.762,7.056-15.762,15.761v433.438c0,8.705,7.058,15.762,15.762,15.762h370.394c8.703,0,15.761-7.057,15.761-15.762  V163.764" data-original="#EFD89C" class="" data-old_color="#E0D31C"/><path style="fill:#FFEF0F" d="M441.198,39.037H335.792v15.102c0,8.705-7.056,15.763-15.762,15.763H191.972  c-8.707,0-15.763-7.058-15.763-15.763V39.037h-10.055c-69.775,194.434,39.197,406.888,235.784,464.961h39.26  c8.703,0,15.761-7.057,15.761-15.762c0-3.126,0-426.084,0-433.438C456.959,46.095,449.901,39.037,441.198,39.037z" data-original="#F9E5B9" class="" data-old_color="#ffef0f"/><path style="fill:#767574;" d="M320.03,7.333H191.972c-9.517,0-17.258,7.741-17.258,17.256V54.14  c0,9.516,7.741,17.257,17.258,17.257H320.03c9.515,0,17.256-7.741,17.256-17.257V24.589C337.286,15.075,329.544,7.333,320.03,7.333z  " data-original="#767574"/><path style="fill:#5B5957;" d="M320.03,39.365H191.972c-9.098,0-16.555-7.08-17.196-16.016c-0.089,1.248-0.063-1.656-0.063,30.791  c0,9.516,7.741,17.257,17.258,17.257h128.058c9.515,0,17.256-7.741,17.256-17.257c0-32.441,0.026-29.542-0.062-30.791  C336.583,32.285,329.126,39.365,320.03,39.365z" data-original="#5B5957"/><path d="M457.699,143.01c4.143,0,7.5-3.357,7.5-7.5V53.642c0-12.859-10.462-23.32-23.319-23.32h-98.294v-7  c0-12.86-10.462-23.321-23.32-23.321h-18.815c-4.142,0-7.5,3.357-7.5,7.5s3.358,7.5,7.5,7.5h18.815c4.587,0,8.32,3.732,8.32,8.32  c0,10.285,0,19.107,0,29.659c0,4.588-3.733,8.321-8.32,8.321H191.734c-4.588,0-8.32-3.732-8.32-8.321c0-10.551,0-19.372,0-29.659  c0-4.587,3.732-8.32,8.321-8.32h80.217c4.143,0,7.5-3.357,7.5-7.5s-3.357-7.5-7.5-7.5h-80.217c-12.859,0-23.321,10.462-23.321,23.32  v7H70.12c-12.859,0-23.32,10.462-23.32,23.32v435.037c0,12.859,10.462,23.32,23.32,23.32h371.76  c12.858,0,23.319-10.462,23.319-23.32v-325.67c0-4.142-3.357-7.5-7.5-7.5s-7.5,3.358-7.5,7.5v325.67  c0,4.587-3.731,8.319-8.319,8.319H70.12c-4.587,0-8.32-3.732-8.32-8.319V53.642c0-4.587,3.733-8.32,8.32-8.32h98.293v7.657  c0,12.857,10.46,23.321,23.321,23.321h128.531c12.858,0,23.32-10.461,23.32-23.321v-7.657h98.294c4.587,0,8.319,3.732,8.319,8.32  v81.867C450.199,139.652,453.557,143.01,457.699,143.01z" data-original="#000000" class="active-path" style="fill:#021826" data-old_color="#000000"/><path d="M184.671,130.417c-2.938-2.921-7.686-2.909-10.608,0.027l-34.905,35.086l-15.78-14.833  c-3.019-2.838-7.766-2.69-10.603,0.328c-2.837,3.019-2.69,7.765,0.328,10.603l21.093,19.826c2.958,2.78,7.59,2.702,10.455-0.175  l40.047-40.254C187.619,138.088,187.607,133.339,184.671,130.417z" data-original="#000000" class="active-path" style="fill:#021826" data-old_color="#000000"/><path d="M184.67,213.237c-2.936-2.92-7.685-2.909-10.607,0.028l-34.905,35.086l-15.78-14.833c-3.019-2.838-7.766-2.69-10.603,0.328  c-2.837,3.018-2.69,7.765,0.328,10.602c22.588,21.231,22.27,21.861,26.23,21.861c4.202,0,2.143,0.981,45.366-42.467  C187.619,220.908,187.606,216.158,184.67,213.237z" data-original="#000000" class="active-path" style="fill:#021826" data-old_color="#000000"/><path d="M174.062,296.085l-34.905,35.086l-15.78-14.832c-3.019-2.838-7.766-2.69-10.603,0.328  c-2.837,3.018-2.689,7.766,0.328,10.603l21.093,19.825c2.958,2.78,7.591,2.703,10.455-0.176l40.047-40.254  c2.921-2.937,2.908-7.686-0.028-10.608C181.734,293.136,176.984,293.147,174.062,296.085z" data-original="#000000" class="active-path" style="fill:#021826" data-old_color="#000000"/><path d="M113.102,410.089l21.092,19.826c2.959,2.781,7.592,2.702,10.454-0.175l40.049-40.254c2.921-2.937,2.909-7.686-0.027-10.607  c-2.938-2.922-7.686-2.909-10.607,0.026l-34.906,35.086l-15.78-14.833c-3.017-2.837-7.765-2.69-10.603,0.328  C109.937,402.503,110.084,407.252,113.102,410.089z" data-original="#000000" class="active-path" style="fill:#021826" data-old_color="#000000"/><path d="M396.194,131.979H227.443c-4.143,0-7.5,3.357-7.5,7.5c0,4.143,3.357,7.5,7.5,7.5h168.75c4.142,0,7.5-3.357,7.5-7.5  C403.695,135.336,400.337,131.979,396.194,131.979z" data-original="#000000" class="active-path" style="fill:#021826" data-old_color="#000000"/><path d="M396.194,212.788H227.443c-4.143,0-7.5,3.357-7.5,7.5c0,4.143,3.357,7.5,7.5,7.5h168.75c4.142,0,7.5-3.357,7.5-7.5  C403.695,216.146,400.337,212.788,396.194,212.788z" data-original="#000000" class="active-path" style="fill:#021826" data-old_color="#000000"/><path d="M396.194,293.6H227.443c-4.143,0-7.5,3.357-7.5,7.5c0,4.143,3.357,7.5,7.5,7.5h168.75c4.142,0,7.5-3.357,7.5-7.5  C403.695,296.958,400.337,293.6,396.194,293.6z" data-original="#000000" class="active-path" style="fill:#021826" data-old_color="#000000"/><path d="M403.695,381.91c0-4.142-3.358-7.5-7.5-7.5H227.443c-4.143,0-7.5,3.358-7.5,7.5c0,4.143,3.357,7.5,7.5,7.5h168.75  C400.337,389.411,403.695,386.052,403.695,381.91z" data-original="#000000" class="active-path" style="fill:#021826" data-old_color="#000000"/><path d="M227.443,181.257h85.255c4.143,0,7.5-3.357,7.5-7.5c0-4.143-3.357-7.5-7.5-7.5h-85.255c-4.143,0-7.5,3.357-7.5,7.5  C219.943,177.9,223.301,181.257,227.443,181.257z" data-original="#000000" class="active-path" style="fill:#021826" data-old_color="#000000"/><path d="M227.443,262.067h85.255c4.143,0,7.5-3.357,7.5-7.5s-3.357-7.5-7.5-7.5h-85.255c-4.143,0-7.5,3.357-7.5,7.5  S223.301,262.067,227.443,262.067z" data-original="#000000" class="active-path" style="fill:#021826" data-old_color="#000000"/><path d="M227.443,342.878h85.255c4.143,0,7.5-3.357,7.5-7.5c0-4.142-3.357-7.5-7.5-7.5h-85.255c-4.143,0-7.5,3.358-7.5,7.5  C219.943,339.521,223.301,342.878,227.443,342.878z" data-original="#000000" class="active-path" style="fill:#021826" data-old_color="#000000"/><path d="M227.443,408.687c-4.143,0-7.5,3.357-7.5,7.5s3.357,7.5,7.5,7.5h85.255c4.143,0,7.5-3.357,7.5-7.5s-3.357-7.5-7.5-7.5  H227.443z" data-original="#000000" class="active-path" style="fill:#021826" data-old_color="#000000"/></g> </svg>
