<?xml version="1.0" encoding="utf-8"?><svg id="feature3" image-rendering="auto" baseProfile="basic" version="1.1" x="0px" y="0px" width="146" height="146" xmlns="http://www.w3.org/2000/svg" xmlns:xlink="http://www.w3.org/1999/xlink"><g id="Scene-1" overflow="visible"><path fill="#FFF" stroke="none" d="M137.9 33.55Q137.9 33.6 137.9 33.65L137.9 116.1Q137.9 117.75 136.7 118.95 135.5 120.15 133.85 120.15L12.15 120.15Q10.45 120.15 9.3 118.95 8.1 117.75 8.1 116.1L8.1 33.65Q8.1 33.6 8.1 33.55 8.1 33.5 8.1 33.45L8.45 32Q8.75 31.3 9.3 30.75 10.45 29.55 12.15 29.55L44.05 29.55Q45.3 29.55 46.3 28.9 46.65 28.7 46.95 28.4 47.5 27.8 47.8 27.1L48 26.6Q48.1 26.1 48.1 25.55L48.1 25.5Q48.1 23.85 46.95 22.65 45.75 21.45 44.05 21.45L12.15 21.45Q7.1 21.45 3.55 25 0 28.55 0 33.6L0 116Q0 121.05 3.55 124.6 7.1 128.2 12.15 128.2L41.7 128.2 33.85 139.65Q33.25 140.55 33.15 141.7 33.1 142.8 33.65 143.85 34.15 144.85 35.1 145.45 36.1 146 37.2 146L108.85 146Q110.55 146 111.7 144.85 112.9 143.65 112.9 141.95 112.9 140.45 111.85 139.25L104.35 128.2 133.85 128.2Q138.9 128.2 142.45 124.65 146 121.1 146 116.05L146 33.65Q146 28.6 142.45 25 138.9 21.45 133.85 21.45L100.55 21.45Q98.85 21.45 97.65 22.65 96.45 23.85 96.45 25.5 96.45 27.2 97.65 28.4 98.85 29.6 100.55 29.6L133.85 29.6Q135.5 29.6 136.7 30.8 137.25 31.35 137.6 32L137.9 33.45Q137.9 33.5 137.9 33.55M44.9 137.9L51.5 128.2 94.45 128.2 101.1 137.9 44.9 137.9Z"/><g id="rocket" transform="translate(72.95 52.7)"><animateTransform attributeName="transform" additive="replace" type="translate" repeatCount="indefinite" dur="1.333s" keyTimes="0;.075;.175;.25;.325;.4;.475;.55;.625;.7;.8;.85;.925;.975;1" values="72.95,52.7;72.2,52.2;73.2,51.2;72.7,52.7;73.45,52.2;72.2,51.45;71.7,52.95;72.7,52.45;71.7,53.45;72.45,52.7;73.2,53.7;72.45,52.95;72.95,52.45;72.95,52.7;72.95,52.7"/><path fill="#FBD301" stroke="none" d="M3.6 -50.65Q3.05 -51.6 2.1 -52.15 1.15 -52.7 .05 -52.7 -1.05 -52.7 -2 -52.15 -2.95 -51.6 -3.5 -50.65L-18.65 -23.65Q-19.15 -22.7 -19.15 -21.7L-19.15 -2.35 -33.35 5.85Q-34.3 6.35 -34.8 7.3 -35.4 8.25 -35.4 9.35L-35.4 37.8Q-35.4 38.85 -34.8 39.8 -34.3 40.75 -33.35 41.3 -32.65 41.75 -31.7 41.85 -30.4 42 -29.25 41.3L-14 32.5 -13.25 32.5 -3.5 50.6Q-3 51.55 -2 52.15 -1.05 52.7 .05 52.7 1.15 52.7 2.1 52.15 3.05 51.55 3.6 50.6L13.35 32.5 14.1 32.5 29.35 41.3Q30.45 41.95 31.75 41.85 32.7 41.75 33.4 41.3 34.4 40.75 34.9 39.8 35.45 38.9 35.45 37.8L35.45 9.35Q35.45 8.25 34.9 7.3 34.35 6.35 33.4 5.85L19.25 -2.35 19.25 -21.7Q19.25 -22.8 18.7 -23.65L3.6 -50.65M.05 -40.35L11.1 -20.6 11.1 24.4 -11.05 24.4 -11.05 -20.6 .05 -40.35M4.15 32.5L.05 40.15 -4.1 32.5 4.15 32.5M27.3 30.75L19.2 26.05 19.2 7 27.3 11.65 27.3 30.75M-27.2 11.65L-19.1 6.95 -19.1 26.05 -27.2 30.75 -27.2 11.65Z"/><path fill="#F0582F" stroke="none" d="M2.9 -22.35Q1.7 -23.5 .05 -23.5 -1.65 -23.5 -2.85 -22.3 -4 -21.1 -4 -19.45L-4 -15.75Q-4 -14.05 -2.8 -12.85 -1.6 -11.65 .05 -11.65 1.7 -11.65 2.9 -12.85 4.1 -14.05 4.1 -15.75L4.1 -19.45Q4.1 -21.15 2.9 -22.35Z"/></g></g></svg>