<?xml version="1.0" encoding="utf-8"?><svg id="logo" image-rendering="auto" baseProfile="basic" version="1.1" x="0px" y="0px" width="306" height="92" xmlns="http://www.w3.org/2000/svg" xmlns:xlink="http://www.w3.org/1999/xlink"><g id="Scene-1" overflow="visible"><path fill="#8F83D7" stroke="none" d="M146.8 39.2Q145.45 39.8 144.25 40.95L144.1 40.95 143.7 39 139.05 39 139.05 65.55 144.75 65.55 144.55 56.8Q145.6 57.8 146.75 58.3 147.95 58.85 149.2 58.85 150.75 58.85 152.2 58.1 153.7 57.4 154.8 56.1 156 54.7 156.65 52.8 157.35 50.75 157.35 48.35 157.35 46.15 156.8 44.3 156.3 42.5 155.3 41.2 154.3 39.9 152.9 39.25 151.5 38.55 149.75 38.55 148.3 38.55 146.8 39.2M144.75 45Q145.6 44.05 146.4 43.65 147.2 43.2 148.1 43.2 148.95 43.2 149.6 43.55 150.2 43.9 150.65 44.5 151.05 45.15 151.25 46.15 151.45 47.15 151.45 48.45 151.45 49.9 151.15 51 150.9 52.05 150.4 52.8 149.9 53.45 149.25 53.8 148.6 54.15 147.85 54.15 147.05 54.15 146.35 53.85 145.5 53.55 144.75 52.9L144.75 45M134.5 35.8Q133.7 35 132.7 34.35L130.65 33.3Q127.75 32.45 126.3 32.45 124.35 32.45 122.65 33.05 121 33.6 119.8 34.65 118.6 35.7 117.9 37.05 117.25 38.45 117.25 40 117.25 41.35 117.7 42.55 118.05 43.6 118.8 44.5 119.5 45.3 120.45 45.95 121.35 46.55 122.4 46.95L125.65 48.35Q127.8 49.25 128.35 49.65 129.35 50.35 129.35 51.4 129.35 52.6 128.45 53.2 127.55 53.85 125.75 53.85 124.25 53.85 122.55 53.15 120.95 52.45 119.55 51.2L116.25 55.15Q117.2 56.05 118.35 56.75 119.45 57.4 120.7 57.9 121.9 58.35 123.15 58.6 124.4 58.85 125.65 58.85 127.85 58.85 129.7 58.2 131.45 57.55 132.7 56.45 133.9 55.4 134.55 53.95 135.2 52.5 135.2 50.95 135.2 49.65 134.85 48.5 134.55 47.5 133.85 46.6 133.2 45.8 132.25 45.15 131.35 44.5 130.2 44.05L126.95 42.7Q124.75 41.8 124.15 41.45 123.05 40.75 123.05 39.7 123.05 38.65 123.95 38 124.8 37.4 126.3 37.4 127.75 37.4 129.05 37.95 130.25 38.4 131.6 39.45L134.5 35.8M181.85 44.35Q181 47.1 181 48.7 181 51.05 181.75 53 182.45 54.85 183.75 56.15 185.05 57.45 186.8 58.15 188.55 58.85 190.55 58.85 192.2 58.85 193.85 58.2 195.65 57.6 197 56.4L194.7 52.75Q192.65 54.2 191.2 54.2 190.3 54.2 189.5 53.8 188.7 53.4 188.1 52.7 187.55 51.95 187.2 50.95 186.9 49.9 186.9 48.7 186.9 47.45 187.2 46.4 187.5 45.4 188.1 44.7 188.7 43.95 189.55 43.55 190.4 43.15 191.45 43.15 192.75 43.15 194.1 44.3L196.7 40.75Q195.75 39.75 194.3 39.15 192.8 38.55 191.05 38.55 189.05 38.55 187.25 39.2 185.4 39.9 184.05 41.2 182.6 42.55 181.85 44.35M170.7 43.85Q171.45 44.55 171.5 45.9 168.65 46.2 166.6 46.75 164.55 47.35 163.2 48.2 161.9 49.1 161.25 50.25 160.65 51.45 160.65 52.95 160.65 54.2 161.05 55.25 161.45 56.35 162.2 57.1 162.95 57.95 164 58.35 165.1 58.85 166.35 58.85 167.9 58.85 169.4 58.1 170.7 57.55 172 56.35L172.15 56.35 172.55 58.35 177.25 58.35 177.25 47.25Q177.25 45.05 176.75 43.4 176.25 41.8 175.25 40.7 174.3 39.6 172.85 39.1 171.45 38.55 169.55 38.55 167.4 38.55 165.2 39.25 163.3 39.9 161.3 41.1L163.35 44.85Q164.8 44 166 43.55 167.3 43.1 168.45 43.1 169.95 43.1 170.7 43.85M170.05 53.95Q169.25 54.35 168.3 54.35 167.25 54.35 166.7 53.95 166.1 53.45 166.1 52.55 166.1 51.35 167.25 50.6 167.9 50.15 168.95 49.85L171.5 49.35 171.5 52.75Q170.65 53.55 170.05 53.95M211.95 39.25Q210.35 38.55 208.35 38.55 206.6 38.55 204.95 39.25 203.3 39.95 202.05 41.25 200.7 42.6 199.95 44.45 199.2 47.1 199.2 48.7 199.5 51.7 199.95 52.95 200.7 54.8 202.05 56.15 203.35 57.45 205.15 58.15 206.9 58.85 209 58.85 210.7 58.85 212.55 58.25 214.35 57.65 215.85 56.65L213.95 53.15Q212.9 53.8 211.85 54.1 210.85 54.45 209.8 54.45 208.8 54.45 207.95 54.2 207.15 53.95 206.5 53.45 205.8 52.9 205.4 52.1 204.9 51.3 204.75 50.25L216.35 50.25Q216.55 49.3 216.55 47.8 216.55 45.8 216.05 44.15 215.55 42.45 214.5 41.2 213.45 39.9 211.95 39.25M204.7 46.7Q205 44.85 206.05 43.85 207.05 42.9 208.45 42.9 209.3 42.9 209.95 43.2 210.5 43.45 210.9 43.95 211.7 44.9 211.7 46.7L204.7 46.7M254.5 44.35Q253.7 47.1 253.7 48.7L253.9 50.95 254.5 53Q255.2 54.8 256.6 56.15 257.9 57.45 259.6 58.15 261.3 58.85 263.15 58.85 265 58.85 266.65 58.15 268.35 57.45 269.65 56.15 271 54.8 271.75 53L272.35 50.95 272.55 48.7Q272.55 47.1 271.75 44.35 271 42.55 269.65 41.2 268.35 39.9 266.65 39.2 265 38.55 263.15 38.55 261.3 38.55 259.6 39.2 257.9 39.9 256.6 41.2 255.2 42.55 254.5 44.35M260.45 44.7Q260.95 43.95 261.6 43.55 262.25 43.15 263.15 43.15 264 43.15 264.7 43.55 265.35 43.95 265.8 44.7 266.25 45.4 266.45 46.4 266.7 47.4 266.7 48.7 266.7 49.95 266.45 50.95 266.25 51.95 265.8 52.7 265.35 53.4 264.7 53.8 264 54.2 263.15 54.2 262.25 54.2 261.6 53.8 260.95 53.4 260.45 52.7 260.05 51.95 259.8 50.95 259.6 49.95 259.6 48.7 259.6 47.4 259.8 46.4 260.05 45.4 260.45 44.7M249.35 32.95L243.6 32.95 243.6 42.7 234.85 42.7 234.85 32.95 229.05 32.95 229.05 58.35 234.85 58.35 234.85 47.75 243.6 47.75 243.6 58.35 249.35 58.35 249.35 32.95M285.3 43.25Q286.25 43.65 287.35 44.45L289.95 41Q288.45 39.9 287 39.3 285.15 38.55 283.1 38.55 281.45 38.55 280.05 39 278.7 39.4 277.7 40.2 276.75 41 276.2 42.15 275.7 43.25 275.7 44.6 275.7 45.7 276.15 46.7 276.6 47.55 277.35 48.3 278.6 49.45 280.8 50.3 283.05 51.15 283.5 51.4 284.75 52.1 284.75 52.9 284.75 53.7 284.15 54.1 283.55 54.55 282.3 54.55 281.1 54.55 279.85 54.05 278.65 53.55 277.3 52.55L274.7 56.1Q276.2 57.35 278.2 58.05 280.25 58.85 282.15 58.85 284.05 58.85 285.55 58.35 287 57.85 288.05 57 289.05 56.2 289.55 55.05 290.1 53.9 290.1 52.6 290.1 51.3 289.6 50.3 289.2 49.4 288.4 48.7 287.7 48.05 286.7 47.55L284.85 46.75Q282.6 45.9 282.2 45.7 281.1 45.15 281.1 44.3 281.1 43.55 281.6 43.2 282.15 42.8 283.25 42.8 284.25 42.8 285.3 43.25M300.2 33.85L295.45 33.85 294.75 39 291.8 39.25 291.8 43.5 294.45 43.5 294.45 51.3Q294.45 53.05 294.85 54.4 295.25 55.8 296 56.75 296.8 57.75 298.05 58.25 299.4 58.85 301.15 58.85 303 58.85 305.45 58.1L304.5 53.95Q303.5 54.35 302.7 54.35 301.5 54.35 300.9 53.6 300.2 52.85 300.2 51.25L300.2 43.5 304.85 43.5 304.85 39 300.2 39 300.2 33.85Z"/><g id="logo_bg" transform="translate(46.3 46.05)"><animateTransform attributeName="transform" additive="replace" type="translate" repeatCount="indefinite" dur="5.1s" keyTimes="0;1" values="46.3,46.05;46.3,46.05" keySplines=".5 0 .75 .5" calcMode="spline"/><animateTransform attributeName="transform" additive="sum" type="scale" repeatCount="indefinite" dur="5.1s" keyTimes="0;.078;.08499;.085;.176;1" values="1,1;.002,1;.002,1;.001,1;1,1;1,1" keySplines=".5 0 .75 .5;.1 .1 .9 .9;.1 .1 .9 .9;.25 .5 .5 1;.1 .1 .9 .9" calcMode="spline"/><animateTransform attributeName="transform" additive="sum" type="translate" repeatCount="indefinite" dur="5.1s" keyTimes="0;.078;.08499;.085;1" values="0,0;-.05,0;-.05,0;0,0;0,0" keySplines=".5 0 .75 .5;.1 .1 .9 .9;.1 .1 .9 .9;.25 .5 .5 1" calcMode="spline"/><path fill="#D6E6EA" stroke="none" d="M38.65 -38.7Q31.35 -46 21 -46L-21 -46Q-31.35 -46 -38.7 -38.7 -46 -31.35 -46 -21L-46 21Q-46 31.35 -38.7 38.65 -31.35 46 -21 46L21 46Q31.35 46 38.65 38.65 46 31.35 46 21L46 -21Q46 -31.35 38.65 -38.7Z"/></g><g id="s_char" transform="translate(45.85 45.9)"><animateTransform attributeName="transform" additive="replace" type="translate" repeatCount="indefinite" dur="5.1s" keyTimes="0;.078;.08499;.085;.176;1" values="45.85,45.9;61.3,45.9;61.3,45.9;30.3,45.95;45.85,45.9;45.85,45.9" keySplines=".5 0 .75 .5;.1 .1 .9 .9;.1 .1 .9 .9;.25 .5 .5 1;.1 .1 .9 .9" calcMode="spline"/><animateTransform attributeName="transform" additive="sum" type="scale" repeatCount="indefinite" dur="5.1s" keyTimes="0;.078;.08499;.176;1" values="1,1;.007,1;.007,1;1,1;1,1" keySplines=".5 0 .75 .5;.1 .1 .9 .9;.25 .5 .5 1;.1 .1 .9 .9" calcMode="spline"/><animateTransform attributeName="transform" additive="sum" type="translate" repeatCount="indefinite" dur="5.1s" keyTimes="0;.078;.08499;.085;.176;1" values="0,0;-7.5,0;-7.5,0;-7.65,-.1;0,0;0,0" keySplines=".5 0 .75 .5;.1 .1 .9 .9;.1 .1 .9 .9;.25 .5 .5 1;.1 .1 .9 .9" calcMode="spline"/><path fill="#A7BCC0" stroke="none" d="M9.4 -.75Q8.1 -1.6 6.4 -2.3L1.75 -4.2Q-1.45 -5.5 -2.25 -6 -3.85 -7 -3.85 -8.5 -3.85 -10.05 -2.55 -10.95 -1.35 -11.85 .8 -11.85 2.9 -11.85 4.8 -11.05 6.5 -10.4 8.45 -8.9L12.55 -14.1Q11.4 -15.25 10 -16.2L7.1 -17.7Q2.9 -18.95 .8 -18.95 -2 -18.95 -4.4 -18.1 -6.75 -17.25 -8.5 -15.75 -10.25 -14.3 -11.25 -12.3 -12.2 -10.3 -12.2 -8.1 -12.2 -6.15 -11.55 -4.45 -11 -2.95 -9.9 -1.65 -8.95 -.5 -7.55 .45 -6.3 1.3 -4.8 1.9L-.1 3.9Q2.95 5.2 3.75 5.75 5.2 6.75 5.2 8.25 5.2 9.95 3.9 10.85 2.6 11.8 .05 11.8 -2.1 11.8 -4.6 10.75 -6.9 9.75 -8.9 8L-13.65 13.65Q-12.25 14.95 -10.65 15.95 -9 16.9 -7.25 17.6 -5.5 18.25 -3.7 18.6 -1.9 18.95 -.1 18.95 3.05 18.95 5.7 18 8.2 17.15 10 15.55 11.75 14 12.7 11.95 13.65 9.9 13.65 7.6 13.65 5.75 13.1 4.15 12.65 2.65 11.7 1.4 10.75 .25 9.4 -.75Z"/></g></g></svg>