<svg xmlns="http://www.w3.org/2000/svg" xmlns:xlink="http://www.w3.org/1999/xlink" preserveAspectRatio="none" width="110" height="94" viewBox="0 0 110 94"><defs><path fill="#00D7DF" d="M137.1 238.45q-5.45-7.75-13.75-12.2-8.6-4.6-18.4-4.6-9 0-17 3.85-7.8 3.75-13.3 10.4-4.3 5.2-6.6 11.5-2.4 6.55-2.4 13.55 0 5.15 1.3 10.05-8.45-4.45-18.15-4.45-14.65 0-25.75 9.65Q12.1 285.75 10 300h189.95q.35-2.45.35-5.4 0-16.3-11.5-27.8t-27.75-11.5q-8.8 0-16.9 3.85-.5-11.4-7.05-20.7z" id="a"/><path fill="#CCF7F9" d="M42.9 140H0l32.15 64.4q5.9 11.8 12.85 18.3 11.45 10.75 29.65 13.2 5.5-6.65 13.3-10.4 8-3.85 17-3.85 9.8 0 18.4 4.6 8.3 4.45 13.75 12.2l82.75 2.95v-37H171.7l-22.2-26.6-74.4 5.15L42.9 140z" id="b"/><path fill="#00A1A7" d="M171.7 204.4h139.5L171.7 140H118l53.7 64.4z" id="c"/><path fill="#00D7DF" d="M429 180.15q-8.1-8.4-19.9-13.55-11.7-5.1-22.8-5.1l-146.25 10.1 71.15 32.8h-91.35v37l166.45 5.95q17.05 0 33.15-10.75 16.9-11.3 19.95-26.55H370V190l59-9.85z" id="d"/><path fill="#CCF7F9" d="M437 191.5q-2.8-5.95-8-11.35L370 190v20h69.4q.55-2.85.55-5.6.05-6.5-2.95-12.9z" id="e"/></defs><use xlink:href="#a" transform="matrix(.23662 -.08476 .08475 .23663 -11.85 9.6)"/><use xlink:href="#b" transform="matrix(.23662 -.08476 .08475 .23663 -11.85 9.6)"/><use xlink:href="#c" transform="matrix(.23662 -.08476 .08475 .23663 -11.85 9.6)"/><use xlink:href="#d" transform="matrix(.23662 -.08476 .08475 .23663 -11.85 9.6)"/><use xlink:href="#e" transform="matrix(.23662 -.08476 .08475 .23663 -11.85 9.6)"/></svg>