<svg xmlns="http://www.w3.org/2000/svg" xmlns:xlink="http://www.w3.org/1999/xlink" preserveAspectRatio="none" width="110" height="94" viewBox="0 0 110 94"><defs><path fill="#ACABB1" d="M142.5 330v2.5q0 19.7 13.9 33.6Q170.3 380 190 380q19.65 0 33.6-13.9 13.9-13.9 13.9-33.6V330h-95z" id="a"/><path fill="#565659" d="M142.5 300v30h95v-30h-95z" id="b"/><path fill="#FFE98F" d="M172.35 167.7q7.3 7.3 17.65 7.3V0q-26.6 0-50.85 10.25-23.45 9.95-41.55 28-18.05 18.1-28 41.55-10.25 24.25-10.25 50.85 0 35.7 18.05 66.3 17.55 29.7 47.4 46.95l17.7 56.1H175v-97.05q-17.5-4.95-28.65-19.5Q135 168.65 135 150h30q0 10.35 7.35 17.7z" id="c"/><path fill="#FFDA44" d="M310.35 79.8q-9.95-23.45-28-41.55-18.1-18.05-41.55-28Q216.55 0 190 0v175q10.3 0 17.65-7.3Q215 160.35 215 150h30q0 18.65-11.35 33.45Q222.5 198 205 202.95V300h32.5l17.65-56.1q29.85-17.25 47.4-46.95 18.05-30.6 18.05-66.3 0-26.6-10.25-50.85z" id="d"/><path fill="#FF9811" d="M172.35 167.7Q165 160.35 165 150h-30q0 18.65 11.35 33.45Q157.5 198 175 202.95V300h30v-97.05q17.5-4.95 28.65-19.5Q245 168.65 245 150h-30q0 10.35-7.35 17.7Q200.3 175 190 175q-10.35 0-17.65-7.3z" id="e"/></defs><use xlink:href="#a" transform="matrix(.24763 0 0 .24738 7.95 0)"/><use xlink:href="#b" transform="matrix(.24763 0 0 .24738 7.95 0)"/><use xlink:href="#c" transform="matrix(.24763 0 0 .24738 7.95 0)"/><use xlink:href="#d" transform="matrix(.24763 0 0 .24738 7.95 0)"/><use xlink:href="#e" transform="matrix(.24763 0 0 .24738 7.95 0)"/></svg>