<svg id="Layer_1" xmlns="http://www.w3.org/2000/svg" viewBox="0 0 500 500"><style>.st0{fill:#30cdfc}.st1{fill:#ccf5ff}.st2{fill:#fff}</style><circle class="st0" cx="250" cy="250" r="250"/><path class="st1" d="M241 313c5.7 0 11.2-.2 16.5-.5 2.9-.2 5.1-2.5 5.1-5.4.1-10.7 2.5-21 7.3-30.6.9-1.7.7-3.8-.4-5.4-1.1-1.6-2.8-2.4-4.9-2.4-8.6.7-16.4 1-23.7 1-40.9 0-78.3-8-99.9-21.5-1.7-1-3.8-1.1-5.5-.1-1.7 1-2.8 2.8-2.8 4.7v22.3c.2 18.4 43.7 37.9 108.3 37.9zm0 0"/><path class="st2" d="M241 259c15.2 0 29.8-1.1 43.4-3.3 1-.2 1.9-.6 2.7-1.2 12.8-11 29-17.1 45.8-17.1l2.9.2c1.2 0 2.5-.3 3.5-1.1 6.5-4.9 9.8-10.1 9.8-15.3v-26.8c0-2-1.1-3.9-3-4.8-1.8-.9-4-.7-5.7.5-21.5 16.1-58.7 25.7-99.5 25.7s-78-9.6-99.5-25.7c-1.6-1.2-3.8-1.4-5.7-.5-1.8.9-3 2.8-3 4.8v26.8c.2 18.2 43.7 37.8 108.3 37.8zm0 0"/><path class="st1" d="M241 204.9c60.6 0 108.1-21.4 108.1-48.7 0-27.3-47.5-48.7-108.1-48.7-60.6 0-108.1 21.4-108.1 48.7 0 27.3 47.5 48.7 108.1 48.7zm0 0"/><path class="st2" d="M265.5 327.1c-.7-2.4-2.9-4.1-5.5-3.9-6.3.4-12.6.7-18.9.7-40.9 0-78.3-8-99.9-21.5-1.7-1-3.8-1.1-5.5-.1-1.7 1-2.8 2.8-2.8 4.7v13.6c0 25.4 46.5 44.5 108.1 44.5 12 0 24-.8 35.6-2.4 2-.3 3.6-1.6 4.3-3.4.7-1.9.3-4-1-5.4-6.7-8-11.6-17-14.4-26.8zm67.4-78.9c-32.8 0-59.5 26.7-59.5 59.5s26.7 59.5 59.5 59.5 59.5-26.7 59.5-59.5c0-32.9-26.7-59.5-59.5-59.5zm36.3 41.6L326 333.1c-1.1 1-2.4 1.6-3.8 1.6s-2.8-.5-3.8-1.6l-21.6-21.6c-2.1-2.1-2.1-5.5 0-7.6s5.5-2.1 7.6 0l17.8 17.8 39.4-39.4c2.1-2.1 5.5-2.1 7.6 0 2.1 2 2.1 5.4 0 7.5zm0 0"/></svg>