<?xml version="1.0" encoding="utf-8"?>
<!-- Generator: Adobe Illustrator 22.0.0, SVG Export Plug-In . SVG Version: 6.00 Build 0)  -->
<svg version="1.1" id="Layer_1" xmlns="http://www.w3.org/2000/svg" xmlns:xlink="http://www.w3.org/1999/xlink" x="0px" y="0px"
	 viewBox="0 0 643.4 642" style="enable-background:new 0 0 643.4 642;" xml:space="preserve">
<style type="text/css">
	.api0{fill:none;stroke:#808080;stroke-linecap:round;stroke-linejoin:round;stroke-miterlimit:10;}
	.api1{fill:none;stroke:#808080;stroke-linecap:round;stroke-linejoin:round;stroke-miterlimit:10;}
	.api2{fill:#FFFFFF;stroke:#ee5586;stroke-linecap:round;stroke-linejoin:round;stroke-miterlimit:10;}
	.api3{fill:none;stroke:#808080;stroke-linecap:round;stroke-linejoin:round;stroke-dasharray:7.9921,7.9921;}
	.api4{fill:none;stroke:#ee5586;stroke-linecap:round;stroke-linejoin:round;stroke-miterlimit:10;}
	.api5{fill:none;stroke:#808080;stroke-width:2;stroke-linecap:round;stroke-linejoin:round;stroke-miterlimit:10;}
	.api6{fill:#FFFFFF;stroke:#808080;stroke-width:2;stroke-linecap:round;stroke-linejoin:round;stroke-miterlimit:10;}
	.api7{fill:#FFFFFF;stroke:#808080;stroke-linecap:round;stroke-linejoin:round;stroke-miterlimit:10;}
	.api8{fill:#FFFFFF;stroke-linecap:round;stroke-linejoin:round;stroke-miterlimit:10;}
	.api9{fill:none;stroke-linecap:round;stroke-linejoin:round;stroke-dasharray:7.9921,7.9921;}
	.api10{fill:#FFFFFF;stroke:#ee5586;stroke-width:3;stroke-linecap:round;stroke-linejoin:round;stroke-miterlimit:10;}
</style>
<line class="api0" x1="145.7" y1="125.9" x2="125.2" y2="146.4"/>
<line class="api0" x1="58.3" y1="307" x2="58.3" y2="336"/>
<line class="api0" x1="583.3" y1="336.1" x2="583.3" y2="307.1"/>
<line class="api0" x1="335.3" y1="59.1" x2="306.3" y2="59.1"/>
<line class="api0" x1="516.6" y1="146.2" x2="496.1" y2="125.7"/>
<line class="api0" x1="495.9" y1="517.3" x2="516.5" y2="496.8"/>
<line class="api0" x1="306.3" y1="584.1" x2="335.3" y2="584.1"/>
<line class="api0" x1="125" y1="497" x2="145.5" y2="517.5"/>
<g>
	<line class="api1" x1="320.8" y1="111.6" x2="320.8" y2="146.7"/>
	<rect x="319" y="77.3" transform="matrix(-1.836970e-16 1 -1 -1.836970e-16 407.1094 -234.4248)" class="api1" width="3.5" height="18"/>
	<rect x="316.6" y="105.4" transform="matrix(-1.836970e-16 1 -1 -1.836970e-16 428.0204 -213.6856)" class="api1" width="8.5" height="3.5"/>
	<path id="svg-concept" class="api2" d="M309.3,101.7V89.4c0-0.7,0.6-1.3,1.3-1.3H331c0.7,0,1.3,0.6,1.3,1.3v12.3c0,0.7-0.6,1.3-1.3,1.3h-20.5
		C309.8,102.9,309.3,102.4,309.3,101.7z"/>
		<animateMotion
			path="M0, 0 0 0 0 -35"
			begin="0s" 
			dur="1s"
			fill="freeze"/>
</g>
<g>
	<line class="api1" x1="469.2" y1="173.1" x2="444.4" y2="197.9"/>
	<rect x="485.4" y="146.2" transform="matrix(-0.7071 0.7071 -0.7071 -0.7071 941.2875 -79.5025)" class="api1" width="3.5" height="18"/>
	<rect x="468.2" y="168.2" transform="matrix(-0.7071 0.7071 -0.7071 -0.7071 926.7086 -43.8911)" class="api1" width="8.5" height="3.5"/>
	<path id="svg-concept" class="api2" d="M468.1,157.9l8.7-8.7c0.5-0.5,1.3-0.5,1.8,0l14.5,14.5c0.5,0.5,0.5,1.3,0,1.8l-8.7,8.7c-0.5,0.5-1.3,0.5-1.8,0
		l-14.5-14.5C467.6,159.2,467.6,158.4,468.1,157.9z"/>
		<animateMotion
			path="M0 0 25 -25"
			begin="0.5s" 
			dur="1s"
			fill="freeze"/>
</g>
<g>
	<line class="api1" x1="530.8" y1="321.6" x2="495.7" y2="321.6"/>
	<rect x="554.3" y="312.6" transform="matrix(-1 -1.224647e-16 1.224647e-16 -1 1112.1427 643.1012)" class="api1" width="3.5" height="18"/>
	<rect x="531" y="319.9" transform="matrix(-1 -1.224647e-16 1.224647e-16 -1 1070.4926 643.2729)" class="api1" width="8.5" height="3.5"/>
	<path id="svg-concept" class="api2" d="M540.7,310.1H553c0.7,0,1.3,0.6,1.3,1.3v20.5c0,0.7-0.6,1.3-1.3,1.3h-12.3c-0.7,0-1.3-0.6-1.3-1.3v-20.5
		C539.5,310.6,540,310.1,540.7,310.1z"/>
		<animateMotion
			path="M0, 0 35 0 0"
			begin="1s" 
			dur="1s"
			fill="freeze"/>
</g>
<g>
	<line class="api1" x1="469.1" y1="469.9" x2="444.3" y2="445.2"/>
	<rect x="485.2" y="478.8" transform="matrix(-0.7071 -0.7071 0.7071 -0.7071 486.3412 1177.094)" class="api1" width="3.5" height="18"/>
	<rect x="467.9" y="471.4" transform="matrix(-0.7071 -0.7071 0.7071 -0.7071 471.4691 1141.6041)" class="api1" width="8.5" height="3.5"/>
	<path id="svg-concept" class="api2" d="M484.2,468.8l8.7,8.7c0.5,0.5,0.5,1.3,0,1.8l-14.5,14.5c-0.5,0.5-1.3,0.5-1.8,0l-8.7-8.7
		c-0.5-0.5-0.5-1.3,0-1.8l14.5-14.5C483,468.4,483.8,468.4,484.2,468.8z"/>
		<animateMotion
			path="M0 0 25 25"
			begin="1.5s" 
			dur="1s"
			fill="freeze"/>
</g>
<g>
	<line class="api1" x1="320.8" y1="531.6" x2="320.8" y2="496.5"/>
	<rect x="319.1" y="547.9" transform="matrix(6.123234e-17 -1 1 6.123234e-17 -236.0433 877.7173)" class="api1" width="3.5" height="18"/>
	<rect x="316.5" y="534.3" transform="matrix(6.123234e-17 -1 1 6.123234e-17 -215.3041 856.8064)" class="api1" width="8.5" height="3.5"/>
	<path id="svg-concept" class="api2" d="M332.3,541.5v12.3c0,0.7-0.6,1.3-1.3,1.3h-20.5c-0.7,0-1.3-0.6-1.3-1.3v-12.3c0-0.7,0.6-1.3,1.3-1.3h20.5
		C331.8,540.3,332.3,540.8,332.3,541.5z"/>
		<animateMotion
			path="M0, 0 0 0 0 35"
			begin="2s" 
			dur="1s"
			fill="freeze"/>
</g>
<g>
	<line class="api1" x1="172.4" y1="470.1" x2="197.2" y2="445.4"/>
	<rect x="152.7" y="479" transform="matrix(0.7071 -0.7071 0.7071 0.7071 -299.8366 252.1841)" class="api1" width="3.5" height="18"/>
	<rect x="164.9" y="471.5" transform="matrix(0.7071 -0.7071 0.7071 0.7071 -285.0859 258.2229)" class="api1" width="8.5" height="3.5"/>
	<path id="svg-concept" class="api2" d="M173.5,485.3l-8.7,8.7c-0.5,0.5-1.3,0.5-1.8,0l-14.5-14.5c-0.5-0.5-0.5-1.3,0-1.8l8.7-8.7
		c0.5-0.5,1.3-0.5,1.8,0l14.5,14.5C174,484,174,484.8,173.5,485.3z"/>
		<animateMotion
			path="M0 0 -25 25"
			begin="2.5s" 
			dur="1s"
			fill="freeze"/>
</g>
<g>
	<line class="api1" x1="110.9" y1="321.5" x2="145.9" y2="321.5"/>
	<rect x="83.8" y="312.5" class="api1" width="3.5" height="18"/>
	<rect x="102.1" y="319.7" class="api1" width="8.5" height="3.5"/>
	<path id="svg-concept" class="api2" d="M100.9,333H88.6c-0.7,0-1.3-0.6-1.3-1.3v-20.5c0-0.7,0.6-1.3,1.3-1.3h12.3c0.7,0,1.3,0.6,1.3,1.3v20.5
		C102.1,332.4,101.6,333,100.9,333z"/>
		<animateMotion
			path="M0, 0 -35 0 0"
			begin="3s" 
			dur="1s"
			fill="freeze"/>
</g>
<g>
	<line class="api1" x1="172.5" y1="173.3" x2="197.3" y2="198.1"/>
	<rect x="152.9" y="146.4" transform="matrix(0.7071 0.7071 -0.7071 0.7071 155.1803 -63.838)" class="api1" width="3.5" height="18"/>
	<rect x="165.2" y="168.3" transform="matrix(0.7071 0.7071 -0.7071 0.7071 169.8807 -69.9982)" class="api1" width="8.5" height="3.5"/>
	<path id="svg-concept" class="api2" d="M157.4,174.4l-8.7-8.7c-0.5-0.5-0.5-1.3,0-1.8l14.5-14.5c0.5-0.5,1.3-0.5,1.8,0l8.7,8.7c0.5,0.5,0.5,1.3,0,1.8
		l-14.5,14.5C158.7,174.9,157.9,174.9,157.4,174.4z"/>
		<animateMotion
			path="M0 0 -25 -25"
			begin="3.5s" 
			dur="1s"
			fill="freeze"/>
</g>

<path id="svg-concept" class="api10" d="M531,321.6c0,116.1-94.1,210.2-210.2,210.2c-116.1,0-210.2-94.1-210.2-210.2c0-116.1,94.1-210.2,210.2-210.2
	C436.9,111.4,531,205.5,531,321.6z"/>

<g>
	<path id="svg-concept" class="api9" d="M619.8,321.2c0,160.2-129.8,290-290,290c-160.2,0-290-129.8-290-290c0-160.2,129.8-290,290-290
		C490,31.2,619.8,161,619.8,321.2z"/>
		<animate 
			attributeName="stroke" 
			stroke="#efefef"
			values="#efefef;#ee5486" 
			dur="10s" 
			fill="freeze"/>

		<animateTransform
			attributeName="transform"
			type="rotate"
			from="0 325 320"
			to="360 328 330"
			begin="6s"
			dur="20s"
			repeatCount="indefinite"/>
</g>
<g>
	<path id="svg-concept" class="api4" d="M232.9,278.4h-2.5c-0.7,0-1.2-0.5-1.2-1.2v-2.5c0-0.7,0.5-1.2,1.2-1.2h2.5c0.7,0,1.2,0.5,1.2,1.2v2.5
		C234.2,277.9,233.6,278.4,232.9,278.4z"/>
	<path id="svg-concept" class="api4" d="M226.8,296.8h-3.4c-0.9,0-1.7-0.8-1.7-1.7v-3.4c0-0.9,0.8-1.7,1.7-1.7h3.4c0.9,0,1.7,0.8,1.7,1.7v3.4
		C228.5,296,227.7,296.8,226.8,296.8z"/>
	<path id="svg-concept" class="api4" d="M316.8,278.4h-2.5c-0.7,0-1.2-0.5-1.2-1.2v-2.5c0-0.7,0.5-1.2,1.2-1.2h2.5c0.7,0,1.2,0.5,1.2,1.2v2.5
		C318,277.9,317.5,278.4,316.8,278.4z"/>
	<path id="svg-concept" class="api4" d="M310.7,296.8h-3.4c-0.9,0-1.7-0.8-1.7-1.7v-3.4c0-0.9,0.8-1.7,1.7-1.7h3.4c0.9,0,1.7,0.8,1.7,1.7v3.4
		C312.4,296,311.6,296.8,310.7,296.8z"/>
	<path id="svg-concept" class="api4" d="M400.7,278.4h-2.5c-0.7,0-1.2-0.5-1.2-1.2v-2.5c0-0.7,0.5-1.2,1.2-1.2h2.5c0.7,0,1.2,0.5,1.2,1.2v2.5
		C401.9,277.9,401.3,278.4,400.7,278.4z"/>
	<path id="svg-concept" class="api4" d="M394.6,296.8h-3.4c-0.9,0-1.7-0.8-1.7-1.7v-3.4c0-0.9,0.8-1.7,1.7-1.7h3.4c0.9,0,1.7,0.8,1.7,1.7v3.4
		C396.2,296,395.5,296.8,394.6,296.8z"/>
	<path id="svg-concept" class="api4" d="M459.7,282.8c0,7.1-5.8,12.9-12.9,12.9c-7.1,0-12.9-5.8-12.9-12.9c0-7.1,5.8-12.9,12.9-12.9
		C453.9,269.9,459.7,275.7,459.7,282.8z"/>
	<path id="svg-concept" class="api4" d="M451.6,282.8c0,2.6-2.1,4.8-4.8,4.8c-2.6,0-4.8-2.1-4.8-4.8s2.1-4.8,4.8-4.8
		C449.4,278,451.6,280.2,451.6,282.8z"/>
	<line id="svg-concept" class="api4" x1="459.7" y1="282.8" x2="451.6" y2="282.8"/>
	<line id="svg-concept" class="api4" x1="442" y1="282.8" x2="433.9" y2="282.8"/>
	<path id="svg-concept" class="api4" d="M232.9,358.4h-2.5c-0.7,0-1.2-0.5-1.2-1.2v-2.5c0-0.7,0.5-1.2,1.2-1.2h2.5c0.7,0,1.2,0.5,1.2,1.2v2.5
		C234.2,357.9,233.6,358.4,232.9,358.4z"/>
	<path id="svg-concept" class="api4" d="M226.8,376.8h-3.4c-0.9,0-1.7-0.8-1.7-1.7v-3.4c0-0.9,0.8-1.7,1.7-1.7h3.4c0.9,0,1.7,0.8,1.7,1.7v3.4
		C228.5,376,227.7,376.8,226.8,376.8z"/>
	<path id="svg-concept" class="api4" d="M316.8,358.4h-2.5c-0.7,0-1.2-0.5-1.2-1.2v-2.5c0-0.7,0.5-1.2,1.2-1.2h2.5c0.7,0,1.2,0.5,1.2,1.2v2.5
		C318,357.9,317.5,358.4,316.8,358.4z"/>
	<path id="svg-concept" class="api4" d="M310.7,376.8h-3.4c-0.9,0-1.7-0.8-1.7-1.7v-3.4c0-0.9,0.8-1.7,1.7-1.7h3.4c0.9,0,1.7,0.8,1.7,1.7v3.4
		C312.4,376,311.6,376.8,310.7,376.8z"/>
	<path id="svg-concept" class="api4" d="M400.7,358.4h-2.5c-0.7,0-1.2-0.5-1.2-1.2v-2.5c0-0.7,0.5-1.2,1.2-1.2h2.5c0.7,0,1.2,0.5,1.2,1.2v2.5
		C401.9,357.9,401.3,358.4,400.7,358.4z"/>
	<path id="svg-concept" class="api4" d="M394.6,376.8h-3.4c-0.9,0-1.7-0.8-1.7-1.7v-3.4c0-0.9,0.8-1.7,1.7-1.7h3.4c0.9,0,1.7,0.8,1.7,1.7v3.4
		C396.2,376,395.5,376.8,394.6,376.8z"/>
	<path id="svg-concept" class="api4" d="M459.7,362.8c0,7.1-5.8,12.9-12.9,12.9c-7.1,0-12.9-5.8-12.9-12.9c0-7.1,5.8-12.9,12.9-12.9
		C453.9,349.9,459.7,355.7,459.7,362.8z"/>
	<path id="svg-concept" class="api4" d="M451.6,362.8c0,2.6-2.1,4.8-4.8,4.8c-2.6,0-4.8-2.1-4.8-4.8s2.1-4.8,4.8-4.8
		C449.4,358,451.6,360.2,451.6,362.8z"/>
	<line id="svg-concept" class="api4" x1="459.7" y1="362.8" x2="451.6" y2="362.8"/>
	<line id="svg-concept" class="api4" x1="442" y1="362.8" x2="433.9" y2="362.8"/>
	<path class="api5" d="M506.4,302.1c0,6-4.4,10.9-9.9,10.9H145.1c-5.5,0-9.9-4.9-9.9-10.9v-38.5c0-6,4.4-10.9,9.9-10.9h351.5
		c5.5,0,9.9,4.9,9.9,10.9V302.1z"/>
	<line class="api1" x1="155.6" y1="252.7" x2="155.6" y2="312.7"/>
	<line class="api1" x1="486" y1="252.7" x2="486" y2="312.9"/>
	<path class="api1" d="M230.2,301.5h-63.7c-2.2,0-4-1.8-4-4v-8.1c0-2.2,1.8-4,4-4h63.7c2.2,0,4,1.8,4,4v8.1
		C234.2,299.7,232.4,301.5,230.2,301.5z"/>
	<path class="api1" d="M172,278.4h-2.5c-0.7,0-1.2-0.5-1.2-1.2v-2.5c0-0.7,0.5-1.2,1.2-1.2h2.5c0.7,0,1.2,0.5,1.2,1.2v2.5
		C173.2,277.9,172.6,278.4,172,278.4z"/>
	<path class="api1" d="M181.8,278.4h-2.5c-0.7,0-1.2-0.5-1.2-1.2v-2.5c0-0.7,0.5-1.2,1.2-1.2h2.5c0.7,0,1.2,0.5,1.2,1.2v2.5
		C183,277.9,182.5,278.4,181.8,278.4z"/>
	<path class="api1" d="M195.6,278.4h-2.5c-0.7,0-1.2-0.5-1.2-1.2v-2.5c0-0.7,0.5-1.2,1.2-1.2h2.5c0.7,0,1.2,0.5,1.2,1.2v2.5
		C196.8,277.9,196.3,278.4,195.6,278.4z"/>
	<path class="api1" d="M172,267.8h-2.5c-0.7,0-1.2-0.5-1.2-1.2v-2.5c0-0.7,0.5-1.2,1.2-1.2h2.5c0.7,0,1.2,0.5,1.2,1.2v2.5
		C173.2,267.2,172.6,267.8,172,267.8z"/>
	<path class="api1" d="M181.8,267.8h-2.5c-0.7,0-1.2-0.5-1.2-1.2v-2.5c0-0.7,0.5-1.2,1.2-1.2h2.5c0.7,0,1.2,0.5,1.2,1.2v2.5
		C183,267.2,182.5,267.8,181.8,267.8z"/>
	<path class="api1" d="M232.8,267.8h-2.5c-0.7,0-1.2-0.5-1.2-1.2v-2.5c0-0.7,0.5-1.2,1.2-1.2h2.5c0.7,0,1.2,0.5,1.2,1.2v2.5
		C234,267.2,233.5,267.8,232.8,267.8z"/>
	<path class="api1" d="M205.4,278.4H203c-0.7,0-1.2-0.5-1.2-1.2v-2.5c0-0.7,0.5-1.2,1.2-1.2h2.5c0.7,0,1.2,0.5,1.2,1.2v2.5
		C206.7,277.9,206.1,278.4,205.4,278.4z"/>
	<path class="api1" d="M215.1,278.4h-2.5c-0.7,0-1.2-0.5-1.2-1.2v-2.5c0-0.7,0.5-1.2,1.2-1.2h2.5c0.7,0,1.2,0.5,1.2,1.2v2.5
		C216.3,277.9,215.8,278.4,215.1,278.4z"/>
	<path class="api1" d="M215.3,278.4h-2.5c-0.7,0-1.2-0.5-1.2-1.2v-2.5c0-0.7,0.5-1.2,1.2-1.2h2.5c0.7,0,1.2,0.5,1.2,1.2v2.5
		C216.5,277.9,215.9,278.4,215.3,278.4z"/>
	<path class="api1" d="M215.3,267.8l-21.2,0c-0.7,0-1.2-0.5-1.2-1.2v-2.5c0-0.7,0.5-1.2,1.2-1.2l21.2,0c0.7,0,1.2,0.5,1.2,1.2v2.5
		C216.5,267.2,215.9,267.8,215.3,267.8z"/>
	<line class="api1" x1="187.7" y1="285.4" x2="187.7" y2="301.5"/>
	<path class="api1" d="M214.4,296.8H211c-0.9,0-1.7-0.8-1.7-1.7v-3.4c0-0.9,0.8-1.7,1.7-1.7h3.4c0.9,0,1.7,0.8,1.7,1.7v3.4
		C216.1,296,215.3,296.8,214.4,296.8z"/>
	<path class="api1" d="M314,301.5h-63.7c-2.2,0-4-1.8-4-4v-8.1c0-2.2,1.8-4,4-4H314c2.2,0,4,1.8,4,4v8.1
		C318,299.7,316.2,301.5,314,301.5z"/>
	<path class="api1" d="M255.8,278.4h-2.5c-0.7,0-1.2-0.5-1.2-1.2v-2.5c0-0.7,0.5-1.2,1.2-1.2h2.5c0.7,0,1.2,0.5,1.2,1.2v2.5
		C257.1,277.9,256.5,278.4,255.8,278.4z"/>
	<path class="api1" d="M265.7,278.4h-2.5c-0.7,0-1.2-0.5-1.2-1.2v-2.5c0-0.7,0.5-1.2,1.2-1.2h2.5c0.7,0,1.2,0.5,1.2,1.2v2.5
		C266.9,277.9,266.3,278.4,265.7,278.4z"/>
	<path class="api1" d="M279.5,278.4H277c-0.7,0-1.2-0.5-1.2-1.2v-2.5c0-0.7,0.5-1.2,1.2-1.2h2.5c0.7,0,1.2,0.5,1.2,1.2v2.5
		C280.7,277.9,280.2,278.4,279.5,278.4z"/>
	<path class="api1" d="M255.8,267.8h-2.5c-0.7,0-1.2-0.5-1.2-1.2v-2.5c0-0.7,0.5-1.2,1.2-1.2h2.5c0.7,0,1.2,0.5,1.2,1.2v2.5
		C257.1,267.2,256.5,267.8,255.8,267.8z"/>
	<path class="api1" d="M265.7,267.8h-2.5c-0.7,0-1.2-0.5-1.2-1.2v-2.5c0-0.7,0.5-1.2,1.2-1.2h2.5c0.7,0,1.2,0.5,1.2,1.2v2.5
		C266.9,267.2,266.3,267.8,265.7,267.8z"/>
	<path class="api1" d="M316.7,267.8h-2.5c-0.7,0-1.2-0.5-1.2-1.2v-2.5c0-0.7,0.5-1.2,1.2-1.2h2.5c0.7,0,1.2,0.5,1.2,1.2v2.5
		C317.9,267.2,317.3,267.8,316.7,267.8z"/>
	<path class="api1" d="M289.3,278.4h-2.5c-0.7,0-1.2-0.5-1.2-1.2v-2.5c0-0.7,0.5-1.2,1.2-1.2h2.5c0.7,0,1.2,0.5,1.2,1.2v2.5
		C290.5,277.9,290,278.4,289.3,278.4z"/>
	<path class="api1" d="M299,278.4h-2.5c-0.7,0-1.2-0.5-1.2-1.2v-2.5c0-0.7,0.5-1.2,1.2-1.2h2.5c0.7,0,1.2,0.5,1.2,1.2v2.5
		C300.2,277.9,299.6,278.4,299,278.4z"/>
	<path class="api1" d="M299.1,278.4h-2.5c-0.7,0-1.2-0.5-1.2-1.2v-2.5c0-0.7,0.5-1.2,1.2-1.2h2.5c0.7,0,1.2,0.5,1.2,1.2v2.5
		C300.3,277.9,299.8,278.4,299.1,278.4z"/>
	<path class="api1" d="M299.1,267.8l-21.2,0c-0.7,0-1.2-0.5-1.2-1.2v-2.5c0-0.7,0.5-1.2,1.2-1.2l21.2,0c0.7,0,1.2,0.5,1.2,1.2v2.5
		C300.3,267.2,299.8,267.8,299.1,267.8z"/>
	<line class="api1" x1="271.6" y1="285.4" x2="271.6" y2="301.5"/>
	<path class="api1" d="M298.2,296.8h-3.4c-0.9,0-1.7-0.8-1.7-1.7v-3.4c0-0.9,0.8-1.7,1.7-1.7h3.4c0.9,0,1.7,0.8,1.7,1.7v3.4
		C299.9,296,299.2,296.8,298.2,296.8z"/>
	<path class="api1" d="M397.9,301.5h-63.7c-2.2,0-4-1.8-4-4v-8.1c0-2.2,1.8-4,4-4h63.7c2.2,0,4,1.8,4,4v8.1
		C401.9,299.7,400.1,301.5,397.9,301.5z"/>
	<path class="api1" d="M339.7,278.4h-2.5c-0.7,0-1.2-0.5-1.2-1.2v-2.5c0-0.7,0.5-1.2,1.2-1.2h2.5c0.7,0,1.2,0.5,1.2,1.2v2.5
		C340.9,277.9,340.4,278.4,339.7,278.4z"/>
	<path class="api1" d="M349.5,278.4h-2.5c-0.7,0-1.2-0.5-1.2-1.2v-2.5c0-0.7,0.5-1.2,1.2-1.2h2.5c0.7,0,1.2,0.5,1.2,1.2v2.5
		C350.7,277.9,350.2,278.4,349.5,278.4z"/>
	<path class="api1" d="M363.4,278.4h-2.5c-0.7,0-1.2-0.5-1.2-1.2v-2.5c0-0.7,0.5-1.2,1.2-1.2h2.5c0.7,0,1.2,0.5,1.2,1.2v2.5
		C364.6,277.9,364,278.4,363.4,278.4z"/>
	<path class="api1" d="M339.7,267.8h-2.5c-0.7,0-1.2-0.5-1.2-1.2v-2.5c0-0.7,0.5-1.2,1.2-1.2h2.5c0.7,0,1.2,0.5,1.2,1.2v2.5
		C340.9,267.2,340.4,267.8,339.7,267.8z"/>
	<path class="api1" d="M349.5,267.8h-2.5c-0.7,0-1.2-0.5-1.2-1.2v-2.5c0-0.7,0.5-1.2,1.2-1.2h2.5c0.7,0,1.2,0.5,1.2,1.2v2.5
		C350.7,267.2,350.2,267.8,349.5,267.8z"/>
	<path class="api1" d="M400.5,267.8h-2.5c-0.7,0-1.2-0.5-1.2-1.2v-2.5c0-0.7,0.5-1.2,1.2-1.2h2.5c0.7,0,1.2,0.5,1.2,1.2v2.5
		C401.8,267.2,401.2,267.8,400.5,267.8z"/>
	<path class="api1" d="M373.2,278.4h-2.5c-0.7,0-1.2-0.5-1.2-1.2v-2.5c0-0.7,0.5-1.2,1.2-1.2h2.5c0.7,0,1.2,0.5,1.2,1.2v2.5
		C374.4,277.9,373.8,278.4,373.2,278.4z"/>
	<path class="api1" d="M382.8,278.4h-2.5c-0.7,0-1.2-0.5-1.2-1.2v-2.5c0-0.7,0.5-1.2,1.2-1.2h2.5c0.7,0,1.2,0.5,1.2,1.2v2.5
		C384,277.9,383.5,278.4,382.8,278.4z"/>
	<path class="api1" d="M383,278.4h-2.5c-0.7,0-1.2-0.5-1.2-1.2v-2.5c0-0.7,0.5-1.2,1.2-1.2h2.5c0.7,0,1.2,0.5,1.2,1.2v2.5
		C384.2,277.9,383.7,278.4,383,278.4z"/>
	<path id="svg-concept" class="api4" d="M477.7,294.2c0,2.1-1.7,3.8-3.8,3.8c-2.1,0-3.8-1.7-3.8-3.8c0-2.1,1.7-3.8,3.8-3.8
		C476,290.4,477.7,292.1,477.7,294.2z"/>
	<path class="api1" d="M475.1,283.4h-2.5c-0.7,0-1.2-0.5-1.2-1.2l0-2.5c0-0.7,0.5-1.2,1.2-1.2h2.5c0.7,0,1.2,0.5,1.2,1.2v2.5
		C476.3,282.9,475.8,283.4,475.1,283.4z"/>
	<path class="api1" d="M475.1,272.6h-2.5c-0.7,0-1.2-0.5-1.2-1.2l0-2.5c0-0.7,0.5-1.2,1.2-1.2h2.5c0.7,0,1.2,0.5,1.2,1.2v2.5
		C476.3,272.1,475.8,272.6,475.1,272.6z"/>
	<path class="api1" d="M383,267.8l-21.2,0c-0.7,0-1.2-0.5-1.2-1.2v-2.5c0-0.7,0.5-1.2,1.2-1.2l21.2,0c0.7,0,1.2,0.5,1.2,1.2v2.5
		C384.2,267.2,383.7,267.8,383,267.8z"/>
	<line class="api1" x1="355.4" y1="285.4" x2="355.4" y2="301.5"/>
	<path class="api1" d="M382.1,296.8h-3.4c-0.9,0-1.7-0.8-1.7-1.7v-3.4c0-0.9,0.8-1.7,1.7-1.7h3.4c0.9,0,1.7,0.8,1.7,1.7v3.4
		C383.8,296,383,296.8,382.1,296.8z"/>
	<line class="api1" x1="241" y1="252.7" x2="241" y2="312.9"/>
	<line class="api1" x1="226" y1="183" x2="213.9" y2="183"/>
	<line class="api1" x1="222.9" y1="187.7" x2="211.3" y2="187.7"/>
	<line class="api1" x1="219.9" y1="192.6" x2="208.2" y2="192.6"/>
	<line class="api1" x1="216.8" y1="197.5" x2="205.1" y2="197.5"/>
	<line class="api1" x1="213.7" y1="202.4" x2="202" y2="202.4"/>
	<line class="api1" x1="146.7" y1="272.9" x2="146.7" y2="290.7"/>
	<line class="api1" x1="495" y1="272.9" x2="495" y2="290.7"/>
	<line class="api1" x1="324.3" y1="252.7" x2="324.3" y2="312.9"/>
	<line class="api1" x1="407.6" y1="252.7" x2="407.6" y2="312.9"/>
	<path class="api5" d="M506.4,382.1c0,6-4.4,10.9-9.9,10.9H145.1c-5.5,0-9.9-4.9-9.9-10.9v-38.5c0-6,4.4-10.9,9.9-10.9h351.5
		c5.5,0,9.9,4.9,9.9,10.9V382.1z"/>
	<line class="api1" x1="155.6" y1="332.7" x2="155.6" y2="392.7"/>
	<line class="api1" x1="486" y1="332.7" x2="486" y2="392.9"/>
	<path class="api1" d="M230.2,381.5h-63.7c-2.2,0-4-1.8-4-4v-8.1c0-2.2,1.8-4,4-4h63.7c2.2,0,4,1.8,4,4v8.1
		C234.2,379.7,232.4,381.5,230.2,381.5z"/>
	<path class="api1" d="M172,358.4h-2.5c-0.7,0-1.2-0.5-1.2-1.2v-2.5c0-0.7,0.5-1.2,1.2-1.2h2.5c0.7,0,1.2,0.5,1.2,1.2v2.5
		C173.2,357.9,172.6,358.4,172,358.4z"/>
	<path class="api1" d="M181.8,358.4h-2.5c-0.7,0-1.2-0.5-1.2-1.2v-2.5c0-0.7,0.5-1.2,1.2-1.2h2.5c0.7,0,1.2,0.5,1.2,1.2v2.5
		C183,357.9,182.5,358.4,181.8,358.4z"/>
	<path class="api1" d="M195.6,358.4h-2.5c-0.7,0-1.2-0.5-1.2-1.2v-2.5c0-0.7,0.5-1.2,1.2-1.2h2.5c0.7,0,1.2,0.5,1.2,1.2v2.5
		C196.8,357.9,196.3,358.4,195.6,358.4z"/>
	<path class="api1" d="M172,347.8h-2.5c-0.7,0-1.2-0.5-1.2-1.2v-2.5c0-0.7,0.5-1.2,1.2-1.2h2.5c0.7,0,1.2,0.5,1.2,1.2v2.5
		C173.2,347.2,172.6,347.8,172,347.8z"/>
	<path class="api1" d="M181.8,347.8h-2.5c-0.7,0-1.2-0.5-1.2-1.2v-2.5c0-0.7,0.5-1.2,1.2-1.2h2.5c0.7,0,1.2,0.5,1.2,1.2v2.5
		C183,347.2,182.5,347.8,181.8,347.8z"/>
	<path class="api1" d="M232.8,347.8h-2.5c-0.7,0-1.2-0.5-1.2-1.2v-2.5c0-0.7,0.5-1.2,1.2-1.2h2.5c0.7,0,1.2,0.5,1.2,1.2v2.5
		C234,347.2,233.5,347.8,232.8,347.8z"/>
	<path class="api1" d="M205.4,358.4H203c-0.7,0-1.2-0.5-1.2-1.2v-2.5c0-0.7,0.5-1.2,1.2-1.2h2.5c0.7,0,1.2,0.5,1.2,1.2v2.5
		C206.7,357.9,206.1,358.4,205.4,358.4z"/>
	<path class="api1" d="M215.1,358.4h-2.5c-0.7,0-1.2-0.5-1.2-1.2v-2.5c0-0.7,0.5-1.2,1.2-1.2h2.5c0.7,0,1.2,0.5,1.2,1.2v2.5
		C216.3,357.9,215.8,358.4,215.1,358.4z"/>
	<path class="api1" d="M215.3,358.4h-2.5c-0.7,0-1.2-0.5-1.2-1.2v-2.5c0-0.7,0.5-1.2,1.2-1.2h2.5c0.7,0,1.2,0.5,1.2,1.2v2.5
		C216.5,357.9,215.9,358.4,215.3,358.4z"/>
	<path class="api1" d="M215.3,347.8l-21.2,0c-0.7,0-1.2-0.5-1.2-1.2v-2.5c0-0.7,0.5-1.2,1.2-1.2l21.2,0c0.7,0,1.2,0.5,1.2,1.2v2.5
		C216.5,347.2,215.9,347.8,215.3,347.8z"/>
	<line class="api1" x1="187.7" y1="365.4" x2="187.7" y2="381.5"/>
	<path class="api1" d="M214.4,376.8H211c-0.9,0-1.7-0.8-1.7-1.7v-3.4c0-0.9,0.8-1.7,1.7-1.7h3.4c0.9,0,1.7,0.8,1.7,1.7v3.4
		C216.1,376,215.3,376.8,214.4,376.8z"/>
	<path class="api1" d="M314,381.5h-63.7c-2.2,0-4-1.8-4-4v-8.1c0-2.2,1.8-4,4-4H314c2.2,0,4,1.8,4,4v8.1
		C318,379.7,316.2,381.5,314,381.5z"/>
	<path class="api1" d="M255.8,358.4h-2.5c-0.7,0-1.2-0.5-1.2-1.2v-2.5c0-0.7,0.5-1.2,1.2-1.2h2.5c0.7,0,1.2,0.5,1.2,1.2v2.5
		C257.1,357.9,256.5,358.4,255.8,358.4z"/>
	<path class="api1" d="M265.7,358.4h-2.5c-0.7,0-1.2-0.5-1.2-1.2v-2.5c0-0.7,0.5-1.2,1.2-1.2h2.5c0.7,0,1.2,0.5,1.2,1.2v2.5
		C266.9,357.9,266.3,358.4,265.7,358.4z"/>
	<path class="api1" d="M279.5,358.4H277c-0.7,0-1.2-0.5-1.2-1.2v-2.5c0-0.7,0.5-1.2,1.2-1.2h2.5c0.7,0,1.2,0.5,1.2,1.2v2.5
		C280.7,357.9,280.2,358.4,279.5,358.4z"/>
	<path class="api1" d="M255.8,347.8h-2.5c-0.7,0-1.2-0.5-1.2-1.2v-2.5c0-0.7,0.5-1.2,1.2-1.2h2.5c0.7,0,1.2,0.5,1.2,1.2v2.5
		C257.1,347.2,256.5,347.8,255.8,347.8z"/>
	<path class="api1" d="M265.7,347.8h-2.5c-0.7,0-1.2-0.5-1.2-1.2v-2.5c0-0.7,0.5-1.2,1.2-1.2h2.5c0.7,0,1.2,0.5,1.2,1.2v2.5
		C266.9,347.2,266.3,347.8,265.7,347.8z"/>
	<path class="api1" d="M316.7,347.8h-2.5c-0.7,0-1.2-0.5-1.2-1.2v-2.5c0-0.7,0.5-1.2,1.2-1.2h2.5c0.7,0,1.2,0.5,1.2,1.2v2.5
		C317.9,347.2,317.3,347.8,316.7,347.8z"/>
	<path class="api1" d="M289.3,358.4h-2.5c-0.7,0-1.2-0.5-1.2-1.2v-2.5c0-0.7,0.5-1.2,1.2-1.2h2.5c0.7,0,1.2,0.5,1.2,1.2v2.5
		C290.5,357.9,290,358.4,289.3,358.4z"/>
	<path class="api1" d="M299,358.4h-2.5c-0.7,0-1.2-0.5-1.2-1.2v-2.5c0-0.7,0.5-1.2,1.2-1.2h2.5c0.7,0,1.2,0.5,1.2,1.2v2.5
		C300.2,357.9,299.6,358.4,299,358.4z"/>
	<path class="api1" d="M299.1,358.4h-2.5c-0.7,0-1.2-0.5-1.2-1.2v-2.5c0-0.7,0.5-1.2,1.2-1.2h2.5c0.7,0,1.2,0.5,1.2,1.2v2.5
		C300.3,357.9,299.8,358.4,299.1,358.4z"/>
	<path class="api1" d="M299.1,347.8l-21.2,0c-0.7,0-1.2-0.5-1.2-1.2v-2.5c0-0.7,0.5-1.2,1.2-1.2l21.2,0c0.7,0,1.2,0.5,1.2,1.2v2.5
		C300.3,347.2,299.8,347.8,299.1,347.8z"/>
	<line class="api1" x1="271.6" y1="365.4" x2="271.6" y2="381.5"/>
	<path class="api1" d="M298.2,376.8h-3.4c-0.9,0-1.7-0.8-1.7-1.7v-3.4c0-0.9,0.8-1.7,1.7-1.7h3.4c0.9,0,1.7,0.8,1.7,1.7v3.4
		C299.9,376,299.2,376.8,298.2,376.8z"/>
	<path class="api1" d="M397.9,381.5h-63.7c-2.2,0-4-1.8-4-4v-8.1c0-2.2,1.8-4,4-4h63.7c2.2,0,4,1.8,4,4v8.1
		C401.9,379.7,400.1,381.5,397.9,381.5z"/>
	<path class="api1" d="M339.7,358.4h-2.5c-0.7,0-1.2-0.5-1.2-1.2v-2.5c0-0.7,0.5-1.2,1.2-1.2h2.5c0.7,0,1.2,0.5,1.2,1.2v2.5
		C340.9,357.9,340.4,358.4,339.7,358.4z"/>
	<path class="api1" d="M349.5,358.4h-2.5c-0.7,0-1.2-0.5-1.2-1.2v-2.5c0-0.7,0.5-1.2,1.2-1.2h2.5c0.7,0,1.2,0.5,1.2,1.2v2.5
		C350.7,357.9,350.2,358.4,349.5,358.4z"/>
	<path class="api1" d="M363.4,358.4h-2.5c-0.7,0-1.2-0.5-1.2-1.2v-2.5c0-0.7,0.5-1.2,1.2-1.2h2.5c0.7,0,1.2,0.5,1.2,1.2v2.5
		C364.6,357.9,364,358.4,363.4,358.4z"/>
	<path class="api1" d="M339.7,347.8h-2.5c-0.7,0-1.2-0.5-1.2-1.2v-2.5c0-0.7,0.5-1.2,1.2-1.2h2.5c0.7,0,1.2,0.5,1.2,1.2v2.5
		C340.9,347.2,340.4,347.8,339.7,347.8z"/>
	<path class="api1" d="M349.5,347.8h-2.5c-0.7,0-1.2-0.5-1.2-1.2v-2.5c0-0.7,0.5-1.2,1.2-1.2h2.5c0.7,0,1.2,0.5,1.2,1.2v2.5
		C350.7,347.2,350.2,347.8,349.5,347.8z"/>
	<path class="api1" d="M400.5,347.8h-2.5c-0.7,0-1.2-0.5-1.2-1.2v-2.5c0-0.7,0.5-1.2,1.2-1.2h2.5c0.7,0,1.2,0.5,1.2,1.2v2.5
		C401.8,347.2,401.2,347.8,400.5,347.8z"/>
	<path class="api1" d="M373.2,358.4h-2.5c-0.7,0-1.2-0.5-1.2-1.2v-2.5c0-0.7,0.5-1.2,1.2-1.2h2.5c0.7,0,1.2,0.5,1.2,1.2v2.5
		C374.4,357.9,373.8,358.4,373.2,358.4z"/>
	<path class="api1" d="M382.8,358.4h-2.5c-0.7,0-1.2-0.5-1.2-1.2v-2.5c0-0.7,0.5-1.2,1.2-1.2h2.5c0.7,0,1.2,0.5,1.2,1.2v2.5
		C384,357.9,383.5,358.4,382.8,358.4z"/>
	<path class="api1" d="M383,358.4h-2.5c-0.7,0-1.2-0.5-1.2-1.2v-2.5c0-0.7,0.5-1.2,1.2-1.2h2.5c0.7,0,1.2,0.5,1.2,1.2v2.5
		C384.2,357.9,383.7,358.4,383,358.4z"/>
	<path id="svg-concept" class="api4" d="M477.7,374.2c0,2.1-1.7,3.8-3.8,3.8c-2.1,0-3.8-1.7-3.8-3.8c0-2.1,1.7-3.8,3.8-3.8
		C476,370.4,477.7,372.1,477.7,374.2z"/>
	<path class="api1" d="M475.1,363.4h-2.5c-0.7,0-1.2-0.5-1.2-1.2l0-2.5c0-0.7,0.5-1.2,1.2-1.2h2.5c0.7,0,1.2,0.5,1.2,1.2v2.5
		C476.3,362.9,475.8,363.4,475.1,363.4z"/>
	<path class="api1" d="M475.1,352.6h-2.5c-0.7,0-1.2-0.5-1.2-1.2l0-2.5c0-0.7,0.5-1.2,1.2-1.2h2.5c0.7,0,1.2,0.5,1.2,1.2v2.5
		C476.3,352.1,475.8,352.6,475.1,352.6z"/>
	<path class="api1" d="M383,347.8l-21.2,0c-0.7,0-1.2-0.5-1.2-1.2v-2.5c0-0.7,0.5-1.2,1.2-1.2l21.2,0c0.7,0,1.2,0.5,1.2,1.2v2.5
		C384.2,347.2,383.7,347.8,383,347.8z"/>
	<line class="api1" x1="355.4" y1="365.4" x2="355.4" y2="381.5"/>
	<path class="api1" d="M382.1,376.8h-3.4c-0.9,0-1.7-0.8-1.7-1.7v-3.4c0-0.9,0.8-1.7,1.7-1.7h3.4c0.9,0,1.7,0.8,1.7,1.7v3.4
		C383.8,376,383,376.8,382.1,376.8z"/>
	<line class="api1" x1="241" y1="332.7" x2="241" y2="392.9"/>
	<line class="api1" x1="146.7" y1="352.9" x2="146.7" y2="370.7"/>
	<line class="api1" x1="495" y1="352.9" x2="495" y2="370.7"/>
	<line class="api1" x1="324.3" y1="332.7" x2="324.3" y2="392.9"/>
	<line class="api1" x1="407.6" y1="332.7" x2="407.6" y2="392.9"/>
	<path class="api6" d="M506.4,462.1c0,6-4.4,10.9-9.9,10.9H145.1c-5.5,0-9.9-4.9-9.9-10.9v-38.5c0-6,4.4-10.9,9.9-10.9h351.5
		c5.5,0,9.9,4.9,9.9,10.9V462.1z"/>
	<path class="api1" d="M145.1,252.7l53.3-74.9c2.6-4.2,6.8-7.5,15-7.5h221c8.2,0,11.8,2.9,15,7.5l47.2,74.9"/>
	<line class="api1" x1="484" y1="392.9" x2="496.5" y2="412.7"/>
	<line class="api1" x1="145.1" y1="412.7" x2="159.3" y2="392.7"/>
	<line class="api1" x1="484" y1="312.9" x2="496.5" y2="332.7"/>
	<line class="api1" x1="145.1" y1="332.7" x2="159.1" y2="312.9"/>
	<path class="api1" d="M382.8,197.6H429c2.8,0,5.8-2.4,5-5l-1.8-4.9c-0.9-3.3-3.5-4.7-6.2-4.7h-43.2c-2.8,0-5,2.2-5,5v4.6
		C377.8,195.3,380,197.6,382.8,197.6z"/>
	<path id="svg-concept" class="api4" d="M232.9,438.4h-2.5c-0.7,0-1.2-0.5-1.2-1.2v-2.5c0-0.7,0.5-1.2,1.2-1.2h2.5c0.7,0,1.2,0.5,1.2,1.2v2.5
		C234.2,437.9,233.6,438.4,232.9,438.4z"/>
	<path id="svg-concept" class="api4" d="M226.8,456.8h-3.4c-0.9,0-1.7-0.8-1.7-1.7v-3.4c0-0.9,0.8-1.7,1.7-1.7h3.4c0.9,0,1.7,0.8,1.7,1.7v3.4
		C228.5,456,227.7,456.8,226.8,456.8z"/>
	<path id="svg-concept" class="api4" d="M316.8,438.4h-2.5c-0.7,0-1.2-0.5-1.2-1.2v-2.5c0-0.7,0.5-1.2,1.2-1.2h2.5c0.7,0,1.2,0.5,1.2,1.2v2.5
		C318,437.9,317.5,438.4,316.8,438.4z"/>
	<path id="svg-concept" class="api4" d="M310.7,456.8h-3.4c-0.9,0-1.7-0.8-1.7-1.7v-3.4c0-0.9,0.8-1.7,1.7-1.7h3.4c0.9,0,1.7,0.8,1.7,1.7v3.4
		C312.4,456,311.6,456.8,310.7,456.8z"/>
	<path id="svg-concept" class="api4" d="M400.7,438.4h-2.5c-0.7,0-1.2-0.5-1.2-1.2v-2.5c0-0.7,0.5-1.2,1.2-1.2h2.5c0.7,0,1.2,0.5,1.2,1.2v2.5
		C401.9,437.9,401.3,438.4,400.7,438.4z"/>
	<path id="svg-concept" class="api4" d="M394.6,456.8h-3.4c-0.9,0-1.7-0.8-1.7-1.7v-3.4c0-0.9,0.8-1.7,1.7-1.7h3.4c0.9,0,1.7,0.8,1.7,1.7v3.4
		C396.2,456,395.5,456.8,394.6,456.8z"/>
	<path id="svg-concept" class="api4" d="M459.7,442.8c0,7.1-5.8,12.9-12.9,12.9c-7.1,0-12.9-5.8-12.9-12.9c0-7.1,5.8-12.9,12.9-12.9
		C453.9,429.9,459.7,435.7,459.7,442.8z"/>
	<path id="svg-concept" class="api4" d="M451.6,442.8c0,2.6-2.1,4.8-4.8,4.8c-2.6,0-4.8-2.1-4.8-4.8s2.1-4.8,4.8-4.8
		C449.4,438,451.6,440.2,451.6,442.8z"/>
	<line id="svg-concept" class="api4" x1="459.7" y1="442.8" x2="451.6" y2="442.8"/>
	<line id="svg-concept" class="api4" x1="442" y1="442.8" x2="433.9" y2="442.8"/>
	<line class="api1" x1="155.6" y1="412.7" x2="155.6" y2="472.7"/>
	<line class="api1" x1="486" y1="412.7" x2="486" y2="472.9"/>
	<path class="api1" d="M230.2,461.5h-63.7c-2.2,0-4-1.8-4-4v-8.1c0-2.2,1.8-4,4-4h63.7c2.2,0,4,1.8,4,4v8.1
		C234.2,459.7,232.4,461.5,230.2,461.5z"/>
	<path class="api1" d="M172,438.4h-2.5c-0.7,0-1.2-0.5-1.2-1.2v-2.5c0-0.7,0.5-1.2,1.2-1.2h2.5c0.7,0,1.2,0.5,1.2,1.2v2.5
		C173.2,437.9,172.6,438.4,172,438.4z"/>
	<path class="api1" d="M181.8,438.4h-2.5c-0.7,0-1.2-0.5-1.2-1.2v-2.5c0-0.7,0.5-1.2,1.2-1.2h2.5c0.7,0,1.2,0.5,1.2,1.2v2.5
		C183,437.9,182.5,438.4,181.8,438.4z"/>
	<path class="api1" d="M195.6,438.4h-2.5c-0.7,0-1.2-0.5-1.2-1.2v-2.5c0-0.7,0.5-1.2,1.2-1.2h2.5c0.7,0,1.2,0.5,1.2,1.2v2.5
		C196.8,437.9,196.3,438.4,195.6,438.4z"/>
	<path class="api1" d="M172,427.8h-2.5c-0.7,0-1.2-0.5-1.2-1.2v-2.5c0-0.7,0.5-1.2,1.2-1.2h2.5c0.7,0,1.2,0.5,1.2,1.2v2.5
		C173.2,427.2,172.6,427.8,172,427.8z"/>
	<path class="api1" d="M181.8,427.8h-2.5c-0.7,0-1.2-0.5-1.2-1.2v-2.5c0-0.7,0.5-1.2,1.2-1.2h2.5c0.7,0,1.2,0.5,1.2,1.2v2.5
		C183,427.2,182.5,427.8,181.8,427.8z"/>
	<path class="api1" d="M232.8,427.8h-2.5c-0.7,0-1.2-0.5-1.2-1.2v-2.5c0-0.7,0.5-1.2,1.2-1.2h2.5c0.7,0,1.2,0.5,1.2,1.2v2.5
		C234,427.2,233.5,427.8,232.8,427.8z"/>
	<path class="api1" d="M205.4,438.4H203c-0.7,0-1.2-0.5-1.2-1.2v-2.5c0-0.7,0.5-1.2,1.2-1.2h2.5c0.7,0,1.2,0.5,1.2,1.2v2.5
		C206.7,437.9,206.1,438.4,205.4,438.4z"/>
	<path class="api1" d="M215.1,438.4h-2.5c-0.7,0-1.2-0.5-1.2-1.2v-2.5c0-0.7,0.5-1.2,1.2-1.2h2.5c0.7,0,1.2,0.5,1.2,1.2v2.5
		C216.3,437.9,215.8,438.4,215.1,438.4z"/>
	<path class="api1" d="M215.3,438.4h-2.5c-0.7,0-1.2-0.5-1.2-1.2v-2.5c0-0.7,0.5-1.2,1.2-1.2h2.5c0.7,0,1.2,0.5,1.2,1.2v2.5
		C216.5,437.9,215.9,438.4,215.3,438.4z"/>
	<path class="api1" d="M215.3,427.8l-21.2,0c-0.7,0-1.2-0.5-1.2-1.2v-2.5c0-0.7,0.5-1.2,1.2-1.2l21.2,0c0.7,0,1.2,0.5,1.2,1.2v2.5
		C216.5,427.2,215.9,427.8,215.3,427.8z"/>
	<line class="api1" x1="187.7" y1="445.4" x2="187.7" y2="461.5"/>
	<path class="api1" d="M214.4,456.8H211c-0.9,0-1.7-0.8-1.7-1.7v-3.4c0-0.9,0.8-1.7,1.7-1.7h3.4c0.9,0,1.7,0.8,1.7,1.7v3.4
		C216.1,456,215.3,456.8,214.4,456.8z"/>
	<path class="api1" d="M314,461.5h-63.7c-2.2,0-4-1.8-4-4v-8.1c0-2.2,1.8-4,4-4H314c2.2,0,4,1.8,4,4v8.1
		C318,459.7,316.2,461.5,314,461.5z"/>
	<path class="api1" d="M255.8,438.4h-2.5c-0.7,0-1.2-0.5-1.2-1.2v-2.5c0-0.7,0.5-1.2,1.2-1.2h2.5c0.7,0,1.2,0.5,1.2,1.2v2.5
		C257.1,437.9,256.5,438.4,255.8,438.4z"/>
	<path class="api1" d="M265.7,438.4h-2.5c-0.7,0-1.2-0.5-1.2-1.2v-2.5c0-0.7,0.5-1.2,1.2-1.2h2.5c0.7,0,1.2,0.5,1.2,1.2v2.5
		C266.9,437.9,266.3,438.4,265.7,438.4z"/>
	<path class="api1" d="M279.5,438.4H277c-0.7,0-1.2-0.5-1.2-1.2v-2.5c0-0.7,0.5-1.2,1.2-1.2h2.5c0.7,0,1.2,0.5,1.2,1.2v2.5
		C280.7,437.9,280.2,438.4,279.5,438.4z"/>
	<path class="api1" d="M255.8,427.8h-2.5c-0.7,0-1.2-0.5-1.2-1.2v-2.5c0-0.7,0.5-1.2,1.2-1.2h2.5c0.7,0,1.2,0.5,1.2,1.2v2.5
		C257.1,427.2,256.5,427.8,255.8,427.8z"/>
	<path class="api1" d="M265.7,427.8h-2.5c-0.7,0-1.2-0.5-1.2-1.2v-2.5c0-0.7,0.5-1.2,1.2-1.2h2.5c0.7,0,1.2,0.5,1.2,1.2v2.5
		C266.9,427.2,266.3,427.8,265.7,427.8z"/>
	<path class="api1" d="M316.7,427.8h-2.5c-0.7,0-1.2-0.5-1.2-1.2v-2.5c0-0.7,0.5-1.2,1.2-1.2h2.5c0.7,0,1.2,0.5,1.2,1.2v2.5
		C317.9,427.2,317.3,427.8,316.7,427.8z"/>
	<path class="api1" d="M289.3,438.4h-2.5c-0.7,0-1.2-0.5-1.2-1.2v-2.5c0-0.7,0.5-1.2,1.2-1.2h2.5c0.7,0,1.2,0.5,1.2,1.2v2.5
		C290.5,437.9,290,438.4,289.3,438.4z"/>
	<path class="api1" d="M299,438.4h-2.5c-0.7,0-1.2-0.5-1.2-1.2v-2.5c0-0.7,0.5-1.2,1.2-1.2h2.5c0.7,0,1.2,0.5,1.2,1.2v2.5
		C300.2,437.9,299.6,438.4,299,438.4z"/>
	<path class="api1" d="M299.1,438.4h-2.5c-0.7,0-1.2-0.5-1.2-1.2v-2.5c0-0.7,0.5-1.2,1.2-1.2h2.5c0.7,0,1.2,0.5,1.2,1.2v2.5
		C300.3,437.9,299.8,438.4,299.1,438.4z"/>
	<path class="api1" d="M299.1,427.8l-21.2,0c-0.7,0-1.2-0.5-1.2-1.2v-2.5c0-0.7,0.5-1.2,1.2-1.2l21.2,0c0.7,0,1.2,0.5,1.2,1.2v2.5
		C300.3,427.2,299.8,427.8,299.1,427.8z"/>
	<line class="api1" x1="271.6" y1="445.4" x2="271.6" y2="461.5"/>
	<path class="api1" d="M298.2,456.8h-3.4c-0.9,0-1.7-0.8-1.7-1.7v-3.4c0-0.9,0.8-1.7,1.7-1.7h3.4c0.9,0,1.7,0.8,1.7,1.7v3.4
		C299.9,456,299.2,456.8,298.2,456.8z"/>
	<path class="api1" d="M397.9,461.5h-63.7c-2.2,0-4-1.8-4-4v-8.1c0-2.2,1.8-4,4-4h63.7c2.2,0,4,1.8,4,4v8.1
		C401.9,459.7,400.1,461.5,397.9,461.5z"/>
	<path class="api1" d="M339.7,438.4h-2.5c-0.7,0-1.2-0.5-1.2-1.2v-2.5c0-0.7,0.5-1.2,1.2-1.2h2.5c0.7,0,1.2,0.5,1.2,1.2v2.5
		C340.9,437.9,340.4,438.4,339.7,438.4z"/>
	<path class="api1" d="M349.5,438.4h-2.5c-0.7,0-1.2-0.5-1.2-1.2v-2.5c0-0.7,0.5-1.2,1.2-1.2h2.5c0.7,0,1.2,0.5,1.2,1.2v2.5
		C350.7,437.9,350.2,438.4,349.5,438.4z"/>
	<path class="api1" d="M363.4,438.4h-2.5c-0.7,0-1.2-0.5-1.2-1.2v-2.5c0-0.7,0.5-1.2,1.2-1.2h2.5c0.7,0,1.2,0.5,1.2,1.2v2.5
		C364.6,437.9,364,438.4,363.4,438.4z"/>
	<path class="api1" d="M339.7,427.8h-2.5c-0.7,0-1.2-0.5-1.2-1.2v-2.5c0-0.7,0.5-1.2,1.2-1.2h2.5c0.7,0,1.2,0.5,1.2,1.2v2.5
		C340.9,427.2,340.4,427.8,339.7,427.8z"/>
	<path class="api1" d="M349.5,427.8h-2.5c-0.7,0-1.2-0.5-1.2-1.2v-2.5c0-0.7,0.5-1.2,1.2-1.2h2.5c0.7,0,1.2,0.5,1.2,1.2v2.5
		C350.7,427.2,350.2,427.8,349.5,427.8z"/>
	<path class="api1" d="M400.5,427.8h-2.5c-0.7,0-1.2-0.5-1.2-1.2v-2.5c0-0.7,0.5-1.2,1.2-1.2h2.5c0.7,0,1.2,0.5,1.2,1.2v2.5
		C401.8,427.2,401.2,427.8,400.5,427.8z"/>
	<path class="api1" d="M373.2,438.4h-2.5c-0.7,0-1.2-0.5-1.2-1.2v-2.5c0-0.7,0.5-1.2,1.2-1.2h2.5c0.7,0,1.2,0.5,1.2,1.2v2.5
		C374.4,437.9,373.8,438.4,373.2,438.4z"/>
	<path class="api1" d="M383,438.4h-2.5c-0.7,0-1.2-0.5-1.2-1.2v-2.5c0-0.7,0.5-1.2,1.2-1.2h2.5c0.7,0,1.2,0.5,1.2,1.2v2.5
		C384.2,437.9,383.7,438.4,383,438.4z"/>
	<path id="svg-concept" class="api4" d="M477.7,454.2c0,2.1-1.7,3.8-3.8,3.8c-2.1,0-3.8-1.7-3.8-3.8c0-2.1,1.7-3.8,3.8-3.8
		C476,450.4,477.7,452.1,477.7,454.2z"/>
	<path class="api1" d="M475.1,443.4h-2.5c-0.7,0-1.2-0.5-1.2-1.2l0-2.5c0-0.7,0.5-1.2,1.2-1.2h2.5c0.7,0,1.2,0.5,1.2,1.2v2.5
		C476.3,442.9,475.8,443.4,475.1,443.4z"/>
	<path class="api1" d="M475.1,432.6h-2.5c-0.7,0-1.2-0.5-1.2-1.2l0-2.5c0-0.7,0.5-1.2,1.2-1.2h2.5c0.7,0,1.2,0.5,1.2,1.2v2.5
		C476.3,432.1,475.8,432.6,475.1,432.6z"/>
	<path class="api1" d="M383,427.8l-21.2,0c-0.7,0-1.2-0.5-1.2-1.2v-2.5c0-0.7,0.5-1.2,1.2-1.2l21.2,0c0.7,0,1.2,0.5,1.2,1.2v2.5
		C384.2,427.2,383.7,427.8,383,427.8z"/>
	<line class="api1" x1="355.4" y1="445.4" x2="355.4" y2="461.5"/>
	<path class="api1" d="M382.1,456.8h-3.4c-0.9,0-1.7-0.8-1.7-1.7v-3.4c0-0.9,0.8-1.7,1.7-1.7h3.4c0.9,0,1.7,0.8,1.7,1.7v3.4
		C383.8,456,383,456.8,382.1,456.8z"/>
	<line class="api1" x1="241" y1="412.7" x2="241" y2="472.9"/>
	<line class="api1" x1="146.7" y1="432.9" x2="146.7" y2="450.7"/>
	<line class="api1" x1="495" y1="432.9" x2="495" y2="450.7"/>
	<line class="api1" x1="324.3" y1="412.7" x2="324.3" y2="472.9"/>
	<line class="api1" x1="407.6" y1="412.7" x2="407.6" y2="472.9"/>
</g>

<g>
<path id="svg-concept"  class="api8" d="M285.6,57.8V5.3c0-0.7,0.6-1.3,1.3-1.3h67.6c0.7,0,1.3,0.6,1.3,1.3v52.6c0,0.7-0.6,1.3-1.3,1.3h-19.2v-5.2h-29
	v5.2h-19.4C286.2,59.1,285.6,58.5,285.6,57.8z"/>
<path id="svg-concept"  class="api0" d="M302.7,45V17.5c0-0.4,0.3-0.7,0.7-0.7h35.4c0.4,0,0.7,0.3,0.7,0.7V45c0,0.4-0.3,0.7-0.7,0.7h-35.4
	C303,45.7,302.7,45.4,302.7,45z"/>
<path id="svg-ico" class="api8" d="M321.1,34.6c-1.7,0-3-1.3-3-3c0-1.7,1.3-3,3-3s3,1.3,3,3C324.1,33.2,322.7,34.6,321.1,34.6z"/>
</g>

<g>
<path id="svg-concept" class="api8" d="M482.4,110.2L519.6,73c0.5-0.5,1.3-0.5,1.8,0l47.8,47.8c0.5,0.5,0.5,1.3,0,1.8l-37.2,37.2
	c-0.5,0.5-1.3,0.5-1.8,0l-13.5-13.5l3.7-3.7L499.8,122l-3.7,3.7L482.4,112C481.9,111.5,481.9,110.7,482.4,110.2z"/>
<path id="svg-concept" class="api0" d="M503.5,113.2L523,93.8c0.3-0.3,0.7-0.3,0.9,0l25,25c0.3,0.3,0.3,0.7,0,0.9l-19.5,19.5c-0.3,0.3-0.7,0.3-0.9,0
	l-25-25C503.3,113.9,503.3,113.5,503.5,113.2z"/>
<path id="svg-ico" class="api8" d="M523.9,118.8c-1.2-1.2-1.2-3.1,0-4.2c1.2-1.2,3.1-1.2,4.2,0c1.2,1.2,1.2,3.1,0,4.2
	C527,120,525.1,120,523.9,118.8z"/>
</g>

<g>
<path id="svg-concept" class="api8" d="M584.5,286.4h52.6c0.7,0,1.3,0.6,1.3,1.3v67.6c0,0.7-0.6,1.3-1.3,1.3h-52.6c-0.7,0-1.3-0.6-1.3-1.3v-19.2h5.2
	v-29h-5.2v-19.4C583.3,287,583.9,286.4,584.5,286.4z"/>
<path id="svg-concept" class="api0" d="M597.3,303.5h27.5c0.4,0,0.7,0.3,0.7,0.7v35.4c0,0.4-0.3,0.7-0.7,0.7h-27.5c-0.4,0-0.7-0.3-0.7-0.7v-35.4
	C596.7,303.8,597,303.5,597.3,303.5z"/>
<path id="svg-ico" class="api8" d="M607.8,321.9c0-1.7,1.3-3,3-3c1.7,0,3,1.3,3,3s-1.3,3-3,3C609.2,324.9,607.8,323.5,607.8,321.9z"/>
</g>

<g>
<path id="svg-concept" class="api8" d="M531.9,483.1l37.2,37.2c0.5,0.5,0.5,1.3,0,1.8l-47.8,47.8c-0.5,0.5-1.3,0.5-1.8,0l-37.2-37.2
	c-0.5-0.5-0.5-1.3,0-1.8l13.5-13.5l3.7,3.7l20.5-20.5l-3.7-3.7l13.7-13.7C530.7,482.6,531.5,482.6,531.9,483.1z"/>
<path id="svg-concept" class="api0" d="M528.9,504.2l19.5,19.5c0.3,0.3,0.3,0.7,0,0.9l-25,25c-0.3,0.3-0.7,0.3-0.9,0L503,530.2c-0.3-0.3-0.3-0.7,0-0.9
	l25-25C528.2,504,528.6,504,528.9,504.2z"/>
<path id="svg-ico" class="api8" d="M523.3,524.6c1.2-1.2,3.1-1.2,4.2,0c1.2,1.2,1.2,3.1,0,4.2s-3.1,1.2-4.2,0C522.2,527.7,522.2,525.8,523.3,524.6
	z"/>
</g>

<g>
<path id="svg-concept" class="api8" d="M356,585.4v52.6c0,0.7-0.6,1.3-1.3,1.3h-67.6c-0.7,0-1.3-0.6-1.3-1.3v-52.6c0-0.7,0.6-1.3,1.3-1.3h19.2v5.2h29
	v-5.2h19.4C355.4,584.1,356,584.7,356,585.4z"/>
<path id="svg-concept" class="api0" d="M338.9,598.2v27.5c0,0.4-0.3,0.7-0.7,0.7h-35.4c-0.4,0-0.7-0.3-0.7-0.7v-27.5c0-0.4,0.3-0.7,0.7-0.7h35.4
	C338.6,597.5,338.9,597.8,338.9,598.2z"/>
<path id="svg-ico" class="api8" d="M320.5,608.7c1.7,0,3,1.3,3,3c0,1.7-1.3,3-3,3s-3-1.3-3-3C317.5,610,318.9,608.7,320.5,608.7z"/>
</g>

<g>
<path id="svg-concept" class="api8" d="M159.2,533L122,570.2c-0.5,0.5-1.3,0.5-1.8,0l-47.8-47.8c-0.5-0.5-0.5-1.3,0-1.8l37.2-37.2
	c0.5-0.5,1.3-0.5,1.8,0L125,497l-3.7,3.7l20.5,20.5l3.7-3.7l13.7,13.7C159.7,531.8,159.7,532.6,159.2,533z"/>
<path id="svg-concept" class="api0" d="M138.1,530l-19.5,19.5c-0.3,0.3-0.7,0.3-0.9,0l-25-25c-0.3-0.3-0.3-0.7,0-0.9l19.5-19.5c0.3-0.3,0.7-0.3,0.9,0
	l25,25C138.3,529.3,138.3,529.7,138.1,530z"/>
<path id="svg-ico" class="api8" d="M117.7,524.4c1.2,1.2,1.2,3.1,0,4.2c-1.2,1.2-3.1,1.2-4.2,0c-1.2-1.2-1.2-3.1,0-4.2
	C114.6,523.3,116.5,523.2,117.7,524.4z"/>
</g>

<g>
<path id="svg-concept" class="api8" d="M57.1,356.7H4.5c-0.7,0-1.3-0.6-1.3-1.3v-67.6c0-0.7,0.6-1.3,1.3-1.3h52.6c0.7,0,1.3,0.6,1.3,1.3V307h-5.2v29
	h5.2v19.4C58.3,356.1,57.8,356.7,57.1,356.7z"/>
<path id="svg-concept" class="api0" d="M44.3,339.6H16.8c-0.4,0-0.7-0.3-0.7-0.7v-35.4c0-0.4,0.3-0.7,0.7-0.7h27.5c0.4,0,0.7,0.3,0.7,0.7v35.4
	C44.9,339.3,44.6,339.6,44.3,339.6z"/>
<path id="svg-ico" class="api8" d="M33.8,321.2c0,1.7-1.3,3-3,3c-1.7,0-3-1.3-3-3s1.3-3,3-3C32.5,318.2,33.8,319.5,33.8,321.2z"/>
</g>

<g>
<path id="svg-concept" class="api8" d="M109.7,160.1L72.5,123c-0.5-0.5-0.5-1.3,0-1.8l47.8-47.8c0.5-0.5,1.3-0.5,1.8,0l37.2,37.2
	c0.5,0.5,0.5,1.3,0,1.8l-13.5,13.5l-3.7-3.7l-20.5,20.5l3.7,3.7l-13.7,13.7C110.9,160.6,110.1,160.6,109.7,160.1z"/>
<path id="svg-concept" class="api0" d="M112.7,139l-19.5-19.5c-0.3-0.3-0.3-0.7,0-0.9l25-25c0.3-0.3,0.7-0.3,0.9,0l19.5,19.5c0.3,0.3,0.3,0.7,0,0.9
	l-25,25C113.4,139.2,113,139.2,112.7,139z"/>
<path id="svg-ico" class="api8" d="M118.3,118.6c-1.2,1.2-3.1,1.2-4.2,0c-1.2-1.2-1.2-3.1,0-4.2c1.2-1.2,3.1-1.2,4.2,0
	C119.4,115.5,119.4,117.4,118.3,118.6z"/>
</g>
</svg>