<?xml version="1.0" encoding="utf-8"?>
<!-- Generator: Adobe Illustrator 22.0.0, SVG Export Plug-In . SVG Version: 6.00 Build 0)  -->
<svg version="1.1" id="Layer_1" xmlns="http://www.w3.org/2000/svg" xmlns:xlink="http://www.w3.org/1999/xlink" x="0px" y="0px"
	 viewBox="0 0 1063.1 259" style="enable-background:new 0 0 1063.1 259;" xml:space="preserve">
<style type="text/css">
	.bal0{fill:none;stroke:#808080;stroke-linecap:round;stroke-linejoin:round;stroke-miterlimit:10;}
	.bal1{fill:#FFFFFF;stroke:#ee5586;stroke-width:2;stroke-linecap:round;stroke-linejoin:round;stroke-miterlimit:10;}
	.bal2{fill:none;stroke:#808080;stroke-linecap:round;stroke-linejoin:round;stroke-miterlimit:10;}
	.bal3{fill:none;stroke:#808080;stroke-miterlimit:10;}
	.bal4{fill:none;stroke:#ee5586;stroke-width:1;stroke-linecap:round;stroke-linejoin:round;stroke-miterlimit:10;}
	.bal5{fill:#ee5586;}
</style>
<rect x="112.6" y="41.6" class="bal0" width="55.7" height="37.1"/>
<line class="bal0" x1="107.9" y1="87.4" x2="172.9" y2="87.4"/>
<line id="svg-concept" class="bal1" x1="121.6" y1="55.2" x2="134.7" y2="55.2"/>
<line id="svg-concept" class="bal1" x1="121.6" y1="64.7" x2="147.9" y2="64.7"/>
<line id="svg-concept" class="bal1" x1="240.9" y1="55.2" x2="254" y2="55.2"/>
<line id="svg-concept" class="bal1" x1="240.9" y1="64.7" x2="259" y2="64.7"/>
<line id="svg-concept" class="bal1" x1="8.6" y1="55.2" x2="21.8" y2="55.2"/>
<line id="svg-concept" class="bal1" x1="8.6" y1="64.7" x2="26.7" y2="64.7"/>
<g>
	<circle class="bal2" cx="514.2" cy="83.8" r="3.7"/>
	<line class="bal2" x1="514.2" y1="73.6" x2="514.2" y2="79.9"/>
	<line class="bal2" x1="485.1" y1="83.8" x2="510.4" y2="83.8"/>
	<line class="bal2" x1="518" y1="83.8" x2="543.2" y2="83.8"/>
</g>
<g>
	<circle class="bal2" cx="779.2" cy="83.8" r="3.7"/>
	<line class="bal2" x1="779.2" y1="73.6" x2="779.2" y2="79.9"/>
	<line class="bal2" x1="750.2" y1="83.8" x2="775.4" y2="83.8"/>
	<line class="bal2" x1="783" y1="83.8" x2="808.3" y2="83.8"/>
</g>
<path class="bal0" d="M744,51"/>
<path class="bal0" d="M760.8,33.9c0-0.8-0.1-1.5,0-2.3c1.2-12.4,12.1-22.1,24.8-22.1h-0.4c13.5,0,24.4,10.9,24.4,24.4
	c0,7-2.9,13.3-7.7,17.8"/>
<path class="bal0" d="M785.4,19.2c-7.6,0.1-14.2,6-14.9,13.3l0,0.2c0,0.4,0,0.8,0,1.1"/>
<path class="bal0" d="M753.5,24.1c-9.4,0-17.1,7.6-17.1,17.1c0,4.2,1.5,8,4,11"/>
<polyline class="bal0" points="37,74.5 0.8,74.5 0.8,36.5 37,36.5 "/>
<line class="bal0" x1="25.7" y1="74.5" x2="25.7" y2="81.4"/>
<line class="bal0" x1="37" y1="81.4" x2="13.6" y2="81.4"/>
<path class="bal0" d="M57.4,27.9H40.4c-1.9,0-3.4,1.2-3.4,2.6v54.4c0,1.4,1.5,2.6,3.4,2.6h17.1c1.9,0,3.4-1.2,3.4-2.6V30.5
	C60.8,29.1,59.3,27.9,57.4,27.9z"/>
<path class="bal0" d="M49.5,37.1c2.3,0.3,3.9,2.4,3.6,4.7c-0.3,2.3-2.4,3.9-4.7,3.6c-2.3-0.3-3.9-2.4-3.6-4.7
	C45.1,38.4,47.2,36.8,49.5,37.1z"/>
<path class="bal0" d="M235.3,86.5V37c0-0.5,0.4-0.9,0.9-0.9h28.5c0.5,0,0.9,0.4,0.9,0.9v49.5c0,0.5-0.4,0.9-0.9,0.9h-28.5
	C235.7,87.4,235.3,87,235.3,86.5"/>
<line class="bal0" x1="248.3" y1="40.7" x2="252.6" y2="40.7"/>
<path class="bal0" d="M252.6,80.8c0,1.2-1,2.1-2.1,2.1c-1.2,0-2.1-1-2.1-2.1c0-1.2,1-2.1,2.1-2.1C251.6,78.6,252.6,79.6,252.6,80.8z"
	/>
<line class="bal3" x1="140.7" y1="211.8" x2="887.6" y2="211.8"/>
<line class="bal3" x1="140.7" y1="99" x2="140.7" y2="167.6"/>
<g>
	<g>
		<line class="bal0" x1="130" y1="256.1" x2="130" y2="234.9"/>
		<line class="bal0" x1="130" y1="234.9" x2="134.7" y2="234.9"/>
		<line class="bal0" x1="130" y1="256.1" x2="134.7" y2="256.1"/>
	</g>
	<g>
		<line class="bal0" x1="146.7" y1="234.9" x2="151.4" y2="234.9"/>
		<line class="bal0" x1="151.4" y1="234.9" x2="151.4" y2="256.1"/>
		<line class="bal0" x1="151.4" y1="256.1" x2="146.7" y2="256.1"/>
	</g>
</g>
<g>
	<line id="svg-concept" class="bal4" x1="140.7" y1="251.4" x2="140.7" y2="238.4"/>
	<line id="svg-concept" class="bal4" x1="140.7" y1="238.4" x2="137.1" y2="238.4"/>
</g>
<g>
	<g>
		<line class="bal0" x1="877.4" y1="256.1" x2="877.4" y2="234.9"/>
		<line class="bal0" x1="877.4" y1="234.9" x2="882.1" y2="234.9"/>
		<line class="bal0" x1="877.4" y1="256.1" x2="882.1" y2="256.1"/>
	</g>
	<g>
		<line class="bal0" x1="894.1" y1="234.9" x2="898.8" y2="234.9"/>
		<line class="bal0" x1="898.8" y1="234.9" x2="898.8" y2="256.1"/>
		<line class="bal0" x1="898.8" y1="256.1" x2="894.1" y2="256.1"/>
	</g>
</g>
<line id="svg-concept" class="bal4" x1="891.3" y1="252" x2="891.3" y2="239"/>
<line id="svg-concept" class="bal4" x1="884.9" y1="245.5" x2="891.3" y2="245.5"/>
<line id="svg-concept" class="bal4" x1="891.3" y1="239" x2="885" y2="239"/>
<line id="svg-concept" class="bal4" x1="884.9" y1="252" x2="891.1" y2="252"/>
<g>
	<g>
		<line class="bal0" x1="503.4" y1="256.1" x2="503.4" y2="234.9"/>
		<line class="bal0" x1="503.4" y1="234.9" x2="508.2" y2="234.9"/>
		<line class="bal0" x1="503.4" y1="256.1" x2="508.2" y2="256.1"/>
	</g>
	<g>
		<line class="bal0" x1="520.1" y1="234.9" x2="524.9" y2="234.9"/>
		<line class="bal0" x1="524.9" y1="234.9" x2="524.9" y2="256.1"/>
		<line class="bal0" x1="524.9" y1="256.1" x2="520.1" y2="256.1"/>
	</g>
</g>
<g>
	<line id="svg-concept" class="bal4" x1="517.4" y1="245.5" x2="517.4" y2="239"/>
	<line id="svg-concept" class="bal4" x1="511" y1="245.5" x2="517.4" y2="245.5"/>
	<line id="svg-concept" class="bal4" x1="517.4" y1="239" x2="511.1" y2="239"/>
	<g>
		<line id="svg-concept" class="bal4" x1="510.9" y1="245.5" x2="510.9" y2="252"/>
		<line id="svg-concept" class="bal4" x1="510.9" y1="252" x2="517.2" y2="252"/>
	</g>
</g>
<line class="bal3" x1="140.7" y1="167.6" x2="140.7" y2="211.8"/>
<line class="bal3" x1="250.7" y1="99" x2="140.7" y2="167.6"/>
<line class="bal3" x1="514.2" y1="99" x2="514.2" y2="211.8"/>
<line class="bal3" x1="888.1" y1="167.6" x2="888.1" y2="211.8"/>
<line class="bal3" x1="31.1" y1="99" x2="140.7" y2="167.6"/>
<line class="bal3" x1="998.1" y1="99" x2="888.1" y2="167.6"/>
<line class="bal3" x1="778.5" y1="99" x2="888.1" y2="167.6"/>
<path class="bal0" d="M573.7,16.7c0,1.9-1.4,3.5-3.2,3.5H457.8c-1.8,0-3.2-1.6-3.2-3.5V4.3c0-1.9,1.4-3.5,3.2-3.5h112.8
	c1.8,0,3.2,1.6,3.2,3.5V16.7z"/>
<line class="bal0" x1="461.2" y1="0.9" x2="461.2" y2="20.1"/>
<line class="bal0" x1="567.2" y1="0.9" x2="567.2" y2="20.2"/>

<g>
	<path id="svg-concept" class="bal4" d="M558.7,10.5c0,2.3-1.9,4.1-4.1,4.1c-2.3,0-4.1-1.9-4.1-4.1s1.8-4.1,4.1-4.1C556.9,6.4,558.7,8.2,558.7,10.5z"/>
	<path id="svg-concept" class="bal4" d="M556.1,10.5c0,0.8-0.7,1.5-1.5,1.5c-0.8,0-1.5-0.7-1.5-1.5c0-0.8,0.7-1.5,1.5-1.5C555.5,9,556.1,9.7,556.1,10.5
		z"/>
	<line id="svg-concept" class="bal4" x1="558.7" y1="10.5" x2="556.1" y2="10.5"/>
	<line id="svg-concept" class="bal4" x1="553.1" y1="10.5" x2="550.5" y2="10.5"/>
</g>

<path class="bal0" d="M573.7,42.4c0,1.9-1.4,3.5-3.2,3.5H457.8c-1.8,0-3.2-1.6-3.2-3.5V30c0-1.9,1.4-3.5,3.2-3.5h112.8
	c1.8,0,3.2,1.6,3.2,3.5V42.4z"/>
<line class="bal0" x1="461.2" y1="26.5" x2="461.2" y2="45.8"/>
<line class="bal0" x1="567.2" y1="26.5" x2="567.2" y2="45.8"/>

<g>
	<path id="svg-concept" class="bal4" d="M558.7,36.2c0,2.3-1.9,4.1-4.1,4.1c-2.3,0-4.1-1.9-4.1-4.1c0-2.3,1.8-4.1,4.1-4.1
		C556.9,32.1,558.7,33.9,558.7,36.2z"/>
	<path id="svg-concept" class="bal4" d="M556.1,36.2c0,0.8-0.7,1.5-1.5,1.5c-0.8,0-1.5-0.7-1.5-1.5s0.7-1.5,1.5-1.5C555.5,34.7,556.1,35.3,556.1,36.2z"
		/>
	<line id="svg-concept" class="bal4" x1="558.7" y1="36.2" x2="556.1" y2="36.2"/>
	<line id="svg-concept" class="bal4" x1="553.1" y1="36.2" x2="550.5" y2="36.2"/>
</g>

<path class="bal0" d="M573.7,68c0,1.9-1.4,3.5-3.2,3.5H457.8c-1.8,0-3.2-1.6-3.2-3.5V55.7c0-1.9,1.4-3.5,3.2-3.5h112.8
	c1.8,0,3.2,1.6,3.2,3.5V68z"/>
<line class="bal0" x1="461.2" y1="52.2" x2="461.2" y2="71.4"/>
<line class="bal0" x1="567.2" y1="52.2" x2="567.2" y2="71.5"/>

<g>
	<path id="svg-concept" class="bal4" d="M558.7,61.8c0,2.3-1.9,4.1-4.1,4.1c-2.3,0-4.1-1.9-4.1-4.1c0-2.3,1.8-4.1,4.1-4.1
		C556.9,57.7,558.7,59.6,558.7,61.8z"/>
	<path id="svg-concept" class="bal4" d="M556.1,61.9c0,0.8-0.7,1.5-1.5,1.5c-0.8,0-1.5-0.7-1.5-1.5c0-0.8,0.7-1.5,1.5-1.5
		C555.5,60.3,556.1,61,556.1,61.9z"/>
	<line id="svg-concept" class="bal4" x1="558.7" y1="61.9" x2="556.1" y2="61.9"/>
	<line id="svg-concept" class="bal4" x1="553.1" y1="61.9" x2="550.5" y2="61.9"/>
</g>


<g>
	<path class="bal0" d="M838.8,68c0,1.9-1.4,3.5-3.2,3.5H722.8c-1.8,0-3.2-1.6-3.2-3.5V55.7c0-1.9,1.4-3.5,3.2-3.5h112.8
		c1.8,0,3.2,1.6,3.2,3.5V68z"/>
	<line class="bal0" x1="726.2" y1="52.2" x2="726.2" y2="71.4"/>
	<path id="svg-concept" class="bal4" d="M823.8,61.8c0,2.3-1.9,4.1-4.1,4.1c-2.3,0-4.1-1.9-4.1-4.1c0-2.3,1.8-4.1,4.1-4.1
		C821.9,57.7,823.8,59.6,823.8,61.8z"/>
	<path id="svg-concept" class="bal4" d="M821.2,61.9c0,0.8-0.7,1.5-1.5,1.5c-0.8,0-1.5-0.7-1.5-1.5c0-0.8,0.7-1.5,1.5-1.5
		C820.5,60.3,821.2,61,821.2,61.9z"/>
	<line id="svg-concept" class="bal4" x1="823.8" y1="61.9" x2="821.2" y2="61.9"/>
	<line id="svg-concept" class="bal4" x1="818.1" y1="61.9" x2="815.5" y2="61.9"/>
</g>



<g>
	<circle class="bal2" cx="998.1" cy="83.8" r="3.7"/>
	<line class="bal2" x1="998.1" y1="73.6" x2="998.1" y2="79.9"/>
	<line class="bal2" x1="969" y1="83.8" x2="994.3" y2="83.8"/>
	<line class="bal2" x1="1001.9" y1="83.8" x2="1027.1" y2="83.8"/>
</g>
<path class="bal0" d="M962.8,51"/>
<path class="bal0" d="M979.7,33.9c0-0.8-0.1-1.5,0-2.3c1.2-12.4,12.1-22.1,24.8-22.1h-0.4c13.5,0,24.4,10.9,24.4,24.4
	c0,7-2.9,13.3-7.7,17.8"/>
<path class="bal0" d="M1004.2,19.2c-7.6,0.1-14.2,6-14.9,13.3l0,0.2c0,0.4,0,0.8,0,1.1"/>
<path class="bal0" d="M972.4,24.1c-9.4,0-17.1,7.6-17.1,17.1c0,4.2,1.5,8,4,11"/>
<g>
	<path class="bal0" d="M1057.6,68c0,1.9-1.4,3.5-3.2,3.5H941.7c-1.8,0-3.2-1.6-3.2-3.5V55.7c0-1.9,1.4-3.5,3.2-3.5h112.8
		c1.8,0,3.2,1.6,3.2,3.5V68z"/>
	<line class="bal0" x1="945.1" y1="52.2" x2="945.1" y2="71.4"/>
	<path id="svg-concept" class="bal4" d="M1042.6,61.8c0,2.3-1.9,4.1-4.1,4.1c-2.3,0-4.1-1.9-4.1-4.1c0-2.3,1.8-4.1,4.1-4.1
		C1040.8,57.7,1042.6,59.6,1042.6,61.8z"/>
	<path id="svg-concept" class="bal4" d="M1040,61.9c0,0.8-0.7,1.5-1.5,1.5c-0.8,0-1.5-0.7-1.5-1.5c0-0.8,0.7-1.5,1.5-1.5
		C1039.4,60.3,1040,61,1040,61.9z"/>
	<line id="svg-concept" class="bal4" x1="1042.6" y1="61.9" x2="1040" y2="61.9"/>
	<line id="svg-concept" class="bal4" x1="1037" y1="61.9" x2="1034.4" y2="61.9"/>
</g>
<circle id="svg-ico" class="bal5" cx="140.7" cy="211.8" r="3"/>
<circle id="svg-ico" class="bal5" cx="888.1" cy="211.8" r="3"/>

<g>
<path id="svg-concept" class="bal1" d="M35.1,99c0,2.2-1.8,4-4,4c-2.2,0-4-1.8-4-4c0-2.2,1.8-4,4-4C33.3,95,35.1,96.8,35.1,99z"/>
	<animateMotion
	path="M0 0 105 66 0 0"
	begin="0s" 
	dur="4s" 
	repeatCount="indefinite"
	/>
</g>

<g>
<path id="svg-concept" class="bal1" d="M144.7,136.9c0,2.2-1.8,4-4,4c-2.2,0-4-1.8-4-4s1.8-4,4-4C142.9,132.9,144.7,134.7,144.7,136.9z"/>
	<animateMotion
	path="M0, 67 0 -35 0 67"
	begin="0s" 
	dur="3s" 
	repeatCount="indefinite"
	/>
</g>

<g>
<path id="svg-concept" class="bal1" d="M254.8,99c0,2.2-1.8,4-4,4c-2.2,0-4-1.8-4-4c0-2.2,1.8-4,4-4C253,95,254.8,96.8,254.8,99z"/>
	<animateMotion
	path="M0 0 -105 66 0 0"
	begin="0s" 
	dur="3s" 
	repeatCount="indefinite"
	/>
</g>

<g>
<path id="svg-concept" class="bal1" d="M317,211.8c0,2.2-1.8,4-4,4c-2.2,0-4-1.8-4-4c0-2.2,1.8-4,4-4C315.2,207.8,317,209.6,317,211.8z"/>
	<animateMotion
	path="M570, 0 -165 0 570 0"
	begin="0s" 
	dur="12s" 
	repeatCount="indefinite"
	/>
</g>

<g>
<path id="svg-concept" class="bal1" d="M518.2,139.9c0,2.2-1.8,4-4,4c-2.2,0-4-1.8-4-4c0-2.2,1.8-4,4-4C516.4,135.9,518.2,137.7,518.2,139.9z"/>
	<animateMotion
	path="M0, 67 0 -35 0 67"
	begin="0s" 
	dur="4s" 
	repeatCount="indefinite"
	/>
</g>

<g>
<path id="svg-concept" class="bal1" d="M783.2,99c0,2.2-1.8,4-4,4c-2.2,0-4-1.8-4-4s1.8-4,4-4C781.4,95,783.2,96.8,783.2,99z"/>
	<animateMotion
	path="M0 0 105 66 0 0"
	begin="0s" 
	dur="3s" 
	repeatCount="indefinite"
	/>
</g>

<g>
<path id="svg-concept" class="bal1" d="M1002.1,99c0,2.2-1.8,4-4,4c-2.2,0-4-1.8-4-4s1.8-4,4-4C1000.3,95,1002.1,96.8,1002.1,99z"/>
	<animateMotion
	path="M0 0 -105 66 0 0"
	begin="0s" 
	dur="4s" 
	repeatCount="indefinite"
	/>
</g>
</svg>
