<?xml version="1.0" encoding="utf-8"?>
<!-- Generator: Adobe Illustrator 22.0.0, SVG Export Plug-In . SVG Version: 6.00 Build 0)  -->
<svg version="1.1" id="Layer_1" xmlns="http://www.w3.org/2000/svg" xmlns:xlink="http://www.w3.org/1999/xlink" x="0px" y="0px"
	 viewBox="0 0 919.6 463.5" xml:space="preserve">
<style type="text/css">
	.vps0{fill:none;stroke:#FFFFFF;stroke-linecap:round;stroke-linejoin:round;stroke-miterlimit:10;}
	.vps1{fill:none;stroke:#ee5586;stroke-linecap:round;stroke-linejoin:round;stroke-miterlimit:10;}
	.vps2{fill:none;stroke:#808080;stroke-linecap:round;stroke-linejoin:round;stroke-miterlimit:10;}
	.vps3{fill:none;stroke:#FFFFFF;stroke-width:3;stroke-linecap:round;stroke-linejoin:round;stroke-miterlimit:10;}
	.vps4{fill:none;stroke:#ee5586;stroke-width:3;stroke-linecap:round;stroke-linejoin:round;stroke-miterlimit:10;}
	.vps5{fill:none;stroke:#000000;stroke-linecap:round;stroke-linejoin:round;stroke-miterlimit:10;}
</style>
<line class="vps0" x1="309.6" y1="201.5" x2="309.6" y2="286.9"/>
<line class="vps0" x1="168.5" y1="307.5" x2="168.5" y2="427"/>
<line class="vps0" x1="708.5" y1="307.5" x2="708.5" y2="427.5"/>
<line class="vps0" x1="308.1" y1="307.5" x2="308.1" y2="427.5"/>
<line class="vps0" x1="444.2" y1="307.5" x2="444.2" y2="427.5"/>
<line class="vps0" x1="580.3" y1="307.5" x2="580.3" y2="427.5"/>
<path id="svg-concept" class="vps1" d="M439.7,226.6c0,1.7-1.3,3-3,3c-1.7,0-3-1.3-3-3c0-1.7,1.3-3,3-3C438.4,223.7,439.7,225,439.7,226.6z"/>
<path class="vps2" d="M439.7,217.8c0,1.7-1.3,3-3,3c-1.7,0-3-1.3-3-3s1.3-3,3-3C438.4,214.8,439.7,216.1,439.7,217.8z"/>
<path id="svg-concept" class="vps1" d="M806.5,261.5c0,11.6-9.4,21.1-21,21.1c-11.6,0-21-9.4-21-21.1c0-11.6,9.4-21,21-21
	C797.1,240.5,806.5,249.9,806.5,261.5z"/>
<path id="svg-concept" class="vps1" d="M793.3,261.5c0,4.3-3.5,7.8-7.8,7.8c-4.3,0-7.8-3.5-7.8-7.8s3.5-7.8,7.8-7.8
	C789.8,253.7,793.3,257.2,793.3,261.5z"/>
<path class="vps3" d="M279.6,287.2v-69.9c0-8.7,7.2-15.8,16-15.8h60.4"/>
<path class="vps3" d="M676.8,201.5h186.8c8.8,0,16,7.1,16,15.8v91.3c0,8.7-7.2,15.8-16,15.8H761.4"/>
<line class="vps3" x1="540.6" y1="201.5" x2="630.2" y2="201.5"/>
<line class="vps3" x1="402.8" y1="201.5" x2="494" y2="201.5"/>
<line class="vps0" x1="849.6" y1="201.5" x2="849.6" y2="324.5"/>
<path class="vps2" d="M441.6,258H323.9c-1.6,0-3-1.4-3-3v-15.3c0-1.7,1.4-3,3-3h117.7c1.6,0,3,1.3,3,3V255
	C444.6,256.6,443.3,258,441.6,258z"/>
<path class="vps2" d="M326.9,231.7h-4c-1.1,0-2-0.9-2-2v-4c0-1.1,0.9-2,2-2h4c1.1,0,2,0.9,2,2v4C328.9,230.8,328,231.7,326.9,231.7z"
	/>
<path class="vps2" d="M326.9,220.8h-4c-1.1,0-2-0.9-2-2v-4c0-1.1,0.9-2,2-2h4c1.1,0,2,0.9,2,2v4C328.9,219.9,328,220.8,326.9,220.8z"
	/>
<path class="vps2" d="M337.9,231.7h-4c-1.1,0-2-0.9-2-2v-4c0-1.1,0.9-2,2-2h4c1.1,0,2,0.9,2,2v4C339.9,230.8,339,231.7,337.9,231.7z"
	/>
<path class="vps2" d="M337.9,220.8h-4c-1.1,0-2-0.9-2-2v-4c0-1.1,0.9-2,2-2h4c1.1,0,2,0.9,2,2v4C339.9,219.9,339,220.8,337.9,220.8z"
	/>
<path class="vps2" d="M348.8,231.7h-4c-1.1,0-2-0.9-2-2v-4c0-1.1,0.9-2,2-2h4c1.1,0,2,0.9,2,2v4C350.8,230.8,349.9,231.7,348.8,231.7
	z"/>
<path class="vps2" d="M348.8,220.8h-4c-1.1,0-2-0.9-2-2v-4c0-1.1,0.9-2,2-2h4c1.1,0,2,0.9,2,2v4C350.8,219.9,349.9,220.8,348.8,220.8
	z"/>
<path class="vps2" d="M359.7,231.7h-4c-1.1,0-2-0.9-2-2v-4c0-1.1,0.9-2,2-2h4c1.1,0,2,0.9,2,2v4C361.7,230.8,360.8,231.7,359.7,231.7
	z"/>
<path class="vps2" d="M359.7,220.8h-4c-1.1,0-2-0.9-2-2v-4c0-1.1,0.9-2,2-2h4c1.1,0,2,0.9,2,2v4C361.7,219.9,360.8,220.8,359.7,220.8
	z"/>
<path class="vps2" d="M370.6,220.8h-4c-1.1,0-2-0.9-2-2v-4c0-1.1,0.9-2,2-2h4c1.1,0,2,0.9,2,2v4C372.6,219.9,371.7,220.8,370.6,220.8
	z"/>
<path class="vps2" d="M381.6,231.7h-4c-1.1,0-2-0.9-2-2v-4c0-1.1,0.9-2,2-2h4c1.1,0,2,0.9,2,2v4C383.6,230.8,382.7,231.7,381.6,231.7
	z"/>
<path class="vps2" d="M381.6,220.8h-4c-1.1,0-2-0.9-2-2v-4c0-1.1,0.9-2,2-2h4c1.1,0,2,0.9,2,2v4C383.6,219.9,382.7,220.8,381.6,220.8
	z"/>
<path class="vps2" d="M392.5,231.7h-4c-1.1,0-2-0.9-2-2v-4c0-1.1,0.9-2,2-2h4c1.1,0,2,0.9,2,2v4C394.5,230.8,393.6,231.7,392.5,231.7
	z"/>
<path class="vps2" d="M425.3,220.8l-36.8,0c-1.1,0-2-0.9-2-2v-4c0-1.1,0.9-2,2-2l36.8,0c1.1,0,2,0.9,2,2v4
	C427.3,219.9,426.4,220.8,425.3,220.8z"/>
<path class="vps2" d="M403.4,231.7h-4c-1.1,0-2-0.9-2-2v-4c0-1.1,0.9-2,2-2h4c1.1,0,2,0.9,2,2v4C405.4,230.8,404.5,231.7,403.4,231.7
	z"/>
<path class="vps2" d="M414.4,231.7h-4c-1.1,0-2-0.9-2-2v-4c0-1.1,0.9-2,2-2h4c1.1,0,2,0.9,2,2v4C416.4,230.8,415.5,231.7,414.4,231.7
	z"/>
<path class="vps2" d="M425.3,231.7h-4c-1.1,0-2-0.9-2-2v-4c0-1.1,0.9-2,2-2h4c1.1,0,2,0.9,2,2v4C427.3,230.8,426.4,231.7,425.3,231.7
	z"/>
<path class="vps2" d="M439.7,277.6c0,1.7-1.3,3-3,3c-1.7,0-3-1.3-3-3s1.3-3,3-3C438.4,274.6,439.7,276,439.7,277.6z"/>
<path class="vps2" d="M439.7,268.8c0,1.7-1.3,3-3,3c-1.7,0-3-1.3-3-3s1.3-3,3-3C438.4,265.8,439.7,267.1,439.7,268.8z"/>
<path class="vps2" d="M326.9,282.6h-4c-1.1,0-2-0.9-2-2v-4c0-1.1,0.9-2,2-2h4c1.1,0,2,0.9,2,2v4C328.9,281.7,328,282.6,326.9,282.6z"
	/>
<path class="vps2" d="M337.9,271.8h-14.9c-1.1,0-2-0.9-2-2v-4c0-1.1,0.9-2,2-2h14.9c1.1,0,2,0.9,2,2v4
	C339.9,270.9,339,271.8,337.9,271.8z"/>
<path class="vps2" d="M337.9,282.6h-4c-1.1,0-2-0.9-2-2v-4c0-1.1,0.9-2,2-2h4c1.1,0,2,0.9,2,2v4C339.9,281.7,339,282.6,337.9,282.6z"
	/>
<path class="vps2" d="M348.8,282.6h-4c-1.1,0-2-0.9-2-2v-4c0-1.1,0.9-2,2-2h4c1.1,0,2,0.9,2,2v4C350.8,281.7,349.9,282.6,348.8,282.6
	z"/>
<path class="vps2" d="M348.8,271.8h-4c-1.1,0-2-0.9-2-2v-4c0-1.1,0.9-2,2-2h4c1.1,0,2,0.9,2,2v4C350.8,270.9,349.9,271.8,348.8,271.8
	z"/>
<path class="vps2" d="M359.7,282.6h-4c-1.1,0-2-0.9-2-2v-4c0-1.1,0.9-2,2-2h4c1.1,0,2,0.9,2,2v4C361.7,281.7,360.8,282.6,359.7,282.6
	z"/>
<path class="vps2" d="M359.7,271.8h-4c-1.1,0-2-0.9-2-2v-4c0-1.1,0.9-2,2-2h4c1.1,0,2,0.9,2,2v4C361.7,270.9,360.8,271.8,359.7,271.8
	z"/>
<path class="vps2" d="M370.6,282.6h-4c-1.1,0-2-0.9-2-2v-4c0-1.1,0.9-2,2-2h4c1.1,0,2,0.9,2,2v4C372.6,281.7,371.7,282.6,370.6,282.6
	z"/>
<path class="vps2" d="M370.6,271.8h-4c-1.1,0-2-0.9-2-2v-4c0-1.1,0.9-2,2-2h4c1.1,0,2,0.9,2,2v4C372.6,270.9,371.7,271.8,370.6,271.8
	z"/>
<path class="vps2" d="M381.6,282.6h-4c-1.1,0-2-0.9-2-2v-4c0-1.1,0.9-2,2-2h4c1.1,0,2,0.9,2,2v4C383.6,281.7,382.7,282.6,381.6,282.6
	z"/>
<path class="vps2" d="M381.6,271.8h-4c-1.1,0-2-0.9-2-2v-4c0-1.1,0.9-2,2-2h4c1.1,0,2,0.9,2,2v4C383.6,270.9,382.7,271.8,381.6,271.8
	z"/>
<path class="vps2" d="M392.5,282.6h-4c-1.1,0-2-0.9-2-2v-4c0-1.1,0.9-2,2-2h4c1.1,0,2,0.9,2,2v4C394.5,281.7,393.6,282.6,392.5,282.6
	z"/>
<path class="vps2" d="M403.4,271.8h-4c-1.1,0-2-0.9-2-2v-4c0-1.1,0.9-2,2-2h4c1.1,0,2,0.9,2,2v4C405.4,270.9,404.5,271.8,403.4,271.8
	z"/>
<path class="vps2" d="M414.4,282.6h-4c-1.1,0-2-0.9-2-2v-4c0-1.1,0.9-2,2-2h4c1.1,0,2,0.9,2,2v4C416.4,281.7,415.5,282.6,414.4,282.6
	z"/>
<path class="vps2" d="M414.4,271.8h-4c-1.1,0-2-0.9-2-2v-4c0-1.1,0.9-2,2-2h4c1.1,0,2,0.9,2,2v4C416.4,270.9,415.5,271.8,414.4,271.8
	z"/>
<path class="vps2" d="M425.3,282.6h-4c-1.1,0-2-0.9-2-2v-4c0-1.1,0.9-2,2-2h4c1.1,0,2,0.9,2,2v4C427.3,281.7,426.4,282.6,425.3,282.6
	z"/>
<path class="vps2" d="M425.3,271.8h-4c-1.1,0-2-0.9-2-2v-4c0-1.1,0.9-2,2-2h4c1.1,0,2,0.9,2,2v4C427.3,270.9,426.4,271.8,425.3,271.8
	z"/>
<path class="vps2" d="M574.7,226.6c0,1.7-1.3,3-3,3c-1.7,0-3-1.3-3-3c0-1.7,1.3-3,3-3C573.4,223.7,574.7,225,574.7,226.6z"/>
<path class="vps2" d="M574.7,217.8c0,1.7-1.3,3-3,3c-1.7,0-3-1.3-3-3s1.3-3,3-3C573.4,214.8,574.7,216.1,574.7,217.8z"/>
<path class="vps2" d="M576.6,258H459c-1.6,0-3-1.4-3-3v-15.3c0-1.7,1.4-3,3-3h117.7c1.7,0,3,1.3,3,3V255
	C579.6,256.6,578.3,258,576.6,258z"/>
<path class="vps2" d="M462,231.7h-4c-1.1,0-2-0.9-2-2v-4c0-1.1,0.9-2,2-2h4c1.1,0,2,0.9,2,2v4C464,230.8,463.1,231.7,462,231.7z"/>
<path class="vps2" d="M462,220.8h-4c-1.1,0-2-0.9-2-2v-4c0-1.1,0.9-2,2-2h4c1.1,0,2,0.9,2,2v4C464,219.9,463.1,220.8,462,220.8z"/>
<path class="vps2" d="M472.9,231.7h-4c-1.1,0-2-0.9-2-2v-4c0-1.1,0.9-2,2-2h4c1.1,0,2,0.9,2,2v4C474.9,230.8,474,231.7,472.9,231.7z"
	/>
<path class="vps2" d="M472.9,220.8h-4c-1.1,0-2-0.9-2-2v-4c0-1.1,0.9-2,2-2h4c1.1,0,2,0.9,2,2v4C474.9,219.9,474,220.8,472.9,220.8z"
	/>
<path class="vps2" d="M516.6,231.7h-36.8c-1.1,0-2-0.9-2-2v-4c0-1.1,0.9-2,2-2h36.8c1.1,0,2,0.9,2,2v4
	C518.6,230.8,517.7,231.7,516.6,231.7z"/>
<path class="vps2" d="M483.8,220.8h-4c-1.1,0-2-0.9-2-2v-4c0-1.1,0.9-2,2-2h4c1.1,0,2,0.9,2,2v4C485.8,219.9,484.9,220.8,483.8,220.8
	z"/>
<path class="vps2" d="M494.7,220.8h-4c-1.1,0-2-0.9-2-2v-4c0-1.1,0.9-2,2-2h4c1.1,0,2,0.9,2,2v4C496.7,219.9,495.8,220.8,494.7,220.8
	z"/>
<path class="vps2" d="M505.7,220.8h-4c-1.1,0-2-0.9-2-2v-4c0-1.1,0.9-2,2-2h4c1.1,0,2,0.9,2,2v4C507.7,219.9,506.8,220.8,505.7,220.8
	z"/>
<path class="vps2" d="M516.6,220.8h-4c-1.1,0-2-0.9-2-2v-4c0-1.1,0.9-2,2-2h4c1.1,0,2,0.9,2,2v4C518.6,219.9,517.7,220.8,516.6,220.8
	z"/>
<path class="vps2" d="M527.5,231.7h-4c-1.1,0-2-0.9-2-2v-4c0-1.1,0.9-2,2-2h4c1.1,0,2,0.9,2,2v4C529.5,230.8,528.6,231.7,527.5,231.7
	z"/>
<path class="vps2" d="M527.5,220.8h-4c-1.1,0-2-0.9-2-2v-4c0-1.1,0.9-2,2-2h4c1.1,0,2,0.9,2,2v4C529.5,219.9,528.6,220.8,527.5,220.8
	z"/>
<path class="vps2" d="M538.5,231.7h-4c-1.1,0-2-0.9-2-2v-4c0-1.1,0.9-2,2-2h4c1.1,0,2,0.9,2,2v4C540.5,230.8,539.6,231.7,538.5,231.7
	z"/>
<path class="vps2" d="M549.4,231.7h-4c-1.1,0-2-0.9-2-2v-4c0-1.1,0.9-2,2-2h4c1.1,0,2,0.9,2,2v4C551.4,230.8,550.5,231.7,549.4,231.7
	z"/>
<path class="vps2" d="M549.4,220.8h-4c-1.1,0-2-0.9-2-2v-4c0-1.1,0.9-2,2-2h4c1.1,0,2,0.9,2,2v4C551.4,219.9,550.5,220.8,549.4,220.8
	z"/>
<path class="vps2" d="M560.3,231.7h-4c-1.1,0-2-0.9-2-2v-4c0-1.1,0.9-2,2-2h4c1.1,0,2,0.9,2,2v4C562.3,230.8,561.4,231.7,560.3,231.7
	z"/>
<path class="vps2" d="M560.3,220.8h-4c-1.1,0-2-0.9-2-2v-4c0-1.1,0.9-2,2-2h4c1.1,0,2,0.9,2,2v4C562.3,219.9,561.4,220.8,560.3,220.8
	z"/>
<path id="svg-concept" class="vps1" d="M574.7,277.6c0,1.7-1.3,3-3,3c-1.7,0-3-1.3-3-3s1.3-3,3-3C573.4,274.6,574.7,276,574.7,277.6z"/>
<path class="vps2" d="M574.7,268.8c0,1.7-1.3,3-3,3c-1.7,0-3-1.3-3-3s1.3-3,3-3C573.4,265.8,574.7,267.1,574.7,268.8z"/>
<path class="vps2" d="M462,282.6h-4c-1.1,0-2-0.9-2-2v-4c0-1.1,0.9-2,2-2h4c1.1,0,2,0.9,2,2v4C464,281.7,463.1,282.6,462,282.6z"/>
<path class="vps2" d="M462,271.8h-4c-1.1,0-2-0.9-2-2v-4c0-1.1,0.9-2,2-2h4c1.1,0,2,0.9,2,2v4C464,270.9,463.1,271.8,462,271.8z"/>
<path class="vps2" d="M472.9,282.6h-4c-1.1,0-2-0.9-2-2v-4c0-1.1,0.9-2,2-2h4c1.1,0,2,0.9,2,2v4C474.9,281.7,474,282.6,472.9,282.6z"
	/>
<path class="vps2" d="M483.8,282.6h-4c-1.1,0-2-0.9-2-2v-4c0-1.1,0.9-2,2-2h4c1.1,0,2,0.9,2,2v4C485.8,281.7,484.9,282.6,483.8,282.6
	z"/>
<path class="vps2" d="M483.8,271.8h-4c-1.1,0-2-0.9-2-2v-4c0-1.1,0.9-2,2-2h4c1.1,0,2,0.9,2,2v4C485.8,270.9,484.9,271.8,483.8,271.8
	z"/>
<path class="vps2" d="M494.7,282.6h-4c-1.1,0-2-0.9-2-2v-4c0-1.1,0.9-2,2-2h4c1.1,0,2,0.9,2,2v4C496.7,281.7,495.8,282.6,494.7,282.6
	z"/>
<path class="vps2" d="M494.7,271.8h-4c-1.1,0-2-0.9-2-2v-4c0-1.1,0.9-2,2-2h4c1.1,0,2,0.9,2,2v4C496.7,270.9,495.8,271.8,494.7,271.8
	z"/>
<path class="vps2" d="M505.7,282.6h-4c-1.1,0-2-0.9-2-2v-4c0-1.1,0.9-2,2-2h4c1.1,0,2,0.9,2,2v4C507.7,281.7,506.8,282.6,505.7,282.6
	z"/>
<path class="vps2" d="M505.7,271.8h-4c-1.1,0-2-0.9-2-2v-4c0-1.1,0.9-2,2-2h4c1.1,0,2,0.9,2,2v4C507.7,270.9,506.8,271.8,505.7,271.8
	z"/>
<path class="vps2" d="M516.6,282.6h-4c-1.1,0-2-0.9-2-2v-4c0-1.1,0.9-2,2-2h4c1.1,0,2,0.9,2,2v4C518.6,281.7,517.7,282.6,516.6,282.6
	z"/>
<path class="vps2" d="M516.6,271.8h-4c-1.1,0-2-0.9-2-2v-4c0-1.1,0.9-2,2-2h4c1.1,0,2,0.9,2,2v4C518.6,270.9,517.7,271.8,516.6,271.8
	z"/>
<path class="vps2" d="M560.3,282.6h-36.8c-1.1,0-2-0.9-2-2v-4c0-1.1,0.9-2,2-2h36.8c1.1,0,2,0.9,2,2v4
	C562.3,281.7,561.4,282.6,560.3,282.6z"/>
<path class="vps2" d="M527.5,271.8h-4c-1.1,0-2-0.9-2-2v-4c0-1.1,0.9-2,2-2h4c1.1,0,2,0.9,2,2v4C529.5,270.9,528.6,271.8,527.5,271.8
	z"/>
<path class="vps2" d="M538.5,271.8h-4c-1.1,0-2-0.9-2-2v-4c0-1.1,0.9-2,2-2h4c1.1,0,2,0.9,2,2v4C540.5,270.9,539.6,271.8,538.5,271.8
	z"/>
<path class="vps2" d="M549.4,271.8h-4c-1.1,0-2-0.9-2-2v-4c0-1.1,0.9-2,2-2h4c1.1,0,2,0.9,2,2v4C551.4,270.9,550.5,271.8,549.4,271.8
	z"/>
<path class="vps2" d="M560.3,271.8h-4c-1.1,0-2-0.9-2-2v-4c0-1.1,0.9-2,2-2h4c1.1,0,2,0.9,2,2v4C562.3,270.9,561.4,271.8,560.3,271.8
	z"/>
<path id="svg-concept" class="vps1" d="M709.7,226.6c0,1.7-1.3,3-3,3c-1.7,0-3-1.3-3-3c0-1.7,1.3-3,3-3C708.4,223.7,709.7,225,709.7,226.6z"/>
<path id="svg-concept" class="vps1" d="M829.8,269c-1.7,0-3-1.3-3-3c0-1.7,1.3-3,3-3s3,1.3,3,3C832.8,267.6,831.5,269,829.8,269z"/>
<path id="svg-concept" class="vps1" d="M829.8,280.4c-1.7,0-3-1.3-3-3c0-1.7,1.3-3,3-3s3,1.3,3,3C832.8,279.1,831.5,280.4,829.8,280.4z"/>
<path class="vps2" d="M709.7,217.8c0,1.7-1.3,3-3,3c-1.7,0-3-1.3-3-3s1.3-3,3-3C708.4,214.8,709.7,216.1,709.7,217.8z"/>
<path class="vps2" d="M711.6,258H594c-1.7,0-3-1.4-3-3v-15.3c0-1.7,1.3-3,3-3h117.7c1.7,0,3,1.3,3,3V255
	C714.6,256.6,713.3,258,711.6,258z"/>
<path class="vps2" d="M597,231.7h-4c-1.1,0-2-0.9-2-2v-4c0-1.1,0.9-2,2-2h4c1.1,0,2,0.9,2,2v4C599,230.8,598.1,231.7,597,231.7z"/>
<path class="vps2" d="M597,220.8h-4c-1.1,0-2-0.9-2-2v-4c0-1.1,0.9-2,2-2h4c1.1,0,2,0.9,2,2v4C599,219.9,598.1,220.8,597,220.8z"/>
<path class="vps2" d="M607.9,231.7h-4c-1.1,0-2-0.9-2-2v-4c0-1.1,0.9-2,2-2h4c1.1,0,2,0.9,2,2v4C609.9,230.8,609,231.7,607.9,231.7z"
	/>
<path class="vps2" d="M607.9,220.8h-4c-1.1,0-2-0.9-2-2v-4c0-1.1,0.9-2,2-2h4c1.1,0,2,0.9,2,2v4C609.9,219.9,609,220.8,607.9,220.8z"
	/>
<path class="vps2" d="M618.8,231.7h-4c-1.1,0-2-0.9-2-2v-4c0-1.1,0.9-2,2-2h4c1.1,0,2,0.9,2,2v4C620.8,230.8,619.9,231.7,618.8,231.7
	z"/>
<path class="vps2" d="M640.7,220.8h-25.9c-1.1,0-2-0.9-2-2v-4c0-1.1,0.9-2,2-2h25.9c1.1,0,2,0.9,2,2v4
	C642.7,219.9,641.8,220.8,640.7,220.8z"/>
<path class="vps2" d="M629.7,231.7h-4c-1.1,0-2-0.9-2-2v-4c0-1.1,0.9-2,2-2h4c1.1,0,2,0.9,2,2v4C631.7,230.8,630.8,231.7,629.7,231.7
	z"/>
<path class="vps2" d="M640.7,231.7h-4c-1.1,0-2-0.9-2-2v-4c0-1.1,0.9-2,2-2h4c1.1,0,2,0.9,2,2v4C642.7,230.8,641.8,231.7,640.7,231.7
	z"/>
<path class="vps2" d="M651.6,231.7h-4c-1.1,0-2-0.9-2-2v-4c0-1.1,0.9-2,2-2h4c1.1,0,2,0.9,2,2v4C653.6,230.8,652.7,231.7,651.6,231.7
	z"/>
<path class="vps2" d="M651.6,220.8h-4c-1.1,0-2-0.9-2-2v-4c0-1.1,0.9-2,2-2h4c1.1,0,2,0.9,2,2v4C653.6,219.9,652.7,220.8,651.6,220.8
	z"/>
<path class="vps2" d="M662.5,220.8h-4c-1.1,0-2-0.9-2-2v-4c0-1.1,0.9-2,2-2h4c1.1,0,2,0.9,2,2v4C664.5,219.9,663.6,220.8,662.5,220.8
	z"/>
<path class="vps2" d="M673.5,231.7h-4c-1.1,0-2-0.9-2-2v-4c0-1.1,0.9-2,2-2h4c1.1,0,2,0.9,2,2v4C675.5,230.8,674.6,231.7,673.5,231.7
	z"/>
<path class="vps2" d="M673.5,220.8h-4c-1.1,0-2-0.9-2-2v-4c0-1.1,0.9-2,2-2h4c1.1,0,2,0.9,2,2v4C675.5,219.9,674.6,220.8,673.5,220.8
	z"/>
<path class="vps2" d="M684.4,231.7h-4c-1.1,0-2-0.9-2-2v-4c0-1.1,0.9-2,2-2h4c1.1,0,2,0.9,2,2v4C686.4,230.8,685.5,231.7,684.4,231.7
	z"/>
<path class="vps2" d="M695.3,231.7h-4c-1.1,0-2-0.9-2-2v-4c0-1.1,0.9-2,2-2h4c1.1,0,2,0.9,2,2v4C697.3,230.8,696.4,231.7,695.3,231.7
	z"/>
<path class="vps2" d="M695.3,220.8h-4c-1.1,0-2-0.9-2-2v-4c0-1.1,0.9-2,2-2h4c1.1,0,2,0.9,2,2v4C697.3,219.9,696.4,220.8,695.3,220.8
	z"/>
<path class="vps2" d="M709.7,277.6c0,1.7-1.3,3-3,3c-1.7,0-3-1.3-3-3s1.3-3,3-3C708.4,274.6,709.7,276,709.7,277.6z"/>
<path class="vps2" d="M709.7,268.8c0,1.7-1.3,3-3,3c-1.7,0-3-1.3-3-3s1.3-3,3-3C708.4,265.8,709.7,267.1,709.7,268.8z"/>
<path class="vps2" d="M597,282.6h-4c-1.1,0-2-0.9-2-2v-4c0-1.1,0.9-2,2-2h4c1.1,0,2,0.9,2,2v4C599,281.7,598.1,282.6,597,282.6z"/>
<path class="vps2" d="M607.9,271.8h-4c-1.1,0-2-0.9-2-2v-4c0-1.1,0.9-2,2-2h4c1.1,0,2,0.9,2,2v4C609.9,270.9,609,271.8,607.9,271.8z"
	/>
<path class="vps2" d="M618.8,282.6h-4c-1.1,0-2-0.9-2-2v-4c0-1.1,0.9-2,2-2h4c1.1,0,2,0.9,2,2v4C620.8,281.7,619.9,282.6,618.8,282.6
	z"/>
<path class="vps2" d="M618.8,271.8h-4c-1.1,0-2-0.9-2-2v-4c0-1.1,0.9-2,2-2h4c1.1,0,2,0.9,2,2v4C620.8,270.9,619.9,271.8,618.8,271.8
	z"/>
<path class="vps2" d="M629.7,282.6h-4c-1.1,0-2-0.9-2-2v-4c0-1.1,0.9-2,2-2h4c1.1,0,2,0.9,2,2v4C631.7,281.7,630.8,282.6,629.7,282.6
	z"/>
<path class="vps2" d="M629.7,271.8h-4c-1.1,0-2-0.9-2-2v-4c0-1.1,0.9-2,2-2h4c1.1,0,2,0.9,2,2v4C631.7,270.9,630.8,271.8,629.7,271.8
	z"/>
<path class="vps2" d="M640.7,282.6h-4c-1.1,0-2-0.9-2-2v-4c0-1.1,0.9-2,2-2h4c1.1,0,2,0.9,2,2v4C642.7,281.7,641.8,282.6,640.7,282.6
	z"/>
<path class="vps2" d="M673.4,271.8h-36.8c-1.1,0-2-0.9-2-2v-4c0-1.1,0.9-2,2-2h36.8c1.1,0,2,0.9,2,2v4
	C675.4,270.9,674.5,271.8,673.4,271.8z"/>
<path class="vps2" d="M651.6,282.6h-4c-1.1,0-2-0.9-2-2v-4c0-1.1,0.9-2,2-2h4c1.1,0,2,0.9,2,2v4C653.6,281.7,652.7,282.6,651.6,282.6
	z"/>
<path class="vps2" d="M662.5,282.6h-4c-1.1,0-2-0.9-2-2v-4c0-1.1,0.9-2,2-2h4c1.1,0,2,0.9,2,2v4C664.5,281.7,663.6,282.6,662.5,282.6
	z"/>
<path class="vps2" d="M673.5,282.6h-4c-1.1,0-2-0.9-2-2v-4c0-1.1,0.9-2,2-2h4c1.1,0,2,0.9,2,2v4C675.5,281.7,674.6,282.6,673.5,282.6
	z"/>
<path class="vps2" d="M684.4,282.6h-4c-1.1,0-2-0.9-2-2v-4c0-1.1,0.9-2,2-2h4c1.1,0,2,0.9,2,2v4C686.4,281.7,685.5,282.6,684.4,282.6
	z"/>
<path class="vps2" d="M684.4,271.8h-4c-1.1,0-2-0.9-2-2v-4c0-1.1,0.9-2,2-2h4c1.1,0,2,0.9,2,2v4C686.4,270.9,685.5,271.8,684.4,271.8
	z"/>
<path class="vps2" d="M695.3,282.6h-4c-1.1,0-2-0.9-2-2v-4c0-1.1,0.9-2,2-2h4c1.1,0,2,0.9,2,2v4C697.3,281.7,696.4,282.6,695.3,282.6
	z"/>
<line class="vps2" x1="362.2" y1="236.6" x2="362.2" y2="258"/>
<line class="vps2" x1="403.4" y1="236.6" x2="403.4" y2="258"/>
<line class="vps2" x1="497.2" y1="236.6" x2="497.2" y2="258"/>
<line class="vps2" x1="538.4" y1="236.6" x2="538.4" y2="258"/>
<line class="vps2" x1="632.2" y1="236.6" x2="632.2" y2="258"/>
<line class="vps2" x1="673.4" y1="236.6" x2="673.4" y2="258"/>
<path class="vps2" d="M420.7,254.7h-11c-1.1,0-2-0.9-2-2v-11c0-1.1,0.9-2,2-2h11c1.1,0,2,0.9,2,2v11
	C422.7,253.8,421.8,254.7,420.7,254.7z"/>
<path class="vps2" d="M439.1,254.7h-11c-1.1,0-2-0.9-2-2v-11c0-1.1,0.9-2,2-2h11c1.1,0,2,0.9,2,2v11
	C441.1,253.8,440.2,254.7,439.1,254.7z"/>
<path class="vps2" d="M555.3,254.7h-11c-1.1,0-2-0.9-2-2v-11c0-1.1,0.9-2,2-2h11c1.1,0,2,0.9,2,2v11
	C557.3,253.8,556.4,254.7,555.3,254.7z"/>
<path class="vps2" d="M573.8,254.7h-11c-1.1,0-2-0.9-2-2v-11c0-1.1,0.9-2,2-2h11c1.1,0,2,0.9,2,2v11
	C575.8,253.8,574.9,254.7,573.8,254.7z"/>
<path class="vps2" d="M690.8,254.7h-11c-1.1,0-2-0.9-2-2v-11c0-1.1,0.9-2,2-2h11c1.1,0,2,0.9,2,2v11
	C692.8,253.8,691.9,254.7,690.8,254.7z"/>
<path class="vps2" d="M709.2,254.7h-11c-1.1,0-2-0.9-2-2v-11c0-1.1,0.9-2,2-2h11c1.1,0,2,0.9,2,2v11
	C711.2,253.8,710.3,254.7,709.2,254.7z"/>
<line class="vps0" x1="449.2" y1="201.5" x2="449.2" y2="287.2"/>
<line class="vps2" x1="295.1" y1="222.1" x2="295.1" y2="251.3"/>
<line class="vps2" x1="864.4" y1="222.1" x2="864.4" y2="251.3"/>
<line id="svg-concept" class="vps1" x1="806.5" y1="261.6" x2="793.3" y2="261.6"/>
<line id="svg-concept" class="vps1" x1="777.7" y1="261.6" x2="764.4" y2="261.6"/>
<line class="vps0" x1="585.4" y1="201.5" x2="585.4" y2="287.2"/>
<line class="vps0" x1="721.5" y1="201.5" x2="721.5" y2="287.2"/>
<path id="svg-concept" class="vps1" d="M298.5,332.6c0,1.7-1.3,3-3,3c-1.7,0-3-1.3-3-3s1.3-3,3-3C297.2,329.6,298.5,331,298.5,332.6z"/>
<path class="vps0" d="M298.5,323.8c0,1.7-1.3,3-3,3c-1.7,0-3-1.3-3-3s1.3-3,3-3C297.2,320.8,298.5,322.1,298.5,323.8z"/>
<path id="svg-concept" class="vps1" d="M665.3,367.5c0,11.6-9.4,21.1-21,21.1c-11.6,0-21-9.4-21-21.1c0-11.6,9.4-21,21-21
	C655.9,346.5,665.3,355.9,665.3,367.5z"/>
<path id="svg-concept" class="vps1" d="M652.1,367.5c0,4.3-3.5,7.8-7.8,7.8c-4.3,0-7.8-3.5-7.8-7.8s3.5-7.8,7.8-7.8
	C648.6,359.7,652.1,363.2,652.1,367.5z"/>
<path id="svg-concept" class="vps4" d="M535.7,307.5h186.8c8.8,0,16,7.1,16,15.8v88.3c0,8.7-7.2,15.8-16,15.8H154.5c-8.9,0-16-7.1-16-15.8v-88.3
	c0-8.7,7.2-15.8,16-15.8h60.4"/>
<line id="svg-concept" class="vps4" x1="399.5" y1="307.5" x2="489" y2="307.5"/>
<line id="svg-concept" class="vps4" x1="261.6" y1="307.5" x2="352.8" y2="307.5"/>
<path class="vps0" d="M300.4,415.3H182.7c-1.6,0-3-1.3-3-3v-15.3c0-1.6,1.4-3,3-3h117.7c1.6,0,3,1.4,3,3v15.3
	C303.4,413.9,302.1,415.3,300.4,415.3z"/>
<path class="vps0" d="M300.4,364H182.7c-1.6,0-3-1.4-3-3v-15.3c0-1.6,1.4-3,3-3h117.7c1.6,0,3,1.4,3,3V361
	C303.4,362.6,302.1,364,300.4,364z"/>
<path class="vps0" d="M185.7,337.6h-4c-1.1,0-2-0.9-2-2v-4c0-1.1,0.9-2,2-2h4c1.1,0,2,0.9,2,2v4C187.7,336.7,186.8,337.6,185.7,337.6
	z"/>
<path class="vps0" d="M185.7,326.8h-4c-1.1,0-2-0.9-2-2v-4c0-1.1,0.9-2,2-2h4c1.1,0,2,0.9,2,2v4C187.7,325.9,186.8,326.8,185.7,326.8
	z"/>
<path class="vps0" d="M196.7,337.6h-4c-1.1,0-2-0.9-2-2v-4c0-1.1,0.9-2,2-2h4c1.1,0,2,0.9,2,2v4C198.7,336.7,197.8,337.6,196.7,337.6
	z"/>
<path class="vps0" d="M196.7,326.8h-4c-1.1,0-2-0.9-2-2v-4c0-1.1,0.9-2,2-2h4c1.1,0,2,0.9,2,2v4C198.7,325.9,197.8,326.8,196.7,326.8
	z"/>
<path class="vps0" d="M207.6,337.6h-4c-1.1,0-2-0.9-2-2v-4c0-1.1,0.9-2,2-2h4c1.1,0,2,0.9,2,2v4C209.6,336.7,208.7,337.6,207.6,337.6
	z"/>
<path class="vps0" d="M207.6,326.8h-4c-1.1,0-2-0.9-2-2v-4c0-1.1,0.9-2,2-2h4c1.1,0,2,0.9,2,2v4C209.6,325.9,208.7,326.8,207.6,326.8
	z"/>
<path class="vps0" d="M218.5,337.6h-4c-1.1,0-2-0.9-2-2v-4c0-1.1,0.9-2,2-2h4c1.1,0,2,0.9,2,2v4C220.5,336.7,219.6,337.6,218.5,337.6
	z"/>
<path class="vps0" d="M218.5,326.8h-4c-1.1,0-2-0.9-2-2v-4c0-1.1,0.9-2,2-2h4c1.1,0,2,0.9,2,2v4C220.5,325.9,219.6,326.8,218.5,326.8
	z"/>
<path class="vps0" d="M229.5,326.8h-4c-1.1,0-2-0.9-2-2v-4c0-1.1,0.9-2,2-2h4c1.1,0,2,0.9,2,2v4C231.5,325.9,230.6,326.8,229.5,326.8
	z"/>
<path class="vps0" d="M240.4,337.6h-4c-1.1,0-2-0.9-2-2v-4c0-1.1,0.9-2,2-2h4c1.1,0,2,0.9,2,2v4C242.4,336.7,241.5,337.6,240.4,337.6
	z"/>
<path class="vps0" d="M240.4,326.8h-4c-1.1,0-2-0.9-2-2v-4c0-1.1,0.9-2,2-2h4c1.1,0,2,0.9,2,2v4C242.4,325.9,241.5,326.8,240.4,326.8
	z"/>
<path class="vps0" d="M251.3,337.6h-4c-1.1,0-2-0.9-2-2v-4c0-1.1,0.9-2,2-2h4c1.1,0,2,0.9,2,2v4C253.3,336.7,252.4,337.6,251.3,337.6
	z"/>
<path class="vps0" d="M284.1,326.8l-36.8,0c-1.1,0-2-0.9-2-2v-4c0-1.1,0.9-2,2-2l36.8,0c1.1,0,2,0.9,2,2v4
	C286.1,325.9,285.2,326.8,284.1,326.8z"/>
<path class="vps0" d="M262.3,337.6h-4c-1.1,0-2-0.9-2-2v-4c0-1.1,0.9-2,2-2h4c1.1,0,2,0.9,2,2v4C264.3,336.7,263.4,337.6,262.3,337.6
	z"/>
<path class="vps0" d="M273.2,337.6h-4c-1.1,0-2-0.9-2-2v-4c0-1.1,0.9-2,2-2h4c1.1,0,2,0.9,2,2v4C275.2,336.7,274.3,337.6,273.2,337.6
	z"/>
<path class="vps0" d="M284.1,337.6h-4c-1.1,0-2-0.9-2-2v-4c0-1.1,0.9-2,2-2h4c1.1,0,2,0.9,2,2v4C286.1,336.7,285.2,337.6,284.1,337.6
	z"/>
<path class="vps0" d="M298.5,383.6c0,1.7-1.3,3-3,3c-1.7,0-3-1.3-3-3c0-1.7,1.3-3,3-3C297.2,380.6,298.5,382,298.5,383.6z"/>
<path class="vps0" d="M298.5,374.8c0,1.7-1.3,3-3,3c-1.7,0-3-1.3-3-3c0-1.7,1.3-3,3-3C297.2,371.8,298.5,373.1,298.5,374.8z"/>
<path class="vps0" d="M185.7,388.6h-4c-1.1,0-2-0.9-2-2v-4c0-1.1,0.9-2,2-2h4c1.1,0,2,0.9,2,2v4C187.7,387.7,186.8,388.6,185.7,388.6
	z"/>
<path class="vps0" d="M196.7,377.8h-14.9c-1.1,0-2-0.9-2-2v-4c0-1.1,0.9-2,2-2h14.9c1.1,0,2,0.9,2,2v4
	C198.7,376.9,197.8,377.8,196.7,377.8z"/>
<path class="vps0" d="M196.7,388.6h-4c-1.1,0-2-0.9-2-2v-4c0-1.1,0.9-2,2-2h4c1.1,0,2,0.9,2,2v4C198.7,387.7,197.8,388.6,196.7,388.6
	z"/>
<path class="vps0" d="M207.6,388.6h-4c-1.1,0-2-0.9-2-2v-4c0-1.1,0.9-2,2-2h4c1.1,0,2,0.9,2,2v4C209.6,387.7,208.7,388.6,207.6,388.6
	z"/>
<path class="vps0" d="M207.6,377.8h-4c-1.1,0-2-0.9-2-2v-4c0-1.1,0.9-2,2-2h4c1.1,0,2,0.9,2,2v4C209.6,376.9,208.7,377.8,207.6,377.8
	z"/>
<path class="vps0" d="M218.5,388.6h-4c-1.1,0-2-0.9-2-2v-4c0-1.1,0.9-2,2-2h4c1.1,0,2,0.9,2,2v4C220.5,387.7,219.6,388.6,218.5,388.6
	z"/>
<path class="vps0" d="M218.5,377.8h-4c-1.1,0-2-0.9-2-2v-4c0-1.1,0.9-2,2-2h4c1.1,0,2,0.9,2,2v4C220.5,376.9,219.6,377.8,218.5,377.8
	z"/>
<path class="vps0" d="M229.5,388.6h-4c-1.1,0-2-0.9-2-2v-4c0-1.1,0.9-2,2-2h4c1.1,0,2,0.9,2,2v4C231.5,387.7,230.6,388.6,229.5,388.6
	z"/>
<path class="vps0" d="M229.5,377.8h-4c-1.1,0-2-0.9-2-2v-4c0-1.1,0.9-2,2-2h4c1.1,0,2,0.9,2,2v4C231.5,376.9,230.6,377.8,229.5,377.8
	z"/>
<path class="vps0" d="M240.4,388.6h-4c-1.1,0-2-0.9-2-2v-4c0-1.1,0.9-2,2-2h4c1.1,0,2,0.9,2,2v4C242.4,387.7,241.5,388.6,240.4,388.6
	z"/>
<path class="vps0" d="M240.4,377.8h-4c-1.1,0-2-0.9-2-2v-4c0-1.1,0.9-2,2-2h4c1.1,0,2,0.9,2,2v4C242.4,376.9,241.5,377.8,240.4,377.8
	z"/>
<path class="vps0" d="M251.3,388.6h-4c-1.1,0-2-0.9-2-2v-4c0-1.1,0.9-2,2-2h4c1.1,0,2,0.9,2,2v4C253.3,387.7,252.4,388.6,251.3,388.6
	z"/>
<path class="vps0" d="M262.3,377.8h-4c-1.1,0-2-0.9-2-2v-4c0-1.1,0.9-2,2-2h4c1.1,0,2,0.9,2,2v4C264.3,376.9,263.4,377.8,262.3,377.8
	z"/>
<path class="vps0" d="M273.2,388.6h-4c-1.1,0-2-0.9-2-2v-4c0-1.1,0.9-2,2-2h4c1.1,0,2,0.9,2,2v4C275.2,387.7,274.3,388.6,273.2,388.6
	z"/>
<path class="vps0" d="M273.2,377.8h-4c-1.1,0-2-0.9-2-2v-4c0-1.1,0.9-2,2-2h4c1.1,0,2,0.9,2,2v4C275.2,376.9,274.3,377.8,273.2,377.8
	z"/>
<path class="vps0" d="M284.1,388.6h-4c-1.1,0-2-0.9-2-2v-4c0-1.1,0.9-2,2-2h4c1.1,0,2,0.9,2,2v4C286.1,387.7,285.2,388.6,284.1,388.6
	z"/>
<path class="vps0" d="M284.1,377.8h-4c-1.1,0-2-0.9-2-2v-4c0-1.1,0.9-2,2-2h4c1.1,0,2,0.9,2,2v4C286.1,376.9,285.2,377.8,284.1,377.8
	z"/>
<path class="vps0" d="M433.6,332.6c0,1.7-1.3,3-3,3c-1.7,0-3-1.3-3-3s1.3-3,3-3C432.2,329.6,433.6,331,433.6,332.6z"/>
<path class="vps0" d="M433.6,323.8c0,1.7-1.3,3-3,3c-1.7,0-3-1.3-3-3s1.3-3,3-3C432.2,320.8,433.6,322.1,433.6,323.8z"/>
<path class="vps0" d="M435.5,415.3H317.8c-1.6,0-3-1.3-3-3v-15.3c0-1.6,1.4-3,3-3h117.7c1.6,0,3,1.4,3,3v15.3
	C438.5,413.9,437.1,415.3,435.5,415.3z"/>
<path class="vps0" d="M435.5,364H317.8c-1.6,0-3-1.4-3-3v-15.3c0-1.6,1.4-3,3-3h117.7c1.6,0,3,1.4,3,3V361
	C438.5,362.6,437.1,364,435.5,364z"/>
<path class="vps0" d="M320.8,337.6h-4c-1.1,0-2-0.9-2-2v-4c0-1.1,0.9-2,2-2h4c1.1,0,2,0.9,2,2v4C322.8,336.7,321.9,337.6,320.8,337.6
	z"/>
<path class="vps0" d="M320.8,326.8h-4c-1.1,0-2-0.9-2-2v-4c0-1.1,0.9-2,2-2h4c1.1,0,2,0.9,2,2v4C322.8,325.9,321.9,326.8,320.8,326.8
	z"/>
<path class="vps0" d="M331.7,337.6h-4c-1.1,0-2-0.9-2-2v-4c0-1.1,0.9-2,2-2h4c1.1,0,2,0.9,2,2v4C333.7,336.7,332.8,337.6,331.7,337.6
	z"/>
<path class="vps0" d="M331.7,326.8h-4c-1.1,0-2-0.9-2-2v-4c0-1.1,0.9-2,2-2h4c1.1,0,2,0.9,2,2v4C333.7,325.9,332.8,326.8,331.7,326.8
	z"/>
<path class="vps0" d="M375.4,337.6h-36.8c-1.1,0-2-0.9-2-2v-4c0-1.1,0.9-2,2-2h36.8c1.1,0,2,0.9,2,2v4
	C377.4,336.7,376.5,337.6,375.4,337.6z"/>
<path class="vps0" d="M342.6,326.8h-4c-1.1,0-2-0.9-2-2v-4c0-1.1,0.9-2,2-2h4c1.1,0,2,0.9,2,2v4C344.6,325.9,343.7,326.8,342.6,326.8
	z"/>
<path class="vps0" d="M353.6,326.8h-4c-1.1,0-2-0.9-2-2v-4c0-1.1,0.9-2,2-2h4c1.1,0,2,0.9,2,2v4C355.6,325.9,354.7,326.8,353.6,326.8
	z"/>
<path class="vps0" d="M364.5,326.8h-4c-1.1,0-2-0.9-2-2v-4c0-1.1,0.9-2,2-2h4c1.1,0,2,0.9,2,2v4C366.5,325.9,365.6,326.8,364.5,326.8
	z"/>
<path class="vps0" d="M375.4,326.8h-4c-1.1,0-2-0.9-2-2v-4c0-1.1,0.9-2,2-2h4c1.1,0,2,0.9,2,2v4C377.4,325.9,376.5,326.8,375.4,326.8
	z"/>
<path class="vps0" d="M386.4,337.6h-4c-1.1,0-2-0.9-2-2v-4c0-1.1,0.9-2,2-2h4c1.1,0,2,0.9,2,2v4C388.4,336.7,387.5,337.6,386.4,337.6
	z"/>
<path class="vps0" d="M386.4,326.8h-4c-1.1,0-2-0.9-2-2v-4c0-1.1,0.9-2,2-2h4c1.1,0,2,0.9,2,2v4C388.4,325.9,387.5,326.8,386.4,326.8
	z"/>
<path class="vps0" d="M397.3,337.6h-4c-1.1,0-2-0.9-2-2v-4c0-1.1,0.9-2,2-2h4c1.1,0,2,0.9,2,2v4C399.3,336.7,398.4,337.6,397.3,337.6
	z"/>
<path class="vps0" d="M408.2,337.6h-4c-1.1,0-2-0.9-2-2v-4c0-1.1,0.9-2,2-2h4c1.1,0,2,0.9,2,2v4C410.2,336.7,409.3,337.6,408.2,337.6
	z"/>
<path class="vps0" d="M408.2,326.8h-4c-1.1,0-2-0.9-2-2v-4c0-1.1,0.9-2,2-2h4c1.1,0,2,0.9,2,2v4C410.2,325.9,409.3,326.8,408.2,326.8
	z"/>
<path class="vps0" d="M419.2,337.6h-4c-1.1,0-2-0.9-2-2v-4c0-1.1,0.9-2,2-2h4c1.1,0,2,0.9,2,2v4C421.2,336.7,420.3,337.6,419.2,337.6
	z"/>
<path class="vps0" d="M419.2,326.8h-4c-1.1,0-2-0.9-2-2v-4c0-1.1,0.9-2,2-2h4c1.1,0,2,0.9,2,2v4C421.2,325.9,420.3,326.8,419.2,326.8
	z"/>
<path id="svg-concept" class="vps1" d="M433.6,383.6c0,1.7-1.3,3-3,3c-1.7,0-3-1.3-3-3c0-1.7,1.3-3,3-3C432.2,380.6,433.6,382,433.6,383.6z"/>
<path class="vps0" d="M433.6,374.8c0,1.7-1.3,3-3,3c-1.7,0-3-1.3-3-3c0-1.7,1.3-3,3-3C432.2,371.8,433.6,373.1,433.6,374.8z"/>
<path class="vps0" d="M320.8,388.6h-4c-1.1,0-2-0.9-2-2v-4c0-1.1,0.9-2,2-2h4c1.1,0,2,0.9,2,2v4C322.8,387.7,321.9,388.6,320.8,388.6
	z"/>
<path class="vps0" d="M320.8,377.8h-4c-1.1,0-2-0.9-2-2v-4c0-1.1,0.9-2,2-2h4c1.1,0,2,0.9,2,2v4C322.8,376.9,321.9,377.8,320.8,377.8
	z"/>
<path class="vps0" d="M331.7,388.6h-4c-1.1,0-2-0.9-2-2v-4c0-1.1,0.9-2,2-2h4c1.1,0,2,0.9,2,2v4C333.7,387.7,332.8,388.6,331.7,388.6
	z"/>
<path class="vps0" d="M342.6,388.6h-4c-1.1,0-2-0.9-2-2v-4c0-1.1,0.9-2,2-2h4c1.1,0,2,0.9,2,2v4C344.6,387.7,343.7,388.6,342.6,388.6
	z"/>
<path class="vps0" d="M342.6,377.8h-4c-1.1,0-2-0.9-2-2v-4c0-1.1,0.9-2,2-2h4c1.1,0,2,0.9,2,2v4C344.6,376.9,343.7,377.8,342.6,377.8
	z"/>
<path class="vps0" d="M353.6,388.6h-4c-1.1,0-2-0.9-2-2v-4c0-1.1,0.9-2,2-2h4c1.1,0,2,0.9,2,2v4C355.6,387.7,354.7,388.6,353.6,388.6
	z"/>
<path class="vps0" d="M353.6,377.8h-4c-1.1,0-2-0.9-2-2v-4c0-1.1,0.9-2,2-2h4c1.1,0,2,0.9,2,2v4C355.6,376.9,354.7,377.8,353.6,377.8
	z"/>
<path class="vps0" d="M364.5,388.6h-4c-1.1,0-2-0.9-2-2v-4c0-1.1,0.9-2,2-2h4c1.1,0,2,0.9,2,2v4C366.5,387.7,365.6,388.6,364.5,388.6
	z"/>
<path class="vps0" d="M364.5,377.8h-4c-1.1,0-2-0.9-2-2v-4c0-1.1,0.9-2,2-2h4c1.1,0,2,0.9,2,2v4C366.5,376.9,365.6,377.8,364.5,377.8
	z"/>
<path class="vps0" d="M375.4,388.6h-4c-1.1,0-2-0.9-2-2v-4c0-1.1,0.9-2,2-2h4c1.1,0,2,0.9,2,2v4C377.4,387.7,376.5,388.6,375.4,388.6
	z"/>
<path class="vps0" d="M375.4,377.8h-4c-1.1,0-2-0.9-2-2v-4c0-1.1,0.9-2,2-2h4c1.1,0,2,0.9,2,2v4C377.4,376.9,376.5,377.8,375.4,377.8
	z"/>
<path class="vps0" d="M419.2,388.6h-36.8c-1.1,0-2-0.9-2-2v-4c0-1.1,0.9-2,2-2h36.8c1.1,0,2,0.9,2,2v4
	C421.2,387.7,420.3,388.6,419.2,388.6z"/>
<path class="vps0" d="M386.4,377.8h-4c-1.1,0-2-0.9-2-2v-4c0-1.1,0.9-2,2-2h4c1.1,0,2,0.9,2,2v4C388.4,376.9,387.5,377.8,386.4,377.8
	z"/>
<path class="vps0" d="M397.3,377.8h-4c-1.1,0-2-0.9-2-2v-4c0-1.1,0.9-2,2-2h4c1.1,0,2,0.9,2,2v4C399.3,376.9,398.4,377.8,397.3,377.8
	z"/>
<path class="vps0" d="M408.2,377.8h-4c-1.1,0-2-0.9-2-2v-4c0-1.1,0.9-2,2-2h4c1.1,0,2,0.9,2,2v4C410.2,376.9,409.3,377.8,408.2,377.8
	z"/>
<path class="vps0" d="M419.2,377.8h-4c-1.1,0-2-0.9-2-2v-4c0-1.1,0.9-2,2-2h4c1.1,0,2,0.9,2,2v4C421.2,376.9,420.3,377.8,419.2,377.8
	z"/>
<path id="svg-concept" class="vps1" d="M568.6,332.6c0,1.7-1.3,3-3,3c-1.7,0-3-1.3-3-3s1.3-3,3-3C567.2,329.6,568.6,331,568.6,332.6z"/>
<path id="svg-concept" class="vps1" d="M688.7,375c-1.7,0-3-1.3-3-3c0-1.7,1.3-3,3-3c1.7,0,3,1.3,3,3C691.7,373.6,690.3,375,688.7,375z"/>
<path id="svg-concept" class="vps1" d="M688.7,386.4c-1.7,0-3-1.3-3-3c0-1.7,1.3-3,3-3c1.7,0,3,1.3,3,3C691.7,385,690.3,386.4,688.7,386.4z"/>
<path class="vps0" d="M694.9,405.6c0,3.4-2.8,6.2-6.2,6.2c-3.4,0-6.2-2.8-6.2-6.2s2.8-6.2,6.2-6.2
	C692.1,399.4,694.9,402.2,694.9,405.6z"/>
<path class="vps2" d="M836.1,301.3c0,3.4-2.8,6.2-6.2,6.2c-3.4,0-6.2-2.8-6.2-6.2s2.8-6.2,6.2-6.2
	C833.3,295.1,836.1,297.8,836.1,301.3z"/>
<path class="vps0" d="M568.6,323.8c0,1.7-1.3,3-3,3c-1.7,0-3-1.3-3-3s1.3-3,3-3C567.2,320.8,568.6,322.1,568.6,323.8z"/>
<path class="vps0" d="M570.5,415.3H452.8c-1.6,0-3-1.3-3-3v-15.3c0-1.6,1.4-3,3-3h117.7c1.7,0,3,1.4,3,3v15.3
	C573.5,413.9,572.1,415.3,570.5,415.3z"/>
<path class="vps0" d="M570.5,364H452.8c-1.6,0-3-1.4-3-3v-15.3c0-1.6,1.4-3,3-3h117.7c1.7,0,3,1.4,3,3V361
	C573.5,362.6,572.1,364,570.5,364z"/>
<path class="vps0" d="M455.8,337.6h-4c-1.1,0-2-0.9-2-2v-4c0-1.1,0.9-2,2-2h4c1.1,0,2,0.9,2,2v4C457.8,336.7,456.9,337.6,455.8,337.6
	z"/>
<path class="vps0" d="M455.8,326.8h-4c-1.1,0-2-0.9-2-2v-4c0-1.1,0.9-2,2-2h4c1.1,0,2,0.9,2,2v4C457.8,325.9,456.9,326.8,455.8,326.8
	z"/>
<path class="vps0" d="M466.7,337.6h-4c-1.1,0-2-0.9-2-2v-4c0-1.1,0.9-2,2-2h4c1.1,0,2,0.9,2,2v4C468.7,336.7,467.8,337.6,466.7,337.6
	z"/>
<path class="vps0" d="M466.7,326.8h-4c-1.1,0-2-0.9-2-2v-4c0-1.1,0.9-2,2-2h4c1.1,0,2,0.9,2,2v4C468.7,325.9,467.8,326.8,466.7,326.8
	z"/>
<path class="vps0" d="M477.6,337.6h-4c-1.1,0-2-0.9-2-2v-4c0-1.1,0.9-2,2-2h4c1.1,0,2,0.9,2,2v4C479.6,336.7,478.7,337.6,477.6,337.6
	z"/>
<path class="vps0" d="M499.5,326.8h-25.9c-1.1,0-2-0.9-2-2v-4c0-1.1,0.9-2,2-2h25.9c1.1,0,2,0.9,2,2v4
	C501.5,325.9,500.6,326.8,499.5,326.8z"/>
<path class="vps0" d="M488.6,337.6h-4c-1.1,0-2-0.9-2-2v-4c0-1.1,0.9-2,2-2h4c1.1,0,2,0.9,2,2v4C490.6,336.7,489.7,337.6,488.6,337.6
	z"/>
<path class="vps0" d="M499.5,337.6h-4c-1.1,0-2-0.9-2-2v-4c0-1.1,0.9-2,2-2h4c1.1,0,2,0.9,2,2v4C501.5,336.7,500.6,337.6,499.5,337.6
	z"/>
<path class="vps0" d="M510.4,337.6h-4c-1.1,0-2-0.9-2-2v-4c0-1.1,0.9-2,2-2h4c1.1,0,2,0.9,2,2v4C512.4,336.7,511.5,337.6,510.4,337.6
	z"/>
<path class="vps0" d="M510.4,326.8h-4c-1.1,0-2-0.9-2-2v-4c0-1.1,0.9-2,2-2h4c1.1,0,2,0.9,2,2v4C512.4,325.9,511.5,326.8,510.4,326.8
	z"/>
<path class="vps0" d="M521.4,326.8h-4c-1.1,0-2-0.9-2-2v-4c0-1.1,0.9-2,2-2h4c1.1,0,2,0.9,2,2v4C523.4,325.9,522.5,326.8,521.4,326.8
	z"/>
<path class="vps0" d="M532.3,337.6h-4c-1.1,0-2-0.9-2-2v-4c0-1.1,0.9-2,2-2h4c1.1,0,2,0.9,2,2v4C534.3,336.7,533.4,337.6,532.3,337.6
	z"/>
<path class="vps0" d="M532.3,326.8h-4c-1.1,0-2-0.9-2-2v-4c0-1.1,0.9-2,2-2h4c1.1,0,2,0.9,2,2v4C534.3,325.9,533.4,326.8,532.3,326.8
	z"/>
<path class="vps0" d="M543.2,337.6h-4c-1.1,0-2-0.9-2-2v-4c0-1.1,0.9-2,2-2h4c1.1,0,2,0.9,2,2v4C545.2,336.7,544.3,337.6,543.2,337.6
	z"/>
<path class="vps0" d="M554.2,337.6h-4c-1.1,0-2-0.9-2-2v-4c0-1.1,0.9-2,2-2h4c1.1,0,2,0.9,2,2v4C556.2,336.7,555.3,337.6,554.2,337.6
	z"/>
<path class="vps0" d="M554.2,326.8h-4c-1.1,0-2-0.9-2-2v-4c0-1.1,0.9-2,2-2h4c1.1,0,2,0.9,2,2v4C556.2,325.9,555.3,326.8,554.2,326.8
	z"/>
<path class="vps0" d="M568.6,383.6c0,1.7-1.3,3-3,3c-1.7,0-3-1.3-3-3c0-1.7,1.3-3,3-3C567.2,380.6,568.6,382,568.6,383.6z"/>
<path class="vps0" d="M568.6,374.8c0,1.7-1.3,3-3,3c-1.7,0-3-1.3-3-3c0-1.7,1.3-3,3-3C567.2,371.8,568.6,373.1,568.6,374.8z"/>
<path class="vps0" d="M455.8,388.6h-4c-1.1,0-2-0.9-2-2v-4c0-1.1,0.9-2,2-2h4c1.1,0,2,0.9,2,2v4C457.8,387.7,456.9,388.6,455.8,388.6
	z"/>
<path class="vps0" d="M466.7,377.8h-4c-1.1,0-2-0.9-2-2v-4c0-1.1,0.9-2,2-2h4c1.1,0,2,0.9,2,2v4C468.7,376.9,467.8,377.8,466.7,377.8
	z"/>
<path class="vps0" d="M477.6,388.6h-4c-1.1,0-2-0.9-2-2v-4c0-1.1,0.9-2,2-2h4c1.1,0,2,0.9,2,2v4C479.6,387.7,478.7,388.6,477.6,388.6
	z"/>
<path class="vps0" d="M477.6,377.8h-4c-1.1,0-2-0.9-2-2v-4c0-1.1,0.9-2,2-2h4c1.1,0,2,0.9,2,2v4C479.6,376.9,478.7,377.8,477.6,377.8
	z"/>
<path class="vps0" d="M488.6,388.6h-4c-1.1,0-2-0.9-2-2v-4c0-1.1,0.9-2,2-2h4c1.1,0,2,0.9,2,2v4C490.6,387.7,489.7,388.6,488.6,388.6
	z"/>
<path class="vps0" d="M488.6,377.8h-4c-1.1,0-2-0.9-2-2v-4c0-1.1,0.9-2,2-2h4c1.1,0,2,0.9,2,2v4C490.6,376.9,489.7,377.8,488.6,377.8
	z"/>
<path class="vps0" d="M499.5,388.6h-4c-1.1,0-2-0.9-2-2v-4c0-1.1,0.9-2,2-2h4c1.1,0,2,0.9,2,2v4C501.5,387.7,500.6,388.6,499.5,388.6
	z"/>
<path class="vps0" d="M532.3,377.8h-36.8c-1.1,0-2-0.9-2-2v-4c0-1.1,0.9-2,2-2h36.8c1.1,0,2,0.9,2,2v4
	C534.3,376.9,533.4,377.8,532.3,377.8z"/>
<path class="vps0" d="M510.4,388.6h-4c-1.1,0-2-0.9-2-2v-4c0-1.1,0.9-2,2-2h4c1.1,0,2,0.9,2,2v4C512.4,387.7,511.5,388.6,510.4,388.6
	z"/>
<path class="vps0" d="M521.4,388.6h-4c-1.1,0-2-0.9-2-2v-4c0-1.1,0.9-2,2-2h4c1.1,0,2,0.9,2,2v4C523.4,387.7,522.5,388.6,521.4,388.6
	z"/>
<path class="vps0" d="M532.3,388.6h-4c-1.1,0-2-0.9-2-2v-4c0-1.1,0.9-2,2-2h4c1.1,0,2,0.9,2,2v4C534.3,387.7,533.4,388.6,532.3,388.6
	z"/>
<path class="vps0" d="M543.2,388.6h-4c-1.1,0-2-0.9-2-2v-4c0-1.1,0.9-2,2-2h4c1.1,0,2,0.9,2,2v4C545.2,387.7,544.3,388.6,543.2,388.6
	z"/>
<path class="vps0" d="M543.2,377.8h-4c-1.1,0-2-0.9-2-2v-4c0-1.1,0.9-2,2-2h4c1.1,0,2,0.9,2,2v4C545.2,376.9,544.3,377.8,543.2,377.8
	z"/>
<path class="vps0" d="M554.2,388.6h-4c-1.1,0-2-0.9-2-2v-4c0-1.1,0.9-2,2-2h4c1.1,0,2,0.9,2,2v4C556.2,387.7,555.3,388.6,554.2,388.6
	z"/>
<line class="vps0" x1="221" y1="342.6" x2="221" y2="364"/>
<line class="vps0" x1="262.2" y1="342.6" x2="262.2" y2="364"/>
<line class="vps0" x1="356" y1="342.6" x2="356" y2="364"/>
<line class="vps0" x1="397.2" y1="342.6" x2="397.2" y2="364"/>
<line class="vps0" x1="491" y1="342.6" x2="491" y2="364"/>
<line class="vps0" x1="532.3" y1="342.6" x2="532.3" y2="364"/>
<line class="vps0" x1="356" y1="393.9" x2="356" y2="415.3"/>
<line class="vps0" x1="397.2" y1="393.9" x2="397.2" y2="415.3"/>
<line class="vps0" x1="491" y1="393.9" x2="491" y2="415.3"/>
<line class="vps0" x1="532.3" y1="394.1" x2="532.3" y2="415.5"/>
<line class="vps0" x1="221" y1="393.9" x2="221" y2="415.3"/>
<line class="vps0" x1="262.2" y1="393.9" x2="262.2" y2="415.3"/>
<path class="vps0" d="M279.5,360.7h-11c-1.1,0-2-0.9-2-2v-11c0-1.1,0.9-2,2-2h11c1.1,0,2,0.9,2,2v11
	C281.5,359.8,280.6,360.7,279.5,360.7z"/>
<path class="vps0" d="M298,360.7h-11c-1.1,0-2-0.9-2-2v-11c0-1.1,0.9-2,2-2h11c1.1,0,2,0.9,2,2v11C300,359.8,299.1,360.7,298,360.7z"
	/>
<path class="vps0" d="M279.5,412h-11c-1.1,0-2-0.9-2-2v-11c0-1.1,0.9-2,2-2h11c1.1,0,2,0.9,2,2v11C281.5,411.1,280.6,412,279.5,412z"
	/>
<path id="svg-concept" class="vps1" d="M298,412h-11c-1.1,0-2-0.9-2-2v-11c0-1.1,0.9-2,2-2h11c1.1,0,2,0.9,2,2v11C300,411.1,299.1,412,298,412z"/>
<path class="vps0" d="M414.2,360.7h-11c-1.1,0-2-0.9-2-2v-11c0-1.1,0.9-2,2-2h11c1.1,0,2,0.9,2,2v11
	C416.2,359.8,415.3,360.7,414.2,360.7z"/>
<path class="vps0" d="M432.6,360.7h-11c-1.1,0-2-0.9-2-2v-11c0-1.1,0.9-2,2-2h11c1.1,0,2,0.9,2,2v11
	C434.6,359.8,433.7,360.7,432.6,360.7z"/>
<path class="vps0" d="M414.2,412h-11c-1.1,0-2-0.9-2-2v-11c0-1.1,0.9-2,2-2h11c1.1,0,2,0.9,2,2v11C416.2,411.1,415.3,412,414.2,412z"
	/>
<path id="svg-concept" class="vps1" d="M432.6,412h-11c-1.1,0-2-0.9-2-2v-11c0-1.1,0.9-2,2-2h11c1.1,0,2,0.9,2,2v11C434.6,411.1,433.7,412,432.6,412z"
	/>
<path class="vps0" d="M549.6,360.7h-11c-1.1,0-2-0.9-2-2v-11c0-1.1,0.9-2,2-2h11c1.1,0,2,0.9,2,2v11
	C551.6,359.8,550.7,360.7,549.6,360.7z"/>
<path class="vps0" d="M568,360.7h-11c-1.1,0-2-0.9-2-2v-11c0-1.1,0.9-2,2-2h11c1.1,0,2,0.9,2,2v11C570,359.8,569.1,360.7,568,360.7z"
	/>
<path class="vps0" d="M549.6,412h-11c-1.1,0-2-0.9-2-2v-11c0-1.1,0.9-2,2-2h11c1.1,0,2,0.9,2,2v11C551.6,411.1,550.7,412,549.6,412z"
	/>
<path id="svg-concept" class="vps1" d="M568,412h-11c-1.1,0-2-0.9-2-2v-11c0-1.1,0.9-2,2-2h11c1.1,0,2,0.9,2,2v11C570,411.1,569.1,412,568,412z"/>
<line class="vps0" x1="153.9" y1="328.1" x2="153.9" y2="357.3"/>
<line class="vps0" x1="723.2" y1="328.1" x2="723.2" y2="357.3"/>
<line id="svg-concept" class="vps1" x1="665.3" y1="367.6" x2="652.1" y2="367.6"/>
<line id="svg-concept" class="vps1" x1="636.5" y1="367.6" x2="623.2" y2="367.6"/>
<path class="vps3" d="M640.2,189.6"/>
<path class="vps5" d="M618.7,389.6"/>
<path class="vps3" d="M411.3,168.5c-23.1-38.1-64.9-63.5-112.6-63.5h2c-68.5,0-133.6,45.9-133.6,131.6"/>
<path class="vps3" d="M127.8,184c-50.9,0-92.1,41.2-92.1,92.1c0,46.9,35,85.6,80.3,91.4"/>
<path class="vps0" d="M300.4,157.7c-40.7,0.5-76.6,32.4-80.2,71.4l0.1,1.3c0.1,2.1,0.1,4.1,0.1,6.2"/>
<path class="vps3" d="M407.4,88.1c37-35.6,87.4-57.6,142.8-57.6h-3.1c87.4,0,171.3,47.7,199.3,137.9"/>
<path class="vps0" d="M547.6,113c42.3,0.5,81.3,22.7,104.4,55.5"/>
</svg>
