<?xml version="1.0" encoding="utf-8"?>
<!-- Generator: Adobe Illustrator 22.0.0, SVG Export Plug-In . SVG Version: 6.00 Build 0)  -->
<svg version="1.1" id="Layer_1" xmlns="http://www.w3.org/2000/svg" xmlns:xlink="http://www.w3.org/1999/xlink" x="0px" y="0px"
	 viewBox="0 0 595.3 595.3" style="enable-background:new 0 0 595.3 595.3;" xml:space="preserve">
<style type="text/css">
	.cman0{fill:none;stroke:#ee5586;stroke-width:4;stroke-linecap:round;stroke-linejoin:round;stroke-miterlimit:10;}
	.cman1{fill:#FFFFFF;stroke:#808080;stroke-linecap:round;stroke-linejoin:round;stroke-miterlimit:10;}
</style>
<path id="svg-concept" class="cman0" d="M389.5,466.1c-13.3-14.7-41.6-34.3-62.6-37.5c1.7-10.7,3.4-21.4,5.1-32.1c3.7-3.5,7.5-7,11.2-10.5
	c7.9-7.5,15.4-15.2,20.5-25c3.5-6.6,4.9-13.8,5-21.2c9.9-0.9,15.3-6.5,18.4-14.8c2.8-7.2,3.6-14.7,3.1-22.4
	c-0.6-11.1-4.9-14.4-15.9-12.4c4.7-17.7,3.5-35.4-0.3-53.3c21.7-0.9,39.3-8.2,49.5-28.4c3.7-5.8,5.6-12.2,6.9-20.3
	c-8.2,8.1-17.4,11.4-26.8,14.3c-1.2,0.4-2.2,1.4-3.2,2.2c-2.9,0.6-5.7,1.1-8.6,1.7c-0.6,0.1-1.8,0.2-1.8,0.1c-0.3-1,0.7-0.7,1.2-0.9
	c8.9-8.1,14.1-18.1,16.2-29.8c2.1-5.4,2.7-11,3.2-17.4c-11,12-15.5,14.5-32.4,18.2c-2-0.1-4.1,0.9-6.4-0.1c3.1-3.3,6-6.3,6.4-10.7
	c2.4-11.4-2-20.9-8.4-30.3c-3.7,5.1-6.8,9.7-10.2,14c-8.3,10.6-19.3,15.8-32.8,15.6c-5.1-0.1-10.3-0.5-15.4-1.2
	c-16.6-2.1-33.2-4.5-50.1-2.8c-14.5,1.4-25.6,8.3-32,21.7c-4.8,10-6.3,20.7-5,31.7c-0.2,4,0.8,7.9-0.3,11.9
	c-4.5,14.8-6.2,29.9-5.1,45.4c-0.1,6.8,1.8,13.2,3.2,19.8c-2.9-0.7-5.9-1.8-8.8-2c-5.3-0.3-8.4,2.8-9.9,7.7
	c-5.6,18,3.9,37.9,20.9,43.3c-0.2,15.5,7.7,27.4,17.9,38c5.7,5.9,11.8,11.3,17.8,16.9c1.2,7.7,2.1,15.5,4.7,22.9
	c0.5,3.4,1,6.9,1.5,10.3c-17.3,2.7-40.7,11.5-53.2,19.9c-19.3,13-63.7,51.8-43.1,62c109.7,54,179.2,37.2,242.4-0.2
	C423.8,503.4,398.6,476.1,389.5,466.1z"/>
<g>
	<path class="cman1" d="M45.2,444c80.7,139.6,259.3,187.4,398.9,106.7C583.7,470,631.4,291.4,550.7,151.8S291.5-35.6,151.9,45.1
		C12.2,125.8-35.5,304.4,45.2,444z M210.8,82.7c27.2,47.1,87.5,63.3,134.7,36c25.9-14.9,42.4-39.8,47.5-67.1
		c54.1,21.1,101.8,60.1,133.1,114.4c31.3,54.2,41.4,115,32.6,172.4c-26.2-9.1-56-7.3-81.8,7.7c-47.1,27.2-63.3,87.5-36,134.7
		c5.7,9.9,12.9,18.4,21.1,25.4c-10.2,8.2-21.2,15.7-32.9,22.4c-97.3,56.2-215.5,43.8-298.4-22.2c35.3-30.3,45.2-82.3,21.1-124.1
		s-74.2-59.1-118-43.7C17.9,233.9,66.2,125.3,163.5,69.1c11.7-6.7,23.6-12.5,35.8-17.3C201.3,62.4,205.1,72.8,210.8,82.7z"/>
	<path class="cman1" d="M102.8,423.6c-5.2-1.4-8.3-6.7-6.9-11.9c1.4-5.2,6.7-8.3,11.9-6.9c5.2,1.4,8.3,6.7,6.9,11.9
		C113.3,421.9,108,425,102.8,423.6z"/>
	<path class="cman1" d="M104.3,417.7c-1.9-0.5-3.1-2.5-2.6-4.4c0.5-1.9,2.5-3.1,4.4-2.6c1.9,0.5,3.1,2.5,2.6,4.4
		C108.2,417.1,106.3,418.2,104.3,417.7z"/>
	<line class="cman1" x1="102.7" y1="423.6" x2="104.3" y2="417.7"/>
	<line class="cman1" x1="106.2" y1="410.7" x2="107.8" y2="404.8"/>
	<path class="cman1" d="M487.4,416.1c-5.2-1.4-8.3-6.7-6.9-11.9c1.4-5.2,6.7-8.3,11.9-6.9c5.2,1.4,8.3,6.7,6.9,11.9
		C497.9,414.4,492.5,417.4,487.4,416.1z"/>
	<path class="cman1" d="M488.9,410.1c-1.9-0.5-3.1-2.5-2.6-4.4c0.5-1.9,2.5-3.1,4.4-2.6c1.9,0.5,3.1,2.5,2.6,4.4
		C492.8,409.5,490.9,410.7,488.9,410.1z"/>
	<line class="cman1" x1="487.3" y1="416" x2="488.9" y2="410.1"/>
	<line class="cman1" x1="490.8" y1="403.1" x2="492.4" y2="397.2"/>
	<path class="cman1" d="M298.8,88.8c-5.2-1.4-8.3-6.7-6.9-11.9c1.4-5.2,6.7-8.3,11.9-6.9c5.2,1.4,8.3,6.7,6.9,11.9
		C309.3,87.1,304,90.2,298.8,88.8z"/>
	<path class="cman1" d="M300.4,82.9c-1.9-0.5-3.1-2.5-2.6-4.4c0.5-1.9,2.5-3.1,4.4-2.6c1.9,0.5,3.1,2.5,2.6,4.4
		C304.3,82.3,302.3,83.4,300.4,82.9z"/>
	<line class="cman1" x1="298.8" y1="88.8" x2="300.3" y2="82.9"/>
	<line class="cman1" x1="302.2" y1="75.9" x2="303.8" y2="70"/>
	<path id="svg-concept" class="cman0" d="M550.7,151.8C470.1,12.2,291.5-35.6,151.9,45.1C12.2,125.8-35.5,304.4,45.2,444s259.3,187.4,398.9,106.7
		C583.7,470,631.4,291.4,550.7,151.8z"/>

	<animateTransform  
		type="rotate"
		attributeName="transform" 
		begin="0s" 
		dur="3s" 
		from="0 298 298" 
		to="-360 298 298" 
		repeatCount="indefinite" >
	</animateTransform>
</g>
</svg>
