<?xml version="1.0" encoding="utf-8"?>
<!-- Generator: Adobe Illustrator 22.0.0, SVG Export Plug-In . SVG Version: 6.00 Build 0)  -->
<svg version="1.1" id="Layer_1" xmlns="http://www.w3.org/2000/svg" xmlns:xlink="http://www.w3.org/1999/xlink" x="0px" y="0px"
	 viewBox="0 0 496.8 429" style="enable-background:new 0 0 496.8 429;" xml:space="preserve">
<style type="text/css">
	.dbsecure0{fill:#FFFFFF;stroke:#808080;stroke-linecap:round;stroke-linejoin:round;stroke-miterlimit:10;}
	.dbsecure1{fill:none;stroke:#ee5586;stroke-width:2;stroke-linecap:round;stroke-linejoin:round;stroke-miterlimit:10;}
	.dbsecure2{fill:none;stroke:#808080;stroke-linecap:round;stroke-linejoin:round;stroke-miterlimit:10;}
	.dbsecure3{fill:none;stroke:#ee5586;stroke-width:3;stroke-linecap:round;stroke-linejoin:round;stroke-miterlimit:10;}
</style>
<path class="dbsecure0" d="M65.3,114.5C100.9,47.6,171.2,2.1,252.1,2.1c117.3,0,212.1,94.7,212.1,212c0,116.8-94.7,211.7-212.1,211.7
	c-80.9,0-151.3-45.5-186.9-112.4L65.3,114.5z"/>

<g>
<line id="svg-concept" class="dbsecure1" x1="98.1" y1="64.5" x2="409.9" y2="64.5"/>
	<animateMotion
	path="M8, 0 85 0 85"
	begin="0s" 
	dur="4s" 
	fill="freeze" />
</g>

<g>
<line id="svg-concept" class="dbsecure1" x1="119.7" y1="82.4" x2="431.5" y2="82.4"/>
	<animateMotion
	path="M8, 0 63 0 63"
	begin="0s" 
	dur="4s" 
	fill="freeze" />
</g>

<g>
	<path class="dbsecure2" d="M246.2,158.6c33.9,0,61.3,27.4,61.3,61.3c0,33.8-27.4,61.2-61.3,61.2c-33.8,0-61.2-27.4-61.2-61.2
		C185,186,212.4,158.6,246.2,158.6z"/>
	<path class="dbsecure2" d="M246.2,168.3c28.6,0,51.7,23.1,51.7,51.7c0,28.5-23.1,51.6-51.7,51.6c-28.5,0-51.6-23.1-51.6-51.6
		C194.7,191.4,217.8,168.3,246.2,168.3z"/>
	<line class="dbsecure2" x1="246" y1="197.7" x2="246" y2="136.4"/>
	<line class="dbsecure2" x1="258.7" y1="238.4" x2="294.6" y2="286.9"/>
	<circle id="svg-concept" class="dbsecure1" cx="246" cy="128.4" r="8"/>
	<circle id="svg-concept" class="dbsecure1" cx="300.2" cy="294.1" r="8"/>
	<line class="dbsecure2" x1="233.6" y1="238" x2="198.7" y2="287.3"/>
	<circle id="svg-concept" class="dbsecure1" cx="193.6" cy="294.9" r="8"/>
	<line class="dbsecure2" x1="224.9" y1="213" x2="166.3" y2="195"/>
	<circle id="svg-concept" class="dbsecure1" cx="158.6" cy="192.6" r="8"/>
	<line class="dbsecure2" x1="267.7" y1="213.9" x2="325.8" y2="194.4"/>
	<circle id="svg-concept" class="dbsecure1" cx="333.4" cy="191.8" r="8"/>
	<path id="svg-concept" class="dbsecure3" d="M246.3,197.7c12.3,0,22.2,9.9,22.2,22.2c0,12.2-9.9,22.2-22.2,22.2c-12.2,0-22.2-9.9-22.2-22.2
		C224.1,207.6,234,197.7,246.3,197.7z"/>

	<animateTransform  
		attributeName="transform" 
		type="rotate"
		begin="0s" 
		dur="4s" 
		from="0 246 220" 
		to="360 246 220" 
		fill="freeze" />
</g>

<g>
<line id="svg-concept" class="dbsecure1" x1="98.1" y1="345.5" x2="409.9" y2="345.5"/>
	<animateMotion
	path="M8, 0 85 0 85"
	begin="0s" 
	dur="4s" 
	fill="freeze" />
</g>

<g>
<line id="svg-concept" class="dbsecure1" x1="119.7" y1="363.4" x2="431.5" y2="363.4"/>
	<animateMotion
	path="M8, 0 63 0 63"
	begin="0s" 
	dur="4s" 
	fill="freeze" />
</g>

<g>
	<line class="dbsecure2" x1="451" y1="95.7" x2="451" y2="50.6"/>
	<line class="dbsecure2" x1="464.2" y1="95.7" x2="464.2" y2="50.6"/>
	<rect x="446.7" y="58.7" class="dbsecure0" width="8.5" height="11.4"/>
	<rect x="446.7" y="76.7" class="dbsecure0" width="8.5" height="11.4"/>
	<rect x="460" y="58.7" class="dbsecure0" width="8.5" height="11.4"/>
	<rect x="460" y="76.7" class="dbsecure0" width="8.5" height="11.4"/>
	<line class="dbsecure2" x1="451" y1="376.7" x2="451" y2="331.6"/>
	<line class="dbsecure2" x1="464.2" y1="376.7" x2="464.2" y2="331.6"/>
	<rect x="446.7" y="339.7" class="dbsecure0" width="8.5" height="11.4"/>
	<rect x="446.7" y="357.7" class="dbsecure0" width="8.5" height="11.4"/>
	<rect x="460" y="339.7" class="dbsecure0" width="8.5" height="11.4"/>
	<rect x="460" y="357.7" class="dbsecure0" width="8.5" height="11.4"/>
</g>
<g>
	<path class="dbsecure0" d="M60.9,330.7H16.4c-2.4,0-4.3-1.9-4.3-4.3V101.5c0-2.4,1.9-4.3,4.3-4.3h44.5c2.4,0,4.3,1.9,4.3,4.3v224.9
		C65.2,328.8,63.2,330.7,60.9,330.7z"/>
	<path class="dbsecure0" d="M12.1,295H6c-1.6,0-2.8-1.3-2.8-2.8V135.4c0-1.6,1.3-2.8,2.8-2.8h6.1V295z"/>
	<path class="dbsecure0" d="M23.9,97c0-8.1,6.6-14.7,14.7-14.7S53.3,88.9,53.3,97H23.9z"/>
	<path class="dbsecure0" d="M53.3,330.7c0,8.1-6.6,14.7-14.7,14.7s-14.7-6.6-14.7-14.7H53.3z"/>
	<g>
		<circle class="dbsecure2" cx="38.6" cy="157.5" r="9.5"/>
		<circle class="dbsecure2" cx="38.6" cy="195" r="9.5"/>
		<circle class="dbsecure2" cx="38.6" cy="232.5" r="9.5"/>
		<circle class="dbsecure2" cx="38.6" cy="270" r="9.5"/>
	</g>
	<line class="dbsecure2" x1="48.1" y1="158.2" x2="89.5" y2="158.2"/>
	<line class="dbsecure2" x1="48.1" y1="270" x2="89.5" y2="270"/>
	<line class="dbsecure2" x1="65.2" y1="235.1" x2="95.7" y2="235.1"/>
	<line class="dbsecure2" x1="65.2" y1="213.8" x2="95.7" y2="213.8"/>
	<line class="dbsecure2" x1="65.2" y1="192.5" x2="95.7" y2="192.5"/>
	<path class="dbsecure2" d="M110.2,258.3H98.5c-1.6,0-2.8-1.3-2.8-2.8v-83.1c0-1.6,1.3-2.8,2.8-2.8h11.7c1.6,0,2.8,1.3,2.8,2.8v83.1
		C113,257.1,111.7,258.3,110.2,258.3z"/>
	<g>
		<path class="dbsecure2" d="M109.9,235.2c0,3.1-2.5,5.6-5.6,5.6c-3.1,0-5.6-2.5-5.6-5.6c0-3.1,2.5-5.6,5.6-5.6
			C107.4,229.6,109.9,232.1,109.9,235.2z"/>
		<path class="dbsecure2" d="M106.4,235.2c0,1.1-0.9,2.1-2.1,2.1c-1.1,0-2.1-0.9-2.1-2.1c0-1.1,0.9-2.1,2.1-2.1
			C105.5,233.1,106.4,234.1,106.4,235.2z"/>
		<line class="dbsecure2" x1="109.9" y1="235.2" x2="106.4" y2="235.2"/>
		<line class="dbsecure2" x1="102.3" y1="235.2" x2="98.7" y2="235.2"/>
	</g>
	<g>
		<path class="dbsecure2" d="M109.9,213.8c0,3.1-2.5,5.6-5.6,5.6c-3.1,0-5.6-2.5-5.6-5.6s2.5-5.6,5.6-5.6
			C107.4,208.2,109.9,210.7,109.9,213.8z"/>
		<path class="dbsecure2" d="M106.4,213.8c0,1.1-0.9,2.1-2.1,2.1c-1.1,0-2.1-0.9-2.1-2.1s0.9-2.1,2.1-2.1
			C105.5,211.7,106.4,212.6,106.4,213.8z"/>
		<line class="dbsecure2" x1="109.9" y1="213.8" x2="106.4" y2="213.8"/>
		<line class="dbsecure2" x1="102.3" y1="213.8" x2="98.7" y2="213.8"/>
	</g>
	<g>
		<path class="dbsecure2" d="M109.9,192.3c0,3.1-2.5,5.6-5.6,5.6c-3.1,0-5.6-2.5-5.6-5.6c0-3.1,2.5-5.6,5.6-5.6
			C107.4,186.8,109.9,189.3,109.9,192.3z"/>
		<path class="dbsecure2" d="M106.4,192.4c0,1.1-0.9,2.1-2.1,2.1c-1.1,0-2.1-0.9-2.1-2.1c0-1.1,0.9-2.1,2.1-2.1
			C105.5,190.3,106.4,191.2,106.4,192.4z"/>
		<line class="dbsecure2" x1="109.9" y1="192.4" x2="106.4" y2="192.4"/>
		<line class="dbsecure2" x1="102.3" y1="192.4" x2="98.7" y2="192.4"/>
	</g>
</g>
<g>
	<line class="dbsecure2" x1="216.3" y1="97.6" x2="216.3" y2="49.3"/>
	<line class="dbsecure2" x1="275.6" y1="97.6" x2="275.6" y2="49.3"/>
	<line class="dbsecure2" x1="216.3" y1="378.6" x2="216.3" y2="330.3"/>
	<line class="dbsecure2" x1="275.6" y1="378.6" x2="275.6" y2="330.3"/>
	<g>
		<line class="dbsecure2" x1="403.3" y1="252.1" x2="403.3" y2="185.8"/>
		<line class="dbsecure2" x1="414.7" y1="251.9" x2="414.7" y2="185.6"/>
		<g>
			<path class="dbsecure2" d="M414.7,185.6c0,3.1-2.5,5.7-5.7,5.7c-3.1,0-5.7-2.5-5.7-5.7s2.5-5.7,5.7-5.7
				C412.1,180,414.7,182.5,414.7,185.6z"/>
			<path class="dbsecure2" d="M411.1,185.6c0,1.2-0.9,2.1-2.1,2.1c-1.2,0-2.1-0.9-2.1-2.1s0.9-2.1,2.1-2.1
				C410.2,183.5,411.1,184.5,411.1,185.6z"/>
			<line class="dbsecure2" x1="414.7" y1="185.6" x2="411.1" y2="185.6"/>
			<line class="dbsecure2" x1="406.9" y1="185.6" x2="403.3" y2="185.6"/>
		</g>
		<g>
			<path class="dbsecure2" d="M414.7,252.1c0,3.1-2.5,5.7-5.7,5.7c-3.1,0-5.7-2.5-5.7-5.7s2.5-5.7,5.7-5.7
				C412.1,246.5,414.7,249,414.7,252.1z"/>
			<path class="dbsecure2" d="M411.1,252.1c0,1.2-0.9,2.1-2.1,2.1c-1.2,0-2.1-0.9-2.1-2.1c0-1.2,0.9-2.1,2.1-2.1
				C410.2,250,411.1,251,411.1,252.1z"/>
			<line class="dbsecure2" x1="414.7" y1="252.1" x2="411.1" y2="252.1"/>
			<line class="dbsecure2" x1="406.9" y1="252.1" x2="403.3" y2="252.1"/>
		</g>
	</g>
	<g>
		<g>
			<path class="dbsecure0" d="M226.1,49.2c0-2.5,2-4.6,4.6-4.6c2.5,0,4.6,2,4.6,4.6v48.4c0,2.5-2.1,4.6-4.6,4.6c-2.5,0-4.6-2.1-4.6-4.6
				V49.2z"/>
			<path class="dbsecure0" d="M226.1,97.6c0-2.5,2-4.6,4.6-4.6c2.5,0,4.6,2,4.6,4.6"/>
			<path class="dbsecure0" d="M232.3,97.6c0,0.9-0.8,1.7-1.7,1.7c-0.9,0-1.7-0.8-1.7-1.7s0.8-1.7,1.7-1.7
				C231.6,95.9,232.3,96.7,232.3,97.6z"/>
			<line class="dbsecure0" x1="235.2" y1="97.6" x2="232.3" y2="97.6"/>
			<line class="dbsecure0" x1="228.9" y1="97.6" x2="226.1" y2="97.6"/>
		</g>
		<g>
			<path class="dbsecure2" d="M235.2,49.2c0,2.5-2.1,4.6-4.6,4.6c-2.5,0-4.6-2.1-4.6-4.6"/>
			<path class="dbsecure2" d="M232.3,49.2c0,0.9-0.8,1.7-1.7,1.7c-0.9,0-1.7-0.8-1.7-1.7s0.8-1.7,1.7-1.7
				C231.6,47.5,232.3,48.2,232.3,49.2z"/>
			<line class="dbsecure2" x1="235.2" y1="49.2" x2="232.3" y2="49.2"/>
			<line class="dbsecure2" x1="228.9" y1="49.2" x2="226.1" y2="49.2"/>
		</g>
	</g>
	<g>
		<g>
			<path class="dbsecure0" d="M256,49.2c0-2.5,2-4.6,4.6-4.6c2.5,0,4.6,2,4.6,4.6v48.4c0,2.5-2.1,4.6-4.6,4.6c-2.5,0-4.6-2.1-4.6-4.6V49.2
				z"/>
			<path class="dbsecure0" d="M256,97.6c0-2.5,2-4.6,4.6-4.6c2.5,0,4.6,2,4.6,4.6"/>
			<path class="dbsecure0" d="M262.2,97.6c0,0.9-0.8,1.7-1.7,1.7c-0.9,0-1.7-0.8-1.7-1.7s0.8-1.7,1.7-1.7
				C261.5,95.9,262.2,96.7,262.2,97.6z"/>
			<line class="dbsecure0" x1="265.1" y1="97.6" x2="262.2" y2="97.6"/>
			<line class="dbsecure0" x1="258.9" y1="97.6" x2="256" y2="97.6"/>
		</g>
		<g>
			<path class="dbsecure2" d="M265.1,49.2c0,2.5-2.1,4.6-4.6,4.6c-2.5,0-4.6-2.1-4.6-4.6"/>
			<path class="dbsecure2" d="M262.2,49.2c0,0.9-0.8,1.7-1.7,1.7c-0.9,0-1.7-0.8-1.7-1.7s0.8-1.7,1.7-1.7
				C261.5,47.5,262.2,48.2,262.2,49.2z"/>
			<line class="dbsecure2" x1="265.1" y1="49.2" x2="262.2" y2="49.2"/>
			<line class="dbsecure2" x1="258.9" y1="49.2" x2="256" y2="49.2"/>
		</g>
	</g>
	<g>
		<g>
			<path class="dbsecure0" d="M226.1,330.2c0-2.5,2-4.6,4.6-4.6c2.5,0,4.6,2,4.6,4.6v48.4c0,2.5-2.1,4.6-4.6,4.6c-2.5,0-4.6-2.1-4.6-4.6
				V330.2z"/>
			<path class="dbsecure0" d="M226.1,378.6c0-2.5,2-4.6,4.6-4.6c2.5,0,4.6,2,4.6,4.6"/>
			<path class="dbsecure0" d="M232.3,378.6c0,0.9-0.8,1.7-1.7,1.7c-0.9,0-1.7-0.8-1.7-1.7s0.8-1.7,1.7-1.7
				C231.6,377,232.3,377.7,232.3,378.6z"/>
			<line class="dbsecure0" x1="235.2" y1="378.7" x2="232.3" y2="378.7"/>
			<line class="dbsecure0" x1="228.9" y1="378.7" x2="226.1" y2="378.7"/>
		</g>
		<g>
			<path class="dbsecure2" d="M235.2,330.2c0,2.5-2.1,4.6-4.6,4.6c-2.5,0-4.6-2.1-4.6-4.6"/>
			<path class="dbsecure2" d="M232.3,330.2c0,0.9-0.8,1.7-1.7,1.7c-0.9,0-1.7-0.8-1.7-1.7s0.8-1.7,1.7-1.7
				C231.6,328.5,232.3,329.3,232.3,330.2z"/>
			<line class="dbsecure2" x1="235.2" y1="330.2" x2="232.3" y2="330.2"/>
			<line class="dbsecure2" x1="228.9" y1="330.2" x2="226.1" y2="330.2"/>
		</g>
	</g>
	<g>
		<g>
			<path class="dbsecure0" d="M256,330.2c0-2.5,2-4.6,4.6-4.6c2.5,0,4.6,2,4.6,4.6v48.4c0,2.5-2.1,4.6-4.6,4.6c-2.5,0-4.6-2.1-4.6-4.6
				V330.2z"/>
			<path class="dbsecure0" d="M256,378.6c0-2.5,2-4.6,4.6-4.6c2.5,0,4.6,2,4.6,4.6"/>
			<path class="dbsecure0" d="M262.2,378.6c0,0.9-0.8,1.7-1.7,1.7c-0.9,0-1.7-0.8-1.7-1.7s0.8-1.7,1.7-1.7
				C261.5,377,262.2,377.7,262.2,378.6z"/>
			<line class="dbsecure0" x1="265.1" y1="378.7" x2="262.2" y2="378.7"/>
			<line class="dbsecure0" x1="258.9" y1="378.7" x2="256" y2="378.7"/>
		</g>
		<g>
			<path class="dbsecure2" d="M265.1,330.2c0,2.5-2.1,4.6-4.6,4.6c-2.5,0-4.6-2.1-4.6-4.6"/>
			<path class="dbsecure2" d="M262.2,330.2c0,0.9-0.8,1.7-1.7,1.7c-0.9,0-1.7-0.8-1.7-1.7s0.8-1.7,1.7-1.7
				C261.5,328.5,262.2,329.3,262.2,330.2z"/>
			<line class="dbsecure2" x1="265.1" y1="330.2" x2="262.2" y2="330.2"/>
			<line class="dbsecure2" x1="258.9" y1="330.2" x2="256" y2="330.2"/>
		</g>
	</g>
</g>
</svg>
