<?xml version="1.0" encoding="utf-8"?>
<!-- Generator: Adobe Illustrator 22.0.0, SVG Export Plug-In . SVG Version: 6.00 Build 0)  -->
<svg version="1.1" id="Layer_1" xmlns="http://www.w3.org/2000/svg" xmlns:xlink="http://www.w3.org/1999/xlink" x="0px" y="0px"
	 viewBox="0 0 480.8 419.6" style="enable-background:new 0 0 480.8 419.6;" xml:space="preserve">
<style type="text/css">
	.dbhigh0{fill:#FFFFFF;stroke:#808080;stroke-linecap:round;stroke-linejoin:round;stroke-miterlimit:10;}
	.dbhigh1{fill:none;stroke:#808080;stroke-linecap:round;stroke-linejoin:round;stroke-miterlimit:10;}
	.dbhigh2{fill:#FFFFFF;stroke:#ee5586;stroke-width:2;stroke-linecap:round;stroke-linejoin:round;stroke-miterlimit:10;}
	.dbhigh3{fill:none;stroke:#ee5586;stroke-linecap:round;stroke-linejoin:round;stroke-miterlimit:10;}
	.dbhigh4{fill:#FFFFFF;stroke:#ee5586;stroke-width:2;stroke-linecap:round;stroke-linejoin:round;stroke-miterlimit:10;}
</style>
<g>
	<polygon class="dbhigh0" points="135.8,121.6 288.3,33.5 440.9,121.6 440.9,297.8 288.3,385.8 135.8,297.8 	"/>
	<line class="dbhigh1" x1="315.2" y1="222.4" x2="421.8" y2="284"/>
	<line class="dbhigh1" x1="157.7" y1="131" x2="264" y2="192.8"/>
	<line class="dbhigh1" x1="262.6" y1="224.2" x2="154.5" y2="284.7"/>
	<line class="dbhigh1" x1="420.7" y1="135.2" x2="313.8" y2="195.6"/>
	<line class="dbhigh1" x1="288.3" y1="239.8" x2="288.3" y2="358.9"/>
	<line class="dbhigh1" x1="440.9" y1="150.1" x2="440.9" y2="270"/>
	<line class="dbhigh1" x1="288.3" y1="61.3" x2="288.3" y2="180.8"/>
	<path id="svg-concept" class="dbhigh2" d="M317.8,210.3c0,16.3-13.2,29.5-29.5,29.5c-16.3,0-29.5-13.2-29.5-29.5c0-16.3,13.2-29.5,29.5-29.5
		C304.6,180.8,317.8,194,317.8,210.3z"/>
	<path id="svg-concept" class="dbhigh2" d="M476.5,120.8c0,16.3-13.2,29.5-29.5,29.5c-16.3,0-29.5-13.2-29.5-29.5c0-16.3,13.2-29.5,29.5-29.5
		C463.3,91.3,476.5,104.5,476.5,120.8z"/>
	<path class="dbhigh0" d="M317.8,31.3c0,16.3-13.2,29.5-29.5,29.5c-16.3,0-29.5-13.2-29.5-29.5c0-16.3,13.2-29.5,29.5-29.5
		C304.6,1.8,317.8,15,317.8,31.3z"/>
	<path class="dbhigh0" d="M159.1,120.8c0,16.3-13.2,29.5-29.5,29.5c-16.3,0-29.5-13.2-29.5-29.5c0-16.3,13.2-29.5,29.5-29.5
		C145.9,91.3,159.1,104.5,159.1,120.8z"/>
	<path class="dbhigh0" d="M159.1,298.8c0,16.3-13.2,29.5-29.5,29.5c-16.3,0-29.5-13.2-29.5-29.5c0-16.3,13.2-29.5,29.5-29.5
		C145.9,269.3,159.1,282.5,159.1,298.8z"/>
	<path class="dbhigh0" d="M317.8,388.4c0,16.3-13.2,29.5-29.5,29.5c-16.3,0-29.5-13.2-29.5-29.5c0-16.3,13.2-29.5,29.5-29.5
		C304.6,358.9,317.8,372.1,317.8,388.4z"/>
	<path id="svg-concept" class="dbhigh2" d="M476.5,298.8c0,16.3-13.2,29.5-29.5,29.5c-16.3,0-29.5-13.2-29.5-29.5c0-16.3,13.2-29.5,29.5-29.5
		C463.3,269.3,476.5,282.5,476.5,298.8z"/>
</g>
<g>
	<g>
		<path class="dbhigh0" d="M234.7,311c0,14.5-35.4,26.2-79,26.2s-79-11.7-79-26.2v-52.7c0-14.5,35.4-26.2,79-26.2s79,11.7,79,26.2V311z"
			/>
		<path id="svg-concept" class="dbhigh3" d="M206,307.7c0,4-3.3,7.3-7.3,7.3c-4,0-7.3-3.3-7.3-7.3c0-4,3.3-7.3,7.3-7.3C202.7,300.4,206,303.7,206,307.7z"
			/>
		<path id="svg-concept" class="dbhigh3" d="M201.4,307.7c0,1.5-1.2,2.7-2.7,2.7c-1.5,0-2.7-1.2-2.7-2.7s1.2-2.7,2.7-2.7
			C200.2,305,201.4,306.2,201.4,307.7z"/>
		<line id="svg-concept" class="dbhigh3" x1="206" y1="307.7" x2="201.4" y2="307.7"/>
		<line id="svg-concept" class="dbhigh3" x1="195.9" y1="307.7" x2="191.4" y2="307.7"/>
		<path class="dbhigh1" d="M234.7,258.3c0,14.5-35.4,26.2-79,26.2s-79-11.7-79-26.2"/>
	</g>
	<path id="svg-concept" class="dbhigh3" d="M162,372.7c0,4.5-3.7,8.2-8.2,8.2c-4.5,0-8.2-3.7-8.2-8.2c0-4.5,3.6-8.2,8.2-8.2
		C158.3,364.6,162,368.2,162,372.7z"/>
	<line id="svg-concept" class="dbhigh3" x1="153.8" y1="348.3" x2="153.8" y2="364.6"/>
	<line id="svg-concept" class="dbhigh3" x1="100.1" y1="372.7" x2="145.6" y2="372.7"/>
	<line id="svg-concept" class="dbhigh3" x1="162" y1="372.7" x2="207.5" y2="372.7"/>
</g>

<g>
	<path class="dbhigh0" d="M162,221.9c0,14.5-35.4,26.2-79,26.2s-79-11.7-79-26.2v-52.7c0-14.5,35.4-26.2,79-26.2s79,11.7,79,26.2V221.9z
		"/>
	<path id="svg-concept" class="dbhigh3" d="M133.2,218.6c0,4-3.3,7.3-7.3,7.3c-4,0-7.3-3.3-7.3-7.3s3.3-7.3,7.3-7.3C129.9,211.3,133.2,214.5,133.2,218.6z
		"/>
	<path id="svg-concept" class="dbhigh3" d="M128.6,218.6c0,1.5-1.2,2.7-2.7,2.7c-1.5,0-2.7-1.2-2.7-2.7c0-1.5,1.2-2.7,2.7-2.7
		C127.4,215.9,128.6,217.1,128.6,218.6z"/>
	<line id="svg-concept" class="dbhigh3" x1="133.2" y1="218.6" x2="128.6" y2="218.6"/>
	<line id="svg-concept" class="dbhigh3" x1="123.2" y1="218.6" x2="118.6" y2="218.6"/>
	<path class="dbhigh1" d="M162,169.2c0,14.5-35.4,26.2-79,26.2s-79-11.7-79-26.2"/>
	<animateMotion
		path="M0, 0 73 0 73 38 38"
		begin="0s" 
		dur="3s"
		fill="freeze" />
</g>

<g>
	<path class="dbhigh0" d="M258.2,137.8c0,14.5-35.4,26.2-79,26.2s-79-11.7-79-26.2V85.1c0-14.5,35.4-26.2,79-26.2s79,11.7,79,26.2V137.8
		z"/>
	<path id="svg-concept" class="dbhigh3" d="M229.4,134.5c0,4-3.3,7.3-7.3,7.3c-4,0-7.3-3.3-7.3-7.3c0-4,3.3-7.3,7.3-7.3
		C226.1,127.2,229.4,130.5,229.4,134.5z"/>
	<path id="svg-concept" class="dbhigh3" d="M224.8,134.5c0,1.5-1.2,2.7-2.7,2.7c-1.5,0-2.7-1.2-2.7-2.7c0-1.5,1.2-2.7,2.7-2.7
		C223.6,131.8,224.8,133,224.8,134.5z"/>
	<line id="svg-concept" class="dbhigh3" x1="229.4" y1="134.5" x2="224.8" y2="134.5"/>
	<line id="svg-concept" class="dbhigh3" x1="219.4" y1="134.5" x2="214.8" y2="134.5"/>
	<path class="dbhigh1" d="M258.2,85.1c0,14.5-35.4,26.2-79,26.2s-79-11.7-79-26.2"/>
	<animateMotion
		path="M0, 0 -23 0 -23 71 71"
		begin="3s" 
		dur="2s"
		fill="freeze" />
</g>

<g>
<path id="svg-concept" class="dbhigh4" d="M321,193c0,1.8-1.4,3.2-3.2,3.2c-1.8,0-3.2-1.4-3.2-3.2s1.4-3.2,3.2-3.2C319.6,189.8,321,191.2,321,193z"/>
	<animateMotion
	path="M0 0 97 -55 0 0"
	begin="0s" 
	dur="5s" 
	repeatCount="indefinite"
	/>
</g>

<g>
<path id="svg-concept" class="dbhigh4" d="M322.4,224.7c0,1.8-1.4,3.2-3.2,3.2c-1.8,0-3.2-1.4-3.2-3.2s1.4-3.2,3.2-3.2 C320.9,221.5,322.4,222.9,322.4,224.7z"/>
	<animateMotion
	path="M0 0 97 55 0 0"
	begin="0s" 
	dur="3s" 
	repeatCount="indefinite"
	/>
</g>

<g>
<path id="svg-concept" class="dbhigh4" d="M444.1,154c0,1.8-1.4,3.2-3.2,3.2c-1.8,0-3.2-1.4-3.2-3.2s1.4-3.2,3.2-3.2C442.7,150.8,444.1,152.2,444.1,154z"/>
	<animateMotion
	path="M0, 110 0 0 0 110"
	begin="0s" 
	dur="3s" 
	repeatCount="indefinite"
	/>
</g>
</svg>
