<?xml version="1.0" encoding="utf-8"?>
<!-- Generator: Adobe Illustrator 22.0.0, SVG Export Plug-In . SVG Version: 6.00 Build 0)  -->
<svg version="1.1" id="Layer_1" xmlns="http://www.w3.org/2000/svg" xmlns:xlink="http://www.w3.org/1999/xlink" x="0px" y="0px"
	 viewBox="0 0 480.8 419.6" style="enable-background:new 0 0 480.8 419.6;" xml:space="preserve">
<style type="text/css">
	.dbscale0{fill:#FFFFFF;stroke:#808080;stroke-linecap:round;stroke-linejoin:round;stroke-miterlimit:10;}
	.dbscale1{fill:none;stroke:#ee5586;stroke-linecap:round;stroke-linejoin:round;stroke-miterlimit:10;}
	.dbscale2{fill:none;stroke:#808080;stroke-linecap:round;stroke-linejoin:round;stroke-miterlimit:10;}
	.dbscale3{fill:#FFFFFF;}
	.dbscale4{fill:#FFFFFF;stroke:#ee5586;stroke-width:2;stroke-linecap:round;stroke-linejoin:round;stroke-miterlimit:10;}
	.dbscale5{fill:none;stroke:#ee5586;stroke-width:2;stroke-linecap:round;stroke-linejoin:round;stroke-miterlimit:10;}
	.dbscale6{fill:none;stroke:#ee5586;stroke-width:2;stroke-linecap:round;stroke-linejoin:round;stroke-miterlimit:10;}
</style>
<g>
	<path class="dbscale0" d="M3.9,94.5C3.9,77.1,46.5,63,99.1,63s95.2,14.1,95.2,31.5v127c0,17.4-42.6,31.5-95.2,31.5S3.9,238.9,3.9,221.5
		V94.5z"/>
	<g>
		<path id="svg-concept" class="dbscale1" d="M159.6,154c0,4.9-3.9,8.8-8.8,8.8c-4.9,0-8.8-3.9-8.8-8.8c0-4.9,3.9-8.8,8.8-8.8
			C155.6,145.2,159.6,149.2,159.6,154z"/>
		<path id="svg-concept" class="dbscale1" d="M154,154c0,1.8-1.5,3.3-3.3,3.3c-1.8,0-3.3-1.5-3.3-3.3s1.5-3.3,3.3-3.3C152.6,150.8,154,152.2,154,154z"/>
		<line id="svg-concept" class="dbscale1" x1="159.6" y1="154" x2="154" y2="154"/>
		<line id="svg-concept" class="dbscale1" x1="147.5" y1="154" x2="142" y2="154"/>
	</g>
	<g>
		<path id="svg-concept" class="dbscale1" d="M159.6,217.8c0,4.9-3.9,8.8-8.8,8.8c-4.9,0-8.8-3.9-8.8-8.8s3.9-8.8,8.8-8.8
			C155.6,209.1,159.6,213,159.6,217.8z"/>
		<path id="svg-concept" class="dbscale1" d="M154,217.9c0,1.8-1.5,3.3-3.3,3.3c-1.8,0-3.3-1.5-3.3-3.3c0-1.8,1.5-3.3,3.3-3.3
			C152.6,214.6,154,216,154,217.9z"/>
		<line id="svg-concept" class="dbscale1" x1="159.6" y1="217.9" x2="154" y2="217.9"/>
		<line id="svg-concept" class="dbscale1" x1="147.5" y1="217.9" x2="142" y2="217.9"/>
	</g>
	<path class="dbscale2" d="M194.2,94.5c0,17.4-42.6,31.5-95.2,31.5S3.9,111.9,3.9,94.5"/>
	<path class="dbscale2" d="M194.2,158c0,17.4-42.6,31.5-95.2,31.5S3.9,175.4,3.9,158"/>
	<path id="svg-concept" class="dbscale1" d="M106.6,295.7c0,5.4-4.4,9.8-9.8,9.8c-5.4,0-9.8-4.4-9.8-9.8c0-5.4,4.4-9.8,9.8-9.8
		C102.2,285.8,106.6,290.2,106.6,295.7z"/>
	<line id="svg-concept" class="dbscale1" x1="96.7" y1="266.2" x2="96.7" y2="285.8"/>
	<line id="svg-concept" class="dbscale1" x1="32.1" y1="295.7" x2="86.9" y2="295.7"/>
	<line id="svg-concept" class="dbscale1" x1="106.6" y1="295.7" x2="161.4" y2="295.7"/>
</g>
<g>
	<path class="dbscale0" d="M285.9,83.7c0-17.4,42.6-31.5,95.2-31.5s95.2,14.1,95.2,31.5v127c0,17.4-42.6,31.5-95.2,31.5
		s-95.2-14.1-95.2-31.5V83.7z"/>
	<g>
		<path class="dbscale0" d="M441.6,143.2c0,4.9-3.9,8.8-8.8,8.8c-4.9,0-8.8-3.9-8.8-8.8s3.9-8.8,8.8-8.8
			C437.7,134.4,441.6,138.4,441.6,143.2z"/>
		<path class="dbscale0" d="M436.1,143.2c0,1.8-1.5,3.3-3.3,3.3c-1.8,0-3.3-1.5-3.3-3.3s1.5-3.3,3.3-3.3
			C434.6,140,436.1,141.4,436.1,143.2z"/>
		<line class="dbscale0" x1="441.6" y1="143.2" x2="436.1" y2="143.2"/>
		<line class="dbscale0" x1="429.6" y1="143.2" x2="424" y2="143.2"/>
	</g>
	<g>
		<path class="dbscale0" d="M441.6,207c0,4.9-3.9,8.8-8.8,8.8c-4.9,0-8.8-3.9-8.8-8.8s3.9-8.8,8.8-8.8C437.7,198.3,441.6,202.2,441.6,207
			z"/>
		<path class="dbscale0" d="M436.1,207c0,1.8-1.5,3.3-3.3,3.3c-1.8,0-3.3-1.5-3.3-3.3c0-1.8,1.5-3.3,3.3-3.3
			C434.6,203.8,436.1,205.2,436.1,207z"/>
		<line class="dbscale0" x1="441.6" y1="207.1" x2="436.1" y2="207.1"/>
		<line class="dbscale0" x1="429.6" y1="207.1" x2="424" y2="207.1"/>
	</g>
	<path class="dbscale2" d="M476.3,83.7c0,17.4-42.6,31.5-95.2,31.5s-95.2-14.1-95.2-31.5"/>
	<path class="dbscale2" d="M476.3,147.2c0,17.4-42.6,31.5-95.2,31.5s-95.2-14.1-95.2-31.5"/>
	<path id="svg-concept" class="dbscale1" d="M388.6,284.8c0,5.4-4.4,9.8-9.8,9.8s-9.8-4.4-9.8-9.8c0-5.4,4.4-9.8,9.8-9.8S388.6,279.4,388.6,284.8z"/>
	<line id="svg-concept" class="dbscale1" x1="378.8" y1="255.4" x2="378.8" y2="275"/>
	<line id="svg-concept" class="dbscale1" x1="314.1" y1="284.9" x2="369" y2="284.9"/>
	<line id="svg-concept" class="dbscale1" x1="388.6" y1="284.9" x2="443.4" y2="284.9"/>
</g>
<g>
	<path class="dbscale0" d="M120.7,162c0-20.8,51-37.7,113.8-37.7s113.8,16.9,113.8,37.7v151.9c0,20.8-51,37.7-113.8,37.7
		s-113.8-16.9-113.8-37.7V162z"/>
	<path id="svg-concept" class="dbscale1" d="M306.9,233.2c0,5.8-4.7,10.5-10.5,10.5c-5.8,0-10.5-4.7-10.5-10.5s4.7-10.5,10.5-10.5
		C302.2,222.7,306.9,227.4,306.9,233.2z"/>
	<path id="svg-concept" class="dbscale1" d="M300.3,233.2c0,2.2-1.7,3.9-3.9,3.9c-2.2,0-3.9-1.8-3.9-3.9s1.7-3.9,3.9-3.9
		C298.5,229.3,300.3,231,300.3,233.2z"/>
	<line id="svg-concept" class="dbscale1" x1="306.9" y1="233.2" x2="300.3" y2="233.2"/>
	<line id="svg-concept" class="dbscale1" x1="292.5" y1="233.2" x2="285.9" y2="233.2"/>
	<path id="svg-concept" class="dbscale1" d="M306.9,309.5c0,5.8-4.7,10.5-10.5,10.5c-5.8,0-10.5-4.7-10.5-10.5s4.7-10.5,10.5-10.5
		C302.2,299,306.9,303.7,306.9,309.5z"/>
	<path id="svg-concept" class="dbscale1" d="M300.3,309.5c0,2.2-1.7,3.9-3.9,3.9c-2.2,0-3.9-1.8-3.9-3.9s1.7-3.9,3.9-3.9
		C298.5,305.6,300.3,307.4,300.3,309.5z"/>
	<line id="svg-concept" class="dbscale1" x1="306.9" y1="309.5" x2="300.3" y2="309.5"/>
	<line id="svg-concept" class="dbscale1" x1="292.5" y1="309.5" x2="285.9" y2="309.5"/>
	<path class="dbscale2" d="M348.4,238c0,20.8-51,37.7-113.8,37.7S120.7,258.8,120.7,238"/>
	<path id="svg-concept" class="dbscale6" d="M243.5,402.6c0,6.5-5.3,11.8-11.8,11.8S220,409,220,402.6c0-6.5,5.3-11.7,11.8-11.7S243.5,396.1,243.5,402.6z"
		/>
	<line id="svg-concept" class="dbscale6" x1="231.8" y1="367.3" x2="231.8" y2="390.8"/>
	<line id="svg-concept" class="dbscale6" x1="154.4" y1="402.6" x2="220" y2="402.6"/>
	<line id="svg-concept" class="dbscale6" x1="243.5" y1="402.6" x2="309.1" y2="402.6"/>
	<path class="dbscale2" d="M348.4,162c0,20.8-51,37.7-113.8,37.7S120.7,182.8,120.7,162"/>
</g>
<path class="dbscale3" d="M120.7,53.3c0-20.8,36.6-50.6,113.8-50.6c57,0,113.8,20.7,113.8,50.6v66.9c0,29-51,50.6-113.8,50.6
	s-113.8-22.3-113.8-50.6V53.3z"/>
<path class="dbscale0" d="M234.7,53.3"/>
<path class="dbscale0" d="M348.7,53.3"/>
<g>
	<g>
		<path class="dbscale0" d="M234.7,103.9c-62.9,0-114-22.6-114-50.6c0-29.9,51.7-50.6,114-50.6c62.9,0,114,22.7,114,50.6"/>
		<path class="dbscale0" d="M234.7,170.8c-62.9,0-114-22.6-114-50.6"/>
		<line class="dbscale0" x1="234.7" y1="2.7" x2="234.7" y2="53.3"/>
		<line class="dbscale0" x1="234.7" y1="53.3" x2="120.7" y2="53.3"/>
		<line class="dbscale0" x1="161.7" y1="92.1" x2="307.7" y2="14.4"/>
		<line class="dbscale0" x1="161.7" y1="92.1" x2="161.7" y2="159.1"/>
		<line class="dbscale0" x1="348.4" y1="53.3" x2="234.7" y2="53.3"/>
		<line class="dbscale0" x1="161.7" y1="14.4" x2="234.7" y2="53.3"/>
	</g>
	<line class="dbscale0" x1="120.7" y1="120.2" x2="120.7" y2="53.3"/>
</g>
<g>
	<path id="svg-concept" class="dbscale4" d="M396.8,53.3H282.8v50.6l72.9,55.2c25-9.3,41-23.2,41-38.8V53.3"/>
	<path id="svg-concept" class="dbscale5" d="M396.8,53.3c0.9,15.4-15.2,28.7-41,38.8"/>
	<line id="svg-concept" class="dbscale5" x1="282.8" y1="53.3" x2="355.8" y2="92.4"/>
	<line id="svg-concept" class="dbscale5" x1="355.8" y1="92.4" x2="355.8" y2="159.1"/>
	<animateMotion
		path="M8, 0 -48 0 48"
		begin="0s" 
		dur="3s" 
		fill="freeze" />
</g>
<g>
	<path class="dbscale0" d="M307.7,159.1c-19.8,7.3-45.2,11.7-73,11.7V53.3l73,38.9L307.7,159.1z"/>
	<path class="dbscale0" d="M307.7,92.1c-19.8,7.3-45.2,11.7-73,11.7"/>
</g>
</svg>
