<?xml version="1.0" encoding="utf-8"?>
<!-- Generator: Adobe Illustrator 22.0.0, SVG Export Plug-In . SVG Version: 6.00 Build 0)  -->
<svg version="1.1" id="Layer_1" xmlns="http://www.w3.org/2000/svg" xmlns:xlink="http://www.w3.org/1999/xlink" x="0px" y="0px"
	 viewBox="0 0 668.6 652.5" style="enable-background:new 0 0 668.6 652.5;" xml:space="preserve">
<style type="text/css">
	.dns0{fill:none;stroke:#808080;stroke-miterlimit:10;}
	.dns1{fill:#FFFFFF;stroke-width:2;stroke-linecap:round;stroke-linejoin:round;stroke-miterlimit:10;}
	.dns2{fill:none;stroke-width:3;stroke-linecap:round;stroke-linejoin:round;stroke-miterlimit:10;}
	.dns3{fill:url(#SVGID_1_);}
	.dns4{fill:none;stroke:#D7D7D7;stroke-miterlimit:10;}
	.dns5{fill:none;stroke-linecap:round;stroke-linejoin:round;stroke-miterlimit:10;}
	.dns6{fill:none;stroke:#808080;stroke-linecap:round;stroke-linejoin:round;stroke-miterlimit:10;}
	.dns7{fill:#FFFFFF;}
	.dns8{fill:#FFFFFF;stroke:#808080;stroke-linecap:round;stroke-linejoin:round;stroke-miterlimit:10;}
	.dns9{fill:#FFFFFF;stroke:#ED5485;stroke-linecap:round;stroke-linejoin:round;stroke-miterlimit:10;}
</style>
<circle class="dns0" cx="333" cy="326" r="319"/>
<g>
	<path id="svg-concept" class="dns1" d="M21.6,327.5c0,2.9-2.4,5.3-5.3,5.3s-5.3-2.4-5.3-5.3s2.4-5.3,5.3-5.3S21.6,324.6,21.6,327.5z"/>
	
		<animateTransform  accumulate="none" additive="replace" attributeName="transform" calcMode="linear" dur="10s" fill="remove" from="0 325 320" repeatCount="indefinite" restart="always" to="360 340 325" type="rotate">
		</animateTransform>
</g>
<g>
	<path id="svg-concept" class="dns1" d="M655,327.5c0,2.9-2.4,5.3-5.3,5.3c-2.9,0-5.3-2.4-5.3-5.3s2.4-5.3,5.3-5.3S655,324.6,655,327.5z"/>
	
		<animateTransform  accumulate="none" additive="replace" attributeName="transform" calcMode="linear" dur="20s" fill="remove" from="0 345 320" repeatCount="indefinite" restart="always" to="-360 322 323" type="rotate">
		</animateTransform>
</g>
<path id="svg-concept" class="dns2" d="M575.5,326.8c0,134-108.6,242.5-242.6,242.5c-134,0-242.5-108.6-242.5-242.5C90.4,192.8,199,84.2,333,84.2
	C466.9,84.2,575.5,192.8,575.5,326.8z"/>
<radialGradient id="SVGID_1_" cx="203.4895" cy="256.2766" r="3.037761e-02" gradientUnits="userSpaceOnUse">
	<stop  offset="0" style="stop-color:#27A8E0"/>
	<stop  offset="0.1991" style="stop-color:#2AA9E0"/>
	<stop  offset="0.3473" style="stop-color:#33ACE0"/>
	<stop  offset="0.4791" style="stop-color:#44B1E1"/>
	<stop  offset="0.6013" style="stop-color:#5AB9E2"/>
	<stop  offset="0.7169" style="stop-color:#78C2E3"/>
	<stop  offset="0.8275" style="stop-color:#9CCEE4"/>
	<stop  offset="0.9323" style="stop-color:#C6DCE5"/>
	<stop  offset="1" style="stop-color:#E5E6E6"/>
</radialGradient>
<path class="dns3" d="M203.5,256.3L203.5,256.3C203.4,256.3,203.4,256.3,203.5,256.3z"/>
<line class="dns4" x1="328.2" y1="146.3" x2="329.8" y2="150.5"/>
<line class="dns4" x1="396" y1="168.7" x2="406.5" y2="157.5"/>
<line class="dns4" x1="242.7" y1="201.4" x2="239.8" y2="190.3"/>
<line class="dns4" x1="240.6" y1="183.1" x2="248.8" y2="174.3"/>
<line class="dns4" x1="247.8" y1="168.3" x2="235.5" y2="164"/>
<line class="dns4" x1="247" y1="202.7" x2="267.9" y2="184"/>
<line class="dns4" x1="273.4" y1="177.5" x2="278.7" y2="170"/>
<line class="dns4" x1="283" y1="162.7" x2="284.6" y2="154.6"/>
<line class="dns4" x1="287.8" y1="146.8" x2="293.2" y2="140.9"/>
<line class="dns4" x1="283.3" y1="129.2" x2="259.1" y2="129.6"/>
<line class="dns4" x1="251.2" y1="132.7" x2="227.4" y2="140.2"/>
<line class="dns4" x1="220.5" y1="145.4" x2="215.9" y2="150.4"/>
<line class="dns4" x1="228.1" y1="160" x2="216.7" y2="156.1"/>
<line class="dns4" x1="198.8" y1="491.9" x2="188.3" y2="470.6"/>
<line class="dns4" x1="189.9" y1="464.1" x2="213.8" y2="449.4"/>
<line class="dns4" x1="213.8" y1="449.4" x2="192.9" y2="440.3"/>
<line class="dns4" x1="192.1" y1="434.1" x2="205.3" y2="428.3"/>
<line class="dns4" x1="205.9" y1="421.9" x2="188" y2="401.3"/>
<line class="dns4" x1="212.7" y1="423.6" x2="236.5" y2="415.4"/>
<line class="dns4" x1="247.1" y1="375.1" x2="228.8" y2="367"/>
<line class="dns4" x1="186.5" y1="393.9" x2="191.5" y2="370.1"/>
<line class="dns4" x1="191.5" y1="370.1" x2="176" y2="372.2"/>
<line class="dns4" x1="171.9" y1="366.6" x2="173.7" y2="348.1"/>
<line class="dns4" x1="178.7" y1="343.8" x2="195" y2="342.3"/>
<line class="dns4" x1="202.6" y1="345" x2="221.5" y2="362.2"/>
<line class="dns4" x1="170.2" y1="343.8" x2="162" y2="337.2"/>
<line class="dns4" x1="157.1" y1="329.8" x2="153.9" y2="321.3"/>
<line class="dns4" x1="148" y1="317.4" x2="133.8" y2="318.3"/>
<line class="dns4" x1="130.5" y1="314" x2="137.1" y2="299.7"/>
<line class="dns4" x1="134.7" y1="295.9" x2="117.2" y2="299.2"/>
<line class="dns4" x1="113" y1="295.9" x2="128" y2="242.8"/>
<line class="dns4" x1="131.9" y1="235.2" x2="156.5" y2="219.3"/>
<line class="dns4" x1="162.9" y1="220.4" x2="177.8" y2="232.5"/>
<line class="dns4" x1="183" y1="231.4" x2="190.1" y2="211.8"/>
<line class="dns4" x1="192.9" y1="210.7" x2="219.3" y2="243.1"/>
<line class="dns4" x1="202.7" y1="247.6" x2="192.9" y2="210.7"/>
<line class="dns4" x1="181.1" y1="239.5" x2="182.2" y2="273"/>
<line class="dns4" x1="179.8" y1="280.8" x2="172.3" y2="296.5"/>
<line class="dns4" x1="142.2" y1="293.1" x2="166.4" y2="298.1"/>
<line class="dns4" x1="159.3" y1="211.8" x2="158.6" y2="192.5"/>
<line class="dns4" x1="162.9" y1="188.2" x2="173.2" y2="189"/>
<line class="dns4" x1="177.4" y1="184.8" x2="181.2" y2="173"/>
<line class="dns4" x1="185.4" y1="168.7" x2="200.4" y2="175"/>
<line class="dns4" x1="204.6" y1="181.4" x2="204.6" y2="194.5"/>
<line class="dns4" x1="340" y1="431.4" x2="345.9" y2="436.3"/>
<line class="dns4" x1="352.9" y1="434.4" x2="357.2" y2="426.5"/>
<line class="dns4" x1="362.2" y1="417.9" x2="370.3" y2="405"/>
<line class="dns4" x1="336.7" y1="424.4" x2="328.6" y2="407.1"/>
<line class="dns4" x1="328.6" y1="398.6" x2="331.5" y2="390.9"/>
<line class="dns4" x1="331.5" y1="382.4" x2="350.9" y2="361.7"/>
<line class="dns4" x1="324.4" y1="358" x2="331.5" y2="382.4"/>
<line class="dns4" x1="357.2" y1="360.2" x2="373.6" y2="367.1"/>
<line class="dns4" x1="372.3" y1="396.5" x2="377.9" y2="371.4"/>
<line class="dns4" x1="377.9" y1="362.9" x2="395.3" y2="343.2"/>
<line class="dns4" x1="386.6" y1="337.7" x2="391.1" y2="338.2"/>
<line class="dns4" x1="379.6" y1="333.3" x2="370.7" y2="305.5"/>
<line class="dns4" x1="386.1" y1="324" x2="370.7" y2="305.5"/>
<line class="dns4" x1="392.9" y1="324.5" x2="408.6" y2="315.5"/>
<line class="dns4" x1="408.3" y1="309.2" x2="399" y2="294.3"/>
<line class="dns4" x1="412.4" y1="298.4" x2="399" y2="294.3"/>
<line class="dns4" x1="420.2" y1="300.8" x2="426.3" y2="301.7"/>
<line class="dns4" x1="432.6" y1="306.7" x2="445.6" y2="338.6"/>
<line class="dns4" x1="450.6" y1="339.6" x2="467.8" y2="312.4"/>
<line class="dns4" x1="473.9" y1="311.9" x2="483.9" y2="325.7"/>
<line class="dns4" x1="489.6" y1="332" x2="492.1" y2="349.6"/>
<line class="dns4" x1="497.7" y1="334.9" x2="489.6" y2="332"/>
<line class="dns4" x1="502.5" y1="333.5" x2="506.4" y2="318.8"/>
<line class="dns4" x1="509.6" y1="311" x2="521.6" y2="298.6"/>
<line class="dns4" x1="522.6" y1="291" x2="524" y2="271.4"/>
<line class="dns4" x1="527.6" y1="269.4" x2="532.7" y2="273.8"/>
<line class="dns4" x1="537" y1="272.7" x2="540.9" y2="256.6"/>
<line class="dns4" x1="540.3" y1="248.8" x2="519.9" y2="207"/>
<line class="dns4" x1="515.8" y1="199.5" x2="493.4" y2="172.5"/>
<line class="dns4" x1="487.6" y1="166.2" x2="470.9" y2="158.4"/>
<line class="dns4" x1="467.8" y1="159.7" x2="462.5" y2="192"/>
<line class="dns4" x1="463.1" y1="157.4" x2="446.8" y2="163.2"/>
<line class="dns4" x1="440.1" y1="168.5" x2="436.8" y2="171.2"/>
<line class="dns4" x1="436.4" y1="177.9" x2="458" y2="193.7"/>
<line class="dns4" x1="429.6" y1="174.3" x2="424.3" y2="173.6"/>
<line class="dns4" x1="415.8" y1="175.9" x2="406.7" y2="180.2"/>
<line class="dns4" x1="399" y1="183.8" x2="379.9" y2="188.1"/>
<line class="dns4" x1="372" y1="187.6" x2="352.7" y2="179.1"/>
<line class="dns4" x1="345.6" y1="179.2" x2="321.9" y2="201.4"/>
<line class="dns4" x1="319.9" y1="208.9" x2="322.6" y2="225.7"/>
<line class="dns4" x1="298.5" y1="214.5" x2="299.2" y2="218"/>
<line class="dns4" x1="300.8" y1="226.5" x2="299.7" y2="230.7"/>
<line class="dns4" x1="310.3" y1="242.6" x2="321.3" y2="233.3"/>
<line class="dns4" x1="294.6" y1="266.4" x2="296.7" y2="268.4"/>
<line class="dns4" x1="325.2" y1="262" x2="329.7" y2="264.9"/>
<line class="dns4" x1="336.4" y1="265" x2="342.4" y2="263.3"/>
<line class="dns4" x1="348.6" y1="263.9" x2="351.7" y2="271.2"/>
<line class="dns4" x1="358.5" y1="274.6" x2="363.9" y2="275.5"/>
<line class="dns4" x1="368.6" y1="280.4" x2="370.3" y2="282.7"/>
<line class="dns4" x1="366.5" y1="288.8" x2="345.1" y2="292.3"/>
<line class="dns4" x1="337.3" y1="291.4" x2="324.7" y2="282.1"/>
<line class="dns4" x1="317.6" y1="278.9" x2="300.6" y2="281.5"/>
<line class="dns4" x1="294.5" y1="286.4" x2="284.5" y2="302.7"/>
<line class="dns4" x1="298.1" y1="286.8" x2="302.4" y2="306.4"/>
<line class="dns4" x1="306.1" y1="312.8" x2="333" y2="322.9"/>
<line class="dns4" x1="341" y1="297.9" x2="336.7" y2="320.7"/>
<line class="dns4" x1="363.9" y1="305.1" x2="341" y2="322.5"/>
<line class="dns4" x1="338.8" y1="328.9" x2="350.1" y2="353"/>
<line class="dns4" x1="334.3" y1="329.3" x2="326.2" y2="349.4"/>
<line class="dns4" x1="319.5" y1="353" x2="303.8" y2="348.8"/>
<line class="dns4" x1="294.7" y1="346.7" x2="282.4" y2="336"/>
<line class="dns4" x1="279.2" y1="328.9" x2="282.4" y2="310.6"/>
<line class="dns4" x1="286.2" y1="308.3" x2="298.1" y2="309.3"/>
<line class="dns4" x1="328" y1="229.8" x2="367.3" y2="222.3"/>
<line class="dns4" x1="375.9" y1="193.7" x2="371.6" y2="218"/>
<line class="dns4" x1="375.9" y1="222.3" x2="426" y2="234.1"/>
<line class="dns4" x1="371.6" y1="226.5" x2="368.2" y2="271.2"/>
<line class="dns4" x1="499.5" y1="238.4" x2="520.6" y2="264.6"/>
<line class="dns4" x1="514.6" y1="205.4" x2="498.5" y2="230.9"/>
<line class="dns4" x1="486.4" y1="172.5" x2="465.2" y2="193.3"/>
<line class="dns4" x1="464.9" y1="198.8" x2="492.4" y2="231.8"/>
<line class="dns4" x1="458" y1="198.8" x2="432.4" y2="229.8"/>
<line class="dns4" x1="434.6" y1="303.1" x2="466.4" y2="309.2"/>
<line class="dns4" x1="475" y1="309.2" x2="503.2" y2="314.7"/>
<line class="dns4" x1="393.6" y1="286.8" x2="373.7" y2="226"/>
<line class="dns4" x1="374.6" y1="286.9" x2="391.7" y2="291.2"/>
<line class="dns4" x1="515.8" y1="437" x2="513.1" y2="421.5"/>
<line class="dns4" x1="516.2" y1="414.2" x2="523" y2="408"/>
<line class="dns4" x1="529.6" y1="402.6" x2="542" y2="395.6"/>
<line class="dns4" x1="521.9" y1="439.4" x2="526.1" y2="435.3"/>
<line class="dns4" x1="526.1" y1="427.8" x2="516.6" y2="419.6"/>
<line class="dns4" x1="515.6" y1="362.3" x2="521.4" y2="354.5"/>
<line class="dns4" x1="393.6" y1="399.3" x2="389.7" y2="414.9"/>
<line class="dns4" x1="202.6" y1="492.1" x2="216.4" y2="453.3"/>
<line class="dns4" x1="186.5" y1="462.4" x2="188.6" y2="441.7"/>
<line class="dns4" x1="189.6" y1="433.3" x2="188" y2="401.3"/>
<line class="dns4" x1="220.7" y1="445.9" x2="238" y2="420.9"/>
<line class="dns4" x1="241.9" y1="413.1" x2="250.9" y2="381.3"/>
<line class="dns4" x1="173.8" y1="375.1" x2="182.8" y2="394.5"/>
<line class="dns4" x1="185" y1="274.1" x2="201.5" y2="254.3"/>
<line class="dns4" x1="129.5" y1="234.6" x2="156.5" y2="191.9"/>
<g id="svg-concept">
	<path id="svg-concept" class="dns5"  d="M467.5,269.5c0,2.4-1.9,4.3-4.3,4.3c-2.4,0-4.3-1.9-4.3-4.3s1.9-4.3,4.3-4.3
		C465.6,265.2,467.5,267.1,467.5,269.5z"/>
	<path id="svg-concept" class="dns5"  d="M542,414.4c0,2.4-1.9,4.3-4.3,4.3c-2.4,0-4.3-1.9-4.3-4.3c0-2.4,1.9-4.3,4.3-4.3
		C540.1,410.2,542,412.1,542,414.4z"/>
	<path id="svg-concept" class="dns5"  d="M355.1,399.5c0,2.4-1.9,4.3-4.3,4.3c-2.4,0-4.3-1.9-4.3-4.3s1.9-4.3,4.3-4.3
		C353.2,395.3,355.1,397.2,355.1,399.5z"/>
	<path id="svg-concept" class="dns5"  d="M154.9,255.2c0,2.4-1.9,4.3-4.3,4.3c-2.4,0-4.3-1.9-4.3-4.3c0-2.4,1.9-4.3,4.3-4.3
		C153,250.9,154.9,252.8,154.9,255.2z"/>
	<path id="svg-concept" class="dns5"  d="M224.9,391.4c0,2.4-1.9,4.3-4.3,4.3c-2.4,0-4.3-1.9-4.3-4.3c0-2.4,1.9-4.3,4.3-4.3
		C223,387.1,224.9,389,224.9,391.4z"/>
	<path id="svg-concept" class="dns5"  d="M265,149.6c0,2.4-1.9,4.3-4.3,4.3c-2.4,0-4.3-1.9-4.3-4.3s1.9-4.3,4.3-4.3C263.1,145.4,265,147.3,265,149.6z"
		/>
	<line id="svg-concept" class="dns5"  x1="281.2" y1="150.4" x2="265" y2="149.6"/>
	<line id="svg-concept" class="dns5"  x1="256.1" y1="134.9" x2="259.8" y2="145.4"/>
	<line id="svg-concept" class="dns5"  x1="257.4" y1="152.3" x2="234.7" y2="159.3"/>
	<line id="svg-concept" class="dns5"  x1="259.2" y1="153.9" x2="253.6" y2="166.2"/>
	<line id="svg-concept" class="dns5"  x1="236.5" y1="415.4" x2="223.3" y2="395.4"/>
	<line id="svg-concept" class="dns5"  x1="224.1" y1="388.9" x2="246.7" y2="379.4"/>
	<line id="svg-concept" class="dns5"  x1="197" y1="369.5" x2="216.9" y2="389.4"/>
	<line id="svg-concept" class="dns5"  x1="132.7" y1="241.7" x2="147.1" y2="252.9"/>
	<line id="svg-concept" class="dns5"  x1="153.6" y1="252.1" x2="177.9" y2="238.1"/>
	<line id="svg-concept" class="dns5"  x1="153.5" y1="258.4" x2="178.6" y2="275"/>
	<line id="svg-concept" class="dns5"  x1="148.9" y1="259.1" x2="139" y2="291.6"/>
	<line id="svg-concept" class="dns5"  x1="357.2" y1="419" x2="350.9" y2="403.8"/>
	<line id="svg-concept" class="dns5"  x1="335.8" y1="388.8" x2="346.6" y2="396.5"/>
	<line id="svg-concept" class="dns5"  x1="352.9" y1="395.8" x2="377.9" y2="371.4"/>
	<line id="svg-concept" class="dns5"  x1="307" y1="250.4" x2="307" y2="255.3"/>
	<line id="svg-concept" class="dns5"  x1="302.7" y1="260.4" x2="294.8" y2="262.2"/>
	<line id="svg-concept" class="dns5"  x1="433.3" y1="237.1" x2="461.5" y2="265"/>
	<line id="svg-concept" class="dns5"  x1="466.4" y1="266.7" x2="493.7" y2="238.4"/>
	<line id="svg-concept" class="dns5"  x1="432.4" y1="299.3" x2="459.2" y2="272.5"/>
	<line id="svg-concept" class="dns5"  x1="463.2" y1="273.8" x2="470.7" y2="304.9"/>
	<line id="svg-concept" class="dns5"  x1="466.9" y1="271.6" x2="504.4" y2="311.7"/>
	<line id="svg-concept" class="dns5"  x1="467.5" y1="269.5" x2="519.8" y2="267.1"/>
	<line id="svg-concept" class="dns5"  x1="544.8" y1="396.6" x2="539.1" y2="410.2"/>
	<line id="svg-concept" class="dns5"  x1="535.8" y1="418.2" x2="531.5" y2="427.8"/>
	<line id="svg-concept" class="dns5"  x1="533.5" y1="414.4" x2="516.6" y2="419.6"/>
	<line id="svg-concept" class="dns5"  x1="534.4" y1="411.8" x2="529.4" y2="407.7"/>
	<path id="svg-concept" class="dns5"  d="M311.3,259.5c0,2.4-1.9,4.3-4.3,4.3c-2.4,0-4.3-1.9-4.3-4.3s1.9-4.3,4.3-4.3
		C309.3,255.3,311.3,257.2,311.3,259.5z"/>
	<line id="svg-concept" class="dns5"  x1="311.1" y1="258.3" x2="317.6" y2="258.2"/>
</g>
<path class="dns6" d="M277.3,109.7c-1.8,0-3.2-1.4-3.2-3.2c0-1.8,1.4-3.2,3.2-3.2s3.2,1.4,3.2,3.2
	C280.5,108.2,279.1,109.7,277.3,109.7z"/>
<path class="dns0" d="M353.7,438.7c0,2.4-1.9,4.3-4.3,4.3c-2.4,0-4.3-1.9-4.3-4.3c0-2.4,1.9-4.3,4.3-4.3
	C351.8,434.4,353.7,436.3,353.7,438.7z"/>
<path class="dns0" d="M341,428.6c0,2.4-1.9,4.3-4.3,4.3c-2.4,0-4.3-1.9-4.3-4.3c0-2.4,1.9-4.3,4.3-4.3
	C339.1,424.4,341,426.3,341,428.6z"/>
<path class="dns0" d="M376.5,400.8c0,2.4-1.9,4.3-4.3,4.3c-2.4,0-4.3-1.9-4.3-4.3c0-2.4,1.9-4.3,4.3-4.3
	C374.6,396.5,376.5,398.4,376.5,400.8z"/>
<path class="dns0" d="M382.2,367.1c0,2.4-1.9,4.3-4.3,4.3c-2.4,0-4.3-1.9-4.3-4.3s1.9-4.3,4.3-4.3
	C380.3,362.9,382.2,364.8,382.2,367.1z"/>
<path class="dns0" d="M399.6,338.9c0,2.4-1.9,4.3-4.3,4.3c-2.4,0-4.3-1.9-4.3-4.3c0-2.4,1.9-4.3,4.3-4.3
	C397.7,334.6,399.6,336.5,399.6,338.9z"/>
<path class="dns0" d="M386.4,336.7c0,2.4-1.9,4.3-4.3,4.3c-2.4,0-4.3-1.9-4.3-4.3c0-2.4,1.9-4.3,4.3-4.3
	C384.5,332.4,386.4,334.3,386.4,336.7z"/>
<path class="dns0" d="M372.4,302.1c0,2.4-1.9,4.3-4.3,4.3c-2.4,0-4.3-1.9-4.3-4.3s1.9-4.3,4.3-4.3
	C370.5,297.8,372.4,299.7,372.4,302.1z"/>
<path class="dns0" d="M393.6,326.8c0,2.4-1.9,4.3-4.3,4.3c-2.4,0-4.3-1.9-4.3-4.3s1.9-4.3,4.3-4.3
	C391.6,322.5,393.6,324.4,393.6,326.8z"/>
<path class="dns0" d="M415.9,312.5c0,2.4-1.9,4.3-4.3,4.3c-2.4,0-4.3-1.9-4.3-4.3c0-2.4,1.9-4.3,4.3-4.3
	C414,308.3,415.9,310.2,415.9,312.5z"/>
<path class="dns0" d="M374.6,286.9c0,2.4-1.9,4.3-4.3,4.3c-2.4,0-4.3-1.9-4.3-4.3c0-2.4,1.9-4.3,4.3-4.3
	C372.7,282.7,374.6,284.6,374.6,286.9z"/>
<path class="dns0" d="M372.5,275.5c0,2.4-1.9,4.3-4.3,4.3c-2.4,0-4.3-1.9-4.3-4.3s1.9-4.3,4.3-4.3
	C370.6,271.2,372.5,273.1,372.5,275.5z"/>
<path class="dns0" d="M358.5,274.6c0,2.4-1.9,4.3-4.3,4.3c-2.4,0-4.3-1.9-4.3-4.3c0-2.4,1.9-4.3,4.3-4.3
	C356.6,270.4,358.5,272.3,358.5,274.6z"/>
<path class="dns0" d="M345.3,293.6c0,2.4-1.9,4.3-4.3,4.3c-2.4,0-4.3-1.9-4.3-4.3s1.9-4.3,4.3-4.3
	C343.3,289.3,345.3,291.2,345.3,293.6z"/>
<path class="dns0" d="M300.8,282.7c0,2.4-1.9,4.3-4.3,4.3c-2.4,0-4.3-1.9-4.3-4.3c0-2.4,1.9-4.3,4.3-4.3
	C298.9,278.4,300.8,280.3,300.8,282.7z"/>
<path class="dns0" d="M325.9,259.6c0,2.4-1.9,4.3-4.3,4.3c-2.4,0-4.3-1.9-4.3-4.3c0-2.4,1.9-4.3,4.3-4.3
	C324,255.4,325.9,257.3,325.9,259.6z"/>
<path class="dns0" d="M337.3,267.6c0,2.4-1.9,4.3-4.3,4.3c-2.4,0-4.3-1.9-4.3-4.3s1.9-4.3,4.3-4.3
	C335.4,263.3,337.3,265.2,337.3,267.6z"/>
<path class="dns0" d="M328,229.8c0,2.4-1.9,4.3-4.3,4.3c-2.4,0-4.3-1.9-4.3-4.3c0-2.4,1.9-4.3,4.3-4.3
	C326.1,225.6,328,227.5,328,229.8z"/>
<path class="dns0" d="M323.4,204.7c0,2.4-1.9,4.3-4.3,4.3c-2.4,0-4.3-1.9-4.3-4.3c0-2.4,1.9-4.3,4.3-4.3
	C321.5,200.4,323.4,202.3,323.4,204.7z"/>
<path class="dns0" d="M353.4,176.8c0,2.4-1.9,4.3-4.3,4.3c-2.4,0-4.3-1.9-4.3-4.3c0-2.4,1.9-4.3,4.3-4.3
	C351.5,172.5,353.4,174.4,353.4,176.8z"/>
<path class="dns0" d="M380.1,189.5c0,2.4-1.9,4.3-4.3,4.3c-2.4,0-4.3-1.9-4.3-4.3c0-2.4,1.9-4.3,4.3-4.3
	C378.2,185.2,380.1,187.1,380.1,189.5z"/>
<path class="dns0" d="M407.4,182.4c0,2.4-1.9,4.3-4.3,4.3c-2.4,0-4.3-1.9-4.3-4.3c0-2.4,1.9-4.3,4.3-4.3
	C405.4,178.1,407.4,180,407.4,182.4z"/>
<path class="dns0" d="M424.3,173.6c0,2.4-1.9,4.3-4.3,4.3c-2.4,0-4.3-1.9-4.3-4.3c0-2.4,1.9-4.3,4.3-4.3
	C422.4,169.3,424.3,171.2,424.3,173.6z"/>
<path class="dns0" d="M447.8,166c0,2.4-1.9,4.3-4.3,4.3c-2.4,0-4.3-1.9-4.3-4.3c0-2.4,1.9-4.3,4.3-4.3
	C445.9,161.7,447.8,163.6,447.8,166z"/>
<path class="dns0" d="M438.2,174.3c0,2.4-1.9,4.3-4.3,4.3c-2.4,0-4.3-1.9-4.3-4.3c0-2.4,1.9-4.3,4.3-4.3
	C436.3,170.1,438.2,172,438.2,174.3z"/>
<path class="dns0" d="M472.1,155.4c0,2.4-1.9,4.3-4.3,4.3c-2.4,0-4.3-1.9-4.3-4.3c0-2.4,1.9-4.3,4.3-4.3
	C470.2,151.2,472.1,153.1,472.1,155.4z"/>
<path class="dns0" d="M494.9,169.2c0,2.4-1.9,4.3-4.3,4.3c-2.4,0-4.3-1.9-4.3-4.3c0-2.4,1.9-4.3,4.3-4.3
	C493,164.9,494.9,166.8,494.9,169.2z"/>
<path class="dns0" d="M546.6,252.6c0,2.4-1.9,4.3-4.3,4.3c-2.4,0-4.3-1.9-4.3-4.3s1.9-4.3,4.3-4.3
	C544.7,248.3,546.6,250.2,546.6,252.6z"/>
<path class="dns0" d="M540,276.8c0,2.4-1.9,4.3-4.3,4.3c-2.4,0-4.3-1.9-4.3-4.3c0-2.4,1.9-4.3,4.3-4.3
	C538.1,272.5,540,274.4,540,276.8z"/>
<path class="dns0" d="M528.3,267.1c0,2.4-1.9,4.3-4.3,4.3c-2.4,0-4.3-1.9-4.3-4.3c0-2.4,1.9-4.3,4.3-4.3
	C526.4,262.9,528.3,264.8,528.3,267.1z"/>
<path class="dns0" d="M528.3,295c0,2.4-1.9,4.3-4.3,4.3c-2.4,0-4.3-1.9-4.3-4.3s1.9-4.3,4.3-4.3C526.4,290.8,528.3,292.7,528.3,295z"
	/>
<path class="dns0" d="M511.7,314.7c0,2.4-1.9,4.3-4.3,4.3c-2.4,0-4.3-1.9-4.3-4.3c0-2.4,1.9-4.3,4.3-4.3
	C509.8,310.4,511.7,312.3,511.7,314.7z"/>
<path class="dns0" d="M505.2,337.8c0,2.4-1.9,4.3-4.3,4.3c-2.4,0-4.3-1.9-4.3-4.3c0-2.4,1.9-4.3,4.3-4.3
	C503.3,333.5,505.2,335.4,505.2,337.8z"/>
<path class="dns0" d="M491.3,328.5c0,2.4-1.9,4.3-4.3,4.3c-2.4,0-4.3-1.9-4.3-4.3s1.9-4.3,4.3-4.3
	C489.4,324.3,491.3,326.2,491.3,328.5z"/>
<path class="dns0" d="M475,309.2c0,2.4-1.9,4.3-4.3,4.3c-2.4,0-4.3-1.9-4.3-4.3c0-2.4,1.9-4.3,4.3-4.3C473,304.9,475,306.8,475,309.2
	z"/>
<path class="dns0" d="M434.6,303.1c0,2.4-1.9,4.3-4.3,4.3c-2.4,0-4.3-1.9-4.3-4.3s1.9-4.3,4.3-4.3
	C432.7,298.8,434.6,300.7,434.6,303.1z"/>
<path class="dns0" d="M500.9,235.2c0,2.4-1.9,4.3-4.3,4.3c-2.4,0-4.3-1.9-4.3-4.3c0-2.4,1.9-4.3,4.3-4.3
	C499,230.9,500.9,232.8,500.9,235.2z"/>
<path class="dns0" d="M375.9,222.3c0,2.4-1.9,4.3-4.3,4.3c-2.4,0-4.3-1.9-4.3-4.3c0-2.4,1.9-4.3,4.3-4.3
	C373.9,218,375.9,219.9,375.9,222.3z"/>
<path class="dns0" d="M434.6,234.1c0,2.4-1.9,4.3-4.3,4.3c-2.4,0-4.3-1.9-4.3-4.3c0-2.4,1.9-4.3,4.3-4.3
	C432.7,229.8,434.6,231.7,434.6,234.1z"/>
<path class="dns0" d="M420.2,300.8c0,2.4-1.9,4.3-4.3,4.3c-2.4,0-4.3-1.9-4.3-4.3c0-2.4,1.9-4.3,4.3-4.3
	C418.3,296.5,420.2,298.4,420.2,300.8z"/>
<path class="dns0" d="M498.8,353.1c0,2.4-1.9,4.3-4.3,4.3c-2.4,0-4.3-1.9-4.3-4.3c0-2.4,1.9-4.3,4.3-4.3
	C496.9,348.8,498.8,350.7,498.8,353.1z"/>
<path class="dns0" d="M549,392.3c0,2.4-1.9,4.3-4.3,4.3c-2.4,0-4.3-1.9-4.3-4.3s1.9-4.3,4.3-4.3C547.1,388.1,549,390,549,392.3z"/>
<path class="dns0" d="M394,419.2c0,2.4-1.9,4.3-4.3,4.3c-2.4,0-4.3-1.9-4.3-4.3s1.9-4.3,4.3-4.3C392.1,414.9,394,416.8,394,419.2z"/>
<path class="dns0" d="M397.9,395c0,2.4-1.9,4.3-4.3,4.3c-2.4,0-4.3-1.9-4.3-4.3c0-2.4,1.9-4.3,4.3-4.3
	C395.9,390.8,397.9,392.7,397.9,395z"/>
<path class="dns0" d="M543.3,334.9c0,2.4-1.9,4.3-4.3,4.3c-2.4,0-4.3-1.9-4.3-4.3s1.9-4.3,4.3-4.3
	C541.4,330.6,543.3,332.5,543.3,334.9z"/>
<path class="dns0" d="M551.4,287.6c0,2.4-1.9,4.3-4.3,4.3c-2.4,0-4.3-1.9-4.3-4.3c0-2.4,1.9-4.3,4.3-4.3
	C549.5,283.3,551.4,285.3,551.4,287.6z"/>
<path class="dns0" d="M554.9,362.4c0,2.4-1.9,4.3-4.3,4.3c-2.4,0-4.3-1.9-4.3-4.3s1.9-4.3,4.3-4.3C553,358.2,554.9,360.1,554.9,362.4
	z"/>
<path class="dns0" d="M537.4,366.3c0,2.4-1.9,4.3-4.3,4.3c-2.4,0-4.3-1.9-4.3-4.3c0-2.4,1.9-4.3,4.3-4.3
	C535.5,362,537.4,363.9,537.4,366.3z"/>
<path class="dns0" d="M511.7,378.3c0,2.4-1.9,4.3-4.3,4.3c-2.4,0-4.3-1.9-4.3-4.3s1.9-4.3,4.3-4.3C509.8,374,511.7,375.9,511.7,378.3
	z"/>
<path class="dns0" d="M498.8,367c0,2.4-1.9,4.3-4.3,4.3c-2.4,0-4.3-1.9-4.3-4.3s1.9-4.3,4.3-4.3C496.9,362.8,498.8,364.7,498.8,367z"
	/>
<path class="dns0" d="M536.2,321.3c0,2.4-1.9,4.3-4.3,4.3c-2.4,0-4.3-1.9-4.3-4.3c0-2.4,1.9-4.3,4.3-4.3
	C534.3,317,536.2,318.9,536.2,321.3z"/>
<path class="dns0" d="M531.5,308.2c0,2.4-1.9,4.3-4.3,4.3c-2.4,0-4.3-1.9-4.3-4.3c0-2.4,1.9-4.3,4.3-4.3
	C529.6,303.9,531.5,305.8,531.5,308.2z"/>
<path class="dns0" d="M530.4,405c0,2.4-1.9,4.3-4.3,4.3c-2.4,0-4.3-1.9-4.3-4.3c0-2.4,1.9-4.3,4.3-4.3
	C528.5,400.8,530.4,402.7,530.4,405z"/>
<path class="dns0" d="M304,235c0,2.4-1.9,4.3-4.3,4.3c-2.4,0-4.3-1.9-4.3-4.3c0-2.4,1.9-4.3,4.3-4.3C302.1,230.7,304,232.6,304,235z"
	/>
<path class="dns0" d="M291.3,226.3c0,2.4-1.9,4.3-4.3,4.3c-2.4,0-4.3-1.9-4.3-4.3c0-2.4,1.9-4.3,4.3-4.3
	C289.4,222,291.3,223.9,291.3,226.3z"/>
<path class="dns0" d="M286.7,306.4c0,2.4-1.9,4.3-4.3,4.3c-2.4,0-4.3-1.9-4.3-4.3c0-2.4,1.9-4.3,4.3-4.3
	C284.7,302.1,286.7,304,286.7,306.4z"/>
<path class="dns0" d="M283.5,333.1c0,2.4-1.9,4.3-4.3,4.3c-2.4,0-4.3-1.9-4.3-4.3s1.9-4.3,4.3-4.3
	C281.6,328.9,283.5,330.8,283.5,333.1z"/>
<path class="dns0" d="M306.7,310.6c0,2.4-1.9,4.3-4.3,4.3c-2.4,0-4.3-1.9-4.3-4.3c0-2.4,1.9-4.3,4.3-4.3
	C304.8,306.4,306.7,308.3,306.7,310.6z"/>
<path class="dns0" d="M341,325c0,2.4-1.9,4.3-4.3,4.3c-2.4,0-4.3-1.9-4.3-4.3c0-2.4,1.9-4.3,4.3-4.3C339.1,320.7,341,322.7,341,325z"
	/>
<path class="dns0" d="M357.2,358c0,2.4-1.9,4.3-4.3,4.3c-2.4,0-4.3-1.9-4.3-4.3c0-2.4,1.9-4.3,4.3-4.3
	C355.3,353.7,357.2,355.6,357.2,358z"/>
<path class="dns0" d="M332.9,402.8c0,2.4-1.9,4.3-4.3,4.3c-2.4,0-4.3-1.9-4.3-4.3s1.9-4.3,4.3-4.3C331,398.6,332.9,400.5,332.9,402.8
	z"/>
<path class="dns0" d="M335.8,386.6c0,2.4-1.9,4.3-4.3,4.3c-2.4,0-4.3-1.9-4.3-4.3c0-2.4,1.9-4.3,4.3-4.3
	C333.9,382.4,335.8,384.3,335.8,386.6z"/>
<path class="dns0" d="M328.6,353.7c0,2.4-1.9,4.3-4.3,4.3c-2.4,0-4.3-1.9-4.3-4.3s1.9-4.3,4.3-4.3
	C326.7,349.4,328.6,351.3,328.6,353.7z"/>
<path class="dns0" d="M293.9,194c0,2.4-1.9,4.3-4.3,4.3c-2.4,0-4.3-1.9-4.3-4.3c0-2.4,1.9-4.3,4.3-4.3
	C292,189.7,293.9,191.6,293.9,194z"/>
<path class="dns0" d="M335.5,154.5c0,2.4-1.9,4.3-4.3,4.3c-2.4,0-4.3-1.9-4.3-4.3c0-2.4,1.9-4.3,4.3-4.3
	C333.6,150.2,335.5,152.1,335.5,154.5z"/>
<path class="dns0" d="M331.2,142.2c0,2.4-1.9,4.3-4.3,4.3c-2.4,0-4.3-1.9-4.3-4.3c0-2.4,1.9-4.3,4.3-4.3
	C329.3,137.9,331.2,139.8,331.2,142.2z"/>
<path class="dns0" d="M350,137.9c0,2.4-1.9,4.3-4.3,4.3c-2.4,0-4.3-1.9-4.3-4.3c0-2.4,1.9-4.3,4.3-4.3
	C348.1,133.6,350,135.5,350,137.9z"/>
<path class="dns0" d="M401.8,139.7c0,2.4-1.9,4.3-4.3,4.3c-2.4,0-4.3-1.9-4.3-4.3c0-2.4,1.9-4.3,4.3-4.3
	C399.9,135.4,401.8,137.3,401.8,139.7z"/>
<path class="dns0" d="M413.6,154.3c0,2.4-1.9,4.3-4.3,4.3c-2.4,0-4.3-1.9-4.3-4.3c0-2.4,1.9-4.3,4.3-4.3
	C411.6,150,413.6,152,413.6,154.3z"/>
<path class="dns0" d="M247.8,205.6c0,2.4-1.9,4.3-4.3,4.3c-2.4,0-4.3-1.9-4.3-4.3c0-2.4,1.9-4.3,4.3-4.3
	C245.9,201.4,247.8,203.3,247.8,205.6z"/>
<path class="dns0" d="M222.4,449.4c0,2.4-1.9,4.3-4.3,4.3c-2.4,0-4.3-1.9-4.3-4.3s1.9-4.3,4.3-4.3C220.5,445.1,222.4,447,222.4,449.4
	z"/>
<path class="dns0" d="M193.9,437.6c0,2.4-1.9,4.3-4.3,4.3c-2.4,0-4.3-1.9-4.3-4.3c0-2.4,1.9-4.3,4.3-4.3
	C192,433.3,193.9,435.2,193.9,437.6z"/>
<path class="dns0" d="M212.7,425.4c0,2.4-1.9,4.3-4.3,4.3c-2.4,0-4.3-1.9-4.3-4.3s1.9-4.3,4.3-4.3C210.8,421.1,212.7,423,212.7,425.4
	z"/>
<path class="dns0" d="M229.2,364.8c0,2.4-1.9,4.3-4.3,4.3c-2.4,0-4.3-1.9-4.3-4.3s1.9-4.3,4.3-4.3
	C227.3,360.5,229.2,362.4,229.2,364.8z"/>
<path class="dns0" d="M203.6,342.3c0,2.4-1.9,4.3-4.3,4.3c-2.4,0-4.3-1.9-4.3-4.3s1.9-4.3,4.3-4.3C201.7,338,203.6,339.9,203.6,342.3
	z"/>
<path class="dns0" d="M178.7,343.8c0,2.4-1.9,4.3-4.3,4.3c-2.4,0-4.3-1.9-4.3-4.3c0-2.4,1.9-4.3,4.3-4.3
	C176.8,339.6,178.7,341.5,178.7,343.8z"/>
<path class="dns0" d="M163.3,334.1c0,2.4-1.9,4.3-4.3,4.3c-2.4,0-4.3-1.9-4.3-4.3c0-2.4,1.9-4.3,4.3-4.3
	C161.4,329.8,163.3,331.7,163.3,334.1z"/>
<path class="dns0" d="M117.3,300.2c0,2.4-1.9,4.3-4.3,4.3c-2.4,0-4.3-1.9-4.3-4.3c0-2.4,1.9-4.3,4.3-4.3
	C115.4,295.9,117.3,297.8,117.3,300.2z"/>
<path class="dns0" d="M143.3,295.9c0,2.4-1.9,4.3-4.3,4.3c-2.4,0-4.3-1.9-4.3-4.3s1.9-4.3,4.3-4.3
	C141.3,291.6,143.3,293.5,143.3,295.9z"/>
<path class="dns0" d="M174.5,300.2c0,2.4-1.9,4.3-4.3,4.3c-2.4,0-4.3-1.9-4.3-4.3c0-2.4,1.9-4.3,4.3-4.3
	C172.6,295.9,174.5,297.8,174.5,300.2z"/>
<path class="dns0" d="M186.5,277.3c0,2.4-1.9,4.3-4.3,4.3c-2.4,0-4.3-1.9-4.3-4.3c0-2.4,1.9-4.3,4.3-4.3
	C184.6,273,186.5,274.9,186.5,277.3z"/>
<path class="dns0" d="M194.3,207.5c0,2.4-1.9,4.3-4.3,4.3c-2.4,0-4.3-1.9-4.3-4.3c0-2.4,1.9-4.3,4.3-4.3
	C192.4,203.2,194.3,205.1,194.3,207.5z"/>
<path class="dns0" d="M185.4,235.2c0,2.4-1.9,4.3-4.3,4.3c-2.4,0-4.3-1.9-4.3-4.3c0-2.4,1.9-4.3,4.3-4.3
	C183.5,231,185.4,232.9,185.4,235.2z"/>
<path class="dns0" d="M163.6,216.1c0,2.4-1.9,4.3-4.3,4.3c-2.4,0-4.3-1.9-4.3-4.3c0-2.4,1.9-4.3,4.3-4.3
	C161.7,211.8,163.6,213.7,163.6,216.1z"/>
<path class="dns0" d="M185.4,168.7c0,2.4-1.9,4.3-4.3,4.3c-2.4,0-4.3-1.9-4.3-4.3c0-2.4,1.9-4.3,4.3-4.3
	C183.5,164.5,185.4,166.4,185.4,168.7z"/>
<path class="dns0" d="M181.7,189c0,2.4-1.9,4.3-4.3,4.3c-2.4,0-4.3-1.9-4.3-4.3c0-2.4,1.9-4.3,4.3-4.3
	C179.8,184.8,181.7,186.7,181.7,189z"/>
<path class="dns0" d="M208.9,177.2c0,2.4-1.9,4.3-4.3,4.3c-2.4,0-4.3-1.9-4.3-4.3c0-2.4,1.9-4.3,4.3-4.3
	C207,172.9,208.9,174.8,208.9,177.2z"/>
<path class="dns0" d="M208.9,198.7c0,2.4-1.9,4.3-4.3,4.3c-2.4,0-4.3-1.9-4.3-4.3c0-2.4,1.9-4.3,4.3-4.3
	C207,194.5,208.9,196.4,208.9,198.7z"/>
<path class="dns0" d="M133.8,238.8c0,2.4-1.9,4.3-4.3,4.3c-2.4,0-4.3-1.9-4.3-4.3c0-2.4,1.9-4.3,4.3-4.3
	C131.9,234.6,133.8,236.5,133.8,238.8z"/>
<path class="dns0" d="M198.2,366.5c0,2.4-1.9,4.3-4.3,4.3c-2.4,0-4.3-1.9-4.3-4.3c0-2.4,1.9-4.3,4.3-4.3
	C196.2,362.3,198.2,364.2,198.2,366.5z"/>
<path class="dns0" d="M242.3,186.5c0,2.4-1.9,4.3-4.3,4.3c-2.4,0-4.3-1.9-4.3-4.3c0-2.4,1.9-4.3,4.3-4.3
	C240.3,182.2,242.3,184.1,242.3,186.5z"/>
<path class="dns0" d="M274.8,180.7c0,2.4-1.9,4.3-4.3,4.3c-2.4,0-4.3-1.9-4.3-4.3c0-2.4,1.9-4.3,4.3-4.3
	C272.9,176.4,274.8,178.3,274.8,180.7z"/>
<path class="dns0" d="M289.7,150.4c0,2.4-1.9,4.3-4.3,4.3c-2.4,0-4.3-1.9-4.3-4.3c0-2.4,1.9-4.3,4.3-4.3
	C287.8,146.1,289.7,148,289.7,150.4z"/>
<path class="dns0" d="M300.3,137.7c0,2.4-1.9,4.3-4.3,4.3c-2.4,0-4.3-1.9-4.3-4.3c0-2.4,1.9-4.3,4.3-4.3
	C298.4,133.5,300.3,135.4,300.3,137.7z"/>
<path class="dns0" d="M291.8,128.4c0,2.4-1.9,4.3-4.3,4.3c-2.4,0-4.3-1.9-4.3-4.3c0-2.4,1.9-4.3,4.3-4.3
	C289.8,124.1,291.8,126,291.8,128.4z"/>
<path class="dns0" d="M259.2,130.7c0,2.4-1.9,4.3-4.3,4.3c-2.4,0-4.3-1.9-4.3-4.3c0-2.4,1.9-4.3,4.3-4.3
	C257.3,126.4,259.2,128.3,259.2,130.7z"/>
<path class="dns0" d="M227.4,142c0,2.4-1.9,4.3-4.3,4.3c-2.4,0-4.3-1.9-4.3-4.3c0-2.4,1.9-4.3,4.3-4.3
	C225.4,137.7,227.4,139.6,227.4,142z"/>
<path class="dns0" d="M217.4,153.9c0,2.4-1.9,4.3-4.3,4.3c-2.4,0-4.3-1.9-4.3-4.3c0-2.4,1.9-4.3,4.3-4.3
	C215.4,149.6,217.4,151.6,217.4,153.9z"/>
<path class="dns0" d="M235.9,162.3c0,2.4-1.9,4.3-4.3,4.3c-2.4,0-4.3-1.9-4.3-4.3s1.9-4.3,4.3-4.3C234,158,235.9,159.9,235.9,162.3z"
	/>
<path class="dns0" d="M255.2,377c0,2.4-1.9,4.3-4.3,4.3c-2.4,0-4.3-1.9-4.3-4.3c0-2.4,1.9-4.3,4.3-4.3
	C253.3,372.8,255.2,374.7,255.2,377z"/>
<path class="dns0" d="M244.6,417.3c0,2.4-1.9,4.3-4.3,4.3c-2.4,0-4.3-1.9-4.3-4.3s1.9-4.3,4.3-4.3C242.7,413.1,244.6,415,244.6,417.3
	z"/>
<path class="dns0" d="M204.7,495.8c0,2.4-1.9,4.3-4.3,4.3c-2.4,0-4.3-1.9-4.3-4.3s1.9-4.3,4.3-4.3
	C202.8,491.5,204.7,493.4,204.7,495.8z"/>
<path class="dns0" d="M190.8,466.7c0,2.4-1.9,4.3-4.3,4.3c-2.4,0-4.3-1.9-4.3-4.3c0-2.4,1.9-4.3,4.3-4.3
	C188.9,462.4,190.8,464.3,190.8,466.7z"/>
<path class="dns0" d="M176.2,370.8c0,2.4-1.9,4.3-4.3,4.3c-2.4,0-4.3-1.9-4.3-4.3s1.9-4.3,4.3-4.3
	C174.3,366.6,176.2,368.5,176.2,370.8z"/>
<path class="dns0" d="M189.6,398c0,2.4-1.9,4.3-4.3,4.3c-2.4,0-4.3-1.9-4.3-4.3s1.9-4.3,4.3-4.3C187.7,393.7,189.6,395.6,189.6,398z"
	/>
<path class="dns0" d="M225,247.1c0,2.4-1.9,4.3-4.3,4.3c-2.4,0-4.3-1.9-4.3-4.3c0-2.4,1.9-4.3,4.3-4.3
	C223.1,242.9,225,244.8,225,247.1z"/>
<path class="dns0" d="M162.9,188.2c0,2.4-1.9,4.3-4.3,4.3c-2.4,0-4.3-1.9-4.3-4.3c0-2.4,1.9-4.3,4.3-4.3
	C161,184,162.9,185.9,162.9,188.2z"/>
<path class="dns0" d="M208.9,251.4c0,2.4-1.9,4.3-4.3,4.3c-2.4,0-4.3-1.9-4.3-4.3c0-2.4,1.9-4.3,4.3-4.3
	C207,247.1,208.9,249,208.9,251.4z"/>
<path class="dns0" d="M156.5,317.4c0,2.4-1.9,4.3-4.3,4.3c-2.4,0-4.3-1.9-4.3-4.3c0-2.4,1.9-4.3,4.3-4.3
	C154.6,313.1,156.5,315,156.5,317.4z"/>
<path class="dns0" d="M133.8,318.3c0,2.4-1.9,4.3-4.3,4.3c-2.4,0-4.3-1.9-4.3-4.3s1.9-4.3,4.3-4.3C131.9,314,133.8,315.9,133.8,318.3
	z"/>
<path class="dns0" d="M285.4,166.5c0,2.4-1.9,4.3-4.3,4.3c-2.4,0-4.3-1.9-4.3-4.3c0-2.4,1.9-4.3,4.3-4.3
	C283.5,162.3,285.4,164.2,285.4,166.5z"/>
<path class="dns0" d="M255.5,170.8c0,2.4-1.9,4.3-4.3,4.3c-2.4,0-4.3-1.9-4.3-4.3c0-2.4,1.9-4.3,4.3-4.3
	C253.6,166.5,255.5,168.4,255.5,170.8z"/>
<path class="dns0" d="M364.3,422.2c0,2.4-1.9,4.3-4.3,4.3c-2.4,0-4.3-1.9-4.3-4.3s1.9-4.3,4.3-4.3
	C362.4,417.9,364.3,419.8,364.3,422.2z"/>
<path class="dns0" d="M326.2,278.9c0,2.4-1.9,4.3-4.3,4.3c-2.4,0-4.3-1.9-4.3-4.3c0-2.4,1.9-4.3,4.3-4.3
	C324.3,274.6,326.2,276.5,326.2,278.9z"/>
<path class="dns0" d="M303.3,348.6c0,2.4-1.9,4.3-4.3,4.3c-2.4,0-4.3-1.9-4.3-4.3s1.9-4.3,4.3-4.3
	C301.3,344.4,303.3,346.3,303.3,348.6z"/>
<path class="dns0" d="M295.3,264.1c0,2.4-1.9,4.3-4.3,4.3c-2.4,0-4.3-1.9-4.3-4.3s1.9-4.3,4.3-4.3
	C293.4,259.8,295.3,261.7,295.3,264.1z"/>
<path class="dns0" d="M305.1,269.4c0,2.4-1.9,4.3-4.3,4.3c-2.4,0-4.3-1.9-4.3-4.3s1.9-4.3,4.3-4.3C303.2,265.1,305.1,267,305.1,269.4
	z"/>
<path class="dns0" d="M312.4,246.3c0,2.4-1.9,4.3-4.3,4.3c-2.4,0-4.3-1.9-4.3-4.3c0-2.4,1.9-4.3,4.3-4.3
	C310.5,242,312.4,243.9,312.4,246.3z"/>
<path class="dns0" d="M522.3,441.2c0,2.4-1.9,4.3-4.3,4.3c-2.4,0-4.3-1.9-4.3-4.3c0-2.4,1.9-4.3,4.3-4.3
	C520.4,437,522.3,438.9,522.3,441.2z"/>
<path class="dns0" d="M533.1,432c0,2.4-1.9,4.3-4.3,4.3c-2.4,0-4.3-1.9-4.3-4.3c0-2.4,1.9-4.3,4.3-4.3
	C531.2,427.8,533.1,429.7,533.1,432z"/>
<path class="dns0" d="M517.4,417.2c0,2.4-1.9,4.3-4.3,4.3c-2.4,0-4.3-1.9-4.3-4.3s1.9-4.3,4.3-4.3
	C515.5,412.9,517.4,414.8,517.4,417.2z"/>
<path class="dns0" d="M350.1,260.7c0,2.4-1.9,4.3-4.3,4.3c-2.4,0-4.3-1.9-4.3-4.3s1.9-4.3,4.3-4.3
	C348.2,256.4,350.1,258.3,350.1,260.7z"/>
<path class="dns0" d="M452.1,342.8c0,2.4-1.9,4.3-4.3,4.3c-2.4,0-4.3-1.9-4.3-4.3s1.9-4.3,4.3-4.3
	C450.2,338.6,452.1,340.5,452.1,342.8z"/>
<path class="dns0" d="M400.3,291.2c0,2.4-1.9,4.3-4.3,4.3c-2.4,0-4.3-1.9-4.3-4.3s1.9-4.3,4.3-4.3C398.4,287,400.3,288.9,400.3,291.2
	z"/>
<path class="dns0" d="M518.3,366.3c0,2.4-1.9,4.3-4.3,4.3c-2.4,0-4.3-1.9-4.3-4.3c0-2.4,1.9-4.3,4.3-4.3
	C516.4,362,518.3,363.9,518.3,366.3z"/>
<path class="dns0" d="M527.3,350.6c0,2.4-1.9,4.3-4.3,4.3c-2.4,0-4.3-1.9-4.3-4.3c0-2.4,1.9-4.3,4.3-4.3
	C525.4,346.3,527.3,348.2,527.3,350.6z"/>
<path class="dns0" d="M305.1,222.3c0,2.4-1.9,4.3-4.3,4.3c-2.4,0-4.3-1.9-4.3-4.3c0-2.4,1.9-4.3,4.3-4.3
	C303.2,218,305.1,219.9,305.1,222.3z"/>
<path class="dns0" d="M301.8,210.3c0,2.4-1.9,4.3-4.3,4.3c-2.4,0-4.3-1.9-4.3-4.3c0-2.4,1.9-4.3,4.3-4.3
	C299.8,206.1,301.8,208,301.8,210.3z"/>
<path class="dns0" d="M522.4,203.1c0,2.4-1.9,4.3-4.3,4.3c-2.4,0-4.3-1.9-4.3-4.3c0-2.4,1.9-4.3,4.3-4.3
	C520.5,198.8,522.4,200.7,522.4,203.1z"/>
<path class="dns0" d="M465.7,196.2c0,2.4-1.9,4.3-4.3,4.3c-2.4,0-4.3-1.9-4.3-4.3c0-2.4,1.9-4.3,4.3-4.3
	C463.8,192,465.7,193.9,465.7,196.2z"/>
<path class="dns0" d="M397.5,172c0,2.4-1.9,4.3-4.3,4.3c-2.4,0-4.3-1.9-4.3-4.3c0-2.4,1.9-4.3,4.3-4.3
	C395.6,167.7,397.5,169.6,397.5,172z"/>
<path class="dns0" d="M455.4,142.2c0,2.4-1.9,4.3-4.3,4.3c-2.4,0-4.3-1.9-4.3-4.3c0-2.4,1.9-4.3,4.3-4.3
	C453.4,137.9,455.4,139.8,455.4,142.2z"/>
<line class="dns6" x1="509.4" y1="59.9" x2="509.4" y2="78.2"/>
<line class="dns6" x1="509.4" y1="84.3" x2="509.4" y2="102.6"/>
<line class="dns6" x1="509.4" y1="108.7" x2="509.4" y2="127"/>
<g>
	<path class="dns6" d="M64.9,540.1"/>
	<circle class="dns7" cx="108.9" cy="521.9" r="26.1"/>
	<circle class="dns7" cx="74.7" cy="529.6" r="17.9"/>
	<path class="dns6" d="M82.8,521.9c0-0.8-0.1-1.6,0-2.4c1.2-13.2,12.9-23.6,26.5-23.6h-0.4c14.4,0,26.1,11.7,26.1,26.1
		c0,7.5-3.1,14.2-8.2,19"/>
	<path class="dns6" d="M109.1,506.2c-8.1,0.1-15.2,6.4-15.9,14.2l0,0.3c0,0.4,0,0.8,0,1.2"/>
	<path class="dns6" d="M75,511.4c-10.1,0-18.2,8.2-18.2,18.2c0,4.5,1.6,8.6,4.3,11.7"/>
	<circle id="svg-concept" class="dns5"  cx="102.5" cy="575.1" r="3.9"/>
	<line id="svg-concept" class="dns5"  x1="102.5" y1="564.2" x2="102.5" y2="571"/>
	<line id="svg-concept" class="dns5"  x1="71.5" y1="575.1" x2="98.4" y2="575.1"/>
	<line id="svg-concept" class="dns5"  x1="106.5" y1="575.1" x2="133.5" y2="575.1"/>
	<path class="dns8" d="M166.1,558.3c0,2.1-1.5,3.7-3.4,3.7H42.3c-1.9,0-3.4-1.7-3.4-3.7v-13.2c0-2.1,1.5-3.7,3.4-3.7h120.4
		c1.9,0,3.4,1.7,3.4,3.7V558.3z"/>
	<line class="dns6" x1="45.9" y1="541.4" x2="45.9" y2="562"/>
	<path id="svg-concept" class="dns5"  d="M150.1,551.7c0,2.4-2,4.4-4.4,4.4c-2.4,0-4.4-2-4.4-4.4c0-2.4,2-4.4,4.4-4.4
		C148.1,547.3,150.1,549.3,150.1,551.7z"/>
	<path id="svg-concept" class="dns5"  d="M147.3,551.7c0,0.9-0.7,1.6-1.6,1.6c-0.9,0-1.6-0.7-1.6-1.6c0-0.9,0.7-1.6,1.6-1.6
		C146.6,550.1,147.3,550.8,147.3,551.7z"/>
	<line id="svg-concept" class="dns5"  x1="150.1" y1="551.7" x2="147.3" y2="551.7"/>
	<line id="svg-concept" class="dns5"  x1="144" y1="551.7" x2="141.3" y2="551.7"/>
</g>
<g>
	<circle class="dns8" cx="571.8" cy="523" r="24.1"/>
	<path class="dns8" d="M600,562.8V573h-56.4c0,0.5,0-10.3,0-10.3l0,0c0-5.7,4.6-10.3,10.3-10.3h35.8C595.4,552.5,600,557.1,600,562.8
		L600,562.8z"/>
	<path class="dns6" d="M581.6,531.4c0-1.7-1.4-3.1-3.1-3.1c-1.7,0-3.1,1.4-3.1,3.1"/>
	<path class="dns6" d="M567.7,531.4c0-1.7-1.4-3.1-3.1-3.1c-1.7,0-3.1,1.4-3.1,3.1"/>
	<line class="dns6" x1="549.5" y1="513.8" x2="594" y2="513.8"/>
	<polyline id="svg-concept" class="dns5"  points="545.3,557.1 504.8,557.1 504.8,519.7 547.9,519.7 	"/>
	<line id="svg-concept" class="dns5"  x1="504.9" y1="545.9" x2="553.6" y2="545.9"/>
	<line class="dns6" x1="529.3" y1="557.1" x2="529.3" y2="563.9"/>
	<line class="dns6" x1="536.2" y1="563.9" x2="522.3" y2="563.9"/>
</g>
<g>
	<circle id="svg-concept" class="dns5"  cx="559.8" cy="138.7" r="3.5"/>
	<line id="svg-concept" class="dns5"  x1="559.8" y1="129" x2="559.8" y2="135"/>
	<line id="svg-concept" class="dns5"  x1="532.2" y1="138.7" x2="556.2" y2="138.7"/>
	<line id="svg-concept" class="dns5"  x1="563.4" y1="138.7" x2="587.4" y2="138.7"/>
	<path class="dns8" d="M616.4,75c0,1.8-1.4,3.3-3,3.3H506.2c-1.7,0-3-1.5-3-3.3V63.2c0-1.8,1.4-3.3,3-3.3h107.2c1.7,0,3,1.5,3,3.3V75
		z"/>
	<line class="dns6" x1="610.2" y1="59.9" x2="610.2" y2="78.3"/>
	<path id="svg-concept" class="dns5"  d="M602.1,69.1c0,2.2-1.8,3.9-3.9,3.9c-2.2,0-3.9-1.8-3.9-3.9c0-2.2,1.8-3.9,3.9-3.9
		C600.4,65.2,602.1,66.9,602.1,69.1z"/>
	<path id="svg-concept" class="dns5"  d="M599.7,69.1c0,0.8-0.7,1.5-1.5,1.5c-0.8,0-1.5-0.7-1.5-1.5c0-0.8,0.7-1.5,1.5-1.5
		C599,67.6,599.7,68.3,599.7,69.1z"/>
	<line id="svg-concept" class="dns5"  x1="602.1" y1="69.1" x2="599.7" y2="69.1"/>
	<line id="svg-concept" class="dns5"  x1="596.8" y1="69.1" x2="594.3" y2="69.1"/>
	<path class="dns8" d="M616.4,99.4c0,1.8-1.4,3.3-3,3.3H506.2c-1.7,0-3-1.5-3-3.3V87.6c0-1.8,1.4-3.3,3-3.3h107.2c1.7,0,3,1.5,3,3.3
		V99.4z"/>
	<line class="dns6" x1="610.2" y1="84.3" x2="610.2" y2="102.7"/>
	<path id="svg-concept" class="dns5"  d="M602.1,93.5c0,2.2-1.8,3.9-3.9,3.9c-2.2,0-3.9-1.8-3.9-3.9s1.8-3.9,3.9-3.9C600.4,89.6,602.1,91.3,602.1,93.5z
		"/>
	<path id="svg-concept" class="dns5"  d="M599.7,93.5c0,0.8-0.7,1.5-1.5,1.5c-0.8,0-1.5-0.7-1.5-1.5s0.7-1.5,1.5-1.5C599,92,599.7,92.7,599.7,93.5z"/>
	<line id="svg-concept" class="dns5"  x1="602.1" y1="93.5" x2="599.7" y2="93.5"/>
	<line id="svg-concept" class="dns5"  x1="596.8" y1="93.5" x2="594.3" y2="93.5"/>
	<path class="dns8" d="M616.4,123.8c0,1.8-1.4,3.3-3,3.3H506.2c-1.7,0-3-1.5-3-3.3V112c0-1.8,1.4-3.3,3-3.3h107.2c1.7,0,3,1.5,3,3.3
		V123.8z"/>
	<line class="dns6" x1="610.2" y1="108.7" x2="610.2" y2="127.1"/>
	<path id="svg-concept" class="dns5"  d="M602.1,117.9c0,2.2-1.8,3.9-3.9,3.9c-2.2,0-3.9-1.8-3.9-3.9s1.8-3.9,3.9-3.9
		C600.4,114,602.1,115.7,602.1,117.9z"/>
	<path id="svg-concept" class="dns5"  d="M599.7,117.9c0,0.8-0.7,1.5-1.5,1.5c-0.8,0-1.5-0.7-1.5-1.5s0.7-1.5,1.5-1.5
		C599,116.4,599.7,117.1,599.7,117.9z"/>
	<line id="svg-concept" class="dns5"  x1="602.1" y1="117.9" x2="599.7" y2="117.9"/>
	<line id="svg-concept" class="dns5"  x1="596.8" y1="117.9" x2="594.3" y2="117.9"/>
</g>
<g>
	<circle id="svg-concept" class="dns9"  cx="115.2" cy="92.8" r="24.6"/>
	<line class="dns6" x1="115.2" y1="88.8" x2="115.2" y2="100.1"/>
	<path class="dns6" d="M103.4,64.2v-7.6c0-4.2,3.4-7.6,7.6-7.6h8.4c4.2,0,7.6,3.4,7.6,7.6v7.6"/>
</g>
</svg>
