<?xml version="1.0" encoding="utf-8"?>
<!-- Generator: Adobe Illustrator 22.0.0, SVG Export Plug-In . SVG Version: 6.00 Build 0)  -->
<svg version="1.1" id="Layer_1" xmlns="http://www.w3.org/2000/svg" xmlns:xlink="http://www.w3.org/1999/xlink" x="0px" y="0px"
	 viewBox="0 0 646.6 652.5" style="enable-background:new 0 0 646.6 652.5;" xml:space="preserve">
<style type="text/css">
	.dmanage0{fill:none;stroke:#808080;stroke-linecap:round;stroke-linejoin:round;stroke-miterlimit:10;}
	.dmanage1{fill:#FFFFFF;stroke:#808080;stroke-linecap:round;stroke-linejoin:round;stroke-miterlimit:10;}
	.dmanage2{fill:url(#SVGID_1_);}
	.dmanage3{fill:none;stroke:#ee5586;stroke-linecap:round;stroke-linejoin:round;stroke-miterlimit:10;}
	.dmanage4{fill:#FFFFFF;stroke:#ee5586;stroke-linecap:round;stroke-linejoin:round;stroke-miterlimit:10;}
	.dmanage5{fill:#FFFFFF;stroke:#ee5586;stroke-width:2;stroke-linecap:round;stroke-linejoin:round;stroke-miterlimit:10;}
	.dmanage6{fill:none;stroke:#ee5586;stroke-linecap:round;stroke-linejoin:round;stroke-miterlimit:10;}
	.dmanage7{fill:#FFFFFF;stroke:#ee5586;stroke-width:2;stroke-linecap:round;stroke-linejoin:round;stroke-miterlimit:10;}
</style>
<g>
	<path class="dmanage0" d="M361.3,587c-36.6,23.4-81.5,40.5-128.9,40.5c-126.5,0-229.1-97.3-229.1-217.2c0-46.6-7.3-108.1,44.1-129.4"/>
	<path class="dmanage0" d="M361.3,587c-42,45.7-81.5,62.4-128.9,62.4C107.8,649.4,3.6,548.8,3.6,420.9"/>
	<path class="dmanage1" d="M58.4,286.6h-8.6c-1.3,0-2.3-1-2.3-2.3v-5.1c0-1.3,1-2.3,2.3-2.3h8.7"/>
	<path class="dmanage1" d="M80.7,295.7h-13c-5.1,0-9.3-4.2-9.3-9.3v-9.1c0-5.1,4.2-9.3,9.3-9.3h13"/>
	<g>
		<path class="dmanage0" d="M295.6,31.7c-2.1,0-3.7-1.7-3.7-3.7c0-2,1.7-3.7,3.7-3.7c2.1,0,3.7,1.7,3.7,3.7
			C299.3,30,297.6,31.7,295.6,31.7z"/>
		<path class="dmanage1" d="M642.3,282.4c0,155.2-125.8,281-281,281c-155.2,0-281-125.8-281-281c0-155.2,125.8-281,281-281
			C516.5,1.4,642.3,127.2,642.3,282.4z"/>
		<radialGradient id="SVGID_1_" cx="210.0031" cy="201.5503" r="3.519010e-02" gradientUnits="userSpaceOnUse">
			<stop  offset="0" style="stop-color:#27A8E0"/>
			<stop  offset="0.1991" style="stop-color:#2AA9E0"/>
			<stop  offset="0.3473" style="stop-color:#33ACE0"/>
			<stop  offset="0.4791" style="stop-color:#44B1E1"/>
			<stop  offset="0.6013" style="stop-color:#5AB9E2"/>
			<stop  offset="0.7169" style="stop-color:#78C2E3"/>
			<stop  offset="0.8275" style="stop-color:#9CCEE4"/>
			<stop  offset="0.9323" style="stop-color:#C6DCE5"/>
			<stop  offset="1" style="stop-color:#E5E6E6"/>
		</radialGradient>
		<path class="dmanage2" d="M210,201.5L210,201.5C210,201.6,209.9,201.6,210,201.5z"/>
		<g>
			<path class="dmanage0" d="M384,412.9c0,2.7-2.2,5-4.9,5c-2.7,0-4.9-2.2-4.9-5c0-2.7,2.2-4.9,4.9-4.9C381.8,407.9,384,410.1,384,412.9z
				"/>
			<path class="dmanage0" d="M369.3,401.2c0,2.7-2.2,5-4.9,5c-2.7,0-4.9-2.2-4.9-5c0-2.7,2.2-4.9,4.9-4.9
				C367.1,396.3,369.3,398.5,369.3,401.2z"/>
			<path class="dmanage0" d="M410.5,368.9c0,2.7-2.2,5-4.9,5c-2.7,0-4.9-2.2-4.9-5c0-2.7,2.2-4.9,4.9-4.9
				C408.3,364,410.5,366.2,410.5,368.9z"/>
			<path class="dmanage0" d="M417,330c0,2.7-2.2,5-4.9,5c-2.7,0-4.9-2.2-4.9-5c0-2.7,2.2-4.9,4.9-4.9C414.8,325,417,327.2,417,330z"/>
			<path class="dmanage0" d="M437.2,297.2c0,2.7-2.2,5-4.9,5c-2.7,0-4.9-2.2-4.9-5c0-2.7,2.2-4.9,4.9-4.9
				C435,292.3,437.2,294.5,437.2,297.2z"/>
			<path class="dmanage0" d="M421.9,294.7c0,2.7-2.2,5-4.9,5c-2.7,0-4.9-2.2-4.9-5c0-2.7,2.2-4.9,4.9-4.9
				C419.7,289.7,421.9,292,421.9,294.7z"/>
			<path class="dmanage0" d="M405.7,254.6c0,2.7-2.2,5-4.9,5c-2.7,0-4.9-2.2-4.9-5s2.2-4.9,4.9-4.9C403.5,249.7,405.7,251.9,405.7,254.6z
				"/>
			<path class="dmanage0" d="M430.2,283.2c0,2.7-2.2,5-4.9,5c-2.7,0-4.9-2.2-4.9-5c0-2.7,2.2-4.9,4.9-4.9
				C428,278.3,430.2,280.5,430.2,283.2z"/>
			<path class="dmanage0" d="M456.1,266.7c0,2.7-2.2,5-4.9,5c-2.7,0-4.9-2.2-4.9-5c0-2.7,2.2-4.9,4.9-4.9
				C453.9,261.8,456.1,264,456.1,266.7z"/>
			<path class="dmanage0" d="M408.2,237.1c0,2.7-2.2,5-4.9,5c-2.7,0-4.9-2.2-4.9-5s2.2-4.9,4.9-4.9C406,232.1,408.2,234.3,408.2,237.1z"
				/>
			<path class="dmanage0" d="M405.7,223.8c0,2.7-2.2,5-4.9,5c-2.7,0-4.9-2.2-4.9-5s2.2-4.9,4.9-4.9C403.5,218.8,405.7,221,405.7,223.8z"
				/>
			<path class="dmanage0" d="M389.6,222.8c0,2.7-2.2,5-4.9,5c-2.7,0-4.9-2.2-4.9-5s2.2-4.9,4.9-4.9C387.4,217.9,389.6,220.1,389.6,222.8z
				"/>
			<path class="dmanage0" d="M374.2,244.8c0,2.7-2.2,5-4.9,5c-2.7,0-4.9-2.2-4.9-5s2.2-4.9,4.9-4.9C372,239.8,374.2,242,374.2,244.8z"/>
			<path class="dmanage0" d="M322.7,232.1c0,2.7-2.2,5-4.9,5c-2.7,0-4.9-2.2-4.9-5s2.2-4.9,4.9-4.9C320.5,227.2,322.7,229.4,322.7,232.1z
				"/>
			<path class="dmanage0" d="M351.8,205.5c0,2.7-2.2,5-4.9,5c-2.7,0-4.9-2.2-4.9-5s2.2-4.9,4.9-4.9C349.6,200.5,351.8,202.7,351.8,205.5z
				"/>
			<path class="dmanage0" d="M365,214.6c0,2.7-2.2,5-4.9,5c-2.7,0-4.9-2.2-4.9-5c0-2.7,2.2-4.9,4.9-4.9C362.8,209.7,365,211.9,365,214.6z
				"/>
			<path class="dmanage0" d="M354.2,170.9c0,2.7-2.2,5-4.9,5c-2.7,0-4.9-2.2-4.9-5s2.2-4.9,4.9-4.9C352,166,354.2,168.2,354.2,170.9z"/>
			<path class="dmanage0" d="M349,141.8c0,2.7-2.2,5-4.9,5c-2.7,0-4.9-2.2-4.9-5s2.2-4.9,4.9-4.9C346.7,136.8,349,139,349,141.8z"/>
			<path class="dmanage0" d="M383.7,109.5c0,2.7-2.2,5-4.9,5c-2.7,0-4.9-2.2-4.9-5s2.2-4.9,4.9-4.9C381.5,104.5,383.7,106.7,383.7,109.5z
				"/>
			<path class="dmanage0" d="M414.6,124.1c0,2.7-2.2,5-4.9,5c-2.7,0-4.9-2.2-4.9-5s2.2-4.9,4.9-4.9C412.4,119.2,414.6,121.4,414.6,124.1z
				"/>
			<path class="dmanage0" d="M446.2,116c0,2.7-2.2,5-4.9,5c-2.7,0-4.9-2.2-4.9-5s2.2-4.9,4.9-4.9C444,111,446.2,113.2,446.2,116z"/>
			<path class="dmanage0" d="M465.8,105.7c0,2.7-2.2,5-4.9,5c-2.7,0-4.9-2.2-4.9-5s2.2-4.9,4.9-4.9C463.6,100.8,465.8,103,465.8,105.7z"
				/>
			<path class="dmanage0" d="M493,96.9c0,2.7-2.2,5-4.9,5c-2.7,0-4.9-2.2-4.9-5c0-2.7,2.2-4.9,4.9-4.9C490.8,92,493,94.2,493,96.9z"/>
			<path class="dmanage0" d="M481.9,106.6c0,2.7-2.2,5-4.9,5c-2.7,0-4.9-2.2-4.9-5s2.2-4.9,4.9-4.9C479.7,101.7,481.9,103.9,481.9,106.6z
				"/>
			<path class="dmanage0" d="M521.2,84.7c0,2.7-2.2,5-4.9,5c-2.7,0-4.9-2.2-4.9-5s2.2-4.9,4.9-4.9C518.9,79.8,521.2,82,521.2,84.7z"/>
			<path class="dmanage0" d="M547.6,100.6c0,2.7-2.2,5-4.9,5c-2.7,0-4.9-2.2-4.9-5c0-2.7,2.2-4.9,4.9-4.9
				C545.4,95.7,547.6,97.9,547.6,100.6z"/>
			<path class="dmanage0" d="M607.4,197.3c0,2.7-2.2,5-4.9,5c-2.7,0-4.9-2.2-4.9-5s2.2-4.9,4.9-4.9C605.2,192.3,607.4,194.6,607.4,197.3z
				"/>
			<path class="dmanage0" d="M599.9,225.3c0,2.7-2.2,5-4.9,5c-2.7,0-4.9-2.2-4.9-5s2.2-4.9,4.9-4.9C597.7,220.3,599.9,222.5,599.9,225.3z
				"/>
			<path class="dmanage0" d="M586.3,214.1c0,2.7-2.2,5-4.9,5c-2.7,0-4.9-2.2-4.9-5s2.2-4.9,4.9-4.9C584,209.2,586.3,211.4,586.3,214.1z"
				/>
			<path class="dmanage0" d="M586.3,246.5c0,2.7-2.2,5-4.9,5c-2.7,0-4.9-2.2-4.9-5s2.2-4.9,4.9-4.9C584,241.5,586.3,243.7,586.3,246.5z"
				/>
			<path class="dmanage0" d="M567.1,269.2c0,2.7-2.2,5-4.9,5c-2.7,0-4.9-2.2-4.9-5c0-2.7,2.2-4.9,4.9-4.9
				C564.9,264.2,567.1,266.5,567.1,269.2z"/>
			<path class="dmanage0" d="M559.5,295.9c0,2.7-2.2,5-4.9,5c-2.7,0-4.9-2.2-4.9-5c0-2.7,2.2-4.9,4.9-4.9
				C557.3,291,559.5,293.2,559.5,295.9z"/>
			<path class="dmanage0" d="M543.4,285.3c0,2.7-2.2,5-4.9,5c-2.7,0-4.9-2.2-4.9-5c0-2.7,2.2-4.9,4.9-4.9
				C541.2,280.3,543.4,282.5,543.4,285.3z"/>
			<path class="dmanage0" d="M524.5,262.8c0,2.7-2.2,5-4.9,5c-2.7,0-4.9-2.2-4.9-5c0-2.7,2.2-4.9,4.9-4.9
				C522.3,257.9,524.5,260.1,524.5,262.8z"/>
			<path class="dmanage0" d="M477.7,255.7c0,2.7-2.2,5-4.9,5c-2.7,0-4.9-2.2-4.9-5s2.2-4.9,4.9-4.9C475.5,250.8,477.7,253,477.7,255.7z"
				/>
			<path class="dmanage0" d="M515.8,216.8c0,2.7-2.2,5-4.9,5c-2.7,0-4.9-2.2-4.9-5s2.2-4.9,4.9-4.9C513.6,211.9,515.8,214.1,515.8,216.8z
				"/>
			<path class="dmanage0" d="M554.6,177.1c0,2.7-2.2,5-4.9,5c-2.7,0-4.9-2.2-4.9-5c0-2.7,2.2-4.9,4.9-4.9
				C552.3,172.2,554.6,174.4,554.6,177.1z"/>
			<path class="dmanage0" d="M409.7,162.2c0,2.7-2.2,5-4.9,5c-2.7,0-4.9-2.2-4.9-5c0-2.7,2.2-4.9,4.9-4.9
				C407.5,157.2,409.7,159.4,409.7,162.2z"/>
			<path class="dmanage0" d="M477.7,175.9c0,2.7-2.2,5-4.9,5c-2.7,0-4.9-2.2-4.9-5s2.2-4.9,4.9-4.9C475.5,170.9,477.7,173.1,477.7,175.9z
				"/>
			<path class="dmanage0" d="M461,253.1c0,2.7-2.2,5-4.9,5c-2.7,0-4.9-2.2-4.9-5s2.2-4.9,4.9-4.9C458.8,248.2,461,250.4,461,253.1z"/>
			<path class="dmanage0" d="M552.1,313.7c0,2.7-2.2,5-4.9,5c-2.7,0-4.9-2.2-4.9-5s2.2-4.9,4.9-4.9C549.9,308.8,552.1,311,552.1,313.7z"
				/>
			<path class="dmanage0" d="M610.3,359.1c0,2.7-2.2,5-4.9,5c-2.7,0-4.9-2.2-4.9-5c0-2.7,2.2-4.9,4.9-4.9
				C608.1,354.2,610.3,356.4,610.3,359.1z"/>
			<path class="dmanage0" d="M430.7,390.3c0,2.7-2.2,5-4.9,5c-2.7,0-4.9-2.2-4.9-5c0-2.7,2.2-4.9,4.9-4.9
				C428.4,385.3,430.7,387.5,430.7,390.3z"/>
			<path class="dmanage0" d="M435.2,362.3c0,2.7-2.2,5-4.9,5c-2.7,0-4.9-2.2-4.9-5c0-2.7,2.2-4.9,4.9-4.9
				C433,357.4,435.2,359.6,435.2,362.3z"/>
			<path class="dmanage0" d="M603.7,292.6c0,2.7-2.2,5-4.9,5c-2.7,0-4.9-2.2-4.9-5c0-2.7,2.2-4.9,4.9-4.9
				C601.4,287.6,603.7,289.9,603.7,292.6z"/>
			<path class="dmanage0" d="M613,237.9c0,2.7-2.2,5-4.9,5c-2.7,0-4.9-2.2-4.9-5s2.2-4.9,4.9-4.9C610.8,232.9,613,235.1,613,237.9z"/>
			<path class="dmanage0" d="M617.1,324.5c0,2.7-2.2,5-4.9,5c-2.7,0-4.9-2.2-4.9-5c0-2.7,2.2-4.9,4.9-4.9
				C614.8,319.6,617.1,321.8,617.1,324.5z"/>
			<path class="dmanage0" d="M596.8,329c0,2.7-2.2,5-4.9,5c-2.7,0-4.9-2.2-4.9-5c0-2.7,2.2-4.9,4.9-4.9C594.6,324,596.8,326.2,596.8,329z
				"/>
			<path class="dmanage0" d="M567.1,342.9c0,2.7-2.2,5-4.9,5c-2.7,0-4.9-2.2-4.9-5c0-2.7,2.2-4.9,4.9-4.9
				C564.9,338,567.1,340.2,567.1,342.9z"/>
			<path class="dmanage0" d="M552.1,329.8c0,2.7-2.2,5-4.9,5c-2.7,0-4.9-2.2-4.9-5c0-2.7,2.2-4.9,4.9-4.9
				C549.9,324.9,552.1,327.1,552.1,329.8z"/>
			<path class="dmanage0" d="M595.4,276.8c0,2.7-2.2,5-4.9,5c-2.7,0-4.9-2.2-4.9-5c0-2.7,2.2-4.9,4.9-4.9
				C593.2,271.9,595.4,274.1,595.4,276.8z"/>
			<path class="dmanage0" d="M590,261.7c0,2.7-2.2,5-4.9,5c-2.7,0-4.9-2.2-4.9-5c0-2.7,2.2-4.9,4.9-4.9C587.8,256.7,590,258.9,590,261.7z
				"/>
			<path class="dmanage0" d="M588.7,373.9c0,2.7-2.2,5-4.9,5c-2.7,0-4.9-2.2-4.9-5c0-2.7,2.2-4.9,4.9-4.9
				C586.5,368.9,588.7,371.1,588.7,373.9z"/>
			<path class="dmanage0" d="M602.2,384.8c0,2.7-2.2,5-4.9,5c-2.7,0-4.9-2.2-4.9-5c0-2.7,2.2-4.9,4.9-4.9
				C600,379.8,602.2,382,602.2,384.8z"/>
			<path class="dmanage0" d="M326.4,176.9c0,2.7-2.2,5-4.9,5c-2.7,0-4.9-2.2-4.9-5c0-2.7,2.2-4.9,4.9-4.9
				C324.2,171.9,326.4,174.1,326.4,176.9z"/>
			<path class="dmanage0" d="M311.8,166.8c0,2.7-2.2,5-4.9,5c-2.7,0-4.9-2.2-4.9-5s2.2-4.9,4.9-4.9C309.6,161.8,311.8,164,311.8,166.8z"
				/>
			<path class="dmanage0" d="M306.3,259.6c0,2.7-2.2,5-4.9,5c-2.7,0-4.9-2.2-4.9-5c0-2.7,2.2-4.9,4.9-4.9
				C304.1,254.6,306.3,256.8,306.3,259.6z"/>
			<path class="dmanage0" d="M302.7,290.6c0,2.7-2.2,5-4.9,5c-2.7,0-4.9-2.2-4.9-5c0-2.7,2.2-4.9,4.9-4.9
				C300.4,285.6,302.7,287.8,302.7,290.6z"/>
			<path class="dmanage0" d="M329.6,264.5c0,2.7-2.2,5-4.9,5c-2.7,0-4.9-2.2-4.9-5c0-2.7,2.2-4.9,4.9-4.9
				C327.3,259.6,329.6,261.8,329.6,264.5z"/>
			<path class="dmanage0" d="M369.3,281.2c0,2.7-2.2,5-4.9,5c-2.7,0-4.9-2.2-4.9-5c0-2.7,2.2-4.9,4.9-4.9
				C367.1,276.2,369.3,278.4,369.3,281.2z"/>
			<path class="dmanage0" d="M388.1,319.4c0,2.7-2.2,5-4.9,5c-2.7,0-4.9-2.2-4.9-5c0-2.7,2.2-4.9,4.9-4.9
				C385.8,314.4,388.1,316.6,388.1,319.4z"/>
			<path class="dmanage0" d="M385.7,367.5c0,2.7-2.2,5-4.9,5c-2.7,0-4.9-2.2-4.9-5c0-2.7,2.2-4.9,4.9-4.9
				C383.5,362.6,385.7,364.8,385.7,367.5z"/>
			<path class="dmanage0" d="M359.9,371.3c0,2.7-2.2,5-4.9,5c-2.7,0-4.9-2.2-4.9-5c0-2.7,2.2-4.9,4.9-4.9
				C357.7,366.4,359.9,368.6,359.9,371.3z"/>
			<path class="dmanage0" d="M363.3,352.6c0,2.7-2.2,5-4.9,5c-2.7,0-4.9-2.2-4.9-5c0-2.7,2.2-4.9,4.9-4.9
				C361,347.6,363.3,349.8,363.3,352.6z"/>
			<path class="dmanage0" d="M355,314.4c0,2.7-2.2,5-4.9,5c-2.7,0-4.9-2.2-4.9-5c0-2.7,2.2-4.9,4.9-4.9C352.8,309.5,355,311.7,355,314.4z
				"/>
			<path class="dmanage0" d="M314.8,129.4c0,2.7-2.2,5-4.9,5c-2.7,0-4.9-2.2-4.9-5c0-2.7,2.2-4.9,4.9-4.9
				C312.6,124.4,314.8,126.7,314.8,129.4z"/>
			<path class="dmanage0" d="M362.9,83.6c0,2.7-2.2,5-4.9,5c-2.7,0-4.9-2.2-4.9-5c0-2.7,2.2-4.9,4.9-4.9
				C360.7,78.7,362.9,80.9,362.9,83.6z"/>
			<path class="dmanage0" d="M358,69.4c0,2.7-2.2,5-4.9,5c-2.7,0-4.9-2.2-4.9-5s2.2-4.9,4.9-4.9C355.8,64.4,358,66.6,358,69.4z"/>
			<path class="dmanage0" d="M379.7,64.4c0,2.7-2.2,5-4.9,5c-2.7,0-4.9-2.2-4.9-5c0-2.7,2.2-4.9,4.9-4.9
				C377.5,59.5,379.7,61.7,379.7,64.4z"/>
			<path class="dmanage0" d="M439.7,66.5c0,2.7-2.2,5-4.9,5c-2.7,0-4.9-2.2-4.9-5c0-2.7,2.2-4.9,4.9-4.9
				C437.5,61.5,439.7,63.7,439.7,66.5z"/>
			<path class="dmanage0" d="M453.4,83.4c0,2.7-2.2,5-4.9,5c-2.7,0-4.9-2.2-4.9-5s2.2-4.9,4.9-4.9C451.1,78.5,453.4,80.7,453.4,83.4z"/>
			<line class="dmanage0" x1="354.4" y1="74.1" x2="356.3" y2="79"/>
			<line class="dmanage0" x1="433" y1="100.1" x2="445.1" y2="87.2"/>
			<path class="dmanage0" d="M261.3,142.9c0,2.7-2.2,5-4.9,5c-2.7,0-4.9-2.2-4.9-5s2.2-4.9,4.9-4.9C259.1,137.9,261.3,140.1,261.3,142.9z
				"/>
			<path class="dmanage0" d="M231.9,425.2c0,2.7-2.2,5-4.9,5c-2.7,0-4.9-2.2-4.9-5c0-2.7,2.2-4.9,4.9-4.9
				C229.7,420.3,231.9,422.5,231.9,425.2z"/>
			<path class="dmanage0" d="M198.9,411.6c0,2.7-2.2,5-4.9,5c-2.7,0-4.9-2.2-4.9-5c0-2.7,2.2-4.9,4.9-4.9
				C196.7,406.6,198.9,408.8,198.9,411.6z"/>
			<path class="dmanage0" d="M220.7,397.4c0,2.7-2.2,5-4.9,5c-2.7,0-4.9-2.2-4.9-5c0-2.7,2.2-4.9,4.9-4.9
				C218.5,392.5,220.7,394.7,220.7,397.4z"/>
			<path class="dmanage0" d="M239.8,327.3c0,2.7-2.2,5-4.9,5c-2.7,0-4.9-2.2-4.9-5c0-2.7,2.2-4.9,4.9-4.9
				C237.6,322.3,239.8,324.5,239.8,327.3z"/>
			<path class="dmanage0" d="M210.1,301.2c0,2.7-2.2,5-4.9,5c-2.7,0-4.9-2.2-4.9-5c0-2.7,2.2-4.9,4.9-4.9
				C207.9,296.2,210.1,298.5,210.1,301.2z"/>
			<path class="dmanage0" d="M181.3,303c0,2.7-2.2,5-4.9,5c-2.7,0-4.9-2.2-4.9-5c0-2.7,2.2-4.9,4.9-4.9C179.1,298,181.3,300.2,181.3,303z
				"/>
			<path class="dmanage0" d="M163.5,291.7c0,2.7-2.2,5-4.9,5c-2.7,0-4.9-2.2-4.9-5c0-2.7,2.2-4.9,4.9-4.9
				C161.3,286.7,163.5,288.9,163.5,291.7z"/>
			<path class="dmanage0" d="M110.2,252.4c0,2.7-2.2,5-4.9,5c-2.7,0-4.9-2.2-4.9-5s2.2-4.9,4.9-4.9C108,247.4,110.2,249.7,110.2,252.4z"
				/>
			<path class="dmanage0" d="M140.2,247.4c0,2.7-2.2,5-4.9,5c-2.7,0-4.9-2.2-4.9-5s2.2-4.9,4.9-4.9C138,242.5,140.2,244.7,140.2,247.4z"
				/>
			<path class="dmanage0" d="M176.4,252.4c0,2.7-2.2,5-4.9,5c-2.7,0-4.9-2.2-4.9-5s2.2-4.9,4.9-4.9C174.2,247.4,176.4,249.7,176.4,252.4z
				"/>
			<path class="dmanage0" d="M190.3,225.9c0,2.7-2.2,5-4.9,5c-2.7,0-4.9-2.2-4.9-5s2.2-4.9,4.9-4.9C188.1,221,190.3,223.2,190.3,225.9z"
				/>
			<path class="dmanage0" d="M199.4,145c0,2.7-2.2,5-4.9,5c-2.7,0-4.9-2.2-4.9-5s2.2-4.9,4.9-4.9C197.2,140.1,199.4,142.3,199.4,145z"/>
			<path class="dmanage0" d="M189,177.2c0,2.7-2.2,5-4.9,5c-2.7,0-4.9-2.2-4.9-5s2.2-4.9,4.9-4.9C186.8,172.2,189,174.4,189,177.2z"/>
			<path class="dmanage0" d="M163.8,155c0,2.7-2.2,5-4.9,5c-2.7,0-4.9-2.2-4.9-5s2.2-4.9,4.9-4.9C161.6,150,163.8,152.2,163.8,155z"/>
			<path class="dmanage0" d="M189.1,100.1c0,2.7-2.2,5-4.9,5c-2.7,0-4.9-2.2-4.9-5s2.2-4.9,4.9-4.9C186.9,95.2,189.1,97.4,189.1,100.1z"
				/>
			<path class="dmanage0" d="M184.8,123.7c0,2.7-2.2,5-4.9,5c-2.7,0-4.9-2.2-4.9-5s2.2-4.9,4.9-4.9C182.5,118.7,184.8,120.9,184.8,123.7z
				"/>
			<path class="dmanage0" d="M216.3,109.9c0,2.7-2.2,5-4.9,5c-2.7,0-4.9-2.2-4.9-5c0-2.7,2.2-4.9,4.9-4.9
				C214.1,105,216.3,107.2,216.3,109.9z"/>
			<path class="dmanage0" d="M216.3,134.9c0,2.7-2.2,5-4.9,5c-2.7,0-4.9-2.2-4.9-5s2.2-4.9,4.9-4.9C214.1,129.9,216.3,132.1,216.3,134.9z
				"/>
			<path class="dmanage0" d="M129.3,181.3c0,2.7-2.2,5-4.9,5c-2.7,0-4.9-2.2-4.9-5s2.2-4.9,4.9-4.9C127.1,176.4,129.3,178.6,129.3,181.3z
				"/>
			<path class="dmanage0" d="M153.7,200.3c0,2.7-2.2,5-4.9,5c-2.7,0-4.9-2.2-4.9-5s2.2-4.9,4.9-4.9C151.5,195.4,153.7,197.6,153.7,200.3z
				"/>
			<path class="dmanage0" d="M203.8,329.3c0,2.7-2.2,5-4.9,5c-2.7,0-4.9-2.2-4.9-5c0-2.7,2.2-4.9,4.9-4.9
				C201.6,324.3,203.8,326.6,203.8,329.3z"/>
			<path class="dmanage0" d="M234.8,358.1c0,2.7-2.2,5-4.9,5c-2.7,0-4.9-2.2-4.9-5c0-2.7,2.2-4.9,4.9-4.9
				C232.6,353.1,234.8,355.3,234.8,358.1z"/>
			<path class="dmanage0" d="M254.9,120.7c0,2.7-2.2,5-4.9,5c-2.7,0-4.9-2.2-4.9-5s2.2-4.9,4.9-4.9C252.7,115.7,254.9,118,254.9,120.7z"
				/>
			<path class="dmanage0" d="M292.7,114c0,2.7-2.2,5-4.9,5c-2.7,0-4.9-2.2-4.9-5s2.2-4.9,4.9-4.9C290.4,109,292.7,111.2,292.7,114z"/>
			<path class="dmanage0" d="M309.9,78.9c0,2.7-2.2,5-4.9,5c-2.7,0-4.9-2.2-4.9-5s2.2-4.9,4.9-4.9C307.7,73.9,309.9,76.1,309.9,78.9z"/>
			<path class="dmanage0" d="M322.2,64.2c0,2.7-2.2,5-4.9,5c-2.7,0-4.9-2.2-4.9-5s2.2-4.9,4.9-4.9C320,59.3,322.2,61.5,322.2,64.2z"/>
			<path class="dmanage0" d="M312.3,53.4c0,2.7-2.2,5-4.9,5c-2.7,0-4.9-2.2-4.9-5c0-2.7,2.2-4.9,4.9-4.9C310,48.5,312.3,50.7,312.3,53.4z
				"/>
			<path class="dmanage0" d="M274.6,56c0,2.7-2.2,5-4.9,5c-2.7,0-4.9-2.2-4.9-5s2.2-4.9,4.9-4.9C272.3,51.1,274.6,53.3,274.6,56z"/>
			<path class="dmanage0" d="M237.7,69.2c0,2.7-2.2,5-4.9,5c-2.7,0-4.9-2.2-4.9-5s2.2-4.9,4.9-4.9C235.4,64.2,237.7,66.4,237.7,69.2z"/>
			<path class="dmanage0" d="M226.1,83c0,2.7-2.2,5-4.9,5c-2.7,0-4.9-2.2-4.9-5s2.2-4.9,4.9-4.9C223.8,78,226.1,80.2,226.1,83z"/>
			<path class="dmanage0" d="M247.6,92.6c0,2.7-2.2,5-4.9,5c-2.7,0-4.9-2.2-4.9-5s2.2-4.9,4.9-4.9C245.4,87.7,247.6,89.9,247.6,92.6z"/>
			<path class="dmanage0" d="M281.2,78c0,2.7-2.2,5-4.9,5c-2.7,0-4.9-2.2-4.9-5s2.2-4.9,4.9-4.9C279,73.1,281.2,75.3,281.2,78z"/>
			<line class="dmanage0" x1="255.4" y1="137.9" x2="252.1" y2="125.2"/>
			<line class="dmanage0" x1="253" y1="116.8" x2="262.5" y2="106.6"/>
			<line class="dmanage0" x1="261.3" y1="99.6" x2="247.1" y2="94.7"/>
			<line class="dmanage0" x1="260.4" y1="139.5" x2="284.6" y2="117.8"/>
			<line class="dmanage0" x1="291" y1="110.3" x2="297.2" y2="101.6"/>
			<line class="dmanage0" x1="302.1" y1="93.1" x2="304" y2="83.8"/>
			<line class="dmanage0" x1="300" y1="78.9" x2="281.2" y2="78"/>
			<line class="dmanage0" x1="307.7" y1="74.8" x2="314" y2="67.9"/>
			<line class="dmanage0" x1="302.5" y1="54.3" x2="274.4" y2="54.8"/>
			<line class="dmanage0" x1="271" y1="61" x2="275.2" y2="73.1"/>
			<line class="dmanage0" x1="265.3" y1="58.4" x2="237.7" y2="67"/>
			<line class="dmanage0" x1="229.7" y1="73.1" x2="224.4" y2="78.9"/>
			<line class="dmanage0" x1="238.5" y1="90" x2="225.3" y2="85.5"/>
			<line class="dmanage0" x1="272.5" y1="81.1" x2="246.2" y2="89.2"/>
			<line class="dmanage0" x1="274.6" y1="83" x2="268.1" y2="97.2"/>
			<line class="dmanage0" x1="204.5" y1="474.5" x2="192.4" y2="449.8"/>
			<line class="dmanage0" x1="194.3" y1="442.3" x2="222" y2="425.2"/>
			<line class="dmanage0" x1="222" y1="425.2" x2="197.7" y2="414.7"/>
			<line class="dmanage0" x1="196.8" y1="407.5" x2="212.1" y2="400.8"/>
			<line class="dmanage0" x1="212.8" y1="393.4" x2="192" y2="369.6"/>
			<line class="dmanage0" x1="220.7" y1="395.4" x2="248.2" y2="385.9"/>
			<line class="dmanage0" x1="248.2" y1="385.9" x2="233" y2="362.7"/>
			<line class="dmanage0" x1="233.9" y1="355.2" x2="260" y2="344.1"/>
			<line class="dmanage0" x1="260.6" y1="339.2" x2="239.4" y2="329.9"/>
			<line class="dmanage0" x1="190.3" y1="361" x2="196.1" y2="333.4"/>
			<line class="dmanage0" x1="196.1" y1="333.4" x2="178.2" y2="335.8"/>
			<line class="dmanage0" x1="173.5" y1="329.3" x2="175.5" y2="307.9"/>
			<line class="dmanage0" x1="181.3" y1="303" x2="200.2" y2="301.2"/>
			<line class="dmanage0" x1="209" y1="304.3" x2="230.9" y2="324.3"/>
			<line class="dmanage0" x1="202.4" y1="332.7" x2="225.5" y2="355.7"/>
			<line class="dmanage0" x1="171.4" y1="303" x2="161.9" y2="295.3"/>
			<line class="dmanage0" x1="156.2" y1="286.7" x2="152.5" y2="276.9"/>
			<line class="dmanage0" x1="145.7" y1="272.3" x2="129.3" y2="273.4"/>
			<line class="dmanage0" x1="125.5" y1="268.5" x2="133" y2="251.9"/>
			<line class="dmanage0" x1="130.3" y1="247.4" x2="110.1" y2="251.3"/>
			<line class="dmanage0" x1="105.2" y1="247.4" x2="122.6" y2="186"/>
			<line class="dmanage0" x1="127" y1="177.2" x2="155.6" y2="158.7"/>
			<line class="dmanage0" x1="163" y1="159.9" x2="180.2" y2="174"/>
			<line class="dmanage0" x1="186.3" y1="172.8" x2="194.4" y2="150"/>
			<line class="dmanage0" x1="197.7" y1="148.8" x2="228.3" y2="186.3"/>
			<line class="dmanage0" x1="209.1" y1="191.5" x2="197.7" y2="148.8"/>
			<line class="dmanage0" x1="184.1" y1="182.1" x2="185.3" y2="221"/>
			<line class="dmanage0" x1="182.5" y1="230" x2="173.9" y2="248.1"/>
			<line class="dmanage0" x1="139" y1="244.2" x2="167.1" y2="250.1"/>
			<line class="dmanage0" x1="128" y1="184.7" x2="144.6" y2="197.6"/>
			<line class="dmanage0" x1="152.2" y1="196.8" x2="180.4" y2="180.4"/>
			<line class="dmanage0" x1="152" y1="204" x2="181.2" y2="223.2"/>
			<line class="dmanage0" x1="146.7" y1="204.8" x2="135.3" y2="242.5"/>
			<line class="dmanage0" x1="158.9" y1="150" x2="158.1" y2="127.7"/>
			<line class="dmanage0" x1="163" y1="122.7" x2="174.9" y2="123.7"/>
			<line class="dmanage0" x1="179.8" y1="118.7" x2="184.1" y2="105.1"/>
			<line class="dmanage0" x1="189.1" y1="100.1" x2="206.4" y2="107.4"/>
			<line class="dmanage0" x1="211.3" y1="114.9" x2="211.3" y2="129.9"/>
			<line class="dmanage0" x1="368.1" y1="404.4" x2="375" y2="410.1"/>
			<line class="dmanage0" x1="383.1" y1="407.9" x2="388.1" y2="398.7"/>
			<line class="dmanage0" x1="388.1" y1="390.1" x2="380.7" y2="372.5"/>
			<line class="dmanage0" x1="393.9" y1="388.8" x2="403.3" y2="373.9"/>
			<line class="dmanage0" x1="364.3" y1="396.3" x2="355" y2="376.3"/>
			<line class="dmanage0" x1="355" y1="366.4" x2="358.3" y2="357.5"/>
			<line class="dmanage0" x1="363.3" y1="355.1" x2="375.8" y2="364"/>
			<line class="dmanage0" x1="358.3" y1="347.6" x2="380.7" y2="323.7"/>
			<line class="dmanage0" x1="350" y1="319.4" x2="358.3" y2="347.6"/>
			<line class="dmanage0" x1="388.1" y1="321.9" x2="407.1" y2="330"/>
			<line class="dmanage0" x1="383.1" y1="363.2" x2="412" y2="334.9"/>
			<line class="dmanage0" x1="405.5" y1="364" x2="412" y2="334.9"/>
			<line class="dmanage0" x1="412" y1="325" x2="432.2" y2="302.2"/>
			<line class="dmanage0" x1="422.1" y1="295.9" x2="427.3" y2="296.5"/>
			<line class="dmanage0" x1="414.1" y1="290.7" x2="403.7" y2="258.6"/>
			<line class="dmanage0" x1="421.5" y1="280" x2="403.7" y2="258.6"/>
			<line class="dmanage0" x1="429.4" y1="280.6" x2="447.6" y2="270.1"/>
			<line class="dmanage0" x1="447.2" y1="262.8" x2="436.5" y2="245.6"/>
			<line class="dmanage0" x1="452" y1="250.3" x2="436.5" y2="245.6"/>
			<line class="dmanage0" x1="461" y1="253.1" x2="468.1" y2="254.2"/>
			<line class="dmanage0" x1="475.4" y1="259.9" x2="490.4" y2="296.9"/>
			<line class="dmanage0" x1="496.2" y1="298" x2="516.2" y2="266.5"/>
			<line class="dmanage0" x1="523.3" y1="266" x2="534.8" y2="281.9"/>
			<line class="dmanage0" x1="541.4" y1="289.3" x2="544.3" y2="309.7"/>
			<line class="dmanage0" x1="550.9" y1="292.7" x2="541.4" y2="289.3"/>
			<line class="dmanage0" x1="556.3" y1="291" x2="560.9" y2="274"/>
			<line class="dmanage0" x1="564.6" y1="264.9" x2="578.6" y2="250.6"/>
			<line class="dmanage0" x1="579.7" y1="241.8" x2="581.3" y2="219.1"/>
			<line class="dmanage0" x1="585.5" y1="216.7" x2="591.4" y2="221.8"/>
			<line class="dmanage0" x1="596.4" y1="220.5" x2="600.8" y2="201.9"/>
			<line class="dmanage0" x1="600.1" y1="192.9" x2="576.6" y2="144.4"/>
			<line class="dmanage0" x1="571.8" y1="135.8" x2="545.8" y2="104.5"/>
			<line class="dmanage0" x1="539.1" y1="97.3" x2="519.8" y2="88.1"/>
			<line class="dmanage0" x1="516.2" y1="89.7" x2="510" y2="127.1"/>
			<line class="dmanage0" x1="510.7" y1="87" x2="491.8" y2="93.7"/>
			<line class="dmanage0" x1="484.1" y1="99.9" x2="480.2" y2="103"/>
			<line class="dmanage0" x1="479.8" y1="110.7" x2="504.9" y2="129.1"/>
			<line class="dmanage0" x1="472" y1="106.6" x2="465.8" y2="105.7"/>
			<line class="dmanage0" x1="455.9" y1="108.5" x2="445.4" y2="113.4"/>
			<line class="dmanage0" x1="436.5" y1="117.6" x2="414.4" y2="122.6"/>
			<line class="dmanage0" x1="405.2" y1="122" x2="382.9" y2="112.2"/>
			<line class="dmanage0" x1="374.6" y1="112.2" x2="347.2" y2="138"/>
			<line class="dmanage0" x1="344.9" y1="146.6" x2="348" y2="166.1"/>
			<line class="dmanage0" x1="320" y1="153.1" x2="320.9" y2="157.2"/>
			<line class="dmanage0" x1="322.7" y1="167.1" x2="321.5" y2="171.9"/>
			<line class="dmanage0" x1="333.8" y1="185.8" x2="346.4" y2="175"/>
			<line class="dmanage0" x1="329.9" y1="194.8" x2="329.9" y2="200.4"/>
			<line class="dmanage0" x1="324.9" y1="206.3" x2="315.8" y2="208.4"/>
			<line class="dmanage0" x1="315.5" y1="213.3" x2="317.9" y2="215.6"/>
			<line class="dmanage0" x1="351" y1="208.2" x2="356.2" y2="211.6"/>
			<line class="dmanage0" x1="364" y1="211.6" x2="370.9" y2="209.7"/>
			<line class="dmanage0" x1="378.1" y1="210.4" x2="381.7" y2="218.8"/>
			<line class="dmanage0" x1="389.6" y1="222.8" x2="395.9" y2="223.8"/>
			<line class="dmanage0" x1="401.3" y1="229.5" x2="403.3" y2="232.1"/>
			<line class="dmanage0" x1="398.9" y1="239.2" x2="374" y2="243.3"/>
			<line class="dmanage0" x1="365" y1="242.3" x2="350.4" y2="231.5"/>
			<line class="dmanage0" x1="342.2" y1="227.8" x2="322.5" y2="230.8"/>
			<line class="dmanage0" x1="315.4" y1="236.5" x2="303.9" y2="255.3"/>
			<line class="dmanage0" x1="319.7" y1="236.9" x2="324.6" y2="259.6"/>
			<line class="dmanage0" x1="328.9" y1="267" x2="360.1" y2="278.7"/>
			<line class="dmanage0" x1="369.3" y1="249.7" x2="364.3" y2="276.2"/>
			<line class="dmanage0" x1="395.9" y1="258.1" x2="369.3" y2="278.3"/>
			<line class="dmanage0" x1="366.8" y1="285.6" x2="379.9" y2="313.6"/>
			<line class="dmanage0" x1="361.5" y1="286.1" x2="352.1" y2="309.5"/>
			<line class="dmanage0" x1="344.4" y1="313.6" x2="326.2" y2="308.7"/>
			<line class="dmanage0" x1="315.7" y1="306.3" x2="301.4" y2="293.9"/>
			<line class="dmanage0" x1="297.7" y1="285.6" x2="301.4" y2="264.5"/>
			<line class="dmanage0" x1="305.8" y1="261.8" x2="319.7" y2="263"/>
			<line class="dmanage0" x1="354.2" y1="170.9" x2="399.8" y2="162.2"/>
			<line class="dmanage0" x1="409.7" y1="129.1" x2="404.7" y2="157.2"/>
			<line class="dmanage0" x1="409.7" y1="162.2" x2="467.8" y2="175.9"/>
			<line class="dmanage0" x1="404.7" y1="167.1" x2="400.8" y2="218.8"/>
			<line class="dmanage0" x1="476.2" y1="179.4" x2="508.8" y2="211.6"/>
			<line class="dmanage0" x1="514.6" y1="213.6" x2="546.1" y2="180.8"/>
			<line class="dmanage0" x1="552.9" y1="180.8" x2="577.3" y2="211.2"/>
			<line class="dmanage0" x1="570.4" y1="142.7" x2="551.7" y2="172.2"/>
			<line class="dmanage0" x1="537.7" y1="104.6" x2="513.1" y2="128.6"/>
			<line class="dmanage0" x1="512.8" y1="135" x2="544.7" y2="173.2"/>
			<line class="dmanage0" x1="504.9" y1="135" x2="475.2" y2="170.9"/>
			<line class="dmanage0" x1="475.2" y1="251.4" x2="506.2" y2="220.3"/>
			<line class="dmanage0" x1="510.9" y1="221.8" x2="519.5" y2="257.9"/>
			<line class="dmanage0" x1="515.2" y1="219.3" x2="558.6" y2="265.7"/>
			<line class="dmanage0" x1="477.7" y1="255.7" x2="514.6" y2="262.8"/>
			<line class="dmanage0" x1="524.5" y1="262.8" x2="557.2" y2="269.2"/>
			<line class="dmanage0" x1="515.8" y1="216.8" x2="576.4" y2="214.1"/>
			<line class="dmanage0" x1="430.2" y1="236.9" x2="407.2" y2="166.5"/>
			<line class="dmanage0" x1="408.2" y1="237.1" x2="428.1" y2="242"/>
			<line class="dmanage0" x1="571.8" y1="410.9" x2="568.7" y2="392.9"/>
			<line class="dmanage0" x1="572.2" y1="384.5" x2="580.2" y2="377.3"/>
			<line class="dmanage0" x1="587.8" y1="371" x2="602.2" y2="363"/>
			<line class="dmanage0" x1="605.4" y1="364.1" x2="598.7" y2="379.8"/>
			<line class="dmanage0" x1="595" y1="389.2" x2="590" y2="400.2"/>
			<line class="dmanage0" x1="578.8" y1="413.7" x2="583.8" y2="409"/>
			<line class="dmanage0" x1="583.8" y1="400.2" x2="572.7" y2="390.8"/>
			<line class="dmanage0" x1="592.3" y1="384.8" x2="572.7" y2="390.8"/>
			<line class="dmanage0" x1="593.3" y1="381.8" x2="587.6" y2="377"/>
			<line class="dmanage0" x1="571.6" y1="324.3" x2="578.2" y2="315.3"/>
			<line class="dmanage0" x1="430.2" y1="367.2" x2="425.7" y2="385.3"/>
			<line class="dmanage0" x1="209" y1="474.8" x2="224.9" y2="429.8"/>
			<line class="dmanage0" x1="190.3" y1="440.4" x2="192.7" y2="416.4"/>
			<line class="dmanage0" x1="193.9" y1="406.6" x2="192" y2="369.6"/>
			<line class="dmanage0" x1="229.9" y1="421.3" x2="250" y2="392.3"/>
			<line class="dmanage0" x1="254.5" y1="383.2" x2="265" y2="346.4"/>
			<line class="dmanage0" x1="175.6" y1="339.2" x2="186.1" y2="361.7"/>
			<line class="dmanage0" x1="188.6" y1="222.2" x2="207.7" y2="199.2"/>
			<line class="dmanage0" x1="124.3" y1="176.4" x2="155.6" y2="127"/>
		</g>
		<path id="svg-concept" class="dmanage3" d="M269.9,341.4c0,2.7-2.2,5-4.9,5c-2.7,0-4.9-2.2-4.9-5c0-2.7,2.2-4.9,4.9-4.9
			C267.7,336.5,269.9,338.7,269.9,341.4z"/>
		<path id="svg-concept" class="dmanage3" d="M257.6,388.1c0,2.7-2.2,5-4.9,5c-2.7,0-4.9-2.2-4.9-5c0-2.7,2.2-4.9,4.9-4.9
			C255.4,383.2,257.6,385.4,257.6,388.1z"/>
		<path id="svg-concept" class="dmanage3" d="M211.5,479c0,2.7-2.2,5-4.9,5c-2.7,0-4.9-2.2-4.9-5c0-2.7,2.2-4.9,4.9-4.9C209.2,474.1,211.5,476.3,211.5,479
			z"/>
		<path id="svg-concept" class="dmanage3" d="M195.3,445.3c0,2.7-2.2,5-4.9,5c-2.7,0-4.9-2.2-4.9-5c0-2.7,2.2-4.9,4.9-4.9
			C193.1,440.4,195.3,442.6,195.3,445.3z"/>
		<path id="svg-concept" class="dmanage3" d="M178.4,334.2c0,2.7-2.2,5-4.9,5c-2.7,0-4.9-2.2-4.9-5c0-2.7,2.2-4.9,4.9-4.9
			C176.2,329.3,178.4,331.5,178.4,334.2z"/>
		<path id="svg-concept" class="dmanage3" d="M193.9,365.7c0,2.7-2.2,5-4.9,5c-2.7,0-4.9-2.2-4.9-5c0-2.7,2.2-4.9,4.9-4.9
			C191.7,360.8,193.9,363,193.9,365.7z"/>
		<path id="svg-concept" class="dmanage3" d="M234.9,190.9c0,2.7-2.2,5-4.9,5c-2.7,0-4.9-2.2-4.9-5s2.2-4.9,4.9-4.9C232.7,186,234.9,188.2,234.9,190.9z"/>
		<path id="svg-concept" class="dmanage3" d="M163,122.7c0,2.7-2.2,5-4.9,5c-2.7,0-4.9-2.2-4.9-5s2.2-4.9,4.9-4.9C160.8,117.8,163,120,163,122.7z"/>
		<path id="svg-concept" class="dmanage3" d="M216.3,195.9c0,2.7-2.2,5-4.9,5c-2.7,0-4.9-2.2-4.9-5s2.2-4.9,4.9-4.9C214.1,191,216.3,193.2,216.3,195.9z"/>
		<path id="svg-concept" class="dmanage3" d="M155.6,272.3c0,2.7-2.2,5-4.9,5c-2.7,0-4.9-2.2-4.9-5c0-2.7,2.2-4.9,4.9-4.9
			C153.4,267.4,155.6,269.6,155.6,272.3z"/>
		<path id="svg-concept" class="dmanage3" d="M129.3,273.4c0,2.7-2.2,5-4.9,5c-2.7,0-4.9-2.2-4.9-5s2.2-4.9,4.9-4.9C127.1,268.5,129.3,270.7,129.3,273.4z"
			/>
		<path id="svg-concept" class="dmanage3" d="M304.9,97.6c0,2.7-2.2,5-4.9,5c-2.7,0-4.9-2.2-4.9-5s2.2-4.9,4.9-4.9C302.7,92.6,304.9,94.8,304.9,97.6z"/>
		<path id="svg-concept" class="dmanage3" d="M270.3,102.5c0,2.7-2.2,5-4.9,5c-2.7,0-4.9-2.2-4.9-5s2.2-4.9,4.9-4.9C268,97.6,270.3,99.8,270.3,102.5z"/>
		<path id="svg-concept" class="dmanage3" d="M396.3,393.7c0,2.7-2.2,5-4.9,5c-2.7,0-4.9-2.2-4.9-5c0-2.7,2.2-4.9,4.9-4.9
			C394.1,388.8,396.3,391,396.3,393.7z"/>
		<path id="svg-concept" class="dmanage3" d="M352.1,227.8c0,2.7-2.2,5-4.9,5c-2.7,0-4.9-2.2-4.9-5s2.2-4.9,4.9-4.9C349.9,222.8,352.1,225,352.1,227.8z"/>
		<path id="svg-concept" class="dmanage3" d="M325.6,308.5c0,2.7-2.2,5-4.9,5c-2.7,0-4.9-2.2-4.9-5c0-2.7,2.2-4.9,4.9-4.9
			C323.4,303.6,325.6,305.8,325.6,308.5z"/>
		<path id="svg-concept" class="dmanage3" d="M316.3,210.6c0,2.7-2.2,5-4.9,5c-2.7,0-4.9-2.2-4.9-5s2.2-4.9,4.9-4.9C314.1,205.7,316.3,207.9,316.3,210.6z"
			/>
		<path id="svg-concept" class="dmanage3" d="M327.7,216.8c0,2.7-2.2,5-4.9,5c-2.7,0-4.9-2.2-4.9-5s2.2-4.9,4.9-4.9C325.5,211.8,327.7,214,327.7,216.8z"/>
		<path id="svg-concept" class="dmanage3" d="M334.8,205.3c0,2.7-2.2,5-4.9,5c-2.7,0-4.9-2.2-4.9-5s2.2-4.9,4.9-4.9C332.6,200.4,334.8,202.6,334.8,205.3z"
			/>
		<path id="svg-concept" class="dmanage3" d="M336.2,190c0,2.7-2.2,5-4.9,5c-2.7,0-4.9-2.2-4.9-5s2.2-4.9,4.9-4.9C333.9,185,336.2,187.3,336.2,190z"/>
		<line id="svg-concept" class="dmanage3" x1="334.6" y1="203.9" x2="342.2" y2="203.8"/>
		<path id="svg-concept" class="dmanage3" d="M579.3,415.8c0,2.7-2.2,5-4.9,5c-2.7,0-4.9-2.2-4.9-5c0-2.7,2.2-4.9,4.9-4.9
			C577.1,410.9,579.3,413.1,579.3,415.8z"/>
		<path id="svg-concept" class="dmanage3" d="M591.9,405.1c0,2.7-2.2,5-4.9,5c-2.7,0-4.9-2.2-4.9-5c0-2.7,2.2-4.9,4.9-4.9
			C589.6,400.2,591.9,402.4,591.9,405.1z"/>
		<path id="svg-concept" class="dmanage3" d="M573.6,387.9c0,2.7-2.2,5-4.9,5c-2.7,0-4.9-2.2-4.9-5c0-2.7,2.2-4.9,4.9-4.9
			C571.4,383,573.6,385.2,573.6,387.9z"/>
		<path id="svg-concept" class="dmanage3" d="M379.8,206.7c0,2.7-2.2,5-4.9,5c-2.7,0-4.9-2.2-4.9-5s2.2-4.9,4.9-4.9C377.6,201.7,379.8,203.9,379.8,206.7z"
			/>
		<path id="svg-concept" class="dmanage3" d="M498,301.8c0,2.7-2.2,5-4.9,5c-2.7,0-4.9-2.2-4.9-5c0-2.7,2.2-4.9,4.9-4.9C495.8,296.9,498,299.1,498,301.8z"
			/>
		<path id="svg-concept" class="dmanage3" d="M438,242c0,2.7-2.2,5-4.9,5c-2.7,0-4.9-2.2-4.9-5s2.2-4.9,4.9-4.9C435.8,237.1,438,239.3,438,242z"/>
		<path id="svg-concept" class="dmanage3" d="M574.7,329c0,2.7-2.2,5-4.9,5c-2.7,0-4.9-2.2-4.9-5c0-2.7,2.2-4.9,4.9-4.9C572.5,324,574.7,326.2,574.7,329z"
			/>
		<path id="svg-concept" class="dmanage3" d="M585.1,310.8c0,2.7-2.2,5-4.9,5c-2.7,0-4.9-2.2-4.9-5c0-2.7,2.2-4.9,4.9-4.9
			C582.9,305.8,585.1,308,585.1,310.8z"/>
		<path id="svg-concept" class="dmanage3" d="M327.7,162.2c0,2.7-2.2,5-4.9,5c-2.7,0-4.9-2.2-4.9-5c0-2.7,2.2-4.9,4.9-4.9
			C325.5,157.2,327.7,159.4,327.7,162.2z"/>
		<path id="svg-concept" class="dmanage3" d="M323.8,148.3c0,2.7-2.2,5-4.9,5c-2.7,0-4.9-2.2-4.9-5s2.2-4.9,4.9-4.9C321.6,143.4,323.8,145.6,323.8,148.3z"
			/>
		<path id="svg-concept" class="dmanage3" d="M579.5,139.9c0,2.7-2.2,5-4.9,5c-2.7,0-4.9-2.2-4.9-5s2.2-4.9,4.9-4.9C577.2,135,579.5,137.2,579.5,139.9z"/>
		<path id="svg-concept" class="dmanage3" d="M513.8,132c0,2.7-2.2,5-4.9,5c-2.7,0-4.9-2.2-4.9-5s2.2-4.9,4.9-4.9C511.6,127.1,513.8,129.3,513.8,132z"/>
		<path id="svg-concept" class="dmanage3" d="M434.8,103.9c0,2.7-2.2,5-4.9,5c-2.7,0-4.9-2.2-4.9-5s2.2-4.9,4.9-4.9C432.5,99,434.8,101.2,434.8,103.9z"/>
		<path id="svg-concept" class="dmanage3" d="M501.8,69.4c0,2.7-2.2,5-4.9,5c-2.7,0-4.9-2.2-4.9-5s2.2-4.9,4.9-4.9C499.6,64.4,501.8,66.6,501.8,69.4z"/>
		<path id="svg-concept" class="dmanage4" d="M276.4,184.6c0,3.4-2.8,6.2-6.2,6.2c-3.4,0-6.2-2.8-6.2-6.2s2.8-6.2,6.2-6.2
			C273.7,178.5,276.4,181.2,276.4,184.6z"/>
	</g>
</g>
<g>
	<path id="svg-concept" class="dmanage5" d="M167.7,317.7h387.2c8.2,0,14.9,6.7,14.9,14.9v239.7c0,8.2-6.7,14.9-14.9,14.9H167.7c-8.2,0-14.9-6.7-14.9-14.9
		V332.5C152.9,324.3,159.5,317.7,167.7,317.7z"/>
	<line id="svg-concept" class="dmanage6" x1="202.4" y1="442.7" x2="261.6" y2="442.7"/>
	<line class="dmanage0" x1="445.6" y1="442.7" x2="504.8" y2="442.7"/>
	<line class="dmanage0" x1="324" y1="442.7" x2="383.2" y2="442.7"/>
	<line class="dmanage0" x1="202.4" y1="479.6" x2="261.6" y2="479.6"/>
	<line id="svg-concept" class="dmanage6" x1="445.6" y1="479.6" x2="504.8" y2="479.6"/>
	<line class="dmanage0" x1="324" y1="479.6" x2="383.2" y2="479.6"/>
	<line class="dmanage0" x1="202.4" y1="516.4" x2="261.6" y2="516.4"/>
	<line class="dmanage0" x1="445.6" y1="516.4" x2="504.8" y2="516.4"/>
	<line id="svg-concept" class="dmanage6" x1="324" y1="516.4" x2="383.2" y2="516.4"/>
	<line class="dmanage0" x1="202.4" y1="553.3" x2="261.6" y2="553.3"/>
	<line class="dmanage0" x1="445.6" y1="553.3" x2="504.8" y2="553.3"/>
	<line class="dmanage0" x1="324" y1="553.3" x2="383.2" y2="553.3"/>
	<path class="dmanage0" d="M472.2,398.2H235c-1.6,0-3-1.4-3-3v-17.6c0-1.6,1.4-3,3-3h237.2c1.6,0,3,1.4,3,3v17.6
		C475.2,396.9,473.9,398.2,472.2,398.2z"/>
	<path id="svg-concept" class="dmanage4" d="M196.2,335c0,1.8-1.4,3.2-3.2,3.2c-1.8,0-3.2-1.4-3.2-3.2s1.4-3.2,3.2-3.2C194.8,331.7,196.2,333.2,196.2,335z
		"/>
	<path class="dmanage0" d="M211.6,335c0,1.8-1.4,3.2-3.2,3.2c-1.8,0-3.2-1.4-3.2-3.2s1.4-3.2,3.2-3.2C210.1,331.7,211.6,333.2,211.6,335z
		"/>
	<path class="dmanage0" d="M226.9,335c0,1.8-1.4,3.2-3.2,3.2c-1.8,0-3.2-1.4-3.2-3.2s1.4-3.2,3.2-3.2C225.5,331.7,226.9,333.2,226.9,335z
		"/>
	<path class="dmanage0" d="M152.9,349.8h416.9"/>
</g>
<g>
<path id="svg-concept" class="dmanage7" d="M328.5,442.7c0,2.5-2,4.5-4.5,4.5c-2.5,0-4.5-2-4.5-4.5c0-2.5,2-4.5,4.5-4.5
	C326.5,438.3,328.5,440.3,328.5,442.7z"/>
	<animateMotion
		path="M55, 0 0 0 0 0 55 0"
		begin="0s" 
		dur="2s" 
		repeatCount="indefinite"/>
</g>
<g>
<path id="svg-concept" class="dmanage7" d="M206.9,516.4c0,2.5-2,4.5-4.5,4.5c-2.5,0-4.5-2-4.5-4.5c0-2.5,2-4.5,4.5-4.5
	C204.9,511.9,206.9,513.9,206.9,516.4z"/>
	<animateMotion
		path="M55, 0 0 0 0 0 55 0"
		begin="1s" 
		dur="3s" 
		repeatCount="indefinite"/>
</g>
<g>
<path id="svg-concept" class="dmanage7" d="M509.3,553.2c0,2.5-2,4.5-4.5,4.5c-2.5,0-4.5-2-4.5-4.5s2-4.5,4.5-4.5C507.3,548.8,509.3,550.8,509.3,553.2z"/>
	<animateMotion
		path="M0, 0 -55 0 0 0 0 0"
		begin="2s" 
		dur="2s" 
		repeatCount="indefinite"/>
</g>
</svg>
