<?xml version="1.0" encoding="utf-8"?>
<!-- Generator: Adobe Illustrator 22.0.0, SVG Export Plug-In . SVG Version: 6.00 Build 0)  -->
<svg version="1.1" id="Layer_1" xmlns="http://www.w3.org/2000/svg" xmlns:xlink="http://www.w3.org/1999/xlink" x="0px" y="0px"
	 viewBox="0 0 524.8 419.6" style="enable-background:new 0 0 524.8 419.6;" xml:space="preserve">
<style type="text/css">
	.emailc0{fill:#FFFFFF;stroke:#ee5586;stroke-width:3;stroke-linecap:round;stroke-linejoin:round;stroke-miterlimit:10;}
	.emailc1{fill:#FFFFFF;stroke:#808080;stroke-linecap:round;stroke-linejoin:round;stroke-miterlimit:10;}
	.emailc2{fill:#FFFFFF;stroke:#ee5586;stroke-linecap:round;stroke-linejoin:round;stroke-miterlimit:10;}
	.emailc3{fill:#ee5586;}
</style>
<g>
	<path id="svg-concept" class="emailc0" d="M369.2,5.2h28.3c7.5,0,13.5,6.1,13.5,13.5V399c0,7.5-6,13.5-13.5,13.5H17.2c-7.5,0-13.5-6-13.5-13.5V18.7
		c0-7.5,6-13.5,13.5-13.5h26.6h67.8h189.3H369.2z"/>
	<path id="svg-concept" class="emailc0" d="M111.6,5.2"/>
	<path id="svg-concept" class="emailc0" d="M43.8,5.2"/>
	<line class="emailc1" x1="3.7" y1="276" x2="411" y2="276"/>
	<line class="emailc1" x1="2.5" y1="208.8" x2="409.8" y2="208.8"/>
	<line class="emailc1" x1="2.5" y1="343.2" x2="409.8" y2="343.2"/>
	<line class="emailc1" x1="3.7" y1="140.2" x2="411" y2="140.2"/>
	<line class="emailc1" x1="139.6" y1="140.7" x2="139.6" y2="412.5"/>
	<line class="emailc1" x1="275.3" y1="140.7" x2="275.3" y2="412.5"/>
	<line class="emailc1" x1="91.3" y1="221.8" x2="50.1" y2="263"/>
	<line class="emailc1" x1="230.4" y1="287.5" x2="189.2" y2="328.7"/>
</g>
<g>
	<rect x="315.8" y="78" class="emailc1" width="188" height="209.8"/>
	<line class="emailc1" x1="443.5" y1="211.1" x2="373.9" y2="211.1"/>
	<line class="emailc1" x1="419.4" y1="238.6" x2="373.9" y2="238.6"/>
	<line class="emailc1" x1="464.8" y1="183.6" x2="373.9" y2="183.6"/>
	<line id="svg-concept" class="emailc2" x1="465.7" y1="156.1" x2="373.9" y2="156.1"/>
	<line id="svg-concept" class="emailc2" x1="419.8" y1="128.6" x2="373.9" y2="128.6"/>
	<g>
		<path id="svg-concept" class="emailc2" d="M451.6,81.8v42.9l15.6-12.5l15.6,12.5V77.9c0,0,1.9-9.4-9.4-9.4h-18.7c0,0-11.9-1.9-12.5,9.4"/>
	</g>
	<path id="svg-concept" class="emailc2" d="M357.8,128.6c0,3.1-2.5,5.7-5.7,5.7c-3.1,0-5.7-2.5-5.7-5.7c0-3.1,2.5-5.7,5.7-5.7
		C355.3,122.9,357.8,125.4,357.8,128.6z"/>
	<path id="svg-concept" class="emailc2" d="M357.8,155.9c0,3.1-2.5,5.7-5.7,5.7c-3.1,0-5.7-2.5-5.7-5.7s2.5-5.7,5.7-5.7
		C355.3,150.3,357.8,152.8,357.8,155.9z"/>
	<path class="emailc1" d="M357.8,183.3c0,3.1-2.5,5.7-5.7,5.7c-3.1,0-5.7-2.5-5.7-5.7s2.5-5.7,5.7-5.7
		C355.3,177.6,357.8,180.2,357.8,183.3z"/>
	<path class="emailc1" d="M357.8,210.7c0,3.1-2.5,5.7-5.7,5.7c-3.1,0-5.7-2.5-5.7-5.7s2.5-5.7,5.7-5.7
		C355.3,205,357.8,207.5,357.8,210.7z"/>
	<path class="emailc1" d="M357.8,238c0,3.1-2.5,5.7-5.7,5.7c-3.1,0-5.7-2.5-5.7-5.7s2.5-5.7,5.7-5.7C355.3,232.4,357.8,234.9,357.8,238z
		"/>

	<animateMotion
		path="M0, 0 -15 0 0 0"
		begin="0s" 
		dur="3s" 
		repeatCount="indefinite"/>
</g>

<g>
<circle id="svg-ico" class="emailc3" cx="250.9" cy="163.6" r="4.3"/>
		<animate 
		attributeName="opacity"
        values="0;1;0" 
        beg="0"
        dur="1s"
        repeatCount="indefinite"/>
</g>

<g>
<circle id="svg-ico" class="emailc3" cx="115.7" cy="299.9" r="4.3"/>
	<animate 
		attributeName="opacity"
        values="0;1;0" 
        beg="1"
        dur="2s"
        repeatCount="indefinite"/>
</g>

<g>
<circle id="svg-ico" class="emailc3" cx="386.8" cy="366.9" r="4.3"/>
	<animate 
		attributeName="opacity"
        values="0;1;0" 
        beg="2"
        dur="0.5s"
        repeatCount="indefinite"/>
</g>
</svg>
