<?xml version="1.0" encoding="utf-8"?>
<!-- Generator: Adobe Illustrator 22.0.0, SVG Export Plug-In . SVG Version: 6.00 Build 0)  -->
<svg version="1.1" id="Layer_1" xmlns="http://www.w3.org/2000/svg" xmlns:xlink="http://www.w3.org/1999/xlink" x="0px" y="0px"
	 viewBox="0 0 623.8 467.8" style="enable-background:new 0 0 623.8 467.8;" xml:space="preserve">
<style type="text/css">
	.git0{fill:#FFFFFF;stroke:#808080;stroke-linecap:round;stroke-linejoin:round;stroke-miterlimit:10;}
	.git1{fill:#FFFFFF;stroke:#808080;stroke-width:2;stroke-linecap:round;stroke-linejoin:round;stroke-miterlimit:10;}
	.git2{fill:none;stroke:#ee5586;stroke-linecap:round;stroke-linejoin:round;stroke-miterlimit:10;}
	.git3{fill:none;stroke:#808080;stroke-linecap:round;stroke-linejoin:round;stroke-miterlimit:10;}
	.git4{fill:#FFFFFF;stroke:#ee5586;stroke-width:3;stroke-linecap:round;stroke-linejoin:round;stroke-miterlimit:10;}
	.git5{fill:#ee5586;}
	.git6{fill:#FFFFFF;stroke:#ee5586;stroke-width:2;stroke-linecap:round;stroke-linejoin:round;stroke-miterlimit:10;}
</style>
<g>
	<path class="git0" d="M545.4,17l-92.1,65.5c-5.1,3.2-9.2,8.3-9.2,18.5v271.8c0,10.1,3.6,14.6,9.2,18.5l92.1,58.1"/>
	<path class="git1" d="M558.8,461.5c-7.4,0-13.4-5.5-13.4-12.2V17c0-6.7,6-12.2,13.4-12.2h47.3c7.4,0,13.4,5.5,13.4,12.2v432.4
		c0,6.7-6,12.2-13.4,12.2H558.8z"/>
	<path id="svg-concept" class="git2" d="M587.9,125.3v-3.6c0-0.7,0.5-1.2,1.2-1.2h3.6c0.7,0,1.2,0.5,1.2,1.2v3.6c0,0.7-0.5,1.2-1.2,1.2h-3.6
		C588.4,126.6,587.9,126,587.9,125.3z"/>
	<path id="svg-concept" class="git2" d="M565.3,117.9V113c0-0.9,0.8-1.7,1.7-1.7h4.9c0.9,0,1.7,0.8,1.7,1.7v4.9c0,0.9-0.8,1.7-1.7,1.7H567
		C566,119.6,565.3,118.8,565.3,117.9z"/>
	<path id="svg-concept" class="git2" d="M587.9,228.5v-3.6c0-0.7,0.5-1.2,1.2-1.2h3.6c0.7,0,1.2,0.5,1.2,1.2v3.6c0,0.7-0.5,1.2-1.2,1.2h-3.6
		C588.4,229.7,587.9,229.2,587.9,228.5z"/>
	<path id="svg-concept" class="git2" d="M565.3,221.1v-4.9c0-0.9,0.8-1.7,1.7-1.7h4.9c0.9,0,1.7,0.8,1.7,1.7v4.9c0,0.9-0.8,1.7-1.7,1.7H567
		C566,222.8,565.3,222,565.3,221.1z"/>
	<path id="svg-concept" class="git2" d="M587.9,331.7v-3.6c0-0.7,0.5-1.2,1.2-1.2h3.6c0.7,0,1.2,0.5,1.2,1.2v3.6c0,0.7-0.5,1.2-1.2,1.2h-3.6
		C588.4,332.9,587.9,332.4,587.9,331.7z"/>
	<path id="svg-concept" class="git2" d="M565.3,324.3v-4.9c0-0.9,0.8-1.7,1.7-1.7h4.9c0.9,0,1.7,0.8,1.7,1.7v4.9c0,0.9-0.8,1.7-1.7,1.7H567
		C566,326,565.3,325.2,565.3,324.3z"/>
	<path id="svg-concept" class="git2" d="M582.5,404c-8.8,0-15.9-7.1-15.9-15.8c0-8.7,7.1-15.8,15.9-15.8c8.8,0,15.8,7.1,15.8,15.8
		C598.3,396.9,591.2,404,582.5,404z"/>
	<path id="svg-concept" class="git2" d="M582.5,394c-3.2,0-5.9-2.6-5.9-5.9c0-3.2,2.6-5.9,5.9-5.9s5.9,2.6,5.9,5.9C588.3,391.4,585.7,394,582.5,394z"
		/>
	<line id="svg-concept" class="git2" x1="582.4" y1="404" x2="582.4" y2="394"/>
	<line id="svg-concept" class="git2" x1="582.4" y1="382.3" x2="582.4" y2="372.3"/>
	<line class="git3" x1="619.5" y1="29.9" x2="545.7" y2="29.9"/>
	<line class="git3" x1="619.5" y1="436.4" x2="545.4" y2="436.4"/>
	<path class="git3" d="M559.5,122.6V42.4c0-2.2,1.8-4,4-4h11.8c2.2,0,4,1.8,4,4v80.2c0,2.2-1.8,4-4,4h-11.8
		C561.3,126.6,559.5,124.8,559.5,122.6z"/>
	<path class="git3" d="M587.9,50.3v-3.6c0-0.7,0.5-1.2,1.2-1.2h3.6c0.7,0,1.2,0.5,1.2,1.2v3.6c0,0.7-0.5,1.2-1.2,1.2h-3.6
		C588.4,51.5,587.9,51,587.9,50.3z"/>
	<path class="git3" d="M587.9,62.4v-3.6c0-0.7,0.5-1.2,1.2-1.2h3.6c0.7,0,1.2,0.5,1.2,1.2v3.6c0,0.7-0.5,1.2-1.2,1.2h-3.6
		C588.4,63.6,587.9,63.1,587.9,62.4z"/>
	<path class="git3" d="M587.9,79.4v-3.6c0-0.7,0.5-1.2,1.2-1.2h3.6c0.7,0,1.2,0.5,1.2,1.2v3.6c0,0.7-0.5,1.2-1.2,1.2h-3.6
		C588.4,80.6,587.9,80.1,587.9,79.4z"/>
	<path class="git3" d="M601,50.3v-3.6c0-0.7,0.5-1.2,1.2-1.2h3.6c0.7,0,1.2,0.5,1.2,1.2v3.6c0,0.7-0.5,1.2-1.2,1.2h-3.6
		C601.5,51.5,601,51,601,50.3z"/>
	<path class="git3" d="M601,62.4v-3.6c0-0.7,0.5-1.2,1.2-1.2h3.6c0.7,0,1.2,0.5,1.2,1.2v3.6c0,0.7-0.5,1.2-1.2,1.2h-3.6
		C601.5,63.6,601,63.1,601,62.4z"/>
	<path class="git3" d="M601,125.2v-3.6c0-0.7,0.5-1.2,1.2-1.2h3.6c0.7,0,1.2,0.5,1.2,1.2v3.6c0,0.7-0.5,1.2-1.2,1.2h-3.6
		C601.5,126.4,601,125.8,601,125.2z"/>
	<path class="git3" d="M587.9,91.5v-3.6c0-0.7,0.5-1.2,1.2-1.2h3.6c0.7,0,1.2,0.5,1.2,1.2v3.6c0,0.7-0.5,1.2-1.2,1.2h-3.6
		C588.4,92.7,587.9,92.2,587.9,91.5z"/>
	<path class="git3" d="M587.9,103.4v-3.6c0-0.7,0.5-1.2,1.2-1.2h3.6c0.7,0,1.2,0.5,1.2,1.2v3.6c0,0.7-0.5,1.2-1.2,1.2h-3.6
		C588.4,104.6,587.9,104.1,587.9,103.4z"/>
	<path class="git3" d="M587.9,103.6V100c0-0.7,0.5-1.2,1.2-1.2h3.6c0.7,0,1.2,0.5,1.2,1.2v3.6c0,0.7-0.5,1.2-1.2,1.2h-3.6
		C588.4,104.8,587.9,104.3,587.9,103.6z"/>
	<path class="git3" d="M601,103.6l0-26.7c0-0.7,0.5-1.2,1.2-1.2h3.6c0.7,0,1.2,0.5,1.2,1.2l0,26.7c0,0.7-0.5,1.2-1.2,1.2h-3.6
		C601.5,104.8,601,104.3,601,103.6z"/>
	<line class="git3" x1="579.2" y1="69.4" x2="559.5" y2="69.4"/>
	<path class="git3" d="M565.3,102.6v-4.9c0-0.9,0.8-1.7,1.7-1.7h4.9c0.9,0,1.7,0.8,1.7,1.7v4.9c0,0.9-0.8,1.7-1.7,1.7H567
		C566,104.3,565.3,103.5,565.3,102.6z"/>
	<path class="git3" d="M559.5,225.7v-80.2c0-2.2,1.8-4,4-4h11.8c2.2,0,4,1.8,4,4v80.2c0,2.2-1.8,4-4,4h-11.8
		C561.3,229.7,559.5,227.9,559.5,225.7z"/>
	<path class="git3" d="M587.9,153.5v-3.6c0-0.7,0.5-1.2,1.2-1.2h3.6c0.7,0,1.2,0.5,1.2,1.2v3.6c0,0.7-0.5,1.2-1.2,1.2h-3.6
		C588.4,154.7,587.9,154.2,587.9,153.5z"/>
	<path class="git3" d="M587.9,165.6V162c0-0.7,0.5-1.2,1.2-1.2h3.6c0.7,0,1.2,0.5,1.2,1.2v3.6c0,0.7-0.5,1.2-1.2,1.2h-3.6
		C588.4,166.8,587.9,166.3,587.9,165.6z"/>
	<path class="git3" d="M587.9,182.6V179c0-0.7,0.5-1.2,1.2-1.2h3.6c0.7,0,1.2,0.5,1.2,1.2v3.6c0,0.7-0.5,1.2-1.2,1.2h-3.6
		C588.4,183.8,587.9,183.3,587.9,182.6z"/>
	<path class="git3" d="M601,153.5v-3.6c0-0.7,0.5-1.2,1.2-1.2h3.6c0.7,0,1.2,0.5,1.2,1.2v3.6c0,0.7-0.5,1.2-1.2,1.2h-3.6
		C601.5,154.7,601,154.2,601,153.5z"/>
	<path class="git3" d="M601,165.6V162c0-0.7,0.5-1.2,1.2-1.2h3.6c0.7,0,1.2,0.5,1.2,1.2v3.6c0,0.7-0.5,1.2-1.2,1.2h-3.6
		C601.5,166.8,601,166.3,601,165.6z"/>
	<path class="git3" d="M601,228.3v-3.6c0-0.7,0.5-1.2,1.2-1.2h3.6c0.7,0,1.2,0.5,1.2,1.2v3.6c0,0.7-0.5,1.2-1.2,1.2h-3.6
		C601.5,229.6,601,229,601,228.3z"/>
	<path class="git3" d="M587.9,194.7v-3.6c0-0.7,0.5-1.2,1.2-1.2h3.6c0.7,0,1.2,0.5,1.2,1.2v3.6c0,0.7-0.5,1.2-1.2,1.2l-3.6,0
		C588.4,195.9,587.9,195.4,587.9,194.7z"/>
	<path class="git3" d="M587.9,206.6V203c0-0.7,0.5-1.2,1.2-1.2h3.6c0.7,0,1.2,0.5,1.2,1.2v3.6c0,0.7-0.5,1.2-1.2,1.2h-3.6
		C588.4,207.8,587.9,207.2,587.9,206.6z"/>
	<path class="git3" d="M587.9,206.8v-3.6c0-0.7,0.5-1.2,1.2-1.2h3.6c0.7,0,1.2,0.5,1.2,1.2v3.6c0,0.7-0.5,1.2-1.2,1.2h-3.6
		C588.4,208,587.9,207.4,587.9,206.8z"/>
	<path class="git3" d="M601,206.8l0-26.7c0-0.7,0.5-1.2,1.2-1.2h3.6c0.7,0,1.2,0.5,1.2,1.2l0,26.7c0,0.7-0.5,1.2-1.2,1.2h-3.6
		C601.5,208,601,207.4,601,206.8z"/>
	<line class="git3" x1="579.2" y1="172.6" x2="559.5" y2="172.6"/>
	<path class="git3" d="M565.3,205.8v-4.9c0-0.9,0.8-1.7,1.7-1.7h4.9c0.9,0,1.7,0.8,1.7,1.7v4.9c0,0.9-0.8,1.7-1.7,1.7H567
		C566,207.5,565.3,206.7,565.3,205.8z"/>
	<path class="git3" d="M559.5,328.9v-80.2c0-2.2,1.8-4,4-4h11.8c2.2,0,4,1.8,4,4v80.2c0,2.2-1.8,4-4,4h-11.8
		C561.3,332.9,559.5,331.1,559.5,328.9z"/>
	<path class="git3" d="M587.9,256.7v-3.6c0-0.7,0.5-1.2,1.2-1.2h3.6c0.7,0,1.2,0.5,1.2,1.2v3.6c0,0.7-0.5,1.2-1.2,1.2h-3.6
		C588.4,257.9,587.9,257.4,587.9,256.7z"/>
	<path class="git3" d="M587.9,268.8v-3.6c0-0.7,0.5-1.2,1.2-1.2h3.6c0.7,0,1.2,0.5,1.2,1.2v3.6c0,0.7-0.5,1.2-1.2,1.2h-3.6
		C588.4,270,587.9,269.4,587.9,268.8z"/>
	<path class="git3" d="M587.9,285.8v-3.6c0-0.7,0.5-1.2,1.2-1.2h3.6c0.7,0,1.2,0.5,1.2,1.2v3.6c0,0.7-0.5,1.2-1.2,1.2h-3.6
		C588.4,287,587.9,286.4,587.9,285.8z"/>
	<path class="git3" d="M601,256.7v-3.6c0-0.7,0.5-1.2,1.2-1.2h3.6c0.7,0,1.2,0.5,1.2,1.2v3.6c0,0.7-0.5,1.2-1.2,1.2h-3.6
		C601.5,257.9,601,257.4,601,256.7z"/>
	<path class="git3" d="M601,268.8v-3.6c0-0.7,0.5-1.2,1.2-1.2h3.6c0.7,0,1.2,0.5,1.2,1.2v3.6c0,0.7-0.5,1.2-1.2,1.2h-3.6
		C601.5,270,601,269.4,601,268.8z"/>
	<path class="git3" d="M601,331.5v-3.6c0-0.7,0.5-1.2,1.2-1.2h3.6c0.7,0,1.2,0.5,1.2,1.2v3.6c0,0.7-0.5,1.2-1.2,1.2h-3.6
		C601.5,332.7,601,332.2,601,331.5z"/>
	<path class="git3" d="M587.9,297.9v-3.6c0-0.7,0.5-1.2,1.2-1.2h3.6c0.7,0,1.2,0.5,1.2,1.2v3.6c0,0.7-0.5,1.2-1.2,1.2h-3.6
		C588.4,299.1,587.9,298.5,587.9,297.9z"/>
	<path class="git3" d="M587.9,309.7v-3.6c0-0.7,0.5-1.2,1.2-1.2h3.6c0.7,0,1.2,0.5,1.2,1.2v3.6c0,0.7-0.5,1.2-1.2,1.2h-3.6
		C588.4,311,587.9,310.4,587.9,309.7z"/>
	<path class="git3" d="M587.9,309.9v-3.6c0-0.7,0.5-1.2,1.2-1.2h3.6c0.7,0,1.2,0.5,1.2,1.2v3.6c0,0.7-0.5,1.2-1.2,1.2h-3.6
		C588.4,311.2,587.9,310.6,587.9,309.9z"/>
	<path id="svg-concept" class="git2" d="M568.5,426.2c-2.6,0-4.7-2.1-4.7-4.7c0-2.6,2.1-4.7,4.7-4.7s4.7,2.1,4.7,4.7
		C573.1,424.1,571.1,426.2,568.5,426.2z"/>
	<path class="git3" d="M581.7,423.3v-3.6c0-0.7,0.5-1.2,1.2-1.2h3.6c0.7,0,1.2,0.5,1.2,1.2v3.6c0,0.7-0.5,1.2-1.2,1.2h-3.6
		C582.2,424.5,581.7,424,581.7,423.3z"/>
	<path class="git3" d="M595,423.3v-3.6c0-0.7,0.5-1.2,1.2-1.2h3.6c0.7,0,1.2,0.5,1.2,1.2v3.6c0,0.7-0.5,1.2-1.2,1.2h-3.6
		C595.6,424.5,595,424,595,423.3z"/>
	<path class="git3" d="M601,309.9l0-26.7c0-0.7,0.5-1.2,1.2-1.2h3.6c0.7,0,1.2,0.5,1.2,1.2l0,26.7c0,0.7-0.5,1.2-1.2,1.2h-3.6
		C601.5,311.2,601,310.6,601,309.9z"/>
	<line class="git3" x1="579.2" y1="275.8" x2="559.5" y2="275.8"/>
	<path class="git3" d="M565.3,309V304c0-0.9,0.8-1.7,1.7-1.7h4.9c0.9,0,1.7,0.8,1.7,1.7v4.9c0,0.9-0.8,1.7-1.7,1.7H567
		C566,310.6,565.3,309.9,565.3,309z"/>
	<line class="git3" x1="619.5" y1="135" x2="545.4" y2="135"/>
	<line class="git3" x1="459.6" y1="116.5" x2="459.6" y2="101.6"/>
	<line class="git3" x1="465.4" y1="112.7" x2="465.4" y2="98.4"/>
	<line class="git3" x1="471.4" y1="109" x2="471.4" y2="94.6"/>
	<line class="git3" x1="477.5" y1="105.3" x2="477.5" y2="90.8"/>
	<line class="git3" x1="483.5" y1="101.4" x2="483.5" y2="87"/>
	<line class="git3" x1="594.7" y1="19" x2="572.7" y2="19"/>
	<line class="git3" x1="594.7" y1="447.5" x2="572.7" y2="447.5"/>
	<line class="git3" x1="619.5" y1="237.5" x2="545.4" y2="237.5"/>
	<line class="git3" x1="619.5" y1="339.9" x2="545.4" y2="339.9"/>
	<path class="git3" d="M545.4,434"/>
	<path class="git3" d="M545.4,34.3"/>
	<path class="git3" d="M477.6,309.4v56.9c0,3.4-2.9,7.2-6.2,6.2l-6-2.2c-4.1-1.1-5.8-4.3-5.8-7.6v-53.2c0-3.4,2.8-6.2,6.2-6.2h5.7
		C474.8,303.2,477.6,306,477.6,309.4z"/>
</g>
<g>
	<circle id="svg-concept" class="git4" cx="40.8" cy="234" r="34.5"/>
	<path class="git1" d="M195.7,90.6c0-19,15.4-34.5,34.5-34.5c19,0,34.5,15.5,34.5,34.5c0,19.1-15.5,34.5-34.5,34.5
		C211.1,125.1,195.7,109.7,195.7,90.6z"/>
	<circle class="git1" cx="149.4" cy="367.9" r="34.5"/>
	<line id="svg-concept" class="git2" x1="75.3" y1="234" x2="495.9" y2="234"/>
	<line class="git3" x1="432" y1="234" x2="336.7" y2="90.6"/>
	<line class="git3" x1="336.7" y1="90.6" x2="264.7" y2="90.6"/>
	<line class="git3" x1="352.4" y1="234" x2="272.8" y2="367.9"/>
	<line class="git3" x1="272.8" y1="367.9" x2="183.9" y2="367.9"/>
	<circle id="svg-ico" class="git5" cx="495.4" cy="233.6" r="3.7"/>
</g>

<g>
<path id="svg-concept" class="git6" d="M87.4,234c0,2.7-2.2,4.9-4.9,4.9c-2.7,0-4.9-2.2-4.9-4.9c0-2.7,2.2-4.9,4.9-4.9C85.2,229,87.4,231.2,87.4,234z"
	/>
	<animateMotion
		path="M0, 0 412 0 0"
		begin="1s" 
		dur="3s"
		repeatCount="indefinite"/>
</g>

<g>
<path id="svg-concept" class="git6" d="M197.2,367.9c0,2.7-2.2,4.9-4.9,4.9c-2.7,0-4.9-2.2-4.9-4.9s2.2-4.9,4.9-4.9C195,362.9,197.2,365.1,197.2,367.9
	z"/>
	<animateMotion
		path="M0, 0 80 0   160 -135 0 "
		begin="1s" 
		dur="3s"
		repeatCount="indefinite"/>
</g>

<g>
<path id="svg-concept" class="git6" d="M276.4,90.2c0,2.7-2.2,4.9-4.9,4.9c-2.7,0-4.9-2.2-4.9-4.9s2.2-4.9,4.9-4.9C274.2,85.3,276.4,87.5,276.4,90.2z"
	/>
	<animateMotion
		path="M0, 0 65 0   160 140 0"
		begin="1s" 
		dur="3s"
		repeatCount="indefinite"/>
</g>
</svg>