<?xml version="1.0" encoding="utf-8"?>
<!-- Generator: Adobe Illustrator 22.0.0, SVG Export Plug-In . SVG Version: 6.00 Build 0)  -->
<svg version="1.1" id="Layer_1" xmlns="http://www.w3.org/2000/svg" xmlns:xlink="http://www.w3.org/1999/xlink" x="0px" y="0px"
	 viewBox="0 0 1099.5 337.7" style="enable-background:new 0 0 1099.5 337.7;" xml:space="preserve">
<style type="text/css">
	.hard0{fill:#FFFFFF;stroke:#ee5586;stroke-width:3;stroke-linecap:round;stroke-linejoin:round;stroke-miterlimit:10;}
	.hard1{fill:none;stroke:#ee5586;stroke-linecap:round;stroke-linejoin:round;stroke-miterlimit:10;}
	.hard2{fill:#FFFFFF;}
	.hard3{fill:#FFFFFF;stroke:#808080;stroke-linecap:round;stroke-linejoin:round;stroke-miterlimit:10;stroke-opacity:0.35;}
	.hard4{fill:none;stroke:#808080;stroke-linecap:round;stroke-linejoin:round;stroke-miterlimit:10;stroke-opacity:0.35;}
	.hard5{fill:none;stroke:#808080;stroke-linecap:round;stroke-linejoin:round;stroke-miterlimit:10;}
	.hard6{fill:none;stroke:#D8D8D8;stroke-linecap:round;stroke-linejoin:round;stroke-miterlimit:10;}
	.hard7{fill:#FFFFFF;
</style>
<g>
	<line id="svg-concept" class="hard0" x1="189.4" y1="167.8" x2="147" y2="167.8"/>
	<line id="svg-concept" class="hard0" x1="168.5" y1="146.8" x2="168.5" y2="189.2"/>
	<line id="svg-concept" class="hard0" x1="379.2" y1="167.8" x2="336.8" y2="167.8"/>
	<line id="svg-concept" class="hard0" x1="358.3" y1="146.8" x2="358.3" y2="189.2"/>
	<line id="svg-concept" class="hard0" x1="758.4" y1="167.8" x2="716" y2="167.8"/>
	<line id="svg-concept" class="hard0" x1="737.5" y1="146.8" x2="737.5" y2="189.2"/>
	<line id="svg-concept" class="hard0" x1="948.1" y1="167.8" x2="905.7" y2="167.8"/>
	<line id="svg-concept" class="hard0" x1="927.1" y1="146.8" x2="927.1" y2="189.2"/>
</g>

<g>
<rect x="166.8" y="146.3" class="hard2" width="3.5" height="21.4"/>
	<animateMotion
		path="M0, 0 0 -25 0"
		begin="1s" 
		dur="2s"
		fill="freeze"/>
</g>
<g>
<rect x="166.8" y="167.7" class="hard2" width="3.5" height="22"/>
	<animateMotion
		path="M0, 0 0 25 0"
		begin="1s" 
		dur="2s"
		fill="freeze"/>
</g>

<g>
<rect x="177.5" y="157" transform="matrix(-1.836970e-16 1 -1 -1.836970e-16 346.9672 -11.5122)" class="hard2" width="3.5" height="21.4"/>
	<animateMotion
		path="M0, 0 25 0 0"
		begin="1s" 
		dur="2s"
		fill="freeze"/>
</g>
<g>
<rect x="155.8" y="156.7" transform="matrix(-1.836970e-16 1 -1 -1.836970e-16 325.2365 10.2185)" class="hard2" width="3.5" height="22"/>
	<animateMotion
		path="M0, 0 -25 0 0"
		begin="1s" 
		dur="2s"
		fill="freeze"/>
</g>

<line id="svg-concept" class="hard0" x1="568.8" y1="167.8" x2="526.4" y2="167.8"/>
<line id="svg-concept" class="hard0" x1="547.8" y1="146.8" x2="547.8" y2="189.2"/>

<g>
<rect x="546.1" y="146.3" class="hard2" width="3.5" height="21.4"/>
	<animateMotion
		path="M0, 0 0 -25 0"
		begin="1s" 
		dur="2s"
		fill="freeze"/>
</g>

<g>
<rect x="546.1" y="167.7" class="hard2" width="3.5" height="22"/>
	<animateMotion
		path="M0, 0 0 25 0"
		begin="1s" 
		dur="2s"
		fill="freeze"/>
</g>
<g>
<rect x="556.8" y="157" transform="matrix(-1.836970e-16 1 -1 -1.836970e-16 726.316 -390.861)" class="hard2" width="3.5" height="21.4"/>
	<animateMotion
		path="M0, 0 25 0 0"
		begin="1s" 
		dur="2s"
		fill="freeze"/>
</g>
<g>
<rect x="535.1" y="156.7" transform="matrix(-1.836970e-16 1 -1 -1.836970e-16 704.5853 -369.1303)" class="hard2" width="3.5" height="22"/>
	<animateMotion
		path="M0, 0 -25 0 0"
		begin="1s" 
		dur="2s"
		fill="freeze"/>
</g>

<g>
<rect x="925.4" y="146.3" class="hard2" width="3.5" height="21.4"/>
	<animateMotion
		path="M0, 0 0 -25 0"
		begin="1s" 
		dur="2s"
		fill="freeze"/>
</g>
<g>
<rect x="925.4" y="167.7" class="hard2" width="3.5" height="22"/>
	<animateMotion
		path="M0, 0 0 25 0"
		begin="1s" 
		dur="2s"
		fill="freeze"/>
</g>
<g>
<rect x="936.1" y="157" transform="matrix(-1.836970e-16 1 -1 -1.836970e-16 1105.5968 -770.1418)" class="hard2" width="3.5" height="21.4"/>
	<animateMotion
		path="M0, 0 25 0 0"
		begin="1s" 
		dur="2s"
		fill="freeze"/>
</g>
<g>
<rect x="914.4" y="156.7" transform="matrix(-1.836970e-16 1 -1 -1.836970e-16 1083.8661 -748.4111)" class="hard2" width="3.5" height="22"/>
	<animateMotion
		path="M0, 0 -25 0 0"
		begin="1s" 
		dur="2s"
		fill="freeze"/>
</g>


<g>
	<g>
	<rect id="svg-concept" x="117.4" y="211.4" transform="matrix(0.7071 -0.7071 0.7071 0.7071 -136.3079 196.0661)" class="hard7" width="102.3" height="102.3"/>
	</g>

	<path class="hard4" d="M210.1,265.1c-1.5,1.5-3.9,1.5-5.4,0c-1.5-1.5-1.5-3.9,0-5.4c1.5-1.5,3.9-1.5,5.4,0
		C211.6,261.2,211.6,263.5,210.1,265.1z"/>
	<path class="hard4" d="M171.3,304c-1.5,1.5-3.9,1.5-5.4,0c-1.5-1.5-1.5-3.9,0-5.4c1.5-1.5,3.9-1.5,5.4,0
		C172.7,300.2,172.7,302.5,171.3,304z"/>
	
	<rect x="129.1" y="223.2" transform="matrix(0.7071 -0.7071 0.7071 0.7071 -136.2946 196.0342)" class="hard5" width="78.7" height="78.7"/>
	<path class="hard4" d="M132.3,265.2c-1.5,1.5-3.9,1.5-5.4,0c-1.5-1.5-1.5-3.9,0-5.4c1.5-1.5,3.9-1.5,5.4,0
		C133.9,261.2,133.9,263.7,132.3,265.2z"/>
	<path class="hard4" d="M126.9,259.7"/>
	<path class="hard4" d="M171.3,226.2c-1.5,1.5-3.9,1.5-5.4,0c-1.5-1.5-1.5-3.9,0-5.4c1.5-1.5,3.9-1.5,5.4,0
		C172.8,222.2,172.8,224.7,171.3,226.2z"/>

	<g class="hard5">
		<rect x="152.8" y="246.7" transform="matrix(0.7071 -0.7071 0.7071 0.7071 -136.1871 196.0272)" width="31.4" height="31.4"/>
		<path d="M153.6,263.4c-0.6,0.6-1.5,0.6-2,0c-0.6-0.6-0.6-1.5,0-2c0.6-0.6,1.5-0.6,2,0S154,262.9,153.6,263.4z"/>
		<path d="M157.6,259.4c-0.6,0.6-1.5,0.6-2,0c-0.6-0.6-0.6-1.5,0-2c0.6-0.6,1.5-0.6,2,0S158.2,258.9,157.6,259.4z"/>
		<path d="M161.6,255.4c-0.6,0.6-1.5,0.6-2,0c-0.6-0.6-0.6-1.5,0-2c0.6-0.6,1.5-0.6,2,0
			C162.2,254,162.2,254.9,161.6,255.4z"/>
		<path d="M165.6,251.3c-0.6,0.6-1.5,0.6-2,0c-0.6-0.6-0.6-1.5,0-2c0.6-0.6,1.5-0.6,2,0
			C166.2,250,166.2,250.9,165.6,251.3z"/>
		<path d="M169.6,247.3c-0.6,0.6-1.5,0.6-2,0c-0.6-0.6-0.6-1.5,0-2c0.6-0.6,1.5-0.6,2,0
			C170.2,246,170.2,246.7,169.6,247.3z"/>
		<path d="M157.6,267.5c-0.6,0.6-1.5,0.6-2,0c-0.6-0.6-0.6-1.5,0-2c0.6-0.6,1.5-0.6,2,0
			C158.2,266,158.2,266.9,157.6,267.5z"/>
		<path d="M161.6,263.5c-0.6,0.6-1.5,0.6-2,0c-0.6-0.6-0.6-1.5,0-2c0.6-0.6,1.5-0.6,2,0
			C162.2,262,162.2,262.9,161.6,263.5z"/>
		<path d="M165.6,259.4c-0.6,0.6-1.5,0.6-2,0c-0.6-0.6-0.6-1.5,0-2c0.6-0.6,1.5-0.6,2,0
			C166.2,258,166.2,258.9,165.6,259.4z"/>
		<path d="M169.6,255.4c-0.6,0.6-1.5,0.6-2,0c-0.6-0.6-0.6-1.5,0-2c0.6-0.6,1.5-0.6,2,0
			C170.2,254,170.2,254.9,169.6,255.4z"/>
		<path d="M173.6,251.3c-0.6,0.6-1.5,0.6-2,0c-0.6-0.6-0.6-1.5,0-2c0.6-0.6,1.5-0.6,2,0
			C174.2,250,174.2,250.9,173.6,251.3z"/>
		<path d="M161.6,271.5c-0.6,0.6-1.5,0.6-2,0c-0.6-0.6-0.6-1.5,0-2c0.6-0.6,1.5-0.6,2,0
			C162.2,270,162.2,270.9,161.6,271.5z"/>
		<path d="M165.6,267.5c-0.6,0.6-1.5,0.6-2,0c-0.6-0.6-0.6-1.5,0-2c0.6-0.6,1.5-0.6,2,0
			C166.2,266,166.2,266.9,165.6,267.5z"/>
		<path d="M169.6,263.5c-0.6,0.6-1.5,0.6-2,0c-0.6-0.6-0.6-1.5,0-2c0.6-0.6,1.5-0.6,2,0
			C170.2,262,170.2,262.9,169.6,263.5z"/>
		<path d="M173.6,259.5c-0.6,0.6-1.5,0.6-2,0c-0.6-0.6-0.6-1.5,0-2c0.6-0.6,1.5-0.6,2,0
			C174.2,258,174.2,258.9,173.6,259.5z"/>
		<path d="M177.6,255.4c-0.6,0.6-1.5,0.6-2,0c-0.6-0.6-0.6-1.5,0-2c0.6-0.6,1.5-0.6,2,0
			C178.2,254,178.2,254.9,177.6,255.4z"/>
		<path d="M165.6,275.5c-0.6,0.6-1.5,0.6-2,0c-0.6-0.6-0.6-1.5,0-2c0.6-0.6,1.5-0.6,2,0
			C166.2,274,166.2,274.9,165.6,275.5z"/>
		<path d="M169.6,271.5c-0.6,0.6-1.5,0.6-2,0c-0.6-0.6-0.6-1.5,0-2c0.6-0.6,1.5-0.6,2,0
			C170.2,270,170.2,270.9,169.6,271.5z"/>
		<path d="M173.6,267.5c-0.6,0.6-1.5,0.6-2,0c-0.6-0.6-0.6-1.5,0-2c0.6-0.6,1.5-0.6,2,0
			C174.2,266,174.2,266.9,173.6,267.5z"/>
		<path d="M177.7,263.5c-0.6,0.6-1.5,0.6-2,0c-0.6-0.6-0.6-1.5,0-2c0.6-0.6,1.5-0.6,2,0
			C178.2,262,178.2,262.9,177.7,263.5z"/>
		<path d="M181.8,259.5c-0.6,0.6-1.5,0.6-2,0c-0.6-0.6-0.6-1.5,0-2c0.6-0.6,1.5-0.6,2,0
			C182.2,258,182.2,258.9,181.8,259.5z"/>
		<path d="M169.6,279.5c-0.6,0.6-1.5,0.6-2,0c-0.6-0.6-0.6-1.5,0-2c0.6-0.6,1.5-0.6,2,0
			C170.2,278.1,170.2,278.9,169.6,279.5z"/>
		<path d="M173.7,275.5c-0.6,0.6-1.5,0.6-2,0c-0.6-0.6-0.6-1.5,0-2c0.6-0.6,1.5-0.6,2,0
			C174.2,274,174.2,274.9,173.7,275.5z"/>
		<path d="M177.7,271.5c-0.6,0.6-1.5,0.6-2,0c-0.6-0.6-0.6-1.5,0-2c0.6-0.6,1.5-0.6,2,0
			C178.2,270,178.2,270.9,177.7,271.5z"/>
		<path d="M181.8,267.5c-0.6,0.6-1.5,0.6-2,0c-0.6-0.6-0.6-1.5,0-2c0.6-0.6,1.5-0.6,2,0
			C182.2,266,182.2,266.9,181.8,267.5z"/>
		<path d="M185.8,263.5c-0.6,0.6-1.5,0.6-2,0c-0.6-0.6-0.6-1.5,0-2c0.6-0.6,1.5-0.6,2,0
			C186.2,262,186.2,262.9,185.8,263.5z"/>
	</g>
</g>


<g>
	<rect x="307.2" y="211.4" transform="matrix(0.7071 -0.7071 0.7071 0.7071 -80.6964 330.2386)" id="svg-concept" class="hard0" width="102.3" height="102.3"/>
	<path class="hard4" d="M399.8,265.1c-1.5,1.5-3.9,1.5-5.4,0c-1.5-1.5-1.5-3.9,0-5.4c1.5-1.5,3.9-1.5,5.4,0
		C401.2,261.2,401.2,263.5,399.8,265.1z"/>
	<path class="hard4" d="M360.9,304c-1.5,1.5-3.9,1.5-5.4,0c-1.5-1.5-1.5-3.9,0-5.4c1.5-1.5,3.9-1.5,5.4,0
		C362.4,300.2,362.4,302.5,360.9,304z"/>
	
		<rect x="318.7" y="223.2" transform="matrix(0.7071 -0.7071 0.7071 0.7071 -80.7922 330.0714)" class="hard5" width="78.7" height="78.7"/>
	<path class="hard4" d="M321.9,265.2c-1.5,1.5-3.9,1.5-5.4,0c-1.5-1.5-1.5-3.9,0-5.4c1.5-1.5,3.9-1.5,5.4,0
		C323.4,261.2,323.4,263.7,321.9,265.2z"/>
	<path class="hard4" d="M360.9,226.2c-1.5,1.5-3.9,1.5-5.4,0c-1.5-1.5-1.5-3.9,0-5.4c1.5-1.5,3.9-1.5,5.4,0
		C362.4,222.2,362.4,224.7,360.9,226.2z"/>
	<g>
		
			<rect x="342.4" y="246.7" transform="matrix(0.7071 -0.7071 0.7071 0.7071 -80.6847 330.0645)" id="svg-concept" class="hard1" width="31.4" height="31.4"/>
		<path id="svg-concept" class="hard1" d="M343.2,263.4c-0.6,0.6-1.5,0.6-2,0c-0.6-0.6-0.6-1.5,0-2c0.6-0.6,1.5-0.6,2,0
			C343.8,262,343.8,262.9,343.2,263.4z"/>
		<path id="svg-concept" class="hard1" d="M347.2,259.4c-0.6,0.6-1.5,0.6-2,0c-0.6-0.6-0.6-1.5,0-2c0.6-0.6,1.5-0.6,2,0
			C347.8,258,347.8,258.9,347.2,259.4z"/>
		<path id="svg-concept" class="hard1" d="M351.2,255.4c-0.6,0.6-1.5,0.6-2,0c-0.6-0.6-0.6-1.5,0-2c0.6-0.6,1.5-0.6,2,0
			C351.8,254,351.8,254.9,351.2,255.4z"/>
		<path id="svg-concept" class="hard1" d="M355.2,251.3c-0.6,0.6-1.5,0.6-2,0c-0.6-0.6-0.6-1.5,0-2c0.6-0.6,1.5-0.6,2,0
			C355.8,250,355.8,250.9,355.2,251.3z"/>
		<path id="svg-concept" class="hard1" d="M359.2,247.3c-0.6,0.6-1.5,0.6-2,0c-0.6-0.6-0.6-1.5,0-2c0.6-0.6,1.5-0.6,2,0
			C359.8,246,359.8,246.7,359.2,247.3z"/>
		<path id="svg-concept" class="hard1" d="M347.2,267.5c-0.6,0.6-1.5,0.6-2,0c-0.6-0.6-0.6-1.5,0-2c0.6-0.6,1.5-0.6,2,0
			C347.8,266,347.8,266.9,347.2,267.5z"/>
		<path id="svg-concept" class="hard1" d="M351.2,263.5c-0.6,0.6-1.5,0.6-2,0c-0.6-0.6-0.6-1.5,0-2c0.6-0.6,1.5-0.6,2,0
			C351.8,262,351.8,262.9,351.2,263.5z"/>
		<path id="svg-concept" class="hard1" d="M355.3,259.4c-0.6,0.6-1.5,0.6-2,0c-0.6-0.6-0.6-1.5,0-2c0.6-0.6,1.5-0.6,2,0
			C355.8,258,355.8,258.9,355.3,259.4z"/>
		<path id="svg-concept" class="hard1" d="M359.3,255.4c-0.6,0.6-1.5,0.6-2,0c-0.6-0.6-0.6-1.5,0-2c0.6-0.6,1.5-0.6,2,0
			C359.8,254,359.8,254.9,359.3,255.4z"/>
		<path id="svg-concept" class="hard1" d="M363.3,251.3c-0.6,0.6-1.5,0.6-2,0c-0.6-0.6-0.6-1.5,0-2c0.6-0.6,1.5-0.6,2,0
			C363.8,250,363.8,250.9,363.3,251.3z"/>
		<path id="svg-concept" class="hard1" d="M351.3,271.5c-0.6,0.6-1.5,0.6-2,0c-0.6-0.6-0.6-1.5,0-2c0.6-0.6,1.5-0.6,2,0
			C351.8,270,351.8,270.9,351.3,271.5z"/>
		<path id="svg-concept" class="hard1" d="M355.3,267.5c-0.6,0.6-1.5,0.6-2,0c-0.6-0.6-0.6-1.5,0-2c0.6-0.6,1.5-0.6,2,0
			C355.8,266,355.8,266.9,355.3,267.5z"/>
		<path id="svg-concept" class="hard1" d="M359.3,263.5c-0.6,0.6-1.5,0.6-2,0c-0.6-0.6-0.6-1.5,0-2c0.6-0.6,1.5-0.6,2,0
			C359.8,262,359.8,262.9,359.3,263.5z"/>
		<path id="svg-concept" class="hard1" d="M363.3,259.5c-0.6,0.6-1.5,0.6-2,0c-0.6-0.6-0.6-1.5,0-2c0.6-0.6,1.5-0.6,2,0
			C363.8,258,363.8,258.9,363.3,259.5z"/>
		<path id="svg-concept" class="hard1" d="M367.3,255.4c-0.6,0.6-1.5,0.6-2,0c-0.6-0.6-0.6-1.5,0-2c0.6-0.6,1.5-0.6,2,0
			C367.8,254,368,254.9,367.3,255.4z"/>
		<path id="svg-concept" class="hard1" d="M355.3,275.5c-0.6,0.6-1.5,0.6-2,0c-0.6-0.6-0.6-1.5,0-2c0.6-0.6,1.5-0.6,2,0
			C355.8,274,355.8,274.9,355.3,275.5z"/>
		<path id="svg-concept" class="hard1" d="M359.3,271.5c-0.6,0.6-1.5,0.6-2,0c-0.6-0.6-0.6-1.5,0-2c0.6-0.6,1.5-0.6,2,0
			C359.8,270,359.8,270.9,359.3,271.5z"/>
		<path id="svg-concept" class="hard1" d="M363.3,267.5c-0.6,0.6-1.5,0.6-2,0c-0.6-0.6-0.6-1.5,0-2c0.6-0.6,1.5-0.6,2,0C364,266,364,266.9,363.3,267.5z
			"/>
		<path id="svg-concept" class="hard1" d="M367.3,263.5c-0.6,0.6-1.5,0.6-2,0c-0.6-0.6-0.6-1.5,0-2c0.6-0.6,1.5-0.6,2,0C368,262,368,262.9,367.3,263.5z
			"/>
		<path id="svg-concept" class="hard1" d="M371.3,259.5c-0.6,0.6-1.5,0.6-2,0c-0.6-0.6-0.6-1.5,0-2c0.6-0.6,1.5-0.6,2,0C372,258,372,258.9,371.3,259.5z
			"/>
		<path id="svg-concept" class="hard1" d="M359.3,279.5c-0.6,0.6-1.5,0.6-2,0c-0.6-0.6-0.6-1.5,0-2c0.6-0.6,1.5-0.6,2,0
			C359.9,278.1,359.9,278.9,359.3,279.5z"/>
		<path id="svg-concept" class="hard1" d="M363.3,275.5c-0.6,0.6-1.5,0.6-2,0c-0.6-0.6-0.6-1.5,0-2c0.6-0.6,1.5-0.6,2,0C364,274,364,274.9,363.3,275.5z
			"/>
		<path id="svg-concept" class="hard1" d="M367.3,271.5c-0.6,0.6-1.5,0.6-2,0c-0.6-0.6-0.6-1.5,0-2c0.6-0.6,1.5-0.6,2,0C368,270,368,270.9,367.3,271.5z
			"/>
		<path id="svg-concept" class="hard1" d="M371.3,267.5c-0.6,0.6-1.5,0.6-2,0c-0.6-0.6-0.6-1.5,0-2c0.6-0.6,1.5-0.6,2,0C372,266,372,266.9,371.3,267.5z
			"/>
		<path id="svg-concept" class="hard1" d="M375.4,263.5c-0.6,0.6-1.5,0.6-2,0c-0.6-0.6-0.6-1.5,0-2c0.6-0.6,1.5-0.6,2,0C376,262,376,262.9,375.4,263.5z
			"/>
	</g>
</g>

<g>
	<g>
	<rect id="svg-concept" x="211.9" y="116.7" transform="matrix(0.7071 -0.7071 0.7071 0.7071 -41.6434 235.1319)" class="hard7" width="102.3" height="102.3"/>
	</g>
	<path class="hard4" d="M304.7,170.5c-1.5,1.5-3.9,1.5-5.4,0c-1.5-1.5-1.5-3.9,0-5.4c1.5-1.5,3.9-1.5,5.4,0
		C306.2,166.5,306.2,168.9,304.7,170.5z"/>
	<path class="hard4" d="M265.7,209.5c-1.5,1.5-3.9,1.5-5.4,0c-1.5-1.5-1.5-3.9,0-5.4c1.5-1.5,3.9-1.5,5.4,0
		C267.2,205.5,267.2,207.9,265.7,209.5z"/>
	
		<rect x="223.8" y="128.6" transform="matrix(0.7071 -0.7071 0.7071 0.7071 -41.6566 235.2541)" class="hard5" width="78.7" height="78.7"/>
	<path class="hard4" d="M226.9,170.5c-1.5,1.5-3.9,1.5-5.4,0c-1.5-1.5-1.5-3.9,0-5.4c1.5-1.5,3.9-1.5,5.4,0
		C228.4,166.6,228.4,169.1,226.9,170.5z"/>
	<path class="hard4" d="M265.8,131.5c-1.5,1.5-3.9,1.5-5.4,0c-1.5-1.5-1.5-3.9,0-5.4s3.9-1.5,5.4,0
		C267.2,127.7,267.2,130.1,265.8,131.5z"/>
	
	<g class="hard5">
		<rect x="247.4" y="152.2" transform="matrix(0.7071 -0.7071 0.7071 0.7071 -41.658 235.2019)" width="31.4" height="31.4"/>
		<path d="M248.1,168.8c-0.6,0.6-1.5,0.6-2,0c-0.6-0.6-0.6-1.5,0-2c0.6-0.6,1.5-0.6,2,0S248.6,168.3,248.1,168.8z"/>
		<path d="M252.1,164.8c-0.6,0.6-1.5,0.6-2,0c-0.6-0.6-0.6-1.5,0-2c0.6-0.6,1.5-0.6,2,0
			C252.6,163.3,252.6,164.2,252.1,164.8z"/>
		<path d="M256.1,160.8c-0.6,0.6-1.5,0.6-2,0c-0.6-0.6-0.6-1.5,0-2c0.6-0.6,1.5-0.6,2,0
			C256.6,159.2,256.6,160.2,256.1,160.8z"/>
		<path d="M260.1,156.8c-0.6,0.6-1.5,0.6-2,0c-0.6-0.6-0.6-1.5,0-2c0.6-0.6,1.5-0.6,2,0
			C260.8,155.2,260.8,156.2,260.1,156.8z"/>
		<path d="M264.2,152.8c-0.6,0.6-1.5,0.6-2,0c-0.6-0.6-0.6-1.5,0-2c0.6-0.6,1.5-0.6,2,0
			C264.8,151.2,264.8,152.2,264.2,152.8z"/>
		<path d="M252.1,172.8c-0.6,0.6-1.5,0.6-2,0c-0.6-0.6-0.6-1.5,0-2c0.6-0.6,1.5-0.6,2,0
			C252.6,171.4,252.6,172.3,252.1,172.8z"/>
		<path d="M256.1,168.8c-0.6,0.6-1.5,0.6-2,0c-0.6-0.6-0.6-1.5,0-2c0.6-0.6,1.5-0.6,2,0
			C256.8,167.4,256.8,168.3,256.1,168.8z"/>
		<path d="M260.1,164.8c-0.6,0.6-1.5,0.6-2,0c-0.6-0.6-0.6-1.5,0-2c0.6-0.6,1.5-0.6,2,0
			C260.8,163.4,260.8,164.3,260.1,164.8z"/>
		<path d="M264.2,160.8c-0.6,0.6-1.5,0.6-2,0c-0.6-0.6-0.6-1.5,0-2c0.6-0.6,1.5-0.6,2,0
			C264.8,159.2,264.8,160.2,264.2,160.8z"/>
		<path d="M268.2,156.8c-0.6,0.6-1.5,0.6-2,0c-0.6-0.6-0.6-1.5,0-2c0.6-0.6,1.5-0.6,2,0
			C268.8,155.2,268.8,156.2,268.2,156.8z"/>
		<path d="M256.1,177c-0.6,0.6-1.5,0.6-2,0c-0.6-0.6-0.6-1.5,0-2c0.6-0.6,1.5-0.6,2,0
			C256.8,175.4,256.8,176.3,256.1,177z"/>
		<path d="M260.1,172.8c-0.6,0.6-1.5,0.6-2,0c-0.6-0.6-0.6-1.5,0-2c0.6-0.6,1.5-0.6,2,0
			C260.8,171.4,260.8,172.3,260.1,172.8z"/>
		<path d="M264.2,168.8c-0.6,0.6-1.5,0.6-2,0c-0.6-0.6-0.6-1.5,0-2c0.6-0.6,1.5-0.6,2,0
			C264.8,167.4,264.8,168.3,264.2,168.8z"/>
		<path d="M268.2,164.8c-0.6,0.6-1.5,0.6-2,0c-0.6-0.6-0.6-1.5,0-2c0.6-0.6,1.5-0.6,2,0
			C268.8,163.4,268.8,164.3,268.2,164.8z"/>
		<path d="M272.2,160.8c-0.6,0.6-1.5,0.6-2,0c-0.6-0.6-0.6-1.5,0-2c0.6-0.6,1.5-0.6,2,0
			C272.8,159.4,272.8,160.3,272.2,160.8z"/>
		<path d="M260.1,181c-0.6,0.6-1.5,0.6-2,0c-0.6-0.6-0.6-1.5,0-2c0.6-0.6,1.5-0.6,2,0
			C260.8,179.4,260.8,180.3,260.1,181z"/>
		<path d="M264.2,177c-0.6,0.6-1.5,0.6-2,0c-0.6-0.6-0.6-1.5,0-2c0.6-0.6,1.5-0.6,2,0
			C264.8,175.4,264.8,176.3,264.2,177z"/>
		<path d="M268.2,173c-0.6,0.6-1.5,0.6-2,0c-0.6-0.6-0.6-1.5,0-2c0.6-0.6,1.5-0.6,2,0
			C268.8,171.4,268.8,172.3,268.2,173z"/>
		<path d="M272.2,168.8c-0.6,0.6-1.5,0.6-2,0c-0.6-0.6-0.6-1.5,0-2c0.6-0.6,1.5-0.6,2,0
			C272.8,167.4,272.8,168.3,272.2,168.8z"/>
		<path d="M276.2,164.8c-0.6,0.6-1.5,0.6-2,0c-0.6-0.6-0.6-1.5,0-2c0.6-0.6,1.5-0.6,2,0
			C276.8,163.4,276.8,164.3,276.2,164.8z"/>
		<path d="M264.2,185c-0.6,0.6-1.5,0.6-2,0c-0.6-0.6-0.6-1.5,0-2c0.6-0.6,1.5-0.6,2,0
			C264.8,183.4,264.8,184.4,264.2,185z"/>
		<path d="M268.2,181c-0.6,0.6-1.5,0.6-2,0c-0.6-0.6-0.6-1.5,0-2c0.6-0.6,1.5-0.6,2,0
			C268.8,179.4,268.8,180.3,268.2,181z"/>
		<path d="M272.2,177c-0.6,0.6-1.5,0.6-2,0c-0.6-0.6-0.6-1.5,0-2c0.6-0.6,1.5-0.6,2,0
			C272.8,175.4,272.8,176.3,272.2,177z"/>
		<path d="M276.3,173c-0.6,0.6-1.5,0.6-2,0c-0.6-0.6-0.6-1.5,0-2c0.6-0.6,1.5-0.6,2,0
			C276.8,171.4,276.8,172.3,276.3,173z"/>
		<path d="M280.3,168.9c-0.6,0.6-1.5,0.6-2,0c-0.6-0.6-0.6-1.5,0-2c0.6-0.6,1.5-0.6,2,0
			C280.8,167.4,280.8,168.3,280.3,168.9z"/>
	</g>
		<animateMotion
		path="M0, -25 0 0"
		begin="1s" 
		dur="2s"
		fill="freeze"/>
</g>

<g>
	<g>
		<rect id="svg-concept" x="496.7" y="211.4" transform="matrix(0.7071 -0.7071 0.7071 0.7071 -25.149 464.2574)" class="hard7" width="102.3" height="102.3"/>
	</g>
	<path class="hard4" d="M589.4,265.1c-1.5,1.5-3.9,1.5-5.4,0c-1.5-1.5-1.5-3.9,0-5.4c1.5-1.5,3.9-1.5,5.4,0
		C591,261.2,591,263.5,589.4,265.1z"/>
	<path class="hard4" d="M550.5,304c-1.5,1.5-3.9,1.5-5.4,0c-1.5-1.5-1.5-3.9,0-5.4c1.5-1.5,3.9-1.5,5.4,0
		C552,300.2,552,302.5,550.5,304z"/>
	
		<rect x="508.5" y="223.2" transform="matrix(0.7071 -0.7071 0.7071 0.7071 -25.1809 464.2441)" class="hard5" width="78.7" height="78.7"/>
	<path class="hard4" d="M511.7,265.2c-1.5,1.5-3.9,1.5-5.4,0c-1.5-1.5-1.5-3.9,0-5.4c1.5-1.5,3.9-1.5,5.4,0
		C513.2,261.2,513.2,263.7,511.7,265.2z"/>
	<path class="hard4" d="M550.6,226.2c-1.5,1.5-3.9,1.5-5.4,0c-1.5-1.5-1.5-3.9,0-5.4c1.5-1.5,3.9-1.5,5.4,0
		C552,222.2,552,224.7,550.6,226.2z"/>
	
	<g class="hard5">
		<rect x="532.1" y="246.7" transform="matrix(0.7071 -0.7071 0.7071 0.7071 -25.0734 464.2372)" width="31.4" height="31.4"/>
		<path d="M532.9,263.4c-0.6,0.6-1.5,0.6-2,0c-0.6-0.6-0.6-1.5,0-2c0.6-0.6,1.5-0.6,2,0
			C533.4,262,533.4,262.9,532.9,263.4z"/>
		<path d="M536.9,259.4c-0.6,0.6-1.5,0.6-2,0c-0.6-0.6-0.6-1.5,0-2c0.6-0.6,1.5-0.6,2,0S537.4,258.9,536.9,259.4z"/>
		<path  d="M540.9,255.4c-0.6,0.6-1.5,0.6-2,0c-0.6-0.6-0.6-1.5,0-2c0.6-0.6,1.5-0.6,2,0
			C541.4,254,541.4,254.9,540.9,255.4z"/>
		<path d="M544.9,251.3c-0.6,0.6-1.5,0.6-2,0c-0.6-0.6-0.6-1.5,0-2c0.6-0.6,1.5-0.6,2,0
			C545.4,250,545.5,250.9,544.9,251.3z"/>
		<path d="M548.9,247.3c-0.6,0.6-1.5,0.6-2,0c-0.6-0.6-0.6-1.5,0-2c0.6-0.6,1.5-0.6,2,0
			C549.5,246,549.5,246.7,548.9,247.3z"/>
		<path d="M536.9,267.5c-0.6,0.6-1.5,0.6-2,0c-0.6-0.6-0.6-1.5,0-2c0.6-0.6,1.5-0.6,2,0
			C537.4,266,537.4,266.9,536.9,267.5z"/>
		<path d="M540.9,263.5c-0.6,0.6-1.5,0.6-2,0c-0.6-0.6-0.6-1.5,0-2c0.6-0.6,1.5-0.6,2,0
			C541.5,262,541.5,262.9,540.9,263.5z"/>
		<path d="M544.9,259.4c-0.6,0.6-1.5,0.6-2,0c-0.6-0.6-0.6-1.5,0-2c0.6-0.6,1.5-0.6,2,0
			C545.5,258,545.5,258.9,544.9,259.4z"/>
		<path d="M548.9,255.4c-0.6,0.6-1.5,0.6-2,0c-0.6-0.6-0.6-1.5,0-2c0.6-0.6,1.5-0.6,2,0
			C549.5,254,549.5,254.9,548.9,255.4z"/>
		<path d="M552.9,251.3c-0.6,0.6-1.5,0.6-2,0c-0.6-0.6-0.6-1.5,0-2c0.6-0.6,1.5-0.6,2,0
			C553.5,250,553.5,250.9,552.9,251.3z"/>
		<path d="M540.9,271.5c-0.6,0.6-1.5,0.6-2,0c-0.6-0.6-0.6-1.5,0-2c0.6-0.6,1.5-0.6,2,0
			C541.5,270,541.5,270.9,540.9,271.5z"/>
		<path d="M544.9,267.5c-0.6,0.6-1.5,0.6-2,0c-0.6-0.6-0.6-1.5,0-2c0.6-0.6,1.5-0.6,2,0
			C545.5,266,545.5,266.9,544.9,267.5z"/>
		<path d="M548.9,263.5c-0.6,0.6-1.5,0.6-2,0c-0.6-0.6-0.6-1.5,0-2c0.6-0.6,1.5-0.6,2,0
			C549.5,262,549.5,262.9,548.9,263.5z"/>
		<path d="M552.9,259.5c-0.6,0.6-1.5,0.6-2,0c-0.6-0.6-0.6-1.5,0-2c0.6-0.6,1.5-0.6,2,0
			C553.5,258,553.5,258.9,552.9,259.5z"/>
		<path d="M556.9,255.4c-0.6,0.6-1.5,0.6-2,0c-0.6-0.6-0.6-1.5,0-2c0.6-0.6,1.5-0.6,2,0
			C557.6,254,557.6,254.9,556.9,255.4z"/>
		<path d="M544.9,275.5c-0.6,0.6-1.5,0.6-2,0c-0.6-0.6-0.6-1.5,0-2c0.6-0.6,1.5-0.6,2,0
			C545.5,274,545.5,274.9,544.9,275.5z"/>
		<path d="M548.9,271.5c-0.6,0.6-1.5,0.6-2,0c-0.6-0.6-0.6-1.5,0-2c0.6-0.6,1.5-0.6,2,0
			C549.5,270,549.5,270.9,548.9,271.5z"/>
		<path d="M552.9,267.5c-0.6,0.6-1.5,0.6-2,0c-0.6-0.6-0.6-1.5,0-2c0.6-0.6,1.5-0.6,2,0
			C553.5,266,553.5,266.9,552.9,267.5z"/>
		<path d="M556.9,263.5c-0.6,0.6-1.5,0.6-2,0c-0.6-0.6-0.6-1.5,0-2c0.6-0.6,1.5-0.6,2,0
			C557.6,262,557.6,262.9,556.9,263.5z"/>
		<path d="M560.9,259.5c-0.6,0.6-1.5,0.6-2,0c-0.6-0.6-0.6-1.5,0-2c0.6-0.6,1.5-0.6,2,0
			C561.6,258,561.6,258.9,560.9,259.5z"/>
		<path d="M548.9,279.5c-0.6,0.6-1.5,0.6-2,0c-0.6-0.6-0.6-1.5,0-2c0.6-0.6,1.5-0.6,2,0
			C549.5,278.1,549.5,278.9,548.9,279.5z"/>
		<path d="M552.9,275.5c-0.6,0.6-1.5,0.6-2,0c-0.6-0.6-0.6-1.5,0-2c0.6-0.6,1.5-0.6,2,0
			C553.5,274,553.5,274.9,552.9,275.5z"/>
		<path d="M556.9,271.5c-0.6,0.6-1.5,0.6-2,0c-0.6-0.6-0.6-1.5,0-2c0.6-0.6,1.5-0.6,2,0
			C557.6,270,557.6,270.9,556.9,271.5z"/>
		<path d="M561.1,267.5c-0.6,0.6-1.5,0.6-2,0c-0.6-0.6-0.6-1.5,0-2c0.6-0.6,1.5-0.6,2,0
			C561.6,266,561.6,266.9,561.1,267.5z"/>
		<path d="M565.1,263.5c-0.6,0.6-1.5,0.6-2,0c-0.6-0.6-0.6-1.5,0-2c0.6-0.6,1.5-0.6,2,0
			C565.6,262,565.6,262.9,565.1,263.5z"/>
	</g>
</g>
<g>
	
		<rect x="686.4" y="211.5" transform="matrix(0.7071 -0.7071 0.7071 0.7071 30.3083 598.4035)" id="svg-concept" class="hard0" width="102.3" height="102.3"/>
	<path class="hard4" d="M779.2,265.1c-1.5,1.5-3.9,1.5-5.4,0c-1.5-1.5-1.5-3.9,0-5.4c1.5-1.5,3.9-1.5,5.4,0
		C780.6,261.2,780.6,263.5,779.2,265.1z"/>
	<path class="hard4" d="M740.2,304c-1.5,1.5-3.9,1.5-5.4,0c-1.5-1.5-1.5-3.9,0-5.4c1.5-1.5,3.9-1.5,5.4,0
		C741.6,300.2,741.6,302.5,740.2,304z"/>
	
		<rect x="698.1" y="223" transform="matrix(0.7071 -0.7071 0.7071 0.7071 30.4756 598.3078)" class="hard5" width="78.7" height="78.7"/>
	<path class="hard4" d="M701.2,265.2c-1.5,1.5-3.9,1.5-5.4,0c-1.5-1.5-1.5-3.9,0-5.4c1.5-1.5,3.9-1.5,5.4,0
		C702.8,261.2,702.8,263.7,701.2,265.2z"/>
	<path class="hard4" d="M740.2,226.2c-1.5,1.5-3.9,1.5-5.4,0c-1.5-1.5-1.5-3.9,0-5.4c1.5-1.5,3.9-1.5,5.4,0
		C741.8,222.2,741.8,224.7,740.2,226.2z"/>
	<g>
		
			<rect x="721.7" y="246.6" transform="matrix(0.7071 -0.7071 0.7071 0.7071 30.4742 598.2557)" id="svg-concept" class="hard1" width="31.4" height="31.4"/>
		<path id="svg-concept" class="hard1" d="M722.5,263.4c-0.6,0.6-1.5,0.6-2,0c-0.6-0.6-0.6-1.5,0-2c0.6-0.6,1.5-0.6,2,0
			C723.1,262,723.1,262.9,722.5,263.4z"/>
		<path id="svg-concept" class="hard1" d="M726.5,259.4c-0.6,0.6-1.5,0.6-2,0c-0.6-0.6-0.6-1.5,0-2c0.6-0.6,1.5-0.6,2,0
			C727.1,258,727.1,258.9,726.5,259.4z"/>
		<path id="svg-concept" class="hard1" d="M730.5,255.4c-0.6,0.6-1.5,0.6-2,0c-0.6-0.6-0.6-1.5,0-2c0.6-0.6,1.5-0.6,2,0
			C731.1,254,731.1,254.9,730.5,255.4z"/>
		<path id="svg-concept" class="hard1" d="M734.5,251.3c-0.6,0.6-1.5,0.6-2,0c-0.6-0.6-0.6-1.5,0-2c0.6-0.6,1.5-0.6,2,0
			C735.1,250,735.1,250.9,734.5,251.3z"/>
		<path id="svg-concept" class="hard1" d="M738.5,247.3c-0.6,0.6-1.5,0.6-2,0c-0.6-0.6-0.6-1.5,0-2c0.6-0.6,1.5-0.6,2,0
			C739.1,246,739.1,246.7,738.5,247.3z"/>
		<path id="svg-concept" class="hard1" d="M726.5,267.5c-0.6,0.6-1.5,0.6-2,0c-0.6-0.6-0.6-1.5,0-2c0.6-0.6,1.5-0.6,2,0
			C727.1,266,727.1,266.9,726.5,267.5z"/>
		<path id="svg-concept" class="hard1" d="M730.5,263.5c-0.6,0.6-1.5,0.6-2,0c-0.6-0.6-0.6-1.5,0-2c0.6-0.6,1.5-0.6,2,0
			C731.1,262,731.1,262.9,730.5,263.5z"/>
		<path id="svg-concept" class="hard1" d="M734.5,259.4c-0.6,0.6-1.5,0.6-2,0c-0.6-0.6-0.6-1.5,0-2c0.6-0.6,1.5-0.6,2,0
			C735.1,258,735.1,258.9,734.5,259.4z"/>
		<path id="svg-concept" class="hard1" d="M738.5,255.4c-0.6,0.6-1.5,0.6-2,0c-0.6-0.6-0.6-1.5,0-2c0.6-0.6,1.5-0.6,2,0
			C739.1,254,739.1,254.9,738.5,255.4z"/>
		<path id="svg-concept" class="hard1" d="M742.7,251.3c-0.6,0.6-1.5,0.6-2,0c-0.6-0.6-0.6-1.5,0-2c0.6-0.6,1.5-0.6,2,0
			C743.1,250,743.1,250.9,742.7,251.3z"/>
		<path id="svg-concept" class="hard1" d="M730.5,271.5c-0.6,0.6-1.5,0.6-2,0c-0.6-0.6-0.6-1.5,0-2c0.6-0.6,1.5-0.6,2,0
			C731.1,270,731.1,270.9,730.5,271.5z"/>
		<path id="svg-concept" class="hard1" d="M734.5,267.5c-0.6,0.6-1.5,0.6-2,0c-0.6-0.6-0.6-1.5,0-2c0.6-0.6,1.5-0.6,2,0
			C735.1,266,735.1,266.9,734.5,267.5z"/>
		<path id="svg-concept" class="hard1" d="M738.7,263.5c-0.6,0.6-1.5,0.6-2,0c-0.6-0.6-0.6-1.5,0-2c0.6-0.6,1.5-0.6,2,0
			C739.1,262,739.1,262.9,738.7,263.5z"/>
		<path id="svg-concept" class="hard1" d="M742.7,259.5c-0.6,0.6-1.5,0.6-2,0c-0.6-0.6-0.6-1.5,0-2c0.6-0.6,1.5-0.6,2,0
			C743.1,258,743.1,258.9,742.7,259.5z"/>
		<path id="svg-concept" class="hard1" d="M746.7,255.4c-0.6,0.6-1.5,0.6-2,0c-0.6-0.6-0.6-1.5,0-2c0.6-0.6,1.5-0.6,2,0
			C747.1,254,747.1,254.9,746.7,255.4z"/>
		<path id="svg-concept" class="hard1" d="M734.7,275.5c-0.6,0.6-1.5,0.6-2,0c-0.6-0.6-0.6-1.5,0-2c0.6-0.6,1.5-0.6,2,0
			C735.1,274,735.1,274.9,734.7,275.5z"/>
		<path id="svg-concept" class="hard1" d="M738.7,271.5c-0.6,0.6-1.5,0.6-2,0c-0.6-0.6-0.6-1.5,0-2c0.6-0.6,1.5-0.6,2,0
			C739.1,270,739.1,270.9,738.7,271.5z"/>
		<path id="svg-concept" class="hard1" d="M742.7,267.5c-0.6,0.6-1.5,0.6-2,0c-0.6-0.6-0.6-1.5,0-2c0.6-0.6,1.5-0.6,2,0
			C743.1,266,743.1,266.9,742.7,267.5z"/>
		<path id="svg-concept" class="hard1" d="M746.7,263.5c-0.6,0.6-1.5,0.6-2,0c-0.6-0.6-0.6-1.5,0-2c0.6-0.6,1.5-0.6,2,0
			C747.1,262,747.1,262.9,746.7,263.5z"/>
		<path id="svg-concept" class="hard1" d="M750.7,259.5c-0.6,0.6-1.5,0.6-2,0c-0.6-0.6-0.6-1.5,0-2c0.6-0.6,1.5-0.6,2,0
			C751.3,258,751.3,258.9,750.7,259.5z"/>
		<path id="svg-concept" class="hard1" d="M738.7,279.5c-0.6,0.6-1.5,0.6-2,0c-0.6-0.6-0.6-1.5,0-2c0.6-0.6,1.5-0.6,2,0
			C739.1,278.1,739.1,278.9,738.7,279.5z"/>
		<path id="svg-concept" class="hard1" d="M742.7,275.5c-0.6,0.6-1.5,0.6-2,0c-0.6-0.6-0.6-1.5,0-2c0.6-0.6,1.5-0.6,2,0
			C743.1,274,743.1,274.9,742.7,275.5z"/>
		<path id="svg-concept" class="hard1" d="M746.7,271.5c-0.6,0.6-1.5,0.6-2,0c-0.6-0.6-0.6-1.5,0-2c0.6-0.6,1.5-0.6,2,0
			C747.3,270,747.3,270.9,746.7,271.5z"/>
		<path id="svg-concept" class="hard1" d="M750.7,267.5c-0.6,0.6-1.5,0.6-2,0c-0.6-0.6-0.6-1.5,0-2c0.6-0.6,1.5-0.6,2,0
			C751.3,266,751.3,266.9,750.7,267.5z"/>
		<path id="svg-concept" class="hard1" d="M754.7,263.5c-0.6,0.6-1.5,0.6-2,0c-0.6-0.6-0.6-1.5,0-2c0.6-0.6,1.5-0.6,2,0
			C755.3,262,755.3,262.9,754.7,263.5z"/>
	</g>
</g>

<g>
	
	<g>
	<rect id="svg-concept" x="591.3" y="116.7" transform="matrix(0.7071 -0.7071 0.7071 0.7071 69.4703 503.4321)" class="hard7" width="102.3" height="102.3"/>
	</g>
	<path class="hard4" d="M684,170.5c-1.5,1.5-3.9,1.5-5.4,0c-1.5-1.5-1.5-3.9,0-5.4c1.5-1.5,3.9-1.5,5.4,0
		C685.5,166.5,685.5,168.9,684,170.5z"/>
	<path class="hard4" d="M645,209.5c-1.5,1.5-3.9,1.5-5.4,0c-1.5-1.5-1.5-3.9,0-5.4c1.5-1.5,3.9-1.5,5.4,0
		C646.6,205.5,646.6,207.9,645,209.5z"/>
	
		<rect x="603" y="128.6" transform="matrix(0.7071 -0.7071 0.7071 0.7071 69.3481 503.4189)" class="hard5" width="78.7" height="78.7"/>
	<path class="hard4" d="M606.2,170.5c-1.5,1.5-3.9,1.5-5.4,0c-1.5-1.5-1.5-3.9,0-5.4c1.5-1.5,3.9-1.5,5.4,0
		C607.6,166.6,607.6,169.1,606.2,170.5z"/>
	<path class="hard4" d="M645.2,131.5c-1.5,1.5-3.9,1.5-5.4,0c-1.5-1.5-1.5-3.9,0-5.4s3.9-1.5,5.4,0
		C646.6,127.7,646.6,130.1,645.2,131.5z"/>
	
	<g class="hard5">
		<rect x="626.7" y="152.2" transform="matrix(0.7071 -0.7071 0.7071 0.7071 69.4557 503.4117)" width="31.4" height="31.4"/>
		<path d="M627.3,168.8c-0.6,0.6-1.5,0.6-2,0c-0.6-0.6-0.6-1.5,0-2c0.6-0.6,1.5-0.6,2,0
			C627.9,167.4,627.9,168.3,627.3,168.8z"/>
		<path d="M631.5,164.8c-0.6,0.6-1.5,0.6-2,0c-0.6-0.6-0.6-1.5,0-2c0.6-0.6,1.5-0.6,2,0
			C631.9,163.3,631.9,164.2,631.5,164.8z"/>
		<path d="M635.5,160.8c-0.6,0.6-1.5,0.6-2,0c-0.6-0.6-0.6-1.5,0-2c0.6-0.6,1.5-0.6,2,0
			C635.9,159.2,635.9,160.2,635.5,160.8z"/>
		<path d="M639.5,156.8c-0.6,0.6-1.5,0.6-2,0c-0.6-0.6-0.6-1.5,0-2c0.6-0.6,1.5-0.6,2,0
			C639.9,155.2,639.9,156.2,639.5,156.8z"/>
		<path d="M643.5,152.8c-0.6,0.6-1.5,0.6-2,0c-0.6-0.6-0.6-1.5,0-2c0.6-0.6,1.5-0.6,2,0
			C644,151.2,644,152.2,643.5,152.8z"/>
		<path d="M631.5,172.8c-0.6,0.6-1.5,0.6-2,0c-0.6-0.6-0.6-1.5,0-2c0.6-0.6,1.5-0.6,2,0
			C631.9,171.4,631.9,172.3,631.5,172.8z"/>
		<path d="M635.5,168.8c-0.6,0.6-1.5,0.6-2,0c-0.6-0.6-0.6-1.5,0-2c0.6-0.6,1.5-0.6,2,0
			C635.9,167.4,635.9,168.3,635.5,168.8z"/>
		<path d="M639.5,164.8c-0.6,0.6-1.5,0.6-2,0c-0.6-0.6-0.6-1.5,0-2c0.6-0.6,1.5-0.6,2,0
			C639.9,163.4,639.9,164.3,639.5,164.8z"/>
		<path d="M643.5,160.8c-0.6,0.6-1.5,0.6-2,0c-0.6-0.6-0.6-1.5,0-2c0.6-0.6,1.5-0.6,2,0
			C644.1,159.2,644.1,160.2,643.5,160.8z"/>
		<path d="M647.5,156.8c-0.6,0.6-1.5,0.6-2,0c-0.6-0.6-0.6-1.5,0-2c0.6-0.6,1.5-0.6,2,0
			C648.1,155.2,648.1,156.2,647.5,156.8z"/>
		<path d="M635.5,177c-0.6,0.6-1.5,0.6-2,0c-0.6-0.6-0.6-1.5,0-2c0.6-0.6,1.5-0.6,2,0
			C635.9,175.4,635.9,176.3,635.5,177z"/>
		<path d="M639.5,172.8c-0.6,0.6-1.5,0.6-2,0c-0.6-0.6-0.6-1.5,0-2c0.6-0.6,1.5-0.6,2,0
			C640.1,171.4,640.1,172.3,639.5,172.8z"/>
		<path d="M643.5,168.8c-0.6,0.6-1.5,0.6-2,0c-0.6-0.6-0.6-1.5,0-2c0.6-0.6,1.5-0.6,2,0
			C644.1,167.4,644.1,168.3,643.5,168.8z"/>
		<path d="M647.5,164.8c-0.6,0.6-1.5,0.6-2,0c-0.6-0.6-0.6-1.5,0-2c0.6-0.6,1.5-0.6,2,0
			C648.1,163.4,648.1,164.3,647.5,164.8z"/>
		<path d="M651.5,160.8c-0.6,0.6-1.5,0.6-2,0c-0.6-0.6-0.6-1.5,0-2c0.6-0.6,1.5-0.6,2,0
			C652.1,159.4,652.1,160.3,651.5,160.8z"/>
		<path d="M639.5,181c-0.6,0.6-1.5,0.6-2,0c-0.6-0.6-0.6-1.5,0-2c0.6-0.6,1.5-0.6,2,0
			C640.1,179.4,640.1,180.3,639.5,181z"/>
		<path d="M643.5,177c-0.6,0.6-1.5,0.6-2,0c-0.6-0.6-0.6-1.5,0-2c0.6-0.6,1.5-0.6,2,0
			C644.1,175.4,644.1,176.3,643.5,177z"/>
		<path d="M647.5,173c-0.6,0.6-1.5,0.6-2,0c-0.6-0.6-0.6-1.5,0-2c0.6-0.6,1.5-0.6,2,0
			C648.1,171.4,648.1,172.3,647.5,173z"/>
		<path d="M651.5,168.8c-0.6,0.6-1.5,0.6-2,0c-0.6-0.6-0.6-1.5,0-2c0.6-0.6,1.5-0.6,2,0
			C652.1,167.4,652.1,168.3,651.5,168.8z"/>
		<path d="M655.5,164.8c-0.6,0.6-1.5,0.6-2,0c-0.6-0.6-0.6-1.5,0-2c0.6-0.6,1.5-0.6,2,0
			C656.1,163.4,656.1,164.3,655.5,164.8z"/>
		<path d="M643.5,185c-0.6,0.6-1.5,0.6-2,0c-0.6-0.6-0.6-1.5,0-2c0.6-0.6,1.5-0.6,2,0
			C644.1,183.4,644.1,184.4,643.5,185z"/>
		<path d="M647.5,181c-0.6,0.6-1.5,0.6-2,0c-0.6-0.6-0.6-1.5,0-2c0.6-0.6,1.5-0.6,2,0
			C648.1,179.4,648.1,180.3,647.5,181z"/>
		<path d="M651.5,177c-0.6,0.6-1.5,0.6-2,0c-0.6-0.6-0.6-1.5,0-2c0.6-0.6,1.5-0.6,2,0
			C652.1,175.4,652.1,176.3,651.5,177z"/>
		<path d="M655.5,173c-0.6,0.6-1.5,0.6-2,0c-0.6-0.6-0.6-1.5,0-2c0.6-0.6,1.5-0.6,2,0
			C656.1,171.4,656.1,172.3,655.5,173z"/>
		<path d="M659.5,168.9c-0.6,0.6-1.5,0.6-2,0c-0.6-0.6-0.6-1.5,0-2c0.6-0.6,1.5-0.6,2,0
			C660.1,167.4,660.1,168.3,659.5,168.9z"/>
	</g>
		<animateMotion
		path="M0, -25 0 0"
		begin="1s" 
		dur="2s"
		fill="freeze"/>
</g>
<g>
	
		<rect x="307.1" y="22.3" transform="matrix(0.7071 -0.7071 0.7071 0.7071 53.02 274.8367)" id="svg-concept" class="hard0" width="102.3" height="102.3"/>
	<path class="hard6" d="M399.8,75.9c-1.5,1.5-3.9,1.5-5.4,0c-1.5-1.5-1.5-3.9,0-5.4c1.5-1.5,3.9-1.5,5.4,0
		C401.2,72.1,401.2,74.5,399.8,75.9z"/>
	<path class="hard6" d="M360.9,114.9c-1.5,1.5-3.9,1.5-5.4,0c-1.5-1.5-1.5-3.9,0-5.4c1.5-1.5,3.9-1.5,5.4,0
		C362.4,111,362.4,113.3,360.9,114.9z"/>
	
		<rect x="318.8" y="34" transform="matrix(0.7071 -0.7071 0.7071 0.7071 53.0332 274.7146)" class="hard5" width="78.7" height="78.7"/>
	<path class="hard6" d="M321.9,76.1c-1.5,1.5-3.9,1.5-5.4,0s-1.5-3.9,0-5.4s3.9-1.5,5.4,0C323.4,72.1,323.4,74.5,321.9,76.1z"/>
	<path class="hard6" d="M360.9,37.1c-1.5,1.5-3.9,1.5-5.4,0c-1.5-1.5-1.5-3.9,0-5.4c1.5-1.5,3.9-1.5,5.4,0
		C362.4,33.1,362.4,35.6,360.9,37.1z"/>
	<g>
		
			<rect x="342.4" y="57.6" transform="matrix(0.7071 -0.7071 0.7071 0.7071 53.0318 274.6625)" id="svg-concept" class="hard1" width="31.4" height="31.4"/>
		<path id="svg-concept" class="hard1" d="M343.2,74.4c-0.6,0.6-1.5,0.6-2,0c-0.6-0.6-0.6-1.5,0-2c0.6-0.6,1.5-0.6,2,0
			C343.8,72.8,343.8,73.8,343.2,74.4z"/>
		<path id="svg-concept" class="hard1" d="M347.2,70.4c-0.6,0.6-1.5,0.6-2,0c-0.6-0.6-0.6-1.5,0-2c0.6-0.6,1.5-0.6,2,0
			C347.8,68.8,347.8,69.8,347.2,70.4z"/>
		<path id="svg-concept" class="hard1" d="M351.2,66.2c-0.6,0.6-1.5,0.6-2,0c-0.6-0.6-0.6-1.5,0-2c0.6-0.6,1.5-0.6,2,0
			C351.8,64.8,351.8,65.8,351.2,66.2z"/>
		<path id="svg-concept" class="hard1" d="M355.2,62.2c-0.6,0.6-1.5,0.6-2,0c-0.6-0.6-0.6-1.5,0-2c0.6-0.6,1.5-0.6,2,0
			C355.8,60.8,355.8,61.8,355.2,62.2z"/>
		<path id="svg-concept" class="hard1" d="M359.2,58.2c-0.6,0.6-1.5,0.6-2,0c-0.6-0.6-0.6-1.5,0-2c0.6-0.6,1.5-0.6,2,0
			C359.8,56.8,359.8,57.7,359.2,58.2z"/>
		<path id="svg-concept" class="hard1" d="M347.2,78.4c-0.6,0.6-1.5,0.6-2,0c-0.6-0.6-0.6-1.5,0-2c0.6-0.6,1.5-0.6,2,0
			C347.8,76.8,347.8,77.8,347.2,78.4z"/>
		<path id="svg-concept" class="hard1" d="M351.2,74.4c-0.6,0.6-1.5,0.6-2,0c-0.6-0.6-0.6-1.5,0-2c0.6-0.6,1.5-0.6,2,0
			C351.8,72.8,351.8,73.8,351.2,74.4z"/>
		<path id="svg-concept" class="hard1" d="M355.3,70.4c-0.6,0.6-1.5,0.6-2,0c-0.6-0.6-0.6-1.5,0-2c0.6-0.6,1.5-0.6,2,0
			C355.8,68.8,355.8,69.8,355.3,70.4z"/>
		<path id="svg-concept" class="hard1" d="M359.3,66.4c-0.6,0.6-1.5,0.6-2,0c-0.6-0.6-0.6-1.5,0-2c0.6-0.6,1.5-0.6,2,0
			C359.8,64.8,359.8,65.8,359.3,66.4z"/>
		<path id="svg-concept" class="hard1" d="M363.3,62.2c-0.6,0.6-1.5,0.6-2,0c-0.6-0.6-0.6-1.5,0-2c0.6-0.6,1.5-0.6,2,0
			C363.8,60.8,363.8,61.8,363.3,62.2z"/>
		<path id="svg-concept" class="hard1" d="M351.3,82.4c-0.6,0.6-1.5,0.6-2,0c-0.6-0.6-0.6-1.5,0-2c0.6-0.6,1.5-0.6,2,0
			C351.8,80.9,351.8,81.8,351.3,82.4z"/>
		<path id="svg-concept" class="hard1" d="M355.3,78.4c-0.6,0.6-1.5,0.6-2,0c-0.6-0.6-0.6-1.5,0-2c0.6-0.6,1.5-0.6,2,0
			C355.8,76.8,355.8,77.8,355.3,78.4z"/>
		<path id="svg-concept" class="hard1" d="M359.3,74.4c-0.6,0.6-1.5,0.6-2,0c-0.6-0.6-0.6-1.5,0-2c0.6-0.6,1.5-0.6,2,0
			C359.8,72.8,359.8,73.8,359.3,74.4z"/>
		<path id="svg-concept" class="hard1" d="M363.3,70.4c-0.6,0.6-1.5,0.6-2,0c-0.6-0.6-0.6-1.5,0-2c0.6-0.6,1.5-0.6,2,0
			C363.8,68.8,363.8,69.8,363.3,70.4z"/>
		<path id="svg-concept" class="hard1" d="M367.3,66.4c-0.6,0.6-1.5,0.6-2,0c-0.6-0.6-0.6-1.5,0-2c0.6-0.6,1.5-0.6,2,0C367.8,64.8,368,65.8,367.3,66.4z
			"/>
		<path id="svg-concept" class="hard1" d="M355.3,86.4c-0.6,0.6-1.5,0.6-2,0c-0.6-0.6-0.6-1.5,0-2c0.6-0.6,1.5-0.6,2,0C355.8,85,355.8,85.8,355.3,86.4z
			"/>
		<path id="svg-concept" class="hard1" d="M359.3,82.4c-0.6,0.6-1.5,0.6-2,0c-0.6-0.6-0.6-1.5,0-2c0.6-0.6,1.5-0.6,2,0
			C359.8,80.9,359.8,81.8,359.3,82.4z"/>
		<path id="svg-concept" class="hard1" d="M363.3,78.4c-0.6,0.6-1.5,0.6-2,0c-0.6-0.6-0.6-1.5,0-2c0.6-0.6,1.5-0.6,2,0C364,76.8,364,77.8,363.3,78.4z"
			/>
		<path id="svg-concept" class="hard1" d="M367.3,74.4c-0.6,0.6-1.5,0.6-2,0c-0.6-0.6-0.6-1.5,0-2c0.6-0.6,1.5-0.6,2,0C368,72.8,368,73.8,367.3,74.4z"
			/>
		<path id="svg-concept" class="hard1" d="M371.3,70.4c-0.6,0.6-1.5,0.6-2,0c-0.6-0.6-0.6-1.5,0-2c0.6-0.6,1.5-0.6,2,0C372,68.8,372,69.8,371.3,70.4z"
			/>
		<path id="svg-concept" class="hard1" d="M359.3,90.4c-0.6,0.6-1.5,0.6-2,0c-0.6-0.6-0.6-1.5,0-2c0.6-0.6,1.5-0.6,2,0C359.9,89,359.9,89.9,359.3,90.4z
			"/>
		<path id="svg-concept" class="hard1" d="M363.3,86.4c-0.6,0.6-1.5,0.6-2,0c-0.6-0.6-0.6-1.5,0-2c0.6-0.6,1.5-0.6,2,0C364,85,364,85.9,363.3,86.4z"/>
		<path id="svg-concept" class="hard1" d="M367.3,82.4c-0.6,0.6-1.5,0.6-2,0c-0.6-0.6-0.6-1.5,0-2c0.6-0.6,1.5-0.6,2,0C368,81,368,81.8,367.3,82.4z"/>
		<path id="svg-concept" class="hard1" d="M371.3,78.4c-0.6,0.6-1.5,0.6-2,0c-0.6-0.6-0.6-1.5,0-2c0.6-0.6,1.5-0.6,2,0C372,76.8,372,77.8,371.3,78.4z"
			/>
		<path id="svg-concept" class="hard1" d="M375.4,74.4c-0.6,0.6-1.5,0.6-2,0c-0.6-0.6-0.6-1.5,0-2c0.6-0.6,1.5-0.6,2,0C376,72.8,376,73.8,375.4,74.4z"
			/>
	</g>
</g>

<g>
	<g>
	<rect id="svg-concept" x="496.7" y="22.2" transform="matrix(0.7071 -0.7071 0.7071 0.7071 108.5674 408.8554)" class="hard7" width="102.3" height="102.3"/>
	</g>
	<path class="hard4" d="M589.4,75.9c-1.5,1.5-3.9,1.5-5.4,0c-1.5-1.5-1.5-3.9,0-5.4c1.5-1.5,3.9-1.5,5.4,0S591,74.5,589.4,75.9z"/>
	<path class="hard4" d="M550.5,114.9c-1.5,1.5-3.9,1.5-5.4,0s-1.5-3.9,0-5.4c1.5-1.5,3.9-1.5,5.4,0C552,111,552,113.3,550.5,114.9z"/>
	
		<rect x="508.4" y="34.1" transform="matrix(0.7071 -0.7071 0.7071 0.7071 108.5356 408.8422)" class="hard5" width="78.7" height="78.7"/>
	<path class="hard4" d="M511.7,76.1c-1.5,1.5-3.9,1.5-5.4,0s-1.5-3.9,0-5.4s3.9-1.5,5.4,0C513.2,72.1,513.2,74.5,511.7,76.1z"/>
	<path class="hard4" d="M550.6,37.1c-1.5,1.5-3.9,1.5-5.4,0s-1.5-3.9,0-5.4c1.5-1.5,3.9-1.5,5.4,0C552,33.1,552,35.6,550.6,37.1z"/>

	<g class="hard5">
		<rect x="532.1" y="57.6" transform="matrix(0.7071 -0.7071 0.7071 0.7071 108.6433 408.8351)" width="31.4" height="31.4"/>
		<path d="M532.9,74.4c-0.6,0.6-1.5,0.6-2,0c-0.6-0.6-0.6-1.5,0-2c0.6-0.6,1.5-0.6,2,0
			C533.4,72.8,533.4,73.8,532.9,74.4z"/>
		<path d="M536.9,70.4c-0.6,0.6-1.5,0.6-2,0c-0.6-0.6-0.6-1.5,0-2c0.6-0.6,1.5-0.6,2,0
			C537.4,68.8,537.4,69.8,536.9,70.4z"/>
		<path d="M540.9,66.2c-0.6,0.6-1.5,0.6-2,0c-0.6-0.6-0.6-1.5,0-2c0.6-0.6,1.5-0.6,2,0
			C541.4,64.8,541.4,65.8,540.9,66.2z"/>
		<path d="M544.9,62.2c-0.6,0.6-1.5,0.6-2,0c-0.6-0.6-0.6-1.5,0-2c0.6-0.6,1.5-0.6,2,0
			C545.4,60.8,545.5,61.8,544.9,62.2z"/>
		<path d="M548.9,58.2c-0.6,0.6-1.5,0.6-2,0c-0.6-0.6-0.6-1.5,0-2c0.6-0.6,1.5-0.6,2,0
			C549.5,56.8,549.5,57.7,548.9,58.2z"/>
		<path d="M536.9,78.4c-0.6,0.6-1.5,0.6-2,0c-0.6-0.6-0.6-1.5,0-2c0.6-0.6,1.5-0.6,2,0
			C537.4,76.8,537.4,77.8,536.9,78.4z"/>
		<path d="M540.9,74.4c-0.6,0.6-1.5,0.6-2,0c-0.6-0.6-0.6-1.5,0-2c0.6-0.6,1.5-0.6,2,0
			C541.5,72.8,541.5,73.8,540.9,74.4z"/>
		<path d="M544.9,70.4c-0.6,0.6-1.5,0.6-2,0c-0.6-0.6-0.6-1.5,0-2c0.6-0.6,1.5-0.6,2,0
			C545.5,68.8,545.5,69.8,544.9,70.4z"/>
		<path d="M548.9,66.4c-0.6,0.6-1.5,0.6-2,0c-0.6-0.6-0.6-1.5,0-2c0.6-0.6,1.5-0.6,2,0
			C549.5,64.8,549.5,65.8,548.9,66.4z"/>
		<path d="M552.9,62.2c-0.6,0.6-1.5,0.6-2,0c-0.6-0.6-0.6-1.5,0-2c0.6-0.6,1.5-0.6,2,0
			C553.5,60.8,553.5,61.8,552.9,62.2z"/>
		<path d="M540.9,82.4c-0.6,0.6-1.5,0.6-2,0c-0.6-0.6-0.6-1.5,0-2c0.6-0.6,1.5-0.6,2,0
			C541.5,80.9,541.5,81.8,540.9,82.4z"/>
		<path d="M544.9,78.4c-0.6,0.6-1.5,0.6-2,0c-0.6-0.6-0.6-1.5,0-2c0.6-0.6,1.5-0.6,2,0
			C545.5,76.8,545.5,77.8,544.9,78.4z"/>
		<path d="M548.9,74.4c-0.6,0.6-1.5,0.6-2,0c-0.6-0.6-0.6-1.5,0-2c0.6-0.6,1.5-0.6,2,0
			C549.5,72.8,549.5,73.8,548.9,74.4z"/>
		<path d="M552.9,70.4c-0.6,0.6-1.5,0.6-2,0c-0.6-0.6-0.6-1.5,0-2c0.6-0.6,1.5-0.6,2,0
			C553.5,68.8,553.5,69.8,552.9,70.4z"/>
		<path d="M556.9,66.4c-0.6,0.6-1.5,0.6-2,0c-0.6-0.6-0.6-1.5,0-2c0.6-0.6,1.5-0.6,2,0
			C557.6,64.8,557.6,65.8,556.9,66.4z"/>
		<path d="M544.9,86.4c-0.6,0.6-1.5,0.6-2,0c-0.6-0.6-0.6-1.5,0-2c0.6-0.6,1.5-0.6,2,0C545.5,85,545.5,85.8,544.9,86.4z
			"/>
		<path d="M548.9,82.4c-0.6,0.6-1.5,0.6-2,0c-0.6-0.6-0.6-1.5,0-2c0.6-0.6,1.5-0.6,2,0
			C549.5,80.9,549.5,81.8,548.9,82.4z"/>
		<path d="M552.9,78.4c-0.6,0.6-1.5,0.6-2,0c-0.6-0.6-0.6-1.5,0-2c0.6-0.6,1.5-0.6,2,0
			C553.5,76.8,553.5,77.8,552.9,78.4z"/>
		<path d="M556.9,74.4c-0.6,0.6-1.5,0.6-2,0c-0.6-0.6-0.6-1.5,0-2c0.6-0.6,1.5-0.6,2,0
			C557.6,72.8,557.6,73.8,556.9,74.4z"/>
		<path d="M560.9,70.4c-0.6,0.6-1.5,0.6-2,0c-0.6-0.6-0.6-1.5,0-2c0.6-0.6,1.5-0.6,2,0
			C561.6,68.8,561.6,69.8,560.9,70.4z"/>
		<path d="M548.9,90.4c-0.6,0.6-1.5,0.6-2,0c-0.6-0.6-0.6-1.5,0-2c0.6-0.6,1.5-0.6,2,0C549.5,89,549.5,89.9,548.9,90.4z
			"/>
		<path d="M552.9,86.4c-0.6,0.6-1.5,0.6-2,0c-0.6-0.6-0.6-1.5,0-2c0.6-0.6,1.5-0.6,2,0C553.5,85,553.5,85.9,552.9,86.4z
			"/>
		<path d="M556.9,82.4c-0.6,0.6-1.5,0.6-2,0c-0.6-0.6-0.6-1.5,0-2c0.6-0.6,1.5-0.6,2,0C557.6,81,557.6,81.8,556.9,82.4z
			"/>
		<path d="M561.1,78.4c-0.6,0.6-1.5,0.6-2,0c-0.6-0.6-0.6-1.5,0-2c0.6-0.6,1.5-0.6,2,0
			C561.6,76.8,561.6,77.8,561.1,78.4z"/>
		<path d="M565.1,74.4c-0.6,0.6-1.5,0.6-2,0c-0.6-0.6-0.6-1.5,0-2c0.6-0.6,1.5-0.6,2,0
			C565.6,72.8,565.6,73.8,565.1,74.4z"/>
	</g>
</g>
<g>
	<g>
	<rect id="svg-concept" x="401.5" y="116.8" transform="matrix(0.7071 -0.7071 0.7071 0.7071 13.859 369.2595)" class="hard7" width="102.3" height="102.3"/>
	</g>
	<path class="hard4" d="M494.4,170.5c-1.5,1.5-3.9,1.5-5.4,0c-1.5-1.5-1.5-3.9,0-5.4c1.5-1.5,3.9-1.5,5.4,0
		C495.8,166.5,495.8,168.9,494.4,170.5z"/>
	<path class="hard4" d="M455.4,209.5c-1.5,1.5-3.9,1.5-5.4,0c-1.5-1.5-1.5-3.9,0-5.4c1.5-1.5,3.9-1.5,5.4,0
		C456.8,205.5,457,207.9,455.4,209.5z"/>
	
		<rect x="413.3" y="128.6" transform="matrix(0.7071 -0.7071 0.7071 0.7071 13.8457 369.2914)" class="hard5" width="78.7" height="78.7"/>
	<path class="hard4" d="M416.5,170.5c-1.5,1.5-3.9,1.5-5.4,0c-1.5-1.5-1.5-3.9,0-5.4c1.5-1.5,3.9-1.5,5.4,0
		C418,166.6,418,169.1,416.5,170.5z"/>
	<path class="hard4" d="M455.4,131.5c-1.5,1.5-3.9,1.5-5.4,0c-1.5-1.5-1.5-3.9,0-5.4s3.9-1.5,5.4,0S457,130.1,455.4,131.5z"/>
	
	<g class="hard5">	
		<rect x="437.1" y="152.1" transform="matrix(0.7071 -0.7071 0.7071 0.7071 13.9533 369.3745)" width="31.4" height="31.4"/>
		<path d="M437.7,168.8c-0.6,0.6-1.5,0.6-2,0c-0.6-0.6-0.6-1.5,0-2c0.6-0.6,1.5-0.6,2,0
			C438.3,167.4,438.3,168.3,437.7,168.8z"/>
		<path d="M441.7,164.8c-0.6,0.6-1.5,0.6-2,0c-0.6-0.6-0.6-1.5,0-2c0.6-0.6,1.5-0.6,2,0
			C442.3,163.3,442.3,164.2,441.7,164.8z"/>
		<path d="M445.7,160.8c-0.6,0.6-1.5,0.6-2,0c-0.6-0.6-0.6-1.5,0-2c0.6-0.6,1.5-0.6,2,0
			C446.4,159.2,446.4,160.2,445.7,160.8z"/>
		<path d="M449.7,156.8c-0.6,0.6-1.5,0.6-2,0c-0.6-0.6-0.6-1.5,0-2c0.6-0.6,1.5-0.6,2,0
			C450.4,155.2,450.4,156.2,449.7,156.8z"/>
		<path d="M453.7,152.8c-0.6,0.6-1.5,0.6-2,0c-0.6-0.6-0.6-1.5,0-2c0.6-0.6,1.5-0.6,2,0
			C454.4,151.2,454.4,152.2,453.7,152.8z"/>
		<path d="M441.7,172.8c-0.6,0.6-1.5,0.6-2,0c-0.6-0.6-0.6-1.5,0-2c0.6-0.6,1.5-0.6,2,0
			C442.3,171.4,442.3,172.3,441.7,172.8z"/>
		<path d="M445.7,168.8c-0.6,0.6-1.5,0.6-2,0c-0.6-0.6-0.6-1.5,0-2c0.6-0.6,1.5-0.6,2,0
			C446.4,167.4,446.4,168.3,445.7,168.8z"/>
		<path d="M449.7,164.8c-0.6,0.6-1.5,0.6-2,0c-0.6-0.6-0.6-1.5,0-2c0.6-0.6,1.5-0.6,2,0
			C450.4,163.4,450.4,164.3,449.7,164.8z"/>
		<path d="M453.7,160.8c-0.6,0.6-1.5,0.6-2,0c-0.6-0.6-0.6-1.5,0-2c0.6-0.6,1.5-0.6,2,0
			C454.4,159.2,454.4,160.2,453.7,160.8z"/>
		<path d="M457.9,156.8c-0.6,0.6-1.5,0.6-2,0c-0.6-0.6-0.6-1.5,0-2c0.6-0.6,1.5-0.6,2,0
			C458.4,155.2,458.4,156.2,457.9,156.8z"/>
		<path d="M445.7,177c-0.6,0.6-1.5,0.6-2,0c-0.6-0.6-0.6-1.5,0-2c0.6-0.6,1.5-0.6,2,0
			C446.4,175.4,446.4,176.3,445.7,177z"/>
		<path d="M449.7,172.8c-0.6,0.6-1.5,0.6-2,0c-0.6-0.6-0.6-1.5,0-2c0.6-0.6,1.5-0.6,2,0
			C450.4,171.4,450.4,172.3,449.7,172.8z"/>
		<path d="M453.9,168.8c-0.6,0.6-1.5,0.6-2,0c-0.6-0.6-0.6-1.5,0-2c0.6-0.6,1.5-0.6,2,0S454.4,168.3,453.9,168.8z"/>
		<path d="M457.9,164.8c-0.6,0.6-1.5,0.6-2,0c-0.6-0.6-0.6-1.5,0-2c0.6-0.6,1.5-0.6,2,0
			C458.4,163.4,458.4,164.3,457.9,164.8z"/>
		<path d="M461.9,160.8c-0.6,0.6-1.5,0.6-2,0c-0.6-0.6-0.6-1.5,0-2c0.6-0.6,1.5-0.6,2,0
			C462.4,159.4,462.4,160.3,461.9,160.8z"/>
		<path d="M449.9,181c-0.6,0.6-1.5,0.6-2,0c-0.6-0.6-0.6-1.5,0-2c0.6-0.6,1.5-0.6,2,0
			C450.4,179.4,450.4,180.3,449.9,181z"/>
		<path d="M453.9,177c-0.6,0.6-1.5,0.6-2,0c-0.6-0.6-0.6-1.5,0-2c0.6-0.6,1.5-0.6,2,0
			C454.4,175.4,454.4,176.3,453.9,177z"/>
		<path d="M457.9,173c-0.6,0.6-1.5,0.6-2,0c-0.6-0.6-0.6-1.5,0-2c0.6-0.6,1.5-0.6,2,0
			C458.4,171.4,458.4,172.3,457.9,173z"/>
		<path d="M461.9,168.8c-0.6,0.6-1.5,0.6-2,0c-0.6-0.6-0.6-1.5,0-2c0.6-0.6,1.5-0.6,2,0S462.4,168.3,461.9,168.8z"/>
		<path d="M465.9,164.8c-0.6,0.6-1.5,0.6-2,0c-0.6-0.6-0.6-1.5,0-2c0.6-0.6,1.5-0.6,2,0
			C466.5,163.4,466.5,164.3,465.9,164.8z"/>
		<path d="M453.9,185c-0.6,0.6-1.5,0.6-2,0c-0.6-0.6-0.6-1.5,0-2c0.6-0.6,1.5-0.6,2,0
			C454.4,183.4,454.4,184.4,453.9,185z"/>
		<path d="M457.9,181c-0.6,0.6-1.5,0.6-2,0c-0.6-0.6-0.6-1.5,0-2c0.6-0.6,1.5-0.6,2,0
			C458.4,179.4,458.5,180.3,457.9,181z"/>
		<path d="M461.9,177c-0.6,0.6-1.5,0.6-2,0c-0.6-0.6-0.6-1.5,0-2c0.6-0.6,1.5-0.6,2,0
			C462.5,175.4,462.5,176.3,461.9,177z"/>
		<path d="M465.9,173c-0.6,0.6-1.5,0.6-2,0c-0.6-0.6-0.6-1.5,0-2c0.6-0.6,1.5-0.6,2,0
			C466.5,171.4,466.5,172.3,465.9,173z"/>
		<path d="M469.9,168.9c-0.6,0.6-1.5,0.6-2,0c-0.6-0.6-0.6-1.5,0-2c0.6-0.6,1.5-0.6,2,0
			C470.5,167.4,470.5,168.3,469.9,168.9z"/>

	</g>
	<animateMotion
		path="M0, 25 0 0"
		begin="1s" 
		dur="2s"
		fill="freeze"/>
</g>
<g>
	<g>
	<rect id="svg-concept" x="117.4" y="22.3" transform="matrix(0.7071 -0.7071 0.7071 0.7071 -2.5913 140.6642)" class="hard7" width="102.3" height="102.3"/>
	</g>
	<path class="hard4" d="M210.1,75.9c-1.5,1.5-3.9,1.5-5.4,0s-1.5-3.9,0-5.4s3.9-1.5,5.4,0C211.6,72.1,211.6,74.5,210.1,75.9z"/>
	<path class="hard4" d="M171.3,114.9c-1.5,1.5-3.9,1.5-5.4,0c-1.5-1.5-1.5-3.9,0-5.4c1.5-1.5,3.9-1.5,5.4,0
		C172.7,111,172.7,113.3,171.3,114.9z"/>
	
		<rect x="129.2" y="34" transform="matrix(0.7071 -0.7071 0.7071 0.7071 -2.4692 140.6774)" class="hard5" width="78.7" height="78.7"/>
	<path class="hard4" d="M132.3,76.1c-1.5,1.5-3.9,1.5-5.4,0s-1.5-3.9,0-5.4s3.9-1.5,5.4,0C133.9,72.1,133.9,74.5,132.3,76.1z"/>
	<path class="hard4" d="M171.3,37.1c-1.5,1.5-3.9,1.5-5.4,0c-1.5-1.5-1.5-3.9,0-5.4c1.5-1.5,3.9-1.5,5.4,0
		C172.8,33.1,172.8,35.6,171.3,37.1z"/>
	
	<g class="hard5">
		<rect x="152.8" y="57.6" transform="matrix(0.7071 -0.7071 0.7071 0.7071 -2.4705 140.6253)" width="31.4" height="31.4"/>
		<path d="M153.6,74.4c-0.6,0.6-1.5,0.6-2,0c-0.6-0.6-0.6-1.5,0-2c0.6-0.6,1.5-0.6,2,0C154,72.8,154,73.8,153.6,74.4z"
			/>
		<path d="M157.6,70.4c-0.6,0.6-1.5,0.6-2,0c-0.6-0.6-0.6-1.5,0-2c0.6-0.6,1.5-0.6,2,0C158,68.8,158.2,69.8,157.6,70.4z
			"/>
		<path d="M161.6,66.2c-0.6,0.6-1.5,0.6-2,0c-0.6-0.6-0.6-1.5,0-2c0.6-0.6,1.5-0.6,2,0
			C162.2,64.8,162.2,65.8,161.6,66.2z"/>
		<path d="M165.6,62.2c-0.6,0.6-1.5,0.6-2,0c-0.6-0.6-0.6-1.5,0-2c0.6-0.6,1.5-0.6,2,0
			C166.2,60.8,166.2,61.8,165.6,62.2z"/>
		<path d="M169.6,58.2c-0.6,0.6-1.5,0.6-2,0c-0.6-0.6-0.6-1.5,0-2c0.6-0.6,1.5-0.6,2,0
			C170.2,56.8,170.2,57.7,169.6,58.2z"/>
		<path d="M157.6,78.4c-0.6,0.6-1.5,0.6-2,0c-0.6-0.6-0.6-1.5,0-2c0.6-0.6,1.5-0.6,2,0
			C158.2,76.8,158.2,77.8,157.6,78.4z"/>
		<path d="M161.6,74.4c-0.6,0.6-1.5,0.6-2,0c-0.6-0.6-0.6-1.5,0-2c0.6-0.6,1.5-0.6,2,0
			C162.2,72.8,162.2,73.8,161.6,74.4z"/>
		<path d="M165.6,70.4c-0.6,0.6-1.5,0.6-2,0c-0.6-0.6-0.6-1.5,0-2c0.6-0.6,1.5-0.6,2,0
			C166.2,68.8,166.2,69.8,165.6,70.4z"/>
		<path d="M169.6,66.4c-0.6,0.6-1.5,0.6-2,0c-0.6-0.6-0.6-1.5,0-2c0.6-0.6,1.5-0.6,2,0
			C170.2,64.8,170.2,65.8,169.6,66.4z"/>
		<path d="M173.6,62.2c-0.6,0.6-1.5,0.6-2,0c-0.6-0.6-0.6-1.5,0-2c0.6-0.6,1.5-0.6,2,0
			C174.2,60.8,174.2,61.8,173.6,62.2z"/>
		<path d="M161.6,82.4c-0.6,0.6-1.5,0.6-2,0c-0.6-0.6-0.6-1.5,0-2c0.6-0.6,1.5-0.6,2,0
			C162.2,80.9,162.2,81.8,161.6,82.4z"/>
		<path d="M165.6,78.4c-0.6,0.6-1.5,0.6-2,0c-0.6-0.6-0.6-1.5,0-2c0.6-0.6,1.5-0.6,2,0
			C166.2,76.8,166.2,77.8,165.6,78.4z"/>
		<path d="M169.6,74.4c-0.6,0.6-1.5,0.6-2,0c-0.6-0.6-0.6-1.5,0-2c0.6-0.6,1.5-0.6,2,0
			C170.2,72.8,170.2,73.8,169.6,74.4z"/>
		<path d="M173.6,70.4c-0.6,0.6-1.5,0.6-2,0c-0.6-0.6-0.6-1.5,0-2c0.6-0.6,1.5-0.6,2,0
			C174.2,68.8,174.2,69.8,173.6,70.4z"/>
		<path d="M177.6,66.4c-0.6,0.6-1.5,0.6-2,0c-0.6-0.6-0.6-1.5,0-2c0.6-0.6,1.5-0.6,2,0
			C178.2,64.8,178.2,65.8,177.6,66.4z"/>
		<path d="M165.6,86.4c-0.6,0.6-1.5,0.6-2,0c-0.6-0.6-0.6-1.5,0-2c0.6-0.6,1.5-0.6,2,0C166.2,85,166.2,85.8,165.6,86.4z
			"/>
		<path d="M169.6,82.4c-0.6,0.6-1.5,0.6-2,0c-0.6-0.6-0.6-1.5,0-2c0.6-0.6,1.5-0.6,2,0
			C170.2,80.9,170.2,81.8,169.6,82.4z"/>
		<path d="M173.6,78.4c-0.6,0.6-1.5,0.6-2,0c-0.6-0.6-0.6-1.5,0-2c0.6-0.6,1.5-0.6,2,0
			C174.2,76.8,174.2,77.8,173.6,78.4z"/>
		<path d="M177.7,74.4c-0.6,0.6-1.5,0.6-2,0c-0.6-0.6-0.6-1.5,0-2c0.6-0.6,1.5-0.6,2,0
			C178.2,72.8,178.2,73.8,177.7,74.4z"/>
		<path d="M181.8,70.4c-0.6,0.6-1.5,0.6-2,0c-0.6-0.6-0.6-1.5,0-2c0.6-0.6,1.5-0.6,2,0
			C182.2,68.8,182.2,69.8,181.8,70.4z"/>
		<path d="M169.6,90.4c-0.6,0.6-1.5,0.6-2,0c-0.6-0.6-0.6-1.5,0-2c0.6-0.6,1.5-0.6,2,0C170.2,89,170.2,89.9,169.6,90.4z
			"/>
		<path d="M173.7,86.4c-0.6,0.6-1.5,0.6-2,0c-0.6-0.6-0.6-1.5,0-2c0.6-0.6,1.5-0.6,2,0S174.2,85.9,173.7,86.4z"/>
		<path d="M177.7,82.4c-0.6,0.6-1.5,0.6-2,0c-0.6-0.6-0.6-1.5,0-2c0.6-0.6,1.5-0.6,2,0C178.2,81,178.2,81.8,177.7,82.4z
			"/>
		<path d="M181.8,78.4c-0.6,0.6-1.5,0.6-2,0c-0.6-0.6-0.6-1.5,0-2c0.6-0.6,1.5-0.6,2,0
			C182.2,76.8,182.2,77.8,181.8,78.4z"/>
		<path d="M185.8,74.4c-0.6,0.6-1.5,0.6-2,0c-0.6-0.6-0.6-1.5,0-2c0.6-0.6,1.5-0.6,2,0
			C186.2,72.8,186.2,73.8,185.8,74.4z"/>
	</g>
</g>
<g>
	<g>
	<rect id="svg-concept" x="22.3" y="116.7" transform="matrix(0.7071 -0.7071 0.7071 0.7071 -97.1459 101.0947)" class="hard7" width="102.3" height="102.3"/>
	</g>
	<path class="hard4" d="M115.1,170.5c-1.5,1.5-3.9,1.5-5.4,0c-1.5-1.5-1.5-3.9,0-5.4c1.5-1.5,3.9-1.5,5.4,0
		C116.5,166.5,116.6,168.9,115.1,170.5z"/>
	<path class="hard4" d="M76.1,209.5c-1.5,1.5-3.9,1.5-5.4,0c-1.5-1.5-1.5-3.9,0-5.4c1.5-1.5,3.9-1.5,5.4,0
		C77.6,205.5,77.6,207.9,76.1,209.5z"/>
	
		<rect x="34" y="128.6" transform="matrix(0.7071 -0.7071 0.7071 0.7071 -97.268 101.0815)" class="hard5" width="78.7" height="78.7"/>
	<path class="hard4" d="M37.3,170.5c-1.5,1.5-3.9,1.5-5.4,0c-1.5-1.5-1.5-3.9,0-5.4c1.5-1.5,3.9-1.5,5.4,0
		C38.7,166.6,38.7,169.1,37.3,170.5z"/>
	<path class="hard4" d="M76.1,131.5c-1.5,1.5-3.9,1.5-5.4,0c-1.5-1.5-1.5-3.9,0-5.4s3.9-1.5,5.4,0C77.6,127.7,77.6,130.1,76.1,131.5z"
		/>

	<g class="hard5">
		<rect x="57.6" y="152.2" transform="matrix(0.7071 -0.7071 0.7071 0.7071 -97.2693 101.0293)" width="31.4" height="31.4"/>
		<path d="M58.4,168.8c-0.6,0.6-1.5,0.6-2,0c-0.6-0.6-0.6-1.5,0-2c0.6-0.6,1.5-0.6,2,0C59,167.4,59,168.3,58.4,168.8z"
			/>
		<path d="M62.4,164.8c-0.6,0.6-1.5,0.6-2,0c-0.6-0.6-0.6-1.5,0-2c0.6-0.6,1.5-0.6,2,0C63,163.3,63,164.2,62.4,164.8z"
			/>
		<path d="M66.4,160.8c-0.6,0.6-1.5,0.6-2,0c-0.6-0.6-0.6-1.5,0-2c0.6-0.6,1.5-0.6,2,0C67,159.2,67,160.2,66.4,160.8z"
			/>
		<path d="M70.4,156.8c-0.6,0.6-1.5,0.6-2,0c-0.6-0.6-0.6-1.5,0-2c0.6-0.6,1.5-0.6,2,0C71,155.2,71,156.2,70.4,156.8z"
			/>
		<path d="M74.6,152.8c-0.6,0.6-1.5,0.6-2,0c-0.6-0.6-0.6-1.5,0-2c0.6-0.6,1.5-0.6,2,0C75,151.2,75,152.2,74.6,152.8z"
			/>
		<path d="M62.4,172.8c-0.6,0.6-1.5,0.6-2,0c-0.6-0.6-0.6-1.5,0-2c0.6-0.6,1.5-0.6,2,0C63,171.4,63,172.3,62.4,172.8z"
			/>
		<path d="M66.4,168.8c-0.6,0.6-1.5,0.6-2,0c-0.6-0.6-0.6-1.5,0-2c0.6-0.6,1.5-0.6,2,0C67,167.4,67,168.3,66.4,168.8z"
			/>
		<path d="M70.6,164.8c-0.6,0.6-1.5,0.6-2,0c-0.6-0.6-0.6-1.5,0-2c0.6-0.6,1.5-0.6,2,0C71,163.4,71,164.3,70.6,164.8z"
			/>
		<path d="M74.6,160.8c-0.6,0.6-1.5,0.6-2,0c-0.6-0.6-0.6-1.5,0-2c0.6-0.6,1.5-0.6,2,0C75,159.2,75,160.2,74.6,160.8z"
			/>
		<path d="M78.6,156.8c-0.6,0.6-1.5,0.6-2,0c-0.6-0.6-0.6-1.5,0-2c0.6-0.6,1.5-0.6,2,0C79,155.2,79,156.2,78.6,156.8z"
			/>
		<path d="M66.5,177c-0.6,0.6-1.5,0.6-2,0c-0.6-0.6-0.6-1.5,0-2c0.6-0.6,1.5-0.6,2,0C67,175.4,67,176.3,66.5,177z"/>
		<path d="M70.6,172.8c-0.6,0.6-1.5,0.6-2,0c-0.6-0.6-0.6-1.5,0-2c0.6-0.6,1.5-0.6,2,0C71,171.4,71,172.3,70.6,172.8z"
			/>
		<path d="M74.6,168.8c-0.6,0.6-1.5,0.6-2,0c-0.6-0.6-0.6-1.5,0-2c0.6-0.6,1.5-0.6,2,0S75,168.3,74.6,168.8z"/>
		<path d="M78.6,164.8c-0.6,0.6-1.5,0.6-2,0c-0.6-0.6-0.6-1.5,0-2c0.6-0.6,1.5-0.6,2,0C79,163.4,79,164.3,78.6,164.8z"
			/>
		<path d="M82.6,160.8c-0.6,0.6-1.5,0.6-2,0c-0.6-0.6-0.6-1.5,0-2c0.6-0.6,1.5-0.6,2,0
			C83.2,159.4,83.2,160.3,82.6,160.8z"/>
		<path d="M70.6,181c-0.6,0.6-1.5,0.6-2,0c-0.6-0.6-0.6-1.5,0-2c0.6-0.6,1.5-0.6,2,0C71,179.4,71,180.3,70.6,181z"/>
		<path d="M74.6,177c-0.6,0.6-1.5,0.6-2,0c-0.6-0.6-0.6-1.5,0-2c0.6-0.6,1.5-0.6,2,0C75,175.4,75,176.3,74.6,177z"/>
		<path class="hard5" d="M78.6,173c-0.6,0.6-1.5,0.6-2,0c-0.6-0.6-0.6-1.5,0-2c0.6-0.6,1.5-0.6,2,0C79.2,171.4,79.2,172.3,78.6,173z"
			/>
		<path d="M82.6,168.8c-0.6,0.6-1.5,0.6-2,0c-0.6-0.6-0.6-1.5,0-2c0.6-0.6,1.5-0.6,2,0
			C83.2,167.4,83.2,168.3,82.6,168.8z"/>
		<path d="M86.6,164.8c-0.6,0.6-1.5,0.6-2,0c-0.6-0.6-0.6-1.5,0-2c0.6-0.6,1.5-0.6,2,0
			C87.2,163.4,87.2,164.3,86.6,164.8z"/>
		<path d="M74.6,185c-0.6,0.6-1.5,0.6-2,0c-0.6-0.6-0.6-1.5,0-2c0.6-0.6,1.5-0.6,2,0C75.2,183.4,75.2,184.4,74.6,185z"
			/>
		<path d="M78.6,181c-0.6,0.6-1.5,0.6-2,0c-0.6-0.6-0.6-1.5,0-2c0.6-0.6,1.5-0.6,2,0C79.2,179.4,79.2,180.3,78.6,181z"
			/>
		<path d="M82.6,177c-0.6,0.6-1.5,0.6-2,0c-0.6-0.6-0.6-1.5,0-2c0.6-0.6,1.5-0.6,2,0C83.2,175.4,83.2,176.3,82.6,177z"
			/>
		<path d="M86.6,173c-0.6,0.6-1.5,0.6-2,0c-0.6-0.6-0.6-1.5,0-2c0.6-0.6,1.5-0.6,2,0C87.2,171.4,87.2,172.3,86.6,173z"
			/>
		<path d="M90.6,168.9c-0.6,0.6-1.5,0.6-2,0c-0.6-0.6-0.6-1.5,0-2c0.6-0.6,1.5-0.6,2,0
			C91.2,167.4,91.2,168.3,90.6,168.9z"/>
	</g>
</g>
<g>
	<g>
		<rect id="svg-concept" x="876" y="211.3" transform="matrix(0.7071 -0.7071 0.7071 0.7071 85.9646 732.4672)" class="hard7" width="102.3" height="102.3"/>
	</g>
	<path class="hard4" d="M968.8,265.1c-1.5,1.5-3.9,1.5-5.4,0c-1.5-1.5-1.5-3.9,0-5.4c1.5-1.5,3.9-1.5,5.4,0
		C970.3,261.2,970.3,263.5,968.8,265.1z"/>
	<path class="hard4" d="M929.8,304c-1.5,1.5-3.9,1.5-5.4,0c-1.5-1.5-1.5-3.9,0-5.4c1.5-1.5,3.9-1.5,5.4,0
		C931.3,300.2,931.3,302.5,929.8,304z"/>
	
		<rect x="887.8" y="223.1" transform="matrix(0.7071 -0.7071 0.7071 0.7071 85.9328 732.454)" class="hard5" width="78.7" height="78.7"/>
	<path class="hard4" d="M891,265.2c-1.5,1.5-3.9,1.5-5.4,0c-1.5-1.5-1.5-3.9,0-5.4c1.5-1.5,3.9-1.5,5.4,0
		C892.4,261.2,892.4,263.7,891,265.2z"/>
	<path class="hard4" d="M930,226.2c-1.5,1.5-3.9,1.5-5.4,0c-1.5-1.5-1.5-3.9,0-5.4c1.5-1.5,3.9-1.5,5.4,0
		C931.3,222.2,931.3,224.7,930,226.2z"/>
	
	<g class="hard5">
		<rect x="911.3" y="246.8" transform="matrix(0.7071 -0.7071 0.7071 0.7071 85.9315 732.4019)" width="31.4" height="31.4"/>
		<path d="M912.1,263.4c-0.6,0.6-1.5,0.6-2,0c-0.6-0.6-0.6-1.5,0-2c0.6-0.6,1.5-0.6,2,0
			C912.7,262,912.7,262.9,912.1,263.4z"/>
		<path d="M916.3,259.4c-0.6,0.6-1.5,0.6-2,0c-0.6-0.6-0.6-1.5,0-2c0.6-0.6,1.5-0.6,2,0
			C916.7,258,916.7,258.9,916.3,259.4z"/>
		<path d="M920.3,255.4c-0.6,0.6-1.5,0.6-2,0c-0.6-0.6-0.6-1.5,0-2c0.6-0.6,1.5-0.6,2,0
			C920.7,254,920.7,254.9,920.3,255.4z"/>
		<path d="M924.3,251.3c-0.6,0.6-1.5,0.6-2,0c-0.6-0.6-0.6-1.5,0-2c0.6-0.6,1.5-0.6,2,0
			C924.7,250,924.7,250.9,924.3,251.3z"/>
		<path d="M928.3,247.3c-0.6,0.6-1.5,0.6-2,0c-0.6-0.6-0.6-1.5,0-2c0.6-0.6,1.5-0.6,2,0
			C928.7,246,928.7,246.7,928.3,247.3z"/>
		<path d="M916.3,267.5c-0.6,0.6-1.5,0.6-2,0c-0.6-0.6-0.6-1.5,0-2c0.6-0.6,1.5-0.6,2,0
			C916.7,266,916.7,266.9,916.3,267.5z"/>
		<path d="M920.3,263.5c-0.6,0.6-1.5,0.6-2,0c-0.6-0.6-0.6-1.5,0-2c0.6-0.6,1.5-0.6,2,0
			C920.7,262,920.7,262.9,920.3,263.5z"/>
		<path d="M924.3,259.4c-0.6,0.6-1.5,0.6-2,0c-0.6-0.6-0.6-1.5,0-2c0.6-0.6,1.5-0.6,2,0S924.7,258.9,924.3,259.4z"/>
		<path d="M928.3,255.4c-0.6,0.6-1.5,0.6-2,0c-0.6-0.6-0.6-1.5,0-2c0.6-0.6,1.5-0.6,2,0
			C928.9,254,928.9,254.9,928.3,255.4z"/>
		<path d="M932.3,251.3c-0.6,0.6-1.5,0.6-2,0c-0.6-0.6-0.6-1.5,0-2c0.6-0.6,1.5-0.6,2,0
			C932.9,250,932.9,250.9,932.3,251.3z"/>
		<path d="M920.3,271.5c-0.6,0.6-1.5,0.6-2,0c-0.6-0.6-0.6-1.5,0-2c0.6-0.6,1.5-0.6,2,0
			C920.7,270,920.7,270.9,920.3,271.5z"/>
		<path d="M924.3,267.5c-0.6,0.6-1.5,0.6-2,0c-0.6-0.6-0.6-1.5,0-2c0.6-0.6,1.5-0.6,2,0
			C924.9,266,924.9,266.9,924.3,267.5z"/>
		<path d="M928.3,263.5c-0.6,0.6-1.5,0.6-2,0c-0.6-0.6-0.6-1.5,0-2c0.6-0.6,1.5-0.6,2,0
			C928.9,262,928.9,262.9,928.3,263.5z"/>
		<path d="M932.3,259.5c-0.6,0.6-1.5,0.6-2,0c-0.6-0.6-0.6-1.5,0-2c0.6-0.6,1.5-0.6,2,0
			C932.9,258,932.9,258.9,932.3,259.5z"/>
		<path d="M936.3,255.4c-0.6,0.6-1.5,0.6-2,0c-0.6-0.6-0.6-1.5,0-2c0.6-0.6,1.5-0.6,2,0
			C936.9,254,936.9,254.9,936.3,255.4z"/>
		<path d="M924.3,275.5c-0.6,0.6-1.5,0.6-2,0c-0.6-0.6-0.6-1.5,0-2c0.6-0.6,1.5-0.6,2,0
			C924.9,274,924.9,274.9,924.3,275.5z"/>
		<path d="M928.3,271.5c-0.6,0.6-1.5,0.6-2,0c-0.6-0.6-0.6-1.5,0-2c0.6-0.6,1.5-0.6,2,0
			C928.9,270,928.9,270.9,928.3,271.5z"/>
		<path d="M932.3,267.5c-0.6,0.6-1.5,0.6-2,0c-0.6-0.6-0.6-1.5,0-2c0.6-0.6,1.5-0.6,2,0
			C932.9,266,932.9,266.9,932.3,267.5z"/>
		<path d="M936.3,263.5c-0.6,0.6-1.5,0.6-2,0c-0.6-0.6-0.6-1.5,0-2c0.6-0.6,1.5-0.6,2,0
			C936.9,262,936.9,262.9,936.3,263.5z"/>
		<path d="M940.3,259.5c-0.6,0.6-1.5,0.6-2,0c-0.6-0.6-0.6-1.5,0-2c0.6-0.6,1.5-0.6,2,0
			C940.9,258,940.9,258.9,940.3,259.5z"/>
		<path d="M928.3,279.5c-0.6,0.6-1.5,0.6-2,0c-0.6-0.6-0.6-1.5,0-2c0.6-0.6,1.5-0.6,2,0
			C928.9,278.1,928.9,278.9,928.3,279.5z"/>
		<path d="M932.3,275.5c-0.6,0.6-1.5,0.6-2,0c-0.6-0.6-0.6-1.5,0-2c0.6-0.6,1.5-0.6,2,0
			C932.9,274,932.9,274.9,932.3,275.5z"/>
		<path d="M936.3,271.5c-0.6,0.6-1.5,0.6-2,0c-0.6-0.6-0.6-1.5,0-2c0.6-0.6,1.5-0.6,2,0
			C936.9,270,936.9,270.9,936.3,271.5z"/>
		<path d="M940.3,267.5c-0.6,0.6-1.5,0.6-2,0c-0.6-0.6-0.6-1.5,0-2c0.6-0.6,1.5-0.6,2,0
			C940.9,266,940.9,266.9,940.3,267.5z"/>
		<path d="M944.3,263.5c-0.6,0.6-1.5,0.6-2,0c-0.6-0.6-0.6-1.5,0-2c0.6-0.6,1.5-0.6,2,0
			C944.9,262,944.9,262.9,944.3,263.5z"/>
	</g>
</g>
<g>
	<g>
	<rect id="svg-concept" x="970.6" y="116.7" transform="matrix(0.7071 -0.7071 0.7071 0.7071 180.584 771.6419)" class="hard7" width="102.3" height="102.3"/>
	</g>
	<path class="hard4" d="M1063.3,170.5c-1.5,1.5-3.9,1.5-5.4,0c-1.5-1.5-1.5-3.9,0-5.4c1.5-1.5,3.9-1.5,5.4,0
		C1064.9,166.5,1064.9,168.9,1063.3,170.5z"/>
	<path class="hard4" d="M1024.4,209.5c-1.5,1.5-3.9,1.5-5.4,0c-1.5-1.5-1.5-3.9,0-5.4c1.5-1.5,3.9-1.5,5.4,0
		C1025.9,205.5,1025.9,207.9,1024.4,209.5z"/>
	
		<rect x="982.3" y="128.6" transform="matrix(0.7071 -0.7071 0.7071 0.7071 180.4618 771.6287)" class="hard5" width="78.7" height="78.7"/>
	<path class="hard4" d="M985.6,170.5c-1.5,1.5-3.9,1.5-5.4,0c-1.5-1.5-1.5-3.9,0-5.4c1.5-1.5,3.9-1.5,5.4,0
		C986.9,166.6,986.9,169.1,985.6,170.5z"/>
	<path class="hard4" d="M1024.4,131.5c-1.5,1.5-3.9,1.5-5.4,0c-1.5-1.5-1.5-3.9,0-5.4c1.5-1.5,3.9-1.5,5.4,0
		S1025.9,130.1,1024.4,131.5z"/>
	
	<g class="hard5">
		<rect x="1006" y="152.1" transform="matrix(0.7071 -0.7071 0.7071 0.7071 180.5696 771.6217)" width="31.4" height="31.4"/>
		<path d="M1006.7,168.8c-0.6,0.6-1.5,0.6-2,0c-0.6-0.6-0.6-1.5,0-2c0.6-0.6,1.5-0.6,2,0
			C1007.3,167.4,1007.3,168.3,1006.7,168.8z"/>
		<path d="M1010.7,164.8c-0.6,0.6-1.5,0.6-2,0c-0.6-0.6-0.6-1.5,0-2c0.6-0.6,1.5-0.6,2,0
			C1011.3,163.3,1011.3,164.2,1010.7,164.8z"/>
		<path d="M1014.7,160.8c-0.6,0.6-1.5,0.6-2,0c-0.6-0.6-0.6-1.5,0-2c0.6-0.6,1.5-0.6,2,0
			C1015.3,159.2,1015.3,160.2,1014.7,160.8z"/>
		<path d="M1018.8,156.8c-0.6,0.6-1.5,0.6-2,0c-0.6-0.6-0.6-1.5,0-2c0.6-0.6,1.5-0.6,2,0
			C1019.3,155.2,1019.3,156.2,1018.8,156.8z"/>
		<path d="M1022.8,152.8c-0.6,0.6-1.5,0.6-2,0c-0.6-0.6-0.6-1.5,0-2c0.6-0.6,1.5-0.6,2,0
			C1023.3,151.2,1023.3,152.2,1022.8,152.8z"/>
		<path d="M1010.7,172.8c-0.6,0.6-1.5,0.6-2,0c-0.6-0.6-0.6-1.5,0-2c0.6-0.6,1.5-0.6,2,0
			C1011.3,171.4,1011.3,172.3,1010.7,172.8z"/>
		<path d="M1014.8,168.8c-0.6,0.6-1.5,0.6-2,0c-0.6-0.6-0.6-1.5,0-2c0.6-0.6,1.5-0.6,2,0S1015.3,168.3,1014.8,168.8z"/>
		<path d="M1018.8,164.8c-0.6,0.6-1.5,0.6-2,0c-0.6-0.6-0.6-1.5,0-2c0.6-0.6,1.5-0.6,2,0
			C1019.3,163.4,1019.3,164.3,1018.8,164.8z"/>
		<path d="M1022.8,160.8c-0.6,0.6-1.5,0.6-2,0c-0.6-0.6-0.6-1.5,0-2c0.6-0.6,1.5-0.6,2,0
			C1023.3,159.2,1023.3,160.2,1022.8,160.8z"/>
		<path d="M1026.8,156.8c-0.6,0.6-1.5,0.6-2,0c-0.6-0.6-0.6-1.5,0-2c0.6-0.6,1.5-0.6,2,0
			C1027.3,155.2,1027.3,156.2,1026.8,156.8z"/>
		<path d="M1014.8,177c-0.6,0.6-1.5,0.6-2,0c-0.6-0.6-0.6-1.5,0-2c0.6-0.6,1.5-0.6,2,0
			C1015.3,175.4,1015.3,176.3,1014.8,177z"/>
		<path d="M1018.8,172.8c-0.6,0.6-1.5,0.6-2,0c-0.6-0.6-0.6-1.5,0-2c0.6-0.6,1.5-0.6,2,0
			C1019.3,171.4,1019.3,172.3,1018.8,172.8z"/>
		<path d="M1022.8,168.8c-0.6,0.6-1.5,0.6-2,0c-0.6-0.6-0.6-1.5,0-2c0.6-0.6,1.5-0.6,2,0S1023.4,168.3,1022.8,168.8z"/>
		<path d="M1026.8,164.8c-0.6,0.6-1.5,0.6-2,0c-0.6-0.6-0.6-1.5,0-2c0.6-0.6,1.5-0.6,2,0
			C1027.5,163.4,1027.5,164.3,1026.8,164.8z"/>
		<path d="M1030.8,160.8c-0.6,0.6-1.5,0.6-2,0c-0.6-0.6-0.6-1.5,0-2c0.6-0.6,1.5-0.6,2,0
			C1031.5,159.4,1031.5,160.3,1030.8,160.8z"/>
		<path d="M1018.8,181c-0.6,0.6-1.5,0.6-2,0c-0.6-0.6-0.6-1.5,0-2c0.6-0.6,1.5-0.6,2,0
			C1019.3,179.4,1019.4,180.3,1018.8,181z"/>
		<path d="M1022.8,177c-0.6,0.6-1.5,0.6-2,0c-0.6-0.6-0.6-1.5,0-2c0.6-0.6,1.5-0.6,2,0
			C1023.4,175.4,1023.4,176.3,1022.8,177z"/>
		<path d="M1026.8,173c-0.6,0.6-1.5,0.6-2,0c-0.6-0.6-0.6-1.5,0-2c0.6-0.6,1.5-0.6,2,0
			C1027.5,171.4,1027.5,172.3,1026.8,173z"/>
		<path d="M1030.8,168.8c-0.6,0.6-1.5,0.6-2,0c-0.6-0.6-0.6-1.5,0-2c0.6-0.6,1.5-0.6,2,0
			C1031.5,167.4,1031.5,168.3,1030.8,168.8z"/>
		<path d="M1034.8,164.8c-0.6,0.6-1.5,0.6-2,0c-0.6-0.6-0.6-1.5,0-2c0.6-0.6,1.5-0.6,2,0
			C1035.5,163.4,1035.5,164.3,1034.8,164.8z"/>
		<path d="M1022.8,185c-0.6,0.6-1.5,0.6-2,0c-0.6-0.6-0.6-1.5,0-2c0.6-0.6,1.5-0.6,2,0
			C1023.4,183.4,1023.4,184.4,1022.8,185z"/>
		<path d="M1026.8,181c-0.6,0.6-1.5,0.6-2,0c-0.6-0.6-0.6-1.5,0-2c0.6-0.6,1.5-0.6,2,0
			C1027.5,179.4,1027.5,180.3,1026.8,181z"/>
		<path d="M1030.8,177c-0.6,0.6-1.5,0.6-2,0c-0.6-0.6-0.6-1.5,0-2c0.6-0.6,1.5-0.6,2,0
			C1031.5,175.4,1031.5,176.3,1030.8,177z"/>
		<path d="M1034.8,173c-0.6,0.6-1.5,0.6-2,0c-0.6-0.6-0.6-1.5,0-2c0.6-0.6,1.5-0.6,2,0
			C1035.5,171.4,1035.5,172.3,1034.8,173z"/>
		<path d="M1038.8,168.9c-0.6,0.6-1.5,0.6-2,0c-0.6-0.6-0.6-1.5,0-2c0.6-0.6,1.5-0.6,2,0
			C1039.5,167.4,1039.5,168.3,1038.8,168.9z"/>
	</g>
</g>
<g>
	
		<rect x="686.3" y="22.4" transform="matrix(0.7071 -0.7071 0.7071 0.7071 164.0248 543.0015)" id="svg-concept" class="hard0" width="102.3" height="102.3"/>
	<path class="hard4" d="M779.2,75.9c-1.5,1.5-3.9,1.5-5.4,0s-1.5-3.9,0-5.4s3.9-1.5,5.4,0C780.6,72.1,780.6,74.5,779.2,75.9z"/>
	<path class="hard4" d="M740.2,114.9c-1.5,1.5-3.9,1.5-5.4,0s-1.5-3.9,0-5.4c1.5-1.5,3.9-1.5,5.4,0C741.6,111,741.6,113.3,740.2,114.9
		z"/>
	
		<rect x="698.2" y="34" transform="matrix(0.7071 -0.7071 0.7071 0.7071 164.1469 543.0148)" class="hard5" width="78.7" height="78.7"/>
	<path class="hard4" d="M701.2,76.1c-1.5,1.5-3.9,1.5-5.4,0s-1.5-3.9,0-5.4s3.9-1.5,5.4,0C702.8,72.1,702.8,74.5,701.2,76.1z"/>
	<path class="hard4" d="M740.2,37.1c-1.5,1.5-3.9,1.5-5.4,0s-1.5-3.9,0-5.4c1.5-1.5,3.9-1.5,5.4,0C741.8,33.1,741.8,35.6,740.2,37.1z"
		/>
	<g>
		
			<rect x="721.8" y="57.6" transform="matrix(0.7071 -0.7071 0.7071 0.7071 164.1456 542.9627)" id="svg-concept" class="hard1" width="31.4" height="31.4"/>
		<path id="svg-concept" class="hard1" d="M722.5,74.4c-0.6,0.6-1.5,0.6-2,0c-0.6-0.6-0.6-1.5,0-2c0.6-0.6,1.5-0.6,2,0
			C723.1,72.8,723.1,73.8,722.5,74.4z"/>
		<path id="svg-concept" class="hard1" d="M726.5,70.4c-0.6,0.6-1.5,0.6-2,0c-0.6-0.6-0.6-1.5,0-2c0.6-0.6,1.5-0.6,2,0
			C727.1,68.8,727.1,69.8,726.5,70.4z"/>
		<path id="svg-concept" class="hard1" d="M730.5,66.2c-0.6,0.6-1.5,0.6-2,0c-0.6-0.6-0.6-1.5,0-2c0.6-0.6,1.5-0.6,2,0
			C731.1,64.8,731.1,65.8,730.5,66.2z"/>
		<path id="svg-concept" class="hard1" d="M734.5,62.2c-0.6,0.6-1.5,0.6-2,0c-0.6-0.6-0.6-1.5,0-2c0.6-0.6,1.5-0.6,2,0
			C735.1,60.8,735.1,61.8,734.5,62.2z"/>
		<path id="svg-concept" class="hard1" d="M738.5,58.2c-0.6,0.6-1.5,0.6-2,0c-0.6-0.6-0.6-1.5,0-2c0.6-0.6,1.5-0.6,2,0
			C739.1,56.8,739.1,57.7,738.5,58.2z"/>
		<path id="svg-concept" class="hard1" d="M726.5,78.4c-0.6,0.6-1.5,0.6-2,0c-0.6-0.6-0.6-1.5,0-2c0.6-0.6,1.5-0.6,2,0
			C727.1,76.8,727.1,77.8,726.5,78.4z"/>
		<path id="svg-concept" class="hard1" d="M730.5,74.4c-0.6,0.6-1.5,0.6-2,0c-0.6-0.6-0.6-1.5,0-2c0.6-0.6,1.5-0.6,2,0
			C731.1,72.8,731.1,73.8,730.5,74.4z"/>
		<path id="svg-concept" class="hard1" d="M734.5,70.4c-0.6,0.6-1.5,0.6-2,0c-0.6-0.6-0.6-1.5,0-2c0.6-0.6,1.5-0.6,2,0
			C735.1,68.8,735.1,69.8,734.5,70.4z"/>
		<path id="svg-concept" class="hard1" d="M738.5,66.4c-0.6,0.6-1.5,0.6-2,0c-0.6-0.6-0.6-1.5,0-2c0.6-0.6,1.5-0.6,2,0
			C739.1,64.8,739.1,65.8,738.5,66.4z"/>
		<path id="svg-concept" class="hard1" d="M742.7,62.2c-0.6,0.6-1.5,0.6-2,0c-0.6-0.6-0.6-1.5,0-2c0.6-0.6,1.5-0.6,2,0S743.1,61.8,742.7,62.2z"/>
		<path id="svg-concept" class="hard1" d="M730.5,82.4c-0.6,0.6-1.5,0.6-2,0c-0.6-0.6-0.6-1.5,0-2c0.6-0.6,1.5-0.6,2,0
			C731.1,80.9,731.1,81.8,730.5,82.4z"/>
		<path id="svg-concept" class="hard1" d="M734.5,78.4c-0.6,0.6-1.5,0.6-2,0c-0.6-0.6-0.6-1.5,0-2c0.6-0.6,1.5-0.6,2,0
			C735.1,76.8,735.1,77.8,734.5,78.4z"/>
		<path id="svg-concept" class="hard1" d="M738.7,74.4c-0.6,0.6-1.5,0.6-2,0c-0.6-0.6-0.6-1.5,0-2c0.6-0.6,1.5-0.6,2,0
			C739.1,72.8,739.1,73.8,738.7,74.4z"/>
		<path id="svg-concept" class="hard1" d="M742.7,70.4c-0.6,0.6-1.5,0.6-2,0c-0.6-0.6-0.6-1.5,0-2c0.6-0.6,1.5-0.6,2,0
			C743.1,68.8,743.1,69.8,742.7,70.4z"/>
		<path id="svg-concept" class="hard1" d="M746.7,66.4c-0.6,0.6-1.5,0.6-2,0c-0.6-0.6-0.6-1.5,0-2c0.6-0.6,1.5-0.6,2,0
			C747.1,64.8,747.1,65.8,746.7,66.4z"/>
		<path id="svg-concept" class="hard1" d="M734.7,86.4c-0.6,0.6-1.5,0.6-2,0c-0.6-0.6-0.6-1.5,0-2c0.6-0.6,1.5-0.6,2,0C735.1,85,735.1,85.8,734.7,86.4z
			"/>
		<path id="svg-concept" class="hard1" d="M738.7,82.4c-0.6,0.6-1.5,0.6-2,0c-0.6-0.6-0.6-1.5,0-2c0.6-0.6,1.5-0.6,2,0
			C739.1,80.9,739.1,81.8,738.7,82.4z"/>
		<path id="svg-concept" class="hard1" d="M742.7,78.4c-0.6,0.6-1.5,0.6-2,0c-0.6-0.6-0.6-1.5,0-2c0.6-0.6,1.5-0.6,2,0
			C743.1,76.8,743.1,77.8,742.7,78.4z"/>
		<path id="svg-concept" class="hard1" d="M746.7,74.4c-0.6,0.6-1.5,0.6-2,0c-0.6-0.6-0.6-1.5,0-2c0.6-0.6,1.5-0.6,2,0
			C747.1,72.8,747.1,73.8,746.7,74.4z"/>
		<path id="svg-concept" class="hard1" d="M750.7,70.4c-0.6,0.6-1.5,0.6-2,0c-0.6-0.6-0.6-1.5,0-2c0.6-0.6,1.5-0.6,2,0
			C751.3,68.8,751.3,69.8,750.7,70.4z"/>
		<path id="svg-concept" class="hard1" d="M738.7,90.4c-0.6,0.6-1.5,0.6-2,0c-0.6-0.6-0.6-1.5,0-2c0.6-0.6,1.5-0.6,2,0C739.1,89,739.1,89.9,738.7,90.4z
			"/>
		<path id="svg-concept" class="hard1" d="M742.7,86.4c-0.6,0.6-1.5,0.6-2,0c-0.6-0.6-0.6-1.5,0-2c0.6-0.6,1.5-0.6,2,0S743.1,85.9,742.7,86.4z"/>
		<path id="svg-concept" class="hard1" d="M746.7,82.4c-0.6,0.6-1.5,0.6-2,0c-0.6-0.6-0.6-1.5,0-2c0.6-0.6,1.5-0.6,2,0C747.3,81,747.3,81.8,746.7,82.4z
			"/>
		<path id="svg-concept" class="hard1" d="M750.7,78.4c-0.6,0.6-1.5,0.6-2,0c-0.6-0.6-0.6-1.5,0-2c0.6-0.6,1.5-0.6,2,0
			C751.3,76.8,751.3,77.8,750.7,78.4z"/>
		<path id="svg-concept" class="hard1" d="M754.7,74.4c-0.6,0.6-1.5,0.6-2,0c-0.6-0.6-0.6-1.5,0-2c0.6-0.6,1.5-0.6,2,0
			C755.3,72.8,755.3,73.8,754.7,74.4z"/>
	</g>
</g>
<g>
	<g>
	<rect id="svg-concept" x="876.1" y="22.3" transform="matrix(0.7071 -0.7071 0.7071 0.7071 219.6361 677.1741)" class="hard7" width="102.3" height="102.3"/>
	</g>
	<path class="hard4" d="M968.8,75.9c-1.5,1.5-3.9,1.5-5.4,0s-1.5-3.9,0-5.4s3.9-1.5,5.4,0S970.3,74.5,968.8,75.9z"/>
	<path class="hard4" d="M929.8,114.9c-1.5,1.5-3.9,1.5-5.4,0s-1.5-3.9,0-5.4c1.5-1.5,3.9-1.5,5.4,0C931.3,111,931.3,113.3,929.8,114.9
		z"/>
	
		<rect x="887.7" y="34" transform="matrix(0.7071 -0.7071 0.7071 0.7071 219.6492 677.0521)" class="hard5" width="78.7" height="78.7"/>
	<path class="hard4" d="M891,76.1c-1.5,1.5-3.9,1.5-5.4,0s-1.5-3.9,0-5.4s3.9-1.5,5.4,0C892.4,72.1,892.4,74.5,891,76.1z"/>
	<path class="hard4" d="M930,37.1c-1.5,1.5-3.9,1.5-5.4,0c-1.5-1.5-1.5-3.9,0-5.4c1.5-1.5,3.9-1.5,5.4,0
		C931.3,33.1,931.3,35.6,930,37.1z"/>
	
	<g class="hard5">
		<rect x="911.3" y="57.7" transform="matrix(0.7071 -0.7071 0.7071 0.7071 219.648 677)" width="31.4" height="31.4"/>
		<path d="M912.1,74.4c-0.6,0.6-1.5,0.6-2,0c-0.6-0.6-0.6-1.5,0-2c0.6-0.6,1.5-0.6,2,0
			C912.7,72.8,912.7,73.8,912.1,74.4z"/>
		<path d="M916.3,70.4c-0.6,0.6-1.5,0.6-2,0c-0.6-0.6-0.6-1.5,0-2c0.6-0.6,1.5-0.6,2,0
			C916.7,68.8,916.7,69.8,916.3,70.4z"/>
		<path d="M920.3,66.2c-0.6,0.6-1.5,0.6-2,0c-0.6-0.6-0.6-1.5,0-2c0.6-0.6,1.5-0.6,2,0
			C920.7,64.8,920.7,65.8,920.3,66.2z"/>
		<path d="M924.3,62.2c-0.6,0.6-1.5,0.6-2,0c-0.6-0.6-0.6-1.5,0-2c0.6-0.6,1.5-0.6,2,0S924.7,61.8,924.3,62.2z"/>
		<path d="M928.3,58.2c-0.6,0.6-1.5,0.6-2,0c-0.6-0.6-0.6-1.5,0-2c0.6-0.6,1.5-0.6,2,0S928.7,57.7,928.3,58.2z"/>
		<path d="M916.3,78.4c-0.6,0.6-1.5,0.6-2,0c-0.6-0.6-0.6-1.5,0-2c0.6-0.6,1.5-0.6,2,0
			C916.7,76.8,916.7,77.8,916.3,78.4z"/>
		<path d="M920.3,74.4c-0.6,0.6-1.5,0.6-2,0c-0.6-0.6-0.6-1.5,0-2c0.6-0.6,1.5-0.6,2,0
			C920.7,72.8,920.7,73.8,920.3,74.4z"/>
		<path d="M924.3,70.4c-0.6,0.6-1.5,0.6-2,0c-0.6-0.6-0.6-1.5,0-2c0.6-0.6,1.5-0.6,2,0
			C924.7,68.8,924.7,69.8,924.3,70.4z"/>
		<path d="M928.3,66.4c-0.6,0.6-1.5,0.6-2,0c-0.6-0.6-0.6-1.5,0-2c0.6-0.6,1.5-0.6,2,0
			C928.9,64.8,928.9,65.8,928.3,66.4z"/>
		<path d="M932.3,62.2c-0.6,0.6-1.5,0.6-2,0c-0.6-0.6-0.6-1.5,0-2c0.6-0.6,1.5-0.6,2,0
			C932.9,60.8,932.9,61.8,932.3,62.2z"/>
		<path d="M920.3,82.4c-0.6,0.6-1.5,0.6-2,0c-0.6-0.6-0.6-1.5,0-2c0.6-0.6,1.5-0.6,2,0
			C920.7,80.9,920.7,81.8,920.3,82.4z"/>
		<path d="M924.3,78.4c-0.6,0.6-1.5,0.6-2,0c-0.6-0.6-0.6-1.5,0-2c0.6-0.6,1.5-0.6,2,0
			C924.9,76.8,924.9,77.8,924.3,78.4z"/>
		<path d="M928.3,74.4c-0.6,0.6-1.5,0.6-2,0c-0.6-0.6-0.6-1.5,0-2c0.6-0.6,1.5-0.6,2,0
			C928.9,72.8,928.9,73.8,928.3,74.4z"/>
		<path d="M932.3,70.4c-0.6,0.6-1.5,0.6-2,0c-0.6-0.6-0.6-1.5,0-2c0.6-0.6,1.5-0.6,2,0
			C932.9,68.8,932.9,69.8,932.3,70.4z"/>
		<path d="M936.3,66.4c-0.6,0.6-1.5,0.6-2,0c-0.6-0.6-0.6-1.5,0-2c0.6-0.6,1.5-0.6,2,0
			C936.9,64.8,936.9,65.8,936.3,66.4z"/>
		<path d="M924.3,86.4c-0.6,0.6-1.5,0.6-2,0c-0.6-0.6-0.6-1.5,0-2c0.6-0.6,1.5-0.6,2,0C924.9,85,924.9,85.8,924.3,86.4z
			"/>
		<path d="M928.3,82.4c-0.6,0.6-1.5,0.6-2,0c-0.6-0.6-0.6-1.5,0-2c0.6-0.6,1.5-0.6,2,0
			C928.9,80.9,928.9,81.8,928.3,82.4z"/>
		<path d="M932.3,78.4c-0.6,0.6-1.5,0.6-2,0c-0.6-0.6-0.6-1.5,0-2c0.6-0.6,1.5-0.6,2,0
			C932.9,76.8,932.9,77.8,932.3,78.4z"/>
		<path d="M936.3,74.4c-0.6,0.6-1.5,0.6-2,0c-0.6-0.6-0.6-1.5,0-2c0.6-0.6,1.5-0.6,2,0
			C936.9,72.8,936.9,73.8,936.3,74.4z"/>
		<path d="M940.3,70.4c-0.6,0.6-1.5,0.6-2,0c-0.6-0.6-0.6-1.5,0-2c0.6-0.6,1.5-0.6,2,0
			C940.9,68.8,940.9,69.8,940.3,70.4z"/>
		<path d="M928.3,90.4c-0.6,0.6-1.5,0.6-2,0c-0.6-0.6-0.6-1.5,0-2c0.6-0.6,1.5-0.6,2,0C928.9,89,928.9,89.9,928.3,90.4z
			"/>
		<path d="M932.3,86.4c-0.6,0.6-1.5,0.6-2,0c-0.6-0.6-0.6-1.5,0-2c0.6-0.6,1.5-0.6,2,0C932.9,85,932.9,85.9,932.3,86.4z
			"/>
		<path d="M936.3,82.4c-0.6,0.6-1.5,0.6-2,0c-0.6-0.6-0.6-1.5,0-2c0.6-0.6,1.5-0.6,2,0C936.9,81,936.9,81.8,936.3,82.4z
			"/>
		<path d="M940.3,78.4c-0.6,0.6-1.5,0.6-2,0c-0.6-0.6-0.6-1.5,0-2c0.6-0.6,1.5-0.6,2,0
			C940.9,76.8,940.9,77.8,940.3,78.4z"/>
		<path d="M944.3,74.4c-0.6,0.6-1.5,0.6-2,0c-0.6-0.6-0.6-1.5,0-2c0.6-0.6,1.5-0.6,2,0
			C944.9,72.8,944.9,73.8,944.3,74.4z"/>
	</g>
</g>
<g>
	<g>
		<rect id="svg-concept" x="780.8" y="116.7" transform="matrix(0.7071 -0.7071 0.7071 0.7071 124.9727 637.4693)" class="hard7" width="102.3" height="102.3"/>
	</g>
	<path class="hard4" d="M873.6,170.5c-1.5,1.5-3.9,1.5-5.4,0c-1.5-1.5-1.5-3.9,0-5.4c1.5-1.5,3.9-1.5,5.4,0
		C875.1,166.5,875.1,168.9,873.6,170.5z"/>
	<path class="hard4" d="M834.8,209.5c-1.5,1.5-3.9,1.5-5.4,0c-1.5-1.5-1.5-3.9,0-5.4c1.5-1.5,3.9-1.5,5.4,0
		C836.2,205.5,836.2,207.9,834.8,209.5z"/>
	
		<rect x="792.8" y="128.6" transform="matrix(0.7071 -0.7071 0.7071 0.7071 124.9595 637.5914)" class="hard5" width="78.7" height="78.7"/>
	<path class="hard4" d="M795.8,170.5c-1.5,1.5-3.9,1.5-5.4,0c-1.5-1.5-1.5-3.9,0-5.4c1.5-1.5,3.9-1.5,5.4,0
		C797.4,166.6,797.4,169.1,795.8,170.5z"/>
	<path class="hard4" d="M834.8,131.5c-1.5,1.5-3.9,1.5-5.4,0c-1.5-1.5-1.5-3.9,0-5.4s3.9-1.5,5.4,0
		C836.3,127.7,836.3,130.1,834.8,131.5z"/>
	
	<g class="hard5">	
		<rect x="816.5" y="152.1" transform="matrix(0.7071 -0.7071 0.7071 0.7071 125.0671 637.5843)" width="31.4" height="31.4"/>
		<path d="M817.1,168.8c-0.6,0.6-1.5,0.6-2,0c-0.6-0.6-0.6-1.5,0-2c0.6-0.6,1.5-0.6,2,0
			C817.7,167.4,817.7,168.3,817.1,168.8z"/>
		<path d="M821.1,164.8c-0.6,0.6-1.5,0.6-2,0c-0.6-0.6-0.6-1.5,0-2c0.6-0.6,1.5-0.6,2,0
			C821.7,163.3,821.7,164.2,821.1,164.8z"/>
		<path d="M825.1,160.8c-0.6,0.6-1.5,0.6-2,0c-0.6-0.6-0.6-1.5,0-2c0.6-0.6,1.5-0.6,2,0
			C825.7,159.2,825.7,160.2,825.1,160.8z"/>
		<path d="M829.1,156.8c-0.6,0.6-1.5,0.6-2,0c-0.6-0.6-0.6-1.5,0-2c0.6-0.6,1.5-0.6,2,0
			C829.7,155.2,829.7,156.2,829.1,156.8z"/>
		<path d="M833.1,152.8c-0.6,0.6-1.5,0.6-2,0c-0.6-0.6-0.6-1.5,0-2c0.6-0.6,1.5-0.6,2,0
			C833.7,151.2,833.7,152.2,833.1,152.8z"/>
		<path d="M821.1,172.8c-0.6,0.6-1.5,0.6-2,0c-0.6-0.6-0.6-1.5,0-2c0.6-0.6,1.5-0.6,2,0
			C821.7,171.4,821.7,172.3,821.1,172.8z"/>
		<path d="M825.1,168.8c-0.6,0.6-1.5,0.6-2,0c-0.6-0.6-0.6-1.5,0-2c0.6-0.6,1.5-0.6,2,0
			C825.7,167.4,825.7,168.3,825.1,168.8z"/>
		<path d="M829.1,164.8c-0.6,0.6-1.5,0.6-2,0c-0.6-0.6-0.6-1.5,0-2c0.6-0.6,1.5-0.6,2,0
			C829.7,163.4,829.7,164.3,829.1,164.8z"/>
		<path d="M833.1,160.8c-0.6,0.6-1.5,0.6-2,0c-0.6-0.6-0.6-1.5,0-2c0.6-0.6,1.5-0.6,2,0
			C833.7,159.2,833.7,160.2,833.1,160.8z"/>
		<path d="M837.1,156.8c-0.6,0.6-1.5,0.6-2,0c-0.6-0.6-0.6-1.5,0-2c0.6-0.6,1.5-0.6,2,0
			C837.7,155.2,837.7,156.2,837.1,156.8z"/>
		<path d="M825.1,177c-0.6,0.6-1.5,0.6-2,0c-0.6-0.6-0.6-1.5,0-2c0.6-0.6,1.5-0.6,2,0
			C825.7,175.4,825.7,176.3,825.1,177z"/>
		<path d="M829.1,172.8c-0.6,0.6-1.5,0.6-2,0c-0.6-0.6-0.6-1.5,0-2c0.6-0.6,1.5-0.6,2,0
			C829.7,171.4,829.7,172.3,829.1,172.8z"/>
		<path d="M833.1,168.8c-0.6,0.6-1.5,0.6-2,0c-0.6-0.6-0.6-1.5,0-2c0.6-0.6,1.5-0.6,2,0
			C833.7,167.4,833.7,168.3,833.1,168.8z"/>
		<path d="M837.1,164.8c-0.6,0.6-1.5,0.6-2,0c-0.6-0.6-0.6-1.5,0-2c0.6-0.6,1.5-0.6,2,0
			C837.7,163.4,837.7,164.3,837.1,164.8z"/>
		<path d="M841.2,160.8c-0.6,0.6-1.5,0.6-2,0c-0.6-0.6-0.6-1.5,0-2c0.6-0.6,1.5-0.6,2,0
			C841.7,159.4,841.7,160.3,841.2,160.8z"/>
		<path d="M829.1,181c-0.6,0.6-1.5,0.6-2,0c-0.6-0.6-0.6-1.5,0-2c0.6-0.6,1.5-0.6,2,0
			C829.7,179.4,829.7,180.3,829.1,181z"/>
		<path d="M833.1,177c-0.6,0.6-1.5,0.6-2,0c-0.6-0.6-0.6-1.5,0-2c0.6-0.6,1.5-0.6,2,0
			C833.7,175.4,833.7,176.3,833.1,177z"/>
		<path d="M837.2,173c-0.6,0.6-1.5,0.6-2,0c-0.6-0.6-0.6-1.5,0-2c0.6-0.6,1.5-0.6,2,0
			C837.7,171.4,837.7,172.3,837.2,173z"/>
		<path d="M841.2,168.8c-0.6,0.6-1.5,0.6-2,0c-0.6-0.6-0.6-1.5,0-2c0.6-0.6,1.5-0.6,2,0S841.7,168.3,841.2,168.8z"/>
		<path d="M845.3,164.8c-0.6,0.6-1.5,0.6-2,0c-0.6-0.6-0.6-1.5,0-2c0.6-0.6,1.5-0.6,2,0
			C845.7,163.4,845.7,164.3,845.3,164.8z"/>
		<path d="M833.2,185c-0.6,0.6-1.5,0.6-2,0c-0.6-0.6-0.6-1.5,0-2c0.6-0.6,1.5-0.6,2,0
			C833.7,183.4,833.7,184.4,833.2,185z"/>
		<path d="M837.2,181c-0.6,0.6-1.5,0.6-2,0c-0.6-0.6-0.6-1.5,0-2c0.6-0.6,1.5-0.6,2,0
			C837.7,179.4,837.7,180.3,837.2,181z"/>
		<path d="M841.2,177c-0.6,0.6-1.5,0.6-2,0c-0.6-0.6-0.6-1.5,0-2c0.6-0.6,1.5-0.6,2,0
			C841.7,175.4,841.7,176.3,841.2,177z"/>
		<path d="M845.3,173c-0.6,0.6-1.5,0.6-2,0c-0.6-0.6-0.6-1.5,0-2c0.6-0.6,1.5-0.6,2,0
			C845.7,171.4,845.9,172.3,845.3,173z"/>
		<path d="M849.3,168.9c-0.6,0.6-1.5,0.6-2,0c-0.6-0.6-0.6-1.5,0-2c0.6-0.6,1.5-0.6,2,0
			C849.9,167.4,849.9,168.3,849.3,168.9z"/>
	</g>
	<animateMotion
		path="M0, 25 0 0"
		begin="1s" 
		dur="2s"
		fill="freeze"/>
</g>
</svg>
