<?xml version="1.0" encoding="utf-8"?>
<!-- Generator: Adobe Illustrator 22.0.0, SVG Export Plug-In . SVG Version: 6.00 Build 0)  -->
<svg version="1.1" id="Layer_1" xmlns="http://www.w3.org/2000/svg" xmlns:xlink="http://www.w3.org/1999/xlink" x="0px" y="0px"
	 viewBox="0 0 763.8 600.5" style="enable-background:new 0 0 763.8 600.5;" xml:space="preserve">
<style type="text/css">
	.hcpanel0{fill:none;stroke:#808080;stroke-width:2;stroke-linecap:round;stroke-linejoin:round;stroke-miterlimit:10;}
	.hcpanel1{fill:none;stroke:#FFFFFF;stroke-width:3;stroke-linecap:round;stroke-linejoin:round;stroke-miterlimit:10;}
	.hcpanel2{fill:none;stroke:#EE5586;stroke-width:2;stroke-linecap:round;stroke-linejoin:round;stroke-miterlimit:10;}
	.hcpanel3{fill:#FFFFFF;stroke:#EE5586;stroke-linecap:round;stroke-linejoin:round;stroke-miterlimit:10;}
	.hcpanel4{fill:none;stroke:#D7D7D7;stroke-linecap:round;stroke-linejoin:round;stroke-miterlimit:10;}
	.hcpanel5{fill:none;stroke:#FFFFFF;stroke-linecap:round;stroke-linejoin:round;stroke-miterlimit:10;}
	.hcpanel6{fill:none;stroke:#808080;stroke-linecap:round;stroke-linejoin:round;stroke-miterlimit:10;}
	.hcpanel7{fill:#FFFFFF;}
</style>
<path class="hcpanel0" d="M77,83.3V38.8c0-11,8.9-20,20-20h630.4c11,0,20,8.9,20,20v461.1c0,11-8.9,20-20,20H691"/>
<path class="hcpanel1" d="M40.6,83.3H671c11,0,20,8.9,20,20v461.1c0,11-8.9,20-20,20H40.6c-11,0-20-8.9-20-20V103.2
	C20.6,92.2,29.5,83.3,40.6,83.3z"/>
<rect x="75.6" y="171" id="svg-concept" class="hcpanel2" width="565.1" height="58.1"/>
<path id="svg-concept" class="hcpanel3" d="M93.8,114.6c0,2.9-2.4,5.3-5.3,5.3c-2.9,0-5.3-2.4-5.3-5.3s2.4-5.3,5.3-5.3C91.5,109.3,93.8,111.7,93.8,114.6z"
	/>
<path class="hcpanel4" d="M119.2,114.6c0,2.9-2.4,5.3-5.3,5.3c-2.9,0-5.3-2.4-5.3-5.3s2.4-5.3,5.3-5.3
	C116.8,109.3,119.2,111.7,119.2,114.6z"/>
<path class="hcpanel4" d="M144.6,114.6c0,2.9-2.4,5.3-5.3,5.3c-2.9,0-5.3-2.4-5.3-5.3s2.4-5.3,5.3-5.3
	C142.2,109.3,144.6,111.7,144.6,114.6z"/>
<path class="hcpanel4" d="M22.1,139.5h667.1"/>
<line class="hcpanel4" x1="639.7" y1="266.7" x2="199.9" y2="266.7"/>
<rect x="200.4" y="302" id="svg-concept" class="hcpanel2" width="40.5" height="35.3"/>
<rect x="346.8" y="302" class="hcpanel4" width="40.5" height="35.3"/>
<rect x="493" y="302" id="svg-concept" class="hcpanel2" width="40.5" height="35.3"/>
<rect x="200.4" y="349.7" class="hcpanel5" width="40.5" height="35.3"/>
<rect x="346.8" y="349.7" id="svg-concept" class="hcpanel2" width="40.5" height="35.3"/>
<rect x="492.8" y="349.7" class="hcpanel5" width="40.5" height="35.3"/>
<line class="hcpanel4" x1="75.6" y1="292.2" x2="176.4" y2="292.2"/>
<line class="hcpanel4" x1="75.6" y1="266.7" x2="176.4" y2="266.7"/>
<line class="hcpanel4" x1="75.6" y1="305" x2="176.4" y2="305"/>
<line class="hcpanel6" x1="261.8" y1="314.5" x2="325.5" y2="314.5"/>
<line class="hcpanel6" x1="261.8" y1="327.3" x2="314.8" y2="327.3"/>
<line class="hcpanel6" x1="406.2" y1="314.5" x2="470" y2="314.5"/>
<line class="hcpanel6" x1="406.2" y1="327.3" x2="459.3" y2="327.3"/>
<line class="hcpanel6" x1="550.7" y1="314.5" x2="614.4" y2="314.5"/>
<line class="hcpanel6" x1="550.7" y1="327.3" x2="603.7" y2="327.3"/>
<line class="hcpanel5" x1="261.8" y1="359.8" x2="325.5" y2="359.8"/>
<line class="hcpanel5" x1="261.8" y1="372.6" x2="314.8" y2="372.6"/>
<line class="hcpanel6" x1="406.2" y1="359.8" x2="470" y2="359.8"/>
<line class="hcpanel6" x1="406.2" y1="372.6" x2="459.3" y2="372.6"/>
<line class="hcpanel5" x1="550.7" y1="359.8" x2="614.4" y2="359.8"/>
<line class="hcpanel5" x1="550.7" y1="372.6" x2="603.7" y2="372.6"/>
<line class="hcpanel4" x1="639.7" y1="425.8" x2="199.9" y2="425.8"/>
<rect x="200.4" y="466.6" class="hcpanel5" width="40.5" height="35.3"/>
<rect x="346.8" y="466.6" id="svg-concept" class="hcpanel2" width="40.5" height="35.3"/>
<rect x="493" y="466.6" class="hcpanel5" width="40.5" height="35.3"/>
<rect x="200.4" y="514.2" id="svg-concept" class="hcpanel2" width="40.5" height="35.3"/>
<rect x="346.8" y="514.2" class="hcpanel4" width="40.5" height="35.3"/>
<rect x="492.8" y="514.2" id="svg-concept" class="hcpanel2" width="40.5" height="35.3"/>
<line class="hcpanel5" x1="261.8" y1="479.1" x2="325.5" y2="479.1"/>
<line class="hcpanel5" x1="261.8" y1="491.9" x2="314.8" y2="491.9"/>
<line class="hcpanel6" x1="406.2" y1="479.1" x2="470" y2="479.1"/>
<line class="hcpanel6" x1="406.2" y1="491.9" x2="459.3" y2="491.9"/>
<line class="hcpanel5" x1="550.7" y1="479.1" x2="614.4" y2="479.1"/>
<line class="hcpanel5" x1="550.7" y1="491.9" x2="603.7" y2="491.9"/>
<line class="hcpanel6" x1="261.8" y1="524.4" x2="325.5" y2="524.4"/>
<line class="hcpanel6" x1="261.8" y1="537.2" x2="314.8" y2="537.2"/>
<line class="hcpanel6" x1="406.2" y1="524.4" x2="470" y2="524.4"/>
<line class="hcpanel6" x1="406.2" y1="537.2" x2="459.3" y2="537.2"/>
<line class="hcpanel6" x1="550.7" y1="524.4" x2="614.4" y2="524.4"/>
<line class="hcpanel6" x1="550.7" y1="537.2" x2="603.7" y2="537.2"/>
<line class="hcpanel4" x1="75.6" y1="317.7" x2="176.4" y2="317.7"/>
<line class="hcpanel4" x1="75.6" y1="330.5" x2="176.4" y2="330.5"/>
<line class="hcpanel4" x1="75.6" y1="343.3" x2="176.4" y2="343.3"/>
<line class="hcpanel6" x1="75.6" y1="356" x2="176.4" y2="356"/>
<line class="hcpanel6" x1="75.6" y1="368.8" x2="176.4" y2="368.8"/>
<line class="hcpanel4" x1="75.6" y1="397.2" x2="176.4" y2="397.2"/>
<line class="hcpanel4" x1="75.6" y1="410" x2="176.4" y2="410"/>
<line class="hcpanel4" x1="75.6" y1="422.8" x2="176.4" y2="422.8"/>
<line class="hcpanel4" x1="75.6" y1="435.5" x2="176.4" y2="435.5"/>
<line class="hcpanel6" x1="75.6" y1="448.3" x2="176.4" y2="448.3"/>
<line class="hcpanel6" x1="75.6" y1="461.1" x2="176.4" y2="461.1"/>
<line class="hcpanel4" x1="75.6" y1="473.9" x2="176.4" y2="473.9"/>
<line class="hcpanel4" x1="75.6" y1="501.9" x2="119.9" y2="501.9"/>
<line class="hcpanel4" x1="75.6" y1="514.7" x2="119.9" y2="514.7"/>
<line class="hcpanel4" x1="75.6" y1="527.4" x2="119.9" y2="527.4"/>
<line class="hcpanel4" x1="75.6" y1="540.2" x2="119.9" y2="540.2"/>
<line class="hcpanel4" x1="132.5" y1="501.9" x2="176.7" y2="501.9"/>
<line class="hcpanel4" x1="132.5" y1="514.7" x2="176.7" y2="514.7"/>
<line class="hcpanel6" x1="132.5" y1="527.4" x2="176.7" y2="527.4"/>
<line class="hcpanel6" x1="132.5" y1="540.2" x2="176.7" y2="540.2"/>
<path class="hcpanel5" d="M523.5,212.1c0,0.4-0.4,0.7-0.9,0.7h-88.2c-0.5,0-0.9-0.3-0.9-0.7v-22.8c0-0.4,0.4-0.7,0.9-0.7h88.2
	c0.5,0,0.9,0.3,0.9,0.7V212.1z"/>
<path class="hcpanel5" d="M612.3,212.1c0,0.4-0.3,0.7-0.7,0.7h-67.8c-0.4,0-0.7-0.3-0.7-0.7v-22.8c0-0.4,0.3-0.7,0.7-0.7h67.8
	c0.4,0,0.7,0.3,0.7,0.7V212.1z"/>
<g>
	<path class="hcpanel7" d="M144.3,200.3l0.1-0.3c0-0.2,0-0.3-0.1-0.4c-0.1-0.1-0.2-0.2-0.4-0.2h-9.9c-0.4,0-0.8-0.1-1.2-0.3
		c-0.3-0.2-0.6-0.4-0.9-0.7c-0.2-0.3-0.4-0.6-0.5-1c-0.1-0.4-0.1-0.8,0-1.2l0.6-2.3h13.4c0.8,0,1.6,0.2,2.3,0.5
		c0.7,0.4,1.3,0.8,1.7,1.4c0.5,0.6,0.8,1.3,0.9,2c0.2,0.8,0.2,1.5,0,2.4l-2.4,8.9c-0.2,0.9-0.7,1.7-1.5,2.2
		c-0.7,0.6-1.6,0.9-2.5,0.9l-9.9,0c-0.9,0-1.7-0.2-2.4-0.6c-0.7-0.4-1.3-0.9-1.8-1.5c-0.5-0.6-0.8-1.3-1-2.1
		c-0.2-0.8-0.2-1.6,0.1-2.4l0.1-0.5c0.1-0.6,0.4-1.1,0.7-1.6c0.3-0.5,0.7-0.9,1.2-1.2c0.4-0.3,0.9-0.6,1.5-0.8
		c0.5-0.2,1.1-0.3,1.7-0.3h8.3l-0.6,2.3c-0.2,0.5-0.5,1-0.9,1.3c-0.4,0.3-1,0.5-1.5,0.5h-3.7c-0.3,0-0.6,0.2-0.7,0.5
		c-0.1,0.2,0,0.4,0.1,0.6c0.1,0.2,0.3,0.3,0.5,0.3h6c0.2,0,0.4-0.1,0.6-0.2c0.2-0.1,0.3-0.3,0.3-0.5l0.1-0.2L144.3,200.3z"/>
	<g>
		<path class="hcpanel7" d="M102.9,194h6.9l-1.1,4.1c-0.2,0.6-0.5,1-0.9,1.4c-0.4,0.3-1,0.5-1.6,0.5h-3.2c-0.7,0-1.4,0.2-1.9,0.6
			c-0.6,0.4-0.9,1-1.2,1.7c-0.1,0.5-0.2,1.1,0,1.6c0.1,0.5,0.3,0.9,0.6,1.3c0.3,0.4,0.6,0.7,1.1,0.9c0.4,0.2,0.9,0.3,1.5,0.3h1.9
			c0.4,0,0.7,0.1,0.9,0.4c0.2,0.3,0.3,0.6,0.2,1l-1.2,4.5h-2.1c-1.5,0-2.8-0.3-4-1c-1.2-0.6-2.2-1.5-3.1-2.5
			c-0.8-1.1-1.4-2.3-1.7-3.6c-0.3-1.3-0.3-2.7,0.1-4.2l0.1-0.5c0.3-1,0.7-1.9,1.2-2.7c0.6-0.8,1.2-1.5,2-2.1c0.8-0.6,1.6-1,2.5-1.4
			C100.9,194.1,101.9,194,102.9,194"/>
		<path class="hcpanel7" d="M106.4,212.3l6-22.5c0.2-0.6,0.5-1,0.9-1.4c0.4-0.3,1-0.5,1.6-0.5h6.4c1.5,0,2.8,0.3,4,1
			c1.2,0.6,2.2,1.5,3.1,2.5c0.8,1.1,1.4,2.3,1.7,3.6c0.3,1.4,0.3,2.7-0.1,4.2l-0.1,0.5c-0.3,1-0.7,1.9-1.2,2.7
			c-0.5,0.8-1.2,1.5-2,2.1c-0.8,0.6-1.6,1-2.5,1.4c-0.9,0.3-1.9,0.5-2.9,0.5h-5.5l1.1-4.1c0.2-0.5,0.5-1,0.9-1.3
			c0.4-0.3,1-0.5,1.6-0.5h1.8c0.7,0,1.4-0.2,2-0.7c0.6-0.4,1-1,1.1-1.7c0.1-0.5,0.2-1,0-1.5c-0.1-0.5-0.3-0.9-0.6-1.3
			c-0.3-0.4-0.6-0.7-1.1-0.9c-0.4-0.2-0.9-0.4-1.5-0.4h-3.4l-4.4,16.5c-0.2,0.5-0.5,1-0.9,1.3c-0.4,0.3-1,0.5-1.5,0.5H106.4z"/>
		<path class="hcpanel7" d="M162.1,194c1.5,0,2.8,0.3,4.1,1c1.2,0.6,2.2,1.5,3.1,2.5c0.8,1.1,1.4,2.3,1.7,3.6c0.3,1.4,0.2,2.7-0.1,4.2
			l-1.5,5.7c-0.1,0.4-0.3,0.7-0.7,1c-0.3,0.2-0.7,0.4-1.1,0.4h-3.3c-0.4,0-0.7-0.1-0.9-0.4c-0.2-0.3-0.3-0.6-0.2-1l1.8-6.9
			c0.1-0.5,0.2-1,0-1.5c-0.1-0.5-0.3-0.9-0.6-1.3c-0.3-0.4-0.7-0.7-1.1-0.9c-0.4-0.2-0.9-0.4-1.5-0.4h-3.4l-3,11
			c-0.1,0.4-0.3,0.7-0.7,1c-0.3,0.2-0.7,0.4-1.1,0.4h-3.3c-0.4,0-0.7-0.1-0.9-0.4c-0.2-0.3-0.3-0.6-0.2-1l4.5-16.9H162.1z"/>
		<path class="hcpanel7" d="M180,199.8c-0.2,0.2-0.4,0.4-0.5,0.7l-1.4,5.2c-0.1,0.3,0,0.5,0.2,0.8c0.2,0.2,0.4,0.4,0.7,0.4h12.6l-1,3.6
			c-0.2,0.5-0.5,1-0.9,1.3c-0.4,0.3-1,0.5-1.5,0.5h-11.5c-0.8,0-1.6-0.2-2.3-0.5c-0.7-0.4-1.3-0.8-1.7-1.4c-0.5-0.6-0.8-1.3-0.9-2
			c-0.2-0.8-0.1-1.5,0.1-2.3l1.9-6.9c0.2-0.8,0.5-1.4,0.9-2.1c0.4-0.6,0.9-1.2,1.5-1.6c0.6-0.4,1.2-0.8,1.9-1.1
			c0.7-0.3,1.5-0.4,2.2-0.4h8.1c0.8,0,1.6,0.2,2.3,0.5c0.7,0.4,1.3,0.8,1.7,1.4c0.5,0.6,0.8,1.3,0.9,2c0.2,0.8,0.1,1.6-0.1,2.3
			l-0.5,2.1c-0.2,0.9-0.7,1.6-1.5,2.2c-0.7,0.6-1.6,0.8-2.5,0.8h-9.2l0.6-2.3c0.1-0.5,0.4-1,0.9-1.3c0.4-0.3,1-0.5,1.6-0.5h3.7
			c0.3,0,0.6-0.2,0.7-0.5l0.1-0.5c0.1-0.2,0-0.4-0.1-0.6c-0.1-0.2-0.3-0.3-0.5-0.3h-5.7C180.5,199.5,180.2,199.6,180,199.8"/>
		<path class="hcpanel7" d="M191.5,212.3l6.1-23c0.1-0.4,0.3-0.7,0.7-1c0.3-0.3,0.7-0.4,1.1-0.4h3.3c0.4,0,0.7,0.1,0.9,0.4
			c0.2,0.3,0.3,0.6,0.2,1l-4.6,16.9c-0.2,0.9-0.6,1.7-1.1,2.4c-0.5,0.7-1.1,1.4-1.8,1.9c-0.7,0.5-1.4,0.9-2.3,1.2
			C193.3,212.2,192.4,212.3,191.5,212.3"/>
	</g>
</g>
<path id="svg-concept" class="hcpanel3" d="M632.9,139.5c0,2.9-2.4,5.3-5.3,5.3c-2.9,0-5.3-2.4-5.3-5.3c0-2.9,2.4-5.3,5.3-5.3
	C630.5,134.2,632.9,136.6,632.9,139.5z"/>
</svg>
