<?xml version="1.0" encoding="utf-8"?>
<!-- Generator: Adobe Illustrator 22.0.0, SVG Export Plug-In . SVG Version: 6.00 Build 0)  -->
<svg version="1.1" id="Layer_1" xmlns="http://www.w3.org/2000/svg" xmlns:xlink="http://www.w3.org/1999/xlink" x="0px" y="0px"
	 viewBox="0 0 608.9 468" style="enable-background:new 0 0 608.9 468;" xml:space="preserve">
<style type="text/css">
	.install0{fill:none;stroke:#ee5586;stroke-linecap:round;stroke-linejoin:round;stroke-miterlimit:10;}
	.install1{fill:none;stroke:#808080;stroke-width:2;stroke-linecap:round;stroke-linejoin:round;stroke-miterlimit:10;}
	.install2{fill:none;stroke:#808080;stroke-linecap:round;stroke-linejoin:round;stroke-miterlimit:10;}
	.install3{fill:none;stroke:#808080;stroke-miterlimit:10;}
	.install4{fill:#FFFFFF;stroke:#808080;stroke-linecap:round;stroke-linejoin:round;stroke-miterlimit:10;}
	.install5{fill:#FFFFFF;stroke:#ee5586;stroke-width:3;stroke-linecap:round;stroke-linejoin:round;stroke-miterlimit:10;}
	.install6{fill:#ee5586;}
	.install7{fill:#FFFFFF;stroke:#ee5586;stroke-width:2;stroke-linecap:round;stroke-linejoin:round;stroke-miterlimit:10;}
	.install8{fill:none;stroke:#EFEFEF;stroke-width:4;stroke-linejoin:round;stroke-miterlimit:10;}
	.install9{fill:#FFFFFF;stroke:#808080;stroke-linecap:round;stroke-linejoin:round;stroke-miterlimit:10;}
	.install10{fill:none;stroke:#808080;stroke-linecap:round;stroke-linejoin:round;stroke-miterlimit:10;}
	.install11{fill:#FFFFFF;}
	.install12{fill:none;stroke:#ee5586;stroke-width:2;stroke-linecap:round;stroke-linejoin:round;stroke-miterlimit:10;}
</style>
<g>
	<path class="install4" d="M21.2,461.7c-7.4,0-13.3-5.5-13.3-12.2V18.2c0-6.7,6-12.2,13.3-12.2h47.2c7.4,0,13.3,5.5,13.3,12.2v431.4
		c0,6.7-6,12.2-13.3,12.2H21.2z"/>
	<path class="install4" d="M81.7,18.2l91.9,65.4c5.1,3.2,9.2,8.3,9.2,18.4v271.2c0,10.1-3.6,14.5-9.2,18.4l-91.9,58"/>
	<path id="svg-concept" class="install0" d="M50.2,126.3v-3.6c0-0.7,0.5-1.2,1.2-1.2H55c0.7,0,1.2,0.5,1.2,1.2v3.6c0,0.7-0.5,1.2-1.2,1.2h-3.6
		C50.7,127.5,50.2,127,50.2,126.3z"/>
	<path id="svg-concept" class="install0" d="M27.6,118.9V114c0-0.9,0.8-1.7,1.7-1.7h4.9c0.9,0,1.7,0.8,1.7,1.7v4.9c0,0.9-0.8,1.7-1.7,1.7h-4.9
		C28.4,120.6,27.6,119.8,27.6,118.9z"/>
	<path id="svg-concept" class="install0" d="M50.2,229.2v-3.6c0-0.7,0.5-1.2,1.2-1.2H55c0.7,0,1.2,0.5,1.2,1.2v3.6c0,0.7-0.5,1.2-1.2,1.2h-3.6
		C50.7,230.5,50.2,229.9,50.2,229.2z"/>
	<path id="svg-concept" class="install0" d="M27.6,221.8v-4.9c0-0.9,0.8-1.7,1.7-1.7h4.9c0.9,0,1.7,0.8,1.7,1.7v4.9c0,0.9-0.8,1.7-1.7,1.7h-4.9
		C28.4,223.5,27.6,222.8,27.6,221.8z"/>
	<path id="svg-concept" class="install0" d="M50.2,332.2v-3.6c0-0.7,0.5-1.2,1.2-1.2H55c0.7,0,1.2,0.5,1.2,1.2v3.6c0,0.7-0.5,1.2-1.2,1.2h-3.6
		C50.7,333.4,50.2,332.8,50.2,332.2z"/>
	<path id="svg-concept" class="install0" d="M27.6,324.8v-4.9c0-0.9,0.8-1.7,1.7-1.7h4.9c0.9,0,1.7,0.8,1.7,1.7v4.9c0,0.9-0.8,1.7-1.7,1.7h-4.9
		C28.4,326.5,27.6,325.7,27.6,324.8z"/>
	<path id="svg-concept" class="install0" d="M44.8,404.3c-8.7,0-15.8-7.1-15.8-15.8c0-8.7,7.1-15.8,15.8-15.8s15.8,7.1,15.8,15.8
		C60.6,397.2,53.5,404.3,44.8,404.3z"/>
	<path id="svg-concept" class="install0" d="M44.8,394.4c-3.2,0-5.9-2.6-5.9-5.9c0-3.2,2.6-5.9,5.9-5.9c3.2,0,5.9,2.6,5.9,5.9
		C50.6,391.8,48,394.4,44.8,394.4z"/>
	<line id="svg-concept" class="install0" x1="44.8" y1="404.3" x2="44.8" y2="394.4"/>
	<line id="svg-concept" class="install0" x1="44.8" y1="382.7" x2="44.8" y2="372.7"/>
	<line class="install2" x1="81.7" y1="31.1" x2="8.1" y2="31.1"/>
	<line class="install2" x1="81.7" y1="436.6" x2="7.8" y2="436.6"/>
	<path class="install2" d="M21.9,123.5v-80c0-2.2,1.8-4,4-4h11.7c2.2,0,4,1.8,4,4v80c0,2.2-1.8,4-4,4H25.9
		C23.7,127.5,21.9,125.7,21.9,123.5z"/>
	<path class="install2" d="M50.2,51.5v-3.6c0-0.7,0.5-1.2,1.2-1.2H55c0.7,0,1.2,0.5,1.2,1.2v3.6c0,0.7-0.5,1.2-1.2,1.2l-3.6,0
		C50.7,52.7,50.2,52.1,50.2,51.5z"/>
	<path class="install2" d="M50.2,63.5v-3.6c0-0.7,0.5-1.2,1.2-1.2H55c0.7,0,1.2,0.5,1.2,1.2v3.6c0,0.7-0.5,1.2-1.2,1.2h-3.6
		C50.7,64.7,50.2,64.2,50.2,63.5z"/>
	<path class="install2" d="M50.2,80.5v-3.6c0-0.7,0.5-1.2,1.2-1.2H55c0.7,0,1.2,0.5,1.2,1.2v3.6c0,0.7-0.5,1.2-1.2,1.2h-3.6
		C50.7,81.7,50.2,81.2,50.2,80.5z"/>
	<path class="install2" d="M63.2,51.5v-3.6c0-0.7,0.5-1.2,1.2-1.2H68c0.7,0,1.2,0.5,1.2,1.2v3.6c0,0.7-0.5,1.2-1.2,1.2l-3.6,0
		C63.8,52.7,63.2,52.1,63.2,51.5z"/>
	<path class="install2" d="M63.2,63.5v-3.6c0-0.7,0.5-1.2,1.2-1.2H68c0.7,0,1.2,0.5,1.2,1.2v3.6c0,0.7-0.5,1.2-1.2,1.2h-3.6
		C63.8,64.7,63.2,64.2,63.2,63.5z"/>
	<path class="install2" d="M63.2,126.1v-3.6c0-0.7,0.5-1.2,1.2-1.2H68c0.7,0,1.2,0.5,1.2,1.2v3.6c0,0.7-0.5,1.2-1.2,1.2h-3.6
		C63.8,127.4,63.2,126.8,63.2,126.1z"/>
	<path class="install2" d="M50.2,92.5V89c0-0.7,0.5-1.2,1.2-1.2H55c0.7,0,1.2,0.5,1.2,1.2v3.6c0,0.7-0.5,1.2-1.2,1.2h-3.6
		C50.7,93.8,50.2,93.2,50.2,92.5z"/>
	<path class="install2" d="M50.2,104.4v-3.6c0-0.7,0.5-1.2,1.2-1.2H55c0.7,0,1.2,0.5,1.2,1.2v3.6c0,0.7-0.5,1.2-1.2,1.2h-3.6
		C50.7,105.6,50.2,105.1,50.2,104.4z"/>
	<path class="install2" d="M50.2,104.6V101c0-0.7,0.5-1.2,1.2-1.2H55c0.7,0,1.2,0.5,1.2,1.2v3.6c0,0.7-0.5,1.2-1.2,1.2h-3.6
		C50.7,105.8,50.2,105.3,50.2,104.6z"/>
	<path class="install2" d="M63.2,104.6l0-26.6c0-0.7,0.5-1.2,1.2-1.2H68c0.7,0,1.2,0.5,1.2,1.2l0,26.6c0,0.7-0.5,1.2-1.2,1.2h-3.6
		C63.8,105.8,63.2,105.3,63.2,104.6z"/>
	<line class="install2" x1="41.6" y1="70.5" x2="21.9" y2="70.5"/>
	<path class="install2" d="M27.6,103.6v-4.9c0-0.9,0.8-1.7,1.7-1.7h4.9c0.9,0,1.7,0.8,1.7,1.7v4.9c0,0.9-0.8,1.7-1.7,1.7h-4.9
		C28.4,105.3,27.6,104.5,27.6,103.6z"/>
	<path class="install2" d="M21.9,226.5v-80c0-2.2,1.8-4,4-4h11.7c2.2,0,4,1.8,4,4v80c0,2.2-1.8,4-4,4H25.9
		C23.7,230.5,21.9,228.7,21.9,226.5z"/>
	<path class="install2" d="M50.2,154.4v-3.6c0-0.7,0.5-1.2,1.2-1.2H55c0.7,0,1.2,0.5,1.2,1.2v3.6c0,0.7-0.5,1.2-1.2,1.2h-3.6
		C50.7,155.6,50.2,155.1,50.2,154.4z"/>
	<path class="install2" d="M50.2,166.5v-3.6c0-0.7,0.5-1.2,1.2-1.2H55c0.7,0,1.2,0.5,1.2,1.2v3.6c0,0.7-0.5,1.2-1.2,1.2h-3.6
		C50.7,167.7,50.2,167.1,50.2,166.5z"/>
	<path class="install2" d="M50.2,183.4v-3.6c0-0.7,0.5-1.2,1.2-1.2H55c0.7,0,1.2,0.5,1.2,1.2v3.6c0,0.7-0.5,1.2-1.2,1.2h-3.6
		C50.7,184.7,50.2,184.1,50.2,183.4z"/>
	<path class="install2" d="M63.2,154.4v-3.6c0-0.7,0.5-1.2,1.2-1.2H68c0.7,0,1.2,0.5,1.2,1.2v3.6c0,0.7-0.5,1.2-1.2,1.2h-3.6
		C63.8,155.6,63.2,155.1,63.2,154.4z"/>
	<path class="install2" d="M63.2,166.5v-3.6c0-0.7,0.5-1.2,1.2-1.2H68c0.7,0,1.2,0.5,1.2,1.2v3.6c0,0.7-0.5,1.2-1.2,1.2h-3.6
		C63.8,167.7,63.2,167.1,63.2,166.5z"/>
	<path class="install2" d="M63.2,229.1v-3.6c0-0.7,0.5-1.2,1.2-1.2H68c0.7,0,1.2,0.5,1.2,1.2v3.6c0,0.7-0.5,1.2-1.2,1.2h-3.6
		C63.8,230.3,63.2,229.7,63.2,229.1z"/>
	<path class="install2" d="M50.2,195.5v-3.6c0-0.7,0.5-1.2,1.2-1.2H55c0.7,0,1.2,0.5,1.2,1.2v3.6c0,0.7-0.5,1.2-1.2,1.2h-3.6
		C50.7,196.7,50.2,196.2,50.2,195.5z"/>
	<path class="install2" d="M50.2,207.3v-3.6c0-0.7,0.5-1.2,1.2-1.2H55c0.7,0,1.2,0.5,1.2,1.2v3.6c0,0.7-0.5,1.2-1.2,1.2h-3.6
		C50.7,208.6,50.2,208,50.2,207.3z"/>
	<path class="install2" d="M50.2,207.5V204c0-0.7,0.5-1.2,1.2-1.2H55c0.7,0,1.2,0.5,1.2,1.2v3.6c0,0.7-0.5,1.2-1.2,1.2h-3.6
		C50.7,208.8,50.2,208.2,50.2,207.5z"/>
	<path class="install2" d="M63.2,207.5l0-26.6c0-0.7,0.5-1.2,1.2-1.2H68c0.7,0,1.2,0.5,1.2,1.2l0,26.6c0,0.7-0.5,1.2-1.2,1.2h-3.6
		C63.8,208.7,63.2,208.2,63.2,207.5z"/>
	<line class="install2" x1="41.6" y1="173.5" x2="21.9" y2="173.5"/>
	<path class="install2" d="M27.6,206.6v-4.9c0-0.9,0.8-1.7,1.7-1.7h4.9c0.9,0,1.7,0.8,1.7,1.7v4.9c0,0.9-0.8,1.7-1.7,1.7h-4.9
		C28.4,208.2,27.6,207.5,27.6,206.6z"/>
	<path class="install2" d="M21.9,329.4v-80c0-2.2,1.8-4,4-4h11.7c2.2,0,4,1.8,4,4v80c0,2.2-1.8,4-4,4H25.9
		C23.7,333.4,21.9,331.6,21.9,329.4z"/>
	<path class="install2" d="M50.2,257.3v-3.6c0-0.7,0.5-1.2,1.2-1.2H55c0.7,0,1.2,0.5,1.2,1.2v3.6c0,0.7-0.5,1.2-1.2,1.2h-3.6
		C50.7,258.6,50.2,258,50.2,257.3z"/>
	<path class="install2" d="M50.2,269.4v-3.6c0-0.7,0.5-1.2,1.2-1.2H55c0.7,0,1.2,0.5,1.2,1.2v3.6c0,0.7-0.5,1.2-1.2,1.2h-3.6
		C50.7,270.6,50.2,270.1,50.2,269.4z"/>
	<path class="install2" d="M50.2,286.4v-3.6c0-0.7,0.5-1.2,1.2-1.2H55c0.7,0,1.2,0.5,1.2,1.2v3.6c0,0.7-0.5,1.2-1.2,1.2h-3.6
		C50.7,287.6,50.2,287,50.2,286.4z"/>
	<path class="install2" d="M63.2,257.3v-3.6c0-0.7,0.5-1.2,1.2-1.2H68c0.7,0,1.2,0.5,1.2,1.2v3.6c0,0.7-0.5,1.2-1.2,1.2h-3.6
		C63.8,258.6,63.2,258,63.2,257.3z"/>
	<path class="install2" d="M63.2,269.4v-3.6c0-0.7,0.5-1.2,1.2-1.2H68c0.7,0,1.2,0.5,1.2,1.2v3.6c0,0.7-0.5,1.2-1.2,1.2h-3.6
		C63.8,270.6,63.2,270.1,63.2,269.4z"/>
	<path class="install2" d="M63.2,332v-3.6c0-0.7,0.5-1.2,1.2-1.2H68c0.7,0,1.2,0.5,1.2,1.2v3.6c0,0.7-0.5,1.2-1.2,1.2h-3.6
		C63.8,333.2,63.2,332.7,63.2,332z"/>
	<path class="install2" d="M50.2,298.4v-3.6c0-0.7,0.5-1.2,1.2-1.2H55c0.7,0,1.2,0.5,1.2,1.2v3.6c0,0.7-0.5,1.2-1.2,1.2h-3.6
		C50.7,299.6,50.2,299.1,50.2,298.4z"/>
	<path class="install2" d="M50.2,310.3v-3.6c0-0.7,0.5-1.2,1.2-1.2H55c0.7,0,1.2,0.5,1.2,1.2v3.6c0,0.7-0.5,1.2-1.2,1.2h-3.6
		C50.7,311.5,50.2,310.9,50.2,310.3z"/>
	<path class="install2" d="M50.2,310.5v-3.6c0-0.7,0.5-1.2,1.2-1.2H55c0.7,0,1.2,0.5,1.2,1.2v3.6c0,0.7-0.5,1.2-1.2,1.2h-3.6
		C50.7,311.7,50.2,311.1,50.2,310.5z"/>
	<path id="svg-concept" class="install0" d="M30.8,426.4c-2.6,0-4.7-2.1-4.7-4.7c0-2.6,2.1-4.7,4.7-4.7s4.6,2.1,4.6,4.7C35.5,424.3,33.4,426.4,30.8,426.4z
		"/>
	<path class="install2" d="M44,423.6V420c0-0.7,0.5-1.2,1.2-1.2h3.6c0.7,0,1.2,0.5,1.2,1.2v3.6c0,0.7-0.5,1.2-1.2,1.2h-3.6
		C44.6,424.8,44,424.2,44,423.6z"/>
	<path class="install2" d="M57.3,423.6V420c0-0.7,0.5-1.2,1.2-1.2h3.6c0.7,0,1.2,0.5,1.2,1.2v3.6c0,0.7-0.5,1.2-1.2,1.2h-3.6
		C57.9,424.8,57.3,424.2,57.3,423.6z"/>
	<path class="install2" d="M63.2,310.5l0-26.6c0-0.7,0.5-1.2,1.2-1.2H68c0.7,0,1.2,0.5,1.2,1.2l0,26.6c0,0.7-0.5,1.2-1.2,1.2h-3.6
		C63.8,311.7,63.2,311.1,63.2,310.5z"/>
	<line class="install2" x1="41.6" y1="276.4" x2="21.9" y2="276.4"/>
	<path class="install2" d="M27.6,309.5v-4.9c0-0.9,0.8-1.7,1.7-1.7h4.9c0.9,0,1.7,0.8,1.7,1.7v4.9c0,0.9-0.8,1.7-1.7,1.7h-4.9
		C28.4,311.2,27.6,310.4,27.6,309.5z"/>
	<line class="install2" x1="81.7" y1="135.9" x2="7.8" y2="135.9"/>
	<line class="install2" x1="167.3" y1="117.5" x2="167.3" y2="102.6"/>
	<line class="install2" x1="161.6" y1="113.7" x2="161.6" y2="99.4"/>
	<line class="install2" x1="155.5" y1="110" x2="155.5" y2="95.6"/>
	<line class="install2" x1="149.5" y1="106.3" x2="149.5" y2="91.9"/>
	<line class="install2" x1="143.5" y1="102.4" x2="143.5" y2="88.1"/>
	<line class="install2" x1="57" y1="20.2" x2="35" y2="20.2"/>
	<line class="install2" x1="57" y1="447.7" x2="35" y2="447.7"/>
	<line class="install2" x1="81.7" y1="238.2" x2="7.8" y2="238.2"/>
	<line class="install2" x1="81.7" y1="340.4" x2="7.8" y2="340.4"/>
	
	<path class="install2" d="M7.8,434.2"/>
	<path class="install2" d="M7.8,35.5"/>
	<path class="install2" d="M149.4,309.9v56.7c0,3.4,2.9,7.2,6.1,6.1l6-2.2c4-1.1,5.8-4.2,5.8-7.6v-53c0-3.4-2.8-6.1-6.1-6.1h-5.6
		C152.2,303.8,149.4,306.5,149.4,309.9z"/>
</g>
<line class="install3" x1="143.5" y1="238.2" x2="274" y2="238.2"/>
<path class="install4" d="M600.5,360.7H282c-4.4,0-8-3.6-8-8v-229c0-4.4,3.6-8,8-8h318.5c4.4,0,8,3.6,8,8v229
	C608.5,357.1,604.9,360.7,600.5,360.7z"/>
<line id="svg-concept" class="install5" x1="343.1" y1="238.2" x2="539.4" y2="238.2"/>
<circle id="svg-ico" class="install6" cx="274" cy="238.2" r="3.7"/>
<circle id="svg-ico" class="install6" cx="143.5" cy="238.2" r="3.7"/>

<g>
<path id="svg-concept" class="install7" d="M213.7,238.2c0,2.7-2.2,4.9-4.9,4.9c-2.7,0-4.9-2.2-4.9-4.9c0-2.7,2.2-4.9,4.9-4.9
	C211.5,233.3,213.7,235.4,213.7,238.2z"/>
	<animateMotion
		path="M53, 0 53 0 -53 0 53 0"
		begin="0s" 
		dur="2s" 
		repeatCount="indefinite"/>
</g>

<g>
<line class="install8" x1="361.3" y1="238.2" x2="541.1" y2="238.2"/>
	<animateMotion
		path="M0, 0 200 0 -200"
		begin="0s" 
		dur="5s" 
		repeatCount="indefinite"/>
</g>

<path class="install9" d="M595.7,122.8H286.8c-3.7,0-6.7,3-6.7,6.7v217.3c0,3.7,3,6.7,6.7,6.7h308.8c3.7,0,6.7-3,6.7-6.7V129.5
	C602.4,125.8,599.4,122.8,595.7,122.8z M551.7,248c0,1.4-1.1,2.5-2.5,2.5h-216c-1.4,0-2.5-1.1-2.5-2.5v-19.6c0-1.4,1.1-2.5,2.5-2.5
	h216c1.3,0,2.5,1.1,2.5,2.5V248z"/>

<g>
	<path class="install2" d="M551.7,248c0,1.4-1.1,2.5-2.5,2.5h-216c-1.4,0-2.5-1.1-2.5-2.5v-19.6c0-1.4,1.1-2.5,2.5-2.5h216
		c1.3,0,2.5,1.1,2.5,2.5V248z"/>
	<line class="install10" x1="330.8" y1="196.7" x2="498.2" y2="196.7"/>
	<line class="install10" x1="330.8" y1="178.6" x2="384.5" y2="178.6"/>
	<line class="install10" x1="391.5" y1="178.6" x2="424.5" y2="178.6"/>
	<line class="install10" x1="431.4" y1="178.6" x2="452.9" y2="178.6"/>
	<line class="install10" x1="523.6" y1="140.8" x2="556.6" y2="140.8"/>
	<line class="install10" x1="563.6" y1="140.8" x2="585.1" y2="140.8"/>
	<line class="install10" x1="391.5" y1="311.7" x2="330.8" y2="311.7"/>
	<line class="install10" x1="458.5" y1="311.7" x2="397.8" y2="311.7"/>
	<line class="install10" x1="504.7" y1="329.7" x2="403.1" y2="329.7"/>
	<line class="install10" x1="395.5" y1="329.7" x2="362.5" y2="329.7"/>
	<line class="install10" x1="352.3" y1="329.7" x2="330.8" y2="329.7"/>
</g>
<rect x="603" y="232.6" class="install11" width="4.9" height="11.2"/>
<line class="install4" x1="608.5" y1="232.6" x2="608.5" y2="243.8"/>
<g>
	<path id="svg-concept" class="install12" d="M536.1,161.2c-7,0.8-12.4,6.7-12.4,14c0,7.8,6.3,14.1,14.1,14.1c7.8,0,14.1-6.3,14.1-14.1
		c0-7.2-5.4-13.2-12.4-14"/>
	<polyline id="svg-concept" class="install12" points="542.7,167.8 537.7,182.5 531,179.2"/>
</g>
<rect x="541.1" y="234.7" class="install11" width="9.9" height="8.4"/>
</svg>
