<?xml version="1.0" encoding="utf-8"?>
<!-- Generator: Adobe Illustrator 22.0.0, SVG Export Plug-In . SVG Version: 6.00 Build 0)  -->
<svg version="1.1" id="Layer_1" xmlns="http://www.w3.org/2000/svg" xmlns:xlink="http://www.w3.org/1999/xlink" x="0px" y="0px"
	 viewBox="0 0 408.8 419.6" style="enable-background:new 0 0 408.8 419.6;" xml:space="preserve">
<style type="text/css">
	.kanga0{fill:none;stroke:#ee5586;stroke-width:3;stroke-linecap:round;stroke-linejoin:round;stroke-miterlimit:10;}
	.kanga1{fill:none;stroke:#808080;stroke-linecap:round;stroke-linejoin:round;stroke-miterlimit:10;}
</style>
<path id="svg-concept" class="kanga0" d="M204.3,130.2c0,0,9.4-9.4,30.1-0.7C279.9,21.7,390.4-4.4,403.1,4.3s-40.2,141.9-82.3,151.9
	c-42.2,10-27.4,61.3-27.4,61.3l0.1,0.1c7,13.7,10.9,29.1,10.9,45.5c0,34.6-17.5,65-44.1,83l-0.6,0.5c1,4.2,1.5,8.3,1.5,12.8
	c0,31.4-25.4,56.8-56.8,56.8s-56.8-25.4-56.8-56.8c0-4.4,0.5-8.6,1.4-12.7l0.1-0.2c-27-17.9-44.8-48.6-44.8-83.5
	c0-16.4,3.9-31.8,10.9-45.5l0.1-0.2c0,0,15-51.3-27.2-61.3C45.6,146.2-7.2,13,5.5,4.3s123.2,17.4,168.7,125.2
	C194.9,120.8,204.3,130.2,204.3,130.2"/>
<path class="kanga1" d="M94.2,51.2c0,0,46.1,37.7,32.5,112"/>
<path class="kanga1" d="M311.5,51.2c0,0-46.1,37.7-32.5,112"/>
<path class="kanga1" d="M170.6,283.5c8.5,72.7-27.5,73.4,0,105.5"/>
<path class="kanga1" d="M238.1,283.5c-8.5,72.7,27.5,73.4,0,105.5"/>
<path class="kanga1" d="M229.8,350.4c13.6,41-25.7,25.5-25.7,53c0-27.3-39.1-9.7-27.2-53.1c0,0,10.9,22.3,27.2,22.3
	S229.8,350.4,229.8,350.4z"/>
<path class="kanga1" d="M150.2,239.9c0.5,1.2,0.8,2.5,0.8,3.8c0,5.1-4.2,9.3-9.3,9.3c-5.1,0-9.3-4.2-9.3-9.3c0-3.8,2.3-7.1,5.6-8.5"/>
<path class="kanga1" d="M267.3,235c3.5,1.3,6,4.7,6,8.7c0,5.1-4.2,9.3-9.3,9.3c-5.1,0-9.3-4.2-9.3-9.3c0-1.1,0.2-2.2,0.5-3.2"/>
<path class="kanga1" d="M123.5,225.6c0,0-6.2-20.8,35-20.8"/>
<path class="kanga1" d="M283.4,225.6c0,0,6.2-20.8-35-20.8"/>
<path class="kanga1" d="M151.4,270c0,0-26.9,22-26.9-6.8"/>
<path class="kanga1" d="M254.3,270c0,0,26.9,22,26.9-6.8"/>
<path class="kanga1" d="M123.2,234.4c13.4,3.4-1.5,14.7,10.7,23c12.2,7.1,22-9.9,27.5-4.4C150.3,229.1,123.2,234.4,123.2,234.4z"/>
<path class="kanga1" d="M283.5,234.4c-13.4,3.4,1.5,14.7-10.7,23c-12.2,7.1-22-9.9-27.5-4.4C256.3,229.1,283.5,234.4,283.5,234.4z"/>
</svg>
