<?xml version="1.0" encoding="utf-8"?>
<!-- Generator: Adobe Illustrator 22.0.0, SVG Export Plug-In . SVG Version: 6.00 Build 0)  -->
<svg version="1.1" id="Layer_1" xmlns="http://www.w3.org/2000/svg" xmlns:xlink="http://www.w3.org/1999/xlink" x="0px" y="0px"
	 viewBox="0 0 412.8 419.6" style="enable-background:new 0 0 412.8 419.6;" xml:space="preserve">
<style type="text/css">
	.lion0{fill:none;stroke:#ee5586;stroke-width:3;stroke-linecap:round;stroke-linejoin:round;stroke-miterlimit:10;}
	.lion1{fill:none;stroke:#ee5586;stroke-width:2;stroke-linecap:round;stroke-linejoin:round;stroke-miterlimit:10;}
	.lion2{fill:none;stroke:#808080;stroke-linecap:round;stroke-linejoin:round;stroke-miterlimit:10;}
</style>
<path id="svg-concept" class="lion0" d="M205.2,415.3c0,0,143-60.8,156.4-189.8c12.5,16.1,18.8,48.4,18.8,48.4s52.2-101.7-9.2-176.2
	c21.6,4.7,35.1,17.3,35.1,17.3S376,13.3,261.1,32C273.4,11.2,293,4.8,293,4.8s-44.1-6-87.6,42.6l-0.7,0.8
	C161.2-0.3,116.4,4.8,116.4,4.8S136,11.2,148.2,32C33.4,13.3,3,115,3,115s13.6-12.7,35.1-17.3c-61.4,74.5-9.2,176.2-9.2,176.2
	s6.3-32.3,18.8-48.4c13.4,129,157,189.9,157,189.9L205.2,415.3z"/>
<polygon id="svg-concept" class="lion1" points="173.1,307.9 204.7,334.7 238.5,307.9 204.7,293.5 "/>
<path class="lion2" d="M249.6,96.9c12.9-15.4,54-25.3,53.5-13.4c-0.5,11.9-16.3,36.7-16.3,36.7l43.1,38.1l-60.4,75.8l4,53L247.2,300
	l-42.5-19.2L162.2,300L136,287.1l4-53l-60.4-75.8l43.1-38.1c0,0-15.9-24.8-16.3-36.7s40.6-2,53.5,13.4l45-20.8L249.6,96.9z"/>
<line class="lion2" x1="204.7" y1="260.2" x2="204.7" y2="280.7"/>
<polygon id="svg-concept" class="lion1" points="181.6,238.8 204.7,253.8 229,238.8 "/>
<polygon class="lion2" points="181.6,167.8 173.1,208.2 170.9,175.8 159.5,181 138.7,157.1 "/>
<polygon class="lion2" points="229,167.8 237.5,208.2 239.7,175.8 251,181 271.8,157.1 "/>
<path class="lion2" d="M130.5,113.7l19.6-11C133.5,90.4,117.3,87.1,130.5,113.7z"/>
<path class="lion2" d="M279.2,113.7l-19.6-11C276.2,90.4,292.4,87.1,279.2,113.7z"/>
</svg>
