<?xml version="1.0" encoding="utf-8"?>
<!-- Generator: Adobe Illustrator 22.0.0, SVG Export Plug-In . SVG Version: 6.00 Build 0)  -->
<svg version="1.1" id="Layer_1" xmlns="http://www.w3.org/2000/svg" xmlns:xlink="http://www.w3.org/1999/xlink" x="0px" y="0px"
	 viewBox="0 0 674.4 597" style="enable-background:new 0 0 674.4 597;" xml:space="preserve">
<style type="text/css">
	.mo0{fill:#FFFFFF;stroke:#ee5586;stroke-linecap:round;stroke-linejoin:round;stroke-miterlimit:10;}
	.mo1{fill:none;stroke:#D8D8D8;stroke-miterlimit:10;}
	.mo2{fill:none;stroke:#808080;stroke-linecap:round;stroke-linejoin:round;stroke-miterlimit:10;}
	.mo3{fill:none;stroke:#ee5586;stroke-linecap:round;stroke-linejoin:round;stroke-miterlimit:10;}
	.mo4{fill:none;stroke:#808080;stroke-miterlimit:10;}
	.mo5{fill:none;stroke:#D8D8D8;stroke-linecap:round;stroke-linejoin:round;stroke-miterlimit:10;}
	.mo6{fill:none;stroke:#EFEFEF;stroke-linecap:round;stroke-linejoin:round;}
	.mo7{fill:none;stroke:#EFEFEF;stroke-linecap:round;stroke-linejoin:round;stroke-dasharray:2.9819,2.9819;}
	.mo8{fill:none;stroke:#ee5586;stroke-width:3;stroke-linecap:round;stroke-linejoin:round;stroke-miterlimit:10;}
	.mo9{fill:#FFFFFF;stroke:#808080;stroke-linecap:round;stroke-linejoin:round;stroke-miterlimit:10;}
	.mo10{fill:#FFFFFF;stroke:#ee5586;stroke-width:2;stroke-linecap:round;stroke-linejoin:round;stroke-miterlimit:10;}
</style>
<path class="mo9" d="M176.5,81.5h444.9c22,0,40,18,40,40v420c0,22-18,40-40,40h-570c-22,0-40-18-40-40v-420c0-22,18-40,40-40h50.1"
/>
<g>
	<g>
		<path id="svg-concept" class="mo0" d="M601.8,161.9c0,1-0.7,1.7-1.6,1.7h-56.5c-0.9,0-1.6-0.8-1.6-1.7v-6.2c0-1,0.7-1.7,1.6-1.7h56.5
			c0.9,0,1.6,0.8,1.6,1.7V161.9z"/>
		<path id="svg-concept" class="mo0" d="M594.3,158.8c0,1.1-0.9,2.1-2.1,2.1c-1.1,0-2.1-0.9-2.1-2.1c0-1.1,0.9-2.1,2.1-2.1
			C593.4,156.7,594.3,157.7,594.3,158.8z"/>
	</g>
	<g>
		<path id="svg-concept" class="mo0" d="M601.8,200.5c0,1-0.7,1.7-1.6,1.7h-56.5c-0.9,0-1.6-0.8-1.6-1.7v-6.2c0-1,0.7-1.7,1.6-1.7h56.5
			c0.9,0,1.6,0.8,1.6,1.7V200.5z"/>
		<path id="svg-concept" class="mo0" d="M594.3,197.4c0,1.1-0.9,2.1-2.1,2.1c-1.1,0-2.1-0.9-2.1-2.1c0-1.1,0.9-2.1,2.1-2.1
			C593.4,195.3,594.3,196.2,594.3,197.4z"/>
	</g>
	<g>
		<path id="svg-concept" class="mo0" d="M601.8,213.3c0,1-0.7,1.7-1.6,1.7h-56.5c-0.9,0-1.6-0.8-1.6-1.7v-6.2c0-1,0.7-1.7,1.6-1.7h56.5
			c0.9,0,1.6,0.8,1.6,1.7V213.3z"/>
		<path id="svg-concept" class="mo0" d="M594.3,210.2c0,1.1-0.9,2.1-2.1,2.1c-1.1,0-2.1-0.9-2.1-2.1c0-1.1,0.9-2.1,2.1-2.1
			C593.4,208.2,594.3,209.1,594.3,210.2z"/>
	</g>
	<g>
		<path id="svg-concept" class="mo0" d="M510.4,149c0,1-0.7,1.7-1.6,1.7h-56.5c-0.9,0-1.6-0.8-1.6-1.7v-6.2c0-1,0.7-1.7,1.6-1.7h56.5
			c0.9,0,1.6,0.8,1.6,1.7V149z"/>
		<path id="svg-concept" class="mo0" d="M502.9,145.9c0,1.1-0.9,2.1-2.1,2.1c-1.1,0-2.1-0.9-2.1-2.1c0-1.1,0.9-2.1,2.1-2.1
			C502,143.9,502.9,144.8,502.9,145.9z"/>
	</g>
	<g>
		<path id="svg-concept" class="mo0" d="M510.4,161.9c0,1-0.7,1.7-1.6,1.7h-56.5c-0.9,0-1.6-0.8-1.6-1.7v-6.2c0-1,0.7-1.7,1.6-1.7h56.5
			c0.9,0,1.6,0.8,1.6,1.7V161.9z"/>
		<path id="svg-concept" class="mo0" d="M502.9,158.8c0,1.1-0.9,2.1-2.1,2.1c-1.1,0-2.1-0.9-2.1-2.1c0-1.1,0.9-2.1,2.1-2.1
			C502,156.7,502.9,157.7,502.9,158.8z"/>
	</g>
	<path class="mo1" d="M608.5,492.5c1.6,14-8.5,26.7-22.5,28.3c-14,1.6-26.7-8.5-28.3-22.5c-1.6-14,8.5-26.7,22.5-28.3
		C594.3,468.4,606.9,478.5,608.5,492.5z"/>
	<path class="mo2" d="M565.8,508.1c-2.2-2.9-3.6-6.5-4.1-10.4c-1.3-11.8,7.2-22.4,18.9-23.8c7.9-0.9,15.3,2.6,19.7,8.6"/>
	<line id="svg-concept" class="mo3" x1="599.5" y1="495.2" x2="583.3" y2="495.4"/>
	<line class="mo2" x1="589.7" y1="475" x2="589" y2="477.2"/>
	<line id="svg-concept" class="mo3" x1="600.4" y1="482.7" x2="598.6" y2="484"/>
	<line id="svg-concept" class="mo3" x1="604.6" y1="495.1" x2="602.5" y2="495.1"/>
	<line id="svg-concept" class="mo3" x1="600.6" y1="507.8" x2="598.8" y2="506.5"/>
	<line class="mo2" x1="561.6" y1="495.5" x2="563.9" y2="495.5"/>
	<line class="mo2" x1="565.7" y1="482.8" x2="567.6" y2="484.1"/>
	<line class="mo2" x1="576.4" y1="475" x2="577.2" y2="477.1"/>
	<line class="mo2" x1="565.8" y1="508.1" x2="567.5" y2="506.9"/>
	<path id="svg-concept" class="mo0" d="M583.8,495.4c0,0.3-0.3,0.6-0.6,0.6c-0.3,0-0.6-0.3-0.6-0.6c0-0.3,0.3-0.6,0.6-0.6
		C583.6,494.8,583.8,495.1,583.8,495.4z"/>
	<path class="mo1" d="M608.5,415.4c1.6,14-8.5,26.7-22.5,28.3c-14,1.6-26.7-8.5-28.3-22.5c-1.6-14,8.5-26.7,22.5-28.3
		C594.3,391.3,606.9,401.4,608.5,415.4z"/>
	<path class="mo2" d="M565.8,431.1c-2.2-2.9-3.6-6.5-4.1-10.4c-1.3-11.8,7.2-22.4,18.9-23.8c7.9-0.9,15.3,2.6,19.7,8.6"/>
	<line id="svg-concept" class="mo3" x1="578.7" y1="405.6" x2="583.3" y2="418.3"/>
	<line class="mo2" x1="589.7" y1="397.9" x2="589" y2="400.1"/>
	<line id="svg-concept" class="mo3" x1="600.4" y1="405.6" x2="598.6" y2="407"/>
	<line id="svg-concept" class="mo3" x1="604.6" y1="418" x2="602.5" y2="418.1"/>
	<line id="svg-concept" class="mo3" x1="600.6" y1="430.7" x2="598.8" y2="429.4"/>
	<line class="mo2" x1="561.6" y1="418.4" x2="563.9" y2="418.4"/>
	<line class="mo2" x1="565.7" y1="405.7" x2="567.6" y2="407"/>
	<line class="mo2" x1="576.4" y1="397.9" x2="577.2" y2="400.1"/>
	<line class="mo2" x1="565.8" y1="431.1" x2="567.5" y2="429.8"/>
	<path id="svg-concept" class="mo0" d="M583.8,418.3c0,0.3-0.3,0.6-0.6,0.6c-0.3,0-0.6-0.3-0.6-0.6c0-0.3,0.3-0.6,0.6-0.6
		C583.6,417.7,583.8,418,583.8,418.3z"/>
	<path class="mo1" d="M608.5,338.3c1.6,14-8.5,26.7-22.5,28.3c-14,1.6-26.7-8.5-28.3-22.5c-1.6-14,8.5-26.7,22.5-28.3
		C594.3,314.2,606.9,324.3,608.5,338.3z"/>
	<path class="mo2" d="M565.8,354c-2.2-2.9-3.6-6.5-4.1-10.4c-1.3-11.8,7.2-22.4,18.9-23.8c7.9-0.9,15.3,2.6,19.7,8.6"/>
	<line id="svg-concept" class="mo3" x1="590.8" y1="330.1" x2="583.3" y2="341.2"/>
	<line class="mo2" x1="589.7" y1="320.8" x2="589" y2="323"/>
	<line id="svg-concept" class="mo3" x1="600.4" y1="328.5" x2="598.6" y2="329.9"/>
	<line id="svg-concept" class="mo3" x1="604.6" y1="341" x2="602.5" y2="341"/>
	<line id="svg-concept" class="mo3" x1="600.6" y1="353.6" x2="598.8" y2="352.3"/>
	<line class="mo2" x1="561.6" y1="341.3" x2="563.9" y2="341.3"/>
	<line class="mo2" x1="565.7" y1="328.6" x2="567.6" y2="329.9"/>
	<line class="mo2" x1="576.4" y1="320.8" x2="577.2" y2="323"/>
	<line class="mo2" x1="565.8" y1="354" x2="567.5" y2="352.7"/>
	<path id="svg-concept" class="mo0" d="M583.8,341.2c0,0.3-0.3,0.6-0.6,0.6c-0.3,0-0.6-0.3-0.6-0.6c0-0.3,0.3-0.6,0.6-0.6
		C583.6,340.6,583.8,340.9,583.8,341.2z"/>
	<path class="mo1" d="M617.3,571.1H55.5c-18.4,0-33.4-15-33.4-33.4V125.3c0-18.4,15-33.4,33.4-33.4h561.8c18.4,0,33.4,15,33.4,33.4
		v412.4C650.7,556.1,635.6,571.1,617.3,571.1z"/>
	<polyline class="mo4" points="101.5,81.5 101.5,71.1 109.9,71.1 	"/>
	<polyline class="mo4" points="168.3,71.1 176.5,71.1 176.5,81.5 	"/>
	<line class="mo5" x1="71.5" y1="520.7" x2="524.8" y2="520.7"/>
	<g>
		<g>
			<line class="mo6" x1="71.5" y1="364.1" x2="73" y2="364.1"/>
			<line class="mo7" x1="76" y1="364.1" x2="521.8" y2="364.1"/>
			<line class="mo6" x1="523.3" y1="364.1" x2="524.8" y2="364.1"/>
		</g>
	</g>
	<g>
		<g>
			<line class="mo6" x1="71.5" y1="462.2" x2="73" y2="462.2"/>
			<line class="mo7" x1="76" y1="462.2" x2="521.8" y2="462.2"/>
			<line class="mo6" x1="523.3" y1="462.2" x2="524.8" y2="462.2"/>
		</g>
	</g>
	<g>
		<g>
			<line class="mo6" x1="76.3" y1="413.4" x2="77.8" y2="413.4"/>
			<line class="mo7" x1="80.8" y1="413.4" x2="526.6" y2="413.4"/>
			<line class="mo6" x1="528.1" y1="413.4" x2="529.6" y2="413.4"/>
		</g>
	</g>
	<line class="mo5" x1="371.8" y1="267.8" x2="406.9" y2="267.8"/>
	<line class="mo5" x1="463.2" y1="267.8" x2="498.4" y2="267.8"/>
	<line class="mo5" x1="554.4" y1="267.8" x2="589.6" y2="267.8"/>
	<line class="mo5" x1="71.5" y1="520.7" x2="71.5" y2="295.8"/>
	<path class="mo5" d="M608.1,248.4h-72v-127h72V248.4z"/>
	<path class="mo5" d="M601.8,136.2c0,1-0.7,1.7-1.6,1.7h-56.5c-0.9,0-1.6-0.8-1.6-1.7V130c0-1,0.7-1.7,1.6-1.7h56.5
		c0.9,0,1.6,0.8,1.6,1.7V136.2z"/>
	<path class="mo2" d="M594.3,133.1c0,1.1-0.9,2.1-2.1,2.1c-1.1,0-2.1-0.9-2.1-2.1s0.9-2.1,2.1-2.1
		C593.4,131,594.3,131.9,594.3,133.1z"/>
	<path class="mo5" d="M601.8,149c0,1-0.7,1.7-1.6,1.7h-56.5c-0.9,0-1.6-0.8-1.6-1.7v-6.2c0-1,0.7-1.7,1.6-1.7h56.5
		c0.9,0,1.6,0.8,1.6,1.7V149z"/>
	<path class="mo2" d="M594.3,145.9c0,1.1-0.9,2.1-2.1,2.1c-1.1,0-2.1-0.9-2.1-2.1c0-1.1,0.9-2.1,2.1-2.1
		C593.4,143.9,594.3,144.8,594.3,145.9z"/>
	<path class="mo5" d="M601.8,174.8c0,1-0.7,1.7-1.6,1.7h-56.5c-0.9,0-1.6-0.8-1.6-1.7v-6.2c0-1,0.7-1.7,1.6-1.7h56.5
		c0.9,0,1.6,0.8,1.6,1.7V174.8z"/>
	<path class="mo2" d="M594.3,171.7c0,1.1-0.9,2.1-2.1,2.1c-1.1,0-2.1-0.9-2.1-2.1c0-1.1,0.9-2.1,2.1-2.1
		C593.4,169.6,594.3,170.5,594.3,171.7z"/>
	<path class="mo5" d="M601.8,187.6c0,1-0.7,1.7-1.6,1.7h-56.5c-0.9,0-1.6-0.8-1.6-1.7v-6.2c0-1,0.7-1.7,1.6-1.7h56.5
		c0.9,0,1.6,0.8,1.6,1.7V187.6z"/>
	<path class="mo2" d="M594.3,184.5c0,1.1-0.9,2.1-2.1,2.1c-1.1,0-2.1-0.9-2.1-2.1s0.9-2.1,2.1-2.1
		C593.4,182.5,594.3,183.4,594.3,184.5z"/>
	<path class="mo5" d="M601.8,226.2c0,1-0.7,1.7-1.6,1.7h-56.5c-0.9,0-1.6-0.8-1.6-1.7V220c0-1,0.7-1.7,1.6-1.7h56.5
		c0.9,0,1.6,0.8,1.6,1.7V226.2z"/>
	<path class="mo2" d="M594.3,223.1c0,1.1-0.9,2.1-2.1,2.1c-1.1,0-2.1-0.9-2.1-2.1c0-1.1,0.9-2.1,2.1-2.1
		C593.4,221,594.3,222,594.3,223.1z"/>
	<path class="mo5" d="M601.8,239.1c0,1-0.7,1.7-1.6,1.7h-56.5c-0.9,0-1.6-0.8-1.6-1.7v-6.2c0-1,0.7-1.7,1.6-1.7h56.5
		c0.9,0,1.6,0.8,1.6,1.7V239.1z"/>
	<path class="mo2" d="M594.3,236c0,1.1-0.9,2.1-2.1,2.1c-1.1,0-2.1-0.9-2.1-2.1s0.9-2.1,2.1-2.1C593.4,233.9,594.3,234.8,594.3,236z
		"/>
	<path class="mo5" d="M516.7,248.4h-72v-127h72V248.4z"/>
	<path class="mo5" d="M510.4,136.2c0,1-0.7,1.7-1.6,1.7h-56.5c-0.9,0-1.6-0.8-1.6-1.7V130c0-1,0.7-1.7,1.6-1.7h56.5
		c0.9,0,1.6,0.8,1.6,1.7V136.2z"/>
	<path class="mo2" d="M502.9,133.1c0,1.1-0.9,2.1-2.1,2.1c-1.1,0-2.1-0.9-2.1-2.1s0.9-2.1,2.1-2.1C502,131,502.9,131.9,502.9,133.1z
		"/>
	<path class="mo5" d="M510.4,174.8c0,1-0.7,1.7-1.6,1.7h-56.5c-0.9,0-1.6-0.8-1.6-1.7v-6.2c0-1,0.7-1.7,1.6-1.7h56.5
		c0.9,0,1.6,0.8,1.6,1.7V174.8z"/>
	<path class="mo2" d="M502.9,171.7c0,1.1-0.9,2.1-2.1,2.1c-1.1,0-2.1-0.9-2.1-2.1c0-1.1,0.9-2.1,2.1-2.1
		C502,169.6,502.9,170.5,502.9,171.7z"/>
	<path class="mo5" d="M510.4,187.6c0,1-0.7,1.7-1.6,1.7h-56.5c-0.9,0-1.6-0.8-1.6-1.7v-6.2c0-1,0.7-1.7,1.6-1.7h56.5
		c0.9,0,1.6,0.8,1.6,1.7V187.6z"/>
	<path class="mo2" d="M502.9,184.5c0,1.1-0.9,2.1-2.1,2.1c-1.1,0-2.1-0.9-2.1-2.1s0.9-2.1,2.1-2.1
		C502,182.5,502.9,183.4,502.9,184.5z"/>
	<path class="mo5" d="M510.4,200.5c0,1-0.7,1.7-1.6,1.7h-56.5c-0.9,0-1.6-0.8-1.6-1.7v-6.2c0-1,0.7-1.7,1.6-1.7h56.5
		c0.9,0,1.6,0.8,1.6,1.7V200.5z"/>
	<path class="mo2" d="M502.9,197.4c0,1.1-0.9,2.1-2.1,2.1c-1.1,0-2.1-0.9-2.1-2.1c0-1.1,0.9-2.1,2.1-2.1
		C502,195.3,502.9,196.2,502.9,197.4z"/>
	<path class="mo5" d="M510.4,213.3c0,1-0.7,1.7-1.6,1.7h-56.5c-0.9,0-1.6-0.8-1.6-1.7v-6.2c0-1,0.7-1.7,1.6-1.7h56.5
		c0.9,0,1.6,0.8,1.6,1.7V213.3z"/>
	<path class="mo2" d="M502.9,210.2c0,1.1-0.9,2.1-2.1,2.1c-1.1,0-2.1-0.9-2.1-2.1c0-1.1,0.9-2.1,2.1-2.1
		C502,208.2,502.9,209.1,502.9,210.2z"/>
	<path class="mo5" d="M510.4,226.2c0,1-0.7,1.7-1.6,1.7h-56.5c-0.9,0-1.6-0.8-1.6-1.7V220c0-1,0.7-1.7,1.6-1.7h56.5
		c0.9,0,1.6,0.8,1.6,1.7V226.2z"/>
	<path class="mo2" d="M502.9,223.1c0,1.1-0.9,2.1-2.1,2.1c-1.1,0-2.1-0.9-2.1-2.1c0-1.1,0.9-2.1,2.1-2.1
		C502,221,502.9,222,502.9,223.1z"/>
	<path class="mo5" d="M510.4,239.1c0,1-0.7,1.7-1.6,1.7h-56.5c-0.9,0-1.6-0.8-1.6-1.7v-6.2c0-1,0.7-1.7,1.6-1.7h56.5
		c0.9,0,1.6,0.8,1.6,1.7V239.1z"/>
	<path class="mo2" d="M502.9,236c0,1.1-0.9,2.1-2.1,2.1c-1.1,0-2.1-0.9-2.1-2.1s0.9-2.1,2.1-2.1C502,233.9,502.9,234.8,502.9,236z"
		/>
	<path class="mo5" d="M425.3,248.4h-72v-127h72V248.4z"/>
	<path class="mo5" d="M419,136.2c0,1-0.7,1.7-1.6,1.7h-56.5c-0.9,0-1.6-0.8-1.6-1.7V130c0-1,0.7-1.7,1.6-1.7h56.5
		c0.9,0,1.6,0.8,1.6,1.7V136.2z"/>
	<path class="mo2" d="M411.5,133.1c0,1.1-0.9,2.1-2.1,2.1c-1.1,0-2.1-0.9-2.1-2.1s0.9-2.1,2.1-2.1
		C410.6,131,411.5,131.9,411.5,133.1z"/>
	<path class="mo5" d="M419,149c0,1-0.7,1.7-1.6,1.7h-56.5c-0.9,0-1.6-0.8-1.6-1.7v-6.2c0-1,0.7-1.7,1.6-1.7h56.5
		c0.9,0,1.6,0.8,1.6,1.7V149z"/>
	<path class="mo2" d="M411.5,145.9c0,1.1-0.9,2.1-2.1,2.1c-1.1,0-2.1-0.9-2.1-2.1c0-1.1,0.9-2.1,2.1-2.1
		C410.6,143.9,411.5,144.8,411.5,145.9z"/>
	<path class="mo2" d="M411.5,158.8c0,1.1-0.9,2.1-2.1,2.1c-1.1,0-2.1-0.9-2.1-2.1c0-1.1,0.9-2.1,2.1-2.1
		C410.6,156.7,411.5,157.7,411.5,158.8z"/>
	<path class="mo5" d="M419,174.8c0,1-0.7,1.7-1.6,1.7h-56.5c-0.9,0-1.6-0.8-1.6-1.7v-6.2c0-1,0.7-1.7,1.6-1.7h56.5
		c0.9,0,1.6,0.8,1.6,1.7V174.8z"/>
	<path class="mo2" d="M411.5,171.7c0,1.1-0.9,2.1-2.1,2.1c-1.1,0-2.1-0.9-2.1-2.1c0-1.1,0.9-2.1,2.1-2.1
		C410.6,169.6,411.5,170.5,411.5,171.7z"/>
	<path class="mo5" d="M419,187.6c0,1-0.7,1.7-1.6,1.7h-56.5c-0.9,0-1.6-0.8-1.6-1.7v-6.2c0-1,0.7-1.7,1.6-1.7h56.5
		c0.9,0,1.6,0.8,1.6,1.7V187.6z"/>
	<path class="mo2" d="M411.5,184.5c0,1.1-0.9,2.1-2.1,2.1c-1.1,0-2.1-0.9-2.1-2.1s0.9-2.1,2.1-2.1
		C410.6,182.5,411.5,183.4,411.5,184.5z"/>
	<path class="mo5" d="M419,200.5c0,1-0.7,1.7-1.6,1.7h-56.5c-0.9,0-1.6-0.8-1.6-1.7v-6.2c0-1,0.7-1.7,1.6-1.7h56.5
		c0.9,0,1.6,0.8,1.6,1.7V200.5z"/>
	<path class="mo2" d="M411.5,197.4c0,1.1-0.9,2.1-2.1,2.1c-1.1,0-2.1-0.9-2.1-2.1c0-1.1,0.9-2.1,2.1-2.1
		C410.6,195.3,411.5,196.2,411.5,197.4z"/>
	<path class="mo5" d="M419,213.3c0,1-0.7,1.7-1.6,1.7h-56.5c-0.9,0-1.6-0.8-1.6-1.7v-6.2c0-1,0.7-1.7,1.6-1.7h56.5
		c0.9,0,1.6,0.8,1.6,1.7V213.3z"/>
	<path class="mo2" d="M411.5,210.2c0,1.1-0.9,2.1-2.1,2.1c-1.1,0-2.1-0.9-2.1-2.1c0-1.1,0.9-2.1,2.1-2.1
		C410.6,208.2,411.5,209.1,411.5,210.2z"/>
	<path class="mo5" d="M419,226.2c0,1-0.7,1.7-1.6,1.7h-56.5c-0.9,0-1.6-0.8-1.6-1.7V220c0-1,0.7-1.7,1.6-1.7h56.5
		c0.9,0,1.6,0.8,1.6,1.7V226.2z"/>
	<path class="mo2" d="M411.5,223.1c0,1.1-0.9,2.1-2.1,2.1c-1.1,0-2.1-0.9-2.1-2.1c0-1.1,0.9-2.1,2.1-2.1
		C410.6,221,411.5,222,411.5,223.1z"/>
	<path class="mo5" d="M419,239.1c0,1-0.7,1.7-1.6,1.7h-56.5c-0.9,0-1.6-0.8-1.6-1.7v-6.2c0-1,0.7-1.7,1.6-1.7h56.5
		c0.9,0,1.6,0.8,1.6,1.7V239.1z"/>
	<path class="mo2" d="M411.5,236c0,1.1-0.9,2.1-2.1,2.1c-1.1,0-2.1-0.9-2.1-2.1s0.9-2.1,2.1-2.1C410.6,233.9,411.5,234.8,411.5,236z
		"/>
	<line class="mo5" x1="280.4" y1="267.8" x2="315.6" y2="267.8"/>
	<path class="mo5" d="M333.9,248.4h-72v-127h72V248.4z"/>
	<path class="mo5" d="M327.6,136.2c0,1-0.7,1.7-1.6,1.7h-56.5c-0.9,0-1.6-0.8-1.6-1.7V130c0-1,0.7-1.7,1.6-1.7H326
		c0.9,0,1.6,0.8,1.6,1.7V136.2z"/>
	<path class="mo2" d="M320.1,133.1c0,1.1-0.9,2.1-2.1,2.1c-1.1,0-2.1-0.9-2.1-2.1s0.9-2.1,2.1-2.1
		C319.2,131,320.1,131.9,320.1,133.1z"/>
	<path class="mo5" d="M327.6,149c0,1-0.7,1.7-1.6,1.7h-56.5c-0.9,0-1.6-0.8-1.6-1.7v-6.2c0-1,0.7-1.7,1.6-1.7H326
		c0.9,0,1.6,0.8,1.6,1.7V149z"/>
	<path class="mo2" d="M320.1,145.9c0,1.1-0.9,2.1-2.1,2.1c-1.1,0-2.1-0.9-2.1-2.1c0-1.1,0.9-2.1,2.1-2.1
		C319.2,143.9,320.1,144.8,320.1,145.9z"/>
	<path class="mo5" d="M327.6,161.9c0,1-0.7,1.7-1.6,1.7h-56.5c-0.9,0-1.6-0.8-1.6-1.7v-6.2c0-1,0.7-1.7,1.6-1.7H326
		c0.9,0,1.6,0.8,1.6,1.7V161.9z"/>
	<path class="mo2" d="M320.1,158.8c0,1.1-0.9,2.1-2.1,2.1c-1.1,0-2.1-0.9-2.1-2.1c0-1.1,0.9-2.1,2.1-2.1
		C319.2,156.7,320.1,157.7,320.1,158.8z"/>
	<path class="mo5" d="M327.6,174.8c0,1-0.7,1.7-1.6,1.7h-56.5c-0.9,0-1.6-0.8-1.6-1.7v-6.2c0-1,0.7-1.7,1.6-1.7H326
		c0.9,0,1.6,0.8,1.6,1.7V174.8z"/>
	<path class="mo2" d="M320.1,171.7c0,1.1-0.9,2.1-2.1,2.1c-1.1,0-2.1-0.9-2.1-2.1c0-1.1,0.9-2.1,2.1-2.1
		C319.2,169.6,320.1,170.5,320.1,171.7z"/>
	<path class="mo5" d="M327.6,187.6c0,1-0.7,1.7-1.6,1.7h-56.5c-0.9,0-1.6-0.8-1.6-1.7v-6.2c0-1,0.7-1.7,1.6-1.7H326
		c0.9,0,1.6,0.8,1.6,1.7V187.6z"/>
	<path class="mo2" d="M320.1,184.5c0,1.1-0.9,2.1-2.1,2.1c-1.1,0-2.1-0.9-2.1-2.1s0.9-2.1,2.1-2.1
		C319.2,182.5,320.1,183.4,320.1,184.5z"/>
	<path class="mo5" d="M327.6,200.5c0,1-0.7,1.7-1.6,1.7h-56.5c-0.9,0-1.6-0.8-1.6-1.7v-6.2c0-1,0.7-1.7,1.6-1.7H326
		c0.9,0,1.6,0.8,1.6,1.7V200.5z"/>
	<path class="mo2" d="M320.1,197.4c0,1.1-0.9,2.1-2.1,2.1c-1.1,0-2.1-0.9-2.1-2.1c0-1.1,0.9-2.1,2.1-2.1
		C319.2,195.3,320.1,196.2,320.1,197.4z"/>
	<path class="mo5" d="M327.6,213.3c0,1-0.7,1.7-1.6,1.7h-56.5c-0.9,0-1.6-0.8-1.6-1.7v-6.2c0-1,0.7-1.7,1.6-1.7H326
		c0.9,0,1.6,0.8,1.6,1.7V213.3z"/>
	<path class="mo2" d="M320.1,210.2c0,1.1-0.9,2.1-2.1,2.1c-1.1,0-2.1-0.9-2.1-2.1c0-1.1,0.9-2.1,2.1-2.1
		C319.2,208.2,320.1,209.1,320.1,210.2z"/>
	<path class="mo5" d="M327.6,226.2c0,1-0.7,1.7-1.6,1.7h-56.5c-0.9,0-1.6-0.8-1.6-1.7V220c0-1,0.7-1.7,1.6-1.7H326
		c0.9,0,1.6,0.8,1.6,1.7V226.2z"/>
	<path class="mo2" d="M320.1,223.1c0,1.1-0.9,2.1-2.1,2.1c-1.1,0-2.1-0.9-2.1-2.1c0-1.1,0.9-2.1,2.1-2.1
		C319.2,221,320.1,222,320.1,223.1z"/>
	<path class="mo5" d="M327.6,239.1c0,1-0.7,1.7-1.6,1.7h-56.5c-0.9,0-1.6-0.8-1.6-1.7v-6.2c0-1,0.7-1.7,1.6-1.7H326
		c0.9,0,1.6,0.8,1.6,1.7V239.1z"/>
	<path class="mo2" d="M320.1,236c0,1.1-0.9,2.1-2.1,2.1c-1.1,0-2.1-0.9-2.1-2.1s0.9-2.1,2.1-2.1C319.2,233.9,320.1,234.8,320.1,236z
		"/>
	<path class="mo5" d="M419,161.9c0,1-0.7,1.7-1.6,1.7h-56.5c-0.9,0-1.6-0.8-1.6-1.7v-6.2c0-1,0.7-1.7,1.6-1.7h56.5
		c0.9,0,1.6,0.8,1.6,1.7V161.9z"/>
	<path id="svg-concept" class="mo3" d="M600.4,328.5c2.2,2.9,3.6,6.4,4,10.3c0.6,5.5-0.9,10.7-3.8,14.8"/>
	<path class="mo1" d="M163.6,248.4c0-19.5,14.6-36.3,34.5-38.6c21.3-2.4,40.5,12.9,42.9,34.2c0.2,1.3,0.2,2.7,0.2,4"/>
	<path class="mo2" d="M169.9,248.8c-0.2-16.5,12.2-30.8,29-32.7c12-1.4,23.2,4,29.9,13.1"/>
	<line id="svg-concept" class="mo3" x1="223.5" y1="242.1" x2="202.7" y2="248.4"/>
	<line class="mo2" x1="212.5" y1="217.4" x2="211.4" y2="220.8"/>
	<line id="svg-concept" class="mo3" x1="228.7" y1="229.1" x2="225.9" y2="231.2"/>
	<line id="svg-concept" class="mo3" x1="235.1" y1="248" x2="231.8" y2="248.1"/>
	<line class="mo2" x1="169.8" y1="248.6" x2="173.2" y2="248.6"/>
	<line class="mo2" x1="176.1" y1="229.3" x2="178.9" y2="231.3"/>
	<line class="mo2" x1="192.4" y1="217.5" x2="193.5" y2="220.8"/>
	<path id="svg-concept" class="mo0" d="M203.6,248.4c0,0.5-0.4,0.9-0.9,0.9c-0.5,0-0.9-0.4-0.9-0.9c0-0.5,0.4-0.9,0.9-0.9
		C203.2,247.6,203.6,248,203.6,248.4z"/>
	<path id="svg-concept" class="mo3" d="M228.7,229.1c3.3,4.4,5.5,9.8,6.1,15.7c0.1,1,0.2,2.1,0.2,3.1"/>
	<path class="mo1" d="M71.5,248.4c0-19.5,14.6-36.3,34.5-38.6c21.3-2.4,40.5,12.9,42.9,34.2c0.2,1.3,0.2,2.7,0.2,4"/>
	<path class="mo2" d="M77.7,248.8c-0.2-16.5,12.2-30.8,29-32.7c12-1.4,23.2,4,29.9,13.1"/>
	<line id="svg-concept" class="mo3" x1="123.7" y1="230.3" x2="110.6" y2="248.4"/>
	<line class="mo2" x1="120.3" y1="217.4" x2="119.3" y2="220.8"/>
	<line id="svg-concept" class="mo3" x1="136.6" y1="229.1" x2="133.8" y2="231.2"/>
	<line id="svg-concept" class="mo3" x1="142.9" y1="248" x2="139.7" y2="248.1"/>
	<line class="mo2" x1="77.7" y1="248.6" x2="81.1" y2="248.6"/>
	<line class="mo2" x1="84" y1="229.3" x2="86.8" y2="231.3"/>
	<line class="mo2" x1="100.2" y1="217.5" x2="101.3" y2="220.8"/>
	<path id="svg-concept" class="mo0" d="M111.4,248.4c0,0.5-0.4,0.9-0.9,0.9c-0.5,0-0.9-0.4-0.9-0.9c0-0.5,0.4-0.9,0.9-0.9
		C111,247.6,111.4,248,111.4,248.4z"/>
	<path id="svg-concept" class="mo3" d="M136.6,229.1c3.3,4.4,5.5,9.8,6.1,15.7c0.1,1,0.2,2.1,0.2,3.1"/>
	<path id="svg-concept" class="mo3" d="M600.4,405.6c2.2,2.9,3.6,6.4,4,10.3c0.6,5.5-0.9,10.7-3.8,14.8"/>
	<path id="svg-concept" class="mo3" d="M600.4,482.6c2.2,2.9,3.6,6.4,4,10.3c0.6,5.5-0.9,10.7-3.8,14.8"/>
	<polyline class="mo4" points="71.5,413.1 88.1,407.3 107.9,418.1 127.5,403.1 146,418.6 163.3,396 186,446.1 211.5,375.7 
		232,413.1 251,298.2 278.5,496.4 302.8,343.2 321.5,440.9 347.5,382.6 371,413.1 390,396.4 411,413.1 431,425.8 453.5,401.6 
		477.7,419.5 497,413.1 524.8,413.1 	"/>
	<path class="mo2" d="M661.4,188h4.3c1.1,0,2,0.9,2,2v14.8c0,1.1-0.9,2-2,2h-4.3"/>
	<path class="mo2" d="M661.4,158.8h4.3c1.1,0,2,0.9,2,2v14.8c0,1.1-0.9,2-2,2h-4.3"/>
</g>
<g>
	<line id="svg-concept" class="mo3" x1="103.7" y1="53.9" x2="89.5" y2="53.9"/>
	<line id="svg-concept" class="mo3" x1="188.8" y1="53.9" x2="174.6" y2="53.9"/>
	<line id="svg-concept" class="mo3" x1="139" y1="3.7" x2="139" y2="18"/>
	<line id="svg-concept" class="mo3" x1="165.1" y1="9.3" x2="156.7" y2="23.4"/>
	<line id="svg-concept" class="mo3" x1="112.9" y1="9.5" x2="121.3" y2="23.5"/>
	<line id="svg-concept" class="mo3" x1="183.8" y1="28.1" x2="169.8" y2="36.3"/>
	<line id="svg-concept" class="mo3" x1="94.5" y1="28.1" x2="108.3" y2="36.5"/>
	<animate 
		attributeName="opacity"
        values="0;1;0" 
        dur="1s"
        repeatCount="indefinite"/>
</g>
<g>
<path id="svg-concept" class="mo10"  d="M524.7,520.7c0,2.8-2.2,5-5,5c-2.8,0-5-2.2-5-5c0-2.8,2.2-5,5-5C522.5,515.7,524.7,518,524.7,520.7z"/>
	<animateMotion
		path="M0, 0 -448 0 -448 -225 -450 0 0 0 225"
		begin="0s" 
		dur="20s" 
		repeatCount="indefinite"/>
</g>
<g>
<line id="svg-concept" class="mo8"  x1="107.1" y1="298.2" x2="107.1" y2="497.3"/>
	<animateMotion
		path="M420, 0 -35 0 420 0"
		begin="0s" 
		dur="80s" 
		repeatCount="indefinite"
	/>
</g>
<path id="svg-concept" class="mo8"  d="M168.4,52.1L168.3,71l-58.4,0.1v-19c0-16.2,13.1-29.2,29.2-29.2S168.4,35.9,168.4,52.1z"/>
</svg>
