<?xml version="1.0" encoding="utf-8"?>
<!-- Generator: Adobe Illustrator 22.0.0, SVG Export Plug-In . SVG Version: 6.00 Build 0)  -->
<svg version="1.1" id="Layer_1" xmlns="http://www.w3.org/2000/svg" xmlns:xlink="http://www.w3.org/1999/xlink" x="0px" y="0px"
	 viewBox="0 0 853.5 435.7" style="enable-background:new 0 0 853.5 435.7;" xml:space="preserve">
<style type="text/css">
	.nfound0{fill:none;stroke:#808080;stroke-linecap:round;stroke-linejoin:round;stroke-miterlimit:10;}
	.nfound1{fill:none;stroke:#ee5586;stroke-width:2;stroke-linecap:round;stroke-linejoin:round;stroke-miterlimit:10;}
	.nfound2{fill:none;stroke:#808080;stroke-width:2;stroke-linecap:round;stroke-linejoin:round;stroke-miterlimit:10;}
	.nfound3{fill:none;stroke:#ee5586;stroke-linecap:round;stroke-linejoin:round;stroke-miterlimit:10;}
</style>
<g>
	<line class="nfound0" x1="386.6" y1="227" x2="397" y2="233.9"/>
	<line class="nfound0" x1="400.7" y1="207.5" x2="412.8" y2="215.5"/>
	<path id="svg-concept" class="nfound1" d="M267.8,137l17.1,17.7c0.8,0.9,2.2,0.8,2.9-0.2l10.5-14.9c0.7-1,0.3-2.4-0.8-2.8l-22.2-9.9
		c-0.8-0.4-1.8-0.1-2.3,0.6l-5.3,7.1C267,135.3,267.1,136.4,267.8,137z"/>
	<line id="svg-concept" class="nfound1" x1="270.4" y1="130.7" x2="330.9" y2="173"/>
	<line id="svg-concept" class="nfound1" x1="298.3" y1="139.6" x2="350.9" y2="144.2"/>
	<line id="svg-concept" class="nfound1" x1="310.9" y1="201.2" x2="288.3" y2="153.7"/>
	<line class="nfound2" x1="238.7" y1="299.3" x2="286.6" y2="292.9"/>
	<line class="nfound2" x1="265.1" y1="264.5" x2="308.4" y2="265.4"/>
	<line class="nfound2" x1="297.8" y1="219.6" x2="334.6" y2="230.5"/>
	<line class="nfound2" x1="368.3" y1="118.8" x2="390.3" y2="150.7"/>
	<line class="nfound2" x1="398.2" y1="74.1" x2="412.9" y2="115.6"/>
	<line class="nfound2" x1="420.3" y1="39.8" x2="430.5" y2="85.8"/>
	<path class="nfound2" d="M437,8.4l6.4,52.4C423.2,109,318,259.6,266.3,316.8c0,0-53.1,10.9-52.5,10.5"/>
	<polyline class="nfound2" points="443.4,60.8 441.1,123 419.2,178.7 397.2,212.3 389.3,223.2 364.8,256.8 322.4,293 266.3,316.8 	"/>
	<path class="nfound2" d="M322.4,293c30.3-31.9,102.3-134.4,118.7-170"/>
	<path id="svg-concept" class="nfound1" d="M333.9,142.7C389,64.8,433.9,6.3,437,8.4c3.4,2.4-43.9,75.7-105.5,163.7S217.2,329.6,213.8,327.2
		c-3.1-2.2,36.1-63.5,89.9-141.3"/>
</g>
<g>
	<g>
		<path class="nfound0" d="M414,229.6c0,2.7-2.2,4.8-4.8,4.8c-2.7,0-4.8-2.2-4.8-4.8s2.2-4.8,4.8-4.8C411.9,224.8,414,226.9,414,229.6z"
			/>
		<path class="nfound0" d="M411,229.6c0,1-0.8,1.8-1.8,1.8c-1,0-1.8-0.8-1.8-1.8c0-1,0.8-1.8,1.8-1.8C410.2,227.8,411,228.6,411,229.6z"
			/>
		<line class="nfound0" x1="414" y1="229.6" x2="411" y2="229.6"/>
		<line class="nfound0" x1="407.4" y1="229.6" x2="404.4" y2="229.6"/>
	</g>
	<path class="nfound0" d="M416.3,254.9h-14.3c-2.8,0-5.1-2.3-5.1-5.1v-29.3c0-2.8,2.3-5.1,5.1-5.1h14.3c2.8,0,5.1,2.3,5.1,5.1v29.3
		C421.4,252.7,419.1,254.9,416.3,254.9z"/>
	<rect x="402.6" y="254.9" class="nfound0" width="13.2" height="87.2"/>
	<polyline class="nfound0" points="423.6,318.2 423.6,311.8 415.8,308.8 402.6,308.8 395.1,310.6 395,318.4 	"/>
	<line class="nfound0" x1="402.6" y1="327.3" x2="415.8" y2="327.3"/>
	<line class="nfound0" x1="395" y1="315.8" x2="322.6" y2="360.2"/>
	<line class="nfound0" x1="332.4" y1="362.3" x2="322.6" y2="360.2"/>
	<line class="nfound0" x1="386.1" y1="328.3" x2="332.4" y2="362.3"/>
	<line class="nfound0" x1="311.9" y1="360.7" x2="311.9" y2="365.1"/>
	<line class="nfound0" x1="333.8" y1="370" x2="311.9" y2="365.1"/>
	<path class="nfound0" d="M326,358c-0.2,0.1-3.2-0.5-3.2-0.5l-10.9,3.2l22,4.9"/>
	<polyline class="nfound0" points="336.2,359.9 342.8,360.7 342.8,364.9 333.8,370 333.8,365.6 342.8,360.7 	"/>
	<line class="nfound0" x1="395.2" y1="318.2" x2="327" y2="394.7"/>
	<line class="nfound0" x1="402.6" y1="317" x2="334" y2="395.6"/>
	<line class="nfound0" x1="402.6" y1="327.3" x2="346.1" y2="392.1"/>
	<line class="nfound0" x1="395.2" y1="318.2" x2="402.6" y2="316.6"/>
	<line class="nfound0" x1="327" y1="394.7" x2="333.9" y2="395.8"/>
	<line class="nfound0" x1="346.1" y1="392.1" x2="333.9" y2="395.8"/>
	<polygon class="nfound0" points="316,395.5 316,400.7 332.1,404.1 332.1,398.6 	"/>
	<path class="nfound0" d="M332.1,404.1c0,0,19.2-5.3,19.4-5.7v-5.2l-19.4,5.4"/>
	<line class="nfound0" x1="329.8" y1="391.5" x2="316" y2="395.5"/>
	<line class="nfound0" x1="346.1" y1="392.1" x2="351.6" y2="393.2"/>
	<line class="nfound0" x1="415.8" y1="327.3" x2="491" y2="390.1"/>
	<line class="nfound0" x1="415.8" y1="317" x2="506" y2="393"/>
	<line class="nfound0" x1="423.6" y1="318.2" x2="510.6" y2="391"/>
	<line class="nfound0" x1="477.6" y1="357.8" x2="423.6" y2="318.2"/>
	<line class="nfound0" x1="486.7" y1="357.8" x2="475.5" y2="356.2"/>
	<line class="nfound0" x1="474.4" y1="360.8" x2="486.7" y2="357.8"/>
	<line class="nfound0" x1="486.7" y1="361.9" x2="486.7" y2="357.8"/>
	<line class="nfound0" x1="478.8" y1="363.7" x2="486.7" y2="361.9"/>
	<line class="nfound0" x1="477.6" y1="357.8" x2="472.8" y2="359"/>
	<line class="nfound0" x1="510.6" y1="391" x2="506" y2="393"/>
	<line class="nfound0" x1="491" y1="390.1" x2="506" y2="393"/>
	<path class="nfound0" d="M482.8,391.6c0,0-0.1,5.7,0,5.6s26.1,5.7,26.1,5.7v-5.9L482.8,391.6z"/>
	<line class="nfound0" x1="489.8" y1="389.1" x2="482.8" y2="391.6"/>
	<line class="nfound0" x1="522.9" y1="390.1" x2="508.9" y2="397"/>
	<line class="nfound0" x1="522.9" y1="395.2" x2="508.9" y2="402.9"/>
	<line class="nfound0" x1="522.9" y1="390.1" x2="522.9" y2="395.2"/>
	<line class="nfound0" x1="508.3" y1="388.7" x2="522.9" y2="390.1"/>
	<path class="nfound0" d="M402.6,342.2l-5.3,1.5v5.9l8.5,2.3c0,0,5.8,0,6.4,0s8.7-2.6,8.7-2.6v-5.1l-5.1-2"/>
	<line class="nfound0" x1="402.6" y1="351" x2="402.6" y2="342.2"/>
	<line class="nfound0" x1="415.8" y1="342.2" x2="415.8" y2="351"/>
	<line class="nfound0" x1="415.8" y1="317" x2="423.6" y2="318.2"/>
</g>
<g>
	<line class="nfound0" x1="794" y1="421.9" x2="486.3" y2="421.9"/>
	<line class="nfound0" x1="813.1" y1="398" x2="576.6" y2="398"/>
	<line class="nfound0" x1="583.5" y1="375" x2="748.8" y2="375"/>
	<line class="nfound0" x1="759.2" y1="375" x2="763.1" y2="375"/>
	<line class="nfound0" x1="828.2" y1="398" x2="842.5" y2="398"/>
	<line class="nfound0" x1="806.7" y1="421.9" x2="821.8" y2="421.9"/>
	<line class="nfound0" x1="833.8" y1="421.9" x2="839.3" y2="421.9"/>
	<line class="nfound0" x1="54.4" y1="422" x2="333.8" y2="422"/>
	<line class="nfound0" x1="34.3" y1="398.1" x2="243.9" y2="398.1"/>
	<line class="nfound0" x1="235" y1="375" x2="98.6" y2="375"/>
	<line class="nfound0" x1="28" y1="398.1" x2="13.6" y2="398.1"/>
</g>
<g>
	<line id="svg-concept" class="nfound3" x1="448.7" y1="269.7" x2="442.5" y2="276.5"/>
	<line id="svg-concept" class="nfound3" x1="450.1" y1="276.5" x2="442.5" y2="276.5"/>
	<line id="svg-concept" class="nfound3" x1="448.7" y1="274.9" x2="448.7" y2="279.4"/>
	<line id="svg-concept" class="nfound3" x1="467.3" y1="269.7" x2="461.2" y2="276.5"/>
	<line id="svg-concept" class="nfound3" x1="468.7" y1="276.5" x2="461.2" y2="276.5"/>
	<line id="svg-concept" class="nfound3" x1="467.3" y1="274.9" x2="467.3" y2="279.4"/>
	<ellipse id="svg-concept" class="nfound3" cx="455.7" cy="274.6" rx="3.4" ry="4.9"/>
</g>
<g>
<ellipse id="svg-concept" transform="matrix(0.5908 -0.8068 0.8068 0.5908 3.9929 246.842)" class="nfound0" cx="245.3" cy="119.5" rx="67.9" ry="11.3"/>

	<animate 
		attributeName="opacity"
        values="0;3;0" 
        dur="2s"
        begin="1s"
        repeatCount="indefinite"/>
</g>
<g>
<ellipse id="svg-concept" transform="matrix(0.5908 -0.8068 0.8068 0.5908 16.9206 207.3031)" class="nfound0" cx="212.8" cy="87" rx="30.3" ry="5"/>

	<animate 
		attributeName="opacity"
        values="0;3;0" 
        dur="2s"
        begin="2s"
        repeatCount="indefinite"/>
</g>
</svg>
