<?xml version="1.0" encoding="utf-8"?>
<!-- Generator: Adobe Illustrator 22.0.0, SVG Export Plug-In . SVG Version: 6.00 Build 0)  -->
<svg version="1.1" id="Layer_1" xmlns="http://www.w3.org/2000/svg" xmlns:xlink="http://www.w3.org/1999/xlink" x="0px" y="0px"
	 viewBox="0 0 1100 426.8" style="enable-background:new 0 0 1100 426.8;" xml:space="preserve">
<style type="text/css">
	.os0{fill:#FFFFFF;}
	.os1{fill:#ee5586;}
	.os2{fill:#808080;}
	.os3{fill-rule:evenodd;clip-rule:evenodd;fill:#808080;}
	.os4{fill:#FFFFFF;stroke:#808080;stroke-linecap:round;stroke-linejoin:round;stroke-miterlimit:10;}
	.os5{fill:none;stroke:#808080;stroke-linecap:round;stroke-linejoin:round;stroke-miterlimit:10;}
	.os6{fill:none;stroke:#808080;stroke-miterlimit:10;}
	.os7{fill:#FFFFFF;stroke:#ee5586;stroke-width:3;stroke-linecap:round;stroke-linejoin:round;stroke-miterlimit:10;}
	.os8{fill:#ee5586;}
	.os9{fill:none;stroke-linecap:round;stroke-linejoin:round;stroke-miterlimit:10;}
</style>
<rect y="169.5" class="os0" width="1100" height="86.9"/>
<g>
	<g>
		<circle class="os0" cx="549" cy="212.9" r="49.5"/>
		<path id="svg-ico" class="os1" d="M549,263c-27.6,0-50.1-22.5-50.1-50.1s22.5-50.1,50.1-50.1s50.1,22.5,50.1,50.1S576.6,263,549,263z M549,164
			c-27,0-48.9,21.9-48.9,48.9c0,27,21.9,48.9,48.9,48.9c27,0,48.9-21.9,48.9-48.9C597.9,186,576,164,549,164z"/>
	</g>
	<g>
		<path id="svg-ico" class="os1" d="M566.6,233.1c3.5,0,6.4,2.9,6.4,6.4c0,3.5-2.9,6.4-6.4,6.4c-3.5,0-6.4-2.9-6.4-6.4
			C560.2,235.9,563,233.1,566.6,233.1z"/>
		<path id="svg-ico" class="os1" d="M551.3,197.1c8,0,14.6,5.9,15.7,13.6h11c-0.5-6-3-11.7-7.2-16.1c-2.7,1.4-6,1.4-8.8-0.2
			c-2.8-1.6-4.4-4.5-4.6-7.5c-2-0.5-4-0.7-6.1-0.7c-4,0-7.9,0.9-11.4,2.5l5.5,9.5C547.2,197.5,549.2,197.1,551.3,197.1z"/>
		<path id="svg-ico" class="os1" d="M535.4,212.9c0-5,2.4-9.6,6.1-12.5L536,191c-1.3,0.9-2.5,1.9-3.6,3.1c-3.2,3.2-5.5,7-6.7,11.2
			c2.5,1.6,4.2,4.5,4.2,7.7c0,3.2-1.7,6.1-4.2,7.7c1.3,4.2,3.5,8,6.7,11.2c1.1,1.1,2.4,2.2,3.6,3.1l5.5-9.5
			C537.8,222.5,535.4,218,535.4,212.9z"/>
		<path id="svg-ico" class="os1" d="M520.7,206.5c3.5,0,6.4,2.9,6.4,6.4c0,3.5-2.9,6.4-6.4,6.4c-3.5,0-6.4-2.9-6.4-6.4
			C514.3,209.4,517.1,206.5,520.7,206.5z"/>
		<path id="svg-ico" class="os1" d="M567,215.2c-1.1,7.7-7.7,13.6-15.7,13.6c-2.1,0-4.1-0.4-5.9-1.1l-5.5,9.5c3.5,1.7,7.4,2.5,11.4,2.5
			c2.1,0,4.1-0.2,6.1-0.7c0.2-3,1.8-5.9,4.6-7.5c2.8-1.6,6.1-1.6,8.8-0.2c4.2-4.4,6.7-10.1,7.2-16.1H567z"/>
		<path id="svg-ico" class="os1" d="M566.6,180c3.5,0,6.4,2.9,6.4,6.4c0,3.5-2.9,6.4-6.4,6.4c-3.5,0-6.4-2.9-6.4-6.4
			C560.2,182.9,563,180,566.6,180z"/>
	</g>
</g>
<g>
	<g>
		<circle class="os0" cx="343.5" cy="213" r="49.6"/>
		<path class="os2" d="M343.5,263.1c-27.6,0-50.1-22.5-50.1-50.1s22.5-50.1,50.1-50.1c27.6,0,50.1,22.5,50.1,50.1
			S371.1,263.1,343.5,263.1z M343.5,164c-27,0-49,22-49,49s22,49,49,49c27,0,49-22,49-49S370.5,164,343.5,164z"/>
	</g>
	<g>
		<polygon class="os3" points="319.9,189.5 330.9,189.5 319.9,200.5 319.9,189.5 		"/>
		<polygon class="os3" points="356.3,189.5 367,189.5 367,200.2 356.3,189.5 		"/>
		<polygon class="os3" points="367,225.2 367,236.2 356,236.2 		"/>
		<polygon class="os3" points="330.5,236.2 319.9,236.2 319.9,225.5 324.7,230.4 		"/>
		<polygon class="os3" points="321.4,204 326.1,199.3 336.9,210.2 321.4,210.2 321.4,204 		"/>
		<polygon class="os3" points="336.9,215.6 325.9,226.5 321.4,222 321.4,215.6 336.9,215.6 		"/>
		<polygon class="os3" points="310.3,213 317.8,205.5 317.8,220.6 310.3,213 		"/>
		<polygon class="os3" points="349.9,210.2 360.9,199.2 365.5,203.7 365.5,210.2 349.9,210.2 		"/>
		<polygon class="os3" points="365.5,221.7 360.8,226.4 349.9,215.6 365.5,215.6 365.5,221.7 		"/>
		<polygon class="os3" points="369.1,205.2 376.6,212.7 369.1,220.2 		"/>
		<polygon class="os3" points="346.3,219.8 357.9,231.4 353.1,236.2 346.3,236.2 346.3,219.8 		"/>
		<polygon class="os3" points="351,238.3 343.3,246 335.5,238.3 		"/>
		<polygon class="os3" points="329.7,230.4 340.7,219.4 340.7,234.7 334.1,234.7 329.7,230.4 		"/>
		<polygon class="os3" points="346.1,206.4 357,195.6 352.5,191.1 346.1,191.1 346.1,206.4 		"/>
		<polygon class="os3" points="351,187.5 343.3,179.8 335.5,187.5 		"/>
		<polygon class="os3" points="329.7,195.4 340.7,206.4 340.7,191.1 334.1,191.1 329.7,195.4 		"/>
	</g>
</g>
<g>
	<g>
		<circle class="os0" cx="754.7" cy="213" r="49.6"/>
		<path  id="svg-concept" class="os9" d="M754.7,263.1c-27.6,0-50.1-22.5-50.1-50.1s22.5-50.1,50.1-50.1s50.1,22.5,50.1,50.1S782.4,263.1,754.7,263.1z
			 M754.7,164c-27,0-49,22-49,49s22,49,49,49s49-22,49-49S781.7,164,754.7,164z"/>
		<animate 
		attributeName="opacity"
        values="0;1;0" 
        begin="1s"
        dur="1s"
        repeatCount="indefinite"/>

	</g>
	<path id="svg-ico" class="os9" d="M726.4,211.2c0,0.6,0,1.7,0.1,2.3c0,0.6,0,1.4,0,3.9c0,2.5,0.1,5.8,0.2,6.7c0.1,3,1,5.8,1.9,7.7
		c0.9,1.9,2.1,3.9,4.2,6.6c2.1,2.7,3.4,3.9,5.2,5.3c1.1,0.9,2.4,1.6,3.5,2.2c1.8-0.3,3.6-0.5,5.4-0.6c0,0,0.1,0,0.1-0.1
		c0-0.2-1.6-0.7-1.8-0.7c-0.1,0,0.4-0.6,0.5-0.7c0.1-0.2-0.2-0.1-0.3-0.1c-0.2,0-0.4-0.2-0.5-0.3c-0.1-0.1-0.3-0.2-0.3-0.2
		s-0.2-0.2-0.3-0.3c-0.1-0.1-0.2-0.2-0.3-0.2c-0.1-0.1-0.3-0.3-0.3-0.4c-0.3-0.3-0.6-0.7-0.7-0.9c-0.1-0.2-0.1-0.2-0.4-0.2
		s-0.3,0.1-0.6,0.1c-0.3,0-0.2-0.1-0.4-0.3c-0.1-0.2-0.3-0.4-0.4-0.5c-0.1-0.1-0.2-0.3-0.3-0.4c-0.1-0.1-0.1-0.2-0.2-0.3
		c-0.1-0.1-0.6-1-0.6-1.2c0-0.2,0-0.8,0-0.8l-0.4,0.6c0,0-0.7-1-1.1-1.6c-0.5-0.6-2.1-2.7-2.3-3c-0.2-0.3,0.1-0.3,0.2-0.3
		c0.1,0,0.9,0.4,0.9,0.4s-0.3-0.2-0.7-0.5c-0.4-0.3-0.8-1-0.8-1.1c0-0.1,0.2-0.1,0.2-0.2s0.1-0.1,0.2-0.2c0.1-0.1-0.1-0.3-0.3-0.6
		c-0.2-0.3-0.6-0.8-0.8-1.3c-0.2-0.5-0.4-0.6-0.4-0.8c0-0.2-0.1-0.2-0.1-0.6c0-0.4,0-0.3,0.3,0.1c0.2,0.4,0.8,0.6,1,0.6
		c0.2,0-0.1-0.3-0.7-1.6c-0.2-0.6-0.7-1.6-0.9-2c-0.2-0.4-0.4-0.8-0.6-0.8c-0.4,0-0.5,1.9-0.9,1.9c-0.3,0-1.7-4.2-1.7-4.2h0.4
		c0,0-0.3-0.4-0.4-0.8c-0.1-0.4-0.4-0.6-0.4-0.6s0.1-0.6,0.1-1c0-0.4,0.1-0.6,0.1-0.8c0-0.2-0.1-0.3-0.7-1.1
		c-0.5-0.8-0.7-1.7-0.7-2.3c0-0.6,0-1.1,0.1-2c0.1-0.9,0.4-2.4,0.5-3.3c0.1-0.9,0.3-2.7,0.4-4c0.1-1.3,0.4-2,0.7-2.6
		c0.3-0.6,0.7-0.7,1.1-1.7c0.4-0.9,0.9-2.2,0.9-2.2l-0.7-0.1c0,0,0.1,0,0.2-0.2c0.2-0.2,0.2-0.4,1.1-1.6c0.8-1.2,2.3-2.8,4-4.5
		c1.7-1.8,3.2-1.8,3.6-1.8h0.7c0.1,0,0-0.1,0.7-0.8c0.4-0.4,0.1-0.3,0-0.1c-0.1,0.2-0.7,0.6-0.8,0.6c-0.2,0-0.3-0.2-0.3-0.2
		s0.3-0.4,1.3-1.3c1-0.9,1.3-1.1,1.6-1.1c0.3,0,0.7,0.1,1.3,0.1c1.3,0,2.5-0.9,2.5-1c0-0.1-0.1,0.1-1.2,0.5
		c-0.9,0.3-1.1,0.3-1.1,0.3s0.2-0.4,0.4-0.5c0.1-0.1,0.9-0.2,2-0.6c1-0.4,1.2-0.6,1.2-1c0-0.4,0.9-0.6,1.8-0.7c1-0.1,2-0.2,2.1-0.2
		c0.1,0,0.3,0,0.3,0.1s-0.3,0.2-0.9,0.3c-0.8,0.2-0.7,0.4-0.7,0.4s0.3-0.2,0.7-0.3c0.4-0.1,0.7-0.2,0.9-0.2c0.1,0,0-0.2,0.2-0.2
		c0.1,0,0.2-0.1,0.6-0.2c0.4-0.1,1.4-0.3,2.6-0.3c1.2,0,3,0.2,3.9,0.4c0.9,0.2,2.6,0.8,3.3,1.1c0.7,0.3,2,0.9,3.6,1.8
		c1.6,0.9,2,1.3,3.1,2.2c1,0.9,1.6,1.6,2.5,2.8c0.9,1.3,1.1,1.8,1.5,2.4c0.5,1,0.9,3,0.9,3.5c0.1,0.5,0.3,2.6,0.3,2.8
		c0,0.2,0.1,0.2,0.2,0.2c0.1,0,0.1,0.2,0.1,0.6c0,0.4-0.1,0.6-0.1,1.3c0,0.7,0.2,2.3,0.2,2.9c0,1.3-0.7,3.6-0.7,3.6l0.7-1.7
		c0,0,0,1.4,0,1.6c0,0.2-0.1,0.4-0.4,1c-0.3,0.6-0.7,1.4-0.7,1.7c0,0.3-0.5,0.3-0.6,0.4c-0.1,0.1-0.3,0.2-0.4,0.2
		c-0.1,0-0.5,1-0.6,1.2c-0.1,0.3,0.2,0.2,0.3,0.2c0.1,0,0,0.3-0.1,0.6c-0.1,0.2-0.2,0.5-0.4,0.6c-0.2,0.2-0.6,0.5-1.6,1.4
		c-1,0.9-2.4,2.3-3.1,2.3c-0.5,0-0.1-0.3,0.2-0.5c0.3-0.2,0.4-0.5,0.3-0.5c-0.1,0-1.1,0.8-1.3,1c-0.2,0.2-0.1,0.2-0.3,0.5
		c-0.1,0.3-0.4,0.3-1.1,0.5c-0.7,0.2-1.1,0.4-1.3,0.4c-0.1,0-0.2-0.2-0.2-0.2s-3.9,1.7-5.9,1.7c-1.6,0-4-1-5.9-2.5
		c-1.9-1.5-3-3.4-3.4-5.1c-0.4-1.7-0.4-4.8-0.4-5.2c0-0.5-0.1-0.1-0.1,0.1c0,0.1-0.2,0-0.2,0.1c0,0.1-0.1,0.2-0.1,0v-0.9
		c0-0.4-0.1-0.5-0.1-0.8v-1.4c0-0.4,0.1-0.9,0.4-2c0.3-1,1.3-2.4,2-3.1c0.7-0.6,1.5-1.1,2.6-1.7c1.1-0.6,2.3-1.1,3.1-1.4
		c0.9-0.4,1.8-0.5,2.8-0.5s2.3,0.4,3.1,0.7c0.7,0.3,1.6,1,2,1.4c0.5,0.4,1.1,0.9,1.1,0.9s-0.4-0.5-0.6-0.7c-0.2-0.2-0.7-0.9-1.1-1.2
		c-0.3-0.3-0.9-0.8-1.7-1.3c-0.8-0.5-2-0.7-2.5-0.7H758c-0.5,0-2.5,0.2-3,0.4c-0.5,0.2-1.3,0.5-1.6,0.8c-0.3,0.2-0.6,0.4-0.8,0.6
		c-0.3,0.2-0.6,0.6-0.9,0.9c-0.3,0.3-1,1.8-1.1,2c-0.1,0.2-0.8,0.6-1.3,1.1c-0.4,0.5-0.6,1.7-0.7,2.3c-0.1,0.7-0.3,1-0.5,1.2
		c-0.3,0.2-0.3,0.4-0.3,0.7c0,0.9-0.4,3.1-0.4,5.9c0,1.2,0.6,2.1,0.8,2.6c0.3,0.5,0.8,1.4,1,1.7c0.2,0.4,0.3,0.4,0.3,0.4l-0.3-0.8
		c0,0,1.2,1.2,1.5,1.4c0.3,0.2,1.3,1,1.7,1.3c0.4,0.3,1.8,1.4,2.3,1.8c0.5,0.4,0.8,0.6,0.8,0.7c0,0-0.1,0-0.1,0.1c0,0,0.4,0.2,2,0.8
		c3.3,1.2,5,1.2,5.5,1.2c0.6,0,1.4,0,3.2-0.4c1.8-0.4,3.5-1.6,4.3-2.2c0.8-0.6,2.2-1.6,2.5-1.9c0.3-0.3,0.8-0.6,1-0.8
		c0.2-0.2,0.3-0.2,0.5-0.4c0.2-0.2,0.4-0.5,0.8-0.9c0.4-0.4,0.8-0.5,0.8-0.5s-0.4,0.5-0.5,0.6c-0.1,0.2,0.1,0.1,0.3,0.1
		c0.2,0-0.2,0.5-0.2,0.5c0,0.2,0.8-1.3,0.8-1.5c0-0.2-0.4,0-0.5,0s-0.2,0-0.2-0.1c0-0.1,0.2-0.4,0.5-0.9c0.3-0.5,0.8-1.2,0.8-1.2
		l0.7,1.1c0,0,0-0.6,0-1.3c0-0.5,0.6-1.1,0.8-1.4c0.1-0.2,0.4-0.5,0.7-1c0.4-0.5,0.5-1.3,0.5-1.9c0-0.5,0-1.3,0-1.3s0.1-0.2,0.2-0.3
		c0.2-0.2,0.1,0.1,0.1,0.4c0,0.3,0.2,0.6,0.2,0.6v-0.5c0-0.2-0.1-0.1-0.1-0.3c0-0.2-0.2-0.1-0.2-0.2s0.1-0.1,0.1-0.6
		c0-0.3,0.1-0.4,0.1-0.1c0,0.1,0.2,0.1,0.2,0.5c0.1,0.3,0.3,0.8,0.3,0.8s-0.2-0.6-0.2-1.3c0-0.8,0.3-1,0.5-1.4
		c0.1-0.4,0.3-0.5,0.5-1.1c0.1-0.6,0.3-0.6,0-0.6c-0.3,0-0.4,0.5-0.6,0.5c-0.2,0-0.3-1.5-0.3-2.2c0-0.7,0.2-0.7,0.2-0.6
		c0.1,0.1,0,0.1,0.2,0c0.1-0.1,0-0.1-0.3-0.4c-0.3-0.3-0.5-0.9-0.7-1.7c-0.2-0.7,0-0.7,0.1-0.7c0.1,0,0.2,0.3,0.4,0.7
		c0.1,0.4,0.3,0.5,0.4,0.5c0.1-0.1-0.3-1.7-0.5-1.9c-0.1-0.3-0.1-1-0.1-1.2c0-0.2-0.3-0.8-0.6-1.2c-0.3-0.5-0.1,0-0.1,0.6
		c0.1,0.6-0.5-0.2-0.7-1.2c-0.3-1-0.4-1.4-0.2-1.4c0.2,0,0.9,0.9,1.1,0.9c0.2,0,0.3-0.8,0.3-0.8s1,1.5,1.4,2.6
		c0.3,0.7,0.7,1.8,0.9,2.7c0.2,0.9,0.6,2.3,0.6,2.3s-0.4-2.1-0.6-2.8c-0.2-0.6-0.7-2.1-0.8-2.4c-0.2-0.2-0.1-0.3,0-0.3
		c0.1,0,0.2,0,0.1-0.3c-0.1-0.3-0.7-2.3-0.5-2.3c0.1,0,1,1.5,1,1.5s-0.8-2.4-1.4-4c-0.6-1.6-2.1-3.4-2.8-4.2
		c-0.7-0.8-1.8-1.8-2.6-2.3c-0.8-0.6-2.1-1.4-2.5-1.6c-0.5-0.2-1.5-0.9-1.5-0.9s0.7,0.8,0.9,1c0.3,0.2,0.1,0.3,0.1,0.3
		s-1.6-1-1.8-1.2c-0.2-0.1-0.2-0.3-0.2-0.6c0-0.3-1.3-0.8-1.7-0.8c-0.4,0-0.5,0.4-0.7,0.5c-0.2,0.1-0.8,0-0.8,0s-1.6-0.8-2.3-1.2
		c-0.7-0.4-1.1-0.5-1.9-0.6c-0.8-0.1-3.1-1-3.1-1l0.2,0.7c0,0-1.5-0.5-1.8-0.5c-0.6,0-0.7,0.6-1.5,0.6c-0.3,0-1.3,0-1.6,0
		c-0.3,0-0.3-0.2-0.1-0.2c0.2,0,0.3-0.1,0.5-0.1c0.2,0,0.7-0.2,0.7-0.2s-0.8,0.2-1.3,0.2c-0.6,0-0.7-0.4-1-0.4
		c-0.3,0-1.6,0.3-1.6,0.3s0.3-0.2,0.6-0.4c0.3-0.2,0.9-0.5,0.9-0.5s-0.3,0-0.7,0c-0.7,0-2.3,0.6-2.9,0.7c-0.6,0.1,0.1-0.5,0.1-0.5
		s-0.9,0.3-1.5,0.7c-0.7,0.4-1.9,0.8-3,1.2c-1.1,0.4-2,0.8-2.8,1.2c-0.7,0.4-1.6,1-2.1,1.4c-0.5,0.4-1.2,1-1.4,1.2
		c-0.2,0.2-0.3,0.1-0.3-0.1c0-0.2-0.1-0.3-0.1-0.3s-0.1,0.2-0.6,0.7c-0.5,0.5-1.4,1.4-1.8,1.6c-0.4,0.3-1.1,0.9-1.5,1.2
		c-0.4,0.3-1.2,1-1.4,1.3c-0.2,0.3-0.5,0.6-0.7,1.3c-0.2,0.7-0.2,0.8-0.4,0.8c-0.2,0-0.2,0.1-0.3,0.4c-0.1,0.3-0.4,0.5-0.5,0.8
		c-0.1,0.3-0.3,0.7-0.5,1.2c-0.1,0.5-0.4,1.2-0.7,1.6c-0.3,0.4-0.6,1-0.8,1c-0.2,0-0.3-0.5-0.3-0.5s-0.1,0.3-0.2,0.7
		c-0.2,0.4-1,2.1-1.4,3.1c-0.4,1.1-1.7,5.4-1.7,5.5c0,0.1,0.3,0.7,0.3,0.9C726.6,207.2,726.4,210.6,726.4,211.2z"/>

</g>
<g>
	<g>
		<circle class="os0" cx="960.2" cy="213" r="49.6"/>
		<path class="os2" d="M960.2,263.1c-27.6,0-50.1-22.5-50.1-50.1s22.5-50.1,50.1-50.1s50.1,22.5,50.1,50.1S987.8,263.1,960.2,263.1z
			 M960.2,164c-27,0-49,22-49,49s22,49,49,49s49-22,49-49S987.2,164,960.2,164z"/>
	</g>
	<g>
		<path class="os2" d="M934.6,191.6c3,0,5.5,1.1,7.5,3.3c5.4,5.8,10.7,11.7,16,17.6c0.2,0.3,0.3,0.4,0,0.7
			c-5.4,5.9-10.8,11.9-16.2,17.8c-3.7,4.1-10.1,4.3-14.1,0.6c-0.4-0.3-0.4-0.5,0-0.9c5.3-5.8,10.6-11.6,15.9-17.4
			c0.3-0.3,0.3-0.5,0-0.8c-5.3-5.8-10.6-11.6-15.9-17.5c-0.3-0.4-0.3-0.5,0.1-0.8C929.7,192.6,932,191.7,934.6,191.6z"/>
		<path class="os2" d="M985.5,191.6c3,0,5.2,0.9,7.2,2.6c0.3,0.3,0.4,0.4,0.1,0.8c-2.6,2.8-5.1,5.6-7.7,8.5c-2.7,3-5.5,6-8.2,9
			c-0.4,0.4-0.2,0.6,0.1,0.9c5.3,5.8,10.5,11.6,15.8,17.4c0.3,0.4,0.3,0.5-0.1,0.8c-4.3,3.8-10.5,3.4-14.4-0.8
			c-5.2-5.8-10.5-11.6-15.8-17.4c-0.3-0.4-0.4-0.6,0-1c5.3-5.8,10.6-11.7,16-17.5C980.4,192.8,982.9,191.6,985.5,191.6z"/>
		<path class="os2" d="M945.4,184.4c2.4,0,4.6,1.1,6.5,3.1c2.7,2.9,5.3,5.8,8,8.8c0.3,0.3,0.4,0.3,0.7,0c2.6-2.9,5.3-5.8,7.9-8.7
			c3.5-3.8,9.4-4.1,13.1-0.7c0.3,0.3,0.3,0.4,0,0.7c-7,7.7-14,15.4-21,23.1c-0.3,0.4-0.5,0.3-0.8,0c-7-7.7-14-15.4-21-23.1
			c-0.3-0.3-0.3-0.5,0-0.8C940.7,185.2,942.7,184.4,945.4,184.4z"/>
		<path class="os2" d="M975.4,241.4c-2.6,0-4.9-1-6.6-2.9c-2.7-2.9-5.4-5.9-8.1-8.9c-0.3-0.3-0.5-0.4-0.8,0
			c-2.6,2.9-5.3,5.8-7.9,8.7c-3.5,3.8-9.1,4.1-13,0.7c-0.4-0.3-0.3-0.5,0-0.8c7-7.7,14-15.4,21-23.1c0.3-0.3,0.4-0.3,0.7,0
			c7,7.7,14,15.5,21.1,23.2c0.3,0.3,0.3,0.5,0,0.7C979.8,240.5,977.8,241.4,975.4,241.4z"/>
	</g>
</g>
<g>
	<g>
		<circle class="os0" cx="137.9" cy="213" r="49.6"/>
		<path class="os2" d="M137.9,263.1c-27.6,0-50.1-22.5-50.1-50.1s22.5-50.1,50.1-50.1s50.1,22.5,50.1,50.1S165.6,263.1,137.9,263.1z
			 M137.9,164c-27,0-49,22-49,49s22,49,49,49c27,0,49-22,49-49S164.9,164,137.9,164z"/>
	</g>
	<g>
		<polygon class="os2" points="108.8,234.7 133,237.8 133,214.4 108.8,214.4 		"/>
		<polygon class="os2" points="108.8,212.1 133,212.1 133,188.6 108.8,192 		"/>
		<polygon class="os2" points="135.3,188.3 135.3,212.1 167,212.1 167,183.9 		"/>
		<polygon class="os2" points="135.3,238.1 167,242.1 167,214.4 135.3,214.4 		"/>
	</g>
</g>
<rect y="155.3" class="os0" width="1100" height="17"/>
<rect y="253.4" class="os0" width="1100" height="17"/>
<line class="os4" x1="0" y1="168.9" x2="1100" y2="168.9"/>
<line class="os4" x1="1100" y1="256.9" x2="0" y2="256.9"/>


<g>
	<g>
		<path class="os0" d="M549.2,107.1c-58.3,0-105.6,47.3-105.6,105.6s47.3,105.6,105.6,105.6S654.8,271,654.8,212.7
			S607.5,107.1,549.2,107.1z M549.2,298.9c-47.6,0-86.2-38.6-86.2-86.2s38.6-86.2,86.2-86.2c47.6,0,86.2,38.6,86.2,86.2
			S596.9,298.9,549.2,298.9z"/>
		<circle class="os5" cx="549.2" cy="213" r="105.6"/>
		<circle class="os5" cx="549.2" cy="212.6" r="86.2"/>
		<g>
			<path class="os4" d="M461.6,6.6h79.5c2.6,0,4.7,2.1,4.7,4.7v100.5c0,2.6-2.1,4.7-4.7,4.7h-180c-4.2,0-6.3-5.1-3.3-8L458.3,8
				C459.2,7.1,460.4,6.6,461.6,6.6z"/>
			<path class="os4" d="M636.3,6.6h-79.5c-2.6,0-4.7,2.1-4.7,4.7v100.5c0,2.6,2.1,4.7,4.7,4.7h180.1c4.2,0,6.3-5.1,3.3-8L639.7,8
				C638.8,7.1,637.6,6.6,636.3,6.6z"/>
			<g>
				<path class="os6" d="M519.3,36c-4.6,4.6-11.9,4.6-16.5,0c-4.6-4.6-4.5-11.9,0-16.5c4.6-4.6,11.9-4.5,16.5,0
					C523.8,24.1,523.8,31.4,519.3,36z"/>
				<path class="os6" d="M514.1,30.8c-1.7,1.7-4.4,1.7-6.1,0c-1.7-1.7-1.7-4.4,0-6.1c1.7-1.7,4.4-1.7,6.1,0
					C515.8,26.4,515.8,29.1,514.1,30.8z"/>
				<line class="os6" x1="519.2" y1="36" x2="514.1" y2="30.8"/>
				<line class="os6" x1="507.2" y1="25.5" x2="502" y2="20.3"/>
			</g>
			<g>
				<path class="os6" d="M592.8,36c-4.6,4.6-11.9,4.6-16.5,0c-4.6-4.6-4.5-11.9,0-16.5c4.6-4.6,11.9-4.5,16.5,0
					C597.3,24.1,597.4,31.4,592.8,36z"/>
				<path class="os6" d="M587.6,30.8c-1.7,1.7-4.4,1.7-6.1,0c-1.7-1.7-1.7-4.4,0-6.1c1.7-1.7,4.4-1.7,6.1,0
					C589.3,26.4,589.3,29.1,587.6,30.8z"/>
				<line class="os6" x1="592.8" y1="36" x2="587.6" y2="30.8"/>
				<line class="os6" x1="580.7" y1="25.5" x2="575.5" y2="20.3"/>
			</g>
			<path class="os4" d="M461.6,418.7h79.5c2.6,0,4.7-2.1,4.7-4.7V313.5c0-2.6-2.1-4.7-4.7-4.7h-180c-4.2,0-6.3,5.1-3.3,8
				l100.5,100.5C459.2,418.2,460.4,418.7,461.6,418.7z"/>
			<path class="os4" d="M636.3,418.7h-79.5c-2.6,0-4.7-2.1-4.7-4.7V313.5c0-2.6,2.1-4.7,4.7-4.7h180.1c4.2,0,6.3,5.1,3.3,8
				L639.7,417.3C638.8,418.2,637.6,418.7,636.3,418.7z"/>
			<g>
				<path class="os6" d="M519.3,389.3c-4.6-4.6-11.9-4.6-16.5,0c-4.6,4.6-4.5,11.9,0,16.5c4.6,4.6,11.9,4.5,16.5,0
					C523.8,401.3,523.8,393.9,519.3,389.3z"/>
				<path class="os6" d="M514.1,394.5c-1.7-1.7-4.4-1.7-6.1,0c-1.7,1.7-1.7,4.4,0,6.1c1.7,1.7,4.4,1.7,6.1,0
					C515.8,398.9,515.8,396.2,514.1,394.5z"/>
				<line class="os6" x1="519.2" y1="389.3" x2="514.1" y2="394.5"/>
				<line class="os6" x1="507.2" y1="399.8" x2="502" y2="405"/>
			</g>
			<g>
				<path class="os6" d="M592.8,389.3c-4.6-4.6-11.9-4.6-16.5,0c-4.6,4.6-4.5,11.9,0,16.5c4.6,4.6,11.9,4.5,16.5,0
					C597.3,401.3,597.4,393.9,592.8,389.3z"/>
				<path class="os6" d="M587.6,394.5c-1.7-1.7-4.4-1.7-6.1,0c-1.7,1.7-1.7,4.4,0,6.1c1.7,1.7,4.4,1.7,6.1,0
					C589.3,398.9,589.3,396.2,587.6,394.5z"/>
				<line class="os6" x1="592.8" y1="389.3" x2="587.6" y2="394.5"/>
				<line class="os6" x1="580.7" y1="399.8" x2="575.5" y2="405"/>
			</g>
			<path id="svg-concept" class="os7" d="M707.9,136.4l-65.9,0c-22.1-26.7-55.5-43.8-92.9-43.8c-37.4,0-70.8,17-92.9,43.8l-65.9,0l87.6-87.6h142.3
				L707.9,136.4"/>
			<path id="svg-concept" class="os7" d="M707.9,289.6l-65.9,0c-22.1,26.7-55.5,43.8-92.9,43.8c-37.4,0-70.8-17-92.9-43.8l-65.9,0l87.6,87.6h142.3
				L707.9,289.6"/>
		</g>
		<path class="os4" d="M462.7,152.5c21.9-29.7,53-45,86.5-45c33.5,0,64.5,14.4,86.5,45L462.7,152.5z"/>
		<path class="os4" d="M635.7,273.8c-21.9,29.7-53,45-86.5,45c-33.5,0-64.5-14.4-86.5-45L635.7,273.8z"/>
	</g>
	<g>
		<path id="svg-ico" class="os8" d="M523.4,355.9c0,3.5-2.8,6.3-6.3,6.3c-3.5,0-6.3-2.8-6.3-6.3c0-3.5,2.8-6.3,6.3-6.3
			C520.6,349.6,523.4,352.4,523.4,355.9z"/>
	</g>
	<g>
		<path id="svg-ico" class="os8" d="M555.5,355.9c0,3.5-2.8,6.3-6.3,6.3c-3.5,0-6.3-2.8-6.3-6.3c0-3.5,2.8-6.3,6.3-6.3
			C552.7,349.6,555.5,352.4,555.5,355.9z"/>
	</g>
	<g>
		<path id="svg-ico" class="os8" d="M587.6,355.9c0,3.5-2.8,6.3-6.3,6.3c-3.5,0-6.3-2.8-6.3-6.3c0-3.5,2.8-6.3,6.3-6.3
			C584.8,349.6,587.6,352.4,587.6,355.9z"/>
	</g>

	<animateMotion
		path="M0, 0 205 0 0"
		begin="1s" 
		dur="3s"
		fill="freeze"/>
</g>
</svg>
