<?xml version="1.0" encoding="utf-8"?>
<!-- Generator: Adobe Illustrator 22.0.0, SVG Export Plug-In . SVG Version: 6.00 Build 0)  -->
<svg version="1.1" id="Layer_1" xmlns="http://www.w3.org/2000/svg" xmlns:xlink="http://www.w3.org/1999/xlink" x="0px" y="0px"
	 viewBox="0 0 438.8 435.8" style="enable-background:new 0 0 438.8 435.8;" xml:space="preserve">
<style type="text/css">
	.pvisitors0{fill:#FFFFFF;stroke:#808080;stroke-linecap:round;stroke-linejoin:round;stroke-miterlimit:10;}
	.pvisitors1{fill:none;stroke:#ee5586;stroke-linecap:round;stroke-linejoin:round;}
	.pvisitors2{fill:none;stroke:#ee5586;stroke-linecap:round;stroke-linejoin:round;stroke-dasharray:4.6495,4.6495;}
	.pvisitors3{fill:none;stroke:#ee5586;stroke-linecap:round;stroke-linejoin:round;stroke-dasharray:4.9688,4.9688;}
	.pvisitors4{fill:none;stroke:#ee5586;stroke-linecap:round;stroke-linejoin:round;stroke-dasharray:4.7568,4.7568;}
	.pvisitors5{fill:none;stroke:#808080;stroke-linecap:round;stroke-linejoin:round;stroke-miterlimit:10;}
	.pvisitors6{fill:#FFFFFF;stroke:#ee5586;stroke-linecap:round;stroke-linejoin:round;stroke-miterlimit:10;}
	.pvisitors7{fill:none;stroke:#ee5586;stroke-linecap:round;stroke-linejoin:round;stroke-miterlimit:10;}
	.pvisitors8{fill:#FFFFFF;stroke-width:2;stroke:#ee5586;stroke-linecap:round;stroke-linejoin:round;stroke-miterlimit:10;}
	.pvisitors9{fill:none;stroke-width:2;stroke:#ee5586;stroke-linecap:round;stroke-linejoin:round;stroke-miterlimit:10;}
</style>
<g>
	<path class="pvisitors0" d="M433.1,257H5.6c0-118.1,95.7-213.8,213.8-213.8C337.4,43.2,433.1,138.9,433.1,257z"/>
	<g>
		<g>
			<line id="svg-concept" class="pvisitors1" x1="219.4" y1="67.1" x2="219.4" y2="69.6"/>
			<line id="svg-concept" class="pvisitors2" x1="219.4" y1="74.2" x2="219.4" y2="109.1"/>
			<line id="svg-concept" class="pvisitors1" x1="219.4" y1="111.4" x2="219.4" y2="113.9"/>
		</g>
	</g>
	<g>
		<g>
			<line id="svg-concept" class="pvisitors1" x1="86.3" y1="123.6" x2="88.1" y2="125.4"/>
			<line id="svg-concept" class="pvisitors3" x1="91.6" y1="128.9" x2="146" y2="183.4"/>
			<line id="svg-concept" class="pvisitors1" x1="147.8" y1="185.1" x2="149.6" y2="186.9"/>
		</g>
	</g>
	<g>
		<g>
			<line id="svg-concept" class="pvisitors1" x1="364.1" y1="113.4" x2="362.3" y2="115.2"/>
			<line id="svg-concept" class="pvisitors4" x1="359" y1="118.5" x2="293.4" y2="184.1"/>
			<line id="svg-concept" class="pvisitors1" x1="291.7" y1="185.8" x2="289.9" y2="187.6"/>
		</g>
	</g>
	<g>
		<rect x="44" y="70.2" class="pvisitors0" width="67" height="53.6"/>
		<line class="pvisitors5" x1="44" y1="83.6" x2="111" y2="83.6"/>
		<path class="pvisitors5" d="M56,77.4c0,1.2-1,2.2-2.2,2.2c-1.2,0-2.2-1-2.2-2.2c0-1.2,1-2.2,2.2-2.2C55,75.2,56,76.2,56,77.4z"/>
		<circle class="pvisitors5" cx="64.3" cy="77.4" r="2.2"/>
		<circle class="pvisitors5" cx="74.9" cy="77.4" r="2.2"/>
		<path id="svg-concept" class="pvisitors6" d="M77.5,117.1c4.9,0,8.9-4,8.9-8.9c0-4.9-4-8.9-8.9-8.9c-4.9,0-8.9,4-8.9,8.9C68.6,113.1,72.6,117.1,77.5,117.1
			z"/>
		<line id="svg-concept" class="pvisitors7" x1="77.5" y1="106.7" x2="77.5" y2="111.1"/>
		<path id="svg-concept" class="pvisitors7" d="M72.9,97.1v-2.9c0-1.6,1.3-2.9,3-2.9h3.3c1.6,0,3,1.3,3,2.9v2.9"/>
	</g>
	<g>
		<rect x="345.5" y="72" class="pvisitors0" width="53.3" height="42.6"/>
		<polyline id="svg-concept" class="pvisitors7" points="355.7,99.4 365.6,91.2 375.4,101.1 388.6,87.9 		"/>
		<polyline id="svg-concept" class="pvisitors7" points="380.4,87.9 388.6,87.9 388.6,96.1 		"/>
		<line class="pvisitors5" x1="372.2" y1="117.2" x2="372.2" y2="123.4"/>
		<polyline class="pvisitors5" points="360.6,129.1 372.2,123.1 383.7,129.1 		"/>
	</g>
	<g>
		<rect x="193.1" y="4.8" class="pvisitors0" width="58" height="46.4"/>
		<rect x="185" y="12.9" id="svg-concept" class="pvisitors6" width="58" height="46.4"/>
		<line id="svg-concept" class="pvisitors7" x1="185" y1="24.5" x2="243" y2="24.5"/>
		<path class="pvisitors5" d="M195.4,18.9c0,1.1-0.9,1.9-1.9,1.9c-1.1,0-1.9-0.9-1.9-1.9c0-1.1,0.9-1.9,1.9-1.9
			C194.6,17,195.4,17.9,195.4,18.9z"/>
		<circle class="pvisitors5" cx="202.6" cy="18.9" r="1.9"/>
		<circle class="pvisitors5" cx="211.7" cy="18.9" r="1.9"/>
	</g>
</g>

<g>
<path id="svg-concept" class="pvisitors8" d="M157.6,190.8c0,2.2-1.8,4-4,4c-2.2,0-4-1.8-4-4c0-2.2,1.8-4,4-4C155.8,186.8,157.6,188.6,157.6,190.8z"/>
 	<animateMotion
	path="M0 0 -60 -60 0"
	begin="0s" 
	dur="1s" 
	repeatCount="indefinite"
	/>
</g>

<g>
<path id="svg-concept" class="pvisitors8" d="M223.4,118.9c0,2.2-1.8,4-4,4c-2.2,0-4-1.8-4-4c0-2.2,1.8-4,4-4C221.6,114.9,223.4,116.7,223.4,118.9z"/>
	<animateMotion
	path="M0, 0 0 -50"
	begin="1.5s" 
	dur="1s" 
	repeatCount="indefinite"
	/>
</g>

<g>
<path id="svg-concept" class="pvisitors8" d="M289.4,191.9c0,2.2-1.8,4-4,4c-2.2,0-4-1.8-4-4c0-2.2,1.8-4,4-4C287.6,187.9,289.4,189.7,289.4,191.9z"/>
	<animateMotion
	path="M0 0 70 -70"
	begin="1.5s" 
	dur="1s" 
	repeatCount="indefinite"
	/>
</g>

<g>
	<g>
		<path class="pvisitors0" d="M238.3,113.9l-3.4,18.1c26.2,6.6,47.5,29.8,56,60.2l9.4,0l-5.5,34.4l-10.1,3.1v1.4
			c-1.7,46.1-30.3,82.7-65.3,82.7c-35,0-63.6-36.6-65.3-82.7v-1.4l-10.2-3.2l-5.4-34.4l9.4,0c8.5-30.3,29.7-53.5,55.9-60.2
			l-3.3-18.1h36.4H238.3z"/>
		<line class="pvisitors0" x1="219.4" y1="130.1" x2="219.4" y2="113.9"/>
		<line class="pvisitors0" x1="219.4" y1="312" x2="219.4" y2="268.9"/>
		<line id="svg-concept" class="pvisitors9" x1="219.4" y1="249.9" x2="219.4" y2="192.2"/>
		<line id="svg-concept" class="pvisitors9" x1="219.4" y1="249.9" x2="143.9" y2="226.6"/>
		<line id="svg-concept" class="pvisitors9" x1="219.4" y1="249.9" x2="294.8" y2="226.6"/>
		<line id="svg-concept" class="pvisitors9" x1="138.5" y1="192.2" x2="300.3" y2="192.2"/>
		<line id="svg-concept" class="pvisitors9" x1="138.5" y1="192.2" x2="143.9" y2="226.6"/>
		<line id="svg-concept" class="pvisitors9" x1="300.3" y1="192.2" x2="294.8" y2="226.6"/>
		<line id="svg-concept" class="pvisitors9" x1="273.9" y1="192.2" x2="273.9" y2="219.2"/>
		<line id="svg-concept" class="pvisitors9" x1="165" y1="192.2" x2="165" y2="219.2"/>
		<line id="svg-concept" class="pvisitors9" x1="245.2" y1="192.2" x2="245.2" y2="230"/>
		<line id="svg-concept" class="pvisitors9" x1="194.2" y1="192.2" x2="194.2" y2="230"/>
		<line class="pvisitors0" x1="200.5" y1="113.9" x2="238.3" y2="113.9"/>
		<line class="pvisitors0" x1="208.6" y1="157.8" x2="230.2" y2="157.8"/>
		<line class="pvisitors0" x1="203.8" y1="132" x2="208.6" y2="157.8"/>
		<line class="pvisitors0" x1="234.9" y1="132" x2="230.2" y2="157.8"/>
	</g>
	<g>
		<path class="pvisitors0" d="M309.8,359.1V392H129c0,1.7,0-32.9,0-32.9l0,0c0-18.2,14.7-32.9,32.9-32.9h115
			C295.1,326.2,309.8,341,309.8,359.1L309.8,359.1z"/>
		<line class="pvisitors5" x1="129" y1="359.1" x2="161.9" y2="326.2"/>
		<line class="pvisitors5" x1="276.9" y1="326.2" x2="309.8" y2="359.1"/>
		<path id="svg-concept" class="pvisitors6" d="M127.5,296.1c17.6,18,59.9,17.6,59.9,17.6v58.6c0,32.4-60,58.6-60,58.6l0,0c0,0-56.9-26.2-56.9-58.6v-58.6
			C70.5,313.7,109.9,314.1,127.5,296.1"/>
		<path class="pvisitors5" d="M127.6,315.7c14.1,14.5,44,14.1,44,14.1l0.1,39.5c0,23.5-44.4,42.2-44.4,42.2l0,0c0,0-41.6-18.8-41.6-42.2
			l-0.1-39.5C85.7,329.8,113.5,330.1,127.6,315.7"/>
		<line class="pvisitors5" x1="103.4" y1="339.1" x2="99.5" y2="343"/>
		<line class="pvisitors5" x1="119" y1="339.1" x2="97.5" y2="360.6"/>
		<polygon class="pvisitors0" points="319,99.1 300.3,99.1 300.3,84.5 309.8,33.4 319,84.5 		"/>
		<line class="pvisitors5" x1="309.8" y1="88.1" x2="309.8" y2="392"/>
	</g>
</g>
</svg>
