<?xml version="1.0" encoding="utf-8"?>
<!-- Generator: Adobe Illustrator 22.0.0, SVG Export Plug-In . SVG Version: 6.00 Build 0)  -->
<svg version="1.1" id="Layer_1" xmlns="http://www.w3.org/2000/svg" xmlns:xlink="http://www.w3.org/1999/xlink" x="0px" y="0px"
	 viewBox="0 0 1105.7 474" style="enable-background:new 0 0 1105.7 474;" xml:space="preserve">
<style type="text/css">
	.prov0{fill:none;stroke:#808080;stroke-linecap:round;stroke-linejoin:round;stroke-miterlimit:10;}
	.prov1{fill:none;stroke:#ee5586;stroke-width:2;stroke-linecap:round;stroke-linejoin:round;stroke-miterlimit:10;}
	.prov2{fill:#FFFFFF;stroke:#808080;stroke-width:2;stroke-linecap:round;stroke-linejoin:round;stroke-miterlimit:10;}
	.prov3{fill:#FFFFFF;stroke:#808080;stroke-linecap:round;stroke-linejoin:round;stroke-miterlimit:10;}
	.prov4{fill:#FFFFFF;stroke:#ee5586;stroke-linecap:round;stroke-linejoin:round;stroke-miterlimit:10;}
	.prov5{fill:none;stroke:#D7D7D7;stroke-linecap:round;stroke-linejoin:round;}
	.prov6{fill:none;stroke:#D7D7D7;stroke-linecap:round;stroke-linejoin:round;stroke-dasharray:3.0246,3.0246;}
	.prov7{fill:none;stroke:#D7D7D7;stroke-linecap:round;stroke-linejoin:round;stroke-miterlimit:10;}
	.prov8{fill:none;stroke:#808080;stroke-miterlimit:10;}
	.prov9{fill:none;stroke:#ee5586;stroke-width:2;stroke-linecap:round;stroke-linejoin:round;stroke-miterlimit:10;}
</style>
<line class="prov0" x1="0" y1="271.2" x2="1105.5" y2="271.2"/>
<line class="prov0" x1="0" y1="330.3" x2="1105.5" y2="330.3"/>
<line class="prov0" x1="0" y1="411.3" x2="1105.5" y2="411.3"/>


<g>
	<g>
		<path id="svg-concept" class="prov1" d="M66.5,300.7c0,15.9-12.9,28.9-28.8,28.9c-15.9,0-28.8-12.9-28.8-28.9s12.9-28.8,28.8-28.8
			C53.6,271.9,66.5,284.8,66.5,300.7z"/>
		<path id="svg-concept" class="prov1" d="M48.4,300.7c0,5.9-4.8,10.7-10.7,10.7c-5.9,0-10.7-4.8-10.7-10.7s4.8-10.7,10.7-10.7
			C43.6,290.1,48.4,294.8,48.4,300.7z"/>
		<line id="svg-concept" class="prov1" x1="66.5" y1="300.8" x2="48.4" y2="300.8"/>
		<line id="svg-concept" class="prov1" x1="27" y1="300.8" x2="8.9" y2="300.8"/>
		<animateTransform
			attributeName="transform"
			type="rotate"
			from="0 37 301"
			to="360 38 301"
			begin="0s"
			dur="1s"
			repeatCount="indefinite"/>
	</g>

	<g>
	<path id="svg-concept" class="prov1" d="M213.7,300.7c0,15.9-12.9,28.9-28.8,28.9c-15.9,0-28.8-12.9-28.8-28.9s12.9-28.8,28.8-28.8
		C200.8,271.9,213.7,284.8,213.7,300.7z"/>
	<path id="svg-concept" class="prov1" d="M195.6,300.7c0,5.9-4.8,10.7-10.7,10.7c-5.9,0-10.7-4.8-10.7-10.7s4.8-10.7,10.7-10.7
		C190.8,290.1,195.6,294.8,195.6,300.7z"/>
	<line id="svg-concept" class="prov1" x1="213.7" y1="300.8" x2="195.6" y2="300.8"/>
	<line id="svg-concept" class="prov1" x1="174.2" y1="300.8" x2="156" y2="300.8"/>
	<animateTransform
			attributeName="transform"
			type="rotate"
			from="0 185 301"
			to="360 185 301"
			begin="0s"
			dur="1s"
			repeatCount="indefinite"/>
	</g>

	<g>
	<path id="svg-concept" class="prov1" d="M360.8,300.7c0,15.9-12.9,28.9-28.8,28.9c-15.9,0-28.8-12.9-28.8-28.9s12.9-28.8,28.8-28.8
		C347.9,271.9,360.8,284.8,360.8,300.7z"/>
	<path id="svg-concept" class="prov1" d="M342.7,300.7c0,5.9-4.8,10.7-10.7,10.7c-5.9,0-10.7-4.8-10.7-10.7s4.8-10.7,10.7-10.7
		C337.9,290.1,342.7,294.8,342.7,300.7z"/>
	<line id="svg-concept" class="prov1" x1="360.8" y1="300.8" x2="342.7" y2="300.8"/>
	<line id="svg-concept" class="prov1" x1="321.3" y1="300.8" x2="303.2" y2="300.8"/>
	<animateTransform
			attributeName="transform"
			type="rotate"
			from="0 332 301"
			to="360 332 301"
			begin="0.5s"
			dur="1s"
			repeatCount="indefinite"/>
	</g>

	<g>
	<path id="svg-concept" class="prov1" d="M508,300.7c0,15.9-12.9,28.9-28.8,28.9c-15.9,0-28.8-12.9-28.8-28.9s12.9-28.8,28.8-28.8
		C495.1,271.9,508,284.8,508,300.7z"/>
	<path id="svg-concept" class="prov1" d="M489.9,300.7c0,5.9-4.8,10.7-10.7,10.7c-5.9,0-10.7-4.8-10.7-10.7s4.8-10.7,10.7-10.7
		C485.1,290.1,489.9,294.8,489.9,300.7z"/>
	<line id="svg-concept" class="prov1" x1="508" y1="300.8" x2="489.9" y2="300.8"/>
	<line id="svg-concept" class="prov1" x1="468.5" y1="300.8" x2="450.4" y2="300.8"/>
	<animateTransform
			attributeName="transform"
			type="rotate"
			from="0 479 301"
			to="360 479 301"
			begin="0.5s"
			dur="1s"
			repeatCount="indefinite"/>
	</g>

	<g>
	<path id="svg-concept" class="prov1" d="M655.2,300.7c0,15.9-12.9,28.9-28.8,28.9c-15.9,0-28.8-12.9-28.8-28.9s12.9-28.8,28.8-28.8
		C642.2,271.9,655.2,284.8,655.2,300.7z"/>
	<path id="svg-concept" class="prov1" d="M637,300.7c0,5.9-4.8,10.7-10.7,10.7c-5.9,0-10.7-4.8-10.7-10.7s4.8-10.7,10.7-10.7
		C632.2,290.1,637,294.8,637,300.7z"/>
	<line id="svg-concept" class="prov1" x1="655.2" y1="300.8" x2="637" y2="300.8"/>
	<line id="svg-concept" class="prov1" x1="615.6" y1="300.8" x2="597.5" y2="300.8"/>
	<animateTransform
			attributeName="transform"
			type="rotate"
			from="0 626 301"
			to="360 626 301"
			begin="0.5s"
			dur="1s"
			repeatCount="indefinite"/>
	</g>

	<g>
	<path id="svg-concept" class="prov1" d="M802.3,300.7c0,15.9-12.9,28.9-28.8,28.9c-15.9,0-28.8-12.9-28.8-28.9s12.9-28.8,28.8-28.8
		C789.4,271.9,802.3,284.8,802.3,300.7z"/>
	<path id="svg-concept" class="prov1" d="M784.2,300.7c0,5.9-4.8,10.7-10.7,10.7c-5.9,0-10.7-4.8-10.7-10.7s4.8-10.7,10.7-10.7
		C779.4,290.1,784.2,294.8,784.2,300.7z"/>
	<line id="svg-concept" class="prov1" x1="802.3" y1="300.8" x2="784.2" y2="300.8"/>
	<line id="svg-concept" class="prov1" x1="762.8" y1="300.8" x2="744.7" y2="300.8"/>
	<animateTransform
			attributeName="transform"
			type="rotate"
			from="0 773 301"
			to="360 773 301"
			begin="0.5s"
			dur="1s"
			repeatCount="indefinite"/>
	</g>

	<g>
	<path id="svg-concept" class="prov1" d="M949.5,300.7c0,15.9-12.9,28.9-28.8,28.9c-15.9,0-28.8-12.9-28.8-28.9s12.9-28.8,28.8-28.8
		C936.6,271.9,949.5,284.8,949.5,300.7z"/>
	<path id="svg-concept" class="prov1" d="M931.3,300.7c0,5.9-4.8,10.7-10.7,10.7c-5.9,0-10.7-4.8-10.7-10.7s4.8-10.7,10.7-10.7
		C926.6,290.1,931.3,294.8,931.3,300.7z"/>
	<line id="svg-concept" class="prov1" x1="949.5" y1="300.8" x2="931.3" y2="300.8"/>
	<line id="svg-concept" class="prov1" x1="910" y1="300.8" x2="891.8" y2="300.8"/>
	<animateTransform
			attributeName="transform"
			type="rotate"
			from="0 921 301"
			to="360 921 301"
			begin="0.5s"
			dur="1s"
			repeatCount="indefinite"/>
	</g>

	<g>
	<path id="svg-concept" class="prov1" d="M1096.6,300.7c0,15.9-12.9,28.9-28.8,28.9c-15.9,0-28.8-12.9-28.8-28.9s12.9-28.8,28.8-28.8
		C1083.7,271.9,1096.6,284.8,1096.6,300.7z"/>
	<path id="svg-concept" class="prov1" d="M1078.5,300.7c0,5.9-4.8,10.7-10.7,10.7c-5.9,0-10.7-4.8-10.7-10.7s4.8-10.7,10.7-10.7
		C1073.7,290.1,1078.5,294.8,1078.5,300.7z"/>
	<line id="svg-concept" class="prov1" x1="1096.6" y1="300.8" x2="1078.5" y2="300.8"/>
	<line id="svg-concept" class="prov1" x1="1057.1" y1="300.8" x2="1039" y2="300.8"/>
	<animateTransform
			attributeName="transform"
			type="rotate"
			from="0 1068 301"
			to="360 1068 301"
			begin="0.5s"
			dur="1s"
			repeatCount="indefinite"/>
	</g>
</g>


<g>
	<g>
		<path class="prov2" d="M686.7,257c0,4.3-3.2,7.8-7.2,7.8H426c-4,0-7.2-3.5-7.2-7.8v-27.8c0-4.3,3.2-7.8,7.2-7.8h253.6
			c3.9,0,7.2,3.5,7.2,7.8V257z"/>
		<path id="svg-concept" class="prov1" d="M489,239.9h-1.1c-0.7,0-1.2-0.5-1.2-1.2v-1.1c0-0.7,0.5-1.2,1.2-1.2h1.1c0.7,0,1.2,0.5,1.2,1.2v1.1
			C490.2,239.4,489.7,239.9,489,239.9z"/>
		<path id="svg-concept" class="prov1" d="M484.5,253.2H483c-0.9,0-1.7-0.8-1.7-1.7V250c0-0.9,0.8-1.7,1.7-1.7h1.5c0.9,0,1.7,0.8,1.7,1.7v1.5
			C486.2,252.4,485.4,253.2,484.5,253.2z"/>
		<path id="svg-concept" class="prov1" d="M549.5,239.9h-1.1c-0.7,0-1.2-0.5-1.2-1.2v-1.1c0-0.7,0.5-1.2,1.2-1.2h1.1c0.7,0,1.2,0.5,1.2,1.2v1.1
			C550.8,239.4,550.2,239.9,549.5,239.9z"/>
		<path id="svg-concept" class="prov1" d="M545,253.2h-1.5c-0.9,0-1.7-0.8-1.7-1.7V250c0-0.9,0.8-1.7,1.7-1.7h1.5c0.9,0,1.7,0.8,1.7,1.7v1.5
			C546.7,252.4,545.9,253.2,545,253.2z"/>
		<path id="svg-concept" class="prov1" d="M610,239.9H609c-0.7,0-1.2-0.5-1.2-1.2v-1.1c0-0.7,0.5-1.2,1.2-1.2h1.1c0.7,0,1.2,0.5,1.2,1.2v1.1
			C611.3,239.4,610.7,239.9,610,239.9z"/>
		<path id="svg-concept" class="prov1" d="M605.5,253.2H604c-0.9,0-1.7-0.8-1.7-1.7V250c0-0.9,0.8-1.7,1.7-1.7h1.5c0.9,0,1.7,0.8,1.7,1.7v1.5
			C607.2,252.4,606.4,253.2,605.5,253.2z"/>
		<path id="svg-concept" class="prov1" d="M653,243.1c0,5.1-4.2,9.3-9.3,9.3c-5.1,0-9.3-4.2-9.3-9.3c0-5.1,4.2-9.3,9.3-9.3
			C648.8,233.8,653,238,653,243.1z"/>
		<path id="svg-concept" class="prov1" d="M647.1,243.1c0,1.9-1.5,3.4-3.4,3.4c-1.9,0-3.4-1.5-3.4-3.4s1.5-3.4,3.4-3.4
			C645.6,239.7,647.1,241.2,647.1,243.1z"/>
		<line id="svg-concept" class="prov1" x1="653" y1="243.1" x2="647.1" y2="243.1"/>
		<line id="svg-concept" class="prov1" x1="640.2" y1="243.1" x2="634.4" y2="243.1"/>
		<line class="prov0" x1="433.6" y1="221.4" x2="433.6" y2="264.7"/>
		<line class="prov0" x1="672" y1="221.4" x2="672" y2="264.8"/>
		<path class="prov0" d="M486.2,256.6h-43.7c-2.2,0-4-1.8-4-4V249c0-2.2,1.8-4,4-4h43.7c2.2,0,4,1.8,4,4v3.6
			C490.2,254.8,488.4,256.6,486.2,256.6z"/>
		<path class="prov0" d="M445,239.9H444c-0.7,0-1.2-0.5-1.2-1.2v-1.1c0-0.7,0.5-1.2,1.2-1.2h1.1c0.7,0,1.2,0.5,1.2,1.2v1.1
			C446.3,239.4,445.7,239.9,445,239.9z"/>
		<path class="prov0" d="M452.1,239.9H451c-0.7,0-1.2-0.5-1.2-1.2v-1.1c0-0.7,0.5-1.2,1.2-1.2h1.1c0.7,0,1.2,0.5,1.2,1.2v1.1
			C453.3,239.4,452.8,239.9,452.1,239.9z"/>
		<path class="prov0" d="M462.1,239.9H461c-0.7,0-1.2-0.5-1.2-1.2v-1.1c0-0.7,0.5-1.2,1.2-1.2h1.1c0.7,0,1.2,0.5,1.2,1.2v1.1
			C463.3,239.4,462.8,239.9,462.1,239.9z"/>
		<path class="prov0" d="M445,232.2H444c-0.7,0-1.2-0.5-1.2-1.2v-1.1c0-0.7,0.5-1.2,1.2-1.2h1.1c0.7,0,1.2,0.5,1.2,1.2v1.1
			C446.3,231.7,445.7,232.2,445,232.2z"/>
		<path class="prov0" d="M452.1,232.2H451c-0.7,0-1.2-0.5-1.2-1.2v-1.1c0-0.7,0.5-1.2,1.2-1.2h1.1c0.7,0,1.2,0.5,1.2,1.2v1.1
			C453.3,231.7,452.8,232.2,452.1,232.2z"/>
		<path class="prov0" d="M488.9,232.2h-1.1c-0.7,0-1.2-0.5-1.2-1.2v-1.1c0-0.7,0.5-1.2,1.2-1.2h1.1c0.7,0,1.2,0.5,1.2,1.2v1.1
			C490.2,231.7,489.6,232.2,488.9,232.2z"/>
		<path class="prov0" d="M469.2,239.9h-1.1c-0.7,0-1.2-0.5-1.2-1.2v-1.1c0-0.7,0.5-1.2,1.2-1.2h1.1c0.7,0,1.2,0.5,1.2,1.2v1.1
			C470.4,239.4,469.9,239.9,469.2,239.9z"/>
		<path class="prov0" d="M476.2,239.9h-1.1c-0.7,0-1.2-0.5-1.2-1.2v-1.1c0-0.7,0.5-1.2,1.2-1.2h1.1c0.7,0,1.2,0.5,1.2,1.2v1.1
			C477.4,239.4,476.8,239.9,476.2,239.9z"/>
		<path class="prov0" d="M476.3,239.9h-1.1c-0.7,0-1.2-0.5-1.2-1.2v-1.1c0-0.7,0.5-1.2,1.2-1.2h1.1c0.7,0,1.2,0.5,1.2,1.2v1.1
			C477.5,239.4,476.9,239.9,476.3,239.9z"/>
		<path class="prov0" d="M476.3,232.2l-14.6,0c-0.7,0-1.2-0.5-1.2-1.2v-1.1c0-0.7,0.5-1.2,1.2-1.2l14.6,0c0.7,0,1.2,0.5,1.2,1.2v1.1
			C477.5,231.7,476.9,232.2,476.3,232.2z"/>
		<line class="prov0" x1="456.7" y1="245" x2="456.7" y2="256.6"/>
		<path class="prov0" d="M475.5,253.2H474c-0.9,0-1.7-0.8-1.7-1.7V250c0-0.9,0.8-1.7,1.7-1.7h1.5c0.9,0,1.7,0.8,1.7,1.7v1.5
			C477.2,252.4,476.4,253.2,475.5,253.2z"/>
		<path class="prov0" d="M546.8,256.6h-43.7c-2.2,0-4-1.8-4-4V249c0-2.2,1.8-4,4-4h43.7c2.2,0,4,1.8,4,4v3.6
			C550.8,254.8,549,256.6,546.8,256.6z"/>
		<path class="prov0" d="M505.6,239.9h-1.1c-0.7,0-1.2-0.5-1.2-1.2v-1.1c0-0.7,0.5-1.2,1.2-1.2h1.1c0.7,0,1.2,0.5,1.2,1.2v1.1
			C506.8,239.4,506.2,239.9,505.6,239.9z"/>
		<path class="prov0" d="M512.6,239.9h-1.1c-0.7,0-1.2-0.5-1.2-1.2v-1.1c0-0.7,0.5-1.2,1.2-1.2h1.1c0.7,0,1.2,0.5,1.2,1.2v1.1
			C513.9,239.4,513.3,239.9,512.6,239.9z"/>
		<path class="prov0" d="M522.6,239.9h-1.1c-0.7,0-1.2-0.5-1.2-1.2v-1.1c0-0.7,0.5-1.2,1.2-1.2h1.1c0.7,0,1.2,0.5,1.2,1.2v1.1
			C523.8,239.4,523.3,239.9,522.6,239.9z"/>
		<path class="prov0" d="M505.6,232.2h-1.1c-0.7,0-1.2-0.5-1.2-1.2v-1.1c0-0.7,0.5-1.2,1.2-1.2h1.1c0.7,0,1.2,0.5,1.2,1.2v1.1
			C506.8,231.7,506.2,232.2,505.6,232.2z"/>
		<path class="prov0" d="M512.6,232.2h-1.1c-0.7,0-1.2-0.5-1.2-1.2v-1.1c0-0.7,0.5-1.2,1.2-1.2h1.1c0.7,0,1.2,0.5,1.2,1.2v1.1
			C513.9,231.7,513.3,232.2,512.6,232.2z"/>
		<path class="prov0" d="M549.4,232.2h-1.1c-0.7,0-1.2-0.5-1.2-1.2v-1.1c0-0.7,0.5-1.2,1.2-1.2h1.1c0.7,0,1.2,0.5,1.2,1.2v1.1
			C550.7,231.7,550.1,232.2,549.4,232.2z"/>
		<path class="prov0" d="M529.7,239.9h-1.1c-0.7,0-1.2-0.5-1.2-1.2v-1.1c0-0.7,0.5-1.2,1.2-1.2h1.1c0.7,0,1.2,0.5,1.2,1.2v1.1
			C530.9,239.4,530.4,239.9,529.7,239.9z"/>
		<path class="prov0" d="M536.7,239.9h-1.1c-0.7,0-1.2-0.5-1.2-1.2v-1.1c0-0.7,0.5-1.2,1.2-1.2h1.1c0.7,0,1.2,0.5,1.2,1.2v1.1
			C537.9,239.4,537.3,239.9,536.7,239.9z"/>
		<path class="prov0" d="M536.8,239.9h-1.1c-0.7,0-1.2-0.5-1.2-1.2v-1.1c0-0.7,0.5-1.2,1.2-1.2h1.1c0.7,0,1.2,0.5,1.2,1.2v1.1
			C538,239.4,537.5,239.9,536.8,239.9z"/>
		<path class="prov0" d="M536.8,232.2l-14.6,0c-0.7,0-1.2-0.5-1.2-1.2v-1.1c0-0.7,0.5-1.2,1.2-1.2l14.6,0c0.7,0,1.2,0.5,1.2,1.2v1.1
			C538,231.7,537.5,232.2,536.8,232.2z"/>
		<line class="prov0" x1="517.3" y1="245" x2="517.3" y2="256.6"/>
		<path class="prov0" d="M536,253.2h-1.5c-0.9,0-1.7-0.8-1.7-1.7V250c0-0.9,0.8-1.7,1.7-1.7h1.5c0.9,0,1.7,0.8,1.7,1.7v1.5
			C537.7,252.4,536.9,253.2,536,253.2z"/>
		<path class="prov0" d="M607.3,256.6h-43.7c-2.2,0-4-1.8-4-4V249c0-2.2,1.8-4,4-4h43.7c2.2,0,4,1.8,4,4v3.6
			C611.3,254.8,609.5,256.6,607.3,256.6z"/>
		<path class="prov0" d="M566.1,239.9H565c-0.7,0-1.2-0.5-1.2-1.2v-1.1c0-0.7,0.5-1.2,1.2-1.2h1.1c0.7,0,1.2,0.5,1.2,1.2v1.1
			C567.3,239.4,566.7,239.9,566.1,239.9z"/>
		<path class="prov0" d="M573.1,239.9H572c-0.7,0-1.2-0.5-1.2-1.2v-1.1c0-0.7,0.5-1.2,1.2-1.2h1.1c0.7,0,1.2,0.5,1.2,1.2v1.1
			C574.4,239.4,573.8,239.9,573.1,239.9z"/>
		<path class="prov0" d="M583.1,239.9H582c-0.7,0-1.2-0.5-1.2-1.2v-1.1c0-0.7,0.5-1.2,1.2-1.2h1.1c0.7,0,1.2,0.5,1.2,1.2v1.1
			C584.3,239.4,583.8,239.9,583.1,239.9z"/>
		<path class="prov0" d="M566.1,232.2H565c-0.7,0-1.2-0.5-1.2-1.2v-1.1c0-0.7,0.5-1.2,1.2-1.2h1.1c0.7,0,1.2,0.5,1.2,1.2v1.1
			C567.3,231.7,566.7,232.2,566.1,232.2z"/>
		<path class="prov0" d="M573.1,232.2H572c-0.7,0-1.2-0.5-1.2-1.2v-1.1c0-0.7,0.5-1.2,1.2-1.2h1.1c0.7,0,1.2,0.5,1.2,1.2v1.1
			C574.4,231.7,573.8,232.2,573.1,232.2z"/>
		<path class="prov0" d="M609.9,232.2h-1.1c-0.7,0-1.2-0.5-1.2-1.2v-1.1c0-0.7,0.5-1.2,1.2-1.2h1.1c0.7,0,1.2,0.5,1.2,1.2v1.1
			C611.2,231.7,610.6,232.2,609.9,232.2z"/>
		<path class="prov0" d="M590.2,239.9h-1.1c-0.7,0-1.2-0.5-1.2-1.2v-1.1c0-0.7,0.5-1.2,1.2-1.2h1.1c0.7,0,1.2,0.5,1.2,1.2v1.1
			C591.4,239.4,590.9,239.9,590.2,239.9z"/>
		<path class="prov0" d="M597.2,239.9h-1.1c-0.7,0-1.2-0.5-1.2-1.2v-1.1c0-0.7,0.5-1.2,1.2-1.2h1.1c0.7,0,1.2,0.5,1.2,1.2v1.1
			C598.4,239.4,597.8,239.9,597.2,239.9z"/>
		<path class="prov0" d="M597.3,239.9h-1.1c-0.7,0-1.2-0.5-1.2-1.2v-1.1c0-0.7,0.5-1.2,1.2-1.2h1.1c0.7,0,1.2,0.5,1.2,1.2v1.1
			C598.5,239.4,598,239.9,597.3,239.9z"/>
		<path id="svg-concept" class="prov1" d="M666,251.3c0,1.5-1.2,2.7-2.7,2.7c-1.5,0-2.7-1.2-2.7-2.7c0-1.5,1.2-2.7,2.7-2.7
			C664.7,248.6,666,249.8,666,251.3z"/>
		<path class="prov0" d="M663.8,243.6h-1.1c-0.7,0-1.2-0.5-1.2-1.2v-1.1c0-0.7,0.5-1.2,1.2-1.2h1.1c0.7,0,1.2,0.5,1.2,1.2v1.1
			C665,243,664.4,243.6,663.8,243.6z"/>
		<path class="prov0" d="M663.8,235.7h-1.1c-0.7,0-1.2-0.5-1.2-1.2v-1.1c0-0.7,0.5-1.2,1.2-1.2h1.1c0.7,0,1.2,0.5,1.2,1.2v1.1
			C665,235.2,664.4,235.7,663.8,235.7z"/>
		<path class="prov0" d="M597.3,232.2l-14.6,0c-0.7,0-1.2-0.5-1.2-1.2v-1.1c0-0.7,0.5-1.2,1.2-1.2l14.6,0c0.7,0,1.2,0.5,1.2,1.2v1.1
			C598.5,231.7,598,232.2,597.3,232.2z"/>
		<line class="prov0" x1="577.8" y1="245" x2="577.8" y2="256.6"/>
		<path class="prov0" d="M596.5,253.2H595c-0.9,0-1.7-0.8-1.7-1.7V250c0-0.9,0.8-1.7,1.7-1.7h1.5c0.9,0,1.7,0.8,1.7,1.7v1.5
			C598.2,252.4,597.4,253.2,596.5,253.2z"/>
		<line class="prov0" x1="495.2" y1="221.4" x2="495.2" y2="264.8"/>
		<line class="prov0" x1="427.1" y1="235.9" x2="427.1" y2="248.8"/>
		<line class="prov0" x1="678.5" y1="235.9" x2="678.5" y2="248.8"/>
		<line class="prov0" x1="555.3" y1="221.4" x2="555.3" y2="264.8"/>
		<line class="prov0" x1="615.4" y1="221.4" x2="615.4" y2="264.8"/>
		<path class="prov0" d="M670.5,264.8"/>
		<path class="prov0" d="M436.1,264.8"/>
	</g>
	<g>
		<path class="prov2" d="M1096.6,257c0,4.3-3.2,7.8-7.2,7.8H835.9c-4,0-7.2-3.5-7.2-7.8v-27.8c0-4.3,3.2-7.8,7.2-7.8h253.6
			c3.9,0,7.2,3.5,7.2,7.8V257z"/>
		<path id="svg-concept" class="prov1" d="M899,239.9h-1.1c-0.7,0-1.2-0.5-1.2-1.2v-1.1c0-0.7,0.5-1.2,1.2-1.2h1.1c0.7,0,1.2,0.5,1.2,1.2v1.1
			C900.2,239.4,899.6,239.9,899,239.9z"/>
		<path id="svg-concept" class="prov1" d="M894.4,253.2h-1.5c-0.9,0-1.7-0.8-1.7-1.7V250c0-0.9,0.8-1.7,1.7-1.7h1.5c0.9,0,1.7,0.8,1.7,1.7v1.5
			C896.1,252.4,895.4,253.2,894.4,253.2z"/>
		<path id="svg-concept" class="prov1" d="M959.5,239.9h-1.1c-0.7,0-1.2-0.5-1.2-1.2v-1.1c0-0.7,0.5-1.2,1.2-1.2h1.1c0.7,0,1.2,0.5,1.2,1.2v1.1
			C960.7,239.4,960.1,239.9,959.5,239.9z"/>
		<path id="svg-concept" class="prov1" d="M954.9,253.2h-1.5c-0.9,0-1.7-0.8-1.7-1.7V250c0-0.9,0.8-1.7,1.7-1.7h1.5c0.9,0,1.7,0.8,1.7,1.7v1.5
			C956.6,252.4,955.9,253.2,954.9,253.2z"/>
		<path id="svg-concept" class="prov1" d="M1020,239.9h-1.1c-0.7,0-1.2-0.5-1.2-1.2v-1.1c0-0.7,0.5-1.2,1.2-1.2h1.1c0.7,0,1.2,0.5,1.2,1.2v1.1
			C1021.2,239.4,1020.7,239.9,1020,239.9z"/>
		<path id="svg-concept" class="prov1" d="M1015.4,253.2h-1.5c-0.9,0-1.7-0.8-1.7-1.7V250c0-0.9,0.8-1.7,1.7-1.7h1.5c0.9,0,1.7,0.8,1.7,1.7v1.5
			C1017.1,252.4,1016.4,253.2,1015.4,253.2z"/>
		<path id="svg-concept" class="prov1" d="M1062.9,243.1c0,5.1-4.2,9.3-9.3,9.3c-5.1,0-9.3-4.2-9.3-9.3c0-5.1,4.2-9.3,9.3-9.3
			C1058.7,233.8,1062.9,238,1062.9,243.1z"/>
		<path id="svg-concept" class="prov1" d="M1057.1,243.1c0,1.9-1.5,3.4-3.4,3.4c-1.9,0-3.4-1.5-3.4-3.4s1.5-3.4,3.4-3.4
			C1055.5,239.7,1057.1,241.2,1057.1,243.1z"/>
		<line id="svg-concept" class="prov1" x1="1062.9" y1="243.1" x2="1057.1" y2="243.1"/>
		<line id="svg-concept" class="prov1" x1="1050.2" y1="243.1" x2="1044.3" y2="243.1"/>
		<line class="prov0" x1="843.5" y1="221.4" x2="843.5" y2="264.7"/>
		<line class="prov0" x1="1081.9" y1="221.4" x2="1081.9" y2="264.8"/>
		<path class="prov0" d="M896.2,256.6h-43.7c-2.2,0-4-1.8-4-4V249c0-2.2,1.8-4,4-4h43.7c2.2,0,4,1.8,4,4v3.6
			C900.2,254.8,898.4,256.6,896.2,256.6z"/>
		<path class="prov0" d="M855,239.9h-1.1c-0.7,0-1.2-0.5-1.2-1.2v-1.1c0-0.7,0.5-1.2,1.2-1.2h1.1c0.7,0,1.2,0.5,1.2,1.2v1.1
			C856.2,239.4,855.7,239.9,855,239.9z"/>
		<path class="prov0" d="M862.1,239.9H861c-0.7,0-1.2-0.5-1.2-1.2v-1.1c0-0.7,0.5-1.2,1.2-1.2h1.1c0.7,0,1.2,0.5,1.2,1.2v1.1
			C863.3,239.4,862.7,239.9,862.1,239.9z"/>
		<path class="prov0" d="M872,239.9H871c-0.7,0-1.2-0.5-1.2-1.2v-1.1c0-0.7,0.5-1.2,1.2-1.2h1.1c0.7,0,1.2,0.5,1.2,1.2v1.1
			C873.3,239.4,872.7,239.9,872,239.9z"/>
		<path class="prov0" d="M855,232.2h-1.1c-0.7,0-1.2-0.5-1.2-1.2v-1.1c0-0.7,0.5-1.2,1.2-1.2h1.1c0.7,0,1.2,0.5,1.2,1.2v1.1
			C856.2,231.7,855.7,232.2,855,232.2z"/>
		<path class="prov0" d="M862.1,232.2H861c-0.7,0-1.2-0.5-1.2-1.2v-1.1c0-0.7,0.5-1.2,1.2-1.2h1.1c0.7,0,1.2,0.5,1.2,1.2v1.1
			C863.3,231.7,862.7,232.2,862.1,232.2z"/>
		<path class="prov0" d="M898.9,232.2h-1.1c-0.7,0-1.2-0.5-1.2-1.2v-1.1c0-0.7,0.5-1.2,1.2-1.2h1.1c0.7,0,1.2,0.5,1.2,1.2v1.1
			C900.1,231.7,899.5,232.2,898.9,232.2z"/>
		<path class="prov0" d="M879.1,239.9H878c-0.7,0-1.2-0.5-1.2-1.2v-1.1c0-0.7,0.5-1.2,1.2-1.2h1.1c0.7,0,1.2,0.5,1.2,1.2v1.1
			C880.3,239.4,879.8,239.9,879.1,239.9z"/>
		<path class="prov0" d="M886.1,239.9H885c-0.7,0-1.2-0.5-1.2-1.2v-1.1c0-0.7,0.5-1.2,1.2-1.2h1.1c0.7,0,1.2,0.5,1.2,1.2v1.1
			C887.3,239.4,886.8,239.9,886.1,239.9z"/>
		<path class="prov0" d="M886.2,239.9h-1.1c-0.7,0-1.2-0.5-1.2-1.2v-1.1c0-0.7,0.5-1.2,1.2-1.2h1.1c0.7,0,1.2,0.5,1.2,1.2v1.1
			C887.4,239.4,886.9,239.9,886.2,239.9z"/>
		<path class="prov0" d="M886.2,232.2l-14.6,0c-0.7,0-1.2-0.5-1.2-1.2v-1.1c0-0.7,0.5-1.2,1.2-1.2l14.6,0c0.7,0,1.2,0.5,1.2,1.2v1.1
			C887.4,231.7,886.9,232.2,886.2,232.2z"/>
		<line class="prov0" x1="866.7" y1="245" x2="866.7" y2="256.6"/>
		<path class="prov0" d="M885.4,253.2h-1.5c-0.9,0-1.7-0.8-1.7-1.7V250c0-0.9,0.8-1.7,1.7-1.7h1.5c0.9,0,1.7,0.8,1.7,1.7v1.5
			C887.1,252.4,886.4,253.2,885.4,253.2z"/>
		<path class="prov0" d="M956.7,256.6H913c-2.2,0-4-1.8-4-4V249c0-2.2,1.8-4,4-4h43.7c2.2,0,4,1.8,4,4v3.6
			C960.7,254.8,958.9,256.6,956.7,256.6z"/>
		<path class="prov0" d="M915.5,239.9h-1.1c-0.7,0-1.2-0.5-1.2-1.2v-1.1c0-0.7,0.5-1.2,1.2-1.2h1.1c0.7,0,1.2,0.5,1.2,1.2v1.1
			C916.7,239.4,916.2,239.9,915.5,239.9z"/>
		<path class="prov0" d="M922.6,239.9h-1.1c-0.7,0-1.2-0.5-1.2-1.2v-1.1c0-0.7,0.5-1.2,1.2-1.2h1.1c0.7,0,1.2,0.5,1.2,1.2v1.1
			C923.8,239.4,923.2,239.9,922.6,239.9z"/>
		<path class="prov0" d="M932.6,239.9h-1.1c-0.7,0-1.2-0.5-1.2-1.2v-1.1c0-0.7,0.5-1.2,1.2-1.2h1.1c0.7,0,1.2,0.5,1.2,1.2v1.1
			C933.8,239.4,933.2,239.9,932.6,239.9z"/>
		<path class="prov0" d="M915.5,232.2h-1.1c-0.7,0-1.2-0.5-1.2-1.2v-1.1c0-0.7,0.5-1.2,1.2-1.2h1.1c0.7,0,1.2,0.5,1.2,1.2v1.1
			C916.7,231.7,916.2,232.2,915.5,232.2z"/>
		<path class="prov0" d="M922.6,232.2h-1.1c-0.7,0-1.2-0.5-1.2-1.2v-1.1c0-0.7,0.5-1.2,1.2-1.2h1.1c0.7,0,1.2,0.5,1.2,1.2v1.1
			C923.8,231.7,923.2,232.2,922.6,232.2z"/>
		<path class="prov0" d="M959.4,232.2h-1.1c-0.7,0-1.2-0.5-1.2-1.2v-1.1c0-0.7,0.5-1.2,1.2-1.2h1.1c0.7,0,1.2,0.5,1.2,1.2v1.1
			C960.6,231.7,960,232.2,959.4,232.2z"/>
		<path class="prov0" d="M939.6,239.9h-1.1c-0.7,0-1.2-0.5-1.2-1.2v-1.1c0-0.7,0.5-1.2,1.2-1.2h1.1c0.7,0,1.2,0.5,1.2,1.2v1.1
			C940.9,239.4,940.3,239.9,939.6,239.9z"/>
		<path class="prov0" d="M946.6,239.9h-1.1c-0.7,0-1.2-0.5-1.2-1.2v-1.1c0-0.7,0.5-1.2,1.2-1.2h1.1c0.7,0,1.2,0.5,1.2,1.2v1.1
			C947.8,239.4,947.3,239.9,946.6,239.9z"/>
		<path class="prov0" d="M946.7,239.9h-1.1c-0.7,0-1.2-0.5-1.2-1.2v-1.1c0-0.7,0.5-1.2,1.2-1.2h1.1c0.7,0,1.2,0.5,1.2,1.2v1.1
			C947.9,239.4,947.4,239.9,946.7,239.9z"/>
		<path class="prov0" d="M946.7,232.2l-14.6,0c-0.7,0-1.2-0.5-1.2-1.2v-1.1c0-0.7,0.5-1.2,1.2-1.2l14.6,0c0.7,0,1.2,0.5,1.2,1.2v1.1
			C947.9,231.7,947.4,232.2,946.7,232.2z"/>
		<line class="prov0" x1="927.2" y1="245" x2="927.2" y2="256.6"/>
		<path class="prov0" d="M946,253.2h-1.5c-0.9,0-1.7-0.8-1.7-1.7V250c0-0.9,0.8-1.7,1.7-1.7h1.5c0.9,0,1.7,0.8,1.7,1.7v1.5
			C947.6,252.4,946.9,253.2,946,253.2z"/>
		<path class="prov0" d="M1017.2,256.6h-43.7c-2.2,0-4-1.8-4-4V249c0-2.2,1.8-4,4-4h43.7c2.2,0,4,1.8,4,4v3.6
			C1021.2,254.8,1019.4,256.6,1017.2,256.6z"/>
		<path class="prov0" d="M976,239.9h-1.1c-0.7,0-1.2-0.5-1.2-1.2v-1.1c0-0.7,0.5-1.2,1.2-1.2h1.1c0.7,0,1.2,0.5,1.2,1.2v1.1
			C977.2,239.4,976.7,239.9,976,239.9z"/>
		<path class="prov0" d="M983.1,239.9H982c-0.7,0-1.2-0.5-1.2-1.2v-1.1c0-0.7,0.5-1.2,1.2-1.2h1.1c0.7,0,1.2,0.5,1.2,1.2v1.1
			C984.3,239.4,983.8,239.9,983.1,239.9z"/>
		<path class="prov0" d="M993.1,239.9H992c-0.7,0-1.2-0.5-1.2-1.2v-1.1c0-0.7,0.5-1.2,1.2-1.2h1.1c0.7,0,1.2,0.5,1.2,1.2v1.1
			C994.3,239.4,993.7,239.9,993.1,239.9z"/>
		<path class="prov0" d="M976,232.2h-1.1c-0.7,0-1.2-0.5-1.2-1.2v-1.1c0-0.7,0.5-1.2,1.2-1.2h1.1c0.7,0,1.2,0.5,1.2,1.2v1.1
			C977.2,231.7,976.7,232.2,976,232.2z"/>
		<path class="prov0" d="M983.1,232.2H982c-0.7,0-1.2-0.5-1.2-1.2v-1.1c0-0.7,0.5-1.2,1.2-1.2h1.1c0.7,0,1.2,0.5,1.2,1.2v1.1
			C984.3,231.7,983.8,232.2,983.1,232.2z"/>
		<path class="prov0" d="M1019.9,232.2h-1.1c-0.7,0-1.2-0.5-1.2-1.2v-1.1c0-0.7,0.5-1.2,1.2-1.2h1.1c0.7,0,1.2,0.5,1.2,1.2v1.1
			C1021.1,231.7,1020.6,232.2,1019.9,232.2z"/>
		<path class="prov0" d="M1000.1,239.9H999c-0.7,0-1.2-0.5-1.2-1.2v-1.1c0-0.7,0.5-1.2,1.2-1.2h1.1c0.7,0,1.2,0.5,1.2,1.2v1.1
			C1001.4,239.4,1000.8,239.9,1000.1,239.9z"/>
		<path class="prov0" d="M1007.1,239.9h-1.1c-0.7,0-1.2-0.5-1.2-1.2v-1.1c0-0.7,0.5-1.2,1.2-1.2h1.1c0.7,0,1.2,0.5,1.2,1.2l0,1.1
			C1008.3,239.4,1007.8,239.9,1007.1,239.9z"/>
		<path class="prov0" d="M1007.2,239.9h-1.1c-0.7,0-1.2-0.5-1.2-1.2v-1.1c0-0.7,0.5-1.2,1.2-1.2h1.1c0.7,0,1.2,0.5,1.2,1.2v1.1
			C1008.4,239.4,1007.9,239.9,1007.2,239.9z"/>
		<path id="svg-concept" class="prov1" d="M1075.9,251.3c0,1.5-1.2,2.7-2.7,2.7c-1.5,0-2.7-1.2-2.7-2.7c0-1.5,1.2-2.7,2.7-2.7
			C1074.7,248.6,1075.9,249.8,1075.9,251.3z"/>
		<path class="prov0" d="M1073.7,243.6h-1.1c-0.7,0-1.2-0.5-1.2-1.2v-1.1c0-0.7,0.5-1.2,1.2-1.2h1.1c0.7,0,1.2,0.5,1.2,1.2v1.1
			C1074.9,243,1074.4,243.6,1073.7,243.6z"/>
		<path class="prov0" d="M1073.7,235.7h-1.1c-0.7,0-1.2-0.5-1.2-1.2v-1.1c0-0.7,0.5-1.2,1.2-1.2h1.1c0.7,0,1.2,0.5,1.2,1.2v1.1
			C1074.9,235.2,1074.4,235.7,1073.7,235.7z"/>
		<path class="prov0" d="M1007.2,232.2l-14.6,0c-0.7,0-1.2-0.5-1.2-1.2v-1.1c0-0.7,0.5-1.2,1.2-1.2l14.6,0c0.7,0,1.2,0.5,1.2,1.2v1.1
			C1008.4,231.7,1007.9,232.2,1007.2,232.2z"/>
		<line class="prov0" x1="987.7" y1="245" x2="987.7" y2="256.6"/>
		<path class="prov0" d="M1006.5,253.2h-1.5c-0.9,0-1.7-0.8-1.7-1.7V250c0-0.9,0.8-1.7,1.7-1.7h1.5c0.9,0,1.7,0.8,1.7,1.7v1.5
			C1008.1,252.4,1007.4,253.2,1006.5,253.2z"/>
		<line class="prov0" x1="905.1" y1="221.4" x2="905.1" y2="264.8"/>
		<line class="prov0" x1="837.1" y1="235.9" x2="837.1" y2="248.8"/>
		<line class="prov0" x1="1088.4" y1="235.9" x2="1088.4" y2="248.8"/>
		<line class="prov0" x1="965.2" y1="221.4" x2="965.2" y2="264.8"/>
		<line class="prov0" x1="1025.3" y1="221.4" x2="1025.3" y2="264.8"/>
		<path class="prov0" d="M1080.5,264.8"/>
		<path class="prov0" d="M846.1,264.8"/>
	</g>
	<g>
		<path class="prov2" d="M276.8,257c0,4.3-3.2,7.8-7.2,7.8H16c-4,0-7.2-3.5-7.2-7.8v-27.8c0-4.3,3.2-7.8,7.2-7.8h253.6
			c3.9,0,7.2,3.5,7.2,7.8V257z"/>
		<path id="svg-concept" class="prov1" d="M79.1,239.9H78c-0.7,0-1.2-0.5-1.2-1.2v-1.1c0-0.7,0.5-1.2,1.2-1.2h1.1c0.7,0,1.2,0.5,1.2,1.2v1.1
			C80.3,239.4,79.8,239.9,79.1,239.9z"/>
		<path id="svg-concept" class="prov1" d="M74.6,253.2H73c-0.9,0-1.7-0.8-1.7-1.7V250c0-0.9,0.8-1.7,1.7-1.7h1.5c0.9,0,1.7,0.8,1.7,1.7v1.5
			C76.2,252.4,75.5,253.2,74.6,253.2z"/>
		<path id="svg-concept" class="prov1" d="M139.6,239.9h-1.1c-0.7,0-1.2-0.5-1.2-1.2v-1.1c0-0.7,0.5-1.2,1.2-1.2h1.1c0.7,0,1.2,0.5,1.2,1.2v1.1
			C140.8,239.4,140.3,239.9,139.6,239.9z"/>
		<path id="svg-concept" class="prov1" d="M135.1,253.2h-1.5c-0.9,0-1.7-0.8-1.7-1.7V250c0-0.9,0.8-1.7,1.7-1.7h1.5c0.9,0,1.7,0.8,1.7,1.7v1.5
			C136.7,252.4,136,253.2,135.1,253.2z"/>
		<path id="svg-concept" class="prov1" d="M200.1,239.9H199c-0.7,0-1.2-0.5-1.2-1.2v-1.1c0-0.7,0.5-1.2,1.2-1.2h1.1c0.7,0,1.2,0.5,1.2,1.2v1.1
			C201.3,239.4,200.8,239.9,200.1,239.9z"/>
		<path id="svg-concept" class="prov1" d="M195.6,253.2h-1.5c-0.9,0-1.7-0.8-1.7-1.7V250c0-0.9,0.8-1.7,1.7-1.7h1.5c0.9,0,1.7,0.8,1.7,1.7v1.5
			C197.3,252.4,196.5,253.2,195.6,253.2z"/>
		<path id="svg-concept" class="prov1" d="M243,243.1c0,5.1-4.2,9.3-9.3,9.3c-5.1,0-9.3-4.2-9.3-9.3c0-5.1,4.2-9.3,9.3-9.3
			C238.9,233.8,243,238,243,243.1z"/>
		<path id="svg-concept" class="prov1" d="M237.2,243.1c0,1.9-1.5,3.4-3.4,3.4c-1.9,0-3.4-1.5-3.4-3.4s1.5-3.4,3.4-3.4
			C235.6,239.7,237.2,241.2,237.2,243.1z"/>
		<line id="svg-concept" class="prov1" x1="243" y1="243.1" x2="237.2" y2="243.1"/>
		<line id="svg-concept" class="prov1" x1="230.3" y1="243.1" x2="224.4" y2="243.1"/>
		<line class="prov0" x1="23.6" y1="221.4" x2="23.6" y2="264.7"/>
		<line class="prov0" x1="262" y1="221.4" x2="262" y2="264.8"/>
		<path class="prov0" d="M76.3,256.6H32.6c-2.2,0-4-1.8-4-4V249c0-2.2,1.8-4,4-4h43.7c2.2,0,4,1.8,4,4v3.6
			C80.3,254.8,78.5,256.6,76.3,256.6z"/>
		<path class="prov0" d="M35.1,239.9H34c-0.7,0-1.2-0.5-1.2-1.2v-1.1c0-0.7,0.5-1.2,1.2-1.2h1.1c0.7,0,1.2,0.5,1.2,1.2v1.1
			C36.3,239.4,35.8,239.9,35.1,239.9z"/>
		<path class="prov0" d="M42.2,239.9h-1.1c-0.7,0-1.2-0.5-1.2-1.2v-1.1c0-0.7,0.5-1.2,1.2-1.2h1.1c0.7,0,1.2,0.5,1.2,1.2v1.1
			C43.4,239.4,42.9,239.9,42.2,239.9z"/>
		<path class="prov0" d="M52.2,239.9h-1.1c-0.7,0-1.2-0.5-1.2-1.2v-1.1c0-0.7,0.5-1.2,1.2-1.2h1.1c0.7,0,1.2,0.5,1.2,1.2v1.1
			C53.4,239.4,52.8,239.9,52.2,239.9z"/>
		<path class="prov0" d="M35.1,232.2H34c-0.7,0-1.2-0.5-1.2-1.2v-1.1c0-0.7,0.5-1.2,1.2-1.2h1.1c0.7,0,1.2,0.5,1.2,1.2v1.1
			C36.3,231.7,35.8,232.2,35.1,232.2z"/>
		<path class="prov0" d="M42.2,232.2h-1.1c-0.7,0-1.2-0.5-1.2-1.2v-1.1c0-0.7,0.5-1.2,1.2-1.2h1.1c0.7,0,1.2,0.5,1.2,1.2v1.1
			C43.4,231.7,42.9,232.2,42.2,232.2z"/>
		<path class="prov0" d="M79,232.2h-1.1c-0.7,0-1.2-0.5-1.2-1.2v-1.1c0-0.7,0.5-1.2,1.2-1.2H79c0.7,0,1.2,0.5,1.2,1.2v1.1
			C80.2,231.7,79.7,232.2,79,232.2z"/>
		<path class="prov0" d="M59.3,239.9h-1.1c-0.7,0-1.2-0.5-1.2-1.2v-1.1c0-0.7,0.5-1.2,1.2-1.2h1.1c0.7,0,1.2,0.5,1.2,1.2v1.1
			C60.5,239.4,59.9,239.9,59.3,239.9z"/>
		<path class="prov0" d="M66.2,239.9h-1.1c-0.7,0-1.2-0.5-1.2-1.2v-1.1c0-0.7,0.5-1.2,1.2-1.2h1.1c0.7,0,1.2,0.5,1.2,1.2v1.1
			C67.4,239.4,66.9,239.9,66.2,239.9z"/>
		<path class="prov0" d="M66.3,239.9h-1.1c-0.7,0-1.2-0.5-1.2-1.2v-1.1c0-0.7,0.5-1.2,1.2-1.2h1.1c0.7,0,1.2,0.5,1.2,1.2v1.1
			C67.6,239.4,67,239.9,66.3,239.9z"/>
		<path class="prov0" d="M66.3,232.2l-14.6,0c-0.7,0-1.2-0.5-1.2-1.2v-1.1c0-0.7,0.5-1.2,1.2-1.2l14.6,0c0.7,0,1.2,0.5,1.2,1.2v1.1
			C67.6,231.7,67,232.2,66.3,232.2z"/>
		<line class="prov0" x1="46.8" y1="245" x2="46.8" y2="256.6"/>
		<path class="prov0" d="M65.6,253.2h-1.5c-0.9,0-1.7-0.8-1.7-1.7V250c0-0.9,0.8-1.7,1.7-1.7h1.5c0.9,0,1.7,0.8,1.7,1.7v1.5
			C67.3,252.4,66.5,253.2,65.6,253.2z"/>
		<path class="prov0" d="M136.8,256.6H93.1c-2.2,0-4-1.8-4-4V249c0-2.2,1.8-4,4-4h43.7c2.2,0,4,1.8,4,4v3.6
			C140.8,254.8,139,256.6,136.8,256.6z"/>
		<path class="prov0" d="M95.6,239.9h-1.1c-0.7,0-1.2-0.5-1.2-1.2v-1.1c0-0.7,0.5-1.2,1.2-1.2h1.1c0.7,0,1.2,0.5,1.2,1.2v1.1
			C96.8,239.4,96.3,239.9,95.6,239.9z"/>
		<path class="prov0" d="M102.7,239.9h-1.1c-0.7,0-1.2-0.5-1.2-1.2v-1.1c0-0.7,0.5-1.2,1.2-1.2h1.1c0.7,0,1.2,0.5,1.2,1.2v1.1
			C103.9,239.4,103.4,239.9,102.7,239.9z"/>
		<path class="prov0" d="M112.7,239.9h-1.1c-0.7,0-1.2-0.5-1.2-1.2v-1.1c0-0.7,0.5-1.2,1.2-1.2h1.1c0.7,0,1.2,0.5,1.2,1.2v1.1
			C113.9,239.4,113.3,239.9,112.7,239.9z"/>
		<path class="prov0" d="M95.6,232.2h-1.1c-0.7,0-1.2-0.5-1.2-1.2v-1.1c0-0.7,0.5-1.2,1.2-1.2h1.1c0.7,0,1.2,0.5,1.2,1.2v1.1
			C96.8,231.7,96.3,232.2,95.6,232.2z"/>
		<path class="prov0" d="M102.7,232.2h-1.1c-0.7,0-1.2-0.5-1.2-1.2v-1.1c0-0.7,0.5-1.2,1.2-1.2h1.1c0.7,0,1.2,0.5,1.2,1.2v1.1
			C103.9,231.7,103.4,232.2,102.7,232.2z"/>
		<path class="prov0" d="M139.5,232.2h-1.1c-0.7,0-1.2-0.5-1.2-1.2v-1.1c0-0.7,0.5-1.2,1.2-1.2h1.1c0.7,0,1.2,0.5,1.2,1.2v1.1
			C140.7,231.7,140.2,232.2,139.5,232.2z"/>
		<path class="prov0" d="M119.8,239.9h-1.1c-0.7,0-1.2-0.5-1.2-1.2v-1.1c0-0.7,0.5-1.2,1.2-1.2h1.1c0.7,0,1.2,0.5,1.2,1.2v1.1
			C121,239.4,120.4,239.9,119.8,239.9z"/>
		<path class="prov0" d="M126.7,239.9h-1.1c-0.7,0-1.2-0.5-1.2-1.2v-1.1c0-0.7,0.5-1.2,1.2-1.2h1.1c0.7,0,1.2,0.5,1.2,1.2v1.1
			C127.9,239.4,127.4,239.9,126.7,239.9z"/>
		<path class="prov0" d="M126.8,239.9h-1.1c-0.7,0-1.2-0.5-1.2-1.2v-1.1c0-0.7,0.5-1.2,1.2-1.2h1.1c0.7,0,1.2,0.5,1.2,1.2v1.1
			C128.1,239.4,127.5,239.9,126.8,239.9z"/>
		<path class="prov0" d="M126.8,232.2l-14.6,0c-0.7,0-1.2-0.5-1.2-1.2v-1.1c0-0.7,0.5-1.2,1.2-1.2l14.6,0c0.7,0,1.2,0.5,1.2,1.2v1.1
			C128.1,231.7,127.5,232.2,126.8,232.2z"/>
		<line class="prov0" x1="107.3" y1="245" x2="107.3" y2="256.6"/>
		<path class="prov0" d="M126.1,253.2h-1.5c-0.9,0-1.7-0.8-1.7-1.7V250c0-0.9,0.8-1.7,1.7-1.7h1.5c0.9,0,1.7,0.8,1.7,1.7v1.5
			C127.8,252.4,127,253.2,126.1,253.2z"/>
		<path class="prov0" d="M197.3,256.6h-43.7c-2.2,0-4-1.8-4-4V249c0-2.2,1.8-4,4-4h43.7c2.2,0,4,1.8,4,4v3.6
			C201.3,254.8,199.5,256.6,197.3,256.6z"/>
		<path class="prov0" d="M156.1,239.9H155c-0.7,0-1.2-0.5-1.2-1.2v-1.1c0-0.7,0.5-1.2,1.2-1.2h1.1c0.7,0,1.2,0.5,1.2,1.2v1.1
			C157.3,239.4,156.8,239.9,156.1,239.9z"/>
		<path class="prov0" d="M163.2,239.9h-1.1c-0.7,0-1.2-0.5-1.2-1.2v-1.1c0-0.7,0.5-1.2,1.2-1.2h1.1c0.7,0,1.2,0.5,1.2,1.2v1.1
			C164.4,239.4,163.9,239.9,163.2,239.9z"/>
		<path class="prov0" d="M173.2,239.9h-1.1c-0.7,0-1.2-0.5-1.2-1.2v-1.1c0-0.7,0.5-1.2,1.2-1.2h1.1c0.7,0,1.2,0.5,1.2,1.2v1.1
			C174.4,239.4,173.9,239.9,173.2,239.9z"/>
		<path class="prov0" d="M156.1,232.2H155c-0.7,0-1.2-0.5-1.2-1.2v-1.1c0-0.7,0.5-1.2,1.2-1.2h1.1c0.7,0,1.2,0.5,1.2,1.2v1.1
			C157.3,231.7,156.8,232.2,156.1,232.2z"/>
		<path class="prov0" d="M163.2,232.2h-1.1c-0.7,0-1.2-0.5-1.2-1.2v-1.1c0-0.7,0.5-1.2,1.2-1.2h1.1c0.7,0,1.2,0.5,1.2,1.2v1.1
			C164.4,231.7,163.9,232.2,163.2,232.2z"/>
		<path class="prov0" d="M200,232.2h-1.1c-0.7,0-1.2-0.5-1.2-1.2v-1.1c0-0.7,0.5-1.2,1.2-1.2h1.1c0.7,0,1.2,0.5,1.2,1.2v1.1
			C201.2,231.7,200.7,232.2,200,232.2z"/>
		<path class="prov0" d="M180.3,239.9h-1.1c-0.7,0-1.2-0.5-1.2-1.2v-1.1c0-0.7,0.5-1.2,1.2-1.2h1.1c0.7,0,1.2,0.5,1.2,1.2v1.1
			C181.5,239.4,180.9,239.9,180.3,239.9z"/>
		<path class="prov0" d="M187.2,239.9h-1.1c-0.7,0-1.2-0.5-1.2-1.2v-1.1c0-0.7,0.5-1.2,1.2-1.2h1.1c0.7,0,1.2,0.5,1.2,1.2v1.1
			C188.5,239.4,187.9,239.9,187.2,239.9z"/>
		<path class="prov0" d="M187.4,239.9h-1.1c-0.7,0-1.2-0.5-1.2-1.2v-1.1c0-0.7,0.5-1.2,1.2-1.2h1.1c0.7,0,1.2,0.5,1.2,1.2v1.1
			C188.6,239.4,188,239.9,187.4,239.9z"/>
		<path id="svg-concept" class="prov1" d="M256,251.3c0,1.5-1.2,2.7-2.7,2.7c-1.5,0-2.7-1.2-2.7-2.7c0-1.5,1.2-2.7,2.7-2.7
			C254.8,248.6,256,249.8,256,251.3z"/>
		<path class="prov0" d="M253.8,243.6h-1.1c-0.7,0-1.2-0.5-1.2-1.2v-1.1c0-0.7,0.5-1.2,1.2-1.2h1.1c0.7,0,1.2,0.5,1.2,1.2v1.1
			C255,243,254.5,243.6,253.8,243.6z"/>
		<path class="prov0" d="M253.8,235.7h-1.1c-0.7,0-1.2-0.5-1.2-1.2v-1.1c0-0.7,0.5-1.2,1.2-1.2h1.1c0.7,0,1.2,0.5,1.2,1.2v1.1
			C255,235.2,254.5,235.7,253.8,235.7z"/>
		<path class="prov0" d="M187.3,232.2l-14.6,0c-0.7,0-1.2-0.5-1.2-1.2v-1.1c0-0.7,0.5-1.2,1.2-1.2l14.6,0c0.7,0,1.2,0.5,1.2,1.2v1.1
			C188.6,231.7,188,232.2,187.3,232.2z"/>
		<line class="prov0" x1="167.8" y1="245" x2="167.8" y2="256.6"/>
		<path class="prov0" d="M186.6,253.2h-1.5c-0.9,0-1.7-0.8-1.7-1.7V250c0-0.9,0.8-1.7,1.7-1.7h1.5c0.9,0,1.7,0.8,1.7,1.7v1.5
			C188.3,252.4,187.5,253.2,186.6,253.2z"/>
		<line class="prov0" x1="85.3" y1="221.4" x2="85.3" y2="264.8"/>
		<line class="prov0" x1="17.2" y1="235.9" x2="17.2" y2="248.8"/>
		<line class="prov0" x1="268.5" y1="235.9" x2="268.5" y2="248.8"/>
		<line class="prov0" x1="145.4" y1="221.4" x2="145.4" y2="264.8"/>
		<line class="prov0" x1="205.4" y1="221.4" x2="205.4" y2="264.8"/>
		<path class="prov0" d="M260.6,264.8"/>
		<path class="prov0" d="M26.2,264.8"/>
	</g>
	<animateMotion
	path="M0, 0 1440 0"
	begin="0s" 
	dur="5s" 
	fill="freeze" />

	<animateMotion
	path="M-1000, 0 1440 0"
	begin="6s" 
	dur="6s" 
	repeatCount="indefinite" />
</g>



<g>
	<path class="prov3" d="M359.3,361.4c61.7,106.8,198.4,143.4,305.2,81.6c106.8-61.7,143.4-198.4,81.6-305.2S547.8-5.6,441,56.1
		C334.1,117.9,297.6,254.5,359.3,361.4z M486.1,84.9c20.8,36.1,67,48.4,103.1,27.6c19.8-11.4,32.4-30.5,36.4-51.3
		c41.4,16.2,77.9,46,101.9,87.5c24,41.5,31.6,88,25,131.9c-20-7-42.8-5.6-62.6,5.9c-36.1,20.8-48.4,67-27.6,103.1
		c4.4,7.6,9.9,14.1,16.1,19.5c-7.8,6.2-16.2,12-25.1,17.1c-74.5,43-164.9,33.5-228.3-17c27-23.2,34.6-63,16.1-94.9
		c-18.5-31.9-56.8-45.3-90.3-33.4c-12.1-80.2,24.8-163.3,99.2-206.3c8.9-5.2,18.1-9.6,27.4-13.2C478.8,69.4,481.7,77.4,486.1,84.9z"
		/>
	<path class="prov3" d="M403.4,345.8c-4-1.1-6.3-5.1-5.3-9.1c1.1-4,5.1-6.3,9.1-5.3c4,1.1,6.3,5.1,5.3,9.1
		C411.4,344.5,407.4,346.8,403.4,345.8z"/>
	<path class="prov3" d="M404.6,341.2c-1.5-0.4-2.4-1.9-2-3.4c0.4-1.5,1.9-2.3,3.4-2c1.5,0.4,2.3,1.9,2,3.4
		C407.6,340.7,406.1,341.6,404.6,341.2z"/>
	<line class="prov3" x1="403.4" y1="345.8" x2="404.6" y2="341.2"/>
	<line class="prov3" x1="406" y1="335.9" x2="407.2" y2="331.4"/>
	<path class="prov3" d="M697.7,340c-4-1.1-6.3-5.1-5.3-9.1c1.1-4,5.1-6.3,9.1-5.3c4,1.1,6.3,5.1,5.3,9.1
		C705.7,338.7,701.7,341,697.7,340z"/>
	<path class="prov3" d="M698.9,335.5c-1.5-0.4-2.4-1.9-2-3.4c0.4-1.5,1.9-2.3,3.4-2c1.5,0.4,2.3,1.9,2,3.4
		C701.9,335,700.4,335.9,698.9,335.5z"/>
	<line class="prov3" x1="697.7" y1="340" x2="698.9" y2="335.5"/>
	<line class="prov3" x1="700.3" y1="330.1" x2="701.5" y2="325.6"/>
	<path class="prov3" d="M553.4,89.6c-4-1.1-6.3-5.1-5.3-9.1c1.1-4,5.1-6.3,9.1-5.3c4,1.1,6.3,5.1,5.3,9.1
		C561.4,88.3,557.4,90.6,553.4,89.6z"/>
	<path class="prov3" d="M554.6,85.1c-1.5-0.4-2.4-1.9-2-3.4c0.4-1.5,1.9-2.3,3.4-2c1.5,0.4,2.3,1.9,2,3.4
		C557.6,84.6,556.1,85.5,554.6,85.1z"/>
	<line class="prov3" x1="553.4" y1="89.6" x2="554.6" y2="85.1"/>
	<line class="prov3" x1="556" y1="79.7" x2="557.2" y2="75.2"/>
</g>
<g>
	<path class="prov3" d="M636.2,0.9c6.5,0,11.8,5.3,11.8,11.8v124.4c0,6.5-5.3,11.8-11.8,11.8H467.4c-6.5,0-11.8-5.3-11.8-11.8V12.7
		c0-6.5,5.3-11.8,11.8-11.8H636.2z"/>
	<path id="svg-concept" class="prov4" d="M630.4,24.7c0,0.3-0.2,0.5-0.5,0.5h-16.7c-0.3,0-0.5-0.2-0.5-0.5v-1.8c0-0.3,0.2-0.5,0.5-0.5H630
		c0.3,0,0.5,0.2,0.5,0.5V24.7z"/>
	<path id="svg-concept" class="prov4" d="M630.4,39.9c0,0.3-0.2,0.5-0.5,0.5h-16.7c-0.3,0-0.5-0.2-0.5-0.5v-1.8c0-0.3,0.2-0.5,0.5-0.5H630
		c0.3,0,0.5,0.2,0.5,0.5V39.9z"/>
	<path id="svg-concept" class="prov4" d="M600.3,24.7c0,0.3-0.2,0.5-0.5,0.5h-16.7c-0.3,0-0.5-0.2-0.5-0.5v-1.8c0-0.3,0.2-0.5,0.5-0.5h16.7
		c0.3,0,0.5,0.2,0.5,0.5V24.7z"/>
	<path class="prov0" d="M475.3,31.4c-1.4-1.8-2.3-4-2.5-6.5c-0.8-7.4,4.5-14,11.8-14.8c4.9-0.6,9.5,1.6,12.3,5.4"/>
	<line id="svg-concept" class="prov1" x1="496.3" y1="23.3" x2="486.2" y2="23.4"/>
	<line class="prov0" x1="490.2" y1="10.7" x2="489.8" y2="12"/>
	<line id="svg-concept" class="prov1" x1="496.9" y1="15.5" x2="495.7" y2="16.3"/>
	<line id="svg-concept" class="prov1" x1="499.5" y1="23.2" x2="498.1" y2="23.3"/>
	<line id="svg-concept" class="prov1" x1="497" y1="31.1" x2="495.9" y2="30.3"/>
	<line class="prov0" x1="472.7" y1="23.5" x2="474.1" y2="23.5"/>
	<line class="prov0" x1="475.2" y1="15.5" x2="476.4" y2="16.4"/>
	<line class="prov0" x1="481.9" y1="10.7" x2="482.4" y2="12"/>
	<line class="prov0" x1="475.3" y1="31.4" x2="476.4" y2="30.6"/>
	<path id="svg-concept" class="prov4" d="M486.5,23.4c0,0.2-0.2,0.4-0.4,0.4c-0.2,0-0.4-0.2-0.4-0.4s0.2-0.4,0.4-0.4C486.4,23,486.5,23.2,486.5,23.4z"
		/>
	<line class="prov0" x1="473.4" y1="130.7" x2="630.6" y2="130.7"/>
	<g>
		<g>
			<line class="prov5" x1="473.4" y1="76.4" x2="474.9" y2="76.4"/>
			<line class="prov6" x1="477.9" y1="76.4" x2="627.6" y2="76.4"/>
			<line class="prov5" x1="629.1" y1="76.4" x2="630.6" y2="76.4"/>
		</g>
	</g>
	<g>
		<g>
			<line class="prov5" x1="473.4" y1="110.4" x2="474.9" y2="110.4"/>
			<line class="prov6" x1="477.9" y1="110.4" x2="627.6" y2="110.4"/>
			<line class="prov5" x1="629.1" y1="110.4" x2="630.6" y2="110.4"/>
		</g>
	</g>
	<g>
		<g>
			<line class="prov5" x1="475" y1="93.5" x2="476.5" y2="93.5"/>
			<line class="prov6" x1="479.6" y1="93.5" x2="629.3" y2="93.5"/>
			<line class="prov5" x1="630.8" y1="93.5" x2="632.3" y2="93.5"/>
		</g>
	</g>
	<line class="prov0" x1="473.4" y1="130.7" x2="473.4" y2="59.5"/>
	<path class="prov7" d="M634,53.4h-24.8V9.7H634V53.4z"/>
	<path class="prov7" d="M630.4,17.1c0,0.3-0.2,0.5-0.5,0.5h-16.7c-0.3,0-0.5-0.2-0.5-0.5v-1.8c0-0.3,0.2-0.5,0.5-0.5H630
		c0.3,0,0.5,0.2,0.5,0.5V17.1z"/>
	<path class="prov7" d="M630.4,32.3c0,0.3-0.2,0.5-0.5,0.5h-16.7c-0.3,0-0.5-0.2-0.5-0.5v-1.8c0-0.3,0.2-0.5,0.5-0.5H630
		c0.3,0,0.5,0.2,0.5,0.5V32.3z"/>
	<path class="prov7" d="M630.4,47.6c0,0.3-0.2,0.5-0.5,0.5h-16.7c-0.3,0-0.5-0.2-0.5-0.5v-1.8c0-0.3,0.2-0.5,0.5-0.5H630
		c0.3,0,0.5,0.2,0.5,0.5V47.6z"/>
	<path class="prov7" d="M603.9,53.4h-24.8V9.7h24.8V53.4z"/>
	<path class="prov7" d="M600.3,17.1c0,0.3-0.2,0.5-0.5,0.5h-16.7c-0.3,0-0.5-0.2-0.5-0.5v-1.8c0-0.3,0.2-0.5,0.5-0.5h16.7
		c0.3,0,0.5,0.2,0.5,0.5V17.1z"/>
	<path class="prov7" d="M600.3,32.3c0,0.3-0.2,0.5-0.5,0.5h-16.7c-0.3,0-0.5-0.2-0.5-0.5v-1.8c0-0.3,0.2-0.5,0.5-0.5h16.7
		c0.3,0,0.5,0.2,0.5,0.5V32.3z"/>
	<path class="prov7" d="M600.3,39.9c0,0.3-0.2,0.5-0.5,0.5h-16.7c-0.3,0-0.5-0.2-0.5-0.5v-1.8c0-0.3,0.2-0.5,0.5-0.5h16.7
		c0.3,0,0.5,0.2,0.5,0.5V39.9z"/>
	<path class="prov7" d="M600.3,47.6c0,0.3-0.2,0.5-0.5,0.5h-16.7c-0.3,0-0.5-0.2-0.5-0.5v-1.8c0-0.3,0.2-0.5,0.5-0.5h16.7
		c0.3,0,0.5,0.2,0.5,0.5V47.6z"/>
	<path id="svg-concept" class="prov1" d="M496.9,15.5c1.3,1.8,2.2,4,2.5,6.4c0.4,3.4-0.5,6.6-2.4,9.2"/>
	<path class="prov0" d="M517.1,31.4c-1.4-1.8-2.3-4-2.5-6.5c-0.8-7.4,4.5-14,11.8-14.8c4.9-0.6,9.5,1.6,12.3,5.4"/>
	<line id="svg-concept" class="prov1" x1="538" y1="23.3" x2="527.9" y2="23.4"/>
	<line class="prov0" x1="532" y1="10.7" x2="531.5" y2="12"/>
	<line id="svg-concept" class="prov1" x1="538.6" y1="15.5" x2="537.5" y2="16.3"/>
	<line id="svg-concept" class="prov1" x1="541.2" y1="23.2" x2="539.9" y2="23.3"/>
	<line id="svg-concept" class="prov1" x1="538.8" y1="31.1" x2="537.6" y2="30.3"/>
	<line class="prov0" x1="514.4" y1="23.5" x2="515.8" y2="23.5"/>
	<line class="prov0" x1="517" y1="15.5" x2="518.2" y2="16.4"/>
	<line class="prov0" x1="523.7" y1="10.7" x2="524.1" y2="12"/>
	<line class="prov0" x1="517" y1="31.4" x2="518.1" y2="30.6"/>
	<path id="svg-concept" class="prov4" d="M528.3,23.4c0,0.2-0.2,0.4-0.4,0.4c-0.2,0-0.4-0.2-0.4-0.4s0.2-0.4,0.4-0.4C528.1,23,528.3,23.2,528.3,23.4z"
		/>
	<path id="svg-concept" class="prov1" d="M538.6,15.5c1.3,1.8,2.2,4,2.5,6.4c0.4,3.4-0.5,6.6-2.4,9.2"/>
	<polyline class="prov8" points="473.4,92.5 479.1,90.8 486,93.9 492.8,89.6 499.2,94 505.2,87.5 513.1,101.9 521.9,81.7 529.1,92.5 
		535.7,59.5 545.2,116.3 553.6,72.4 560.1,100.4 569.1,83.7 577.3,92.5 583.9,87.7 591.2,92.5 598.1,96.1 605.9,89.2 614.3,94.3 
		621,92.5 630.6,92.5 	"/>
	<path class="prov0" d="M648.1,32.4h1.3c0.3,0,0.6,0.3,0.6,0.6v4.4c0,0.3-0.3,0.6-0.6,0.6h-1.3"/>
	<path class="prov0" d="M648.1,23.8h1.3c0.3,0,0.6,0.3,0.6,0.6v4.4c0,0.3-0.3,0.6-0.6,0.6h-1.3"/>
	<path id="svg-concept" class="prov4" d="M630.6,130.7c0,1-0.8,1.7-1.7,1.7c-1,0-1.7-0.8-1.7-1.7s0.8-1.7,1.7-1.7C629.8,129,630.6,129.8,630.6,130.7z"
		/>
	<g>
		<line id="svg-concept" class="prov9" x1="485.7" y1="60.2" x2="485.7" y2="123.3"/>
		<animateMotion
		path="M0, 0 140 0 0 0"
		begin="0s" 
		dur="8s" 
		repeatCount="indefinite"
		/>
	</g>
</g>
</svg>
