<?xml version="1.0" encoding="utf-8"?>
<!-- Generator: Adobe Illustrator 22.0.0, SVG Export Plug-In . SVG Version: 6.00 Build 0)  -->
<svg version="1.1" id="Layer_1" xmlns="http://www.w3.org/2000/svg" xmlns:xlink="http://www.w3.org/1999/xlink" x="0px" y="0px"
	 viewBox="0 0 1105.7 406" style="enable-background:new 0 0 1105.7 406;" xml:space="preserve">
<style type="text/css">
	.quarantine0{fill:#FFFFFF;stroke:#808080;stroke-linecap:round;stroke-linejoin:round;stroke-miterlimit:10;}
	.quarantine1{fill:#FFFFFF;stroke:#ee5586;stroke-width:2;stroke-linecap:round;stroke-linejoin:round;stroke-miterlimit:10;}
	.quarantine2{fill:none;stroke:#808080;stroke-linecap:round;stroke-linejoin:round;stroke-miterlimit:10;}
	.quarantine3{fill:#FFFFFF;stroke:#808080;stroke-width:2;stroke-linecap:round;stroke-linejoin:round;stroke-miterlimit:10;}
	.quarantine4{fill:#FFFFFF;stroke:#ee5586;stroke-width:3;stroke-linecap:round;stroke-linejoin:round;stroke-miterlimit:10;}
</style>
<line class="quarantine0" x1="-0.8" y1="314.1" x2="1104.7" y2="314.1"/>
<g>
	<line id="svg-concept" class="quarantine1" x1="-0.8" y1="251.4" x2="1104.7" y2="251.4"/>
	<g>
		<line class="quarantine2" x1="18" y1="255.3" x2="7.9" y2="245.3"/>
		<line class="quarantine2" x1="13.5" y1="258.9" x2="13.5" y2="243"/>
		<line class="quarantine2" x1="11" y1="253.2" x2="15.9" y2="248.3"/>
	</g>
	<g>
		<line class="quarantine2" x1="58.7" y1="255.3" x2="48.7" y2="245.3"/>
		<line class="quarantine2" x1="54.3" y1="258.9" x2="54.3" y2="243"/>
		<line class="quarantine2" x1="51.8" y1="253.2" x2="56.7" y2="248.3"/>
	</g>
	<g>
		<line class="quarantine2" x1="99.5" y1="255.3" x2="89.5" y2="245.3"/>
		<line class="quarantine2" x1="95" y1="258.9" x2="95" y2="243"/>
		<line class="quarantine2" x1="92.6" y1="253.2" x2="97.5" y2="248.3"/>
	</g>
	<g>
		<line class="quarantine2" x1="140.3" y1="255.3" x2="130.3" y2="245.3"/>
		<line class="quarantine2" x1="135.8" y1="258.9" x2="135.8" y2="243"/>
		<line class="quarantine2" x1="133.3" y1="253.2" x2="138.3" y2="248.3"/>
	</g>
	<g>
		<line class="quarantine2" x1="181.1" y1="255.3" x2="171" y2="245.3"/>
		<line class="quarantine2" x1="176.6" y1="258.9" x2="176.6" y2="243"/>
		<line class="quarantine2" x1="174.1" y1="253.2" x2="179" y2="248.3"/>
	</g>
	<g>
		<line class="quarantine2" x1="221.8" y1="255.3" x2="211.8" y2="245.3"/>
		<line class="quarantine2" x1="217.3" y1="258.9" x2="217.3" y2="243"/>
		<line class="quarantine2" x1="214.9" y1="253.2" x2="219.8" y2="248.3"/>
	</g>
	<g>
		<line class="quarantine2" x1="262.6" y1="255.3" x2="252.6" y2="245.3"/>
		<line class="quarantine2" x1="258.1" y1="258.9" x2="258.1" y2="243"/>
		<line class="quarantine2" x1="255.7" y1="253.2" x2="260.6" y2="248.3"/>
	</g>
	<g>
		<line class="quarantine2" x1="303.4" y1="255.3" x2="293.3" y2="245.3"/>
		<line class="quarantine2" x1="298.9" y1="258.9" x2="298.9" y2="243"/>
		<line class="quarantine2" x1="296.4" y1="253.2" x2="301.3" y2="248.3"/>
	</g>
	<g>
		<line class="quarantine2" x1="344.1" y1="255.3" x2="334.1" y2="245.3"/>
		<line class="quarantine2" x1="339.7" y1="258.9" x2="339.7" y2="243"/>
		<line class="quarantine2" x1="337.2" y1="253.2" x2="342.1" y2="248.3"/>
	</g>
	<g>
		<line class="quarantine2" x1="384.9" y1="255.3" x2="374.9" y2="245.3"/>
		<line class="quarantine2" x1="380.4" y1="258.9" x2="380.4" y2="243"/>
		<line class="quarantine2" x1="378" y1="253.2" x2="382.9" y2="248.3"/>
	</g>
	<g>
		<line class="quarantine2" x1="425.7" y1="255.3" x2="415.7" y2="245.3"/>
		<line class="quarantine2" x1="421.2" y1="258.9" x2="421.2" y2="243"/>
		<line class="quarantine2" x1="418.7" y1="253.2" x2="423.7" y2="248.3"/>
	</g>
	<g>
		<line class="quarantine2" x1="466.5" y1="255.3" x2="456.4" y2="245.3"/>
		<line class="quarantine2" x1="462" y1="258.9" x2="462" y2="243"/>
		<line class="quarantine2" x1="459.5" y1="253.2" x2="464.4" y2="248.3"/>
	</g>
	<g>
		<line class="quarantine2" x1="507.2" y1="255.3" x2="497.2" y2="245.3"/>
		<line class="quarantine2" x1="502.7" y1="258.9" x2="502.7" y2="243"/>
		<line class="quarantine2" x1="500.3" y1="253.2" x2="505.2" y2="248.3"/>
	</g>
	<g>
		<line class="quarantine2" x1="548" y1="255.3" x2="538" y2="245.3"/>
		<line class="quarantine2" x1="543.5" y1="258.9" x2="543.5" y2="243"/>
		<line class="quarantine2" x1="541.1" y1="253.2" x2="546" y2="248.3"/>
	</g>
	<g>
		<line class="quarantine2" x1="588.8" y1="255.3" x2="578.7" y2="245.3"/>
		<line class="quarantine2" x1="584.3" y1="258.9" x2="584.3" y2="243"/>
		<line class="quarantine2" x1="581.8" y1="253.2" x2="586.7" y2="248.3"/>
	</g>
	<g>
		<line class="quarantine2" x1="629.5" y1="255.3" x2="619.5" y2="245.3"/>
		<line class="quarantine2" x1="625.1" y1="258.9" x2="625.1" y2="243"/>
		<line class="quarantine2" x1="622.6" y1="253.2" x2="627.5" y2="248.3"/>
	</g>
	<g>
		<line class="quarantine2" x1="670.3" y1="255.3" x2="660.3" y2="245.3"/>
		<line class="quarantine2" x1="665.8" y1="258.9" x2="665.8" y2="243"/>
		<line class="quarantine2" x1="663.4" y1="253.2" x2="668.3" y2="248.3"/>
	</g>
	<g>
		<line class="quarantine2" x1="711.1" y1="255.3" x2="701.1" y2="245.3"/>
		<line class="quarantine2" x1="706.6" y1="258.9" x2="706.6" y2="243"/>
		<line class="quarantine2" x1="704.1" y1="253.2" x2="709.1" y2="248.3"/>
	</g>
	<g>
		<line class="quarantine2" x1="751.9" y1="255.3" x2="741.8" y2="245.3"/>
		<line class="quarantine2" x1="747.4" y1="258.9" x2="747.4" y2="243"/>
		<line class="quarantine2" x1="744.9" y1="253.2" x2="749.8" y2="248.3"/>
	</g>
	<g>
		<line class="quarantine2" x1="792.6" y1="255.3" x2="782.6" y2="245.3"/>
		<line class="quarantine2" x1="788.1" y1="258.9" x2="788.1" y2="243"/>
		<line class="quarantine2" x1="785.7" y1="253.2" x2="790.6" y2="248.3"/>
	</g>
	<g>
		<line class="quarantine2" x1="833.4" y1="255.3" x2="823.4" y2="245.3"/>
		<line class="quarantine2" x1="828.9" y1="258.9" x2="828.9" y2="243"/>
		<line class="quarantine2" x1="826.5" y1="253.2" x2="831.4" y2="248.3"/>
	</g>
	<g>
		<line class="quarantine2" x1="874.2" y1="255.3" x2="864.1" y2="245.3"/>
		<line class="quarantine2" x1="869.7" y1="258.9" x2="869.7" y2="243"/>
		<line class="quarantine2" x1="867.2" y1="253.2" x2="872.1" y2="248.3"/>
	</g>
	<g>
		<line class="quarantine2" x1="914.9" y1="255.3" x2="904.9" y2="245.3"/>
		<line class="quarantine2" x1="910.5" y1="258.9" x2="910.5" y2="243"/>
		<line class="quarantine2" x1="908" y1="253.2" x2="912.9" y2="248.3"/>
	</g>
	<g>
		<line class="quarantine2" x1="955.7" y1="255.3" x2="945.7" y2="245.3"/>
		<line class="quarantine2" x1="951.2" y1="258.9" x2="951.2" y2="243"/>
		<line class="quarantine2" x1="948.8" y1="253.2" x2="953.7" y2="248.3"/>
	</g>
	<g>
		<line class="quarantine2" x1="996.5" y1="255.3" x2="986.5" y2="245.3"/>
		<line class="quarantine2" x1="992" y1="258.9" x2="992" y2="243"/>
		<line class="quarantine2" x1="989.5" y1="253.2" x2="994.5" y2="248.3"/>
	</g>
	<g>
		<line class="quarantine2" x1="1037.3" y1="255.3" x2="1027.2" y2="245.3"/>
		<line class="quarantine2" x1="1032.8" y1="258.9" x2="1032.8" y2="243"/>
		<line class="quarantine2" x1="1030.3" y1="253.2" x2="1035.2" y2="248.3"/>
	</g>
	<g>
		<line class="quarantine2" x1="1078" y1="255.3" x2="1068" y2="245.3"/>
		<line class="quarantine2" x1="1073.5" y1="258.9" x2="1073.5" y2="243"/>
		<line class="quarantine2" x1="1071.1" y1="253.2" x2="1076" y2="248.3"/>
	</g>
</g>
<g>
	<line id="svg-concept" class="quarantine1" x1="-0.8" y1="191.4" x2="1104.7" y2="191.4"/>
	<g>
		<line class="quarantine2" x1="37.3" y1="195.2" x2="27.3" y2="185.2"/>
		<line class="quarantine2" x1="32.8" y1="198.8" x2="32.8" y2="182.9"/>
		<line class="quarantine2" x1="30.3" y1="193.2" x2="35.3" y2="188.2"/>
	</g>
	<g>
		<line class="quarantine2" x1="78.1" y1="195.2" x2="68" y2="185.2"/>
		<line class="quarantine2" x1="73.6" y1="198.8" x2="73.6" y2="182.9"/>
		<line class="quarantine2" x1="71.1" y1="193.2" x2="76" y2="188.2"/>
	</g>
	<g>
		<line class="quarantine2" x1="118.8" y1="195.2" x2="108.8" y2="185.2"/>
		<line class="quarantine2" x1="114.3" y1="198.8" x2="114.3" y2="182.9"/>
		<line class="quarantine2" x1="111.9" y1="193.2" x2="116.8" y2="188.2"/>
	</g>
	<g>
		<line class="quarantine2" x1="159.6" y1="195.2" x2="149.6" y2="185.2"/>
		<line class="quarantine2" x1="155.1" y1="198.8" x2="155.1" y2="182.9"/>
		<line class="quarantine2" x1="152.7" y1="193.2" x2="157.6" y2="188.2"/>
	</g>
	<g>
		<line class="quarantine2" x1="200.4" y1="195.2" x2="190.3" y2="185.2"/>
		<line class="quarantine2" x1="195.9" y1="198.8" x2="195.9" y2="182.9"/>
		<line class="quarantine2" x1="193.4" y1="193.2" x2="198.3" y2="188.2"/>
	</g>
	<g>
		<line class="quarantine2" x1="241.1" y1="195.2" x2="231.1" y2="185.2"/>
		<line class="quarantine2" x1="236.7" y1="198.8" x2="236.7" y2="182.9"/>
		<line class="quarantine2" x1="234.2" y1="193.2" x2="239.1" y2="188.2"/>
	</g>
	<g>
		<line class="quarantine2" x1="281.9" y1="195.2" x2="271.9" y2="185.2"/>
		<line class="quarantine2" x1="277.4" y1="198.8" x2="277.4" y2="182.9"/>
		<line class="quarantine2" x1="275" y1="193.2" x2="279.9" y2="188.2"/>
	</g>
	<g>
		<line class="quarantine2" x1="322.7" y1="195.2" x2="312.7" y2="185.2"/>
		<line class="quarantine2" x1="318.2" y1="198.8" x2="318.2" y2="182.9"/>
		<line class="quarantine2" x1="315.7" y1="193.2" x2="320.7" y2="188.2"/>
	</g>
	<g>
		<line class="quarantine2" x1="363.5" y1="195.2" x2="353.4" y2="185.2"/>
		<line class="quarantine2" x1="359" y1="198.8" x2="359" y2="182.9"/>
		<line class="quarantine2" x1="356.5" y1="193.2" x2="361.4" y2="188.2"/>
	</g>
	<g>
		<line class="quarantine2" x1="404.2" y1="195.2" x2="394.2" y2="185.2"/>
		<line class="quarantine2" x1="399.7" y1="198.8" x2="399.7" y2="182.9"/>
		<line class="quarantine2" x1="397.3" y1="193.2" x2="402.2" y2="188.2"/>
	</g>
	<g>
		<line class="quarantine2" x1="445" y1="195.2" x2="435" y2="185.2"/>
		<line class="quarantine2" x1="440.5" y1="198.8" x2="440.5" y2="182.9"/>
		<line class="quarantine2" x1="438.1" y1="193.2" x2="443" y2="188.2"/>
	</g>
	<g>
		<line class="quarantine2" x1="485.8" y1="195.2" x2="475.7" y2="185.2"/>
		<line class="quarantine2" x1="481.3" y1="198.8" x2="481.3" y2="182.9"/>
		<line class="quarantine2" x1="478.8" y1="193.2" x2="483.7" y2="188.2"/>
	</g>
	<g>
		<line class="quarantine2" x1="526.5" y1="195.2" x2="516.5" y2="185.2"/>
		<line class="quarantine2" x1="522.1" y1="198.8" x2="522.1" y2="182.9"/>
		<line class="quarantine2" x1="519.6" y1="193.2" x2="524.5" y2="188.2"/>
	</g>
	<g>
		<line class="quarantine2" x1="567.3" y1="195.2" x2="557.3" y2="185.2"/>
		<line class="quarantine2" x1="562.8" y1="198.8" x2="562.8" y2="182.9"/>
		<line class="quarantine2" x1="560.4" y1="193.2" x2="565.3" y2="188.2"/>
	</g>
	<g>
		<line class="quarantine2" x1="608.1" y1="195.2" x2="598.1" y2="185.2"/>
		<line class="quarantine2" x1="603.6" y1="198.8" x2="603.6" y2="182.9"/>
		<line class="quarantine2" x1="601.1" y1="193.2" x2="606.1" y2="188.2"/>
	</g>
	<g>
		<line class="quarantine2" x1="648.9" y1="195.2" x2="638.8" y2="185.2"/>
		<line class="quarantine2" x1="644.4" y1="198.8" x2="644.4" y2="182.9"/>
		<line class="quarantine2" x1="641.9" y1="193.2" x2="646.8" y2="188.2"/>
	</g>
	<g>
		<line class="quarantine2" x1="689.6" y1="195.2" x2="679.6" y2="185.2"/>
		<line class="quarantine2" x1="685.1" y1="198.8" x2="685.1" y2="182.9"/>
		<line class="quarantine2" x1="682.7" y1="193.2" x2="687.6" y2="188.2"/>
	</g>
	<g>
		<line class="quarantine2" x1="730.4" y1="195.2" x2="720.4" y2="185.2"/>
		<line class="quarantine2" x1="725.9" y1="198.8" x2="725.9" y2="182.9"/>
		<line class="quarantine2" x1="723.5" y1="193.2" x2="728.4" y2="188.2"/>
	</g>
	<g>
		<line class="quarantine2" x1="771.2" y1="195.2" x2="761.1" y2="185.2"/>
		<line class="quarantine2" x1="766.7" y1="198.8" x2="766.7" y2="182.9"/>
		<line class="quarantine2" x1="764.2" y1="193.2" x2="769.1" y2="188.2"/>
	</g>
	<g>
		<line class="quarantine2" x1="811.9" y1="195.2" x2="801.9" y2="185.2"/>
		<line class="quarantine2" x1="807.5" y1="198.8" x2="807.5" y2="182.9"/>
		<line class="quarantine2" x1="805" y1="193.2" x2="809.9" y2="188.2"/>
	</g>
	<g>
		<line class="quarantine2" x1="852.7" y1="195.2" x2="842.7" y2="185.2"/>
		<line class="quarantine2" x1="848.2" y1="198.8" x2="848.2" y2="182.9"/>
		<line class="quarantine2" x1="845.8" y1="193.2" x2="850.7" y2="188.2"/>
	</g>
	<g>
		<line class="quarantine2" x1="893.5" y1="195.2" x2="883.5" y2="185.2"/>
		<line class="quarantine2" x1="889" y1="198.8" x2="889" y2="182.9"/>
		<line class="quarantine2" x1="886.5" y1="193.2" x2="891.5" y2="188.2"/>
	</g>
	<g>
		<line class="quarantine2" x1="934.3" y1="195.2" x2="924.2" y2="185.2"/>
		<line class="quarantine2" x1="929.8" y1="198.8" x2="929.8" y2="182.9"/>
		<line class="quarantine2" x1="927.3" y1="193.2" x2="932.2" y2="188.2"/>
	</g>
	<g>
		<line class="quarantine2" x1="975" y1="195.2" x2="965" y2="185.2"/>
		<line class="quarantine2" x1="970.5" y1="198.8" x2="970.5" y2="182.9"/>
		<line class="quarantine2" x1="968.1" y1="193.2" x2="973" y2="188.2"/>
	</g>
	<g>
		<line class="quarantine2" x1="1015.8" y1="195.2" x2="1005.8" y2="185.2"/>
		<line class="quarantine2" x1="1011.3" y1="198.8" x2="1011.3" y2="182.9"/>
		<line class="quarantine2" x1="1008.9" y1="193.2" x2="1013.8" y2="188.2"/>
	</g>
	<g>
		<line class="quarantine2" x1="1056.6" y1="195.2" x2="1046.5" y2="185.2"/>
		<line class="quarantine2" x1="1052.1" y1="198.8" x2="1052.1" y2="182.9"/>
		<line class="quarantine2" x1="1049.6" y1="193.2" x2="1054.5" y2="188.2"/>
	</g>
	<g>
		<line class="quarantine2" x1="1097.3" y1="195.2" x2="1087.3" y2="185.2"/>
		<line class="quarantine2" x1="1092.9" y1="198.8" x2="1092.9" y2="182.9"/>
		<line class="quarantine2" x1="1090.4" y1="193.2" x2="1095.3" y2="188.2"/>
	</g>
</g>
<g>
	<line id="svg-concept" class="quarantine1" x1="-0.8" y1="131.3" x2="1104.7" y2="131.3"/>
	<g>
		<line class="quarantine2" x1="18" y1="135.1" x2="7.9" y2="125.1"/>
		<line class="quarantine2" x1="13.5" y1="138.7" x2="13.5" y2="122.8"/>
		<line class="quarantine2" x1="11" y1="133.1" x2="15.9" y2="128.2"/>
	</g>
	<g>
		<line class="quarantine2" x1="58.7" y1="135.1" x2="48.7" y2="125.1"/>
		<line class="quarantine2" x1="54.3" y1="138.7" x2="54.3" y2="122.8"/>
		<line class="quarantine2" x1="51.8" y1="133.1" x2="56.7" y2="128.2"/>
	</g>
	<g>
		<line class="quarantine2" x1="99.5" y1="135.1" x2="89.5" y2="125.1"/>
		<line class="quarantine2" x1="95" y1="138.7" x2="95" y2="122.8"/>
		<line class="quarantine2" x1="92.6" y1="133.1" x2="97.5" y2="128.2"/>
	</g>
	<g>
		<line class="quarantine2" x1="140.3" y1="135.1" x2="130.3" y2="125.1"/>
		<line class="quarantine2" x1="135.8" y1="138.7" x2="135.8" y2="122.8"/>
		<line class="quarantine2" x1="133.3" y1="133.1" x2="138.3" y2="128.2"/>
	</g>
	<g>
		<line class="quarantine2" x1="181.1" y1="135.1" x2="171" y2="125.1"/>
		<line class="quarantine2" x1="176.6" y1="138.7" x2="176.6" y2="122.8"/>
		<line class="quarantine2" x1="174.1" y1="133.1" x2="179" y2="128.2"/>
	</g>
	<g>
		<line class="quarantine2" x1="221.8" y1="135.1" x2="211.8" y2="125.1"/>
		<line class="quarantine2" x1="217.3" y1="138.7" x2="217.3" y2="122.8"/>
		<line class="quarantine2" x1="214.9" y1="133.1" x2="219.8" y2="128.2"/>
	</g>
	<g>
		<line class="quarantine2" x1="262.6" y1="135.1" x2="252.6" y2="125.1"/>
		<line class="quarantine2" x1="258.1" y1="138.7" x2="258.1" y2="122.8"/>
		<line class="quarantine2" x1="255.7" y1="133.1" x2="260.6" y2="128.2"/>
	</g>
	<g>
		<line class="quarantine2" x1="303.4" y1="135.1" x2="293.3" y2="125.1"/>
		<line class="quarantine2" x1="298.9" y1="138.7" x2="298.9" y2="122.8"/>
		<line class="quarantine2" x1="296.4" y1="133.1" x2="301.3" y2="128.2"/>
	</g>
	<g>
		<line class="quarantine2" x1="344.1" y1="135.1" x2="334.1" y2="125.1"/>
		<line class="quarantine2" x1="339.7" y1="138.7" x2="339.7" y2="122.8"/>
		<line class="quarantine2" x1="337.2" y1="133.1" x2="342.1" y2="128.2"/>
	</g>
	<g>
		<line class="quarantine2" x1="384.9" y1="135.1" x2="374.9" y2="125.1"/>
		<line class="quarantine2" x1="380.4" y1="138.7" x2="380.4" y2="122.8"/>
		<line class="quarantine2" x1="378" y1="133.1" x2="382.9" y2="128.2"/>
	</g>
	<g>
		<line class="quarantine2" x1="425.7" y1="135.1" x2="415.7" y2="125.1"/>
		<line class="quarantine2" x1="421.2" y1="138.7" x2="421.2" y2="122.8"/>
		<line class="quarantine2" x1="418.7" y1="133.1" x2="423.7" y2="128.2"/>
	</g>
	<g>
		<line class="quarantine2" x1="466.5" y1="135.1" x2="456.4" y2="125.1"/>
		<line class="quarantine2" x1="462" y1="138.7" x2="462" y2="122.8"/>
		<line class="quarantine2" x1="459.5" y1="133.1" x2="464.4" y2="128.2"/>
	</g>
	<g>
		<line class="quarantine2" x1="507.2" y1="135.1" x2="497.2" y2="125.1"/>
		<line class="quarantine2" x1="502.7" y1="138.7" x2="502.7" y2="122.8"/>
		<line class="quarantine2" x1="500.3" y1="133.1" x2="505.2" y2="128.2"/>
	</g>
	<g>
		<line class="quarantine2" x1="548" y1="135.1" x2="538" y2="125.1"/>
		<line class="quarantine2" x1="543.5" y1="138.7" x2="543.5" y2="122.8"/>
		<line class="quarantine2" x1="541.1" y1="133.1" x2="546" y2="128.2"/>
	</g>
	<g>
		<line class="quarantine2" x1="588.8" y1="135.1" x2="578.7" y2="125.1"/>
		<line class="quarantine2" x1="584.3" y1="138.7" x2="584.3" y2="122.8"/>
		<line class="quarantine2" x1="581.8" y1="133.1" x2="586.7" y2="128.2"/>
	</g>
	<g>
		<line class="quarantine2" x1="629.5" y1="135.1" x2="619.5" y2="125.1"/>
		<line class="quarantine2" x1="625.1" y1="138.7" x2="625.1" y2="122.8"/>
		<line class="quarantine2" x1="622.6" y1="133.1" x2="627.5" y2="128.2"/>
	</g>
	<g>
		<line class="quarantine2" x1="670.3" y1="135.1" x2="660.3" y2="125.1"/>
		<line class="quarantine2" x1="665.8" y1="138.7" x2="665.8" y2="122.8"/>
		<line class="quarantine2" x1="663.4" y1="133.1" x2="668.3" y2="128.2"/>
	</g>
	<g>
		<line class="quarantine2" x1="711.1" y1="135.1" x2="701.1" y2="125.1"/>
		<line class="quarantine2" x1="706.6" y1="138.7" x2="706.6" y2="122.8"/>
		<line class="quarantine2" x1="704.1" y1="133.1" x2="709.1" y2="128.2"/>
	</g>
	<g>
		<line class="quarantine2" x1="751.9" y1="135.1" x2="741.8" y2="125.1"/>
		<line class="quarantine2" x1="747.4" y1="138.7" x2="747.4" y2="122.8"/>
		<line class="quarantine2" x1="744.9" y1="133.1" x2="749.8" y2="128.2"/>
	</g>
	<g>
		<line class="quarantine2" x1="792.6" y1="135.1" x2="782.6" y2="125.1"/>
		<line class="quarantine2" x1="788.1" y1="138.7" x2="788.1" y2="122.8"/>
		<line class="quarantine2" x1="785.7" y1="133.1" x2="790.6" y2="128.2"/>
	</g>
	<g>
		<line class="quarantine2" x1="833.4" y1="135.1" x2="823.4" y2="125.1"/>
		<line class="quarantine2" x1="828.9" y1="138.7" x2="828.9" y2="122.8"/>
		<line class="quarantine2" x1="826.5" y1="133.1" x2="831.4" y2="128.2"/>
	</g>
	<g>
		<line class="quarantine2" x1="874.2" y1="135.1" x2="864.1" y2="125.1"/>
		<line class="quarantine2" x1="869.7" y1="138.7" x2="869.7" y2="122.8"/>
		<line class="quarantine2" x1="867.2" y1="133.1" x2="872.1" y2="128.2"/>
	</g>
	<g>
		<line class="quarantine2" x1="914.9" y1="135.1" x2="904.9" y2="125.1"/>
		<line class="quarantine2" x1="910.5" y1="138.7" x2="910.5" y2="122.8"/>
		<line class="quarantine2" x1="908" y1="133.1" x2="912.9" y2="128.2"/>
	</g>
	<g>
		<line class="quarantine2" x1="955.7" y1="135.1" x2="945.7" y2="125.1"/>
		<line class="quarantine2" x1="951.2" y1="138.7" x2="951.2" y2="122.8"/>
		<line class="quarantine2" x1="948.8" y1="133.1" x2="953.7" y2="128.2"/>
	</g>
	<g>
		<line class="quarantine2" x1="996.5" y1="135.1" x2="986.5" y2="125.1"/>
		<line class="quarantine2" x1="992" y1="138.7" x2="992" y2="122.8"/>
		<line class="quarantine2" x1="989.5" y1="133.1" x2="994.5" y2="128.2"/>
	</g>
	<g>
		<line class="quarantine2" x1="1037.3" y1="135.1" x2="1027.2" y2="125.1"/>
		<line class="quarantine2" x1="1032.8" y1="138.7" x2="1032.8" y2="122.8"/>
		<line class="quarantine2" x1="1030.3" y1="133.1" x2="1035.2" y2="128.2"/>
	</g>
	<g>
		<line class="quarantine2" x1="1078" y1="135.1" x2="1068" y2="125.1"/>
		<line class="quarantine2" x1="1073.5" y1="138.7" x2="1073.5" y2="122.8"/>
		<line class="quarantine2" x1="1071.1" y1="133.1" x2="1076" y2="128.2"/>
	</g>
</g>
<g>
	<path class="quarantine0" d="M550,130.5c-4-1.1-6.3-5.1-5.3-9.1c1.1-4,5.1-6.3,9.1-5.3c4,1.1,6.3,5.1,5.3,9.1
		C558.1,129.2,554,131.5,550,130.5z"/>
	<path class="quarantine0" d="M551.3,125.9c-1.5-0.4-2.4-1.9-2-3.4c0.4-1.5,1.9-2.3,3.4-2s2.3,1.9,2,3.4
		C554.2,125.5,552.7,126.3,551.3,125.9z"/>
	<line class="quarantine0" x1="550" y1="130.5" x2="551.2" y2="125.9"/>
	<line class="quarantine0" x1="552.7" y1="120.6" x2="553.9" y2="116.1"/>
</g>
<g>
	<path class="quarantine0" d="M659,313.9c-4-1.1-6.3-5.1-5.3-9.1c1.1-4,5.1-6.3,9.1-5.3c4,1.1,6.3,5.1,5.3,9.1
		C667,312.6,662.9,314.9,659,313.9z"/>
	<path class="quarantine0" d="M660.2,309.3c-1.5-0.4-2.4-1.9-2-3.4c0.4-1.5,1.9-2.3,3.4-2c1.5,0.4,2.3,1.9,2,3.4
		C663.2,308.8,661.6,309.7,660.2,309.3z"/>
	<line class="quarantine0" x1="659" y1="313.8" x2="660.2" y2="309.3"/>
	<line class="quarantine0" x1="661.6" y1="304" x2="662.8" y2="299.5"/>
</g>
<g>
	<path class="quarantine0" d="M447,313.9c-4-1.1-6.3-5.1-5.3-9.1c1.1-4,5.1-6.3,9.1-5.3s6.3,5.1,5.3,9.1C455.1,312.6,451,314.9,447,313.9z"
		/>
	<path class="quarantine0" d="M448.2,309.3c-1.5-0.4-2.4-1.9-2-3.4c0.4-1.5,1.9-2.3,3.4-2s2.3,1.9,2,3.4
		C451.2,308.8,449.7,309.7,448.2,309.3z"/>
	<line class="quarantine0" x1="447" y1="313.8" x2="448.2" y2="309.3"/>
	<line class="quarantine0" x1="449.6" y1="304" x2="450.8" y2="299.5"/>
</g>
<polygon class="quarantine0" points="185.7,74.7 167.1,74.7 167.1,60 176.6,8.9 185.7,60 "/>
<line class="quarantine2" x1="176.6" y1="63.7" x2="176.6" y2="406"/>
<polygon class="quarantine0" points="937,74.7 918.4,74.7 918.4,60 927.9,8.9 937,60 "/>
<line class="quarantine2" x1="927.9" y1="63.7" x2="927.9" y2="406"/>
<circle class="quarantine3" cx="927.7" cy="215.6" r="61.5"/>
<path class="quarantine0" d="M955,222.3c0.2-1.3,0.3-2.7,0.3-4c0-1.2-0.1-2.3-0.2-3.5l7.3-4.6c0.3-0.5,0.1-1.2-0.4-1.5l-8,1
	c-0.3-0.9-0.6-1.8-1-2.7l11.7-11.3c0.2-0.6-0.1-1.2-0.7-1.3l-15.6,5.4c-1.1-1.2-2.2-2.4-3.5-3.4l4.8-9.9c0-0.6-0.5-1-1.1-1l-9.1,7.4
	c-3.1-1.5-6.4-2.4-10-2.7l-6.1-15.3c-0.5-0.4-1.1-0.3-1.5,0.1l-0.8,15.8c-0.6,0.1-1.2,0.3-1.7,0.5l-2.8-4c-0.5-0.3-1.2,0-1.4,0.5
	l0.9,4.8c-3,1.4-5.8,3.3-8.1,5.6l-15.7-6.6c-0.6,0.1-1,0.6-1,1.2l11.4,12.6c-0.1,0.3-0.3,0.6-0.4,0.8l-10.9,0.1
	c-0.5,0.3-0.7,0.9-0.4,1.5l9.4,4.2c-0.4,2-0.7,4.1-0.7,6.2c0,3.6,0.7,7,1.9,10.1l-10.6,10.3c-0.2,0.6,0.1,1.2,0.7,1.3l13.8-4.7
	c1.3,1.7,2.8,3.3,4.4,4.6l-3.9,8c0,0.6,0.5,1,1.1,1l7.3-5.9c0.7,0.4,1.4,0.7,2,1l3.4,1.2c2.5,0.7,5.1,1.1,7.8,1.1l3.9,9.8
	c0.4,0.4,1.1,0.3,1.5-0.1l0.5-10.3c1.3-0.3,2.6-0.7,3.9-1.1l1.8,2.5c0.5,0.3,1.2,0,1.4-0.5l-0.6-3.1c3.4-1.7,6.3-4,8.8-6.8l14.7,6.2
	c0.6-0.1,1-0.6,1-1.2l-11.2-12.3c0.2-0.4,0.3-0.7,0.4-1.1l10.7-0.1c0.5-0.3,0.7-0.9,0.4-1.5L955,222.3z"/>
<line id="svg-concept" class="quarantine1" x1="971.3" y1="172.2" x2="884.5" y2="259"/>
<circle class="quarantine3" cx="176" cy="215.6" r="61.5"/>
<line class="quarantine0" x1="207.1" y1="218.2" x2="214.9" y2="218.2"/>
<line class="quarantine0" x1="137.2" y1="218.2" x2="145" y2="218.2"/>
<line class="quarantine0" x1="203" y1="202.7" x2="209.7" y2="198.8"/>
<line class="quarantine0" x1="142.4" y1="237.7" x2="149.1" y2="233.8"/>
<line class="quarantine0" x1="149.1" y1="202.7" x2="142.4" y2="198.8"/>
<line class="quarantine0" x1="209.7" y1="237.7" x2="203" y2="233.8"/>
<path class="quarantine0" d="M176,187.2c17.2,0,31.1,13.9,31.1,31.1c0,17.2-13.9,31.1-31.1,31.1c-17.2,0-31.1-13.9-31.1-31.1
	C145,201.1,158.9,187.2,176,187.2z"/>
<path class="quarantine0" d="M158.2,192.8c10.7,7.5,24.9,7.5,35.6,0"/>
<line class="quarantine0" x1="176" y1="198.4" x2="176" y2="249.3"/>
<path class="quarantine0" d="M182.6,190.6c0-6.2,5-11.2,11.2-11.2"/>
<path class="quarantine0" d="M169.5,190.6c0-6.2-5-11.2-11.2-11.2l0,0"/>
<line id="svg-concept" class="quarantine1" x1="219.6" y1="172.2" x2="132.8" y2="259"/>
<path class="quarantine3" d="M711.7,288.6c20.9,36.4,2.7,71.7-39.2,71.8H427.7c-41.9-0.1-60.1-35.7-39.2-72L511.8,75.9
	c21-36.3,55.4-36.3,76.5,0L711.7,288.6z"/>

<g>	
<line id="svg-concept" class="quarantine4" x1="550.1" y1="139.2" x2="550.1" y2="239.7"/>
<path id="svg-concept" class="quarantine4" d="M568.3,290c0,10.4-8.5,18.9-18.9,18.9c-10.4,0-18.9-8.5-18.9-18.9c0-10.4,8.5-18.9,18.9-18.9
	C559.9,271.1,568.3,279.6,568.3,290z"/>
	<animate 
	attributeName="opacity"
    values="0;1;0" 
    dur="1s"
    repeatCount="indefinite"/>
</g>
</svg>
