<?xml version="1.0" encoding="utf-8"?>
<!-- Generator: Adobe Illustrator 22.0.0, SVG Export Plug-In . SVG Version: 6.00 Build 0)  -->
<svg version="1.1" id="Layer_1" xmlns="http://www.w3.org/2000/svg" xmlns:xlink="http://www.w3.org/1999/xlink" x="0px" y="0px"
	 viewBox="0 0 543.5 398.4" style="enable-background:new 0 0 543.5 398.4;" xml:space="preserve">
<style type="text/css">
	.ranking0{fill:#FFFFFF;stroke:#808080;stroke-linecap:round;stroke-linejoin:round;stroke-miterlimit:10;}
	.ranking1{fill:#FFFFFF;stroke:#ee5586;stroke-width:2;stroke-linecap:round;stroke-linejoin:round;stroke-miterlimit:10;}
	.ranking2{fill:none;stroke:#808080;stroke-linecap:round;stroke-linejoin:round;stroke-miterlimit:10;stroke-dasharray:5;}
	.ranking3{fill:#FFFFFF;}
	.ranking4{fill:none;stroke:#808080;stroke-linecap:round;stroke-linejoin:round;stroke-miterlimit:10;}
</style>
<g>
	<polygon class="ranking0" points="273.3,393.5 29,304.4 273.3,232 517,304.4 	"/>
	<polygon id="svg-concept" class="ranking1" points="273.3,353.2 2.9,254.5 273.3,174.3 543.1,254.5 	"/>
	<line class="ranking2" x1="11.9" y1="254.5" x2="536.6" y2="254.5"/>
	<line class="ranking2" x1="273.3" y1="350.4" x2="273.3" y2="184.5"/>
</g>
<g>
	<polygon id="svg-concept" class="ranking1" points="173.8,31.1 173.8,246.1 218.3,262.5 218.3,262.7 262.9,246.3 262.8,31.1 218.3,15.3 	"/>
	<line id="svg-concept" class="ranking1" x1="173.8" y1="31.1" x2="218.3" y2="47.7"/>
	<line id="svg-concept" class="ranking1" x1="218.3" y1="47.7" x2="262.8" y2="31.1"/>
	<line id="svg-concept" class="ranking1" x1="218.3" y1="47.7" x2="218.3" y2="262.7"/>
</g>
<g>
<polygon class="ranking3" points="172.2,27.4 172.3,250 218.4,267 218.4,267 264.5,249.1 264.5,27.4 218.4,11 "/>
<animateMotion
	path="M0, 0 0 -260"
	begin="0s" 
	dur="3s" 
	fill="freeze"
	/>
</g>
<g>
	<polygon class="ranking0" points="273.5,282 273.5,219 318,202.9 362.5,219.3 362.5,282 318,298.2 	"/>
	<polyline class="ranking0" points="273.5,282 228.8,266.6 228.8,127.4 273.5,111 318,127.4 318,202.9 273.5,219 318,235 	"/>
	<line class="ranking4" x1="318" y1="235" x2="362.5" y2="219.3"/>
	<line class="ranking4" x1="318" y1="235" x2="318" y2="298.2"/>
	<line class="ranking4" x1="228.8" y1="127.4" x2="273.5" y2="143.2"/>
	<line class="ranking4" x1="318" y1="127.4" x2="273.5" y2="143.2"/>
	<line class="ranking4" x1="273.5" y1="143.2" x2="273.5" y2="282"/>
</g>
</svg>
