<?xml version="1.0" encoding="utf-8"?>
<!-- Generator: Adobe Illustrator 22.0.0, SVG Export Plug-In . SVG Version: 6.00 Build 0)  -->
<svg version="1.1" id="Layer_1" xmlns="http://www.w3.org/2000/svg" xmlns:xlink="http://www.w3.org/1999/xlink" x="0px" y="0px"
	 viewBox="0 0 1099.5 361.5" style="enable-background:new 0 0 1099.5 361.5;" xml:space="preserve">
<style type="text/css">
	.redund0{fill:none;stroke-linecap:round;stroke-linejoin:round;stroke-miterlimit:10;}
	.redund1{fill:#FFFFFF;stroke-linecap:round;stroke-linejoin:round;stroke-miterlimit:10;}
	.redund2{fill:#FFFFFF;stroke-linecap:round;stroke-linejoin:round;stroke-miterlimit:10;}
	.redund3{fill:none;stroke:#ED5485;stroke-linecap:round;stroke-linejoin:round;stroke-miterlimit:10;}
	.redund4{fill:#FFFFFF;stroke-linecap:round;stroke-linejoin:round;stroke-miterlimit:10;}
	.redund5{fill:#FFFFFF;stroke:#ee5586;stroke-linecap:round;stroke-width:2;stroke-linejoin:round;stroke-miterlimit:10;}
	.redund6{fill:#FFFFFF;}
</style>
<g>
	<line id="svg-concept" x1="910.6" y1="100.7" x2="779.6" y2="231.7"/>
	<line id="svg-concept" x1="780.2" y1="100.7" x2="911.3" y2="231.7"/>
	<line id="svg-concept" x1="613.5" y1="102.3" x2="485.7" y2="230.1"/>
	<line id="svg-concept" x1="485.5" y1="102.3" x2="613.3" y2="230.1"/>
	<line id="svg-concept" x1="188.8" y1="100.7" x2="319.9" y2="231.7"/>
	<line id="svg-concept" x1="319.2" y1="100.7" x2="188.1" y2="231.7"/>
</g>
<g style="stroke:#808080">
	<circle class="redund1" cx="105.9" cy="353.2" r="6.5"/>
	<line class="redund0" x1="105.9" y1="335.2" x2="105.9" y2="346.3"/>
	<line class="redund0" x1="54.8" y1="353.2" x2="99.2" y2="353.2"/>
	<line class="redund0" x1="112.5" y1="353.2" x2="156.9" y2="353.2"/>
	<path class="redund4" d="M210.6,235.3c0,3.4-2.5,6.1-5.6,6.1H6.8c-3.1,0-5.6-2.7-5.6-6.1v-21.7c0-3.4,2.5-6.1,5.6-6.1H205
		c3.1,0,5.6,2.7,5.6,6.1V235.3z"/>
	<line class="redund0" x1="12.7" y1="207.5" x2="12.7" y2="241.3"/>
	<line class="redund0" x1="199" y1="207.5" x2="199" y2="241.4"/>
	<path class="redund0" d="M184.2,224.5c0,4-3.3,7.3-7.3,7.3c-4,0-7.3-3.3-7.3-7.3s3.2-7.3,7.3-7.3C180.9,217.2,184.2,220.4,184.2,224.5z
		"/>
	<path class="redund0" d="M179.6,224.5c0,1.5-1.2,2.7-2.7,2.7c-1.5,0-2.7-1.2-2.7-2.7s1.2-2.7,2.7-2.7
		C178.4,221.8,179.6,223,179.6,224.5z"/>
	<line class="redund0" x1="184.2" y1="224.5" x2="179.6" y2="224.5"/>
	<line class="redund0" x1="174.2" y1="224.5" x2="169.7" y2="224.5"/>
	<path class="redund4" d="M210.6,280.4c0,3.4-2.5,6.1-5.6,6.1H6.8c-3.1,0-5.6-2.7-5.6-6.1v-21.7c0-3.4,2.5-6.1,5.6-6.1H205
		c3.1,0,5.6,2.7,5.6,6.1V280.4z"/>
	<line class="redund0" x1="12.7" y1="252.6" x2="12.7" y2="286.4"/>
	<line class="redund0" x1="199" y1="252.6" x2="199" y2="286.6"/>
	<path class="redund0" d="M184.2,269.6c0,4-3.3,7.3-7.3,7.3c-4,0-7.3-3.3-7.3-7.3s3.2-7.3,7.3-7.3C180.9,262.3,184.2,265.6,184.2,269.6z
		"/>
	<path class="redund0" d="M179.6,269.6c0,1.5-1.2,2.7-2.7,2.7c-1.5,0-2.7-1.2-2.7-2.7s1.2-2.7,2.7-2.7
		C178.4,266.9,179.6,268.1,179.6,269.6z"/>
	<line class="redund0" x1="184.2" y1="269.6" x2="179.6" y2="269.6"/>
	<line class="redund0" x1="174.2" y1="269.6" x2="169.7" y2="269.6"/>
	<path class="redund4" d="M210.6,325.5c0,3.4-2.5,6.1-5.6,6.1H6.8c-3.1,0-5.6-2.7-5.6-6.1v-21.7c0-3.4,2.5-6.1,5.6-6.1H205
		c3.1,0,5.6,2.7,5.6,6.1V325.5z"/>
	<line class="redund0" x1="12.7" y1="297.7" x2="12.7" y2="331.5"/>
	<line class="redund0" x1="199" y1="297.7" x2="199" y2="331.7"/>
	<path class="redund0" d="M184.2,314.7c0,4-3.3,7.3-7.3,7.3c-4,0-7.3-3.3-7.3-7.3s3.2-7.3,7.3-7.3C180.9,307.4,184.2,310.7,184.2,314.7z
		"/>
	<path class="redund0" d="M179.6,314.7c0,1.5-1.2,2.7-2.7,2.7c-1.5,0-2.7-1.2-2.7-2.7c0-1.5,1.2-2.7,2.7-2.7
		C178.4,312,179.6,313.2,179.6,314.7z"/>
	<line class="redund0" x1="184.2" y1="314.7" x2="179.6" y2="314.7"/>
	<line class="redund0" x1="174.2" y1="314.7" x2="169.7" y2="314.7"/>
</g>



<g style="stroke:#808080">
	<circle class="redund1" cx="105.9" cy="146.9" r="6.5"/>
	<line class="redund0" x1="105.9" y1="129" x2="105.9" y2="140.1"/>
	<line class="redund0" x1="54.8" y1="146.9" x2="99.2" y2="146.9"/>
	<line class="redund0" x1="112.5" y1="146.9" x2="156.9" y2="146.9"/>
	<path class="redund1" d="M210.6,29.1c0,3.4-2.5,6.1-5.6,6.1H6.8c-3.1,0-5.6-2.7-5.6-6.1V7.4c0-3.4,2.5-6.1,5.6-6.1H205
		c3.1,0,5.6,2.7,5.6,6.1V29.1z"/>
	<line class="redund0" x1="12.7" y1="1.2" x2="12.7" y2="35.1"/>
	<line class="redund0" x1="199" y1="1.2" x2="199" y2="35.2"/>
	<path class="redund0" d="M184.2,18.2c0,4-3.3,7.3-7.3,7.3c-4,0-7.3-3.3-7.3-7.3s3.2-7.3,7.3-7.3C180.9,11,184.2,14.2,184.2,18.2z"/>
	<path class="redund0" d="M179.6,18.2c0,1.5-1.2,2.7-2.7,2.7c-1.5,0-2.7-1.2-2.7-2.7c0-1.5,1.2-2.7,2.7-2.7
		C178.4,15.5,179.6,16.7,179.6,18.2z"/>
	<line class="redund0" x1="184.2" y1="18.2" x2="179.6" y2="18.2"/>
	<line class="redund0" x1="174.2" y1="18.2" x2="169.7" y2="18.2"/>
	<path class="redund1" d="M210.6,74.2c0,3.4-2.5,6.1-5.6,6.1H6.8c-3.1,0-5.6-2.7-5.6-6.1V52.5c0-3.4,2.5-6.1,5.6-6.1H205
		c3.1,0,5.6,2.7,5.6,6.1V74.2z"/>
	<line class="redund0" x1="12.7" y1="46.4" x2="12.7" y2="80.2"/>
	<line class="redund0" x1="199" y1="46.4" x2="199" y2="80.3"/>
	<path class="redund0" d="M184.2,63.3c0,4-3.3,7.3-7.3,7.3c-4,0-7.3-3.3-7.3-7.3s3.2-7.3,7.3-7.3C180.9,56.1,184.2,59.3,184.2,63.3z"/>
	<path class="redund0" d="M179.6,63.3c0,1.5-1.2,2.7-2.7,2.7c-1.5,0-2.7-1.2-2.7-2.7s1.2-2.7,2.7-2.7C178.4,60.6,179.6,61.8,179.6,63.3z
		"/>
	<line class="redund0" x1="184.2" y1="63.3" x2="179.6" y2="63.3"/>
	<line class="redund0" x1="174.2" y1="63.3" x2="169.7" y2="63.3"/>
	<path class="redund1" d="M210.6,119.3c0,3.4-2.5,6.1-5.6,6.1H6.8c-3.1,0-5.6-2.7-5.6-6.1V97.6c0-3.4,2.5-6.1,5.6-6.1H205
		c3.1,0,5.6,2.7,5.6,6.1V119.3z"/>
	<line class="redund0" x1="12.7" y1="91.5" x2="12.7" y2="125.3"/>
	<line class="redund0" x1="199" y1="91.5" x2="199" y2="125.4"/>
	<path class="redund0" d="M184.2,108.4c0,4-3.3,7.3-7.3,7.3c-4,0-7.3-3.3-7.3-7.3s3.2-7.3,7.3-7.3C180.9,101.2,184.2,104.4,184.2,108.4z
		"/>
	<path class="redund0" d="M179.6,108.4c0,1.5-1.2,2.7-2.7,2.7c-1.5,0-2.7-1.2-2.7-2.7s1.2-2.7,2.7-2.7
		C178.4,105.8,179.6,107,179.6,108.4z"/>
	<line class="redund0" x1="184.2" y1="108.5" x2="179.6" y2="108.5"/>
	<line class="redund0" x1="174.2" y1="108.5" x2="169.7" y2="108.5"/>
</g>




<g id="svg-concept">
	<circle class="redund6" cx="401.6" cy="353.2" r="6.5"/>
	<line x1="401.6" y1="335.2" x2="401.6" y2="346.3"/>
	<line x1="350.5" y1="353.2" x2="394.9" y2="353.2"/>
	<line x1="408.2" y1="353.2" x2="452.6" y2="353.2"/>
	<path class="redund6" d="M506.3,235.3c0,3.4-2.5,6.1-5.6,6.1H302.5c-3.1,0-5.6-2.7-5.6-6.1v-21.7c0-3.4,2.5-6.1,5.6-6.1h198.2
		c3.1,0,5.6,2.7,5.6,6.1V235.3z"/>
	<line x1="308.4" y1="207.5" x2="308.4" y2="241.3"/>
	<line x1="494.7" y1="207.5" x2="494.7" y2="241.4"/>
	<path class="redund6" d="M479.9,224.5c0,4-3.3,7.3-7.3,7.3c-4,0-7.3-3.3-7.3-7.3s3.2-7.3,7.3-7.3C476.6,217.2,479.9,220.4,479.9,224.5z
		"/>
	<path class="redund6" d="M475.3,224.5c0,1.5-1.2,2.7-2.7,2.7c-1.5,0-2.7-1.2-2.7-2.7s1.2-2.7,2.7-2.7
		C474.1,221.8,475.3,223,475.3,224.5z"/>
	<line x1="479.9" y1="224.5" x2="475.3" y2="224.5"/>
	<line x1="469.9" y1="224.5" x2="465.4" y2="224.5"/>
	<path class="redund6" d="M506.3,280.4c0,3.4-2.5,6.1-5.6,6.1H302.5c-3.1,0-5.6-2.7-5.6-6.1v-21.7c0-3.4,2.5-6.1,5.6-6.1h198.2
		c3.1,0,5.6,2.7,5.6,6.1V280.4z"/>
	<line x1="308.4" y1="252.6" x2="308.4" y2="286.4"/>
	<line class="redund6" x1="494.7" y1="252.6" x2="494.7" y2="286.6"/>
	<path class="redund6" d="M479.9,269.6c0,4-3.3,7.3-7.3,7.3c-4,0-7.3-3.3-7.3-7.3s3.2-7.3,7.3-7.3C476.6,262.3,479.9,265.6,479.9,269.6z
		"/>
	<path class="redund6" d="M475.3,269.6c0,1.5-1.2,2.7-2.7,2.7c-1.5,0-2.7-1.2-2.7-2.7s1.2-2.7,2.7-2.7
		C474.1,266.9,475.3,268.1,475.3,269.6z"/>
	<line x1="479.9" y1="269.6" x2="475.3" y2="269.6"/>
	<line x1="469.9" y1="269.6" x2="465.4" y2="269.6"/>
	<path class="redund6" d="M506.3,325.5c0,3.4-2.5,6.1-5.6,6.1H302.5c-3.1,0-5.6-2.7-5.6-6.1v-21.7c0-3.4,2.5-6.1,5.6-6.1h198.2
		c3.1,0,5.6,2.7,5.6,6.1V325.5z"/>
	<line x1="308.4" y1="297.7" x2="308.4" y2="331.5"/>
	<line x1="494.7" y1="297.7" x2="494.7" y2="331.7"/>
	<path class="redund6" d="M479.9,314.7c0,4-3.3,7.3-7.3,7.3c-4,0-7.3-3.3-7.3-7.3s3.2-7.3,7.3-7.3C476.6,307.4,479.9,310.7,479.9,314.7z
		"/>
	<path class="redund6" d="M475.3,314.7c0,1.5-1.2,2.7-2.7,2.7c-1.5,0-2.7-1.2-2.7-2.7c0-1.5,1.2-2.7,2.7-2.7
		C474.1,312,475.3,313.2,475.3,314.7z"/>
	<line x1="479.9" y1="314.7" x2="475.3" y2="314.7"/>
	<line x1="469.9" y1="314.7" x2="465.4" y2="314.7"/>

	<animateMotion
		path="M8, 0 8 0 -8 0 8 0"
		begin="0s" 
		dur="3s" 
		repeatCount="indefinite"/>

	<animateMotion
		path="M8, 0 8 0 -8 0 8 0"
		begin="6s"
		fill="freeze" />
</g>
<g id="svg-concept">
	<circle class="redund6" cx="697.3" cy="353.2" r="6.5"/>
	<line x1="697.3" y1="335.2" x2="697.3" y2="346.3"/>
	<line x1="646.2" y1="353.2" x2="690.6" y2="353.2"/>
	<line x1="703.9" y1="353.2" x2="748.3" y2="353.2"/>
	<path class="redund6" d="M802,235.3c0,3.4-2.5,6.1-5.6,6.1H598.2c-3.1,0-5.6-2.7-5.6-6.1v-21.7c0-3.4,2.5-6.1,5.6-6.1h198.2
		c3.1,0,5.6,2.7,5.6,6.1V235.3z"/>
	<line x1="604.1" y1="207.5" x2="604.1" y2="241.3"/>
	<line x1="790.4" y1="207.5" x2="790.4" y2="241.4"/>
	<path class="redund6" d="M775.6,224.5c0,4-3.3,7.3-7.3,7.3c-4,0-7.3-3.3-7.3-7.3s3.2-7.3,7.3-7.3C772.3,217.2,775.6,220.4,775.6,224.5z
		"/>
	<path class="redund6" d="M771,224.5c0,1.5-1.2,2.7-2.7,2.7c-1.5,0-2.7-1.2-2.7-2.7s1.2-2.7,2.7-2.7C769.8,221.8,771,223,771,224.5z"/>
	<line x1="775.6" y1="224.5" x2="771" y2="224.5"/>
	<line x1="765.6" y1="224.5" x2="761.1" y2="224.5"/>
	<path class="redund6" d="M802,280.4c0,3.4-2.5,6.1-5.6,6.1H598.2c-3.1,0-5.6-2.7-5.6-6.1v-21.7c0-3.4,2.5-6.1,5.6-6.1h198.2
		c3.1,0,5.6,2.7,5.6,6.1V280.4z"/>
	<line x1="604.1" y1="252.6" x2="604.1" y2="286.4"/>
	<line x1="790.4" y1="252.6" x2="790.4" y2="286.6"/>
	<path class="redund6" d="M775.6,269.6c0,4-3.3,7.3-7.3,7.3c-4,0-7.3-3.3-7.3-7.3s3.2-7.3,7.3-7.3C772.3,262.3,775.6,265.6,775.6,269.6z
		"/>
	<path class="redund6" d="M771,269.6c0,1.5-1.2,2.7-2.7,2.7c-1.5,0-2.7-1.2-2.7-2.7s1.2-2.7,2.7-2.7C769.8,266.9,771,268.1,771,269.6z"
		/>
	<line x1="775.6" y1="269.6" x2="771" y2="269.6"/>
	<line x1="765.6" y1="269.6" x2="761.1" y2="269.6"/>
	<path class="redund6" d="M802,325.5c0,3.4-2.5,6.1-5.6,6.1H598.2c-3.1,0-5.6-2.7-5.6-6.1v-21.7c0-3.4,2.5-6.1,5.6-6.1h198.2
		c3.1,0,5.6,2.7,5.6,6.1V325.5z"/>
	<line x1="604.1" y1="297.7" x2="604.1" y2="331.5"/>
	<line x1="790.4" y1="297.7" x2="790.4" y2="331.7"/>
	<path class="redund6" d="M775.6,314.7c0,4-3.3,7.3-7.3,7.3c-4,0-7.3-3.3-7.3-7.3s3.2-7.3,7.3-7.3C772.3,307.4,775.6,310.7,775.6,314.7z
		"/>
	<path class="redund6" d="M771,314.7c0,1.5-1.2,2.7-2.7,2.7c-1.5,0-2.7-1.2-2.7-2.7c0-1.5,1.2-2.7,2.7-2.7
		C769.8,312,771,313.2,771,314.7z"/>
	<line x1="775.6" y1="314.7" x2="771" y2="314.7"/>
	<line x1="765.6" y1="314.7" x2="761.1" y2="314.7"/>

	<animateMotion
		path="M8, 0 8 0 -8 0 8 0"
		begin="0s" 
		dur="3s" 
		repeatCount="indefinite"/>

</g>
<g style="stroke:#808080">
	<circle class="redund1" cx="401.6" cy="146.9" r="6.5"/>
	<line class="redund0" x1="401.6" y1="129" x2="401.6" y2="140.1"/>
	<line class="redund0" x1="350.5" y1="146.9" x2="394.9" y2="146.9"/>
	<line class="redund0" x1="408.2" y1="146.9" x2="452.6" y2="146.9"/>
	<path class="redund4" d="M506.3,29.1c0,3.4-2.5,6.1-5.6,6.1H302.5c-3.1,0-5.6-2.7-5.6-6.1V7.4c0-3.4,2.5-6.1,5.6-6.1h198.2
		c3.1,0,5.6,2.7,5.6,6.1V29.1z"/>
	<line class="redund0" x1="308.4" y1="1.2" x2="308.4" y2="35.1"/>
	<line class="redund0" x1="494.7" y1="1.2" x2="494.7" y2="35.2"/>
	<path class="redund0" d="M479.9,18.2c0,4-3.3,7.3-7.3,7.3c-4,0-7.3-3.3-7.3-7.3s3.2-7.3,7.3-7.3C476.6,11,479.9,14.2,479.9,18.2z"/>
	<path class="redund0" d="M475.3,18.2c0,1.5-1.2,2.7-2.7,2.7c-1.5,0-2.7-1.2-2.7-2.7c0-1.5,1.2-2.7,2.7-2.7
		C474.1,15.5,475.3,16.7,475.3,18.2z"/>
	<line class="redund0" x1="479.9" y1="18.2" x2="475.3" y2="18.2"/>
	<line class="redund0" x1="469.9" y1="18.2" x2="465.4" y2="18.2"/>
	<path class="redund4" d="M506.3,74.2c0,3.4-2.5,6.1-5.6,6.1H302.5c-3.1,0-5.6-2.7-5.6-6.1V52.5c0-3.4,2.5-6.1,5.6-6.1h198.2
		c3.1,0,5.6,2.7,5.6,6.1V74.2z"/>
	<line class="redund0" x1="308.4" y1="46.4" x2="308.4" y2="80.2"/>
	<line class="redund0" x1="494.7" y1="46.4" x2="494.7" y2="80.3"/>
	<path class="redund0" d="M479.9,63.3c0,4-3.3,7.3-7.3,7.3c-4,0-7.3-3.3-7.3-7.3s3.2-7.3,7.3-7.3C476.6,56.1,479.9,59.3,479.9,63.3z"/>
	<path class="redund0" d="M475.3,63.3c0,1.5-1.2,2.7-2.7,2.7c-1.5,0-2.7-1.2-2.7-2.7s1.2-2.7,2.7-2.7C474.1,60.6,475.3,61.8,475.3,63.3z
		"/>
	<line class="redund0" x1="479.9" y1="63.3" x2="475.3" y2="63.3"/>
	<line class="redund0" x1="469.9" y1="63.3" x2="465.4" y2="63.3"/>
	<path class="redund4" d="M506.3,119.3c0,3.4-2.5,6.1-5.6,6.1H302.5c-3.1,0-5.6-2.7-5.6-6.1V97.6c0-3.4,2.5-6.1,5.6-6.1h198.2
		c3.1,0,5.6,2.7,5.6,6.1V119.3z"/>
	<line class="redund0" x1="308.4" y1="91.5" x2="308.4" y2="125.3"/>
	<line class="redund0" x1="494.7" y1="91.5" x2="494.7" y2="125.4"/>
	<path class="redund0" d="M479.9,108.4c0,4-3.3,7.3-7.3,7.3c-4,0-7.3-3.3-7.3-7.3s3.2-7.3,7.3-7.3C476.6,101.2,479.9,104.4,479.9,108.4z
		"/>
	<path class="redund0" d="M475.3,108.4c0,1.5-1.2,2.7-2.7,2.7c-1.5,0-2.7-1.2-2.7-2.7s1.2-2.7,2.7-2.7
		C474.1,105.8,475.3,107,475.3,108.4z"/>
	<line class="redund0" x1="479.9" y1="108.5" x2="475.3" y2="108.5"/>
	<line class="redund0" x1="469.9" y1="108.5" x2="465.4" y2="108.5"/>
</g>

<g id="svg-concept">
	<circle class="redund1" cx="697.3" cy="146.9" r="6.5"/>
	<line class="redund0" x1="697.3" y1="129" x2="697.3" y2="140.1"/>
	<line class="redund0" x1="646.2" y1="146.9" x2="690.6" y2="146.9"/>
	<line class="redund0" x1="703.9" y1="146.9" x2="748.3" y2="146.9"/>
	<path class="redund4" d="M802,29.1c0,3.4-2.5,6.1-5.6,6.1H598.2c-3.1,0-5.6-2.7-5.6-6.1V7.4c0-3.4,2.5-6.1,5.6-6.1h198.2
		c3.1,0,5.6,2.7,5.6,6.1V29.1z"/>
	<line class="redund0" x1="604.1" y1="1.2" x2="604.1" y2="35.1"/>
	<line class="redund0" x1="790.4" y1="1.2" x2="790.4" y2="35.2"/>
	<path class="redund0" d="M775.6,18.2c0,4-3.3,7.3-7.3,7.3c-4,0-7.3-3.3-7.3-7.3s3.2-7.3,7.3-7.3C772.3,11,775.6,14.2,775.6,18.2z"/>
	<path class="redund0" d="M771,18.2c0,1.5-1.2,2.7-2.7,2.7c-1.5,0-2.7-1.2-2.7-2.7c0-1.5,1.2-2.7,2.7-2.7C769.8,15.5,771,16.7,771,18.2z
		"/>
	<line class="redund0" x1="775.6" y1="18.2" x2="771" y2="18.2"/>
	<line class="redund0" x1="765.6" y1="18.2" x2="761.1" y2="18.2"/>
	<path class="redund4" d="M802,74.2c0,3.4-2.5,6.1-5.6,6.1H598.2c-3.1,0-5.6-2.7-5.6-6.1V52.5c0-3.4,2.5-6.1,5.6-6.1h198.2
		c3.1,0,5.6,2.7,5.6,6.1V74.2z"/>
	<line class="redund0" x1="604.1" y1="46.4" x2="604.1" y2="80.2"/>
	<line class="redund0" x1="790.4" y1="46.4" x2="790.4" y2="80.3"/>
	<path class="redund0" d="M775.6,63.3c0,4-3.3,7.3-7.3,7.3c-4,0-7.3-3.3-7.3-7.3s3.2-7.3,7.3-7.3C772.3,56.1,775.6,59.3,775.6,63.3z"/>
	<path class="redund0" d="M771,63.3c0,1.5-1.2,2.7-2.7,2.7c-1.5,0-2.7-1.2-2.7-2.7s1.2-2.7,2.7-2.7C769.8,60.6,771,61.8,771,63.3z"/>
	<line class="redund0" x1="775.6" y1="63.3" x2="771" y2="63.3"/>
	<line class="redund0" x1="765.6" y1="63.3" x2="761.1" y2="63.3"/>
	<path class="redund4" d="M802,119.3c0,3.4-2.5,6.1-5.6,6.1H598.2c-3.1,0-5.6-2.7-5.6-6.1V97.6c0-3.4,2.5-6.1,5.6-6.1h198.2
		c3.1,0,5.6,2.7,5.6,6.1V119.3z"/>
	<line class="redund0" x1="604.1" y1="91.5" x2="604.1" y2="125.3"/>
	<line class="redund0" x1="790.4" y1="91.5" x2="790.4" y2="125.4"/>
	<path class="redund0" d="M775.6,108.4c0,4-3.3,7.3-7.3,7.3c-4,0-7.3-3.3-7.3-7.3s3.2-7.3,7.3-7.3C772.3,101.2,775.6,104.4,775.6,108.4z
		"/>
	<path class="redund0" d="M771,108.4c0,1.5-1.2,2.7-2.7,2.7c-1.5,0-2.7-1.2-2.7-2.7s1.2-2.7,2.7-2.7C769.8,105.8,771,107,771,108.4z"/>
	<line class="redund0" x1="775.6" y1="108.5" x2="771" y2="108.5"/>
	<line class="redund0" x1="765.6" y1="108.5" x2="761.1" y2="108.5"/>

	<animateMotion
		path="M8, 0 8 0 -8 0 8 0"
		begin="7s" 
		dur="3s" 
		repeatCount="indefinite"/>

	<animateMotion
		path="M8, 0 8 0 -8 0 8 0"
		repeatCount="indefinite"/>
</g>
<g style="stroke:#808080">
	<circle class="redund1" cx="993" cy="353.2" r="6.5"/>
	<line class="redund0" x1="993" y1="335.2" x2="993" y2="346.3"/>
	<line class="redund0" x1="941.9" y1="353.2" x2="986.3" y2="353.2"/>
	<line class="redund0" x1="999.6" y1="353.2" x2="1044" y2="353.2"/>
	<path class="redund4" d="M1097.7,235.3c0,3.4-2.5,6.1-5.6,6.1H893.9c-3.1,0-5.6-2.7-5.6-6.1v-21.7c0-3.4,2.5-6.1,5.6-6.1h198.2
		c3.1,0,5.6,2.7,5.6,6.1V235.3z"/>
	<line class="redund0" x1="899.8" y1="207.5" x2="899.8" y2="241.3"/>
	<line class="redund0" x1="1086.1" y1="207.5" x2="1086.1" y2="241.4"/>
	<path class="redund0" d="M1071.3,224.5c0,4-3.3,7.3-7.3,7.3c-4,0-7.3-3.3-7.3-7.3s3.2-7.3,7.3-7.3
		C1068,217.2,1071.3,220.4,1071.3,224.5z"/>
	<path class="redund0" d="M1066.7,224.5c0,1.5-1.2,2.7-2.7,2.7c-1.5,0-2.7-1.2-2.7-2.7s1.2-2.7,2.7-2.7
		C1065.5,221.8,1066.7,223,1066.7,224.5z"/>
	<line class="redund0" x1="1071.3" y1="224.5" x2="1066.7" y2="224.5"/>
	<line class="redund0" x1="1061.3" y1="224.5" x2="1056.8" y2="224.5"/>
	<path class="redund4" d="M1097.7,280.4c0,3.4-2.5,6.1-5.6,6.1H893.9c-3.1,0-5.6-2.7-5.6-6.1v-21.7c0-3.4,2.5-6.1,5.6-6.1h198.2
		c3.1,0,5.6,2.7,5.6,6.1V280.4z"/>
	<line class="redund0" x1="899.8" y1="252.6" x2="899.8" y2="286.4"/>
	<line class="redund0" x1="1086.1" y1="252.6" x2="1086.1" y2="286.6"/>
	<path class="redund0" d="M1071.3,269.6c0,4-3.3,7.3-7.3,7.3c-4,0-7.3-3.3-7.3-7.3s3.2-7.3,7.3-7.3
		C1068,262.3,1071.3,265.6,1071.3,269.6z"/>
	<path class="redund0" d="M1066.7,269.6c0,1.5-1.2,2.7-2.7,2.7c-1.5,0-2.7-1.2-2.7-2.7s1.2-2.7,2.7-2.7
		C1065.5,266.9,1066.7,268.1,1066.7,269.6z"/>
	<line class="redund0" x1="1071.3" y1="269.6" x2="1066.7" y2="269.6"/>
	<line class="redund0" x1="1061.3" y1="269.6" x2="1056.8" y2="269.6"/>
	<path class="redund4" d="M1097.7,325.5c0,3.4-2.5,6.1-5.6,6.1H893.9c-3.1,0-5.6-2.7-5.6-6.1v-21.7c0-3.4,2.5-6.1,5.6-6.1h198.2
		c3.1,0,5.6,2.7,5.6,6.1V325.5z"/>
	<line class="redund0" x1="899.8" y1="297.7" x2="899.8" y2="331.5"/>
	<line class="redund0" x1="1086.1" y1="297.7" x2="1086.1" y2="331.7"/>
	<path class="redund0" d="M1071.3,314.7c0,4-3.3,7.3-7.3,7.3c-4,0-7.3-3.3-7.3-7.3s3.2-7.3,7.3-7.3
		C1068,307.4,1071.3,310.7,1071.3,314.7z"/>
	<path class="redund0" d="M1066.7,314.7c0,1.5-1.2,2.7-2.7,2.7c-1.5,0-2.7-1.2-2.7-2.7c0-1.5,1.2-2.7,2.7-2.7
		C1065.5,312,1066.7,313.2,1066.7,314.7z"/>
	<line class="redund0" x1="1071.3" y1="314.7" x2="1066.7" y2="314.7"/>
	<line class="redund0" x1="1061.3" y1="314.7" x2="1056.8" y2="314.7"/>
</g>
<g style="stroke:#808080">
	<circle class="redund1" cx="993" cy="146.9" r="6.5"/>
	<line class="redund0" x1="993" y1="129" x2="993" y2="140.1"/>
	<line class="redund0" x1="941.9" y1="146.9" x2="986.3" y2="146.9"/>
	<line class="redund0" x1="999.6" y1="146.9" x2="1044" y2="146.9"/>
	<path class="redund4" d="M1097.7,29.1c0,3.4-2.5,6.1-5.6,6.1H893.9c-3.1,0-5.6-2.7-5.6-6.1V7.4c0-3.4,2.5-6.1,5.6-6.1h198.2
		c3.1,0,5.6,2.7,5.6,6.1V29.1z"/>
	<line class="redund0" x1="899.8" y1="1.2" x2="899.8" y2="35.1"/>
	<line class="redund0" x1="1086.1" y1="1.2" x2="1086.1" y2="35.2"/>
	<path class="redund0" d="M1071.3,18.2c0,4-3.3,7.3-7.3,7.3c-4,0-7.3-3.3-7.3-7.3s3.2-7.3,7.3-7.3C1068,11,1071.3,14.2,1071.3,18.2z"/>
	<path class="redund0" d="M1066.7,18.2c0,1.5-1.2,2.7-2.7,2.7c-1.5,0-2.7-1.2-2.7-2.7c0-1.5,1.2-2.7,2.7-2.7
		C1065.5,15.5,1066.7,16.7,1066.7,18.2z"/>
	<line class="redund0" x1="1071.3" y1="18.2" x2="1066.7" y2="18.2"/>
	<line class="redund0" x1="1061.3" y1="18.2" x2="1056.8" y2="18.2"/>
	<path class="redund4" d="M1097.7,74.2c0,3.4-2.5,6.1-5.6,6.1H893.9c-3.1,0-5.6-2.7-5.6-6.1V52.5c0-3.4,2.5-6.1,5.6-6.1h198.2
		c3.1,0,5.6,2.7,5.6,6.1V74.2z"/>
	<line class="redund0" x1="899.8" y1="46.4" x2="899.8" y2="80.2"/>
	<line class="redund0" x1="1086.1" y1="46.4" x2="1086.1" y2="80.3"/>
	<path class="redund0" d="M1071.3,63.3c0,4-3.3,7.3-7.3,7.3c-4,0-7.3-3.3-7.3-7.3s3.2-7.3,7.3-7.3C1068,56.1,1071.3,59.3,1071.3,63.3z"
		/>
	<path class="redund0" d="M1066.7,63.3c0,1.5-1.2,2.7-2.7,2.7c-1.5,0-2.7-1.2-2.7-2.7s1.2-2.7,2.7-2.7
		C1065.5,60.6,1066.7,61.8,1066.7,63.3z"/>
	<line class="redund0" x1="1071.3" y1="63.3" x2="1066.7" y2="63.3"/>
	<line class="redund0" x1="1061.3" y1="63.3" x2="1056.8" y2="63.3"/>
	<path class="redund4" d="M1097.7,119.3c0,3.4-2.5,6.1-5.6,6.1H893.9c-3.1,0-5.6-2.7-5.6-6.1V97.6c0-3.4,2.5-6.1,5.6-6.1h198.2
		c3.1,0,5.6,2.7,5.6,6.1V119.3z"/>
	<line class="redund0" x1="899.8" y1="91.5" x2="899.8" y2="125.3"/>
	<line class="redund0" x1="1086.1" y1="91.5" x2="1086.1" y2="125.4"/>
	<path class="redund0" d="M1071.3,108.4c0,4-3.3,7.3-7.3,7.3c-4,0-7.3-3.3-7.3-7.3s3.2-7.3,7.3-7.3
		C1068,101.2,1071.3,104.4,1071.3,108.4z"/>
	<path class="redund0" d="M1066.7,108.4c0,1.5-1.2,2.7-2.7,2.7c-1.5,0-2.7-1.2-2.7-2.7s1.2-2.7,2.7-2.7
		C1065.5,105.8,1066.7,107,1066.7,108.4z"/>
	<line class="redund0" x1="1071.3" y1="108.5" x2="1066.7" y2="108.5"/>
	<line class="redund0" x1="1061.3" y1="108.5" x2="1056.8" y2="108.5"/>
</g>
<path id="svg-concept" class="redund6" d="M554.1,166.2c0,2.6-2.1,4.7-4.7,4.7c-2.6,0-4.7-2.1-4.7-4.7s2.1-4.7,4.7-4.7C552,161.5,554.1,163.6,554.1,166.2
	z"/>
<path id="svg-concept" class="redund6" d="M258.7,165.9c0,2.6-2.1,4.7-4.7,4.7c-2.6,0-4.7-2.1-4.7-4.7c0-2.6,2.1-4.7,4.7-4.7
	C256.6,161.3,258.7,163.4,258.7,165.9z"/>
<path id="svg-concept" class="redund6" d="M850.3,166.2c0,2.6-2.1,4.7-4.7,4.7c-2.6,0-4.7-2.1-4.7-4.7s2.1-4.7,4.7-4.7
	C848.2,161.5,850.3,163.6,850.3,166.2z"/>
</svg>
