<?xml version="1.0" encoding="utf-8"?>
<!-- Generator: Adobe Illustrator 22.0.0, SVG Export Plug-In . SVG Version: 6.00 Build 0)  -->
<svg version="1.1" id="Layer_1" xmlns="http://www.w3.org/2000/svg" xmlns:xlink="http://www.w3.org/1999/xlink" x="0px" y="0px"
	 viewBox="0 0 595.3 595.3" style="enable-background:new 0 0 595.3 595.3;" xml:space="preserve">
<style type="text/css">
	.salesman0{fill:#FFFFFF;stroke:#808080;stroke-linecap:round;stroke-linejoin:round;stroke-miterlimit:10;}
	.salesman1{fill:none;stroke:#ee5586;stroke-width:4;stroke-linecap:round;stroke-linejoin:round;stroke-miterlimit:10;}
</style>
<path id="svg-concept" class="salesman1" d="M468,238.5c-1.9-2.9-4.7-0.1-7.1,0.7c-4.7,1.6-9.3,4-15.1,2.2c3.8-2.2,7.6-3.6,10.4-6.3
	c5.3-5.2,10.8-10.5,8-19.2c-0.4-1.4,1-4.2-2.4-3.2c-17.3,9.8-35.8,15.8-55.7,16.4c-22.7,0.7-40.3-8.4-52-28.4
	c-2.9-4.9-6.1-9.5-9.5-14.1c-8.1-10.8-16.9-20.9-29.1-27.3c-13.4-7.1-27-7.2-39.8,0.8c-12.1,7.5-15.9,22-11.2,37.7
	c-1.7,3.4-5.3,3-8.1,4c-26.3,9.4-40.8,32.1-39.8,60.7c-0.9,11.9,1.2,23.5,4.2,35c-2.9,2-6,3.7-9.5,4.4c-0.8-0.1-2.2-0.3-2.3,0.5
	c-0.1,1.3,1.2,1.4,2.3,1.4l0,0l0,0c2.5,0.7,5,1.5,7.4,2.2c-3.6,12.3-0.3,23.4,6.3,33.7c3.4,5.2,8.4,7.9,14.8,7.8v0c0,0,0,0,0,0
	c0.5,2.6,1.1,5.2,1.6,7.8c3.2,16.1,10.9,29.7,22.8,40.9c0,0,0,0,0,0c0,0,0,0,0,0c0.8,7.9,2.3,15.8,4.3,23.5
	c-0.2,0.9-0.4,1.7-0.6,2.6c0,0,0,0,0,0c-3.4,5.4-16,25.3-32.4,28.5c-12.6,2.5-23.2,7.9-33,15.7c-6.6,5.2-11.2,11.8-13,20
	c-1.6,7.4-3,14.8-4.5,22.3c41.3,52.4,191.3,50.3,226.4,0c1.6-11.4-0.7-22.4-6.1-32.1c-8.1-14.6-22.1-22.6-37.6-26.5
	c-16.1-4-33.5-24-38.5-28.1c0,0,0,0,0,0c3.4-7.3,3.8-15.3,4.6-23.1c0-0.4-0.1-0.9-0.3-1.3c2.6-2.3,5.1-4.9,7.5-7.4
	c11.3-12,17.1-26.4,18.1-42.8c5.7-0.3,10.2-3,13.5-7.7c6.1-8.7,8.4-18.5,7.6-29.1c-0.2-3-1.4-5.5-3.9-7c0-0.1,0.1-0.2,0.1-0.3
	c2.3-6,3.2-12.3,4.4-18.5c0.6-3,2.1-4.1,5.1-4.2c3.9,0,7.8,0.3,11.6-0.4c26.3-4.3,48.4-16.9,67.4-35.3
	C466.7,243.3,469.6,241,468,238.5z"/>
<g>
	<path class="salesman0" d="M42,445.4c81.6,141.2,262.2,189.5,403.4,107.9c141.2-81.6,189.5-262.2,107.9-403.4S291.1-39.6,149.9,42
		C8.7,123.6-39.6,304.2,42,445.4z M209.5,80c27.6,47.7,88.5,64,136.2,36.4c26.2-15.1,42.8-40.3,48-67.8
		c54.8,21.4,102.9,60.8,134.6,115.6s41.8,116.2,33,174.4c-26.4-9.2-56.6-7.3-82.7,7.8c-47.7,27.6-64,88.5-36.4,136.2
		c5.8,10,13,18.6,21.3,25.7c-10.3,8.2-21.4,15.8-33.2,22.7c-98.4,56.9-217.9,44.3-301.7-22.5c35.7-30.6,45.7-83.3,21.3-125.5
		s-75-59.8-119.4-44.2c-16-106,32.7-215.8,131.1-272.7c11.8-6.8,23.9-12.6,36.2-17.5C199.9,59.5,203.7,70,209.5,80z"/>
	<path class="salesman0" d="M100.3,424.7c-5.3-1.4-8.4-6.8-7-12.1c1.4-5.2,6.8-8.4,12.1-7c5.3,1.4,8.4,6.8,7,12
		C110.9,423,105.5,426.1,100.3,424.7z"/>
	<path class="salesman0" d="M101.9,418.8c-1.9-0.5-3.1-2.5-2.6-4.5c0.5-1.9,2.5-3.1,4.5-2.6c1.9,0.5,3.1,2.5,2.6,4.5
		C105.8,418.1,103.8,419.3,101.9,418.8z"/>
	<line class="salesman0" x1="100.2" y1="424.7" x2="101.8" y2="418.7"/>
	<line class="salesman0" x1="103.7" y1="411.7" x2="105.3" y2="405.7"/>
	<path class="salesman0" d="M489.2,417.1c-5.3-1.4-8.4-6.8-7-12.1c1.4-5.2,6.8-8.4,12.1-7c5.3,1.4,8.4,6.8,7,12
		C499.8,415.4,494.4,418.5,489.2,417.1z"/>
	<path class="salesman0" d="M490.8,411.1c-1.9-0.5-3.1-2.5-2.6-4.5c0.5-1.9,2.5-3.1,4.5-2.6s3.1,2.5,2.6,4.5
		C494.7,410.5,492.7,411.6,490.8,411.1z"/>
	<line class="salesman0" x1="489.1" y1="417.1" x2="490.7" y2="411.1"/>
	<line class="salesman0" x1="492.6" y1="404" x2="494.2" y2="398.1"/>
	<path class="salesman0" d="M298.5,86.2c-5.3-1.4-8.4-6.8-7-12.1c1.4-5.2,6.8-8.4,12.1-7c5.3,1.4,8.4,6.8,7,12
		C309.1,84.5,303.7,87.6,298.5,86.2z"/>
	<path class="salesman0" d="M300.1,80.2c-1.9-0.5-3.1-2.5-2.6-4.5c0.5-1.9,2.5-3.1,4.5-2.6c1.9,0.5,3.1,2.5,2.6,4.5
		C304,79.6,302,80.7,300.1,80.2z"/>
	<line class="salesman0" x1="298.5" y1="86.2" x2="300.1" y2="80.2"/>
	<line class="salesman0" x1="301.9" y1="73.1" x2="303.5" y2="67.2"/>
	<path id="svg-concept" class="salesman1" d="M553.3,149.9C471.7,8.7,291.1-39.6,149.9,42C8.7,123.6-39.6,304.2,42,445.4s262.2,189.5,403.4,107.9
		C586.6,471.7,634.9,291.1,553.3,149.9z"/>

	<animateTransform  
		type="rotate"
		attributeName="transform" 
		begin="0s" 
		dur="4s" 
		from="0 298 298" 
		to="360 298 298" 
		repeatCount="indefinite" >
	</animateTransform>
</g>

</svg>
