<?xml version="1.0" encoding="utf-8"?>
<!-- Generator: Adobe Illustrator 22.0.0, SVG Export Plug-In . SVG Version: 6.00 Build 0)  -->
<svg version="1.1" id="Layer_1" xmlns="http://www.w3.org/2000/svg" xmlns:xlink="http://www.w3.org/1999/xlink" x="0px" y="0px"
	 viewBox="0 0 1099.5 361.5" style="enable-background:new 0 0 1099.5 361.5;" xml:space="preserve">
<style type="text/css">
	.scalable0{fill:none;stroke:#ee5586;stroke-width:2;stroke-linecap:square;stroke-miterlimit:10;}
	.scalable1{fill:#FFFFFF;stroke:#ee5586;stroke-width:2;stroke-linecap:round;stroke-linejoin:round;stroke-miterlimit:10;}
	.scalable2{fill:none;stroke:#ee5586;stroke-width:2;stroke-linecap:round;stroke-linejoin:round;stroke-miterlimit:10;}
	.scalable3{fill:#FFFFFF;stroke-linecap:round;stroke-linejoin:round;stroke-miterlimit:10;}
	.scalable4{fill:none;stroke-linecap:round;stroke-linejoin:round;stroke-miterlimit:10;}
	.scalable5{fill:none;stroke:#D8D8D8;stroke-width:2;stroke-linecap:square;stroke-miterlimit:10;}
	.scalable6{fill:none;stroke:#FFFFFF;stroke-width:3;stroke-miterlimit:10;}
	.scalable7{fill:#ee5586;}
	.scalable8{stroke:#808080;}
</style>
<polyline id="svg-concept" class="scalable0" points="2.4,157.1 344.5,157.2 344.5,81.3 745.2,81.2 745.2,5.5 1087.4,5.5 "/>

<g class="scalable8">
	<path class="scalable3" d="M286.1,312.7c0,4.6-3.4,8.3-7.6,8.3H9.9c-4.2,0-7.6-3.7-7.6-8.3v-29.4c0-4.6,3.4-8.3,7.6-8.3h268.5
		c4.2,0,7.6,3.7,7.6,8.3V312.7z"/>
	<line class="scalable4" x1="18" y1="275" x2="18" y2="320.9"/>
	<line class="scalable4" x1="270.4" y1="275" x2="270.4" y2="321"/>
	<path class="scalable4" d="M250.3,298c0,5.4-4.4,9.8-9.8,9.8c-5.4,0-9.8-4.4-9.8-9.8s4.4-9.8,9.8-9.8C245.9,288.2,250.3,292.6,250.3,298z
		"/>
	<path class="scalable4" d="M244.1,298c0,2-1.6,3.7-3.7,3.7c-2,0-3.6-1.6-3.6-3.7s1.6-3.6,3.6-3.6C242.5,294.4,244.1,296,244.1,298z"/>
	<line class="scalable4" x1="250.3" y1="298.1" x2="244.1" y2="298.1"/>
	<line class="scalable4" x1="236.8" y1="298.1" x2="230.7" y2="298.1"/>
	<g>
		<circle id="svg-concept" class="scalable1" cx="144.2" cy="350.2" r="8.7"/>
		<line id="svg-concept" class="scalable2" x1="144.2" y1="325.9" x2="144.2" y2="340.9"/>
		<line id="svg-concept" class="scalable2" x1="75" y1="350.2" x2="135.2" y2="350.2"/>
		<line id="svg-concept" class="scalable2" x1="153.2" y1="350.2" x2="213.4" y2="350.2"/>
	</g>
</g>

<g class="scalable8">
	<path class="scalable3" d="M686.7,251.6c0,4.6-3.4,8.3-7.6,8.3H410.6c-4.2,0-7.6-3.7-7.6-8.3v-29.4c0-4.6,3.4-8.3,7.6-8.3h268.5
		c4.2,0,7.6,3.7,7.6,8.3V251.6z"/>
	<line class="scalable4" x1="418.7" y1="213.9" x2="418.7" y2="259.7"/>
	<line class="scalable4" x1="671.1" y1="213.9" x2="671.1" y2="259.9"/>
	<path class="scalable4" d="M651,236.9c0,5.4-4.4,9.8-9.8,9.8c-5.4,0-9.8-4.4-9.8-9.8c0-5.4,4.4-9.8,9.8-9.8
		C646.6,227.1,651,231.5,651,236.9z"/>
	<path class="scalable4" d="M644.8,236.9c0,2-1.6,3.7-3.7,3.7c-2,0-3.6-1.6-3.6-3.7s1.6-3.6,3.6-3.6C643.2,233.3,644.8,234.9,644.8,236.9z
		"/>
	<line class="scalable4" x1="651" y1="236.9" x2="644.8" y2="236.9"/>
	<line class="scalable4" x1="637.5" y1="236.9" x2="631.3" y2="236.9"/>
	<path class="scalable3" d="M686.7,312.7c0,4.6-3.4,8.3-7.6,8.3H410.6c-4.2,0-7.6-3.7-7.6-8.3v-29.4c0-4.6,3.4-8.3,7.6-8.3h268.5
		c4.2,0,7.6,3.7,7.6,8.3V312.7z"/>
	<line class="scalable4" x1="418.7" y1="275" x2="418.7" y2="320.9"/>
	<line class="scalable4" x1="671.1" y1="275" x2="671.1" y2="321"/>
	<path class="scalable4" d="M651,298c0,5.4-4.4,9.8-9.8,9.8c-5.4,0-9.8-4.4-9.8-9.8s4.4-9.8,9.8-9.8C646.6,288.2,651,292.6,651,298z"/>
	<path class="scalable4" d="M644.8,298c0,2-1.6,3.7-3.7,3.7c-2,0-3.6-1.6-3.6-3.7s1.6-3.6,3.6-3.6C643.2,294.4,644.8,296,644.8,298z"/>
	<line class="scalable4" x1="651" y1="298.1" x2="644.8" y2="298.1"/>
	<line class="scalable4" x1="637.5" y1="298.1" x2="631.3" y2="298.1"/>
	<g>
		<circle id="svg-concept" class="scalable1" cx="544.9" cy="350.2" r="8.7"/>
		<line id="svg-concept" class="scalable2" x1="544.9" y1="325.9" x2="544.9" y2="340.9"/>
		<line id="svg-concept" class="scalable2" x1="475.7" y1="350.2" x2="535.9" y2="350.2"/>
		<line id="svg-concept" class="scalable2" x1="553.9" y1="350.2" x2="614.1" y2="350.2"/>
	</g>
</g>
<g id="svg-concept">
	
	<path class="scalable3" d="M1087.4,190.5c0,4.6-3.4,8.3-7.6,8.3H811.3c-4.2,0-7.6-3.7-7.6-8.3v-29.4c0-4.6,3.4-8.3,7.6-8.3h268.5
		c4.2,0,7.6,3.7,7.6,8.3V190.5z"/>
	<line class="scalable4" x1="819.3" y1="152.8" x2="819.3" y2="198.6"/>
	<line class="scalable4" x1="1071.8" y1="152.8" x2="1071.8" y2="198.8"/>
	<path class="scalable4" d="M1051.7,175.8c0,5.4-4.4,9.8-9.8,9.8c-5.4,0-9.8-4.4-9.8-9.8c0-5.4,4.4-9.8,9.8-9.8
		C1047.3,165.9,1051.7,170.3,1051.7,175.8z"/>
	<path class="scalable4" d="M1045.5,175.8c0,2-1.6,3.7-3.7,3.7c-2,0-3.6-1.6-3.6-3.7s1.6-3.6,3.6-3.6
		C1043.9,172.1,1045.5,173.8,1045.5,175.8z"/>
	<line class="scalable4" x1="1051.7" y1="175.8" x2="1045.5" y2="175.8"/>
	<line class="scalable4" x1="1038.2" y1="175.8" x2="1032" y2="175.8"/>
	<path class="scalable3" d="M1087.4,251.6c0,4.6-3.4,8.3-7.6,8.3H811.3c-4.2,0-7.6-3.7-7.6-8.3v-29.4c0-4.6,3.4-8.3,7.6-8.3h268.5
		c4.2,0,7.6,3.7,7.6,8.3V251.6z"/>
	<line class="scalable4" x1="819.3" y1="213.9" x2="819.3" y2="259.7"/>
	<line class="scalable4" x1="1071.8" y1="213.9" x2="1071.8" y2="259.9"/>
	<path class="scalable4" d="M1051.7,236.9c0,5.4-4.4,9.8-9.8,9.8c-5.4,0-9.8-4.4-9.8-9.8c0-5.4,4.4-9.8,9.8-9.8
		C1047.3,227.1,1051.7,231.5,1051.7,236.9z"/>
	<path class="scalable4" d="M1045.5,236.9c0,2-1.6,3.7-3.7,3.7c-2,0-3.6-1.6-3.6-3.7s1.6-3.6,3.6-3.6
		C1043.9,233.3,1045.5,234.9,1045.5,236.9z"/>
	<line class="scalable4" x1="1051.7" y1="236.9" x2="1045.5" y2="236.9"/>
	<line class="scalable4" x1="1038.2" y1="236.9" x2="1032" y2="236.9"/>
	<path class="scalable3" d="M1087.4,312.7c0,4.6-3.4,8.3-7.6,8.3H811.3c-4.2,0-7.6-3.7-7.6-8.3v-29.4c0-4.6,3.4-8.3,7.6-8.3h268.5
		c4.2,0,7.6,3.7,7.6,8.3V312.7z"/>
	<line class="scalable4" x1="819.3" y1="275" x2="819.3" y2="320.9"/>
	<line class="scalable4" x1="1071.8" y1="275" x2="1071.8" y2="321"/>
	<path class="scalable4" d="M1051.7,298c0,5.4-4.4,9.8-9.8,9.8c-5.4,0-9.8-4.4-9.8-9.8s4.4-9.8,9.8-9.8
		C1047.3,288.2,1051.7,292.6,1051.7,298z"/>
	<path class="scalable4" d="M1045.5,298c0,2-1.6,3.7-3.7,3.7c-2,0-3.6-1.6-3.6-3.7s1.6-3.6,3.6-3.6C1043.9,294.4,1045.5,296,1045.5,298z"
		/>
	<line class="scalable4" x1="1051.7" y1="298.1" x2="1045.5" y2="298.1"/>
	<line class="scalable4" x1="1038.2" y1="298.1" x2="1032" y2="298.1"/>
	<g>
		<circle id="svg-concept" class="scalable1" cx="945.6" cy="350.2" r="8.7"/>
		<line id="svg-concept" class="scalable2" x1="945.6" y1="325.9" x2="945.6" y2="340.9"/>
		<line id="svg-concept" class="scalable2" x1="876.4" y1="350.2" x2="936.5" y2="350.2"/>
		<line id="svg-concept" class="scalable2" x1="954.6" y1="350.2" x2="1014.8" y2="350.2"/>
	</g>
</g>
<g>
<line class="scalable5" x1="745.2" y1="5.5" x2="1087.4" y2="5.5"/>
	<animateMotion
	path="M0, 0 345 0"
	begin="5s" 
	dur="2s" 
	fill="freeze"/>
</g>
<g>
<line class="scalable5" x1="745.2" y1="81.2" x2="745.2" y2="5.5"/>
	<animateMotion
	path="M0, 0 0 -80"
	begin="4.5s" 
	dur="0.5s" 
	fill="freeze"/>
</g>
<g>
<line class="scalable5" x1="344.5" y1="81.3" x2="745.2" y2="81.2"/>
	<animateMotion
	path="M0, 0 405 0"
	begin="2.5s" 
	dur="2s" 
	fill="freeze"/>
</g>

<g>
<line class="scalable5" x1="344.5" y1="157.2" x2="344.5" y2="81.3"/>
	<animateMotion
	path="M0, 0 0 -80"
	begin="2s" 
	dur="0.5s" 
	fill="freeze"/>
</g>
<g>
<line class="scalable5" x1="2.4" y1="157.1" x2="344.5" y2="157.2"/>
	<animateMotion
	path="M0, 0 345 0"
	begin="0s" 
	dur="2s" 
	fill="freeze"/>
	/>
</g>
<g>
	<line class="scalable6" x1="344.5" y1="80.3" x2="344.5" y2="0"/>
	<line class="scalable6" x1="745.2" y1="4.5" x2="745.2" y2="0"/>
	<line class="scalable6" x1="345.5" y1="157.7" x2="745.2" y2="157.8"/>
	<line class="scalable6" x1="746.2" y1="81.4" x2="1099.5" y2="81.5"/>
	<line class="scalable6" x1="1088.4" y1="5.5" x2="1099.5" y2="5.6"/>
</g>

<circle id="svg-ico" class="scalable7" cx="344.5" cy="157.2" r="3.7"/>
<circle id="svg-ico" class="scalable7" cx="745.2" cy="81.2" r="3.7"/>
</svg>
