<?xml version="1.0" encoding="utf-8"?>
<!-- Generator: Adobe Illustrator 22.0.0, SVG Export Plug-In . SVG Version: 6.00 Build 0)  -->
<svg version="1.1" id="animaclock" xmlns="http://www.w3.org/2000/svg" xmlns:xlink="http://www.w3.org/1999/xlink" x="0px" y="0px"
	 viewBox="0 0 644.6 630.5" style="enable-background:new 0 0 644.6 630.5;" xml:space="preserve">
<style type="text/css">
	.soon0{fill:none;stroke:#ee5586;stroke-width:2;stroke-linecap:round;stroke-linejoin:round;stroke-miterlimit:10;}
	.soon1{fill:none;stroke:#808080;stroke-miterlimit:10;}
	.soon2{fill:#FFFFFF;stroke:#ee5586;stroke-linecap:round;stroke-linejoin:round;stroke-miterlimit:10;}
	.soon3{fill:none;stroke:#ee5586;stroke-width:3;stroke-linecap:round;stroke-linejoin:round;stroke-miterlimit:10;}
	.soon4{fill:none;stroke:#D7D7D7;stroke-miterlimit:10;}
	.soon5{fill:#FFFFFF;stroke:#808080;stroke-width:2;stroke-linecap:round;stroke-linejoin:round;stroke-miterlimit:10;}
	.soon6{fill:#FFFFFF;stroke:#ee5586;stroke-width:3;stroke-linecap:round;stroke-linejoin:round;stroke-miterlimit:10;}
	.soon7{fill:none;stroke:#808080;stroke-linecap:round;stroke-linejoin:round;stroke-miterlimit:10;}
	.soon8{fill:#ee5586;}
</style>
<path id="svg-concept" class="soon0" d="M610.3,353c0,134.8-109.3,244.1-244.1,244.1c-134.8,0-244.1-109.3-244.1-244.1c0-134.8,109.3-244.1,244.1-244.1
	C501,108.9,610.3,218.2,610.3,353z"/>
<path class="soon1" d="M639.4,353.4c0,150.6-122.1,272.7-272.7,272.7C216.1,626.1,94,504,94,353.4C94,202.8,216.1,80.7,366.7,80.7
	C517.3,80.7,639.4,202.8,639.4,353.4z"/>
<path id="svg-concept" class="soon2" d="M372.9,597.1c0,3-2.4,5.4-5.4,5.4c-3,0-5.4-2.4-5.4-5.4c0-3,2.4-5.4,5.4-5.4
	C370.5,591.7,372.9,594.1,372.9,597.1z"/>
<g>
	<line class="soon1" x1="367.4" y1="128.2" x2="367.4" y2="150.4"/>
	<line class="soon4" x1="413.2" y1="133.4" x2="408.7" y2="154.9"/>
	<line class="soon4" x1="457.8" y1="147.9" x2="448.9" y2="168.1"/>
	<line class="soon4" x1="498.3" y1="171.3" x2="485.4" y2="189.2"/>
	<line class="soon4" x1="533.1" y1="202.7" x2="516.7" y2="217.5"/>
	<line class="soon4" x1="560.6" y1="240.5" x2="541.6" y2="251.6"/>
	<line class="soon4" x1="579.7" y1="283.3" x2="558.8" y2="290.2"/>
	<line class="soon4" x1="589.4" y1="329.1" x2="567.6" y2="331.4"/>
	<line class="soon1" x1="589.4" y1="375.7" x2="569.3" y2="373.6"/>
	<line class="soon4" x1="579.6" y1="422" x2="558.9" y2="415.3"/>
	<line class="soon4" x1="560.6" y1="464.6" x2="541.9" y2="453.8"/>
	<line class="soon4" x1="533" y1="502.5" x2="517" y2="488.1"/>
	<line class="soon4" x1="498.2" y1="533.9" x2="485.6" y2="516.5"/>
	<line class="soon4" x1="457.7" y1="557.3" x2="449.1" y2="537.8"/>
	<line class="soon4" x1="413.3" y1="571.7" x2="408.9" y2="551"/>
	<line class="soon4" x1="143.6" y1="329.1" x2="164.8" y2="331.3"/>
	<line class="soon4" x1="153.4" y1="282.8" x2="173.9" y2="289.4"/>
	<line class="soon4" x1="172.4" y1="240.2" x2="191.2" y2="251"/>
	<line class="soon4" x1="200.1" y1="202.2" x2="216.3" y2="216.9"/>
	<line class="soon4" x1="234.9" y1="170.9" x2="247.7" y2="188.7"/>
	<line class="soon4" x1="275.3" y1="147.5" x2="284.2" y2="167.7"/>
	<line class="soon4" x1="319.8" y1="133.4" x2="324.5" y2="154.8"/>
	<line class="soon1" x1="366.2" y1="576.6" x2="366.2" y2="555.5"/>
	<line class="soon4" x1="320.1" y1="571.5" x2="324.3" y2="551.1"/>
	<line class="soon4" x1="275.5" y1="557" x2="283.8" y2="538"/>
	<line class="soon4" x1="235" y1="533.5" x2="247.1" y2="516.7"/>
	<line class="soon4" x1="200.2" y1="502.2" x2="215.5" y2="488.3"/>
	<line class="soon4" x1="172.7" y1="464.3" x2="190.6" y2="453.9"/>
	<line class="soon4" x1="153.6" y1="421.5" x2="173.4" y2="415"/>
	<line class="soon1" x1="143.9" y1="375.8" x2="164.7" y2="373.5"/>
</g>

<g>
<line id="svg-concept" class="soon3" x1="367.4" y1="175.5" x2="366.8" y2="353"/>
	<animateTransform  
		attributeName="transform"
		dur="3s" fill="remove" 
		from="0 365 355" 
		repeatCount="indefinite" 
		to="360 368 355" 
		type="rotate">
	</animateTransform>
</g>

<g>
<line id="svg-concept" class="soon3" x1="464.8" y1="353" x2="366.8" y2="353"/>
	<animateTransform  
		attributeName="transform"
			dur="10s" fill="remove" 
			from="0 365 355" 
			repeatCount="indefinite" 
			to="360 368 355" 
			type="rotate">
	</animateTransform>
</g>

<path id="svg-concept" class="soon2" d="M372.2,353c0,3-2.4,5.4-5.4,5.4c-3,0-5.4-2.4-5.4-5.4c0-3,2.4-5.4,5.4-5.4C369.8,347.6,372.2,350,372.2,353z"/>
<g>
	<g>
		<path class="soon5" d="M216.7,234.9h16.5c4.4,0,7.9,3.6,7.9,7.9v221.4c0,4.4-3.5,7.9-7.9,7.9H11.8c-4.4,0-7.9-3.5-7.9-7.9V242.8
			c0-4.4,3.5-7.9,7.9-7.9h15.5h39.5h110.2C176.9,234.9,216.7,234.9,216.7,234.9z"/>
		<path id="svg-concept" class="soon6" d="M66.7,234.9"/>
		<path id="svg-concept" class="soon6" d="M27.3,234.9"/>
		<line id="svg-ico" class="soon7" x1="3.9" y1="392.5" x2="241" y2="392.5"/>
		<line id="svg-ico" class="soon7" x1="3.2" y1="353.4" x2="240.3" y2="353.4"/>
		<line id="svg-ico" class="soon7" x1="3.2" y1="431.6" x2="240.3" y2="431.6"/>
		<line id="svg-ico" class="soon7" x1="3.9" y1="313.5" x2="241" y2="313.5"/>
		<line id="svg-ico" class="soon7" x1="83" y1="313.8" x2="83" y2="472"/>
		<line id="svg-ico" class="soon7" x1="162" y1="313.8" x2="162" y2="472"/>
		<line id="svg-ico" class="soon7" x1="54.9" y1="361" x2="30.9" y2="385"/>
		<line id="svg-ico" class="soon7" x1="135.9" y1="399.2" x2="111.9" y2="423.2"/>
	</g>
	<g>
		<circle id="svg-ico" class="soon8" cx="147.8" cy="364.8" r="2.5"/>
			<animate  accumulate="none" additive="replace" attributeName="opacity" beg="0" calcMode="linear" dur="1s" fill="remove" repeatCount="indefinite" restart="always" values="0;1;0">
			</animate>
	</g>
</g>
<path class="soon1" d="M381.8,62.1h-30.1c-0.8,0-1.4-0.6-1.4-1.4v-9.8c0-0.8,0.6-1.4,1.4-1.4h30.1c0.8,0,1.4,0.6,1.4,1.4v9.8
	C383.2,61.4,382.5,62.1,381.8,62.1z"/>
<path class="soon1" d="M502.1,105.5L475.2,92c-0.7-0.3-1-1.2-0.6-1.9l4.4-8.8c0.3-0.7,1.2-1,1.9-0.6l26.9,13.5c0.7,0.3,1,1.2,0.6,1.9
	l-4.4,8.8C503.7,105.6,502.8,105.9,502.1,105.5z"/>
<polyline class="soon1" points="358.9,62.1 358.9,80.7 373.8,80.7 373.8,62.1 "/>
<path class="soon1" d="M358.9,75.1c-17.2-3.3-30.2-18.5-30.2-36.7c0-20.6,16.7-37.3,37.3-37.3s37.3,16.7,37.3,37.3
	c0,17.9-12.6,32.9-29.5,36.5"/>
</svg>
