<?xml version="1.0" encoding="utf-8"?>
<!-- Generator: Adobe Illustrator 22.0.0, SVG Export Plug-In . SVG Version: 6.00 Build 0)  -->
<svg version="1.1" id="Layer_1" xmlns="http://www.w3.org/2000/svg" xmlns:xlink="http://www.w3.org/1999/xlink" x="0px" y="0px"
	 viewBox="0 0 608.9 401" style="enable-background:new 0 0 608.9 401;" xml:space="preserve">
<style type="text/css">
	.ssl0{fill:#FFFFFF;stroke:#808080;stroke-linecap:round;stroke-linejoin:round;stroke-miterlimit:10;}
	.ssl1{fill:none;stroke:#D8D8D8;stroke-miterlimit:10;}
	.ssl2{fill:none;stroke:#ee5586;stroke-linecap:round;stroke-linejoin:round;stroke-miterlimit:10;}
	.ssl3{fill:none;stroke:#808080;stroke-linecap:round;stroke-linejoin:round;stroke-miterlimit:10;}
	.ssl4{fill:#FFFFFF;stroke:#ee5586;stroke-linecap:round;stroke-linejoin:round;stroke-miterlimit:10;}
	.ssl5{fill-rule:evenodd;clip-rule:evenodd;fill:none;stroke:#ee5586;stroke-linecap:round;stroke-linejoin:round;stroke-miterlimit:10;}
	.ssl6{fill:#FFFFFF;stroke:#ee5586;stroke-width:2;stroke-linecap:round;stroke-linejoin:round;stroke-miterlimit:10;}
</style>
<g>
	<path class="ssl0" d="M2.6,364.5c0-2.2,1.7-4,3.9-4h595.6c2.2,0,3.9,1.8,3.9,4v12c0,0-0.3,14.5-30.6,14.5H316H33.2
		c-30.3,0-30.6-14.5-30.6-14.5L2.6,364.5z"/>
	<path class="ssl0" d="M538.1,340.1V29.6c0-8.8-7-15.9-15.6-15.9H86.2c-8.6,0-15.6,7.1-15.6,15.9v310.5H538.1z"/>
	<polyline class="ssl1" points="605,376.4 316,376.4 3.7,376.4 	"/>
	<path class="ssl1" d="M304.3,390.9"/>
	<path class="ssl1" d="M308.2,29.6c0,2.2-1.7,4-3.9,4c-2.2,0-3.9-1.8-3.9-4s1.7-4,3.9-4C306.5,25.6,308.2,27.4,308.2,29.6z"/>
	<path class="ssl0" d="M238.2,360.6c0,0,0.7,6.6,7.8,6.6c7.2,0,58.1,0,58.1,0s50.9,0,58.1,0c7.2,0,7.8-6.6,7.8-6.6"/>
	<rect x="93.2" y="48.7" class="ssl1" width="423.2" height="273.5"/>
	<path class="ssl1" d="M109.4,66.2c0,1.8-1.5,3.3-3.3,3.3c-1.8,0-3.3-1.5-3.3-3.3s1.5-3.3,3.3-3.3C107.9,63,109.4,64.4,109.4,66.2z"
		/>
	<path class="ssl1" d="M124.9,66.2c0,1.8-1.5,3.3-3.3,3.3c-1.8,0-3.3-1.5-3.3-3.3s1.5-3.3,3.3-3.3C123.5,63,124.9,64.4,124.9,66.2z"
		/>
	<path class="ssl1" d="M140.5,66.2c0,1.8-1.5,3.3-3.3,3.3c-1.8,0-3.3-1.5-3.3-3.3s1.5-3.3,3.3-3.3C139,63,140.5,64.4,140.5,66.2z"/>
	<path class="ssl1" d="M93.2,81.5h114.6l7-14.5h83.1l6.4,14.5h212.1"/>
	<path class="ssl1" d="M93.2,114.7h423.2"/>
	<polyline class="ssl1" points="107.3,94.1 102.8,98.7 107.3,103.4 	"/>
	<line class="ssl1" x1="116.7" y1="98.7" x2="102.8" y2="98.7"/>
	<polyline class="ssl1" points="134.7,103.4 139.2,98.7 134.7,94.1 	"/>
	<line class="ssl1" x1="125.3" y1="98.7" x2="139.2" y2="98.7"/>
	<path class="ssl1" d="M157.7,94.1c-2.9,0-5.3,2.4-5.3,5.3c0,2.9,2.4,5.3,5.3,5.3c2.9,0,5.3-2.4,5.3-5.3"/>
	<polygon class="ssl1" points="157.7,95.5 157.7,92.7 160.5,94.1 	"/>
	<path id="svg-concept" class="ssl2" d="M357.9,303.8H161.2c-8.2,0-15-6.8-15-15V153.2c0-8.2,6.8-15,15-15h196.7c8.2,0,15,6.8,15,15v135.6
		C372.9,297,366.1,303.8,357.9,303.8z"/>
	<line class="ssl3" x1="241.6" y1="169.5" x2="345.6" y2="169.5"/>
	<line class="ssl3" x1="241.6" y1="185.2" x2="295.8" y2="185.2"/>
	<line class="ssl3" x1="241.6" y1="200.8" x2="345.6" y2="200.8"/>
	<line class="ssl3" x1="241.6" y1="216.5" x2="327.8" y2="216.5"/>
	<line id="svg-concept" class="ssl4" x1="241.6" y1="261.9" x2="308.2" y2="261.9"/>
	<line id="svg-concept" class="ssl4" x1="241.6" y1="277.5" x2="345.6" y2="277.5"/>
	<g>
		<g>
			<path id="svg-concept" class="ssl4" d="M219.6,261.6c0-0.5,0-1.8,0-4.7c0-9.6-13.9-10.3-13.9,0v4.7"/>
			<path id="svg-concept" class="ssl4" d="M220.9,261.6h1.1c0.5,0,0.9,0.4,0.9,0.9v14.2c0,0.5-0.4,0.9-0.9,0.9h-18.7c-0.5,0-0.9-0.4-0.9-0.9v-14.2
				c0-0.5,0.4-0.9,0.9-0.9h1.1H220.9z"/>
		</g>
		<line id="svg-concept" class="ssl4" x1="202.5" y1="267.6" x2="222.9" y2="267.6"/>
		<line id="svg-concept" class="ssl4" x1="203.5" y1="261.6" x2="209.6" y2="267.6"/>
		<line id="svg-concept" class="ssl4" x1="208.6" y1="261.6" x2="214.6" y2="267.6"/>
		<line id="svg-concept" class="ssl4" x1="213.6" y1="261.6" x2="219.7" y2="267.6"/>
		<line id="svg-concept" class="ssl4" x1="218.7" y1="261.6" x2="222.9" y2="265.8"/>
		<line id="svg-concept" class="ssl4" x1="202.5" y1="264.9" x2="205.2" y2="267.6"/>
	</g>
	<path class="ssl3" d="M213.3,218.2h-37.6c-5.5,0-10-4.5-10-10v-37.6c0-5.5,4.5-10,10-10h37.6c5.5,0,10,4.5,10,10v37.6
		C223.3,213.7,218.8,218.2,213.3,218.2z"/>
	<line id="svg-concept" class="ssl2" x1="190.6" y1="121.7" x2="190.6" y2="138.2"/>
	<g>
		<path id="svg-concept" class="ssl5" d="M189.4,197.3v13.1l4.3-4.3c0,0,0.1-0.1,0.1-0.1c0.2-0.2,0.5-0.3,0.7-0.3c0.3,0,0.5,0.1,0.7,0.3
			c0,0,0.1,0.1,0.1,0.1l4.3,4.3v-13.1c0,0,0,0,0,0h-1.6l-3.6,2.1l-3.6-2.1L189.4,197.3C189.4,197.3,189.4,197.3,189.4,197.3z"/>
		<polygon id="svg-concept" class="ssl5" points="206,178.6 206,175 202.9,173.3 201.1,170.2 197.6,170.2 194.5,168.4 191.5,170.2 188,170.2 
			186.2,173.3 183.1,175 183.1,178.6 181.4,181.6 183.1,184.7 183.1,188.2 186.2,190 188,193 191.5,193 194.5,194.8 197.6,193 
			201.1,193 202.9,190 206,188.2 206,184.7 207.7,181.6 		"/>
	</g>
	<polyline class="ssl1" points="369.6,360.4 304.3,360.3 238.8,360.3 	"/>
</g>
<g>
	<path id="svg-concept" class="ssl6" d="M195.4,97.2c0-0.4,0-1.2,0-3.2c0-6.5-9.5-7-9.5,0v3.2"/>
	<path id="svg-concept" class="ssl4" d="M196.3,97.2h0.7c0.3,0,0.6,0.3,0.6,0.6v9.6c0,0.3-0.3,0.6-0.6,0.6h-12.7c-0.3,0-0.6-0.3-0.6-0.6v-9.6
		c0-0.3,0.3-0.6,0.6-0.6h0.7H196.3z"/>
	<path id="svg-concept" class="ssl4" d="M190.6,105c-1.2,0-2.2-1-2.2-2.2c0-1.2,1-2.2,2.2-2.2s2.2,1,2.2,2.2C192.8,104,191.8,105,190.6,105z"/>
	<animate 
		attributeName="opacity"
        values="0;1;0" 
        dur="1s"
        repeatCount="indefinite"/>
</g>
<path id="svg-concept" class="ssl6" d="M218.6,100.6h154.3"/>
<g>
<path id="svg-concept" class="ssl6" d="M97.2,340.1c0,2.2-1.8,4-4,4c-2.2,0-4-1.8-4-4s1.8-4,4-4C95.4,336.1,97.2,337.9,97.2,340.1z"/>
	<animateMotion
	path="M-20, 0 440 0 -20 0"
	begin="0s" 
	dur="12s" 
	repeatCount="indefinite"
	/>
</g>
</svg>
