<?xml version="1.0" encoding="utf-8"?>
<!-- Generator: Adobe Illustrator 22.0.0, SVG Export Plug-In . SVG Version: 6.00 Build 0)  -->
<svg version="1.1" id="Layer_1" xmlns="http://www.w3.org/2000/svg" xmlns:xlink="http://www.w3.org/1999/xlink" x="0px" y="0px"
	 viewBox="0 0 631.3 460.5" style="enable-background:new 0 0 631.3 460.5;" xml:space="preserve">
<style type="text/css">
	.support0{fill:#FFFFFF;stroke:#ee5586;stroke-width:3;stroke-linecap:round;stroke-linejoin:round;stroke-miterlimit:10;}
	.support1{fill:#FFFFFF;stroke:#808080;stroke-linecap:round;stroke-linejoin:round;stroke-miterlimit:10;}
	.support2{fill:none;stroke:#ee5586;stroke-width:2;stroke-linecap:round;stroke-linejoin:round;stroke-miterlimit:10;}
	.support3{fill:none;stroke:#808080;stroke-linecap:round;stroke-linejoin:round;stroke-miterlimit:10;}
	.support4{fill:none;stroke:#ee5586;stroke-linecap:round;stroke-linejoin:round;stroke-miterlimit:10;}
	.support5{fill:#FFFFFF;stroke:#ee5586;stroke-width:2;stroke-linecap:round;stroke-linejoin:round;stroke-miterlimit:10;}
	.support6{fill:#ee5586;}
</style>
<g>
	<path id="svg-concept" class="support0" d="M569.1,81.3C499.3,0.7,380-21.7,284.3,33.6c-108.4,62.7-145.5,201.3-82.8,309.8s201.3,145.5,309.8,82.8
		c108.4-62.7,145.5-201.3,82.8-309.8"/>
	<line class="support1" x1="532.1" y1="334.9" x2="576.9" y2="369.8"/>
	<g>
		<line id="svg-concept" class="support2" x1="170.9" y1="237.3" x2="170.9" y2="232.6"/>
		<line id="svg-concept" class="support2" x1="171" y1="227.1" x2="171" y2="222.4"/>
	</g>
</g>

<g>
	<path class="support3" d="M229,251.1c2.7,21.9,9.8,43.6,21.5,63.8c47,81.3,151,109.1,232.3,62.1c81.3-47,109.1-151,62.1-232.3
		C498,63.5,394,35.7,312.7,82.7c-47.9,27.7-77.2,75.1-83.6,126"/>
	<line class="support3" x1="397.7" y1="59.8" x2="397.7" y2="116.5"/>
	<g>
		<path class="support1" d="M390.3,60c0-4.1,3.3-7.5,7.4-7.5c4.1,0,7.4,3.3,7.5,7.4c0,4.1-3.3,7.4-7.4,7.4C393.6,67.4,390.3,64.1,390.3,60
			z"/>
		<path class="support3" d="M395,59.9c0-1.5,1.2-2.8,2.8-2.8c1.5,0,2.8,1.2,2.8,2.8s-1.2,2.8-2.8,2.8C396.2,62.7,395,61.5,395,59.9z"/>
		<line class="support3" x1="390.3" y1="59.9" x2="395" y2="59.9"/>
		<line class="support3" x1="400.5" y1="59.9" x2="405.2" y2="59.9"/>
	</g>
	<g>
		<path class="support1" d="M527.2,340.2c-3.2-2.5-3.8-7.2-1.3-10.5c2.5-3.2,7.2-3.8,10.5-1.3c3.2,2.5,3.8,7.2,1.3,10.4
			C535.1,342.1,530.4,342.7,527.2,340.2z"/>
		<path class="support1" d="M530,336.5c-1.2-0.9-1.4-2.7-0.5-3.9c0.9-1.2,2.7-1.4,3.9-0.5s1.4,2.7,0.5,3.9
			C533,337.2,531.2,337.4,530,336.5z"/>
		<line class="support1" x1="527.2" y1="340.2" x2="530" y2="336.5"/>
		<line class="support1" x1="533.4" y1="332.1" x2="536.3" y2="328.4"/>
	</g>
	<animateTransform  
		attributeName="transform" 
		type="rotate"
		dur="10s" 
		from="0 397 229" 
		to="-360 397 230" 
		repeatCount="indefinite" />
</g>

<g>
	<path class="support3" d="M509.1,208.6c-2.3-12.2-6.7-24.1-13.2-35.5c-31.3-54.2-100.7-72.8-154.9-41.4
		c-54.2,31.3-72.8,100.7-41.4,154.9s100.7,72.8,154.9,41.4c29.7-17.1,48.7-45.7,54.6-76.9"/>
	<line class="support1" x1="428.9" y1="191.3" x2="474.1" y2="146.1"/>
	<line class="support1" x1="348.1" y1="229.9" x2="284.4" y2="229.9"/>
	<g>
		<path class="support1" d="M479.4,151.3c-2.8,3-7.5,3.3-10.5,0.5c-3-2.8-3.3-7.5-0.5-10.5c2.8-3,7.5-3.3,10.5-0.5
			C481.9,143.6,482.1,148.3,479.4,151.3z"/>
		<path class="support1" d="M475.9,148.2c-1,1.1-2.8,1.2-3.9,0.2c-1.1-1-1.2-2.8-0.2-3.9c1-1.1,2.8-1.2,3.9-0.2
			C476.8,145.3,476.9,147,475.9,148.2z"/>
		<line class="support1" x1="479.4" y1="151.3" x2="475.9" y2="148.2"/>
		<line class="support1" x1="471.8" y1="144.4" x2="468.3" y2="141.3"/>
	</g>
	<g>
		<path class="support1" d="M284.6,237.3c-4.1,0-7.5-3.3-7.5-7.4c0-4.1,3.3-7.5,7.4-7.5c4.1,0,7.4,3.3,7.5,7.4
			C292.1,234,288.8,237.3,284.6,237.3z"/>
		<path class="support1" d="M284.6,232.6c-1.5,0-2.8-1.2-2.8-2.8c0-1.5,1.2-2.8,2.8-2.8s2.8,1.2,2.8,2.7
			C287.4,231.4,286.1,232.6,284.6,232.6z"/>
		<line class="support1" x1="284.6" y1="237.3" x2="284.6" y2="232.6"/>
		<line class="support1" x1="284.6" y1="227.1" x2="284.6" y2="222.4"/>
	</g>
	<animateTransform  
		attributeName="transform" 
		type="rotate"
		dur="15s" 
		from="0 397 229" 
		to="360 397 230" 
		repeatCount="indefinite" />
</g>



<g>
	<g>
		<path class="support1" d="M137.8,78c0,0,0,3.3-0.4,4.4c-1.7,8.4-8.8,13.8-17.3,13.8c-9.8,0-17.7-7.2-17.7-18.4l0.5-0.4
			c0.5-0.4,0.3-0.6,0.3-1.2v-9v-1.7c0-1.2-1.1-2.3-2.3-2.3h-0.8h-0.6c0-11.4,9.3-21.3,20.7-21.3c11.1,0,20.7,9.3,20.7,21.3l-1,0.1
			h-0.9c-1.2,0-2.3,1.1-2.3,2.3v10.6c0,0.5,0.1,0.9,0.4,1.3L137.8,78z"/>
	</g>
	<path class="support3" d="M114.8,74.4c0,1.3-1,2.3-2.3,2.3c-1.3,0-2.3-1-2.3-2.3c0-1.3,1-2.3,2.3-2.3C113.7,72.2,114.8,73.2,114.8,74.4z
		"/>
	<path class="support3" d="M129.8,74.4c0,1.3-1,2.3-2.3,2.3c-1.3,0-2.3-1-2.3-2.3c0-1.3,1-2.3,2.3-2.3C128.8,72.2,129.8,73.2,129.8,74.4z
		"/>
	<circle id="svg-concept" class="support4" cx="124" cy="87.9" r="3"/>
	<path id="svg-concept" class="support4" d="M127.2,87.8h2.8c0,0,8.2-0.1,8.2-9.4"/>
	<path id="svg-concept" class="support4" d="M103.3,76.2c0,1.2-1.1,2.3-2.3,2.3h-3c-1.2,0-2.3-1.1-2.3-2.3V65.5c0-1.2,1.1-2.3,2.3-2.3h3
		c1.2,0,2.3,1.1,2.3,2.3V76.2z"/>
	<path id="svg-concept" class="support4" d="M144.4,76.1c0,1.2-1.1,2.3-2.3,2.3h-3c-1.2,0-2.3-1.1-2.3-2.3V65.5c0-1.2,1.1-2.3,2.3-2.3h3
		c1.2,0,2.3,1.1,2.3,2.3V76.1z"/>
	<path class="support3" d="M103.3,67.2l8.1-9.2c0.5-0.6,1.4-0.6,1.8,0c0,0,8.5,9.9,23.6,9.2"/>
</g>

<g>
	<path id="svg-concept" class="support2" d="M150.4,27.7c5.3,0,9.7,4.4,9.7,9.7v102.1c0,5.3-4.4,9.7-9.7,9.7H11.9c-5.3,0-9.7-4.4-9.7-9.7V37.4
		c0-5.3,4.4-9.7,9.7-9.7H150.4z"/>
	<path id="svg-concept" class="support4" d="M160.3,58.5h1.8c0.5,0,0.8,0.4,0.8,0.8v6.1c0,0.5-0.4,0.8-0.8,0.8h-1.8"/>
	<path id="svg-concept" class="support4" d="M160.3,46.4h1.8c0.5,0,0.8,0.4,0.8,0.8v6.1c0,0.5-0.4,0.8-0.8,0.8h-1.8"/>
	<line class="support3" x1="58.3" y1="102.1" x2="18.9" y2="102.1"/>
	<line class="support3" x1="82" y1="87.7" x2="18.9" y2="87.7"/>
	<line class="support3" x1="48.8" y1="73.2" x2="18.9" y2="73.2"/>
	<line class="support3" x1="70.4" y1="58.8" x2="18.9" y2="58.8"/>
	<line class="support3" x1="82" y1="44.4" x2="18.9" y2="44.4"/>

	<path class="support3" d="M141.4,132.1H21.9c-1.6,0-3-1.3-3-3v-6.2c0-1.6,1.4-3,3-3h119.5c1.7,0,3,1.4,3,3v6.2
		C144.4,130.7,143.1,132.1,141.4,132.1z"/>
	<line class="support3" x1="170.9" y1="232.6" x2="82" y2="232.6"/>
	<line class="support3" x1="81.2" y1="149.2" x2="81.2" y2="232.6"/>
	<circle id="svg-ico" class="support6" cx="81.1" cy="232.5" r="4.3"/>
</g>


<g>
<path id="svg-concept" class="support2" d="M418.4,275c1.4-0.6,2.8-1.4,4.1-2.1c23.7-13.7,31.8-44,18.1-67.8c-13.7-23.7-44-31.8-67.8-18.1
	c-23.7,13.7-31.8,44-18.1,67.8c5.1,8.9,12.6,15.5,21.1,19.7"/>
	<animateTransform  
		attributeName="transform" 
		type="rotate"
		dur="12s" 
		from="0 397 229" 
		to="-360 397 230" 
		repeatCount="indefinite" />
</g>

<g>
<path id="svg-concept" class="support5" d="M406.9,229.9c0,4.7-3.8,8.5-8.5,8.5c-4.7,0-8.5-3.8-8.5-8.5s3.8-8.5,8.5-8.5
	C403.1,221.4,406.9,225.2,406.9,229.9z"/>
	<animateMotion
		path="M0, 0 -15 0 -15 -15 -25 10 0 0"
		begin="0s" 
		dur="2s" 
		repeatCount="indefinite"/>
</g>
</svg>
