<?xml version="1.0" encoding="utf-8"?>
<!-- Generator: Adobe Illustrator 22.0.0, SVG Export Plug-In . SVG Version: 6.00 Build 0)  -->
<svg version="1.1" id="Layer_1" xmlns="http://www.w3.org/2000/svg" xmlns:xlink="http://www.w3.org/1999/xlink" x="0px" y="0px"
	 viewBox="0 0 1100.6 600.5" style="enable-background:new 0 0 1100.6 600.5;" xml:space="preserve">
<style type="text/css">
	.vnumbers0{fill:none;stroke:#808080;stroke-linecap:round;stroke-linejoin:round;stroke-miterlimit:10;}
	.vnumbers1{fill:none;stroke:#EE5586;stroke-linecap:round;stroke-linejoin:round;stroke-miterlimit:10;}
	.vnumbers2{fill:none;stroke:#808080;stroke-width:5;stroke-linecap:round;stroke-linejoin:round;stroke-miterlimit:10;}
	.vnumbers3{fill:none;stroke:#808080;stroke-width:2;stroke-linecap:round;stroke-linejoin:round;stroke-miterlimit:10;}
	.vnumbers4{fill:none;stroke:#EE5586;stroke-width:4;stroke-linecap:round;stroke-linejoin:round;stroke-miterlimit:10;}
	.vnumbers5{fill:none;stroke:#EE5586;stroke-width:3;stroke-linecap:round;stroke-linejoin:round;stroke-miterlimit:10;}
	.vnumbers6{fill:none;stroke:#EE5586;stroke-width:2;stroke-linecap:round;stroke-linejoin:round;stroke-miterlimit:10;}
	.vnumbers7{fill:none;stroke:#808080;stroke-width:3;stroke-linecap:round;stroke-linejoin:round;stroke-miterlimit:10;}
	.vnumbers8{fill:#FFFFFF;stroke:#EE5586;stroke-width:3;stroke-linecap:round;stroke-linejoin:round;stroke-miterlimit:10;}
</style>
<path class="vnumbers0" d="M292.2,522.3c0,2.7-2.2,4.9-4.9,4.9c-2.7,0-4.9-2.2-4.9-4.9s2.2-4.9,4.9-4.9
	C289.9,517.4,292.2,519.6,292.2,522.3z"/>
<path class="vnumbers0" d="M272.1,372.1c0,2.7-2.2,4.9-4.9,4.9c-2.7,0-4.9-2.2-4.9-4.9s2.2-4.9,4.9-4.9
	C269.9,367.3,272.1,369.4,272.1,372.1z"/>
<path class="vnumbers0" d="M247.1,361.9c0,2.7-2.2,4.9-4.9,4.9s-4.9-2.2-4.9-4.9s2.2-4.9,4.9-4.9S247.1,359.2,247.1,361.9z"/>
<path class="vnumbers0" d="M217,340.9c0,2.7-2.2,4.9-4.9,4.9s-4.9-2.2-4.9-4.9s2.2-4.9,4.9-4.9S217,338.2,217,340.9z"/>
<path class="vnumbers0" d="M191.8,331.8c0,2.7-2.2,4.9-4.9,4.9s-4.9-2.2-4.9-4.9s2.2-4.9,4.9-4.9S191.8,329.1,191.8,331.8z"/>
<path class="vnumbers0" d="M180.2,306.3c0,2.7-2.2,4.9-4.9,4.9s-4.9-2.2-4.9-4.9s2.2-4.9,4.9-4.9S180.2,303.6,180.2,306.3z"/>
<path class="vnumbers0" d="M207.2,309c0,2.7-2.2,4.9-4.9,4.9s-4.9-2.2-4.9-4.9s2.2-4.9,4.9-4.9S207.2,306.3,207.2,309z"/>
<path class="vnumbers0" d="M226.9,293.3c0,2.7-2.2,4.9-4.9,4.9s-4.9-2.2-4.9-4.9s2.2-4.9,4.9-4.9S226.9,290.6,226.9,293.3z"/>
<path class="vnumbers0" d="M260.9,308.4c0,2.7-2.2,4.9-4.9,4.9c-2.7,0-4.9-2.2-4.9-4.9s2.2-4.9,4.9-4.9
	C258.7,303.6,260.9,305.7,260.9,308.4z"/>
<path class="vnumbers0" d="M254.7,323.8c0,2.7-2.2,4.9-4.9,4.9s-4.9-2.2-4.9-4.9s2.2-4.9,4.9-4.9C252.5,319,254.7,321.1,254.7,323.8z"/>
<path class="vnumbers0" d="M273.6,329.5c0,2.7-2.2,4.9-4.9,4.9c-2.7,0-4.9-2.2-4.9-4.9s2.2-4.9,4.9-4.9
	C271.4,324.7,273.6,326.8,273.6,329.5z"/>
<path class="vnumbers0" d="M256,289.8c0,2.7-2.2,4.9-4.9,4.9s-4.9-2.2-4.9-4.9s2.2-4.9,4.9-4.9C253.9,285,256,287.1,256,289.8z"/>
<path class="vnumbers0" d="M233,258c0,2.7-2.2,4.9-4.9,4.9s-4.9-2.2-4.9-4.9c0-2.7,2.2-4.9,4.9-4.9C230.8,253.1,233,255.3,233,258z"/>
<path class="vnumbers0" d="M260.9,246c0,2.7-2.2,4.9-4.9,4.9c-2.7,0-4.9-2.2-4.9-4.9s2.2-4.9,4.9-4.9C258.6,241.1,260.9,243.3,260.9,246z"
	/>
<path class="vnumbers0" d="M278.1,239.2c0,2.7-2.2,4.9-4.9,4.9c-2.7,0-4.9-2.2-4.9-4.9s2.2-4.9,4.9-4.9
	C275.9,234.3,278.1,236.5,278.1,239.2z"/>
<path class="vnumbers0" d="M203.9,230.8c0,2.7-2.2,4.9-4.9,4.9s-4.9-2.2-4.9-4.9s2.2-4.9,4.9-4.9C201.7,226,203.9,228.1,203.9,230.8z"/>
<path class="vnumbers0" d="M206.4,196.4c0,2.7-2.2,4.9-4.9,4.9s-4.9-2.2-4.9-4.9s2.2-4.9,4.9-4.9C204.3,191.5,206.4,193.7,206.4,196.4z"/>
<path class="vnumbers0" d="M221,169c0,2.7-2.2,4.9-4.9,4.9s-4.9-2.2-4.9-4.9s2.2-4.9,4.9-4.9C218.8,164.1,221,166.3,221,169z"/>
<path class="vnumbers0" d="M236,140.7c0,2.7-2.2,4.9-4.9,4.9s-4.9-2.2-4.9-4.9s2.2-4.9,4.9-4.9C233.9,135.8,236,138,236,140.7z"/>
<path class="vnumbers0" d="M206.2,133.4c0,2.7-2.2,4.9-4.9,4.9s-4.9-2.2-4.9-4.9s2.2-4.9,4.9-4.9C204,128.6,206.2,130.7,206.2,133.4z"/>
<path class="vnumbers0" d="M181.5,120.4c0,2.7-2.2,4.9-4.9,4.9s-4.9-2.2-4.9-4.9s2.2-4.9,4.9-4.9S181.5,117.7,181.5,120.4z"/>
<path class="vnumbers0" d="M140.4,93c0,2.7-2.2,4.9-4.9,4.9c-2.7,0-4.9-2.2-4.9-4.9s2.2-4.9,4.9-4.9C138.2,88.1,140.4,90.3,140.4,93z"/>
<path class="vnumbers0" d="M135,116.4c0,2.7-2.2,4.9-4.9,4.9c-2.7,0-4.9-2.2-4.9-4.9s2.2-4.9,4.9-4.9C132.8,111.5,135,113.7,135,116.4z"/>
<path class="vnumbers0" d="M159.7,144.8c0,2.7-2.2,4.9-4.9,4.9c-2.7,0-4.9-2.2-4.9-4.9s2.2-4.9,4.9-4.9
	C157.6,139.9,159.7,142.1,159.7,144.8z"/>
<path class="vnumbers0" d="M175.5,171.2c0,2.7-2.2,4.9-4.9,4.9s-4.9-2.2-4.9-4.9s2.2-4.9,4.9-4.9C173.3,166.3,175.5,168.5,175.5,171.2z"/>
<path class="vnumbers0" d="M178.3,202.9c0,2.7-2.2,4.9-4.9,4.9s-4.9-2.2-4.9-4.9s2.2-4.9,4.9-4.9S178.3,200.2,178.3,202.9z"/>
<path class="vnumbers0" d="M277,274.6c0,2.7-2.2,4.9-4.9,4.9c-2.7,0-4.9-2.2-4.9-4.9s2.2-4.9,4.9-4.9C274.9,269.8,277,271.9,277,274.6z"/>
<path class="vnumbers0" d="M305.8,162.7c0,2.7-2.2,4.9-4.9,4.9c-2.7,0-4.9-2.2-4.9-4.9s2.2-4.9,4.9-4.9C303.6,157.8,305.8,160,305.8,162.7
	z"/>
<path class="vnumbers0" d="M309.9,144.1c0,2.7-2.2,4.9-4.9,4.9c-2.7,0-4.9-2.2-4.9-4.9s2.2-4.9,4.9-4.9
	C307.9,139.3,309.9,141.4,309.9,144.1z"/>
<path class="vnumbers0" d="M328.3,133.6c0,2.7-2.2,4.9-4.9,4.9c-2.7,0-4.9-2.2-4.9-4.9s2.2-4.9,4.9-4.9C326,128.8,328.3,130.9,328.3,133.6
	z"/>
<path class="vnumbers0" d="M535.9,67.3c0,2.7-2.2,4.9-4.9,4.9c-2.7,0-4.9-2.2-4.9-4.9c0-2.7,2.2-4.9,4.9-4.9
	C533.7,62.4,535.9,64.6,535.9,67.3z"/>
<path class="vnumbers0" d="M591.6,44.9c0,2.7-2.2,4.9-4.9,4.9s-4.9-2.2-4.9-4.9s2.2-4.9,4.9-4.9S591.6,42.2,591.6,44.9z"/>
<path class="vnumbers0" d="M611.9,37.8c0,2.7-2.2,4.9-4.9,4.9s-4.9-2.2-4.9-4.9s2.2-4.9,4.9-4.9S611.9,35.1,611.9,37.8z"/>
<path class="vnumbers0" d="M678.9,20.3c0,2.7-2.2,4.9-4.9,4.9s-4.9-2.2-4.9-4.9s2.2-4.9,4.9-4.9S678.9,17.6,678.9,20.3z"/>
<path class="vnumbers0" d="M710.9,35.2c0,2.7-2.2,4.9-4.9,4.9s-4.9-2.2-4.9-4.9s2.2-4.9,4.9-4.9S710.9,32.5,710.9,35.2z"/>
<path class="vnumbers0" d="M805.4,34.3c0,2.7-2.2,4.9-4.9,4.9s-4.9-2.2-4.9-4.9s2.2-4.9,4.9-4.9
	C803.2,29.4,805.4,31.6,805.4,34.3z"/>
<path class="vnumbers0" d="M828.1,29.4c0,2.7-2.2,4.9-4.9,4.9s-4.9-2.2-4.9-4.9s2.2-4.9,4.9-4.9
	C825.9,24.6,828.1,26.7,828.1,29.4z"/>
<path class="vnumbers0" d="M821.6,46.6c0,2.7-2.2,4.9-4.9,4.9s-4.9-2.2-4.9-4.9s2.2-4.9,4.9-4.9
	C819.4,41.8,821.6,43.9,821.6,46.6z"/>
<path class="vnumbers0" d="M693.6,32.9c0,2.7-2.2,4.9-4.9,4.9s-4.9-2.2-4.9-4.9s2.2-4.9,4.9-4.9C691.4,28.1,693.6,30.2,693.6,32.9z"/>
<path class="vnumbers0" d="M460.2,64.1c0,2.7-2.2,4.9-4.9,4.9c-2.7,0-4.9-2.2-4.9-4.9s2.2-4.9,4.9-4.9C458,59.2,460.2,61.4,460.2,64.1z"/>
<path class="vnumbers0" d="M475.8,41.4c0,2.7-2.2,4.9-4.9,4.9c-2.7,0-4.9-2.2-4.9-4.9s2.2-4.9,4.9-4.9C473.6,36.6,475.8,38.7,475.8,41.4z"
	/>
<path class="vnumbers0" d="M455.9,46.3c0,2.7-2.2,4.9-4.9,4.9c-2.7,0-4.9-2.2-4.9-4.9s2.2-4.9,4.9-4.9C453.8,41.4,455.9,43.6,455.9,46.3z"
	/>
<path class="vnumbers0" d="M458,25.6c0,2.7-2.2,4.9-4.9,4.9c-2.7,0-4.9-2.2-4.9-4.9s2.2-4.9,4.9-4.9C455.9,20.7,458,22.9,458,25.6z"/>
<path class="vnumbers0" d="M442.7,15.8c0,2.7-2.2,4.9-4.9,4.9c-2.7,0-4.9-2.2-4.9-4.9s2.2-4.9,4.9-4.9S442.7,13.1,442.7,15.8z"/>
<path class="vnumbers0" d="M397.4,30.8c0,2.7-2.2,4.9-4.9,4.9c-2.7,0-4.9-2.2-4.9-4.9s2.2-4.9,4.9-4.9C395.3,25.9,397.4,28.1,397.4,30.8z"
	/>
<path class="vnumbers0" d="M378.3,48.6c0,2.7-2.2,4.9-4.9,4.9c-2.7,0-4.9-2.2-4.9-4.9s2.2-4.9,4.9-4.9C376,43.8,378.3,45.9,378.3,48.6z"/>
<path class="vnumbers0" d="M358.8,56.8c0,2.7-2.2,4.9-4.9,4.9c-2.7,0-4.9-2.2-4.9-4.9s2.2-4.9,4.9-4.9S358.8,54,358.8,56.8z"/>
<path class="vnumbers0" d="M360.2,72.2c0,2.7-2.2,4.9-4.9,4.9c-2.7,0-4.9-2.2-4.9-4.9c0-2.7,2.2-4.9,4.9-4.9S360.2,69.5,360.2,72.2z"/>
<path class="vnumbers0" d="M379.3,77.3c0,2.7-2.2,4.9-4.9,4.9c-2.7,0-4.9-2.2-4.9-4.9s2.2-4.9,4.9-4.9S379.3,74.6,379.3,77.3z"/>
<path class="vnumbers0" d="M368.8,108.2c1-0.8,2.2-1.4,3.3-2c0.1-0.1,0.3-0.2,0.4-0.4c0.7-0.8,1.5-1.3,2.4-1.7c-0.9-1.3-2.4-2.2-4.1-2.2
	c-2.7,0-4.9,2.2-4.9,4.9c0,1.2,0.4,2.2,1.1,3.1C367.5,109.2,368.1,108.7,368.8,108.2z"/>
<path class="vnumbers0" d="M410.3,84.4c0,2.7-2.2,4.9-4.9,4.9c-2.7,0-4.9-2.2-4.9-4.9s2.2-4.9,4.9-4.9S410.3,81.7,410.3,84.4z"/>
<path class="vnumbers0" d="M421.9,57.7c0,2.7-2.2,4.9-4.9,4.9c-2.7,0-4.9-2.2-4.9-4.9s2.2-4.9,4.9-4.9C419.8,52.8,421.9,55,421.9,57.7z"/>
<path class="vnumbers0" d="M339.4,118.1c0,2.7-2.2,4.9-4.9,4.9c-2.7,0-4.9-2.2-4.9-4.9c0-2.7,2.2-4.9,4.9-4.9
	C337.3,113.2,339.4,115.4,339.4,118.1z"/>
<path class="vnumbers0" d="M319.6,112.5c0,2.7-2.2,4.9-4.9,4.9c-2.7,0-4.9-2.2-4.9-4.9c0-2.7,2.2-4.9,4.9-4.9
	C317.4,107.7,319.6,109.8,319.6,112.5z"/>
<path class="vnumbers0" d="M323.9,91c0,2.7-2.2,4.9-4.9,4.9c-2.7,0-4.9-2.2-4.9-4.9s2.2-4.9,4.9-4.9S323.9,88.3,323.9,91z"/>
<path class="vnumbers0" d="M307.8,86c0,2.7-2.2,4.9-4.9,4.9c-2.7,0-4.9-2.2-4.9-4.9s2.2-4.9,4.9-4.9S307.8,83.3,307.8,86z"/>
<path class="vnumbers0" d="M305.2,69c0,2.7-2.2,4.9-4.9,4.9c-2.7,0-4.9-2.2-4.9-4.9s2.2-4.9,4.9-4.9S305.2,66.3,305.2,69z"/>
<path class="vnumbers0" d="M288.4,60c0,2.7-2.2,4.9-4.9,4.9c-2.7,0-4.9-2.2-4.9-4.9s2.2-4.9,4.9-4.9C286.2,55.1,288.4,57.3,288.4,60z"/>
<path class="vnumbers0" d="M307.8,41.2c0,2.7-2.2,4.9-4.9,4.9c-2.7,0-4.9-2.2-4.9-4.9s2.2-4.9,4.9-4.9C305.6,36.3,307.8,38.5,307.8,41.2z"
	/>
<path class="vnumbers0" d="M324.2,32.2c0,2.7-2.2,4.9-4.9,4.9c-2.7,0-4.9-2.2-4.9-4.9s2.2-4.9,4.9-4.9C321.9,27.4,324.2,29.5,324.2,32.2z"
	/>
<path class="vnumbers0" d="M317.9,56.8c0,2.7-2.2,4.9-4.9,4.9c-2.7,0-4.9-2.2-4.9-4.9s2.2-4.9,4.9-4.9C315.9,51.9,317.9,54,317.9,56.8z"/>
<path class="vnumbers0" d="M296.8,32.9c0,2.7-2.2,4.9-4.9,4.9c-2.7,0-4.9-2.2-4.9-4.9s2.2-4.9,4.9-4.9C294.6,28,296.8,30.2,296.8,32.9z"/>
<path class="vnumbers0" d="M310.4,24c0,2.7-2.2,4.9-4.9,4.9c-2.7,0-4.9-2.2-4.9-4.9s2.2-4.9,4.9-4.9C308.2,19.2,310.4,21.3,310.4,24z"/>
<path class="vnumbers0" d="M278.7,30.1c0,2.7-2.2,4.9-4.9,4.9c-2.7,0-4.9-2.2-4.9-4.9s2.2-4.9,4.9-4.9C276.5,25.2,278.7,27.4,278.7,30.1z"
	/>
<path id="svg-concept" class="vnumbers1" d="M271,37.8c0,2.7-2.2,4.9-4.9,4.9c-2.7,0-4.9-2.2-4.9-4.9s2.2-4.9,4.9-4.9C268.9,32.9,271,35.1,271,37.8z"/>
<path id="svg-concept" class="vnumbers1" d="M284.4,44.1c0,2.7-2.2,4.9-4.9,4.9c-2.7,0-4.9-2.2-4.9-4.9s2.2-4.9,4.9-4.9C282.2,39.2,284.4,41.4,284.4,44.1z"
	/>
<path class="vnumbers0" d="M268.7,56.8c0,2.7-2.2,4.9-4.9,4.9c-2.7,0-4.9-2.2-4.9-4.9s2.2-4.9,4.9-4.9C266.6,51.9,268.7,54,268.7,56.8z"/>
<path class="vnumbers0" d="M254.6,52.9c0,2.7-2.2,4.9-4.9,4.9s-4.9-2.2-4.9-4.9s2.2-4.9,4.9-4.9C252.4,48.1,254.6,50.2,254.6,52.9z"/>
<path class="vnumbers0" d="M252.9,37.8c0,2.7-2.2,4.9-4.9,4.9s-4.9-2.2-4.9-4.9s2.2-4.9,4.9-4.9C250.7,32.9,252.9,35.1,252.9,37.8z"/>
<path class="vnumbers0" d="M290.8,81.5c0,2.7-2.2,4.9-4.9,4.9c-2.7,0-4.9-2.2-4.9-4.9s2.2-4.9,4.9-4.9C288.6,76.6,290.8,78.8,290.8,81.5z"
	/>
<path class="vnumbers0" d="M278.7,101.6c0,2.7-2.2,4.9-4.9,4.9c-2.7,0-4.9-2.2-4.9-4.9s2.2-4.9,4.9-4.9C276.5,96.8,278.7,98.9,278.7,101.6
	z"/>
<path class="vnumbers0" d="M275.9,84.5c0,2.7-2.2,4.9-4.9,4.9c-2.7,0-4.9-2.2-4.9-4.9c0-2.7,2.2-4.9,4.9-4.9
	C273.7,79.6,275.9,81.8,275.9,84.5z"/>
<path class="vnumbers0" d="M261.4,74.8c0,2.7-2.2,4.9-4.9,4.9c-2.7,0-4.9-2.2-4.9-4.9s2.2-4.9,4.9-4.9C259.2,69.9,261.4,72,261.4,74.8z"/>
<path class="vnumbers0" d="M255.7,102.9c0,2.7-2.2,4.9-4.9,4.9s-4.9-2.2-4.9-4.9s2.2-4.9,4.9-4.9C253.5,98.1,255.7,100.2,255.7,102.9z"/>
<path class="vnumbers0" d="M245.4,90.5c0,2.7-2.2,4.9-4.9,4.9s-4.9-2.2-4.9-4.9c0-2.7,2.2-4.9,4.9-4.9C243.2,85.6,245.4,87.7,245.4,90.5z"
	/>
<path class="vnumbers0" d="M225.4,95.9c0,2.7-2.2,4.9-4.9,4.9s-4.9-2.2-4.9-4.9s2.2-4.9,4.9-4.9S225.4,93.2,225.4,95.9z"/>
<path class="vnumbers0" d="M228.3,81.5c0,2.7-2.2,4.9-4.9,4.9s-4.9-2.2-4.9-4.9s2.2-4.9,4.9-4.9S228.3,78.8,228.3,81.5z"/>
<path class="vnumbers0" d="M242.2,75.7c0,2.7-2.2,4.9-4.9,4.9s-4.9-2.2-4.9-4.9c0-2.7,2.2-4.9,4.9-4.9S242.2,73,242.2,75.7z"/>
<path class="vnumbers0" d="M231.5,63c0,2.7-2.2,4.9-4.9,4.9s-4.9-2.2-4.9-4.9s2.2-4.9,4.9-4.9
	C229.3,58.1,231.5,60.3,231.5,63z"/>
<path class="vnumbers0" d="M215,75.7c0,2.7-2.2,4.9-4.9,4.9s-4.9-2.2-4.9-4.9c0-2.7,2.2-4.9,4.9-4.9
	S215,73,215,75.7z"/>
<path class="vnumbers0" d="M323.9,74.8c0,2.7-2.2,4.9-4.9,4.9c-2.7,0-4.9-2.2-4.9-4.9c0-2.7,2.2-4.9,4.9-4.9S323.9,72.1,323.9,74.8z"/>
<path class="vnumbers0" d="M335.7,61.9c0,2.7-2.2,4.9-4.9,4.9c-2.7,0-4.9-2.2-4.9-4.9c0-2.7,2.2-4.9,4.9-4.9S335.7,59.2,335.7,61.9z"/>
<path class="vnumbers0" d="M391.3,20.3c0,2.7-2.2,4.9-4.9,4.9c-2.7,0-4.9-2.2-4.9-4.9s2.2-4.9,4.9-4.9S391.3,17.6,391.3,20.3z"/>
<path class="vnumbers0" d="M340.3,14.4c0,2.7-2.2,4.9-4.9,4.9c-2.7,0-4.9-2.2-4.9-4.9s2.2-4.9,4.9-4.9S340.3,11.7,340.3,14.4z"/>
<path class="vnumbers0" d="M369.9,8.4c0,2.7-2.2,4.9-4.9,4.9c-2.7,0-4.9-2.2-4.9-4.9s2.2-4.9,4.9-4.9C367.7,3.6,369.9,5.7,369.9,8.4z"/>
<path class="vnumbers0" d="M297.4,102.9c0,2.7-2.2,4.9-4.9,4.9c-2.7,0-4.9-2.2-4.9-4.9s2.2-4.9,4.9-4.9
	C295.3,98.1,297.4,100.2,297.4,102.9z"/>
<path class="vnumbers0" d="M290.9,199.3c0,2.7-2.2,4.9-4.9,4.9c-2.7,0-4.9-2.2-4.9-4.9s2.2-4.9,4.9-4.9
	C288.7,194.4,290.9,196.6,290.9,199.3z"/>
<path class="vnumbers0" d="M279.9,218.1c0,2.7-2.2,4.9-4.9,4.9c-2.7,0-4.9-2.2-4.9-4.9s2.2-4.9,4.9-4.9
	C277.7,213.3,279.9,215.4,279.9,218.1z"/>
<path class="vnumbers0" d="M272.1,198.6c0,2.7-2.2,4.9-4.9,4.9c-2.7,0-4.9-2.2-4.9-4.9s2.2-4.9,4.9-4.9
	C269.9,193.8,272.1,195.9,272.1,198.6z"/>
<path class="vnumbers0" d="M265,125.9c0,2.7-2.2,4.9-4.9,4.9c-2.7,0-4.9-2.2-4.9-4.9c0-2.7,2.2-4.9,4.9-4.9C262.9,121,265,123.2,265,125.9
	z"/>
<path class="vnumbers0" d="M242.2,116.4c0,2.7-2.2,4.9-4.9,4.9s-4.9-2.2-4.9-4.9s2.2-4.9,4.9-4.9S242.2,113.7,242.2,116.4z"/>
<path class="vnumbers0" d="M222.9,115.2c0,2.7-2.2,4.9-4.9,4.9s-4.9-2.2-4.9-4.9s2.2-4.9,4.9-4.9C220.8,110.3,222.9,112.5,222.9,115.2z"/>
<path class="vnumbers0" d="M195.2,88.5c0,2.7-2.2,4.9-4.9,4.9s-4.9-2.2-4.9-4.9c0-2.7,2.2-4.9,4.9-4.9S195.2,85.8,195.2,88.5z"/>
<path class="vnumbers0" d="M168.5,92.3c0,2.7-2.2,4.9-4.9,4.9s-4.9-2.2-4.9-4.9s2.2-4.9,4.9-4.9C166.3,87.4,168.5,89.6,168.5,92.3z"/>
<path class="vnumbers0" d="M133.2,58.1c0,2.7-2.2,4.9-4.9,4.9c-2.7,0-4.9-2.2-4.9-4.9s2.2-4.9,4.9-4.9C131,53.3,133.2,55.4,133.2,58.1z"/>
<path class="vnumbers0" d="M99.9,67.4c0,2.7-2.2,4.9-4.9,4.9c-2.7,0-4.9-2.2-4.9-4.9s2.2-4.9,4.9-4.9S99.9,64.7,99.9,67.4z"/>
<path class="vnumbers0" d="M69.7,118.9c0,2.7-2.2,4.9-4.9,4.9c-2.7,0-4.9-2.2-4.9-4.9s2.2-4.9,4.9-4.9S69.7,116.2,69.7,118.9z"/>
<path class="vnumbers0" d="M83.5,142.2c0,2.7-2.2,4.9-4.9,4.9c-2.7,0-4.9-2.2-4.9-4.9s2.2-4.9,4.9-4.9C81.3,137.3,83.5,139.5,83.5,142.2z"
	/>
<path class="vnumbers0" d="M47.5,161.5c0,2.7-2.2,4.9-4.9,4.9s-4.9-2.2-4.9-4.9s2.2-4.9,4.9-4.9
	C45.3,156.7,47.5,158.8,47.5,161.5z"/>
<path class="vnumbers0" d="M107.5,125c0,2.7-2.2,4.9-4.9,4.9s-4.9-2.2-4.9-4.9c0-2.7,2.2-4.9,4.9-4.9S107.5,122.3,107.5,125z"/>
<path class="vnumbers0" d="M132.9,145.6c0,2.7-2.2,4.9-4.9,4.9c-2.7,0-4.9-2.2-4.9-4.9s2.2-4.9,4.9-4.9
	C130.8,140.7,132.9,142.9,132.9,145.6z"/>
<path class="vnumbers0" d="M143.5,184.4c0,2.7-2.2,4.9-4.9,4.9c-2.7,0-4.9-2.2-4.9-4.9s2.2-4.9,4.9-4.9
	C141.3,179.5,143.5,181.7,143.5,184.4z"/>
<path class="vnumbers0" d="M154.3,214.9c0,2.7-2.2,4.9-4.9,4.9c-2.7,0-4.9-2.2-4.9-4.9s2.2-4.9,4.9-4.9C152.1,210,154.3,212.1,154.3,214.9
	z"/>
<path class="vnumbers0" d="M145.1,244.8c0,2.7-2.2,4.9-4.9,4.9c-2.7,0-4.9-2.2-4.9-4.9s2.2-4.9,4.9-4.9
	C142.9,239.9,145.1,242.1,145.1,244.8z"/>
<path class="vnumbers0" d="M156.3,279.5c0,2.7-2.2,4.9-4.9,4.9c-2.7,0-4.9-2.2-4.9-4.9s2.2-4.9,4.9-4.9
	C154.2,274.6,156.3,276.8,156.3,279.5z"/>
<path class="vnumbers0" d="M168.4,316c0,2.7-2.2,4.9-4.9,4.9s-4.9-2.2-4.9-4.9s2.2-4.9,4.9-4.9S168.4,313.3,168.4,316z"/>
<path class="vnumbers0" d="M236.7,333.6c0,2.7-2.2,4.9-4.9,4.9s-4.9-2.2-4.9-4.9s2.2-4.9,4.9-4.9C234.5,328.7,236.7,330.9,236.7,333.6z"/>
<path class="vnumbers0" d="M261.4,411c0,2.7-2.2,4.9-4.9,4.9c-2.7,0-4.9-2.2-4.9-4.9s2.2-4.9,4.9-4.9C259.2,406.1,261.4,408.3,261.4,411z"
	/>
<path class="vnumbers0" d="M318.6,435.2c0,2.7-2.2,4.9-4.9,4.9c-2.7,0-4.9-2.2-4.9-4.9s2.2-4.9,4.9-4.9
	C316.4,430.3,318.6,432.5,318.6,435.2z"/>
<path class="vnumbers0" d="M338.4,462c0,2.7-2.2,4.9-4.9,4.9c-2.7,0-4.9-2.2-4.9-4.9s2.2-4.9,4.9-4.9C336.3,457.1,338.4,459.3,338.4,462z"
	/>
<path class="vnumbers0" d="M322.9,484.5c0,2.7-2.2,4.9-4.9,4.9c-2.7,0-4.9-2.2-4.9-4.9s2.2-4.9,4.9-4.9S322.9,481.8,322.9,484.5z"/>
<line class="vnumbers0" x1="309.6" y1="586.2" x2="289.9" y2="561.8"/>
<line class="vnumbers0" x1="308" y1="555.9" x2="312.4" y2="536.7"/>
<line class="vnumbers0" x1="309" y1="530" x2="291.8" y2="524.2"/>
<line class="vnumbers0" x1="316" y1="527.6" x2="324.7" y2="519.2"/>
<line class="vnumbers0" x1="323.9" y1="512.1" x2="319.4" y2="489.2"/>
<line class="vnumbers0" x1="330.9" y1="511.6" x2="346" y2="492.6"/>
<line class="vnumbers0" x1="346.3" y1="483.7" x2="335.7" y2="466.4"/>
<path class="vnumbers0" d="M338.4,460.5c1.2,0,2.4,0,3.6,0"/>
<line class="vnumbers0" x1="315.7" y1="480.2" x2="283" y2="451.7"/>
<line class="vnumbers0" x1="309.6" y1="437.9" x2="285.6" y2="448.3"/>
<line class="vnumbers0" x1="280.9" y1="441.9" x2="282.5" y2="396.9"/>
<path class="vnumbers0" d="M286.5,394.8c2.9,1.4,5.7,2.7,8.6,4.1"/>
<line class="vnumbers0" x1="316.4" y1="439.3" x2="330.3" y2="458.4"/>
<line class="vnumbers0" x1="277.4" y1="443.4" x2="259.2" y2="415"/>
<line class="vnumbers0" x1="256.4" y1="406.1" x2="265.4" y2="376.6"/>
<line class="vnumbers0" x1="246.6" y1="364" x2="262.4" y2="370.1"/>
<path class="vnumbers0" d="M271.4,369.6c2.2-1.8,4.5-3.7,6.7-5.5"/>
<line class="vnumbers0" x1="278.2" y1="389.7" x2="270.4" y2="375.9"/>
<line class="vnumbers0" x1="287.2" y1="552.8" x2="287.2" y2="527.2"/>
<line class="vnumbers0" x1="287.2" y1="517.4" x2="290" y2="488.5"/>
<line class="vnumbers0" x1="291" y1="518.2" x2="315.2" y2="488.5"/>
<path class="vnumbers0" d="M351.6,484.5c3-2.9,6-5.8,9-8.8"/>
<line class="vnumbers0" x1="283" y1="451.7" x2="290" y2="478.8"/>
<path class="vnumbers0" d="M353.7,488.5c0,2.7-2.2,4.9-4.9,4.9c-2.7,0-4.9-2.2-4.9-4.9s2.2-4.9,4.9-4.9
	C351.4,483.7,353.7,485.8,353.7,488.5z"/>
<path class="vnumbers0" d="M318.6,589.8c0,2.7-2.2,4.9-4.9,4.9c-2.7,0-4.9-2.2-4.9-4.9s2.2-4.9,4.9-4.9C316.4,585,318.6,587.1,318.6,589.8
	z"/>
<path class="vnumbers0" d="M285.9,446.8c0,2.7-2.2,4.9-4.9,4.9c-2.7,0-4.9-2.2-4.9-4.9s2.2-4.9,4.9-4.9
	C283.7,441.9,285.9,444.1,285.9,446.8z"/>
<path class="vnumbers0" d="M287.4,392c0,2.7-2.2,4.9-4.9,4.9c-2.7,0-4.9-2.2-4.9-4.9s2.2-4.9,4.9-4.9C285.2,387.2,287.4,389.3,287.4,392z"
	/>
<line class="vnumbers0" x1="312.2" y1="585.2" x2="308" y2="565.7"/>
<line class="vnumbers0" x1="304.9" y1="557.1" x2="289.9" y2="526.4"/>
<line class="vnumbers0" x1="292" y1="558.9" x2="303.2" y2="560.8"/>
<path class="vnumbers0" d="M292.2,557.6c0,2.7-2.2,4.9-4.9,4.9c-2.7,0-4.9-2.2-4.9-4.9s2.2-4.9,4.9-4.9
	C289.9,552.8,292.2,554.9,292.2,557.6z"/>
<path class="vnumbers0" d="M312.9,560.8c0,2.7-2.2,4.9-4.9,4.9c-2.7,0-4.9-2.2-4.9-4.9s2.2-4.9,4.9-4.9
	C310.8,555.9,312.9,558.1,312.9,560.8z"/>
<line class="vnumbers0" x1="231.8" y1="338.5" x2="238.4" y2="359"/>
<line class="vnumbers0" x1="216" y1="343.8" x2="238.4" y2="359"/>
<line class="vnumbers0" x1="226.9" y1="335.7" x2="216.8" y2="339.4"/>
<line class="vnumbers0" x1="190.8" y1="334.7" x2="207.2" y2="339.4"/>
<line class="vnumbers0" x1="204" y1="313.6" x2="209.6" y2="336.7"/>
<line class="vnumbers0" x1="178.1" y1="310.3" x2="184.6" y2="327.5"/>
<line class="vnumbers0" x1="155.2" y1="282.7" x2="172.5" y2="302.3"/>
<line class="vnumbers0" x1="185.5" y1="283.9" x2="177.9" y2="302.1"/>
<line class="vnumbers0" x1="140.2" y1="249.7" x2="149.6" y2="275"/>
<line class="vnumbers0" x1="147.7" y1="219.7" x2="141.4" y2="240.1"/>
<line class="vnumbers0" x1="140.2" y1="189" x2="148.4" y2="210"/>
<line class="vnumbers0" x1="130.2" y1="150" x2="138.6" y2="179.5"/>
<line class="vnumbers0" x1="106.4" y1="128.1" x2="125.3" y2="141.5"/>
<line class="vnumbers0" x1="82.7" y1="139.5" x2="98.4" y2="127.4"/>
<line class="vnumbers0" x1="76.1" y1="138" x2="67.2" y2="123.2"/>
<line class="vnumbers0" x1="153.6" y1="283.9" x2="161" y2="311.2"/>
<line class="vnumbers0" x1="199" y1="312.6" x2="190" y2="328.1"/>
<line class="vnumbers0" x1="47.4" y1="160.2" x2="75" y2="145.6"/>
<line class="vnumbers0" x1="68.4" y1="115.6" x2="83.5" y2="109.6"/>
<line class="vnumbers0" x1="101.4" y1="120.1" x2="97" y2="98.3"/>
<line class="vnumbers0" x1="92.1" y1="93.4" x2="81.9" y2="92.6"/>
<line class="vnumbers0" x1="97" y1="88.5" x2="96.1" y2="72.1"/>
<line class="vnumbers0" x1="99.8" y1="66.1" x2="123.5" y2="59.2"/>
<line class="vnumbers0" x1="131.8" y1="61.6" x2="161.7" y2="87.8"/>
<line class="vnumbers0" x1="168.4" y1="91.3" x2="185.4" y2="89.6"/>
<line class="vnumbers0" x1="193.7" y1="92" x2="215.6" y2="111"/>
<line class="vnumbers0" x1="232.4" y1="116.4" x2="222.9" y2="115.2"/>
<line class="vnumbers0" x1="245.9" y1="102.9" x2="225.4" y2="98.1"/>
<line class="vnumbers0" x1="222.4" y1="90.5" x2="223.4" y2="86.4"/>
<line class="vnumbers0" x1="227.7" y1="79.2" x2="232.4" y2="75.7"/>
<line class="vnumbers0" x1="213.8" y1="72.5" x2="222.6" y2="65.9"/>
<line class="vnumbers0" x1="250.9" y1="98.1" x2="253.9" y2="78.9"/>
<line class="vnumbers0" x1="245.4" y1="88.4" x2="253.9" y2="78.9"/>
<line class="vnumbers0" x1="255.5" y1="124.2" x2="242.2" y2="118.1"/>
<line class="vnumbers0" x1="271.5" y1="118.1" x2="264.6" y2="123"/>
<line class="vnumbers0" x1="293.8" y1="122.5" x2="281.4" y2="131.8"/>
<path class="vnumbers0" d="M317.6,153.7c-3-2-5.9-4.1-8.9-6.1"/>
<path class="vnumbers0" d="M323.4,138.5c0,3.3,0,6.5,0,9.8"/>
<path class="vnumbers0" d="M336,122.8c1,2.7,2.1,5.3,3.1,8"/>
<line class="vnumbers0" x1="372.2" y1="102" x2="374.4" y2="82.2"/>
<line class="vnumbers0" x1="369.7" y1="76.2" x2="360.2" y2="72.2"/>
<line class="vnumbers0" x1="355.3" y1="67.3" x2="353.9" y2="61.6"/>
<line class="vnumbers0" x1="369.3" y1="51.2" x2="358.4" y2="55"/>
<line class="vnumbers0" x1="388.8" y1="33.8" x2="376.9" y2="44.7"/>
<line class="vnumbers0" x1="413.9" y1="28.9" x2="397.4" y2="30.8"/>
<line class="vnumbers0" x1="434" y1="19" x2="423.6" y2="24.9"/>
<line class="vnumbers0" x1="448.9" y1="23.3" x2="439.9" y2="30.5"/>
<line class="vnumbers0" x1="432" y1="31.2" x2="423.2" y2="29.6"/>
<line class="vnumbers0" x1="447.4" y1="43" x2="439.3" y2="37.5"/>
<line class="vnumbers0" x1="466.8" y1="44.1" x2="455.9" y2="44.8"/>
<line class="vnumbers0" x1="468" y1="45.5" x2="458.4" y2="60.3"/>
<line class="vnumbers0" x1="685.1" y1="29.6" x2="677.3" y2="23.9"/>
<path class="vnumbers0" d="M332.3,137.5c-1.5-0.6-3-1.3-4.5-1.9"/>
<line class="vnumbers0" x1="273.9" y1="138.5" x2="256.4" y2="149.8"/>
<line class="vnumbers0" x1="248.9" y1="156.1" x2="241.4" y2="166.3"/>
<line class="vnumbers0" x1="241.5" y1="174.5" x2="264.1" y2="194.9"/>
<line class="vnumbers0" x1="268.9" y1="203.3" x2="273" y2="213.7"/>
<line class="vnumbers0" x1="283.6" y1="203.5" x2="277.7" y2="213.7"/>
<line class="vnumbers0" x1="298.6" y1="167" x2="288.5" y2="194.4"/>
<path class="vnumbers0" d="M303.3,167c0.8,1.8,1.6,3.5,2.4,5.3"/>
<line class="vnumbers0" x1="268.7" y1="278.1" x2="255.2" y2="287.2"/>
<line class="vnumbers0" x1="252.2" y1="294.6" x2="254.9" y2="303.4"/>
<line class="vnumbers0" x1="246.5" y1="291.5" x2="226.9" y2="293.3"/>
<line class="vnumbers0" x1="217.3" y1="294.7" x2="205.2" y2="305.1"/>
<line class="vnumbers0" x1="218.3" y1="290" x2="192.7" y2="281.2"/>
<line class="vnumbers0" x1="248.9" y1="285" x2="230.3" y2="262.3"/>
<line class="vnumbers0" x1="263.9" y1="327.5" x2="254.7" y2="323.8"/>
<line class="vnumbers0" x1="223.2" y1="258" x2="200" y2="256.6"/>
<line class="vnumbers0" x1="190.3" y1="255.2" x2="180.1" y2="250.9"/>
<line class="vnumbers0" x1="196.7" y1="250.3" x2="199" y2="235.7"/>
<line class="vnumbers0" x1="191.4" y1="276.2" x2="224.1" y2="260.7"/>
<line class="vnumbers0" x1="185.2" y1="275.4" x2="175.2" y2="255.7"/>
<line class="vnumbers0" x1="170.3" y1="250.9" x2="145.1" y2="244.8"/>
<line class="vnumbers0" x1="194.1" y1="229.1" x2="175.3" y2="207.4"/>
<line class="vnumbers0" x1="199" y1="226" x2="201.6" y2="201.3"/>
<line class="vnumbers0" x1="203.9" y1="230.8" x2="239.2" y2="218.2"/>
<line class="vnumbers0" x1="233" y1="256.6" x2="252.9" y2="249.7"/>
<line class="vnumbers0" x1="273.2" y1="234.3" x2="273.7" y2="223.1"/>
<line class="vnumbers0" x1="229.3" y1="253.2" x2="241.5" y2="219.9"/>
<line class="vnumbers0" x1="246.9" y1="212.1" x2="263.5" y2="201.8"/>
<line class="vnumbers0" x1="205.5" y1="193.5" x2="234" y2="173.3"/>
<line class="vnumbers0" x1="203.9" y1="191.5" x2="212.7" y2="173.3"/>
<line class="vnumbers0" x1="175.5" y1="171.2" x2="211.2" y2="169"/>
<line class="vnumbers0" x1="157.4" y1="149" x2="168.5" y2="166.3"/>
<line class="vnumbers0" x1="143.5" y1="184.4" x2="170.6" y2="198.6"/>
<line class="vnumbers0" x1="143.1" y1="182.4" x2="165.7" y2="173.3"/>
<line class="vnumbers0" x1="157.7" y1="140.8" x2="173.1" y2="123.8"/>
<line class="vnumbers0" x1="173.8" y1="116.4" x2="165.7" y2="96.8"/>
<line class="vnumbers0" x1="130.1" y1="111.5" x2="135.5" y2="97.9"/>
<line class="vnumbers0" x1="128.1" y1="140.7" x2="130.1" y2="121.3"/>
<line class="vnumbers0" x1="226.3" y1="140.7" x2="206.2" y2="133.4"/>
<line class="vnumbers0" x1="237.4" y1="121.3" x2="231.1" y2="135.8"/>
<line class="vnumbers0" x1="150" y1="144.8" x2="132.3" y2="143.1"/>
<line class="vnumbers0" x1="130.6" y1="93" x2="101.9" y2="93.4"/>
<line class="vnumbers0" x1="135.5" y1="88.1" x2="130.1" y2="62.5"/>
<line class="vnumbers0" x1="318.9" y1="95.9" x2="334.6" y2="113.2"/>
<line class="vnumbers0" x1="321.9" y1="129" x2="316.7" y2="117"/>
<line class="vnumbers0" x1="310.2" y1="110.5" x2="296.9" y2="106.2"/>
<line class="vnumbers0" x1="314.2" y1="74.8" x2="304.9" y2="70.7"/>
<line class="vnumbers0" x1="325.9" y1="61.9" x2="317.6" y2="58.7"/>
<line class="vnumbers0" x1="346.4" y1="45.5" x2="333.9" y2="58.2"/>
<line class="vnumbers0" x1="382.4" y1="23.3" x2="354.4" y2="39.2"/>
<line class="vnumbers0" x1="381.4" y1="20.3" x2="353.9" y2="24.2"/>
<line class="vnumbers0" x1="384.4" y1="15.9" x2="369.2" y2="10.8"/>
<line class="vnumbers0" x1="360" y1="8.4" x2="340.3" y2="14.4"/>
<line class="vnumbers0" x1="318.9" y1="95.9" x2="316.2" y2="107.4"/>
<line class="vnumbers0" x1="339" y1="17.5" x2="345" y2="22.5"/>
<line class="vnumbers0" x1="350.4" y1="37" x2="348.9" y2="30.5"/>
<line class="vnumbers0" x1="345.9" y1="39.2" x2="338.4" y2="37.8"/>
<line class="vnumbers0" x1="331.4" y1="40.2" x2="315.6" y2="52.4"/>
<line class="vnumbers0" x1="421.9" y1="59.2" x2="450.4" y2="64.1"/>
<line class="vnumbers0" x1="414.4" y1="61.9" x2="406.9" y2="79.5"/>
<line class="vnumbers0" x1="379.3" y1="78.5" x2="400.4" y2="83.2"/>
<line class="vnumbers0" x1="409.6" y1="80.9" x2="451" y2="66.5"/>
<line class="vnumbers0" x1="378.3" y1="51.2" x2="412.2" y2="57.7"/>
<line class="vnumbers0" x1="395.6" y1="34.7" x2="413.9" y2="53.8"/>
<line class="vnumbers0" x1="418.9" y1="32.2" x2="417" y2="52.8"/>
<line class="vnumbers0" x1="446.7" y1="48.6" x2="421.2" y2="55"/>
<line class="vnumbers0" x1="943.6" y1="525.8" x2="949.7" y2="512.7"/>
<line class="vnumbers0" x1="988.9" y1="577.2" x2="1003.1" y2="565.1"/>
<line class="vnumbers0" x1="949.7" y1="505.3" x2="930.7" y2="489.7"/>
<line class="vnumbers0" x1="960.1" y1="479.4" x2="940.2" y2="442.2"/>
<line class="vnumbers0" x1="934.8" y1="456.5" x2="937.4" y2="443.1"/>
<line class="vnumbers0" x1="915.7" y1="452.3" x2="929.9" y2="459.4"/>
<line class="vnumbers0" x1="915.6" y1="440.5" x2="913.7" y2="445.3"/>
<line class="vnumbers0" x1="913" y1="436.3" x2="893.6" y2="443.9"/>
<line class="vnumbers0" x1="954.3" y1="422.4" x2="946" y2="414.8"/>
<line class="vnumbers0" x1="937.6" y1="410.1" x2="914.6" y2="404.9"/>
<line class="vnumbers0" x1="855.2" y1="382" x2="841.3" y2="389.2"/>
<line class="vnumbers0" x1="818.4" y1="404.9" x2="799.2" y2="384.1"/>
<line class="vnumbers0" x1="814.9" y1="380.4" x2="804.8" y2="357.2"/>
<line class="vnumbers0" x1="823.4" y1="358.6" x2="808.4" y2="353"/>
<line class="vnumbers0" x1="828.3" y1="353.7" x2="820.1" y2="331.9"/>
<line class="vnumbers0" x1="800.7" y1="348.4" x2="782.6" y2="322.8"/>
<line class="vnumbers0" x1="774.9" y1="318.7" x2="769.5" y2="319.9"/>
<line class="vnumbers0" x1="672.7" y1="139.3" x2="661.4" y2="106.9"/>
<line class="vnumbers0" x1="859.3" y1="384.3" x2="856.9" y2="399.6"/>
<line class="vnumbers0" x1="842.4" y1="395.6" x2="852.4" y2="402.5"/>
<line class="vnumbers0" x1="955" y1="504.1" x2="961.6" y2="488.6"/>
<path class="vnumbers0" d="M933.9,553.8c0,2.7-2.2,4.9-4.9,4.9s-4.9-2.2-4.9-4.9s2.2-4.9,4.9-4.9S933.9,551.1,933.9,553.8z"/>
<path class="vnumbers0" d="M990.6,582.1c0,2.7-2.2,4.9-4.9,4.9s-4.9-2.2-4.9-4.9s2.2-4.9,4.9-4.9S990.6,579.4,990.6,582.1z"/>
<path class="vnumbers0" d="M1010.8,561.1c0,2.7-2.2,4.9-4.9,4.9s-4.9-2.2-4.9-4.9s2.2-4.9,4.9-4.9S1010.8,558.4,1010.8,561.1z"/>
<path id="svg-concept" class="vnumbers1" d="M1026,546.2c0,2.7-2.2,4.9-4.9,4.9s-4.9-2.2-4.9-4.9s2.2-4.9,4.9-4.9C1023.8,541.3,1026,543.5,1026,546.2z"/>
<path class="vnumbers0" d="M1009.6,467.7c0,2.7-2.2,4.9-4.9,4.9s-4.9-2.2-4.9-4.9s2.2-4.9,4.9-4.9S1009.6,465,1009.6,467.7z"/>
<path class="vnumbers0" d="M1016.5,446.6c0,2.7-2.2,4.9-4.9,4.9s-4.9-2.2-4.9-4.9s2.2-4.9,4.9-4.9C1014.2,441.7,1016.5,443.9,1016.5,446.6
	z"/>
<path class="vnumbers0" d="M998.6,425.7c0,2.7-2.2,4.9-4.9,4.9s-4.9-2.2-4.9-4.9s2.2-4.9,4.9-4.9C996.4,420.9,998.6,423,998.6,425.7z"/>
<path class="vnumbers0" d="M984.4,414.8c0,2.7-2.2,4.9-4.9,4.9s-4.9-2.2-4.9-4.9s2.2-4.9,4.9-4.9C982.3,409.9,984.4,412.1,984.4,414.8z"/>
<path class="vnumbers0" d="M968.8,412c0,2.7-2.2,4.9-4.9,4.9s-4.9-2.2-4.9-4.9s2.2-4.9,4.9-4.9S968.8,409.3,968.8,412z"/>
<path class="vnumbers0" d="M947.2,411.7c0,2.7-2.2,4.9-4.9,4.9s-4.9-2.2-4.9-4.9s2.2-4.9,4.9-4.9S947.2,409,947.2,411.7z"/>
<path class="vnumbers0" d="M962.9,425.6c0,2.7-2.2,4.9-4.9,4.9s-4.9-2.2-4.9-4.9s2.2-4.9,4.9-4.9C960.7,420.7,962.9,422.9,962.9,425.6z"/>
<path class="vnumbers0" d="M915.6,402.5c0,2.7-2.2,4.9-4.9,4.9s-4.9-2.2-4.9-4.9s2.2-4.9,4.9-4.9S915.6,399.8,915.6,402.5z"/>
<path class="vnumbers0" d="M901.7,405.8c0,2.7-2.2,4.9-4.9,4.9s-4.9-2.2-4.9-4.9s2.2-4.9,4.9-4.9C899.6,400.9,901.7,403.1,901.7,405.8z"/>
<path class="vnumbers0" d="M897.9,390.7c0,2.7-2.2,4.9-4.9,4.9s-4.9-2.2-4.9-4.9s2.2-4.9,4.9-4.9S897.9,388,897.9,390.7z"/>
<path class="vnumbers0" d="M878.3,401.5c0,2.7-2.2,4.9-4.9,4.9s-4.9-2.2-4.9-4.9s2.2-4.9,4.9-4.9S878.3,398.8,878.3,401.5z"/>
<path class="vnumbers0" d="M889.2,370.5c0,2.7-2.2,4.9-4.9,4.9s-4.9-2.2-4.9-4.9s2.2-4.9,4.9-4.9S889.2,367.8,889.2,370.5z"/>
<path class="vnumbers0" d="M882.7,358.6c0,2.7-2.2,4.9-4.9,4.9s-4.9-2.2-4.9-4.9s2.2-4.9,4.9-4.9C880.6,353.7,882.7,355.9,882.7,358.6z"/>
<path class="vnumbers0" d="M826.7,408.4c0,2.7-2.2,4.9-4.9,4.9s-4.9-2.2-4.9-4.9s2.2-4.9,4.9-4.9C824.6,403.5,826.7,405.7,826.7,408.4z"/>
<path class="vnumbers0" d="M801,380.3c0,2.7-2.2,4.9-4.9,4.9s-4.9-2.2-4.9-4.9s2.2-4.9,4.9-4.9S801,377.6,801,380.3z"/>
<path class="vnumbers0" d="M823.6,384.3c0,2.7-2.2,4.9-4.9,4.9s-4.9-2.2-4.9-4.9s2.2-4.9,4.9-4.9S823.6,381.6,823.6,384.3z"/>
<path class="vnumbers0" d="M808.2,352.5c0,2.7-2.2,4.9-4.9,4.9s-4.9-2.2-4.9-4.9s2.2-4.9,4.9-4.9C806.1,347.6,808.2,349.8,808.2,352.5z"/>
<path class="vnumbers0" d="M833.2,358.6c0,2.7-2.2,4.9-4.9,4.9s-4.9-2.2-4.9-4.9s2.2-4.9,4.9-4.9C831,353.7,833.2,355.9,833.2,358.6z"/>
<path class="vnumbers0" d="M823.6,327.2c0,2.7-2.2,4.9-4.9,4.9s-4.9-2.2-4.9-4.9s2.2-4.9,4.9-4.9S823.6,324.5,823.6,327.2z"/>
<path class="vnumbers0" d="M784.7,318.7c0,2.7-2.2,4.9-4.9,4.9s-4.9-2.2-4.9-4.9s2.2-4.9,4.9-4.9C782.6,313.8,784.7,316,784.7,318.7z"/>
<path class="vnumbers0" d="M825.8,288.2c0,2.7-2.2,4.9-4.9,4.9s-4.9-2.2-4.9-4.9s2.2-4.9,4.9-4.9S825.8,285.5,825.8,288.2z"/>
<path class="vnumbers0" d="M808.8,237.4c0,2.7-2.2,4.9-4.9,4.9s-4.9-2.2-4.9-4.9s2.2-4.9,4.9-4.9S808.8,234.7,808.8,237.4z"/>
<path class="vnumbers0" d="M864.6,102.5c0,2.7-2.2,4.9-4.9,4.9s-4.9-2.2-4.9-4.9s2.2-4.9,4.9-4.9C862.4,97.7,864.6,99.8,864.6,102.5z"/>
<path class="vnumbers0" d="M787.9,120.5c0,2.7-2.2,4.9-4.9,4.9s-4.9-2.2-4.9-4.9s2.2-4.9,4.9-4.9S787.9,117.8,787.9,120.5z"/>
<path class="vnumbers0" d="M742.4,152.5c0,2.7-2.2,4.9-4.9,4.9s-4.9-2.2-4.9-4.9s2.2-4.9,4.9-4.9C740.2,147.6,742.4,149.8,742.4,152.5z"/>
<path class="vnumbers0" d="M783,145.1c0,2.7-2.2,4.9-4.9,4.9s-4.9-2.2-4.9-4.9s2.2-4.9,4.9-4.9S783,142.4,783,145.1z"/>
<path class="vnumbers0" d="M762.4,193c0,2.7-2.2,4.9-4.9,4.9s-4.9-2.2-4.9-4.9s2.2-4.9,4.9-4.9C760.3,188.1,762.4,190.3,762.4,193z"/>
<path class="vnumbers0" d="M905.7,86.4c0,2.7-2.2,4.9-4.9,4.9s-4.9-2.2-4.9-4.9s2.2-4.9,4.9-4.9C903.6,81.5,905.7,83.7,905.7,86.4z"/>
<path class="vnumbers0" d="M700.6,77.1c0,2.7-2.2,4.9-4.9,4.9s-4.9-2.2-4.9-4.9s2.2-4.9,4.9-4.9C698.3,72.2,700.6,74.4,700.6,77.1z"/>
<path class="vnumbers0" d="M720,48.6c0,2.7-2.2,4.9-4.9,4.9s-4.9-2.2-4.9-4.9s2.2-4.9,4.9-4.9S720,45.9,720,48.6z"/>
<path class="vnumbers0" d="M792.8,66.9c0,2.7-2.2,4.9-4.9,4.9s-4.9-2.2-4.9-4.9s2.2-4.9,4.9-4.9C790.6,62.1,792.8,64.2,792.8,66.9z"/>
<path class="vnumbers0" d="M813.8,83.4c0,2.7-2.2,4.9-4.9,4.9s-4.9-2.2-4.9-4.9s2.2-4.9,4.9-4.9S813.8,80.7,813.8,83.4z"/>
<path class="vnumbers0" d="M833,58.8c0,2.7-2.2,4.9-4.9,4.9s-4.9-2.2-4.9-4.9s2.2-4.9,4.9-4.9C830.8,54,833,56.1,833,58.8z"/>
<path class="vnumbers0" d="M875.7,58.8c0,2.7-2.2,4.9-4.9,4.9s-4.9-2.2-4.9-4.9s2.2-4.9,4.9-4.9C873.6,53.9,875.7,56.1,875.7,58.8z"/>
<path class="vnumbers0" d="M918.7,55.6c0,2.7-2.2,4.9-4.9,4.9s-4.9-2.2-4.9-4.9s2.2-4.9,4.9-4.9C916.6,50.7,918.7,52.9,918.7,55.6z"/>
<path class="vnumbers0" d="M967.6,56.4c0,2.7-2.2,4.9-4.9,4.9s-4.9-2.2-4.9-4.9s2.2-4.9,4.9-4.9S967.6,53.7,967.6,56.4z"/>
<path class="vnumbers0" d="M940.6,122.5c0,2.7-2.2,4.9-4.9,4.9s-4.9-2.2-4.9-4.9c0-2.7,2.2-4.9,4.9-4.9S940.6,119.8,940.6,122.5z"/>
<path class="vnumbers0" d="M928.6,106.4c0,2.7-2.2,4.9-4.9,4.9s-4.9-2.2-4.9-4.9s2.2-4.9,4.9-4.9S928.6,103.7,928.6,106.4z"/>
<path class="vnumbers0" d="M910.6,136.2c0,2.7-2.2,4.9-4.9,4.9s-4.9-2.2-4.9-4.9s2.2-4.9,4.9-4.9C908.4,131.3,910.6,133.5,910.6,136.2z"/>
<path class="vnumbers0" d="M882,145.1c0,2.7-2.2,4.9-4.9,4.9s-4.9-2.2-4.9-4.9s2.2-4.9,4.9-4.9S882,142.4,882,145.1z"/>
<path class="vnumbers0" d="M871.2,178.3c0,2.7-2.2,4.9-4.9,4.9s-4.9-2.2-4.9-4.9s2.2-4.9,4.9-4.9S871.2,175.6,871.2,178.3z"/>
<path class="vnumbers0" d="M893.8,184.1c0,2.7-2.2,4.9-4.9,4.9s-4.9-2.2-4.9-4.9s2.2-4.9,4.9-4.9C891.6,179.3,893.8,181.4,893.8,184.1z"/>
<path class="vnumbers0" d="M898.7,204.2c0,2.7-2.2,4.9-4.9,4.9s-4.9-2.2-4.9-4.9s2.2-4.9,4.9-4.9C896.6,199.3,898.7,201.5,898.7,204.2z"/>
<path class="vnumbers0" d="M889.8,231c0,2.7-2.2,4.9-4.9,4.9s-4.9-2.2-4.9-4.9s2.2-4.9,4.9-4.9C887.6,226.2,889.8,228.3,889.8,231z"/>
<path class="vnumbers0" d="M873.1,247.3c0,2.7-2.2,4.9-4.9,4.9s-4.9-2.2-4.9-4.9s2.2-4.9,4.9-4.9S873.1,244.6,873.1,247.3z"/>
<path class="vnumbers0" d="M884.7,268c0,2.7-2.2,4.9-4.9,4.9s-4.9-2.2-4.9-4.9s2.2-4.9,4.9-4.9C882.6,263.1,884.7,265.3,884.7,268z"/>
<path class="vnumbers0" d="M894.3,281.4c0,2.7-2.2,4.9-4.9,4.9s-4.9-2.2-4.9-4.9s2.2-4.9,4.9-4.9
	S894.3,278.7,894.3,281.4z"/>
<path class="vnumbers0" d="M906.9,271.6c0,2.7-2.2,4.9-4.9,4.9s-4.9-2.2-4.9-4.9s2.2-4.9,4.9-4.9
	C904.7,266.8,906.9,268.9,906.9,271.6z"/>
<path class="vnumbers0" d="M918.2,264.7c0,2.7-2.2,4.9-4.9,4.9s-4.9-2.2-4.9-4.9c0-2.7,2.2-4.9,4.9-4.9S918.2,262,918.2,264.7z"/>
<path class="vnumbers0" d="M918.2,245.5c0,2.7-2.2,4.9-4.9,4.9s-4.9-2.2-4.9-4.9s2.2-4.9,4.9-4.9C916,240.6,918.2,242.8,918.2,245.5z"/>
<path class="vnumbers0" d="M918.2,229.7c0,2.7-2.2,4.9-4.9,4.9s-4.9-2.2-4.9-4.9s2.2-4.9,4.9-4.9C916,224.8,918.2,227,918.2,229.7z"/>
<path class="vnumbers0" d="M846.6,261.2c0,2.7-2.2,4.9-4.9,4.9s-4.9-2.2-4.9-4.9s2.2-4.9,4.9-4.9S846.6,258.5,846.6,261.2z"/>
<path class="vnumbers0" d="M865,290.1c0,2.7-2.2,4.9-4.9,4.9s-4.9-2.2-4.9-4.9s2.2-4.9,4.9-4.9C862.8,285.2,865,287.4,865,290.1z"/>
<path class="vnumbers0" d="M845.1,317.4c0,2.7-2.2,4.9-4.9,4.9s-4.9-2.2-4.9-4.9s2.2-4.9,4.9-4.9C842.9,312.6,845.1,314.7,845.1,317.4z"/>
<path class="vnumbers0" d="M946.9,181.1c0,2.7-2.2,4.9-4.9,4.9s-4.9-2.2-4.9-4.9s2.2-4.9,4.9-4.9S946.9,178.4,946.9,181.1z"/>
<path class="vnumbers0" d="M938.9,153.9c0,2.7-2.2,4.9-4.9,4.9s-4.9-2.2-4.9-4.9s2.2-4.9,4.9-4.9S938.9,151.2,938.9,153.9z"/>
<path class="vnumbers0" d="M683.2,106.5c0,2.7-2.2,4.9-4.9,4.9s-4.9-2.2-4.9-4.9s2.2-4.9,4.9-4.9S683.2,103.8,683.2,106.5z"/>
<path class="vnumbers0" d="M704.7,110.9c0,2.7-2.2,4.9-4.9,4.9s-4.9-2.2-4.9-4.9s2.2-4.9,4.9-4.9C702.6,106,704.7,108.2,704.7,110.9z"/>
<path class="vnumbers0" d="M678.9,144.2c0,2.7-2.2,4.9-4.9,4.9s-4.9-2.2-4.9-4.9s2.2-4.9,4.9-4.9C676.7,139.3,678.9,141.5,678.9,144.2z"/>
<path class="vnumbers0" d="M665,102.5c0,2.7-2.2,4.9-4.9,4.9s-4.9-2.2-4.9-4.9s2.2-4.9,4.9-4.9C662.8,97.7,665,99.8,665,102.5z"/>
<path class="vnumbers0" d="M627.8,93.4c0,2.7-2.2,4.9-4.9,4.9s-4.9-2.2-4.9-4.9s2.2-4.9,4.9-4.9S627.8,90.7,627.8,93.4z"/>
<path class="vnumbers0" d="M645.2,70.4c0,2.7-2.2,4.9-4.9,4.9s-4.9-2.2-4.9-4.9s2.2-4.9,4.9-4.9C643,65.6,645.2,67.7,645.2,70.4z"/>
<path class="vnumbers0" d="M875.7,344.4c0,2.7-2.2,4.9-4.9,4.9s-4.9-2.2-4.9-4.9s2.2-4.9,4.9-4.9C873.6,339.5,875.7,341.6,875.7,344.4z"/>
<path class="vnumbers0" d="M872.6,316.8c0,2.7-2.2,4.9-4.9,4.9s-4.9-2.2-4.9-4.9s2.2-4.9,4.9-4.9C870.3,312,872.6,314.1,872.6,316.8z"/>
<path class="vnumbers0" d="M865.6,422.4c0,2.7-2.2,4.9-4.9,4.9s-4.9-2.2-4.9-4.9s2.2-4.9,4.9-4.9S865.6,419.7,865.6,422.4z"/>
<path class="vnumbers0" d="M843.1,419.9c0,2.7-2.2,4.9-4.9,4.9s-4.9-2.2-4.9-4.9s2.2-4.9,4.9-4.9C841,415,843.1,417.2,843.1,419.9z"/>
<path class="vnumbers0" d="M887.1,423.8c0,2.7-2.2,4.9-4.9,4.9s-4.9-2.2-4.9-4.9c0-2.7,2.2-4.9,4.9-4.9C885,419,887.1,421.1,887.1,423.8z"
	/>
<path class="vnumbers0" d="M914.4,419c0,2.7-2.2,4.9-4.9,4.9s-4.9-2.2-4.9-4.9s2.2-4.9,4.9-4.9S914.4,416.3,914.4,419z"/>
<path class="vnumbers0" d="M911.3,513c0,2.7-2.2,4.9-4.9,4.9s-4.9-2.2-4.9-4.9s2.2-4.9,4.9-4.9C909.1,508.1,911.3,510.2,911.3,513z"/>
<path class="vnumbers0" d="M897.4,499.2c0,2.7-2.2,4.9-4.9,4.9s-4.9-2.2-4.9-4.9s2.2-4.9,4.9-4.9S897.4,496.5,897.4,499.2z"/>
<path class="vnumbers0" d="M850.6,513c0,2.7-2.2,4.9-4.9,4.9s-4.9-2.2-4.9-4.9s2.2-4.9,4.9-4.9C848.3,508.1,850.6,510.2,850.6,513z"/>
<path class="vnumbers0" d="M853.3,470.6c0,2.7-2.2,4.9-4.9,4.9s-4.9-2.2-4.9-4.9s2.2-4.9,4.9-4.9C851.1,465.7,853.3,467.9,853.3,470.6z"/>
<path class="vnumbers0" d="M893.6,443.9c0,2.7-2.2,4.9-4.9,4.9s-4.9-2.2-4.9-4.9s2.2-4.9,4.9-4.9S893.6,441.2,893.6,443.9z"/>
<path class="vnumbers0" d="M922.8,436.3c0,2.7-2.2,4.9-4.9,4.9s-4.9-2.2-4.9-4.9s2.2-4.9,4.9-4.9S922.8,433.6,922.8,436.3z"/>
<path class="vnumbers0" d="M916.2,450.2c0,2.7-2.2,4.9-4.9,4.9s-4.9-2.2-4.9-4.9s2.2-4.9,4.9-4.9S916.2,447.5,916.2,450.2z"/>
<path class="vnumbers0" d="M939.7,461.4c0,2.7-2.2,4.9-4.9,4.9s-4.9-2.2-4.9-4.9s2.2-4.9,4.9-4.9C937.6,456.5,939.7,458.7,939.7,461.4z"/>
<path class="vnumbers0" d="M931.6,487.1c0,2.7-2.2,4.9-4.9,4.9s-4.9-2.2-4.9-4.9c0-2.7,2.2-4.9,4.9-4.9
	C929.3,482.2,931.6,484.4,931.6,487.1z"/>
<path class="vnumbers0" d="M889.8,473.9c0,2.7-2.2,4.9-4.9,4.9s-4.9-2.2-4.9-4.9s2.2-4.9,4.9-4.9S889.8,471.2,889.8,473.9z"/>
<path class="vnumbers0" d="M942.3,438.2c0,2.7-2.2,4.9-4.9,4.9s-4.9-2.2-4.9-4.9s2.2-4.9,4.9-4.9S942.3,435.5,942.3,438.2z"/>
<path class="vnumbers0" d="M967.4,483.6c0,2.7-2.2,4.9-4.9,4.9s-4.9-2.2-4.9-4.9s2.2-4.9,4.9-4.9C965.2,478.8,967.4,480.9,967.4,483.6z"/>
<line class="vnumbers0" x1="884.2" y1="446.7" x2="852.3" y2="467.7"/>
<line class="vnumbers0" x1="881.1" y1="477" x2="848.6" y2="509"/>
<line class="vnumbers0" x1="889.8" y1="495.1" x2="886.8" y2="478.8"/>
<line class="vnumbers0" x1="902.4" y1="509" x2="896.1" y2="502.6"/>
<line class="vnumbers0" x1="848.4" y1="475.5" x2="845.6" y2="508.1"/>
<line class="vnumbers0" x1="935.9" y1="529.8" x2="923.6" y2="529.8"/>
<line class="vnumbers0" x1="909.8" y1="509" x2="923.6" y2="490.9"/>
<line class="vnumbers0" x1="929" y1="482.2" x2="932.6" y2="466.3"/>
<line class="vnumbers0" x1="888.7" y1="448.8" x2="884.9" y2="469"/>
<line class="vnumbers0" x1="908.9" y1="454.4" x2="889.8" y2="471.5"/>
<line class="vnumbers0" x1="921.7" y1="487.1" x2="895.9" y2="495.7"/>
<line class="vnumbers0" x1="887.9" y1="500.8" x2="850.6" y2="511.9"/>
<line class="vnumbers0" x1="915.6" y1="526" x2="909.2" y2="517"/>
<line class="vnumbers0" x1="676" y1="139.3" x2="678.3" y2="111.4"/>
<line class="vnumbers0" x1="694.9" y1="110.9" x2="682.7" y2="108.6"/>
<line class="vnumbers0" x1="699.8" y1="106" x2="695.6" y2="82"/>
<line class="vnumbers0" x1="713" y1="53.1" x2="698.6" y2="72.7"/>
<line class="vnumbers0" x1="737.6" y1="55.9" x2="719.6" y2="50.6"/>
<line class="vnumbers0" x1="738.8" y1="76.2" x2="741.2" y2="61.9"/>
<line class="vnumbers0" x1="742.2" y1="79.4" x2="758" y2="74.6"/>
<line class="vnumbers0" x1="767" y1="70.9" x2="783" y2="66.9"/>
<line class="vnumbers0" x1="791.4" y1="70.4" x2="804.4" y2="81.5"/>
<line class="vnumbers0" x1="811.8" y1="79.5" x2="825.1" y2="62.7"/>
<line class="vnumbers0" x1="833" y1="58.8" x2="865.9" y2="58.8"/>
<line class="vnumbers0" x1="875.8" y1="60.3" x2="908.9" y2="55.6"/>
<line class="vnumbers0" x1="950.6" y1="78.5" x2="960" y2="60.5"/>
<line class="vnumbers0" x1="918.7" y1="55.6" x2="957.8" y2="56.4"/>
<line class="vnumbers0" x1="955.3" y1="94.3" x2="950.1" y2="87.6"/>
<line class="vnumbers0" x1="954.9" y1="102.4" x2="939.6" y2="119.6"/>
<line class="vnumbers0" x1="934" y1="127.1" x2="934" y2="149"/>
<line class="vnumbers0" x1="935.6" y1="158.5" x2="940.6" y2="176.4"/>
<line class="vnumbers0" x1="920.1" y1="109.7" x2="908.1" y2="131.3"/>
<line class="vnumbers0" x1="926.8" y1="110.2" x2="932.9" y2="118.5"/>
<line class="vnumbers0" x1="901" y1="137.5" x2="881.7" y2="143.4"/>
<line class="vnumbers0" x1="875.7" y1="149.8" x2="868.1" y2="173.4"/>
<line class="vnumbers0" x1="889.8" y1="189" x2="892.8" y2="199.3"/>
<line class="vnumbers0" x1="870.8" y1="180.3" x2="884" y2="183.1"/>
<line class="vnumbers0" x1="887.4" y1="226.8" x2="893.8" y2="209.1"/>
<line class="vnumbers0" x1="871.7" y1="243.9" x2="882" y2="235"/>
<line class="vnumbers0" x1="870.6" y1="251.5" x2="877.6" y2="263.6"/>
<line class="vnumbers0" x1="843.8" y1="256.9" x2="863.6" y2="245.5"/>
<line class="vnumbers0" x1="857.2" y1="286.2" x2="844.2" y2="266.1"/>
<line class="vnumbers0" x1="857.6" y1="294.3" x2="843.6" y2="313.8"/>
<line class="vnumbers0" x1="836.2" y1="320.2" x2="822.6" y2="324.4"/>
<line class="vnumbers0" x1="735.3" y1="157.4" x2="729.9" y2="172.5"/>
<line class="vnumbers0" x1="820.9" y1="293.1" x2="818.6" y2="322.3"/>
<line class="vnumbers0" x1="816.1" y1="286.3" x2="772.8" y2="280.3"/>
<line class="vnumbers0" x1="755.2" y1="255.3" x2="762.9" y2="245.1"/>
<line class="vnumbers0" x1="770.4" y1="239.5" x2="799" y2="237.4"/>
<line class="vnumbers0" x1="808.2" y1="239.6" x2="837.8" y2="257.6"/>
<line class="vnumbers0" x1="806.2" y1="242.3" x2="820.9" y2="283.3"/>
<line class="vnumbers0" x1="783.3" y1="315.3" x2="817" y2="291.1"/>
<line class="vnumbers0" x1="865" y1="243.6" x2="847.7" y2="213.9"/>
<line class="vnumbers0" x1="806.4" y1="233.2" x2="841" y2="212.4"/>
<line class="vnumbers0" x1="847.8" y1="204.2" x2="864.1" y2="183.1"/>
<line class="vnumbers0" x1="850" y1="209.7" x2="888.9" y2="204.2"/>
<line class="vnumbers0" x1="842.6" y1="204.8" x2="827.2" y2="172.2"/>
<line class="vnumbers0" x1="827.3" y1="163.6" x2="872.2" y2="145.1"/>
<line class="vnumbers0" x1="829.1" y1="167.4" x2="861.4" y2="176.2"/>
<line class="vnumbers0" x1="761.6" y1="190.2" x2="820" y2="169.8"/>
<line class="vnumbers0" x1="820.4" y1="164.3" x2="783" y2="147.6"/>
<line class="vnumbers0" x1="741.8" y1="150" x2="773.2" y2="145.1"/>
<line class="vnumbers0" x1="740.2" y1="156.6" x2="755.6" y2="188.5"/>
<line class="vnumbers0" x1="759.6" y1="197.9" x2="765.8" y2="236.3"/>
<line class="vnumbers0" x1="761.6" y1="195.8" x2="801.7" y2="233"/>
<path class="vnumbers0" d="M718.4,235.5c12.8,1.3,29.2,3.9,42.5,5.7"/>
<line class="vnumbers0" x1="737.6" y1="147.6" x2="733.8" y2="111.3"/>
<line class="vnumbers0" x1="704.7" y1="110.9" x2="729" y2="108.3"/>
<line class="vnumbers0" x1="678.9" y1="144.2" x2="733.3" y2="150"/>
<line class="vnumbers0" x1="778.1" y1="140.2" x2="783" y2="125.4"/>
<line class="vnumbers0" x1="764" y1="76.8" x2="780.6" y2="115.6"/>
<line class="vnumbers0" x1="806.4" y1="88.3" x2="786.1" y2="116.2"/>
<line class="vnumbers0" x1="813.1" y1="86" x2="854.8" y2="100.5"/>
<line class="vnumbers0" x1="869.2" y1="63.7" x2="861.4" y2="97.7"/>
<line class="vnumbers0" x1="874" y1="62.5" x2="897.8" y2="82.5"/>
<line class="vnumbers0" x1="904.2" y1="89.9" x2="920.7" y2="102.5"/>
<line class="vnumbers0" x1="861.4" y1="107.4" x2="877.1" y2="140.2"/>
<line class="vnumbers0" x1="864.6" y1="102.5" x2="896.8" y2="89.2"/>
<line class="vnumbers0" x1="903.6" y1="81.5" x2="913.8" y2="60.5"/>
<line class="vnumbers0" x1="905.7" y1="86.4" x2="942.7" y2="83.4"/>
<line class="vnumbers0" x1="275.9" y1="120.1" x2="277.5" y2="130"/>
<path class="vnumbers0" d="M192.7,279.5c0,2.7-2.2,4.9-4.9,4.9s-4.9-2.2-4.9-4.9s2.2-4.9,4.9-4.9
	S192.7,276.8,192.7,279.5z"/>
<path class="vnumbers0" d="M923.6,529.8c0,2.7-2.2,4.9-4.9,4.9s-4.9-2.2-4.9-4.9s2.2-4.9,4.9-4.9
	S923.6,527.1,923.6,529.8z"/>
<path class="vnumbers0" d="M829.1,167.4c0,2.7-2.2,4.9-4.9,4.9s-4.9-2.2-4.9-4.9s2.2-4.9,4.9-4.9
	S829.1,164.7,829.1,167.4z"/>
<path class="vnumbers0" d="M738.7,106.4c0,2.7-2.2,4.9-4.9,4.9s-4.9-2.2-4.9-4.9s2.2-4.9,4.9-4.9
	C736.6,101.5,738.7,103.7,738.7,106.4z"/>
<path class="vnumbers0" d="M770.7,241.2c0,2.7-2.2,4.9-4.9,4.9s-4.9-2.2-4.9-4.9s2.2-4.9,4.9-4.9
	C768.6,236.3,770.7,238.5,770.7,241.2z"/>
<path class="vnumbers0" d="M243.4,170.7c0,2.7-2.2,4.9-4.9,4.9s-4.9-2.2-4.9-4.9s2.2-4.9,4.9-4.9
	C241.2,165.8,243.4,168,243.4,170.7z"/>
<path class="vnumbers0" d="M257.4,152.9c0,2.7-2.2,4.9-4.9,4.9s-4.9-2.2-4.9-4.9s2.2-4.9,4.9-4.9
	C255.4,148,257.4,150.2,257.4,152.9z"/>
<path class="vnumbers0" d="M355.3,41.9c0,2.7-2.2,4.9-4.9,4.9c-2.7,0-4.9-2.2-4.9-4.9s2.2-4.9,4.9-4.9
	S355.3,39.2,355.3,41.9z"/>
<path class="vnumbers0" d="M338.8,36c0,2.7-2.2,4.9-4.9,4.9c-2.7,0-4.9-2.2-4.9-4.9s2.2-4.9,4.9-4.9
	C336.6,31.1,338.8,33.3,338.8,36z"/>
<path class="vnumbers0" d="M353.9,25.6c0,2.7-2.2,4.9-4.9,4.9c-2.7,0-4.9-2.2-4.9-4.9s2.2-4.9,4.9-4.9
	C351.7,20.7,353.9,22.9,353.9,25.6z"/>
<path class="vnumbers2" d="M719.4,347.5c-1.2,5.4-1.7,7.1-3.3,12.3"/>
<path class="vnumbers2" d="M716.9,233.3c1.4,4.8,1.9,6.9,3,11.8"/>
<path class="vnumbers3" d="M752.2,325c-1.8-5.3-7.2-8-7.4-8.1"/>
<path id="svg-concept" class="vnumbers4" d="M683.3,426.5c-40.9,57.4-107.3,94-183.1,94c-124.5,0-225.4-100.9-225.4-225.4
	S375.7,69.6,500.2,69.7c76.8,0,145.9,40.3,184.6,96"/>
<path class="vnumbers3" d="M736.8,321.5c2.1,0,3.8-0.6,4.9-1.6c0.3-0.3,0.6-0.6,0.9-0.9c1.9-1.8,4.3-4.1,4.2-7c-0.1-2-1.3-4-3.8-5.9
	c-2.9-2.3-5.2-3.4-7.2-3.4c-2.5,0-4,1.6-5.7,3.3c-0.2,0.2-0.3,0.4-0.5,0.5c-0.1,0.1-0.3,0.2-0.6,0.2c-1.1,0-3.8-1-10.2-7.3
	c-2.8-2.8-4.8-5.1-6-7s-1.6-3.3-1.1-3.8c0.2-0.2,0.4-0.4,0.5-0.5c1.5-1.5,3-2.9,3.2-5c0.3-2.2-0.7-4.6-3.4-7.9
	c-2-2.5-4.1-3.8-6.2-3.8c-2.8,0-5,2.3-6.8,4.2c-0.3,0.3-0.6,0.6-0.9,0.9c-1.1,1.1-1.6,2.8-1.6,5c0,2.1,0.6,4.6,1.6,7.3
	c2.3,6.1,6.8,12.6,12.7,18.5c4.5,4.5,9.5,8.3,14.3,10.8C729.6,320.3,733.6,321.5,736.8,321.5z"/>
<path class="vnumbers3" d="M744.3,293.5c0-4.6-1.7-9.1-5.2-12.6s-8-5.2-12.6-5.2"/>
<path class="vnumbers3" d="M753.6,292.1c0-6.4-2.4-12.8-7.3-17.7c-4.9-4.9-11.3-7.3-17.7-7.3"/>
<circle class="vnumbers3" cx="703.8" cy="198" r="36.4"/>
<path class="vnumbers3" d="M685.7,187.2c0-1,0.8-1.7,1.7-1.7h32.8c1,0,1.7,0.8,1.7,1.7v21.6c0,1-0.8,1.7-1.7,1.7h-32.8
	c-1,0-1.7-0.8-1.7-1.7V187.2z"/>
<polyline class="vnumbers3" points="720.2,185.5 703.8,197.6 687.4,185.5 "/>
<line class="vnumbers3" x1="698.6" y1="194.1" x2="686.6" y2="209.6"/>
<line class="vnumbers3" x1="709" y1="194.1" x2="721.1" y2="209.6"/>
<circle class="vnumbers3" cx="703.8" cy="395.3" r="36.4"/>
<line class="vnumbers3" x1="703.8" y1="377.3" x2="703.8" y2="413.3"/>
<line class="vnumbers3" x1="685.8" y1="395.3" x2="721.8" y2="395.3"/>
<circle id="svg-concept" class="vnumbers6" cx="414.9" cy="171" r="32.7"/>
<circle class="vnumbers3" cx="412.5" cy="253.7" r="32.7"/>
<circle class="vnumbers3" cx="414.9" cy="336.4" r="32.7"/>
<circle class="vnumbers3" cx="414.9" cy="419.1" r="32.7"/>
<ellipse transform="matrix(0.1735 -0.9848 0.9848 0.1735 242.9089 631.4912)" class="vnumbers3" cx="497.7" cy="171" rx="32.7" ry="32.7"/>
<ellipse transform="matrix(0.1602 -0.9871 0.9871 0.1602 167.5014 704.3369)" class="vnumbers3" cx="497.7" cy="253.7" rx="32.7" ry="32.7"/>
<ellipse id="svg-concept" class="vnumbers6" cx="500.1" cy="336.4" rx="32.7" ry="32.7"/>
<ellipse class="vnumbers3" cx="499.9" cy="419.1" rx="32.7" ry="32.7"/>
<circle class="vnumbers3" cx="582.9" cy="171" r="32.7"/>
<circle id="svg-concept" class="vnumbers6" cx="585.4" cy="253.7" r="32.7"/>
<circle class="vnumbers3" cx="582.9" cy="336.4" r="32.7"/>
<circle class="vnumbers3" cx="582.9" cy="419.1" r="32.7"/>
<g>
	<line class="vnumbers7" x1="419.4" y1="187.1" x2="419.4" y2="155"/>
	<line class="vnumbers7" x1="419.4" y1="155" x2="410.4" y2="155"/>
</g>
<g>
	<line class="vnumbers7" x1="417.2" y1="352.4" x2="417.2" y2="320.4"/>
	<line class="vnumbers7" x1="417.2" y1="320.4" x2="408.4" y2="320.4"/>
	<line class="vnumbers7" x1="421.5" y1="336.4" x2="408.4" y2="336.4"/>
</g>
<g>
	<line class="vnumbers7" x1="508" y1="170.9" x2="508" y2="155"/>
	<line class="vnumbers7" x1="492.2" y1="171.1" x2="508.1" y2="171.1"/>
	<line class="vnumbers7" x1="508" y1="155" x2="492.6" y2="155"/>
	<g>
		<line class="vnumbers7" x1="492.1" y1="171.1" x2="492.1" y2="187.1"/>
		<line class="vnumbers7" x1="492.1" y1="187.1" x2="507.6" y2="187.1"/>
	</g>
</g>
<g>
	<line class="vnumbers7" x1="508" y1="253.8" x2="508" y2="269.8"/>
	<line class="vnumbers7" x1="492.2" y1="253.6" x2="508.1" y2="253.6"/>
	<line class="vnumbers7" x1="508" y1="269.8" x2="492.6" y2="269.8"/>
	<g>
		<line class="vnumbers7" x1="492.1" y1="253.6" x2="492.1" y2="237.7"/>
		<line class="vnumbers7" x1="492.1" y1="237.7" x2="507.6" y2="237.7"/>
	</g>
</g>
<g>
	<line class="vnumbers7" x1="508" y1="320.4" x2="508" y2="352.5"/>
	<line class="vnumbers7" x1="492.2" y1="336.4" x2="508" y2="336.4"/>
	<line class="vnumbers7" x1="508" y1="352.5" x2="492.6" y2="352.5"/>
	<g>
		<line class="vnumbers7" x1="492.2" y1="352.5" x2="492.2" y2="320.4"/>
		<line class="vnumbers7" x1="492.2" y1="320.4" x2="507.6" y2="320.4"/>
	</g>
</g>
<g>
	<line class="vnumbers7" x1="507.9" y1="403" x2="507.9" y2="435.2"/>
	<line class="vnumbers7" x1="507.9" y1="435.2" x2="492.3" y2="435.2"/>
	<g>
		<line class="vnumbers7" x1="491.9" y1="435.2" x2="491.9" y2="403"/>
		<line class="vnumbers7" x1="491.9" y1="403" x2="507.4" y2="403"/>
	</g>
</g>
<g>
	<line class="vnumbers7" x1="593.3" y1="187.1" x2="593.3" y2="155"/>
	<line class="vnumbers7" x1="577.4" y1="171.1" x2="593.4" y2="171.1"/>
	<line class="vnumbers7" x1="593.3" y1="155" x2="577.9" y2="155"/>
	<line class="vnumbers7" x1="577.3" y1="187.1" x2="592.8" y2="187.1"/>
</g>
<g>
	<line class="vnumbers7" x1="407" y1="254.1" x2="407" y2="238"/>
	<line class="vnumbers7" x1="422.7" y1="254.1" x2="406.9" y2="254.1"/>
	<line class="vnumbers7" x1="422.8" y1="238" x2="422.8" y2="269.4"/>
</g>
<g>
	<line class="vnumbers7" x1="577.5" y1="269.4" x2="577.5" y2="238"/>
	<line class="vnumbers7" x1="593.2" y1="254.1" x2="577.4" y2="254.1"/>
	<line class="vnumbers7" x1="593.2" y1="269.4" x2="577.4" y2="269.4"/>
	<line class="vnumbers7" x1="593.3" y1="254.1" x2="593.3" y2="269.4"/>
</g>
<g>
	<line class="vnumbers7" x1="593.2" y1="320.7" x2="593.2" y2="352.1"/>
	<line class="vnumbers7" x1="577.5" y1="336" x2="593.3" y2="336"/>
	<line class="vnumbers7" x1="577.5" y1="320.7" x2="593.3" y2="320.7"/>
	<line class="vnumbers7" x1="577.4" y1="336" x2="577.4" y2="320.7"/>
</g>
<g>
	<line class="vnumbers7" x1="422.9" y1="408.9" x2="418.9" y2="429.3"/>
	<line class="vnumbers7" x1="401.9" y1="422.5" x2="427.8" y2="422.5"/>
	<line class="vnumbers7" x1="401.9" y1="415.5" x2="427.8" y2="415.5"/>
	<line class="vnumbers7" x1="407.2" y1="429.3" x2="411.2" y2="408.9"/>
</g>
<g>
	<line class="vnumbers7" x1="585.6" y1="431.5" x2="585.6" y2="406.6"/>
	<line class="vnumbers7" x1="576.6" y1="427.9" x2="594.1" y2="410.3"/>
	<line class="vnumbers7" x1="576.8" y1="410.3" x2="594.4" y2="427.9"/>
</g>

<path id="svg-concept" class="vnumbers1" d="M282.4,134.9c0,2.7-2.2,4.9-4.9,4.9c-2.7,0-4.9-2.2-4.9-4.9s2.2-4.9,4.9-4.9C280.2,130,282.4,132.2,282.4,134.9
	z"/>
<path id="svg-concept" class="vnumbers1" d="M300.9,118.1c0,2.7-2.2,4.9-4.9,4.9c-2.7,0-4.9-2.2-4.9-4.9c0-2.7,2.2-4.9,4.9-4.9
	C298.7,113.2,300.9,115.4,300.9,118.1z"/>
<path id="svg-concept" class="vnumbers1" d="M280.9,115.2c0,2.7-2.2,4.9-4.9,4.9c-2.7,0-4.9-2.2-4.9-4.9s2.2-4.9,4.9-4.9
	C278.7,110.3,280.9,112.5,280.9,115.2z"/>
<path id="svg-concept" class="vnumbers1" d="M248.1,215.3c0,2.7-2.2,4.9-4.9,4.9s-4.9-2.2-4.9-4.9s2.2-4.9,4.9-4.9C245.9,210.5,248.1,212.6,248.1,215.3z"/>
<path id="svg-concept" class="vnumbers1" d="M101.9,93.4c0,2.7-2.2,4.9-4.9,4.9s-4.9-2.2-4.9-4.9c0-2.7,2.2-4.9,4.9-4.9S101.9,90.7,101.9,93.4z"/>
<path id="svg-concept" class="vnumbers1" d="M92.5,107.1c0,2.7-2.2,4.9-4.9,4.9c-2.7,0-4.9-2.2-4.9-4.9s2.2-4.9,4.9-4.9C90.3,102.2,92.5,104.4,92.5,107.1z"
	/>
<path id="svg-concept" class="vnumbers1" d="M82.1,91.3c0,2.7-2.2,4.9-4.9,4.9c-2.7,0-4.9-2.2-4.9-4.9s2.2-4.9,4.9-4.9C79.9,86.4,82.1,88.6,82.1,91.3z"/>
<path id="svg-concept" class="vnumbers1" d="M180.1,250.9c0,2.7-2.2,4.9-4.9,4.9s-4.9-2.2-4.9-4.9s2.2-4.9,4.9-4.9
	S180.1,248.2,180.1,250.9z"/>
<path id="svg-concept" class="vnumbers1" d="M200,255.2c0,2.7-2.2,4.9-4.9,4.9s-4.9-2.2-4.9-4.9c0-2.7,2.2-4.9,4.9-4.9
	C197.9,250.3,200,252.5,200,255.2z"/>
<path id="svg-concept" class="vnumbers1" d="M294.9,483.6c0,2.7-2.2,4.9-4.9,4.9c-2.7,0-4.9-2.2-4.9-4.9s2.2-4.9,4.9-4.9
	C292.8,478.8,294.9,480.9,294.9,483.6z"/>
<path id="svg-concept" class="vnumbers1" d="M332.6,515.3c0,2.7-2.2,4.9-4.9,4.9c-2.7,0-4.9-2.2-4.9-4.9s2.2-4.9,4.9-4.9
	C330.4,510.4,332.6,512.6,332.6,515.3z"/>
<path id="svg-concept" class="vnumbers1" d="M318.6,531.8c0,2.7-2.2,4.9-4.9,4.9c-2.7,0-4.9-2.2-4.9-4.9s2.2-4.9,4.9-4.9
	C316.4,526.9,318.6,529.1,318.6,531.8z"/>
<path id="svg-concept" class="vnumbers1" d="M441,33.7c0,2.7-2.2,4.9-4.9,4.9c-2.7,0-4.9-2.2-4.9-4.9s2.2-4.9,4.9-4.9C438.9,28.9,441,31,441,33.7z"/>
<path id="svg-concept" class="vnumbers1" d="M423.8,27.4c0,2.7-2.2,4.9-4.9,4.9c-2.7,0-4.9-2.2-4.9-4.9s2.2-4.9,4.9-4.9C421.6,22.5,423.8,24.7,423.8,27.4z"
	/>
<path id="svg-concept" class="vnumbers1" d="M747.3,57.2c0,2.7-2.2,4.9-4.9,4.9s-4.9-2.2-4.9-4.9s2.2-4.9,4.9-4.9C745.1,52.3,747.3,54.5,747.3,57.2z"/>
<path id="svg-concept" class="vnumbers1" d="M767.1,72.2c0,2.7-2.2,4.9-4.9,4.9s-4.9-2.2-4.9-4.9s2.2-4.9,4.9-4.9S767.1,69.5,767.1,72.2z"/>
<path id="svg-concept" class="vnumbers1" d="M742.4,81.1c0,2.7-2.2,4.9-4.9,4.9s-4.9-2.2-4.9-4.9s2.2-4.9,4.9-4.9C740.2,76.2,742.4,78.4,742.4,81.1z"/>
<path id="svg-concept" class="vnumbers1" d="M850,209.7c0,2.7-2.2,4.9-4.9,4.9s-4.9-2.2-4.9-4.9s2.2-4.9,4.9-4.9C847.8,204.8,850,207,850,209.7z"/>
<path id="svg-concept" class="vnumbers1" d="M952.6,83.4c0,2.7-2.2,4.9-4.9,4.9s-4.9-2.2-4.9-4.9s2.2-4.9,4.9-4.9
	S952.6,80.7,952.6,83.4z"/>
<path id="svg-concept" class="vnumbers1" d="M962.7,98.5c0,2.7-2.2,4.9-4.9,4.9s-4.9-2.2-4.9-4.9s2.2-4.9,4.9-4.9
	C960.6,93.6,962.7,95.8,962.7,98.5z"/>
<path id="svg-concept" class="vnumbers1" d="M864.1,379.4c0,2.7-2.2,4.9-4.9,4.9s-4.9-2.2-4.9-4.9s2.2-4.9,4.9-4.9
	C862,374.5,864.1,376.7,864.1,379.4z"/>
<path id="svg-concept" class="vnumbers1" d="M861.8,404.4c0,2.7-2.2,4.9-4.9,4.9s-4.9-2.2-4.9-4.9s2.2-4.9,4.9-4.9
	C859.6,399.6,861.8,401.7,861.8,404.4z"/>
<path id="svg-concept" class="vnumbers1" d="M843.1,393c0,2.7-2.2,4.9-4.9,4.9s-4.9-2.2-4.9-4.9s2.2-4.9,4.9-4.9
	C841,388.1,843.1,390.3,843.1,393z"/>
<path id="svg-concept" class="vnumbers1" d="M957.9,509c0,2.7-2.2,4.9-4.9,4.9s-4.9-2.2-4.9-4.9c0-2.7,2.2-4.9,4.9-4.9S957.9,506.3,957.9,509z"/>
<path id="svg-concept" class="vnumbers1" d="M945.6,529.8c0,2.7-2.2,4.9-4.9,4.9s-4.9-2.2-4.9-4.9s2.2-4.9,4.9-4.9
	S945.6,527.1,945.6,529.8z"/>

<g>
<circle id="svg-concept" class="vnumbers5" cx="725.1" cy="296" r="50.6"/>
	<animate 
	attributeName="opacity"
    values="0;1;0" 
    dur="1s"
    repeatCount="indefinite"/>
</g>

<g>
<path id="svg-concept" class="vnumbers8" d="M687,160.4c0,3.1-2.5,5.7-5.7,5.7c-3.1,0-5.7-2.5-5.7-5.7s2.5-5.7,5.7-5.7
	S687,157.2,687,160.4z"/>
	<animateTransform  
	attributeName="transform" 
	dur="5s"

	from="0 495 305" 
	to="-285 510 295" 

	type="rotate"
	repeatCount="indefinite" >
	</animateTransform>
</g>
</svg>
