<?xml version="1.0" encoding="utf-8"?>
<!-- Generator: Adobe Illustrator 22.0.0, SVG Export Plug-In . SVG Version: 6.00 Build 0)  -->
<svg version="1.1" id="Layer_1" xmlns="http://www.w3.org/2000/svg" xmlns:xlink="http://www.w3.org/1999/xlink" x="0px" y="0px"
	 viewBox="0 0 1100.6 600.5" style="enable-background:new 0 0 1100.6 600.5;" xml:space="preserve">
<style type="text/css">
	.voice0{fill:none;stroke:#808080;stroke-linecap:round;stroke-linejoin:round;stroke-miterlimit:10;}
	.voice1{fill:none;stroke:#EE5586;stroke-width:2;stroke-linecap:round;stroke-linejoin:round;stroke-miterlimit:10;}
	.voice2{fill-rule:evenodd;clip-rule:evenodd;fill:none;stroke:#808080;stroke-width:2;stroke-linecap:round;stroke-linejoin:round;stroke-miterlimit:10;}
	.voice3{fill-rule:evenodd;clip-rule:evenodd;fill:none;stroke:#EE5586;stroke-width:2;stroke-linecap:round;stroke-linejoin:round;stroke-miterlimit:10;}
	.voice4{fill:none;stroke:#808080;stroke-width:2;stroke-linecap:round;stroke-linejoin:round;stroke-miterlimit:10;}
	.voice5{fill:none;stroke:#EE5586;stroke-width:3;stroke-linecap:round;stroke-linejoin:round;stroke-miterlimit:10;}
	.voice6{fill:none;stroke:#EE5586;stroke-linecap:round;stroke-linejoin:round;stroke-miterlimit:10;}
	.voice7{fill:none;stroke:#808080;stroke-width:2;stroke-linecap:round;stroke-linejoin:round;stroke-miterlimit:10;stroke-dasharray:14;}
	.voice8{fill:none;stroke:#FFFFFF;stroke-linecap:round;stroke-linejoin:round;stroke-miterlimit:10;}
	.voice9{fill:none;stroke:#EE5586;stroke-width:4;stroke-linecap:round;stroke-linejoin:round;stroke-miterlimit:10;}
	.voice10{fill:none;stroke:#808080;stroke-width:3;stroke-linecap:round;stroke-linejoin:round;stroke-miterlimit:10;}
	.voice11{fill:#FFFFFF;stroke:#EE5586;stroke-width:3;stroke-linecap:round;stroke-linejoin:round;stroke-miterlimit:10;}
</style>
<path class="voice0" d="M854.9,278.2c-2.3,0-4.1-1.8-4.1-4.1s1.8-4.1,4.1-4.1c2.3,0,4.1,1.8,4.1,4.1S857.3,278.2,854.9,278.2z"/>
<path class="voice0" d="M800.6,219.4c-2.3,0-4.1-1.8-4.1-4.1c0-2.3,1.8-4.1,4.1-4.1c2.3,0,4.1,1.8,4.1,4.1
	C804.7,217.7,802.8,219.4,800.6,219.4z"/>
<path id="svg-concept" class="voice1" d="M943.6,81.7c-2.3,0-4.1-1.8-4.1-4.1c0-2.3,1.8-4.1,4.1-4.1c2.3,0,4.1,1.8,4.1,4.1
	C947.7,79.8,945.9,81.7,943.6,81.7z"/>
<path id="svg-concept" class="voice1" d="M895.6,33.1c0,3-2.5,5.5-5.5,5.5s-5.5-2.5-5.5-5.5s2.5-5.5,5.5-5.5S895.6,30.1,895.6,33.1
	z"/>
<path id="svg-concept" class="voice1" d="M864.5,123c0,3-2.5,5.5-5.5,5.5c-3,0-5.5-2.5-5.5-5.5s2.5-5.5,5.5-5.5
	C862.1,117.6,864.5,119.9,864.5,123z"/>
<path id="svg-concept" class="voice1" d="M802,370.4c0,3-2.5,5.5-5.5,5.5s-5.5-2.5-5.5-5.5c0-3,2.5-5.5,5.5-5.5
	C799.5,365.1,802,367.4,802,370.4z"/>
<path class="voice2" d="M68.2,239.7H40.6c-1.6,0-3,1.3-3,3V294c0,1.6,1.3,3,3,3h27.7c1.6,0,3-1.3,3-3v-51.4
	C71.2,241,69.9,239.7,68.2,239.7z"/>
<rect x="42.2" y="245.6" id="svg-concept" class="voice3" width="24.3" height="41.5"/>
<line class="voice0" x1="50.2" y1="251.7" x2="48.5" y2="253.4"/>
<line class="voice0" x1="57.4" y1="251.7" x2="47.6" y2="261.5"/>
<ellipse transform="matrix(8.248048e-02 -0.9966 0.9966 8.248048e-02 36.6339 240.9787)" class="voice4" cx="149.2" cy="100.6" rx="35.4" ry="35.4"/>
<circle id="svg-concept" class="voice5" cx="54.4" cy="267.4" r="49.2"/>
<ellipse transform="matrix(0.2112 -0.9774 0.9774 0.2112 -309.3458 490.3493)" class="voice4" cx="149.1" cy="436.8" rx="35.4" ry="35.4"/>
<path class="voice4" d="M493.8,65.2c0,0,4.3,53.9,6,68.7c1.7,14.7,17.8,32.4,45,48.5c21.3,11.9,21.9,24.8,5.4,35.1
	c-26.2,18.4,7,33.5,7.6,44.3c0.5,10.9-45.3,13.2-7.8,20.1c27.4,5.4-9.7,24.2,0.3,46.7c6.3,14.2,2.6,25.5-28.2,23.1
	c-82.2-6.6-110.7,22.5-119.7,61.9"/>
<path class="voice4" d="M936.6,362.8c15.9,9.9,34.5,15.6,54.6,15.6c57.2,0,103.7-46.7,103.7-104.3s-46.3-104.3-103.7-104.3
	c-15.6,0-30.4,3.5-43.6,9.6"/>
<path class="voice4" d="M1021.5,174.3c0,0-2.1,26.5-3,33.7c-0.9,7.2-8.7,16-22,23.9c-10.4,5.9-10.7,12.1-2.6,17.2
	c12.9,9-3.5,16.5-3.7,21.9c-0.2,5.4,22.2,6.5,3.9,9.9c-13.4,2.6,4.7,12-0.1,23c-3,7-1.2,12.5,13.7,11.4
	c40.2-3.2,54.1,11.1,58.6,30.5"/>
<rect x="132.7" y="87" class="voice4" width="33" height="22"/>
<line class="voice4" x1="129.9" y1="114.3" x2="168.4" y2="114.3"/>
<path class="voice4" d="M149.4,401.5c0,0-1.9,2.7-4.3,3.9c-2.3,1.3,0,3.1,0,3.1l-3.6,3.6l-4.8,2.7l-5.6-0.6l0.6-3.6l3.1-1.9l0.5-2.7
	l-0.5-1.6"/>
<path class="voice4" d="M125.2,410.8v9.2l-1,0.6l-1,9.7c0,0-3.7,1.5-4.2,1.5l-5.1,2.1"/>
<path class="voice4" d="M114.6,444.6l5-2.1l3.7,2.9l-0.6,1l3.7,4.2h1l3.7,2.1l1.6,0.8c0,0-0.2,1,0,1.5c0.2,0.5-1.3,2.5-1.3,2.5v2.7
	l2.3,2.7l1,1l4.2,2.1l4.3,5.7"/>
<path class="voice4" d="M167.8,406.8c-0.5-0.2-4.6,5.5-4.6,5.5l1.3,3.1l-0.8,0.6l-2.9,1.5l-3.6,1.9c0,0-1.3,2.9-2.3,3.7
	c-1,0.8-3.4,2.7-3.4,2.7l-2.7,6.5l-3.6,7.1l0.2,3.7l3.1,3.7l3.7-2.1l2.7,1.3l0.2,4.4l2.1,2.1c0,0-0.5,1.3-0.6,1.6l-1.3,2.7l-1.3,0.6
	l0.8,3.7l3.4,3.4c0,0,2.9-1.9,3.1-2.3c0.2-0.2,2.3-5,2.3-5l4.8-4.8l2.7-3.7l2.1-4.8l-1-2.9l-1.5-1.6l1-1.6c0,0,2.5-2.3,2.7-1.6
	c0.2,0.6,1.3,4.8,1.3,4.8l3.6-1l0.2-1l4.8-1.1"/>
<path id="svg-concept" class="voice1" d="M1046.6,274.5c-0.5,1.6,1.1,6.2,6.5,6.2c6.2,0,22.2-15.5,22-26.2
	c-0.2-8.6-6.4-12.6-13.4-12.6c-7-0.1-12.9,4.6-12.4,10.1"/>
<path id="svg-concept" class="voice6" d="M1063.7,256.5c1.4,2.7,2.9,7-3.4,11.4"/>
<path id="svg-concept" class="voice6" d="M1057.3,260.6c-5.4-4-2.1-11.1,4.5-11.4c3.5-0.1,6.4,1.9,7.6,4.9"/>
<line id="svg-concept" class="voice5" x1="103.6" y1="267.4" x2="344.1" y2="267.4"/>
<line class="voice7" x1="184.6" y1="141.1" x2="310.2" y2="248.5"/>
<line class="voice7" x1="304.1" y1="287.8" x2="184.6" y2="395.7"/>
<path class="voice8" d="M913.2,278.1c-2.1,0-3.7-1.6-3.7-3.7s1.6-3.7,3.7-3.7c2.1,0,3.7,1.6,3.7,3.7C917,276.4,915.3,278.1,913.2,278.1
	z"/>
<path class="voice0" d="M947.3,217.4c-2.1,0-3.7-1.6-3.7-3.7c0-2.1,1.6-3.7,3.7-3.7c2.1,0,3.7,1.6,3.7,3.7
	C951.1,215.8,949.3,217.4,947.3,217.4z"/>
<path class="voice4" d="M909.5,151.4c-2.1,0-3.7-1.6-3.7-3.7c0-2.1,1.6-3.7,3.7-3.7c2.1,0,3.7,1.6,3.7,3.7
	C913.1,149.7,911.5,151.4,909.5,151.4z"/>
<path id="svg-concept" class="voice1" d="M939.6,328.7c0,2.7-2.2,5-5,5c-2.7,0-5-2.2-5-5c0-2.7,2.2-5,5-5
	C937.3,323.7,939.6,326,939.6,328.7z"/>
<path id="svg-concept" class="voice1" d="M977.7,128c0,2.7-2.2,5-5,5s-5-2.2-5-5c0-2.7,2.2-5,5-5S977.7,125.1,977.7,128z"/>
<path id="svg-concept" class="voice6" d="M867.9,209.9c0,2.7-2.2,5-5,5s-5-2.2-5-5s2.2-5,5-5C865.6,205,867.9,207.2,867.9,209.9z"
	/>
<line class="voice0" x1="15.6" y1="595.4" x2="15.6" y2="581.1"/>
<line class="voice0" x1="31.9" y1="595.4" x2="31.9" y2="551"/>
<line class="voice0" x1="48.3" y1="595.4" x2="48.3" y2="561.3"/>
<line class="voice0" x1="64.7" y1="595.4" x2="64.7" y2="523"/>
<line class="voice0" x1="81.1" y1="595.4" x2="81.1" y2="588.3"/>
<line id="svg-concept" class="voice1" x1="97.4" y1="595.4" x2="97.4" y2="559.2"/>
<line id="svg-concept" class="voice1" x1="113.8" y1="595.4" x2="113.8" y2="523"/>
<line class="voice0" x1="130.2" y1="595.4" x2="130.2" y2="544.2"/>
<line class="voice0" x1="146.5" y1="595.4" x2="146.5" y2="533.9"/>
<line class="voice0" x1="162.8" y1="595.4" x2="162.8" y2="547.6"/>
<line class="voice0" x1="179.2" y1="595.4" x2="179.2" y2="564.7"/>
<line id="svg-concept" class="voice1" x1="195.6" y1="595.4" x2="195.6" y2="581.1"/>
<line id="svg-concept" class="voice1" x1="212" y1="595.4" x2="212" y2="543.5"/>
<line id="svg-concept" class="voice1" x1="228.4" y1="595.4" x2="228.4" y2="533.9"/>
<line class="voice0" x1="244.7" y1="595.4" x2="244.7" y2="564.7"/>
<line class="voice0" x1="261.1" y1="594.8" x2="261.1" y2="523"/>
<line class="voice0" x1="277.5" y1="595.4" x2="277.5" y2="543.5"/>
<line class="voice0" x1="293.9" y1="595.4" x2="293.9" y2="559.2"/>
<line class="voice0" x1="310.2" y1="595.4" x2="310.2" y2="523"/>
<line class="voice0" x1="326.6" y1="595.4" x2="326.6" y2="580.1"/>
<line class="voice0" x1="342.9" y1="595.4" x2="342.9" y2="569.5"/>
<line class="voice0" x1="359.3" y1="595.4" x2="359.3" y2="514"/>
<line class="voice0" x1="375.6" y1="595.4" x2="375.6" y2="535.9"/>
<line id="svg-concept" class="voice1" x1="392" y1="595.4" x2="392" y2="554.4"/>
<line id="svg-concept" class="voice1" x1="408.4" y1="595.4" x2="408.4" y2="523"/>
<line id="svg-concept" class="voice1" x1="424.8" y1="595.4" x2="424.8" y2="535.9"/>
<line id="svg-concept" class="voice1" x1="441.1" y1="595.4" x2="441.1" y2="565.7"/>
<line class="voice0" x1="457.5" y1="595.4" x2="457.5" y2="554.4"/>
<line class="voice0" x1="473.9" y1="595.4" x2="473.9" y2="569.5"/>
<line class="voice0" x1="490.3" y1="595.4" x2="490.3" y2="533.9"/>
<line class="voice0" x1="506.6" y1="595.4" x2="506.6" y2="516.8"/>
<line class="voice0" x1="522.9" y1="595.4" x2="522.9" y2="535.9"/>
<line class="voice0" x1="539.3" y1="595.4" x2="539.3" y2="561.3"/>
<line id="svg-concept" class="voice1" x1="555.7" y1="595.4" x2="555.7" y2="523"/>
<line class="voice0" x1="572.1" y1="595.4" x2="572.1" y2="544.2"/>
<line class="voice0" x1="588.4" y1="595.4" x2="588.4" y2="569.5"/>
<line class="voice0" x1="604.4" y1="595.4" x2="604.4" y2="559.2"/>
<line class="voice0" x1="620.7" y1="595.4" x2="620.7" y2="543.5"/>
<line class="voice0" x1="637.1" y1="595.4" x2="637.1" y2="580.1"/>
<line class="voice0" x1="653.5" y1="595.4" x2="653.5" y2="569.5"/>
<line class="voice0" x1="669.9" y1="595.4" x2="669.9" y2="514"/>
<line class="voice0" x1="686.2" y1="595.4" x2="686.2" y2="535.9"/>
<line id="svg-concept" class="voice1" x1="702.6" y1="595.4" x2="702.6" y2="554.4"/>
<line id="svg-concept" class="voice1" x1="719" y1="595.4" x2="719" y2="523"/>
<line id="svg-concept" class="voice1" x1="735.4" y1="595.4" x2="735.4" y2="503.1"/>
<line id="svg-concept" class="voice1" x1="751.7" y1="595.4" x2="751.7" y2="565.7"/>
<line class="voice0" x1="768" y1="595.4" x2="768" y2="554.4"/>
<line class="voice0" x1="784.4" y1="595.4" x2="784.4" y2="569.5"/>
<line class="voice0" x1="800.8" y1="595.4" x2="800.8" y2="533.9"/>
<line class="voice0" x1="817.2" y1="595.4" x2="817.2" y2="516.8"/>
<line class="voice0" x1="833.5" y1="595.4" x2="833.5" y2="535.9"/>
<line class="voice0" x1="849.9" y1="595.4" x2="849.9" y2="561.3"/>
<line id="svg-concept" class="voice1" x1="866.3" y1="595.4" x2="866.3" y2="523"/>
<line class="voice0" x1="882.7" y1="595.4" x2="882.7" y2="544.2"/>
<line class="voice0" x1="899" y1="595.4" x2="899" y2="569.5"/>
<line class="voice0" x1="899" y1="595.4" x2="899" y2="514"/>
<line class="voice0" x1="915.3" y1="595.4" x2="915.3" y2="535.9"/>
<line id="svg-concept" class="voice1" x1="931.7" y1="595.4" x2="931.7" y2="554.4"/>
<line id="svg-concept" class="voice1" x1="948" y1="595.4" x2="948" y2="523"/>
<line id="svg-concept" class="voice1" x1="964.4" y1="595.4" x2="964.4" y2="503.1"/>
<line id="svg-concept" class="voice1" x1="980.8" y1="595.4" x2="980.8" y2="565.7"/>
<line class="voice0" x1="997.1" y1="595.4" x2="997.1" y2="554.4"/>
<line class="voice0" x1="1013.5" y1="595.4" x2="1013.5" y2="569.5"/>
<line class="voice0" x1="1029.9" y1="595.4" x2="1029.9" y2="533.9"/>
<line class="voice0" x1="1046.3" y1="595.4" x2="1046.3" y2="516.8"/>
<line class="voice0" x1="1062.6" y1="595.4" x2="1062.6" y2="535.9"/>
<line class="voice0" x1="1079" y1="595.4" x2="1079" y2="561.3"/>
<line id="svg-concept" class="voice1" x1="1095.4" y1="595.4" x2="1095.4" y2="554.4"/>
<path id="svg-concept" class="voice9" d="M667.4,447.9c-32.4,20.1-70.6,31.7-111.4,31.7c-117,0-211.9-94.9-211.9-211.9
	S438.9,55.9,555.9,55.9c31.9,0,62.1,7,89.1,19.7"/>
<g>
	<path class="voice10" d="M679.6,95.8c53.4,38.4,88.1,101.2,88.1,172c0,58-23.3,110.5-61.1,148.9"/>
	
		<animate  accumulate="none" additive="replace" attributeName="opacity" begin="1s" calcMode="linear" dur="2s" fill="remove" repeatCount="indefinite" restart="always" values="0;3;0">
		</animate>
</g>
<g>
	<path class="voice10" d="M640.1,137.2c47.1,25.6,79.1,75.5,79.1,132.9c0,43.8-18.6,83.1-48.3,110.8"/>
	
		<animate  accumulate="none" additive="replace" attributeName="opacity" begin="2s" calcMode="linear" dur="2s" fill="remove" repeatCount="indefinite" restart="always" values="0;3;0">
		</animate>
</g>
<g>
	<path class="voice4" d="M612.1,177.1c31.5,19,52.5,53.5,52.5,93.1c0,33.7-15.4,63.8-39.4,83.8"/>
	
		<animate  accumulate="none" additive="replace" attributeName="opacity" begin="3s" calcMode="linear" dur="2s" fill="remove" repeatCount="indefinite" restart="always" values="0;3;0">
		</animate>
</g>
<g>
	<path id="svg-concept" class="voice11" d="M341.7,267.8c0,3.6-2.8,6.5-6.5,6.5c-3.6,0-6.5-2.8-6.5-6.5s2.8-6.5,6.5-6.5
		C338.8,261.3,341.7,264.1,341.7,267.8z"/>
	
		<animateMotion  accumulate="none" additive="replace" begin="0s" calcMode="paced" dur="3s" fill="remove" 
			path="M0, 0 -225 0 0 0" repeatCount="indefinite" restart="always">
		</animateMotion>
</g>
</svg>
