<?xml version="1.0" encoding="iso-8859-1"?>
<!-- Generator: Adobe Illustrator 21.0.0, SVG Export Plug-In . SVG Version: 6.00 Build 0)  -->
<svg xmlns="http://www.w3.org/2000/svg" xmlns:xlink="http://www.w3.org/1999/xlink" version="1.1" id="Capa_1" x="0px" y="0px" viewBox="0 0 512.017 512.017" style="enable-background:new 0 0 512.017 512.017;" xml:space="preserve" width="512px" height="512px">
<g>
	<g>
		<path d="M476.015,283.52c1.197-9.125,1.818-18.317,1.86-27.52c-0.014-79.224-42.304-152.42-110.933-192V42.667    C366.942,14.652,311.134,0,256.008,0S145.075,14.652,145.075,42.667V64C76.446,103.58,34.156,176.776,34.142,256    c0.042,9.203,0.663,18.395,1.86,27.52c-21.487,7.168-35.994,17.946-35.994,32.213v153.6c0,14.959,16,26.069,39.253,33.212    c0.162,0.077,0.333,0.094,0.495,0.154c23.17,6.445,47.137,9.577,71.185,9.301c51.2,0,102.938-12.663,110.08-36.915    c23.206,3.709,46.853,3.709,70.059,0c3.541,12.092,18.193,21.274,38.332,27.46c0.162,0.077,0.333,0.094,0.495,0.154    c23.165,6.444,47.125,9.575,71.168,9.301c55.125,0,110.933-14.652,110.933-42.667v-153.6    C512.008,301.466,497.502,290.688,476.015,283.52z M366.942,83.883C425.458,121.565,460.817,186.4,460.808,256    c-0.042,7.678-0.518,15.347-1.425,22.972c-8.347-1.811-16.784-3.175-25.276-4.087c0.695-6.271,1.062-12.575,1.101-18.884    c0.199-54.912-25.001-106.831-68.267-140.646V83.883z M256.008,17.067c60.732,0,93.867,16.913,93.867,25.6    c0,8.687-33.135,25.6-93.867,25.6s-93.867-16.913-93.867-25.6C162.142,33.98,195.277,17.067,256.008,17.067z M256.008,170.667    c-9.199,0-17.69-0.427-25.6-1.118v-34.133c8.414,0.708,17.007,1.109,25.6,1.109c36.48,0,73.165-6.46,93.867-18.918v27.46    C349.875,153.754,316.74,170.667,256.008,170.667z M349.875,168.789v27.477c0,8.687-33.135,25.6-93.867,25.6    c-9.199,0-17.69-0.427-25.6-1.118v-34.15c8.414,0.708,17.007,1.109,25.6,1.109C292.488,187.708,329.173,181.248,349.875,168.789z     M256.008,119.467c-9.199,0-17.69-0.427-25.6-1.118V84.215c8.414,0.708,17.007,1.109,25.6,1.109    c36.48,0,73.165-6.46,93.867-18.918v27.46C349.875,102.554,316.74,119.467,256.008,119.467z M196.275,164.002v-33.69    c5.444,1.246,11.17,2.287,17.067,3.166v34.014C207.095,166.494,201.395,165.316,196.275,164.002z M213.342,184.644v34.014    c-6.246-0.998-11.947-2.176-17.067-3.49v-33.69C201.719,182.724,207.445,183.765,213.342,184.644z M196.275,112.802v-33.69    c5.444,1.246,11.17,2.287,17.067,3.166v34.014C207.095,115.294,201.395,114.116,196.275,112.802z M162.142,66.415    c5.407,3.184,11.126,5.806,17.067,7.825v32.998c-11.187-4.668-17.067-9.737-17.067-13.372V66.415z M162.142,117.615    c5.407,3.187,11.125,5.812,17.067,7.834v32.99c-11.187-4.668-17.067-9.737-17.067-13.372V117.615z M162.142,168.815    c5.407,3.187,11.125,5.812,17.067,7.834v32.99c-11.187-4.668-17.067-9.737-17.067-13.372V168.815z M145.075,83.883v31.471    C101.81,149.169,76.609,201.088,76.808,256c0.039,6.31,0.406,12.613,1.101,18.884c-8.492,0.912-16.929,2.277-25.276,4.087    c-0.908-7.624-1.383-15.294-1.425-22.972C51.2,186.4,86.559,121.565,145.075,83.883z M34.142,482.697    c-11.187-4.659-17.067-9.728-17.067-13.363v-27.452c5.407,3.184,11.126,5.806,17.067,7.825V482.697z M34.142,431.497    c-11.187-4.659-17.067-9.728-17.067-13.363v-27.452c5.407,3.184,11.126,5.806,17.067,7.825V431.497z M34.142,380.305    c-11.187-4.668-17.067-9.737-17.067-13.372v-27.452c5.407,3.184,11.126,5.806,17.067,7.825V380.305z M68.275,491.759    c-6.246-0.998-11.947-2.176-17.067-3.49v-33.69c5.444,1.246,11.17,2.287,17.067,3.166V491.759z M68.275,440.559    c-6.246-0.998-11.947-2.176-17.067-3.49v-33.69c5.444,1.246,11.17,2.287,17.067,3.166V440.559z M68.275,389.359    c-6.246-0.998-11.947-2.176-17.067-3.49v-33.69c5.444,1.246,11.17,2.287,17.067,3.166V389.359z M204.808,469.333    c0,8.687-33.135,25.6-93.867,25.6c-9.199,0-17.69-0.427-25.6-1.118v-34.133c8.414,0.708,17.007,1.109,25.6,1.109    c36.48,0,73.165-6.46,93.867-18.918V469.333z M204.808,418.133c0,8.687-33.135,25.6-93.867,25.6c-9.199,0-17.69-0.427-25.6-1.118    v-34.125c8.414,0.708,17.007,1.109,25.6,1.109c36.48,0,73.165-6.46,93.867-18.918V418.133z M204.808,366.933    c0,8.687-33.135,25.6-93.867,25.6c-9.199,0-17.69-0.427-25.6-1.118v-34.133c8.414,0.708,17.007,1.109,25.6,1.109    c36.48,0,73.165-6.46,93.867-18.918V366.933z M110.942,341.333c-60.732,0-93.867-16.913-93.867-25.6    c0-7.484,24.644-21.043,70.289-24.67c0.465,0.011,0.93-0.015,1.391-0.077h0.085c6.878-0.563,14.251-0.853,22.101-0.853    c60.732,0,93.867,16.913,93.867,25.6S171.673,341.333,110.942,341.333z M290.142,457.916c-22.601,3.746-45.665,3.746-68.267,0    v-25.984c22.547,4.358,45.72,4.358,68.267,0V457.916z M290.142,315.733v98.722c-22.505,4.779-45.762,4.779-68.267,0v-98.722    c0-28.015-55.808-42.667-110.933-42.667c-5.359,0-10.701,0.179-16.026,0.452c-0.658-5.817-1.006-11.665-1.041-17.519    c-0.181-44.826,18.381-87.687,51.2-118.221v58.487c0,14.959,16,26.069,39.253,33.212c0.162,0.077,0.333,0.094,0.495,0.154    c23.17,6.445,47.137,9.577,71.185,9.301c55.125,0,110.933-14.652,110.933-42.667v-58.487    c32.818,30.534,51.381,73.395,51.2,118.221c-0.035,5.854-0.383,11.702-1.041,17.519c-5.325-0.273-10.667-0.452-16.026-0.452    C345.95,273.067,290.142,287.718,290.142,315.733z M324.275,482.705c-11.187-4.668-17.067-9.737-17.067-13.372v-27.452    c5.407,3.187,11.125,5.812,17.067,7.834V482.705z M324.275,431.505c-11.187-4.668-17.067-9.737-17.067-13.372v-27.452    c5.407,3.187,11.125,5.812,17.067,7.834V431.505z M324.275,380.305c-11.187-4.668-17.067-9.737-17.067-13.372v-27.452    c5.407,3.187,11.125,5.812,17.067,7.834V380.305z M358.408,491.759c-6.246-0.998-11.947-2.176-17.067-3.49v-33.69    c5.444,1.246,11.17,2.287,17.067,3.166V491.759z M358.408,440.559c-6.246-0.998-11.947-2.176-17.067-3.49v-33.69    c5.444,1.246,11.17,2.287,17.067,3.166V440.559z M358.408,389.359c-6.246-0.998-11.947-2.176-17.067-3.49v-33.69    c5.444,1.246,11.17,2.287,17.067,3.166V389.359z M494.942,469.333c0,8.687-33.135,25.6-93.867,25.6    c-9.199,0-17.69-0.427-25.6-1.118v-34.133c8.414,0.708,17.007,1.109,25.6,1.109c36.48,0,73.165-6.46,93.867-18.918V469.333z     M494.942,418.133c0,8.687-33.135,25.6-93.867,25.6c-9.199,0-17.69-0.427-25.6-1.118v-34.133c8.414,0.708,17.007,1.109,25.6,1.109    c36.48,0,73.165-6.46,93.867-18.918V418.133z M494.942,366.933c0,8.687-33.135,25.6-93.867,25.6c-9.199,0-17.69-0.427-25.6-1.118    v-34.133c8.414,0.708,17.007,1.109,25.6,1.109c36.48,0,73.165-6.46,93.867-18.918V366.933z M401.075,341.333    c-60.732,0-93.867-16.913-93.867-25.6s33.135-25.6,93.867-25.6c7.851,0,15.223,0.29,22.135,0.802h0.085    c0.443,0.068,0.891,0.102,1.34,0.102c45.662,3.652,70.306,17.212,70.306,24.695C494.942,324.42,461.807,341.333,401.075,341.333z" fill="#8bc34a"/>
	</g>
</g>
<g>
</g>
<g>
</g>
<g>
</g>
<g>
</g>
<g>
</g>
<g>
</g>
<g>
</g>
<g>
</g>
<g>
</g>
<g>
</g>
<g>
</g>
<g>
</g>
<g>
</g>
<g>
</g>
<g>
</g>
</svg>
