<?xml version="1.0"?>
<svg xmlns="http://www.w3.org/2000/svg" xmlns:xlink="http://www.w3.org/1999/xlink" version="1.1" id="Layer_1" x="0px" y="0px" viewBox="0 0 511.999 511.999" style="enable-background:new 0 0 511.999 511.999;" xml:space="preserve" width="512px" height="512px" class=""><g><path style="fill:#85AAC6;" d="M395.548,273.846h108.368L434.37,191.53c-5.575-6.59-11.826-8.048-15.177-8.316h-35.671v78.606  C383.522,268.461,388.905,273.846,395.548,273.846z" data-original="#85AAC6"/><rect x="326.615" y="183.215" style="fill:#C6CBCC;" width="19.043" height="181.265" data-original="#C6CBCC" class=""/><path style="fill:#5D8DA5;" d="M402.562,261.819v-78.606h-19.04v78.606c0,6.642,5.384,12.026,12.026,12.026h19.04  C407.947,273.846,402.562,268.461,402.562,261.819z" data-original="#5D8DA5"/><path style="fill:#EBE7E3" d="M404.867,315.986c-26.739,0-48.493,21.755-48.493,48.496c0,26.738,21.754,48.492,48.493,48.492  s48.493-21.753,48.493-48.492C453.362,337.741,431.607,315.986,404.867,315.986z M404.867,378.335  c-7.641,0-13.858-6.216-13.858-13.857c0-7.64,6.216-13.856,13.858-13.856c7.639,0,13.856,6.215,13.856,13.856  S412.507,378.335,404.867,378.335z" data-original="#767574" class="" data-old_color="#E1D9D1"/><path style="fill:#FFEF0F" d="M306.924,98.984c-9.712,0-270.113,0-280.034,0c-10.874,0-19.691,8.815-19.691,19.691v226.114  c0,10.875,8.816,19.69,19.691,19.69h39.127c0.002-26.504,21.487-47.992,47.994-47.992c26.505,0,47.991,21.487,47.992,47.992  c9.16,0,157.708,0,164.609,0c0-2.829,0-230.433,0-245.804C326.614,107.799,317.798,98.984,306.924,98.984z" data-original="#FFC41F" class="" data-old_color="#ffef0f"/><path style="fill:#EAAD13;" d="M25.24,344.789V118.675c0-10.875,8.816-19.691,19.691-19.691H26.89  c-10.874,0-19.691,8.815-19.691,19.691v226.114c0,10.875,8.816,19.69,19.691,19.69h18.04  C34.056,364.479,25.24,355.665,25.24,344.789z" data-original="#EAAD13"/><path style="fill:#F5F5F5;" d="M242.62,206.873l-34.426-34.426c-7.828-7.83-20.511-7.837-28.344-0.002  c-7.837,7.833-7.838,20.512-0.003,28.347l10.893,10.895H95.806c-11.053,0-20.044,8.991-20.044,20.044s8.991,20.045,20.044,20.045  h94.933c-10.921,10.921-16.765,14.875-16.765,25.066c0,17.922,21.698,26.69,34.219,14.173l34.428-34.428  C256.324,242.883,256.324,220.582,242.62,206.873z" data-original="#F5F5F5"/><path style="fill:#E1E4E5;" d="M244.35,208.75c1.368,10.465-1.95,21.43-9.97,29.451l-34.428,34.427  c-7.024,7.026-17.972,7.783-25.861,2.089c-1.966,18.922,20.879,29.517,34.102,16.298l34.428-34.428  C255.717,243.49,256.288,222.546,244.35,208.75z" data-original="#E1E4E5"/><path style="fill:#EBE7E3" d="M114.012,315.986c-26.74,0-48.495,21.755-48.495,48.496c0,26.738,21.755,48.492,48.495,48.492  c26.739,0,48.493-21.753,48.493-48.492C162.506,337.741,140.752,315.986,114.012,315.986z M114.012,378.335  c-7.641,0-13.858-6.216-13.858-13.857c0-7.64,6.216-13.856,13.858-13.856c7.639,0,13.856,6.215,13.856,13.856  C127.867,372.119,121.652,378.335,114.012,378.335z" data-original="#767574" class="" data-old_color="#E1D9D1"/><g>
	<path style="fill:#D2DADF" d="M391.637,368.606c-0.835-2.678-0.84-5.567,0.002-8.256c1.592-18.759,13.899-34.5,30.767-41.067   c-31.786-12.385-66.032,11.265-66.032,45.2c0,33.911,34.218,57.581,66.032,45.196C405.536,403.11,393.226,387.368,391.637,368.606z   " data-original="#605E5B" class="active-path" data-old_color="#D6DDE1"/>
	<path style="fill:#D2DADF" d="M100.78,368.6c-0.811-2.599-0.859-5.486,0.002-8.242c1.589-18.763,13.899-34.507,30.767-41.076   c-31.797-12.378-66.033,11.268-66.033,45.202c0,33.91,34.219,57.581,66.033,45.196C114.679,403.108,102.367,387.364,100.78,368.6z" data-original="#605E5B" class="active-path" data-old_color="#D6DDE1"/>
</g><path style="fill:#E1E4E5;" d="M182.786,232.845h-71.946c-10.761,0-20.172-8.648-20.022-20.503  c-8.642,2.226-15.056,10.062-15.056,19.39c0,11.053,8.991,20.045,20.044,20.045h94.167c0.695-2.169,1.759-4.206,3.16-6.037  C195.225,240.199,195.592,232.845,182.786,232.845z" data-original="#E1E4E5"/><path d="M433.742,178.751c-1.427-1.689-3.523-2.662-5.733-2.662c-10.885,0-79.108,0-94.072,0v-56.935  c0-14.979-12.186-27.165-27.165-27.165h-36.027c-4.146,0-7.505,3.359-7.505,7.505c0,4.146,3.359,7.505,7.505,7.505h36.027  c6.702,0,12.154,5.453,12.154,12.154V357.08H169.073c-5.737-42.523-56.81-63.487-90.706-34.768  c-10.648,9.027-17.319,21.464-19.133,34.768H27.165c-6.702,0-12.154-5.452-12.154-12.154V119.153  c0-6.702,5.453-12.154,12.154-12.154h217.561c4.146,0,7.505-3.359,7.505-7.505c0-4.146-3.359-7.505-7.505-7.505H27.165  C12.186,91.988,0,104.174,0,119.153v225.771c0,14.978,12.186,27.165,27.165,27.165H59.25c3.675,27.024,26.888,47.922,54.905,47.922  s51.228-20.898,54.903-47.922c9.401,0,172.497,0,181.607,0c3.674,27.024,26.886,47.922,54.903,47.922  c28.016,0,51.228-20.898,54.904-47.922h43.994c4.145,0,7.505-3.359,7.505-7.505v-90.44  C511.971,270.155,515.868,275.955,433.742,178.751z M114.154,405.001c-23.016,0-41.537-19.312-40.364-42.491  c0.977-18.702,14.695-34.216,32.877-37.633c25.057-4.715,47.901,14.641,47.901,39.711  C154.569,386.871,136.44,405.001,114.154,405.001z M424.525,191.1l63.774,75.485h-96.539V191.1L424.525,191.1L424.525,191.1z   M405.568,405.001c-22.285,0-40.415-18.128-40.415-40.413c0-24.139,21.216-43.199,45.577-40.077  c19.854,2.545,35.252,19.54,35.252,40.077C445.983,386.871,427.853,405.001,405.568,405.001z M460.487,357.079  c-5.014-37.195-45.295-58.811-79.095-42.358c-16.515,8.043-28.235,23.929-30.742,42.358h-16.71V191.1h42.81v82.99  c0,4.146,3.359,7.505,7.505,7.505h112.706v75.485L460.487,357.079L460.487,357.079z" data-original="#000000" class="" style="fill:#021826" data-old_color="#000000"/><path d="M174.58,296.54c10.753,10.753,28.162,10.757,38.919,0l34.378-34.377c16.608-16.61,16.607-43.638-0.001-60.252  l-34.374-34.374c-17.405-17.408-46.978-4.835-46.978,19.456c0,6.473,2.22,12.606,6.298,17.526H95.976  c-15.173,0-27.519,12.345-27.519,27.519s12.345,27.519,27.519,27.519h76.841C163.972,270.234,164.334,286.292,174.58,296.54z   M95.976,244.548c-6.898,0-12.509-5.611-12.509-12.509s5.611-12.509,12.509-12.509h94.791c3.035,0,5.772-1.828,6.934-4.633  c1.162-2.805,0.52-6.032-1.626-8.179l-10.877-10.879c-4.878-4.876-4.9-12.789,0.003-17.691c4.885-4.885,12.799-4.888,17.687,0.002  l34.374,34.375c10.757,10.76,10.757,28.267,0.002,39.025l-34.378,34.376c-7.81,7.81-21.354,2.343-21.354-8.844  c0-6.521,3.394-8.574,14.54-19.721c4.705-4.708,1.374-12.813-5.308-12.813L95.976,244.548L95.976,244.548z" data-original="#000000" class="" style="fill:#021826" data-old_color="#000000"/><path d="M114.154,342.745c-12.043,0-21.841,9.797-21.841,21.839c0,12.043,9.798,21.841,21.841,21.841  c12.042,0,21.839-9.798,21.839-21.841C135.993,352.542,126.197,342.745,114.154,342.745z M114.154,371.415  c-3.767,0-6.831-3.065-6.831-6.831c0-3.766,3.065-6.829,6.831-6.829c3.766,0,6.829,3.063,6.829,6.829  C120.983,368.35,117.92,371.415,114.154,371.415z" data-original="#000000" class="" style="fill:#021826" data-old_color="#000000"/><path d="M405.568,342.745c-12.043,0-21.841,9.797-21.841,21.839c0,12.043,9.798,21.841,21.841,21.841  c12.042,0,21.84-9.798,21.84-21.841C427.408,352.542,417.61,342.745,405.568,342.745z M405.568,371.415  c-3.767,0-6.831-3.065-6.831-6.831c0-3.766,3.065-6.829,6.831-6.829c3.766,0,6.83,3.063,6.83,6.829  C412.398,368.35,409.334,371.415,405.568,371.415z" data-original="#000000" class="" style="fill:#021826" data-old_color="#000000"/></g> </svg>
