<?xml version="1.0" encoding="utf-8"?>
<!-- Generator: Adobe Illustrator 16.0.0, SVG Export Plug-In . SVG Version: 6.00 Build 0)  -->
<!DOCTYPE svg PUBLIC "-//W3C//DTD SVG 1.1//EN" "http://www.w3.org/Graphics/SVG/1.1/DTD/svg11.dtd">
<svg version="1.1" id="Capa_1" xmlns="http://www.w3.org/2000/svg" xmlns:xlink="http://www.w3.org/1999/xlink" x="0px" y="0px"
	 width="960px" height="560px" viewBox="0 0 960 560" enable-background="new 0 0 960 560" xml:space="preserve">
<g>
	<path fill="#FFFFFF" d="M755.095,531.441L619.007,395.352c36.506-41.969,58.607-96.727,58.607-156.576
		C677.614,107.033,570.457,0,438.839,0C307.095,0,200.062,107.157,200.062,238.776c0,131.619,107.157,238.776,238.776,238.776
		c59.849,0,114.607-22.103,156.576-58.607l136.089,136.089c3.229,3.228,7.574,4.967,11.796,4.967s8.567-1.614,11.796-4.967
		C761.552,548.576,761.552,537.898,755.095,531.441z M233.464,238.776c0-113.241,92.133-205.25,205.251-205.25
		c113.241,0,205.25,92.133,205.25,205.25c0,113.118-92.009,205.375-205.25,205.375C325.596,444.151,233.464,352.018,233.464,238.776
		z"/>
</g>
</svg>
