<?xml version="1.0" encoding="iso-8859-1"?>
<!-- Generator: Adobe Illustrator 19.0.0, SVG Export Plug-In . SVG Version: 6.00 Build 0)  -->
<svg version="1.1" id="Layer_1" xmlns="http://www.w3.org/2000/svg" xmlns:xlink="http://www.w3.org/1999/xlink" x="0px" y="0px"
	 viewBox="0 0 430 430" style="enable-background:new 0 0 430 430;" xml:space="preserve">
<g>
	<path style="fill:#37495E;" d="M215,415.5c-24.82,0-53.628-0.5-81.417-6.471c-31.185-6.701-55.555-19.167-74.5-38.112
		s-31.412-43.314-38.112-74.5C15,268.628,14.5,239.821,14.5,215s0.5-53.628,6.471-81.417c6.701-31.186,19.167-55.555,38.112-74.5
		s43.314-31.412,74.5-38.112C161.371,15,190.18,14.5,215,14.5c24.821,0,53.628,0.5,81.417,6.471
		c31.186,6.701,55.555,19.167,74.5,38.112s31.412,43.314,38.112,74.5C415,161.372,415.5,190.179,415.5,215s-0.5,53.628-6.471,81.417
		c-6.701,31.186-19.167,55.555-38.112,74.5s-43.314,31.412-74.5,38.112C268.628,415,239.821,415.5,215,415.5z M215,30.5
		c-52.98,0-107.787,3.081-144.603,39.897C33.58,107.212,30.5,162.019,30.5,215s3.081,107.788,39.896,144.604
		C107.213,396.419,162.019,399.5,215,399.5s107.788-3.081,144.604-39.896S399.5,267.981,399.5,215s-3.081-107.788-39.897-144.603
		S267.981,30.5,215,30.5z"/>
	<path style="fill:#F4A026;" d="M242.5,27.22v27.53c-8.95-1.48-18.13-2.25-27.5-2.25s-18.55,0.77-27.5,2.25V27.22
		C187.5,12.19,199.69,0,214.72,0h0.56C230.31,0,242.5,12.19,242.5,27.22z"/>
	<path style="fill:#F4A026;" d="M242.5,375.25v27.53c0,15.03-12.19,27.22-27.22,27.22h-0.56c-15.03,0-27.22-12.19-27.22-27.22
		v-27.53c8.95,1.48,18.13,2.25,27.5,2.25S233.55,376.73,242.5,375.25z"/>
	<path style="fill:#F4A026;" d="M52.5,215c0,9.37,0.77,18.55,2.25,27.5H27.23C12.19,242.5,0,230.31,0,215.28v-0.55
		c0-15.04,12.19-27.23,27.22-27.23h27.53C53.27,196.45,52.5,205.63,52.5,215z"/>
	<path style="fill:#F4A026;" d="M430,214.72v0.55c0,15.04-12.19,27.23-27.22,27.23h-27.53c1.48-8.95,2.25-18.13,2.25-27.5
		s-0.77-18.55-2.25-27.5h27.52C417.81,187.5,430,199.69,430,214.72z"/>
	<path style="fill:#EFEFEF;" d="M215,47.5c-92.508,0-167.5,74.992-167.5,167.5S122.492,382.5,215,382.5S382.5,307.508,382.5,215
		S307.508,47.5,215,47.5z M215,292.5c-42.802,0-77.5-34.698-77.5-77.5s34.698-77.5,77.5-77.5s77.5,34.698,77.5,77.5
		S257.802,292.5,215,292.5z"/>
	<path style="fill:#3E81C8;" d="M160.2,269.8l-63.64,63.64c-24.18-24.17-40.99-55.7-46.81-90.94c-1.48-8.95-2.25-18.13-2.25-27.5h90
		C137.5,236.4,146.17,255.78,160.2,269.8z"/>
	<path style="fill:#3E81C8;" d="M333.44,333.44c-24.17,24.18-55.7,41-90.94,46.81c-8.95,1.48-18.13,2.25-27.5,2.25v-90
		c21.4,0,40.77-8.68,54.8-22.7L333.44,333.44z"/>
	<path style="fill:#3E81C8;" d="M382.5,215h-90c0-21.4-8.67-40.78-22.7-54.8l63.64-63.64c24.18,24.17,40.99,55.7,46.81,90.94
		C381.73,196.45,382.5,205.63,382.5,215z"/>
	<path style="fill:#3E81C8;" d="M215,47.5v90c-21.4,0-40.77,8.68-54.8,22.7L96.56,96.56c24.17-24.18,55.7-41,90.94-46.81
		C196.45,48.27,205.63,47.5,215,47.5z"/>
</g>
<g>
</g>
<g>
</g>
<g>
</g>
<g>
</g>
<g>
</g>
<g>
</g>
<g>
</g>
<g>
</g>
<g>
</g>
<g>
</g>
<g>
</g>
<g>
</g>
<g>
</g>
<g>
</g>
<g>
</g>
</svg>
