<?xml version="1.0" encoding="utf-8"?>
<!-- Generator: Adobe Illustrator 16.0.0, SVG Export Plug-In . SVG Version: 6.00 Build 0)  -->
<!DOCTYPE svg PUBLIC "-//W3C//DTD SVG 1.1//EN" "http://www.w3.org/Graphics/SVG/1.1/DTD/svg11.dtd">
<svg version="1.1" id="Layer_1" xmlns="http://www.w3.org/2000/svg" xmlns:xlink="http://www.w3.org/1999/xlink" x="0px" y="0px"
	 width="960px" height="560px" viewBox="0 0 960 560" enable-background="new 0 0 960 560" xml:space="preserve">
<g>
	<path fill="#242D3C" d="M469.859,263.747c-7.983-57.837-58.095-101.459-116.564-101.459c-58.536,0-108.68,43.615-116.637,101.459
		l-17.895-2.465c9.181-66.731,67.015-117.057,134.531-117.057c67.44,0,125.246,50.321,134.459,117.052L469.859,263.747z"/>
	<path fill="#242D3C" d="M606.742,415.737c-67.469,0-125.289-50.305-134.495-117.019l17.895-2.47
		c7.983,57.82,58.111,101.425,116.604,101.425c58.517,0,108.649-43.602,116.604-101.416l17.896,2.461
		C732.059,365.432,674.239,415.737,606.742,415.737z"/>
</g>
<g>
	<rect x="470.956" y="297.499" fill="#D8D8D8" width="18.063" height="124.039"/>
	<rect x="470.956" y="138.487" fill="#D8D8D8" width="18.063" height="124.04"/>
</g>
<g>
	<path fill="#242D3C" d="M760,306.503H706.97v-53.009H760V306.503z M725.036,288.439h16.901V271.56h-16.901V288.439z"/>
	<path fill="#242D3C" d="M506.51,306.509H453.49v-53.021h53.021V306.509z M471.552,288.446h16.892v-16.892h-16.892V288.446z"/>
</g>
<g>
	<path fill="#D0CACA" d="M506.51,147.525H453.49V94.479h53.021V147.525z M471.552,129.459h16.892v-16.918h-16.892V129.459z"/>
	<path fill="#D0CACA" d="M506.51,465.521H453.49v-53.044h53.021V465.521z M471.552,447.455h16.892V430.54h-16.892V447.455z"/>
</g>
<path fill="#242D3C" d="M253.024,306.503H200v-53.009h53.024V306.503z M218.065,288.439h16.893V271.56h-16.893V288.439z"/>
</svg>
