<?xml version="1.0"?>
<svg xmlns="http://www.w3.org/2000/svg" xmlns:xlink="http://www.w3.org/1999/xlink" version="1.1" id="Layer_1" x="0px" y="0px" viewBox="0 0 512 512" style="enable-background:new 0 0 512 512;" xml:space="preserve" width="512px" height="512px" class=""><g><g>
	<path style="fill:#021826" d="M246.728,241.14c-7.299-52.879-53.115-92.762-106.573-92.762   c-53.519,0-99.364,39.877-106.639,92.762l-16.361-2.253c8.394-61.012,61.271-107.023,123-107.023   c61.66,0,114.511,46.008,122.934,107.018L246.728,241.14z" data-original="#242D3C" class="active-path" data-old_color="#242D3C"/>
	<path style="fill:#021826" d="M371.878,380.102c-61.686,0-114.55-45.993-122.967-106.988l16.361-2.258   c7.299,52.864,53.13,92.731,106.609,92.731c53.501,0,99.336-39.864,106.609-92.723l16.361,2.25   C486.454,334.109,433.59,380.102,371.878,380.102z" data-original="#242D3C" class="active-path" data-old_color="#242D3C"/>
</g><g>
	<rect x="247.731" y="271.999" style="fill:#FFEF0F" width="16.515" height="113.408" data-original="#F96232" class="" data-old_color="#ffef0f"/>
	<rect x="247.731" y="126.616" style="fill:#FFEF0F" width="16.515" height="113.408" data-original="#F96232" class="" data-old_color="#ffef0f"/>
</g><g>
	<path style="fill:#021826" d="M512,280.232h-48.484v-48.466H512V280.232z M480.033,263.715h15.452v-15.432h-15.452V263.715z" data-original="#242D3C" class="active-path" data-old_color="#242D3C"/>
	<path style="fill:#021826" d="M280.238,280.237h-48.476v-48.476h48.476V280.237z M248.276,263.722h15.444v-15.444h-15.444V263.722   z" data-original="#242D3C" class="active-path" data-old_color="#242D3C"/>
</g><g>
	<path style="fill:#FFEF0F" d="M280.238,134.88h-48.476V86.381h48.476V134.88z M248.276,118.363h15.444v-15.468h-15.444V118.363z" data-original="#F96232" class="" data-old_color="#ffef0f"/>
	<path style="fill:#FFEF0F" d="M280.238,425.619h-48.476v-48.497h48.476V425.619z M248.276,409.102h15.444v-15.465h-15.444V409.102   z" data-original="#F96232" class="" data-old_color="#ffef0f"/>
</g><path style="fill:#021826" d="M48.479,280.232H0v-48.466h48.479V280.232z M16.517,263.715h15.444v-15.432H16.517V263.715z" data-original="#242D3C" class="active-path" data-old_color="#242D3C"/></g> </svg>
