<?xml version="1.0" encoding="utf-8"?>
<!-- Generator: Adobe Illustrator 16.0.0, SVG Export Plug-In . SVG Version: 6.00 Build 0)  -->
<!DOCTYPE svg PUBLIC "-//W3C//DTD SVG 1.1//EN" "http://www.w3.org/Graphics/SVG/1.1/DTD/svg11.dtd">
<svg version="1.1" id="Icon_Set" xmlns="http://www.w3.org/2000/svg" xmlns:xlink="http://www.w3.org/1999/xlink" x="0px" y="0px"
	 viewBox="0 0 87.5 116.75" enable-background="new 0 0 87.5 116.75" xml:space="preserve">
	 <style xmlns="http://www.w3.org/2000/svg" type="text/css">



.dollar_sign {
	animation-name: signBg;
    animation-iteration-count: infinite;
    transform-origin: 50% 50%;
    animation-duration: 5s;
}

@keyframes signBg {
	0% {transform: scale(0.80);}
	50% {transform: scale(1.2);}
	100% {transform: scale(0.80);}
}





			</style>




<path class="dollar_sign" fill="#132B7E" d="M44.241,76.577c-0.993-0.057-1.866-0.269-2.584-0.454c-0.731-0.189-1.44-0.384-2.156-0.719l0.037-3.986
	c1.246,0.463,1.759,0.625,3.026,0.915c1.418,0.324,2.408,0.418,3.371,0.418c1.684,0,3.035-0.46,4.058-1.381
	c1.021-0.921,1.532-2.094,1.532-3.518c0-0.892-0.147-1.683-0.441-2.374c-0.296-0.691-0.698-1.248-1.21-1.672
	c-0.511-0.424-1.672-1.062-3.484-1.91l-2.547-1.187c-2.158-1.007-3.666-2.202-4.521-3.583c-0.856-1.382-1.284-3.042-1.284-4.985
	c0-2,0.628-3.741,1.888-5.223c1.259-1.481,2.534-2.109,4.306-2.638l0.024-3.621h4.121l-0.018,3.393
	c1.964,0.049,3.493,0.676,4.631,1.323l0.003,4.025c-0.575-0.417-1.453-0.82-2.633-1.208c-1.18-0.389-2.273-0.583-3.28-0.583
	c-1.468,0-2.622,0.417-3.464,1.252s-1.262,1.906-1.262,3.215c0,0.806,0.15,1.539,0.452,2.201c0.302,0.662,0.733,1.224,1.295,1.684
	c0.562,0.461,1.654,1.079,3.28,1.855l1.985,0.928c2.245,1.051,3.885,2.335,4.921,3.853c1.036,1.518,1.554,3.464,1.554,5.837
	c0,1.958-0.693,3.673-2.083,5.148c-1.388,1.475-2.872,2.29-5.332,2.708l-0.007,3.664h-4.164L44.241,76.577z"/>

<path fill="none" stroke="#132B7E" stroke-width="4" stroke-miterlimit="10" d="M75.672,88.672c7.477-5.575,9.583-13.506,9.6-20.635
	c0.02-8.197-2.83-16.144-7.721-22.722L62.218,24.693H46.939H31.662L16.329,45.315c-4.891,6.578-7.74,14.525-7.721,22.722
	c0.019,7.884,2.592,16.749,12.159,22.323"/>
<path fill="none" stroke="#132B7E" stroke-width="4" stroke-miterlimit="10" d="M63.081,18.533H30.798
	c-1.304,0-2.372,1.067-2.372,2.372v1.416c0,1.305,1.068,2.372,2.372,2.372h32.283c1.305,0,2.372-1.067,2.372-2.372v-1.416
	C65.453,19.601,64.386,18.533,63.081,18.533z"/>
<path fill="none" stroke="#132B7E" stroke-width="4" stroke-miterlimit="10" d="M57.574,4.898L54.6,7.873l-1.308-1.308
	c-3.412-3.412-8.943-3.412-12.354,0L39.63,7.873l-2.975-2.975c-2.762-2.762-7.24-2.762-10.002,0l-3.686,3.685l10.266,9.95h13.881
	h13.882l10.265-9.95l-3.685-3.685C64.814,2.137,60.336,2.137,57.574,4.898z"/>
<path fill="none" stroke="#029EF5" stroke-width="4" stroke-miterlimit="10" d="M33.752,106.293h5.35
	c5.107,0,10.098-1.533,14.324-4.401l3.91-2.653c0.645-0.437,0.868-1.321,0.437-1.969c-0.626-0.94-1.422-1.609-2.239-2.086
	c-1.912-1.115-4.255-1.018-6.244-0.047c-7.243,3.538-13.698,0.553-13.698,0.553c-2.346-1.472-4.591-2.612-6.717-3.483
	c-8.943-3.668-19.167-2.299-27.04,3.308l0,0"/>
<path fill="none" stroke="#029EF5" stroke-width="4" stroke-miterlimit="10" d="M1.834,114.313c0,0,12.097-2.349,33.257-1.145
	c5.583,0.318,11.146-0.933,16.093-3.542l32.175-16.974c0.702-0.371,0.887-1.279,0.398-1.905c-1.15-1.475-3.771-3.517-9.017-2.134
	c-0.596,0.157-1.172,0.38-1.738,0.622l-16.188,6.903"/>
</svg>
