<?xml version="1.0" encoding="utf-8"?>
<!-- Generator: Adobe Illustrator 16.0.0, SVG Export Plug-In . SVG Version: 6.00 Build 0)  -->
<!DOCTYPE svg PUBLIC "-//W3C//DTD SVG 1.1//EN" "http://www.w3.org/Graphics/SVG/1.1/DTD/svg11.dtd">
<svg version="1.1" id="Layer_1" xmlns="http://www.w3.org/2000/svg" xmlns:xlink="http://www.w3.org/1999/xlink" x="0px" y="0px"
	 viewBox="0 0 409.92 410.88" enable-background="new 0 0 409.92 410.88" xml:space="preserve">
		 <style xmlns="http://www.w3.org/2000/svg" type="text/css">

.server_bar {
	animation-name: serverBg;
    animation-duration: 6s;
    animation-iteration-count: 1;
    fill: #fff;
    stroke: #029EF5;
    stroke-width: 7.5px;
    stroke-linejoin: round;
    stroke-linecap: round;
    stroke-dasharray: 340;
    stroke-dashoffset: 170;
}

@keyframes serverBg {
	0% {stroke-dashoffset: 340;}
	50% {stroke-dashoffset: 0;}
	100% {stroke-dashoffset: 170;}
}

.server-footer {
    animation-name: footerOpecity;
    animation-duration: 4s;
    animation-iteration-count: infinite;
}

@keyframes footerOpecity {
	0% {opacity: 3;}
	50% {opacity: 0.4;}
	100% {opacity: 3;}
}




		 </style>



<g>
	<path class="server-footer" fill="#029EF5" d="M403.046,376.753h-20.48c-3.77,0-6.828,3.059-6.828,6.828s3.059,6.824,6.828,6.824h20.48
		c3.77,0,6.824-3.055,6.824-6.824S406.815,376.753,403.046,376.753"/>

	<path class="server_bar" fill="#029EF5" d="M95.847,185.608h54.613c3.77,0,6.825-3.059,6.825-6.829c0-3.769-3.055-6.824-6.825-6.824H95.847
		c-3.773,0-6.828,3.055-6.828,6.824C89.019,182.549,92.074,185.608,95.847,185.608"/>
	<path class="server_bar" fill="#029EF5" d="M95.847,212.913h54.613c3.77,0,6.825-3.055,6.825-6.824c0-3.77-3.055-6.829-6.825-6.829H95.847
		c-3.773,0-6.828,3.059-6.828,6.829C89.019,209.858,92.074,212.913,95.847,212.913"/>
	<path class="server_bar" fill="#029EF5" d="M150.46,226.565H95.847c-3.773,0-6.828,3.059-6.828,6.828s3.055,6.828,6.828,6.828h54.613
		c3.77,0,6.825-3.059,6.825-6.828S154.23,226.565,150.46,226.565"/>
	<path class="server_bar" fill="#029EF5" d="M123.152,253.874c-15.082,0-27.305,12.227-27.305,27.309c0,15.078,12.223,27.305,27.305,27.305
		s27.308-12.227,27.308-27.305C150.46,266.101,138.234,253.874,123.152,253.874 M123.152,294.835
		c-7.539,0-13.653-6.113-13.653-13.652c0-7.543,6.114-13.656,13.653-13.656c7.543,0,13.652,6.113,13.652,13.656
		C136.804,288.722,130.695,294.835,123.152,294.835"/>
	<path class="server_bar" fill="#029EF5" d="M314.3,171.956h-54.613c-3.773,0-6.828,3.055-6.828,6.824c0,3.77,3.055,6.829,6.828,6.829H314.3
		c3.77,0,6.824-3.059,6.824-6.829C321.124,175.01,318.069,171.956,314.3,171.956"/>
	<path class="server_bar" fill="#029EF5" d="M314.3,199.26h-54.613c-3.773,0-6.828,3.055-6.828,6.829c0,3.77,3.055,6.824,6.828,6.824H314.3
		c3.77,0,6.824-3.055,6.824-6.824C321.124,202.315,318.069,199.26,314.3,199.26"/>
	<path class="server_bar" fill="#029EF5" d="M314.3,226.565h-54.613c-3.773,0-6.828,3.059-6.828,6.828s3.055,6.828,6.828,6.828H314.3
		c3.77,0,6.824-3.059,6.824-6.828S318.069,226.565,314.3,226.565"/>
	<path class="server_bar" fill="#029EF5" d="M286.991,253.874c-15.082,0-27.305,12.227-27.305,27.309c0,15.078,12.223,27.305,27.305,27.305
		s27.309-12.227,27.309-27.305C314.3,266.101,302.073,253.874,286.991,253.874 M286.991,294.835
		c-7.539,0-13.652-6.113-13.652-13.652c0-7.543,6.113-13.656,13.652-13.656c7.543,0,13.652,6.113,13.652,13.656
		C300.644,288.722,294.534,294.835,286.991,294.835"/>
	<path fill="#132B7E" d="M355.261,376.753h-41.93c-2.5-9.551-9.961-17.012-19.512-19.508v-21.449h27.305
		c15.082,0,27.309-12.227,27.309-27.309v-47.354c44.348-16.912,69.547-63.831,59.16-110.143
		c-10.387-46.317-53.203-77.976-100.531-74.337h-0.102C288.202,26.472,237.534-4.352,184.344,2.066
		C131.157,8.487,89.273,50.484,82.999,103.687c-12.48,0.172-24.73,3.362-35.703,9.297c-28.839,13.75-47.152,42.901-47.023,74.847
		c1.114,36.477,26.129,67.856,61.437,77.067v43.59c0,15.082,12.227,27.305,27.309,27.305h27.306v21.453
		c-9.552,2.496-17.013,9.957-19.509,19.508H7.101c-3.773,0-6.828,3.055-6.828,6.828c0,3.77,3.055,6.824,6.828,6.824h89.715
		c3.066,12.047,13.91,20.475,26.336,20.475c12.429,0,23.273-8.432,26.34-20.475h111.164c3.066,12.047,13.91,20.475,26.34,20.475
		c12.426,0,23.27-8.432,26.336-20.475h41.93c3.77,0,6.828-3.055,6.828-6.824C362.089,379.808,359.03,376.753,355.261,376.753
		 M334.78,308.487c0,7.539-6.113,13.652-13.656,13.652h-68.266c-7.539,0-13.652-6.113-13.652-13.652V171.956
		c0-7.543,6.113-13.657,13.652-13.657h68.266c7.543,0,13.656,6.114,13.656,13.657V308.487z M61.71,171.956v78.739
		c-27.734-8.797-46.89-34.148-47.784-63.231c0-26.636,15.37-50.878,39.456-62.246c10.657-6.171,22.992-8.819,35.242-7.563
		c1.836,0.162,3.665-0.428,5.059-1.635c1.398-1.203,2.247-2.927,2.356-4.77c2.918-49.223,40.503-89.375,89.426-95.536
		c48.925-6.16,95.292,23.422,110.319,70.388c1.008,3.164,4.146,5.144,7.434,4.691c1.625-0.23,3.254-0.402,4.891-0.527
		c42.523-3.693,80.617,26.25,87.078,68.445c5.93,36.41-13.211,72.295-46.754,87.652v-74.411c0-15.082-12.227-27.304-27.309-27.304
		h-68.266c-15.082,0-27.305,12.222-27.305,27.304v81.922h-40.96v-81.922c0-15.082-12.227-27.304-27.305-27.304h-68.27
		C73.937,144.648,61.71,156.874,61.71,171.956 M89.019,322.14c-7.539,0-13.652-6.113-13.652-13.652V171.956
		c0-7.543,6.113-13.657,13.652-13.657h68.266c7.543,0,13.656,6.114,13.656,13.657v136.532c0,7.543-6.113,13.652-13.656,13.652
		H89.019z M123.152,397.233c-7.539,0-13.653-6.113-13.653-13.652c0-7.543,6.114-13.652,13.653-13.652
		c7.543,0,13.653,6.109,13.653,13.652C136.805,391.12,130.695,397.233,123.152,397.233 M260.655,376.753H149.492
		c-2.5-9.551-9.96-17.012-19.512-19.508v-21.449h27.305c15.082,0,27.309-12.227,27.309-27.309v-40.961h40.956v40.961
		c0,15.082,12.227,27.309,27.309,27.309h27.305v21.449C270.612,359.741,263.151,367.202,260.655,376.753 M286.991,397.233
		c-7.539,0-13.652-6.113-13.652-13.652c0-7.543,6.113-13.652,13.652-13.652c7.543,0,13.652,6.109,13.652,13.652
		C300.644,391.12,294.534,397.233,286.991,397.233"/>
</g>
</svg>
