<?xml version="1.0" encoding="utf-8"?>
<!-- Generator: Adobe Illustrator 16.0.0, SVG Export Plug-In . SVG Version: 6.00 Build 0)  -->
<!DOCTYPE svg PUBLIC "-//W3C//DTD SVG 1.1//EN" "http://www.w3.org/Graphics/SVG/1.1/DTD/svg11.dtd">
<svg version="1.1" id="Layer_1" xmlns="http://www.w3.org/2000/svg" xmlns:xlink="http://www.w3.org/1999/xlink" x="0px" y="0px"
	 viewBox="0 0 409.602 409.602" enable-background="new 0 0 409.602 409.602" xml:space="preserve">
	 <style xmlns="http://www.w3.org/2000/svg" type="text/css">

.ssd_circle {
    animation-name: circleMove;
    animation-duration: 9s;
    animation-iteration-count: infinite;
    transform-origin: 50% 50%;
	animation-timing-function: linear;
}

@keyframes circleMove {
	0% {transform: rotate(0deg);}
	100% {transform: rotate(360deg);}
}


.ssd_bar_one {
	animation-name: ssdBar-1;
    animation-duration: 5s;
    animation-iteration-count: infinite;
}

@keyframes ssdBar-1 {
	0% {opacity: 3;}
	50% {opacity: 0.3;}
	100% {opacity: 3;}
}

.ssd_bar_sec {
	animation-name: ssdBar-2;
    animation-duration: 5.2s;
    animation-iteration-count: infinite;
}

@keyframes ssdBar-2 {
	0% {opacity: 3;}
	50% {opacity: 0.3;}
	

	 	 	 </style>



<g>
	<path fill="#132B7E" d="M341.331,136.536v-27.308c-0.019-18.84-15.289-34.11-34.132-34.133H102.398
		c-18.839,0.023-34.109,15.293-34.133,34.133v27.308c0.032,10.785,5.176,20.918,13.868,27.305
		c-8.692,6.39-13.836,16.519-13.868,27.305v27.308c0.032,10.785,5.176,20.918,13.868,27.305
		c-8.692,6.391-13.836,16.523-13.868,27.309v27.305c0.024,18.844,15.294,34.109,34.133,34.133h204.801
		c18.843-0.02,34.11-15.289,34.132-34.133v-27.305c-0.025-10.785-5.172-20.918-13.861-27.309
		c8.689-6.387,13.836-16.52,13.861-27.305v-27.308c-0.025-10.786-5.172-20.915-13.861-27.305
		C336.159,157.454,341.306,147.321,341.331,136.536 M327.681,273.067v27.305c0,11.313-9.168,20.48-20.481,20.48H102.398
		c-11.308,0-20.476-9.168-20.476-20.48v-27.305c0-11.309,9.168-20.48,20.476-20.48h204.801
		C318.513,252.586,327.681,261.758,327.681,273.067 M327.681,191.146v27.308c0,11.309-9.168,20.48-20.481,20.48H102.398
		c-11.308,0-20.476-9.172-20.476-20.48v-27.308c0-11.309,9.168-20.477,20.476-20.477h204.801
		C318.513,170.668,327.681,179.836,327.681,191.146 M327.681,136.536c0,11.309-9.168,20.477-20.481,20.477H102.398
		c-11.308,0-20.476-9.168-20.476-20.477v-27.308c0-11.309,9.168-20.481,20.476-20.481h204.801c11.313,0,20.481,9.168,20.481,20.481
		V136.536z"/>


	<path class="ssd_bar_one" fill="#029EF5" d="M286.72,116.056h-13.653c-3.77,0-6.828,3.054-6.828,6.824c0,3.773,3.059,6.828,6.828,6.828h13.653
		c3.771,0,6.827-3.059,6.827-6.828C293.547,119.11,290.491,116.056,286.72,116.056"/>
	<path class="ssd_bar_sec" fill="#029EF5" d="M245.763,116.056h-13.657c-3.771,0-6.824,3.054-6.824,6.824c0,3.773,3.054,6.828,6.824,6.828h13.657
		c3.769,0,6.822-3.059,6.822-6.828C252.585,119.11,249.531,116.056,245.763,116.056"/>
	<path fill="#029EF5" d="M129.707,102.398c-11.312,0-20.479,9.172-20.479,20.481c0,11.312,9.167,20.48,20.479,20.48
		c11.31,0,20.481-9.168,20.481-20.48C150.188,111.57,141.02,102.398,129.707,102.398 M129.707,129.708
		c-3.769,0-6.828-3.059-6.828-6.828c0-3.77,3.059-6.824,6.828-6.824c3.771,0,6.824,3.054,6.824,6.824
		C136.535,126.652,133.478,129.708,129.707,129.708"/>


	<path class="ssd_bar_sec" fill="#029EF5" d="M286.72,197.973h-13.653c-3.77,0-6.828,3.059-6.828,6.828s3.059,6.824,6.828,6.824h13.653
		c3.771,0,6.827-3.055,6.827-6.824S290.491,197.973,286.72,197.973"/>
	<path class="ssd_bar_one" fill="#029EF5" d="M245.763,197.973h-13.657c-3.771,0-6.824,3.059-6.824,6.828s3.054,6.824,6.824,6.824h13.657
		c3.769,0,6.822-3.055,6.822-6.824S249.531,197.973,245.763,197.973"/>
	<path fill="#029EF5" d="M129.707,184.32c-11.312,0-20.479,9.169-20.479,20.481c0,11.309,9.167,20.48,20.479,20.48
		c11.31,0,20.481-9.172,20.481-20.48C150.188,193.489,141.02,184.32,129.707,184.32 M129.707,211.625
		c-3.769,0-6.828-3.055-6.828-6.824s3.059-6.828,6.828-6.828c3.771,0,6.824,3.059,6.824,6.828
		C136.535,208.571,133.478,211.625,129.707,211.625"/>


	<path class="ssd_bar_sec" fill="#029EF5" d="M286.72,279.897h-13.653c-3.77,0-6.828,3.053-6.828,6.822c0,3.773,3.059,6.828,6.828,6.828h13.653
		c3.771,0,6.827-3.055,6.827-6.828C293.547,282.95,290.491,279.897,286.72,279.897"/>
	<path class="ssd_bar_one" fill="#029EF5" d="M245.763,279.897h-13.657c-3.771,0-6.824,3.053-6.824,6.822c0,3.773,3.054,6.828,6.824,6.828h13.657
		c3.769,0,6.822-3.055,6.822-6.828C252.585,282.95,249.531,279.897,245.763,279.897"/>
	<path fill="#029EF5" d="M129.707,266.239c-11.312,0-20.479,9.172-20.479,20.48c0,11.313,9.167,20.48,20.479,20.48
		c11.31,0,20.481-9.168,20.481-20.48C150.188,275.411,141.02,266.239,129.707,266.239 M129.707,293.547
		c-3.769,0-6.828-3.055-6.828-6.828c0-3.77,3.059-6.822,6.828-6.822c3.771,0,6.824,3.053,6.824,6.822
		C136.531,290.493,133.478,293.547,129.707,293.547"/>


	<path class="ssd_circle" fill="#029EF5" d="M409.603,204.801c-0.032-0.699-0.168-1.391-0.411-2.047c0.223-0.645,0.348-1.316,0.368-1.996
		c-0.143-7.054-0.639-14.101-1.489-21.105c-0.504-3.703-3.886-6.312-7.593-5.855c-3.707,0.453-6.36,3.801-5.957,7.512
		c0.789,6.547,1.246,13.125,1.366,19.714c0.048,0.652,0.188,1.289,0.418,1.898c-0.211,0.605-0.327,1.238-0.355,1.879
		c-0.066,71.184-39.648,136.445-102.75,169.395l6.684-16.664c1.406-3.496-0.289-7.473-3.789-8.879
		c-3.495-1.406-7.473,0.289-8.884,3.789l-12.046,30.035c-22.387,8.91-46.266,13.48-70.363,13.469
		c-6.594,0-13.184-0.336-19.742-1.004c-3.681-0.254-6.895,2.461-7.263,6.129c-0.37,3.668,2.243,6.969,5.899,7.453
		c7.012,0.715,14.059,1.074,21.105,1.078c25.284,0.008,50.348-4.691,73.905-13.859l33.958,6.895
		c0.449,0.094,0.906,0.137,1.367,0.137c3.504,0.004,6.446-2.652,6.797-6.141c0.353-3.488-1.997-6.68-5.433-7.375l-15.509-3.148
		C367.285,350.739,409.535,280.922,409.603,204.801"/>
	<path class="ssd_circle" fill="#029EF5" d="M383.445,136.657c2.348,6.156,4.375,12.43,6.07,18.793c0.968,3.645,4.711,5.813,8.352,4.844
		c3.645-0.969,5.813-4.707,4.844-8.352c-1.82-6.828-3.992-13.554-6.512-20.152c-1.402-3.434-5.289-5.117-8.754-3.797
		C383.979,129.317,382.207,133.165,383.445,136.657"/>
	<path class="ssd_circle" fill="#029EF5" d="M372.388,112.79c1.851,3.234,5.952,4.383,9.215,2.59c3.264-1.797,4.482-5.875,2.746-9.168
		c-3.407-6.188-7.129-12.191-11.153-17.996c-1.375-2.047-3.743-3.192-6.2-3.004c-2.457,0.195-4.621,1.695-5.66,3.93
		c-1.039,2.234-0.793,4.855,0.643,6.855C365.73,101.415,369.206,107.021,372.388,112.79"/>
	<path class="ssd_circle" fill="#029EF5" d="M293.547,35.445c5.823,3.071,11.491,6.438,16.977,10.082c3.148,2.086,7.39,1.227,9.476-1.918
		c2.087-3.148,1.229-7.39-1.918-9.476c-5.883-3.91-11.961-7.516-18.215-10.801c-2.164-1.129-4.764-1.016-6.823,0.293
		s-3.267,3.617-3.159,6.055C289.987,32.117,291.384,34.316,293.547,35.445"/>
	<path class="ssd_circle" fill="#029EF5" d="M250.484,19.114c6.402,1.578,12.715,3.492,18.918,5.727c2.305,0.875,4.902,0.433,6.793-1.149
		s2.781-4.062,2.332-6.488c-0.453-2.422-2.18-4.414-4.512-5.211c-6.648-2.387-13.414-4.426-20.277-6.109
		c-2.427-0.766-5.074-0.117-6.875,1.679c-1.802,1.797-2.453,4.446-1.691,6.875C245.934,16.864,247.98,18.669,250.484,19.114"/>
	<path class="ssd_circle" fill="#029EF5" d="M331.402,61.638c4.938,4.371,9.648,8.992,14.117,13.84c1.297,1.39,3.121,2.175,5.023,2.156
		c2.695-0.016,5.129-1.613,6.211-4.078c1.085-2.465,0.617-5.34-1.192-7.336c-4.78-5.192-9.823-10.141-15.108-14.821
		c-2.828-2.5-7.145-2.234-9.645,0.594S328.574,59.138,331.402,61.638"/>
	<path class="ssd_circle" fill="#132B7E" d="M37.211,296.809c-1.852-3.23-5.949-4.383-9.215-2.586c-3.262,1.799-4.484,5.875-2.746,9.168
		c3.41,6.184,7.133,12.191,11.156,17.996c1.371,2.043,3.742,3.191,6.199,3s4.618-1.691,5.657-3.926s0.797-4.855-0.641-6.859
		C43.871,308.188,40.395,302.583,37.211,296.809"/>


	<path class="ssd_circle" fill="#132B7E" d="M9.133,235.897c3.742-0.459,6.406-3.865,5.949-7.607c-0.789-6.543-1.246-13.125-1.367-19.715
		c-0.047-0.652-0.188-1.297-0.418-1.91c0.211-0.602,0.328-1.23,0.355-1.863c0.067-71.187,39.649-136.446,102.75-169.399
		l-6.683,16.664c-1.407,3.5,0.289,7.477,3.789,8.884c3.5,1.405,7.472-0.289,8.883-3.789l12.047-30.039
		c22.386-8.911,46.265-13.48,70.363-13.47c6.594,0.005,13.184,0.341,19.742,1.005c0.227,0.028,0.453,0.038,0.684,0.043
		c3.648,0.03,6.676-2.817,6.871-6.461c0.199-3.64-2.504-6.798-6.137-7.16C218.93,0.359,211.867,0,204.801,0
		c-25.281-0.007-50.344,4.691-73.906,13.859L96.938,6.965c-3.696-0.757-7.301,1.63-8.055,5.325c-0.754,3.694,1.629,7.3,5.324,8.055
		l15.512,3.148C42.312,58.864,0.066,128.676,0,204.801c0.027,0.699,0.168,1.391,0.41,2.047c-0.222,0.641-0.348,1.316-0.371,1.992
		c0.141,7.059,0.637,14.102,1.488,21.109c0.418,3.422,3.321,5.996,6.766,6C8.574,235.95,8.855,235.93,9.133,235.897"/>
	<path class="ssd_circle" fill="#132B7E" d="M159.117,390.458c-6.401-1.566-12.715-3.469-18.918-5.699c-3.527-1.199-7.367,0.648-8.625,4.156
		c-1.262,3.504,0.524,7.375,4.012,8.691c6.644,2.387,13.414,4.43,20.273,6.109c0.536,0.133,1.082,0.199,1.633,0.199
		c3.449-0.004,6.356-2.582,6.771-6.008C164.677,394.481,162.47,391.282,159.117,390.458"/>
	<path class="ssd_circle" fill="#132B7E" d="M78.199,347.997c-4.937-4.367-9.648-8.98-14.117-13.824c-1.633-1.871-4.152-2.707-6.578-2.188
		c-2.426,0.523-4.379,2.32-5.102,4.695c-0.718,2.375-0.093,4.957,1.637,6.734c4.781,5.195,9.824,10.145,15.106,14.824
		c2.828,2.5,7.148,2.23,9.648-0.594C81.293,354.813,81.027,350.497,78.199,347.997"/>
	<path class="ssd_circle" fill="#132B7E" d="M25.398,279.286c1.274-1.852,1.555-4.207,0.754-6.309v-0.035c-2.347-6.152-4.371-12.426-6.066-18.793
		c-0.973-3.645-4.711-5.813-8.356-4.844c-3.64,0.969-5.812,4.711-4.839,8.355c1.816,6.836,3.992,13.574,6.511,20.184
		c1.008,2.648,3.543,4.395,6.375,4.398C22.023,282.243,24.125,281.137,25.398,279.286"/>
	<path class="ssd_circle" fill="#132B7E" d="M116.055,374.157c-5.828-3.074-11.493-6.438-16.981-10.082c-2.035-1.352-4.633-1.512-6.82-0.426
		c-2.188,1.09-3.629,3.258-3.781,5.695c-0.149,2.438,1.011,4.773,3.047,6.121c5.878,3.914,11.957,7.52,18.21,10.801
		c2.165,1.129,4.766,1.02,6.825-0.289c2.062-1.309,3.265-3.617,3.164-6.055C119.613,377.481,118.219,375.286,116.055,374.157"/>
</g>
</svg>
