<svg version="1.1" id="el_zZp8Eu2NS" xmlns="http://www.w3.org/2000/svg" xmlns:xlink="http://www.w3.org/1999/xlink" x="0px" y="0px" viewBox="0 0 439 441" style="enable-background:new 0 0 439 441.1;" xml:space="preserve"><style>@-webkit-keyframes el_WK5Qak9RC9_-0K5MY1Qe_Animation{0%{-webkit-transform: translate(219.6499786376953px, 153.37498474121094px) rotate(0deg) translate(-219.6499786376953px, -153.37498474121094px);transform: translate(219.6499786376953px, 153.37498474121094px) rotate(0deg) translate(-219.6499786376953px, -153.37498474121094px);}100%{-webkit-transform: translate(219.6499786376953px, 153.37498474121094px) rotate(90deg) translate(-219.6499786376953px, -153.37498474121094px);transform: translate(219.6499786376953px, 153.37498474121094px) rotate(90deg) translate(-219.6499786376953px, -153.37498474121094px);}}@keyframes el_WK5Qak9RC9_-0K5MY1Qe_Animation{0%{-webkit-transform: translate(219.6499786376953px, 153.37498474121094px) rotate(0deg) translate(-219.6499786376953px, -153.37498474121094px);transform: translate(219.6499786376953px, 153.37498474121094px) rotate(0deg) translate(-219.6499786376953px, -153.37498474121094px);}100%{-webkit-transform: translate(219.6499786376953px, 153.37498474121094px) rotate(90deg) translate(-219.6499786376953px, -153.37498474121094px);transform: translate(219.6499786376953px, 153.37498474121094px) rotate(90deg) translate(-219.6499786376953px, -153.37498474121094px);}}#el_zZp8Eu2NS *{-webkit-animation-duration: 2s;animation-duration: 2s;-webkit-animation-iteration-count: infinite;animation-iteration-count: infinite;-webkit-animation-timing-function: cubic-bezier(0, 0, 1, 1);animation-timing-function: cubic-bezier(0, 0, 1, 1);}#el_R2q3Ohd5Ip{fill: #029EF5;}#el_ljTS9KntIV{fill: #029EF5;}#el_WK5Qak9RC9{fill: #132B7E;}#el_WK5Qak9RC9_-0K5MY1Qe{-webkit-animation-name: el_WK5Qak9RC9_-0K5MY1Qe_Animation;animation-name: el_WK5Qak9RC9_-0K5MY1Qe_Animation;-webkit-transform: translate(219.6499786376953px, 153.37498474121094px) rotate(0deg) translate(-219.6499786376953px, -153.37498474121094px);transform: translate(219.6499786376953px, 153.37498474121094px) rotate(0deg) translate(-219.6499786376953px, -153.37498474121094px);}</style>

<path d="M97.9,269.6c-4.3-4.2-10.2-6.3-16.2-5.9c-6,0.4-11.5,3.4-15.2,8.1l-6.6,8.5v-86.3c-0.1-11.4-9.5-20.6-20.9-20.5&#10;&#9;c-11.4-0.1-20.8,9.1-20.9,20.5v99.3c0,13.4,5,26.4,14.1,36.3L75,376.4v32.1c0,7.4,6,13.4,13.4,13.4H139c7.4,0,13.4-6,13.4-13.4&#10;&#9;v-63.3c0-14.5-5.9-28.4-16.3-38.5L97.9,269.6z M139,408.6H88.4v-34.8c0-1.7-0.6-3.3-1.8-4.5l-44.6-48.7&#10;&#9;c-6.8-7.4-10.6-17.1-10.6-27.2v-99.3c0.1-4,3.5-7.2,7.5-7.1c4-0.1,7.4,3.1,7.5,7.1V284c0,1.8,0.7,3.5,2,4.8l7,6.8&#10;&#9;c0.1,0.1,0.1,0.1,0.2,0.2l39,37.9c2.7,2.5,6.9,2.5,9.4-0.2c2.6-2.6,2.5-6.9-0.1-9.4l-34.8-33.8l7.9-10.2c1.3-1.7,3.3-2.8,5.5-3&#10;&#9;c2.2-0.2,4.3,0.6,5.9,2.2l38.2,37.1c7.8,7.6,12.1,18,12.2,28.9C139,345.3,139,408.6,139,408.6z" id="el_R2q3Ohd5Ip"/>
<path d="M414.8,179.5c-8.3-7.7-21.1-7.7-29.5,0c-4,3.8-6.2,9.1-6.2,14.6v86.3l-6.6-8.5c-3.7-4.8-9.2-7.7-15.2-8.2&#10;&#9;c-6-0.4-11.9,1.7-16.2,5.9L303,306.8c-10.4,10.1-16.3,24-16.3,38.5v63.3c0,7.4,6,13.4,13.4,13.4h50.6c7.4,0,13.4-6,13.4-13.4v-32.2&#10;&#9;l42.8-46.8c9.1-9.9,14.1-22.8,14.1-36.3v-99.2C421,188.6,418.8,183.3,414.8,179.5 M407.6,293.4c0,10.1-3.8,19.8-10.6,27.2&#10;&#9;l-44.6,48.7c-1.1,1.2-1.8,2.9-1.8,4.5v34.8h-50.6v-63.3c0-10.9,4.4-21.3,12.2-28.9l38.2-37.1c1.4-1.4,3.3-2.2,5.3-2.2h0.6&#10;&#9;c2.2,0.1,4.2,1.2,5.5,3l7.8,10.2L335,324.1c-1.8,1.7-2.6,4.2-2,6.5s2.4,4.3,4.8,4.9c2.4,0.6,4.9-0.1,6.6-1.8l39.1-37.9l0.1-0.1&#10;&#9;l7-6.8c1.3-1.3,2-3,2-4.8v-89.9c0-1.9,0.8-3.7,2.1-5c3-2.8,7.7-2.8,10.7,0c1.4,1.3,2.1,3.1,2.1,5V293.4z" id="el_ljTS9KntIV"/>
<g id="el_WK5Qak9RC9_-0K5MY1Qe" data-animator-group="true" data-animator-type="1"><path d="M272.2,267.6h37.2c13.4,0,24.3-10.9,24.3-24.3v-37.9l2.5,0.8c3.4,1.2,7.1-0.5,8.4-3.9&#10;&#9;c12.4-31.8,12.3-67-0.4-98.7c-1.3-3.3-5-5-8.4-3.9l-2.1,0.8V63.6c0-13.4-10.9-24.3-24.3-24.3H272l0.9-2.6c0.2-0.7,0.4-1.4,0.4-2.2v0&#10;&#9;c0-2.8-1.7-5.2-4.2-6.2c-31.8-12.4-67.1-12.4-98.9,0c-2.6,1-4.2,3.5-4.2,6.3c0,0.7,0.1,1.5,0.4,2.2l0.9,2.6h-37.4&#10;&#9;c-13.4,0-24.3,10.9-24.3,24.3v36.9l-2.1-0.8c-3.4-1.2-7.1,0.5-8.4,3.8c-12.7,31.7-12.8,67-0.4,98.7c1,2.6,3.5,4.3,6.2,4.3&#10;&#9;c0.7,0,1.5-0.1,2.2-0.4l2.5-0.8v37.9c0,13.4,10.9,24.3,24.3,24.3h37.2l-0.8,2.3c-1.2,3.4,0.5,7.1,3.9,8.4c31.8,12.6,67.2,12.6,99,0&#10;&#9;c3.3-1.3,5-5,3.9-8.4L272.2,267.6z M320.3,243.3c0,6-4.9,10.9-10.9,10.9h-32.2c17.8-10.2,32.7-24.9,43-42.7V243.3z M334,114.6&#10;&#9;c4.3,12.5,6.4,25.6,6.4,38.8c0,12.9-2,25.7-6.1,37.9l-4.7-1.6h-0.1l-61.8-20.9c3.4-10.3,3.4-21.5,0-31.8L334,114.6z M309.4,52.7&#10;&#9;c6,0,10.9,4.9,10.9,10.9v30.8c-10-17.1-24.2-31.5-41.3-41.6C279,52.7,309.4,52.7,309.4,52.7z M312.3,107.7l-50.6,17.1&#10;&#9;c-3.7-5.5-8.4-10.2-13.9-13.9l17.2-50.6C285.5,70.4,302.2,87.1,312.3,107.7 M252.8,169.8c-3.6,7-9.3,12.7-16.3,16.3&#10;&#9;c-10.6,5.3-23.2,5.3-33.8,0c-7-3.6-12.7-9.3-16.3-16.3c-5.4-10.6-5.4-23.2,0-33.8c3.5-6.8,9-12.3,15.7-15.9c0.2-0.1,0.4-0.1,0.5-0.1&#10;&#9;c10.7-5.3,23.3-5.3,34,0c0.2,0.1,0.4,0.1,0.5,0.1c6.7,3.6,12.2,9.2,15.7,15.9C258.2,146.6,258.2,159.1,252.8,169.8 M258.1,38.5&#10;&#9;l-3.2,9.4c-0.1,0.2-0.2,0.4-0.4,0.5c-0.1,0.4-0.2,0.7-0.2,1.1L235.6,105c-10.4-3.4-21.7-3.4-32.1,0l-18.7-55.2&#10;&#9;c0-0.5-0.1-0.9-0.2-1.3c-0.1-0.2-0.3-0.4-0.4-0.6l-3.1-9.3C206.1,30.2,233.1,30.2,258.1,38.5 M174.2,60.3l17.1,50.6&#10;&#9;c-5.5,3.7-10.2,8.4-13.9,13.9l-50.6-17.1C137,87.1,153.6,70.4,174.2,60.3 M118.8,63.6c0-6,4.9-10.9,10.9-10.9h30.4&#10;&#9;c-17.1,10.2-31.3,24.5-41.3,41.6V63.6z M109.6,189.7L109.6,189.7l-4.8,1.6c-8.2-25-8.1-51.9,0.3-76.8v0l66.3,22.4&#10;&#9;c-3.4,10.3-3.4,21.5,0,31.8L109.6,189.7z M129.7,254.1c-6,0-10.9-4.9-10.9-10.9v-31.8c10.4,17.8,25.2,32.5,43,42.7L129.7,254.1&#10;&#9;L129.7,254.1z M126.9,198.1l50.6-17.1c3.7,5.5,8.5,10.3,14,14l-17.1,50.6C153.7,235.5,137,218.7,126.9,198.1 M181,268l22.6-66.9&#10;&#9;c10.3,3.4,21.5,3.4,31.8,0l22.6,66.9C233.1,276.3,206,276.3,181,268 M264.7,245.6L247.6,195c5.5-3.7,10.3-8.5,14-14l50.6,17.1&#10;&#9;C302.1,218.8,285.4,235.5,264.7,245.6" id="el_WK5Qak9RC9"/></g>
</svg>