<svg id="Icon" xmlns="http://www.w3.org/2000/svg" width="40" height="39" viewBox="0 0 40 39">
  <metadata><?xpacket begin="﻿" id="W5M0MpCehiHzreSzNTczkc9d"?>
<x:xmpmeta xmlns:x="adobe:ns:meta/" x:xmptk="Adobe XMP Core 5.6-c138 79.159824, 2016/09/14-01:09:01        ">
   <rdf:RDF xmlns:rdf="http://www.w3.org/1999/02/22-rdf-syntax-ns#">
      <rdf:Description rdf:about=""/>
   </rdf:RDF>
</x:xmpmeta>
                                                                                                    
                                                                                                    
                                                                                                    
                                                                                                    
                                                                                                    
                                                                                                    
                                                                                                    
                                                                                                    
                                                                                                    
                                                                                                    
                                                                                                    
                                                                                                    
                                                                                                    
                                                                                                    
                                                                                                    
                                                                                                    
                                                                                                    
                                                                                                    
                                                                                                    
                                                                                                    
                           
<?xpacket end="w"?></metadata>
<defs>
    <style>
      .cls-1, .cls-2 {
        fill: #42cba2;
      }

      .cls-1 {
        opacity: 0.1;
      }

      .cls-2 {
        fill-rule: evenodd;
      }
    </style>
  </defs>
  <rect id="Rounded_Rectangle_668" data-name="Rounded Rectangle 668" class="cls-1" x="7.188" y="5.69" width="32.812" height="33.31" rx="5" ry="5"/>
  <path id="icon-2" data-name="icon" class="cls-2" d="M790.88,3757.41a2.56,2.56,0,1,0,2.52,2.56A2.544,2.544,0,0,0,790.88,3757.41Zm0,3.98a1.42,1.42,0,1,1,1.4-1.42A1.414,1.414,0,0,1,790.88,3761.39Zm22.12-2.84a0.562,0.562,0,0,1,.56.57,0.56,0.56,0,1,1-1.12,0A0.562,0.562,0,0,1,813,3758.55Zm-2.24,0a0.562,0.562,0,0,1,.56.57,0.56,0.56,0,1,1-1.12,0A0.562,0.562,0,0,1,810.76,3758.55Zm3.36,1.71a0.565,0.565,0,1,1-.56.56A0.56,0.56,0,0,1,814.12,3760.26Zm-2.24,0a0.565,0.565,0,1,1-.56.56A0.56,0.56,0,0,1,811.88,3760.26Zm-3.36-1.71a0.562,0.562,0,0,1,.56.57,0.56,0.56,0,1,1-1.12,0A0.562,0.562,0,0,1,808.52,3758.55Zm1.12,1.71a0.565,0.565,0,1,1-.56.56A0.56,0.56,0,0,1,809.64,3760.26Zm-3.36-1.71a0.562,0.562,0,0,1,.56.57,0.56,0.56,0,1,1-1.12,0A0.562,0.562,0,0,1,806.28,3758.55Zm1.12,1.71a0.565,0.565,0,1,1-.56.56A0.56,0.56,0,0,1,807.4,3760.26Zm-3.36-1.71a0.562,0.562,0,0,1,.56.57,0.56,0.56,0,1,1-1.12,0A0.562,0.562,0,0,1,804.04,3758.55Zm1.12,1.71a0.565,0.565,0,1,1-.56.56A0.56,0.56,0,0,1,805.16,3760.26Zm13.44,3.06v-6.7a2.6,2.6,0,0,0-2.581-2.62H787.58a2.6,2.6,0,0,0-2.58,2.62v6.7a2.62,2.62,0,0,1,0,4.11v6.7a2.609,2.609,0,0,1,0,4.1v6.7a2.608,2.608,0,0,0,2.58,2.63h20.944a7.237,7.237,0,0,0,2.8.56,7.341,7.341,0,0,0,7.28-7.39,7.42,7.42,0,0,0-1.37-4.3,2.633,2.633,0,0,0,1.37-2.3v-6.7A2.62,2.62,0,0,1,818.6,3763.32Zm-11.93,23.1H787.58a1.478,1.478,0,0,1-1.46-1.49v-6.7a1.469,1.469,0,0,1,1.46-1.48h17.612c-0.039.06-.073,0.13-0.11,0.19-0.1.17-.194,0.34-0.28,0.52-0.045.09-.09,0.18-0.13,0.27s-0.083.2-.122,0.3-0.077.21-.113,0.31-0.063.18-.09,0.28q-0.084.27-.145,0.57c-0.014.06-.024,0.13-0.037,0.2-0.028.16-.052,0.31-0.07,0.47-0.008.07-.016,0.13-0.022,0.2-0.02.23-.033,0.45-0.033,0.67a7.511,7.511,0,0,0,.044.8c0.008,0.07.024,0.14,0.034,0.22,0.025,0.19.053,0.37,0.092,0.55,0.019,0.09.044,0.18,0.066,0.26,0.042,0.17.085,0.33,0.138,0.49,0.03,0.1.065,0.19,0.1,0.28,0.054,0.14.112,0.29,0.176,0.43,0.043,0.1.089,0.2,0.136,0.29,0.065,0.13.133,0.26,0.2,0.38,0.057,0.1.115,0.2,0.176,0.3s0.149,0.22.227,0.33,0.14,0.2.216,0.29,0.164,0.2.248,0.3,0.163,0.18.25,0.27,0.2,0.2.305,0.29C806.525,3786.28,806.594,3786.35,806.67,3786.42Zm4.65,0.57a6.086,6.086,0,0,1-2.377-.49l-0.047-.02c-0.161-.07-0.319-0.15-0.473-0.23a1.041,1.041,0,0,0-.138-0.08c-0.116-.07-0.23-0.14-0.341-0.21l-0.128-.09c-0.126-.09-0.249-0.18-0.368-0.28-0.019-.02-0.039-0.03-0.058-0.05a4.813,4.813,0,0,1-.421-0.39s-0.006,0-.01-0.01a4.624,4.624,0,0,1-.358-0.4,0.561,0.561,0,0,1-.065-0.08c-0.1-.13-0.2-0.26-0.29-0.39l-0.043-.06c-0.1-.16-0.2-0.32-0.284-0.48a0.779,0.779,0,0,1-.049-0.1,3.932,3.932,0,0,1-.186-0.39c-0.023-.05-0.046-0.11-0.068-0.16-0.052-.13-0.1-0.26-0.142-0.39-0.014-.05-0.031-0.09-0.044-0.13-0.051-.17-0.094-0.34-0.131-0.52-0.011-.05-0.02-0.11-0.03-0.16-0.024-.14-0.045-0.27-0.061-0.41l-0.02-.17c-0.016-.19-0.028-0.38-0.028-0.57s0.011-.4.03-0.6c0.009-.09.025-0.18,0.038-0.27,0.014-.11.027-0.21,0.046-0.31,0.022-.12.051-0.23,0.079-0.34,0.018-.08.035-0.15,0.056-0.22,0.035-.13.077-0.25,0.121-0.37,0.02-.06.039-0.12,0.061-0.17,0.051-.13.107-0.26,0.166-0.39,0.021-.04.042-0.09,0.064-0.13,0.065-.13.136-0.26,0.211-0.39,0.021-.04.041-0.07,0.063-0.11,0.081-.13.166-0.26,0.257-0.38a0.555,0.555,0,0,1,.06-0.08c0.1-.13.2-0.26,0.3-0.38,0.017-.02.036-0.04,0.055-0.06,0.128-.14.261-0.28,0.4-0.41l0.061-.06c0.142-.12.289-0.25,0.441-0.36,0.017-.01.035-0.03,0.053-0.04a5.35,5.35,0,0,1,.5-0.33c0.011-.01.021-0.01,0.031-0.02a6.058,6.058,0,0,1,.56-0.29h0a6.148,6.148,0,0,1,1.836-.51h0.021c0.214-.02.43-0.04,0.647-0.04a6.066,6.066,0,0,1,3.057.84h0.006a5.8,5.8,0,0,1,.52.34l0.038,0.03c0.156,0.12.307,0.24,0.453,0.37,0.018,0.02.036,0.03,0.054,0.05a4.883,4.883,0,0,1,.4.41A6.266,6.266,0,0,1,811.32,3786.99Zm6.16-19.56v6.7a1.485,1.485,0,0,1-1,1.4,7.242,7.242,0,0,0-4.441-2.16c-0.239-.02-0.481-0.03-0.723-0.03a7.209,7.209,0,0,0-5.23,2.26s-0.009.01-.013,0.01h-18.5a1.469,1.469,0,0,1-1.46-1.48v-6.7a1.478,1.478,0,0,1,1.46-1.49h28.439A1.478,1.478,0,0,1,817.48,3767.43Zm-29.9-2.62a1.478,1.478,0,0,1-1.46-1.49v-6.7a1.469,1.469,0,0,1,1.46-1.48h28.439a1.469,1.469,0,0,1,1.461,1.48v6.7a1.478,1.478,0,0,1-1.461,1.49H787.58Zm3.3,8.53a2.56,2.56,0,1,0-2.52-2.56A2.544,2.544,0,0,0,790.88,3773.34Zm0-3.98a1.42,1.42,0,1,1-1.4,1.42A1.407,1.407,0,0,1,790.88,3769.36Zm22.12,0a0.565,0.565,0,1,1-.56.56A0.56,0.56,0,0,1,813,3769.36Zm-2.24,0a0.565,0.565,0,1,1-.56.56A0.56,0.56,0,0,1,810.76,3769.36Zm3.36,1.7a0.57,0.57,0,1,1-.56.57A0.568,0.568,0,0,1,814.12,3771.06Zm-2.24,0a0.57,0.57,0,1,1-.56.57A0.568,0.568,0,0,1,811.88,3771.06Zm-3.36-1.7a0.565,0.565,0,1,1-.56.56A0.56,0.56,0,0,1,808.52,3769.36Zm1.12,1.7a0.57,0.57,0,1,1-.56.57A0.568,0.568,0,0,1,809.64,3771.06Zm-3.36-1.7a0.565,0.565,0,1,1-.56.56A0.56,0.56,0,0,1,806.28,3769.36Zm1.12,1.7a0.57,0.57,0,1,1-.56.57A0.568,0.568,0,0,1,807.4,3771.06Zm-3.36-1.7a0.565,0.565,0,1,1-.56.56A0.56,0.56,0,0,1,804.04,3769.36Zm1.12,1.7a0.57,0.57,0,1,1-.56.57A0.568,0.568,0,0,1,805.16,3771.06Zm-14.28,7.96a2.56,2.56,0,1,0,2.52,2.56A2.544,2.544,0,0,0,790.88,3779.02Zm0,3.99a1.425,1.425,0,1,1,1.4-1.43A1.416,1.416,0,0,1,790.88,3783.01Zm23.8-2.85h-2.8v-2.84a0.56,0.56,0,1,0-1.12,0v2.84h-2.8a0.568,0.568,0,0,0-.56.57,0.562,0.562,0,0,0,.56.57h2.8v2.84a0.56,0.56,0,1,0,1.12,0v-2.84h2.8a0.562,0.562,0,0,0,.56-0.57A0.568,0.568,0,0,0,814.68,3780.16Z" transform="translate(-785 -3754)"/>
</svg>
