<svg xmlns="http://www.w3.org/2000/svg" width="19" height="14" viewBox="0 0 19 14">
  <metadata><?xpacket begin="﻿" id="W5M0MpCehiHzreSzNTczkc9d"?>
<x:xmpmeta xmlns:x="adobe:ns:meta/" x:xmptk="Adobe XMP Core 5.6-c138 79.159824, 2016/09/14-01:09:01        ">
   <rdf:RDF xmlns:rdf="http://www.w3.org/1999/02/22-rdf-syntax-ns#">
      <rdf:Description rdf:about=""/>
   </rdf:RDF>
</x:xmpmeta>
                                                                                                    
                                                                                                    
                                                                                                    
                                                                                                    
                                                                                                    
                                                                                                    
                                                                                                    
                                                                                                    
                                                                                                    
                                                                                                    
                                                                                                    
                                                                                                    
                                                                                                    
                                                                                                    
                                                                                                    
                                                                                                    
                                                                                                    
                                                                                                    
                                                                                                    
                                                                                                    
                           
<?xpacket end="w"?></metadata>
<defs>
    <style>
      .cls-1 {
        fill: #d1d1d1;
        fill-rule: evenodd;
      }
    </style>
  </defs>
  <path id="Forma_1" data-name="Forma 1" class="cls-1" d="M477,3928.67a2.315,2.315,0,0,1-.305,1.12l-6-6.6,5.934-5.1a2.3,2.3,0,0,1,.37,1.24v9.34Zm-9.5-4.28,8.257-7.1a2.4,2.4,0,0,0-1.132-.29h-14.25a2.39,2.39,0,0,0-1.131.29Zm2.3-.43-1.911,1.65a0.616,0.616,0,0,1-.782,0l-1.912-1.65-6.074,6.68a2.416,2.416,0,0,0,1.252.36h14.25a2.418,2.418,0,0,0,1.252-.36Zm-11.432-5.87a2.3,2.3,0,0,0-.37,1.24v9.34a2.3,2.3,0,0,0,.305,1.12l6-6.6Z" transform="translate(-458 -3917)"/>
</svg>
