<svg id="Icon" xmlns="http://www.w3.org/2000/svg" xmlns:xlink="http://www.w3.org/1999/xlink" width="74" height="65" viewBox="0 0 74 65">
  <metadata><?xpacket begin="﻿" id="W5M0MpCehiHzreSzNTczkc9d"?>
<x:xmpmeta xmlns:x="adobe:ns:meta/" x:xmptk="Adobe XMP Core 5.6-c138 79.159824, 2016/09/14-01:09:01        ">
   <rdf:RDF xmlns:rdf="http://www.w3.org/1999/02/22-rdf-syntax-ns#">
      <rdf:Description rdf:about=""/>
   </rdf:RDF>
</x:xmpmeta>
                                                                                                    
                                                                                                    
                                                                                                    
                                                                                                    
                                                                                                    
                                                                                                    
                                                                                                    
                                                                                                    
                                                                                                    
                                                                                                    
                                                                                                    
                                                                                                    
                                                                                                    
                                                                                                    
                                                                                                    
                                                                                                    
                                                                                                    
                                                                                                    
                                                                                                    
                                                                                                    
                           
<?xpacket end="w"?></metadata>
<defs>
    <style>
      .cls-1, .cls-3 {
        fill: #44ce7c;
      }

      .cls-1 {
        opacity: 0.1;
      }

      .cls-2, .cls-3 {
        fill-rule: evenodd;
      }

      .cls-2 {
        fill: url(#linear-gradient);
      }
    </style>
    <linearGradient id="linear-gradient" x1="911.406" y1="2005.235" x2="942.594" y2="2005.235" gradientUnits="userSpaceOnUse">
      <stop offset="0" stop-color="#44ce75"/>
      <stop offset="1" stop-color="#43cea2"/>
    </linearGradient>
  </defs>
  <rect id="Rounded_Rectangle_541" data-name="Rounded Rectangle 541" class="cls-1" x="28.25" y="27.16" width="28.219" height="37.84" rx="3" ry="3"/>
  <path id="icon-2" data-name="icon" class="cls-2" d="M923.14,2013.76l-2.7,2.73-2.7-2.73-1.159,1.17,3.28,3.32a0.82,0.82,0,0,0,1.159,0l3.28-3.32Zm-1.88-3.56h-0.068a1.617,1.617,0,0,0-1.572,1.66v5.8h1.64v-5.8h8.2v-1.66h-8.2Zm12.879,1.9a0.82,0.82,0,0,0-1.159,0l-3.28,3.32,1.159,1.17,2.7-2.73,2.7,2.73,1.159-1.17Zm-1.4.59v5.8h-8.2v1.66h8.268a1.624,1.624,0,0,0,1.572-1.66v-5.8h-1.64Zm-16.4-22.38h8.2v1.66h-8.2v-1.66Zm0,3.32h1.639v1.66h-1.639v-1.66Zm3.279,0h1.64v1.66h-1.64v-1.66Zm22.719-1.42-6.56-6.63a0.836,0.836,0,0,0-.58-0.24H913.881a2.478,2.478,0,0,0-2.46,2.49v34.8a2.478,2.478,0,0,0,2.46,2.49h26.238a2.478,2.478,0,0,0,2.46-2.49V1992.8A0.854,0.854,0,0,0,942.339,1992.21Zm-1.4,30.42a0.824,0.824,0,0,1-.82.83H913.881a0.824,0.824,0,0,1-.82-0.83v-34.8a0.824,0.824,0,0,1,.82-0.83H934.86l6.079,6.14v29.49Zm-4.1-30.66a0.824,0.824,0,0,1-.82-0.83v-4.97H934.38v4.97a2.472,2.472,0,0,0,2.459,2.49h1.64v-1.66h-1.64Zm-18.859,9.12h6.56v3.31a0.824,0.824,0,0,0,.82.83h10.659v3.31h1.64v-3.31a1.648,1.648,0,0,0-1.64-1.66H926.18v-2.48a1.648,1.648,0,0,0-1.64-1.66h-6.56a1.648,1.648,0,0,0-1.639,1.66m5.739,2.48h3.28v1.66h-3.28v-1.66Z" transform="translate(-890 -1964)"/>
  <path id="Star" class="cls-3" d="M959.125,2003.44H964v1.65h-4.875v-1.65Zm1.625-1.6h1.656v4.85H960.75v-4.85ZM908.5,1980.5h2.906v0.94H908.5v-0.94Zm0.969-.97h0.968v2.91h-0.968v-2.91Zm-15.094,27.16a2.435,2.435,0,1,1-2.438,2.43A2.435,2.435,0,0,1,894.375,2006.69Zm60.375-28.16a1.455,1.455,0,1,1-1.469,1.45A1.46,1.46,0,0,1,954.75,1978.53Zm-24.844-12.94h4.875v1.63h-4.875v-1.63Zm1.625-1.59h1.656v4.84h-1.656V1964ZM890,1983.41h5.812v1.93H890v-1.93Zm1.937-1.97h1.938v5.81h-1.938v-5.81Z" transform="translate(-890 -1964)"/>
</svg>
