<svg id="Icon" xmlns="http://www.w3.org/2000/svg" width="40" height="36" viewBox="0 0 40 36">
  <metadata><?xpacket begin="﻿" id="W5M0MpCehiHzreSzNTczkc9d"?>
<x:xmpmeta xmlns:x="adobe:ns:meta/" x:xmptk="Adobe XMP Core 5.6-c138 79.159824, 2016/09/14-01:09:01        ">
   <rdf:RDF xmlns:rdf="http://www.w3.org/1999/02/22-rdf-syntax-ns#">
      <rdf:Description rdf:about=""/>
   </rdf:RDF>
</x:xmpmeta>
                                                                                                    
                                                                                                    
                                                                                                    
                                                                                                    
                                                                                                    
                                                                                                    
                                                                                                    
                                                                                                    
                                                                                                    
                                                                                                    
                                                                                                    
                                                                                                    
                                                                                                    
                                                                                                    
                                                                                                    
                                                                                                    
                                                                                                    
                                                                                                    
                                                                                                    
                                                                                                    
                           
<?xpacket end="w"?></metadata>
<defs>
    <style>
      .cls-1, .cls-2 {
        fill: #42cba2;
        fill-rule: evenodd;
      }

      .cls-1 {
        opacity: 0.1;
      }
    </style>
  </defs>
  <path id="Rounded_Rectangle_666" data-name="Rounded Rectangle 666" class="cls-1" d="M798.312,3620.62H819a5,5,0,0,1,5,5v15.85a5,5,0,0,1-5,5H798.312a5,5,0,0,1-5-5v-15.85A5,5,0,0,1,798.312,3620.62Z" transform="translate(-784 -3616)"/>
  <path id="icon-2" data-name="icon" class="cls-2" d="M816.178,3616H787.171a3.149,3.149,0,0,0-3.171,3.12v3.04a3.151,3.151,0,0,0,3.171,3.13h29.007a3.152,3.152,0,0,0,3.171-3.13v-3.04A3.15,3.15,0,0,0,816.178,3616Zm1.992,6.16a1.981,1.981,0,0,1-1.992,1.97H787.171a1.981,1.981,0,0,1-1.993-1.97v-3.04a1.979,1.979,0,0,1,1.993-1.96h29.007a1.979,1.979,0,0,1,1.992,1.96v3.04Zm-30.046-3.84a2.325,2.325,0,1,0,2.357,2.32A2.341,2.341,0,0,0,788.124,3618.32Zm0,3.49a1.165,1.165,0,1,1,1.178-1.17A1.178,1.178,0,0,1,788.124,3621.81Zm17.085,0h1.178v1.16h-1.178v-1.16Zm1.768,0h1.178v1.16h-1.178v-1.16Zm1.767,0h1.178v1.16h-1.178v-1.16Zm1.768,0h1.178v1.16h-1.178v-1.16Zm1.767,0h1.178v1.16h-1.178v-1.16Zm1.767,0h1.179v1.16h-1.179v-1.16Zm2.132,4.06H787.171A3.151,3.151,0,0,0,784,3629v3.04a3.149,3.149,0,0,0,3.171,3.12h29.007a3.15,3.15,0,0,0,3.171-3.12v-3.05A3.15,3.15,0,0,0,816.178,3625.87Zm1.992,6.17a1.979,1.979,0,0,1-1.992,1.96H787.171a1.979,1.979,0,0,1-1.993-1.96V3629a1.981,1.981,0,0,1,1.993-1.97h29.007a1.981,1.981,0,0,1,1.992,1.97v3.04Zm-30.046-3.85a2.325,2.325,0,1,0,2.357,2.33A2.343,2.343,0,0,0,788.124,3628.19Zm0,3.49a1.165,1.165,0,1,1,1.178-1.16A1.17,1.17,0,0,1,788.124,3631.68Zm17.085,0h1.178v1.16h-1.178v-1.16Zm1.768,0h1.178v1.16h-1.178v-1.16Zm1.767,0h1.178v1.16h-1.178v-1.16Zm1.768,0h1.178v1.16h-1.178v-1.16Zm1.767,0h1.178v1.16h-1.178v-1.16Zm1.767,0h1.179v1.16h-1.179v-1.16Zm-1.315,4.64H797.1a1.307,1.307,0,0,0-1.315,1.3v9.73a0.584,0.584,0,0,0,.589.58h17.085a0.584,0.584,0,0,0,.589-0.58v-9.73A1.306,1.306,0,0,0,812.731,3636.32Zm0.137,10.45H796.961v-9.15a0.137,0.137,0,0,1,.137-0.14h15.633a0.137,0.137,0,0,1,.137.14v9.15Zm2.334,4.49-1.178-4.07a0.6,0.6,0,0,0-.567-0.42H796.372a0.587,0.587,0,0,0-.567.42l-1.178,4.07a0.582,0.582,0,0,0,.1.51,0.61,0.61,0,0,0,.471.23h19.442a0.608,0.608,0,0,0,.47-0.23A0.582,0.582,0,0,0,815.2,3651.26Zm-19.227-.42,0.841-2.91h16.2l0.841,2.91H795.975Zm-1.96-8.13h-3.534v-6.39a0.59,0.59,0,0,0-1.179,0v6.97a0.585,0.585,0,0,0,.589.58h4.124A0.58,0.58,0,1,0,794.015,3642.71Zm13.551,6.39h-5.3a0.58,0.58,0,1,0,0,1.16h5.3A0.58,0.58,0,1,0,807.566,3649.1Z" transform="translate(-784 -3616)"/>
</svg>
