
<svg 
 xmlns="http://www.w3.org/2000/svg"
 xmlns:xlink="http://www.w3.org/1999/xlink"
 preserveAspectRatio="xMinYMin slice" viewBox="1 1 1123 1143">
<path fill-rule="evenodd"  id="Shape_1_copy" data-name="Shape 1 copy" class="cls-2"
 d="M1.000,-0.000 L0.000,1146.000 L1125.000,1144.000 L1127.000,-0.000 L1.000,-0.000 ZM1024.690,1074.882 C961.587,1133.850 868.505,1160.000 775.402,1127.599 L475.554,1023.416 L193.059,947.403 C100.935,922.608 39.499,852.367 18.062,771.500 C-17.000,679.611 2.208,568.385 86.811,494.956 L333.202,280.818 L536.303,77.139 C611.197,2.128 715.654,-12.000 802.048,22.110 C886.442,46.405 957.941,114.812 977.045,213.599 L1029.127,483.892 L1116.771,811.215 C1145.000,917.149 1101.584,1017.748 1024.690,1074.882 Z"/>
<path fill-rule="evenodd"  id="_01_copy" data-name="01 copy" class="cls-1"
 d="M950.652,188.755 C930.805,112.623 875.677,50.616 802.396,22.000 C887.069,46.350 958.733,114.911 977.797,213.919 L1030.000,484.819 L950.652,188.755 ZM1025.615,1077.073 C962.366,1136.069 869.069,1162.382 775.752,1129.971 L475.210,1025.554 L814.528,1116.939 C887.268,1137.019 965.206,1122.300 1025.615,1077.073 ZM16.662,773.073 C-18.481,680.977 0.771,569.501 85.569,495.908 L332.530,281.289 L80.766,533.728 C13.529,601.140 -4.762,692.379 16.662,773.073 Z"/>
</svg>