<svg xmlns="http://www.w3.org/2000/svg" preserveAspectRatio="xMinYMin slice" viewBox="1 1 538 546">
  <metadata><?xpacket begin="﻿" id="W5M0MpCehiHzreSzNTczkc9d"?>
<x:xmpmeta xmlns:x="adobe:ns:meta/" x:xmptk="Adobe XMP Core 5.6-c138 79.159824, 2016/09/14-01:09:01        ">
   <rdf:RDF xmlns:rdf="http://www.w3.org/1999/02/22-rdf-syntax-ns#">
      <rdf:Description rdf:about=""/>
   </rdf:RDF>
</x:xmpmeta>
                                                                                                    
                                                                                                
                           
<?xpacket end="w"?></metadata>
<defs>
    <style>
    </style>
  </defs>
  <path class="cls-1" d="M0,0S127.006-.333,190,0C107.292,13.383,84.377,61.691,74,129L19,330,0,408V0ZM540,0V547H0s-0.333-82,0-121c0.036,55.911,60.868,120.43,130,111,81.787-18.439,163.008-43.336,244-65,48.3-14.436,101.257-21.861,132-54,26.408-27.607,42.465-93.146,16-138-22.726-37.409-69.622-73.79-101-107-27.293-28.074-55.018-55.245-83-82-23.86-24.565-42.786-45.769-75-72C244.356,5.5,220.137.508,205,0H540ZM360,547"/>
  <path id="_03" data-name="03" class="cls-2" d="M309.6,489.851L131,537s-46.231,4.949-82-23c0,0,52.547,51.976,121.855,25.562Z"/>
  <path id="_02" data-name="02" class="cls-2" d="M384,136l110.275,95.908s37.659,26.182,45.4,78.769c0,0,2.8,28.242-8.679,60.323,0,0,23.186-69.341-38.658-126.082Z"/>
  <path id="_01" data-name="01" class="cls-2" d="M46,232L68.657,109.079s6.164-52.273,44.585-81.229c0,0,18.364-14.905,41.758-18.85,0,0-47.381,13.461-67,70Z"/>
</svg>
