<svg xmlns="http://www.w3.org/2000/svg" viewBox="0 0 469.333 469.333"><path d="M469.333 128V42.667C469.333 19.135 450.198 0 426.667 0h-384C19.135 0 0 19.135 0 42.667V128c0 12.805 5.784 24.174 14.741 32C5.784 167.826 0 179.195 0 192v85.333c0 12.805 5.784 24.174 14.741 32C5.784 317.159 0 328.529 0 341.333v85.333c0 23.531 19.135 42.667 42.667 42.667h384c23.531 0 42.667-19.135 42.667-42.667v-85.333c0-12.805-5.784-24.174-14.741-32 8.957-7.826 14.741-19.195 14.741-32V192c0-12.805-5.784-24.174-14.741-32 8.956-7.826 14.74-19.195 14.74-32z" fill="#303c42"/><path d="M448 341.333v85.333c0 11.76-9.573 21.333-21.333 21.333h-384c-11.76 0-21.333-9.573-21.333-21.333v-85.333c0-11.76 9.573-21.333 21.333-21.333h384c11.76 0 21.333 9.573 21.333 21.333zM448 192v85.333c0 11.76-9.573 21.333-21.333 21.333h-384c-11.76 0-21.333-9.573-21.333-21.333V192c0-11.76 9.573-21.333 21.333-21.333h384c11.76 0 21.333 9.573 21.333 21.333zM42.667 149.333c-11.76 0-21.333-9.573-21.333-21.333V42.667c0-11.76 9.573-21.333 21.333-21.333h384c11.76 0 21.333 9.573 21.333 21.333V128c0 11.76-9.573 21.333-21.333 21.333h-384z" fill="#e6e6e6"/><path d="M48 426.667v-85.333C48 329.573 56.376 320 66.667 320h-24c-11.76 0-21.333 9.573-21.333 21.333v85.333c0 11.76 9.573 21.333 21.333 21.333h24C56.376 448 48 438.427 48 426.667z" opacity=".2" fill="#fff"/><path d="M426.667 320h-24c10.29 0 18.667 9.573 18.667 21.333v85.333c0 11.76-8.376 21.333-18.667 21.333h24c11.76 0 21.333-9.573 21.333-21.333v-85.333c0-11.76-9.573-21.333-21.333-21.333zm0-149.333h-24c10.29 0 18.667 9.573 18.667 21.333v85.333c0 11.76-8.376 21.333-18.667 21.333h24c11.76 0 21.333-9.573 21.333-21.333V192c0-11.76-9.573-21.333-21.333-21.333z" opacity=".1"/><path d="M48 277.333V192c0-11.76 8.376-21.333 18.667-21.333h-24c-11.76 0-21.333 9.573-21.333 21.333v85.333c0 11.76 9.573 21.333 21.333 21.333h24C56.376 298.667 48 289.094 48 277.333zM48 128V42.667c0-11.76 8.376-21.333 18.667-21.333h-24c-11.76 0-21.333 9.573-21.333 21.333V128c0 11.76 9.573 21.333 21.333 21.333h24C56.376 149.333 48 139.76 48 128z" opacity=".2" fill="#fff"/><path d="M426.667 21.333h-24c10.29 0 18.667 9.573 18.667 21.333V128c0 11.76-8.376 21.333-18.667 21.333h24c11.76 0 21.333-9.573 21.333-21.333V42.667c0-11.761-9.573-21.334-21.333-21.334z" opacity=".1"/><g fill="#303c42"><path d="M74.667 42.667A10.66 10.66 0 0 0 64 53.333v64A10.66 10.66 0 0 0 74.667 128a10.66 10.66 0 0 0 10.667-10.667v-64a10.661 10.661 0 0 0-10.667-10.666zm42.666 0a10.66 10.66 0 0 0-10.667 10.667v64c0 5.896 4.771 10.667 10.667 10.667S128 123.229 128 117.333v-64a10.66 10.66 0 0 0-10.667-10.666zm42.667 0a10.66 10.66 0 0 0-10.667 10.667v64A10.66 10.66 0 0 0 160 128.001a10.66 10.66 0 0 0 10.667-10.667v-64A10.66 10.66 0 0 0 160 42.667z"/><circle cx="384" cy="85.333" r="21.333"/><circle cx="320" cy="85.333" r="21.333"/><path d="M74.667 277.333a10.66 10.66 0 0 0 10.667-10.667v-64a10.66 10.66 0 0 0-10.667-10.667A10.662 10.662 0 0 0 64 202.667v64a10.66 10.66 0 0 0 10.667 10.666zm42.666 0A10.66 10.66 0 0 0 128 266.666v-64c0-5.896-4.771-10.667-10.667-10.667s-10.667 4.771-10.667 10.667v64a10.662 10.662 0 0 0 10.667 10.667zm42.667 0a10.66 10.66 0 0 0 10.667-10.667v-64A10.66 10.66 0 0 0 160 191.999a10.66 10.66 0 0 0-10.667 10.667v64A10.66 10.66 0 0 0 160 277.333z"/><circle cx="384" cy="234.667" r="21.333"/><circle cx="320" cy="234.667" r="21.333"/><path d="M74.667 426.667A10.66 10.66 0 0 0 85.334 416v-64a10.66 10.66 0 0 0-10.667-10.667A10.66 10.66 0 0 0 64 352v64a10.66 10.66 0 0 0 10.667 10.667zm42.666 0A10.66 10.66 0 0 0 128 416v-64c0-5.896-4.771-10.667-10.667-10.667s-10.667 4.771-10.667 10.667v64a10.662 10.662 0 0 0 10.667 10.667zm42.667 0A10.66 10.66 0 0 0 170.667 416v-64A10.66 10.66 0 0 0 160 341.333 10.66 10.66 0 0 0 149.333 352v64A10.66 10.66 0 0 0 160 426.667z"/><circle cx="384" cy="384" r="21.333"/><circle cx="320" cy="384" r="21.333"/></g><linearGradient id="a" gradientUnits="userSpaceOnUse" x1="-68.689" y1="619.051" x2="-43.384" y2="607.251" gradientTransform="matrix(21.3333 0 0 -21.3333 1430.111 13315.223)"><stop offset="0" stop-color="#fff" stop-opacity=".2"/><stop offset="1" stop-color="#fff" stop-opacity="0"/></linearGradient><path d="M469.333 128V42.667C469.333 19.135 450.198 0 426.667 0h-384C19.135 0 0 19.135 0 42.667V128c0 12.805 5.784 24.174 14.741 32C5.784 167.826 0 179.195 0 192v85.333c0 12.805 5.784 24.174 14.741 32C5.784 317.159 0 328.529 0 341.333v85.333c0 23.531 19.135 42.667 42.667 42.667h384c23.531 0 42.667-19.135 42.667-42.667v-85.333c0-12.805-5.784-24.174-14.741-32 8.957-7.826 14.741-19.195 14.741-32V192c0-12.805-5.784-24.174-14.741-32 8.956-7.826 14.74-19.195 14.74-32z" fill="url(#a)"/></svg>