<svg xmlns="http://www.w3.org/2000/svg" viewBox="0 0 512 512"><path d="M437.333 469.333H288v-10.667a10.66 10.66 0 0 0-10.667-10.667h-10.667v-21.874c112.658-5.612 202.667-98.758 202.667-212.793C469.333 95.698 373.625 0 256 0S42.667 95.698 42.667 213.333c0 114.035 90.009 207.181 202.667 212.793V448h-10.667A10.66 10.66 0 0 0 224 458.667v10.667H74.667A10.66 10.66 0 0 0 64 480a10.66 10.66 0 0 0 10.667 10.667H224v10.667a10.66 10.66 0 0 0 10.667 10.667h42.667a10.66 10.66 0 0 0 10.667-10.667v-10.667h149.333A10.66 10.66 0 0 0 448.001 480a10.662 10.662 0 0 0-10.668-10.667z" fill="#303c42"/><path d="M191.885 309.333h128.229c-14.074 59.254-40.023 96-64.115 96s-50.039-36.746-64.114-96zm-10.552-96c0-27.082 2.303-52.125 6.217-74.667h136.898c3.914 22.542 6.217 47.585 6.217 74.667s-2.303 52.125-6.217 74.667H187.551c-3.914-22.542-6.218-47.585-6.218-74.667zm74.667-192c24.091 0 50.04 36.746 64.115 96h-128.23c14.075-59.254 40.024-96 64.115-96zm47.772 377.741c16.499-20.651 29.772-51.831 38.191-89.741h80.059c-25.509 43.939-67.879 76.77-118.25 89.741zM432.887 288h-86.84c3.79-23.174 5.953-48.228 5.953-74.667 0-26.438-2.163-51.492-5.953-74.667h86.84C442.617 161.63 448 186.865 448 213.333s-5.383 51.703-15.113 74.667zm-10.865-170.667h-80.059c-8.419-37.911-21.693-69.09-38.191-89.741 50.371 12.972 92.741 45.803 118.25 89.741zM208.228 27.592c-16.499 20.651-29.772 51.829-38.191 89.741H89.978c25.509-43.938 67.879-76.769 118.25-89.741zM79.115 138.667h86.839c-3.79 23.174-5.953 48.229-5.953 74.667 0 26.439 2.163 51.492 5.953 74.667H79.115C69.384 265.036 64 239.802 64 213.333s5.384-51.703 15.115-74.666zm10.863 170.666h80.059c8.419 37.91 21.693 69.09 38.191 89.741-50.371-12.971-92.741-45.802-118.25-89.741z" fill="#bbdefb"/><path fill="#ff6f00" d="M245.333 469.333h21.333v21.333h-21.333z"/><path d="M213.333 352c-2.645 0-5.216-.29-7.835-.396 14.245 33.853 32.85 53.729 50.501 53.729 22.344 0 46.159-31.875 60.743-83.73C286.876 340.757 251.449 352 213.333 352zm90.439 47.074c50.371-12.971 92.741-45.802 118.25-89.741h-80.059c-8.419 37.91-21.692 69.09-38.191 89.741zm129.115-260.407h-28.805c.776 7.012 1.251 14.115 1.251 21.333 0 49.245-18.698 94.014-49.18 128h76.733c9.73-22.964 15.113-48.198 15.113-74.667s-5.382-51.703-15.112-74.666zm-10.865-21.334c-10.427-17.961-23.793-33.927-39.249-47.578 7.9 14.802 13.822 30.785 17.638 47.578h21.611zm-329.245 192h-2.799c25.509 43.939 67.879 76.77 118.25 89.741-10.202-12.768-18.971-29.945-26.322-49.866-33.397-5.511-63.906-19.487-89.129-39.875z" opacity=".1"/><linearGradient id="a" gradientUnits="userSpaceOnUse" x1="-44.911" y1="638.254" x2="-23.626" y2="628.326" gradientTransform="matrix(21.3333 0 0 -21.3333 996.333 13791.667)"><stop offset="0" stop-color="#fff" stop-opacity=".2"/><stop offset="1" stop-color="#fff" stop-opacity="0"/></linearGradient><path d="M437.333 469.333H288v-10.667a10.66 10.66 0 0 0-10.667-10.667h-10.667v-21.874c112.658-5.612 202.667-98.758 202.667-212.793C469.333 95.698 373.625 0 256 0S42.667 95.698 42.667 213.333c0 114.035 90.009 207.181 202.667 212.793V448h-10.667A10.66 10.66 0 0 0 224 458.667v10.667H74.667A10.66 10.66 0 0 0 64 480a10.66 10.66 0 0 0 10.667 10.667H224v10.667a10.66 10.66 0 0 0 10.667 10.667h42.667a10.66 10.66 0 0 0 10.667-10.667v-10.667h149.333A10.66 10.66 0 0 0 448.001 480a10.662 10.662 0 0 0-10.668-10.667z" fill="url(#a)"/></svg>