<svg xmlns="http://www.w3.org/2000/svg" viewBox="0 0 469.333 469.333"><path d="M469.333 128V42.667C469.333 19.135 450.198 0 426.667 0h-384C19.135 0 0 19.135 0 42.667V128c0 12.805 5.784 24.174 14.741 32C5.784 167.826 0 179.195 0 192v85.333C0 300.865 19.135 320 42.667 320H224v85.333h-10.667A10.66 10.66 0 0 0 202.666 416v10.667H53.333c-5.896 0-10.667 4.771-10.667 10.667S47.438 448 53.333 448h149.333v10.667a10.66 10.66 0 0 0 10.667 10.667H256a10.66 10.66 0 0 0 10.667-10.667V448H416c5.896 0 10.667-4.771 10.667-10.667s-4.771-10.667-10.667-10.667H266.667V416A10.66 10.66 0 0 0 256 405.333h-10.667V320h181.333c23.531 0 42.667-19.135 42.667-42.667V192c0-12.805-5.784-24.174-14.741-32 8.957-7.826 14.741-19.195 14.741-32z" fill="#303c42"/><path fill="#e65100" d="M224 426.667h21.333V448H224z"/><path d="M448 192v85.333c0 11.76-9.573 21.333-21.333 21.333h-384c-11.76 0-21.333-9.573-21.333-21.333V192c0-11.76 9.573-21.333 21.333-21.333h384c11.76 0 21.333 9.573 21.333 21.333zM42.667 149.333c-11.76 0-21.333-9.573-21.333-21.333V42.667c0-11.76 9.573-21.333 21.333-21.333h384c11.76 0 21.333 9.573 21.333 21.333V128c0 11.76-9.573 21.333-21.333 21.333h-384z" fill="#e6e6e6"/><path d="M42.667 277.333V192c0-11.76 8.616-21.333 19.201-21.333H42.667c-11.76 0-21.333 9.573-21.333 21.333v85.333c0 11.76 9.573 21.333 21.333 21.333h19.201c-10.585.001-19.201-9.572-19.201-21.333z" opacity=".2" fill="#fff"/><path d="M426.667 170.667h-19.201c10.585 0 19.201 9.573 19.201 21.333v85.333c0 11.76-8.616 21.333-19.201 21.333h19.201c11.76 0 21.333-9.573 21.333-21.333V192c0-11.76-9.573-21.333-21.333-21.333z" opacity=".1"/><path d="M42.667 128V42.667c0-11.76 8.616-21.333 19.201-21.333H42.667c-11.76 0-21.333 9.573-21.333 21.333V128c0 11.76 9.573 21.333 21.333 21.333h19.201c-10.585 0-19.201-9.573-19.201-21.333z" opacity=".2" fill="#fff"/><path d="M426.667 21.333h-19.201c10.585 0 19.201 9.573 19.201 21.333V128c0 11.76-8.616 21.333-19.201 21.333h19.201c11.76 0 21.333-9.573 21.333-21.333V42.667c0-11.761-9.573-21.334-21.333-21.334z" opacity=".1"/><g fill="#303c42"><path d="M74.667 42.667A10.66 10.66 0 0 0 64 53.333v64A10.66 10.66 0 0 0 74.667 128a10.66 10.66 0 0 0 10.667-10.667v-64a10.661 10.661 0 0 0-10.667-10.666zm42.666 0a10.66 10.66 0 0 0-10.667 10.667v64c0 5.896 4.771 10.667 10.667 10.667S128 123.229 128 117.333v-64a10.66 10.66 0 0 0-10.667-10.666zm42.667 0a10.66 10.66 0 0 0-10.667 10.667v64A10.66 10.66 0 0 0 160 128.001a10.66 10.66 0 0 0 10.667-10.667v-64A10.66 10.66 0 0 0 160 42.667z"/><circle cx="384" cy="85.333" r="21.333"/><circle cx="320" cy="85.333" r="21.333"/><path d="M74.667 277.333a10.66 10.66 0 0 0 10.667-10.667v-64a10.66 10.66 0 0 0-10.667-10.667A10.662 10.662 0 0 0 64 202.667v64a10.66 10.66 0 0 0 10.667 10.666zm42.666 0A10.66 10.66 0 0 0 128 266.666v-64c0-5.896-4.771-10.667-10.667-10.667s-10.667 4.771-10.667 10.667v64a10.662 10.662 0 0 0 10.667 10.667zm42.667 0a10.66 10.66 0 0 0 10.667-10.667v-64A10.66 10.66 0 0 0 160 191.999a10.66 10.66 0 0 0-10.667 10.667v64A10.66 10.66 0 0 0 160 277.333z"/><circle cx="384" cy="234.667" r="21.333"/><circle cx="320" cy="234.667" r="21.333"/></g><linearGradient id="a" gradientUnits="userSpaceOnUse" x1="-68.423" y1="619.621" x2="-44.697" y2="608.557" gradientTransform="matrix(21.3333 0 0 -21.3333 1430.111 13315.223)"><stop offset="0" stop-color="#fff" stop-opacity=".2"/><stop offset="1" stop-color="#fff" stop-opacity="0"/></linearGradient><path d="M469.333 128V42.667C469.333 19.135 450.198 0 426.667 0h-384C19.135 0 0 19.135 0 42.667V128c0 12.805 5.784 24.174 14.741 32C5.784 167.826 0 179.195 0 192v85.333C0 300.865 19.135 320 42.667 320H224v85.333h-10.667A10.66 10.66 0 0 0 202.666 416v10.667H53.333c-5.896 0-10.667 4.771-10.667 10.667S47.438 448 53.333 448h149.333v10.667a10.66 10.66 0 0 0 10.667 10.667H256a10.66 10.66 0 0 0 10.667-10.667V448H416c5.896 0 10.667-4.771 10.667-10.667s-4.771-10.667-10.667-10.667H266.667V416A10.66 10.66 0 0 0 256 405.333h-10.667V320h181.333c23.531 0 42.667-19.135 42.667-42.667V192c0-12.805-5.784-24.174-14.741-32 8.957-7.826 14.741-19.195 14.741-32z" fill="url(#a)"/></svg>