<svg xmlns="http://www.w3.org/2000/svg" width="67.712" height="20.789" viewBox="0 0 70.94 21.78">
  <metadata><?xpacket begin="﻿" id="W5M0MpCehiHzreSzNTczkc9d"?>
<x:xmpmeta xmlns:x="adobe:ns:meta/" x:xmptk="Adobe XMP Core 5.6-c138 79.159824, 2016/09/14-01:09:01        ">
   <rdf:RDF xmlns:rdf="http://www.w3.org/1999/02/22-rdf-syntax-ns#">
      <rdf:Description rdf:about=""/>
   </rdf:RDF>
</x:xmpmeta>
                                                                                                    
                                                                                                    
                                                                                                    
                                                                                                    
                                                                                                    
                                                                                                    
                                                                                                    
                                                                                                    
                                                                                                    
                                                                                                    
                                                                                                    
                                                                                                    
                                                                                                    
                                                                                                    
                                                                                                    
                                                                                                    
                                                                                                    
                                                                                                    
                                                                                                    
                                                                                                    
                           
<?xpacket end="w"?></metadata>
<defs>
    <style>
      .cls-1 {
        fill: #002197;
        fill-rule: evenodd;
        opacity: 0.5;
      }
    </style>
  </defs>
  <path id="amazon" class="cls-1" d="M1398.38,4377.59a3.217,3.217,0,0,0-5.57.87,3,3,0,0,0-5.74,0h-0.04v-1.5a0.412,0.412,0,0,0-.4-0.38h-2.04a0.417,0.417,0,0,0-.43.41v11.47a0.42,0.42,0,0,0,.4.38h2.19a0.408,0.408,0,0,0,.42-0.41v-6.09c0-1.32-.06-3.16,1.52-3.16,1.56,0,1.35,1.89,1.35,3.16v6.09a0.424,0.424,0,0,0,.4.41h2.19a0.414,0.414,0,0,0,.42-0.41v-6.09a6.861,6.861,0,0,1,.21-2.19,1.45,1.45,0,0,1,1.31-.94,1.137,1.137,0,0,1,1.29.98,15.359,15.359,0,0,1,.06,2.15v6.09a0.424,0.424,0,0,0,.4.41h2.19a0.421,0.421,0,0,0,.42-0.41l0.01-7.24C1398.94,4379.96,1399.08,4378.56,1398.38,4377.59Zm28.94-1.25c-3.18,0-4.94,2.78-4.94,6.35,0,3.54,1.74,6.39,4.94,6.39,3.07,0,5.02-2.77,5.02-6.27C1432.35,4379.19,1430.58,4376.34,1427.32,4376.34Zm0,10.38c-1.72,0-1.7-3-1.7-4.4s0.1-3.64,1.72-3.64a1.371,1.371,0,0,1,1.43,1.11,10.667,10.667,0,0,1,.33,3.04C1429.11,4384.3,1429.03,4386.72,1427.32,4386.72Zm-16.09.02a3.069,3.069,0,0,1-.83-2.07v-3.48c0-1.48.1-2.83-.96-3.85a4.953,4.953,0,0,0-3.31-1.11c-2.09,0-4.42.79-4.91,3.42a0.4,0.4,0,0,0,.33.47l2.12,0.23a0.467,0.467,0,0,0,.39-0.41,1.671,1.671,0,0,1,1.76-1.34,1.449,1.449,0,0,1,1.23.58,2.893,2.893,0,0,1,.27,1.62v0.29a15.227,15.227,0,0,0-4.13.77,3.8,3.8,0,0,0-2.34,3.66,3.143,3.143,0,0,0,3.28,3.48,4.308,4.308,0,0,0,3.62-1.62,5.456,5.456,0,0,0,1.26,1.49,0.452,0.452,0,0,0,.52-0.05h0.01c0.43-.39,1.23-1.1,1.68-1.48A0.443,0.443,0,0,0,1411.23,4386.74Zm-3.91-3.38a4.494,4.494,0,0,1-.41,2.38,1.782,1.782,0,0,1-1.52,1.01,1.4,1.4,0,0,1-1.34-1.62c0-1.9,1.68-2.25,3.27-2.25v0.48Zm35.11-5.67a2.857,2.857,0,0,0-2.56-1.35c-1.52,0-2.38.74-3,2.31h-0.03v-1.75a0.406,0.406,0,0,0-.39-0.32h-2.04a0.415,0.415,0,0,0-.42.37v11.48a0.41,0.41,0,0,0,.4.41h2.18a0.417,0.417,0,0,0,.43-0.41v-6.18a5.137,5.137,0,0,1,.35-2.17,1.445,1.445,0,0,1,1.27-.92c1.51,0,1.37,1.84,1.37,3.09v6.23a0.426,0.426,0,0,0,.39.37h2.2a0.441,0.441,0,0,0,.43-0.37v-7.22A7.342,7.342,0,0,0,1442.43,4377.69Zm-21.49,8.05a7.711,7.711,0,0,0-4.11-.9l3.74-5.44a2.224,2.224,0,0,0,.54-1.03v-1.4a0.4,0.4,0,0,0-.41-0.42h-7.22a0.408,0.408,0,0,0-.41.42v1.64a0.408,0.408,0,0,0,.42.41h3.77l-4.33,6.33a2.021,2.021,0,0,0-.27,1.12v1.67a0.384,0.384,0,0,0,.52.37,8.208,8.208,0,0,1,7.62-.01,0.383,0.383,0,0,0,.53-0.37v-1.76A0.754,0.754,0,0,0,1420.94,4385.74Zm-1.39,4.15c-0.45-.57-4.32-1.05-6.67.63-0.36.26-.31,0.62,0.1,0.57,1.33-.16,4.28-0.52,4.81.16s-0.59,3.52-1.09,4.79c-0.15.38,0.18,0.53,0.51,0.25C1419.43,4394.41,1420,4390.46,1419.55,4389.89Zm-4.07,2.38a36.444,36.444,0,0,1-32.84-2.08c-0.46-.27-0.81.21-0.42,0.57a27.275,27.275,0,0,0,18.62,7.23,26.656,26.656,0,0,0,15.24-4.74C1416.76,4392.74,1416.18,4391.97,1415.48,4392.27Zm-33.03-5.53a3.023,3.023,0,0,1-.83-2.07v-3.48c0-1.48.1-2.83-.97-3.85a4.91,4.91,0,0,0-3.3-1.11c-2.09,0-4.42.79-4.91,3.42a0.4,0.4,0,0,0,.32.47l2.14,0.23a0.468,0.468,0,0,0,.38-0.41,1.678,1.678,0,0,1,1.76-1.34,1.461,1.461,0,0,1,1.23.58,2.893,2.893,0,0,1,.27,1.62v0.29a15.24,15.24,0,0,0-4.13.78,3.8,3.8,0,0,0-2.34,3.65,3.143,3.143,0,0,0,3.28,3.48,4.3,4.3,0,0,0,3.62-1.62,5.456,5.456,0,0,0,1.26,1.49,0.452,0.452,0,0,0,.52-0.05h0.01c0.44-.39,1.23-1.1,1.68-1.48A0.433,0.433,0,0,0,1382.45,4386.74Zm-3.91-3.38a4.494,4.494,0,0,1-.41,2.38,1.77,1.77,0,0,1-1.52,1.01,1.39,1.39,0,0,1-1.33-1.62c0-1.9,1.67-2.25,3.26-2.25v0.48Z" transform="translate(-1372.06 -4376.22)"/>
</svg>
