<svg xmlns="http://www.w3.org/2000/svg" width="18.5" height="21" viewBox="0 0 18.5 21">
  <metadata><?xpacket begin="﻿" id="W5M0MpCehiHzreSzNTczkc9d"?>
<x:xmpmeta xmlns:x="adobe:ns:meta/" x:xmptk="Adobe XMP Core 5.6-c138 79.159824, 2016/09/14-01:09:01        ">
   <rdf:RDF xmlns:rdf="http://www.w3.org/1999/02/22-rdf-syntax-ns#">
      <rdf:Description rdf:about=""/>
   </rdf:RDF>
</x:xmpmeta>
                                                                                                    
                                                                                                    
                                                                                                    
                                                                                                    
                                                                                                    
                                                                                                    
                                                                                                    
                                                                                                    
                                                                                                    
                                                                                                    
                                                                                                    
                                                                                                    
                                                                                                    
                                                                                                    
                                                                                                    
                                                                                                    
                                                                                                    
                                                                                                    
                                                                                                    
                                                                                                    
                           
<?xpacket end="w"?></metadata>
<defs>
    <style>
      .cls-1 {
        fill: #002197;
        fill-rule: evenodd;
        opacity: 0.5;
      }
    </style>
  </defs>
  <path id="android" class="cls-1" d="M1283.99,4383h-0.05a1.281,1.281,0,0,0-1.3,1.25v5.45a1.283,1.283,0,0,0,1.3,1.26h0.05a1.289,1.289,0,0,0,1.3-1.26v-5.45A1.288,1.288,0,0,0,1283.99,4383Zm1.92,8.8a1.166,1.166,0,0,0,1.19,1.15h1.27v2.95a1.272,1.272,0,0,0,1.29,1.25h0.06a1.281,1.281,0,0,0,1.3-1.25v-2.95h1.77v2.95a1.281,1.281,0,0,0,1.3,1.25h0.06a1.272,1.272,0,0,0,1.29-1.25v-2.95h1.28a1.163,1.163,0,0,0,1.18-1.15v-8.6h-11.99v8.6Zm8.98-13.81,1.01-1.51a0.2,0.2,0,0,0-.06-0.29,0.222,0.222,0,0,0-.3.06l-1.04,1.56a7.255,7.255,0,0,0-5.19,0l-1.04-1.56a0.22,0.22,0,0,0-.3-0.06,0.2,0.2,0,0,0-.06.29l1.01,1.51a4.941,4.941,0,0,0-3.05,4.35c0,0.12,0,.23.01,0.34h12.05c0.01-.11.01-0.22,0.01-0.34A4.908,4.908,0,0,0,1294.89,4377.99Zm-5.78,2.69a0.57,0.57,0,0,1-.58-0.56,0.562,0.562,0,0,1,.58-0.55,0.556,0.556,0,0,1,.58.55A0.57,0.57,0,0,1,1289.11,4380.68Zm5.59,0a0.57,0.57,0,0,1-.58-0.56,0.581,0.581,0,0,1,1.16,0A0.57,0.57,0,0,1,1294.7,4380.68Zm5.17,2.32h-0.05a1.288,1.288,0,0,0-1.3,1.25v5.45a1.289,1.289,0,0,0,1.3,1.26h0.05a1.283,1.283,0,0,0,1.3-1.26v-5.45A1.281,1.281,0,0,0,1299.87,4383Z" transform="translate(-1282.66 -4376.16)"/>
</svg>
