<svg xmlns="http://www.w3.org/2000/svg" width="33" height="40" viewBox="0 0 33 40">
  <metadata><?xpacket begin="﻿" id="W5M0MpCehiHzreSzNTczkc9d"?>
<x:xmpmeta xmlns:x="adobe:ns:meta/" x:xmptk="Adobe XMP Core 5.6-c138 79.159824, 2016/09/14-01:09:01        ">
   <rdf:RDF xmlns:rdf="http://www.w3.org/1999/02/22-rdf-syntax-ns#">
      <rdf:Description rdf:about=""/>
   </rdf:RDF>
</x:xmpmeta>
                                                                                                    
                                                                                                    
                                                                                                    
                                                                                                    
                                                                                                    
                                                                                                    
                                                                                                    
                                                                                                    
                                                                                                    
                                                                                                    
                                                                                                    
                                                                                                    
                                                                                                    
                                                                                                    
                                                                                                    
                                                                                                    
                                                                                                    
                                                                                                    
                                                                                                    
                                                                                                    
                           
<?xpacket end="w"?></metadata>
<defs>
    <style>
      .cls-1 {
        fill: #fff;
        fill-rule: evenodd;
      }
    </style>
  </defs>
  <path id="apple" class="cls-1" d="M667.7,4539.7c-3.414,5.87-1.244,14.78,2.531,20.18,1.885,2.7,3.793,5.12,6.406,5.12h0.149a8.031,8.031,0,0,0,2.973-.79,8.15,8.15,0,0,1,3.521-.83,7.76,7.76,0,0,1,3.352.8,7.192,7.192,0,0,0,3.211.77c2.943-.06,4.751-2.67,6.345-4.98a22.016,22.016,0,0,0,2.78-5.64l0.012-.03a0.337,0.337,0,0,0-.176-0.41s-0.02-.01-0.024-0.01a8.367,8.367,0,0,1-5.113-7.65,8.571,8.571,0,0,1,4.1-7.19l0.032-.02a0.351,0.351,0,0,0,.145-0.21,0.32,0.32,0,0,0-.051-0.25,9.564,9.564,0,0,0-7.512-4.04,4.737,4.737,0,0,0-.656-0.04,13.185,13.185,0,0,0-4.714,1.17,4.247,4.247,0,0,1-4.6-.01,11.516,11.516,0,0,0-4.118-1.03h-0.1A10.11,10.11,0,0,0,667.7,4539.7Zm22.688-14.7a9.254,9.254,0,0,0-6.087,3.09,8.51,8.51,0,0,0-2.187,6.35,0.328,0.328,0,0,0,.3.28c0.141,0.01.284,0.02,0.428,0.02a7.827,7.827,0,0,0,5.745-2.92,8.965,8.965,0,0,0,2.14-6.53A0.329,0.329,0,0,0,690.391,4525Z" transform="translate(-666 -4525)"/>
</svg>
