<svg xmlns="http://www.w3.org/2000/svg" width="29" height="32" viewBox="0 0 29 32">
  <metadata><?xpacket begin="﻿" id="W5M0MpCehiHzreSzNTczkc9d"?>
<x:xmpmeta xmlns:x="adobe:ns:meta/" x:xmptk="Adobe XMP Core 5.6-c138 79.159824, 2016/09/14-01:09:01        ">
   <rdf:RDF xmlns:rdf="http://www.w3.org/1999/02/22-rdf-syntax-ns#">
      <rdf:Description rdf:about=""/>
   </rdf:RDF>
</x:xmpmeta>
                                                                                                    
                                                                                                    
                                                                                                    
                                                                                                    
                                                                                                    
                                                                                                    
                                                                                                    
                                                                                                    
                                                                                                    
                                                                                                    
                                                                                                    
                                                                                                    
                                                                                                    
                                                                                                    
                                                                                                    
                                                                                                    
                                                                                                    
                                                                                                    
                                                                                                    
                                                                                                    
                           
<?xpacket end="w"?></metadata>
<defs>
    <style>
      .cls-1 {
        fill: #fff;
        fill-rule: evenodd;
      }
    </style>
  </defs>
  <path id="play" class="cls-1" d="M453.22,4544.94l-21.933-12.48a3.577,3.577,0,0,0-3.527.01,3.54,3.54,0,0,0-1.76,3.05v24.96a3.511,3.511,0,0,0,1.76,3.04,3.544,3.544,0,0,0,3.527.02l21.933-12.49A3.512,3.512,0,0,0,453.22,4544.94Zm-9.5-2.95-3.012,4.18-7.2-9.99ZM429.4,4561.85a1.383,1.383,0,0,1-.56-0.17,1.4,1.4,0,0,1-.692-1.2v-24.96a1.4,1.4,0,0,1,.693-1.2,1.378,1.378,0,0,1,.557-0.18l9.992,13.86Zm4.106-2.03,7.2-9.99,3.012,4.17Zm18.656-10.62-6.571,3.74-3.563-4.94,3.563-4.94,6.571,3.74a1.371,1.371,0,0,1,.7,1.2A1.4,1.4,0,0,1,452.157,4549.2Z" transform="translate(-426 -4532)"/>
</svg>
