<svg xmlns="http://www.w3.org/2000/svg" width="17.47" height="21" viewBox="0 0 17.47 21">
  <metadata><?xpacket begin="﻿" id="W5M0MpCehiHzreSzNTczkc9d"?>
<x:xmpmeta xmlns:x="adobe:ns:meta/" x:xmptk="Adobe XMP Core 5.6-c138 79.159824, 2016/09/14-01:09:01        ">
   <rdf:RDF xmlns:rdf="http://www.w3.org/1999/02/22-rdf-syntax-ns#">
      <rdf:Description rdf:about=""/>
   </rdf:RDF>
</x:xmpmeta>
                                                                                                    
                                                                                                    
                                                                                                    
                                                                                                    
                                                                                                    
                                                                                                    
                                                                                                    
                                                                                                    
                                                                                                    
                                                                                                    
                                                                                                    
                                                                                                    
                                                                                                    
                                                                                                    
                                                                                                    
                                                                                                    
                                                                                                    
                                                                                                    
                                                                                                    
                                                                                                    
                           
<?xpacket end="w"?></metadata>
<defs>
    <style>
      .cls-1 {
        fill: #002197;
        fill-rule: evenodd;
      }
    </style>
  </defs>
  <path id="apple_hover_" data-name="apple (hover)" class="cls-1" d="M1252.86,4376.16h0.15a4.417,4.417,0,0,1-1.15,3.39,3.622,3.622,0,0,1-3.16,1.45,4.3,4.3,0,0,1,1.18-3.28A5.107,5.107,0,0,1,1252.86,4376.16Zm4.61,15.42v0.04a12.046,12.046,0,0,1-1.78,3.37c-0.68.92-1.51,2.16-3,2.16-1.29,0-2.15-.81-3.46-0.84-1.4-.02-2.17.68-3.44,0.86h-0.44a3.869,3.869,0,0,1-2.24-1.52,13.1,13.1,0,0,1-3.11-7.63v-0.94a6.148,6.148,0,0,1,2.74-5.06,4.723,4.723,0,0,1,3.11-.7,7.409,7.409,0,0,1,1.52.43,4.366,4.366,0,0,0,1.53.44,3.727,3.727,0,0,0,1.07-.32,6.694,6.694,0,0,1,3.43-.59,4.794,4.794,0,0,1,3.51,2.04,4.414,4.414,0,0,0-2.29,4.38A4.526,4.526,0,0,0,1257.47,4391.58Z" transform="translate(-1240 -4376.16)"/>
</svg>
