<svg xmlns="http://www.w3.org/2000/svg" width="52" height="65" viewBox="0 0 52 65">
  <metadata><?xpacket begin="﻿" id="W5M0MpCehiHzreSzNTczkc9d"?>
<x:xmpmeta xmlns:x="adobe:ns:meta/" x:xmptk="Adobe XMP Core 5.6-c138 79.159824, 2016/09/14-01:09:01        ">
   <rdf:RDF xmlns:rdf="http://www.w3.org/1999/02/22-rdf-syntax-ns#">
      <rdf:Description rdf:about=""/>
   </rdf:RDF>
</x:xmpmeta>
                                                                                                    
                                                                                                    
                                                                                                    
                                                                                                    
                                                                                                    
                                                                                                    
                                                                                                    
                                                                                                    
                                                                                                    
                                                                                                    
                                                                                                    
                                                                                                    
                                                                                                    
                                                                                                    
                                                                                                    
                                                                                                    
                                                                                                    
                                                                                                    
                                                                                                    
                                                                                                    
                           
<?xpacket end="w"?></metadata>
<defs>
    <style>
      .cls-1 {
        fill: #f0f0f0;
        fill-rule: evenodd;
      }
    </style>
  </defs>
  <path id="icon" class="cls-1" d="M977.941,3635.05a18.1,18.1,0,0,0-35.881,0,0.949,0.949,0,1,0,1.882.25,16.2,16.2,0,0,1,32.116,0,0.953,0.953,0,0,0,.94.83,0.557,0.557,0,0,0,.128-0.01A0.952,0.952,0,0,0,977.941,3635.05Zm-0.8,3.62a0.956,0.956,0,0,0-1.059.83,16.2,16.2,0,0,1-32.16-.01,0.949,0.949,0,1,0-1.885.23,18.1,18.1,0,0,0,35.93.01A0.953,0.953,0,0,0,977.138,3638.67Zm-11.642,4.82h-2.129v-16.33a1.227,1.227,0,0,0-1.224-1.23h-3.2a1.2,1.2,0,0,0-.787.29l-5.819,4.89a1.231,1.231,0,0,0-.177,1.7l1.908,2.44a1.21,1.21,0,0,0,1.745.19l1.326-1.1v9.15h-2.688a1.225,1.225,0,0,0-1.224,1.22v2.92a1.225,1.225,0,0,0,1.224,1.22H965.5a1.225,1.225,0,0,0,1.224-1.22v-2.92A1.225,1.225,0,0,0,965.5,3643.49Zm-0.676,3.46h-9.7v-1.56h2.687a1.227,1.227,0,0,0,1.224-1.23V3632.9a1.22,1.22,0,0,0-2-.94l-1.9,1.57-1.079-1.38,5.13-4.32h2.281v16.33a1.227,1.227,0,0,0,1.224,1.23h2.129v1.56Zm20.937,20.52-8.557-13.41a4.09,4.09,0,0,0,3.184-4.76,2.187,2.187,0,0,1,1.17-2.35,4.1,4.1,0,0,0,1.65-5.82,2.2,2.2,0,0,1,.242-2.62,4.087,4.087,0,0,0-.556-6.01,2.2,2.2,0,0,1-.718-2.53,4.092,4.092,0,0,0-2.687-5.41,2.2,2.2,0,0,1-1.583-2.1,4.089,4.089,0,0,0-1.331-3.02,4.036,4.036,0,0,0-3.123-1.05,2.21,2.21,0,0,1-2.233-1.39,4.061,4.061,0,0,0-5.62-2.18,2.186,2.186,0,0,1-2.581-.49,4.08,4.08,0,0,0-6.028,0,2.186,2.186,0,0,1-2.581.49,4.061,4.061,0,0,0-5.62,2.18,2.213,2.213,0,0,1-2.233,1.39,4.035,4.035,0,0,0-3.123,1.05,4.089,4.089,0,0,0-1.331,3.02,2.2,2.2,0,0,1-1.583,2.1,4.092,4.092,0,0,0-2.687,5.41,2.2,2.2,0,0,1-.718,2.53,4.087,4.087,0,0,0-.556,6.01,2.2,2.2,0,0,1,.242,2.62,4.1,4.1,0,0,0,1.649,5.82,2.188,2.188,0,0,1,1.171,2.35,4.09,4.09,0,0,0,3.184,4.76l-8.557,13.41a1.53,1.53,0,0,0,1.417,2.35l8.351-.74,2.839,7.91a1.524,1.524,0,0,0,1.263,1,1.016,1.016,0,0,0,.174.01,1.518,1.518,0,0,0,1.279-.7L960,3660.93l10.434,16.36a1.5,1.5,0,0,0,1.279.71,1.016,1.016,0,0,0,.174-0.01,1.524,1.524,0,0,0,1.263-1l2.839-7.91,8.351,0.74A1.53,1.53,0,0,0,985.757,3667.47Zm-49.5.38,8.343-13.08a2.161,2.161,0,0,1,.59,1.13,4.1,4.1,0,0,0,1.14,2.15l-5.942,9.44Zm9.805,1.32-0.361-1.01a1.522,1.522,0,0,0-1.566-1l-1.369.12,5.188-8.24a4.124,4.124,0,0,0,2.361.04,2.166,2.166,0,0,1,1.882.34Zm2.317,6.45-1.5-4.18,6.625-10.53a4.088,4.088,0,0,0,1.978.99,4.294,4.294,0,0,0,1.676-.04Zm12.214-16.78a1.15,1.15,0,0,0-.185-0.02c-0.136-.01-0.271-0.02-0.407-0.02s-0.271.01-.406,0.02a1.15,1.15,0,0,0-.186.02,4.128,4.128,0,0,0-1.866.78,2.186,2.186,0,0,1-3.165-.59,2.7,2.7,0,0,0-.223-0.32,0.172,0.172,0,0,0-.038-0.05,4.078,4.078,0,0,0-4.322-1.41,2.19,2.19,0,0,1-2.738-1.7,4.115,4.115,0,0,0-2.254-2.94,1.273,1.273,0,0,0-.182-0.08,4.011,4.011,0,0,0-1.2-.3,2.152,2.152,0,0,1-1.538-.86,2.173,2.173,0,0,1-.4-1.72,4.111,4.111,0,0,0-2.191-4.41,2.185,2.185,0,0,1-.881-3.1,4.117,4.117,0,0,0-.454-4.91,2.183,2.183,0,0,1,.3-3.21,4.119,4.119,0,0,0,1.345-4.74,2.188,2.188,0,0,1,1.435-2.89,4.111,4.111,0,0,0,2.962-3.93,2.162,2.162,0,0,1,.711-1.62,2.137,2.137,0,0,1,1.669-.56,4.093,4.093,0,0,0,4.178-2.59,2.178,2.178,0,0,1,3-1.17,4.092,4.092,0,0,0,4.832-.9,2.16,2.16,0,0,1,3.22,0,4.09,4.09,0,0,0,4.831.9,2.178,2.178,0,0,1,3,1.17,4.094,4.094,0,0,0,4.179,2.59,2.139,2.139,0,0,1,1.669.56,2.165,2.165,0,0,1,.711,1.62,4.11,4.11,0,0,0,2.961,3.93,2.189,2.189,0,0,1,1.436,2.89,4.116,4.116,0,0,0,1.345,4.74,2.184,2.184,0,0,1,.3,3.21,4.119,4.119,0,0,0-.454,4.91,2.185,2.185,0,0,1-.881,3.1,4.113,4.113,0,0,0-2.191,4.41,2.173,2.173,0,0,1-.4,1.72,2.151,2.151,0,0,1-1.537.86,4.024,4.024,0,0,0-1.2.3,1.251,1.251,0,0,0-.18.08,4.116,4.116,0,0,0-2.255,2.94,2.19,2.19,0,0,1-2.738,1.7,4.08,4.08,0,0,0-4.323,1.41c-0.012.01-.024,0.03-0.036,0.04-0.079.11-.154,0.21-0.224,0.33a2.186,2.186,0,0,1-3.165.59A4.12,4.12,0,0,0,960.592,3658.84Zm11.03,16.78-8.779-13.76a4.14,4.14,0,0,0,.93.1,4.693,4.693,0,0,0,.747-0.06,4.088,4.088,0,0,0,1.978-.99l6.625,10.53Zm4.244-8.46a1.522,1.522,0,0,0-1.566,1l-0.361,1.01-6.136-9.75a2.169,2.169,0,0,1,1.883-.34,4.124,4.124,0,0,0,2.361-.04l5.187,8.24Zm3.746,0.33-5.941-9.44a4.1,4.1,0,0,0,1.14-2.15,2.168,2.168,0,0,1,.59-1.13l8.343,13.08Z" transform="translate(-934 -3613)"/>
</svg>
