<svg xmlns="http://www.w3.org/2000/svg" width="62" height="68" viewBox="0 0 62 68">
  <metadata><?xpacket begin="﻿" id="W5M0MpCehiHzreSzNTczkc9d"?>
<x:xmpmeta xmlns:x="adobe:ns:meta/" x:xmptk="Adobe XMP Core 5.6-c138 79.159824, 2016/09/14-01:09:01        ">
   <rdf:RDF xmlns:rdf="http://www.w3.org/1999/02/22-rdf-syntax-ns#">
      <rdf:Description rdf:about=""/>
   </rdf:RDF>
</x:xmpmeta>
                                                                                                    
                                                                                                    
                                                                                                    
                                                                                                    
                                                                                                    
                                                                                                    
                                                                                                    
                                                                                                    
                                                                                                    
                                                                                                    
                                                                                                    
                                                                                                    
                                                                                                    
                                                                                                    
                                                                                                    
                                                                                                    
                                                                                                    
                                                                                                    
                                                                                                    
                                                                                                    
                           
<?xpacket end="w"?></metadata>
<defs>
    <style>
      .cls-1 {
        fill: #fff;
        fill-rule: evenodd;
        opacity: 0.1;
      }
    </style>
  </defs>
  <path id="icon" class="cls-1" d="M961,1176.07a21.453,21.453,0,0,0-7.44,41.43v11.46a1.247,1.247,0,0,0,1.24,1.26h1.24v2.52a1.253,1.253,0,0,0,1.24,1.26h7.44a1.253,1.253,0,0,0,1.24-1.26v-2.52h1.24a1.247,1.247,0,0,0,1.24-1.26V1217.5A21.453,21.453,0,0,0,961,1176.07Zm3.72,51.63a1.247,1.247,0,0,0-1.24,1.26v2.52h-4.96v-2.52a1.247,1.247,0,0,0-1.24-1.26h-1.24v-6.3h9.92v6.3h-1.24Zm2.093-12.29a1.265,1.265,0,0,0-.853,1.2v2.28h-9.92v-2.28a1.266,1.266,0,0,0-.853-1.2A18.6,18.6,0,1,1,966.813,1215.41ZM961,1173.55a1.247,1.247,0,0,0,1.24-1.26v-5.03a1.24,1.24,0,1,0-2.48,0v5.03A1.247,1.247,0,0,0,961,1173.55Zm29.76,22.67H985.8a1.26,1.26,0,0,0,0,2.52h4.96A1.26,1.26,0,0,0,990.76,1196.22Zm-54.56,0h-4.96a1.26,1.26,0,0,0,0,2.52h4.96A1.26,1.26,0,0,0,936.2,1196.22Zm44.967-21-3.506,3.56a1.271,1.271,0,0,0,0,1.78,1.223,1.223,0,0,0,1.753,0l3.507-3.56a1.273,1.273,0,0,0,0-1.78A1.23,1.23,0,0,0,981.167,1175.22Zm-38.581,39.18-3.507,3.56a1.271,1.271,0,0,0,0,1.78,1.224,1.224,0,0,0,1.754,0l3.506-3.56a1.271,1.271,0,0,0,0-1.78A1.212,1.212,0,0,0,942.586,1214.4Zm36.828,0a1.212,1.212,0,0,0-1.753,0,1.271,1.271,0,0,0,0,1.78l3.506,3.56a1.224,1.224,0,0,0,1.754,0,1.273,1.273,0,0,0,0-1.78Zm-36.828-33.84a1.223,1.223,0,0,0,1.753,0,1.271,1.271,0,0,0,0-1.78l-3.506-3.56a1.23,1.23,0,0,0-1.754,0,1.271,1.271,0,0,0,0,1.78ZM961,1182.37a15.014,15.014,0,0,0-14.88,15.11,1.24,1.24,0,1,0,2.48,0,12.512,12.512,0,0,1,12.4-12.59A1.26,1.26,0,0,0,961,1182.37Z" transform="translate(-930 -1166)"/>
</svg>
