<svg xmlns="http://www.w3.org/2000/svg" width="44" height="75.06" viewBox="0 0 44 75.06">
  <metadata><?xpacket begin="﻿" id="W5M0MpCehiHzreSzNTczkc9d"?>
<x:xmpmeta xmlns:x="adobe:ns:meta/" x:xmptk="Adobe XMP Core 5.6-c138 79.159824, 2016/09/14-01:09:01        ">
   <rdf:RDF xmlns:rdf="http://www.w3.org/1999/02/22-rdf-syntax-ns#">
      <rdf:Description rdf:about=""/>
   </rdf:RDF>
</x:xmpmeta>
                                                                                                    
                                                                                                    
                                                                                                    
                                                                                                    
                                                                                                    
                                                                                                    
                                                                                                    
                                                                                                    
                                                                                                    
                                                                                                    
                                                                                                    
                                                                                                    
                                                                                                    
                                                                                                    
                                                                                                    
                                                                                                    
                                                                                                    
                                                                                                    
                                                                                                    
                                                                                                    
                           
<?xpacket end="w"?></metadata>
<defs>
    <style>
      .cls-1 {
        fill: #fff;
        fill-rule: evenodd;
        opacity: 0.1;
      }
    </style>
  </defs>
  <path id="icon" class="cls-1" d="M963.127,7476.97c11.541,0,22.905,5.98,22.905,20.28,0,13.19-13.438,18.26-16.322,23.02-2.166,3.55-1.442,8.53-7.395,8.53-3.877,0-5.771-3.55-5.771-6.79,0-12.08,15.776-14.82,15.776-24.76,0-5.47-3.24-8.72-8.653-8.72-11.543,0-7.036,13.39-15.777,13.39-3.156,0-5.865-2.13-5.865-6.19C942.025,7485.78,952.124,7476.97,963.127,7476.97Zm-0.45,58.41c4.053,0,7.394,3.75,7.394,8.32s-3.337,8.32-7.394,8.32-7.4-3.74-7.4-8.32S958.619,7535.38,962.677,7535.38Z" transform="translate(-942.031 -7476.97)"/>
</svg>
