<svg xmlns="http://www.w3.org/2000/svg" width="29" height="45" viewBox="0 0 29 45">
  <metadata><?xpacket begin="﻿" id="W5M0MpCehiHzreSzNTczkc9d"?>
<x:xmpmeta xmlns:x="adobe:ns:meta/" x:xmptk="Adobe XMP Core 5.6-c138 79.159824, 2016/09/14-01:09:01        ">
   <rdf:RDF xmlns:rdf="http://www.w3.org/1999/02/22-rdf-syntax-ns#">
      <rdf:Description rdf:about=""/>
   </rdf:RDF>
</x:xmpmeta>
                                                                                                    
                                                                                                    
                                                                                                    
                                                                                                    
                                                                                                    
                                                                                                    
                                                                                                    
                                                                                                    
                                                                                                    
                                                                                                    
                                                                                                    
                                                                                                    
                                                                                                    
                                                                                                    
                                                                                                    
                                                                                                    
                                                                                                    
                                                                                                    
                                                                                                    
                                                                                                    
                           
<?xpacket end="w"?></metadata>
<defs>
    <style>
      .cls-1 {
        fill: #cfd6f8;
        fill-rule: evenodd;
      }
    </style>
  </defs>
  <path id="icon" class="cls-1" d="M1168.99,895.622V874.3a0.886,0.886,0,0,0-.29-0.671l-10.45-10.341a0.876,0.876,0,0,0-.68-0.284h-16.61a0.9,0.9,0,0,0-.96.955v31.594a0.9,0.9,0,0,0,.96.955h11.59v0.384a3.443,3.443,0,0,0,3.47,3.443h1.45v5.75h-1.93V908h5.8V906.08h-1.93v-5.75h1.36a3.433,3.433,0,0,0,3.48-3.351v-0.411h3.86A0.788,0.788,0,0,0,1168.99,895.622Zm-3.3-22.282h-7.06v-6.989Zm-3.28,23.648a1.523,1.523,0,0,1-1.55,1.533h-4.74a1.523,1.523,0,0,1-1.55-1.533V886.555a1.523,1.523,0,0,1,1.55-1.534h1.35v6.7h1.93v-6.7h1.45a1.523,1.523,0,0,1,1.55,1.534v10.433h0.01Zm1.84-2.322v-8.111a3.446,3.446,0,0,0-3.48-3.444h-4.75a3.45,3.45,0,0,0-3.47,3.444v8.038h-10.53V864.918h14.68V874.3a0.908,0.908,0,0,0,.97.955h9.47v19.408h-2.89v0.008ZM1145,870h4.66v2H1145v-2Zm0,6h9.28v1H1145v-1Zm0,4h13v1h-13v-1Z" transform="translate(-1140 -863)"/>
</svg>
