<svg xmlns="http://www.w3.org/2000/svg" width="25" height="37" viewBox="0 0 25 37">
  <metadata><?xpacket begin="﻿" id="W5M0MpCehiHzreSzNTczkc9d"?>
<x:xmpmeta xmlns:x="adobe:ns:meta/" x:xmptk="Adobe XMP Core 5.6-c138 79.159824, 2016/09/14-01:09:01        ">
   <rdf:RDF xmlns:rdf="http://www.w3.org/1999/02/22-rdf-syntax-ns#">
      <rdf:Description rdf:about=""/>
   </rdf:RDF>
</x:xmpmeta>
                                                                                                    
                                                                                                    
                                                                                                    
                                                                                                    
                                                                                                    
                                                                                                    
                                                                                                    
                                                                                                    
                                                                                                    
                                                                                                    
                                                                                                    
                                                                                                    
                                                                                                    
                                                                                                    
                                                                                                    
                                                                                                    
                                                                                                    
                                                                                                    
                                                                                                    
                                                                                                    
                           
<?xpacket end="w"?></metadata>
<defs>
    <style>
      .cls-1 {
        fill: #cfd6f8;
        fill-rule: evenodd;
      }
    </style>
  </defs>
  <path id="icon" class="cls-1" d="M861.591,863H843.409A3.313,3.313,0,0,0,840,866.2v32.708a1.058,1.058,0,0,0,.592.936,1.2,1.2,0,0,0,1.159-.038l4.728-2.853,5.464,2.884a1.193,1.193,0,0,0,1.114,0l5.464-2.884,4.728,2.853a1.2,1.2,0,0,0,1.159.038,1.058,1.058,0,0,0,.592-0.936V866.2A3.313,3.313,0,0,0,861.591,863Zm1.136,33.955-3.552-2.144a1.2,1.2,0,0,0-1.172-.032l-5.5,2.906-5.5-2.906a1.2,1.2,0,0,0-1.171.032l-3.552,2.144V866.2a1.1,1.1,0,0,1,1.136-1.067h18.182a1.1,1.1,0,0,1,1.136,1.067v30.755Zm-5.682-17.422a2.484,2.484,0,0,0-2.556-2.4h-0.853V875.8a1.138,1.138,0,0,0-2.272,0v1.334h-2.273a1.1,1.1,0,0,0-1.136,1.066v8a1.1,1.1,0,0,0,1.136,1.067h2.273V888.6a1.138,1.138,0,0,0,2.272,0v-1.333h0.853a2.485,2.485,0,0,0,2.556-2.4v-1.333a2.273,2.273,0,0,1,0-2.666v-1.333Zm-2.272,5.332a0.277,0.277,0,0,1-.284.267h-4.262v-1.867h4.262a0.277,0.277,0,0,1,.284.267v1.333Zm0-4a0.276,0.276,0,0,1-.284.266h-4.262v-1.866h4.262a0.276,0.276,0,0,1,.284.267v1.333Zm0.421-11.822h-0.829a1.069,1.069,0,1,0,0,2.134h0.829A1.069,1.069,0,1,0,855.194,869.043Zm-4.559,0h-0.829a1.069,1.069,0,1,0,0,2.134h0.829A1.069,1.069,0,1,0,850.635,869.043Zm-4.56,0h-0.829a1.069,1.069,0,1,0,0,2.134h0.829A1.069,1.069,0,1,0,846.075,869.043Zm13.679,0h-0.829a1.069,1.069,0,1,0,0,2.134h0.829A1.069,1.069,0,1,0,859.754,869.043Z" transform="translate(-840 -863)"/>
</svg>
