<svg xmlns="http://www.w3.org/2000/svg" xmlns:xlink="http://www.w3.org/1999/xlink" width="40" height="38" viewBox="0 0 40 38">
  <metadata><?xpacket begin="﻿" id="W5M0MpCehiHzreSzNTczkc9d"?>
<x:xmpmeta xmlns:x="adobe:ns:meta/" x:xmptk="Adobe XMP Core 5.6-c138 79.159824, 2016/09/14-01:09:01        ">
   <rdf:RDF xmlns:rdf="http://www.w3.org/1999/02/22-rdf-syntax-ns#">
      <rdf:Description rdf:about=""/>
   </rdf:RDF>
</x:xmpmeta>
                                                                                                    
                                                                                                    
                                                                                                    
                                                                                                    
                                                                                                    
                                                                                                    
                                                                                                    
                                                                                                    
                                                                                                    
                                                                                                    
                                                                                                    
                                                                                                    
                                                                                                    
                                                                                                    
                                                                                                    
                                                                                                    
                                                                                                    
                                                                                                    
                                                                                                    
                                                                                                    
                           
<?xpacket end="w"?></metadata>
<defs>
    <style>
      .cls-1 {
        fill-rule: evenodd;
        fill: url(#linear-gradient);
      }
    </style>
    <linearGradient id="linear-gradient" x1="521" y1="881" x2="561" y2="881" gradientUnits="userSpaceOnUse">
      <stop offset="0" stop-color="#0cf"/>
      <stop offset="1" stop-color="#baff00"/>
    </linearGradient>
  </defs>
  <path id="icon_hover_" data-name="icon (hover)" class="cls-1" d="M547.715,886.433a1.455,1.455,0,1,1,1.719-1.43A0.782,0.782,0,0,0,551,885a3.024,3.024,0,0,0-2.5-2.848v-0.39a0.782,0.782,0,0,0-1.562,0v0.39a3.024,3.024,0,0,0-2.5,2.848,3.125,3.125,0,0,0,3.281,2.932,1.454,1.454,0,1,1-1.719,1.43,0.782,0.782,0,0,0-1.562,0,3.022,3.022,0,0,0,2.5,2.847v0.325a0.782,0.782,0,0,0,1.562,0v-0.325a3.022,3.022,0,0,0,2.5-2.847A3.125,3.125,0,0,0,547.715,886.433Zm8.557-4.467a10.063,10.063,0,0,0-4.158-3.537,0.8,0.8,0,0,0-1.043.351,0.738,0.738,0,0,0,.366,1,8.29,8.29,0,0,1,4.875,7.45,8.028,8.028,0,0,1-1,3.875,0.736,0.736,0,0,0,.322,1.015,0.8,0.8,0,0,0,.367.088,0.786,0.786,0,0,0,.69-0.4A9.449,9.449,0,0,0,556.272,881.966Zm-7.329-4.5H548.89a0.752,0.752,0,1,0,0,1.5h0.05A0.752,0.752,0,1,0,548.943,877.47ZM544,894.682a8.29,8.29,0,0,1-4.875-7.45,8.029,8.029,0,0,1,1-3.875,0.737,0.737,0,0,0-.323-1.015,0.8,0.8,0,0,0-1.057.31,9.453,9.453,0,0,0,.418,9.846,10.072,10.072,0,0,0,4.158,3.538,0.815,0.815,0,0,0,.338.074,0.786,0.786,0,0,0,.705-0.426A0.738,0.738,0,0,0,544,894.682Zm2.547,0.811H546.5a0.751,0.751,0,1,0-.007,1.5h0.052A0.751,0.751,0,1,0,546.547,895.493Zm4.719-20.564a3.361,3.361,0,0,0-.347-0.614h2.034a3.457,3.457,0,1,0,0-6.909H546.7a3.34,3.34,0,0,0,.631-1.952A3.53,3.53,0,0,0,543.734,862h-19.14a3.457,3.457,0,1,0,0,6.909h6.256a3.336,3.336,0,0,0,0,3.9h-2.038a3.531,3.531,0,0,0-3.593,3.455,3.367,3.367,0,0,1,0,5.407,3.367,3.367,0,0,1,0,5.407,3.367,3.367,0,0,1,0,5.407,3.529,3.529,0,0,0,3.593,3.454h9.207a13.5,13.5,0,0,0,9.7,4.056A13.046,13.046,0,0,0,561,887.232,12.879,12.879,0,0,0,551.266,874.929Zm1.687-6.021a1.954,1.954,0,1,1,0,3.9H533.812a1.954,1.954,0,1,1,0-3.9h19.141Zm-28.359-1.5a1.955,1.955,0,1,1,0-3.906h19.14a1.955,1.955,0,1,1,0,3.906h-19.14Zm4.218,6.909h19.141a2.078,2.078,0,0,1,.886.2c-0.369-.03-0.743-0.047-1.12-0.047a13.514,13.514,0,0,0-9.4,3.755h-9.508A1.954,1.954,0,1,1,528.812,874.315Zm0,5.407h8.174a12.552,12.552,0,0,0-2.009,3.906h-6.165A1.954,1.954,0,1,1,528.812,879.722Zm0,5.407h5.807a12.256,12.256,0,0,0-.049,3.9h-5.758A1.954,1.954,0,1,1,528.812,885.129Zm0,9.313a1.954,1.954,0,1,1,0-3.906h6.077a12.516,12.516,0,0,0,1.875,3.906h-7.952Zm18.907,4.054a11.273,11.273,0,1,1,11.718-11.264A11.511,11.511,0,0,1,547.719,898.5Z" transform="translate(-521 -862)"/>
</svg>
