<svg xmlns="http://www.w3.org/2000/svg" width="94" height="71" viewBox="0 0 94 71">
  <metadata><?xpacket begin="﻿" id="W5M0MpCehiHzreSzNTczkc9d"?>
<x:xmpmeta xmlns:x="adobe:ns:meta/" x:xmptk="Adobe XMP Core 5.6-c138 79.159824, 2016/09/14-01:09:01        ">
   <rdf:RDF xmlns:rdf="http://www.w3.org/1999/02/22-rdf-syntax-ns#">
      <rdf:Description rdf:about=""/>
   </rdf:RDF>
</x:xmpmeta>
                                                                                                    
                                                                                                    
                                                                                                    
                                                                                                    
                                                                                                    
                                                                                                    
                                                                                                    
                                                                                                    
                                                                                                    
                                                                                                    
                                                                                                    
                                                                                                    
                                                                                                    
                                                                                                    
                                                                                                    
                                                                                                    
                                                                                                    
                                                                                                    
                                                                                                    
                                                                                                    
                           
<?xpacket end="w"?></metadata>
<defs>
    <style>
      .cls-1 {
        fill: #fff;
        fill-rule: evenodd;
        opacity: 0.1;
      }
    </style>
  </defs>
  <path id="icon" class="cls-1" d="M981.9,1956a4,4,0,0,1-3.52-2.15l-12.746-22.84-12.917,22.13a3.987,3.987,0,0,1-3.483,2.09,3.865,3.865,0,0,1-2.082-.61l-1.121-.7a4.244,4.244,0,0,1-1.412-5.52l0.014-.03,15.456-27.29-2.916-5.22a32.775,32.775,0,0,1-13.507,4.61,15.99,15.99,0,0,0-8.877,4.94,3.241,3.241,0,0,1-2.4,1.08,3.168,3.168,0,0,1-2.815-1.74l-10.2-19.87a3.234,3.234,0,0,1-.364-1.47,4.2,4.2,0,0,1,1.509-3.04c4.967-4.76,12-6.47,16.662-7.6l0.063-.02c0.837-.2,1.627-0.4,2.274-0.58a9.592,9.592,0,0,0,4.553-2.95,4.365,4.365,0,0,1,2.229-2.94l1.135-.69a3.935,3.935,0,0,1,5.545,1.62l12.848,23.74,13.525-23.88a4.007,4.007,0,0,1,2.954-2.06l0.169-.01,0.9,0.01a3.931,3.931,0,0,1,1.552.57l1.123,0.7a4.407,4.407,0,0,1,2.169,2.99,9.654,9.654,0,0,0,4.5,3.06c0.648,0.19,1.44.4,2.278,0.63l0.048,0.01c4.635,1.23,11.642,3.1,16.512,7.95,2.06,2.05,1.43,3.86,1.06,4.54l-10.56,19.65a3.169,3.169,0,0,1-2.786,1.68,3.234,3.234,0,0,1-2.446-1.13,16.076,16.076,0,0,0-8.791-5.13,32.728,32.728,0,0,1-13.416-4.91l-3.248,5.57,15.2,28.07a4.247,4.247,0,0,1-1.519,5.5l-1.135.68A3.871,3.871,0,0,1,981.9,1956Zm-16.219-29.88,14.853,26.61a1.55,1.55,0,0,0,1.366.87,1.418,1.418,0,0,0,.746-0.21l1.136-.68a1.842,1.842,0,0,0,.619-2.35l-15.814-29.22,4.433-7.59a2.378,2.378,0,0,1,.318-0.45l0.49-.5,0.685,0.17a2.871,2.871,0,0,1,.949.51l0.051,0.03a30.039,30.039,0,0,0,12.927,4.85,18.707,18.707,0,0,1,10.217,5.92,0.833,0.833,0,0,0,.612.31,0.746,0.746,0,0,0,.637-0.41l10.559-19.65c0.1-.17.38-0.7-0.63-1.72-4.42-4.39-11.042-6.16-15.424-7.32l-0.05-.02c-0.857-.23-1.668-0.44-2.355-0.65a12.11,12.11,0,0,1-5.95-4.18l-0.263-.34,0.014-.42a1.989,1.989,0,0,0-1.071-1.37l-1.124-.71a1.364,1.364,0,0,0-.508-0.2h-0.533a1.565,1.565,0,0,0-1.083.81l-0.01.02-15.7,27.72-14.955-27.63a1.577,1.577,0,0,0-1.378-.89,1.528,1.528,0,0,0-.747.21l-1.135.69a1.964,1.964,0,0,0-1.1,1.34l0.006,0.43-0.271.34a12.031,12.031,0,0,1-6.023,4.04c-0.687.19-1.5,0.39-2.354,0.6l-0.063.01c-4.4,1.08-11.057,2.7-15.552,7a2.016,2.016,0,0,0-.77,1.31,0.835,0.835,0,0,0,.1.39l10.2,19.87a0.729,0.729,0,0,0,.645.43,0.848,0.848,0,0,0,.6-0.29,18.465,18.465,0,0,1,10.324-5.7,30.09,30.09,0,0,0,13.014-4.57l0.045-.03a2.816,2.816,0,0,1,.969-0.49l0.7-.16,0.477,0.53a2.058,2.058,0,0,1,.291.43l4.063,7.28-16.105,28.43a1.842,1.842,0,0,0,.574,2.37l1.122,0.71a1.441,1.441,0,0,0,.773.23,1.553,1.553,0,0,0,1.35-.84l0.017-.03Zm-7.662-10.82h0Z" transform="translate(-919 -1885)"/>
</svg>
