<svg xmlns="http://www.w3.org/2000/svg" width="65" height="65" viewBox="0 0 65 65">
  <metadata><?xpacket begin="﻿" id="W5M0MpCehiHzreSzNTczkc9d"?>
<x:xmpmeta xmlns:x="adobe:ns:meta/" x:xmptk="Adobe XMP Core 5.6-c138 79.159824, 2016/09/14-01:09:01        ">
   <rdf:RDF xmlns:rdf="http://www.w3.org/1999/02/22-rdf-syntax-ns#">
      <rdf:Description rdf:about=""/>
   </rdf:RDF>
</x:xmpmeta>
                                                                                                    
                                                                                                    
                                                                                                    
                                                                                                    
                                                                                                    
                                                                                                    
                                                                                                    
                                                                                                    
                                                                                                    
                                                                                                    
                                                                                                    
                                                                                                    
                                                                                                    
                                                                                                    
                                                                                                    
                                                                                                    
                                                                                                    
                                                                                                    
                                                                                                    
                                                                                                    
                           
<?xpacket end="w"?></metadata>
<defs>
    <style>
      .cls-1 {
        fill: #f0f0f0;
        fill-rule: evenodd;
      }
    </style>
  </defs>
  <path id="icon" class="cls-1" d="M949.512,2755a32.493,32.493,0,0,0-29.876,19.71l-0.406.13,0.158,0.47A32.491,32.491,0,1,0,949.512,2755ZM975,2803.89l-1.669-1.67v-3.89a1.055,1.055,0,0,0-.108-0.48L969,2789.41v-4.08a1.083,1.083,0,0,0-.482-0.9l-3.25-2.16a1.026,1.026,0,0,0-.866-0.15l-3.98.99-6.684-2.87-0.919-6.44,2.548-2.55h5.471l1.842,2.77a1.086,1.086,0,0,0,.723.47l6.5,1.08a1.144,1.144,0,0,0,.52-0.04l5.986-2A30.239,30.239,0,0,1,975,2803.89Zm-4.467-38.21-1.762,1.17-4.909-.98-3.186-1.06a1.038,1.038,0,0,0-.6-0.03l-4.028,1.01-1.765-.59,1.308-2.62h3.664a1.019,1.019,0,0,0,.484-0.11l3.747-1.87A29.988,29.988,0,0,1,970.533,2765.68Zm-32.894-6.09,2.6,1.73a1.089,1.089,0,0,0,.424.17l5.248,0.87-0.512,1.53-2.735.92a1.086,1.086,0,0,0-.586.47l-3.111,5.18-5,3-7.365,1.05a1.085,1.085,0,0,0-.932,1.07v3.25a1.083,1.083,0,0,0,.317.77l1.849,1.85v1.86l-4.506-3.01-1.634-4.9A30.474,30.474,0,0,1,937.639,2759.59Zm-3.084,35.51-4.9-.98-1.82-3.63v-2.54l4.036-4.04,1.494,2.99a1.079,1.079,0,0,0,.969.6h6.969l2.934,4.89a1.079,1.079,0,0,0,.929.53h3.011l-0.758,3.79-4.1,4.11a1.062,1.062,0,0,0-.319.76v2.71l-3.9,2.93a1.065,1.065,0,0,0-.433.86v3.91l-1.348-.44-1.9-4.76v-10.62A1.093,1.093,0,0,0,934.555,2795.1Zm-3.256,16.66a30.338,30.338,0,0,1-10.8-33.12l0.9,2.7a1.064,1.064,0,0,0,.425.56l5.4,3.6-1.232,1.23a1.1,1.1,0,0,0-.317.77v3.25a1.06,1.06,0,0,0,.114.48l2.166,4.34a1.059,1.059,0,0,0,.758.57l4.549,0.91V2807a1.094,1.094,0,0,0,.077.4l2.167,5.42a1.087,1.087,0,0,0,.664.62l3.249,1.09a1.272,1.272,0,0,0,.337.05,1.079,1.079,0,0,0,1.083-1.08v-4.88l3.9-2.92a1.1,1.1,0,0,0,.434-0.87v-2.8l4.015-4.02a1.069,1.069,0,0,0,.3-0.55l1.083-5.41a1.088,1.088,0,0,0-.85-1.28,1.506,1.506,0,0,0-.212-0.02h-3.719l-2.934-4.89a1.08,1.08,0,0,0-.929-0.53h-6.912l-1.861-3.73a1.1,1.1,0,0,0-.8-0.59,1.062,1.062,0,0,0-.939.31l-1.406,1.4V2781a1.1,1.1,0,0,0-.318-0.77l-1.849-1.84v-1.87l6.653-.95a1.15,1.15,0,0,0,.4-0.14l5.416-3.25a1.083,1.083,0,0,0,.37-0.37l3.044-5.07,2.869-.96a1.078,1.078,0,0,0,.685-0.69l1.083-3.25a1.086,1.086,0,0,0-.689-1.37,0.868,0.868,0,0,0-.16-0.03l-6.27-1.05-1.1-.73a30.227,30.227,0,0,1,20.831.77l-1.979.99h-4.077a1.087,1.087,0,0,0-.975.6l-2.166,4.33a1.077,1.077,0,0,0,.486,1.45,0.786,0.786,0,0,0,.141.06l3.249,1.08a1.041,1.041,0,0,0,.605.03l4.027-1.01,2.95,0.98a0.628,0.628,0,0,0,.13.04l5.416,1.08a1.065,1.065,0,0,0,.814-0.16l2.465-1.64a30.789,30.789,0,0,1,3.258,4.35l-5.329,1.78-5.77-.96-1.906-2.86a1.112,1.112,0,0,0-.9-0.49h-6.5a1.1,1.1,0,0,0-.766.32l-3.249,3.25a1.083,1.083,0,0,0-.307.92l1.083,7.58a1.093,1.093,0,0,0,.65.85l7.582,3.25a1.085,1.085,0,0,0,.689.05l3.868-.97,2.365,1.58v3.76a1.085,1.085,0,0,0,.108.48l4.224,8.44v4.08a1.074,1.074,0,0,0,.318.76l2.265,2.27A30.315,30.315,0,0,1,931.3,2811.76Z" transform="translate(-917 -2755)"/>
</svg>
