<svg xmlns="http://www.w3.org/2000/svg" width="34.998" height="34.998" viewBox="0 0 30 30">
  <metadata><?xpacket begin="﻿" id="W5M0MpCehiHzreSzNTczkc9d"?>
<x:xmpmeta xmlns:x="adobe:ns:meta/" x:xmptk="Adobe XMP Core 5.6-c138 79.159824, 2016/09/14-01:09:01        ">
   <rdf:RDF xmlns:rdf="http://www.w3.org/1999/02/22-rdf-syntax-ns#">
      <rdf:Description rdf:about=""/>
   </rdf:RDF>
</x:xmpmeta>
                                                                                                    
                                                                                                    
                                                                                                    
                                                                                                    
                                                                                                    
                                                                                                    
                                                                                                    
                                                                                                    
                                                                                                    
                                                                                                    
                                                                                                    
                                                                                                    
                                                                                                    
                                                                                                    
                                                                                                    
                                                                                                    
                                                                                                    
                                                                                                    
                                                                                                    
                                                                                                    
                           
<?xpacket end="w"?></metadata>
<defs>
    <style>
      .cls-1 {
        fill: #c1c1c1;
        fill-rule: evenodd;
      }
    </style>
  </defs>
  <path id="icon" class="cls-1" d="M21.221,24.364a6.008,6.008,0,0,0-1.567-1.655l-0.044-.031h0q-0.14-.1-0.28-0.2A10.176,10.176,0,0,0,17.7,2.273,10.026,10.026,0,0,0,10.512,5.35a6.05,6.05,0,0,0-.659-2.477A12.178,12.178,0,0,1,17.7,0,12.461,12.461,0,0,1,21.221,24.364ZM13.7,30A7.347,7.347,0,0,1,8.45,27.558,33.456,33.456,0,0,1,.217,12.02,7.33,7.33,0,0,1,1.41,5.831,4.444,4.444,0,0,1,4.838,4.012c0.122,0,.245.006,0.363,0.018l0.024,0A1.328,1.328,0,0,1,6.308,5.345c0.149,1.638.281,2.6,0.5,4.2L6.9,10.26a1.316,1.316,0,0,1-.746,1.505l-1.7.5,0.158,0.545a29.132,29.132,0,0,0,5.616,10.6l0.361,0.434,1.363-1.159a1.048,1.048,0,0,1,.676-0.236,1.444,1.444,0,0,1,.96.436c1.294,1.213,2.2,2,3.728,3.233a1.332,1.332,0,0,1,.48,1.636l-0.012.021A4.458,4.458,0,0,1,13.7,30Zm0.142-17.318a10.446,10.446,0,0,0-1.777,2.005,4.121,4.121,0,0,0-.471,1.141,0.622,0.622,0,0,0,.113.529,0.606,0.606,0,0,0,.481.236h4.241a0.954,0.954,0,0,0,0-1.907H14.509l0.048-.057c0.125-.142.431-0.44,0.911-0.885A10.115,10.115,0,0,0,16.5,12.677a4.509,4.509,0,0,0,.651-1.1,3.085,3.085,0,0,0,.211-1.133,2.378,2.378,0,0,0-.752-1.785,2.831,2.831,0,0,0-2.03-.713,3.1,3.1,0,0,0-1.951.609,2.271,2.271,0,0,0-.721,1,1,1,0,0,0,.076.874,0.98,0.98,0,0,0,.734.467c0.033,0,.067,0,0.1,0a1,1,0,0,0,.942-0.68,0.792,0.792,0,0,1,.172-0.3A0.8,0.8,0,0,1,14.546,9.7a0.814,0.814,0,0,1,.609.214,0.873,0.873,0,0,1,.212.644,1.517,1.517,0,0,1-.281.831A10.218,10.218,0,0,1,13.837,12.682Zm8.491-4.736H21.62a0.607,0.607,0,0,0-.5.269l-3.277,4.853a0.852,0.852,0,0,0-.146.479v0.787a0.616,0.616,0,0,0,.61.618h2.69v0.657a0.973,0.973,0,1,0,1.946,0V14.951h0.1a0.915,0.915,0,0,0,0-1.83h-0.1V8.563A0.615,0.615,0,0,0,22.328,7.945Zm-1.335,5.176H19.786l1.207-1.816v1.816Z"/>
</svg>
