<svg xmlns="http://www.w3.org/2000/svg" width="32.584" height="34.997" viewBox="0 0 27 29">
  <metadata><?xpacket begin="﻿" id="W5M0MpCehiHzreSzNTczkc9d"?>
<x:xmpmeta xmlns:x="adobe:ns:meta/" x:xmptk="Adobe XMP Core 5.6-c138 79.159824, 2016/09/14-01:09:01        ">
   <rdf:RDF xmlns:rdf="http://www.w3.org/1999/02/22-rdf-syntax-ns#">
      <rdf:Description rdf:about=""/>
   </rdf:RDF>
</x:xmpmeta>
                                                                                                    
                                                                                                    
                                                                                                    
                                                                                                    
                                                                                                    
                                                                                                    
                                                                                                    
                                                                                                    
                                                                                                    
                                                                                                    
                                                                                                    
                                                                                                    
                                                                                                    
                                                                                                    
                                                                                                    
                                                                                                    
                                                                                                    
                                                                                                    
                                                                                                    
                                                                                                    
                           
<?xpacket end="w"?></metadata>
<defs>
    <style>
      .cls-1 {
        fill: #c1c1c1;
        fill-rule: evenodd;
      }
    </style>
  </defs>
  <path id="icon" class="cls-1" d="M976.074,1568.16a1.076,1.076,0,0,1-.76-0.31,1.055,1.055,0,0,1-.314-0.75,1.038,1.038,0,0,1,.314-0.75l8.041-7.97a1.084,1.084,0,0,1,1.518,0l5.089,5.04,8.373-8.29h-3.256a1.065,1.065,0,1,1,0-2.13h5.851a1.069,1.069,0,0,1,1.07,1.06v5.8a1.074,1.074,0,0,1-2.147,0v-3.23l-9.132,9.05a1.084,1.084,0,0,1-1.518,0l-5.089-5.04-7.281,7.21A1.075,1.075,0,0,1,976.074,1568.16Zm-0.068,13.74a0.373,0.373,0,0,1-.086-0.25v-9.44a0.355,0.355,0,0,1,.086-0.25,0.292,0.292,0,0,1,.21-0.1h1.15a0.285,0.285,0,0,1,.217.1,0.377,0.377,0,0,1,.08.25v8.07h3.92a0.269,0.269,0,0,1,.222.1,0.382,0.382,0,0,1,.087.26v1.01a0.382,0.382,0,0,1-.087.26,0.292,0.292,0,0,1-.222.09h-5.367A0.259,0.259,0,0,1,976.006,1581.9Zm7.172,0a0.373,0.373,0,0,1-.087-0.25v-9.44a0.356,0.356,0,0,1,.087-0.25,0.288,0.288,0,0,1,.21-0.1h1.162a0.285,0.285,0,0,1,.217.1,0.377,0.377,0,0,1,.08.25v9.44a0.4,0.4,0,0,1-.08.25,0.255,0.255,0,0,1-.217.1h-1.162A0.256,0.256,0,0,1,983.178,1581.9Zm5.663-.31-2.646-9.29-0.025-.13a0.331,0.331,0,0,1,.074-0.22,0.233,0.233,0,0,1,.186-0.09h1.088a0.354,0.354,0,0,1,.253.1,0.526,0.526,0,0,1,.13.22l2.09,7.46,2.09-7.46a0.418,0.418,0,0,1,.123-0.21,0.345,0.345,0,0,1,.26-0.11h1.088a0.236,0.236,0,0,1,.179.09,0.311,0.311,0,0,1,.081.22l-0.025.13-2.646,9.29a0.473,0.473,0,0,1-.47.41h-1.36A0.473,0.473,0,0,1,988.841,1581.59Zm6.368,0.31a0.373,0.373,0,0,1-.087-0.25v-9.42a0.382,0.382,0,0,1,.081-0.26,0.261,0.261,0,0,1,.216-0.11h5.441a0.279,0.279,0,0,1,.22.11,0.357,0.357,0,0,1,.09.26v0.95a0.374,0.374,0,0,1-.09.26,0.294,0.294,0,0,1-.22.09h-4.068v2.56h3.8a0.27,0.27,0,0,1,.22.1,0.333,0.333,0,0,1,.09.25v0.9a0.349,0.349,0,0,1-.09.25,0.294,0.294,0,0,1-.22.09h-3.8v2.65h4.168a0.279,0.279,0,0,1,.22.11,0.357,0.357,0,0,1,.09.26v0.95a0.374,0.374,0,0,1-.09.26,0.294,0.294,0,0,1-.22.09h-5.541A0.258,0.258,0,0,1,995.209,1581.9Z" transform="translate(-975 -1553)"/>
</svg>
