<svg xmlns="http://www.w3.org/2000/svg" width="38.886" height="34.997" viewBox="0 0 30 27">
  <metadata><?xpacket begin="﻿" id="W5M0MpCehiHzreSzNTczkc9d"?>
<x:xmpmeta xmlns:x="adobe:ns:meta/" x:xmptk="Adobe XMP Core 5.6-c138 79.159824, 2016/09/14-01:09:01        ">
   <rdf:RDF xmlns:rdf="http://www.w3.org/1999/02/22-rdf-syntax-ns#">
      <rdf:Description rdf:about=""/>
   </rdf:RDF>
</x:xmpmeta>
                                                                                                    
                                                                                                    
                                                                                                    
                                                                                                    
                                                                                                    
                                                                                                    
                                                                                                    
                                                                                                    
                                                                                                    
                                                                                                    
                                                                                                    
                                                                                                    
                                                                                                    
                                                                                                    
                                                                                                    
                                                                                                    
                                                                                                    
                                                                                                    
                                                                                                    
                                                                                                    
                           
<?xpacket end="w"?></metadata>
<defs>
    <style>
      .cls-1 {
        fill: #c1c1c1;
        fill-rule: evenodd;
      }
    </style>
  </defs>
  <path id="icon" class="cls-1" d="M411.886,1340.88a1.108,1.108,0,0,1-1.107-1.11,1.146,1.146,0,0,1,.313-0.8l4.883-5.11a1.124,1.124,0,0,1,.771-0.34,1.085,1.085,0,0,1,.777.32l5.244,5.25,8.444-8.82-3.32.03a1.115,1.115,0,0,1-.023-2.23l5.961-.07a1.107,1.107,0,0,1,1.107,1.11L435,1335.2a1.095,1.095,0,1,1-2.189.03l-0.036-3.4-9.209,9.63a1.074,1.074,0,0,1-.771.33,1.046,1.046,0,0,1-.777-0.32l-5.244-5.25-4.118,4.32A1.122,1.122,0,0,1,411.886,1340.88ZM412.72,1355a7.9,7.9,0,1,1,7.721-7.9A7.818,7.818,0,0,1,412.72,1355Zm0-14a6.106,6.106,0,1,0,5.974,6.1A6.047,6.047,0,0,0,412.72,1341Zm-0.419,2.47v0.85a1.633,1.633,0,0,0-1.472,1.58c0,0.87.638,1.31,1.567,1.63a1.006,1.006,0,0,1,.926.78,0.686,0.686,0,0,1-.837.55,3.075,3.075,0,0,1-1.447-.39l-0.259,1.04a3.413,3.413,0,0,0,1.479.38v0.85h0.854v-0.91a1.687,1.687,0,0,0,1.549-1.65,1.709,1.709,0,0,0-1.457-1.66c-0.737-.29-1.042-0.47-1.042-0.77,0-.25.181-0.5,0.748-0.5a2.966,2.966,0,0,1,1.255.3l0.252-1a3.153,3.153,0,0,0-1.262-.3v-0.78H412.3Z" transform="translate(-405 -1328)"/>
</svg>
