<svg xmlns="http://www.w3.org/2000/svg" width="32.811" height="34.998" viewBox="0 0 30 32">
  <metadata><?xpacket begin="﻿" id="W5M0MpCehiHzreSzNTczkc9d"?>
<x:xmpmeta xmlns:x="adobe:ns:meta/" x:xmptk="Adobe XMP Core 5.6-c138 79.159824, 2016/09/14-01:09:01        ">
   <rdf:RDF xmlns:rdf="http://www.w3.org/1999/02/22-rdf-syntax-ns#">
      <rdf:Description rdf:about=""/>
   </rdf:RDF>
</x:xmpmeta>
                                                                                                    
                                                                                                    
                                                                                                    
                                                                                                    
                                                                                                    
                                                                                                    
                                                                                                    
                                                                                                    
                                                                                                    
                                                                                                    
                                                                                                    
                                                                                                    
                                                                                                    
                                                                                                    
                                                                                                    
                                                                                                    
                                                                                                    
                                                                                                    
                                                                                                    
                                                                                                    
                           
<?xpacket end="w"?></metadata>
<defs>
    <style>
      .cls-1 {
        fill: #c1c1c1;
        fill-rule: evenodd;
      }
    </style>
  </defs>
  <path id="icon" class="cls-1" d="M990,1353a0.944,0.944,0,0,1-.658-0.26l-14.049-13.39a0.941,0.941,0,0,1,.658-1.62h3.732v-15.79a0.946,0.946,0,0,1,.951-0.94h18.732a0.948,0.948,0,0,1,.954.94v15.79h3.73a0.941,0.941,0,0,1,.66,1.62l-14.052,13.39A0.946,0.946,0,0,1,990,1353Zm0-2.26,11.68-11.12h-2.314a0.955,0.955,0,0,1-.952-0.95v-15.78H981.585v15.78a0.954,0.954,0,0,1-.951.95h-2.316Zm-0.951-7.34v-1.29a3.843,3.843,0,0,1-2.927-3.73v-0.36h1.9v0.36a1.976,1.976,0,1,0,1.976-1.96,3.854,3.854,0,0,1-.951-7.59v-1.28h1.9v1.28a3.851,3.851,0,0,1,2.927,3.73v0.37h-1.9v-0.37a1.976,1.976,0,1,0-1.975,1.97,3.849,3.849,0,0,1,.951,7.58v1.29h-1.9Zm-5.488-18.18h1.171v-1.17h-1.171v1.17Zm3.512-1.17H985.9v1.17h1.171v-1.17Zm2.342,0h-1.171v1.17h1.171v-1.17Zm2.341,0h-1.171v1.17h1.171v-1.17Zm1.171,1.17h1.17v-1.17h-1.17v1.17Zm2.341,0h1.171v-1.17h-1.171v1.17Z" transform="translate(-975 -1321)"/>
</svg>
