<svg xmlns="http://www.w3.org/2000/svg" width="30" height="35" viewBox="0 0 30 35">
  <metadata><?xpacket begin="﻿" id="W5M0MpCehiHzreSzNTczkc9d"?>
<x:xmpmeta xmlns:x="adobe:ns:meta/" x:xmptk="Adobe XMP Core 5.6-c138 79.159824, 2016/09/14-01:09:01        ">
   <rdf:RDF xmlns:rdf="http://www.w3.org/1999/02/22-rdf-syntax-ns#">
      <rdf:Description rdf:about=""/>
   </rdf:RDF>
</x:xmpmeta>
                                                                                                    
                                                                                                    
                                                                                                    
                                                                                                    
                                                                                                    
                                                                                                    
                                                                                                    
                                                                                                    
                                                                                                    
                                                                                                    
                                                                                                    
                                                                                                    
                                                                                                    
                                                                                                    
                                                                                                    
                                                                                                    
                                                                                                    
                                                                                                    
                                                                                                    
                                                                                                    
                           
<?xpacket end="w"?></metadata>
<defs>
    <style>
      .cls-1 {
        fill: #c1c1c1;
        fill-rule: evenodd;
      }
    </style>
  </defs>
  <path id="icon" class="cls-1" d="M1268.08,1335.55h0a1.093,1.093,0,0,1,1.52-.03l3.7,3.41a0.242,0.242,0,0,0,.35-0.01l7.48-8.11a1.1,1.1,0,0,1,1.52-.08h0a1.029,1.029,0,0,1,.09,1.48l-8.46,9.16a1,1,0,0,1-1.41.06l-4.75-4.4A1.027,1.027,0,0,1,1268.08,1335.55Zm6.48,18.26a32.846,32.846,0,0,1-7.22-4.56,23.02,23.02,0,0,1-5.01-5.62,14.843,14.843,0,0,1-2.33-7.88v-8.43a3.873,3.873,0,0,1,3.26-3.78,23.714,23.714,0,0,0,8.42-3.55,6.062,6.062,0,0,1,6.64,0,23.714,23.714,0,0,0,8.42,3.55,3.873,3.873,0,0,1,3.26,3.78v8.43a14.843,14.843,0,0,1-2.33,7.88,23.02,23.02,0,0,1-5.01,5.62,32.846,32.846,0,0,1-7.22,4.56l-0.44.19Zm0.44-32.72a3.864,3.864,0,0,0-2.11.63,26.181,26.181,0,0,1-9.25,3.89,1.763,1.763,0,0,0-1.49,1.71v8.43c0,8.9,9.71,14.39,12.69,15.86l0.16,0.08,0.16-.08a31.473,31.473,0,0,0,6.16-4c4.33-3.61,6.53-7.61,6.53-11.86v-8.43a1.763,1.763,0,0,0-1.49-1.71,26.181,26.181,0,0,1-9.25-3.89A3.864,3.864,0,0,0,1275,1321.09Z" transform="translate(-1260 -1319)"/>
</svg>
