<svg xmlns="http://www.w3.org/2000/svg" width="42" height="35" viewBox="0 0 30 25">
  <metadata><?xpacket begin="﻿" id="W5M0MpCehiHzreSzNTczkc9d"?>
<x:xmpmeta xmlns:x="adobe:ns:meta/" x:xmptk="Adobe XMP Core 5.6-c138 79.159824, 2016/09/14-01:09:01        ">
   <rdf:RDF xmlns:rdf="http://www.w3.org/1999/02/22-rdf-syntax-ns#">
      <rdf:Description rdf:about=""/>
   </rdf:RDF>
</x:xmpmeta>
                                                                                                    
                                                                                                    
                                                                                                    
                                                                                                    
                                                                                                    
                                                                                                    
                                                                                                    
                                                                                                    
                                                                                                    
                                                                                                    
                                                                                                    
                                                                                                    
                                                                                                    
                                                                                                    
                                                                                                    
                                                                                                    
                                                                                                    
                                                                                                    
                                                                                                    
                                                                                                    
                           
<?xpacket end="w"?></metadata>
<defs>
    <style>
      .cls-1 {
        fill: #c1c1c1;
        fill-rule: evenodd;
      }
    </style>
  </defs>
  <path id="icon" class="cls-1" d="M431.324,1562a3.694,3.694,0,0,0-2.385,6.5l-3.454,6.59a3.748,3.748,0,0,0-.954-0.13,3.623,3.623,0,0,0-2.12.68l-2.628-2.38a3.675,3.675,0,1,0-5.869.73L410,1579.86a3.625,3.625,0,0,0-1.322-.24,3.686,3.686,0,1,0,2.665,1.15l3.916-5.87a3.857,3.857,0,0,0,1.323.24,3.623,3.623,0,0,0,2.119-.68l2.629,2.39a3.649,3.649,0,0,0-.473,1.8,3.676,3.676,0,1,0,6.06-2.8l3.454-6.59a3.758,3.758,0,0,0,.955.12,3.69,3.69,0,0,0,0-7.38h0Zm-22.648,23.38a2.07,2.07,0,1,1,2.059-2.07,2.068,2.068,0,0,1-2.059,2.07h0Zm7.9-11.86a2.07,2.07,0,1,1,2.058-2.07,2.067,2.067,0,0,1-2.058,2.07h0Zm5.892,5.13a2.059,2.059,0,1,1,2.059,2.07,2.059,2.059,0,0,1-2.059-2.07h0Zm8.852-10.89a2.07,2.07,0,1,1,2.058-2.07,2.068,2.068,0,0,1-2.058,2.07h0Zm0,0" transform="translate(-405 -1562)"/>
</svg>
