<svg xmlns="http://www.w3.org/2000/svg" width="29.166" height="34.999" viewBox="0 0 30 36">
  <metadata><?xpacket begin="﻿" id="W5M0MpCehiHzreSzNTczkc9d"?>
<x:xmpmeta xmlns:x="adobe:ns:meta/" x:xmptk="Adobe XMP Core 5.6-c138 79.159824, 2016/09/14-01:09:01        ">
   <rdf:RDF xmlns:rdf="http://www.w3.org/1999/02/22-rdf-syntax-ns#">
      <rdf:Description rdf:about=""/>
   </rdf:RDF>
</x:xmpmeta>
                                                                                                    
                                                                                                    
                                                                                                    
                                                                                                    
                                                                                                    
                                                                                                    
                                                                                                    
                                                                                                    
                                                                                                    
                                                                                                    
                                                                                                    
                                                                                                    
                                                                                                    
                                                                                                    
                                                                                                    
                                                                                                    
                                                                                                    
                                                                                                    
                                                                                                    
                                                                                                    
                           
<?xpacket end="w"?></metadata>
<defs>
    <style>
      .cls-1 {
        fill: #c1c1c1;
        fill-rule: evenodd;
      }
    </style>
  </defs>
  <path id="icon" class="cls-1" d="M702.117,1573.72a10.863,10.863,0,1,1,11.116-10.86A11,11,0,0,1,702.117,1573.72Zm0-19.66a8.8,8.8,0,1,0,9,8.8A8.916,8.916,0,0,0,702.117,1554.06ZM692.193,1588a1.2,1.2,0,0,1-.844-0.34,1.15,1.15,0,0,1,0-1.65l8.934-8.73a1.216,1.216,0,0,1,1.687,0l5.654,5.53,9.3-9.09H713.31a1.165,1.165,0,1,1,0-2.33h6.5a1.178,1.178,0,0,1,1.193,1.16v6.35a1.193,1.193,0,0,1-2.386,0v-3.53l-10.146,9.91a1.216,1.216,0,0,1-1.687,0l-5.654-5.53-8.091,7.91A1.2,1.2,0,0,1,692.193,1588Zm7.049-24.44a0.707,0.707,0,0,0,.719.7h0.274l-0.917,1.8a0.684,0.684,0,0,0,.031.68,0.715,0.715,0,0,0,.612.33h4.312a0.7,0.7,0,1,0,0-1.4h-3.15l0.719-1.41h0.993a0.7,0.7,0,1,0,0-1.4H701.7l-0.631-.62a1.284,1.284,0,0,1-.385-0.91,1.3,1.3,0,0,1,1.314-1.28h0.842a0.715,0.715,0,0,1,.719.7,0.719,0.719,0,0,0,1.437,0,2.13,2.13,0,0,0-2.156-2.1h-0.842a2.718,2.718,0,0,0-2.751,2.68,2.67,2.67,0,0,0,.524,1.57A0.688,0.688,0,0,0,699.242,1563.56Z" transform="translate(-691 -1552)"/>
</svg>
