<svg xmlns="http://www.w3.org/2000/svg" width="32.811" height="34.998" viewBox="0 0 30 32">
  <metadata><?xpacket begin="﻿" id="W5M0MpCehiHzreSzNTczkc9d"?>
<x:xmpmeta xmlns:x="adobe:ns:meta/" x:xmptk="Adobe XMP Core 5.6-c138 79.159824, 2016/09/14-01:09:01        ">
   <rdf:RDF xmlns:rdf="http://www.w3.org/1999/02/22-rdf-syntax-ns#">
      <rdf:Description rdf:about=""/>
   </rdf:RDF>
</x:xmpmeta>
                                                                                                    
                                                                                                    
                                                                                                    
                                                                                                    
                                                                                                    
                                                                                                    
                                                                                                    
                                                                                                    
                                                                                                    
                                                                                                    
                                                                                                    
                                                                                                    
                                                                                                    
                                                                                                    
                                                                                                    
                                                                                                    
                                                                                                    
                                                                                                    
                                                                                                    
                                                                                                    
                           
<?xpacket end="w"?></metadata>
<defs>
    <style>
      .cls-1 {
        fill: #c1c1c1;
        fill-rule: evenodd;
      }
    </style>
  </defs>
  <path id="icon" class="cls-1" d="M1267.26,1589a7.263,7.263,0,0,1-1.67-.2,7.155,7.155,0,0,1-4.51-3.25,7.241,7.241,0,0,1,7.83-10.88,7.25,7.25,0,0,1,5.39,8.73,2.864,2.864,0,0,1-.07.28l-0.1.34,0.36,0.03c0.27,0.01.52,0.02,0.76,0.02,0.28,0,.56-0.01.82-0.03a10.411,10.411,0,0,0,8.86-6.77l0.3-.81-2.3,1.44a0.832,0.832,0,0,1-.43.13,0.853,0.853,0,0,1-.71-0.39,0.828,0.828,0,0,1,.27-1.14l3.94-2.47a0.758,0.758,0,0,1,.44-0.13,0.825,0.825,0,0,1,.7.39l2.46,3.95a0.836,0.836,0,0,1-.26,1.14,0.883,0.883,0,0,1-.44.12,0.8,0.8,0,0,1-.7-0.39l-1.39-2.22-0.2.58a12.16,12.16,0,0,1-10.39,8.22c-0.41.03-.77,0.05-1.12,0.05a11.591,11.591,0,0,1-1.54-.1l-0.18-.02-0.1.15A7.208,7.208,0,0,1,1267.26,1589Zm-0.02-12.87a5.607,5.607,0,0,0-1.28,11.06,5.831,5.831,0,0,0,1.3.15,5.608,5.608,0,0,0,4.74-8.56A5.594,5.594,0,0,0,1267.24,1576.13Zm15-15.82v0.95a1.828,1.828,0,0,0-1.67,1.77c0,0.96.72,1.46,1.78,1.82,0.74,0.24,1.06.48,1.06,0.86a0.782,0.782,0,0,1-.96.62,3.522,3.522,0,0,1-1.65-.44l-0.29,1.16a3.966,3.966,0,0,0,1.68.43v0.94h0.98v-1.01a1.9,1.9,0,0,0,1.76-1.84c0-.89-0.47-1.44-1.66-1.86-0.84-.32-1.18-0.52-1.18-0.85,0-.28.2-0.56,0.85-0.56a3.3,3.3,0,0,1,1.43.34l0.29-1.13a3.793,3.793,0,0,0-1.44-.32v-0.88h-0.98Zm-18.49,11.68a0.84,0.84,0,0,1-.72-0.41l-2.35-4.02a0.84,0.84,0,0,1,.72-1.25,0.836,0.836,0,0,1,.71.41l1.31,2.24,0.21-.59a12.169,12.169,0,0,1,10.37-8.14c0.33-.03.66-0.04,1-0.04a12.333,12.333,0,0,1,1.47.09l0.18,0.02,0.1-.15a7.141,7.141,0,0,1,5.35-3.15h1.36a7.267,7.267,0,0,1,6.35,8.89,7.23,7.23,0,0,1-7.05,5.6,7.4,7.4,0,0,1-1.67-.2,7.145,7.145,0,0,1-4.5-3.25,7.225,7.225,0,0,1-.9-5.48l0.09-.33,0.1-.35-0.37-.02c-0.19-.01-0.38-0.01-0.56-0.01-0.28,0-.55.01-0.8,0.03a10.4,10.4,0,0,0-8.89,6.83l-0.28.76,2.36-1.38a0.754,0.754,0,0,1,.41-0.12,0.84,0.84,0,0,1,.72.41,0.861,0.861,0,0,1,.09.63,0.9,0.9,0,0,1-.39.51l-4.01,2.35A0.73,0.73,0,0,1,1263.75,1571.99Zm19-13.37a5.6,5.6,0,0,0-1.28,11.05,5.18,5.18,0,0,0,1.29.16,5.605,5.605,0,0,0,1.27-11.06A5.4,5.4,0,0,0,1282.75,1558.62Zm-16.97,27.03h0.98v-0.95h0.63v0.95h0.98v-1.04a2.169,2.169,0,0,0,.44-0.11,1.645,1.645,0,0,0,.78-0.6,1.4,1.4,0,0,0,.28-0.85,1.377,1.377,0,0,0-.18-0.7,1.307,1.307,0,0,0-.5-0.49,2.687,2.687,0,0,0-.62-0.22,1.836,1.836,0,0,0,.61-0.33,1.409,1.409,0,0,0,.36-0.46,1.265,1.265,0,0,0,.12-0.55,1.281,1.281,0,0,0-.23-0.72,1.466,1.466,0,0,0-.67-0.51,2.664,2.664,0,0,0-.39-0.11v-1.02h-0.98v0.96h-0.63v-0.96h-0.98v0.96h-1.49v0.8h0.22a0.7,0.7,0,0,1,.31.04,0.278,0.278,0,0,1,.12.12,0.986,0.986,0,0,1,.03.32v3.24a0.986,0.986,0,0,1-.03.32,0.233,0.233,0,0,1-.12.12,1,1,0,0,1-.31.03h-0.22v0.81h1.49v0.95Zm0.63-5.82h0.63a3.3,3.3,0,0,1,.78.07,0.594,0.594,0,0,1,.32.23,0.694,0.694,0,0,1,0,.78,0.691,0.691,0,0,1-.36.25,2.268,2.268,0,0,1-.74.09h-0.63v-1.42Zm0,2.27h0.75a2.2,2.2,0,0,1,.73.09,0.72,0.72,0,0,1,.36.27,0.75,0.75,0,0,1,.12.43,0.861,0.861,0,0,1-.17.53,0.8,0.8,0,0,1-.41.28,2.086,2.086,0,0,1-.61.07h-0.43a1,1,0,0,1-.25-0.02,0.1,0.1,0,0,1-.07-0.08,1.561,1.561,0,0,1-.02-0.32v-1.25Z" transform="translate(-1260 -1557)"/>
</svg>
