<svg xmlns="http://www.w3.org/2000/svg" width="34.998" height="37.331" viewBox="0 0 30 32">
  <metadata><?xpacket begin="﻿" id="W5M0MpCehiHzreSzNTczkc9d"?>
<x:xmpmeta xmlns:x="adobe:ns:meta/" x:xmptk="Adobe XMP Core 5.6-c138 79.159824, 2016/09/14-01:09:01        ">
   <rdf:RDF xmlns:rdf="http://www.w3.org/1999/02/22-rdf-syntax-ns#">
      <rdf:Description rdf:about=""/>
   </rdf:RDF>
</x:xmpmeta>
                                                                                                    
                                                                                                    
                                                                                                    
                                                                                                    
                                                                                                    
                                                                                                    
                                                                                                    
                                                                                                    
                                                                                                    
                                                                                                    
                                                                                                    
                                                                                                    
                                                                                                    
                                                                                                    
                                                                                                    
                                                                                                    
                                                                                                    
                                                                                                    
                                                                                                    
                                                                                                    
                           
<?xpacket end="w"?></metadata>
<defs>
    <style>
      .cls-1 {
        fill: #c1c1c1;
        fill-rule: evenodd;
      }
    </style>
  </defs>
  <path id="icon_N_" data-name="icon (N)" class="cls-1" d="M806.343,3045.49v-12.4a1.089,1.089,0,0,0-1.083-1.09H786.083a1.088,1.088,0,0,0-1.083,1.09v28.9a1.082,1.082,0,0,0,1.083,1.09h15.7a9.085,9.085,0,0,0,4,.92,9.265,9.265,0,0,0,.562-18.51h0Zm-19.177-11.31h17.01v11.43a9.271,9.271,0,0,0-5.263,15.29H787.166v-26.72Zm18.615,27.64a7.085,7.085,0,1,1,7.053-7.09,7.078,7.078,0,0,1-7.053,7.09h0Zm0,0,3.164-10.26a1.071,1.071,0,0,0-1.532,0l-4.795,4.81a1.086,1.086,0,1,0,1.532,1.54l4.8-4.82a1.083,1.083,0,0,0,0-1.53h0Zm0,0-5.576,1.84a1.1,1.1,0,0,0,.767-0.32,1.1,1.1,0,0,0,0-1.54,1.077,1.077,0,0,0-1.532,0,1.09,1.09,0,0,0,.765,1.86h0Zm0,0,4.824,2.67a1.1,1.1,0,0,0-.766.32,1.087,1.087,0,0,0-.317.77,1.123,1.123,0,0,0,.317.77,1.076,1.076,0,0,0,1.531,0,1.124,1.124,0,0,0,.318-0.77,1.089,1.089,0,0,0-1.083-1.09h0Zm0,0-16.357-16.11h7.67a1.09,1.09,0,0,0,0-2.18h-7.67a1.09,1.09,0,0,0,0,2.18h0Zm0,0,0,5.78h7.67a1.09,1.09,0,0,0,0-2.18h-7.67a1.09,1.09,0,0,0,0,2.18h0Zm0,0,1.917,3.6h-1.917a1.09,1.09,0,0,0,0,2.18h1.917a1.09,1.09,0,0,0,0-2.18h0Zm0,0" transform="translate(-785 -3032)"/>
</svg>
