<svg xmlns="http://www.w3.org/2000/svg" width="34.998" height="34.998" viewBox="0 0 30 30">
  <metadata><?xpacket begin="﻿" id="W5M0MpCehiHzreSzNTczkc9d"?>
<x:xmpmeta xmlns:x="adobe:ns:meta/" x:xmptk="Adobe XMP Core 5.6-c138 79.159824, 2016/09/14-01:09:01        ">
   <rdf:RDF xmlns:rdf="http://www.w3.org/1999/02/22-rdf-syntax-ns#">
      <rdf:Description rdf:about=""/>
   </rdf:RDF>
</x:xmpmeta>
                                                                                                    
                                                                                                    
                                                                                                    
                                                                                                    
                                                                                                    
                                                                                                    
                                                                                                    
                                                                                                    
                                                                                                    
                                                                                                    
                                                                                                    
                                                                                                    
                                                                                                    
                                                                                                    
                                                                                                    
                                                                                                    
                                                                                                    
                                                                                                    
                                                                                                    
                                                                                                    
                           
<?xpacket end="w"?></metadata>
<defs>
    <style>
      .cls-1 {
        fill: #c1c1c1;
        fill-rule: evenodd;
      }
    </style>
  </defs>
  <path id="icon_N_" data-name="icon (N)" class="cls-1" d="M1179.34,3039.38v0.69a1.742,1.742,0,0,0-1.17,1.66,1.765,1.765,0,0,0,1.76,1.77,0.585,0.585,0,0,1,.59.59c0,0.51-.67.95-1.35,0.14a0.589,0.589,0,0,0-.9.76,2.362,2.362,0,0,0,1.07.77v0.69a0.589,0.589,0,0,0,.59.58,0.583,0.583,0,0,0,.59-0.58v-0.7h0.02a1.769,1.769,0,0,0-.61-3.43,0.591,0.591,0,0,1-.59-0.59c0-.48.6-0.89,1.23-0.28a0.587,0.587,0,0,0,.82-0.84,2.409,2.409,0,0,0-.87-0.55v-0.68a0.585,0.585,0,0,0-.59-0.59A0.591,0.591,0,0,0,1179.34,3039.38Zm12.14,16.92v-0.97a2.633,2.633,0,0,0-2.63-2.63h-8.03v-1.93a7.822,7.822,0,0,0,4.72-2.27,7.909,7.909,0,1,0-11.19,0,7.77,7.77,0,0,0,4.71,2.27v1.93h-7.91a2.633,2.633,0,0,0-2.63,2.63v0.97a4.4,4.4,0,1,0,1.75,0v-0.97a0.888,0.888,0,0,1,.88-0.88h7.91v1.85a4.4,4.4,0,1,0,1.76,0v-1.85h8.03a0.888,0.888,0,0,1,.88.88v0.97A4.4,4.4,0,1,0,1191.48,3056.3Zm-15.89-17.74a6.15,6.15,0,1,1,0,8.7A6.12,6.12,0,0,1,1175.59,3038.56Zm-3.56,22.05a2.635,2.635,0,1,1-2.64-2.64A2.635,2.635,0,0,1,1172.03,3060.61Zm10.55,0a2.64,2.64,0,1,1-2.64-2.64A2.635,2.635,0,0,1,1182.58,3060.61Zm8.03,2.63a2.635,2.635,0,1,1,2.63-2.63A2.635,2.635,0,0,1,1190.61,3063.24Z" transform="translate(-1165 -3035)"/>
</svg>
