<svg xmlns="http://www.w3.org/2000/svg" width="34.034" height="36.266" viewBox="0 0 30.031 32">
  <metadata><?xpacket begin="﻿" id="W5M0MpCehiHzreSzNTczkc9d"?>
<x:xmpmeta xmlns:x="adobe:ns:meta/" x:xmptk="Adobe XMP Core 5.6-c138 79.159824, 2016/09/14-01:09:01        ">
   <rdf:RDF xmlns:rdf="http://www.w3.org/1999/02/22-rdf-syntax-ns#">
      <rdf:Description rdf:about=""/>
   </rdf:RDF>
</x:xmpmeta>
                                                                                                    
                                                                                                    
                                                                                                    
                                                                                                    
                                                                                                    
                                                                                                    
                                                                                                    
                                                                                                    
                                                                                                    
                                                                                                    
                                                                                                    
                                                                                                    
                                                                                                    
                                                                                                    
                                                                                                    
                                                                                                    
                                                                                                    
                                                                                                    
                                                                                                    
                                                                                                    
                           
<?xpacket end="w"?></metadata>
<defs>
    <style>
      .cls-1 {
        fill: #c1c1c1;
        fill-rule: evenodd;
      }
    </style>
  </defs>
  <path id="icon_N_" data-name="icon (N)" class="cls-1" d="M420.381,3041.92a7.2,7.2,0,1,0,7.188,7.2A7.185,7.185,0,0,0,420.381,3041.92Zm0,13.1a5.9,5.9,0,1,1,5.9-5.9A5.893,5.893,0,0,1,420.381,3055.02Zm0.449-6.61h0v-1.95a3.2,3.2,0,0,1,1.476.58l0.706-.97a4.787,4.787,0,0,0-2.182-.78v-0.52h-0.642v0.52a2.607,2.607,0,0,0-1.6.65,1.891,1.891,0,0,0-.642,1.49,1.665,1.665,0,0,0,.578,1.36,3.547,3.547,0,0,0,1.732.72v2.01a3.65,3.65,0,0,1-1.8-.91l-0.771.91a4.905,4.905,0,0,0,2.567,1.17v0.77h0.642v-0.77a3,3,0,0,0,1.733-.65,1.891,1.891,0,0,0,.642-1.49,1.813,1.813,0,0,0-.578-1.43A7.31,7.31,0,0,0,420.83,3048.41Zm-0.706-.2a2.077,2.077,0,0,1-.77-0.39,0.79,0.79,0,0,1-.193-0.58,0.647,0.647,0,0,1,.257-0.59,1.336,1.336,0,0,1,.706-0.26v1.82Zm1.476,3.05a2.038,2.038,0,0,1-.77.32v-1.88a2.524,2.524,0,0,1,.834.39,0.838,0.838,0,0,1,.257.59A0.675,0.675,0,0,1,421.6,3051.26Zm13.252-14.29-4.533-3.87a0.415,0.415,0,0,0-.684.32v2.79H417.871a0.42,0.42,0,0,0-.416.42v1.32a0.42,0.42,0,0,0,.416.42h11.764v2.78a0.418,0.418,0,0,0,.684.33l4.533-3.87A0.42,0.42,0,0,0,434.852,3036.97Zm-12.726,22.66H410.361v-2.79a0.416,0.416,0,0,0-.683-0.32l-4.533,3.87a0.42,0.42,0,0,0,0,.64l4.533,3.87a0.414,0.414,0,0,0,.683-0.32v-2.79h11.765a0.42,0.42,0,0,0,.416-0.42v-1.32A0.42,0.42,0,0,0,422.126,3059.63Z" transform="translate(-405 -3033)"/>
</svg>
