<svg xmlns="http://www.w3.org/2000/svg" width="70" height="68" viewBox="0 0 70 68">
  <metadata><?xpacket begin="﻿" id="W5M0MpCehiHzreSzNTczkc9d"?>
<x:xmpmeta xmlns:x="adobe:ns:meta/" x:xmptk="Adobe XMP Core 5.6-c138 79.159824, 2016/09/14-01:09:01        ">
   <rdf:RDF xmlns:rdf="http://www.w3.org/1999/02/22-rdf-syntax-ns#">
      <rdf:Description rdf:about=""/>
   </rdf:RDF>
</x:xmpmeta>
                                                                                                    
                                                                                                    
                                                                                                    
                                                                                                    
                                                                                                    
                                                                                                    
                                                                                                    
                                                                                                    
                                                                                                    
                                                                                                    
                                                                                                    
                                                                                                    
                                                                                                    
                                                                                                    
                                                                                                    
                                                                                                    
                                                                                                    
                                                                                                    
                                                                                                    
                                                                                                    
                           
<?xpacket end="w"?></metadata>
<defs>
    <style>
      .cls-1 {
        fill: #fff;
        fill-rule: evenodd;
        opacity: 0.1;
      }
    </style>
  </defs>
  <path id="icon" class="cls-1" d="M993.2,7595.57a1.821,1.821,0,0,0-1.814,1.81v47.86a9.207,9.207,0,0,1-9.221,9.17h-44.32a9.2,9.2,0,0,1-9.22-9.17v-51.63h53.1v46.43a1.814,1.814,0,0,0,3.628,0V7591.8a1.812,1.812,0,0,0-1.814-1.8H926.814a1.812,1.812,0,0,0-1.814,1.8v53.42A12.824,12.824,0,0,0,937.848,7658h44.305A12.824,12.824,0,0,0,995,7645.22v-47.84A1.8,1.8,0,0,0,993.2,7595.57ZM974.776,7604a1.8,1.8,0,1,0,0-3.6H935.233a1.8,1.8,0,1,0,0,3.6h39.543Zm0,33.16H935.233a1.8,1.8,0,1,0,0,3.6h39.528A1.8,1.8,0,1,0,974.776,7637.16Zm0,9.24h-33.27a1.8,1.8,0,1,0,0,3.6h33.27A1.8,1.8,0,1,0,974.776,7646.4Zm-41.961-36.1v19.51a1.812,1.812,0,0,0,1.814,1.8h19.7a1.813,1.813,0,0,0,1.814-1.8V7610.3a1.813,1.813,0,0,0-1.814-1.8h-19.7A1.812,1.812,0,0,0,932.815,7610.3Zm3.627,1.81h16.069V7628H936.442v-15.89Zm39.3-1.81H962.7a1.805,1.805,0,1,0,0,3.61h13.045A1.805,1.805,0,1,0,975.744,7610.3Zm0,8.15H962.7a1.8,1.8,0,1,0,0,3.6h13.045A1.8,1.8,0,1,0,975.744,7618.45Zm1.814,10.46a1.815,1.815,0,0,0-1.814-1.81H962.7a1.805,1.805,0,1,0,0,3.61h13.045A1.8,1.8,0,0,0,977.558,7628.91Z" transform="translate(-925 -7590)"/>
</svg>
