<svg xmlns="http://www.w3.org/2000/svg" width="70" height="72" viewBox="0 0 70 72">
  <metadata><?xpacket begin="﻿" id="W5M0MpCehiHzreSzNTczkc9d"?>
<x:xmpmeta xmlns:x="adobe:ns:meta/" x:xmptk="Adobe XMP Core 5.6-c138 79.159824, 2016/09/14-01:09:01        ">
   <rdf:RDF xmlns:rdf="http://www.w3.org/1999/02/22-rdf-syntax-ns#">
      <rdf:Description rdf:about=""/>
   </rdf:RDF>
</x:xmpmeta>
                                                                                                    
                                                                                                    
                                                                                                    
                                                                                                    
                                                                                                    
                                                                                                    
                                                                                                    
                                                                                                    
                                                                                                    
                                                                                                    
                                                                                                    
                                                                                                    
                                                                                                    
                                                                                                    
                                                                                                    
                                                                                                    
                                                                                                    
                                                                                                    
                                                                                                    
                                                                                                    
                           
<?xpacket end="w"?></metadata>
<defs>
    <style>
      .cls-1 {
        fill: #f0f0f0;
        fill-rule: evenodd;
      }
    </style>
  </defs>
  <path id="icon" class="cls-1" d="M960,4692a5.9,5.9,0,0,1-4.092-1.64l-4.526-4.32a2.751,2.751,0,0,0-1.919-.77,2.6,2.6,0,0,0-.393.03l-6.236.87a5.982,5.982,0,0,1-.845.06,5.841,5.841,0,0,1-5.775-4.81l-1.089-6.12a2.693,2.693,0,0,0-1.428-1.93l-5.563-2.92a5.733,5.733,0,0,1-2.529-7.67l2.766-5.58a2.688,2.688,0,0,0,0-2.4l-2.766-5.58a5.748,5.748,0,0,1,2.529-7.68l5.563-2.91a2.691,2.691,0,0,0,1.428-1.94l1.089-6.11a5.84,5.84,0,0,1,5.775-4.81,6,6,0,0,1,.845.06l6.236,0.87a2.591,2.591,0,0,0,.393.03,2.747,2.747,0,0,0,1.918-.77l4.527-4.32a5.925,5.925,0,0,1,8.184,0l4.526,4.32a2.749,2.749,0,0,0,1.919.77,2.587,2.587,0,0,0,.392-0.03l6.237-.87a5.989,5.989,0,0,1,.844-0.06,5.841,5.841,0,0,1,5.776,4.81l1.088,6.11a2.7,2.7,0,0,0,1.429,1.94l5.563,2.91a5.748,5.748,0,0,1,2.529,7.68l-2.766,5.58a2.688,2.688,0,0,0,0,2.4l2.766,5.58a5.733,5.733,0,0,1-2.529,7.67l-5.563,2.92a2.693,2.693,0,0,0-1.428,1.93l-1.089,6.12a5.84,5.84,0,0,1-5.774,4.81h0a6,6,0,0,1-.845-0.06l-6.236-.87a2.6,2.6,0,0,0-.392-0.03,2.747,2.747,0,0,0-1.919.77l-4.527,4.32A5.9,5.9,0,0,1,960,4692Zm-10.527-9.81a5.86,5.86,0,0,1,4.077,1.64l4.526,4.32a2.788,2.788,0,0,0,3.847,0l4.527-4.32a5.859,5.859,0,0,1,4.076-1.64,5.933,5.933,0,0,1,.84.06l6.236,0.87a2.627,2.627,0,0,0,.395.03,2.749,2.749,0,0,0,2.718-2.26l1.088-6.12a5.767,5.767,0,0,1,3.038-4.12l5.564-2.91a2.7,2.7,0,0,0,1.188-3.61l-2.766-5.58a5.706,5.706,0,0,1,0-5.1l2.766-5.58a2.7,2.7,0,0,0-1.188-3.61l-5.564-2.91a5.767,5.767,0,0,1-3.038-4.12l-1.089-6.12a2.747,2.747,0,0,0-2.717-2.26,2.617,2.617,0,0,0-.395.03l-6.236.87a5.919,5.919,0,0,1-.839.06,5.858,5.858,0,0,1-4.077-1.64l-4.527-4.32a2.788,2.788,0,0,0-3.847,0l-4.526,4.32a5.889,5.889,0,0,1-4.916,1.58l-6.237-.87a2.6,2.6,0,0,0-.394-0.03,2.749,2.749,0,0,0-2.718,2.26l-1.088,6.12a5.767,5.767,0,0,1-3.038,4.12l-5.564,2.91a2.7,2.7,0,0,0-1.189,3.61l2.766,5.58a5.7,5.7,0,0,1,0,5.1l-2.766,5.58a2.7,2.7,0,0,0,1.189,3.61l5.564,2.91a5.767,5.767,0,0,1,3.038,4.12l1.088,6.12a2.749,2.749,0,0,0,2.718,2.26,2.594,2.594,0,0,0,.394-0.03l6.237-.87A5.9,5.9,0,0,1,949.473,4682.19Zm-3.588-10.73a1.56,1.56,0,0,1-1.1-.45,1.531,1.531,0,0,1,0-2.18l28.229-27.84a1.576,1.576,0,0,1,2.205,0,1.531,1.531,0,0,1,0,2.18l-28.229,27.84A1.563,1.563,0,0,1,945.885,4671.46Zm5.56-19.55a7.161,7.161,0,1,1,7.263-7.16A7.218,7.218,0,0,1,951.445,4651.91Zm0-11.25a4.09,4.09,0,1,0,4.144,4.09A4.125,4.125,0,0,0,951.445,4640.66Zm17.11,33.75a7.161,7.161,0,1,1,7.262-7.16A7.219,7.219,0,0,1,968.555,4674.41Zm0-11.25a4.09,4.09,0,1,0,4.143,4.09A4.125,4.125,0,0,0,968.555,4663.16Z" transform="translate(-925 -4620)"/>
</svg>
