<svg xmlns="http://www.w3.org/2000/svg" width="36" height="30" viewBox="0 0 36 30">
  <metadata><?xpacket begin="﻿" id="W5M0MpCehiHzreSzNTczkc9d"?>
<x:xmpmeta xmlns:x="adobe:ns:meta/" x:xmptk="Adobe XMP Core 5.6-c138 79.159824, 2016/09/14-01:09:01        ">
   <rdf:RDF xmlns:rdf="http://www.w3.org/1999/02/22-rdf-syntax-ns#">
      <rdf:Description rdf:about=""/>
   </rdf:RDF>
</x:xmpmeta>
                                                                                                
                           
<?xpacket end="w"?></metadata>
<defs>
    <style>
      .cls-1 {
        fill: #cacaca;
        fill-rule: evenodd;
      }
    </style>
  </defs>
  <path id="icon" class="cls-1" d="M1294.97,1492.61l-2.32-8.06a0.769,0.769,0,0,0-.76-0.55h-29.78a0.769,0.769,0,0,0-.76.55l-2.32,8.06a0.7,0.7,0,0,0,.13.65,0.819,0.819,0,0,0,.63.29h1.26v19.71a0.763,0.763,0,0,0,.79.74h30.32a0.763,0.763,0,0,0,.79-0.74v-19.71h1.26a0.819,0.819,0,0,0,.63-0.29A0.7,0.7,0,0,0,1294.97,1492.61Zm-10.43,3.99v10.06h-4.1v-5.84a0.763,0.763,0,0,0-.79-0.74h-5.3a0.763,0.763,0,0,0-.79.74v5.84h-4.1v-7.77h11.11a0.742,0.742,0,1,0,0-1.48h-11.11v-0.81l7.54-6.01m1.86,10.97v5.1h-3.72v-5.1h3.72Zm-4.51,6.58h10.19v1.43h-15.08v-1.43h4.89Zm3.16-19.08a0.812,0.812,0,0,0-1.02,0l-9.38,7.48-1.06-1.02,2.62-2.16,8.33-6.87,8.33,6.87,2.62,2.16-1.06,1.02Zm-13.18,6.94,1.48,1.41h-3.18v-3.86h3.42l-1.67,1.38a0.689,0.689,0,0,0-.27.52A0.717,0.717,0,0,0,1264.33,1496Zm2.16,2.89h1.39v4.9h-5.25v-4.9h3.86Zm-3.77-13.41h13.12l-2.27,1.87h-11.39Zm-0.88,6.59h-1.02l0.93-3.24h10.03l-3.94,3.24h-6Zm6.04,15.33v2.17h-0.58a0.763,0.763,0,0,0-.79.74v2.21h-3.88v-7.25h5.25v2.13Zm18.03,5.07h-17.82v-1.42h17.82v1.42h0Zm5.46,0.05h-3.88v-2.21a0.763,0.763,0,0,0-.79-0.74h-0.58v-4.3h5.25v7.25h0Zm0-8.73h-5.25v-4.9h5.25v4.9Zm0-6.38h-3.18l1.48-1.41a0.717,0.717,0,0,0,.22-0.55,0.689,0.689,0,0,0-.27-0.52l-1.67-1.38h3.42v3.86h0Zm0.79-5.34h-6l-3.94-3.24h4.28a0.742,0.742,0,1,0,0-1.48h-6.07l-2.27-1.87h13.12l1.9,6.59h-1.02Zm-2.28-4.13a1.213,1.213,0,0,0-.05-0.14,0.746,0.746,0,0,0-.07-0.12,1.059,1.059,0,0,0-.1-0.12,0.82,0.82,0,0,0-.71-0.2c-0.05.01-.1,0.03-0.15,0.04s-0.09.05-.13,0.07a0.623,0.623,0,0,0-.12.09,1.059,1.059,0,0,0-.1.12,0.375,0.375,0,0,0-.07.12,1.213,1.213,0,0,0-.05.14,0.772,0.772,0,0,0-.02.15,0.722,0.722,0,0,0,.07.28,0.415,0.415,0,0,0,.07.13,1,1,0,0,0,.1.11,0.623,0.623,0,0,0,.12.09,0.539,0.539,0,0,0,.13.07,0.833,0.833,0,0,0,.15.04,0.772,0.772,0,0,0,.15.02,0.8,0.8,0,0,0,.56-0.22,1,1,0,0,0,.1-0.11,0.826,0.826,0,0,0,.07-0.13,0.722,0.722,0,0,0,.07-0.28A0.772,0.772,0,0,0,1289.88,1487.94Z" transform="translate(-1259 -1484)"/>
</svg>
