<svg xmlns="http://www.w3.org/2000/svg" width="34.999" height="34.999" viewBox="0 0 36 36">
  <metadata><?xpacket begin="﻿" id="W5M0MpCehiHzreSzNTczkc9d"?>
<x:xmpmeta xmlns:x="adobe:ns:meta/" x:xmptk="Adobe XMP Core 5.6-c138 79.159824, 2016/09/14-01:09:01        ">
   <rdf:RDF xmlns:rdf="http://www.w3.org/1999/02/22-rdf-syntax-ns#">
      <rdf:Description rdf:about=""/>
   </rdf:RDF>
</x:xmpmeta>
                                                                                                    
                                                                                                    
                                                                                               
                           
<?xpacket end="w"?></metadata>
<defs>
    <style>
      .cls-1 {
        fill: #cacaca;
        fill-rule: evenodd;
      }
    </style>
  </defs>
  <path id="icon" class="cls-1" d="M1006.95,1506.9h-5.34v-10.97a3.43,3.43,0,0,0-2.293-3.24l-5.136-1.91a4.328,4.328,0,0,0,1.209-3v-4.71a0.134,0.134,0,0,0,0-.02v-0.7a4.35,4.35,0,0,0-4.342-4.35h-2.1a4.35,4.35,0,0,0-4.342,4.35v5.43a4.328,4.328,0,0,0,1.209,3l-5.136,1.91a3.431,3.431,0,0,0-2.291,3.24v10.97h-5.337a1.055,1.055,0,1,0,0,2.11h8.212l0.017,2.88h-0.323a1.055,1.055,0,1,0,0,2.11h18.078a1.055,1.055,0,0,0,0-2.11h-0.324l0.018-2.88h8.217A1.055,1.055,0,0,0,1006.95,1506.9Zm-12.463-13.75-1.868,4.93-0.318-3.52a3.381,3.381,0,0,0,1.026-1.84Zm-5.535-13.04h2.1a2.243,2.243,0,0,1,2.231,2.15,3.473,3.473,0,0,1-3.021-1.18,1.033,1.033,0,0,0-1.575-.09,3.514,3.514,0,0,1-1.846.64A2.24,2.24,0,0,1,988.952,1480.11Zm-2.233,3.66h0a7.366,7.366,0,0,0,2.592-.67,6.97,6.97,0,0,0,.918.63,5.3,5.3,0,0,0,2.585.67,3.656,3.656,0,0,0,.467-0.02v3.4a2.234,2.234,0,0,1-2.233,2.23h-2.1a2.234,2.234,0,0,1-2.233-2.23v-4.01h0Zm3.281,9.59a1.282,1.282,0,0,1-1.272-1.14l2.545-.01A1.287,1.287,0,0,1,990,1493.36Zm0.832,8.38h-1.664l0.565-6.25h0.534Zm-4.16-9.02a3.382,3.382,0,0,0,1.027,1.84l-0.318,3.52-1.868-4.93Zm-5.432,11.8,0.014,2.38H980.5v-10.97a1.332,1.332,0,0,1,.885-1.25,0.019,0.019,0,0,0,.02-0.01l2.129-.79,2.979,7.86H984A2.766,2.766,0,0,0,981.24,1504.52Zm15.366,7.37H983.394l-0.045-7.38a0.664,0.664,0,0,1,.65-0.66h12a0.664,0.664,0,0,1,.65.66Zm2.892-4.99h-0.752l0.014-2.37a2.767,2.767,0,0,0-2.759-2.79h-2.516l2.98-7.86,2.128,0.79a0.021,0.021,0,0,0,.021.01,1.331,1.331,0,0,1,.884,1.25v10.97Zm-7.847-22.22a1.055,1.055,0,1,1-1.055,1.06A1.055,1.055,0,0,1,991.651,1484.68Zm-3.3,0a1.055,1.055,0,1,1-1.055,1.06A1.054,1.054,0,0,1,988.35,1484.68Z" transform="translate(-972 -1478)"/>
</svg>
