<svg xmlns="http://www.w3.org/2000/svg" width="29.969" height="35.03" viewBox="0 0 29.969 35.03">
  <metadata><?xpacket begin="﻿" id="W5M0MpCehiHzreSzNTczkc9d"?>
<x:xmpmeta xmlns:x="adobe:ns:meta/" x:xmptk="Adobe XMP Core 5.6-c138 79.159824, 2016/09/14-01:09:01        ">
   <rdf:RDF xmlns:rdf="http://www.w3.org/1999/02/22-rdf-syntax-ns#">
      <rdf:Description rdf:about=""/>
   </rdf:RDF>
</x:xmpmeta>
                                                                                                    
                                                                                                    
                                                                                                    
                                                                                                    
                                                                                                    
                                                                                                    
                                                                                                    
                                                                                                    
                                                                                                    
                                                                                                    
                                                                                                    
                                                                                                    
                                                                                                    
                                                                                                    
                                                                                                    
                                                                                                    
                                                                                                    
                                                                                                    
                                                                                                    
                                                                                                    
                           
<?xpacket end="w"?></metadata>
<defs>
    <style>
      .cls-1 {
        fill: #cacaca;
        fill-rule: evenodd;
      }
    </style>
  </defs>
  <path id="icon" class="cls-1" d="M717.723,1492.8l-11.3-11.6a2.963,2.963,0,0,0-4.239,0,3.142,3.142,0,0,0-.365,3.9l-0.016.08a21.624,21.624,0,0,1-5.737,11l-5.185,5.32a3.132,3.132,0,0,0,0,4.35l2.826,2.9a2.946,2.946,0,0,0,4.239,0l0.706-.73,4.945,5.08a2.946,2.946,0,0,0,4.239,0,3.138,3.138,0,0,0,0-4.35l-2.12-2.18,0.707-.72a3.132,3.132,0,0,0,0-4.35l-0.48-.49a20.635,20.635,0,0,1,7.908-3.47l0.08-.01a2.95,2.95,0,0,0,3.795-.38h0A3.136,3.136,0,0,0,717.723,1492.8Zm-21.193,14.5a0.982,0.982,0,0,1-1.413,0l-2.826-2.9a1.045,1.045,0,0,1,0-1.45l4.945-5.07,4.239,4.34C700.991,1502.72,697.025,1506.79,696.53,1507.3Zm9.89,2.9a1.047,1.047,0,0,1,0,1.45,0.982,0.982,0,0,1-1.413,0l-4.945-5.08,1.413-1.45Zm-3.532-6.53c0.3-.3.749-0.78,1.459-1.4l0.66,0.68a1.045,1.045,0,0,1,0,1.45l-0.707.72Zm0.042-2.85-4.324-4.44a23.623,23.623,0,0,0,4.864-9.5l8.725,8.95A22.651,22.651,0,0,0,702.93,1500.82Zm13.38-5.12a0.982,0.982,0,0,1-1.413,0l-11.3-11.6a1.045,1.045,0,0,1,0-1.45,0.982,0.982,0,0,1,1.413,0l11.3,11.6A1.047,1.047,0,0,1,716.31,1495.7Zm-18.368,5.8a0.981,0.981,0,0,0-1.412,0l-1.413,1.45a1.045,1.045,0,0,0,0,1.45,0.982,0.982,0,0,0,1.413,0l1.412-1.45A1.043,1.043,0,0,0,697.942,1501.5Zm13.066-22.5a1.012,1.012,0,0,0-1,1.02v2.05a1,1,0,1,0,2,0v-2.05A1.012,1.012,0,0,0,711.008,1479Zm7.993,8.2h-2a1.025,1.025,0,0,0,0,2.05h2A1.025,1.025,0,0,0,719,1487.2Zm-1.292-5.85a0.982,0.982,0,0,0-1.413,0l-2,2.05a1.045,1.045,0,0,0,0,1.45,0.982,0.982,0,0,0,1.413,0l2-2.05A1.045,1.045,0,0,0,717.709,1481.35Z" transform="translate(-690.031 -1479)"/>
</svg>
