<svg xmlns="http://www.w3.org/2000/svg" width="29.166" height="34.999" viewBox="0 0 30 36">
  <metadata><?xpacket begin="﻿" id="W5M0MpCehiHzreSzNTczkc9d"?>
<x:xmpmeta xmlns:x="adobe:ns:meta/" x:xmptk="Adobe XMP Core 5.6-c138 79.159824, 2016/09/14-01:09:01        ">
   <rdf:RDF xmlns:rdf="http://www.w3.org/1999/02/22-rdf-syntax-ns#">
      <rdf:Description rdf:about=""/>
   </rdf:RDF>
</x:xmpmeta>
                                                                                                    
                                                                                                    
                                                                                                    
                                                                                                    
                                                                                                    
                                                                                                    
                                                                                                    
                                                                                                    
                                                                                                    
                                                                                                    
                                                                                                    
                                                                                                    
                                                                                                    
                                                                                                    
                                                                                                    
                                                                                                    
                                                                                                    
                                                                                                    
                                                                                                    
                                                                                                    
                           
<?xpacket end="w"?></metadata>
<defs>
    <style>
      .cls-1 {
        fill: #cacaca;
        fill-rule: evenodd;
      }
    </style>
  </defs>
  <path id="icon" class="cls-1" d="M424.354,1483.09a0.6,0.6,0,0,1-.579-0.52,3.859,3.859,0,0,0-3.773-3.36,3.791,3.791,0,0,0-3.08,1.61,0.571,0.571,0,0,1-.819.13,0.611,0.611,0,0,1-.127-0.84A4.959,4.959,0,0,1,420,1478a5.053,5.053,0,0,1,4.934,4.4,0.611,0.611,0,0,1-.5.69h-0.084Zm-17.251,7.35a0.931,0.931,0,0,1-.809-0.49,1,1,0,0,1,.012-0.97l1.759-3.02a0.938,0.938,0,0,1,.8-0.46h0.953a0.955,0.955,0,0,1,0,1.91h-0.426l-0.644,1.11h22.514l-0.643-1.11h-1.16a0.955,0.955,0,0,1,0-1.91h1.686a0.937,0.937,0,0,1,.8.46l1.759,3.02a0.994,0.994,0,0,1,.012.97,0.931,0.931,0,0,1-.809.49H407.1Zm21.671-.59a0.63,0.63,0,0,1-.134-0.02,0.6,0.6,0,0,1-.438-0.72l1.077-4.75-6.851-1.65-0.469,2.07a0.58,0.58,0,0,1-.7.45,0.609,0.609,0,0,1-.437-0.73l0.6-2.65a0.62,0.62,0,0,1,.262-0.38,0.575,0.575,0,0,1,.443-0.07l7.992,1.93a0.553,0.553,0,0,1,.365.27,0.606,0.606,0,0,1,.073.45l-1.21,5.33A0.592,0.592,0,0,1,428.774,1489.85Zm-18.494.15a0.588,0.588,0,0,1-.582-0.53l-0.891-7.77a0.6,0.6,0,0,1,.514-0.67l9.806-1.19a0.605,0.605,0,0,1,.432.12,0.623,0.623,0,0,1,.219.41l0.534,4.65a0.605,0.605,0,0,1-.513.68,0.6,0.6,0,0,1-.651-0.53l-0.465-4.06-8.642,1.05,0.822,7.17a0.6,0.6,0,0,1-.514.67H410.28Zm14.1-.01a0.584,0.584,0,0,1-.569-0.46l-1.027-4.4-8.305,2.06,0.445,1.9a0.6,0.6,0,0,1-.433.73,0.583,0.583,0,0,1-.707-0.44l-0.582-2.5a0.594,0.594,0,0,1,.433-0.72l9.445-2.34a0.534,0.534,0,0,1,.443.07,0.6,0.6,0,0,1,.264.37l1.164,4.99a0.609,0.609,0,0,1-.433.73A0.642,0.642,0,0,1,424.378,1489.99ZM405.931,1514a0.921,0.921,0,0,1-.674-0.3,0.983,0.983,0,0,1-.255-0.71l1.173-23.56a0.942,0.942,0,0,1,.929-0.91h25.8a0.944,0.944,0,0,1,.929.91L435,1512.99a0.983,0.983,0,0,1-.255.71,0.926,0.926,0,0,1-.675.3H405.931Zm27.164-1.92-1.078-21.64h-24.03l-1.078,21.64H433.1Zm-8.7-17.16a1.816,1.816,0,1,1,1.759-1.82A1.795,1.795,0,0,1,424.4,1494.92Zm0-2.42a0.605,0.605,0,1,0,.587.6A0.594,0.594,0,0,0,424.4,1492.5Zm-8.794,2.42a1.816,1.816,0,1,1,1.759-1.82A1.795,1.795,0,0,1,415.605,1494.92Zm0-2.42a0.605,0.605,0,1,0,.586.6A0.594,0.594,0,0,0,415.605,1492.5Zm8.749,0M420,1503.05a5.415,5.415,0,0,1-5.327-5.49v-3.32a0.93,0.93,0,1,1,1.86,0v3.32a3.469,3.469,0,1,0,6.935,0v-3.03a0.927,0.927,0,0,1-.046-0.29,0.947,0.947,0,0,1,.93-0.96H424.4a0.946,0.946,0,0,1,.93.96v3.32A5.415,5.415,0,0,1,420,1503.05Z" transform="translate(-405 -1478)"/>
</svg>
