<svg xmlns="http://www.w3.org/2000/svg" width="70" height="70" viewBox="0 0 70 70">
  <metadata><?xpacket begin="﻿" id="W5M0MpCehiHzreSzNTczkc9d"?>
<x:xmpmeta xmlns:x="adobe:ns:meta/" x:xmptk="Adobe XMP Core 5.6-c138 79.159824, 2016/09/14-01:09:01        ">
   <rdf:RDF xmlns:rdf="http://www.w3.org/1999/02/22-rdf-syntax-ns#">
      <rdf:Description rdf:about=""/>
   </rdf:RDF>
</x:xmpmeta>
                                                                                                    
                                                                                                    
                                                                                                    
                                                                                                    
                                                                                                    
                                                                                                    
                                                                                                    
                                                                                                    
                                                                                                    
                                                                                                    
                                                                                                    
                                                                                                    
                                                                                                    
                                                                                                    
                                                                                                    
                                                                                                    
                                                                                                    
                                                                                                    
                                                                                                    
                                                                                                    
                           
<?xpacket end="w"?></metadata>
<defs>
    <style>
      .cls-1 {
        fill: #fff;
        fill-rule: evenodd;
        opacity: 0.1;
      }
    </style>
  </defs>
  <path id="icon" class="cls-1" d="M985.519,5739.77H958.236v-27.28a1.974,1.974,0,0,0-1.985-1.98,31.245,31.245,0,1,0,31.252,31.24A2,2,0,0,0,985.519,5739.77Zm-29.268,29.26a27.276,27.276,0,0,1-1.984-54.48v27.2a1.976,1.976,0,0,0,1.984,1.99h27.21A27.307,27.307,0,0,1,956.251,5769.03ZM995,5734.14A31.248,31.248,0,0,0,963.748,5703a1.974,1.974,0,0,0-1.984,1.98v29.26a1.976,1.976,0,0,0,1.984,1.99h29.268a1.976,1.976,0,0,0,1.984-1.99v-0.1Zm-29.267-1.87v-25.22a27.306,27.306,0,0,1,25.225,25.22H965.733Z" transform="translate(-925 -5703)"/>
</svg>
