<svg xmlns="http://www.w3.org/2000/svg" width="30" height="35" viewBox="0 0 30 35">
  <metadata><?xpacket begin="﻿" id="W5M0MpCehiHzreSzNTczkc9d"?>
<x:xmpmeta xmlns:x="adobe:ns:meta/" x:xmptk="Adobe XMP Core 5.6-c138 79.159824, 2016/09/14-01:09:01        ">
   <rdf:RDF xmlns:rdf="http://www.w3.org/1999/02/22-rdf-syntax-ns#">
      <rdf:Description rdf:about=""/>
   </rdf:RDF>
</x:xmpmeta>
                                                                                                    
                                                                                                    
                                                                                                    
                                                                                                    
                                                                                                    
                                                                                                    
                                                                                                    
                                                                                                    
                                                                                                    
                                                                                                    
                                                                                                    
                                                                                                    
                                                                                                    
                                                                                                    
                                                                                                    
                                                                                                    
                                                                                                    
                                                                                                    
                                                                                                    
                                                                                                    
                           
<?xpacket end="w"?></metadata>
<defs>
    <style>
      .cls-1 {
        fill: #c1c1c1;
        fill-rule: evenodd;
      }
    </style>
  </defs>
  <path id="icon" class="cls-1" d="M1011.18,3806.97h-2a1.32,1.32,0,0,1,0-2.64h3.51a0.87,0.87,0,0,0,0-1.74h-1.64v-1.22a0.875,0.875,0,0,0-1.75,0v1.22h-0.12a3.06,3.06,0,0,0,0,6.12h2a1.32,1.32,0,0,1,0,2.64h-3.58a0.87,0.87,0,1,0,0,1.74h1.71v1.25a0.87,0.87,0,0,0,1.74,0v-1.25h0.17A3.06,3.06,0,0,0,1011.18,3806.97Zm12.09-1.98a25.03,25.03,0,0,0-3.77-6.07,28.083,28.083,0,0,0-4.84-4.61l3.7-6.88a0.838,0.838,0,0,0-.16-1.03,4.309,4.309,0,0,0-3.1-1.4,7.3,7.3,0,0,0-2.82.74,5.276,5.276,0,0,1-1.77.53,1.158,1.158,0,0,1-.42-0.07,12.893,12.893,0,0,0-4.34-1.03,5.891,5.891,0,0,0-4.37,2.06,0.889,0.889,0,0,0-.1,1.09l3.99,6.04a29.325,29.325,0,0,0-4.77,4.56,25.289,25.289,0,0,0-3.772,6.07,20.654,20.654,0,0,0-1.728,8.23,6.778,6.778,0,0,0,6.76,6.78h16.48a6.775,6.775,0,0,0,6.76-6.78A20.6,20.6,0,0,0,1023.27,3804.99Zm-20.13-17.04a3.817,3.817,0,0,1,2.61-1.04,11.117,11.117,0,0,1,3.74.92,2.859,2.859,0,0,0,1.01.17,6.386,6.386,0,0,0,2.44-.66,5.946,5.946,0,0,1,2.15-.61,2.309,2.309,0,0,1,1.4.48l-3.48,6.49h-6.07Zm15.1,30.3h-16.48a5.026,5.026,0,0,1-5.018-5.03,20.373,20.373,0,0,1,5.058-13.14,26.559,26.559,0,0,1,4.93-4.63h6.52a26.237,26.237,0,0,1,4.93,4.63,20.307,20.307,0,0,1,5.06,13.14A5,5,0,0,1,1018.24,3818.25Z" transform="translate(-995 -3785)"/>
</svg>
