<svg xmlns="http://www.w3.org/2000/svg" width="29.999" height="25.384" viewBox="0 0 26 22">
  <metadata><?xpacket begin="﻿" id="W5M0MpCehiHzreSzNTczkc9d"?>
<x:xmpmeta xmlns:x="adobe:ns:meta/" x:xmptk="Adobe XMP Core 5.6-c138 79.159824, 2016/09/14-01:09:01        ">
   <rdf:RDF xmlns:rdf="http://www.w3.org/1999/02/22-rdf-syntax-ns#">
      <rdf:Description rdf:about=""/>
   </rdf:RDF>
</x:xmpmeta>
                                                                                                    
                                                                                                    
                                                                                                    
                                                                                                    
                                                                                                    
                                                                                                    
                                                                                                    
                                                                                                    
                                                                                                    
                                                                                                    
                                                                                                    
                                                                                                    
                                                                                                    
                                                                                                    
                                                                                                    
                                                                                                    
                                                                                                    
                                                                                                    
                                                                                                    
                                                                                                    
                           
<?xpacket end="w"?></metadata>
<defs>
    <style>
      .cls-1 {
        fill: #c1c1c1;
        fill-rule: evenodd;
      }
    </style>
  </defs>
  <path id="icon" class="cls-1" d="M1018.96,3666.83h-0.92a0.494,0.494,0,0,0-.34.13,0.445,0.445,0,0,0-.13.33v4.59a2.192,2.192,0,0,1-.68,1.61,2.259,2.259,0,0,1-1.64.68h-12.07a2.243,2.243,0,0,1-1.64-.68,2.154,2.154,0,0,1-.68-1.61v-11.92a2.176,2.176,0,0,1,.68-1.62,2.233,2.233,0,0,1,1.64-.67h10.21a0.494,0.494,0,0,0,.34-0.13,0.487,0.487,0,0,0,.13-0.33v-0.92a0.487,0.487,0,0,0-.13-0.33,0.452,0.452,0,0,0-.34-0.13h-10.21a4.023,4.023,0,0,0-2.95,1.21,3.948,3.948,0,0,0-1.23,2.92v11.92a3.942,3.942,0,0,0,1.23,2.91,4.023,4.023,0,0,0,2.95,1.21h12.07a4.023,4.023,0,0,0,2.95-1.21,3.946,3.946,0,0,0,1.23-2.91v-4.59a0.445,0.445,0,0,0-.13-0.33A0.494,0.494,0,0,0,1018.96,3666.83Zm5.76-12.56a0.891,0.891,0,0,0-.65-0.27h-7.43a0.94,0.94,0,0,0-.93.91,0.9,0.9,0,0,0,.28.65l2.55,2.52-9.46,9.34a0.459,0.459,0,0,0,0,.66l1.66,1.63a0.442,0.442,0,0,0,.33.15,0.427,0.427,0,0,0,.33-0.15l9.46-9.34,2.56,2.52a0.894,0.894,0,0,0,1.3,0,0.843,0.843,0,0,0,.28-0.64v-7.34A0.858,0.858,0,0,0,1024.72,3654.27Z" transform="translate(-999 -3654)"/>
</svg>
