<svg xmlns="http://www.w3.org/2000/svg" width="30" height="30" viewBox="0 0 30 30">
  <metadata><?xpacket begin="﻿" id="W5M0MpCehiHzreSzNTczkc9d"?>
<x:xmpmeta xmlns:x="adobe:ns:meta/" x:xmptk="Adobe XMP Core 5.6-c138 79.159824, 2016/09/14-01:09:01        ">
   <rdf:RDF xmlns:rdf="http://www.w3.org/1999/02/22-rdf-syntax-ns#">
      <rdf:Description rdf:about=""/>
   </rdf:RDF>
</x:xmpmeta>
                                                                                                    
                                                                                                    
                                                                                                    
                                                                                                    
                                                                                                    
                                                                                                    
                                                                                                    
                                                                                                    
                                                                                                    
                                                                                                    
                                                                                                    
                                                                                                    
                                                                                                    
                                                                                                    
                                                                                                    
                                                                                                    
                                                                                                    
                                                                                                    
                                                                                                    
                                                                                                    
                           
<?xpacket end="w"?></metadata>
<defs>
    <style>
      .cls-1 {
        fill: #c1c1c1;
        fill-rule: evenodd;
      }
    </style>
  </defs>
  <path id="icon" class="cls-1" d="M1010,3928a15,15,0,1,0,15,15A15.018,15.018,0,0,0,1010,3928Zm0,28.03a13.03,13.03,0,1,1,13.03-13.03A13.047,13.047,0,0,1,1010,3956.03Zm0.99-13.92v-5.6a2.862,2.862,0,0,1,1.38,1.1,0.986,0.986,0,0,0,1.65-1.08,4.807,4.807,0,0,0-3.03-2.07v-1.57a0.99,0.99,0,0,0-1.98,0v1.57a4.811,4.811,0,0,0,0,9.42v5.61a2.862,2.862,0,0,1-1.38-1.1,0.986,0.986,0,1,0-1.65,1.08,4.807,4.807,0,0,0,3.03,2.07v1.57a0.99,0.99,0,0,0,1.98,0v-1.57A4.817,4.817,0,0,0,1010.99,3942.11Zm-3.83-2.94a2.837,2.837,0,0,1,1.85-2.66v5.32A2.837,2.837,0,0,1,1007.16,3939.17Zm3.83,10.32v-5.32A2.837,2.837,0,0,1,1010.99,3949.49Z" transform="translate(-995 -3928)"/>
</svg>
