<svg xmlns="http://www.w3.org/2000/svg" width="30" height="25" viewBox="0 0 30 25">
  <metadata><?xpacket begin="﻿" id="W5M0MpCehiHzreSzNTczkc9d"?>
<x:xmpmeta xmlns:x="adobe:ns:meta/" x:xmptk="Adobe XMP Core 5.6-c138 79.159824, 2016/09/14-01:09:01        ">
   <rdf:RDF xmlns:rdf="http://www.w3.org/1999/02/22-rdf-syntax-ns#">
      <rdf:Description rdf:about=""/>
   </rdf:RDF>
</x:xmpmeta>
                                                                                                    
                                                                                                    
                                                                                                    
                                                                                                    
                                                                                                    
                                                                                                    
                                                                                                    
                                                                                                    
                                                                                                    
                                                                                                    
                                                                                                    
                                                                                                    
                                                                                                    
                                                                                                    
                                                                                                    
                                                                                                    
                                                                                                    
                                                                                                    
                                                                                                    
                                                                                                    
                           
<?xpacket end="w"?></metadata>
<defs>
    <style>
      .cls-1 {
        fill: #f5f5f5;
        fill-rule: evenodd;
      }
    </style>
  </defs>
  <path id="icon" class="cls-1" d="M857.6,5930.33a8.042,8.042,0,0,0-2.2-.32,6.914,6.914,0,0,0-2.753.56c0.692-2.53,2.355-6.89,5.667-7.38a0.8,0.8,0,0,0,.642-0.57l0.723-2.58a0.778,0.778,0,0,0-.1-0.64,0.786,0.786,0,0,0-.55-0.35,6.121,6.121,0,0,0-.741-0.05c-3.975,0-7.912,4.14-9.573,10.07-0.975,3.48-1.261,8.71,1.141,12a7.191,7.191,0,0,0,5.829,2.93h0.03a7,7,0,0,0,6.715-5.09,6.9,6.9,0,0,0-.639-5.29A6.981,6.981,0,0,0,857.6,5930.33Zm19.491,3.29a6.978,6.978,0,0,0-4.2-3.29,8.04,8.04,0,0,0-2.2-.32,6.915,6.915,0,0,0-2.754.56c0.693-2.53,2.355-6.89,5.667-7.38a0.8,0.8,0,0,0,.642-0.57l0.724-2.58a0.789,0.789,0,0,0-.651-0.99,6.121,6.121,0,0,0-.741-0.05c-3.975,0-7.912,4.14-9.573,10.07-0.975,3.48-1.261,8.71,1.141,12a7.192,7.192,0,0,0,5.829,2.93h0.031a7,7,0,0,0,6.714-5.09A6.9,6.9,0,0,0,877.094,5933.62Z" transform="translate(-848 -5919)"/>
</svg>
