<svg xmlns="http://www.w3.org/2000/svg" width="73" height="71" viewBox="0 0 73 71">
  <metadata><?xpacket begin="﻿" id="W5M0MpCehiHzreSzNTczkc9d"?>
<x:xmpmeta xmlns:x="adobe:ns:meta/" x:xmptk="Adobe XMP Core 5.6-c138 79.159824, 2016/09/14-01:09:01        ">
   <rdf:RDF xmlns:rdf="http://www.w3.org/1999/02/22-rdf-syntax-ns#">
      <rdf:Description rdf:about=""/>
   </rdf:RDF>
</x:xmpmeta>
                                                                                                    
                                                                                                    
                                                                                                    
                                                                                                    
                                                                                                    
                                                                                                    
                                                                                                    
                                                                                                    
                                                                                                    
                                                                                                    
                                                                                                    
                                                                                                    
                                                                                                    
                                                                                                    
                                                                                                    
                                                                                                    
                                                                                                    
                                                                                                    
                                                                                                    
                                                                                                    
                           
<?xpacket end="w"?></metadata>
<defs>
    <style>
      .cls-1 {
        fill: #fff;
        fill-rule: evenodd;
        opacity: 0.1;
      }
    </style>
  </defs>
  <path id="icon" class="cls-1" d="M995.4,8227.18a1.839,1.839,0,0,0-2.592-.2l-10.541,8.82-10.989-6.1a1.86,1.86,0,0,0-2.5.69,1.776,1.776,0,0,0,.7,2.45l12.1,6.71a1.816,1.816,0,0,0,.9.24,1.875,1.875,0,0,0,1.193-.43l11.528-9.65A1.773,1.773,0,0,0,995.4,8227.18Zm0,0a1.839,1.839,0,0,0-2.592-.2l-10.541,8.82-10.989-6.1a1.86,1.86,0,0,0-2.5.69,1.776,1.776,0,0,0,.7,2.45l12.1,6.71a1.816,1.816,0,0,0,.9.24,1.875,1.875,0,0,0,1.193-.43l11.528-9.65A1.773,1.773,0,0,0,995.4,8227.18Zm-23.033,47.24a3.242,3.242,0,0,0-2-.53h-8.752a9.051,9.051,0,0,1,.825-1.07,27.114,27.114,0,0,1,3.453-3.14c1.686-1.35,2.879-2.34,3.6-2.97a11.489,11.489,0,0,0,2.1-2.61,6.924,6.924,0,0,0,1.032-3.7,6.438,6.438,0,0,0-.493-2.51,6.583,6.583,0,0,0-1.388-2.13,6.385,6.385,0,0,0-2.053-1.45,11.015,11.015,0,0,0-4.382-.79,10,10,0,0,0-3.705.62,7.527,7.527,0,0,0-2.615,1.62,6.545,6.545,0,0,0-1.549,2.23,6.13,6.13,0,0,0-.527,2.36,1.958,1.958,0,0,0,.562,1.49,1.864,1.864,0,0,0,1.388.55,1.757,1.757,0,0,0,1.445-.6,5.469,5.469,0,0,0,.9-1.7,6.832,6.832,0,0,1,.562-1.34,3.93,3.93,0,0,1,3.452-1.89,4.034,4.034,0,0,1,1.916.46,3.514,3.514,0,0,1,1.9,3.18,4.626,4.626,0,0,1-.482,1.98,7.718,7.718,0,0,1-1.388,1.97,14.829,14.829,0,0,1-2.282,1.91,25.647,25.647,0,0,0-2.57,2.13q-1.789,1.62-4.026,3.89a5.532,5.532,0,0,0-.986,1.53,4.2,4.2,0,0,0-.459,1.58,2.159,2.159,0,0,0,.711,1.6,2.68,2.68,0,0,0,1.961.68h12.331a2.235,2.235,0,0,0,1.652-.56,1.852,1.852,0,0,0,.551-1.36A1.694,1.694,0,0,0,972.363,8274.42Zm-21.656-20.23a1.734,1.734,0,0,0-1.434-.67,1.477,1.477,0,0,0-1.067.3c-0.183.19-.6,0.72-1.227,1.58a14.09,14.09,0,0,1-2.145,2.32,14.48,14.48,0,0,1-3.246,1.97,10.812,10.812,0,0,0-1.893,1.02,1.414,1.414,0,0,0-.539,1.23,1.733,1.733,0,0,0,.551,1.27,1.68,1.68,0,0,0,1.239.55q1.479,0,5.735-3.2v14.96a2.843,2.843,0,0,0,.619,1.99,2.1,2.1,0,0,0,1.641.68c1.537,0,2.3-1.11,2.3-3.31v-18.83A2.924,2.924,0,0,0,950.707,8254.19Zm0,0a1.734,1.734,0,0,0-1.434-.67,1.477,1.477,0,0,0-1.067.3c-0.183.19-.6,0.72-1.227,1.58a14.09,14.09,0,0,1-2.145,2.32,14.48,14.48,0,0,1-3.246,1.97,10.812,10.812,0,0,0-1.893,1.02,1.414,1.414,0,0,0-.539,1.23,1.733,1.733,0,0,0,.551,1.27,1.68,1.68,0,0,0,1.239.55q1.479,0,5.735-3.2v14.96a2.843,2.843,0,0,0,.619,1.99,2.1,2.1,0,0,0,1.641.68c1.537,0,2.3-1.11,2.3-3.31v-18.83A2.924,2.924,0,0,0,950.707,8254.19Zm21.656,20.23a3.242,3.242,0,0,0-2-.53h-8.752a9.051,9.051,0,0,1,.825-1.07,27.114,27.114,0,0,1,3.453-3.14c1.686-1.35,2.879-2.34,3.6-2.97a11.489,11.489,0,0,0,2.1-2.61,6.924,6.924,0,0,0,1.032-3.7,6.438,6.438,0,0,0-.493-2.51,6.583,6.583,0,0,0-1.388-2.13,6.385,6.385,0,0,0-2.053-1.45,11.015,11.015,0,0,0-4.382-.79,10,10,0,0,0-3.705.62,7.527,7.527,0,0,0-2.615,1.62,6.545,6.545,0,0,0-1.549,2.23,6.13,6.13,0,0,0-.527,2.36,1.958,1.958,0,0,0,.562,1.49,1.864,1.864,0,0,0,1.388.55,1.757,1.757,0,0,0,1.445-.6,5.469,5.469,0,0,0,.9-1.7,6.832,6.832,0,0,1,.562-1.34,3.93,3.93,0,0,1,3.452-1.89,4.034,4.034,0,0,1,1.916.46,3.514,3.514,0,0,1,1.9,3.18,4.626,4.626,0,0,1-.482,1.98,7.718,7.718,0,0,1-1.388,1.97,14.829,14.829,0,0,1-2.282,1.91,25.647,25.647,0,0,0-2.57,2.13q-1.789,1.62-4.026,3.89a5.532,5.532,0,0,0-.986,1.53,4.2,4.2,0,0,0-.459,1.58,2.159,2.159,0,0,0,.711,1.6,2.68,2.68,0,0,0,1.961.68h12.331a2.235,2.235,0,0,0,1.652-.56,1.852,1.852,0,0,0,.551-1.36A1.694,1.694,0,0,0,972.363,8274.42Zm23.033-47.24a1.839,1.839,0,0,0-2.592-.2l-10.541,8.82-10.989-6.1a1.86,1.86,0,0,0-2.5.69,1.776,1.776,0,0,0,.7,2.45l12.1,6.71a1.816,1.816,0,0,0,.9.24,1.875,1.875,0,0,0,1.193-.43l11.528-9.65A1.773,1.773,0,0,0,995.4,8227.18Zm0,0a1.839,1.839,0,0,0-2.592-.2l-10.541,8.82-10.989-6.1a1.86,1.86,0,0,0-2.5.69,1.776,1.776,0,0,0,.7,2.45l12.1,6.71a1.816,1.816,0,0,0,.9.24,1.875,1.875,0,0,0,1.193-.43l11.528-9.65A1.773,1.773,0,0,0,995.4,8227.18Zm-23.033,47.24a3.242,3.242,0,0,0-2-.53h-8.752a9.051,9.051,0,0,1,.825-1.07,27.114,27.114,0,0,1,3.453-3.14c1.686-1.35,2.879-2.34,3.6-2.97a11.489,11.489,0,0,0,2.1-2.61,6.924,6.924,0,0,0,1.032-3.7,6.438,6.438,0,0,0-.493-2.51,6.583,6.583,0,0,0-1.388-2.13,6.385,6.385,0,0,0-2.053-1.45,11.015,11.015,0,0,0-4.382-.79,10,10,0,0,0-3.705.62,7.527,7.527,0,0,0-2.615,1.62,6.545,6.545,0,0,0-1.549,2.23,6.13,6.13,0,0,0-.527,2.36,1.958,1.958,0,0,0,.562,1.49,1.864,1.864,0,0,0,1.388.55,1.757,1.757,0,0,0,1.445-.6,5.469,5.469,0,0,0,.9-1.7,6.832,6.832,0,0,1,.562-1.34,3.93,3.93,0,0,1,3.452-1.89,4.034,4.034,0,0,1,1.916.46,3.514,3.514,0,0,1,1.9,3.18,4.626,4.626,0,0,1-.482,1.98,7.718,7.718,0,0,1-1.388,1.97,14.829,14.829,0,0,1-2.282,1.91,25.647,25.647,0,0,0-2.57,2.13q-1.789,1.62-4.026,3.89a5.532,5.532,0,0,0-.986,1.53,4.2,4.2,0,0,0-.459,1.58,2.159,2.159,0,0,0,.711,1.6,2.68,2.68,0,0,0,1.961.68h12.331a2.235,2.235,0,0,0,1.652-.56,1.852,1.852,0,0,0,.551-1.36A1.694,1.694,0,0,0,972.363,8274.42Zm-23.09-20.9a1.477,1.477,0,0,0-1.067.3c-0.183.19-.6,0.72-1.227,1.58a14.09,14.09,0,0,1-2.145,2.32,14.48,14.48,0,0,1-3.246,1.97,10.812,10.812,0,0,0-1.893,1.02,1.414,1.414,0,0,0-.539,1.23,1.733,1.733,0,0,0,.551,1.27,1.68,1.68,0,0,0,1.239.55q1.479,0,5.735-3.2v14.96a2.843,2.843,0,0,0,.619,1.99,2.1,2.1,0,0,0,1.641.68c1.537,0,2.3-1.11,2.3-3.31v-18.83a2.924,2.924,0,0,0-.539-1.86A1.734,1.734,0,0,0,949.273,8253.52Zm33.207-39.53a22.532,22.532,0,0,0-21.346,15.03,4.314,4.314,0,0,0-7.319,3.02v2.64h-6.767v-2.64a4.314,4.314,0,0,0-8.626,0v2.64h-4.1c-1.273,0-2.294.64-2.294,1.41v6.41a0.743,0.743,0,0,0-.023.17v38.63a3.733,3.733,0,0,0,3.762,3.69h42.946a3.733,3.733,0,0,0,3.762-3.69v-23.11A22.1,22.1,0,1,0,982.48,8213.99Zm-26.519,18.05a2.174,2.174,0,0,1,4.347,0v0.18a21.522,21.522,0,0,0-.31,2.46h-4.037v-2.64Zm-1.629,8.21h5.827v5.16h-5.827v-5.16Zm-8.959,0H951.2v5.16h-5.827v-5.16Zm-4.806-8.21a2.168,2.168,0,0,1,4.336,0v2.64h-4.336v-2.64Zm-4.164,8.21h5.839v5.16H936.4v-5.16Zm42.854,41.05a0.536,0.536,0,0,1-.539.53H935.772a0.536,0.536,0,0,1-.539-0.53v-31.26h29.789a22.627,22.627,0,0,0,14.235,7.92v23.34Zm3.223-26.71a18.5,18.5,0,1,1,18.85-18.5A18.7,18.7,0,0,1,982.48,8254.59Zm12.916-27.41a1.839,1.839,0,0,0-2.592-.2l-10.541,8.82-10.989-6.1a1.86,1.86,0,0,0-2.5.69,1.776,1.776,0,0,0,.7,2.45l12.1,6.71a1.816,1.816,0,0,0,.9.24,1.875,1.875,0,0,0,1.193-.43l11.528-9.65A1.773,1.773,0,0,0,995.4,8227.18Zm-34.79,26.96a7.527,7.527,0,0,0-2.615,1.62,6.545,6.545,0,0,0-1.549,2.23,6.13,6.13,0,0,0-.527,2.36,1.958,1.958,0,0,0,.562,1.49,1.864,1.864,0,0,0,1.388.55,1.757,1.757,0,0,0,1.445-.6,5.469,5.469,0,0,0,.9-1.7,6.832,6.832,0,0,1,.562-1.34,3.93,3.93,0,0,1,3.452-1.89,4.034,4.034,0,0,1,1.916.46,3.514,3.514,0,0,1,1.9,3.18,4.626,4.626,0,0,1-.482,1.98,7.718,7.718,0,0,1-1.388,1.97,14.829,14.829,0,0,1-2.282,1.91,25.647,25.647,0,0,0-2.57,2.13q-1.789,1.62-4.026,3.89a5.532,5.532,0,0,0-.986,1.53,4.2,4.2,0,0,0-.459,1.58,2.159,2.159,0,0,0,.711,1.6,2.68,2.68,0,0,0,1.961.68h12.331a2.235,2.235,0,0,0,1.652-.56,1.852,1.852,0,0,0,.551-1.36,1.694,1.694,0,0,0-.689-1.43,3.242,3.242,0,0,0-2-.53h-8.752a9.051,9.051,0,0,1,.825-1.07,27.114,27.114,0,0,1,3.453-3.14c1.686-1.35,2.879-2.34,3.6-2.97a11.489,11.489,0,0,0,2.1-2.61,6.924,6.924,0,0,0,1.032-3.7,6.438,6.438,0,0,0-.493-2.51,6.583,6.583,0,0,0-1.388-2.13,6.385,6.385,0,0,0-2.053-1.45,11.015,11.015,0,0,0-4.382-.79A10,10,0,0,0,960.606,8254.14Zm-11.333-.62a1.477,1.477,0,0,0-1.067.3c-0.183.19-.6,0.72-1.227,1.58a14.09,14.09,0,0,1-2.145,2.32,14.48,14.48,0,0,1-3.246,1.97,10.812,10.812,0,0,0-1.893,1.02,1.414,1.414,0,0,0-.539,1.23,1.733,1.733,0,0,0,.551,1.27,1.68,1.68,0,0,0,1.239.55q1.479,0,5.735-3.2v14.96a2.843,2.843,0,0,0,.619,1.99,2.1,2.1,0,0,0,1.641.68c1.537,0,2.3-1.11,2.3-3.31v-18.83a2.924,2.924,0,0,0-.539-1.86A1.734,1.734,0,0,0,949.273,8253.52Zm1.434,0.67a1.734,1.734,0,0,0-1.434-.67,1.477,1.477,0,0,0-1.067.3c-0.183.19-.6,0.72-1.227,1.58a14.09,14.09,0,0,1-2.145,2.32,14.48,14.48,0,0,1-3.246,1.97,10.812,10.812,0,0,0-1.893,1.02,1.414,1.414,0,0,0-.539,1.23,1.733,1.733,0,0,0,.551,1.27,1.68,1.68,0,0,0,1.239.55q1.479,0,5.735-3.2v14.96a2.843,2.843,0,0,0,.619,1.99,2.1,2.1,0,0,0,1.641.68c1.537,0,2.3-1.11,2.3-3.31v-18.83A2.924,2.924,0,0,0,950.707,8254.19Zm21.656,20.23a3.242,3.242,0,0,0-2-.53h-8.752a9.051,9.051,0,0,1,.825-1.07,27.114,27.114,0,0,1,3.453-3.14c1.686-1.35,2.879-2.34,3.6-2.97a11.489,11.489,0,0,0,2.1-2.61,6.924,6.924,0,0,0,1.032-3.7,6.438,6.438,0,0,0-.493-2.51,6.583,6.583,0,0,0-1.388-2.13,6.385,6.385,0,0,0-2.053-1.45,11.015,11.015,0,0,0-4.382-.79,10,10,0,0,0-3.705.62,7.527,7.527,0,0,0-2.615,1.62,6.545,6.545,0,0,0-1.549,2.23,6.13,6.13,0,0,0-.527,2.36,1.958,1.958,0,0,0,.562,1.49,1.864,1.864,0,0,0,1.388.55,1.757,1.757,0,0,0,1.445-.6,5.469,5.469,0,0,0,.9-1.7,6.832,6.832,0,0,1,.562-1.34,3.93,3.93,0,0,1,3.452-1.89,4.034,4.034,0,0,1,1.916.46,3.514,3.514,0,0,1,1.9,3.18,4.626,4.626,0,0,1-.482,1.98,7.718,7.718,0,0,1-1.388,1.97,14.829,14.829,0,0,1-2.282,1.91,25.647,25.647,0,0,0-2.57,2.13q-1.789,1.62-4.026,3.89a5.532,5.532,0,0,0-.986,1.53,4.2,4.2,0,0,0-.459,1.58,2.159,2.159,0,0,0,.711,1.6,2.68,2.68,0,0,0,1.961.68h12.331a2.235,2.235,0,0,0,1.652-.56,1.852,1.852,0,0,0,.551-1.36A1.694,1.694,0,0,0,972.363,8274.42Zm23.033-47.24a1.839,1.839,0,0,0-2.592-.2l-10.541,8.82-10.989-6.1a1.86,1.86,0,0,0-2.5.69,1.776,1.776,0,0,0,.7,2.45l12.1,6.71a1.816,1.816,0,0,0,.9.24,1.875,1.875,0,0,0,1.193-.43l11.528-9.65A1.773,1.773,0,0,0,995.4,8227.18Zm0,0a1.839,1.839,0,0,0-2.592-.2l-10.541,8.82-10.989-6.1a1.86,1.86,0,0,0-2.5.69,1.776,1.776,0,0,0,.7,2.45l12.1,6.71a1.816,1.816,0,0,0,.9.24,1.875,1.875,0,0,0,1.193-.43l11.528-9.65A1.773,1.773,0,0,0,995.4,8227.18Zm-23.033,47.24a3.242,3.242,0,0,0-2-.53h-8.752a9.051,9.051,0,0,1,.825-1.07,27.114,27.114,0,0,1,3.453-3.14c1.686-1.35,2.879-2.34,3.6-2.97a11.489,11.489,0,0,0,2.1-2.61,6.924,6.924,0,0,0,1.032-3.7,6.438,6.438,0,0,0-.493-2.51,6.583,6.583,0,0,0-1.388-2.13,6.385,6.385,0,0,0-2.053-1.45,11.015,11.015,0,0,0-4.382-.79,10,10,0,0,0-3.705.62,7.527,7.527,0,0,0-2.615,1.62,6.545,6.545,0,0,0-1.549,2.23,6.13,6.13,0,0,0-.527,2.36,1.958,1.958,0,0,0,.562,1.49,1.864,1.864,0,0,0,1.388.55,1.757,1.757,0,0,0,1.445-.6,5.469,5.469,0,0,0,.9-1.7,6.832,6.832,0,0,1,.562-1.34,3.93,3.93,0,0,1,3.452-1.89,4.034,4.034,0,0,1,1.916.46,3.514,3.514,0,0,1,1.9,3.18,4.626,4.626,0,0,1-.482,1.98,7.718,7.718,0,0,1-1.388,1.97,14.829,14.829,0,0,1-2.282,1.91,25.647,25.647,0,0,0-2.57,2.13q-1.789,1.62-4.026,3.89a5.532,5.532,0,0,0-.986,1.53,4.2,4.2,0,0,0-.459,1.58,2.159,2.159,0,0,0,.711,1.6,2.68,2.68,0,0,0,1.961.68h12.331a2.235,2.235,0,0,0,1.652-.56,1.852,1.852,0,0,0,.551-1.36A1.694,1.694,0,0,0,972.363,8274.42Zm-21.656-20.23a1.734,1.734,0,0,0-1.434-.67,1.477,1.477,0,0,0-1.067.3c-0.183.19-.6,0.72-1.227,1.58a14.09,14.09,0,0,1-2.145,2.32,14.48,14.48,0,0,1-3.246,1.97,10.812,10.812,0,0,0-1.893,1.02,1.414,1.414,0,0,0-.539,1.23,1.733,1.733,0,0,0,.551,1.27,1.68,1.68,0,0,0,1.239.55q1.479,0,5.735-3.2v14.96a2.843,2.843,0,0,0,.619,1.99,2.1,2.1,0,0,0,1.641.68c1.537,0,2.3-1.11,2.3-3.31v-18.83A2.924,2.924,0,0,0,950.707,8254.19Zm21.656,20.23a3.242,3.242,0,0,0-2-.53h-8.752a9.051,9.051,0,0,1,.825-1.07,27.114,27.114,0,0,1,3.453-3.14c1.686-1.35,2.879-2.34,3.6-2.97a11.489,11.489,0,0,0,2.1-2.61,6.924,6.924,0,0,0,1.032-3.7,6.438,6.438,0,0,0-.493-2.51,6.583,6.583,0,0,0-1.388-2.13,6.385,6.385,0,0,0-2.053-1.45,11.015,11.015,0,0,0-4.382-.79,10,10,0,0,0-3.705.62,7.527,7.527,0,0,0-2.615,1.62,6.545,6.545,0,0,0-1.549,2.23,6.13,6.13,0,0,0-.527,2.36,1.958,1.958,0,0,0,.562,1.49,1.864,1.864,0,0,0,1.388.55,1.757,1.757,0,0,0,1.445-.6,5.469,5.469,0,0,0,.9-1.7,6.832,6.832,0,0,1,.562-1.34,3.93,3.93,0,0,1,3.452-1.89,4.034,4.034,0,0,1,1.916.46,3.514,3.514,0,0,1,1.9,3.18,4.626,4.626,0,0,1-.482,1.98,7.718,7.718,0,0,1-1.388,1.97,14.829,14.829,0,0,1-2.282,1.91,25.647,25.647,0,0,0-2.57,2.13q-1.789,1.62-4.026,3.89a5.532,5.532,0,0,0-.986,1.53,4.2,4.2,0,0,0-.459,1.58,2.159,2.159,0,0,0,.711,1.6,2.68,2.68,0,0,0,1.961.68h12.331a2.235,2.235,0,0,0,1.652-.56,1.852,1.852,0,0,0,.551-1.36A1.694,1.694,0,0,0,972.363,8274.42Zm-21.656-20.23a1.734,1.734,0,0,0-1.434-.67,1.477,1.477,0,0,0-1.067.3c-0.183.19-.6,0.72-1.227,1.58a14.09,14.09,0,0,1-2.145,2.32,14.48,14.48,0,0,1-3.246,1.97,10.812,10.812,0,0,0-1.893,1.02,1.414,1.414,0,0,0-.539,1.23,1.733,1.733,0,0,0,.551,1.27,1.68,1.68,0,0,0,1.239.55q1.479,0,5.735-3.2v14.96a2.843,2.843,0,0,0,.619,1.99,2.1,2.1,0,0,0,1.641.68c1.537,0,2.3-1.11,2.3-3.31v-18.83A2.924,2.924,0,0,0,950.707,8254.19Z" transform="translate(-932 -8214)"/>
</svg>
