<svg xmlns="http://www.w3.org/2000/svg" width="44.101" height="39.998" viewBox="0 0 43 39">
  <metadata><?xpacket begin="﻿" id="W5M0MpCehiHzreSzNTczkc9d"?>
<x:xmpmeta xmlns:x="adobe:ns:meta/" x:xmptk="Adobe XMP Core 5.6-c138 79.159824, 2016/09/14-01:09:01        ">
   <rdf:RDF xmlns:rdf="http://www.w3.org/1999/02/22-rdf-syntax-ns#">
      <rdf:Description rdf:about=""/>
   </rdf:RDF>
</x:xmpmeta>
                                                                                                    
                                                                                                    
                       
<?xpacket end="w"?></metadata>
<defs>
    <style>

    </style>
  </defs>
  <path id="icon" class="cls-1" d="M839.9,2214.87l-6.667-11.42a0.79,0.79,0,0,0-.091-0.13l-6.344-10.87a8.041,8.041,0,0,0-3.2-3.36,8.2,8.2,0,0,0-11.146,2.94l-6.667,11.42a0.65,0.65,0,0,0-.068.14l-6.228,10.68a7.94,7.94,0,0,0-1.486,4.64,8.142,8.142,0,0,0,8.174,8.09h26.668a1.139,1.139,0,0,0,.187-0.02,8.236,8.236,0,0,0,3.9-1.08,8.045,8.045,0,0,0,3.793-4.91A7.941,7.941,0,0,0,839.9,2214.87Zm-0.926,5.66a6.25,6.25,0,0,1-2.951,3.82,6.43,6.43,0,0,1-3.18.84,1.054,1.054,0,0,0-.177.02H806.174a6.336,6.336,0,0,1-6.365-6.3,6.206,6.206,0,0,1,1.176-3.64,0.778,0.778,0,0,1,.046-0.07l6.315-10.82,0.011-.02a0.778,0.778,0,0,0,.072-0.16l6.586-11.28a6.382,6.382,0,0,1,8.674-2.28,6.285,6.285,0,0,1,2.5,2.63,0.165,0.165,0,0,0,.027.05l6.437,11.03a0.734,0.734,0,0,0,.091.13l6.589,11.29A6.17,6.17,0,0,1,838.974,2220.53Zm-26.947-18.77a0.914,0.914,0,0,0-1.237.32l-5.766,9.81a0.9,0.9,0,0,0,.327,1.23,0.932,0.932,0,0,0,.454.12,0.9,0.9,0,0,0,.783-0.45l5.766-9.81A0.888,0.888,0,0,0,812.027,2201.76Zm-7.022,11.94a0.907,0.907,0,0,0-1.236.33l-0.021.03a0.9,0.9,0,0,0,.329,1.23,0.928,0.928,0,0,0,.453.12,0.9,0.9,0,0,0,.783-0.45l0.021-.03A0.9,0.9,0,0,0,805.005,2213.7Zm27.244,7.95c-4.313-.01-5.267,0-6.587,0h-0.224a0.9,0.9,0,1,0,0,1.79h0.226c1.319,0,2.271-.01,6.581,0h0A0.9,0.9,0,1,0,832.249,2221.65Zm1.975-.37-0.02.01a0.894,0.894,0,0,0,.437,1.68,0.86,0.86,0,0,0,.436-0.11l0.062-.03a0.9,0.9,0,0,0,.323-1.23A0.916,0.916,0,0,0,834.224,2221.28Zm-14.726-9.02a3.007,3.007,0,0,0,3.017-2.99v-9.03a3.017,3.017,0,0,0-6.034,0v9.03A3.006,3.006,0,0,0,819.5,2212.26Zm-1.208-12.02h0a1.208,1.208,0,0,1,2.415,0v9.03a1.206,1.206,0,0,1-1.207,1.2h0a1.206,1.206,0,0,1-1.207-1.2v-9.03h0Zm1.208,13.7a2.985,2.985,0,1,0,3.017,2.98A3,3,0,0,0,819.5,2213.94Zm0,4.18a1.2,1.2,0,1,1,1.208-1.2A1.207,1.207,0,0,1,819.5,2218.12Z" transform="translate(-798 -2188)"/>
</svg>
