<svg xmlns="http://www.w3.org/2000/svg" width="39" height="38.97" viewBox="0 0 39 38.97">
  <metadata><?xpacket begin="﻿" id="W5M0MpCehiHzreSzNTczkc9d"?>
<x:xmpmeta xmlns:x="adobe:ns:meta/" x:xmptk="Adobe XMP Core 5.6-c138 79.159824, 2016/09/14-01:09:01        ">
   <rdf:RDF xmlns:rdf="http://www.w3.org/1999/02/22-rdf-syntax-ns#">
      <rdf:Description rdf:about=""/>
   </rdf:RDF>
</x:xmpmeta>
                                                                                                    
                                                                                                    
                                                                                                    
                                                                                                    
                                                                                                    
                                                                                                    
                                                                                                    
                                                                                                    
                                                                                                    
                                                                                                    
                                                                                                    
                                                                                                    
                                                                                                    
                                                                                                    
                                                                                                    
                                                                                                    
                                                                                                    
                                                                                                    
                                                                                                    
                                                                                                    
                           
<?xpacket end="w"?></metadata>
<defs>
    <style>
      .cls-1 {
        fill-rule: evenodd;
      }
    </style>
  </defs>
  <path id="icon" class="cls-1" d="M1100.11,2225.7a0.749,0.749,0,0,0-1.08,0,0.773,0.773,0,0,0-.22.54,0.791,0.791,0,0,0,.22.54,0.773,0.773,0,0,0,1.08,0,0.791,0.791,0,0,0,.22-0.54A0.773,0.773,0,0,0,1100.11,2225.7Zm-11.69-13.84a0.76,0.76,0,0,0-.76.76v7.08a0.76,0.76,0,1,0,1.52,0v-7.08A0.76,0.76,0,0,0,1088.42,2211.86Zm0.54-2.96a0.791,0.791,0,0,0-.54-0.22,0.773,0.773,0,0,0-.54.22,0.791,0.791,0,0,0-.22.54,0.773,0.773,0,0,0,.22.54,0.782,0.782,0,0,0,.54.23,0.8,0.8,0,0,0,.54-0.23,0.773,0.773,0,0,0,.22-0.54A0.791,0.791,0,0,0,1088.96,2208.9Zm34.04-.28a3.737,3.737,0,0,0-3.05-3.67V2200a3.815,3.815,0,0,0-3.81-3.81h-3.98l1.53,1.52h2.45a2.3,2.3,0,0,1,2.29,2.29v10.83h-2.36v-4.73a3.82,3.82,0,0,0-2.11-3.41,8.394,8.394,0,0,0-1.04-.4h-25.11a2.262,2.262,0,0,1-.97-0.22,1.671,1.671,0,0,1-1.08-1.08l-0.01.01a2.369,2.369,0,0,1-.23-1,2.3,2.3,0,0,1,2.29-2.29h1.22l1.48-1.48a1.087,1.087,0,0,0-.26-0.04h-2.44A3.815,3.815,0,0,0,1084,2200v23.19a3.815,3.815,0,0,0,3.81,3.81h8.56a0.76,0.76,0,0,0,.76-0.76,0.768,0.768,0,0,0-.76-0.77h-8.56a2.288,2.288,0,0,1-2.29-2.28v-20.14a3.8,3.8,0,0,0,2.29.76l15.94,0.02h8.74a2.28,2.28,0,0,1,2.05,2.27v4.73h-9.21a3.815,3.815,0,0,0,0,7.63h9.21v4.73a2.279,2.279,0,0,1-2.28,2.28h-9.5a0.768,0.768,0,0,0-.76.77,0.76,0.76,0,0,0,.76.76h9.5a3.815,3.815,0,0,0,3.81-3.81v-0.31h0.07a3.815,3.815,0,0,0,3.81-3.81v-0.69a3.811,3.811,0,0,0,3.05-3.74v-6.02Zm-4.57,10.45a2.3,2.3,0,0,1-2.29,2.29h-0.07v-2.9h2.36v0.61Zm3.05-4.43a2.29,2.29,0,0,1-2.29,2.29h-13.86a2.285,2.285,0,1,1,0-4.57h13.94a3.708,3.708,0,0,0,2.21-.73v3.01Zm-1.53-3.92v-4.2A2.206,2.206,0,0,1,1119.95,2210.72Zm-34.19-9.73a1.671,1.671,0,0,0,1.08,1.08h-0.01l12.22-12.23,1.23,1.23-11.2,11.22h2.15l9.71-9.72a4.675,4.675,0,0,0,5.46,0l4.97,4.98a4.727,4.727,0,0,0-.43,4.74h1.98a8.394,8.394,0,0,1,1.04.4,0.488,0.488,0,0,0-.07-0.03l1.83-1.83a0.76,0.76,0,0,0,0-1.08l-2.03-2.04,0.17,0.17-0.17-.17-1.53-1.52-0.41-.41-7.54-7.56a0.761,0.761,0,0,0-1.08,0l-1.77,1.77-1.77-1.77a0.761,0.761,0,0,0-1.08,0l-7.88,7.89,0.02-.02-0.02.02-0.12.12h0l-1.48,1.48Zm26.71-2.34,1.63,1.64-1.63,1.63A3.2,3.2,0,0,1,1112.47,2198.65Zm-10.28-7.33,1.48-1.48,1.63,1.63a3.147,3.147,0,0,1-3.18.05A0.679,0.679,0,0,0,1102.19,2191.32Zm-3.49,9.2a4.721,4.721,0,0,1,3.36,1.4,3.8,3.8,0,0,1,.33.37h1.83a6.367,6.367,0,0,0-1.08-1.45,6.289,6.289,0,0,0-8.89,0,6.367,6.367,0,0,0-1.08,1.45H1095a3.8,3.8,0,0,1,.33-0.37,4.727,4.727,0,0,1,3.37-1.4m7.32,13.59a0.749,0.749,0,0,0-1.08,0,0.76,0.76,0,0,0,0,1.07,0.749,0.749,0,0,0,1.08,0A0.76,0.76,0,0,0,1106.02,2214.11Zm0.34-16.52a0.76,0.76,0,0,0-1.08,0l-1.32,1.33a0.76,0.76,0,0,0,0,1.08,0.791,0.791,0,0,0,.54.22,0.81,0.81,0,0,0,.54-0.22l1.32-1.33A0.761,0.761,0,0,0,1106.36,2197.59Z" transform="translate(-1084 -2188.03)"/>
</svg>
