<svg xmlns="http://www.w3.org/2000/svg" width="30" height="30" viewBox="0 0 30 30">
  <metadata><?xpacket begin="﻿" id="W5M0MpCehiHzreSzNTczkc9d"?>
<x:xmpmeta xmlns:x="adobe:ns:meta/" x:xmptk="Adobe XMP Core 5.6-c138 79.159824, 2016/09/14-01:09:01        ">
   <rdf:RDF xmlns:rdf="http://www.w3.org/1999/02/22-rdf-syntax-ns#">
      <rdf:Description rdf:about=""/>
   </rdf:RDF>
</x:xmpmeta>
                                                                                                    
                                                                                                    
                                                                                                    
                                                                                                    
                                                                                                    
                                                                                                    
                                                                                                    
                                                                                                    
                                                                                                    
                                                                                                    
                                                                                                    
                                                                                                    
                                                                                                    
                                                                                                    
                                                                                                    
                                                                                                    
                                                                                                    
                                                                                                    
                                                                                                    
                                                                                                    
                           
<?xpacket end="w"?></metadata>
<defs>
    <style>
      .cls-1 {
        fill: #c1c1c1;
        fill-rule: evenodd;
      }
    </style>
  </defs>
  <path id="icon" class="cls-1" d="M1292.49,1998a2.276,2.276,0,0,1-.71-4.44v-6.67h-2.43a0.713,0.713,0,0,1-.71-0.71,0.7,0.7,0,0,1,.71-0.7h3.14a0.7,0.7,0,0,1,.7.7v7.38a2.248,2.248,0,0,1,1.57,2.16A2.277,2.277,0,0,1,1292.49,1998Zm0-3.14a0.865,0.865,0,1,0,.86.86A0.869,0.869,0,0,0,1292.49,1994.86Zm5.02,3.14a2.277,2.277,0,0,1-2.27-2.28,2.248,2.248,0,0,1,1.57-2.16v-6.67h-2.44a0.713,0.713,0,0,1-.71-0.71,0.7,0.7,0,0,1,.71-0.7h3.14a0.7,0.7,0,0,1,.71.7v7.38A2.276,2.276,0,0,1,1297.51,1998Zm0-3.14a0.865,0.865,0,1,0,.87.86A0.866,0.866,0,0,0,1297.51,1994.86Zm8.48,0a2.27,2.27,0,0,1-2.16-1.57h-1.29a0.713,0.713,0,0,1-.71-0.71v-5.69h-2.43a0.713,0.713,0,0,1-.71-0.71,0.7,0.7,0,0,1,.71-0.7h3.14a0.7,0.7,0,0,1,.71.7v5.69h0.58A2.277,2.277,0,1,1,1305.99,1994.86Zm0-3.14a0.86,0.86,0,1,0,.87.86A0.86,0.86,0,0,0,1305.99,1991.72Zm-21.98,3.14a2.28,2.28,0,1,1,2.16-2.99h0.58v-4.98h-0.86a5.894,5.894,0,0,1-1.62-11.56,4.332,4.332,0,0,1,4.18-3.26,4.128,4.128,0,0,1,1.11.15,9.18,9.18,0,0,1,7.72-4.22,9.151,9.151,0,0,1,9.13,8.54,5.32,5.32,0,0,1-1.73,10.35h-0.26a0.7,0.7,0,0,1-.7-0.71,0.7,0.7,0,0,1,.7-0.7h0.26a3.9,3.9,0,0,0,.88-7.71,0.717,0.717,0,0,1-.54-0.69,7.739,7.739,0,0,0-14.52-3.66,0.731,0.731,0,0,1-.62.36,0.671,0.671,0,0,1-.28-0.06,2.857,2.857,0,0,0-1.15-.24,2.909,2.909,0,0,0-2.87,2.52,0.713,0.713,0,0,1-.56.6,4.483,4.483,0,0,0,.87,8.88h1.57a0.7,0.7,0,0,1,.71.7v6.4a0.713,0.713,0,0,1-.71.71h-1.29A2.27,2.27,0,0,1,1284.01,1994.86Zm0-3.14a0.86,0.86,0,1,0,.86.86A0.862,0.862,0,0,0,1284.01,1991.72Zm19.2-14.15h0.01a0.461,0.461,0,0,0,.46-0.47,6.216,6.216,0,0,0-.43-2.26,0.481,0.481,0,0,0-.61-0.27,0.464,0.464,0,0,0-.27.61,5.5,5.5,0,0,1,.37,1.92,0.469,0.469,0,0,0,.47.47h0Zm0,0-1.72-3.88a0.475,0.475,0,0,0,.36.17,0.482,0.482,0,0,0,.3-0.11,0.474,0.474,0,0,0,.07-0.66,6.389,6.389,0,0,0-4.94-2.34,0.47,0.47,0,1,0,0,.94,5.449,5.449,0,0,1,4.21,2h0Zm0,0" transform="translate(-1280 -1968)"/>
</svg>
