<svg xmlns="http://www.w3.org/2000/svg" width="34.87" height="39.968" viewBox="0 0 34 38.97">
  <metadata><?xpacket begin="﻿" id="W5M0MpCehiHzreSzNTczkc9d"?>
<x:xmpmeta xmlns:x="adobe:ns:meta/" x:xmptk="Adobe XMP Core 5.6-c138 79.159824, 2016/09/14-01:09:01        ">
   <rdf:RDF xmlns:rdf="http://www.w3.org/1999/02/22-rdf-syntax-ns#">
      <rdf:Description rdf:about=""/>
   </rdf:RDF>
</x:xmpmeta>
                                                                                                    
                                                                                                    
                                                                                                    
                                                                                                    
                                                                                                    
                                                                                                    
                                                                                                    
                                                                                                    
                                                                                                    
                                                                                                    
                                                                                                    
                                                                                                    
                                                                                                    
                                                                                                    
                                                                                                    
                                                                                                    
                                                                                                    
                                                                                                    
                                                                                                    
                                                                                                    
                           
<?xpacket end="w"?></metadata>
<defs>
    <style>
      .cls-1 {
        fill-rule: evenodd;
      }
    </style>
  </defs>
  <path id="icon" class="cls-1" d="M546.383,2194.73a67.147,67.147,0,0,1-15.957-6.62,0.863,0.863,0,0,0-.852,0,64.933,64.933,0,0,1-15.957,6.62,0.836,0.836,0,0,0-.617.8v8.38a23.9,23.9,0,0,0,7.486,17.62c3.677,3.52,7.959,5.47,9.514,5.47s5.838-1.95,9.514-5.47A23.9,23.9,0,0,0,547,2203.91v-8.38A0.836,0.836,0,0,0,546.383,2194.73Zm-1.06,9.18a22.261,22.261,0,0,1-6.983,16.44c-3.615,3.47-7.481,5.01-8.34,5.01s-4.725-1.54-8.34-5.01a22.261,22.261,0,0,1-6.983-16.44v-7.76A66.822,66.822,0,0,0,530,2189.77a69.256,69.256,0,0,0,15.323,6.38v7.76Zm-22.756-7.85a0.847,0.847,0,0,0-1.088-.47c-1.5.58-3.036,1.11-4.571,1.58a0.833,0.833,0,0,0-.587.79v3.16a0.839,0.839,0,0,0,1.677,0v-2.56c1.377-.44,2.752-0.92,4.1-1.44A0.813,0.813,0,0,0,522.567,2196.06Zm1.593,0.15a0.8,0.8,0,0,0,.336-0.07h0.015a0.816,0.816,0,0,0,.43-1.08,0.836,0.836,0,0,0-1.107-.42h-0.013a0.813,0.813,0,0,0-.431,1.08A0.835,0.835,0,0,0,524.16,2196.21Zm15.832,18.24a0.848,0.848,0,0,0-1.161.24,19.87,19.87,0,0,1-2.41,2.95,21.518,21.518,0,0,1-2.405,2.09,0.808,0.808,0,0,0-.159,1.15,0.847,0.847,0,0,0,.668.32,0.808,0.808,0,0,0,.508-0.17,23.026,23.026,0,0,0,2.594-2.25,22.123,22.123,0,0,0,2.608-3.19A0.814,0.814,0,0,0,539.992,2214.45Zm-7.924,6.57-0.048.02a0.811,0.811,0,0,0-.306,1.12,0.828,0.828,0,0,0,.727.41,0.8,0.8,0,0,0,.419-0.11l0.056-.03a0.809,0.809,0,0,0,.3-1.12A0.848,0.848,0,0,0,532.068,2221.02Zm-7.784-15.19a2.749,2.749,0,0,0-3.857,0,2.627,2.627,0,0,0,0,3.77l4.952,4.84a2.774,2.774,0,0,0,3.857,0l10.337-10.11a2.625,2.625,0,0,0,0-3.77,2.773,2.773,0,0,0-3.856,0l-8.41,8.22Zm12.619-4.11a1.069,1.069,0,0,1,1.485,0,1.009,1.009,0,0,1,0,1.45l-10.337,10.11a1.069,1.069,0,0,1-1.485,0l-4.952-4.84a1.01,1.01,0,0,1,0-1.45,1.044,1.044,0,0,1,1.485,0l3.616,3.53a0.853,0.853,0,0,0,1.186,0Z" transform="translate(-513 -2188.03)"/>
</svg>
