<svg xmlns="http://www.w3.org/2000/svg" width="32.142" height="29.999" viewBox="0 0 30 28">
  <metadata><?xpacket begin="﻿" id="W5M0MpCehiHzreSzNTczkc9d"?>
<x:xmpmeta xmlns:x="adobe:ns:meta/" x:xmptk="Adobe XMP Core 5.6-c138 79.159824, 2016/09/14-01:09:01        ">
   <rdf:RDF xmlns:rdf="http://www.w3.org/1999/02/22-rdf-syntax-ns#">
      <rdf:Description rdf:about=""/>
   </rdf:RDF>
</x:xmpmeta>
                                                                                                    
                                                                                                    
                                                                                                    
                                                                                                    
                                                                                                    
                                                                                                    
                                                                                                    
                                                                                                    
                                                                                                    
                                                                                                    
                                                                                                    
                                                                                                    
                                                                                                    
                                                                                                    
                                                                                                    
                                                                                                    
                                                                                                    
                                                                                                    
                                                                                                    
                                                                                                    
                           
<?xpacket end="w"?></metadata>
<defs>
    <style>
      .cls-1 {
        fill: #c1c1c1;
        fill-rule: evenodd;
      }
    </style>
  </defs>
  <path id="icon" class="cls-1" d="M1017.41,1997a0.656,0.656,0,0,1-.33-0.09,16.091,16.091,0,0,1-2.59-1.82,31.194,31.194,0,0,1-7.51.92h-0.44c-5.56,0-11.54-1.13-11.54-3.63v-3.95a2.014,2.014,0,0,0,0-3.95v-3.95a2.014,2.014,0,0,0,0-3.95v-3.95c0-2.5,5.98-3.63,11.54-3.63s11.54,1.13,11.54,3.63v3.96h0a2.037,2.037,0,0,1-.61,1.3h5.87a1.654,1.654,0,0,1,1.66,1.65v6.33c0,0.28-.08,6.97-7.26,11.04A0.629,0.629,0,0,1,1017.41,1997Zm-4.79-6.27a13.057,13.057,0,0,0,4.79,4.83,12.773,12.773,0,0,0,5.43-6.12,10.293,10.293,0,0,0,.82-3.57v-6.33a0.322,0.322,0,0,0-.32-0.32h-11.86a0.329,0.329,0,0,0-.32.32v6.33a7.358,7.358,0,0,0,.14,1.23,0.564,0.564,0,0,1,.01.07h0a11.635,11.635,0,0,0,1.23,3.43A0.913,0.913,0,0,1,1012.62,1990.73Zm-16.284,1.65c0,0.34.84,0.94,2.685,1.45a30.244,30.244,0,0,0,7.519.85h0.34a31.34,31.34,0,0,0,6.48-.68,14.053,14.053,0,0,1-1.72-2.28,36.893,36.893,0,0,1-5.04.34h-0.06c-3.52,0-7.964-.48-10.2-1.81v2.13Zm2.124-5.23c-1.741.56-2.124,1.11-2.124,1.28,0,0.34.84,0.94,2.685,1.44a29.741,29.741,0,0,0,7.519.86h0.03a36.129,36.129,0,0,0,4.41-.27,12.523,12.523,0,0,1-.87-2.52c-1.22.11-2.42,0.17-3.57,0.17h-0.46A30.606,30.606,0,0,1,998.46,1987.15Zm0.171-1.33a28.961,28.961,0,0,0,7.409.96h0.5c1.08,0,2.18-.06,3.34-0.16a6.3,6.3,0,0,1-.05-0.75v-1.85c-1.07.09-2.17,0.14-3.29,0.14-3.52,0-7.964-.48-10.2-1.81v2.13C996.336,1984.66,996.748,1985.24,998.631,1985.82Zm-0.171-6.57c-1.741.56-2.124,1.11-2.124,1.28,0,0.34.84,0.94,2.685,1.44a29.741,29.741,0,0,0,7.519.86c1.12,0,2.23-.05,3.29-0.15v-2.62c-1.16.1-2.24,0.15-3.29,0.15h-0.46A30.606,30.606,0,0,1,998.46,1979.25Zm0.171-1.34a28.971,28.971,0,0,0,7.409.97c0.16,0,.33,0,0.5-0.01,1.15,0,2.33-.05,3.52-0.16a1.626,1.626,0,0,1,1.42-.82h3.05c1.82-.57,2.22-1.14,2.22-1.31v-2.13c-2.24,1.33-6.69,1.81-10.21,1.81s-7.964-.48-10.2-1.81v2.13C996.336,1976.76,996.748,1977.34,998.631,1977.91Zm7.909-7.58a30.244,30.244,0,0,0-7.519.85c-1.845.51-2.685,1.11-2.685,1.45s0.84,0.94,2.685,1.44a33.686,33.686,0,0,0,15.039,0c1.84-.5,2.69-1.1,2.69-1.44s-0.85-.94-2.69-1.45A30.258,30.258,0,0,0,1006.54,1970.33Zm14.19,13.25a0.483,0.483,0,0,0-.7,0l-3.67,3.66-0.57-.58a0.5,0.5,0,0,0-.7.01,0.489,0.489,0,0,0,0,.69l0.92,0.93a0.5,0.5,0,0,0,.7,0l4.02-4.02A0.489,0.489,0,0,0,1020.73,1983.58Z" transform="translate(-995 -1969)"/>
</svg>
