<svg xmlns="http://www.w3.org/2000/svg" width="30" height="30" viewBox="0 0 30 30">
  <metadata><?xpacket begin="﻿" id="W5M0MpCehiHzreSzNTczkc9d"?>
<x:xmpmeta xmlns:x="adobe:ns:meta/" x:xmptk="Adobe XMP Core 5.6-c138 79.159824, 2016/09/14-01:09:01        ">
   <rdf:RDF xmlns:rdf="http://www.w3.org/1999/02/22-rdf-syntax-ns#">
      <rdf:Description rdf:about=""/>
   </rdf:RDF>
</x:xmpmeta>
                                                                                                    
                                                                                                    
                                                                                                    
                                                                                                    
                                                                                                    
                                                                                                    
                                                                                                    
                                                                                                    
                                                                                                    
                                                                                                    
                                                                                                    
                                                                                                    
                                                                                                    
                                                                                                    
                                                                                                    
                                                                                                    
                                                                                                    
                                                                                                    
                                                                                                    
                                                                                                    
                           
<?xpacket end="w"?></metadata>
<defs>
    <style>
      .cls-1 {
        fill: #c1c1c1;
        fill-rule: evenodd;
      }
    </style>
  </defs>
  <path id="icon" data-name="Forma 1" class="cls-1" d="M1279,1771a15,15,0,1,0,15-15A15,15,0,0,0,1279,1771Zm1.16,0a13.883,13.883,0,0,1,1.19-5.63l6.61,18.09A13.836,13.836,0,0,1,1280.16,1771Zm13.84,13.84a14,14,0,0,1-3.91-.56l4.15-12.07,4.26,11.66a1.14,1.14,0,0,0,.1.19A13.756,13.756,0,0,1,1294,1784.84Zm11.19-14.1a13.061,13.061,0,0,0,1.05-4.96,10.493,10.493,0,0,0-.09-1.42,13.852,13.852,0,0,1-5.19,18.6Zm-2.99-4.26a7.264,7.264,0,0,1,1.15,3.82,12.972,12.972,0,0,1-1.06,4.48l-1.38,4.61-5-14.88c0.83-.05,1.58-0.13,1.58-0.13a0.572,0.572,0,0,0-.09-1.14s-2.24.17-3.69,0.17c-1.36,0-3.64-.17-3.64-0.17a0.572,0.572,0,0,0-.09,1.14s0.71,0.08,1.45.13l2.16,5.91-3.03,9.08-5.04-14.99c0.83-.05,1.58-0.13,1.58-0.13a0.572,0.572,0,0,0-.09-1.14s-2.24.17-3.69,0.17c-0.26,0-.56,0-0.89-0.01a13.851,13.851,0,0,1,20.92-2.61c-0.06,0-.12-0.01-0.18-0.01a2.4,2.4,0,0,0-2.33,2.46A6.477,6.477,0,0,0,1302.2,1766.48Z" transform="translate(-1279 -1756)"/>
</svg>
