<svg xmlns="http://www.w3.org/2000/svg" width="39" height="40" viewBox="0 0 39 40">
  <metadata><?xpacket begin="﻿" id="W5M0MpCehiHzreSzNTczkc9d"?>
<x:xmpmeta xmlns:x="adobe:ns:meta/" x:xmptk="Adobe XMP Core 5.6-c138 79.159824, 2016/09/14-01:09:01        ">
   <rdf:RDF xmlns:rdf="http://www.w3.org/1999/02/22-rdf-syntax-ns#">
      <rdf:Description rdf:about=""/>
   </rdf:RDF>
</x:xmpmeta>
                                                                                                    
                                                                                                    
                                                                                                    
                                                                                                    
                                                                                                    
                                                                                                    
                                                                                                    
                                                                                                    
                                                                                                    
                                                                                                    
                                                                                                    
                                                                                                    
                                                                                                    
                                                                                                    
                                                                                                    
                                                                                                    
                                                                                                    
                                                                                                    
                                                                                                    
                                                                                                    
                           
<?xpacket end="w"?></metadata>
<defs>
    <style>
      .cls-1 {
        fill-rule: evenodd;
      }
    </style>
  </defs>
  <path id="icon" class="cls-1" d="M1409.19,2188h-33.38a2.858,2.858,0,0,0-2.81,2.9v0.46a2.883,2.883,0,0,0,2.06,2.79v24.51a1,1,0,0,0,.98,1.01h15.48v2.08a3.209,3.209,0,0,0-2.13,3.05,3.111,3.111,0,1,0,6.22,0,3.209,3.209,0,0,0-2.13-3.05v-2.08h15.48a1,1,0,0,0,.98-1.01v-24.51a2.883,2.883,0,0,0,2.06-2.79v-0.46A2.858,2.858,0,0,0,1409.19,2188Zm-15.54,36.8a1.151,1.151,0,1,1-1.15-1.19A1.17,1.17,0,0,1,1393.65,2224.8Zm16.39-33.44a0.876,0.876,0,0,1-.85.88h-4.75a1,1,0,0,0-.98,1.01h0a1,1,0,0,0,.98,1.01h3.54v23.39h-30.96v-23.39h19.38a1,1,0,0,0,.98-1.01h0a1,1,0,0,0-.98-1.01h-20.59a0.876,0.876,0,0,1-.85-0.88v-0.46a0.869,0.869,0,0,1,.85-0.88h33.38a0.869,0.869,0,0,1,.85.88v0.46Zm-30.33,23.93a0.987,0.987,0,0,0,.7-0.3l3.76-3.87,3.63,1.87a0.962,0.962,0,0,0,1.25-.35l3.72-5.74,5.58,3.83a0.973,0.973,0,0,0,.81.13,0.985,0.985,0,0,0,.63-0.55l3.83-8.68,0.77,1.77a0.989,0.989,0,0,0,.9.59,0.833,0.833,0,0,0,.4-0.09,1.009,1.009,0,0,0,.49-1.33l-1.77-4.07a1,1,0,0,0-.54-0.53,0.977,0.977,0,0,0-.75.03l-3.95,1.82a1.013,1.013,0,0,0-.5,1.33,0.976,0.976,0,0,0,1.3.51l1.87-.86-3.36,7.59-5.44-3.73a0.946,0.946,0,0,0-.73-0.15,1,1,0,0,0-.63.43l-3.78,5.84-3.49-1.8a0.977,0.977,0,0,0-1.13.19l-4.26,4.39a1.02,1.02,0,0,0,0,1.43A0.948,0.948,0,0,0,1379.71,2215.29Zm21.34-21.33a0.973,0.973,0,0,0,.29-0.71,1.007,1.007,0,0,0-.29-0.71,0.944,0.944,0,0,0-.69-0.29,0.961,0.961,0,0,0-.69.29,1.042,1.042,0,0,0-.28.71,1.006,1.006,0,0,0,.28.71,0.971,0.971,0,0,0,.69.3A0.954,0.954,0,0,0,1401.05,2193.96Z" transform="translate(-1373 -2188)"/>
</svg>
