<svg xmlns="http://www.w3.org/2000/svg" width="30" height="30" viewBox="0 0 30 30">
  <metadata><?xpacket begin="﻿" id="W5M0MpCehiHzreSzNTczkc9d"?>
<x:xmpmeta xmlns:x="adobe:ns:meta/" x:xmptk="Adobe XMP Core 5.6-c138 79.159824, 2016/09/14-01:09:01        ">
   <rdf:RDF xmlns:rdf="http://www.w3.org/1999/02/22-rdf-syntax-ns#">
      <rdf:Description rdf:about=""/>
   </rdf:RDF>
</x:xmpmeta>
                                                                                                    
                                                                                                    
                                                                                                    
                                                                                                    
                                                                                                    
                                                                                                    
                                                                                                    
                                                                                                    
                                                                                                    
                                                                                                    
                                                                                                    
                                                                                                    
                                                                                                    
                                                                                                    
                                                                                                    
                                                                                                    
                                                                                                    
                                                                                                    
                                                                                                    
                                                                                                    
                           
<?xpacket end="w"?></metadata>
<defs>
    <style>
      .cls-1 {
        fill: #c1c1c1;
        fill-rule: evenodd;
      }
    </style>
  </defs>
  <path id="icon" class="cls-1" d="M1008.23,1787v-0.03l-0.23-.01a15.032,15.032,0,0,1-13.973-13.97l-0.015-.22H994v-1.54h0.015l0.015-.23a15.049,15.049,0,0,1,13.983-13.97l0.22-.02V1757h1.54v0.01l0.23,0.02a15.022,15.022,0,0,1,13.96,13.97l0.02,0.23H1024v1.54h-0.02l-0.02.22a15.006,15.006,0,0,1-13.96,13.97l-0.23.01V1787h-1.54Zm1.54-1.6,0.3-.09c2.13-.56,4.01-2.79,5.16-6.12l0.11-.32h-5.57v6.53Zm-7-6.21c1.15,3.33,3.03,5.56,5.16,6.12l0.3,0.09v-6.53h-5.57Zm-5.114.06a13.435,13.435,0,0,0,5.544,4.89l0.3-.37a15.631,15.631,0,0,1-2.37-4.73l-0.05-.17h-3.666Zm19.214-.21a15.884,15.884,0,0,1-2.37,4.73l0.3,0.37a13.369,13.369,0,0,0,5.54-4.89l0.25-.38h-3.67Zm1.02-6.04a24,24,0,0,1-.5,4.03l-0.07.29h4.04l0.07-.15a13.471,13.471,0,0,0,.99-4.14l0.02-.26h-4.54Zm-8.12,4.32h6l0.04-.19a22.634,22.634,0,0,0,.53-4.11l0.01-.25h-6.58v4.55Zm-8.11-4.3a22.634,22.634,0,0,0,.53,4.11l0.04,0.19h6v-4.55h-6.58Zm-6.078.01a13.416,13.416,0,0,0,.991,4.14l0.063,0.15h4.044l-0.07-.29a24.127,24.127,0,0,1-.5-4.03l-0.01-.23h-4.538Zm21.808-6.06a24,24,0,0,1,.5,4.03l0.01,0.23h4.54l-0.02-.26a13.6,13.6,0,0,0-.99-4.15l-0.07-.15h-4.04Zm-7.62,4.26h6.58l-0.01-.25a24.217,24.217,0,0,0-.53-4.12l-0.04-.19h-6v4.56Zm-7.58-4.37a22.745,22.745,0,0,0-.53,4.12l-0.01.25h6.58v-4.56h-6Zm-5.617-.04a13.545,13.545,0,0,0-.991,4.15l-0.02.26h4.538l0.01-.23a24,24,0,0,1,.5-4.03l0.07-.3h-4.044Zm17.927-6.59a15.631,15.631,0,0,1,2.37,4.73l0.05,0.17h3.67l-0.25-.38a13.369,13.369,0,0,0-5.54-4.89Zm-4.73,4.9h5.57l-0.11-.33c-1.15-3.32-3.03-5.55-5.16-6.12l-0.3-.08v6.53Zm-1.84-6.45c-2.13.57-4.01,2.8-5.16,6.12l-0.11.33h5.57v-6.53Zm-4.73,1.18a13.435,13.435,0,0,0-5.544,4.89l-0.242.38h3.676l0.05-.17a15.633,15.633,0,0,1,2.36-4.73Z" transform="translate(-994 -1757)"/>
</svg>
