<svg xmlns="http://www.w3.org/2000/svg" width="110" height="72" viewBox="0 0 110 72">
  <metadata><?xpacket begin="﻿" id="W5M0MpCehiHzreSzNTczkc9d"?>
<x:xmpmeta xmlns:x="adobe:ns:meta/" x:xmptk="Adobe XMP Core 5.6-c138 79.159824, 2016/09/14-01:09:01        ">
   <rdf:RDF xmlns:rdf="http://www.w3.org/1999/02/22-rdf-syntax-ns#">
      <rdf:Description rdf:about=""/>
   </rdf:RDF>
</x:xmpmeta>
                                                                                                    
                                                                                                    
                                                                                                    
                                                                                                    
                                                                                                    
                                                                                                    
                                                                                                    
                                                                                                    
                                                                                                    
                                                                                                    
                                                                                                    
                                                                                                    
                                                                                                    
                                                                                                    
                                                                                                    
                                                                                                    
                                                                                                    
                                                                                                    
                                                                                                    
                                                                                                    
                           
<?xpacket end="w"?></metadata>
<defs>
    <style>
      .cls-1 {
        fill: #fff;
        fill-rule: evenodd;
        opacity: 0.1;
      }
    </style>
  </defs>
  <path id="icon" class="cls-1" d="M999.026,6712.55a13.541,13.541,0,0,0,4.584-10.17,13.1,13.1,0,1,0-26.184,0,13.51,13.51,0,0,0,4.579,10.17,22.066,22.066,0,0,0-5.941,3.68,28.16,28.16,0,0,0-8.486-4.9,17.045,17.045,0,0,0,6.715-13.55,16.4,16.4,0,1,0-32.8,0,17.034,17.034,0,0,0,6.716,13.56,28.445,28.445,0,0,0-8.383,4.83,22.138,22.138,0,0,0-5.853-3.6,13.559,13.559,0,0,0,4.58-10.17,13.094,13.094,0,1,0-26.182,0,13.513,13.513,0,0,0,4.578,10.17A22.994,22.994,0,0,0,903,6733.84v1.45a0.792,0.792,0,0,0,.776.79h25.511c-0.1,1.02-.153,2.03-0.153,3.01v1.5A12.285,12.285,0,0,0,941.258,6753H974.57a12.285,12.285,0,0,0,12.124-12.41v-1.5c0-.98-0.051-1.99-0.153-3.01h25.679a0.8,0.8,0,0,0,.78-0.79v-1.46A23.118,23.118,0,0,0,999.026,6712.55Zm-91.071,18.58a17.75,17.75,0,0,1,17.316-15.37h0.251a17.253,17.253,0,0,1,10.72,3.84,29.8,29.8,0,0,0-6.108,11.53H907.955Zm17.614-20.3h-0.332A8.268,8.268,0,1,1,925.569,6710.83Zm8.341,29.76v-1.5c0-13.12,10.409-24.12,23.211-24.52,0.255,0.02.517,0.02,0.75,0.02s0.5,0,.75-0.02c12.8,0.4,23.211,11.4,23.211,24.52v1.5a7.405,7.405,0,0,1-7.3,7.48H941.215A7.405,7.405,0,0,1,933.91,6740.59Zm23.939-54.66a11.867,11.867,0,0,1,.69,23.69H957.16A11.867,11.867,0,0,1,957.849,6685.93Zm27.759,45.2a29.958,29.958,0,0,0-6.049-11.45,17.4,17.4,0,0,1,10.833-3.92h0.25a17.755,17.755,0,0,1,17.318,15.37H985.608Zm5.081-20.3h-0.332A8.268,8.268,0,1,1,990.689,6710.83Z" transform="translate(-903 -6681)"/>
</svg>
