<svg xmlns="http://www.w3.org/2000/svg" width="29.939" height="29.938" viewBox="0 0 30.938 30.937">
  <metadata><?xpacket begin="﻿" id="W5M0MpCehiHzreSzNTczkc9d"?>
<x:xmpmeta xmlns:x="adobe:ns:meta/" x:xmptk="Adobe XMP Core 5.6-c138 79.159824, 2016/09/14-01:09:01        ">
   <rdf:RDF xmlns:rdf="http://www.w3.org/1999/02/22-rdf-syntax-ns#">
      <rdf:Description rdf:about=""/>
   </rdf:RDF>
</x:xmpmeta>
                                                                                                    
                                                                                                    
                                                                                                    
                                                                                                    
                                                                                                    
                                                                                                    
                                                                                                    
                                                                                                    
                                                                                                    
                                                                                                    
                                                                                                    
                                                                                                    
                                                                                                    
                                                                                                    
                                                                                                    
                                                                                                    
                                                                                                    
                                                                                                    
                                                                                                    
                                                                                                    
                           
<?xpacket end="w"?></metadata>
<defs>
    <style>
      .cls-1 {
        fill: #fff;
        fill-rule: evenodd;
      }
    </style>
  </defs>
  <path id="icon" class="cls-1" d="M971.257,247.087a3.626,3.626,0,0,0-.014,7.252l5.134,0.01c0.021,0,.041,0,0.061,0s0.04,0,.06,0a1.208,1.208,0,0,0,1.211-1.206l0.018-9.488a4.833,4.833,0,0,0-2-3.919l-4.1-6.753a1.209,1.209,0,0,0-1.668-.4l-3.035,1.875-1.362-2.317a1.207,1.207,0,0,0-1.667-.421l-11.652,7.053-1.819,0a1.179,1.179,0,1,1,0-2.357l2.235,0a1.209,1.209,0,0,0,0-2.417l-2.235,0a3.63,3.63,0,0,0-3.531,2.778,1.21,1.21,0,0,0-.1.478v0.362l-0.039,20a4.839,4.839,0,0,0,4.823,4.844l21.264,0.042a4.827,4.827,0,0,0,4.591-3.295,1.208,1.208,0,1,0-2.291-.77,2.413,2.413,0,0,1-2.3,1.647l-21.263-.041a2.42,2.42,0,0,1-2.412-2.422l0.033-16.645a3.6,3.6,0,0,0,1.207.21l22.472,0.044a2.42,2.42,0,0,1,2.412,2.422L975.3,247.1Zm-1.216,3.624a1.21,1.21,0,0,1,1.211-1.206l4.047,0.008,0,2.417-4.048-.008A1.21,1.21,0,0,1,970.041,250.711Zm0.16-15.433,2.143,3.532-2.854,0-1.332-2.265Zm-6.093-.858,1.282,2.18a1.246,1.246,0,0,0,.088.175,1.294,1.294,0,0,0,.085.12l1.12,1.9-9.78-.019Z" transform="translate(-946.781 -231.563)"/>
</svg>
