<svg xmlns="http://www.w3.org/2000/svg" width="30.175" height="25.986" viewBox="0 0 32.187 27.718">
  <metadata><?xpacket begin="﻿" id="W5M0MpCehiHzreSzNTczkc9d"?>
<x:xmpmeta xmlns:x="adobe:ns:meta/" x:xmptk="Adobe XMP Core 5.6-c138 79.159824, 2016/09/14-01:09:01        ">
   <rdf:RDF xmlns:rdf="http://www.w3.org/1999/02/22-rdf-syntax-ns#">
      <rdf:Description rdf:about=""/>
   </rdf:RDF>
</x:xmpmeta>
                                                                                                    
                                                                                                    
                                                                                                    
                                                                                                    
                                                                                                    
                                                                                                    
                                                                                                    
                                                                                                    
                                                                                                    
                                                                                                    
                                                                                                    
                                                                                                    
                                                                                                    
                                                                                                    
                                                                                                    
                                                                                                    
                                                                                                    
                                                                                                    
                                                                                                    
                                                                                                    
                           
<?xpacket end="w"?></metadata>
<defs>
    <style>
      .cls-1 {
        fill: #fff;
        fill-rule: evenodd;
      }
    </style>
  </defs>
  <path id="icon" class="cls-1" d="M952.134,547.864c-0.106-.025-0.211-0.054-0.314-0.087a3.318,3.318,0,0,1-2.277-2.275c-0.83-3.266-2.765-11.044-3.4-13.6l-0.03-.121a1.762,1.762,0,0,0-1.2-1.254c-0.05-.016-0.1-0.03-0.151-0.042a1.919,1.919,0,0,0-.466-0.051l-2.486.027a0.552,0.552,0,0,1-.142-0.015l-0.042-.011a0.341,0.341,0,0,1-.26-0.268l-0.022-1.3a0.245,0.245,0,0,1,.09-0.179,0.513,0.513,0,0,1,.345-0.131l4.822-.056a1.716,1.716,0,0,1,.407.044c0.043,0.01.085,0.022,0.128,0.035a1.3,1.3,0,0,1,.9.876l3.639,14.254a2.757,2.757,0,0,0,1.834,1.834c0.076,0.024.153,0.046,0.229,0.064a2.721,2.721,0,0,0,.669.072l12.138-.212A2.8,2.8,0,0,0,969.2,543.4l1.89-8.253a0.352,0.352,0,0,1,.167-0.195,0.571,0.571,0,0,1,.392-0.06l1.589,0.322a0.3,0.3,0,0,1,.043.012,0.438,0.438,0,0,1,.222.153,0.2,0.2,0,0,1,.031.17l-2.493,9.67a3.553,3.553,0,0,1-3.486,2.5l-14.414.251A4.086,4.086,0,0,1,952.134,547.864Zm12.517,6.47c-0.052-.012-0.1-0.026-0.152-0.042a2.133,2.133,0,0,1-1.416-2.035,2,2,0,0,1,1.991-2.1,2.237,2.237,0,0,1,.555.058c0.058,0.014.115,0.029,0.172,0.048a2.032,2.032,0,0,1,1.431,1.922,2.149,2.149,0,0,1-2.087,2.2A2.022,2.022,0,0,1,964.651,554.334Zm-7.27.027c-0.051-.012-0.1-0.026-0.152-0.043a2.13,2.13,0,0,1-1.416-2.034,2.091,2.091,0,0,1,.551-1.488,2.008,2.008,0,0,1,1.44-.612,2.28,2.28,0,0,1,.555.058c0.058,0.014.116,0.03,0.172,0.048a2.032,2.032,0,0,1,1.431,1.922,2.174,2.174,0,0,1-.6,1.541,2.093,2.093,0,0,1-1.489.659A2.032,2.032,0,0,1,957.381,554.361Zm7.218-19.383a3.4,3.4,0,0,0-1.381-1.25,0.258,0.258,0,0,0-.347.124,0.268,0.268,0,0,0,.121.354,2.934,2.934,0,0,1,1.618,2.63,2.965,2.965,0,0,1-.334,1.366,0.266,0.266,0,0,0,.107.358,0.263,0.263,0,0,0,.121.032,0.26,0.26,0,0,0,.23-0.141A3.5,3.5,0,0,0,964.6,534.978Zm-2.437.73a0.641,0.641,0,0,1,.675.6,0.308,0.308,0,1,0,.615,0,1.24,1.24,0,0,0-.982-1.19v-0.163a0.308,0.308,0,1,0-.615,0v0.163a1.24,1.24,0,0,0-.985,1.187,1.26,1.26,0,0,0,1.289,1.226,0.6,0.6,0,1,1-.677.6,0.308,0.308,0,1,0-.615,0,1.243,1.243,0,0,0,.983,1.19v0.135a0.308,0.308,0,1,0,.615,0v-0.136a1.24,1.24,0,0,0,.985-1.187,1.26,1.26,0,0,0-1.29-1.225A0.6,0.6,0,1,1,962.162,535.708Zm0.465-1.92h0.019a0.314,0.314,0,0,0,0-.627h-0.021A0.314,0.314,0,0,0,962.627,533.788Zm-1.933,6.555a3.476,3.476,0,0,1-1.915-3.112,3.519,3.519,0,0,1,.4-1.617,0.316,0.316,0,0,0-.126-0.424,0.306,0.306,0,0,0-.416.129,4.147,4.147,0,0,0,.159,4.11,4.038,4.038,0,0,0,1.635,1.479,0.3,0.3,0,0,0,.133.031,0.309,0.309,0,0,0,.278-0.178A0.316,0.316,0,0,0,960.694,540.343Zm1,0.34h-0.018a0.313,0.313,0,0,0,0,.626h0.02A0.314,0.314,0,0,0,961.7,540.683Zm1.868-8.581a1.425,1.425,0,0,0-.137-0.256h0.8a1.442,1.442,0,0,0,0-2.884l-2.462,0a1.459,1.459,0,0,0,.25-0.815,1.43,1.43,0,0,0-1.413-1.443l-7.533-.01a1.442,1.442,0,0,0,0,2.884l2.462,0a1.463,1.463,0,0,0,0,1.63h-0.8a1.43,1.43,0,0,0-1.416,1.44,1.457,1.457,0,0,1,0,2.257,1.457,1.457,0,0,1,0,2.256,1.457,1.457,0,0,1,0,2.257,1.43,1.43,0,0,0,1.412,1.444l3.624,0a5.168,5.168,0,0,0,3.815,1.7A5.342,5.342,0,0,0,963.564,532.1Zm-11.292-3.969a0.809,0.809,0,0,1,.8-0.814l7.532,0.009a0.815,0.815,0,0,1,0,1.63l-7.532-.009A0.81,0.81,0,0,1,952.272,528.133Zm3.626,2.261a0.808,0.808,0,0,1,.8-0.814l7.532,0.01a0.815,0.815,0,0,1,0,1.63l-1.968,0-5.565-.007A0.807,0.807,0,0,1,955.9,530.394Zm-1.971,2.255a0.808,0.808,0,0,1,.8-0.814l7.533,0.009a0.8,0.8,0,0,1,.349.082c-0.146-.012-0.293-0.019-0.441-0.019a5.161,5.161,0,0,0-3.7,1.562l-3.742,0A0.809,0.809,0,0,1,953.927,532.649Zm0,2.256a0.809,0.809,0,0,1,.8-0.814l3.216,0a5.359,5.359,0,0,0-.792,1.629l-2.426,0A0.808,0.808,0,0,1,953.924,534.905Zm0,2.257a0.808,0.808,0,0,1,.8-0.814l2.285,0a5.383,5.383,0,0,0-.021,1.63l-2.266,0A0.807,0.807,0,0,1,953.922,537.162Zm0.795,3.073a0.815,0.815,0,0,1,0-1.63l2.392,0a5.341,5.341,0,0,0,.735,1.631Zm7.439,1.7a4.7,4.7,0,1,1,4.617-4.7A4.664,4.664,0,0,1,962.156,541.937Z" transform="translate(-941.344 -526.688)"/>
</svg>
