<svg xmlns="http://www.w3.org/2000/svg" width="29.997" height="22.498" viewBox="0 0 33 24.75">
  <metadata><?xpacket begin="﻿" id="W5M0MpCehiHzreSzNTczkc9d"?>
<x:xmpmeta xmlns:x="adobe:ns:meta/" x:xmptk="Adobe XMP Core 5.6-c138 79.159824, 2016/09/14-01:09:01        ">
   <rdf:RDF xmlns:rdf="http://www.w3.org/1999/02/22-rdf-syntax-ns#">
      <rdf:Description rdf:about=""/>
   </rdf:RDF>
</x:xmpmeta>
                                                                                                    
                                                                                                    
                                                                                                    
                                                                                                    
                                                                                                    
                                                                                                    
                                                                                                    
                                                                                                    
                                                                                                    
                                                                                                    
                                                                                                    
                                                                                                    
                                                                                                    
                                                                                                    
                                                                                                    
                                                                                                    
                                                                                                    
                                                                                                    
                                                                                                    
                                                                                                    
                           
<?xpacket end="w"?></metadata>
<defs>
    <style>
      .cls-1 {
        fill: #fff;
        fill-rule: evenodd;
      }
    </style>
  </defs>
  <path id="icon" class="cls-1" d="M979.4,403.144v-19.16a2.783,2.783,0,0,0-1.723-2.586,2.713,2.713,0,0,0-1.035-.2H949.173a2.778,2.778,0,0,0-2.759,2.79v19.159a2.778,2.778,0,0,0,1.722,2.583h0a2.7,2.7,0,0,0,1.036.205h27.466a2.726,2.726,0,0,0,1.95-.817A2.786,2.786,0,0,0,979.4,403.144Zm-30.475.628a0.674,0.674,0,0,1-.419-0.628V383.985a0.679,0.679,0,0,1,.2-0.479,0.662,0.662,0,0,1,.473-0.2h27.466a0.653,0.653,0,0,1,.251.049,0.675,0.675,0,0,1,.418.627v19.16a0.674,0.674,0,0,1-.669.678H949.173A0.645,0.645,0,0,1,948.923,403.772Zm7.206-5.9a0.68,0.68,0,0,0-.68-0.687h-4.793a0.688,0.688,0,0,0-.255,1.324,0.674,0.674,0,0,0,.255.05h4.793A0.684,0.684,0,0,0,956.129,397.873Zm6.724,0.486a0.691,0.691,0,0,0-.225-1.123,0.674,0.674,0,0,0-.255-0.05h-4.794a0.669,0.669,0,0,0-.48.2,0.691,0.691,0,0,0,.225,1.123,0.674,0.674,0,0,0,.255.05h4.794A0.669,0.669,0,0,0,962.853,398.359Zm-11.412,1.571a0.655,0.655,0,0,0-.255-0.05h-0.53a0.669,0.669,0,0,0-.48.2,0.691,0.691,0,0,0,.225,1.122,0.656,0.656,0,0,0,.255.051h0.53a0.67,0.67,0,0,0,.48-0.2A0.691,0.691,0,0,0,951.441,399.93Zm3.2,0a0.675,0.675,0,0,0-.255-0.051h-1.064a0.689,0.689,0,0,0-.255,1.325,0.674,0.674,0,0,0,.255.05h1.064A0.688,0.688,0,0,0,954.638,399.93Zm2.663,0a0.675,0.675,0,0,0-.255-0.051h-0.533a0.689,0.689,0,0,0-.253,1.325,0.66,0.66,0,0,0,.253.05h0.533a0.67,0.67,0,0,0,.48-0.2A0.691,0.691,0,0,0,957.3,399.93Zm3.2,0a0.656,0.656,0,0,0-.255-0.051h-1.067a0.664,0.664,0,0,0-.478.2,0.693,0.693,0,0,0,.225,1.123,0.667,0.667,0,0,0,.253.05h1.067a0.67,0.67,0,0,0,.48-0.2A0.691,0.691,0,0,0,960.5,399.93Zm2.367,0.16-0.015-.015a0.641,0.641,0,0,0-.206-0.133,0.717,0.717,0,0,0-.275-0.054,0.661,0.661,0,0,0-.479.2,0.691,0.691,0,0,0,0,.964l0.006,0.006a0.693,0.693,0,0,0,.225.15,0.658,0.658,0,0,0,.254.051,0.705,0.705,0,0,0,.478-0.2l0.006,0,0.006-.007A0.7,0.7,0,0,0,962.865,400.09Zm11.083-4.772a3.816,3.816,0,0,0-3.249.165l-0.068.036-0.068-.036c-0.112-.06-0.229-0.114-0.346-0.163a3.828,3.828,0,0,0-4.191.861,3.938,3.938,0,0,0,1.284,6.4,3.825,3.825,0,0,0,3.253-.165l0.068-.036,0.068,0.036a3.554,3.554,0,0,0,.348.164,3.775,3.775,0,0,0,1.446.287A3.925,3.925,0,0,0,973.948,395.318Zm-1.309,3.634a3.922,3.922,0,0,0-.718-2.266l-0.13-.185,0.22-.045a2.376,2.376,0,0,1,.482-0.05,2.459,2.459,0,0,1,.944.186,2.55,2.55,0,0,1-.944,4.905,2.3,2.3,0,0,1-.484-0.052l-0.219-.046,0.13-.184A3.911,3.911,0,0,0,972.639,398.952Zm-4.817,2.36a2.56,2.56,0,0,1-.835-4.16,2.487,2.487,0,0,1,1.779-.746,2.391,2.391,0,0,1,.482.05l0.22,0.045-0.13.185a3.928,3.928,0,0,0,0,4.529l0.129,0.184-0.218.046a2.3,2.3,0,0,1-.484.052A2.477,2.477,0,0,1,967.822,401.312Zm2.694-3.931,0.115-.147,0.114,0.147a2.558,2.558,0,0,1,0,3.139l-0.114.146-0.115-.146A2.547,2.547,0,0,1,970.516,397.381Zm-10.661-5.032v-5.113a1.359,1.359,0,0,0-.841-1.264,1.327,1.327,0,0,0-.506-0.1h-7.184a1.331,1.331,0,0,0-.953.4,1.366,1.366,0,0,0-.395.964v5.113a1.36,1.36,0,0,0,.842,1.264,1.327,1.327,0,0,0,.506.1h7.184A1.357,1.357,0,0,0,959.855,392.349Zm-3.2-.011v-0.783H958.5v0.783h-1.841Zm-3.486-.783v0.783h-1.841v-0.783h1.841Zm3.477-3.525a1.332,1.332,0,0,0-.952.4,1.359,1.359,0,0,0-.395.962v2.948h-0.774v-5.091H958.5v0.783h-1.85Zm0.009,1.371H958.5v0.783h-1.841V389.4Zm-3.486-2.154v0.783h-1.841v-0.783h1.841Zm0,2.154v0.783h-1.841V389.4h1.841Z" transform="translate(-946.406 -381.188)"/>
</svg>
