<svg xmlns="http://www.w3.org/2000/svg" width="60" height="60" viewBox="0 0 60 60">
  <metadata><?xpacket begin="﻿" id="W5M0MpCehiHzreSzNTczkc9d"?>
<x:xmpmeta xmlns:x="adobe:ns:meta/" x:xmptk="Adobe XMP Core 5.6-c138 79.159824, 2016/09/14-01:09:01        ">
   <rdf:RDF xmlns:rdf="http://www.w3.org/1999/02/22-rdf-syntax-ns#">
      <rdf:Description rdf:about=""/>
   </rdf:RDF>
</x:xmpmeta>
                                                                                                    
                                                                                                    
                                                                                                    
                                                                                                    
                                                                                                    
                                                                                                    
                                                                                                    
                                                                                                    
                                                                                                    
                                                                                                    
                                                                                                    
                                                                                                    
                                                                                                    
                                                                                                    
                                                                                                    
                                                                                                    
                                                                                                    
                                                                                                    
                                                                                                    
                                                                                                    
                           
<?xpacket end="w"?></metadata>
<defs>
    <style>
      .cls-1 {
        fill: #fff;
        fill-rule: evenodd;
        opacity: 0.1;
      }
    </style>
  </defs>
  <path id="icon" class="cls-1" d="M988.93,3047.37h-0.989v-15.55h0.989a2.073,2.073,0,0,0,2.069-2.07v-5.5a2.073,2.073,0,0,0-2.069-2.07h-0.989v-15.55h0.989a2.073,2.073,0,0,0,2.069-2.07v-5.49a2.073,2.073,0,0,0-2.069-2.07h-5.494a2.074,2.074,0,0,0-2.07,2.07v0.99h-15.43v-0.99a2.074,2.074,0,0,0-2.07-2.07h-5.493a2.073,2.073,0,0,0-2.07,2.07v0.99h-15.67v-0.99a2.073,2.073,0,0,0-2.07-2.07H933.07a2.073,2.073,0,0,0-2.07,2.07v5.49a2.073,2.073,0,0,0,2.07,2.07h0.988v15.55H933.07a2.074,2.074,0,0,0-2.07,2.07v5.5a2.065,2.065,0,0,0,2.07,2.06h0.988v15.56H933.07a2.067,2.067,0,0,0-2.07,2.07v5.49a2.074,2.074,0,0,0,2.07,2.07h5.493a2.073,2.073,0,0,0,2.07-2.07v-0.99H956.3v0.99a2.074,2.074,0,0,0,2.07,2.07h5.494a2.074,2.074,0,0,0,2.07-2.07v-0.99h15.431v0.99a2.073,2.073,0,0,0,2.069,2.07h5.494a2.074,2.074,0,0,0,2.07-2.07v-5.49A2.067,2.067,0,0,0,988.93,3047.37Zm-4.506-25.19h-0.988a2.074,2.074,0,0,0-2.07,2.07v5.5a2.065,2.065,0,0,0,2.07,2.06h0.988v15.56h-0.988a2.066,2.066,0,0,0-2.069,2.07v0.98H965.936v-0.98a2.067,2.067,0,0,0-2.07-2.07h-5.493a2.066,2.066,0,0,0-2.07,2.07v0.98h-15.67v-0.98a2.066,2.066,0,0,0-2.07-2.07h-0.988v-15.55h0.989a2.074,2.074,0,0,0,2.07-2.07v-5.5a2.074,2.074,0,0,0-2.07-2.07h-0.989v-15.55h0.988a2.073,2.073,0,0,0,2.07-2.07v-0.99H956.3v0.99a2.074,2.074,0,0,0,2.07,2.07h5.494a2.074,2.074,0,0,0,2.07-2.07v-0.99h15.43v0.99a2.074,2.074,0,0,0,2.07,2.07h0.988v15.55h0Zm-20.558,0h-5.493a2.073,2.073,0,0,0-2.07,2.07v5.5a2.073,2.073,0,0,0,2.07,2.07h5.493a2.074,2.074,0,0,0,2.07-2.07v-5.5A2.074,2.074,0,0,0,963.866,3022.18Z" transform="translate(-931 -2997)"/>
</svg>
