<svg xmlns="http://www.w3.org/2000/svg" width="45.656" height="71.47" viewBox="0 0 45.656 71.47">
  <metadata><?xpacket begin="﻿" id="W5M0MpCehiHzreSzNTczkc9d"?>
<x:xmpmeta xmlns:x="adobe:ns:meta/" x:xmptk="Adobe XMP Core 5.6-c138 79.159824, 2016/09/14-01:09:01        ">
   <rdf:RDF xmlns:rdf="http://www.w3.org/1999/02/22-rdf-syntax-ns#">
      <rdf:Description rdf:about=""/>
   </rdf:RDF>
</x:xmpmeta>
                                                                                                    
                                                                                                    
                                                                                                    
                                                                                                    
                                                                                                    
                                                                                                    
                                                                                                    
                                                                                                    
                                                                                                    
                                                                                                    
                                                                                                    
                                                                                                    
                                                                                                    
                                                                                                    
                                                                                                    
                                                                                                    
                                                                                                    
                                                                                                    
                                                                                                    
                                                                                                    
                           
<?xpacket end="w"?></metadata>
<defs>
    <style>
      .cls-1 {
        fill: #f0f0f0;
        fill-rule: evenodd;
      }
    </style>
  </defs>
  <path id="icon" class="cls-1" d="M968.006,5658.69a22.61,22.61,0,0,0-10.2,44.05c-0.232,2.22-1.573,8.11-8.973,15.19a1.578,1.578,0,0,0-.216,2.03c1.886,2.79,3.046,4.54,3.859,5.77,1.063,1.6,1.548,2.34,2.277,3.31a1.644,1.644,0,0,0,.983.62,1.623,1.623,0,0,0,1.116-.17c11.742-6.59,26.434-22.13,29.194-44.23C987.671,5672.29,980.083,5661.11,968.006,5658.69ZM956.5,5725.97c-0.347-.51-0.739-1.1-1.319-1.98-0.7-1.06-1.669-2.52-3.138-4.7,9.1-9.21,9.3-17.03,8.944-18.23a1.672,1.672,0,0,0-1.25-1.14,19.436,19.436,0,1,1,7.647-38.11c10.37,2.08,16.874,11.77,15.466,23.04C979.739,5709.71,961.8,5722.65,956.5,5725.97Z" transform="translate(-940.625 -5658.22)"/>
</svg>
