<svg xmlns="http://www.w3.org/2000/svg" width="34.998" height="34.998" viewBox="0 0 30 30">
  <metadata><?xpacket begin="﻿" id="W5M0MpCehiHzreSzNTczkc9d"?>
<x:xmpmeta xmlns:x="adobe:ns:meta/" x:xmptk="Adobe XMP Core 5.6-c138 79.159824, 2016/09/14-01:09:01        ">
   <rdf:RDF xmlns:rdf="http://www.w3.org/1999/02/22-rdf-syntax-ns#">
      <rdf:Description rdf:about=""/>
   </rdf:RDF>
</x:xmpmeta>
                                                                                                    
                                                                                                    
                                                                                                    
                                                                                                    
                                                                                                    
                                                                                                    
                                                                                                    
                                                                                                    
                                                                                                    
                                                                                                    
                                                                                                    
                                                                                                    
                                                                                                    
                                                                                                    
                                                                                                    
                                                                                                    
                                                                                                    
                                                                                                    
                                                                                                    
                                                                                                    
                           
<?xpacket end="w"?></metadata>
<defs>
    <style>
      .cls-1 {
        fill: #c1c1c1;
        fill-rule: evenodd;
      }
    </style>
  </defs>
  <path id="icon" class="cls-1" d="M959.343,2825.38v0.69a1.749,1.749,0,0,0-1.178,1.66,1.768,1.768,0,0,0,1.767,1.77,0.587,0.587,0,0,1,.589.59c0,0.51-.674.95-1.354,0.14a0.59,0.59,0,0,0-.9.76,2.436,2.436,0,0,0,1.078.77v0.68a0.589,0.589,0,1,0,1.178,0v-0.69h0.016a1.769,1.769,0,0,0-.605-3.43,0.587,0.587,0,0,1-.589-0.59c0-.48.6-0.89,1.226-0.28a0.589,0.589,0,0,0,.833-0.01,0.6,0.6,0,0,0-.013-0.84,2.371,2.371,0,0,0-.868-0.54v-0.68A0.589,0.589,0,1,0,959.343,2825.38Zm12.141,16.92v-0.97a2.645,2.645,0,0,0-2.636-2.64H960.82v-1.92a7.8,7.8,0,0,0,4.715-2.27,7.908,7.908,0,1,0-11.187,0,7.793,7.793,0,0,0,4.714,2.27v1.92h-7.91a2.644,2.644,0,0,0-2.636,2.64v0.97a4.395,4.395,0,1,0,1.757,0v-0.97a0.884,0.884,0,0,1,.879-0.88h7.91v1.85a4.4,4.4,0,1,0,1.758,0v-1.85h8.028a0.883,0.883,0,0,1,.878.88v0.97A4.4,4.4,0,1,0,971.484,2842.3Zm-15.894-17.74a6.15,6.15,0,1,1,0,8.7A6.122,6.122,0,0,1,955.59,2824.56Zm-3.559,22.04a2.637,2.637,0,1,1-2.637-2.63A2.639,2.639,0,0,1,952.031,2846.6Zm10.547,0a2.637,2.637,0,1,1-2.637-2.63A2.639,2.639,0,0,1,962.578,2846.6Zm8.027,2.64a2.635,2.635,0,1,1,2.637-2.64A2.638,2.638,0,0,1,970.605,2849.24Z" transform="translate(-945 -2821)"/>
</svg>
