<svg xmlns="http://www.w3.org/2000/svg" width="30.332" height="34.998" viewBox="0 0 26 30">
  <metadata><?xpacket begin="﻿" id="W5M0MpCehiHzreSzNTczkc9d"?>
<x:xmpmeta xmlns:x="adobe:ns:meta/" x:xmptk="Adobe XMP Core 5.6-c138 79.159824, 2016/09/14-01:09:01        ">
   <rdf:RDF xmlns:rdf="http://www.w3.org/1999/02/22-rdf-syntax-ns#">
      <rdf:Description rdf:about=""/>
   </rdf:RDF>
</x:xmpmeta>
                                                                                                    
                                                                                                    
                                                                                                    
                                                                                                    
                                                                                                    
                                                                                                    
                                                                                                    
                                                                                                    
                                                                                                    
                                                                                                    
                                                                                                    
                                                                                                    
                                                                                                    
                                                                                                    
                                                                                                    
                                                                                                    
                                                                                                    
                                                                                                    
                                                                                                    
                                                                                                    
                           
<?xpacket end="w"?></metadata>
<defs>
    <style>
      .cls-1 {
        fill: #c1c1c1;
        fill-rule: evenodd;
      }
    </style>
  </defs>
  <path id="icon" class="cls-1" d="M1406.57,2846.91h-1.03v0.99h-10.29v-0.99h-1.03v1.98h12.35v-1.98Zm-14.93,4.09a0.634,0.634,0,0,1-.64-0.62v-5.96l2.06-22.85a0.626,0.626,0,0,1,.64-0.57h20.6a0.626,0.626,0,0,1,.64.57l2.06,22.81v6a0.634,0.634,0,0,1-.64.62h-24.72Zm24.07-1.24v-4.65h-23.42v4.65h23.42Zm-0.05-5.89-1.95-21.63h-19.42l-1.95,21.63h23.32Zm-3.42,3.53h2.06v1h-2.06v-1Zm-2.58,0h2.06v1h-2.06v-1Z" transform="translate(-1391 -2821)"/>
</svg>
