<svg xmlns="http://www.w3.org/2000/svg" width="43.802" height="35" viewBox="0 0 25.03 20">
  <metadata><?xpacket begin="﻿" id="W5M0MpCehiHzreSzNTczkc9d"?>
<x:xmpmeta xmlns:x="adobe:ns:meta/" x:xmptk="Adobe XMP Core 5.6-c138 79.159824, 2016/09/14-01:09:01        ">
   <rdf:RDF xmlns:rdf="http://www.w3.org/1999/02/22-rdf-syntax-ns#">
      <rdf:Description rdf:about=""/>
   </rdf:RDF>
</x:xmpmeta>
                                                                                                    
                                                                                                    
                                                                                                    
                                                                                                    
                                                                                                    
                                                                                                    
                                                                                                    
                                                                                                    
                                                                                                    
                                                                                                    
                                                                                                    
                                                                                                    
                                                                                                    
                                                                                                    
                                                                                                    
                                                                                                    
                                                                                                    
                                                                                                    
                                                                                                    
                                                                                                    
                           
<?xpacket end="w"?></metadata>
<defs>
    <style>
      .cls-1 {
        fill: #c1c1c1;
        fill-rule: evenodd;
      }
    </style>
  </defs>
  <path id="icon" class="cls-1" d="M1415.85,2602.96l-4.53-3.86a0.412,0.412,0,0,0-.68.32v2.79h-11.77a0.423,0.423,0,0,0-.42.42v1.32a0.423,0.423,0,0,0,.42.42h11.77v2.78a0.415,0.415,0,0,0,.68.33l4.53-3.87A0.427,0.427,0,0,0,1415.85,2602.96Zm-7.72,10.67h-11.77v-2.79a0.414,0.414,0,0,0-.68-0.32l-4.54,3.87a0.431,0.431,0,0,0,0,.64l4.54,3.87a0.412,0.412,0,0,0,.68-0.32v-2.79h11.77a0.421,0.421,0,0,0,.41-0.42v-1.32A0.421,0.421,0,0,0,1408.13,2613.63Z" transform="translate(-1391 -2599)"/>
</svg>
