<svg xmlns="http://www.w3.org/2000/svg" width="33.87" height="34.999" viewBox="0 0 30 31">
  <metadata><?xpacket begin="﻿" id="W5M0MpCehiHzreSzNTczkc9d"?>
<x:xmpmeta xmlns:x="adobe:ns:meta/" x:xmptk="Adobe XMP Core 5.6-c138 79.159824, 2016/09/14-01:09:01        ">
   <rdf:RDF xmlns:rdf="http://www.w3.org/1999/02/22-rdf-syntax-ns#">
      <rdf:Description rdf:about=""/>
   </rdf:RDF>
</x:xmpmeta>
                                                                                                    
                                                                                                    
                                                                                                    
                                                                                                    
                                                                                                    
                                                                                                    
                                                                                                    
                                                                                                    
                                                                                                    
                                                                                                    
                                                                                                    
                                                                                                    
                                                                                                    
                                                                                                    
                                                                                                    
                                                                                                    
                                                                                                    
                                                                                                    
                                                                                                    
                                                                                                    
                           
<?xpacket end="w"?></metadata>
<defs>
    <style>
      .cls-1 {
        fill: #c1c1c1;
        fill-rule: evenodd;
      }
    </style>
  </defs>
  <path id="icon" class="cls-1" d="M1192.91,2832.79v-1.2a10.7,10.7,0,0,0-2.92-7.46,10.212,10.212,0,0,0-7.48-3.13h-1.01a10.228,10.228,0,0,0-7.48,3.13,10.7,10.7,0,0,0-2.92,7.46v1.2a4.334,4.334,0,0,0-4.1,4.26v1.86a4.331,4.331,0,0,0,4.39,4.26h2.47a0.8,0.8,0,0,0,.81-0.78v-8.83a0.809,0.809,0,0,0-.81-0.79h-1.15v-1.18a8.714,8.714,0,0,1,8.78-9.03h1.02a8.708,8.708,0,0,1,8.78,9.03v1.18h-1.15a0.809,0.809,0,0,0-.81.79v8.83a0.8,0.8,0,0,0,.81.78h1.12c-0.32,4.07-3.21,5.02-4.55,5.23a2.825,2.825,0,0,0-2.69-1.89h-2.01a2.746,2.746,0,1,0,0,5.49h2.02a2.817,2.817,0,0,0,2.72-2.02,7.681,7.681,0,0,0,2.72-.91,6.85,6.85,0,0,0,3.41-5.91,4.316,4.316,0,0,0,4.12-4.26v-1.86A4.3,4.3,0,0,0,1192.91,2832.79Zm-19.84,8.81h-1.67a2.745,2.745,0,0,1-2.78-2.7v-1.86a2.745,2.745,0,0,1,2.78-2.7h1.67v7.26Zm10.96,8.84h-2.02a1.18,1.18,0,1,1,0-2.36h2.02A1.18,1.18,0,1,1,1184.03,2850.44Zm11.37-11.54a2.745,2.745,0,0,1-2.78,2.7h-1.67v-7.26h1.67a2.745,2.745,0,0,1,2.78,2.7v1.86Z" transform="translate(-1167 -2821)"/>
</svg>
