<svg xmlns="http://www.w3.org/2000/svg" width="37.5" height="35" viewBox="0 0 30 28">
  <metadata><?xpacket begin="﻿" id="W5M0MpCehiHzreSzNTczkc9d"?>
<x:xmpmeta xmlns:x="adobe:ns:meta/" x:xmptk="Adobe XMP Core 5.6-c138 79.159824, 2016/09/14-01:09:01        ">
   <rdf:RDF xmlns:rdf="http://www.w3.org/1999/02/22-rdf-syntax-ns#">
      <rdf:Description rdf:about=""/>
   </rdf:RDF>
</x:xmpmeta>
                                                                                                    
                                                                                                    
                                                                                                    
                                                                                                    
                                                                                                    
                                                                                                    
                                                                                                    
                                                                                                    
                                                                                                    
                                                                                                    
                                                                                                    
                                                                                                    
                                                                                                    
                                                                                                    
                                                                                                    
                                                                                                    
                                                                                                    
                                                                                                    
                                                                                                    
                                                                                                    
                           
<?xpacket end="w"?></metadata>
<defs>
    <style>
      .cls-1 {
        fill: #c1c1c1;
        fill-rule: evenodd;
      }
    </style>
  </defs>
  <path id="icon" class="cls-1" d="M974.723,2603.63l-14.118-12.35a0.793,0.793,0,0,0-.08-0.06,0.852,0.852,0,0,0-1.129-.02l-14.118,12.35a0.815,0.815,0,0,0-.068,1.16,0.847,0.847,0,0,0,1.178.06l2.543-2.22v14.4a2.074,2.074,0,0,0,2.1,2.05h4.455a1.947,1.947,0,0,0,1.968-1.93v-7.32a0.3,0.3,0,0,1,.3-0.29h4.5a0.3,0.3,0,0,1,.3.29v7.32a1.947,1.947,0,0,0,1.969,1.93h4.455a2.348,2.348,0,0,0,2.1-2.57v-13.81l2.542,2.23a0.847,0.847,0,0,0,1.178-.06A0.825,0.825,0,0,0,974.723,2603.63Zm-5.319,4.03v8.76a0.949,0.949,0,0,1-.431.94h-4.456a0.305,0.305,0,0,1-.3-0.3v-7.31a1.945,1.945,0,0,0-1.968-1.92h-4.5a1.945,1.945,0,0,0-1.968,1.92v7.32a0.3,0.3,0,0,1-.3.3h-4.456a0.43,0.43,0,0,1-.432-0.42v-15.87l9.367-8.18,9.447,8.26v6.5h0Z" transform="translate(-945 -2591)"/>
</svg>
