<svg xmlns="http://www.w3.org/2000/svg" width="36.165" height="34.998" viewBox="0 0 31 30">
  <metadata><?xpacket begin="﻿" id="W5M0MpCehiHzreSzNTczkc9d"?>
<x:xmpmeta xmlns:x="adobe:ns:meta/" x:xmptk="Adobe XMP Core 5.6-c138 79.159824, 2016/09/14-01:09:01        ">
   <rdf:RDF xmlns:rdf="http://www.w3.org/1999/02/22-rdf-syntax-ns#">
      <rdf:Description rdf:about=""/>
   </rdf:RDF>
</x:xmpmeta>
                                                                                                    
                                                                                                    
                                                                                                    
                                                                                                    
                                                                                                    
                                                                                                    
                                                                                                    
                                                                                                    
                                                                                                    
                                                                                                    
                                                                                                    
                                                                                                    
                                                                                                    
                                                                                                    
                                                                                                    
                                                                                                    
                                                                                                    
                                                                                                    
                                                                                                    
                                                                                                    
                           
<?xpacket end="w"?></metadata>
<defs>
    <style>
      .cls-1 {
        fill: #c1c1c1;
        fill-rule: evenodd;
      }
    </style>
  </defs>
  <path id="icon" class="cls-1" d="M1182.89,2606.9h14.24a0.87,0.87,0,0,0,0-1.74h-14.24a4.427,4.427,0,0,0-8.67,0h-6.34a0.87,0.87,0,1,0,0,1.74h6.34A4.424,4.424,0,0,0,1182.89,2606.9Zm-7.02-.87a2.68,2.68,0,1,1,2.68,2.67A2.684,2.684,0,0,1,1175.87,2606.03Zm14.33-9.76h6.93a0.865,0.865,0,1,0,0-1.73h-6.93a4.43,4.43,0,0,0-8.68,0h-13.64a0.865,0.865,0,1,0,0,1.73h13.65A4.424,4.424,0,0,0,1190.2,2596.27Zm-7.02-.87a2.68,2.68,0,1,1,2.68,2.67A2.678,2.678,0,0,1,1183.18,2595.4Zm7.02,22.06h6.93a0.865,0.865,0,1,0,0-1.73h-6.93a4.43,4.43,0,0,0-8.68,0h-13.65a0.865,0.865,0,1,0,0,1.73h13.66A4.424,4.424,0,0,0,1190.2,2617.46Zm-7.02-.87a2.68,2.68,0,1,1,2.68,2.67A2.67,2.67,0,0,1,1183.18,2616.59Z" transform="translate(-1167 -2591)"/>
</svg>
