<svg xmlns="http://www.w3.org/2000/svg" xmlns:xlink="http://www.w3.org/1999/xlink" preserveAspectRatio="none" width="110" height="94" viewBox="0 0 110 94"><defs><path fill="#DEDDE0" d="M76.4 290l3.6 50h90v-50H76.4z" id="a"/><path fill="#DEDDE0" d="M170 130V80H61.4l3.6 50h105z" id="b"/><path fill="#ACABB1" d="M263.55 290H170v50h90l3.55-50z" id="c"/><path fill="#ACABB1" d="M278.55 80H170v50h105l3.55-50z" id="d"/><path fill="#FFDA44" d="M170 160v-30H50l10 160h110v-30q-16.6 0-28.3-14.65Q130 230.75 130 210q0-20.7 11.7-35.35Q153.45 160 170 160z" id="e"/><path fill="#FF9811" d="M170 160q16.55 0 28.25 14.65Q210 189.3 210 210q0 20.7-11.75 35.35Q186.55 260 170 260v30h110l10-160H170v30z" id="f"/><path fill="#50412E" d="M198.25 174.65Q186.55 160 170 160v100q16.55 0 28.25-14.65Q210 230.7 210 210q0-20.7-11.75-35.35z" id="g"/><path fill="#786145" d="M130 210q0 20.75 11.7 35.35Q153.4 260 170 260V160q-16.55 0-28.3 14.65Q130 189.3 130 210z" id="h"/><path fill="#50412E" d="M260 40V0H80v40H40v40h260V40h-40z" id="i"/></defs><use xlink:href="#a" transform="matrix(.27654 0 0 .27647 8 0)"/><use xlink:href="#b" transform="matrix(.27654 0 0 .27647 8 0)"/><use xlink:href="#c" transform="matrix(.27654 0 0 .27647 8 0)"/><use xlink:href="#d" transform="matrix(.27654 0 0 .27647 8 0)"/><use xlink:href="#e" transform="matrix(.27654 0 0 .27647 8 0)"/><use xlink:href="#f" transform="matrix(.27654 0 0 .27647 8 0)"/><use xlink:href="#g" transform="matrix(.27654 0 0 .27647 8 0)"/><use xlink:href="#h" transform="matrix(.27654 0 0 .27647 8 0)"/><use xlink:href="#i" transform="matrix(.27654 0 0 .27647 8 0)"/></svg>