<svg id="Layer_1" xmlns="http://www.w3.org/2000/svg" viewBox="0 0 500 500"><style>.st0{fill:#85edb4}.st1{fill:#fff}.st2{fill:#71d89d}</style><circle class="st0" cx="250" cy="250" r="250"/><path class="st1" d="M351.7 232.8H147c-11.3 0-20.5 9.2-20.5 20.5v20.5c0 11.3 9.2 20.5 20.5 20.5h204.6c11.3 0 20.5-9.2 20.5-20.5v-20.5c.1-11.3-9.1-20.5-20.4-20.5zm-194.4 40.9c-5.6 0-10.2-4.6-10.2-10.2s4.6-10.2 10.2-10.2 10.2 4.6 10.2 10.2-4.6 10.2-10.2 10.2zm189.3 0h-81.9c-2.8 0-5.1-2.3-5.1-5.1s2.3-5.1 5.1-5.1h81.9c2.8 0 5.1 2.3 5.1 5.1s-2.3 5.1-5.1 5.1zM159.9 150.9h178.9c1.9 0 3.6-1 4.5-2.6.9-1.6.9-3.6-.1-5.2l-6.7-10.8c-4.7-7.6-12.8-12.1-21.7-12.1H184c-8.9 0-17 4.5-21.7 12.1l-6.7 10.8c-1 1.6-1 3.6-.1 5.2.8 1.6 2.5 2.6 4.4 2.6zm0 0"/><path class="st2" d="M351.7 304.4H147c-11.3 0-20.5 9.2-20.5 20.5v20.5c0 11.3 9.2 20.5 20.5 20.5h204.6c11.3 0 20.5-9.2 20.5-20.5v-20.5c.1-11.3-9.1-20.5-20.4-20.5zm-194.4 41c-5.6 0-10.2-4.6-10.2-10.2s4.6-10.2 10.2-10.2 10.2 4.6 10.2 10.2-4.6 10.2-10.2 10.2zm189.3 0h-81.9c-2.8 0-5.1-2.3-5.1-5.1s2.3-5.1 5.1-5.1h81.9c2.8 0 5.1 2.3 5.1 5.1s-2.3 5.1-5.1 5.1zm5.1-184.2H147c-11.3 0-20.5 9.2-20.5 20.5v20.5c0 11.3 9.2 20.5 20.5 20.5h204.6c11.3 0 20.5-9.2 20.5-20.5v-20.5c.1-11.3-9.1-20.5-20.4-20.5zm-194.4 40.9c-5.6 0-10.2-4.6-10.2-10.2s4.6-10.2 10.2-10.2 10.2 4.6 10.2 10.2-4.6 10.2-10.2 10.2zm189.3 0h-81.9c-2.8 0-5.1-2.3-5.1-5.1s2.3-5.1 5.1-5.1h81.9c2.8 0 5.1 2.3 5.1 5.1s-2.3 5.1-5.1 5.1zm0 0"/></svg>