<svg id="Layer_1" xmlns="http://www.w3.org/2000/svg" viewBox="0 0 500 500"><style>.st0{fill:#cdb6ef}.st1{fill:#fff}.st2{fill:#ebe0fc}</style><circle class="st0" cx="250" cy="250" r="250"/><path class="st1" d="M243.4 210.5c60.2 0 107.3-21.2 107.3-48.3 0-27.1-47.1-48.3-107.3-48.3-60.2 0-107.3 21.2-107.3 48.3 0 27.1 47.1 48.3 107.3 48.3zm-4.9 107.2c1.6 0 3-.9 4.1-2.1 1-1.2 1.5-3 1.2-4.6-.2-1.3-.4-2.6-.4-4 0-8.7 3.5-17 9.9-23.1 1.6-1.5 2.1-3.9 1.2-5.9-.8-2-3-3-5.1-3.3l-2.4.1c-1.2 0-2.4.1-3.7.1-40.6 0-77.7-8-99.1-21.3-1.7-1-3.7-1.1-5.4-.1-1.7 1-2.8 2.7-2.8 4.7v22.1c.1 19.4 47 36.5 102.5 37.4zm0 0"/><path class="st2" d="M342.1 195.7c-21.4 16-58.3 25.5-98.7 25.5-40.5 0-77.4-9.5-98.7-25.5a5.39 5.39 0 0 0-5.6-.5c-1.8.9-3 2.8-3 4.8v26.6c0 18.1 43.1 37.6 107.3 37.6 36.9 0 71-6.9 91.3-18.4.6-.3 1.1-.8 1.6-1.4 2.8-3.6 6.3-6.5 10.2-8.7.9-.5 1.6-1.1 2.1-2 1.5-2.5 2.2-4.9 2.2-7.2V200c0-2-1.1-3.9-3-4.8-1.8-.8-4-.7-5.7.5zm-25.4 152.6l-23.5-11.8c-1.4-.7-3.1-.7-4.6-.1-12.2 5.5-26.3 2.7-35.6-6.5-1-1-2.4-1.5-3.9-1.6l-5.8.1c-40.6 0-77.7-8-99.1-21.3-1.7-1-3.7-1.1-5.4-.1-1.7 1-2.8 2.7-2.8 4.7v13.5c0 25.2 46.1 44.2 107.3 44.2 27.2 0 53-4 72.7-11.3 2-.7 3.4-2.6 3.5-4.7.2-2.1-.9-4.1-2.8-5.1zm0 0"/><path class="st1" d="M361.4 328.6c-7.3 0-13.8 3.7-17.7 9.3l-47.9-24c.7-2.2 1.2-4.4 1.2-6.8 0-2.4-.5-4.7-1.2-6.8l47.9-24c3.9 5.6 10.3 9.3 17.7 9.3 11.8 0 21.5-9.6 21.5-21.5 0-11.8-9.6-21.5-21.5-21.5-11.8 0-21.5 9.6-21.5 21.5 0 .7.1 1.3.2 2l-50.2 25.1c-3.8-3.5-8.8-5.6-14.3-5.6-11.8 0-21.5 9.6-21.5 21.5 0 11.8 9.6 21.5 21.5 21.5 5.5 0 10.5-2.2 14.3-5.6l50.2 25.1c-.1.7-.2 1.3-.2 2 0 11.8 9.6 21.5 21.5 21.5 11.8 0 21.5-9.6 21.5-21.5s-9.6-21.5-21.5-21.5zm0 0"/></svg>