<svg id="Layer_1" xmlns="http://www.w3.org/2000/svg" viewBox="0 0 500 500"><style>.st0{fill:#ffd261}.st1{fill:#fff3d7}.st2{fill:#fff}</style><circle class="st0" cx="250" cy="250" r="250"/><path class="st1" d="M333.1 179.1c-7.7-38.2-41.7-66.4-81-66.4-45.6 0-82.7 37.1-82.7 82.7 0 1.9.1 3.8.2 5.8-24.9 2.6-44.3 23.8-44.3 49.3 0 4.4.7 8.9 2.2 14 .9 2.9 3.9 4.6 6.8 3.7 2.8-.8 5.2-1.2 7.5-1.2h165.4c14.9 0 27 11.7 27.4 26.6.1 1.6.8 3.1 2.1 4.1 1 .8 2.2 1.2 3.4 1.2.4 0 .7 0 1.1-.1 28.2-5.7 48.6-30.7 48.6-59.4.1-31.8-24.6-58-56.7-60.3zm-25.9 154H141.9c-9.1 0-16.5 7.4-16.5 16.5v11c0 9.1 7.4 16.5 16.5 16.5h165.4c9.1 0 16.5-7.4 16.5-16.5v-11c-.1-9.1-7.5-16.5-16.6-16.5zm-154.3 33.1c-3 0-5.5-2.5-5.5-5.5s2.5-5.5 5.5-5.5 5.5 2.5 5.5 5.5-2.5 5.5-5.5 5.5zm143.3 0h-44.1c-3 0-5.5-2.5-5.5-5.5s2.5-5.5 5.5-5.5h44.1c3 0 5.5 2.5 5.5 5.5s-2.5 5.5-5.5 5.5zm0 0"/><path class="st2" d="M307.2 278H141.9c-9.1 0-16.5 7.4-16.5 16.5v11c0 9.1 7.4 16.5 16.5 16.5h165.4c9.1 0 16.5-7.4 16.5-16.5v-11c-.1-9.1-7.5-16.5-16.6-16.5zm-154.3 33.1c-3 0-5.5-2.5-5.5-5.5s2.5-5.5 5.5-5.5 5.5 2.5 5.5 5.5-2.5 5.5-5.5 5.5zm143.3 0h-44.1c-3 0-5.5-2.5-5.5-5.5s2.5-5.5 5.5-5.5h44.1c3 0 5.5 2.5 5.5 5.5s-2.5 5.5-5.5 5.5zm0 0"/></svg>