<svg id="Layer_1" data-name="Layer 1" xmlns="http://www.w3.org/2000/svg" viewBox="0 0 41 48.82"><defs><style>.cls-1{fill:#fff;}.cls-2{fill:#3f51b5;}</style></defs><title>SVG</title><path class="cls-1" d="M500,522.61l-6.43-9-.42-.16a19,19,0,1,1,13.72,0l-.42.16-6.43,9h0Z" transform="translate(-479.5 -475.29)"/><path class="cls-2" d="M500,478.29a17.49,17.49,0,0,1,6.32,33.8l-.83.32-.52.73-5,6.91-5-6.91-.52-.73-.83-.32a17.49,17.49,0,0,1,6.32-33.8m0-3a20.49,20.49,0,0,0-7.4,39.6l6.24,8.69a1.53,1.53,0,0,0,2.32,0l6.24-8.69a20.49,20.49,0,0,0-7.4-39.6Z" transform="translate(-479.5 -475.29)"/><circle class="cls-2" cx="20.5" cy="20.5" r="6.5"/><path class="cls-2" d="M500,490.79a5,5,0,1,1-5,5,5,5,0,0,1,5-5m0-3a8,8,0,1,0,8,8,8,8,0,0,0-8-8Z" transform="translate(-479.5 -475.29)"/></svg>