<?xml version="1.0" encoding="utf-8"?>
<!-- Generator: Adobe Illustrator 22.1.0, SVG Export Plug-In . SVG Version: 6.00 Build 0)  -->
<svg version="1.1" id="Layer_1" xmlns="http://www.w3.org/2000/svg" xmlns:xlink="http://www.w3.org/1999/xlink" x="0px" y="0px"
	 viewBox="0 0 1920 565" style="enable-background:new 0 0 1920 565;" xml:space="preserve">
<style type="text/css">
	.st0{opacity:0.15;fill:#933A3A;}
	.st1{opacity:0.15;fill:#8594BA;}
	.st2{opacity:0.1;fill:#6F00D1;}
</style>
<g>
	<path class="st0" d="M0,157.5c0,0,175.7,39.5,350-34.1c254.1-103.6,400.3-31.2,544.7,10.9c460.8,121.3,721.6-109,1025.3-94v490.6
		c0,0-165.7,36.8-404.9-70.9c-194.3-87.4-284.6-65.5-355.9-58.5c-104.6,10.2-278,59.9-483.4-13.7c-77-19.1-215-68.6-413.6,79
		C89.4,595.4,35.1,562.3,0,558.2V157.5z"/>
	<path class="st1" d="M0,76.2c228.1,72,261.5,160.6,623.8,122.4c287.2-45.2,421.5-24.3,561.9,18.8C1598.5,339.9,1739.2,35.8,1920,0
		c0,0,0,277.4,0,351.4c-175.9,47.1-261.9,143.9-540.5,121c-307.3-46.4-337.3-188.6-619.4-79.5c-77.5,31-158,71.6-279.8,74.4
		C205.2,460.9,219,364.2,0,356.1C0,356.1,0,147.4,0,76.2z"/>
	<path class="st2" d="M0,93.2c214.1-67.6,288.1,266.2,662.1,175.5c231-70.6,318-39.3,532.6-15C1682.1,299.5,1574.9,68.1,1920,121
		c0,0,0,288.5,0,362.5c-157.9,54.5-235.9-214.8-521.9-134.1c-392,94.8-309-25.2-586-9.1c-209.7,9.2-233.1,40.2-393.6,18.2
		c-14.8-2-53.6-10.3-79.2-16.1c-116-31.8-243.1-59.8-339.3,3.9C0,346.3,0,164.5,0,93.2z"/>
</g>
</svg>
