<?xml version="1.0" encoding="utf-8"?>
<!-- Generator: Adobe Illustrator 22.1.0, SVG Export Plug-In . SVG Version: 6.00 Build 0)  -->
<svg version="1.1" id="Layer_1" xmlns="http://www.w3.org/2000/svg" xmlns:xlink="http://www.w3.org/1999/xlink" x="0px" y="0px"
	 viewBox="0 0 196 196" style="enable-background:new 0 0 196 196;" xml:space="preserve">
<style type="text/css">
	.st0{fill:#263238;}
	.st1{fill:#FF4800;}
	.st2{fill:#A0A0A0;}
</style>
<g>
	<g>
		<path class="st0" d="M131.9,135.4H64.1c-3,0-5.3-2-5.3-4.5v-16c0-2.5,2.3-4.5,5.3-4.5h67.9c3,0,5.3,2,5.3,4.5v16
			C137.2,133.5,134.9,135.4,131.9,135.4z M64.1,114c-1.1,0-1.7,0.6-1.7,0.9v16c0,0.3,0.6,0.9,1.7,0.9h67.9c1.1,0,1.7-0.6,1.7-0.9
			v-16c0-0.3-0.6-0.9-1.7-0.9H64.1z"/>
	</g>
	<g>
		<path class="st0" d="M122.1,124.7h-19.6c-1,0-1.8-0.8-1.8-1.8c0-1,0.8-1.8,1.8-1.8h19.6c1,0,1.8,0.8,1.8,1.8
			C123.8,123.9,123,124.7,122.1,124.7z"/>
	</g>
	<g>
		<path class="st0" d="M88.2,128.3H73.9c-1,0-1.8-0.8-1.8-1.8v-7.1c0-1,0.8-1.8,1.8-1.8h14.3c1,0,1.8,0.8,1.8,1.8v7.1
			C90,127.5,89.2,128.3,88.2,128.3z M75.7,124.7h10.7v-3.6H75.7V124.7z"/>
	</g>
	<g>
		<path class="st0" d="M131.9,156.8H64.1c-3,0-5.3-2-5.3-4.5v-16c0-2.5,2.3-4.5,5.3-4.5h67.9c3,0,5.3,2,5.3,4.5v16
			C137.2,154.8,134.9,156.8,131.9,156.8z M64.1,135.4c-1.1,0-1.7,0.6-1.7,0.9v16c0,0.3,0.6,0.9,1.7,0.9h67.9c1.1,0,1.7-0.6,1.7-0.9
			v-16c0-0.3-0.6-0.9-1.7-0.9H64.1z"/>
	</g>
	<g>
		<path class="st0" d="M122.1,146.1h-19.6c-1,0-1.8-0.8-1.8-1.8c0-1,0.8-1.8,1.8-1.8h19.6c1,0,1.8,0.8,1.8,1.8
			C123.8,145.3,123,146.1,122.1,146.1z"/>
	</g>
	<g>
		<path class="st0" d="M88.2,149.7H73.9c-1,0-1.8-0.8-1.8-1.8v-7.1c0-1,0.8-1.8,1.8-1.8h14.3c1,0,1.8,0.8,1.8,1.8v7.1
			C90,148.9,89.2,149.7,88.2,149.7z M75.7,146.1h10.7v-3.6H75.7V146.1z"/>
	</g>
	<g>
		<path class="st0" d="M131.9,178.2H64.1c-3,0-5.3-2-5.3-4.5v-16c0-2.5,2.3-4.5,5.3-4.5h67.9c3,0,5.3,2,5.3,4.5v16
			C137.2,176.2,134.9,178.2,131.9,178.2z M64.1,156.8c-1.1,0-1.7,0.6-1.7,0.9v16c0,0.3,0.6,0.9,1.7,0.9h67.9c1.1,0,1.7-0.6,1.7-0.9
			v-16c0-0.3-0.6-0.9-1.7-0.9H64.1z"/>
	</g>
	<g>
		<path class="st0" d="M122.1,167.5h-19.6c-1,0-1.8-0.8-1.8-1.8c0-1,0.8-1.8,1.8-1.8h19.6c1,0,1.8,0.8,1.8,1.8
			C123.8,166.7,123,167.5,122.1,167.5z"/>
	</g>
	<g>
		<path class="st0" d="M88.2,171.1H73.9c-1,0-1.8-0.8-1.8-1.8v-7.1c0-1,0.8-1.8,1.8-1.8h14.3c1,0,1.8,0.8,1.8,1.8v7.1
			C90,170.3,89.2,171.1,88.2,171.1z M75.7,167.5h10.7v-3.6H75.7V167.5z"/>
	</g>
	<g>
		<path class="st0" d="M130.1,196H65.9c-1,0-1.8-0.8-1.8-1.8c0-1,0.8-1.8,1.8-1.8h64.1c1,0,1.8,0.8,1.8,1.8
			C131.9,195.2,131.1,196,130.1,196z"/>
	</g>
	<g>
		<path class="st0" d="M80.2,188.9c-1,0-1.8-0.8-1.8-1.8v-10.7c0-1,0.8-1.8,1.8-1.8c1,0,1.8,0.8,1.8,1.8v10.7
			C82,188.1,81.2,188.9,80.2,188.9z"/>
	</g>
	<g>
		<path class="st0" d="M115.8,188.9c-1,0-1.8-0.8-1.8-1.8v-10.7c0-1,0.8-1.8,1.8-1.8c1,0,1.8,0.8,1.8,1.8v10.7
			C117.6,188.1,116.8,188.9,115.8,188.9z"/>
	</g>
	<g>
		<rect x="12.5" y="1.8" class="st1" width="28.5" height="28.5"/>
		<path class="st0" d="M41,32.1H12.5c-1,0-1.8-0.8-1.8-1.8V1.8c0-1,0.8-1.8,1.8-1.8H41c1,0,1.8,0.8,1.8,1.8v28.5
			C42.8,31.3,42,32.1,41,32.1z M14.3,28.5h24.9V3.6H14.3V28.5z"/>
	</g>
	<g>
		<rect x="60.6" y="1.8" class="st2" width="28.5" height="28.5"/>
		<path class="st0" d="M89.1,32.1H60.6c-1,0-1.8-0.8-1.8-1.8V1.8c0-1,0.8-1.8,1.8-1.8h28.5c1,0,1.8,0.8,1.8,1.8v28.5
			C90.9,31.3,90.1,32.1,89.1,32.1z M62.4,28.5h24.9V3.6H62.4V28.5z"/>
	</g>
	<g>
		<rect x="106.9" y="1.8" class="st2" width="28.5" height="28.5"/>
		<path class="st0" d="M135.4,32.1h-28.5c-1,0-1.8-0.8-1.8-1.8V1.8c0-1,0.8-1.8,1.8-1.8h28.5c1,0,1.8,0.8,1.8,1.8v28.5
			C137.2,31.3,136.4,32.1,135.4,32.1z M108.7,28.5h24.9V3.6h-24.9V28.5z"/>
	</g>
	<g>
		<rect x="155" y="1.8" class="st1" width="28.5" height="28.5"/>
		<path class="st0" d="M183.5,32.1H155c-1,0-1.8-0.8-1.8-1.8V1.8c0-1,0.8-1.8,1.8-1.8h28.5c1,0,1.8,0.8,1.8,1.8v28.5
			C185.3,31.3,184.5,32.1,183.5,32.1z M156.8,28.5h24.9V3.6h-24.9V28.5z"/>
	</g>
	<g>
		<path class="st0" d="M41,74.8H12.5c-1,0-1.8-0.8-1.8-1.8V44.5c0-1,0.8-1.8,1.8-1.8H41c1,0,1.8,0.8,1.8,1.8v28.5
			C42.8,74,42,74.8,41,74.8z M14.3,71.3h24.9V46.3H14.3V71.3z"/>
	</g>
	<g>
		<rect x="60.6" y="44.5" class="st1" width="28.5" height="28.5"/>
		<path class="st0" d="M89.1,74.8H60.6c-1,0-1.8-0.8-1.8-1.8V44.5c0-1,0.8-1.8,1.8-1.8h28.5c1,0,1.8,0.8,1.8,1.8v28.5
			C90.9,74,90.1,74.8,89.1,74.8z M62.4,71.3h24.9V46.3H62.4V71.3z"/>
	</g>
	<g>
		<rect x="106.9" y="44.5" class="st1" width="28.5" height="28.5"/>
		<path class="st0" d="M135.4,74.8h-28.5c-1,0-1.8-0.8-1.8-1.8V44.5c0-1,0.8-1.8,1.8-1.8h28.5c1,0,1.8,0.8,1.8,1.8v28.5
			C137.2,74,136.4,74.8,135.4,74.8z M108.7,71.3h24.9V46.3h-24.9V71.3z"/>
	</g>
	<g>
		<path class="st0" d="M183.5,74.8H155c-1,0-1.8-0.8-1.8-1.8V44.5c0-1,0.8-1.8,1.8-1.8h28.5c1,0,1.8,0.8,1.8,1.8v28.5
			C185.3,74,184.5,74.8,183.5,74.8z M156.8,71.3h24.9V46.3h-24.9V71.3z"/>
	</g>
	<g>
		<path class="st0" d="M53.5,146.1H30.3c-2.9,0-5.3-2.4-5.3-5.3V80.2c0-1,0.8-1.8,1.8-1.8c1,0,1.8,0.8,1.8,1.8v60.6
			c0,1,0.8,1.8,1.8,1.8h23.2c1,0,1.8,0.8,1.8,1.8C55.2,145.3,54.4,146.1,53.5,146.1z"/>
	</g>
	<g>
		<path class="st0" d="M165.7,146.1h-23.2c-1,0-1.8-0.8-1.8-1.8c0-1,0.8-1.8,1.8-1.8h23.2c1,0,1.8-0.8,1.8-1.8V80.2
			c0-1,0.8-1.8,1.8-1.8c1,0,1.8,0.8,1.8,1.8v60.6C171.1,143.7,168.7,146.1,165.7,146.1z"/>
	</g>
	<g>
		<path class="st0" d="M5.3,178.2H1.8c-1,0-1.8-0.8-1.8-1.8c0-1,0.8-1.8,1.8-1.8h3.6c1,0,1.8,0.8,1.8,1.8
			C7.1,177.4,6.3,178.2,5.3,178.2z"/>
	</g>
	<g>
		<path class="st0" d="M41,178.2H12.5c-1,0-1.8-0.8-1.8-1.8c0-1,0.8-1.8,1.8-1.8H41c1,0,1.8,0.8,1.8,1.8
			C42.8,177.4,42,178.2,41,178.2z"/>
	</g>
	<g>
		<path class="st0" d="M194.2,178.2h-3.6c-1,0-1.8-0.8-1.8-1.8c0-1,0.8-1.8,1.8-1.8h3.6c1,0,1.8,0.8,1.8,1.8
			C196,177.4,195.2,178.2,194.2,178.2z"/>
	</g>
	<g>
		<path class="st0" d="M183.5,178.2H155c-1,0-1.8-0.8-1.8-1.8c0-1,0.8-1.8,1.8-1.8h28.5c1,0,1.8,0.8,1.8,1.8
			C185.3,177.4,184.5,178.2,183.5,178.2z"/>
	</g>
</g>
</svg>
