<?xml version="1.0" encoding="utf-8"?>
<!-- Generator: Adobe Illustrator 22.1.0, SVG Export Plug-In . SVG Version: 6.00 Build 0)  -->
<svg version="1.1" id="Layer_1" xmlns="http://www.w3.org/2000/svg" xmlns:xlink="http://www.w3.org/1999/xlink" x="0px" y="0px"
	 viewBox="0 0 170 170" style="enable-background:new 0 0 170 170;" xml:space="preserve">
<style type="text/css">
	.st0{fill:#3FD7D7;}
	.st1{fill:#06199B;}
	.st2{fill:#080245;}
	.st3{fill:#D3DAE7;}
	.st4{fill:#FFFFFF;}
	.st5{fill:#1D5084;}
	.st6{fill:#00FFFF;}
	.st7{fill:#1B1464;}
	.st8{fill:#2E3192;}
	.st9{fill:#0071BC;}
</style>
<g>
	<path class="st0" d="M159.2,126.5c-14.5,26-42.3,43.5-74.2,43.5c-46.9,0-85-38.1-85-85C0,46.5,25.7,13.9,60.8,3.5
		C53.9,15.8,50,29.9,50,45c0,46.9,38.1,85,85,85C143.4,130,151.5,128.8,159.2,126.5z"/>
	<path class="st1" d="M170,85c0,15.1-3.9,29.2-10.8,41.5c-7.7,2.3-15.8,3.5-24.2,3.5c-46.9,0-85-38.1-85-85
		c0-15.1,3.9-29.2,10.8-41.5C68.5,1.2,76.6,0,85,0C131.9,0,170,38.1,170,85z"/>
	<path class="st2" d="M103.4,148.2c-22.4,1.1-32.5-8.2-29.6-19c3.1-8.4,1.6-14.7-4.4-18.6c-9.1-6-17.2-9-38.1-12.3
		C10.5,94.9,19.8,83,32.9,78.2s49-12,78.1-0.8s37.5,21.7,35.7,37.3S125.9,147.2,103.4,148.2z"/>
	<path class="st3" d="M103.4,140.2c-22.4,1.1-32.5-8.2-29.6-19c3.1-8.4,1.6-14.7-4.4-18.6c-9.1-6-17.2-9-38.1-12.3
		C10.5,86.9,19.8,75,32.9,70.1s49-12,78.1-0.8s37.5,21.7,35.7,37.3C144.9,122.3,125.9,139.2,103.4,140.2z"/>
	<path class="st4" d="M103.4,139.2c-22.4,1.1-32.5-8.2-29.6-19c3.1-8.4,1.6-14.7-4.4-18.6c-9.1-6-17.2-9-38.1-12.3
		C10.5,85.9,19.8,74,32.9,69.1s49-12,78.1-0.8s37.5,21.7,35.7,37.3C144.9,121.3,125.9,138.2,103.4,139.2z"/>
	<g>
		<path class="st5" d="M75.2,97.2v-7.6c0-1.1-0.8-2.4-1.7-2.9L39.3,67c-0.9-0.5-1.7-0.1-1.7,1v7.6c0,1.1,0.8,2.4,1.7,2.9l34.1,19.7
			C74.5,98.7,75.2,98.3,75.2,97.2"/>
		<path class="st6" d="M70.1,89.6c0.5,0.8,1.2,1.2,1.7,1c0.5-0.3,0.5-1.1,0-1.9s-1.2-1.2-1.7-1C69.6,87.9,69.6,88.8,70.1,89.6
			 M70.2,87.9c0.4-0.2,1,0.2,1.4,0.9c0.4,0.7,0.4,1.4,0.1,1.6c-0.4,0.2-1-0.2-1.4-0.9C69.9,88.8,69.8,88.1,70.2,87.9"/>
		<path class="st7" d="M39.3,67c-0.5-0.3-0.9-0.3-1.2-0.1l0,0L74,46.2l0,0c0.3-0.2,0.7-0.1,1.2,0.1L109.3,66
			c0.9,0.5,1.7,1.8,1.7,2.9v7.6c0,0.5-0.2,0.9-0.5,1.1l0,0L74.7,98.3l0,0c0.3-0.2,0.5-0.5,0.5-1.1v-7.6c0-1.1-0.8-2.4-1.7-2.9
			L41.2,68.1"/>
		<path class="st6" d="M67.5,87.4v-0.3c0-0.2-0.1-0.4-0.3-0.5L40.1,70.9c-0.2-0.1-0.3,0-0.3,0.2v0.3c0,0.2,0.1,0.4,0.3,0.5
			l27.1,15.6C67.4,87.6,67.5,87.5,67.5,87.4"/>
		<path class="st4" d="M67.8,92.1v-0.3c0-0.2-0.1-0.4-0.3-0.5l-17.2-9.9c-0.2-0.1-0.3,0-0.3,0.2v0.3c0,0.2,0.1,0.4,0.3,0.5l17.2,9.9
			C67.7,92.4,67.8,92.3,67.8,92.1"/>
		<path class="st5" d="M75.2,82.5v-7.6c0-1.1-0.8-2.4-1.7-2.9L39.3,52.3c-0.9-0.5-1.7-0.1-1.7,1v7.6c0,1.1,0.8,2.4,1.7,2.9
			l34.1,19.7C74.5,84,75.2,83.6,75.2,82.5"/>
		<path class="st4" d="M70.1,77.5c0.5-0.3,1.2,0.2,1.7,1s0.5,1.7,0,1.9c-0.5,0.3-1.2-0.2-1.7-1C69.6,78.7,69.6,77.8,70.1,77.5"/>
		<path class="st6" d="M70.1,74.9c0.5,0.8,1.2,1.2,1.7,1c0.5-0.3,0.5-1.1,0-1.9s-1.2-1.2-1.7-1S69.6,74.1,70.1,74.9 M70.2,73.2
			c0.4-0.2,1,0.2,1.4,0.9c0.4,0.7,0.4,1.4,0.1,1.6c-0.4,0.2-1-0.2-1.4-0.9C69.9,74.1,69.8,73.4,70.2,73.2"/>
		<path class="st8" d="M39.3,52.3c-0.5-0.3-0.9-0.3-1.2-0.1l0,0L74,31.5l0,0c0.3-0.2,0.7-0.1,1.2,0.1l34.1,19.7
			c0.9,0.5,1.7,1.8,1.7,2.9v7.6c0,0.5-0.2,0.9-0.5,1.1l0,0L74.7,83.6l0,0c0.3-0.2,0.5-0.5,0.5-1.1v-7.6c0-1.1-0.8-2.4-1.7-2.9
			L41.2,53.4"/>
		<path class="st6" d="M67.5,72.7v-0.3c0-0.2-0.1-0.4-0.3-0.5L40.1,56.2c-0.2-0.1-0.3,0-0.3,0.2v0.3c0,0.2,0.1,0.4,0.3,0.5
			l27.1,15.6C67.4,72.9,67.5,72.9,67.5,72.7"/>
		<path class="st4" d="M67.8,77.4v-0.3c0-0.2-0.1-0.4-0.3-0.5l-17.2-9.9c-0.2-0.1-0.3,0-0.3,0.2v0.3c0,0.2,0.1,0.4,0.3,0.5l17.2,9.9
			C67.7,77.7,67.8,77.6,67.8,77.4"/>
		<path class="st5" d="M75.2,68v-7.6c0-1.1-0.8-2.4-1.7-2.9L39.3,37.7c-0.9-0.5-1.7-0.1-1.7,1v7.6c0,1.1,0.8,2.4,1.7,2.9l34.1,19.7
			C74.5,69.5,75.2,69,75.2,68"/>
		<path class="st4" d="M70.1,63c0.5-0.3,1.2,0.2,1.7,1c0.5,0.8,0.5,1.7,0,1.9c-0.5,0.3-1.2-0.2-1.7-1S69.6,63.2,70.1,63"/>
		<path class="st6" d="M70.1,60.3c0.5,0.8,1.2,1.2,1.7,1c0.5-0.3,0.5-1.1,0-1.9c-0.5-0.8-1.2-1.2-1.7-1S69.6,59.5,70.1,60.3
			 M70.2,58.6c0.4-0.2,1,0.2,1.4,0.9s0.4,1.4,0.1,1.6s-1-0.2-1.4-0.9C69.9,59.5,69.8,58.8,70.2,58.6"/>
		<path class="st9" d="M39.3,37.7c-0.5-0.3-0.9-0.3-1.2-0.1l0,0L74,16.9l0,0c0.3-0.2,0.7-0.1,1.2,0.1l34.1,19.7
			c0.9,0.5,1.7,1.8,1.7,2.9v7.6c0,0.5-0.2,0.9-0.5,1.1l0,0L74.7,69.1l0,0c0.3-0.2,0.5-0.5,0.5-1.1v-7.6c0-1.1-0.8-2.4-1.7-2.9
			L41.2,38.8"/>
		<path class="st6" d="M67.5,58.1v-0.3c0-0.2-0.1-0.4-0.3-0.5L40.1,41.6c-0.2-0.1-0.3,0-0.3,0.2v0.3c0,0.2,0.1,0.4,0.3,0.5
			l27.1,15.6C67.4,58.4,67.5,58.3,67.5,58.1"/>
		<path class="st4" d="M67.8,62.9v-0.3c0-0.2-0.1-0.4-0.3-0.5l-17.2-9.9c-0.2-0.1-0.3,0-0.3,0.2v0.3c0,0.2,0.1,0.4,0.3,0.5L67.5,63
			C67.7,63.1,67.8,63.1,67.8,62.9"/>
	</g>
	<g>
		<path class="st5" d="M109.7,128.6V124c0-0.6-0.5-1.4-1-1.7l-20.5-11.8c-0.6-0.3-1-0.1-1,0.6v4.6c0,0.6,0.5,1.4,1,1.7l20.5,11.8
			C109.2,129.5,109.7,129.2,109.7,128.6"/>
		<path class="st6" d="M106.6,123.9c0.3,0.5,0.7,0.7,1,0.6c0.3-0.2,0.3-0.7,0-1.2s-0.7-0.7-1-0.6C106.4,123,106.4,123.5,106.6,123.9
			 M106.7,122.9c0.2-0.1,0.6,0.1,0.8,0.5c0.2,0.4,0.3,0.8,0,1c-0.2,0.1-0.6-0.1-0.8-0.5C106.5,123.5,106.5,123,106.7,122.9"/>
		<path class="st7" d="M88.1,110.4c-0.3-0.2-0.5-0.2-0.7-0.1l0,0L109,97.9l0,0c0.2-0.1,0.4-0.1,0.7,0.1l20.5,11.8
			c0.6,0.3,1,1.1,1,1.7v4.6c0,0.3-0.1,0.6-0.3,0.7l0,0l-21.5,12.4l0,0c0.2-0.1,0.3-0.3,0.3-0.7v-4.6c0-0.6-0.5-1.4-1-1.7L89.3,111"
			/>
		<path class="st6" d="M105.1,122.6v-0.2c0-0.1-0.1-0.3-0.2-0.3l-16.3-9.4c-0.1-0.1-0.2,0-0.2,0.1v0.2c0,0.1,0.1,0.3,0.2,0.3
			l16.3,9.4C105,122.8,105.1,122.7,105.1,122.6"/>
		<path class="st4" d="M105.3,125.5v-0.2c0-0.1-0.1-0.3-0.2-0.3l-10.4-6c-0.1-0.1-0.2,0-0.2,0.1v0.2c0,0.1,0.1,0.3,0.2,0.3l10.4,6
			C105.2,125.6,105.3,125.6,105.3,125.5"/>
		<path class="st5" d="M109.7,119.7v-4.6c0-0.6-0.5-1.4-1-1.7l-20.5-11.8c-0.6-0.3-1-0.1-1,0.6v4.6c0,0.6,0.5,1.4,1,1.7l20.5,11.8
			C109.2,120.6,109.7,120.4,109.7,119.7"/>
		<path class="st4" d="M106.6,116.7c0.3-0.2,0.7,0.1,1,0.6s0.3,1,0,1.2s-0.7-0.1-1-0.6C106.4,117.4,106.4,116.9,106.6,116.7"/>
		<path class="st6" d="M106.6,115.1c0.3,0.5,0.7,0.7,1,0.6c0.3-0.2,0.3-0.7,0-1.2s-0.7-0.7-1-0.6
			C106.4,114.1,106.4,114.6,106.6,115.1 M106.7,114.1c0.2-0.1,0.6,0.1,0.8,0.5c0.2,0.4,0.3,0.8,0,1c-0.2,0.1-0.6-0.1-0.8-0.5
			C106.5,114.6,106.5,114.2,106.7,114.1"/>
		<path class="st8" d="M88.1,101.6c-0.3-0.2-0.5-0.2-0.7-0.1l0,0L109,89.1l0,0c0.2-0.1,0.4-0.1,0.7,0.1l20.5,11.8
			c0.6,0.3,1,1.1,1,1.7v4.6c0,0.3-0.1,0.6-0.3,0.7l0,0l-21.5,12.4l0,0c0.2-0.1,0.3-0.3,0.3-0.7v-4.6c0-0.6-0.5-1.4-1-1.7l-19.4-11.2
			"/>
		<path class="st6" d="M105.1,113.8v-0.2c0-0.1-0.1-0.3-0.2-0.3l-16.3-9.4c-0.1-0.1-0.2,0-0.2,0.1v0.2c0,0.1,0.1,0.3,0.2,0.3
			l16.3,9.4C105,114,105.1,113.9,105.1,113.8"/>
		<path class="st4" d="M105.3,116.7v-0.2c0-0.1-0.1-0.3-0.2-0.3l-10.4-6c-0.1-0.1-0.2,0-0.2,0.1v0.2c0,0.1,0.1,0.3,0.2,0.3l10.4,6
			C105.2,116.8,105.3,116.8,105.3,116.7"/>
		<path class="st5" d="M109.7,111v-4.6c0-0.6-0.5-1.4-1-1.7L88.1,92.8c-0.6-0.3-1-0.1-1,0.6V98c0,0.6,0.5,1.4,1,1.7l20.5,11.8
			C109.2,111.9,109.7,111.6,109.7,111"/>
		<path class="st4" d="M106.6,108c0.3-0.2,0.7,0.1,1,0.6s0.3,1,0,1.2s-0.7-0.1-1-0.6C106.4,108.6,106.4,108.1,106.6,108"/>
		<path class="st6" d="M106.6,106.4c0.3,0.5,0.7,0.7,1,0.6c0.3-0.2,0.3-0.7,0-1.2s-0.7-0.7-1-0.6
			C106.4,105.4,106.4,105.9,106.6,106.4 M106.7,105.3c0.2-0.1,0.6,0.1,0.8,0.5c0.2,0.4,0.3,0.8,0,1c-0.2,0.1-0.6-0.1-0.8-0.5
			C106.5,105.9,106.5,105.5,106.7,105.3"/>
		<path class="st9" d="M88.1,92.8c-0.3-0.2-0.5-0.2-0.7-0.1l0,0L109,80.3l0,0c0.2-0.1,0.4-0.1,0.7,0.1l20.5,11.8
			c0.6,0.3,1,1.1,1,1.7v4.6c0,0.3-0.1,0.6-0.3,0.7l0,0l-21.5,12.4l0,0c0.2-0.1,0.3-0.3,0.3-0.7v-4.6c0-0.6-0.5-1.4-1-1.7L89.3,93.5"
			/>
		<path class="st6" d="M105.1,105v-0.2c0-0.1-0.1-0.3-0.2-0.3l-16.3-9.4c-0.1-0.1-0.2,0-0.2,0.1v0.2c0,0.1,0.1,0.3,0.2,0.3l16.3,9.4
			C105,105.2,105.1,105.2,105.1,105"/>
		<path class="st4" d="M105.3,107.9v-0.2c0-0.1-0.1-0.3-0.2-0.3l-10.4-6c-0.1-0.1-0.2,0-0.2,0.1v0.2c0,0.1,0.1,0.3,0.2,0.3l10.4,6
			C105.2,108.1,105.3,108,105.3,107.9"/>
	</g>
</g>
</svg>
