<?xml version="1.0" encoding="utf-8"?>
<!-- Generator: Adobe Illustrator 22.1.0, SVG Export Plug-In . SVG Version: 6.00 Build 0)  -->
<svg version="1.1" id="Layer_1" xmlns="http://www.w3.org/2000/svg" xmlns:xlink="http://www.w3.org/1999/xlink" x="0px" y="0px"
	 viewBox="0 0 65 56.6" style="enable-background:new 0 0 65 56.6;" xml:space="preserve">
<style type="text/css">
	.st0{fill:url(#SVGID_1_);}
	.st1{fill:url(#SVGID_2_);}
	.st2{fill:url(#SVGID_3_);}
	.st3{fill:url(#SVGID_4_);}
	.st4{fill:url(#SVGID_5_);}
	.st5{fill:#080245;}
</style>
<g>
	
		<linearGradient id="SVGID_1_" gradientUnits="userSpaceOnUse" x1="4.2763" y1="19.85" x2="18.8158" y2="19.85" gradientTransform="matrix(1 0 0 -1 0 58)">
		<stop  offset="0.25" style="stop-color:#0069FF"/>
		<stop  offset="1" style="stop-color:#08026E"/>
	</linearGradient>
	<rect x="4.3" y="37.7" class="st0" width="14.5" height="0.9"/>
	
		<linearGradient id="SVGID_2_" gradientUnits="userSpaceOnUse" x1="18.8" y1="39.1" x2="51.3" y2="39.1" gradientTransform="matrix(1 0 0 -1 0 58)">
		<stop  offset="0.25" style="stop-color:#0069FF"/>
		<stop  offset="1" style="stop-color:#08026E"/>
	</linearGradient>
	<rect x="18.8" y="18.1" class="st1" width="32.5" height="1.6"/>
	
		<linearGradient id="SVGID_3_" gradientUnits="userSpaceOnUse" x1="45.3289" y1="53.7" x2="64.1447" y2="53.7" gradientTransform="matrix(1 0 0 -1 0 58)">
		<stop  offset="0.25" style="stop-color:#0069FF"/>
		<stop  offset="1" style="stop-color:#08026E"/>
	</linearGradient>
	<path class="st2" d="M64,8.6c0.1-0.3,0.2-0.6,0.2-0.9c0-1.4-1.2-2.6-2.6-2.6c0-2.8-2.3-5.1-5.1-5.1c-2.4,0-4.4,1.7-5,3.9
		c-0.6-0.3-1.2-0.5-1.9-0.5c-2.4,0-4.3,1.9-4.3,4.3c0,0.3,0,0.6,0.1,0.9H64z"/>
	
		<linearGradient id="SVGID_4_" gradientUnits="userSpaceOnUse" x1="1.7105" y1="36.25" x2="15.688" y2="36.25" gradientTransform="matrix(1 0 0 -1 0 58)">
		<stop  offset="0.25" style="stop-color:#0069FF"/>
		<stop  offset="1" style="stop-color:#08026E"/>
	</linearGradient>
	<path class="st3" d="M14.5,24.6h1.1c0-0.1,0-0.3,0-0.4c0-3-2.4-5.4-5.4-5.4c-2,0-3.8,1.1-4.7,2.8c-0.3-0.2-0.7-0.2-1.1-0.2
		c-1.5,0-2.8,1.2-2.8,2.8c0,0.2,0,0.3,0,0.5H5L14.5,24.6L14.5,24.6z"/>
	
		<linearGradient id="SVGID_5_" gradientUnits="userSpaceOnUse" x1="50.2991" y1="23.0316" x2="64.3466" y2="23.0316" gradientTransform="matrix(1 0 0 -1 0 58)">
		<stop  offset="0.25" style="stop-color:#0069FF"/>
		<stop  offset="1" style="stop-color:#08026E"/>
	</linearGradient>
	<path class="st4" d="M62.9,38l-0.1-0.3l0.2-0.2c1.1-1.1,1.6-2.6,1.2-4.1c-0.4-1.8-1.8-3.1-3.6-3.4h-0.2l-0.1-0.2
		c-0.7-2-2.7-3.4-4.8-3.4c-0.4,0-0.8,0-1.1,0.1c-1.3,0.3-2.5,1.1-3.2,2.3c-0.7,1.2-1,2.5-0.7,3.9c0.2,0.8,0.5,1.5,1.1,2.2l0.3,0.3
		l-0.3,0.3c-1,1-1.4,2.4-1.1,3.8c0.4,1.8,2.1,3.2,3.9,3.2c0.3,0,0.6,0,0.9-0.1c0.2,0,0.3-0.1,0.5-0.2L56,42l0.2,0.2
		c1,1.1,2.5,1.6,3.9,1.2c2.2-0.5,3.5-2.7,3.1-4.8C63.1,38.4,63,38.2,62.9,38z"/>
	<g>
		<path class="st5" d="M17.1,11.5c0.1,0,0.3,0,0.4-0.1l11.1-5.5C29,5.7,29.2,5.2,29,4.7c-0.2-0.4-0.7-0.6-1.1-0.4L16.8,9.9
			c-0.4,0.2-0.6,0.7-0.4,1.1C16.5,11.3,16.8,11.5,17.1,11.5z"/>
		<path class="st5" d="M64.1,51.4h-6.8V40.2c1.1-0.1,2.1-0.7,2.7-1.7c0.7-1.2,0.7-2.8-0.2-3.9c-0.3-0.4-0.8-0.5-1.2-0.2
			s-0.5,0.8-0.2,1.2c0.4,0.6,0.5,1.4,0.1,2c-0.3,0.4-0.7,0.7-1.2,0.8v-5.1c0-0.5-0.4-0.9-0.9-0.9s-0.9,0.4-0.9,0.9v5.9l0,0v9.5h-0.9
			V47c0-0.5-0.4-0.9-0.9-0.9H52V43c-0.6-0.3-1.2-0.7-1.7-1.2v4.3h-1.7V19.7H47v26.6h-6.8v-6.9c0-0.5-0.4-0.9-0.9-0.9H35h-4.3
			c-0.5,0-0.9,0.4-0.9,0.9v6.9H23V19.7h-1.7v26.6h-1.7v-9.4v-2.5v-0.1V27l0,0l0,0v-9h30.8v9.6c0.5-0.6,1-1.1,1.7-1.5V18H53
			c0.5,0,0.9-0.4,0.9-0.9v-3.4c0-0.5-0.4-0.9-0.9-0.9h-1.5l-16.1-8c-0.2-0.1-0.5-0.1-0.8,0l-16.1,8h-1.4c-0.5,0-0.9,0.4-0.9,0.9v3.4
			c0,0.5,0.4,0.9,0.9,0.9H18v8.4l-14.2,7H2.6c-0.5,0-0.9,0.4-0.9,0.9v2.5c0,0.5,0.4,0.9,0.9,0.9h0.9v13.7H0.9
			c-0.5,0-0.9,0.4-0.9,0.9s0.4,0.9,0.9,0.9h3.4h9.4h5.1h32.5h5.1h7.7c0.5,0,0.9-0.4,0.9-0.9C65,51.8,64.6,51.4,64.1,51.4z
			 M52.2,16.3h-0.9H18.8H18v-1.7h0.7h7.7h17.2h7.7h0.9C52.2,14.6,52.2,16.3,52.2,16.3z M35,6.5l12.7,6.3h-4.1H26.4h-4.1L35,6.5z
			 M30.8,48h4.3h4.3h11.1h1.7H53v0.9h-0.9h-1.7H19.7H18h-0.9V48H18h1.7H30.8z M14.5,50.5h1.7H18h1.7h30.8h1.7h1.7h1.7v0.9h-3.4H19.7
			H18h-3.4v-0.9H14.5z M38.5,46.3h-2.6v-6h2.6V46.3z M31.6,40.3h2.6v6h-2.6V40.3z M3.4,36v-0.8H18V36H4.3H3.4z M18,28.3v5.1H7.8
			L18,28.3z M5.1,37.7H18v8.6h-1.7c-0.5,0-0.9,0.4-0.9,0.9v1.7h-1.7c-0.5,0-0.9,0.4-0.9,0.9v1.7H5.1V37.7z"/>
		<circle class="st5" cx="54.7" cy="55.7" r="1"/>
		<circle class="st5" cx="30.4" cy="3.9" r="1"/>
		<path class="st5" d="M52.2,54.8H8.6c-0.5,0-0.9,0.4-0.9,0.9s0.4,0.9,0.9,0.9h43.6c0.5,0,0.9-0.4,0.9-0.9
			C53,55.2,52.6,54.8,52.2,54.8z"/>
		<path class="st5" d="M44.5,34.3H25.7c-0.5,0-0.9,0.4-0.9,0.9s0.4,0.9,0.9,0.9h18.8c0.5,0,0.9-0.4,0.9-0.9
			C45.3,34.6,44.9,34.3,44.5,34.3z"/>
		<path class="st5" d="M44.5,30H25.7c-0.5,0-0.9,0.4-0.9,0.9s0.4,0.9,0.9,0.9h18.8c0.5,0,0.9-0.4,0.9-0.9S44.9,30,44.5,30z"/>
		<path class="st5" d="M44.5,25.7H25.7c-0.5,0-0.9,0.4-0.9,0.9s0.4,0.9,0.9,0.9h18.8c0.5,0,0.9-0.4,0.9-0.9S44.9,25.7,44.5,25.7z"/>
		<path class="st5" d="M44.5,21.4H25.7c-0.5,0-0.9,0.4-0.9,0.9s0.4,0.9,0.9,0.9h18.8c0.5,0,0.9-0.4,0.9-0.9
			C45.3,21.8,44.9,21.4,44.5,21.4z"/>
		<path class="st5" d="M7.7,39.4c-0.5,0-0.9,0.4-0.9,0.9V48c0,0.5,0.4,0.9,0.9,0.9s0.9-0.4,0.9-0.9v-7.7C8.6,39.8,8.2,39.4,7.7,39.4
			z"/>
		<path class="st5" d="M11.1,39.4c-0.5,0-0.9,0.4-0.9,0.9V48c0,0.5,0.4,0.9,0.9,0.9S12,48.5,12,48v-7.7C12,39.8,11.6,39.4,11.1,39.4
			z"/>
		<path class="st5" d="M14.5,45c0.5,0,0.9-0.4,0.9-0.9v-3.9c0-0.5-0.4-0.9-0.9-0.9s-0.9,0.4-0.9,0.9v3.9C13.7,44.6,14.1,45,14.5,45z
			"/>
	</g>
</g>
</svg>
