<?xml version="1.0" encoding="utf-8"?>
<!-- Generator: Adobe Illustrator 22.1.0, SVG Export Plug-In . SVG Version: 6.00 Build 0)  -->
<svg version="1.1" id="Layer_1" xmlns="http://www.w3.org/2000/svg" xmlns:xlink="http://www.w3.org/1999/xlink" x="0px" y="0px"
	 viewBox="0 0 255 252.9" style="enable-background:new 0 0 255 252.9;" xml:space="preserve">
<style type="text/css">
	.st0{fill:url(#SVGID_1_);}
	.st1{fill:url(#SVGID_2_);}
	.st2{fill:#080245;}
</style>
<g>
	<linearGradient id="SVGID_1_" gradientUnits="userSpaceOnUse" x1="94.4964" y1="119.8026" x2="126.3494" y2="119.8026">
		<stop  offset="0.25" style="stop-color:#3FD7D7"/>
		<stop  offset="1" style="stop-color:#080245"/>
	</linearGradient>
	<rect x="94.5" y="103.9" class="st0" width="31.9" height="31.9"/>
	<linearGradient id="SVGID_2_" gradientUnits="userSpaceOnUse" x1="20.7037" y1="117.3841" x2="210.7598" y2="117.3841">
		<stop  offset="0.25" style="stop-color:#3FD7D7"/>
		<stop  offset="1" style="stop-color:#080245"/>
	</linearGradient>
	<polygon class="st1" points="170.1,214.7 20.7,214.7 20.7,20.1 210.8,20.1 210.8,171.7 200.7,164 193.9,153.4 193.9,35.4 
		38.2,35.4 38.2,193.8 157.1,193.8 167.1,202.9 	"/>
</g>
<g>
	<g>
		<path class="st2" d="M157.7,198.8H35.6c-2,0-3.5-1.6-3.5-3.5V35.4c0-2,1.6-3.5,3.5-3.5h159.9c2,0,3.5,1.6,3.5,3.5v122.1
			c0,0.9-0.4,1.8-1,2.5l-37.8,37.8C159.5,198.4,158.6,198.8,157.7,198.8z M39.1,191.7h117.1l35.7-35.7V38.9H39.1V191.7z"/>
	</g>
	<g>
		<path class="st2" d="M62.1,97.3c-2,0-3.5-1.6-3.5-3.5V61.9c0-2,1.6-3.5,3.5-3.5h22.4c2,0,3.5,1.6,3.5,3.5s-1.6,3.5-3.5,3.5H65.7
			v28.3C65.7,95.7,64.1,97.3,62.1,97.3z"/>
	</g>
	<g>
		<path class="st2" d="M62.1,151c-2,0-3.5-1.6-3.5-3.5v-5.3c0-2,1.6-3.5,3.5-3.5c2,0,3.5,1.6,3.5,3.5v5.3
			C65.7,149.4,64.1,151,62.1,151z M62.1,128c-2,0-3.5-1.6-3.5-3.5v-5.3c0-2,1.6-3.5,3.5-3.5c2,0,3.5,1.6,3.5,3.5v5.3
			C65.7,126.4,64.1,128,62.1,128z M62.1,105c-2,0-3.5-1.6-3.5-3.5v-5.3c0-2,1.6-3.5,3.5-3.5c2,0,3.5,1.6,3.5,3.5v5.3
			C65.7,103.4,64.1,105,62.1,105z"/>
	</g>
	<g>
		<path class="st2" d="M132.9,172.2H62.1c-2,0-3.5-1.6-3.5-3.5v-21.2c0-2,1.6-3.5,3.5-3.5c2,0,3.5,1.6,3.5,3.5v17.7h65.8l4.6-4.5
			c1.4-1.4,3.6-1.4,5,0c1.4,1.4,1.4,3.6,0,5l-5.6,5.6C134.7,171.9,133.8,172.2,132.9,172.2z"/>
	</g>
	<g>
		<path class="st2" d="M138.5,166.7c-0.9,0-1.8-0.4-2.5-1.1c-1.4-1.4-1.4-3.6,0-5l29.3-28.8V65.5h-14.7c-2,0-3.5-1.6-3.5-3.5
			s1.6-3.5,3.5-3.5h18.3c2,0,3.5,1.6,3.5,3.5v71.4c0,0.9-0.4,1.9-1.1,2.5L141,165.7C140.3,166.3,139.4,166.7,138.5,166.7z"/>
	</g>
	<g>
		<path class="st2" d="M135.8,65.5h-5.3c-2,0-3.5-1.6-3.5-3.5s1.6-3.5,3.5-3.5h5.3c2,0,3.5,1.6,3.5,3.5S137.8,65.5,135.8,65.5z
			 M112.8,65.5h-5.3c-2,0-3.5-1.6-3.5-3.5s1.6-3.5,3.5-3.5h5.3c2,0,3.5,1.6,3.5,3.5S114.8,65.5,112.8,65.5z M89.8,65.5h-5.3
			c-2,0-3.5-1.6-3.5-3.5s1.6-3.5,3.5-3.5h5.3c2,0,3.5,1.6,3.5,3.5S91.8,65.5,89.8,65.5z"/>
	</g>
	<g>
		<path class="st2" d="M169.5,231.2c-2,0-3.5-1.6-3.5-3.5v-21l-9.3-9.3c-1.4-1.4-1.4-3.6,0-5c1.4-1.4,3.6-1.4,5,0l10.3,10.3
			c0.7,0.7,1,1.6,1,2.5v22.4C173,229.6,171.4,231.2,169.5,231.2z"/>
	</g>
	<g>
		<path class="st2" d="M229.6,174.9h-22.7c-0.9,0-1.8-0.4-2.5-1l-12.5-12.5c-1.4-1.4-1.4-3.6,0-5c1.4-1.4,3.6-1.4,5,0l11.5,11.5
			h21.2c2,0,3.5,1.6,3.5,3.5C233.2,173.3,231.6,174.9,229.6,174.9z"/>
	</g>
	<g>
		<path class="st2" d="M199.3,200.9c-0.9,0-1.8-0.3-2.5-1L176,179c-1.4-1.4-1.4-3.6,0-5c1.4-1.4,3.6-1.4,5,0l20.8,20.8
			c1.4,1.4,1.4,3.6,0,5C201.1,200.5,200.2,200.9,199.3,200.9z"/>
	</g>
	<g>
		<path class="st2" d="M63,28.3c-2,0-3.5-1.6-3.5-3.5V3.5C59.5,1.6,61,0,63,0c2,0,3.5,1.6,3.5,3.5v21.2C66.5,26.7,65,28.3,63,28.3z"
			/>
	</g>
	<g>
		<path class="st2" d="M90.4,28.3c-2,0-3.5-1.6-3.5-3.5V3.5c0-2,1.6-3.5,3.5-3.5c2,0,3.5,1.6,3.5,3.5v21.2
			C94,26.7,92.4,28.3,90.4,28.3z"/>
	</g>
	<g>
		<path class="st2" d="M117.9,28.3c-2,0-3.5-1.6-3.5-3.5V3.5c0-2,1.6-3.5,3.5-3.5c2,0,3.5,1.6,3.5,3.5v21.2
			C121.4,26.7,119.8,28.3,117.9,28.3z"/>
	</g>
	<g>
		<path class="st2" d="M145.3,28.3c-2,0-3.5-1.6-3.5-3.5V3.5c0-2,1.6-3.5,3.5-3.5c2,0,3.5,1.6,3.5,3.5v21.2
			C148.8,26.7,147.2,28.3,145.3,28.3z"/>
	</g>
	<g>
		<path class="st2" d="M172.7,28.3c-2,0-3.5-1.6-3.5-3.5V3.5c0-2,1.6-3.5,3.5-3.5c2,0,3.5,1.6,3.5,3.5v21.2
			C176.3,26.7,174.7,28.3,172.7,28.3z"/>
	</g>
	<g>
		<path class="st2" d="M55,230c-2,0-3.5-1.6-3.5-3.5v-18.6c0-2,1.6-3.5,3.5-3.5c2,0,3.5,1.6,3.5,3.5v18.6C58.6,228.5,57,230,55,230z
			"/>
	</g>
	<g>
		<path class="st2" d="M82.5,230c-2,0-3.5-1.6-3.5-3.5v-18.6c0-2,1.6-3.5,3.5-3.5c2,0,3.5,1.6,3.5,3.5v18.6
			C86,228.5,84.4,230,82.5,230z"/>
	</g>
	<g>
		<path class="st2" d="M109.9,230c-2,0-3.5-1.6-3.5-3.5v-18.6c0-2,1.6-3.5,3.5-3.5c2,0,3.5,1.6,3.5,3.5v18.6
			C113.4,228.5,111.8,230,109.9,230z"/>
	</g>
	<g>
		<path class="st2" d="M137.3,230c-2,0-3.5-1.6-3.5-3.5v-18.6c0-2,1.6-3.5,3.5-3.5c2,0,3.5,1.6,3.5,3.5v18.6
			C140.9,228.5,139.3,230,137.3,230z"/>
	</g>
	<g>
		<path class="st2" d="M24.4,173.8H3.5c-2,0-3.5-1.6-3.5-3.5c0-2,1.6-3.5,3.5-3.5h20.8c2,0,3.5,1.6,3.5,3.5
			C27.9,172.2,26.3,173.8,24.4,173.8z"/>
	</g>
	<g>
		<path class="st2" d="M24.4,146.3H3.5c-2,0-3.5-1.6-3.5-3.5c0-2,1.6-3.5,3.5-3.5h20.8c2,0,3.5,1.6,3.5,3.5
			C27.9,144.8,26.3,146.3,24.4,146.3z"/>
	</g>
	<g>
		<path class="st2" d="M24.4,118.9H3.5c-2,0-3.5-1.6-3.5-3.5c0-2,1.6-3.5,3.5-3.5h20.8c2,0,3.5,1.6,3.5,3.5
			C27.9,117.3,26.3,118.9,24.4,118.9z"/>
	</g>
	<g>
		<path class="st2" d="M24.4,91.5H3.5c-2,0-3.5-1.6-3.5-3.5c0-2,1.6-3.5,3.5-3.5h20.8c2,0,3.5,1.6,3.5,3.5
			C27.9,89.9,26.3,91.5,24.4,91.5z"/>
	</g>
	<g>
		<path class="st2" d="M24.4,64.1H3.5c-2,0-3.5-1.6-3.5-3.5S1.6,57,3.5,57h20.8c2,0,3.5,1.6,3.5,3.5S26.3,64.1,24.4,64.1z"/>
	</g>
	<g>
		<path class="st2" d="M227,146.3h-18.9c-2,0-3.5-1.6-3.5-3.5c0-2,1.6-3.5,3.5-3.5H227c2,0,3.5,1.6,3.5,3.5
			C230.6,144.8,229,146.3,227,146.3z"/>
	</g>
	<g>
		<path class="st2" d="M227,118.9h-18.9c-2,0-3.5-1.6-3.5-3.5c0-2,1.6-3.5,3.5-3.5H227c2,0,3.5,1.6,3.5,3.5
			C230.6,117.3,229,118.9,227,118.9z"/>
	</g>
	<g>
		<path class="st2" d="M227,91.5h-18.9c-2,0-3.5-1.6-3.5-3.5c0-2,1.6-3.5,3.5-3.5H227c2,0,3.5,1.6,3.5,3.5
			C230.6,89.9,229,91.5,227,91.5z"/>
	</g>
	<g>
		<path class="st2" d="M227,64.1h-18.9c-2,0-3.5-1.6-3.5-3.5s1.6-3.5,3.5-3.5H227c2,0,3.5,1.6,3.5,3.5S229,64.1,227,64.1z"/>
	</g>
	<g>
		<path class="st2" d="M136.3,126.9h-31.9c-2,0-3.5-1.6-3.5-3.5V91.5c0-2,1.6-3.5,3.5-3.5h31.9c2,0,3.5,1.6,3.5,3.5v31.9
			C139.8,125.3,138.2,126.9,136.3,126.9z M107.9,119.8h24.8V95h-24.8V119.8z"/>
	</g>
	<g>
		<path class="st2" d="M240.8,187.6c-7.8,0-14.2-6.4-14.2-14.2s6.4-14.2,14.2-14.2c7.8,0,14.2,6.4,14.2,14.2
			S248.6,187.6,240.8,187.6z M240.8,166.3c-3.9,0-7.1,3.2-7.1,7.1s3.2,7.1,7.1,7.1c3.9,0,7.1-3.2,7.1-7.1S244.7,166.3,240.8,166.3z"
			/>
	</g>
	<g>
		<path class="st2" d="M207.5,220.9c-7.8,0-14.2-6.4-14.2-14.2s6.4-14.2,14.2-14.2c7.8,0,14.2,6.4,14.2,14.2
			S215.3,220.9,207.5,220.9z M207.5,199.7c-3.9,0-7.1,3.2-7.1,7.1c0,3.9,3.2,7.1,7.1,7.1c3.9,0,7.1-3.2,7.1-7.1
			C214.6,202.8,211.4,199.7,207.5,199.7z"/>
	</g>
	<g>
		<path class="st2" d="M169.5,252.9c-7.8,0-14.2-6.4-14.2-14.2s6.4-14.2,14.2-14.2s14.2,6.4,14.2,14.2S177.3,252.9,169.5,252.9z
			 M169.5,231.6c-3.9,0-7.1,3.2-7.1,7.1c0,3.9,3.2,7.1,7.1,7.1c3.9,0,7.1-3.2,7.1-7.1C176.6,234.8,173.4,231.6,169.5,231.6z"/>
	</g>
	<g>
		<path class="st2" d="M145.3,184.6c-0.9,0-1.8-0.4-2.5-1.1c-1.4-1.4-1.4-3.6,0-5l3.8-3.7c1.4-1.4,3.6-1.4,5,0c1.4,1.4,1.4,3.6,0,5
			l-3.8,3.7C147.1,184.3,146.2,184.6,145.3,184.6z M161.7,168.5c-0.9,0-1.8-0.4-2.5-1.1c-1.4-1.4-1.4-3.6,0-5l3.8-3.7
			c1.4-1.4,3.6-1.4,5,0c1.4,1.4,1.4,3.6,0,5l-3.8,3.7C163.5,168.2,162.6,168.5,161.7,168.5z M178.1,152.4c-0.9,0-1.8-0.4-2.5-1.1
			c-1.4-1.4-1.4-3.6,0-5l3.2-3.1c1.4-1.4,3.6-1.4,5,0c1.4,1.4,1.4,3.6,0,5l-3.2,3.1C179.9,152,179,152.4,178.1,152.4z"/>
	</g>
</g>
</svg>
