<?xml version="1.0" encoding="utf-8"?>
<!-- Generator: Adobe Illustrator 22.1.0, SVG Export Plug-In . SVG Version: 6.00 Build 0)  -->
<svg version="1.1" id="Layer_1" xmlns="http://www.w3.org/2000/svg" xmlns:xlink="http://www.w3.org/1999/xlink" x="0px" y="0px"
	 viewBox="0 0 1920 600" style="enable-background:new 0 0 1920 600;" xml:space="preserve">
<style type="text/css">
	.st0{fill:url(#SVGID_1_);}
	.st1{opacity:0.5;}
	.st2{fill:url(#SVGID_2_);}
	.st3{fill:url(#SVGID_3_);}
	.st4{fill:url(#SVGID_4_);}
	.st5{fill:url(#SVGID_5_);}
	.st6{fill:url(#SVGID_6_);}
	.st7{fill:url(#SVGID_7_);}
	.st8{fill:url(#SVGID_8_);}
	.st9{fill:url(#SVGID_9_);}
	.st10{fill:url(#SVGID_10_);}
	.st11{fill:url(#SVGID_11_);}
	.st12{fill:url(#SVGID_12_);}
	.st13{fill:url(#SVGID_13_);}
	.st14{fill:url(#SVGID_14_);}
	.st15{fill:url(#SVGID_15_);}
	.st16{fill:url(#SVGID_16_);}
	.st17{fill:url(#SVGID_17_);}
	.st18{fill:url(#SVGID_18_);}
	.st19{fill:url(#SVGID_19_);}
	.st20{fill:url(#SVGID_20_);}
	.st21{fill:url(#SVGID_21_);}
	.st22{fill:url(#SVGID_22_);}
	.st23{fill:url(#SVGID_23_);}
	.st24{fill:url(#SVGID_24_);}
	.st25{fill:url(#SVGID_25_);}
	.st26{fill:url(#SVGID_26_);}
	.st27{fill:url(#SVGID_27_);}
	.st28{fill:url(#SVGID_28_);}
	.st29{fill:url(#SVGID_29_);}
	.st30{fill:url(#SVGID_30_);}
	.st31{fill:url(#SVGID_31_);}
	.st32{fill:url(#SVGID_32_);}
	.st33{fill:url(#SVGID_33_);}
	.st34{opacity:0.15;fill:none;stroke:url(#SVGID_34_);stroke-width:2;stroke-miterlimit:10;enable-background:new    ;}
	.st35{opacity:0.5;fill:none;stroke:url(#SVGID_35_);stroke-width:2;stroke-miterlimit:10;enable-background:new    ;}
	.st36{fill:none;stroke:url(#SVGID_36_);stroke-width:2;stroke-miterlimit:10;}
	.st37{fill:url(#SVGID_37_);}
	.st38{fill:#463C9F;}
	.st39{fill:url(#SVGID_38_);}
	.st40{fill:url(#SVGID_39_);}
	.st41{fill:url(#SVGID_40_);}
	.st42{fill:#160A5C;}
	.st43{fill:#231069;}
	.st44{fill:#FCD0C5;}
	.st45{fill:#FFFFFF;}
	.st46{fill:#45DAE0;}
	.st47{fill:#4746A4;}
	.st48{fill:#E1B1A5;}
	.st49{fill:#FDD1C6;}
	.st50{fill:#AB8383;}
	.st51{opacity:0.9;fill:url(#SVGID_41_);enable-background:new    ;}
</style>
<g>
	<linearGradient id="SVGID_1_" gradientUnits="userSpaceOnUse" x1="960" y1="600" x2="960" y2="-9.094947e-13">
		<stop  offset="0" style="stop-color:#06199B"/>
		<stop  offset="1" style="stop-color:#0039B7"/>
	</linearGradient>
	<rect class="st0" width="1920" height="600"/>
	<g class="st1">
		
			<linearGradient id="SVGID_2_" gradientUnits="userSpaceOnUse" x1="1112.7" y1="339.5109" x2="1112.7" y2="366.3507" gradientTransform="matrix(1 0 0 -1 0 602)">
			<stop  offset="0" style="stop-color:#42E7E1"/>
			<stop  offset="1" style="stop-color:#40E5DF;stop-opacity:0"/>
		</linearGradient>
		<rect x="1109.1" y="235.6" class="st2" width="7.2" height="26.8"/>
		
			<linearGradient id="SVGID_3_" gradientUnits="userSpaceOnUse" x1="1112.7" y1="324.8" x2="1112.7" y2="332.1554" gradientTransform="matrix(1 0 0 -1 0 602)">
			<stop  offset="0" style="stop-color:#42E7E1"/>
			<stop  offset="1" style="stop-color:#40E5DF;stop-opacity:0"/>
		</linearGradient>
		<rect x="1109.1" y="269.8" class="st3" width="7.2" height="7.4"/>
		
			<linearGradient id="SVGID_4_" gradientUnits="userSpaceOnUse" x1="1112.7" y1="214.4741" x2="1112.7" y2="221.8279" gradientTransform="matrix(1 0 0 -1 0 602)">
			<stop  offset="0" style="stop-color:#42E7E1"/>
			<stop  offset="1" style="stop-color:#40E5DF;stop-opacity:0"/>
		</linearGradient>
		<rect x="1109.1" y="380.2" class="st4" width="7.2" height="7.4"/>
		
			<linearGradient id="SVGID_5_" gradientUnits="userSpaceOnUse" x1="1112.7" y1="229.2" x2="1112.7" y2="288" gradientTransform="matrix(1 0 0 -1 0 602)">
			<stop  offset="0" style="stop-color:#42E7E1"/>
			<stop  offset="1" style="stop-color:#40E5DF;stop-opacity:0"/>
		</linearGradient>
		<rect x="1109.1" y="314" class="st5" width="7.2" height="58.8"/>
		
			<linearGradient id="SVGID_6_" gradientUnits="userSpaceOnUse" x1="1130.5" y1="272.4113" x2="1130.5" y2="299.2511" gradientTransform="matrix(1 0 0 -1 0 602)">
			<stop  offset="0" style="stop-color:#42E7E1"/>
			<stop  offset="1" style="stop-color:#40E5DF;stop-opacity:0"/>
		</linearGradient>
		<rect x="1126.9" y="302.7" class="st6" width="7.2" height="26.8"/>
		
			<linearGradient id="SVGID_7_" gradientUnits="userSpaceOnUse" x1="1130.5" y1="257.7" x2="1130.5" y2="265.0554" gradientTransform="matrix(1 0 0 -1 0 602)">
			<stop  offset="0" style="stop-color:#42E7E1"/>
			<stop  offset="1" style="stop-color:#40E5DF;stop-opacity:0"/>
		</linearGradient>
		<rect x="1126.9" y="336.9" class="st7" width="7.2" height="7.4"/>
		
			<linearGradient id="SVGID_8_" gradientUnits="userSpaceOnUse" x1="1184.2" y1="440.1602" x2="1184.2" y2="467" gradientTransform="matrix(1 0 0 -1 0 602)">
			<stop  offset="0" style="stop-color:#42E7E1"/>
			<stop  offset="1" style="stop-color:#40E5DF;stop-opacity:0"/>
		</linearGradient>
		<rect x="1180.6" y="135" class="st8" width="7.2" height="26.8"/>
		
			<linearGradient id="SVGID_9_" gradientUnits="userSpaceOnUse" x1="1184.2" y1="425.4494" x2="1184.2" y2="432.8048" gradientTransform="matrix(1 0 0 -1 0 602)">
			<stop  offset="0" style="stop-color:#42E7E1"/>
			<stop  offset="1" style="stop-color:#40E5DF;stop-opacity:0"/>
		</linearGradient>
		<rect x="1180.6" y="169.2" class="st9" width="7.2" height="7.4"/>
		
			<linearGradient id="SVGID_10_" gradientUnits="userSpaceOnUse" x1="1184.2" y1="315.1234" x2="1184.2" y2="322.4771" gradientTransform="matrix(1 0 0 -1 0 602)">
			<stop  offset="0" style="stop-color:#42E7E1"/>
			<stop  offset="1" style="stop-color:#40E5DF;stop-opacity:0"/>
		</linearGradient>
		<rect x="1180.6" y="279.5" class="st10" width="7.2" height="7.4"/>
		
			<linearGradient id="SVGID_11_" gradientUnits="userSpaceOnUse" x1="1184.2" y1="329.8325" x2="1184.2" y2="388.6325" gradientTransform="matrix(1 0 0 -1 0 602)">
			<stop  offset="0" style="stop-color:#42E7E1"/>
			<stop  offset="1" style="stop-color:#40E5DF;stop-opacity:0"/>
		</linearGradient>
		<rect x="1180.6" y="213.3" class="st11" width="7.2" height="58.8"/>
		
			<linearGradient id="SVGID_12_" gradientUnits="userSpaceOnUse" x1="1202" y1="373.0606" x2="1202" y2="399.9005" gradientTransform="matrix(1 0 0 -1 0 602)">
			<stop  offset="0" style="stop-color:#42E7E1"/>
			<stop  offset="1" style="stop-color:#40E5DF;stop-opacity:0"/>
		</linearGradient>
		<rect x="1198.4" y="202.1" class="st12" width="7.2" height="26.8"/>
		
			<linearGradient id="SVGID_13_" gradientUnits="userSpaceOnUse" x1="1202" y1="358.3499" x2="1202" y2="365.7052" gradientTransform="matrix(1 0 0 -1 0 602)">
			<stop  offset="0" style="stop-color:#42E7E1"/>
			<stop  offset="1" style="stop-color:#40E5DF;stop-opacity:0"/>
		</linearGradient>
		<rect x="1198.4" y="236.3" class="st13" width="7.2" height="7.4"/>
		
			<linearGradient id="SVGID_14_" gradientUnits="userSpaceOnUse" x1="1202" y1="262.733" x2="1202" y2="321.533" gradientTransform="matrix(1 0 0 -1 0 602)">
			<stop  offset="0" style="stop-color:#42E7E1"/>
			<stop  offset="1" style="stop-color:#40E5DF;stop-opacity:0"/>
		</linearGradient>
		<rect x="1198.4" y="280.4" class="st14" width="7.2" height="58.8"/>
		
			<linearGradient id="SVGID_15_" gradientUnits="userSpaceOnUse" x1="1202" y1="248.0239" x2="1202" y2="255.3776" gradientTransform="matrix(1 0 0 -1 0 602)">
			<stop  offset="0" style="stop-color:#42E7E1"/>
			<stop  offset="1" style="stop-color:#40E5DF;stop-opacity:0"/>
		</linearGradient>
		<rect x="1198.4" y="346.6" class="st15" width="7.2" height="7.4"/>
		
			<linearGradient id="SVGID_16_" gradientUnits="userSpaceOnUse" x1="1463.6" y1="339.5109" x2="1463.6" y2="366.3507" gradientTransform="matrix(1 0 0 -1 0 602)">
			<stop  offset="0" style="stop-color:#42E7E1"/>
			<stop  offset="1" style="stop-color:#40E5DF;stop-opacity:0"/>
		</linearGradient>
		<rect x="1460" y="235.6" class="st16" width="7.2" height="26.8"/>
		
			<linearGradient id="SVGID_17_" gradientUnits="userSpaceOnUse" x1="1463.6" y1="324.8" x2="1463.6" y2="332.1554" gradientTransform="matrix(1 0 0 -1 0 602)">
			<stop  offset="0" style="stop-color:#42E7E1"/>
			<stop  offset="1" style="stop-color:#40E5DF;stop-opacity:0"/>
		</linearGradient>
		<rect x="1460" y="269.8" class="st17" width="7.2" height="7.4"/>
		
			<linearGradient id="SVGID_18_" gradientUnits="userSpaceOnUse" x1="1463.6" y1="229.2" x2="1463.6" y2="288" gradientTransform="matrix(1 0 0 -1 0 602)">
			<stop  offset="0" style="stop-color:#42E7E1"/>
			<stop  offset="1" style="stop-color:#40E5DF;stop-opacity:0"/>
		</linearGradient>
		<rect x="1460" y="314" class="st18" width="7.2" height="58.8"/>
		
			<linearGradient id="SVGID_19_" gradientUnits="userSpaceOnUse" x1="1463.6" y1="214.4741" x2="1463.6" y2="221.8279" gradientTransform="matrix(1 0 0 -1 0 602)">
			<stop  offset="0" style="stop-color:#42E7E1"/>
			<stop  offset="1" style="stop-color:#40E5DF;stop-opacity:0"/>
		</linearGradient>
		<rect x="1460" y="380.2" class="st19" width="7.2" height="7.4"/>
		
			<linearGradient id="SVGID_20_" gradientUnits="userSpaceOnUse" x1="1481.4" y1="272.4113" x2="1481.4" y2="299.2511" gradientTransform="matrix(1 0 0 -1 0 602)">
			<stop  offset="0" style="stop-color:#42E7E1"/>
			<stop  offset="1" style="stop-color:#40E5DF;stop-opacity:0"/>
		</linearGradient>
		<rect x="1477.8" y="302.7" class="st20" width="7.2" height="26.8"/>
		
			<linearGradient id="SVGID_21_" gradientUnits="userSpaceOnUse" x1="1481.4" y1="257.7" x2="1481.4" y2="265.0554" gradientTransform="matrix(1 0 0 -1 0 602)">
			<stop  offset="0" style="stop-color:#42E7E1"/>
			<stop  offset="1" style="stop-color:#40E5DF;stop-opacity:0"/>
		</linearGradient>
		<rect x="1477.8" y="336.9" class="st21" width="7.2" height="7.4"/>
		
			<linearGradient id="SVGID_22_" gradientUnits="userSpaceOnUse" x1="1392" y1="440.1602" x2="1392" y2="467" gradientTransform="matrix(1 0 0 -1 0 602)">
			<stop  offset="0" style="stop-color:#42E7E1"/>
			<stop  offset="1" style="stop-color:#40E5DF;stop-opacity:0"/>
		</linearGradient>
		<rect x="1388.4" y="135" class="st22" width="7.2" height="26.8"/>
		
			<linearGradient id="SVGID_23_" gradientUnits="userSpaceOnUse" x1="1392" y1="425.4494" x2="1392" y2="432.8048" gradientTransform="matrix(1 0 0 -1 0 602)">
			<stop  offset="0" style="stop-color:#42E7E1"/>
			<stop  offset="1" style="stop-color:#40E5DF;stop-opacity:0"/>
		</linearGradient>
		<rect x="1388.4" y="169.2" class="st23" width="7.2" height="7.4"/>
		
			<linearGradient id="SVGID_24_" gradientUnits="userSpaceOnUse" x1="1392" y1="315.1234" x2="1392" y2="322.4771" gradientTransform="matrix(1 0 0 -1 0 602)">
			<stop  offset="0" style="stop-color:#42E7E1"/>
			<stop  offset="1" style="stop-color:#40E5DF;stop-opacity:0"/>
		</linearGradient>
		<rect x="1388.4" y="279.5" class="st24" width="7.2" height="7.4"/>
		
			<linearGradient id="SVGID_25_" gradientUnits="userSpaceOnUse" x1="1392" y1="329.8325" x2="1392" y2="388.6325" gradientTransform="matrix(1 0 0 -1 0 602)">
			<stop  offset="0" style="stop-color:#42E7E1"/>
			<stop  offset="1" style="stop-color:#40E5DF;stop-opacity:0"/>
		</linearGradient>
		<rect x="1388.4" y="213.3" class="st25" width="7.2" height="58.8"/>
		
			<linearGradient id="SVGID_26_" gradientUnits="userSpaceOnUse" x1="1409.9" y1="373.0606" x2="1409.9" y2="399.9005" gradientTransform="matrix(1 0 0 -1 0 602)">
			<stop  offset="0" style="stop-color:#42E7E1"/>
			<stop  offset="1" style="stop-color:#40E5DF;stop-opacity:0"/>
		</linearGradient>
		<rect x="1406.3" y="202.1" class="st26" width="7.2" height="26.8"/>
		
			<linearGradient id="SVGID_27_" gradientUnits="userSpaceOnUse" x1="1409.9" y1="358.3499" x2="1409.9" y2="365.7052" gradientTransform="matrix(1 0 0 -1 0 602)">
			<stop  offset="0" style="stop-color:#42E7E1"/>
			<stop  offset="1" style="stop-color:#40E5DF;stop-opacity:0"/>
		</linearGradient>
		<rect x="1406.3" y="236.3" class="st27" width="7.2" height="7.4"/>
		
			<linearGradient id="SVGID_28_" gradientUnits="userSpaceOnUse" x1="1409.9" y1="248.0239" x2="1409.9" y2="255.3776" gradientTransform="matrix(1 0 0 -1 0 602)">
			<stop  offset="0" style="stop-color:#42E7E1"/>
			<stop  offset="1" style="stop-color:#40E5DF;stop-opacity:0"/>
		</linearGradient>
		<rect x="1406.3" y="346.6" class="st28" width="7.2" height="7.4"/>
		
			<linearGradient id="SVGID_29_" gradientUnits="userSpaceOnUse" x1="1409.9" y1="262.733" x2="1409.9" y2="321.533" gradientTransform="matrix(1 0 0 -1 0 602)">
			<stop  offset="0" style="stop-color:#42E7E1"/>
			<stop  offset="1" style="stop-color:#40E5DF;stop-opacity:0"/>
		</linearGradient>
		<rect x="1406.3" y="280.4" class="st29" width="7.2" height="58.8"/>
		
			<linearGradient id="SVGID_30_" gradientUnits="userSpaceOnUse" x1="1130.5" y1="182.7" x2="1130.5" y2="220.9" gradientTransform="matrix(1 0 0 -1 0 602)">
			<stop  offset="0" style="stop-color:#42E7E1"/>
			<stop  offset="1" style="stop-color:#40E5DF;stop-opacity:0"/>
		</linearGradient>
		<polygon class="st30" points="1134.1,414.4 1134.1,381.1 1126.9,381.1 1126.9,419.3 		"/>
		
			<linearGradient id="SVGID_31_" gradientUnits="userSpaceOnUse" x1="1184.1499" y1="219.5" x2="1184.1499" y2="278.3" gradientTransform="matrix(1 0 0 -1 0 602)">
			<stop  offset="0" style="stop-color:#42E7E1"/>
			<stop  offset="1" style="stop-color:#40E5DF;stop-opacity:0"/>
		</linearGradient>
		<polygon class="st31" points="1187.7,377.9 1187.7,323.7 1180.6,323.7 1180.6,382.5 1180.9,382.5 		"/>
		
			<linearGradient id="SVGID_32_" gradientUnits="userSpaceOnUse" x1="1392" y1="230.8" x2="1392" y2="278.3639" gradientTransform="matrix(1 0 0 -1 0 602)">
			<stop  offset="0" style="stop-color:#42E7E1"/>
			<stop  offset="1" style="stop-color:#40E5DF;stop-opacity:0"/>
		</linearGradient>
		<polygon class="st32" points="1395.6,371.2 1395.6,323.7 1388.4,323.7 1388.4,366.3 		"/>
		
			<linearGradient id="SVGID_33_" gradientUnits="userSpaceOnUse" x1="1481.4" y1="169.3" x2="1481.4" y2="220.9" gradientTransform="matrix(1 0 0 -1 0 602)">
			<stop  offset="0" style="stop-color:#42E7E1"/>
			<stop  offset="1" style="stop-color:#40E5DF;stop-opacity:0"/>
		</linearGradient>
		<polygon class="st33" points="1485,432.7 1485,381.1 1477.8,381.1 1477.8,427.8 		"/>
	</g>
	<g>
		
			<linearGradient id="SVGID_34_" gradientUnits="userSpaceOnUse" x1="1168.9622" y1="113.4375" x2="1435.425" y2="113.4375" gradientTransform="matrix(1 0 0 -1 0 602)">
			<stop  offset="0" style="stop-color:#352786"/>
			<stop  offset="1" style="stop-color:#3ED8D7"/>
		</linearGradient>
		<path class="st34" d="M1171.1,482.1l143,82c2.2,1.2,4.8,1.2,6.9,0l112.3-63.8c1.5-0.8,1.5-2.9,0-3.8L1291,413.1
			c-2.2-1.3-4.9-1.3-7,0l-113,65.2C1169.6,479.1,1169.6,481.2,1171.1,482.1z"/>
		
			<linearGradient id="SVGID_35_" gradientUnits="userSpaceOnUse" x1="1168.9622" y1="125.0375" x2="1435.425" y2="125.0375" gradientTransform="matrix(1 0 0 -1 0 602)">
			<stop  offset="0" style="stop-color:#352786"/>
			<stop  offset="1" style="stop-color:#3ED8D7"/>
		</linearGradient>
		<path class="st35" d="M1171.1,470.5l143,82c2.2,1.2,4.8,1.2,6.9,0l112.3-63.8c1.5-0.8,1.5-2.9,0-3.8L1291,401.5
			c-2.2-1.3-4.9-1.3-7,0l-113,65.2C1169.6,467.6,1169.6,469.7,1171.1,470.5z"/>
		
			<linearGradient id="SVGID_36_" gradientUnits="userSpaceOnUse" x1="1168.975" y1="136.5375" x2="1435.425" y2="136.5375" gradientTransform="matrix(1 0 0 -1 0 602)">
			<stop  offset="0" style="stop-color:#352786"/>
			<stop  offset="1" style="stop-color:#3ED8D7"/>
		</linearGradient>
		<path class="st36" d="M1171.1,459l143,82c2.2,1.2,4.8,1.2,6.9,0l112.3-63.8c1.5-0.8,1.5-2.9,0-3.8L1291.1,390
			c-2.2-1.3-4.9-1.3-7,0l-113,65.2C1169.6,456.1,1169.6,458.2,1171.1,459z"/>
		
			<linearGradient id="SVGID_37_" gradientUnits="userSpaceOnUse" x1="1171.7001" y1="148.3375" x2="1432.7001" y2="148.3375" gradientTransform="matrix(1 0 0 -1 0 602)">
			<stop  offset="0" style="stop-color:#39B3C2"/>
			<stop  offset="1" style="stop-color:#CAC8F9"/>
		</linearGradient>
		<path class="st37" d="M1432.7,462.8c0-0.7-0.4-1.4-1.1-1.8l-140.4-82.3c-2.1-1.3-4.8-1.3-6.9,0L1172.8,443
			c-0.7,0.4-1.1,1.1-1.1,1.9l0,0v1l0,0c0,0.7,0.4,1.4,1.1,1.9l141.1,80.9c2.1,1.2,4.7,1.2,6.9,0l110.8-63c0.7-0.4,1.1-1.1,1.1-1.9
			l0,0L1432.7,462.8L1432.7,462.8z"/>
		<path class="st38" d="M1422.6,439.2c0-0.7-0.3-1.3-1-1.7l-129.5-75.9c-2-1.2-4.4-1.2-6.4,0l-102.8,59.3c-0.7,0.4-1,1.1-1,1.7l0,0
			v19.9l0,0c0,0.7,0.3,1.3,1,1.7l130.1,74.6c2,1.1,4.4,1.1,6.3,0l102.2-58c0.7-0.4,1-1.1,1-1.7l0,0L1422.6,439.2L1422.6,439.2z"/>
		
			<linearGradient id="SVGID_38_" gradientUnits="userSpaceOnUse" x1="1178" y1="169.25" x2="1426.5" y2="169.25" gradientTransform="matrix(1 0 0 -1 0 602)">
			<stop  offset="0" style="stop-color:#4348AE"/>
			<stop  offset="1" style="stop-color:#39B3C2"/>
		</linearGradient>
		<path class="st39" d="M1426.5,431.6c0-0.7-0.3-1.4-1-1.8l-133.7-78.3c-2-1.2-4.6-1.2-6.6,0L1179,412.7c-0.7,0.4-1,1.1-1,1.8l0,0
			v20.6l0,0c0,0.7,0.3,1.4,1,1.8l134.4,77.1c2,1.2,4.5,1.2,6.5,0l105.5-59.9c0.7-0.4,1-1.1,1-1.8l0,0L1426.5,431.6L1426.5,431.6z"/>
		
			<linearGradient id="SVGID_39_" gradientUnits="userSpaceOnUse" x1="1177.95" y1="179.5" x2="1426.4501" y2="179.5" gradientTransform="matrix(1 0 0 -1 0 602)">
			<stop  offset="0" style="stop-color:#C0C0F6"/>
			<stop  offset="1" style="stop-color:#E7E8FD"/>
		</linearGradient>
		<path class="st40" d="M1179,416.3l134.4,77.1c2,1.2,4.5,1.2,6.5,0l105.5-59.9c1.4-0.8,1.4-2.8,0-3.6l-133.7-78.3
			c-2-1.2-4.6-1.2-6.6,0L1179,412.7C1177.6,413.5,1177.6,415.5,1179,416.3z"/>
		
			<linearGradient id="SVGID_40_" gradientUnits="userSpaceOnUse" x1="1284.2006" y1="204.9282" x2="1302.335" y2="179.1296" gradientTransform="matrix(1 0 0 -1 0 602)">
			<stop  offset="0" style="stop-color:#231069"/>
			<stop  offset="1" style="stop-color:#39B3C2"/>
		</linearGradient>
		<path class="st41" d="M1239,419.3l69,39.5c1,0.6,2.3,0.6,3.3,0l54.2-30.8c0.7-0.4,0.7-1.4,0-1.8l-68.6-40.2c-1-0.6-2.3-0.6-3.4,0
			l-54.5,31.4C1238.3,417.9,1238.3,418.9,1239,419.3z"/>
		<g>
			<path class="st42" d="M1285.5,395.5c0,0-5.5,7.4-8.8,8.5s-10,6.1-11.8,11.8s-0.8,7.3,7.2,6.7c8-0.6,12.7-9.4,13.5-9.9
				c0.8-0.6,6.1-5.9,12.2-8.3s0-13.1,0-13.1L1285.5,395.5z"/>
			<path class="st42" d="M1318.5,412.3l-0.7,5.2c0,0,0.8,8.4,0,9.4s-2.8,12,0.7,16.9c3.4,5,10.2,1.7,13.3-6.3c3.2-8,1.4-21-0.1-24.4
				c-1.6-3.3-2.2-14.7-2.2-14.7L1318.5,412.3z"/>
			<path class="st42" d="M1264.3,305.9c0,0-0.9,21.2,16.1,24.1s38,4.7,38,4.7l8.1,44.6l6.3,20.5v-23.4c0,0-4.1-26.6-4-33.7
				c0.1-7.2-0.1-23.7-0.1-23.7L1264.3,305.9z"/>
			<path class="st43" d="M1263.7,306.3c0,0-0.1,10.3,12.7,8.7c0,0,6.2,11.2,15.9,14c9.6,2.8,30.1,0,30.1,0l3.3,41.6l7.2,29.2
				c0,0-0.1,8-1.1,10.2c0,0-0.3,2.9,0.3,4.7c0,0-4.4,4-14.2,2.9l0.3-23.1c0,0,0-11.6-2.9-16.5c-2.9-5-8.3-18.3-10-25
				c-1.8-6.7-6.1-12.1-7.3-12.8c0,0-1.4,8.8-1.1,14.6s1.8,14,1.8,14s1.7,20.4,1.7,29.7c0,0-1.7,8-10.3,6.5c-8.7-1.5-6.9-11-6.9-11
				s-2.3-22-4.4-25.2s-9.8-24.1-10.6-34.4C1267.2,324,1263.7,306.3,1263.7,306.3z"/>
			<rect x="1295.6" y="243.4" class="st44" width="23.8" height="24.8"/>
			<rect x="1256.6" y="241.4" class="st44" width="23.8" height="24.8"/>
			<polygon class="st45" points="1284,197.6 1280.4,208.2 1281.9,234.9 1298.8,224.2 1314,197.6 1311.3,190.3 1304.5,187.5 
				1300.9,185.4 			"/>
			<path class="st38" d="M1263.5,197.6l10.5-2.9l5.9-0.6h3.6v8.1l0.6,24.9l0.3,14.3h1.3l7.1-16.2l9.3-16.4c0,0,7.8-9.9,8.6-12.9v-5
				l-3.2-1.5l0.2-1.1l4.2,1.5c0,0,0.7,9.3,22.1,21.4c0,0,5.1,2.4,6.9,6.7c0,0-7-5.2-12.9,1.2s-13.7,20.1-16.4,28.3
				c0,0-7.5,2.3-8.8,9.3c0,0,0,2.3-3.6,3.6c0,0-1.5,0.6-1.3,2.3l-22.4-9.8c0,0-1.4-3.9-6.5-4.1l-1.1-1.1l-4.5-0.2v-19
				c0,0,0.3-7.5-1.2-9.3c0,0-2.1-1.5-1.1-7.5C1262,205.7,1263.5,197.6,1263.5,197.6z"/>
			<path class="st46" d="M1280.7,313.3c0,0,3.1,15.7,20.1,14.7s32-2.2,29.7-13.6c-2.3-11.5-21-3.6-21-3.6L1280.7,313.3z"/>
			<path class="st46" d="M1261.1,305.8c0,0,4.3,6.9,10,7.9s7.1-3.1,2.7-7.9C1269.4,301,1261.1,305.8,1261.1,305.8z"/>
			<path class="st47" d="M1325.6,284.7l2.9,4.5c0,0,2.6,15.3,1.8,27c0,0,0.7,4.3-12.2,6.9c-12.9,2.6-33.8,8.4-39.3-11.7
				c0,0-2.4-6.8-6.2-2c-1.9,3.9-17-2.7-18.3-8.3c-1.4-5.6,6.6-29.2,6.6-29.2l37.8,6.1L1325.6,284.7z"/>
			<path class="st43" d="M1286,280.7c0,0,0.8,4.5,10.2,8.5c9.4,4,18.7,6.5,32.3,0l-3.4-18.6l-16.2,7.7l-22.8-1L1286,280.7
				L1286,280.7z"/>
			<path class="st46" d="M1270.6,266.7l-7.7,2.4l0.6,5.3l23.8,7.6l15.2,4.8c0,0,12.8,5.1,19.1-7c0,0,19-28.5,20-50.7l-6.7,2.5
				l-10,22.2l-9.5,12.4c0,0-1.5,5.2-3.3,5.4c-1.8,0.3-9.6,3.3-10.4,3c-0.9-0.3-15-5.5-15-5.5L1270.6,266.7z"/>
			<path class="st47" d="M1340.9,217.9c-0.7-0.5-7.3-4.8-12.8,1.3c-5.9,6.4-13.7,20.1-16.4,28.3c0,0,4.1-0.1,2.5,2.6
				c0,0-2.2,2.1-3,2.6c-0.7,0.4-2.3,0.8-3,1.2c-0.3,0.2-1.1,1.4,0.6,1.3h6.5v3.8h-2.1c0,0,1.1,3.6-2.3,3.6c0,0-3.6,4.9-5.4,3
				c-0.7-0.8-0.1-1.3-3.8-1.8c-3.7-0.4-3.7-1.2-3.7-1.2l-22.4-9.8l-8.1,8.4l-7.8,2.7l1.9,4.6c0,0,24.3,8.3,32,11.9
				c4.8,2.2,12.9,7.3,21-1.9c8.8-10,18.5-18.5,26.5-46.1C1341,232.4,1343.1,222.4,1340.9,217.9z"/>
			<path class="st43" d="M1284.5,241.4l-0.5-19.7c0,0,1.9-2.4,2.2-6.1c0.3-3.7,0.7-6.8-0.4-7.9V207h7.7c0,0,0.7,1.9,2.2,2.5v2.5
				c0,0-2.8-1-2.8,1.5c0,3.8,0,11.8,0,11.8l-7.1,16.2h-1.3V241.4z"/>
			<path class="st43" d="M1281.5,196.8l-5.2,5.8l1.9,30.5c0,0,0.9,8.7,3.6,13.1c0,0-7.4-4.3-7.3-44l6.6-7.4L1281.5,196.8z"/>
			<path class="st43" d="M1286,248.8c0,0,11.4-22.6,25.5-36.5l-1.1-5.3h5.2v-5.2h1.6v7.5h-4.3v1.2h1.5v3.7
				C1314.4,214.1,1289.4,242.8,1286,248.8z"/>
			<path class="st48" d="M1288.1,199.9c0,0-0.2,4.6,0.8,4.7c1,0.2,1.7,1.7,3,1.1c1.3-0.6,7.7-2.6,9.3-3.8c1.6-1.2,6.3-4.1,6.8-6.6
				c0.6-2.4,1-10.6,0.4-12s-5.3-0.5-5.5-0.6s-8.8,0.9-8.8,0.9l-6.9,13.2L1288.1,199.9z"/>
			<path class="st49" d="M1275.1,166.2c0,0,0.5,18.9,2.4,23c2,4.1,2,16.2,11.5,13.5s15.1-13.6,16.3-17.2c0,0,5-0.4,5.4-2.9
				s2.5-5.5,2.5-10.2s-0.1-6.9-0.1-6.9l-12.2-3.1l-5.9-4.3l-17.1,5L1275.1,166.2z"/>
			<path class="st50" d="M1274.2,161.2c0,0-3.2,10.6,5.9,8.1c10.2-2.8,17.2-11.8,18.6-3.3c0,0-0.8,6.6,3.6,9.1
				c0.8,6.2,3.2,7.9,3.4,4.2c0,0-0.4-5,2.2-6.7s5.9,1.1,5.3-6.7c-0.7-7.7-1.1-20.4-19.3-20.9
				C1277.2,145.3,1274.2,161.2,1274.2,161.2z"/>
			<path class="st43" d="M1263.5,197.6c0,0-4.7,6.9-7.1,12.1c-2.4,5.2-11.8,30.2-12.4,32.3s-2.7,5.1-2.8,9.8c-0.1,3.8,0,12.4,0,15.7
				c0,0.8,0.5,1.5,1.2,1.7l41.2,13.5c0.5,0.2,1-0.2,1-0.7v-0.9l-19.5-7.9l2.4-12.1l-6.6-4v-4.6l1-0.9l0.2-2.3l1.8-0.1l0.8-4.3
				l0.7-26.2L1263.5,197.6z"/>
		</g>
		
			<linearGradient id="SVGID_41_" gradientUnits="userSpaceOnUse" x1="1301.45" y1="142.75" x2="1301.45" y2="298.8" gradientTransform="matrix(1 0 0 -1 0 602)">
			<stop  offset="0" style="stop-color:#42E7E1"/>
			<stop  offset="1" style="stop-color:#40E5DF;stop-opacity:0"/>
		</linearGradient>
		<path class="st51" d="M1365.2,303.2h-127.5l0,0v115.2l0,0c0,0.4,0.2,0.7,0.5,0.9l69,39.5c1,0.6,2.3,0.6,3.3,0l54.2-30.8
			c0.4-0.2,0.5-0.6,0.5-0.9l0,0V303.2L1365.2,303.2z"/>
	</g>
</g>
</svg>
