<?xml version="1.0" encoding="utf-8"?>
<!-- Generator: Adobe Illustrator 22.1.0, SVG Export Plug-In . SVG Version: 6.00 Build 0)  -->
<svg version="1.1" id="Layer_1" xmlns="http://www.w3.org/2000/svg" xmlns:xlink="http://www.w3.org/1999/xlink" x="0px" y="0px"
	 viewBox="0 0 540 349.4" style="enable-background:new 0 0 540 349.4;" xml:space="preserve">
<style type="text/css">
	.st0{fill:#FFFFFF;}
	.st1{fill:#E3E3E8;}
	.st2{fill:url(#SVGID_1_);}
	.st3{fill:url(#SVGID_2_);}
	.st4{fill:url(#SVGID_3_);}
	.st5{fill:#261AAB;}
	.st6{fill:#E8EFEF;}
	.st7{fill:#080245;}
	.st8{fill:#FFFFFF;stroke:#E3E3E8;stroke-miterlimit:10;}
	.st9{fill:url(#SVGID_4_);}
	.st10{fill-rule:evenodd;clip-rule:evenodd;fill:#FFFFFF;}
	.st11{fill-rule:evenodd;clip-rule:evenodd;fill:url(#SVGID_5_);}
	.st12{fill-rule:evenodd;clip-rule:evenodd;fill:#080245;}
	.st13{fill-rule:evenodd;clip-rule:evenodd;fill:#FFFFFF;stroke:#E3E3E8;stroke-miterlimit:10;}
	.st14{fill:url(#SVGID_6_);}
	.st15{fill:#A1A9D6;}
	.st16{fill:#F1EFF3;}
	.st17{fill:#F79D56;}
	.st18{fill:#E94C04;}
	.st19{fill:#3FD7D7;}
	.st20{fill:#CCCCD1;}
	.st21{fill:#FFFEFF;}
	.st22{fill:#EE6D32;}
</style>
<g>
	<g>
		<g>
			<g>
				<path class="st0" d="M8,288.7c-4.1,0-7.5-3.3-7.5-7.5v-98.6c0-4.1,3.3-7.5,7.5-7.5h149.1c4.1,0,7.5,3.3,7.5,7.5v98.6
					c0,4.1-3.3,7.5-7.5,7.5H8z"/>
				<path class="st1" d="M157.1,175.7c3.8,0,7,3.1,7,7v98.6c0,3.8-3.1,7-7,7H8c-3.8,0-7-3.1-7-7v-98.6c0-3.8,3.1-7,7-7H157.1
					 M157.1,174.7H8c-4.4,0-8,3.6-8,8v98.6c0,4.4,3.6,8,8,8h149.1c4.4,0,8-3.6,8-8v-98.6C165,178.3,161.5,174.7,157.1,174.7
					L157.1,174.7z"/>
			</g>
		</g>
	</g>
	<g>
		<g>
			<linearGradient id="SVGID_1_" gradientUnits="userSpaceOnUse" x1="7.3838" y1="231.9409" x2="156.6504" y2="231.9409">
				<stop  offset="0" style="stop-color:#3FD7D7"/>
				<stop  offset="1" style="stop-color:#388DDE"/>
			</linearGradient>
			<rect x="7.4" y="183.8" class="st2" width="149.3" height="96.3"/>
		</g>
	</g>
	<g>
		<g>
			<g>
				<path class="st0" d="M78.3,299.5c-3.8,0-6.9-2.2-6.9-4.9c0-2.7,3.1-4.9,6.9-4.9h144.9c2.7,0,4.9,2.2,4.9,4.9
					c0,2.7-2.2,4.9-4.9,4.9H78.3z"/>
				<path class="st1" d="M223.2,290.2c2.4,0,4.4,2,4.4,4.4c0,2.4-2,4.4-4.4,4.4H78.3c-3.5,0-6.4-2-6.4-4.4c0-2.4,3-4.4,6.4-4.4
					H223.2 M223.2,289.2H78.3c-4.1,0-7.4,2.4-7.4,5.4c0,3,3.4,5.4,7.4,5.4h144.9c3,0,5.4-2.4,5.4-5.4S226.2,289.2,223.2,289.2
					L223.2,289.2z"/>
			</g>
		</g>
	</g>
	<g>
		<linearGradient id="SVGID_2_" gradientUnits="userSpaceOnUse" x1="121.5999" y1="290.971" x2="173.3162" y2="290.971">
			<stop  offset="0" style="stop-color:#3FD7D7"/>
			<stop  offset="1" style="stop-color:#388DDE"/>
		</linearGradient>
		<path class="st3" d="M173.3,289.2v0.5c0,1.7-1.4,3.1-3.1,3.1h-45.6c-1.7,0-3-1.4-3-3.1v-0.5H173.3z"/>
	</g>
	<g>
		<g>
			<linearGradient id="SVGID_3_" gradientUnits="userSpaceOnUse" x1="1.2151" y1="294.5775" x2="87.073" y2="294.5775">
				<stop  offset="0" style="stop-color:#3FD7D7"/>
				<stop  offset="1" style="stop-color:#388DDE"/>
			</linearGradient>
			<path class="st4" d="M87.1,294.6c0,3-2.6,5.4-5.8,5.4H7c-3.2,0-5.8-2.4-5.8-5.4c0-3,2.6-5.4,5.8-5.4h74.2
				C84.5,289.2,87.1,291.6,87.1,294.6z"/>
		</g>
	</g>
	<path class="st5" d="M57.4,294.6h-6.9c-0.6,0-1.1-0.5-1.1-1.1l0,0c0-0.6,0.5-1.1,1.1-1.1h6.9c0.6,0,1.1,0.5,1.1,1.1l0,0
		C58.4,294.2,58,294.6,57.4,294.6z"/>
	<path class="st5" d="M74.4,294.6h-6.9c-0.6,0-1.1-0.5-1.1-1.1l0,0c0-0.6,0.5-1.1,1.1-1.1h6.9c0.6,0,1.1,0.5,1.1,1.1l0,0
		C75.4,294.2,74.9,294.6,74.4,294.6z"/>
	<g>
		<g>
			<rect x="129.4" y="318" class="st6" width="83.4" height="1.9"/>
		</g>
		<g>
			<rect x="141.7" y="307.5" class="st6" width="184.6" height="1.9"/>
		</g>
		<g>
			<rect x="243.7" y="318" class="st6" width="28.3" height="1.9"/>
		</g>
		<g>
			<rect x="97.5" y="318" class="st6" width="16.8" height="1.9"/>
		</g>
		<g>
			<rect x="323" y="347.5" class="st6" width="48.9" height="1.9"/>
		</g>
		<g>
			<rect x="390.1" y="347.5" class="st6" width="16.6" height="1.9"/>
		</g>
		<g>
			<rect x="304.3" y="347.5" class="st6" width="9.8" height="1.9"/>
		</g>
		<g>
			<g>
				<rect x="471.1" y="320.5" class="st6" width="28.5" height="1.9"/>
			</g>
			<g>
				<rect x="510.2" y="320.5" class="st6" width="9.7" height="1.9"/>
			</g>
			<g>
				<rect x="460.2" y="320.5" class="st6" width="5.7" height="1.9"/>
			</g>
		</g>
		<g>
			<g>
				<rect x="457.5" y="336.3" class="st6" width="22.3" height="1.9"/>
			</g>
			<g>
				<rect x="490.4" y="336.3" class="st6" width="9.7" height="1.9"/>
			</g>
		</g>
		<g>
			<g>
				<rect x="396" y="308.5" class="st6" width="118.5" height="1.9"/>
			</g>
		</g>
	</g>
	<g id="XMLID_6_">
		<g id="XMLID_7_">
			<g>
				<g>
					<path class="st7" d="M300,179.6c-0.1-1.1-1.2-2.2-2.3-2.4l-4.4-0.8c-1.1-0.2-2.3-1.2-2.7-2.3l-1.8-4.3c-0.5-1-0.4-2.6,0.3-3.5
						l2.6-3.6c0.7-0.9,0.6-2.4,0-3.3l-2.3-2.8c-0.8-0.8-2.2-1.1-3.2-0.6l-4,2c-1,0.5-2.6,0.3-3.5-0.3c0,0-0.7-0.5-2-1.3
						c-1.3-0.8-2-1.2-2-1.2c-1-0.5-1.8-1.8-1.8-3l0-4.5c0-1.1-0.9-2.3-2-2.6l-3.5-0.9c-1.1-0.2-2.4,0.4-3,1.4l-0.7,1.3l-0.8,1.5
						l-0.6,1.1c-0.5,1-1.9,1.8-3,1.8l-1.7,0.1l-0.8,0.1l-2.2,0.2c-1.1,0.2-2.6-0.5-3.2-1.4l-2.6-3.6c-0.7-0.9-2.1-1.4-3.1-1
						l-3.4,1.4c-1,0.5-1.7,1.8-1.6,2.9l0.6,4.4c0.2,1.1-0.5,2.6-1.4,3.2l-3.6,3c-0.8,0.8-2.3,1.1-3.4,0.8l-4.2-1.4
						c-1.1-0.3-2.5,0.1-3.2,1c0,0-0.3,0.4-1,1.5c-0.7,1.1-0.9,1.6-0.9,1.6c-0.5,1-0.3,2.5,0.5,3.3l3.1,3.2c0.8,0.8,1.1,2.4,0.8,3.4
						l-1.1,4.6c-0.2,1.1-1.2,2.3-2.3,2.6l-4.2,1.4c-1.1,0.4-1.9,1.6-1.9,2.7l0.3,3.7c0.1,1.1,1.2,2.2,2.3,2.4l4.4,0.8
						c1.1,0.2,2.3,1.2,2.7,2.3l1.8,4.3c0.5,1,0.4,2.6-0.3,3.5l-2.6,3.6c-0.7,0.9-0.6,2.4,0.1,3.3l2.3,2.8c0.8,0.8,2.2,1.1,3.2,0.6
						l4-2c1-0.5,2.6-0.3,3.5,0.3c0,0,0.7,0.5,2,1.3c1.3,0.8,2,1.2,2,1.2c1,0.5,1.8,1.8,1.8,2.9l0,4.4c0,1.1,0.9,2.3,2,2.6l3.5,0.9
						c1.1,0.2,2.4-0.4,3-1.4l2.1-3.9c0.5-1,1.9-1.8,3-1.8l4.7-0.3c1.1-0.2,2.6,0.5,3.2,1.4l2.6,3.6c0.7,0.9,2.1,1.4,3.1,1l3.4-1.4
						c1-0.5,1.7-1.8,1.6-2.9l-0.6-4.4c-0.2-1.1,0.5-2.6,1.4-3.2l3.6-3c0.8-0.8,2.4-1.1,3.4-0.8l4.2,1.3c1.1,0.4,2.5-0.1,3.1-1
						c0,0,0.3-0.4,1-1.5c0.7-1.1,0.9-1.6,0.9-1.6c0.5-1,0.3-2.5-0.5-3.3l-3.1-3.2c-0.8-0.8-1.2-2.4-0.8-3.4l1.1-4.5
						c0.2-1.1,1.2-2.3,2.3-2.7l4.2-1.4c1.1-0.4,1.9-1.6,1.9-2.7L300,179.6z M279,196.6c-6.7,10.8-21,14.1-31.8,7.4
						c-10.8-6.7-14.2-21-7.4-31.8c3.8-6.2,10.1-9.9,16.8-10.7c0.8-0.1,1.5-0.1,2.3-0.1c0.7,0,1.4,0,2.1,0.1c0.8,0,1.5,0.1,2.3,0.3
						c2.8,0.5,5.6,1.5,8.2,3.1C282.4,171.5,285.8,185.7,279,196.6z M259.4,208.4c-4.3,0-8.7-1.2-12.7-3.6
						c-11.3-7-14.7-21.9-7.7-33.1c3.8-6.2,10.2-10.3,17.5-11.2c0.8-0.1,1.6-0.1,2.4-0.1c0.7,0,1.5,0,2.2,0.1c0.8,0,1.6,0.1,2.4,0.3
						c3,0.5,5.9,1.6,8.5,3.3c11.3,7,14.7,21.8,7.7,33.1l0,0C275.3,204.4,267.4,208.4,259.4,208.4z M258.9,162.3
						c-0.8,0-1.4,0-2.1,0.1c-6.7,0.8-12.6,4.6-16.1,10.3c-6.4,10.4-3.3,24,7.1,30.5c10.4,6.4,24.1,3.3,30.5-7.1
						c6.4-10.4,3.2-24.1-7.1-30.5c-2.5-1.5-5.1-2.5-7.9-3c-0.7-0.1-1.5-0.2-2.2-0.2c-0.7-0.1-1.4-0.1-2-0.1
						C259,162.3,258.9,162.3,258.9,162.3z"/>
				</g>
			</g>
		</g>
	</g>
	<g id="XMLID_1_">
		<g id="XMLID_2_">
			<g>
				<g>
					<path class="st8" d="M268.1,170.4c-1.5-1-3.2-1.6-4.9-2c-2.3-0.5-4.6-0.6-6.8-0.2c-4.4,0.8-8.5,3.4-11,7.5
						c-4.8,7.7-2.4,17.9,5.3,22.7c7.7,4.8,17.9,2.4,22.7-5.3C278.2,185.4,275.8,175.2,268.1,170.4z M264.5,187.5
						c-1.7,2.8-5.4,3.7-8.2,1.9c-2.8-1.7-3.6-5.4-1.9-8.2c0.5-0.7,1.1-1.4,1.8-1.8c1.9-1.2,4.3-1.3,6.4-0.1c0.1,0.1,0.3,0.2,0.4,0.3
						C265.4,181.4,266.1,184.9,264.5,187.5z M259.4,191.3c-1.3,0-2.5-0.4-3.6-1c-3.2-2-4.2-6.3-2.2-9.5c0.6-0.9,1.3-1.6,2.1-2.1
						c2.2-1.4,5.1-1.5,7.4-0.1c0.2,0.1,0.4,0.2,0.5,0.3c2.8,2.1,3.6,6.1,1.7,9.1c0,0,0,0,0,0c-1,1.6-2.5,2.7-4.3,3.1
						C260.4,191.2,259.9,191.3,259.4,191.3z M259.4,179.4c-1,0-1.9,0.3-2.7,0.8c-0.6,0.4-1.1,0.9-1.5,1.5c-1.4,2.3-0.7,5.4,1.6,6.9
						c1.1,0.7,2.4,0.9,3.7,0.6c1.3-0.3,2.4-1.1,3.1-2.2c1.4-2.2,0.8-5.1-1.3-6.6c0,0-0.1-0.1-0.1-0.1c-0.1-0.1-0.1-0.1-0.1-0.1
						C261.3,179.7,260.3,179.4,259.4,179.4z"/>
				</g>
			</g>
		</g>
	</g>
	<g>
		<g>
			<g>
				<g>
					<g>
						<path class="st7" d="M453.6,287.3c0-8.9,0-21.9,0-21.9h-59.3c0,0,0,13,0,21.9c0,4.1-13,7.9-27.1,10.8
							c-3.2,0.7-2.8,5.4,0.5,5.4h112.3c3.3,0,3.8-4.8,0.5-5.4C466.6,295.2,453.6,291.4,453.6,287.3z"/>
					</g>
				</g>
			</g>
		</g>
	</g>
	<g>
		<g>
			<g>
				<g>
					<g>
						<g>
							<path class="st0" d="M308.4,257.9V118.8c0-3.6,2.9-6.5,6.4-6.5h218.4c3.5,0,6.4,2.9,6.4,6.5v139.1H308.4z"/>
							<path class="st1" d="M533.1,112.8c3.2,0,5.9,2.7,5.9,6v138.6H308.9V118.8c0-3.3,2.6-6,5.9-6H533.1 M533.1,111.8H314.7
								c-3.8,0-6.9,3.1-6.9,7v139.6H540V118.8C540,114.9,536.9,111.8,533.1,111.8L533.1,111.8z"/>
						</g>
					</g>
				</g>
			</g>
		</g>
	</g>
	<g>
		<g>
			<g>
				<g>
					<g>
						<linearGradient id="SVGID_4_" gradientUnits="userSpaceOnUse" x1="319.028" y1="184.5533" x2="529.1365" y2="184.5533">
							<stop  offset="0" style="stop-color:#3FD7D7"/>
							<stop  offset="1" style="stop-color:#388DDE"/>
						</linearGradient>
						<rect x="319" y="122.1" class="st9" width="210.1" height="124.9"/>
					</g>
				</g>
			</g>
		</g>
	</g>
	<g>
		<g>
			<g>
				<g>
					<g>
						<path class="st0" d="M312.9,273c-3.5,0-6.4-2.9-6.4-6.6v-8.6h233v8.6c0,3.6-2.9,6.6-6.4,6.6H312.9z"/>
						<path class="st1" d="M539,258.3v8.1c0,3.3-2.7,6.1-5.9,6.1H312.9c-3.3,0-5.9-2.7-5.9-6.1v-8.1H539 M540,257.3H306v9.1
							c0,3.9,3.1,7.1,6.9,7.1h220.2c3.8,0,6.9-3.2,6.9-7.1V257.3L540,257.3z"/>
					</g>
				</g>
			</g>
		</g>
	</g>
	<g>
		<g>
			<g>
				<g>
					<g>
						<g>
							<g>
								<path class="st10" d="M308.1,89.7c-4.1,0-7.5-3.4-7.5-7.5V8c0-4.1,3.4-7.5,7.5-7.5h33c4.1,0,7.5,3.4,7.5,7.5v74.2
									c0,4.1-3.4,7.5-7.5,7.5H308.1z"/>
								<path class="st1" d="M341.1,1c3.9,0,7,3.1,7,7v74.2c0,3.9-3.1,7-7,7h-33c-3.9,0-7-3.1-7-7V8c0-3.9,3.1-7,7-7H341.1 M341.1,0
									h-33c-4.4,0-8,3.6-8,8v74.2c0,4.4,3.6,8,8,8h33c4.4,0,8-3.6,8-8V8C349.1,3.6,345.5,0,341.1,0L341.1,0z"/>
							</g>
						</g>
					</g>
				</g>
			</g>
		</g>
		<g>
			<g>
				<g>
					<g>
						<g>
							<linearGradient id="SVGID_5_" gradientUnits="userSpaceOnUse" x1="304.2046" y1="45.0107" x2="344.9799" y2="45.0107">
								<stop  offset="0" style="stop-color:#3FD7D7"/>
								<stop  offset="1" style="stop-color:#388DDE"/>
							</linearGradient>
							<rect x="304.2" y="9.3" class="st11" width="40.8" height="71.4"/>
						</g>
					</g>
				</g>
			</g>
		</g>
		<g>
			<g>
				<g>
					<g>
						<path class="st12" d="M324.6,4.7c0.5,0,0.9,0.4,0.9,0.9c0,0.5-0.4,0.9-0.9,0.9c-0.5,0-0.9-0.4-0.9-0.9
							C323.7,5.1,324.1,4.7,324.6,4.7z"/>
					</g>
				</g>
			</g>
		</g>
	</g>
	<g>
		<g>
			<g>
				<g>
					<g>
						<g>
							<path class="st13" d="M194.4,190.2c21.8,0,40.7,12.6,49.9,30.9c5.6-2.7,11.8-4.2,18.4-4.2c17.5,0,32.5,10.6,38.9,25.8
								c6-5.4,13.9-8.7,22.6-8.7c18.6,0,33.8,15.1,33.8,33.8c0,18.6-15.1,33.8-33.8,33.8H194.4c-30.7,0-55.7-24.9-55.7-55.7
								S163.7,190.2,194.4,190.2z"/>
						</g>
					</g>
				</g>
			</g>
		</g>
	</g>
	<g>
		<g>
			<g>
				<g>
					<g>
						<g>
							<g>
								<path class="st10" d="M194.4,301c-30.4,0-55.2-24.7-55.2-55.2s24.7-55.2,55.2-55.2c13.5,0,26.2,4.8,36,13.3
									c-6.9-5.1-15.3-8.2-24.4-8.2c-10.8,0-22.2,4.7-29.8,12.3c-7.8,7.8-12.8,19.8-12.3,29.8C165,261.6,183.4,280,206,280
									c10.8,0,22.2-4.7,29.8-12.3c7.8-7.8,12.8-19.8,12.3-29.8c-0.3-5.8-1.6-11.3-3.7-16.3l0.2-0.1c5.7-2.7,11.8-4.1,18.2-4.1
									c6.3,0,12.5,1.4,18.2,4.2c-1-0.1-2-0.2-3-0.2c-6.5,0-12.9,2.9-17.7,7.8c-4.4,4.6-6.7,10.4-6.5,16.3
									c0.6,13.5,11.2,24.1,24.1,24.1c6.5,0,12.9-2.9,17.7-7.8c4.4-4.6,6.7-10.4,6.5-16.3c0-0.7-0.1-1.5-0.2-2.2l0.2-0.2
									c6.1-5.5,14-8.6,22.3-8.6c2,0,3.9,0.2,5.8,0.5c-3.6,0.8-7,2.7-9.6,5.6c-3,3.3-4.6,7.4-4.4,11.6c0.4,9.8,8.1,17.5,17.5,17.5
									c4.7,0,9.4-2.1,12.8-5.7c3.2-3.4,4.9-7.6,4.7-11.9c-0.1-1.8-0.4-3.5-1-5.2c4.8,5.9,7.4,13.2,7.4,20.9
									c0,18.3-14.9,33.3-33.3,33.3H194.4z"/>
								<path class="st1" d="M194.4,191.2c9.9,0,19.3,2.6,27.5,7.4c-4.9-2.1-10.3-3.2-15.9-3.2c-10.9,0-22.4,4.8-30.1,12.5
									c-7.9,7.9-12.9,20-12.5,30.2c1.1,23.9,19.8,42.5,42.6,42.5c10.9,0,22.4-4.8,30.1-12.5c7.9-7.9,12.9-20,12.5-30.2
									c-0.3-5.7-1.5-11.1-3.6-16c5.5-2.6,11.5-4,17.7-4c5.3,0,10.5,1,15.4,3c-0.1,0-0.2,0-0.2,0c-6.6,0-13.2,2.9-18,8
									c-4.5,4.7-6.9,10.7-6.6,16.7c0.6,13.8,11.4,24.6,24.6,24.6c6.6,0,13.2-2.9,18-8c4.5-4.7,6.9-10.7,6.6-16.7
									c0-0.7-0.1-1.3-0.2-2l0,0c6-5.4,13.8-8.4,21.9-8.4c1.2,0,2.3,0.1,3.5,0.2c-2.8,1-5.5,2.8-7.6,5.1c-3.1,3.4-4.7,7.6-4.5,11.9
									c0.5,10.1,8.4,18,18,18c4.8,0,9.6-2.1,13.2-5.8c3.3-3.5,5-7.8,4.8-12.2c0-0.9-0.2-1.9-0.3-2.8c3.7,5.4,5.7,11.8,5.7,18.5
									c0,18.1-14.7,32.8-32.8,32.8H194.4c-30.1,0-54.7-24.5-54.7-54.7S164.3,191.2,194.4,191.2 M194.4,190.2
									c-30.7,0-55.7,24.9-55.7,55.7c0,30.7,24.9,55.7,55.7,55.7h129.8c18.6,0,33.8-15.1,33.8-33.8c0-9.1-3.6-17.4-9.5-23.5
									c1.2,2.4,2,5,2.1,7.8c0.4,9.2-8.1,17-17,17c-9.5,0-16.6-7.8-17-17c-0.4-9,7.7-16.6,16.4-17c-2.8-0.7-5.7-1.1-8.7-1.1
									c-8.7,0-16.6,3.3-22.6,8.7c-0.3-0.6-0.5-1.2-0.8-1.7c0.3,1.5,0.5,3,0.6,4.6c0.6,12.8-11.3,23.6-23.6,23.6
									c-13.2,0-23.1-10.8-23.6-23.6c-0.6-12.8,11.3-23.6,23.6-23.6c2.2,0,4.3,0.3,6.3,0.9c-6.3-3.7-13.6-5.8-21.4-5.8
									c-6.6,0-12.8,1.5-18.4,4.2C235.2,202.8,216.3,190.2,194.4,190.2L194.4,190.2z M206,279.5c-23.3,0-40.6-19.1-41.6-41.6
									c-0.5-10.4,5-22.2,12.2-29.4c7.5-7.5,18.7-12.2,29.4-12.2c23.3,0,40.6,19.1,41.6,41.6c0.5,10.4-5,22.2-12.2,29.4
									C227.8,274.9,216.6,279.5,206,279.5L206,279.5z"/>
							</g>
						</g>
					</g>
				</g>
			</g>
		</g>
	</g>
	<g>
		<g>
			<g>
				<g>
					<g>
						<g>
							<g>
								<path class="st0" d="M107.1,137.3c-5.1,0-9.3-4.2-9.3-9.3V62c0-5.1,4.2-9.3,9.3-9.3h115.5c5.1,0,9.3,4.2,9.3,9.3v66
									c0,5.1-4.2,9.3-9.3,9.3H107.1z"/>
								<path class="st1" d="M222.6,53.1c4.9,0,8.8,4,8.8,8.8v66c0,4.9-4,8.8-8.8,8.8H107.1c-4.9,0-8.8-4-8.8-8.8V62
									c0-4.9,4-8.8,8.8-8.8H222.6 M222.6,52.1H107.1c-5.4,0-9.8,4.4-9.8,9.8v66c0,5.4,4.4,9.8,9.8,9.8h115.5
									c5.4,0,9.8-4.4,9.8-9.8V62C232.5,56.5,228.1,52.1,222.6,52.1L222.6,52.1z"/>
							</g>
						</g>
					</g>
				</g>
			</g>
		</g>
		<g>
			<g>
				<g>
					<g>
						<g>
							<linearGradient id="SVGID_6_" gradientUnits="userSpaceOnUse" x1="106.7187" y1="95.4686" x2="219.9918" y2="95.4686">
								<stop  offset="0" style="stop-color:#3FD7D7"/>
								<stop  offset="1" style="stop-color:#388DDE"/>
							</linearGradient>
							<rect x="106.7" y="59.2" class="st14" width="113.3" height="72.5"/>
						</g>
					</g>
				</g>
			</g>
		</g>
	</g>
	<g>
		<g>
			<path class="st15" d="M292,268.5c4.6,0,8.3-3.7,8.3-8.3c0-4.6-3.7-8.3-8.3-8.3c-4.6,0-8.3,3.7-8.3,8.3
				C283.7,264.8,287.4,268.5,292,268.5z"/>
		</g>
	</g>
	<g>
		<g>
			<circle class="st16" cx="406.2" cy="190.8" r="8.3"/>
		</g>
	</g>
	<g>
		<g>
			<circle class="st16" cx="325.8" cy="42.2" r="8.3"/>
		</g>
	</g>
	<g>
		<g>
			<path class="st15" d="M189.4,248.5c-4.6,0-8.3-3.7-8.3-8.3c0-4.6,3.7-8.3,8.3-8.3c4.6,0,8.3,3.7,8.3,8.3
				C197.6,244.8,193.9,248.5,189.4,248.5z"/>
		</g>
	</g>
	<g>
		<g>
			<path class="st16" d="M75.2,248.5c-4.6,0-8.3-3.7-8.3-8.3c0-4.6,3.7-8.3,8.3-8.3c4.6,0,8.3,3.7,8.3,8.3
				C83.4,244.8,79.7,248.5,75.2,248.5z"/>
		</g>
	</g>
	<g>
		<g>
			<path class="st16" d="M155.6,104.2c-4.6,0-8.3-3.7-8.3-8.3c0-4.6,3.7-8.3,8.3-8.3c4.6,0,8.3,3.7,8.3,8.3
				C163.8,100.5,160.1,104.2,155.6,104.2z"/>
		</g>
	</g>
	<g>
		<g>
			<path class="st7" d="M168,273.9H97.8c-13.5,0-24.5-11-24.5-24.5v-11.2c0-1,0.8-1.9,1.9-1.9c1,0,1.9,0.8,1.9,1.9v11.2
				c0,11.4,9.3,20.7,20.7,20.7H168c10.7,0,19.5-8.7,19.5-19.5v-12.5c0-1,0.8-1.9,1.9-1.9c1,0,1.9,0.8,1.9,1.9v12.5
				C191.3,263.5,180.8,273.9,168,273.9z"/>
		</g>
	</g>
	<g>
		<g>
			<path class="st7" d="M189.4,240.2h-12.5c-12.8,0-23.3-10.4-23.3-23.3V95.9c0-1,0.8-1.9,1.9-1.9s1.9,0.8,1.9,1.9V217
				c0,10.7,8.7,19.5,19.5,19.5h12.5c1,0,1.9,0.8,1.9,1.9C191.3,239.4,190.4,240.2,189.4,240.2z"/>
		</g>
	</g>
	<g>
		<g>
			<path class="st7" d="M383.6,293.9h-70.2c-12.8,0-23.3-10.4-23.3-23.3v-10.4c0-1,0.8-1.9,1.9-1.9s1.9,0.8,1.9,1.9v10.4
				c0,10.7,8.7,19.5,19.5,19.5h70.2c11.4,0,20.7-9.3,20.7-20.7v-80.3c0-1,0.8-1.9,1.9-1.9c1,0,1.9,0.8,1.9,1.9v80.3
				C408.1,282.9,397.1,293.9,383.6,293.9z"/>
		</g>
	</g>
	<g>
		<g>
			<path class="st7" d="M304.4,262.1H292c-1,0-1.9-0.8-1.9-1.9c0-1,0.8-1.9,1.9-1.9h12.5c10.7,0,19.5-8.7,19.5-19.5V42.2
				c0-1,0.8-1.9,1.9-1.9s1.9,0.8,1.9,1.9v196.6C327.7,251.7,317.3,262.1,304.4,262.1z"/>
		</g>
	</g>
	<path class="st17" d="M336.5,263.4c-3.3-1.6-4.2-5.4-4.6-5.6c-0.1-0.1-0.2-0.2-0.5,0.1c-0.9,0.8,0.3,4.6,0.6,5.3
		c-1.6,0.1-2.1,0.1-3.8,0c-2.7-0.2-6,0.8-4.8,3.4c0.9,1.8,1.2,2.1,6.3,2.1c0.8,0,4.2-0.3,5.9-0.3L336.5,263.4z"/>
	<g>
		<g>
			<path class="st18" d="M334.8,269c2.1,0.9,16.7,0.1,22.7,0c1.7,0,5.3-2.1,5.8-3.7c1.9-6.1,6.1-15.3,3.7-25
				c-0.4-1.7-4.6-2.6-6.9-0.7c-4.5,3.7-4.5,20.8-4.5,20.8s-13.2,0.4-19.7,1.6C333.4,262.3,332.4,268,334.8,269z"/>
		</g>
	</g>
	<g>
		<g>
			<path class="st0" d="M332.3,328.7c-2.1-0.6-4.5-0.8-4.7-0.8c0,0-10.8,2.2-15.4,0.9c-2-0.5-3.8,3.2,0.7,4.5
				c8.3,2.3,14.8,2.7,14.8,2.7l-0.1,1.4c0,0,5.8,1.6,5.8,1.6c0.2-0.9,2.2-2.9,2.7-4.9C336.8,332.4,335.4,329.5,332.3,328.7z"/>
		</g>
	</g>
	<g>
		<path class="st7" d="M381.3,280.5c-0.4-1.9-1.9-6.2-3.1-7.5l-19.5,2.1c0,0-0.9,3-1.1,6.6c-7.6,2.7-14.3,7.8-19.3,11.3
			c0,0-1.8,1.3-1.8,1.3c-1.4,0.8-2.4,2.1-2.7,3.6c-1.3,7.3-3.7,22.9-6.1,29c-0.9,2.3,2.5,6.2,7.9,6.2c2.3,0,8.8-25.4,8.3-30.3
			c0,0,13.3-3.8,21.4-9.1c3.2,0.8,6.5,0.7,7.4,0.5c3.1-0.7,5.5-2.6,7.1-5C381.4,286.6,382,283.6,381.3,280.5z"/>
	</g>
	<g>
		<g>
			<path class="st0" d="M399.6,337.4c-0.2,0-0.4,0-0.6,0.1c-0.1,0-5.8,1.4-5.9,1.4c0,0-8.5,4.1-13.3,4.1c-2,0-2.8,4.1,1.9,4.1
				c8.7,0,15-1.5,15-1.5l0.3,1.4c0,0,6,0,6,0c0-0.9,1.3-3.4,1.3-5.5C404.3,339.8,402.3,337.4,399.6,337.4z"/>
		</g>
	</g>
	<g>
		<path class="st7" d="M373,282.8c2.1-2.4,12.2-3.1,12.5,0c1.7,14.7-4.8,26.6-4.8,29.8c11.2,7.2,16.5,18.9,21.1,25.4
			c0.6,0.9-6.8,3.2-11,1.8c0,0-12.7-15.2-20-22c-1.1-1-1.5-2.7-1.2-4.3C369.5,313.4,368,288.6,373,282.8z"/>
	</g>
	<g>
		<g>
			<path class="st19" d="M384.9,248c0-5.2-5-10.2-8.2-10.6c-5.4,0.8-12.8,0.2-14.5,1c-3.5,1.6-4.8,7.4-5.1,11.2
				c-0.6,8.8,0,22.4-0.9,32.2c-0.6,5.8,30.7,8.6,30.7,5.2C386.8,274.2,384.9,253.8,384.9,248z"/>
		</g>
	</g>
	<g>
		<g>
			<g>
				<path class="st20" d="M369.3,263.5c0,0.7-0.6,1.3-1.4,1.3h-28.2c-0.8,0-1.4-0.6-1.4-1.3c0-0.7,0.6-1.3,1.4-1.3h28.2
					C368.7,262.2,369.3,262.8,369.3,263.5z"/>
			</g>
		</g>
		<g>
			<g>
				<path class="st0" d="M309.5,237.1v23.2c0,1,0.8,1.9,1.9,1.9h35.1c1,0,1.9-0.8,1.9-1.9v-23.2c0-1-0.8-1.9-1.9-1.9h-35.1
					C310.3,235.3,309.5,236.1,309.5,237.1z"/>
			</g>
		</g>
		<g>
			<g>
				<path class="st0" d="M346.3,263.5c0-0.7-0.6-1.3-1.3-1.3h-34.1c-1,0-1.4,0.6-1.4,1.3c0,0.7,0.4,1.3,1.4,1.3H345
					C345.7,264.8,346.3,264.2,346.3,263.5L346.3,263.5z"/>
			</g>
		</g>
	</g>
	<g>
		<g>
			<path class="st7" d="M359.5,218.7c-13.1-2.8-3.7-11.2-3.7-11.2s0.3,3.1,2.8,2.1c4.8-1.9,15.4-3.2,18.3,3.2
				c2.3,4.9-1.9,15.7-2.7,18.5c-1.3-0.8-0.2-13.5-5.6-13C365.7,218.6,362.4,219.3,359.5,218.7z"/>
		</g>
	</g>
	<path class="st17" d="M368.7,218.3c-2.9,0.3-6.3,1-9.1,0.4c-1.6-0.4-2.9-0.8-3.9-1.3c0,0.1,0,0.3,0,0.4c0.2,2.4-0.2,4.2-0.3,7.8
		c-0.1,3,3,8.2,6.2,9.1c0.3,0.1,1,0.3,1.3,0.3c1,0.2,2.1,0,3.3-0.3l0.2,4h8.4l-0.5-7.4C372.9,230.5,374,217.8,368.7,218.3z"/>
	<g>
		<path class="st21" d="M361.5,232.3c-2.7-0.1-1-4.5,0.1-4.5C362.6,227.8,364.2,232.4,361.5,232.3z"/>
	</g>
	<g>
		<path class="st21" d="M365.7,239.7c0.3-0.3,1.2-1,1.2-1.3c0.7-0.1,0.6,0.2,1.6,0.1c-2.7,2.5-1.1,6.5-2.2,10.2
			c-1.3,1.9-2.5,3.9-3.1,6.1c-0.6-0.6-0.8-4.8-0.3-8.8C362.9,245.5,363.5,242.2,365.7,239.7z"/>
	</g>
	<path class="st21" d="M365.4,240.3c0.3,0.4,1.8,0.7,2.2,0.3c0.4-0.3,0.9-2,0.9-2l-3.3-0.5C365.1,238.2,365,239.9,365.4,240.3z"/>
	<polygon class="st21" points="370.1,241.8 376.7,237.4 374.5,234.9 366.6,238.5 	"/>
	<polygon class="st21" points="364.4,240 364.8,238.5 366.1,237.2 366.6,238.3 	"/>
	<path class="st17" d="M351.7,268.1c-2.4-2.8-1.8-6.6-2-7c-0.1-0.1-0.1-0.3-0.5-0.1c-1.2,0.4-1.5,4.4-1.5,5.1
		c-1.5-0.6-1.9-0.7-3.5-1.5c-2.4-1.2-5.8-1.6-5.7,1.2c0.1,2,0.3,2.4,4.9,4.4c0.7,0.3,4,1.3,5.6,2.1L351.7,268.1z"/>
	<g>
		<path class="st22" d="M349.4,273.3c2.1,0.9,16.7,0.1,22.7,0c1.7,0,5.3-2.1,5.8-3.7c1.9-6.1,6.1-15.3,3.7-25
			c-0.4-1.7-5.8-2.9-7.4-1.7c-4.6,3.6-4,21.7-4,21.7s-13.2,0.4-19.7,1.6C348,266.7,346.9,272.3,349.4,273.3z"/>
	</g>
</g>
</svg>
