<?xml version="1.0" encoding="utf-8"?>
<!-- Generator: Adobe Illustrator 22.1.0, SVG Export Plug-In . SVG Version: 6.00 Build 0)  -->
<svg version="1.1" id="Layer_1" xmlns="http://www.w3.org/2000/svg" xmlns:xlink="http://www.w3.org/1999/xlink" x="0px" y="0px"
	 viewBox="0 0 160 141.1" style="enable-background:new 0 0 160 141.1;" xml:space="preserve">
<style type="text/css">
	.st0{opacity:0.8;fill:url(#SVGID_1_);}
	.st1{fill:url(#SVGID_2_);}
	.st2{fill:#42E5E0;}
	.st3{opacity:0.8;}
	.st4{opacity:0.8;fill:url(#SVGID_3_);}
	.st5{fill:url(#SVGID_4_);}
	.st6{opacity:0.5;}
	.st7{opacity:0.8;fill:url(#SVGID_5_);}
	.st8{fill:url(#SVGID_6_);}
	.st9{opacity:0.3;}
	.st10{opacity:0.8;fill:url(#SVGID_7_);}
	.st11{fill:url(#SVGID_8_);}
	.st12{opacity:0.8;fill:url(#SVGID_9_);}
	.st13{fill:url(#SVGID_10_);}
	.st14{opacity:0.8;fill:url(#SVGID_11_);}
	.st15{opacity:0.8;fill:url(#SVGID_12_);}
	.st16{fill:url(#SVGID_13_);}
	.st17{fill:#080245;}
	.st18{opacity:0.6;fill:#43E4DF;}
	.st19{fill:url(#SVGID_14_);}
	.st20{fill:#43E4DF;}
	.st21{fill:url(#SVGID_15_);}
	.st22{opacity:0.8;fill:url(#SVGID_16_);}
	.st23{opacity:0.8;fill:url(#SVGID_17_);}
	.st24{fill:url(#SVGID_18_);}
	.st25{fill:url(#SVGID_19_);}
	.st26{fill:url(#SVGID_20_);}
	.st27{fill:url(#SVGID_21_);}
	.st28{fill:url(#SVGID_22_);}
	.st29{fill:url(#SVGID_23_);}
	.st30{fill:url(#SVGID_24_);}
	.st31{fill:url(#SVGID_25_);}
</style>
<g>
	<g>
		<g>
			
				<radialGradient id="SVGID_1_" cx="-18.3558" cy="13.5518" r="3.3054" gradientTransform="matrix(2.4074 0 0 1.2963 156.9259 16.7407)" gradientUnits="userSpaceOnUse">
				<stop  offset="0" style="stop-color:#42E7E1"/>
				<stop  offset="0.7821" style="stop-color:#41E6E0;stop-opacity:0.2"/>
				<stop  offset="1" style="stop-color:#40E5DF;stop-opacity:0"/>
			</radialGradient>
			<ellipse class="st0" cx="112.7" cy="34.3" rx="8" ry="4.3"/>
			<g>
				<linearGradient id="SVGID_2_" gradientUnits="userSpaceOnUse" x1="87.561" y1="41.874" x2="113.1258" y2="41.874">
					<stop  offset="0" style="stop-color:#40E5DF;stop-opacity:0"/>
					<stop  offset="1" style="stop-color:#42E7E1"/>
				</linearGradient>
				<polygon class="st1" points="88.1,49.5 87.6,48.6 112.6,34.2 113.1,35.2 				"/>
			</g>
			<circle class="st2" cx="113.5" cy="34.6" r="2"/>
		</g>
		<g class="st3">
			
				<radialGradient id="SVGID_3_" cx="-56.2862" cy="76.7485" r="3.3054" gradientTransform="matrix(2.4074 0 0 1.2963 156.9259 16.7407)" gradientUnits="userSpaceOnUse">
				<stop  offset="0" style="stop-color:#42E7E1"/>
				<stop  offset="0.7821" style="stop-color:#41E6E0;stop-opacity:0.2"/>
				<stop  offset="1" style="stop-color:#40E5DF;stop-opacity:0"/>
			</radialGradient>
			<ellipse class="st4" cx="21.4" cy="116.2" rx="8" ry="4.3"/>
			<g>
				<linearGradient id="SVGID_4_" gradientUnits="userSpaceOnUse" x1="5.3783" y1="121.1864" x2="21.8123" y2="121.1864">
					<stop  offset="0" style="stop-color:#40E5DF;stop-opacity:0"/>
					<stop  offset="1" style="stop-color:#42E7E1"/>
				</linearGradient>
				<polygon class="st5" points="5.9,126.2 5.4,125.3 21.3,116.2 21.8,117.1 				"/>
			</g>
			<circle class="st2" cx="22.2" cy="116.5" r="2"/>
		</g>
		<g class="st6">
			
				<radialGradient id="SVGID_5_" cx="-8.4939" cy="-4.9644" r="3.3054" gradientTransform="matrix(2.4074 0 0 1.2963 156.9259 16.7407)" gradientUnits="userSpaceOnUse">
				<stop  offset="0" style="stop-color:#42E7E1"/>
				<stop  offset="0.7821" style="stop-color:#41E6E0;stop-opacity:0.2"/>
				<stop  offset="1" style="stop-color:#40E5DF;stop-opacity:0"/>
			</radialGradient>
			<ellipse class="st7" cx="136.5" cy="10.3" rx="8" ry="4.3"/>
			<g>
				<linearGradient id="SVGID_6_" gradientUnits="userSpaceOnUse" x1="111.3026" y1="17.8715" x2="136.8674" y2="17.8715">
					<stop  offset="0" style="stop-color:#40E5DF;stop-opacity:0"/>
					<stop  offset="1" style="stop-color:#42E7E1"/>
				</linearGradient>
				<polygon class="st8" points="111.8,25.5 111.3,24.6 136.3,10.2 136.9,11.1 				"/>
			</g>
			<circle class="st2" cx="137.3" cy="10.6" r="2"/>
		</g>
		<g class="st9">
			
				<radialGradient id="SVGID_7_" cx="-12.0702" cy="32.8731" r="3.3054" gradientTransform="matrix(2.4074 0 0 1.2963 156.9259 16.7407)" gradientUnits="userSpaceOnUse">
				<stop  offset="0" style="stop-color:#42E7E1"/>
				<stop  offset="0.7821" style="stop-color:#41E6E0;stop-opacity:0.2"/>
				<stop  offset="1" style="stop-color:#40E5DF;stop-opacity:0"/>
			</radialGradient>
			<ellipse class="st10" cx="127.9" cy="59.4" rx="8" ry="4.3"/>
			<g>
				<linearGradient id="SVGID_8_" gradientUnits="userSpaceOnUse" x1="102.693" y1="66.92" x2="128.2578" y2="66.92">
					<stop  offset="0" style="stop-color:#40E5DF;stop-opacity:0"/>
					<stop  offset="1" style="stop-color:#42E7E1"/>
				</linearGradient>
				<polygon class="st11" points="103.2,74.5 102.7,73.6 127.7,59.3 128.3,60.2 				"/>
			</g>
			<circle class="st2" cx="128.7" cy="59.6" r="2"/>
		</g>
		<g class="st6">
			
				<radialGradient id="SVGID_9_" cx="-52.6015" cy="11.9417" r="3.3054" gradientTransform="matrix(2.4074 0 0 1.2963 156.9259 16.7407)" gradientUnits="userSpaceOnUse">
				<stop  offset="0" style="stop-color:#42E7E1"/>
				<stop  offset="0.7821" style="stop-color:#41E6E0;stop-opacity:0.2"/>
				<stop  offset="1" style="stop-color:#40E5DF;stop-opacity:0"/>
			</radialGradient>
			<ellipse class="st12" cx="30.3" cy="32.2" rx="8" ry="4.3"/>
			<g>
				<linearGradient id="SVGID_10_" gradientUnits="userSpaceOnUse" x1="5.1177" y1="39.7868" x2="30.6825" y2="39.7868">
					<stop  offset="0" style="stop-color:#40E5DF;stop-opacity:0"/>
					<stop  offset="1" style="stop-color:#42E7E1"/>
				</linearGradient>
				<polygon class="st13" points="5.6,47.4 5.1,46.5 30.2,32.2 30.7,33.1 				"/>
			</g>
			<circle class="st2" cx="31.1" cy="32.5" r="2"/>
		</g>
		<g>
			
				<radialGradient id="SVGID_11_" cx="-58.2369" cy="74.9371" r="3.3054" gradientTransform="matrix(2.4074 0 0 1.2963 156.9259 16.7407)" gradientUnits="userSpaceOnUse">
				<stop  offset="0" style="stop-color:#42E7E1"/>
				<stop  offset="0.7821" style="stop-color:#41E6E0;stop-opacity:0.2"/>
				<stop  offset="1" style="stop-color:#40E5DF;stop-opacity:0"/>
			</radialGradient>
			<ellipse class="st14" cx="16.7" cy="113.9" rx="8" ry="4.3"/>
			<circle class="st2" cx="17.5" cy="114.1" r="2"/>
		</g>
		<g>
			
				<radialGradient id="SVGID_12_" cx="25.3159" cy="84.1952" r="3.3054" gradientTransform="matrix(-2.4074 0 0 1.2963 183.0741 16.7407)" gradientUnits="userSpaceOnUse">
				<stop  offset="0" style="stop-color:#42E7E1"/>
				<stop  offset="0.7821" style="stop-color:#41E6E0;stop-opacity:0.2"/>
				<stop  offset="1" style="stop-color:#40E5DF;stop-opacity:0"/>
			</radialGradient>
			<ellipse class="st15" cx="122.1" cy="125.9" rx="8" ry="4.3"/>
			<g>
				
					<linearGradient id="SVGID_13_" gradientUnits="userSpaceOnUse" x1="192.6967" y1="133.4485" x2="218.2615" y2="133.4485" gradientTransform="matrix(-1 0 0 1 340 0)">
					<stop  offset="0" style="stop-color:#40E5DF;stop-opacity:0"/>
					<stop  offset="1" style="stop-color:#42E7E1"/>
				</linearGradient>
				<polygon class="st16" points="146.8,141.1 121.7,126.7 122.3,125.8 147.3,140.2 				"/>
			</g>
			<circle class="st2" cx="121.3" cy="126.1" r="2"/>
		</g>
	</g>
	<path class="st17" d="M81.5,137.1c-0.9,0-2.3-0.2-3.6-0.9L2.4,92.9C0.9,92,0,90.7,0,89.1c0-1.5,0.9-2.9,2.4-3.8L77.8,42
		c1.3-0.8,2.7-0.9,3.6-0.9c1.4,0,2.7,0.3,3.8,1l72.4,43.2c1.5,0.9,2.3,2.3,2.3,3.8c0,1.5-0.9,2.9-2.3,3.8l-72.4,43.2
		C84.2,136.8,82.9,137.1,81.5,137.1z"/>
	<path class="st18" d="M3.8,90.4c-1.2-0.7-1.2-1.9,0-2.6l75.5-43.3c1.2-0.7,3.3-0.7,4.5,0l72.4,43.2c1.2,0.7,1.2,1.9,0,2.7
		l-72.4,43.2c-1.2,0.7-3.3,0.8-4.5,0L3.8,90.4z"/>
	<g>
		<radialGradient id="SVGID_14_" cx="80.0001" cy="89.1089" r="53.898" gradientUnits="userSpaceOnUse">
			<stop  offset="0" style="stop-color:#43E4DF"/>
			<stop  offset="1" style="stop-color:#180E5A;stop-opacity:0.8"/>
		</radialGradient>
		<path class="st19" d="M81.2,127.9c-1,0-1.9-0.2-2.7-0.6l-62.8-36c-0.9-0.5-1.4-1.3-1.4-2.1c0-0.8,0.5-1.6,1.4-2.1l62.8-36
			c1.5-0.9,3.9-0.9,5.4,0l60.2,36c0.9,0.5,1.4,1.3,1.4,2.1c0,0.8-0.5,1.6-1.4,2.1l-60.2,36C83.2,127.7,82.2,127.9,81.2,127.9z
			 M81.2,52.2c-0.6,0-1.3,0.1-1.8,0.4l-62.8,36c-0.3,0.2-0.5,0.4-0.5,0.5c0,0.1,0.1,0.3,0.5,0.5l62.8,36c1,0.6,2.6,0.5,3.6,0
			l60.2-36c0.3-0.2,0.5-0.4,0.5-0.6s-0.2-0.4-0.5-0.6l-60.2-36C82.6,52.3,81.9,52.2,81.2,52.2z"/>
	</g>
	<g class="st9">
		<path class="st20" d="M31.1,87l48-27.5c1.2-0.7,2.8-0.7,4,0L129.1,87c1.6,0.9,1.6,3.2,0,4.2L83,118.7c-1.2,0.7-2.8,0.8-4,0
			l-48-27.5C29.4,90.3,29.4,87.9,31.1,87z"/>
	</g>
	<g class="st3">
		<radialGradient id="SVGID_15_" cx="80.7575" cy="103.2407" r="29.2958" gradientUnits="userSpaceOnUse">
			<stop  offset="0" style="stop-color:#43E4DF"/>
			<stop  offset="1" style="stop-color:#1B105F"/>
		</radialGradient>
		<path class="st21" d="M44,93.4c-4.8-2.7-4.8-7.2,0-10l28.2-16.2c4.8-2.7,12.5-2.7,17.3,0.1l26.6,15.9c4.7,2.8,4.7,7.4,0,10.3
			l-26.6,15.9c-4.7,2.8-12.5,2.9-17.3,0.1L44,93.4z"/>
	</g>
	<linearGradient id="SVGID_16_" gradientUnits="userSpaceOnUse" x1="37.4674" y1="72.2649" x2="37.4674" y2="4.7811">
		<stop  offset="0" style="stop-color:#43E4DF"/>
		<stop  offset="1" style="stop-color:#1B105F;stop-opacity:0"/>
	</linearGradient>
	<rect x="36.7" y="6.8" class="st22" width="1.6" height="81.9"/>
	
		<linearGradient id="SVGID_17_" gradientUnits="userSpaceOnUse" x1="-6.5197" y1="72.2649" x2="-6.5197" y2="4.7811" gradientTransform="matrix(-1 0 0 1 116 0)">
		<stop  offset="0" style="stop-color:#43E4DF"/>
		<stop  offset="1" style="stop-color:#1B105F;stop-opacity:0"/>
	</linearGradient>
	<polygon class="st23" points="121.7,88.7 123.3,88.7 123.3,6.8 121.7,6.8 	"/>
	<linearGradient id="SVGID_18_" gradientUnits="userSpaceOnUse" x1="107.3876" y1="99.1902" x2="107.3876" y2="60.7134">
		<stop  offset="0" style="stop-color:#42E7E0;stop-opacity:0"/>
		<stop  offset="0.5" style="stop-color:#42E7E1;stop-opacity:0.75"/>
		<stop  offset="1" style="stop-color:#40E5DF;stop-opacity:0"/>
	</linearGradient>
	<polygon class="st24" points="110.3,97 110.3,59.2 104.5,59.2 104.5,100.4 	"/>
	<linearGradient id="SVGID_19_" gradientUnits="userSpaceOnUse" x1="96.43" y1="106.5575" x2="96.43" y2="30.9406">
		<stop  offset="0" style="stop-color:#42E7E0;stop-opacity:0"/>
		<stop  offset="0.5" style="stop-color:#42E7E1;stop-opacity:0.75"/>
		<stop  offset="1" style="stop-color:#40E5DF;stop-opacity:0"/>
	</linearGradient>
	<polygon class="st25" points="99.3,103.5 99.3,30.3 93.6,30.3 93.6,107 	"/>
	<linearGradient id="SVGID_20_" gradientUnits="userSpaceOnUse" x1="63.557" y1="105.8421" x2="63.557" y2="30.9343">
		<stop  offset="0" style="stop-color:#42E7E0;stop-opacity:0"/>
		<stop  offset="0.5" style="stop-color:#42E7E1;stop-opacity:0.75"/>
		<stop  offset="1" style="stop-color:#40E5DF;stop-opacity:0"/>
	</linearGradient>
	<polygon class="st26" points="66.4,106.2 66.4,30.3 60.7,30.3 60.7,102.9 	"/>
	<linearGradient id="SVGID_21_" gradientUnits="userSpaceOnUse" x1="52.5994" y1="98.7383" x2="52.5994" y2="60.6965">
		<stop  offset="0" style="stop-color:#42E7E0;stop-opacity:0"/>
		<stop  offset="0.5" style="stop-color:#42E7E1;stop-opacity:0.75"/>
		<stop  offset="1" style="stop-color:#40E5DF;stop-opacity:0"/>
	</linearGradient>
	<polygon class="st27" points="55.5,100 55.5,59.2 49.7,59.2 49.7,96.7 	"/>
	<linearGradient id="SVGID_22_" gradientUnits="userSpaceOnUse" x1="41.9026" y1="92.8564" x2="41.9026" y2="75.4132">
		<stop  offset="0" style="stop-color:#42E7E0;stop-opacity:0"/>
		<stop  offset="0.5" style="stop-color:#42E7E1;stop-opacity:0.75"/>
		<stop  offset="1" style="stop-color:#40E5DF;stop-opacity:0"/>
	</linearGradient>
	<polygon class="st28" points="44.5,93.7 44.8,93.7 44.8,74.4 39,74.4 39,90.5 	"/>
	<linearGradient id="SVGID_23_" gradientUnits="userSpaceOnUse" x1="74.5147" y1="119.2958" x2="74.5147" y2="2.4831">
		<stop  offset="0" style="stop-color:#42E7E0;stop-opacity:0"/>
		<stop  offset="0.5" style="stop-color:#42E7E1;stop-opacity:0.75"/>
		<stop  offset="1" style="stop-color:#40E5DF;stop-opacity:0"/>
	</linearGradient>
	<polygon class="st29" points="77.4,112.5 77.4,0 71.6,0 71.6,109.2 	"/>
	<linearGradient id="SVGID_24_" gradientUnits="userSpaceOnUse" x1="85.4723" y1="120.2652" x2="85.4723" y2="2.5033">
		<stop  offset="0" style="stop-color:#42E7E0;stop-opacity:0"/>
		<stop  offset="0.5" style="stop-color:#42E7E1;stop-opacity:0.75"/>
		<stop  offset="1" style="stop-color:#40E5DF;stop-opacity:0"/>
	</linearGradient>
	<path class="st30" d="M83.1,113.2l5.2-3.1V0h-5.7v113.4C82.8,113.4,83,113.3,83.1,113.2z"/>
	<linearGradient id="SVGID_25_" gradientUnits="userSpaceOnUse" x1="118.0844" y1="93.2146" x2="118.0844" y2="75.4337">
		<stop  offset="0" style="stop-color:#42E7E0;stop-opacity:0"/>
		<stop  offset="0.5" style="stop-color:#42E7E1;stop-opacity:0.75"/>
		<stop  offset="1" style="stop-color:#40E5DF;stop-opacity:0"/>
	</linearGradient>
	<polygon class="st31" points="121,90.6 121,74.4 115.2,74.4 115.2,94 	"/>
	<path class="st20" d="M78.6,70.6c1.2-0.7,3.3-0.7,4.5,0l35.6,21.3c0,0,0.1,0,0.1,0l3.6-2.2c1.2-0.7,1.2-1.9,0-2.7L83.1,63.6
		c-1.2-0.7-3.3-0.8-4.5,0l-41,23.5c-1.2,0.7-1.2,1.9,0,2.6l3.8,2.2c0,0,0.1,0,0.1,0L78.6,70.6z"/>
</g>
</svg>
