<?xml version="1.0" encoding="utf-8"?>
<!-- Generator: Adobe Illustrator 22.1.0, SVG Export Plug-In . SVG Version: 6.00 Build 0)  -->
<svg version="1.1" id="Layer_1" xmlns="http://www.w3.org/2000/svg" xmlns:xlink="http://www.w3.org/1999/xlink" x="0px" y="0px"
	 viewBox="0 0 160 152.8" style="enable-background:new 0 0 160 152.8;" xml:space="preserve">
<style type="text/css">
	.st0{fill:url(#SVGID_1_);}
	.st1{fill:url(#SVGID_2_);}
	.st2{fill:url(#SVGID_3_);}
	.st3{fill:url(#SVGID_4_);}
	.st4{fill:url(#SVGID_5_);}
	.st5{fill:#080245;}
</style>
<g>
	<g>
		<g>
			
				<linearGradient id="SVGID_1_" gradientUnits="userSpaceOnUse" x1="57.2" y1="92.05" x2="88.2" y2="92.05" gradientTransform="matrix(1 0 0 -1 0 154)">
				<stop  offset="0.25" style="stop-color:#0069FF"/>
				<stop  offset="1" style="stop-color:#08026E"/>
			</linearGradient>
			<polygon class="st0" points="88.2,68.7 62.6,68.7 57.2,61.3 58.1,55.2 88.2,55.2 			"/>
		</g>
	</g>
	<g>
		<g>
			
				<linearGradient id="SVGID_2_" gradientUnits="userSpaceOnUse" x1="73.056" y1="91.4" x2="113.0896" y2="91.4" gradientTransform="matrix(1 0 0 -1 0 154)">
				<stop  offset="0.25" style="stop-color:#0069FF"/>
				<stop  offset="1" style="stop-color:#08026E"/>
			</linearGradient>
			<path class="st1" d="M73.1,55.5c1.7-5.7,7-9.8,13.2-9.8h26.9v33.8H95.3c-8.6,0-16.4-4.7-20.5-12L73.1,55.5z"/>
		</g>
	</g>
	<g>
		<g>
			
				<linearGradient id="SVGID_3_" gradientUnits="userSpaceOnUse" x1="89.6624" y1="92.45" x2="96.0324" y2="92.45" gradientTransform="matrix(1 0 0 -1 0 154)">
				<stop  offset="0.25" style="stop-color:#0069FF"/>
				<stop  offset="1" style="stop-color:#08026E"/>
			</linearGradient>
			<rect x="89.7" y="53.2" class="st2" width="6.4" height="16.7"/>
		</g>
	</g>
	<g>
		<g>
			
				<linearGradient id="SVGID_4_" gradientUnits="userSpaceOnUse" x1="113.1" y1="90.15" x2="148.3" y2="90.15" gradientTransform="matrix(1 0 0 -1 0 154)">
				<stop  offset="0.25" style="stop-color:#0069FF"/>
				<stop  offset="1" style="stop-color:#08026E"/>
			</linearGradient>
			<polygon class="st3" points="113.1,45.7 148.3,24 148.3,103.7 113.1,79.6 			"/>
		</g>
	</g>
	<g>
		<g>
			
				<linearGradient id="SVGID_5_" gradientUnits="userSpaceOnUse" x1="3.8494" y1="92.75" x2="45.9494" y2="92.75" gradientTransform="matrix(1 0 0 -1 0 154)">
				<stop  offset="0.25" style="stop-color:#0069FF"/>
				<stop  offset="1" style="stop-color:#08026E"/>
			</linearGradient>
			<path class="st4" d="M9.7,67.1h33.2l3-11.7H9.7c-3.2,0-5.9,2.6-5.9,5.9C3.8,64.5,6.5,67.1,9.7,67.1z"/>
		</g>
	</g>
	<g>
		<path class="st5" d="M155.1,10.7h-50.9c-2.9,0-2.9,4.3,0,4.3h50.9c0.9,0,0.6-6.5,0.6,100.1c0,0.4-0.4,0.7-0.9,0.7H87.7
			c-1.2,0-2.2,1-2.2,2.2s1,2.2,2.2,2.2h9.7c0,6.4-0.4,11,2.6,17.1H81.4c-1.2,0-2.2,1-2.2,2.2s1,2.2,2.2,2.2h36v6.4H86.2
			c-2.9,0-2.9,4.3,0,4.3h58.3c2.9,0,2.9-4.3,0-4.3h-22.8v-8.5c0-1.2-1-2.2-2.2-2.2h-14.7c-3.7-6-3.2-10.7-3.2-17.1h53.1
			c2.9,0,5.2-2.2,5.2-5V15.4C160,12.9,157.8,10.7,155.1,10.7z"/>
		<path class="st5" d="M148.3,21.8h-43.6c-2.8,0-2.8,4.3,0,4.3h41.5v75.4H98.9c-1.2,0-2.1,1-2.1,2.1c0,1.2,1,2.1,2.1,2.1h49.4
			c1.2,0,2.1-1,2.1-2.1V24C150.4,22.8,149.5,21.8,148.3,21.8z"/>
		<path class="st5" d="M145.9,110.8c0,3.2,4.8,3.2,4.8,0C150.7,107.7,145.9,107.7,145.9,110.8z"/>
		<path class="st5" d="M138.7,113.2c3.2,0,3.2-4.8,0-4.8C135.6,108.4,135.6,113.2,138.7,113.2z"/>
		<path class="st5" d="M129.2,113.2c3.2,0,3.2-4.8,0-4.8C126,108.4,126,113.2,129.2,113.2z"/>
		<path class="st5" d="M25.1,115.4c1.3,0,2.2-0.9,2.3-2.1c0.2-3.9,0-7.1-0.6-10.1c8.9,0,10.2,0.4,10.8-1.5c0.1-0.3,2.8-8.6,3-15.6
			c0-1.2-0.9-2.2-2.1-2.3c-1.2,0-2.2,0.9-2.3,2.1c-0.2,4.7-1.6,10.3-2.4,13h-8.3c-0.4-1.1-6.4-13.4-13.5-28h26
			c-0.1,0.6-0.1,1.2-0.1,1.8c0,7.5,6.1,13.7,13.7,13.7c8.1,0,14.7-7.2,13.5-15.5h9.4c0.4,1.1,6.4,9.1,17.4,10.6
			c-0.4,4-0.9,8.1-1.7,12.3c-1.9,0-6.4-0.5-11.7-4.5c-0.9-0.7-2.3-0.6-3,0.4c-0.7,0.9-0.6,2.3,0.4,3c5.6,4.3,10.6,5.3,13.5,5.4
			c-0.3,1.6-0.7,3.2-1.1,4.8c-0.8,3.2-3.1,5.8-6.1,6.7c-4,1.3-8.1,1.7-12.2,1.4c-12.3-0.9-15.2-7.4-17.3-3.9c-0.6,1-0.3,2.4,0.8,3
			c4.5,2.7,9.3,4.4,14.2,5v10.5c0,1.2,1,2.2,2.2,2.2s2.2-1,2.2-2.2v-10.2c9.4,0.1,18.4-2.5,20.6-11.5c1.9-8.1,3.1-15.2,3.8-22.2
			h16.9c1.2,0,2.2-1,2.2-2.2V45.7c0-1.2-1-2.2-2.2-2.2h-20c-0.7-3.9-0.8-5.9-1.4-8.9c7.7-8.8,9-19.5,5.2-29
			c-0.4-1.1-1.6-1.6-2.7-1.3c-12.1,4-22.6,3.1-44.3-2.7C36.3-2.1,23.1,1.3,15.7,7.2C8.6,12.9,3.6,20.7,1.8,28.7
			c-2.8,13-0.7,25.1,0.3,28c-4.5,5.1-1.5,13,5.1,14c0,0,13.9,28.6,14.3,29.5C24.9,109.8,21.2,115.2,25.1,115.4z M51.5,82.1
			c-5.1,0-9.3-4.2-9.3-9.3c0-5.1,4.2-9.3,9.3-9.3s9.3,4.2,9.3,9.3C60.8,77.9,56.6,82.1,51.5,82.1z M48.4,52.2h6.2v7.3
			c-2-0.5-4-0.5-6.2,0C48.4,55.3,48.4,56.2,48.4,52.2z M58.9,61.3v-3.9h28.6v9.2c-0.3,0-23.5,0-23.8,0
			C62.6,64.4,60.9,62.6,58.9,61.3z M110.9,77.4c-15.2,0-23.2,1.5-30.9-6.5h7.7c0.8,1.6,1.6,1.2,9.9,1.2c1.2,0,2.2-1,2.2-2.2V53.2
			c0-1.2-1-2.2-2.2-2.2h-7.9c-1.1,0-2,0.8-2.1,1.9h-11c2.1-3.1,5.7-5.1,9.6-5.1h24.7C110.9,47.8,110.9,77.4,110.9,77.4z M91.8,67.8
			V55.4h3.6v12.3L91.8,67.8L91.8,67.8z M27.2,6.1C48.8-0.8,66,16.8,93.9,9.2c4.4,14.6-6,27.6-16,29c-9.3,1.3-17.9-2.3-18-2.3
			c-1.1-0.5-2.3,0-2.8,1l-2.9,6c-0.5,1.1-0.1,2.4,1,2.9s2.4,0.1,2.9-1l2.1-4.2c8.8,3,20.2,3.8,28.1-2.2c0.2,1.5,0.4,3.2,0.8,5.3
			h-2.8c-6.3,0-12,3.7-14.5,9.4H58.9c0-6.2,0.9-5.2-12.7-5.2c-1.2,0-2.2,1-2.2,2.2V54C5.4,53.9,7.8,53.7,6,54.2
			C1.7,33.9,7.8,12.3,27.2,6.1z M5.2,59.8c1.7-2.3,0.4-1.7,38.9-1.7v3.1c-2,1.3-3.7,3.1-4.8,5.3c-0.3,0-30.5,0-30.8,0
			C5.1,66.5,3.1,62.6,5.2,59.8z"/>
		<path class="st5" d="M69.9,130.8c-15.5-0.5-30.5-5-43.8-13c-1.1-0.7-2.6-0.2-3.1,1c-3.1,7.2-6.6,17.4-10.8,31.3
			c-0.3,1.2,0.3,2.4,1.5,2.7c4,1.2,2.5-5.8,12.4-30c13,7.4,27.5,11.6,42.4,12.3c1.4,2.9,2.9,6.4,4.3,9.8c0.9,2.2,1.9,4.5,2.8,6.6
			c0.5,1.1,1.8,1.6,2.9,1.1s1.6-1.8,1.1-2.9C72.4,133.6,72.3,130.8,69.9,130.8z"/>
		<path class="st5" d="M151.8,149.7c-0.7,3,3.7,4.1,4.5,1.1C157,147.8,152.5,146.7,151.8,149.7z"/>
	</g>
</g>
</svg>
