<?xml version="1.0" encoding="utf-8"?>
<!-- Generator: Adobe Illustrator 22.1.0, SVG Export Plug-In . SVG Version: 6.00 Build 0)  -->
<svg version="1.1" id="Layer_1" xmlns="http://www.w3.org/2000/svg" xmlns:xlink="http://www.w3.org/1999/xlink" x="0px" y="0px"
	 viewBox="0 0 58.4 60" style="enable-background:new 0 0 58.4 60;" xml:space="preserve">
<style type="text/css">
	.st0{fill:url(#SVGID_1_);}
	.st1{fill:url(#SVGID_2_);}
	.st2{fill:url(#SVGID_3_);}
	.st3{fill:url(#SVGID_4_);}
	.st4{fill:url(#SVGID_5_);}
	.st5{fill:#080245;}
</style>
<g>
	<g>
		
			<linearGradient id="SVGID_1_" gradientUnits="userSpaceOnUse" x1="6.1401" y1="41.05" x2="22.9764" y2="41.05" gradientTransform="matrix(1 0 0 -1 0 62)">
			<stop  offset="0.25" style="stop-color:#0069FF"/>
			<stop  offset="1" style="stop-color:#08026E"/>
		</linearGradient>
		<path class="st0" d="M23,24.6c-0.6-4.2-4.1-7.3-8.4-7.3l0,0c-4.2,0-7.8,3.1-8.5,7.3C6.1,24.6,23,24.6,23,24.6z"/>
	</g>
	<g>
		
			<linearGradient id="SVGID_2_" gradientUnits="userSpaceOnUse" x1="37.6656" y1="45.85" x2="52.2437" y2="45.85" gradientTransform="matrix(1 0 0 -1 0 62)">
			<stop  offset="0.25" style="stop-color:#0069FF"/>
			<stop  offset="1" style="stop-color:#08026E"/>
		</linearGradient>
		<path class="st1" d="M44.3,27.7l7.9,4.1c0-1,0,1.5-0.1-20.8L37.7,0.5c0,8.2,0-17.5,0,30.5L44.3,27.7z"/>
	</g>
	<g>
		
			<linearGradient id="SVGID_3_" gradientUnits="userSpaceOnUse" x1="31.9" y1="42.1095" x2="42.2771" y2="42.1095" gradientTransform="matrix(1 0 0 -1 0 62)">
			<stop  offset="0.25" style="stop-color:#0069FF"/>
			<stop  offset="1" style="stop-color:#08026E"/>
		</linearGradient>
		<path class="st2" d="M39.6,8.1v5.4h2.7v15.8l-5,2.4V14.2h-2.7V8.8h-2.7C37.9,7.9,36.2,8.1,39.6,8.1z"/>
	</g>
	<g>
		
			<linearGradient id="SVGID_4_" gradientUnits="userSpaceOnUse" x1="35.7439" y1="31.1" x2="55.3439" y2="31.1" gradientTransform="matrix(1 0 0 -1 0 62)">
			<stop  offset="0.25" style="stop-color:#0069FF"/>
			<stop  offset="1" style="stop-color:#08026E"/>
		</linearGradient>
		<polygon class="st3" points="35.7,33.4 45.9,28.4 55.3,33.4 		"/>
	</g>
	<g>
		
			<linearGradient id="SVGID_5_" gradientUnits="userSpaceOnUse" x1="5.0148" y1="54.95" x2="20.5537" y2="54.95" gradientTransform="matrix(1 0 0 -1 0 62)">
			<stop  offset="0.25" style="stop-color:#0069FF"/>
			<stop  offset="1" style="stop-color:#08026E"/>
		</linearGradient>
		<path class="st4" d="M15.5,6.6C15.3,5,13.8,3.7,12,3.7c-2,0-3.9,1.5-3.5,3.8C6.5,6.8,5.1,7.9,5,8.8c-0.1,0.8,0.6,1.6,1.4,1.6h12.7
			c0.8,0,1.5-0.7,1.4-1.5C20.4,6.3,17.4,5.3,15.5,6.6z"/>
	</g>
	<g>
		<path class="st5" d="M23.4,19.7v-4.6h18.8v10.3c0,1,1.5,1,1.5,0V14.3c0-0.4-0.3-0.8-0.8-0.8H41V8.8C41,8.4,40.7,8,40.2,8h-6.9V0.8
			C33.3,0.4,33,0,32.5,0s-0.8,0.3-0.8,0.8v7.3h-6.5c-0.4,0-0.8,0.3-0.8,0.8v4.7h-1.9c-0.4,0-0.8,0.3-0.8,0.8v5.4
			C21.9,20.7,23.4,20.7,23.4,19.7z M26.1,9.6h13.5v3.9H26.1V9.6z"/>
		<path class="st5" d="M57.7,55h-1.5c0-23.3,0.2-21.9-0.4-22.2c-11.9-6.2-11.2-6-11.7-5.8c-12.5,6.2-12.2,5.8-12.1,6.5
			c0,0,0,0,0,0.1V55h-8.5c0-32.4,0.1-30.7-0.2-31c-0.9-4.7-5-8.3-10-8.3s-9.1,3.6-10,8.3c-0.4,0.3-0.2,3-0.2,31H0.8
			C0.3,55,0,55.3,0,55.7s0.3,0.8,0.8,0.8h3.1h18.8h10c2.7,0,22.3,0,25,0c0.4,0,0.8-0.3,0.8-0.8S58.1,55,57.7,55z M44.3,28.5l8.2,4.3
			H35.7L44.3,28.5z M21.6,23.6H4.9C7.2,15.1,19.4,15.1,21.6,23.6z M4.6,55c0-31.4,0-29.4,0-29.8h17.2c0,0.5,0-1.9,0,29.8H4.6z
			 M48,50.3V55h-3.5v-4.6H48V50.3z M43,55h-3v-4.6h3V55z M49.6,55v-5.4c0-0.4-0.3-0.8-0.8-0.8h-9.6c-0.4,0-0.8,0.3-0.8,0.8V55h-5
			V34.4h21.1V55H49.6z"/>
		<path class="st5" d="M45.7,58.4H7.3c-1,0-1,1.5,0,1.5h38.4c0.4,0,0.8-0.3,0.8-0.8S46.2,58.4,45.7,58.4z"/>
		<path class="st5" d="M48.8,44.6h-9.6c-1,0-1,1.5,0,1.5h9.6c0.4,0,0.8-0.3,0.8-0.8S49.2,44.6,48.8,44.6z"/>
		<path class="st5" d="M48.8,41.1h-9.6c-1,0-1,1.5,0,1.5h9.6c0.4,0,0.8-0.3,0.8-0.8S49.2,41.1,48.8,41.1z"/>
		<path class="st5" d="M48.8,37.7h-9.6c-1,0-1,1.5,0,1.5h9.6C49.8,39.2,49.8,37.7,48.8,37.7z"/>
		<path class="st5" d="M38.8,18.4h-4.6c-1,0-1,1.5,0,1.5h4.6c0.4,0,0.8-0.3,0.8-0.8S39.2,18.4,38.8,18.4z"/>
		<path class="st5" d="M31.1,18.4h-4.2c-1,0-1,1.5,0,1.5h4.2c0.4,0,0.8-0.3,0.8-0.8S31.6,18.4,31.1,18.4z"/>
		<path class="st5" d="M38.8,22.7h-4.6c-1,0-1,1.5,0,1.5h4.6c0.4,0,0.8-0.3,0.8-0.8S39.2,22.7,38.8,22.7z"/>
		<path class="st5" d="M31.1,22.7h-4.2c-1,0-1,1.5,0,1.5h4.2c0.4,0,0.8-0.3,0.8-0.8S31.6,22.7,31.1,22.7z"/>
		<path class="st5" d="M38.8,26.9h-4.6c-1,0-1,1.5,0,1.5h4.6c0.4,0,0.8-0.3,0.8-0.8S39.2,26.9,38.8,26.9z"/>
		<path class="st5" d="M31.1,26.9h-4.2c-1,0-1,1.5,0,1.5h4.2C32.1,28.4,32.1,26.9,31.1,26.9z"/>
		<path class="st5" d="M26.1,31.9v17.7c0,1,1.5,1,1.5,0V31.9C27.7,30.9,26.1,30.9,26.1,31.9z"/>
		<path class="st5" d="M6.5,50.3v1.5c0,1,1.5,1,1.5,0v-1.5C8.1,49.3,6.5,49.3,6.5,50.3z"/>
		<path class="st5" d="M6.5,29.2v18.1c0,1,1.5,1,1.5,0V29.2C8.1,28.2,6.5,28.2,6.5,29.2z"/>
		<path class="st5" d="M13.1,28.4h-1.9c-0.4,0-0.8,0.3-0.8,0.8v2.7c0,1,1.5,1,1.5,0V30h1.2c0.4,0,0.8-0.3,0.8-0.8
			S13.5,28.4,13.1,28.4z"/>
		<path class="st5" d="M18.8,28.4h-1.9c-0.4,0-0.8,0.3-0.8,0.8v2.7c0,1,1.5,1,1.5,0V30h1.2c0.4,0,0.8-0.3,0.8-0.8
			S19.3,28.4,18.8,28.4z"/>
		<path class="st5" d="M13.1,35.4h-1.9c-0.4,0-0.8,0.3-0.8,0.8v2.7c0,1,1.5,1,1.5,0V37h1.2c0.4,0,0.8-0.3,0.8-0.8
			S13.5,35.4,13.1,35.4z"/>
		<path class="st5" d="M18.8,35.4c-3.2,0-2.7-0.4-2.7,3.5c0,0.4,0.3,0.8,0.8,0.8c0.4,0,0.8-0.3,0.8-0.8V37h1.2
			c0.4,0,0.8-0.3,0.8-0.8S19.3,35.4,18.8,35.4z"/>
		<path class="st5" d="M13.1,42.3h-1.9c-0.4,0-0.8,0.3-0.8,0.8v2.7c0,1,1.5,1,1.5,0v-1.9h1.2c0.4,0,0.8-0.3,0.8-0.8
			S13.5,42.3,13.1,42.3z"/>
		<path class="st5" d="M18.8,42.3h-1.9c-0.4,0-0.8,0.3-0.8,0.8v2.7c0,1,1.5,1,1.5,0v-1.9h1.2c0.4,0,0.8-0.3,0.8-0.8
			S19.3,42.3,18.8,42.3z"/>
		<path class="st5" d="M48.8,59c-0.3,1,1.3,1.4,1.6,0.4C50.6,58.3,49.1,57.9,48.8,59z"/>
	</g>
</g>
</svg>
