<?xml version="1.0" encoding="utf-8"?>
<!-- Generator: Adobe Illustrator 22.1.0, SVG Export Plug-In . SVG Version: 6.00 Build 0)  -->
<svg version="1.1" id="Layer_1" xmlns="http://www.w3.org/2000/svg" xmlns:xlink="http://www.w3.org/1999/xlink" x="0px" y="0px"
	 viewBox="0 0 66.2 60" style="enable-background:new 0 0 66.2 60;" xml:space="preserve">
<style type="text/css">
	.st0{fill:url(#SVGID_1_);}
	.st1{fill:url(#SVGID_2_);}
	.st2{fill:url(#SVGID_3_);}
	.st3{fill:#080245;}
</style>
<g>
	<g>
		<g>
			
				<linearGradient id="SVGID_1_" gradientUnits="userSpaceOnUse" x1="44.0469" y1="5.9" x2="44.0587" y2="5.9" gradientTransform="matrix(1 0 0 -1 0 62)">
				<stop  offset="0.25" style="stop-color:#3FD7D7"/>
				<stop  offset="1" style="stop-color:#080245"/>
			</linearGradient>
			<path class="st0" d="M44.1,56.1C44,56.1,44.1,56.1,44.1,56.1C44,56.1,44.1,56.1,44.1,56.1z"/>
		</g>
		<g>
			
				<linearGradient id="SVGID_2_" gradientUnits="userSpaceOnUse" x1="33.2201" y1="18.5" x2="54.8855" y2="18.5" gradientTransform="matrix(1 0 0 -1 0 62)">
				<stop  offset="0.25" style="stop-color:#0069FF"/>
				<stop  offset="1" style="stop-color:#08026E"/>
			</linearGradient>
			<path class="st1" d="M52.8,32.7c-3,0.6-6.2,0-8.8-1.8c-2.6,1.7-5.7,2.4-8.8,1.8c-2.9,6-2.7,12.6,0.2,16.9
				c0.5,0.7,3.5,5.2,8.6,6.5c5.1-1.3,8.1-5.7,8.6-6.5C55.5,45.3,55.7,38.7,52.8,32.7z M45.3,44.5v3.4H45h-0.9h-0.9h-0.3v-3.4
				c-0.7-0.4-1.1-1.2-1.1-2c0-1.3,1.1-2.4,2.4-2.4C46.5,40.1,47.4,43.3,45.3,44.5z"/>
		</g>
	</g>
	<g>
		
			<linearGradient id="SVGID_3_" gradientUnits="userSpaceOnUse" x1="3.5" y1="34.1111" x2="47.7059" y2="34.1111" gradientTransform="matrix(1 0 0 -1 0 62)">
			<stop  offset="0.25" style="stop-color:#0069FF"/>
			<stop  offset="1" style="stop-color:#08026E"/>
		</linearGradient>
		<path class="st2" d="M7.8,19.2v26.2c0,1.6-0.7,3-2.4,3s-1.9-1.2-1.9-3v-35c0-1.6,1.3-3,3-3c11.6,0,11.3-0.2,12.4,0.6
			c5.9,4.4,6,4.7,7.3,4.7h18.6c1.6,0,3,1.3,3,3v1.2l-37.5-0.4C8.6,16.5,7.8,17.5,7.8,19.2z"/>
	</g>
	<path class="st3" d="M59.3,53c0,1.2-1.8,1.2-1.8,0C57.6,51.8,59.3,51.8,59.3,53z M29.6,30.4c0-1.2-1.8-1.2-1.8,0
		C27.9,31.6,29.6,31.6,29.6,30.4z M28.6,33.4c0.1-0.4-0.1-0.9-0.6-1.1c-0.4-0.1-0.9,0.1-1.1,0.6c-2.1,6.5-1.7,13.3,0.9,18.7
		c0.2,0.4,0.7,0.6,1.1,0.4c0.4-0.2,0.6-0.7,0.4-1.1C27,45.8,26.7,39.5,28.6,33.4z M60.3,30.6c-0.4-1-2-0.4-1.6,0.6
		c2.6,6.2,2.7,13.2,0.4,18.7c-0.2,0.4,0,0.9,0.4,1.1c0.4,0.2,0.9,0,1.1-0.4C63.1,44.8,63,37.3,60.3,30.6z M26.1,29.3
		c0.2-0.4,0-0.9-0.4-1.1s-0.9,0-1.1,0.4c-3.8,8.8-3.5,18.9,0.8,26.3c0.2,0.4,0.8,0.5,1.2,0.3c0.4-0.2,0.5-0.8,0.3-1.2
		C22.8,47.1,22.5,37.6,26.1,29.3z M63.5,28.6c-0.2-0.4-0.7-0.6-1.1-0.4c-0.4,0.2-0.6,0.7-0.4,1.1c3.8,8.7,3.3,18.8-1.3,25.7
		c-0.6,0.9,0.8,1.9,1.4,0.9C67,48.5,67.6,38,63.5,28.6z M55.8,51.8c-1.1,1.6-4.2,5.7-9.1,7.6h-0.1l-1.7,0.5c-0.5,0.2-1.1,0.2-1.6,0
		l-1.8-0.6c-5-1.9-8-5.9-9.1-7.6c-3.7-5.6-3.9-13.8-0.4-21l1.1-2.3c2.7,0.6,5.7,1.5,9.1-0.8l1.9-1.3c5.1,3.5,6,3.1,11,2.1l1.1,2.3
		C59.6,38,59.5,46.2,55.8,51.8z M54.7,31.5l-0.6-1.2c-1.5,0.3-5.2,1.3-9.1-1.3l-0.9-0.6c-1,0.7-2.4,1.8-4.7,2.2
		c-2.3,0.5-4,0-5.4-0.3l-0.6,1.2c-3.2,6.6-3.1,14.2,0.3,19.3c1,1.5,3.8,5.2,8.3,6.9l1.7,0.5c0.4,0.1,0.6,0,2.3-0.5
		c4.5-1.7,7.3-5.4,8.3-6.9C57.7,45.7,57.9,38.2,54.7,31.5z M20.6,47.7H7.5C8,47,8.3,46.2,8.3,45.3v-28h38.4v8.8
		c0,0.5,0.4,0.8,0.8,0.8c0.5,0,0.8-0.4,0.8-0.8v-9.5c0-0.4-0.2-0.6-0.5-0.7c-0.1-0.2-0.3-0.3-0.6-0.3H7.4c-0.5,0-0.8,0.4-0.8,0.8
		v28.9c0,1.2-0.8,2.1-1.9,2.4H4.2c-0.1,0-0.1,0-0.2,0c-1.3-0.1-2.2-1.2-2.2-2.4L1.7,8c0-1.4,1.1-2.6,2.6-2.6
		c11.4,0,11.3-0.2,12.3,0.6l5.1,4c1.7,1.3,1.3,1,23.2,1c1,0,1.9,0.9,1.9,1.9c0,0.5,0.4,0.8,0.8,0.8c1.8,0,0.6-4.4-2.7-4.4
		C23,9.3,23.8,9.5,22.7,8.7c-5.3-4.1-5.9-4.9-7.9-4.9c-11.3,0-12-0.3-13.6,1.3C0.4,5.9,0,6.9,0,8v37.2c0,2.3,1.9,4.1,4.1,4.1
		c0.2,0,0.4,0,0.6-0.1h15.8c0.5,0,0.8-0.4,0.8-0.8C21.5,48,21.1,47.7,20.6,47.7z M6.8,1.7c11.7,0,9-1,17.1,5.4
		c0.4,0.3-0.5,0.2,15.6,0.2c0.5,0,0.8-0.4,0.8-0.8c0-0.5-0.4-0.8-0.8-0.8H24.7C16.6-0.8,19,0,6.8,0C5.7,0,5.7,1.7,6.8,1.7z
		 M37.6,20.9c-1.1,0-1.1,1.7,0,1.7h1.3c0.5,0,0.8-0.4,0.8-0.8S39.3,21,38.9,21h-1.3V20.9z M21.2,20.9c-1.1,0-1.1,1.7,0,1.7h1.3
		c0.5,0,0.8-0.4,0.8-0.8S22.9,21,22.5,21h-1.3V20.9z M15.8,20.9c-1.1,0-1.1,1.7,0,1.7H17c0.5,0,0.8-0.4,0.8-0.8S17.4,21,17,21h-1.2
		V20.9z M28.8,21.8c0-0.5-0.4-0.8-0.8-0.8h-1.3c-1.1,0-1.1,1.7,0,1.7H28C28.4,22.6,28.8,22.2,28.8,21.8z M32.2,20.9
		c-1.1,0-1.1,1.7,0,1.7h1.3c0.5,0,0.8-0.4,0.8-0.8S33.9,21,33.5,21h-1.3V20.9z M44.4,6.4c0-1.2-1.9-1.2-1.9,0
		C42.6,7.6,44.4,7.6,44.4,6.4z"/>
</g>
</svg>
