<?xml version="1.0" encoding="utf-8"?>
<!-- Generator: Adobe Illustrator 22.1.0, SVG Export Plug-In . SVG Version: 6.00 Build 0)  -->
<svg version="1.1" id="Layer_1" xmlns="http://www.w3.org/2000/svg" xmlns:xlink="http://www.w3.org/1999/xlink" x="0px" y="0px"
	 viewBox="0 0 255 216.1" style="enable-background:new 0 0 255 216.1;" xml:space="preserve">
<style type="text/css">
	.st0{fill:url(#SVGID_1_);}
	.st1{fill:url(#SVGID_2_);}
	.st2{fill:url(#SVGID_3_);}
	.st3{fill:url(#SVGID_4_);}
	.st4{fill:#080245;}
</style>
<g>
	<g>
		<linearGradient id="SVGID_1_" gradientUnits="userSpaceOnUse" x1="45.1753" y1="46.2033" x2="130.0797" y2="46.2033">
			<stop  offset="0.25" style="stop-color:#3FD7D7"/>
			<stop  offset="1" style="stop-color:#080245"/>
		</linearGradient>
		<polygon class="st0" points="130.1,65.7 111.3,89.1 45.2,3.3 78.9,4.3 		"/>
		<linearGradient id="SVGID_2_" gradientUnits="userSpaceOnUse" x1="171.4953" y1="150.1074" x2="219.8198" y2="150.1074">
			<stop  offset="0.25" style="stop-color:#3FD7D7"/>
			<stop  offset="1" style="stop-color:#080245"/>
		</linearGradient>
		<path class="st1" d="M180.7,108.9c-3.2,0-6.2,0.4-9.2,1.2c12.4,11.5,20.3,28.3,20.3,47.1c0,12.6-3.5,24.2-9.5,34
			c20.9-0.9,37.6-18.9,37.6-41.2C219.8,127.4,202.3,108.9,180.7,108.9z"/>
		<linearGradient id="SVGID_3_" gradientUnits="userSpaceOnUse" x1="31.7418" y1="150.1074" x2="80.0661" y2="150.1074">
			<stop  offset="0.25" style="stop-color:#3FD7D7"/>
			<stop  offset="1" style="stop-color:#080245"/>
		</linearGradient>
		<path class="st2" d="M70.9,108.9c3.2,0,6.2,0.4,9.2,1.2c-12.4,11.5-20.3,28.3-20.3,47.1c0,12.6,3.5,24.2,9.5,34
			c-20.9-0.9-37.6-18.9-37.6-41.2C31.7,127.4,49.3,108.9,70.9,108.9z"/>
	</g>
	<linearGradient id="SVGID_4_" gradientUnits="userSpaceOnUse" x1="106.2243" y1="156.7293" x2="144.1276" y2="156.7293">
		<stop  offset="0.25" style="stop-color:#3FD7D7"/>
		<stop  offset="1" style="stop-color:#080245"/>
	</linearGradient>
	<path class="st3" d="M141.1,176.5h-8.4v-42.6c0-1.2-0.7-2.4-1.9-2.8c-1.1-0.5-2.5-0.2-3.3,0.7l-18.9,18.9c-1.2,1.2-1.2,3.1,0,4.3
		c1.2,1.2,3.1,1.2,4.3,0l4.8-4.8v26.3h-8.4c-1.7,0-3.1,1.4-3.1,3.1c0,1.7,1.4,3.1,3.1,3.1h31.8c1.7,0,3.1-1.4,3.1-3.1
		C144.1,177.9,142.8,176.5,141.1,176.5z M123.8,144l2.7-2.7v35.2h-2.7V144z"/>
	<g>
		<path class="st4" d="M107.8,89.7C107.8,89.7,107.8,89.7,107.8,89.7c0.3,0.4,0.6,0.6,1,0.8c0.1,0,0.2,0.1,0.2,0.1
			c0.4,0.2,0.8,0.3,1.2,0.3h36.2c0.9,0,1.8-0.4,2.4-1.2L215,5c0.7-0.9,0.9-2.2,0.3-3.2c-0.5-1.1-1.6-1.7-2.8-1.7h-36.2
			c-0.9,0-1.8,0.4-2.4,1.2l-63.8,81.6L50.3,6.1h28l41.8,51.8c1.1,1.3,3,1.5,4.3,0.5c1.3-1.1,1.5-3,0.5-4.3L82.2,1.1
			C81.6,0.4,80.7,0,79.8,0H44c-1.2,0-2.2,0.7-2.8,1.7C40.7,2.8,40.9,4,41.6,5L107.8,89.7z M177.9,6.1h28.4l-61.4,78.6h-28.4
			L177.9,6.1z"/>
		<path class="st4" d="M162.7,98.4v-9.7c0-1.7-1.4-3.1-3.1-3.1c-1.7,0-3.1,1.4-3.1,3.1v6.6H99.1v-6.6c0-1.7-1.4-3.1-3.1-3.1
			c-1.7,0-3.1,1.4-3.1,3.1v9.7c0,1.7,1.4,3.1,3.1,3.1h63.5C161.3,101.4,162.7,100.1,162.7,98.4z"/>
		<path class="st4" d="M115.9,114.2c0,5.6,4.5,10.1,10.1,10.1s10.1-4.5,10.1-10.1s-4.5-10.1-10.1-10.1S115.9,108.7,115.9,114.2z
			 M130,114.2c0,2.2-1.8,4-4,4c-2.2,0-4-1.8-4-4s1.8-4,4-4C128.3,110.3,130,112,130,114.2z"/>
		<path class="st4" d="M171.5,156.6c0-19.6-12.5-36.9-31-43.1c-1.6-0.5-3.3,0.3-3.9,1.9c-0.5,1.6,0.3,3.3,1.9,3.9
			c16,5.4,26.8,20.3,26.8,37.3c0,21.7-17.6,39.3-39.3,39.3c-21.7,0-39.3-17.6-39.3-39.3c0-16.4,10.4-31.3,25.8-36.9
			c1.6-0.6,2.4-2.3,1.8-3.9c-0.6-1.6-2.3-2.4-3.9-1.8c-17.9,6.5-29.8,23.7-29.8,42.7c0,25,20.4,45.4,45.4,45.4
			C151.1,202,171.5,181.7,171.5,156.6z"/>
		<path class="st4" d="M161.3,116.5c0.6,0.5,1.3,0.8,2,0.8c0.9,0,1.7-0.4,2.3-1c1.1-1.3,1-3.2-0.3-4.3c-0.6-0.5-1.2-1.1-1.9-1.6
			c-1.3-1.1-3.2-0.9-4.3,0.5c-1.1,1.3-0.9,3.2,0.5,4.3C160.2,115.5,160.8,116,161.3,116.5z"/>
		<path class="st4" d="M75.8,130.6c0.5,0.3,1,0.4,1.6,0.4c1.1,0,2.1-0.5,2.6-1.5c0.7-1.3,1.5-2.5,2.4-3.7c1-1.4,0.6-3.3-0.7-4.3
			c-1.4-1-3.3-0.6-4.3,0.7c-0.9,1.3-1.8,2.7-2.6,4.1C73.9,127.9,74.4,129.7,75.8,130.6z"/>
		<path class="st4" d="M69.6,158.9c-1.7,0.2-2.9,1.7-2.8,3.3c0.2,1.6,0.4,3.2,0.7,4.8c0.3,1.5,1.6,2.5,3,2.5c0.2,0,0.4,0,0.5,0
			c1.7-0.3,2.8-1.9,2.5-3.6c-0.3-1.4-0.4-2.9-0.6-4.3C72.7,160,71.2,158.8,69.6,158.9z"/>
		<path class="st4" d="M178.2,144.8c0.3,1.4,0.6,2.9,0.8,4.3c0.2,1.5,1.5,2.6,3,2.6c0.1,0,0.3,0,0.4,0c1.7-0.2,2.8-1.8,2.6-3.5
			c-0.2-1.6-0.5-3.2-0.9-4.8c-0.4-1.7-2-2.7-3.7-2.3C178.8,141.5,177.8,143.1,178.2,144.8z"/>
		<path class="st4" d="M74.4,142.9c0.4-1.6-0.5-3.3-2.2-3.8c-1.6-0.4-3.3,0.5-3.8,2.2c-0.4,1.6-0.8,3.2-1.1,4.8
			c-0.3,1.7,0.8,3.3,2.5,3.6c0.2,0,0.4,0,0.5,0c1.5,0,2.8-1,3-2.5C73.7,145.7,74.1,144.3,74.4,142.9z"/>
		<path class="st4" d="M145.7,206.3c-1.3,0.5-2.7,1-4.1,1.4c-1.6,0.5-2.5,2.2-2,3.8c0.4,1.3,1.6,2.2,2.9,2.2c0.3,0,0.6,0,0.9-0.1
			c1.5-0.5,3.1-1,4.6-1.6c1.6-0.6,2.3-2.4,1.7-4C149.1,206.4,147.3,205.6,145.7,206.3z"/>
		<path class="st4" d="M176,124.1c-0.9-1.4-2.8-1.8-4.2-0.9c-1.4,0.9-1.8,2.8-0.9,4.2c0.8,1.2,1.5,2.5,2.2,3.7
			c0.6,1,1.6,1.6,2.7,1.6c0.5,0,1-0.1,1.5-0.4c1.5-0.8,2-2.7,1.2-4.2C177.7,126.9,176.8,125.5,176,124.1z"/>
		<path class="st4" d="M161.7,196.4c-1.1,1-2.2,1.9-3.4,2.8c-1.3,1-1.6,3-0.6,4.3c0.6,0.8,1.5,1.2,2.4,1.2c0.6,0,1.3-0.2,1.9-0.6
			c1.3-1,2.5-2,3.7-3.1c1.3-1.1,1.4-3.1,0.2-4.3C164.9,195.3,163,195.2,161.7,196.4z"/>
		<path class="st4" d="M177.4,180.2c-1.5-0.8-3.4-0.2-4.1,1.3c-0.7,1.3-1.4,2.5-2.2,3.8c-0.9,1.4-0.5,3.3,0.9,4.2
			c0.5,0.3,1.1,0.5,1.6,0.5c1,0,2-0.5,2.6-1.4c0.9-1.4,1.7-2.8,2.5-4.2C179.5,182.9,178.9,181,177.4,180.2z"/>
		<path class="st4" d="M77.9,179.8c-0.7-1.5-2.6-2.2-4.1-1.4c-1.5,0.7-2.2,2.6-1.4,4.1c0.7,1.5,1.5,2.9,2.3,4.3
			c0.6,1,1.6,1.5,2.6,1.5c0.5,0,1.1-0.1,1.6-0.4c1.5-0.9,1.9-2.7,1.1-4.2C79.3,182.4,78.6,181.1,77.9,179.8z"/>
		<path class="st4" d="M181.3,171.6c1.4,0,2.7-1,3-2.4c0.3-1.6,0.6-3.2,0.8-4.8c0.2-1.7-1-3.2-2.6-3.4c-1.7-0.2-3.2,1-3.4,2.6
			c-0.2,1.4-0.4,2.9-0.7,4.3c-0.4,1.7,0.7,3.3,2.4,3.6C180.8,171.6,181.1,171.6,181.3,171.6z"/>
		<path class="st4" d="M89,195c-1.2-1.2-3.2-1.1-4.3,0.1c-1.2,1.2-1.1,3.2,0.1,4.3c1.2,1.1,2.4,2.2,3.6,3.2c0.6,0.5,1.3,0.7,1.9,0.7
			c0.9,0,1.8-0.4,2.4-1.1c1.1-1.3,0.9-3.2-0.4-4.3C91.1,197,90,196,89,195z"/>
		<path class="st4" d="M108.7,207.1c-1.4-0.5-2.7-1-4.1-1.6c-1.5-0.7-3.4,0-4,1.6c-0.7,1.6,0,3.4,1.6,4c1.5,0.7,3,1.2,4.5,1.8
			c0.3,0.1,0.7,0.2,1,0.2c1.3,0,2.5-0.8,2.9-2.1C111.1,209.4,110.3,207.7,108.7,207.1z"/>
		<path class="st4" d="M127.3,210c-1.5,0-2.9,0-4.4-0.1c-1.7-0.1-3.1,1.2-3.2,2.9c-0.1,1.7,1.2,3.1,2.9,3.2c1.2,0.1,2.3,0.1,3.5,0.1
			c0.5,0,0.9,0,1.4,0c1.7,0,3-1.4,3-3.1C130.4,211.3,128.9,209.9,127.3,210z"/>
		<path class="st4" d="M90.4,108.9c-0.6,0.5-1.3,1-1.9,1.5c-1.3,1.1-1.5,3-0.4,4.3c0.6,0.7,1.5,1.1,2.4,1.1c0.7,0,1.4-0.2,1.9-0.7
			c0.6-0.5,1.1-0.9,1.7-1.3c1.4-1,1.6-2.9,0.6-4.3C93.7,108.1,91.8,107.9,90.4,108.9z"/>
		<path class="st4" d="M254.7,19.6c-0.5-1.1-1.6-1.7-2.8-1.7h-30c-1.7,0-3.1,1.4-3.1,3.1s1.4,3.1,3.1,3.1h23.7l-56.6,72.4h-14.7
			c-1.7,0-3.1,1.4-3.1,3.1c0,1.7,1.4,3.1,3.1,3.1h16.1c0.9,0,1.8-0.4,2.4-1.2l61.4-78.6C255.1,21.9,255.2,20.7,254.7,19.6z"/>
		<path class="st4" d="M174.1,106.7c-1.7,0.3-2.8,1.9-2.5,3.6c0.3,1.7,1.9,2.8,3.6,2.5c16.1-2.8,33.1,6,40.4,21.1
			c9.2,19,1.5,41.8-17.1,50.8c-2.8,1.3-10,3.6-15.1,4.1c-1.7,0.2-2.9,1.7-2.8,3.3c0.2,1.6,1.5,2.8,3.1,2.8c0.1,0,0.2,0,0.3,0
			c5.5-0.5,13.5-2.9,17.2-4.6c21.7-10.5,30.6-36.9,20-59C212.6,113.7,192.9,103.4,174.1,106.7z"/>
		<path class="st4" d="M68.2,188.7c-5.1-0.5-12.3-2.7-15.1-4.1c-18.6-9-26.3-31.8-17.1-50.8c7.3-15.1,24.3-24,40.4-21.1
			c1.7,0.3,3.3-0.8,3.6-2.5c0.3-1.7-0.8-3.3-2.5-3.6c-18.8-3.3-38.6,7-47,24.5c-10.6,22.1-1.7,48.5,20,59c3.7,1.8,11.6,4.1,17.2,4.6
			c0.1,0,0.2,0,0.3,0c1.6,0,2.9-1.2,3.1-2.8C71.2,190.4,69.9,188.9,68.2,188.7z"/>
		<path class="st4" d="M64.5,102.6h15.7c1.7,0,3.1-1.4,3.1-3.1c0-1.7-1.4-3.1-3.1-3.1H65.9L9.4,24h20.2c1.7,0,3.1-1.4,3.1-3.1
			s-1.4-3.1-3.1-3.1H3.1c-1.2,0-2.2,0.7-2.8,1.7c-0.5,1.1-0.4,2.3,0.3,3.2L62,101.4C62.6,102.2,63.5,102.6,64.5,102.6z"/>
	</g>
</g>
</svg>
