<?xml version="1.0" encoding="utf-8"?>
<!-- Generator: Adobe Illustrator 22.1.0, SVG Export Plug-In . SVG Version: 6.00 Build 0)  -->
<svg version="1.1" id="Layer_1" xmlns="http://www.w3.org/2000/svg" xmlns:xlink="http://www.w3.org/1999/xlink" x="0px" y="0px"
	 viewBox="0 0 1920 600" style="enable-background:new 0 0 1920 600;" xml:space="preserve">
<style type="text/css">
	.st0{fill:url(#SVGID_1_);}
	.st1{fill:none;stroke:url(#SVGID_2_);stroke-width:2;stroke-miterlimit:10;}
	.st2{fill:#352786;}
	.st3{opacity:0.1;}
	.st4{fill:#160A5C;}
	.st5{fill:#231069;}
	.st6{fill:#FCD0C5;}
	.st7{fill:#FFFFFF;}
	.st8{fill:#463C9F;}
	.st9{fill:#45DAE0;}
	.st10{fill:#4746A4;}
	.st11{fill:#E1B1A5;}
	.st12{fill:#FDD1C6;}
	.st13{fill:#AB8383;}
	.st14{fill:#C0C0F6;}
	.st15{fill:#241268;}
	.st16{fill:#45DFDF;}
	.st17{fill:#5861D6;}
	.st18{fill:#E7E8FD;}
	.st19{fill:#BDBEFF;}
	.st20{fill:none;stroke:#4746A4;stroke-width:4;stroke-linecap:round;stroke-linejoin:round;stroke-miterlimit:10;}
	.st21{opacity:0.8;fill:url(#SVGID_3_);enable-background:new    ;}
	.st22{fill:none;stroke:url(#SVGID_4_);stroke-width:4;stroke-miterlimit:10;}
	.st23{fill:#42E5E0;}
	.st24{opacity:0.8;fill:url(#SVGID_5_);enable-background:new    ;}
	.st25{fill:none;stroke:url(#SVGID_6_);stroke-width:4;stroke-miterlimit:10;}
	.st26{opacity:0.5;}
	.st27{opacity:0.8;fill:url(#SVGID_7_);enable-background:new    ;}
	.st28{fill:none;stroke:url(#SVGID_8_);stroke-width:4;stroke-miterlimit:10;}
	.st29{opacity:0.3;}
	.st30{opacity:0.8;fill:url(#SVGID_9_);enable-background:new    ;}
	.st31{fill:none;stroke:url(#SVGID_10_);stroke-width:4;stroke-miterlimit:10;}
	.st32{opacity:0.15;fill:none;stroke:url(#SVGID_11_);stroke-width:2;stroke-miterlimit:10;enable-background:new    ;}
	.st33{opacity:0.5;fill:none;stroke:url(#SVGID_12_);stroke-width:2;stroke-miterlimit:10;enable-background:new    ;}
	.st34{fill:none;stroke:url(#SVGID_13_);stroke-width:2;stroke-miterlimit:10;}
	.st35{fill:url(#SVGID_14_);}
	.st36{fill:url(#SVGID_15_);}
	.st37{fill:url(#SVGID_16_);}
	.st38{fill:url(#SVGID_17_);}
	.st39{opacity:0.9;fill:url(#SVGID_18_);enable-background:new    ;}
</style>
<g>
	<linearGradient id="SVGID_1_" gradientUnits="userSpaceOnUse" x1="960" y1="600" x2="960" y2="-9.094947e-13">
		<stop  offset="0" style="stop-color:#06199B"/>
		<stop  offset="1" style="stop-color:#0039B7"/>
	</linearGradient>
	<rect class="st0" width="1920" height="600"/>
	<g>
		
			<linearGradient id="SVGID_2_" gradientUnits="userSpaceOnUse" x1="1141.5371" y1="190.0064" x2="1291.1" y2="190.0064" gradientTransform="matrix(1 0 0 -1 0 602)">
			<stop  offset="0" style="stop-color:#3ED8D7"/>
			<stop  offset="1" style="stop-color:#352786"/>
		</linearGradient>
		<path class="st1" d="M1143.5,446.8l146.6-85.2v33l-118.6,67.7c-2,1.1-4.4,1.1-6.4,0l-21.5-12.2
			C1142.2,449.4,1142.2,447.5,1143.5,446.8z"/>
		<polygon class="st2" points="1283.4,157.1 1167.6,224.1 1167.6,433.7 1283.4,366.6 		"/>
		<g class="st3">
			<path class="st4" d="M1192.7,390.8c0,0-3.6,4.9-5.8,5.6c-2.2,0.7-6.6,4-7.7,7.7c-1.2,3.8-0.5,4.8,4.7,4.4s8.3-6.1,8.8-6.5
				s4-3.9,8-5.4c4.1-1.5,0-8.6,0-8.6L1192.7,390.8z"/>
			<path class="st4" d="M1214.3,401.8l-0.5,3.4c0,0,0.5,5.5,0,6.1s-1.8,7.8,0.5,11.1c2.3,3.2,6.7,1.1,8.7-4.1
				c2.1-5.2,0.9-13.8-0.1-15.9c-1-2.2-1.4-9.6-1.4-9.6L1214.3,401.8z"/>
			<path class="st4" d="M1178.8,332.2c0,0-0.6,13.9,10.6,15.8s24.8,3.1,24.8,3.1l5.3,29.2l4.1,13.4v-15.3c0,0-2.7-17.4-2.6-22.1
				s-0.1-15.5-0.1-15.5L1178.8,332.2z"/>
			<path class="st5" d="M1178.4,332.5c0,0-0.1,6.7,8.3,5.7c0,0,4.1,7.3,10.4,9.2c6.3,1.8,19.7,0,19.7,0l2.2,27.2l4.7,19.1
				c0,0-0.1,5.2-0.7,6.7c0,0-0.2,1.9,0.2,3.1c0,0-2.9,2.6-9.3,1.9l0.2-15.1c0,0,0-7.6-1.9-10.8c-1.9-3.2-5.4-12-6.6-16.4
				s-4-7.9-4.8-8.4c0,0-0.9,5.8-0.7,9.5c0.2,3.8,1.2,9.2,1.2,9.2s1.1,13.3,1.1,19.4c0,0-1.1,5.2-6.8,4.2s-4.5-7.2-4.5-7.2
				s-1.5-14.4-2.9-16.5s-6.4-15.8-6.9-22.5S1178.4,332.5,1178.4,332.5z"/>
			<rect x="1199.3" y="291.3" class="st6" width="15.5" height="16.2"/>
			<rect x="1173.8" y="290.1" class="st6" width="15.5" height="16.2"/>
			<polygon class="st7" points="1191.7,261.4 1189.3,268.3 1190.3,285.8 1201.4,278.8 1211.3,261.4 1209.5,256.7 1205.1,254.8 
				1202.8,253.4 			"/>
			<path class="st8" d="M1178.3,261.4l6.9-1.9l3.8-0.4h2.4v5.3l0.4,16.3l0.2,9.3h0.9l4.6-10.6l6.1-10.7c0,0,5.1-6.5,5.6-8.4v-3.2
				l-2.1-1l0.1-0.7l2.8,1c0,0,0.5,6.1,14.4,14c0,0,3.3,1.6,4.5,4.4c0,0-4.6-3.4-8.4,0.8c-3.8,4.2-9,13.1-10.7,18.5
				c0,0-4.9,1.5-5.7,6.1c0,0,0,1.5-2.4,2.4c0,0-1,0.4-0.9,1.5l-14.7-6.4c0,0-0.9-2.5-4.3-2.7l-0.7-0.7l-2.9-0.2v-12.4
				c0,0,0.2-4.9-0.8-6.1c0,0-1.4-1-0.7-4.9C1177.3,266.7,1178.3,261.4,1178.3,261.4z"/>
			<path class="st9" d="M1189.5,337c0,0,2,10.3,13.1,9.6c11.1-0.7,20.9-1.4,19.4-8.9s-13.7-2.4-13.7-2.4L1189.5,337z"/>
			<path class="st9" d="M1176.7,332.2c0,0,2.8,4.5,6.5,5.2s4.7-2,1.8-5.2C1182.1,329,1176.7,332.2,1176.7,332.2z"/>
			<path class="st10" d="M1218.9,318.4l1.9,3c0,0,1.7,10,1.2,17.6c0,0,0.5,2.8-8,4.5s-22.1,5.5-25.7-7.7c0,0-1.6-4.5-4.1-1.3
				c-1.3,2.5-11.1-1.8-12-5.4c-0.9-3.7,4.3-19.1,4.3-19.1l24.7,4L1218.9,318.4z"/>
			<path class="st5" d="M1193,315.8c0,0,0.5,3,6.7,5.6c6.1,2.6,12.2,4.2,21.2,0l-2.3-12.2l-10.6,5l-14.9-0.7L1193,315.8L1193,315.8z
				"/>
			<path class="st9" d="M1182.9,306.6l-5,1.5l0.4,3.5l15.5,5l9.9,3.2c0,0,8.4,3.3,12.5-4.6c0,0,12.4-18.6,13.1-33.1l-4.4,1.6
				l-6.6,14.5l-6.2,8.1c0,0-1,3.4-2.2,3.6s-6.3,2.2-6.8,2c-0.6-0.2-9.8-3.6-9.8-3.6L1182.9,306.6z"/>
			<path class="st10" d="M1228.9,274.7c-0.5-0.3-4.8-3.1-8.4,0.8c-3.8,4.2-9,13.1-10.7,18.5c0,0,2.7-0.1,1.6,1.7c0,0-1.4,1.3-2,1.7
				c-0.5,0.3-1.5,0.5-2,0.8c-0.2,0.1-0.7,0.9,0.4,0.9h4.3v2.5h-1.4c0,0,0.7,2.4-1.5,2.4c0,0-2.4,3.2-3.5,2c-0.4-0.5-0.1-0.9-2.5-1.1
				c-2.4-0.3-2.4-0.8-2.4-0.8l-14.7-6.4l-5.3,5.5l-5.1,1.8l1.2,3c0,0,15.9,5.4,20.9,7.8c3.1,1.4,8.5,4.7,13.7-1.2
				c5.8-6.5,12.1-12.1,17.3-30.2C1229,284.2,1230.3,277.6,1228.9,274.7z"/>
			<path class="st5" d="M1192,290.1l-0.3-12.9c0,0,1.3-1.6,1.4-4c0.2-2.4,0.4-4.4-0.3-5.2v-0.5h5c0,0,0.5,1.2,1.5,1.6v1.7
				c0,0-1.8-0.6-1.8,1c0,2.5,0,7.7,0,7.7l-4.6,10.6L1192,290.1L1192,290.1z"/>
			<path class="st5" d="M1190,260.9l-3.4,3.8l1.3,19.9c0,0,0.6,5.7,2.4,8.6c0,0-4.8-2.8-4.8-28.8l4.3-4.8L1190,260.9z"/>
			<path class="st5" d="M1193,294.9c0,0,7.5-14.8,16.7-23.9l-0.7-3.5h3.4v-3.4h1v4.9h-2.8v0.8h1v2.4
				C1211.6,272.2,1195.2,291,1193,294.9z"/>
			<path class="st11" d="M1194.4,262.9c0,0-0.1,3,0.5,3.1s1.1,1.1,2,0.7s5-1.7,6.1-2.5s4.1-2.7,4.5-4.3s0.6-7,0.3-7.9
				c-0.4-0.9-3.5-0.3-3.6-0.4c-0.2-0.1-5.8,0.6-5.8,0.6l-4.5,8.7L1194.4,262.9z"/>
			<path class="st12" d="M1185.9,240.9c0,0,0.3,12.3,1.6,15c1.3,2.7,1.3,10.6,7.5,8.8s9.9-8.9,10.6-11.3c0,0,3.2-0.3,3.5-1.9
				s1.6-3.6,1.6-6.6s-0.1-4.5-0.1-4.5l-8-2l-3.8-2.8l-11.2,3.3L1185.9,240.9z"/>
			<path class="st13" d="M1185.3,237.6c0,0-2.1,7,3.8,5.3c6.7-1.9,11.3-7.7,12.2-2.2c0,0-0.5,4.3,2.3,6c0.5,4,2.1,5.2,2.2,2.8
				c0,0-0.3-3.3,1.4-4.4c1.7-1.1,3.9,0.7,3.5-4.4c-0.4-5-0.7-13.3-12.6-13.7C1187.2,227.2,1185.3,237.6,1185.3,237.6z"/>
			<path class="st5" d="M1178.3,261.4c0,0-3.1,4.5-4.7,7.9s-7.7,19.8-8.1,21.1c-0.4,1.4-1.8,3.3-1.8,6.4c-0.1,2.5,0,8.1,0,10.3
				c0,0.5,0.3,1,0.8,1.1l27,8.8c0.3,0.1,0.6-0.1,0.6-0.5V316l-12.8-5.1l1.6-7.9l-4.3-2.6v-3l0.6-0.6l0.1-1.5l1.1-0.1l0.5-2.8
				l0.5-17.1L1178.3,261.4z"/>
		</g>
		<path class="st14" d="M1167.6,455.3c0,1,1.1,1.6,2,1.1l113.2-65.2c0.4-0.2,0.7-0.7,0.7-1.1v-16.9l-115.8,67L1167.6,455.3
			L1167.6,455.3z"/>
		<polygon class="st15" points="1283.4,150.5 1167.6,217.6 1167.6,224.1 1283.4,157.1 		"/>
		<polygon class="st15" points="1167.6,433.7 1167.6,440.2 1283.4,373.2 1283.4,366.6 		"/>
		<polygon class="st16" points="1187.8,248.3 1184.5,250.2 1184.5,245.3 1187.8,243.3 		"/>
		<polygon class="st16" points="1193,245.2 1189.7,247.1 1189.7,242.2 1193,240.3 		"/>
		<polygon class="st16" points="1193,274.7 1189.7,276.6 1189.7,271.7 1193,269.8 		"/>
		<polygon class="st16" points="1193,256 1189.7,257.9 1189.7,249.1 1193,247.2 		"/>
		<polygon class="st16" points="1193,266.8 1189.7,268.7 1189.7,259.9 1193,258 		"/>
		<polygon class="st16" points="1187.8,275.8 1184.5,277.7 1184.5,272.8 1187.8,270.9 		"/>
		<polygon class="st16" points="1187.8,282.7 1184.5,284.6 1184.5,279.7 1187.8,277.7 		"/>
		<polygon class="st16" points="1187.8,289.5 1184.5,291.5 1184.5,286.5 1187.8,284.6 		"/>
		<polygon class="st16" points="1187.8,268.9 1184.5,270.8 1184.5,252.1 1187.8,250.2 		"/>
		<path class="st17" d="M1154.2,447.8V196.6c0-2.3,1.2-4.5,3.2-5.6l110.3-63.8c0.4-0.2,0.9-0.2,1.3,0l13.1,7.5l-3.2,8.8l-111.4,59
			l0.7,254.1l-13.4-7.5C1154.5,448.7,1154.2,448.3,1154.2,447.8z"/>
		<path class="st18" d="M1283.4,136.8c0-2-2.2-3.3-3.9-2.3l-109.3,63.3c-1.6,0.9-2.6,2.6-2.6,4.5v15.2l115.8-67.1V136.8z"/>
		<path class="st19" d="M1167.6,202.3c0-1.6,0.8-3.1,2-4.1l-12.2-7.2c-1.6,0.9-2.7,2.5-3,4.2l13.2,8.3V202.3z"/>
		<line class="st20" x1="1212.9" y1="182.3" x2="1234.1" y2="170"/>
		<path class="st19" d="M1160.9,244.1L1160.9,244.1c-1.3-0.6-2.3-2.1-2.3-3.4v-15.5c0-1.3,1-1.8,2.3-1.2l0,0
			c1.3,0.6,2.3,2.1,2.3,3.4V243C1163.2,244.2,1162.2,244.7,1160.9,244.1z"/>
		<path class="st19" d="M1160.9,266.9L1160.9,266.9c-1.3-0.6-2.3-2.1-2.3-3.4V248c0-1.3,1-1.8,2.3-1.2l0,0c1.3,0.6,2.3,2.1,2.3,3.4
			v15.5C1163.2,267,1162.2,267.5,1160.9,266.9z"/>
	</g>
	<g>
		<g>
			
				<radialGradient id="SVGID_3_" cx="1284.7872" cy="328.0071" r="7.6314" gradientTransform="matrix(2.4074 0 0 -1.2963 -1728.9966 758.5956)" gradientUnits="userSpaceOnUse">
				<stop  offset="0" style="stop-color:#42E7E1"/>
				<stop  offset="0.7821" style="stop-color:#41E6E0;stop-opacity:0.2"/>
				<stop  offset="1" style="stop-color:#40E5DF;stop-opacity:0"/>
			</radialGradient>
			<ellipse class="st21" cx="1364" cy="333.4" rx="18.4" ry="9.9"/>
			
				<linearGradient id="SVGID_4_" gradientUnits="userSpaceOnUse" x1="1305.5061" y1="251.15" x2="1365.2939" y2="251.15" gradientTransform="matrix(1 0 0 -1 0 602)">
				<stop  offset="0" style="stop-color:#40E5DF;stop-opacity:0"/>
				<stop  offset="1" style="stop-color:#42E7E1"/>
			</linearGradient>
			<line class="st22" x1="1364.3" y1="334.3" x2="1306.5" y2="367.4"/>
			<circle class="st23" cx="1365.8" cy="334" r="4.5"/>
		</g>
		
			<radialGradient id="SVGID_5_" cx="1338.5542" cy="289.0027" r="7.6277" gradientTransform="matrix(2.4074 0 0 -1.2963 -1728.9966 758.5956)" gradientUnits="userSpaceOnUse">
			<stop  offset="0" style="stop-color:#42E7E1"/>
			<stop  offset="0.7821" style="stop-color:#41E6E0;stop-opacity:0.2"/>
			<stop  offset="1" style="stop-color:#40E5DF;stop-opacity:0"/>
		</radialGradient>
		<ellipse class="st24" cx="1493.4" cy="384" rx="18.4" ry="9.9"/>
		
			<linearGradient id="SVGID_6_" gradientUnits="userSpaceOnUse" x1="1434.9061" y1="200.55" x2="1494.6938" y2="200.55" gradientTransform="matrix(1 0 0 -1 0 602)">
			<stop  offset="0" style="stop-color:#40E5DF;stop-opacity:0"/>
			<stop  offset="1" style="stop-color:#42E7E1"/>
		</linearGradient>
		<line class="st25" x1="1493.7" y1="384.9" x2="1435.9" y2="418"/>
		<circle class="st23" cx="1495.3" cy="384.6" r="4.5"/>
		<g class="st26">
			
				<radialGradient id="SVGID_7_" cx="1307.5504" cy="370.7441" r="7.6248" gradientTransform="matrix(2.4074 0 0 -1.2963 -1728.9966 758.5956)" gradientUnits="userSpaceOnUse">
				<stop  offset="0" style="stop-color:#42E7E1"/>
				<stop  offset="0.7821" style="stop-color:#41E6E0;stop-opacity:0.2"/>
				<stop  offset="1" style="stop-color:#40E5DF;stop-opacity:0"/>
			</radialGradient>
			<ellipse class="st27" cx="1418.8" cy="278" rx="18.4" ry="9.9"/>
			
				<linearGradient id="SVGID_8_" gradientUnits="userSpaceOnUse" x1="1360.3062" y1="306.55" x2="1420.0939" y2="306.55" gradientTransform="matrix(1 0 0 -1 0 602)">
				<stop  offset="0" style="stop-color:#40E5DF;stop-opacity:0"/>
				<stop  offset="1" style="stop-color:#42E7E1"/>
			</linearGradient>
			<line class="st28" x1="1419.1" y1="278.9" x2="1361.3" y2="312"/>
			<circle class="st23" cx="1420.6" cy="278.6" r="4.5"/>
		</g>
		<g class="st29">
			
				<radialGradient id="SVGID_9_" cx="1299.2842" cy="283.4187" r="7.6401" gradientTransform="matrix(2.4074 0 0 -1.2963 -1728.9966 758.5956)" gradientUnits="userSpaceOnUse">
				<stop  offset="0" style="stop-color:#42E7E1"/>
				<stop  offset="0.7821" style="stop-color:#41E6E0;stop-opacity:0.2"/>
				<stop  offset="1" style="stop-color:#40E5DF;stop-opacity:0"/>
			</radialGradient>
			<ellipse class="st30" cx="1398.9" cy="391.2" rx="18.4" ry="9.9"/>
			
				<linearGradient id="SVGID_10_" gradientUnits="userSpaceOnUse" x1="1340.4061" y1="193.35" x2="1400.1938" y2="193.35" gradientTransform="matrix(1 0 0 -1 0 602)">
				<stop  offset="0" style="stop-color:#40E5DF;stop-opacity:0"/>
				<stop  offset="1" style="stop-color:#42E7E1"/>
			</linearGradient>
			<line class="st31" x1="1399.2" y1="392.1" x2="1341.4" y2="425.2"/>
			<circle class="st23" cx="1400.7" cy="391.8" r="4.5"/>
		</g>
	</g>
	<g>
		
			<linearGradient id="SVGID_11_" gradientUnits="userSpaceOnUse" x1="1207.375" y1="96.7" x2="1415.9629" y2="96.7" gradientTransform="matrix(1 0 0 -1 0 602)">
			<stop  offset="0" style="stop-color:#3ED8D7"/>
			<stop  offset="1" style="stop-color:#352786"/>
		</linearGradient>
		<path class="st32" d="M1209.2,500.2l111.7,64.1c1.7,1,3.7,1,5.4,0l87.8-49.9c1.1-0.7,1.2-2.3,0-3L1303,446.3c-1.7-1-3.8-1-5.5,0
			l-88.3,50.9C1208.1,497.9,1208.1,499.5,1209.2,500.2z"/>
		
			<linearGradient id="SVGID_12_" gradientUnits="userSpaceOnUse" x1="1207.375" y1="105.7" x2="1415.9629" y2="105.7" gradientTransform="matrix(1 0 0 -1 0 602)">
			<stop  offset="0" style="stop-color:#3ED8D7"/>
			<stop  offset="1" style="stop-color:#352786"/>
		</linearGradient>
		<path class="st33" d="M1209.2,491.2l111.7,64.1c1.7,1,3.7,1,5.4,0l87.8-49.9c1.1-0.7,1.2-2.3,0-3L1303,437.3c-1.7-1-3.8-1-5.5,0
			l-88.3,50.9C1208.1,488.9,1208.1,490.5,1209.2,491.2z"/>
		
			<linearGradient id="SVGID_13_" gradientUnits="userSpaceOnUse" x1="1207.375" y1="114.7" x2="1415.9629" y2="114.7" gradientTransform="matrix(1 0 0 -1 0 602)">
			<stop  offset="0" style="stop-color:#3ED8D7"/>
			<stop  offset="1" style="stop-color:#352786"/>
		</linearGradient>
		<path class="st34" d="M1209.2,482.2l111.7,64.1c1.7,1,3.7,1,5.4,0l87.8-49.9c1.1-0.7,1.2-2.3,0-3L1303,428.3c-1.7-1-3.8-1-5.5,0
			l-88.3,50.9C1208.1,479.9,1208.1,481.5,1209.2,482.2z"/>
		
			<linearGradient id="SVGID_14_" gradientUnits="userSpaceOnUse" x1="1209.7999" y1="123.9" x2="1413.7" y2="123.9" gradientTransform="matrix(1 0 0 -1 0 602)">
			<stop  offset="0" style="stop-color:#39B3C2"/>
			<stop  offset="1" style="stop-color:#CAC8F9"/>
		</linearGradient>
		<path class="st35" d="M1413.6,485.2c0-0.6-0.3-1.1-0.8-1.4l-109.7-64.3c-1.7-1-3.7-1-5.4,0l-87.1,50.2c-0.6,0.3-0.8,0.9-0.8,1.5
			l0,0v0.8l0,0c0,0.6,0.3,1.1,0.8,1.5l110.2,63.2c1.7,1,3.7,1,5.4,0l86.6-49.2c0.6-0.3,0.9-0.9,0.9-1.5l0,0L1413.6,485.2
			L1413.6,485.2z"/>
		<path class="st8" d="M1405.7,466.7c0-0.5-0.3-1-0.8-1.3l-101.2-59.3c-1.5-0.9-3.5-0.9-5,0l-80.3,46.3c-0.5,0.3-0.8,0.8-0.8,1.3
			l0,0v15.6l0,0c0,0.5,0.3,1,0.8,1.3l101.6,58.3c1.5,0.9,3.4,0.9,4.9,0l79.8-45.4c0.5-0.3,0.8-0.8,0.8-1.4l0,0L1405.7,466.7
			L1405.7,466.7z"/>
		
			<linearGradient id="SVGID_15_" gradientUnits="userSpaceOnUse" x1="1214.4999" y1="140.35" x2="1408.7" y2="140.35" gradientTransform="matrix(1 0 0 -1 0 602)">
			<stop  offset="0" style="stop-color:#4348AE"/>
			<stop  offset="1" style="stop-color:#39B3C2"/>
		</linearGradient>
		<path class="st36" d="M1408.7,460.8c0-0.5-0.3-1.1-0.8-1.4l-104.5-61.2c-1.6-0.9-3.6-0.9-5.2,0l-82.9,47.8
			c-0.5,0.3-0.8,0.9-0.8,1.4l0,0v16.1l0,0c0,0.5,0.3,1.1,0.8,1.4l105,60.2c1.6,0.9,3.5,0.9,5.1,0l82.5-46.8c0.5-0.3,0.8-0.9,0.8-1.4
			l0,0V460.8L1408.7,460.8z"/>
		
			<linearGradient id="SVGID_16_" gradientUnits="userSpaceOnUse" x1="1214.5751" y1="148.4" x2="1408.825" y2="148.4" gradientTransform="matrix(1 0 0 -1 0 602)">
			<stop  offset="0" style="stop-color:#C0C0F6"/>
			<stop  offset="1" style="stop-color:#E7E8FD"/>
		</linearGradient>
		<path class="st37" d="M1215.4,448.8l105,60.2c1.6,0.9,3.5,0.9,5.1,0l82.5-46.8c1.1-0.6,1.1-2.2,0-2.8l-104.5-61.2
			c-1.6-0.9-3.6-0.9-5.2,0l-82.9,47.8C1214.3,446.7,1214.3,448.2,1215.4,448.8z"/>
		
			<linearGradient id="SVGID_17_" gradientUnits="userSpaceOnUse" x1="1297.5613" y1="168.183" x2="1311.7288" y2="148.0279" gradientTransform="matrix(1 0 0 -1 0 602)">
			<stop  offset="0" style="stop-color:#231069"/>
			<stop  offset="1" style="stop-color:#39B3C2"/>
		</linearGradient>
		<path class="st38" d="M1262.3,451.2l53.9,30.9c0.8,0.5,1.8,0.5,2.6,0l42.3-24c0.6-0.3,0.6-1.1,0-1.4l-53.6-31.4
			c-0.8-0.5-1.8-0.5-2.7,0l-42.6,24.6C1261.7,450.1,1261.7,450.8,1262.3,451.2z"/>
		<g>
			<path class="st4" d="M1298.6,432.6c0,0-4.3,5.8-6.9,6.7s-7.8,4.7-9.2,9.2c-1.4,4.5-0.6,5.7,5.6,5.3c6.2-0.4,9.9-7.3,10.5-7.7
				c0.6-0.4,4.7-4.6,9.6-6.5c4.8-1.8,0-10.2,0-10.2L1298.6,432.6z"/>
			<path class="st4" d="M1324.4,445.7l-0.5,4.1c0,0,0.6,6.6,0,7.3s-2.2,9.4,0.5,13.2c2.7,3.9,8,1.3,10.4-4.9s1.1-16.4-0.1-19
				s-1.7-11.5-1.7-11.5L1324.4,445.7z"/>
			<path class="st4" d="M1282,362.6c0,0-0.7,16.6,12.6,18.8c13.3,2.3,29.6,3.7,29.6,3.7l6.3,34.8l4.9,16v-18.3
				c0,0-3.2-20.8-3.1-26.3s-0.1-18.5-0.1-18.5L1282,362.6z"/>
			<path class="st5" d="M1281.6,362.9c0,0-0.1,8,9.9,6.8c0,0,4.9,8.8,12.4,11s23.5,0,23.5,0l2.6,32.5l5.6,22.8c0,0-0.1,6.2-0.9,8
				c0,0-0.2,2.3,0.2,3.7c0,0-3.4,3.1-11.1,2.3l0.2-18.1c0,0,0-9-2.3-12.9s-6.5-14.3-7.8-19.6c-1.4-5.3-4.7-9.5-5.7-10
				c0,0-1.1,6.9-0.9,11.4s1.4,11,1.4,11s1.3,15.9,1.3,23.2c0,0-1.3,6.2-8.1,5.1c-6.8-1.2-5.4-8.6-5.4-8.6s-1.8-17.2-3.4-19.7
				s-7.6-18.8-8.3-26.9C1284.3,376.7,1281.6,362.9,1281.6,362.9z"/>
			<rect x="1306.5" y="313.7" class="st6" width="18.6" height="19.4"/>
			<rect x="1276" y="312.2" class="st6" width="18.6" height="19.4"/>
			<polygon class="st7" points="1297.4,278 1294.6,286.3 1295.8,307.1 1309,298.8 1320.8,278 1318.7,272.3 1313.5,270.1 
				1310.6,268.4 			"/>
			<path class="st8" d="M1281.4,278l8.2-2.2l4.6-0.5h2.8v6.3l0.5,19.4l0.3,11.2h1l5.5-12.6l7.3-12.8c0,0,6.1-7.7,6.7-10.1v-3.9
				l-2.5-1.2l0.2-0.9l3.3,1.2c0,0,0.6,7.3,17.3,16.7c0,0,4,1.9,5.4,5.2c0,0-5.5-4.1-10.1,0.9s-10.7,15.7-12.8,22.1
				c0,0-5.9,1.8-6.9,7.3c0,0,0,1.8-2.8,2.8c0,0-1.2,0.5-1,1.8l-17.5-7.7c0,0-1.1-3-5.1-3.2l-0.8-0.8l-3.5-0.2V302c0,0,0.2-5.9-1-7.3
				c0,0-1.6-1.2-0.9-5.9C1280.3,284.3,1281.4,278,1281.4,278z"/>
			<path class="st9" d="M1294.9,368.3c0,0,2.4,12.3,15.7,11.5c13.3-0.8,25-1.7,23.2-10.6c-1.8-9-16.4-2.8-16.4-2.8L1294.9,368.3z"/>
			<path class="st9" d="M1279.5,362.5c0,0,3.4,5.4,7.8,6.2c4.4,0.8,5.6-2.4,2.1-6.2C1286,358.7,1279.5,362.5,1279.5,362.5z"/>
			<path class="st10" d="M1330,346l2.3,3.5c0,0,2,11.9,1.4,21.1c0,0,0.5,3.3-9.6,5.4c-10.1,2-26.4,6.5-30.7-9.2c0,0-1.9-5.3-4.8-1.5
				c-1.5,3-13.3-2.1-14.3-6.5c-1.1-4.4,5.2-22.8,5.2-22.8l29.5,4.7L1330,346z"/>
			<path class="st5" d="M1299,342.9c0,0,0.6,3.5,8,6.7c7.3,3.1,14.6,5.1,25.3,0l-2.7-14.5l-12.7,6l-17.8-0.8v2.6H1299z"/>
			<path class="st9" d="M1286.9,332l-6,1.8l0.4,4.2l18.6,5.9l11.9,3.8c0,0,10,4,14.9-5.5c0,0,14.8-22.3,15.6-39.6l-5.2,1.9
				l-7.8,17.4l-7.4,9.7c0,0-1.2,4-2.6,4.2s-7.5,2.6-8.1,2.4c-0.7-0.2-11.7-4.3-11.7-4.3L1286.9,332z"/>
			<path class="st10" d="M1341.9,293.8c-0.6-0.4-5.7-3.7-10,1c-4.6,5-10.7,15.7-12.8,22.1c0,0,3.2-0.1,1.9,2c0,0-1.7,1.6-2.3,2
				c-0.5,0.3-1.8,0.6-2.3,1c-0.2,0.2-0.9,1.1,0.5,1h5.1v3h-1.6c0,0,0.8,2.8-1.8,2.8c0,0-2.8,3.8-4.2,2.3c-0.5-0.6-0.1-1-2.9-1.4
				s-2.9-1-2.9-1l-17.5-7.7l-6.3,6.5l-6.1,2.1l1.5,3.6c0,0,18.9,6.5,25,9.3c3.7,1.7,10.1,5.7,16.4-1.5c6.9-7.8,14.4-14.4,20.7-36
				C1341.9,305.2,1343.6,297.3,1341.9,293.8z"/>
			<path class="st5" d="M1297.8,312.2l-0.4-15.4c0,0,1.5-1.9,1.7-4.8s0.5-5.3-0.3-6.2v-0.5h6c0,0,0.6,1.5,1.7,1.9v2
				c0,0-2.2-0.8-2.2,1.2c0,3,0,9.2,0,9.2l-5.5,12.6L1297.8,312.2L1297.8,312.2z"/>
			<path class="st5" d="M1295.4,277.3l-4,4.5l1.5,23.8c0,0,0.7,6.8,2.8,10.2c0,0-5.8-3.3-5.7-34.4l5.2-5.8L1295.4,277.3z"/>
			<path class="st5" d="M1299,318c0,0,8.9-17.6,19.9-28.5l-0.9-4.1h4v-4.1h1.2v5.9h-3.3v0.9h1.2v2.9
				C1321.2,290.9,1301.6,313.3,1299,318z"/>
			<path class="st11" d="M1300.6,279.7c0,0-0.1,3.6,0.6,3.7c0.8,0.1,1.3,1.3,2.3,0.9s6-2,7.3-3s4.9-3.2,5.3-5.1s0.8-8.3,0.3-9.4
				c-0.4-1.1-4.1-0.4-4.3-0.4c-0.2-0.1-6.9,0.7-6.9,0.7l-5.4,10.3L1300.6,279.7z"/>
			<path class="st12" d="M1290.5,253.4c0,0,0.4,14.7,1.9,18c1.5,3.2,1.6,12.6,9,10.5s11.8-10.6,12.7-13.5c0,0,3.9-0.3,4.2-2.3
				c0.3-2,2-4.3,2-7.9s-0.1-5.4-0.1-5.4l-9.6-2.4l-4.6-3.4l-13.3,3.9L1290.5,253.4z"/>
			<path class="st13" d="M1289.8,249.5c0,0-2.5,8.3,4.6,6.3c8-2.2,13.5-9.2,14.5-2.6c0,0-0.6,5.1,2.8,7.1c0.6,4.8,2.5,6.2,2.7,3.3
				c0,0-0.3-3.9,1.7-5.3s4.6,0.8,4.1-5.2s-0.8-15.9-15-16.3C1292.1,237.1,1289.8,249.5,1289.8,249.5z"/>
			<path class="st5" d="M1281.4,278c0,0-3.7,5.4-5.6,9.4s-9.2,23.6-9.7,25.2s-2.1,4-2.2,7.7c-0.1,3,0,9.7,0,12.3
				c0,0.6,0.4,1.1,1,1.3l32.2,10.6c0.4,0.1,0.8-0.2,0.8-0.6v-0.7l-15.2-6.1l1.9-9.4l-5.2-3.1V321l0.8-0.7l0.2-1.8l1.4-0.1l0.6-3.4
				l0.6-20.5L1281.4,278z"/>
		</g>
		
			<linearGradient id="SVGID_18_" gradientUnits="userSpaceOnUse" x1="1311.0001" y1="119.525" x2="1311.0001" y2="241.5" gradientTransform="matrix(1 0 0 -1 0 602)">
			<stop  offset="0" style="stop-color:#42E7E1"/>
			<stop  offset="1" style="stop-color:#40E5DF;stop-opacity:0"/>
		</linearGradient>
		<path class="st39" d="M1360.8,360.5h-99.6l0,0v90l0,0c0,0.3,0.1,0.6,0.4,0.7l53.9,30.9c0.8,0.5,1.8,0.5,2.6,0l42.3-24
			c0.3-0.2,0.4-0.4,0.4-0.7l0,0L1360.8,360.5L1360.8,360.5z"/>
	</g>
</g>
</svg>
