<?xml version="1.0" encoding="utf-8"?>
<!-- Generator: Adobe Illustrator 22.1.0, SVG Export Plug-In . SVG Version: 6.00 Build 0)  -->
<svg version="1.1" id="Layer_1" xmlns="http://www.w3.org/2000/svg" xmlns:xlink="http://www.w3.org/1999/xlink" x="0px" y="0px"
	 viewBox="0 0 160 201.4" style="enable-background:new 0 0 160 201.4;" xml:space="preserve">
<style type="text/css">
	.st0{fill:#0F0A4C;}
	.st1{fill:url(#SVGID_1_);}
	.st2{fill:url(#SVGID_2_);}
	.st3{opacity:0.7;fill:#4EEEE6;}
	.st4{fill:url(#SVGID_3_);}
	.st5{fill:#4EEEE6;}
	.st6{fill:url(#SVGID_4_);}
	.st7{fill:url(#SVGID_5_);}
	.st8{fill:url(#SVGID_6_);}
	.st9{fill:url(#SVGID_7_);}
	.st10{fill:url(#SVGID_8_);}
	.st11{fill:url(#SVGID_9_);}
	.st12{fill:url(#SVGID_10_);}
	.st13{fill:url(#SVGID_11_);}
	.st14{fill:url(#SVGID_12_);}
	.st15{fill:url(#SVGID_13_);}
	.st16{fill:#40E5DF;}
	.st17{fill:url(#SVGID_14_);}
	.st18{fill:url(#SVGID_15_);}
	.st19{fill:url(#SVGID_16_);}
	.st20{fill:url(#SVGID_17_);}
	.st21{fill:url(#SVGID_18_);}
	.st22{fill:url(#SVGID_19_);}
	.st23{fill:url(#SVGID_20_);}
	.st24{fill:url(#SVGID_21_);}
	.st25{fill:url(#SVGID_22_);}
	.st26{fill:url(#SVGID_23_);}
	.st27{fill:url(#SVGID_24_);}
	.st28{fill:url(#SVGID_25_);}
	.st29{fill:url(#SVGID_26_);}
	.st30{fill:url(#SVGID_27_);}
	.st31{fill:url(#SVGID_28_);}
	.st32{fill:url(#SVGID_29_);}
	.st33{fill:url(#SVGID_30_);}
	.st34{fill:url(#SVGID_31_);}
	.st35{fill:url(#SVGID_32_);}
	.st36{fill:url(#SVGID_33_);}
	.st37{fill:url(#SVGID_34_);}
	.st38{fill:url(#SVGID_35_);}
	.st39{fill:url(#SVGID_36_);}
	.st40{fill:url(#SVGID_37_);}
	.st41{fill:url(#SVGID_38_);}
</style>
<g>
	<path class="st0" d="M1.8,157.1c-2.4-1.4-2.4-3.7,0-5.1l73.8-43.2c2.4-1.4,6.3-1.4,8.7,0l73.8,43.2c2.4,1.4,2.4,3.7,0,5.1
		l-73.8,43.2c-2.4,1.4-6.3,1.4-8.7,0L1.8,157.1z"/>
	<g>
		<linearGradient id="SVGID_1_" gradientUnits="userSpaceOnUse" x1="13.9534" y1="170.5605" x2="80" y2="170.5605">
			<stop  offset="0" style="stop-color:#378CB3"/>
			<stop  offset="1" style="stop-color:#312B8F"/>
		</linearGradient>
		<polygon class="st1" points="80,185.7 14,147.7 14,155.4 80,193.4 		"/>
		<linearGradient id="SVGID_2_" gradientUnits="userSpaceOnUse" x1="80" y1="170.5605" x2="146.0466" y2="170.5605">
			<stop  offset="0" style="stop-color:#251B71"/>
			<stop  offset="1" style="stop-color:#1B105F"/>
		</linearGradient>
		<polygon class="st2" points="80,193.4 146,155.4 146,147.7 80,185.7 		"/>
		<polygon class="st3" points="146,147.8 80,109.7 14,147.7 80,185.7 		"/>
		<linearGradient id="SVGID_3_" gradientUnits="userSpaceOnUse" x1="27.1627" y1="147.7193" x2="132.8373" y2="147.7193">
			<stop  offset="0" style="stop-color:#3274A6"/>
			<stop  offset="1" style="stop-color:#312A91"/>
		</linearGradient>
		<polygon class="st4" points="132.8,147.7 80,117.3 27.2,147.7 80,178.1 		"/>
		<polygon class="st5" points="80,177.6 27.2,147.7 80,178.1 132.8,147.7 		"/>
		<linearGradient id="SVGID_4_" gradientUnits="userSpaceOnUse" x1="27.1627" y1="132.8038" x2="80" y2="132.8038">
			<stop  offset="0" style="stop-color:#312A91"/>
			<stop  offset="1" style="stop-color:#3274A6"/>
		</linearGradient>
		<polygon class="st6" points="80,117.3 27.2,147.7 28.1,148.3 80,118.4 		"/>
		<linearGradient id="SVGID_5_" gradientUnits="userSpaceOnUse" x1="80" y1="132.8038" x2="132.8373" y2="132.8038">
			<stop  offset="0" style="stop-color:#312A91"/>
			<stop  offset="1" style="stop-color:#3274A6"/>
		</linearGradient>
		<polygon class="st7" points="80,117.3 80,118.4 131.9,148.3 132.8,147.7 		"/>
		<linearGradient id="SVGID_6_" gradientUnits="userSpaceOnUse" x1="39.8216" y1="154.3859" x2="80" y2="154.3859">
			<stop  offset="0" style="stop-color:#40E5DF;stop-opacity:0.5"/>
			<stop  offset="1" style="stop-color:#42E7E1"/>
		</linearGradient>
		<polygon class="st8" points="80,160.4 39.8,137.3 39.8,148.4 80,171.5 		"/>
		<linearGradient id="SVGID_7_" gradientUnits="userSpaceOnUse" x1="80" y1="154.3859" x2="120.1784" y2="154.3859">
			<stop  offset="0" style="stop-color:#42E7E1;stop-opacity:0.9"/>
			<stop  offset="1" style="stop-color:#40E5DF;stop-opacity:0.5"/>
		</linearGradient>
		<polygon class="st9" points="120.2,148.4 80,171.5 80,160.4 120.2,137.3 		"/>
	</g>
	<g>
		<linearGradient id="SVGID_8_" gradientUnits="userSpaceOnUse" x1="13.9534" y1="138.0875" x2="80" y2="138.0875">
			<stop  offset="0" style="stop-color:#378CB3"/>
			<stop  offset="1" style="stop-color:#312B8F"/>
		</linearGradient>
		<polygon class="st10" points="80,153.2 14,115.2 14,123 80,160.9 		"/>
		<linearGradient id="SVGID_9_" gradientUnits="userSpaceOnUse" x1="80" y1="138.0875" x2="146.0466" y2="138.0875">
			<stop  offset="0" style="stop-color:#251B71"/>
			<stop  offset="1" style="stop-color:#1B105F"/>
		</linearGradient>
		<polygon class="st11" points="80,160.9 146,123 146,115.2 80,153.2 		"/>
		<polygon class="st3" points="146,115.3 80,77.3 14,115.2 80,153.2 		"/>
		<linearGradient id="SVGID_10_" gradientUnits="userSpaceOnUse" x1="27.1627" y1="115.2464" x2="132.8373" y2="115.2464">
			<stop  offset="0" style="stop-color:#3274A6"/>
			<stop  offset="1" style="stop-color:#312A91"/>
		</linearGradient>
		<polygon class="st12" points="132.8,115.2 80,84.9 27.2,115.2 80,145.6 		"/>
		<polygon class="st5" points="80,145.1 27.2,115.2 80,145.6 132.8,115.2 		"/>
		<linearGradient id="SVGID_11_" gradientUnits="userSpaceOnUse" x1="27.1627" y1="100.3309" x2="80" y2="100.3309">
			<stop  offset="0" style="stop-color:#312A91"/>
			<stop  offset="1" style="stop-color:#3274A6"/>
		</linearGradient>
		<polygon class="st13" points="80,84.9 27.2,115.2 28.1,115.8 80,86 		"/>
		<linearGradient id="SVGID_12_" gradientUnits="userSpaceOnUse" x1="80" y1="100.3309" x2="132.8373" y2="100.3309">
			<stop  offset="0" style="stop-color:#312A91"/>
			<stop  offset="1" style="stop-color:#3274A6"/>
		</linearGradient>
		<polygon class="st14" points="80,84.9 80,86 131.9,115.8 132.8,115.2 		"/>
		<linearGradient id="SVGID_13_" gradientUnits="userSpaceOnUse" x1="80" y1="139.0232" x2="80" y2="92.8181">
			<stop  offset="0" style="stop-color:#42E7E1"/>
			<stop  offset="1" style="stop-color:#40E5DF;stop-opacity:0"/>
		</linearGradient>
		<polygon class="st15" points="39.8,115.9 80,139 120.2,115.9 120.2,115.9 80,92.8 		"/>
		<g>
			<path class="st16" d="M80,95.1l36.2,20.8L80,136.7l-36.2-20.8L80,95.1 M80,92.8l-40.2,23.1L80,139l40.2-23.1v0L80,92.8L80,92.8z"
				/>
		</g>
		<linearGradient id="SVGID_14_" gradientUnits="userSpaceOnUse" x1="80" y1="140.9961" x2="80" y2="4.4002">
			<stop  offset="0" style="stop-color:#42E7E1;stop-opacity:0.7"/>
			<stop  offset="1" style="stop-color:#40E5DF;stop-opacity:0"/>
		</linearGradient>
		<polygon class="st17" points="39.8,0 39.8,115.9 80,139 120.2,115.9 120.2,0 		"/>
		<g>
			<g>
				<g>
					<g>
						<linearGradient id="SVGID_15_" gradientUnits="userSpaceOnUse" x1="55.2325" y1="40.7288" x2="55.2325" y2="36.3257">
							<stop  offset="0" style="stop-color:#42E7E1"/>
							<stop  offset="1" style="stop-color:#40E5DF;stop-opacity:0"/>
						</linearGradient>
						<rect x="54.1" y="36.3" class="st18" width="2.2" height="4.4"/>
					</g>
					<g>
						<linearGradient id="SVGID_16_" gradientUnits="userSpaceOnUse" x1="55.2325" y1="43.1421" x2="55.2325" y2="41.9355">
							<stop  offset="0" style="stop-color:#42E7E1"/>
							<stop  offset="1" style="stop-color:#40E5DF;stop-opacity:0"/>
						</linearGradient>
						<rect x="54.1" y="41.9" class="st19" width="2.2" height="1.2"/>
					</g>
					<g>
						<linearGradient id="SVGID_17_" gradientUnits="userSpaceOnUse" x1="55.2325" y1="97.4401" x2="55.2325" y2="49.1752">
							<stop  offset="0" style="stop-color:#42E7E1"/>
							<stop  offset="1" style="stop-color:#40E5DF;stop-opacity:0"/>
						</linearGradient>
						<path class="st20" d="M56.3,97.4h-2.2v-1.2h2.2V97.4z M56.3,95h-2.2v-9.7h2.2V95z M56.3,79.3h-2.2v-1.2h2.2V79.3z M56.3,76.9
							h-2.2v-9.7h2.2V76.9z M56.3,61.2h-2.2V60h2.2V61.2z M56.3,58.8h-2.2v-9.7h2.2V58.8z"/>
					</g>
					<g>
						<linearGradient id="SVGID_18_" gradientUnits="userSpaceOnUse" x1="55.2325" y1="107.8762" x2="55.2325" y2="103.4731">
							<stop  offset="0" style="stop-color:#42E7E1"/>
							<stop  offset="1" style="stop-color:#40E5DF;stop-opacity:0"/>
						</linearGradient>
						<rect x="54.1" y="103.5" class="st21" width="2.2" height="4.4"/>
					</g>
				</g>
				<g>
					<g>
						<linearGradient id="SVGID_19_" gradientUnits="userSpaceOnUse" x1="60.7364" y1="51.7366" x2="60.7364" y2="47.3335">
							<stop  offset="0" style="stop-color:#42E7E1"/>
							<stop  offset="1" style="stop-color:#40E5DF;stop-opacity:0"/>
						</linearGradient>
						<rect x="59.6" y="47.3" class="st22" width="2.2" height="4.4"/>
					</g>
					<g>
						<linearGradient id="SVGID_20_" gradientUnits="userSpaceOnUse" x1="60.7364" y1="54.1499" x2="60.7364" y2="52.9432">
							<stop  offset="0" style="stop-color:#42E7E1"/>
							<stop  offset="1" style="stop-color:#40E5DF;stop-opacity:0"/>
						</linearGradient>
						<rect x="59.6" y="52.9" class="st23" width="2.2" height="1.2"/>
					</g>
					<g>
						<linearGradient id="SVGID_21_" gradientUnits="userSpaceOnUse" x1="60.7364" y1="108.4478" x2="60.7364" y2="60.183">
							<stop  offset="0" style="stop-color:#42E7E1"/>
							<stop  offset="1" style="stop-color:#40E5DF;stop-opacity:0"/>
						</linearGradient>
						<path class="st24" d="M61.8,108.4h-2.2v-1.2h2.2V108.4z M61.8,106h-2.2v-9.7h2.2V106z M61.8,90.3h-2.2v-1.2h2.2V90.3z
							 M61.8,87.9h-2.2v-9.7h2.2V87.9z M61.8,72.2h-2.2V71h2.2V72.2z M61.8,69.8h-2.2v-9.7h2.2V69.8z"/>
					</g>
					<g>
						<linearGradient id="SVGID_22_" gradientUnits="userSpaceOnUse" x1="60.7364" y1="118.884" x2="60.7364" y2="114.4809">
							<stop  offset="0" style="stop-color:#42E7E1"/>
							<stop  offset="1" style="stop-color:#40E5DF;stop-opacity:0"/>
						</linearGradient>
						<rect x="59.6" y="114.5" class="st25" width="2.2" height="4.4"/>
					</g>
				</g>
				<g>
					<g>
						<linearGradient id="SVGID_23_" gradientUnits="userSpaceOnUse" x1="99.2636" y1="40.7288" x2="99.2636" y2="36.3257">
							<stop  offset="0" style="stop-color:#42E7E1"/>
							<stop  offset="1" style="stop-color:#40E5DF;stop-opacity:0"/>
						</linearGradient>
						<rect x="98.2" y="36.3" class="st26" width="2.2" height="4.4"/>
					</g>
					<g>
						<linearGradient id="SVGID_24_" gradientUnits="userSpaceOnUse" x1="99.2636" y1="43.1421" x2="99.2636" y2="41.9355">
							<stop  offset="0" style="stop-color:#42E7E1"/>
							<stop  offset="1" style="stop-color:#40E5DF;stop-opacity:0"/>
						</linearGradient>
						<rect x="98.2" y="41.9" class="st27" width="2.2" height="1.2"/>
					</g>
					<g>
						<linearGradient id="SVGID_25_" gradientUnits="userSpaceOnUse" x1="99.2636" y1="97.4401" x2="99.2636" y2="49.1752">
							<stop  offset="0" style="stop-color:#42E7E1"/>
							<stop  offset="1" style="stop-color:#40E5DF;stop-opacity:0"/>
						</linearGradient>
						<path class="st28" d="M100.4,97.4h-2.2v-1.2h2.2V97.4z M100.4,95h-2.2v-9.7h2.2V95z M100.4,79.3h-2.2v-1.2h2.2V79.3z
							 M100.4,76.9h-2.2v-9.7h2.2V76.9z M100.4,61.2h-2.2V60h2.2V61.2z M100.4,58.8h-2.2v-9.7h2.2V58.8z"/>
					</g>
					<g>
						<linearGradient id="SVGID_26_" gradientUnits="userSpaceOnUse" x1="99.2636" y1="107.8762" x2="99.2636" y2="103.4731">
							<stop  offset="0" style="stop-color:#42E7E1"/>
							<stop  offset="1" style="stop-color:#40E5DF;stop-opacity:0"/>
						</linearGradient>
						<rect x="98.2" y="103.5" class="st29" width="2.2" height="4.4"/>
					</g>
				</g>
				<g>
					<g>
						<linearGradient id="SVGID_27_" gradientUnits="userSpaceOnUse" x1="104.7675" y1="51.7366" x2="104.7675" y2="47.3335">
							<stop  offset="0" style="stop-color:#42E7E1"/>
							<stop  offset="1" style="stop-color:#40E5DF;stop-opacity:0"/>
						</linearGradient>
						<rect x="103.7" y="47.3" class="st30" width="2.2" height="4.4"/>
					</g>
					<g>
						<linearGradient id="SVGID_28_" gradientUnits="userSpaceOnUse" x1="104.7675" y1="54.1499" x2="104.7675" y2="52.9432">
							<stop  offset="0" style="stop-color:#42E7E1"/>
							<stop  offset="1" style="stop-color:#40E5DF;stop-opacity:0"/>
						</linearGradient>
						<rect x="103.7" y="52.9" class="st31" width="2.2" height="1.2"/>
					</g>
					<g>
						<linearGradient id="SVGID_29_" gradientUnits="userSpaceOnUse" x1="104.7675" y1="108.4478" x2="104.7675" y2="60.183">
							<stop  offset="0" style="stop-color:#42E7E1"/>
							<stop  offset="1" style="stop-color:#40E5DF;stop-opacity:0"/>
						</linearGradient>
						<path class="st32" d="M105.9,108.4h-2.2v-1.2h2.2V108.4z M105.9,106h-2.2v-9.7h2.2V106z M105.9,90.3h-2.2v-1.2h2.2V90.3z
							 M105.9,87.9h-2.2v-9.7h2.2V87.9z M105.9,72.2h-2.2V71h2.2V72.2z M105.9,69.8h-2.2v-9.7h2.2V69.8z"/>
					</g>
					<g>
						<linearGradient id="SVGID_30_" gradientUnits="userSpaceOnUse" x1="104.7675" y1="118.884" x2="104.7675" y2="114.4809">
							<stop  offset="0" style="stop-color:#42E7E1"/>
							<stop  offset="1" style="stop-color:#40E5DF;stop-opacity:0"/>
						</linearGradient>
						<rect x="103.7" y="114.5" class="st33" width="2.2" height="4.4"/>
					</g>
				</g>
			</g>
			<g>
				<g>
					<g>
						<linearGradient id="SVGID_31_" gradientUnits="userSpaceOnUse" x1="77.2481" y1="24.2172" x2="77.2481" y2="19.8141">
							<stop  offset="0" style="stop-color:#42E7E1"/>
							<stop  offset="1" style="stop-color:#40E5DF;stop-opacity:0"/>
						</linearGradient>
						<rect x="76.1" y="19.8" class="st34" width="2.2" height="4.4"/>
					</g>
					<g>
						<linearGradient id="SVGID_32_" gradientUnits="userSpaceOnUse" x1="77.2481" y1="26.6305" x2="77.2481" y2="25.4238">
							<stop  offset="0" style="stop-color:#42E7E1"/>
							<stop  offset="1" style="stop-color:#40E5DF;stop-opacity:0"/>
						</linearGradient>
						<rect x="76.1" y="25.4" class="st35" width="2.2" height="1.2"/>
					</g>
					<g>
						<linearGradient id="SVGID_33_" gradientUnits="userSpaceOnUse" x1="77.2481" y1="80.9284" x2="77.2481" y2="32.6635">
							<stop  offset="0" style="stop-color:#42E7E1"/>
							<stop  offset="1" style="stop-color:#40E5DF;stop-opacity:0"/>
						</linearGradient>
						<path class="st36" d="M78.3,80.9h-2.2v-1.2h2.2V80.9z M78.3,78.5h-2.2v-9.7h2.2V78.5z M78.3,62.8h-2.2v-1.2h2.2V62.8z
							 M78.3,60.4h-2.2v-9.7h2.2V60.4z M78.3,44.7h-2.2v-1.2h2.2V44.7z M78.3,42.3h-2.2v-9.7h2.2V42.3z"/>
					</g>
					<g>
						<linearGradient id="SVGID_34_" gradientUnits="userSpaceOnUse" x1="77.2481" y1="91.3646" x2="77.2481" y2="86.9615">
							<stop  offset="0" style="stop-color:#42E7E1"/>
							<stop  offset="1" style="stop-color:#40E5DF;stop-opacity:0"/>
						</linearGradient>
						<rect x="76.1" y="87" class="st37" width="2.2" height="4.4"/>
					</g>
				</g>
				<g>
					<g>
						<linearGradient id="SVGID_35_" gradientUnits="userSpaceOnUse" x1="82.7519" y1="35.2249" x2="82.7519" y2="30.8218">
							<stop  offset="0" style="stop-color:#42E7E1"/>
							<stop  offset="1" style="stop-color:#40E5DF;stop-opacity:0"/>
						</linearGradient>
						<rect x="81.7" y="30.8" class="st38" width="2.2" height="4.4"/>
					</g>
					<g>
						<linearGradient id="SVGID_36_" gradientUnits="userSpaceOnUse" x1="82.7519" y1="37.6383" x2="82.7519" y2="36.4316">
							<stop  offset="0" style="stop-color:#42E7E1"/>
							<stop  offset="1" style="stop-color:#40E5DF;stop-opacity:0"/>
						</linearGradient>
						<rect x="81.7" y="36.4" class="st39" width="2.2" height="1.2"/>
					</g>
					<g>
						<linearGradient id="SVGID_37_" gradientUnits="userSpaceOnUse" x1="82.7519" y1="91.9362" x2="82.7519" y2="43.6713">
							<stop  offset="0" style="stop-color:#42E7E1"/>
							<stop  offset="1" style="stop-color:#40E5DF;stop-opacity:0"/>
						</linearGradient>
						<path class="st40" d="M83.9,91.9h-2.2v-1.2h2.2V91.9z M83.9,89.5h-2.2v-9.7h2.2V89.5z M83.9,73.8h-2.2v-1.2h2.2V73.8z
							 M83.9,71.4h-2.2v-9.7h2.2V71.4z M83.9,55.7h-2.2v-1.2h2.2V55.7z M83.9,53.3h-2.2v-9.7h2.2V53.3z"/>
					</g>
					<g>
						<linearGradient id="SVGID_38_" gradientUnits="userSpaceOnUse" x1="82.7519" y1="102.3723" x2="82.7519" y2="97.9692">
							<stop  offset="0" style="stop-color:#42E7E1"/>
							<stop  offset="1" style="stop-color:#40E5DF;stop-opacity:0"/>
						</linearGradient>
						<rect x="81.7" y="98" class="st41" width="2.2" height="4.4"/>
					</g>
				</g>
			</g>
		</g>
	</g>
</g>
</svg>
