<?xml version="1.0" encoding="utf-8"?>
<!-- Generator: Adobe Illustrator 22.1.0, SVG Export Plug-In . SVG Version: 6.00 Build 0)  -->
<svg version="1.1" id="Layer_1" xmlns="http://www.w3.org/2000/svg" xmlns:xlink="http://www.w3.org/1999/xlink" x="0px" y="0px"
	 viewBox="0 0 216.5 201.4" style="enable-background:new 0 0 216.5 201.4;" xml:space="preserve">
<style type="text/css">
	.st0{fill:#0F0A4C;}
	.st1{fill:url(#SVGID_1_);}
	.st2{fill:url(#SVGID_2_);}
	.st3{opacity:0.7;fill:#4EEEE6;}
	.st4{fill:url(#SVGID_3_);}
	.st5{fill:#4EEEE6;}
	.st6{fill:url(#SVGID_4_);}
	.st7{fill:url(#SVGID_5_);}
	.st8{fill:url(#SVGID_6_);}
	.st9{fill:url(#SVGID_7_);}
	.st10{fill:url(#SVGID_8_);}
	.st11{fill:url(#SVGID_9_);}
	.st12{fill:url(#SVGID_10_);}
	.st13{fill:url(#SVGID_11_);}
	.st14{fill:url(#SVGID_12_);}
	.st15{fill:url(#SVGID_13_);}
	.st16{fill:#40E5DF;}
	.st17{fill:url(#SVGID_14_);}
	.st18{fill:url(#SVGID_15_);}
	.st19{fill:url(#SVGID_16_);}
	.st20{fill:url(#SVGID_17_);}
	.st21{fill:url(#SVGID_18_);}
	.st22{fill:url(#SVGID_19_);}
	.st23{fill:url(#SVGID_20_);}
	.st24{fill:url(#SVGID_21_);}
	.st25{fill:url(#SVGID_22_);}
	.st26{fill:url(#SVGID_23_);}
	.st27{fill:url(#SVGID_24_);}
	.st28{fill:url(#SVGID_25_);}
	.st29{fill:url(#SVGID_26_);}
	.st30{fill:url(#SVGID_27_);}
	.st31{fill:url(#SVGID_28_);}
	.st32{fill:url(#SVGID_29_);}
	.st33{fill:url(#SVGID_30_);}
	.st34{fill:url(#SVGID_31_);}
	.st35{fill:url(#SVGID_32_);}
	.st36{fill:url(#SVGID_33_);}
	.st37{fill:url(#SVGID_34_);}
	.st38{fill:url(#SVGID_35_);}
	.st39{fill:url(#SVGID_36_);}
	.st40{fill:url(#SVGID_37_);}
	.st41{fill:url(#SVGID_38_);}
	.st42{fill:url(#SVGID_39_);}
	.st43{fill:url(#SVGID_40_);}
	.st44{fill:url(#SVGID_41_);}
	.st45{fill:url(#SVGID_42_);}
	.st46{fill:url(#SVGID_43_);}
	.st47{fill:url(#SVGID_44_);}
	.st48{fill:url(#SVGID_45_);}
	.st49{fill:url(#SVGID_46_);}
	.st50{fill:url(#SVGID_47_);}
	.st51{fill:url(#SVGID_48_);}
	.st52{fill:url(#SVGID_49_);}
	.st53{fill:url(#SVGID_50_);}
	.st54{fill:url(#SVGID_51_);}
	.st55{fill:url(#SVGID_52_);}
	.st56{fill:url(#SVGID_53_);}
	.st57{fill:url(#SVGID_54_);}
	.st58{fill:url(#SVGID_55_);}
	.st59{fill:url(#SVGID_56_);}
	.st60{fill:url(#SVGID_57_);}
	.st61{fill:url(#SVGID_58_);}
	.st62{fill:url(#SVGID_59_);}
	.st63{fill:url(#SVGID_60_);}
	.st64{fill:url(#SVGID_61_);}
	.st65{fill:url(#SVGID_62_);}
	.st66{fill:url(#SVGID_63_);}
	.st67{fill:url(#SVGID_64_);}
	.st68{fill:url(#SVGID_65_);}
	.st69{fill:url(#SVGID_66_);}
	.st70{fill:url(#SVGID_67_);}
	.st71{fill:url(#SVGID_68_);}
	.st72{fill:url(#SVGID_69_);}
	.st73{fill:url(#SVGID_70_);}
	.st74{fill:url(#SVGID_71_);}
	.st75{fill:url(#SVGID_72_);}
	.st76{fill:url(#SVGID_73_);}
	.st77{fill:url(#SVGID_74_);}
	.st78{fill:url(#SVGID_75_);}
	.st79{fill:url(#SVGID_76_);}
	.st80{fill:url(#SVGID_77_);}
	.st81{fill:url(#SVGID_78_);}
	.st82{fill:url(#SVGID_79_);}
	.st83{fill:url(#SVGID_80_);}
	.st84{fill:url(#SVGID_81_);}
	.st85{fill:url(#SVGID_82_);}
	.st86{fill:url(#SVGID_83_);}
	.st87{fill:url(#SVGID_84_);}
	.st88{fill:url(#SVGID_85_);}
	.st89{fill:url(#SVGID_86_);}
	.st90{fill:url(#SVGID_87_);}
	.st91{fill:url(#SVGID_88_);}
	.st92{fill:url(#SVGID_89_);}
	.st93{fill:url(#SVGID_90_);}
	.st94{fill:url(#SVGID_91_);}
	.st95{fill:url(#SVGID_92_);}
	.st96{fill:url(#SVGID_93_);}
	.st97{fill:url(#SVGID_94_);}
	.st98{fill:url(#SVGID_95_);}
	.st99{fill:url(#SVGID_96_);}
	.st100{fill:url(#SVGID_97_);}
	.st101{fill:url(#SVGID_98_);}
	.st102{fill:url(#SVGID_99_);}
	.st103{fill:url(#SVGID_100_);}
	.st104{fill:url(#SVGID_101_);}
	.st105{fill:url(#SVGID_102_);}
	.st106{fill:url(#SVGID_103_);}
	.st107{fill:url(#SVGID_104_);}
	.st108{fill:url(#SVGID_105_);}
	.st109{fill:url(#SVGID_106_);}
	.st110{fill:url(#SVGID_107_);}
	.st111{fill:url(#SVGID_108_);}
	.st112{fill:url(#SVGID_109_);}
	.st113{fill:url(#SVGID_110_);}
	.st114{fill:url(#SVGID_111_);}
	.st115{fill:url(#SVGID_112_);}
	.st116{fill:url(#SVGID_113_);}
	.st117{fill:url(#SVGID_114_);}
</style>
<g>
	<g>
		<path class="st0" d="M1,106.7c-1.4-0.8-1.4-2.1,0-2.9l41.7-24.4c1.4-0.8,3.6-0.8,4.9,0l41.7,24.4c1.4,0.8,1.4,2.1,0,2.9
			l-41.7,24.4c-1.4,0.8-3.6,0.8-4.9,0L1,106.7z"/>
		<g>
			<linearGradient id="SVGID_1_" gradientUnits="userSpaceOnUse" x1="7.8778" y1="114.2957" x2="45.1666" y2="114.2957">
				<stop  offset="0" style="stop-color:#378CB3"/>
				<stop  offset="1" style="stop-color:#312B8F"/>
			</linearGradient>
			<polygon class="st1" points="45.2,122.8 7.9,101.4 7.9,105.8 45.2,127.2 			"/>
			<linearGradient id="SVGID_2_" gradientUnits="userSpaceOnUse" x1="45.1666" y1="114.2957" x2="82.4554" y2="114.2957">
				<stop  offset="0" style="stop-color:#251B71"/>
				<stop  offset="1" style="stop-color:#1B105F"/>
			</linearGradient>
			<polygon class="st2" points="45.2,127.2 82.5,105.8 82.5,101.4 45.2,122.8 			"/>
			<polygon class="st3" points="82.5,101.4 45.2,80 7.9,101.4 45.2,122.8 			"/>
			<linearGradient id="SVGID_3_" gradientUnits="userSpaceOnUse" x1="15.3355" y1="101.4" x2="74.9977" y2="101.4">
				<stop  offset="0" style="stop-color:#3274A6"/>
				<stop  offset="1" style="stop-color:#312A91"/>
			</linearGradient>
			<polygon class="st4" points="75,101.4 45.2,84.2 15.3,101.4 45.2,118.6 			"/>
			<polygon class="st5" points="45.2,118.2 15.3,101.4 45.2,118.6 75,101.4 			"/>
			<linearGradient id="SVGID_4_" gradientUnits="userSpaceOnUse" x1="15.3355" y1="92.9789" x2="45.1666" y2="92.9789">
				<stop  offset="0" style="stop-color:#312A91"/>
				<stop  offset="1" style="stop-color:#3274A6"/>
			</linearGradient>
			<polygon class="st6" points="45.2,84.2 15.3,101.4 15.9,101.7 45.2,84.9 			"/>
			<linearGradient id="SVGID_5_" gradientUnits="userSpaceOnUse" x1="45.1666" y1="92.9789" x2="74.9977" y2="92.9789">
				<stop  offset="0" style="stop-color:#312A91"/>
				<stop  offset="1" style="stop-color:#3274A6"/>
			</linearGradient>
			<polygon class="st7" points="45.2,84.2 45.2,84.9 74.5,101.7 75,101.4 			"/>
			<linearGradient id="SVGID_6_" gradientUnits="userSpaceOnUse" x1="22.4826" y1="105.1638" x2="45.1666" y2="105.1638">
				<stop  offset="0" style="stop-color:#40E5DF;stop-opacity:0.5"/>
				<stop  offset="1" style="stop-color:#42E7E1"/>
			</linearGradient>
			<polygon class="st8" points="45.2,108.5 22.5,95.5 22.5,101.8 45.2,114.8 			"/>
			<linearGradient id="SVGID_7_" gradientUnits="userSpaceOnUse" x1="45.1666" y1="105.1638" x2="67.8506" y2="105.1638">
				<stop  offset="0" style="stop-color:#42E7E1;stop-opacity:0.9"/>
				<stop  offset="1" style="stop-color:#40E5DF;stop-opacity:0.5"/>
			</linearGradient>
			<polygon class="st9" points="67.9,101.8 45.2,114.8 45.2,108.5 67.9,95.5 			"/>
		</g>
		<g>
			<linearGradient id="SVGID_8_" gradientUnits="userSpaceOnUse" x1="7.8778" y1="95.962" x2="45.1666" y2="95.962">
				<stop  offset="0" style="stop-color:#378CB3"/>
				<stop  offset="1" style="stop-color:#312B8F"/>
			</linearGradient>
			<polygon class="st10" points="45.2,104.5 7.9,83.1 7.9,87.4 45.2,108.9 			"/>
			<linearGradient id="SVGID_9_" gradientUnits="userSpaceOnUse" x1="45.1666" y1="95.962" x2="82.4554" y2="95.962">
				<stop  offset="0" style="stop-color:#251B71"/>
				<stop  offset="1" style="stop-color:#1B105F"/>
			</linearGradient>
			<polygon class="st11" points="45.2,108.9 82.5,87.4 82.5,83.1 45.2,104.5 			"/>
			<polygon class="st3" points="82.5,83.1 45.2,61.6 7.9,83 45.2,104.5 			"/>
			<linearGradient id="SVGID_10_" gradientUnits="userSpaceOnUse" x1="15.3355" y1="83.0663" x2="74.9977" y2="83.0663">
				<stop  offset="0" style="stop-color:#3274A6"/>
				<stop  offset="1" style="stop-color:#312A91"/>
			</linearGradient>
			<polygon class="st12" points="75,83.1 45.2,65.9 15.3,83.1 45.2,100.2 			"/>
			<polygon class="st5" points="45.2,99.9 15.3,83.1 45.2,100.2 75,83.1 			"/>
			<linearGradient id="SVGID_11_" gradientUnits="userSpaceOnUse" x1="15.3355" y1="74.6452" x2="45.1666" y2="74.6452">
				<stop  offset="0" style="stop-color:#312A91"/>
				<stop  offset="1" style="stop-color:#3274A6"/>
			</linearGradient>
			<polygon class="st13" points="45.2,65.9 15.3,83.1 15.9,83.4 45.2,66.5 			"/>
			<linearGradient id="SVGID_12_" gradientUnits="userSpaceOnUse" x1="45.1666" y1="74.6452" x2="74.9977" y2="74.6452">
				<stop  offset="0" style="stop-color:#312A91"/>
				<stop  offset="1" style="stop-color:#3274A6"/>
			</linearGradient>
			<polygon class="st14" points="45.2,65.9 45.2,66.5 74.5,83.4 75,83.1 			"/>
			<linearGradient id="SVGID_13_" gradientUnits="userSpaceOnUse" x1="45.1666" y1="96.4903" x2="45.1666" y2="70.4036">
				<stop  offset="0" style="stop-color:#42E7E1"/>
				<stop  offset="1" style="stop-color:#40E5DF;stop-opacity:0"/>
			</linearGradient>
			<polygon class="st15" points="22.5,83.4 45.2,96.5 67.9,83.4 67.9,83.4 45.2,70.4 			"/>
			<g>
				<path class="st16" d="M45.2,72.7l18.7,10.7L45.2,94.2L26.5,83.4L45.2,72.7 M45.2,70.4l-22.7,13l22.7,13l22.7-13v0L45.2,70.4
					L45.2,70.4z"/>
			</g>
			<linearGradient id="SVGID_14_" gradientUnits="userSpaceOnUse" x1="45.1666" y1="97.6041" x2="45.1666" y2="20.4844">
				<stop  offset="0" style="stop-color:#42E7E1;stop-opacity:0.7"/>
				<stop  offset="1" style="stop-color:#40E5DF;stop-opacity:0"/>
			</linearGradient>
			<polygon class="st17" points="22.5,18 22.5,83.4 45.2,96.5 67.9,83.4 67.9,18 			"/>
			<g>
				<g>
					<g>
						<g>
							<linearGradient id="SVGID_15_" gradientUnits="userSpaceOnUse" x1="31.1833" y1="40.9949" x2="31.1833" y2="38.509">
								<stop  offset="0" style="stop-color:#42E7E1"/>
								<stop  offset="1" style="stop-color:#40E5DF;stop-opacity:0"/>
							</linearGradient>
							<rect x="30.6" y="38.5" class="st18" width="1.2" height="2.5"/>
						</g>
						<g>
							<linearGradient id="SVGID_16_" gradientUnits="userSpaceOnUse" x1="31.1833" y1="42.3574" x2="31.1833" y2="41.6762">
								<stop  offset="0" style="stop-color:#42E7E1"/>
								<stop  offset="1" style="stop-color:#40E5DF;stop-opacity:0"/>
							</linearGradient>
							<rect x="30.6" y="41.7" class="st19" width="1.2" height="0.7"/>
						</g>
						<g>
							<linearGradient id="SVGID_17_" gradientUnits="userSpaceOnUse" x1="31.1833" y1="73.0131" x2="31.1833" y2="45.7636">
								<stop  offset="0" style="stop-color:#42E7E1"/>
								<stop  offset="1" style="stop-color:#40E5DF;stop-opacity:0"/>
							</linearGradient>
							<path class="st20" d="M31.8,73h-1.2v-0.7h1.2V73z M31.8,71.7h-1.2v-5.4h1.2V71.7z M31.8,62.8h-1.2v-0.7h1.2V62.8z M31.8,61.4
								h-1.2V56h1.2V61.4z M31.8,52.6h-1.2v-0.7h1.2V52.6z M31.8,51.2h-1.2v-5.4h1.2V51.2z"/>
						</g>
						<g>
							<linearGradient id="SVGID_18_" gradientUnits="userSpaceOnUse" x1="31.1833" y1="78.9052" x2="31.1833" y2="76.4193">
								<stop  offset="0" style="stop-color:#42E7E1"/>
								<stop  offset="1" style="stop-color:#40E5DF;stop-opacity:0"/>
							</linearGradient>
							<rect x="30.6" y="76.4" class="st21" width="1.2" height="2.5"/>
						</g>
					</g>
					<g>
						<g>
							<linearGradient id="SVGID_19_" gradientUnits="userSpaceOnUse" x1="34.2907" y1="47.2097" x2="34.2907" y2="44.7238">
								<stop  offset="0" style="stop-color:#42E7E1"/>
								<stop  offset="1" style="stop-color:#40E5DF;stop-opacity:0"/>
							</linearGradient>
							<rect x="33.7" y="44.7" class="st22" width="1.2" height="2.5"/>
						</g>
						<g>
							<linearGradient id="SVGID_20_" gradientUnits="userSpaceOnUse" x1="34.2907" y1="48.5722" x2="34.2907" y2="47.891">
								<stop  offset="0" style="stop-color:#42E7E1"/>
								<stop  offset="1" style="stop-color:#40E5DF;stop-opacity:0"/>
							</linearGradient>
							<rect x="33.7" y="47.9" class="st23" width="1.2" height="0.7"/>
						</g>
						<g>
							<linearGradient id="SVGID_21_" gradientUnits="userSpaceOnUse" x1="34.2907" y1="79.2279" x2="34.2907" y2="51.9784">
								<stop  offset="0" style="stop-color:#42E7E1"/>
								<stop  offset="1" style="stop-color:#40E5DF;stop-opacity:0"/>
							</linearGradient>
							<path class="st24" d="M34.9,79.2h-1.2v-0.7h1.2V79.2z M34.9,77.9h-1.2v-5.4h1.2V77.9z M34.9,69h-1.2v-0.7h1.2V69z M34.9,67.6
								h-1.2v-5.4h1.2V67.6z M34.9,58.8h-1.2v-0.7h1.2V58.8z M34.9,57.4h-1.2V52h1.2V57.4z"/>
						</g>
						<g>
							<linearGradient id="SVGID_22_" gradientUnits="userSpaceOnUse" x1="34.2907" y1="85.12" x2="34.2907" y2="82.6341">
								<stop  offset="0" style="stop-color:#42E7E1"/>
								<stop  offset="1" style="stop-color:#40E5DF;stop-opacity:0"/>
							</linearGradient>
							<rect x="33.7" y="82.6" class="st25" width="1.2" height="2.5"/>
						</g>
					</g>
					<g>
						<g>
							<linearGradient id="SVGID_23_" gradientUnits="userSpaceOnUse" x1="56.0425" y1="40.9949" x2="56.0425" y2="38.509">
								<stop  offset="0" style="stop-color:#42E7E1"/>
								<stop  offset="1" style="stop-color:#40E5DF;stop-opacity:0"/>
							</linearGradient>
							<rect x="55.4" y="38.5" class="st26" width="1.2" height="2.5"/>
						</g>
						<g>
							<linearGradient id="SVGID_24_" gradientUnits="userSpaceOnUse" x1="56.0425" y1="42.3574" x2="56.0425" y2="41.6762">
								<stop  offset="0" style="stop-color:#42E7E1"/>
								<stop  offset="1" style="stop-color:#40E5DF;stop-opacity:0"/>
							</linearGradient>
							<rect x="55.4" y="41.7" class="st27" width="1.2" height="0.7"/>
						</g>
						<g>
							<linearGradient id="SVGID_25_" gradientUnits="userSpaceOnUse" x1="56.0425" y1="73.0131" x2="56.0425" y2="45.7636">
								<stop  offset="0" style="stop-color:#42E7E1"/>
								<stop  offset="1" style="stop-color:#40E5DF;stop-opacity:0"/>
							</linearGradient>
							<path class="st28" d="M56.7,73h-1.2v-0.7h1.2V73z M56.7,71.7h-1.2v-5.4h1.2V71.7z M56.7,62.8h-1.2v-0.7h1.2V62.8z M56.7,61.4
								h-1.2V56h1.2V61.4z M56.7,52.6h-1.2v-0.7h1.2V52.6z M56.7,51.2h-1.2v-5.4h1.2V51.2z"/>
						</g>
						<g>
							<linearGradient id="SVGID_26_" gradientUnits="userSpaceOnUse" x1="56.0425" y1="78.9052" x2="56.0425" y2="76.4193">
								<stop  offset="0" style="stop-color:#42E7E1"/>
								<stop  offset="1" style="stop-color:#40E5DF;stop-opacity:0"/>
							</linearGradient>
							<rect x="55.4" y="76.4" class="st29" width="1.2" height="2.5"/>
						</g>
					</g>
					<g>
						<g>
							<linearGradient id="SVGID_27_" gradientUnits="userSpaceOnUse" x1="59.1499" y1="47.2097" x2="59.1499" y2="44.7238">
								<stop  offset="0" style="stop-color:#42E7E1"/>
								<stop  offset="1" style="stop-color:#40E5DF;stop-opacity:0"/>
							</linearGradient>
							<rect x="58.5" y="44.7" class="st30" width="1.2" height="2.5"/>
						</g>
						<g>
							<linearGradient id="SVGID_28_" gradientUnits="userSpaceOnUse" x1="59.1499" y1="48.5722" x2="59.1499" y2="47.891">
								<stop  offset="0" style="stop-color:#42E7E1"/>
								<stop  offset="1" style="stop-color:#40E5DF;stop-opacity:0"/>
							</linearGradient>
							<rect x="58.5" y="47.9" class="st31" width="1.2" height="0.7"/>
						</g>
						<g>
							<linearGradient id="SVGID_29_" gradientUnits="userSpaceOnUse" x1="59.1499" y1="79.2279" x2="59.1499" y2="51.9784">
								<stop  offset="0" style="stop-color:#42E7E1"/>
								<stop  offset="1" style="stop-color:#40E5DF;stop-opacity:0"/>
							</linearGradient>
							<path class="st32" d="M59.8,79.2h-1.2v-0.7h1.2V79.2z M59.8,77.9h-1.2v-5.4h1.2V77.9z M59.8,69h-1.2v-0.7h1.2V69z M59.8,67.6
								h-1.2v-5.4h1.2V67.6z M59.8,58.8h-1.2v-0.7h1.2V58.8z M59.8,57.4h-1.2V52h1.2V57.4z"/>
						</g>
						<g>
							<linearGradient id="SVGID_30_" gradientUnits="userSpaceOnUse" x1="59.1499" y1="85.12" x2="59.1499" y2="82.6341">
								<stop  offset="0" style="stop-color:#42E7E1"/>
								<stop  offset="1" style="stop-color:#40E5DF;stop-opacity:0"/>
							</linearGradient>
							<rect x="58.5" y="82.6" class="st33" width="1.2" height="2.5"/>
						</g>
					</g>
				</g>
				<g>
					<g>
						<g>
							<linearGradient id="SVGID_31_" gradientUnits="userSpaceOnUse" x1="43.6129" y1="31.6727" x2="43.6129" y2="29.1868">
								<stop  offset="0" style="stop-color:#42E7E1"/>
								<stop  offset="1" style="stop-color:#40E5DF;stop-opacity:0"/>
							</linearGradient>
							<rect x="43" y="29.2" class="st34" width="1.2" height="2.5"/>
						</g>
						<g>
							<linearGradient id="SVGID_32_" gradientUnits="userSpaceOnUse" x1="43.6129" y1="33.0352" x2="43.6129" y2="32.354">
								<stop  offset="0" style="stop-color:#42E7E1"/>
								<stop  offset="1" style="stop-color:#40E5DF;stop-opacity:0"/>
							</linearGradient>
							<rect x="43" y="32.4" class="st35" width="1.2" height="0.7"/>
						</g>
						<g>
							<linearGradient id="SVGID_33_" gradientUnits="userSpaceOnUse" x1="43.6129" y1="63.6909" x2="43.6129" y2="36.4414">
								<stop  offset="0" style="stop-color:#42E7E1"/>
								<stop  offset="1" style="stop-color:#40E5DF;stop-opacity:0"/>
							</linearGradient>
							<path class="st36" d="M44.2,63.7H43V63h1.2V63.7z M44.2,62.3H43v-5.4h1.2V62.3z M44.2,53.5H43v-0.7h1.2V53.5z M44.2,52.1H43
								v-5.4h1.2V52.1z M44.2,43.3H43v-0.7h1.2V43.3z M44.2,41.9H43v-5.4h1.2V41.9z"/>
						</g>
						<g>
							<linearGradient id="SVGID_34_" gradientUnits="userSpaceOnUse" x1="43.6129" y1="69.583" x2="43.6129" y2="67.0971">
								<stop  offset="0" style="stop-color:#42E7E1"/>
								<stop  offset="1" style="stop-color:#40E5DF;stop-opacity:0"/>
							</linearGradient>
							<rect x="43" y="67.1" class="st37" width="1.2" height="2.5"/>
						</g>
					</g>
					<g>
						<g>
							<linearGradient id="SVGID_35_" gradientUnits="userSpaceOnUse" x1="46.7203" y1="37.8875" x2="46.7203" y2="35.4016">
								<stop  offset="0" style="stop-color:#42E7E1"/>
								<stop  offset="1" style="stop-color:#40E5DF;stop-opacity:0"/>
							</linearGradient>
							<rect x="46.1" y="35.4" class="st38" width="1.2" height="2.5"/>
						</g>
						<g>
							<linearGradient id="SVGID_36_" gradientUnits="userSpaceOnUse" x1="46.7203" y1="39.25" x2="46.7203" y2="38.5688">
								<stop  offset="0" style="stop-color:#42E7E1"/>
								<stop  offset="1" style="stop-color:#40E5DF;stop-opacity:0"/>
							</linearGradient>
							<rect x="46.1" y="38.6" class="st39" width="1.2" height="0.7"/>
						</g>
						<g>
							<linearGradient id="SVGID_37_" gradientUnits="userSpaceOnUse" x1="46.7203" y1="69.9057" x2="46.7203" y2="42.6562">
								<stop  offset="0" style="stop-color:#42E7E1"/>
								<stop  offset="1" style="stop-color:#40E5DF;stop-opacity:0"/>
							</linearGradient>
							<path class="st40" d="M47.3,69.9h-1.2v-0.7h1.2V69.9z M47.3,68.5h-1.2v-5.4h1.2V68.5z M47.3,59.7h-1.2V59h1.2V59.7z
								 M47.3,58.3h-1.2v-5.4h1.2V58.3z M47.3,49.5h-1.2v-0.7h1.2V49.5z M47.3,48.1h-1.2v-5.4h1.2V48.1z"/>
						</g>
						<g>
							<linearGradient id="SVGID_38_" gradientUnits="userSpaceOnUse" x1="46.7203" y1="75.7978" x2="46.7203" y2="73.3119">
								<stop  offset="0" style="stop-color:#42E7E1"/>
								<stop  offset="1" style="stop-color:#40E5DF;stop-opacity:0"/>
							</linearGradient>
							<rect x="46.1" y="73.3" class="st41" width="1.2" height="2.5"/>
						</g>
					</g>
				</g>
			</g>
		</g>
	</g>
	<g>
		<path class="st0" d="M127.2,106.7c-1.4-0.8-1.4-2.1,0-2.9l41.7-24.4c1.4-0.8,3.6-0.8,4.9,0l41.7,24.4c1.4,0.8,1.4,2.1,0,2.9
			l-41.7,24.4c-1.4,0.8-3.6,0.8-4.9,0L127.2,106.7z"/>
		<g>
			<linearGradient id="SVGID_39_" gradientUnits="userSpaceOnUse" x1="134.0406" y1="114.2957" x2="171.3294" y2="114.2957">
				<stop  offset="0" style="stop-color:#378CB3"/>
				<stop  offset="1" style="stop-color:#312B8F"/>
			</linearGradient>
			<polygon class="st42" points="171.3,122.8 134,101.4 134,105.8 171.3,127.2 			"/>
			<linearGradient id="SVGID_40_" gradientUnits="userSpaceOnUse" x1="171.3294" y1="114.2957" x2="208.6182" y2="114.2957">
				<stop  offset="0" style="stop-color:#251B71"/>
				<stop  offset="1" style="stop-color:#1B105F"/>
			</linearGradient>
			<polygon class="st43" points="171.3,127.2 208.6,105.8 208.6,101.4 171.3,122.8 			"/>
			<polygon class="st3" points="208.6,101.4 171.3,80 134,101.4 171.3,122.8 			"/>
			<linearGradient id="SVGID_41_" gradientUnits="userSpaceOnUse" x1="141.4984" y1="101.4" x2="201.1605" y2="101.4">
				<stop  offset="0" style="stop-color:#3274A6"/>
				<stop  offset="1" style="stop-color:#312A91"/>
			</linearGradient>
			<polygon class="st44" points="201.2,101.4 171.3,84.2 141.5,101.4 171.3,118.6 			"/>
			<polygon class="st5" points="171.3,118.2 141.5,101.4 171.3,118.6 201.2,101.4 			"/>
			<linearGradient id="SVGID_42_" gradientUnits="userSpaceOnUse" x1="141.4984" y1="92.9789" x2="171.3294" y2="92.9789">
				<stop  offset="0" style="stop-color:#312A91"/>
				<stop  offset="1" style="stop-color:#3274A6"/>
			</linearGradient>
			<polygon class="st45" points="171.3,84.2 141.5,101.4 142,101.7 171.3,84.9 			"/>
			<linearGradient id="SVGID_43_" gradientUnits="userSpaceOnUse" x1="171.3294" y1="92.9789" x2="201.1605" y2="92.9789">
				<stop  offset="0" style="stop-color:#312A91"/>
				<stop  offset="1" style="stop-color:#3274A6"/>
			</linearGradient>
			<polygon class="st46" points="171.3,84.2 171.3,84.9 200.6,101.7 201.2,101.4 			"/>
			<linearGradient id="SVGID_44_" gradientUnits="userSpaceOnUse" x1="148.6454" y1="105.1638" x2="171.3294" y2="105.1638">
				<stop  offset="0" style="stop-color:#40E5DF;stop-opacity:0.5"/>
				<stop  offset="1" style="stop-color:#42E7E1"/>
			</linearGradient>
			<polygon class="st47" points="171.3,108.5 148.6,95.5 148.6,101.8 171.3,114.8 			"/>
			<linearGradient id="SVGID_45_" gradientUnits="userSpaceOnUse" x1="171.3294" y1="105.1638" x2="194.0134" y2="105.1638">
				<stop  offset="0" style="stop-color:#42E7E1;stop-opacity:0.9"/>
				<stop  offset="1" style="stop-color:#40E5DF;stop-opacity:0.5"/>
			</linearGradient>
			<polygon class="st48" points="194,101.8 171.3,114.8 171.3,108.5 194,95.5 			"/>
		</g>
		<g>
			<linearGradient id="SVGID_46_" gradientUnits="userSpaceOnUse" x1="134.0406" y1="95.962" x2="171.3294" y2="95.962">
				<stop  offset="0" style="stop-color:#378CB3"/>
				<stop  offset="1" style="stop-color:#312B8F"/>
			</linearGradient>
			<polygon class="st49" points="171.3,104.5 134,83.1 134,87.4 171.3,108.9 			"/>
			<linearGradient id="SVGID_47_" gradientUnits="userSpaceOnUse" x1="171.3294" y1="95.962" x2="208.6182" y2="95.962">
				<stop  offset="0" style="stop-color:#251B71"/>
				<stop  offset="1" style="stop-color:#1B105F"/>
			</linearGradient>
			<polygon class="st50" points="171.3,108.9 208.6,87.4 208.6,83.1 171.3,104.5 			"/>
			<polygon class="st3" points="208.6,83.1 171.3,61.6 134,83 171.3,104.5 			"/>
			<linearGradient id="SVGID_48_" gradientUnits="userSpaceOnUse" x1="141.4984" y1="83.0663" x2="201.1605" y2="83.0663">
				<stop  offset="0" style="stop-color:#3274A6"/>
				<stop  offset="1" style="stop-color:#312A91"/>
			</linearGradient>
			<polygon class="st51" points="201.2,83.1 171.3,65.9 141.5,83.1 171.3,100.2 			"/>
			<polygon class="st5" points="171.3,99.9 141.5,83.1 171.3,100.2 201.2,83.1 			"/>
			<linearGradient id="SVGID_49_" gradientUnits="userSpaceOnUse" x1="141.4984" y1="74.6452" x2="171.3294" y2="74.6452">
				<stop  offset="0" style="stop-color:#312A91"/>
				<stop  offset="1" style="stop-color:#3274A6"/>
			</linearGradient>
			<polygon class="st52" points="171.3,65.9 141.5,83.1 142,83.4 171.3,66.5 			"/>
			<linearGradient id="SVGID_50_" gradientUnits="userSpaceOnUse" x1="171.3294" y1="74.6452" x2="201.1605" y2="74.6452">
				<stop  offset="0" style="stop-color:#312A91"/>
				<stop  offset="1" style="stop-color:#3274A6"/>
			</linearGradient>
			<polygon class="st53" points="171.3,65.9 171.3,66.5 200.6,83.4 201.2,83.1 			"/>
			<linearGradient id="SVGID_51_" gradientUnits="userSpaceOnUse" x1="171.3294" y1="96.4903" x2="171.3294" y2="70.4036">
				<stop  offset="0" style="stop-color:#42E7E1"/>
				<stop  offset="1" style="stop-color:#40E5DF;stop-opacity:0"/>
			</linearGradient>
			<polygon class="st54" points="148.6,83.4 171.3,96.5 194,83.4 194,83.4 171.3,70.4 			"/>
			<g>
				<path class="st16" d="M171.3,72.7L190,83.4l-18.7,10.7l-18.7-10.7L171.3,72.7 M171.3,70.4l-22.7,13l22.7,13l22.7-13v0
					L171.3,70.4L171.3,70.4z"/>
			</g>
			<linearGradient id="SVGID_52_" gradientUnits="userSpaceOnUse" x1="171.3294" y1="97.6041" x2="171.3294" y2="20.4844">
				<stop  offset="0" style="stop-color:#42E7E1;stop-opacity:0.7"/>
				<stop  offset="1" style="stop-color:#40E5DF;stop-opacity:0"/>
			</linearGradient>
			<polygon class="st55" points="148.6,18 148.6,83.4 171.3,96.5 194,83.4 194,18 			"/>
			<g>
				<g>
					<g>
						<g>
							<linearGradient id="SVGID_53_" gradientUnits="userSpaceOnUse" x1="157.3461" y1="40.9949" x2="157.3461" y2="38.509">
								<stop  offset="0" style="stop-color:#42E7E1"/>
								<stop  offset="1" style="stop-color:#40E5DF;stop-opacity:0"/>
							</linearGradient>
							<rect x="156.7" y="38.5" class="st56" width="1.2" height="2.5"/>
						</g>
						<g>
							<linearGradient id="SVGID_54_" gradientUnits="userSpaceOnUse" x1="157.3461" y1="42.3574" x2="157.3461" y2="41.6762">
								<stop  offset="0" style="stop-color:#42E7E1"/>
								<stop  offset="1" style="stop-color:#40E5DF;stop-opacity:0"/>
							</linearGradient>
							<rect x="156.7" y="41.7" class="st57" width="1.2" height="0.7"/>
						</g>
						<g>
							<linearGradient id="SVGID_55_" gradientUnits="userSpaceOnUse" x1="157.3461" y1="73.0131" x2="157.3461" y2="45.7636">
								<stop  offset="0" style="stop-color:#42E7E1"/>
								<stop  offset="1" style="stop-color:#40E5DF;stop-opacity:0"/>
							</linearGradient>
							<path class="st58" d="M158,73h-1.2v-0.7h1.2V73z M158,71.7h-1.2v-5.4h1.2V71.7z M158,62.8h-1.2v-0.7h1.2V62.8z M158,61.4
								h-1.2V56h1.2V61.4z M158,52.6h-1.2v-0.7h1.2V52.6z M158,51.2h-1.2v-5.4h1.2V51.2z"/>
						</g>
						<g>
							<linearGradient id="SVGID_56_" gradientUnits="userSpaceOnUse" x1="157.3461" y1="78.9052" x2="157.3461" y2="76.4193">
								<stop  offset="0" style="stop-color:#42E7E1"/>
								<stop  offset="1" style="stop-color:#40E5DF;stop-opacity:0"/>
							</linearGradient>
							<rect x="156.7" y="76.4" class="st59" width="1.2" height="2.5"/>
						</g>
					</g>
					<g>
						<g>
							<linearGradient id="SVGID_57_" gradientUnits="userSpaceOnUse" x1="160.4535" y1="47.2097" x2="160.4535" y2="44.7238">
								<stop  offset="0" style="stop-color:#42E7E1"/>
								<stop  offset="1" style="stop-color:#40E5DF;stop-opacity:0"/>
							</linearGradient>
							<rect x="159.8" y="44.7" class="st60" width="1.2" height="2.5"/>
						</g>
						<g>
							<linearGradient id="SVGID_58_" gradientUnits="userSpaceOnUse" x1="160.4535" y1="48.5722" x2="160.4535" y2="47.891">
								<stop  offset="0" style="stop-color:#42E7E1"/>
								<stop  offset="1" style="stop-color:#40E5DF;stop-opacity:0"/>
							</linearGradient>
							<rect x="159.8" y="47.9" class="st61" width="1.2" height="0.7"/>
						</g>
						<g>
							<linearGradient id="SVGID_59_" gradientUnits="userSpaceOnUse" x1="160.4535" y1="79.2279" x2="160.4535" y2="51.9784">
								<stop  offset="0" style="stop-color:#42E7E1"/>
								<stop  offset="1" style="stop-color:#40E5DF;stop-opacity:0"/>
							</linearGradient>
							<path class="st62" d="M161.1,79.2h-1.2v-0.7h1.2V79.2z M161.1,77.9h-1.2v-5.4h1.2V77.9z M161.1,69h-1.2v-0.7h1.2V69z
								 M161.1,67.6h-1.2v-5.4h1.2V67.6z M161.1,58.8h-1.2v-0.7h1.2V58.8z M161.1,57.4h-1.2V52h1.2V57.4z"/>
						</g>
						<g>
							<linearGradient id="SVGID_60_" gradientUnits="userSpaceOnUse" x1="160.4535" y1="85.12" x2="160.4535" y2="82.6341">
								<stop  offset="0" style="stop-color:#42E7E1"/>
								<stop  offset="1" style="stop-color:#40E5DF;stop-opacity:0"/>
							</linearGradient>
							<rect x="159.8" y="82.6" class="st63" width="1.2" height="2.5"/>
						</g>
					</g>
					<g>
						<g>
							<linearGradient id="SVGID_61_" gradientUnits="userSpaceOnUse" x1="182.2053" y1="40.9949" x2="182.2053" y2="38.509">
								<stop  offset="0" style="stop-color:#42E7E1"/>
								<stop  offset="1" style="stop-color:#40E5DF;stop-opacity:0"/>
							</linearGradient>
							<rect x="181.6" y="38.5" class="st64" width="1.2" height="2.5"/>
						</g>
						<g>
							<linearGradient id="SVGID_62_" gradientUnits="userSpaceOnUse" x1="182.2053" y1="42.3574" x2="182.2053" y2="41.6762">
								<stop  offset="0" style="stop-color:#42E7E1"/>
								<stop  offset="1" style="stop-color:#40E5DF;stop-opacity:0"/>
							</linearGradient>
							<rect x="181.6" y="41.7" class="st65" width="1.2" height="0.7"/>
						</g>
						<g>
							<linearGradient id="SVGID_63_" gradientUnits="userSpaceOnUse" x1="182.2053" y1="73.0131" x2="182.2053" y2="45.7636">
								<stop  offset="0" style="stop-color:#42E7E1"/>
								<stop  offset="1" style="stop-color:#40E5DF;stop-opacity:0"/>
							</linearGradient>
							<path class="st66" d="M182.8,73h-1.2v-0.7h1.2V73z M182.8,71.7h-1.2v-5.4h1.2V71.7z M182.8,62.8h-1.2v-0.7h1.2V62.8z
								 M182.8,61.4h-1.2V56h1.2V61.4z M182.8,52.6h-1.2v-0.7h1.2V52.6z M182.8,51.2h-1.2v-5.4h1.2V51.2z"/>
						</g>
						<g>
							<linearGradient id="SVGID_64_" gradientUnits="userSpaceOnUse" x1="182.2053" y1="78.9052" x2="182.2053" y2="76.4193">
								<stop  offset="0" style="stop-color:#42E7E1"/>
								<stop  offset="1" style="stop-color:#40E5DF;stop-opacity:0"/>
							</linearGradient>
							<rect x="181.6" y="76.4" class="st67" width="1.2" height="2.5"/>
						</g>
					</g>
					<g>
						<g>
							<linearGradient id="SVGID_65_" gradientUnits="userSpaceOnUse" x1="185.3127" y1="47.2097" x2="185.3127" y2="44.7238">
								<stop  offset="0" style="stop-color:#42E7E1"/>
								<stop  offset="1" style="stop-color:#40E5DF;stop-opacity:0"/>
							</linearGradient>
							<rect x="184.7" y="44.7" class="st68" width="1.2" height="2.5"/>
						</g>
						<g>
							<linearGradient id="SVGID_66_" gradientUnits="userSpaceOnUse" x1="185.3127" y1="48.5722" x2="185.3127" y2="47.891">
								<stop  offset="0" style="stop-color:#42E7E1"/>
								<stop  offset="1" style="stop-color:#40E5DF;stop-opacity:0"/>
							</linearGradient>
							<rect x="184.7" y="47.9" class="st69" width="1.2" height="0.7"/>
						</g>
						<g>
							<linearGradient id="SVGID_67_" gradientUnits="userSpaceOnUse" x1="185.3127" y1="79.2279" x2="185.3127" y2="51.9784">
								<stop  offset="0" style="stop-color:#42E7E1"/>
								<stop  offset="1" style="stop-color:#40E5DF;stop-opacity:0"/>
							</linearGradient>
							<path class="st70" d="M185.9,79.2h-1.2v-0.7h1.2V79.2z M185.9,77.9h-1.2v-5.4h1.2V77.9z M185.9,69h-1.2v-0.7h1.2V69z
								 M185.9,67.6h-1.2v-5.4h1.2V67.6z M185.9,58.8h-1.2v-0.7h1.2V58.8z M185.9,57.4h-1.2V52h1.2V57.4z"/>
						</g>
						<g>
							<linearGradient id="SVGID_68_" gradientUnits="userSpaceOnUse" x1="185.3127" y1="85.12" x2="185.3127" y2="82.6341">
								<stop  offset="0" style="stop-color:#42E7E1"/>
								<stop  offset="1" style="stop-color:#40E5DF;stop-opacity:0"/>
							</linearGradient>
							<rect x="184.7" y="82.6" class="st71" width="1.2" height="2.5"/>
						</g>
					</g>
				</g>
				<g>
					<g>
						<g>
							<linearGradient id="SVGID_69_" gradientUnits="userSpaceOnUse" x1="169.7757" y1="31.6727" x2="169.7757" y2="29.1868">
								<stop  offset="0" style="stop-color:#42E7E1"/>
								<stop  offset="1" style="stop-color:#40E5DF;stop-opacity:0"/>
							</linearGradient>
							<rect x="169.2" y="29.2" class="st72" width="1.2" height="2.5"/>
						</g>
						<g>
							<linearGradient id="SVGID_70_" gradientUnits="userSpaceOnUse" x1="169.7757" y1="33.0352" x2="169.7757" y2="32.354">
								<stop  offset="0" style="stop-color:#42E7E1"/>
								<stop  offset="1" style="stop-color:#40E5DF;stop-opacity:0"/>
							</linearGradient>
							<rect x="169.2" y="32.4" class="st73" width="1.2" height="0.7"/>
						</g>
						<g>
							<linearGradient id="SVGID_71_" gradientUnits="userSpaceOnUse" x1="169.7757" y1="63.6909" x2="169.7757" y2="36.4414">
								<stop  offset="0" style="stop-color:#42E7E1"/>
								<stop  offset="1" style="stop-color:#40E5DF;stop-opacity:0"/>
							</linearGradient>
							<path class="st74" d="M170.4,63.7h-1.2V63h1.2V63.7z M170.4,62.3h-1.2v-5.4h1.2V62.3z M170.4,53.5h-1.2v-0.7h1.2V53.5z
								 M170.4,52.1h-1.2v-5.4h1.2V52.1z M170.4,43.3h-1.2v-0.7h1.2V43.3z M170.4,41.9h-1.2v-5.4h1.2V41.9z"/>
						</g>
						<g>
							<linearGradient id="SVGID_72_" gradientUnits="userSpaceOnUse" x1="169.7757" y1="69.583" x2="169.7757" y2="67.0971">
								<stop  offset="0" style="stop-color:#42E7E1"/>
								<stop  offset="1" style="stop-color:#40E5DF;stop-opacity:0"/>
							</linearGradient>
							<rect x="169.2" y="67.1" class="st75" width="1.2" height="2.5"/>
						</g>
					</g>
					<g>
						<g>
							<linearGradient id="SVGID_73_" gradientUnits="userSpaceOnUse" x1="172.8831" y1="37.8875" x2="172.8831" y2="35.4016">
								<stop  offset="0" style="stop-color:#42E7E1"/>
								<stop  offset="1" style="stop-color:#40E5DF;stop-opacity:0"/>
							</linearGradient>
							<rect x="172.3" y="35.4" class="st76" width="1.2" height="2.5"/>
						</g>
						<g>
							<linearGradient id="SVGID_74_" gradientUnits="userSpaceOnUse" x1="172.8831" y1="39.25" x2="172.8831" y2="38.5688">
								<stop  offset="0" style="stop-color:#42E7E1"/>
								<stop  offset="1" style="stop-color:#40E5DF;stop-opacity:0"/>
							</linearGradient>
							<rect x="172.3" y="38.6" class="st77" width="1.2" height="0.7"/>
						</g>
						<g>
							<linearGradient id="SVGID_75_" gradientUnits="userSpaceOnUse" x1="172.8831" y1="69.9057" x2="172.8831" y2="42.6562">
								<stop  offset="0" style="stop-color:#42E7E1"/>
								<stop  offset="1" style="stop-color:#40E5DF;stop-opacity:0"/>
							</linearGradient>
							<path class="st78" d="M173.5,69.9h-1.2v-0.7h1.2V69.9z M173.5,68.5h-1.2v-5.4h1.2V68.5z M173.5,59.7h-1.2V59h1.2V59.7z
								 M173.5,58.3h-1.2v-5.4h1.2V58.3z M173.5,49.5h-1.2v-0.7h1.2V49.5z M173.5,48.1h-1.2v-5.4h1.2V48.1z"/>
						</g>
						<g>
							<linearGradient id="SVGID_76_" gradientUnits="userSpaceOnUse" x1="172.8831" y1="75.7978" x2="172.8831" y2="73.3119">
								<stop  offset="0" style="stop-color:#42E7E1"/>
								<stop  offset="1" style="stop-color:#40E5DF;stop-opacity:0"/>
							</linearGradient>
							<rect x="172.3" y="73.3" class="st79" width="1.2" height="2.5"/>
						</g>
					</g>
				</g>
			</g>
		</g>
	</g>
</g>
<g>
	<path class="st0" d="M30,157.1c-2.4-1.4-2.4-3.7,0-5.1l73.8-43.2c2.4-1.4,6.3-1.4,8.7,0l73.8,43.2c2.4,1.4,2.4,3.7,0,5.1
		l-73.8,43.2c-2.4,1.4-6.3,1.4-8.7,0L30,157.1z"/>
	<g>
		<linearGradient id="SVGID_77_" gradientUnits="userSpaceOnUse" x1="42.2014" y1="170.5605" x2="108.248" y2="170.5605">
			<stop  offset="0" style="stop-color:#378CB3"/>
			<stop  offset="1" style="stop-color:#312B8F"/>
		</linearGradient>
		<polygon class="st80" points="108.2,185.7 42.2,147.7 42.2,155.4 108.2,193.4 		"/>
		<linearGradient id="SVGID_78_" gradientUnits="userSpaceOnUse" x1="108.248" y1="170.5605" x2="174.2946" y2="170.5605">
			<stop  offset="0" style="stop-color:#251B71"/>
			<stop  offset="1" style="stop-color:#1B105F"/>
		</linearGradient>
		<polygon class="st81" points="108.2,193.4 174.3,155.4 174.3,147.7 108.2,185.7 		"/>
		<polygon class="st3" points="174.3,147.8 108.3,109.7 42.2,147.7 108.2,185.7 		"/>
		<linearGradient id="SVGID_79_" gradientUnits="userSpaceOnUse" x1="55.4107" y1="147.7194" x2="161.0853" y2="147.7194">
			<stop  offset="0" style="stop-color:#3274A6"/>
			<stop  offset="1" style="stop-color:#312A91"/>
		</linearGradient>
		<polygon class="st82" points="161.1,147.7 108.2,117.3 55.4,147.7 108.2,178.1 		"/>
		<polygon class="st5" points="108.2,177.6 55.4,147.7 108.2,178.1 161.1,147.7 		"/>
		<linearGradient id="SVGID_80_" gradientUnits="userSpaceOnUse" x1="55.4107" y1="132.8039" x2="108.248" y2="132.8039">
			<stop  offset="0" style="stop-color:#312A91"/>
			<stop  offset="1" style="stop-color:#3274A6"/>
		</linearGradient>
		<polygon class="st83" points="108.2,117.3 55.4,147.7 56.4,148.3 108.2,118.4 		"/>
		<linearGradient id="SVGID_81_" gradientUnits="userSpaceOnUse" x1="108.248" y1="132.8039" x2="161.0853" y2="132.8039">
			<stop  offset="0" style="stop-color:#312A91"/>
			<stop  offset="1" style="stop-color:#3274A6"/>
		</linearGradient>
		<polygon class="st84" points="108.2,117.3 108.2,118.4 160.1,148.3 161.1,147.7 		"/>
		<linearGradient id="SVGID_82_" gradientUnits="userSpaceOnUse" x1="68.0696" y1="154.386" x2="108.248" y2="154.386">
			<stop  offset="0" style="stop-color:#40E5DF;stop-opacity:0.5"/>
			<stop  offset="1" style="stop-color:#42E7E1"/>
		</linearGradient>
		<polygon class="st85" points="108.2,160.4 68.1,137.3 68.1,148.4 108.2,171.5 		"/>
		<linearGradient id="SVGID_83_" gradientUnits="userSpaceOnUse" x1="108.248" y1="154.386" x2="148.4264" y2="154.386">
			<stop  offset="0" style="stop-color:#42E7E1;stop-opacity:0.9"/>
			<stop  offset="1" style="stop-color:#40E5DF;stop-opacity:0.5"/>
		</linearGradient>
		<polygon class="st86" points="148.4,148.4 108.2,171.5 108.2,160.4 148.4,137.3 		"/>
	</g>
	<g>
		<linearGradient id="SVGID_84_" gradientUnits="userSpaceOnUse" x1="42.2014" y1="138.0876" x2="108.248" y2="138.0876">
			<stop  offset="0" style="stop-color:#378CB3"/>
			<stop  offset="1" style="stop-color:#312B8F"/>
		</linearGradient>
		<polygon class="st87" points="108.2,153.2 42.2,115.2 42.2,123 108.2,160.9 		"/>
		<linearGradient id="SVGID_85_" gradientUnits="userSpaceOnUse" x1="108.248" y1="138.0876" x2="174.2946" y2="138.0876">
			<stop  offset="0" style="stop-color:#251B71"/>
			<stop  offset="1" style="stop-color:#1B105F"/>
		</linearGradient>
		<polygon class="st88" points="108.2,160.9 174.3,123 174.3,115.2 108.2,153.2 		"/>
		<polygon class="st3" points="174.3,115.3 108.3,77.3 42.2,115.2 108.2,153.2 		"/>
		<linearGradient id="SVGID_86_" gradientUnits="userSpaceOnUse" x1="55.4107" y1="115.2465" x2="161.0853" y2="115.2465">
			<stop  offset="0" style="stop-color:#3274A6"/>
			<stop  offset="1" style="stop-color:#312A91"/>
		</linearGradient>
		<polygon class="st89" points="161.1,115.2 108.2,84.9 55.4,115.2 108.2,145.6 		"/>
		<polygon class="st5" points="108.2,145.1 55.4,115.2 108.2,145.6 161.1,115.2 		"/>
		<linearGradient id="SVGID_87_" gradientUnits="userSpaceOnUse" x1="55.4107" y1="100.3309" x2="108.248" y2="100.3309">
			<stop  offset="0" style="stop-color:#312A91"/>
			<stop  offset="1" style="stop-color:#3274A6"/>
		</linearGradient>
		<polygon class="st90" points="108.2,84.9 55.4,115.2 56.4,115.8 108.2,86 		"/>
		<linearGradient id="SVGID_88_" gradientUnits="userSpaceOnUse" x1="108.248" y1="100.3309" x2="161.0853" y2="100.3309">
			<stop  offset="0" style="stop-color:#312A91"/>
			<stop  offset="1" style="stop-color:#3274A6"/>
		</linearGradient>
		<polygon class="st91" points="108.2,84.9 108.2,86 160.1,115.8 161.1,115.2 		"/>
		<linearGradient id="SVGID_89_" gradientUnits="userSpaceOnUse" x1="108.248" y1="139.0233" x2="108.248" y2="92.8181">
			<stop  offset="0" style="stop-color:#42E7E1"/>
			<stop  offset="1" style="stop-color:#40E5DF;stop-opacity:0"/>
		</linearGradient>
		<polygon class="st92" points="68.1,115.9 108.2,139 148.4,115.9 148.4,115.9 108.2,92.8 		"/>
		<g>
			<path class="st16" d="M108.2,95.1l36.2,20.8l-36.2,20.8l-36.2-20.8L108.2,95.1 M108.2,92.8l-40.2,23.1l40.2,23.1l40.2-23.1v0
				L108.2,92.8L108.2,92.8z"/>
		</g>
		<linearGradient id="SVGID_90_" gradientUnits="userSpaceOnUse" x1="108.248" y1="140.9961" x2="108.248" y2="4.4003">
			<stop  offset="0" style="stop-color:#42E7E1;stop-opacity:0.7"/>
			<stop  offset="1" style="stop-color:#40E5DF;stop-opacity:0"/>
		</linearGradient>
		<polygon class="st93" points="68.1,0 68.1,115.9 108.2,139 148.4,115.9 148.4,0 		"/>
		<g>
			<g>
				<g>
					<g>
						<linearGradient id="SVGID_91_" gradientUnits="userSpaceOnUse" x1="83.4805" y1="40.7289" x2="83.4805" y2="36.3258">
							<stop  offset="0" style="stop-color:#42E7E1"/>
							<stop  offset="1" style="stop-color:#40E5DF;stop-opacity:0"/>
						</linearGradient>
						<rect x="82.4" y="36.3" class="st94" width="2.2" height="4.4"/>
					</g>
					<g>
						<linearGradient id="SVGID_92_" gradientUnits="userSpaceOnUse" x1="83.4805" y1="43.1422" x2="83.4805" y2="41.9355">
							<stop  offset="0" style="stop-color:#42E7E1"/>
							<stop  offset="1" style="stop-color:#40E5DF;stop-opacity:0"/>
						</linearGradient>
						<rect x="82.4" y="41.9" class="st95" width="2.2" height="1.2"/>
					</g>
					<g>
						<linearGradient id="SVGID_93_" gradientUnits="userSpaceOnUse" x1="83.4805" y1="97.4401" x2="83.4805" y2="49.1752">
							<stop  offset="0" style="stop-color:#42E7E1"/>
							<stop  offset="1" style="stop-color:#40E5DF;stop-opacity:0"/>
						</linearGradient>
						<path class="st96" d="M84.6,97.4h-2.2v-1.2h2.2V97.4z M84.6,95h-2.2v-9.7h2.2V95z M84.6,79.3h-2.2v-1.2h2.2V79.3z M84.6,76.9
							h-2.2v-9.7h2.2V76.9z M84.6,61.2h-2.2V60h2.2V61.2z M84.6,58.8h-2.2v-9.7h2.2V58.8z"/>
					</g>
					<g>
						<linearGradient id="SVGID_94_" gradientUnits="userSpaceOnUse" x1="83.4805" y1="107.8763" x2="83.4805" y2="103.4732">
							<stop  offset="0" style="stop-color:#42E7E1"/>
							<stop  offset="1" style="stop-color:#40E5DF;stop-opacity:0"/>
						</linearGradient>
						<rect x="82.4" y="103.5" class="st97" width="2.2" height="4.4"/>
					</g>
				</g>
				<g>
					<g>
						<linearGradient id="SVGID_95_" gradientUnits="userSpaceOnUse" x1="88.9844" y1="51.7366" x2="88.9844" y2="47.3335">
							<stop  offset="0" style="stop-color:#42E7E1"/>
							<stop  offset="1" style="stop-color:#40E5DF;stop-opacity:0"/>
						</linearGradient>
						<rect x="87.9" y="47.3" class="st98" width="2.2" height="4.4"/>
					</g>
					<g>
						<linearGradient id="SVGID_96_" gradientUnits="userSpaceOnUse" x1="88.9844" y1="54.15" x2="88.9844" y2="52.9433">
							<stop  offset="0" style="stop-color:#42E7E1"/>
							<stop  offset="1" style="stop-color:#40E5DF;stop-opacity:0"/>
						</linearGradient>
						<rect x="87.9" y="52.9" class="st99" width="2.2" height="1.2"/>
					</g>
					<g>
						<linearGradient id="SVGID_97_" gradientUnits="userSpaceOnUse" x1="88.9844" y1="108.4479" x2="88.9844" y2="60.183">
							<stop  offset="0" style="stop-color:#42E7E1"/>
							<stop  offset="1" style="stop-color:#40E5DF;stop-opacity:0"/>
						</linearGradient>
						<path class="st100" d="M90.1,108.4h-2.2v-1.2h2.2V108.4z M90.1,106h-2.2v-9.7h2.2V106z M90.1,90.3h-2.2v-1.2h2.2V90.3z
							 M90.1,87.9h-2.2v-9.7h2.2V87.9z M90.1,72.2h-2.2V71h2.2V72.2z M90.1,69.8h-2.2v-9.7h2.2V69.8z"/>
					</g>
					<g>
						<linearGradient id="SVGID_98_" gradientUnits="userSpaceOnUse" x1="88.9844" y1="118.8841" x2="88.9844" y2="114.4809">
							<stop  offset="0" style="stop-color:#42E7E1"/>
							<stop  offset="1" style="stop-color:#40E5DF;stop-opacity:0"/>
						</linearGradient>
						<rect x="87.9" y="114.5" class="st101" width="2.2" height="4.4"/>
					</g>
				</g>
				<g>
					<g>
						<linearGradient id="SVGID_99_" gradientUnits="userSpaceOnUse" x1="127.5116" y1="40.7289" x2="127.5116" y2="36.3258">
							<stop  offset="0" style="stop-color:#42E7E1"/>
							<stop  offset="1" style="stop-color:#40E5DF;stop-opacity:0"/>
						</linearGradient>
						<rect x="126.4" y="36.3" class="st102" width="2.2" height="4.4"/>
					</g>
					<g>
						<linearGradient id="SVGID_100_" gradientUnits="userSpaceOnUse" x1="127.5116" y1="43.1422" x2="127.5116" y2="41.9355">
							<stop  offset="0" style="stop-color:#42E7E1"/>
							<stop  offset="1" style="stop-color:#40E5DF;stop-opacity:0"/>
						</linearGradient>
						<rect x="126.4" y="41.9" class="st103" width="2.2" height="1.2"/>
					</g>
					<g>
						<linearGradient id="SVGID_101_" gradientUnits="userSpaceOnUse" x1="127.5116" y1="97.4401" x2="127.5116" y2="49.1752">
							<stop  offset="0" style="stop-color:#42E7E1"/>
							<stop  offset="1" style="stop-color:#40E5DF;stop-opacity:0"/>
						</linearGradient>
						<path class="st104" d="M128.6,97.4h-2.2v-1.2h2.2V97.4z M128.6,95h-2.2v-9.7h2.2V95z M128.6,79.3h-2.2v-1.2h2.2V79.3z
							 M128.6,76.9h-2.2v-9.7h2.2V76.9z M128.6,61.2h-2.2V60h2.2V61.2z M128.6,58.8h-2.2v-9.7h2.2V58.8z"/>
					</g>
					<g>
						<linearGradient id="SVGID_102_" gradientUnits="userSpaceOnUse" x1="127.5116" y1="107.8763" x2="127.5116" y2="103.4732">
							<stop  offset="0" style="stop-color:#42E7E1"/>
							<stop  offset="1" style="stop-color:#40E5DF;stop-opacity:0"/>
						</linearGradient>
						<rect x="126.4" y="103.5" class="st105" width="2.2" height="4.4"/>
					</g>
				</g>
				<g>
					<g>
						<linearGradient id="SVGID_103_" gradientUnits="userSpaceOnUse" x1="133.0155" y1="51.7366" x2="133.0155" y2="47.3335">
							<stop  offset="0" style="stop-color:#42E7E1"/>
							<stop  offset="1" style="stop-color:#40E5DF;stop-opacity:0"/>
						</linearGradient>
						<rect x="131.9" y="47.3" class="st106" width="2.2" height="4.4"/>
					</g>
					<g>
						<linearGradient id="SVGID_104_" gradientUnits="userSpaceOnUse" x1="133.0155" y1="54.15" x2="133.0155" y2="52.9433">
							<stop  offset="0" style="stop-color:#42E7E1"/>
							<stop  offset="1" style="stop-color:#40E5DF;stop-opacity:0"/>
						</linearGradient>
						<rect x="131.9" y="52.9" class="st107" width="2.2" height="1.2"/>
					</g>
					<g>
						<linearGradient id="SVGID_105_" gradientUnits="userSpaceOnUse" x1="133.0155" y1="108.4479" x2="133.0155" y2="60.183">
							<stop  offset="0" style="stop-color:#42E7E1"/>
							<stop  offset="1" style="stop-color:#40E5DF;stop-opacity:0"/>
						</linearGradient>
						<path class="st108" d="M134.1,108.4h-2.2v-1.2h2.2V108.4z M134.1,106h-2.2v-9.7h2.2V106z M134.1,90.3h-2.2v-1.2h2.2V90.3z
							 M134.1,87.9h-2.2v-9.7h2.2V87.9z M134.1,72.2h-2.2V71h2.2V72.2z M134.1,69.8h-2.2v-9.7h2.2V69.8z"/>
					</g>
					<g>
						<linearGradient id="SVGID_106_" gradientUnits="userSpaceOnUse" x1="133.0155" y1="118.8841" x2="133.0155" y2="114.4809">
							<stop  offset="0" style="stop-color:#42E7E1"/>
							<stop  offset="1" style="stop-color:#40E5DF;stop-opacity:0"/>
						</linearGradient>
						<rect x="131.9" y="114.5" class="st109" width="2.2" height="4.4"/>
					</g>
				</g>
			</g>
			<g>
				<g>
					<g>
						<linearGradient id="SVGID_107_" gradientUnits="userSpaceOnUse" x1="105.4961" y1="24.2172" x2="105.4961" y2="19.8141">
							<stop  offset="0" style="stop-color:#42E7E1"/>
							<stop  offset="1" style="stop-color:#40E5DF;stop-opacity:0"/>
						</linearGradient>
						<rect x="104.4" y="19.8" class="st110" width="2.2" height="4.4"/>
					</g>
					<g>
						<linearGradient id="SVGID_108_" gradientUnits="userSpaceOnUse" x1="105.4961" y1="26.6305" x2="105.4961" y2="25.4239">
							<stop  offset="0" style="stop-color:#42E7E1"/>
							<stop  offset="1" style="stop-color:#40E5DF;stop-opacity:0"/>
						</linearGradient>
						<rect x="104.4" y="25.4" class="st111" width="2.2" height="1.2"/>
					</g>
					<g>
						<linearGradient id="SVGID_109_" gradientUnits="userSpaceOnUse" x1="105.4961" y1="80.9285" x2="105.4961" y2="32.6636">
							<stop  offset="0" style="stop-color:#42E7E1"/>
							<stop  offset="1" style="stop-color:#40E5DF;stop-opacity:0"/>
						</linearGradient>
						<path class="st112" d="M106.6,80.9h-2.2v-1.2h2.2V80.9z M106.6,78.5h-2.2v-9.7h2.2V78.5z M106.6,62.8h-2.2v-1.2h2.2V62.8z
							 M106.6,60.4h-2.2v-9.7h2.2V60.4z M106.6,44.7h-2.2v-1.2h2.2V44.7z M106.6,42.3h-2.2v-9.7h2.2V42.3z"/>
					</g>
					<g>
						<linearGradient id="SVGID_110_" gradientUnits="userSpaceOnUse" x1="105.4961" y1="91.3646" x2="105.4961" y2="86.9615">
							<stop  offset="0" style="stop-color:#42E7E1"/>
							<stop  offset="1" style="stop-color:#40E5DF;stop-opacity:0"/>
						</linearGradient>
						<rect x="104.4" y="87" class="st113" width="2.2" height="4.4"/>
					</g>
				</g>
				<g>
					<g>
						<linearGradient id="SVGID_111_" gradientUnits="userSpaceOnUse" x1="110.9999" y1="35.225" x2="110.9999" y2="30.8219">
							<stop  offset="0" style="stop-color:#42E7E1"/>
							<stop  offset="1" style="stop-color:#40E5DF;stop-opacity:0"/>
						</linearGradient>
						<rect x="109.9" y="30.8" class="st114" width="2.2" height="4.4"/>
					</g>
					<g>
						<linearGradient id="SVGID_112_" gradientUnits="userSpaceOnUse" x1="110.9999" y1="37.6383" x2="110.9999" y2="36.4317">
							<stop  offset="0" style="stop-color:#42E7E1"/>
							<stop  offset="1" style="stop-color:#40E5DF;stop-opacity:0"/>
						</linearGradient>
						<rect x="109.9" y="36.4" class="st115" width="2.2" height="1.2"/>
					</g>
					<g>
						<linearGradient id="SVGID_113_" gradientUnits="userSpaceOnUse" x1="110.9999" y1="91.9362" x2="110.9999" y2="43.6714">
							<stop  offset="0" style="stop-color:#42E7E1"/>
							<stop  offset="1" style="stop-color:#40E5DF;stop-opacity:0"/>
						</linearGradient>
						<path class="st116" d="M112.1,91.9h-2.2v-1.2h2.2V91.9z M112.1,89.5h-2.2v-9.7h2.2V89.5z M112.1,73.8h-2.2v-1.2h2.2V73.8z
							 M112.1,71.4h-2.2v-9.7h2.2V71.4z M112.1,55.7h-2.2v-1.2h2.2V55.7z M112.1,53.3h-2.2v-9.7h2.2V53.3z"/>
					</g>
					<g>
						<linearGradient id="SVGID_114_" gradientUnits="userSpaceOnUse" x1="110.9999" y1="102.3724" x2="110.9999" y2="97.9693">
							<stop  offset="0" style="stop-color:#42E7E1"/>
							<stop  offset="1" style="stop-color:#40E5DF;stop-opacity:0"/>
						</linearGradient>
						<rect x="109.9" y="98" class="st117" width="2.2" height="4.4"/>
					</g>
				</g>
			</g>
		</g>
	</g>
</g>
</svg>
