<?xml version="1.0" encoding="utf-8"?>
<!-- Generator: Adobe Illustrator 22.1.0, SVG Export Plug-In . SVG Version: 6.00 Build 0)  -->
<svg version="1.1" id="Layer_1" xmlns="http://www.w3.org/2000/svg" xmlns:xlink="http://www.w3.org/1999/xlink" x="0px" y="0px"
	 viewBox="0 0 69.2 60" style="enable-background:new 0 0 69.2 60;" xml:space="preserve">
<style type="text/css">
	.st0{fill:url(#SVGID_1_);}
	.st1{fill:url(#SVGID_2_);}
	.st2{fill:url(#SVGID_3_);}
	.st3{fill:url(#SVGID_4_);}
	.st4{fill:#080245;}
</style>
<g>
	<g>
		
			<linearGradient id="SVGID_1_" gradientUnits="userSpaceOnUse" x1="38.7367" y1="53.8" x2="59.6816" y2="53.8" gradientTransform="matrix(1 0 0 -1 0 62)">
			<stop  offset="0.25" style="stop-color:#0069FF"/>
			<stop  offset="1" style="stop-color:#08026E"/>
		</linearGradient>
		<path class="st0" d="M39,15.6c0,0-3.2-12.5,11.5-15L50,4l4.5-1.3l-0.6,2.7l3.7-0.9L57,6.4c0,0,3.8,3.7,2.3,9.2l-2.2,0.1l-1.9-4.1
			c0,0-4.5,5.6-11.8,0l-2.5,4.2L39,15.6z"/>
		
			<linearGradient id="SVGID_2_" gradientUnits="userSpaceOnUse" x1="30.6" y1="39.65" x2="36.4451" y2="39.65" gradientTransform="matrix(1 0 0 -1 0 62)">
			<stop  offset="0.25" style="stop-color:#0069FF"/>
			<stop  offset="1" style="stop-color:#08026E"/>
		</linearGradient>
		<path class="st1" d="M36.4,23.2v-1.7c0-2.2-1.8-4-4-4h-1.8v9.7h1.8C34.6,27.2,36.4,25.4,36.4,23.2z"/>
		
			<linearGradient id="SVGID_3_" gradientUnits="userSpaceOnUse" x1="5.2751" y1="39.65" x2="11.1202" y2="39.65" gradientTransform="matrix(1 0 0 -1 0 62)">
			<stop  offset="0.25" style="stop-color:#0069FF"/>
			<stop  offset="1" style="stop-color:#08026E"/>
		</linearGradient>
		<path class="st2" d="M9.3,27.2h1.8v-9.7H9.3c-2.2,0-4,1.8-4,4v1.7C5.3,25.4,7.1,27.2,9.3,27.2z"/>
		
			<linearGradient id="SVGID_4_" gradientUnits="userSpaceOnUse" x1="2.7" y1="13.6411" x2="40.5165" y2="13.6411" gradientTransform="matrix(1 0 0 -1 0 62)">
			<stop  offset="0.25" style="stop-color:#0069FF"/>
			<stop  offset="1" style="stop-color:#08026E"/>
		</linearGradient>
		<path class="st3" d="M2.7,45.4c0,0,3.7-7.3,11.2-8.2c0,0,8.5,14.9,14.9,0c0,0,8.2,1.9,11.8,8.2l-6.4,4.2l0.1,6.6
			c0,0-6,3.6-12.8,3.3S9.1,57.4,9.1,57.4L9,49.5L2.7,45.4z"/>
	</g>
	<g>
		<path class="st4" d="M67.9,51.5c-0.3,0.4-0.8,0.6-1.3,0.3c-0.4-0.3-0.6-0.8-0.3-1.3c0.3-0.4,0.8-0.6,1.3-0.3
			C68,50.5,68.1,51.1,67.9,51.5z"/>
		<g>
			<path class="st4" d="M9,57.7c-0.5,0-0.9-0.4-0.9-0.9V50l-5.7-4c-0.4-0.3-0.5-0.8-0.2-1.2s0.8-0.5,1.2-0.2l6,4.3
				c0.2,0.2,0.4,0.4,0.4,0.7v7.2C9.9,57.3,9.5,57.7,9,57.7z"/>
		</g>
		<g>
			<path class="st4" d="M34,57.3c-0.5,0-0.9-0.4-0.9-0.9v-6.9c0-0.3,0.2-0.6,0.4-0.7l6-4c0.4-0.3,1-0.2,1.2,0.3
				c0.3,0.4,0.2,1-0.3,1.2L34.9,50v6.4C34.9,56.9,34.5,57.3,34,57.3z"/>
		</g>
		<g>
			<path class="st4" d="M21.4,60.2L21.4,60.2c-7.8,0-15.2-2.8-21.1-7.8C0.1,52.2,0,51.9,0,51.6c0.5-7.7,6.1-14,13.7-15.3l0,0
				c0,0,0,0,0.1,0h0.1c0.2,0,0.4,0,0.6,0.1l0.4,0.2c0.2,0.1,0.4,0.4,0.4,0.7c0.3,3.1,3,5.4,6.2,5.4s5.8-2.3,6.2-5.4
				c0-0.1,0.1-0.3,0.1-0.4l0.1-0.2c0.2-0.3,0.5-0.5,0.9-0.4c0.1,0,0.2,0,0.2,0s0,0,0.1,0c7.5,1.3,13.1,7.5,13.7,15.1
				c0,0.3-0.1,0.6-0.3,0.7C36.7,57.3,29.2,60.2,21.4,60.2z M1.8,51.3c5.5,4.6,12.4,7.1,19.5,7.1h0.1c7.2,0,14.2-2.6,19.6-7.2
				c-0.7-6.4-5.4-11.6-11.7-13c-0.7,3.6-4,6.3-7.8,6.3c-3.9,0-7.1-2.7-7.8-6.3C7.2,39.4,2.4,44.8,1.8,51.3z"/>
		</g>
		<g>
			<path class="st4" d="M33.5,18.4c-0.5,0-0.9-0.4-0.9-0.9v-3.9c0-5.4-4.7-9.7-10.4-9.7h-2.7c-5.7,0-10.4,4.4-10.4,9.7v3.8
				c0,0.5-0.4,0.9-0.9,0.9s-0.9-0.4-0.9-0.9v-3.8C7.4,7.2,12.8,2,19.5,2h2.7C29,2,34.4,7.2,34.4,13.6v3.9C34.4,18,34,18.4,33.5,18.4
				z"/>
		</g>
		<g>
			<path class="st4" d="M11.8,20.6c-0.1,0-0.3,0-0.4,0c-0.5-0.1-0.8-0.5-0.8-1c0.1-0.5,0.5-0.8,1-0.8c1,0.1,4.6-0.9,6.5-3
				c0.3-0.4,0.9-0.4,1.3-0.1s0.4,0.9,0.1,1.3C17.3,19.3,13.7,20.6,11.8,20.6z"/>
		</g>
		<g>
			<path class="st4" d="M21.1,36.9c-0.8,0-1.6-0.1-2.3-0.3c-0.5-0.1-0.7-0.6-0.6-1.1s0.6-0.7,1.1-0.6c0.6,0.2,1.2,0.3,1.8,0.3
				c4.4,0,8.2-4.2,8.7-9.8c0-0.5,0.5-0.8,1-0.8s0.9,0.5,0.8,1C30.9,32,26.4,36.9,21.1,36.9z"/>
		</g>
		<g>
			<path class="st4" d="M12.5,30.5c-0.3,0-0.7-0.2-0.8-0.5c-0.1-0.2-0.2-0.3-0.2-0.5c-0.5-1.1-1.1-2.4-1.2-4c0-0.5,0.3-0.9,0.8-0.9
				s0.9,0.3,0.9,0.8c0.1,1.3,0.5,2.3,1,3.4c0.1,0.2,0.2,0.4,0.2,0.5c0.2,0.4,0,1-0.4,1.2C12.8,30.4,12.7,30.5,12.5,30.5z"/>
		</g>
		<g>
			<path class="st4" d="M19,25.3h-2.3c-0.5,0-0.9-0.4-0.9-0.9s0.4-0.9,0.9-0.9H19c0.5,0,0.9,0.4,0.9,0.9S19.5,25.3,19,25.3z"/>
		</g>
		<g>
			<path class="st4" d="M26.1,25.3h-2.3c-0.5,0-0.9-0.4-0.9-0.9s0.4-0.9,0.9-0.9h2.3c0.5,0,0.9,0.4,0.9,0.9S26.6,25.3,26.1,25.3z"/>
		</g>
		<g>
			<path class="st4" d="M32.7,28.1h-2.1c-0.5,0-0.9-0.4-0.9-0.9v-9.7c0-0.5,0.4-0.9,0.9-0.9h2.1c2.5,0,4.6,2.1,4.6,4.6v2.3
				C37.3,26.1,35.3,28.1,32.7,28.1z M31.5,26.3h1.2c1.5,0,2.8-1.3,2.8-2.8v-2.3c0-1.5-1.3-2.8-2.8-2.8h-1.2V26.3z"/>
		</g>
		<g>
			<path class="st4" d="M11.2,28.1H9c-2.5,0-4.6-2.1-4.6-4.6v-2.3c0-2.5,2.1-4.6,4.6-4.6h2.1c0.5,0,0.9,0.4,0.9,0.9v9.7
				C12.1,27.7,11.7,28.1,11.2,28.1z M9,18.4c-1.5,0-2.8,1.3-2.8,2.8v2.3c0,1.5,1.3,2.8,2.8,2.8h1.2v-7.9C10.2,18.4,9,18.4,9,18.4z"
				/>
		</g>
		<g>
			<path class="st4" d="M17,33.9h-2.7c-3.9,0-7-3-7-6.7c0-0.5,0.4-0.9,0.9-0.9s0.9,0.4,0.9,0.9c0,2.8,2.3,4.9,5.2,4.9H17
				c0.5,0,0.9,0.4,0.9,0.9C17.9,33.5,17.5,33.9,17,33.9z"/>
		</g>
		<path class="st4" d="M18.1,30.1h-1.2c-1,0-1.8,0.8-1.8,1.8v0.3c0,1,0.8,1.8,1.8,1.8h1.2c1,0,1.8-0.8,1.8-1.8v-0.3
			C19.9,30.9,19.1,30.1,18.1,30.1z"/>
		<g>
			<path class="st4" d="M20.1,20.7c-0.4,0-0.7-0.2-0.8-0.6c-0.2-0.5,0.1-1,0.6-1.1c0.7-0.3,2.8-1.2,3.2-2.6c0.1-0.2,0.2-0.4,0.5-0.5
				c0.2-0.1,0.5-0.1,0.7,0l6,2.1c0.5,0.2,0.7,0.7,0.5,1.1c-0.2,0.5-0.7,0.7-1.1,0.5l-5.2-1.8c-1.2,1.9-3.8,2.9-3.9,2.9
				C20.3,20.7,20.2,20.7,20.1,20.7z"/>
		</g>
		<g>
			<path class="st4" d="M29.5,19.3c-0.1,0-0.2,0-0.3,0c-0.5-0.1-0.7-0.6-0.6-1.1c0.7-2.4-0.2-4.4-1.5-4.8c-0.5-0.2-0.7-0.7-0.5-1.1
				c0.2-0.5,0.7-0.7,1.1-0.5c2.4,0.9,3.5,4,2.5,7C30.2,19.1,29.8,19.3,29.5,19.3z"/>
		</g>
		<g>
			<path class="st4" d="M11.6,19.7c-0.4,0-0.8-0.3-0.9-0.8c-0.5-3.3,0.7-6.7,3.3-9.2c2.5-2.5,5.8-3.5,9.1-2.9c0.5,0.1,0.8,0.6,0.7,1
				c-0.1,0.5-0.6,0.8-1,0.7C20.1,8.1,17.3,9,15.2,11c-2.2,2.1-3.2,5-2.8,7.7C12.5,19.2,12.1,19.6,11.6,19.7
				C11.6,19.7,11.6,19.7,11.6,19.7z"/>
		</g>
		<g>
			<path class="st4" d="M24.3,11.6c-0.2,0-0.4-0.1-0.6-0.2c-0.3-0.2-0.4-0.6-0.3-0.9l0.5-2C24.1,8,24.5,7.7,25,7.8
				c0.5,0.1,0.8,0.6,0.6,1.1l-0.1,0.4C26.2,9.1,27,9,27.7,9.2c0.5,0.1,0.8,0.6,0.7,1.1c-0.1,0.5-0.6,0.8-1.1,0.7
				c-0.7-0.2-2.1,0.2-2.8,0.5C24.5,11.5,24.4,11.6,24.3,11.6z"/>
		</g>
		<g>
			<g>
				<path class="st4" d="M61,50.7c-0.5,0-0.9-0.4-0.9-0.9v-6.4c0-0.3,0.2-0.6,0.4-0.7l5.6-3.7c0.4-0.3,1-0.2,1.2,0.3
					c0.3,0.4,0.2,1-0.3,1.2l-5.2,3.4v5.9C61.8,50.3,61.4,50.7,61,50.7z"/>
			</g>
			<g>
				<path class="st4" d="M49,57.4c-1.4,0-2.8-0.1-4.2-0.3c-0.5-0.1-0.8-0.5-0.8-1c0.1-0.5,0.5-0.8,1-0.8c1.3,0.2,2.7,0.2,4,0.2h0.1
					c5.1,0,10.2-1.3,14.8-3.6c0.4-0.2,1-0.1,1.2,0.4c0.2,0.4,0.1,1-0.4,1.2C59.9,56.1,54.5,57.4,49,57.4L49,57.4z"/>
			</g>
			<g>
				<path class="st4" d="M49,53.4c-1.2,0-2.5-0.1-3.7-0.2c-0.5-0.1-0.8-0.5-0.8-1c0.1-0.5,0.5-0.8,1-0.8c1.2,0.1,2.3,0.2,3.5,0.2
					h0.1c6.7,0,13.2-2.4,18.3-6.7c-0.6-5.9-5-10.8-10.8-12.1c-0.7,3.4-3.8,5.9-7.4,5.9c-3.6,0-6.7-2.5-7.4-5.9
					c-2.5,0.5-4.9,1.7-6.8,3.6c-0.4,0.3-0.9,0.3-1.3,0c-0.3-0.4-0.3-0.9,0-1.3c2.2-2.2,5.1-3.6,8.1-4.1h0.1H42c0.2,0,0.4,0,0.6,0.1
					l0.3,0.2c0.2,0.1,0.4,0.4,0.4,0.7c0.3,2.8,2.8,5,5.7,5s5.4-2.1,5.7-5c0-0.1,0.1-0.3,0.1-0.4l0.1-0.2c0.2-0.3,0.5-0.5,0.9-0.4
					c0.1,0,0.2,0,0.2,0s0,0,0.1,0c7,1.2,12.3,7.1,12.9,14.2c0,0.3-0.1,0.6-0.3,0.7C63.4,50.7,56.4,53.4,49,53.4L49,53.4z"/>
			</g>
			<g>
				<path class="st4" d="M57.6,18.1c-0.4,0-0.7-0.2-0.8-0.6l-1.7-4.3c-0.4,0.3-0.8,0.6-1.3,0.9c-2,1.1-4.9,1.2-7.1,0.3
					c-1.3-0.5-2.3-1.2-3-1.7l-2.2,4.6c-0.2,0.4-0.7,0.6-1.2,0.4c-0.4-0.2-0.6-0.7-0.4-1.2l2.7-5.6c0.1-0.3,0.4-0.4,0.6-0.5
					c0.3-0.1,0.6,0,0.8,0.2c0,0,1.4,1.3,3.4,2.1c1.8,0.7,4.1,0.6,5.6-0.3c0.7-0.4,1.3-0.9,1.7-1.5c0.2-0.3,0.5-0.4,0.8-0.4
					s0.6,0.3,0.7,0.6l2.2,5.6c0.2,0.5,0,1-0.5,1.2C57.8,18.1,57.7,18.1,57.6,18.1z"/>
			</g>
			<g>
				<path class="st4" d="M40,21.1c-0.4,0-0.8-0.3-0.9-0.7c0,0-0.1-0.1-0.2-0.1c-0.4-0.3-1.1-0.8-1.5-2.2c-0.5-2.1,0.3-3,0.9-3.4
					c0.9-0.6,2-0.5,2.6,0c0.4,0.3,0.5,0.8,0.2,1.2c-0.3,0.4-0.8,0.5-1.2,0.2c-0.1-0.1-0.4-0.1-0.6,0c-0.3,0.2-0.3,0.7-0.2,1.5
					c0.2,0.8,0.4,1,0.7,1.2s0.7,0.5,0.9,1.2c0.1,0.5-0.2,0.9-0.7,1C40.1,21.1,40,21.1,40,21.1z"/>
			</g>
			<g>
				<path class="st4" d="M58.2,21.1c-0.1,0-0.1,0-0.2,0c-0.5-0.1-0.8-0.6-0.7-1c0.1-0.7,0.6-1,0.9-1.2c0.3-0.2,0.6-0.4,0.7-1.2
					c0.2-0.9,0.1-1.5-0.2-1.7c-0.1-0.1-0.3,0-0.4,0.1c-0.3,0.4-0.9,0.4-1.3,0.1c-0.4-0.3-0.4-0.9-0.1-1.3c0.7-0.7,1.7-0.9,2.6-0.5
					c0.4,0.2,1.7,1.1,1.1,3.6c-0.3,1.4-1,1.9-1.5,2.2c0,0-0.1,0.1-0.2,0.1C59,20.8,58.6,21.1,58.2,21.1z"/>
			</g>
			<g>
				<path class="st4" d="M49.1,31.1c-4.9,0-9.1-4.5-10-10.7c-0.1-0.5,0.3-0.9,0.7-1c0.5-0.1,0.9,0.3,1,0.7c0.8,5.3,4.3,9.2,8.2,9.2
					s7.4-3.9,8.2-9.2c0.1-0.5,0.5-0.8,1-0.7c0.5,0.1,0.8,0.5,0.7,1C58.2,26.6,54,31.1,49.1,31.1z"/>
			</g>
			<g>
				<path class="st4" d="M47.2,20.1H45c-0.5,0-0.9-0.4-0.9-0.9s0.4-0.9,0.9-0.9h2.1c0.5,0,0.9,0.4,0.9,0.9S47.6,20.1,47.2,20.1z"/>
			</g>
			<g>
				<path class="st4" d="M53.8,20.1h-2.1c-0.5,0-0.9-0.4-0.9-0.9s0.4-0.9,0.9-0.9h2.1c0.5,0,0.9,0.4,0.9,0.9S54.3,20.1,53.8,20.1z"
					/>
			</g>
			<g>
				<path class="st4" d="M49.1,27.4c-1,0-2-0.4-2.9-1.1c-0.4-0.3-0.5-0.9-0.2-1.2c0.3-0.4,0.9-0.5,1.2-0.2c1.2,0.9,2.5,0.9,3.7,0
					c0.4-0.3,1-0.2,1.2,0.2c0.3,0.4,0.2,1-0.2,1.2C51.1,27.1,50.1,27.4,49.1,27.4z"/>
			</g>
			<g>
				<path class="st4" d="M59.7,13.5L59.7,13.5c-0.5,0-0.9-0.4-0.9-0.9c0.1-1.7-0.9-4.3-2.4-5.5c-0.4-0.3-0.5-0.9-0.2-1.2
					c0.3-0.4,0.8-0.5,1.2-0.2c2,1.5,3.3,4.8,3.2,7C60.6,13.2,60.2,13.5,59.7,13.5z"/>
			</g>
			<g>
				<path class="st4" d="M38.1,14c-0.4,0-0.8-0.3-0.9-0.8c-0.4-2.8,0.6-5.8,2.8-8.3c2.6-3,6.5-4.8,10.7-4.8c0.5,0,0.9,0.4,0.9,0.9
					s-0.4,0.9-0.9,0.9c-3.6,0-7,1.5-9.3,4.2c-1.8,2.1-2.7,4.7-2.4,6.9C39.1,13.5,38.7,13.9,38.1,14C38.2,14,38.2,14,38.1,14z"/>
			</g>
			<g>
				<path class="st4" d="M56.8,7.1c-0.1,0-0.2,0-0.3-0.1C56,6.8,55.8,6.3,56,5.8l0.2-0.4c-0.8,0.1-1.7,0.4-2,0.5S53.5,6,53.3,5.7
					C53,5.5,52.9,5.1,53,4.8l0.3-1c-1.4,0.2-2.5,0.7-2.5,0.7c-0.4,0.2-1,0-1.2-0.4s0-1,0.4-1.2c0.1,0,2.2-1,4.5-1
					c0.3,0,0.6,0.1,0.7,0.4c0.2,0.2,0.2,0.5,0.1,0.8l-0.2,0.6c0.8-0.2,1.7-0.3,2.5-0.1c0.3,0.1,0.5,0.2,0.6,0.5
					c0.1,0.2,0.1,0.5,0,0.8l-0.7,1.6C57.5,6.9,57.2,7.1,56.8,7.1z"/>
			</g>
		</g>
		<g>
			<path class="st4" d="M21.5,48c-5.5,0-10.2-4.1-11-9.5c-0.1-0.5,0.3-0.9,0.8-1s0.9,0.3,1,0.8c0.7,4.6,4.7,8,9.3,8
				c4.7,0,8.6-3.5,9.3-8.1c0.1-0.5,0.5-0.8,1-0.8c0.5,0.1,0.8,0.5,0.8,1C31.8,43.9,27,48,21.5,48z"/>
		</g>
		<g>
			<path class="st4" d="M49.2,49.6c-0.5,0-0.9-0.4-0.9-0.9v-11c0-0.5,0.4-0.9,0.9-0.9s0.9,0.4,0.9,0.9v11
				C50.1,49.2,49.7,49.6,49.2,49.6z"/>
		</g>
	</g>
</g>
</svg>
