<?xml version="1.0" encoding="utf-8"?>
<!-- Generator: Adobe Illustrator 22.1.0, SVG Export Plug-In . SVG Version: 6.00 Build 0)  -->
<svg version="1.1" id="icons" xmlns="http://www.w3.org/2000/svg" xmlns:xlink="http://www.w3.org/1999/xlink" x="0px" y="0px"
	 viewBox="0 0 250 145.3" style="enable-background:new 0 0 250 145.3;" xml:space="preserve">
<style type="text/css">
	.st0{fill:url(#SVGID_1_);}
	.st1{fill:url(#SVGID_2_);}
	.st2{fill:url(#SVGID_3_);}
	.st3{fill:url(#SVGID_4_);}
	.st4{fill:url(#SVGID_5_);}
	.st5{fill:url(#SVGID_6_);}
	.st6{fill:#FFFFFF;}
	.st7{fill:url(#SVGID_7_);}
	.st8{fill:url(#SVGID_8_);}
	.st9{fill:url(#SVGID_9_);}
	.st10{fill:url(#SVGID_10_);}
	.st11{fill:#080245;}
</style>
<g>
	<g>
		
			<linearGradient id="SVGID_1_" gradientUnits="userSpaceOnUse" x1="3.9" y1="48.7" x2="78.9" y2="48.7" gradientTransform="matrix(1 0 0 -1 0 148)">
			<stop  offset="0.25" style="stop-color:#0069FF"/>
			<stop  offset="1" style="stop-color:#08026E"/>
		</linearGradient>
		<path class="st0" d="M56.7,71.2c0-3.6,0.3-7.1,0.8-10.5c-4-1.3-8.3-2.1-12.8-2.1c-22.5,0-40.8,18.2-40.8,40.7S22.2,140,44.7,140
			c14.3,0,26.9-7.4,34.2-18.5C65.2,109.1,56.7,91.1,56.7,71.2z"/>
	</g>
	<g>
		<g>
			
				<linearGradient id="SVGID_2_" gradientUnits="userSpaceOnUse" x1="171.1" y1="48.7" x2="246.1" y2="48.7" gradientTransform="matrix(1 0 0 -1 0 148)">
				<stop  offset="0.25" style="stop-color:#0069FF"/>
				<stop  offset="1" style="stop-color:#08026E"/>
			</linearGradient>
			<path class="st1" d="M205.3,58.6c-4.5,0-8.8,0.7-12.8,2.1c0.5,3.4,0.8,6.9,0.8,10.5c0,19.9-8.6,37.9-22.2,50.3
				c7.3,11.1,19.9,18.5,34.2,18.5c22.5,0,40.8-18.2,40.8-40.7S227.8,58.6,205.3,58.6z"/>
		</g>
	</g>
	
		<linearGradient id="SVGID_3_" gradientUnits="userSpaceOnUse" x1="201.4283" y1="48" x2="209.7434" y2="48" gradientTransform="matrix(1 0 0 -1 0 148)">
		<stop  offset="0.25" style="stop-color:#3FD7D7"/>
		<stop  offset="1" style="stop-color:#080245"/>
	</linearGradient>
	<path class="st2" d="M201.4,100c0,2.3,1.9,4.2,4.2,4.2s4.2-1.9,4.2-4.2c0-2.3-1.9-4.2-4.2-4.2C203.3,95.8,201.4,97.7,201.4,100z"/>
	
		<linearGradient id="SVGID_4_" gradientUnits="userSpaceOnUse" x1="40.2577" y1="48" x2="48.5729" y2="48" gradientTransform="matrix(1 0 0 -1 0 148)">
		<stop  offset="0.25" style="stop-color:#3FD7D7"/>
		<stop  offset="1" style="stop-color:#080245"/>
	</linearGradient>
	<ellipse class="st3" cx="44.4" cy="100" rx="4.2" ry="4.2"/>
	<g>
		
			<linearGradient id="SVGID_5_" gradientUnits="userSpaceOnUse" x1="118.6069" y1="95.675" x2="130.6297" y2="95.675" gradientTransform="matrix(1 0 0 -1 0 148)">
			<stop  offset="0.25" style="stop-color:#0069FF"/>
			<stop  offset="1" style="stop-color:#08026E"/>
		</linearGradient>
		<path class="st4" d="M130.6,64.6l-5.1-24.1c-0.1-0.6-0.9-0.6-1.1,0l-5.9,24.1H130.6z"/>
	</g>
	<g>
		<g>
			<g>
				
					<linearGradient id="SVGID_6_" gradientUnits="userSpaceOnUse" x1="65" y1="88.8" x2="185" y2="88.8" gradientTransform="matrix(1 0 0 -1 0 148)">
					<stop  offset="0.25" style="stop-color:#0069FF"/>
					<stop  offset="1" style="stop-color:#08026E"/>
				</linearGradient>
				<path class="st5" d="M171.4,107.4c-0.6,0-1.3-0.2-1.8-0.6c-1.3-1-1.5-2.8-0.5-4.1c6.8-8.8,10-18.9,10-31.8
					c0-29.8-24.3-54.1-54.1-54.1S70.9,41.1,70.9,70.9c0,11.4,3.5,22.3,10.1,31.5c0.9,1.3,0.6,3.2-0.7,4.1c-1.3,0.9-3.2,0.6-4.1-0.7
					C68.9,95.6,65,83.5,65,70.9c0-33,26.9-59.9,60-59.9s60,26.9,60,59.9c0,14.2-3.6,25.5-11.3,35.4
					C173.2,107,172.3,107.4,171.4,107.4z"/>
			</g>
		</g>
	</g>
	<path class="st6" d="M208.8,74.2v-7.3c0-1.6-1.3-2.9-2.9-2.9c-1.6,0-2.9,1.3-2.9,2.9v7.3c0,1.6,1.3,2.9,2.9,2.9
		C207.5,77.2,208.8,75.9,208.8,74.2z"/>
	<path class="st6" d="M188.6,117.4l-4.5,6.2c-1,1.3-0.7,3.1,0.7,4.1c0.5,0.4,1.1,0.6,1.7,0.6c0.9,0,1.8-0.4,2.4-1.2l4.5-6.2
		c1-1.3,0.7-3.1-0.7-4.1C191.3,115.8,189.5,116.1,188.6,117.4z"/>
	<path class="st6" d="M202.9,124.2v7.3c0,1.6,1.3,2.9,2.9,2.9c1.6,0,2.9-1.3,2.9-2.9v-7.3c0-1.6-1.3-2.9-2.9-2.9
		C204.2,121.2,202.9,122.5,202.9,124.2z"/>
	<path class="st6" d="M222.2,127.5c0.6,0.8,1.5,1.2,2.4,1.2c0.6,0,1.2-0.2,1.7-0.6c1.3-1,1.6-2.8,0.7-4.1l-4.5-6.2
		c-1-1.3-2.8-1.6-4.1-0.6s-1.6,2.8-0.7,4.1L222.2,127.5z"/>
	<path class="st6" d="M235.6,112.2c0.3,0.1,0.6,0.1,0.9,0.1c1.2,0,2.4-0.8,2.8-2c0.5-1.5-0.3-3.2-1.9-3.7l-7.4-2.4
		c-1.5-0.5-3.2,0.3-3.7,1.9c-0.5,1.5,0.3,3.2,1.9,3.7L235.6,112.2z"/>
	<path class="st6" d="M226.3,92.5c0.4,1.2,1.6,2,2.8,2c0.3,0,0.6,0,0.9-0.1l7.4-2.4c1.5-0.5,2.4-2.2,1.9-3.7s-2.2-2.4-3.7-1.9
		l-7.4,2.4C226.7,89.3,225.8,91,226.3,92.5z"/>
	<path class="st6" d="M218.3,81.5c0.5,0.4,1.1,0.6,1.7,0.6c0.9,0,1.8-0.4,2.4-1.2l4.5-6.2c1-1.3,0.7-3.1-0.7-4.1
		c-1.3-1-3.2-0.7-4.1,0.6l-4.5,6.2C216.7,78.7,217,80.5,218.3,81.5z"/>
	<path class="st6" d="M216.7,85l-9.9,8c-0.4-0.1-0.8-0.1-1.2-0.1c-3.9,0-7.1,3.2-7.1,7.1s3.2,7.1,7.1,7.1c3.9,0,7.1-3.2,7.1-7.1
		c0-1-0.2-2-0.6-2.8l5.2-11.8C217.4,85,217,84.7,216.7,85z M205.6,101.2c-0.7,0-1.2-0.5-1.2-1.2s0.5-1.2,1.2-1.2s1.2,0.5,1.2,1.2
		S206.3,101.2,205.6,101.2z"/>
	<path class="st6" d="M47.1,74.2v-7.3c0-1.6-1.3-2.9-2.9-2.9c-1.6,0-2.9,1.3-2.9,2.9v7.3c0,1.6,1.3,2.9,2.9,2.9
		C45.8,77.2,47.1,75.9,47.1,74.2z"/>
	<path class="st6" d="M63.6,128.3c0.6,0,1.2-0.2,1.7-0.6c1.3-1,1.6-2.8,0.7-4.1l-4.5-6.2c-1-1.3-2.8-1.6-4.1-0.6s-1.6,2.8-0.7,4.1
		l4.5,6.2C61.8,127.9,62.7,128.3,63.6,128.3z"/>
	<path class="st6" d="M41.2,124.2v7.3c0,1.6,1.3,2.9,2.9,2.9c1.6,0,2.9-1.3,2.9-2.9v-7.3c0-1.6-1.3-2.9-2.9-2.9
		C42.5,121.2,41.2,122.5,41.2,124.2z"/>
	<path class="st6" d="M23.7,128.2c0.5,0.4,1.1,0.6,1.7,0.6c0.9,0,1.8-0.4,2.4-1.2l4.5-6.2c1-1.3,0.7-3.1-0.7-4.1
		c-1.3-1-3.2-0.7-4.1,0.6l-4.5,6.2C22.1,125.4,22.4,127.2,23.7,128.2z"/>
	<path class="st6" d="M10.7,110.4c0.4,1.2,1.6,2,2.8,2c0.3,0,0.6,0,0.9-0.1l7.4-2.4c1.5-0.5,2.4-2.2,1.9-3.7s-2.2-2.4-3.7-1.9
		l-7.4,2.4C11.1,107.2,10.2,108.8,10.7,110.4z"/>
	<path class="st6" d="M14.4,86.4c-1.5-0.5-3.2,0.3-3.7,1.9c-0.5,1.5,0.3,3.2,1.9,3.7l7.4,2.4c0.3,0.1,0.6,0.1,0.9,0.1
		c1.2,0,2.4-0.8,2.8-2c0.5-1.5-0.3-3.2-1.9-3.7L14.4,86.4z"/>
	<path class="st6" d="M27.6,80.8c0.6,0.8,1.5,1.2,2.4,1.2c0.6,0,1.2-0.2,1.7-0.6c1.3-1,1.6-2.8,0.7-4.1l-4.5-6.2
		c-1-1.3-2.8-1.6-4.1-0.6c-1.3,1-1.6,2.8-0.7,4.1L27.6,80.8z"/>
	<path class="st6" d="M44.4,92.9c-0.4,0-0.8,0.1-1.2,0.1l-9.9-8c-0.3-0.2-0.7,0.1-0.5,0.4L38,97.2c-0.4,0.9-0.6,1.8-0.6,2.8
		c0,3.9,3.2,7.1,7.1,7.1s7.1-3.2,7.1-7.1S48.3,92.9,44.4,92.9z M44.4,101.2c-0.7,0-1.2-0.5-1.2-1.2s0.5-1.2,1.2-1.2s1.2,0.5,1.2,1.2
		S45.1,101.2,44.4,101.2z"/>
	
		<linearGradient id="SVGID_7_" gradientUnits="userSpaceOnUse" x1="67.2759" y1="87.3691" x2="182.2255" y2="87.3691" gradientTransform="matrix(1 0 0 -1 0 148)">
		<stop  offset="0.25" style="stop-color:#0069FF"/>
		<stop  offset="1" style="stop-color:#08026E"/>
	</linearGradient>
	<path class="st7" d="M171.2,38.1C152.6,12.5,116.6,6.8,91,25.4c-12.4,9-20.6,22.3-23,37.4s1.2,30.3,10.3,42.7
		c1,1.3,2.8,1.6,4.1,0.6c1.3-1,1.6-2.8,0.7-4.1c-2.6-3.6-4.7-7.4-6.3-11.3l10.4-3.4c1.5-0.5,2.4-2.2,1.9-3.7s-2.2-2.4-3.7-1.9
		l-10.5,3.4c-1.9-6.9-2.3-14.2-1.1-21.4c0.3-1.6,0.6-3.2,1-4.8l10.4,3.4c0.3,0.1,0.6,0.1,0.9,0.1c1.2,0,2.4-0.8,2.8-2
		c0.5-1.5-0.3-3.2-1.9-3.7l-10.4-3.4C79.8,45,85,37.7,91.9,32l6.4,8.8c0.6,0.8,1.5,1.2,2.4,1.2c0.6,0,1.2-0.2,1.7-0.6
		c1.3-1,1.6-2.8,0.7-4.1l-6.5-8.9c7.8-5.1,16.6-7.8,25.4-8.2V30c0,1.6,1.3,2.9,2.9,2.9s2.9-1.3,2.9-2.9v-9.8
		c8.8,0.6,17.4,3.3,24.9,8.2l-6,8.3c-1,1.3-0.7,3.1,0.7,4.1c0.5,0.4,1.1,0.6,1.7,0.6c0.9,0,1.8-0.4,2.4-1.2l6-8.3
		c3.3,2.7,6.3,5.9,8.9,9.4c2.7,3.7,4.8,7.7,6.4,11.8l-9.8,3.2c-1.5,0.5-2.4,2.2-1.9,3.7c0.4,1.2,1.6,2,2.8,2c0.3,0,0.6,0,0.9-0.1
		l9.8-3.2c2.2,8.6,2.2,17.6-0.1,26.2l-9.8-3.2c-1.5-0.5-3.2,0.3-3.7,1.9c-0.5,1.5,0.3,3.2,1.9,3.7l9.8,3.2c-1.6,4.1-3.8,8-6.5,11.6
		c-1,1.3-0.7,3.1,0.6,4.1c0.5,0.4,1.1,0.6,1.7,0.6c0.9,0,1.8-0.4,2.4-1.2C185.9,85.6,186,58.4,171.2,38.1z"/>
	
		<linearGradient id="SVGID_8_" gradientUnits="userSpaceOnUse" x1="114.6221" y1="75.8" x2="134.4221" y2="75.8" gradientTransform="matrix(1 0 0 -1 0 148)">
		<stop  offset="0.25" style="stop-color:#0069FF"/>
		<stop  offset="1" style="stop-color:#08026E"/>
	</linearGradient>
	<path class="st8" d="M134.4,72.2c0-5.5-4.4-9.9-9.9-9.9c-5.5,0-9.9,4.4-9.9,9.9s4.4,9.9,9.9,9.9C130,82.1,134.4,77.7,134.4,72.2z
		 M120.5,72.2c0-2.2,1.8-4,4-4s4,1.8,4,4s-1.8,4-4,4C122.3,76.3,120.5,74.5,120.5,72.2z"/>
	
		<linearGradient id="SVGID_9_" gradientUnits="userSpaceOnUse" x1="95.6" y1="43" x2="154.4023" y2="43" gradientTransform="matrix(1 0 0 -1 0 148)">
		<stop  offset="0.25" style="stop-color:#0069FF"/>
		<stop  offset="1" style="stop-color:#08026E"/>
	</linearGradient>
	<path class="st9" d="M151.5,102.1h-53c-1.6,0-2.9,1.3-2.9,2.9s1.3,2.9,2.9,2.9h52.9c1.6,0,2.9-1.3,2.9-2.9
		C154.4,103.5,153.1,102.1,151.5,102.1z"/>
	
		<linearGradient id="SVGID_10_" gradientUnits="userSpaceOnUse" x1="111.8" y1="26.8" x2="138.261" y2="26.8" gradientTransform="matrix(1 0 0 -1 0 148)">
		<stop  offset="0.25" style="stop-color:#0069FF"/>
		<stop  offset="1" style="stop-color:#08026E"/>
	</linearGradient>
	<path class="st10" d="M135.3,118.3h-20.6c-1.6,0-2.9,1.3-2.9,2.9s1.3,2.9,2.9,2.9h20.6c1.6,0,2.9-1.3,2.9-2.9
		C138.2,119.6,136.9,118.3,135.3,118.3z"/>
	<path class="st11" d="M246.4,83.1c-0.6-1.5-2.4-2.2-3.9-1.5c-1.5,0.6-2.2,2.4-1.5,3.9c8.4,19.6-0.7,42.5-20.4,50.9
		c-16.8,7.2-36.5,1.5-47-13.2c13.9-13,22.6-31.5,22.6-51.9c0-2.7-0.2-5.4-0.5-8c12-3.1,24.7-0.2,34.4,7.8c0.5,0.5,1.2,0.7,1.9,0.7
		c0.8,0,1.7-0.4,2.3-1.1c1-1.2,0.9-3.1-0.4-4.1c-11-9.1-25.3-12.4-39-9.1C188.4,24.7,159.6,0,125,0C90.9,0,62.4,24,55.4,56
		c-3.5-0.9-7.1-1.3-10.7-1.3C20.1,54.7,0,74.7,0,99.3C0,124,20.1,144,44.7,144c1.6,0,2.9-1.3,2.9-2.9c0-1.6-1.3-2.9-2.9-2.9
		c-21.4,0-38.8-17.4-38.8-38.8s17.4-38.8,38.8-38.8c3.3,0,6.5,0.4,9.7,1.2c-0.4,3.1-0.6,6.2-0.6,9.4c0,20.2,8.5,38.4,22,51.4
		c-3.6,4.8-8.2,8.7-13.5,11.3c-1.4,0.7-2,2.5-1.3,3.9c0.5,1,1.6,1.6,2.6,1.6c0.4,0,0.9-0.1,1.3-0.3c5.9-3,11.1-7.4,15.2-12.7
		c12.3,9.9,27.9,15.9,44.8,15.9c16.7,0,32-5.8,44.2-15.4c8.5,11.7,22.2,18.3,36.3,18.3c5.9,0,11.8-1.2,17.5-3.6
		C245.6,132.1,256.1,105.8,246.4,83.1z M59.6,71.2c0-36,29.3-65.3,65.4-65.3s65.4,29.3,65.4,65.3s-29.3,65.3-65.4,65.3
		S59.6,107.2,59.6,71.2z"/>
</g>
</svg>
