<?xml version="1.0" encoding="utf-8"?>
<!-- Generator: Adobe Illustrator 22.1.0, SVG Export Plug-In . SVG Version: 6.00 Build 0)  -->
<svg version="1.1" id="Layer_1" xmlns="http://www.w3.org/2000/svg" xmlns:xlink="http://www.w3.org/1999/xlink" x="0px" y="0px"
	 viewBox="0 0 61.2 60" style="enable-background:new 0 0 61.2 60;" xml:space="preserve">
<style type="text/css">
	.st0{fill:url(#SVGID_1_);}
	.st1{fill:#080245;}
	.st2{fill:url(#SVGID_2_);}
</style>
<g>
	
		<linearGradient id="SVGID_1_" gradientUnits="userSpaceOnUse" x1="1" y1="971.9" x2="60.6" y2="971.9" gradientTransform="matrix(1 0 0 1 0 -938)">
		<stop  offset="0.25" style="stop-color:#0069FF"/>
		<stop  offset="1" style="stop-color:#08026E"/>
	</linearGradient>
	<path class="st0" d="M1,38.8L10,49l-0.3,1.7H1V38.8z M49.3,8.6H4v5.7h45.3V8.6z M60.6,46.3c0,7.1-5.8,12.9-12.9,12.9
		s-12.9-5.8-12.9-12.9s5.8-12.9,12.9-12.9C54.8,33.4,60.6,39.1,60.6,46.3z M48.6,45.5c0-1.1-0.9-2.1-2-2.1s-2,0.9-2,2.1
		c0,1.1,0.9,2.1,2,2.1C47.7,47.5,48.6,46.6,48.6,45.5z M7.3,24.9h5v-5h-5V24.9z M17.2,24.9h5v-5h-5V24.9z M32,20h-5v5h5V20z"/>
	<path class="st1" d="M29.5,49.9h-17V38.8c0-0.4-0.4-0.8-0.8-0.8H1.6V15h47.1v12.4c0,0.4,0.4,0.8,0.8,0.8s0.8-0.4,0.8-0.8V6.1
		c0-0.4-0.4-0.8-0.8-0.8H35.3V3.8c0-1.2,1-2.2,2.2-2.2s2.2,1,2.2,2.2c0,1,1.6,1,1.6,0c0-2.1-1.7-3.8-3.8-3.8s-3.8,1.7-3.8,3.8v1.5
		H13.4V3.8c0-1.2,1-2.2,2.2-2.2s2.2,1,2.2,2.2c0,0.4,0.4,0.8,0.8,0.8c1.8,0,0.5-4.6-3-4.6c-2.1,0-3.8,1.7-3.8,3.8v1.5h-11
		C0.4,5.3,0,5.7,0,6.1C0,24.3,0,47,0,50.7c0,0.4,0.4,0.8,0.8,0.8c0.2,0,11.7,0,11.9,0h16.8c0.4,0,0.8-0.4,0.8-0.8
		C30.3,50.2,29.9,49.9,29.5,49.9z M1.6,6.9h10.2v2.6H8.1c-0.4,0-0.8,0.4-0.8,0.8s0.4,0.8,0.8,0.8h9.1c1,0,1-1.6,0-1.6h-3.8V6.9h20.3
		v2.6h-3.4c-1,0-1,1.6,0,1.6h9.1c1,0,1-1.6,0-1.6h-4.1V6.9h13.5v6.6H1.6V6.9z M1.6,49.9v-9l8.1,9H1.6z M10.9,48.9l-8.3-9.2h8.3V48.9
		z M27.9,55.1H1c-1,0-1-1.6,0-1.6h26.9C29,53.5,29,55.1,27.9,55.1z M46.7,30.9c-8,0-14.6,6.5-14.6,14.6S38.6,60,46.7,60
		c8,0,14.6-6.5,14.6-14.6S54.7,30.9,46.7,30.9z M46.7,58.4c-7.2,0-13-5.8-13-13s5.8-13,13-13s13,5.8,13,13S53.8,58.4,46.7,58.4z
		 M36.9,19.2c-0.4,0-0.8,0.4-0.8,0.8v5c0,0.4,0.4,0.8,0.8,0.8h5c0.4,0,0.8-0.4,0.8-0.8v-5c0-0.4-0.4-0.8-0.8-0.8H36.9z M41.1,24.2
		h-3.4v-3.4h3.4V24.2z M7.3,29.2c-0.4,0-0.8,0.4-0.8,0.8v5c0,0.4,0.4,0.8,0.8,0.8h5c0.4,0,0.8-0.4,0.8-0.8v-5c0-0.4-0.4-0.8-0.8-0.8
		H7.3z M11.5,34.1H8.1v-3.4h3.4V34.1z M17.2,35.7h5c0.4,0,0.8-0.4,0.8-0.8v-5c0-0.4-0.4-0.8-0.8-0.8h-5c-0.4,0-0.8,0.4-0.8,0.8v5
		C16.4,35.3,16.7,35.7,17.2,35.7z M18,30.7h3.4v3.4H18V30.7z M17.2,45.4h5c0.4,0,0.8-0.4,0.8-0.8v-5c0-0.4-0.4-0.8-0.8-0.8h-5
		c-0.4,0-0.8,0.4-0.8,0.8v5C16.4,45.1,16.8,45.4,17.2,45.4z M18,40.5h3.4v3.4H18V40.5z M28.9,30.7h-1.1v4.2c0,1-1.6,1-1.6,0v-5
		c0-0.4,0.4-0.8,0.8-0.8h1.9C30,29.2,30,30.7,28.9,30.7z M27.8,39.7v5c0,1-1.6,1-1.6,0v-5C26.3,38.6,27.8,38.6,27.8,39.7z
		 M32.5,54.5c-0.3,1.1-1.9,0.7-1.6-0.4C31.1,53,32.8,53.4,32.5,54.5z"/>
	
		<linearGradient id="SVGID_2_" gradientUnits="userSpaceOnUse" x1="35.6526" y1="981.9121" x2="57.6551" y2="981.9121" gradientTransform="matrix(1 0 0 1 0 -938)">
		<stop  offset="0" style="stop-color:#08026E"/>
		<stop  offset="0.75" style="stop-color:#0069FF"/>
	</linearGradient>
	<path class="st2" d="M54.4,53.2c-0.7,0.7-1.9-0.4-1.1-1.1C59.2,46.2,55,36,46.7,36c-5.2,0-9.4,4.2-9.4,9.4c0,1-1.6,1-1.6,0
		c0-6.1,4.9-11,11-11C56.4,34.4,61.3,46.3,54.4,53.2z M49.2,46.5c0.7-1.6-0.2-3.4-1.8-3.8v-4.8c0-0.4-0.4-0.8-0.8-0.8
		c-0.4,0-0.8,0.4-0.8,0.8v4.9c-1.1,0.4-1.9,1.4-1.9,2.6c0,2.2,2.4,3.5,4.3,2.3c2.7,2.7,2.6,2.8,3.1,2.8c0.7,0,1.1-0.9,0.6-1.4
		L49.2,46.5z M45.4,45.4c0-0.7,0.6-1.2,1.1-1.2c0.1,0,0.1,0,0.2,0c0.6,0,1.1,0.5,1.1,1.2C47.8,46.9,45.4,46.9,45.4,45.4z"/>
</g>
</svg>
