<?xml version="1.0" encoding="utf-8"?>
<!-- Generator: Adobe Illustrator 22.1.0, SVG Export Plug-In . SVG Version: 6.00 Build 0)  -->
<svg version="1.1" id="Layer_1" xmlns="http://www.w3.org/2000/svg" xmlns:xlink="http://www.w3.org/1999/xlink" x="0px" y="0px"
	 viewBox="0 0 64 58.5" style="enable-background:new 0 0 64 58.5;" xml:space="preserve">
<style type="text/css">
	.st0{opacity:0.8;fill:url(#SVGID_1_);}
	.st1{fill:url(#SVGID_2_);}
	.st2{fill:#42E5E0;}
	.st3{opacity:0.8;}
	.st4{opacity:0.8;fill:url(#SVGID_3_);}
	.st5{fill:url(#SVGID_4_);}
	.st6{opacity:0.5;}
	.st7{opacity:0.8;fill:url(#SVGID_5_);}
	.st8{fill:url(#SVGID_6_);}
	.st9{opacity:0.3;}
	.st10{opacity:0.8;fill:url(#SVGID_7_);}
	.st11{fill:url(#SVGID_8_);}
	.st12{opacity:0.8;fill:url(#SVGID_9_);}
	.st13{fill:url(#SVGID_10_);}
	.st14{opacity:0.8;fill:url(#SVGID_11_);}
	.st15{opacity:0.8;fill:url(#SVGID_12_);}
	.st16{fill:url(#SVGID_13_);}
	.st17{opacity:0.6;fill:#43E4DF;}
	.st18{fill:url(#SVGID_14_);}
	.st19{fill:#43E4DF;}
	.st20{fill:url(#SVGID_15_);}
	.st21{opacity:0.8;fill:url(#SVGID_16_);}
	.st22{opacity:0.8;fill:url(#SVGID_17_);}
	.st23{fill:url(#SVGID_18_);}
	.st24{fill:url(#SVGID_19_);}
	.st25{fill:url(#SVGID_20_);}
	.st26{fill:url(#SVGID_21_);}
	.st27{fill:url(#SVGID_22_);}
	.st28{fill:url(#SVGID_23_);}
	.st29{fill:url(#SVGID_24_);}
	.st30{fill:url(#SVGID_25_);}
</style>
<g>
	<g>
		<g>
			
				<radialGradient id="SVGID_1_" cx="-74.3107" cy="-11.468" r="1.3717" gradientTransform="matrix(2.4074 0 0 1.2963 224.4815 29.1041)" gradientUnits="userSpaceOnUse">
				<stop  offset="0" style="stop-color:#42E7E1"/>
				<stop  offset="0.7821" style="stop-color:#41E6E0;stop-opacity:0.2"/>
				<stop  offset="1" style="stop-color:#40E5DF;stop-opacity:0"/>
			</radialGradient>
			<ellipse class="st0" cx="45.6" cy="14.2" rx="3.3" ry="1.8"/>
			<g>
				<linearGradient id="SVGID_2_" gradientUnits="userSpaceOnUse" x1="35.1378" y1="17.3782" x2="45.7472" y2="17.3782">
					<stop  offset="0" style="stop-color:#40E5DF;stop-opacity:0"/>
					<stop  offset="1" style="stop-color:#42E7E1"/>
				</linearGradient>
				<polygon class="st1" points="35.4,20.5 35.1,20.2 45.5,14.2 45.7,14.6 				"/>
			</g>
			<circle class="st2" cx="45.9" cy="14.3" r="0.8"/>
		</g>
		<g class="st3">
			
				<radialGradient id="SVGID_3_" cx="-90.0518" cy="14.7586" r="1.3717" gradientTransform="matrix(2.4074 0 0 1.2963 224.4815 29.1041)" gradientUnits="userSpaceOnUse">
				<stop  offset="0" style="stop-color:#42E7E1"/>
				<stop  offset="0.7821" style="stop-color:#41E6E0;stop-opacity:0.2"/>
				<stop  offset="1" style="stop-color:#40E5DF;stop-opacity:0"/>
			</radialGradient>
			<ellipse class="st4" cx="7.7" cy="48.2" rx="3.3" ry="1.8"/>
			<g>
				<linearGradient id="SVGID_4_" gradientUnits="userSpaceOnUse" x1="1.0319" y1="50.2928" x2="7.852" y2="50.2928">
					<stop  offset="0" style="stop-color:#40E5DF;stop-opacity:0"/>
					<stop  offset="1" style="stop-color:#42E7E1"/>
				</linearGradient>
				<polygon class="st5" points="1.2,52.4 1,52 7.6,48.2 7.9,48.6 				"/>
			</g>
			<circle class="st2" cx="8" cy="48.3" r="0.8"/>
		</g>
		<g class="st6">
			
				<radialGradient id="SVGID_5_" cx="-70.218" cy="-19.1522" r="1.3717" gradientTransform="matrix(2.4074 0 0 1.2963 224.4815 29.1041)" gradientUnits="userSpaceOnUse">
				<stop  offset="0" style="stop-color:#42E7E1"/>
				<stop  offset="0.7821" style="stop-color:#41E6E0;stop-opacity:0.2"/>
				<stop  offset="1" style="stop-color:#40E5DF;stop-opacity:0"/>
			</radialGradient>
			<ellipse class="st7" cx="55.4" cy="4.3" rx="3.3" ry="1.8"/>
			<g>
				<linearGradient id="SVGID_6_" gradientUnits="userSpaceOnUse" x1="44.9905" y1="7.4171" x2="55.5999" y2="7.4171">
					<stop  offset="0" style="stop-color:#40E5DF;stop-opacity:0"/>
					<stop  offset="1" style="stop-color:#42E7E1"/>
				</linearGradient>
				<polygon class="st8" points="45.2,10.6 45,10.2 55.4,4.3 55.6,4.6 				"/>
			</g>
			<circle class="st2" cx="55.8" cy="4.4" r="0.8"/>
		</g>
		<g class="st9">
			
				<radialGradient id="SVGID_7_" cx="-71.7022" cy="-3.4496" r="1.3717" gradientTransform="matrix(2.4074 0 0 1.2963 224.4815 29.1041)" gradientUnits="userSpaceOnUse">
				<stop  offset="0" style="stop-color:#42E7E1"/>
				<stop  offset="0.7821" style="stop-color:#41E6E0;stop-opacity:0.2"/>
				<stop  offset="1" style="stop-color:#40E5DF;stop-opacity:0"/>
			</radialGradient>
			<ellipse class="st10" cx="51.9" cy="24.6" rx="3.3" ry="1.8"/>
			<g>
				<linearGradient id="SVGID_8_" gradientUnits="userSpaceOnUse" x1="41.4175" y1="27.7723" x2="52.0269" y2="27.7723">
					<stop  offset="0" style="stop-color:#40E5DF;stop-opacity:0"/>
					<stop  offset="1" style="stop-color:#42E7E1"/>
				</linearGradient>
				<polygon class="st11" points="41.6,30.9 41.4,30.6 51.8,24.6 52,25 				"/>
			</g>
			<circle class="st2" cx="52.2" cy="24.7" r="0.8"/>
		</g>
		<g class="st6">
			
				<radialGradient id="SVGID_9_" cx="-88.5227" cy="-12.1361" r="1.3717" gradientTransform="matrix(2.4074 0 0 1.2963 224.4815 29.1041)" gradientUnits="userSpaceOnUse">
				<stop  offset="0" style="stop-color:#42E7E1"/>
				<stop  offset="0.7821" style="stop-color:#41E6E0;stop-opacity:0.2"/>
				<stop  offset="1" style="stop-color:#40E5DF;stop-opacity:0"/>
			</radialGradient>
			<ellipse class="st12" cx="11.4" cy="13.4" rx="3.3" ry="1.8"/>
			<g>
				<linearGradient id="SVGID_10_" gradientUnits="userSpaceOnUse" x1="0.9238" y1="16.512" x2="11.5332" y2="16.512">
					<stop  offset="0" style="stop-color:#40E5DF;stop-opacity:0"/>
					<stop  offset="1" style="stop-color:#42E7E1"/>
				</linearGradient>
				<polygon class="st13" points="1.1,19.7 0.9,19.3 11.3,13.3 11.5,13.7 				"/>
			</g>
			<circle class="st2" cx="11.7" cy="13.5" r="0.8"/>
		</g>
		<g>
			
				<radialGradient id="SVGID_11_" cx="-90.8613" cy="14.0069" r="1.3717" gradientTransform="matrix(2.4074 0 0 1.2963 224.4815 29.1041)" gradientUnits="userSpaceOnUse">
				<stop  offset="0" style="stop-color:#42E7E1"/>
				<stop  offset="0.7821" style="stop-color:#41E6E0;stop-opacity:0.2"/>
				<stop  offset="1" style="stop-color:#40E5DF;stop-opacity:0"/>
			</radialGradient>
			<ellipse class="st14" cx="5.7" cy="47.3" rx="3.3" ry="1.8"/>
			<circle class="st2" cx="6.1" cy="47.4" r="0.8"/>
		</g>
		<g>
			
				<radialGradient id="SVGID_12_" cx="-12.4469" cy="17.849" r="1.3717" gradientTransform="matrix(-2.4074 0 0 1.2963 19.5185 29.1041)" gradientUnits="userSpaceOnUse">
				<stop  offset="0" style="stop-color:#42E7E1"/>
				<stop  offset="0.7821" style="stop-color:#41E6E0;stop-opacity:0.2"/>
				<stop  offset="1" style="stop-color:#40E5DF;stop-opacity:0"/>
			</radialGradient>
			<ellipse class="st15" cx="49.5" cy="52.2" rx="3.3" ry="1.8"/>
			<g>
				
					<linearGradient id="SVGID_13_" gradientUnits="userSpaceOnUse" x1="184.0692" y1="55.3816" x2="194.6786" y2="55.3816" gradientTransform="matrix(-1 0 0 1 244 0)">
					<stop  offset="0" style="stop-color:#40E5DF;stop-opacity:0"/>
					<stop  offset="1" style="stop-color:#42E7E1"/>
				</linearGradient>
				<polygon class="st16" points="59.7,58.5 49.3,52.6 49.5,52.2 59.9,58.2 				"/>
			</g>
			<circle class="st2" cx="49.2" cy="52.4" r="0.8"/>
		</g>
	</g>
	<path class="st17" d="M0.4,37.5c-0.5-0.3-0.5-0.8,0-1.1l31.3-18c0.5-0.3,1.4-0.3,1.9,0l30,17.9c0.5,0.3,0.5,0.8,0,1.1l-30,17.9
		c-0.5,0.3-1.4,0.3-1.9,0L0.4,37.5z"/>
	<g>
		<radialGradient id="SVGID_14_" cx="32" cy="36.9807" r="22.3677" gradientUnits="userSpaceOnUse">
			<stop  offset="0" style="stop-color:#43E4DF"/>
			<stop  offset="1" style="stop-color:#180E5A;stop-opacity:0.8"/>
		</radialGradient>
		<path class="st18" d="M32.5,53.1c-0.4,0-0.8-0.1-1.1-0.3l-26.1-15C5,37.6,4.8,37.3,4.8,37c0-0.3,0.2-0.7,0.6-0.9l26.1-15
			c0.6-0.4,1.6-0.4,2.3,0l25,14.9c0.4,0.2,0.6,0.5,0.6,0.9c0,0.3-0.2,0.7-0.6,0.9l-25,14.9C33.3,53,32.9,53.1,32.5,53.1z M32.5,21.6
			c-0.3,0-0.5,0.1-0.7,0.2l-26.1,15c-0.1,0.1-0.2,0.2-0.2,0.2c0,0,0.1,0.1,0.2,0.2l26.1,15c0.4,0.2,1.1,0.2,1.5,0l25-14.9
			c0.1-0.1,0.2-0.2,0.2-0.2c0-0.1-0.1-0.2-0.2-0.2l-25-14.9C33.1,21.7,32.8,21.6,32.5,21.6z"/>
	</g>
	<g class="st9">
		<path class="st19" d="M11.7,36.1l19.9-11.4c0.5-0.3,1.2-0.3,1.7,0l19.1,11.4c0.7,0.4,0.7,1.3,0,1.7L33.3,49.3
			c-0.5,0.3-1.2,0.3-1.7,0L11.7,37.9C11,37.5,11,36.5,11.7,36.1z"/>
	</g>
	<g class="st3">
		<radialGradient id="SVGID_15_" cx="32.2739" cy="41.7334" r="9.9634" gradientUnits="userSpaceOnUse">
			<stop  offset="0" style="stop-color:#43E4DF"/>
			<stop  offset="1" style="stop-color:#1B105F"/>
		</radialGradient>
		<path class="st20" d="M22.1,41.7c-4.8-2.7-4.8-7.2,0-10l1.6-0.9c4.8-2.7,12.5-2.7,17.3,0.1l1,0.6c4.7,2.8,4.7,7.4,0,10.3l-1,0.6
			c-4.7,2.8-12.5,2.9-17.3,0.1L22.1,41.7z"/>
	</g>
	<linearGradient id="SVGID_16_" gradientUnits="userSpaceOnUse" x1="14.3489" y1="29.9904" x2="14.3489" y2="1.9846">
		<stop  offset="0" style="stop-color:#43E4DF"/>
		<stop  offset="1" style="stop-color:#1B105F;stop-opacity:0"/>
	</linearGradient>
	<rect x="14" y="2.8" class="st21" width="0.6" height="34"/>
	
		<linearGradient id="SVGID_17_" gradientUnits="userSpaceOnUse" x1="-29.6456" y1="29.9904" x2="-29.6456" y2="1.9846" gradientTransform="matrix(-1 0 0 1 20 0)">
		<stop  offset="0" style="stop-color:#43E4DF"/>
		<stop  offset="1" style="stop-color:#1B105F;stop-opacity:0"/>
	</linearGradient>
	<polygon class="st22" points="49.3,36.8 50,36.8 50,2.8 49.3,2.8 	"/>
	<linearGradient id="SVGID_18_" gradientUnits="userSpaceOnUse" x1="43.3658" y1="41.1644" x2="43.3658" y2="25.1965">
		<stop  offset="0" style="stop-color:#42E7E0;stop-opacity:0"/>
		<stop  offset="0.5" style="stop-color:#42E7E1;stop-opacity:0.75"/>
		<stop  offset="1" style="stop-color:#40E5DF;stop-opacity:0"/>
	</linearGradient>
	<polygon class="st23" points="44.6,40.3 44.6,24.6 42.2,24.6 42.2,41.7 	"/>
	<linearGradient id="SVGID_19_" gradientUnits="userSpaceOnUse" x1="38.8184" y1="44.2219" x2="38.8184" y2="12.8408">
		<stop  offset="0" style="stop-color:#42E7E0;stop-opacity:0"/>
		<stop  offset="0.5" style="stop-color:#42E7E1;stop-opacity:0.75"/>
		<stop  offset="1" style="stop-color:#40E5DF;stop-opacity:0"/>
	</linearGradient>
	<polygon class="st24" points="40,43 40,12.6 37.6,12.6 37.6,44.4 	"/>
	<linearGradient id="SVGID_20_" gradientUnits="userSpaceOnUse" x1="25.1761" y1="43.925" x2="25.1761" y2="12.8382">
		<stop  offset="0" style="stop-color:#42E7E0;stop-opacity:0"/>
		<stop  offset="0.5" style="stop-color:#42E7E1;stop-opacity:0.75"/>
		<stop  offset="1" style="stop-color:#40E5DF;stop-opacity:0"/>
	</linearGradient>
	<polygon class="st25" points="26.4,44.1 26.4,12.6 24,12.6 24,42.7 	"/>
	<linearGradient id="SVGID_21_" gradientUnits="userSpaceOnUse" x1="20.6287" y1="40.9769" x2="20.6287" y2="25.1895">
		<stop  offset="0" style="stop-color:#42E7E0;stop-opacity:0"/>
		<stop  offset="0.5" style="stop-color:#42E7E1;stop-opacity:0.75"/>
		<stop  offset="1" style="stop-color:#40E5DF;stop-opacity:0"/>
	</linearGradient>
	<polygon class="st26" points="21.8,41.5 21.8,24.6 19.4,24.6 19.4,40.1 	"/>
	<linearGradient id="SVGID_22_" gradientUnits="userSpaceOnUse" x1="16.1895" y1="38.5359" x2="16.1895" y2="31.297">
		<stop  offset="0" style="stop-color:#42E7E0;stop-opacity:0"/>
		<stop  offset="0.5" style="stop-color:#42E7E1;stop-opacity:0.75"/>
		<stop  offset="1" style="stop-color:#40E5DF;stop-opacity:0"/>
	</linearGradient>
	<polygon class="st27" points="17.3,38.9 17.4,38.9 17.4,30.9 15,30.9 15,37.6 	"/>
	<linearGradient id="SVGID_23_" gradientUnits="userSpaceOnUse" x1="29.7235" y1="49.5083" x2="29.7235" y2="1.031">
		<stop  offset="0" style="stop-color:#42E7E0;stop-opacity:0"/>
		<stop  offset="0.5" style="stop-color:#42E7E1;stop-opacity:0.75"/>
		<stop  offset="1" style="stop-color:#40E5DF;stop-opacity:0"/>
	</linearGradient>
	<polygon class="st28" points="30.9,46.7 30.9,0 28.5,0 28.5,45.3 	"/>
	<linearGradient id="SVGID_24_" gradientUnits="userSpaceOnUse" x1="34.2709" y1="49.9105" x2="34.2709" y2="1.0393">
		<stop  offset="0" style="stop-color:#42E7E0;stop-opacity:0"/>
		<stop  offset="0.5" style="stop-color:#42E7E1;stop-opacity:0.75"/>
		<stop  offset="1" style="stop-color:#40E5DF;stop-opacity:0"/>
	</linearGradient>
	<path class="st29" d="M33.3,47l2.2-1.3V0h-2.4v47.1C33.2,47.1,33.2,47,33.3,47z"/>
	<linearGradient id="SVGID_25_" gradientUnits="userSpaceOnUse" x1="47.805" y1="38.6845" x2="47.805" y2="31.3055">
		<stop  offset="0" style="stop-color:#42E7E0;stop-opacity:0"/>
		<stop  offset="0.5" style="stop-color:#42E7E1;stop-opacity:0.75"/>
		<stop  offset="1" style="stop-color:#40E5DF;stop-opacity:0"/>
	</linearGradient>
	<polygon class="st30" points="49,37.6 49,30.9 46.6,30.9 46.6,39 	"/>
	<path class="st19" d="M31.4,29.3c0.5-0.3,1.4-0.3,1.9,0l14.8,8.8c0,0,0,0,0,0l1.5-0.9c0.5-0.3,0.5-0.8,0-1.1l-16.3-9.7
		c-0.5-0.3-1.4-0.3-1.9,0l-17,9.8c-0.5,0.3-0.5,0.8,0,1.1l1.6,0.9c0,0,0,0,0,0L31.4,29.3z"/>
</g>
</svg>
