<?xml version="1.0" encoding="utf-8"?>
<!-- Generator: Adobe Illustrator 22.1.0, SVG Export Plug-In . SVG Version: 6.00 Build 0)  -->
<svg version="1.1" id="icons" xmlns="http://www.w3.org/2000/svg" xmlns:xlink="http://www.w3.org/1999/xlink" x="0px" y="0px"
	 viewBox="0 0 65 57.5" style="enable-background:new 0 0 65 57.5;" xml:space="preserve">
<style type="text/css">
	.st0{fill:url(#SVGID_1_);}
	.st1{fill:url(#SVGID_2_);}
	.st2{fill:url(#SVGID_3_);}
	.st3{fill:#080245;}
</style>
<g>
	
		<linearGradient id="SVGID_1_" gradientUnits="userSpaceOnUse" x1="10.7" y1="40.3" x2="51.1" y2="40.3" gradientTransform="matrix(1 0 0 -1 0 60)">
		<stop  offset="0.25" style="stop-color:#0069FF"/>
		<stop  offset="1" style="stop-color:#08026E"/>
	</linearGradient>
	<rect x="10.7" y="18.7" class="st0" width="40.4" height="2"/>
	
		<linearGradient id="SVGID_2_" gradientUnits="userSpaceOnUse" x1="43.6643" y1="56.35" x2="59.7832" y2="56.35" gradientTransform="matrix(1 0 0 -1 0 60)">
		<stop  offset="0.25" style="stop-color:#0069FF"/>
		<stop  offset="1" style="stop-color:#08026E"/>
	</linearGradient>
	<path class="st1" d="M59.6,7.3c0.1-0.2,0.1-0.5,0.1-0.7c0-1.2-1-2.2-2.2-2.2c0-2.4-2-4.4-4.4-4.4c-2,0-3.8,1.4-4.3,3.3
		c-0.5-0.2-1-0.4-1.6-0.4c-2,0-3.7,1.6-3.7,3.7c0,0.3,0,0.5,0.1,0.7H59.6z"/>
	
		<linearGradient id="SVGID_3_" gradientUnits="userSpaceOnUse" x1="52.8408" y1="26.0748" x2="64.9895" y2="26.0748" gradientTransform="matrix(1 0 0 -1 0 60)">
		<stop  offset="0.25" style="stop-color:#0069FF"/>
		<stop  offset="1" style="stop-color:#08026E"/>
	</linearGradient>
	<path class="st2" d="M63.8,36.5l-0.1-0.2l0.2-0.2c1-0.9,1.3-2.3,1.1-3.6c-0.3-1.5-1.6-2.7-3.1-2.9h-0.2l-0.1-0.2
		c-0.6-1.7-2.3-2.9-4.2-2.9c-0.3,0-0.7,0-1,0.1c-1.2,0.3-2.2,1-2.8,2S52.8,30.8,53,32c0.2,0.7,0.5,1.3,0.9,1.9l0.2,0.3l-0.2,0.2
		c-0.9,0.9-1.2,2.1-1,3.2c0.4,1.6,1.8,2.7,3.4,2.7c0.3,0,0.5,0,0.8-0.1c0.1,0,0.3-0.1,0.4-0.1l0.2-0.1l0.2,0.2
		c0.8,0.9,2.1,1.3,3.4,1.1c1.9-0.4,3.1-2.3,2.6-4.2C63.9,36.9,63.8,36.7,63.8,36.5z"/>
	<g>
		<path class="st3" d="M25.1,2.4c0.7,0,1.2-0.5,1.2-1.2S25.8,0,25.1,0s-1.2,0.5-1.2,1.2S24.4,2.4,25.1,2.4z"/>
		<path class="st3" d="M8.6,10.6c0.2,0,0.3,0,0.5-0.1l13.8-6.8c0.5-0.3,0.7-0.9,0.5-1.4c-0.3-0.5-0.9-0.7-1.4-0.5L8.2,8.5
			C7.6,8.8,7.4,9.4,7.7,10C7.9,10.3,8.3,10.6,8.6,10.6z"/>
		<path class="st3" d="M42.6,30.5H19.2c-0.6,0-1.1,0.5-1.1,1.1s0.5,1.1,1.1,1.1h23.4c0.6,0,1.1-0.5,1.1-1.1
			C43.7,31,43.2,30.5,42.6,30.5z"/>
		<path class="st3" d="M42.6,25.2H19.2c-0.6,0-1.1,0.5-1.1,1.1s0.5,1.1,1.1,1.1h23.4c0.6,0,1.1-0.5,1.1-1.1
			C43.7,25.7,43.2,25.2,42.6,25.2z"/>
		<path class="st3" d="M32,39.2h3.2v7.4H32V39.2z M26.7,39.2h3.2v7.4h-3.2V39.2z M30.8,4.4l15.8,7.8h-5.1H20.1H15L30.8,4.4z
			 M9.7,14.4h0.9h9.6h21.4h9.6h1.1v2.1h-1.1H10.7h-1V14.4z M11.8,48.8h13.8h5.3h5.3H50h2.1h1.1V51h-1.1H50H11.8H9.7H8.6v-2.2h1.1
			H11.8z M1.1,55.4c-0.6,0-1.1,0.5-1.1,1.1s0.5,1.1,1.1,1.1h0.7h2.6h6.4h40.4h6.4h3.6c0.6,0,1.1-0.5,1.1-1.1s-0.5-1.1-1.1-1.1h-2.5
			V39.2c1.4-0.1,2.6-0.9,3.3-2.1c0.9-1.5,0.8-3.5-0.3-4.9c-0.4-0.5-1-0.6-1.5-0.2c-0.5,0.4-0.6,1-0.2,1.5c0.6,0.7,0.6,1.7,0.1,2.5
			c-0.3,0.6-0.9,0.9-1.5,1v-6.3c0-0.6-0.5-1.1-1.1-1.1s-1.1,0.5-1.1,1.1v7.4l0,0V51h-1.2v-3.3c0-0.6-0.5-1.1-1.1-1.1H52v-4.4
			c-1-0.7-1.8-1.7-2.1-2.9v7.3h-2.1V20.7h-2.1v25.9h-8.5v-8.5c0-0.6-0.5-1.1-1.1-1.1h-5.3h-5.3c-0.6,0-1.1,0.5-1.1,1.1v8.5H16V20.7
			h-2.1v25.9h-2.1V35v-3.1v-0.1v-2l0,0l0,0V18.6H50v9.8c0.2-0.7,0.4-1.5,0.8-2.1c0.3-0.6,0.8-1,1.3-1.4v-6.2h1.1
			c0.6,0,1.1-0.5,1.1-1.1v-4.2c0-0.6-0.5-1.1-1.1-1.1h-1.9l-20.1-10c-0.3-0.1-0.6-0.1-0.9,0l-20.1,10H8.6c-0.6,0-1.1,0.5-1.1,1.1
			v4.2c0,0.6,0.5,1.1,1.1,1.1h1.1v28.1H7.5c-0.6,0-1.1,0.5-1.1,1.1V51h-2c-0.6,0-1.1,0.5-1.1,1.1v3.3C3.3,55.4,1.1,55.4,1.1,55.4z
			 M56.4,55.4h-4.2H11.8H9.7H5.4v-2.2h2.1h2.1h2.1H50h2.1h2.1h2.1v2.2H56.4z"/>
	</g>
</g>
</svg>
