<?xml version="1.0" encoding="utf-8"?>
<!-- Generator: Adobe Illustrator 22.1.0, SVG Export Plug-In . SVG Version: 6.00 Build 0)  -->
<svg version="1.1" id="Layer_1" xmlns="http://www.w3.org/2000/svg" xmlns:xlink="http://www.w3.org/1999/xlink" x="0px" y="0px"
	 viewBox="0 0 63.4 60" style="enable-background:new 0 0 63.4 60;" xml:space="preserve">
<style type="text/css">
	.st0{fill:url(#SVGID_1_);}
	.st1{fill:url(#SVGID_2_);}
	.st2{fill:url(#SVGID_3_);}
	.st3{fill:#080245;}
</style>
<g>
	
		<linearGradient id="SVGID_1_" gradientUnits="userSpaceOnUse" x1="27.2581" y1="56.5" x2="38.2802" y2="56.5" gradientTransform="matrix(1 0 0 -1 0 62)">
		<stop  offset="0.25" style="stop-color:#0069FF"/>
		<stop  offset="1" style="stop-color:#08026E"/>
	</linearGradient>
	<path class="st0" d="M33.4,2.4c-1.7,1-4.1,2.9-6.2,5.8c1.4,0.2,2.8,0.4,4.2,0.4c2.4,0,4.6-0.3,6.8-1C36.7,5.2,35,3.6,33.4,2.4z"/>
	
		<linearGradient id="SVGID_2_" gradientUnits="userSpaceOnUse" x1="17.4809" y1="26.7" x2="28.1047" y2="26.7" gradientTransform="matrix(1 0 0 -1 0 62)">
		<stop  offset="0.25" style="stop-color:#0069FF"/>
		<stop  offset="1" style="stop-color:#08026E"/>
	</linearGradient>
	<path class="st1" d="M27.5,39.9c-0.8-1.4-1.9-3.4-2.9-5.9c-1.7-3.9-3-7-3.6-10.4c-2.9,2.9-4,7.1-3,11L21,47l7.1-7.1l0,0
		C27.9,39.9,27.7,39.9,27.5,39.9z"/>
	
		<linearGradient id="SVGID_3_" gradientUnits="userSpaceOnUse" x1="34.4671" y1="26.8" x2="45.091" y2="26.8" gradientTransform="matrix(1 0 0 -1 0 62)">
		<stop  offset="0.25" style="stop-color:#0069FF"/>
		<stop  offset="1" style="stop-color:#08026E"/>
	</linearGradient>
	<path class="st2" d="M41.7,23.5c-0.6,3.4-2,6.6-3.6,10.4c-1.1,2.5-2.2,4.5-2.9,5.9c-0.2,0-0.4,0-0.6,0l0,0l7.1,7.1l3.2-12.4
		C45.7,30.6,44.6,26.4,41.7,23.5z"/>
	<path class="st3" d="M31.3,21.6c2.4,0,4.4-2,4.4-4.4s-2-4.4-4.4-4.4s-4.4,2-4.4,4.4S28.9,21.6,31.3,21.6z M31.3,14.7
		c1.4,0,2.6,1.2,2.6,2.6s-1.2,2.6-2.6,2.6s-2.6-1.2-2.6-2.6C28.7,15.8,29.8,14.7,31.3,14.7z"/>
	<path class="st3" d="M25.5,19.1c-0.3-1-0.4-2-0.2-3.1c0.3-1.3,1-2.6,2.1-3.5c0.4-0.3,0.4-0.9,0.1-1.2c-0.3-0.4-0.9-0.4-1.2-0.1
		c-1.4,1.2-2.3,2.8-2.7,4.5c-0.3,1.3-0.2,2.7,0.2,3.9c0.1,0.4,0.5,0.6,0.8,0.6c0.1,0,0.2,0,0.3,0C25.4,20.1,25.6,19.6,25.5,19.1z"/>
	<path class="st3" d="M26.6,20.6l-0.8-0.1c-0.3-0.1-0.6,0.2-0.7,0.5L25,21.7c0,0.2,0,0.3,0.1,0.4s0.2,0.2,0.4,0.2l0.8,0.1h0.1
		c0.3,0,0.5-0.2,0.6-0.5l0.1-0.8C27.1,21,26.9,20.7,26.6,20.6z"/>
	<path class="st3" d="M34.1,32.2c-0.5,1.3-1.1,2.5-1.8,3.7c-0.2,0.4-0.1,1,0.4,1.2c0.1,0.1,0.3,0.1,0.4,0.1c0.3,0,0.6-0.2,0.8-0.5
		c0.7-1.3,1.3-2.6,1.9-3.9c0.5-1.2,1-2.3,1.4-3.3c0.2-0.4,0-1-0.5-1.1c-0.4-0.2-1,0-1.1,0.5C35,30,34.6,31,34.1,32.2z"/>
	<path class="st3" d="M36.7,27.7l0.8,0.1h0.1c0.3,0,0.5-0.2,0.6-0.5l0.1-0.8c0-0.2,0-0.3-0.1-0.4s-0.2-0.2-0.4-0.2L37,25.7
		c-0.3-0.1-0.6,0.2-0.7,0.5L36.2,27C36.1,27.3,36.3,27.6,36.7,27.7z"/>
	<path class="st3" d="M59.4,58.1H1.1c-0.5,0-0.9,0.4-0.9,0.9s0.4,0.9,0.9,0.9h58.3c0.5,0,0.9-0.4,0.9-0.9S59.9,58.1,59.4,58.1z"/>
	<path class="st3" d="M62,58c-0.5,0-1,0.4-1,1c0,0.5,0.4,1,1,1c0.5,0,1-0.4,1-1C63,58.5,62.6,58,62,58z"/>
	<path class="st3" d="M63.1,36.5l-5.7-7.3c-0.3-0.4-0.8-0.6-1.3-0.6s-1,0.2-1.3,0.6l-5.7,7.3c-0.4,0.5-0.5,1.1-0.2,1.7
		c0.3,0.6,0.8,0.9,1.5,0.9h1.9v7.2c0,0.5,0.4,0.9,0.9,0.9s0.9-0.4,0.9-0.9V39c0-0.9-0.7-1.6-1.6-1.6h-1.7l5.5-7l5.5,7H60
		c-0.9,0-1.6,0.7-1.6,1.6v15.5c0,0.5,0.4,0.9,0.9,0.9s0.9-0.4,0.9-0.9V39.2h1.7c0.6,0,1.2-0.3,1.5-0.9C63.6,37.7,63.5,37,63.1,36.5z
		"/>
	<path class="st3" d="M1.6,20.8h1.7v32.6c0,0.5,0.4,0.9,0.9,0.9s0.9-0.4,0.9-0.9V20.7c0-0.9-0.7-1.6-1.6-1.6H1.9l5.5-7l5.5,7h-1.7
		c-0.9,0-1.6,0.7-1.6,1.6V41c0,0.5,0.4,0.9,0.9,0.9s0.9-0.4,0.9-0.9V20.8h1.9c0.6,0,1.2-0.3,1.5-0.9s0.2-1.2-0.2-1.7l-5.7-7.3
		c-0.3-0.4-0.8-0.6-1.3-0.6l0,0c-0.5,0-1,0.2-1.3,0.6l-5.7,7.3c-0.4,0.5-0.5,1.1-0.2,1.7C0.4,20.5,1,20.8,1.6,20.8z"/>
	<path class="st3" d="M11.3,43.5c0-0.5-0.4-1-1-1c-0.5,0-1,0.4-1,1c0,0.5,0.4,1,1,1C10.9,44.5,11.3,44,11.3,43.5z"/>
	<path class="st3" d="M53.1,49.8c0.5,0,1-0.4,1-1c0-0.5-0.4-1-1-1c-0.5,0-1,0.4-1,1C52.1,49.4,52.6,49.8,53.1,49.8z"/>
	<path class="st3" d="M20.8,58.9c0,0.5,0.3,0.9,0.8,0.9s0.9-0.3,0.9-0.8c0.2-3.5,3.1-6.2,6.5-6.2c2.1,0,4,1,5.2,2.6
		c0.2,0.3,0.6,0.4,0.9,0.3c3.5-1,7.2,0.6,8.9,3.6c0.2,0.3,0.5,0.4,0.8,0.4c0.1,0,0.3,0,0.4-0.1c0.4-0.2,0.6-0.8,0.3-1.2
		c-2.1-3.6-6.3-5.5-10.4-4.6C33.5,52,31.3,51,28.9,51C24.7,51.1,21.1,54.5,20.8,58.9z"/>
	<path class="st3" d="M9.7,59c0.6-2.9,3.1-5.1,6.2-5.1c1.2,0,2.3,0.3,3.3,0.9c0.3,0.2,0.6,0.2,0.8,0c0.3-0.1,0.5-0.4,0.5-0.7
		c0.3-3.5,3-6.2,6.4-6.6v2.2c0,0.5,0.4,0.9,0.9,0.9s0.9-0.4,0.9-0.9v-8.9h0.9v7.1c0,0.5,0.4,0.9,0.9,0.9s0.9-0.4,0.9-0.9v-7.1H34
		v10.4c0,0.5,0.4,0.9,0.9,0.9s0.9-0.4,0.9-0.9v-1.8c0.2,0,0.4,0,0.6,0c2.5,0,4.9,1.4,6.2,3.6c0.2,0.4,0.6,0.5,1,0.4
		c0.7-0.3,1.5-0.4,2.3-0.4c3.6,0,6.5,2.6,7.1,6h1.8c-0.6-4.4-4.3-7.8-8.9-7.8c-0.7,0-1.5,0.1-2.2,0.3c-1.7-2.4-4.4-3.9-7.4-3.9
		c-0.2,0-0.4,0-0.6,0v-5.4l5.3,5.3c0.2,0.2,0.4,0.3,0.6,0.3c0.1,0,0.2,0,0.2,0c0.3-0.1,0.5-0.3,0.6-0.6l3.2-12.4
		c1-4.1-0.1-8.5-2.9-11.5c0.2-1.5,0.3-3,0.2-4.6c-0.3-5.7-2.7-9.9-3.8-11.5V7.1c-1.9-2.8-4.3-5.2-7.3-6.9c-0.3-0.2-0.6-0.2-0.9,0
		c-2.9,1.7-5.2,4-7.1,6.7L23.7,7l-0.1,0l0,0c-1,1.6-3.5,5.8-3.9,11.6c-0.1,1.6,0,3.1,0.2,4.6c-2.9,3.1-4,7.4-2.9,11.5l3.2,12.4
		c0.1,0.3,0.3,0.5,0.6,0.6c0.1,0,0.2,0,0.2,0c0.2,0,0.5-0.1,0.6-0.3l5.3-5.3v3.5c-3.9,0.4-7,3.2-7.9,7c-1-0.4-2-0.6-3.1-0.6
		c-4,0-7.4,3-8,6.9L9.7,59L9.7,59z M41.3,28.3c0.3-1,0.6-1.9,0.9-2.8c1.8,2.5,2.5,5.8,1.7,8.9l-2.8,10.9L36,40.1
		c0.3-0.5,0.5-0.9,0.8-1.4c0-0.1,0.1-0.1,0.1-0.2c0.2-0.4,0.4-0.8,0.6-1.3c0.5-1,1-2,1.4-3c0.6-1.4,1.2-2.7,1.7-4c0,0,0,0,0-0.1
		c0.1-0.3,0.2-0.6,0.3-0.9c0-0.1,0-0.1,0.1-0.2c0.1-0.3,0.2-0.5,0.3-0.8C41.3,28.4,41.3,28.3,41.3,28.3z M31.3,1.9
		c2.2,1.4,4.1,3.1,5.6,5.2c-3.6,0.8-7.4,0.8-11-0.2C27.3,4.9,29.2,3.3,31.3,1.9z M21.5,45.3l-2.8-10.9c-0.8-3.1-0.1-6.4,1.7-8.9
		c0.2,1,0.5,1.9,0.9,2.9v0.1c0.1,0.3,0.2,0.5,0.3,0.8c0,0.1,0,0.1,0.1,0.2c0.1,0.3,0.2,0.6,0.3,0.9c0,0,0,0,0,0.1
		c0.5,1.3,1.1,2.6,1.7,4c0.4,1,0.9,2,1.4,3c0.2,0.3,0.3,0.7,0.5,1c0.1,0.1,0.1,0.3,0.2,0.4c0.3,0.5,0.5,0.9,0.8,1.4L21.5,45.3z
		 M26.8,36.8c-0.5-1-1-2.1-1.5-3.2c-0.7-1.6-1.4-3.2-1.9-4.6c-0.1-0.1-0.1-0.3-0.2-0.4C23.1,28.4,23,28.2,23,28
		c-0.1-0.2-0.1-0.4-0.2-0.6s-0.1-0.3-0.2-0.5c-0.1-0.3-0.2-0.7-0.3-1c0-0.1-0.1-0.2-0.1-0.4c-0.1-0.3-0.1-0.5-0.2-0.8
		c0-0.1-0.1-0.2-0.1-0.3c-0.1-0.4-0.2-0.7-0.2-1.1c-0.3-1.5-0.4-3-0.3-4.7c0.3-4.9,2.3-8.6,3.3-10.3c2.2,0.7,4.6,1,6.9,1
		c2.1,0,4.2-0.3,6.2-0.8c1.1,1.8,2.9,5.4,3.2,10.1c0.1,1.6,0,3.2-0.3,4.6l0,0c-0.1,0.4-0.1,0.7-0.2,1.1c0,0.1,0,0.2-0.1,0.3
		c-0.1,0.3-0.1,0.5-0.2,0.8c0,0.1-0.1,0.2-0.1,0.3c-0.1,0.3-0.2,0.7-0.3,1c0,0.1-0.1,0.3-0.1,0.4c-0.1,0.2-0.1,0.4-0.2,0.6
		c-0.1,0.2-0.1,0.4-0.2,0.6c-0.1,0.1-0.1,0.3-0.2,0.4c-0.6,1.4-1.2,2.9-1.9,4.6c-0.4,1-0.9,2-1.4,3c-0.4,0.8-0.8,1.6-1.2,2.3h-0.1
		l0,0h-6.3l0,0H28C27.6,38.3,27.2,37.5,26.8,36.8z"/>
</g>
</svg>
