<?xml version="1.0" encoding="utf-8"?>
<!-- Generator: Adobe Illustrator 22.1.0, SVG Export Plug-In . SVG Version: 6.00 Build 0)  -->
<svg version="1.1" id="Layer_1" xmlns="http://www.w3.org/2000/svg" xmlns:xlink="http://www.w3.org/1999/xlink" x="0px" y="0px"
	 viewBox="0 0 1920 600" style="enable-background:new 0 0 1920 600;" xml:space="preserve">
<style type="text/css">
	.st0{fill:#080245;}
	.st1{fill:url(#SVGID_1_);}
	.st2{fill:url(#SVGID_2_);}
	.st3{fill:#0F0A4C;}
	.st4{fill:url(#SVGID_3_);}
	.st5{opacity:0.3;}
	.st6{fill:#43E4DF;}
	.st7{opacity:0.8;}
	.st8{fill:url(#SVGID_4_);}
	.st9{opacity:0.8;fill:url(#SVGID_5_);enable-background:new    ;}
	.st10{opacity:0.8;fill:url(#SVGID_6_);enable-background:new    ;}
	.st11{fill:url(#SVGID_7_);}
	.st12{fill:url(#SVGID_8_);}
	.st13{fill:url(#SVGID_9_);}
	.st14{fill:url(#SVGID_10_);}
	.st15{fill:url(#SVGID_11_);}
	.st16{fill:url(#SVGID_12_);}
	.st17{fill:url(#SVGID_13_);}
	.st18{fill:url(#SVGID_14_);}
	.st19{opacity:0.8;fill:url(#SVGID_15_);enable-background:new    ;}
	.st20{fill:url(#SVGID_16_);}
	.st21{fill:#42E5E0;}
	.st22{opacity:0.8;fill:url(#SVGID_17_);enable-background:new    ;}
	.st23{fill:url(#SVGID_18_);}
	.st24{opacity:0.8;fill:url(#SVGID_19_);enable-background:new    ;}
	.st25{fill:url(#SVGID_20_);}
	.st26{opacity:0.5;}
	.st27{opacity:0.8;fill:url(#SVGID_21_);enable-background:new    ;}
	.st28{fill:url(#SVGID_22_);}
	.st29{opacity:0.8;fill:url(#SVGID_23_);enable-background:new    ;}
	.st30{fill:url(#SVGID_24_);}
	.st31{opacity:0.8;fill:url(#SVGID_25_);enable-background:new    ;}
	.st32{fill:url(#SVGID_26_);}
	.st33{opacity:0.8;fill:url(#SVGID_27_);enable-background:new    ;}
	.st34{fill:url(#SVGID_28_);}
	.st35{opacity:0.8;fill:url(#SVGID_29_);enable-background:new    ;}
	.st36{fill:url(#SVGID_30_);}
	.st37{opacity:0.8;fill:url(#SVGID_31_);enable-background:new    ;}
	.st38{fill:url(#SVGID_32_);}
	.st39{opacity:0.8;fill:url(#SVGID_33_);enable-background:new    ;}
	.st40{fill:url(#SVGID_34_);}
	.st41{opacity:0.8;fill:url(#SVGID_35_);enable-background:new    ;}
	.st42{fill:#42E7E1;}
	.st43{fill:url(#SVGID_36_);}
</style>
<g>
	<rect class="st0" width="1920" height="600"/>
	
		<linearGradient id="SVGID_1_" gradientUnits="userSpaceOnUse" x1="960" y1="10.8311" x2="960" y2="596.6489" gradientTransform="matrix(1 0 0 -1 0 602)">
		<stop  offset="0" style="stop-color:#06199B"/>
		<stop  offset="1" style="stop-color:#0039B7"/>
	</linearGradient>
	<rect class="st1" width="1920" height="600"/>
	<g>
		<g>
			
				<linearGradient id="SVGID_2_" gradientUnits="userSpaceOnUse" x1="476.4" y1="174.2" x2="1613" y2="174.2" gradientTransform="matrix(1 0 0 -1 0 602)">
				<stop  offset="8.648649e-02" style="stop-color:#43E4DF;stop-opacity:0"/>
				<stop  offset="0.5" style="stop-color:#43E4DF;stop-opacity:0.3"/>
				<stop  offset="1" style="stop-color:#43E4DF;stop-opacity:0"/>
			</linearGradient>
			<path class="st2" d="M1294.1,550c-9.8,0-19.6-2.4-28.3-7.2L1083,442.1c-9.5-5.5-21.3-5.4-30.7,0.3l-0.1,0.1l-145.6,82.1
				c-15.8,8.9-34.8,9-50.7,0.3L476.4,316l5.7-10.4l379.5,208.8c12.3,6.7,26.9,6.6,39.2-0.2l145.5-82c13.1-7.8,29.4-7.9,42.6-0.4
				l182.7,100.5c14.3,7.8,31.9,7.7,46-0.4l289.5-166.5l5.9,10.3l-289.5,166.5C1314.4,547.4,1304.3,550,1294.1,550z"/>
		</g>
	</g>
	<g>
		<path class="st3" d="M1078.2,388.1c-4.8-2.7-4.8-7.2,0-10L1288,257.7c4.8-2.7,12.5-2.7,17.3,0.1L1506.5,378
			c4.7,2.8,4.7,7.4,0,10.3l-201.2,120.1c-4.7,2.8-12.5,2.9-17.3,0.1L1078.2,388.1z"/>
	</g>
	<g>
		
			<radialGradient id="SVGID_3_" cx="1292.25" cy="218.8129" r="153.1151" gradientTransform="matrix(1 0 0 -1 0 602)" gradientUnits="userSpaceOnUse">
			<stop  offset="0" style="stop-color:#43E4DF"/>
			<stop  offset="1" style="stop-color:#180E5A;stop-opacity:0.8"/>
		</radialGradient>
		<path class="st4" d="M1295.8,493.3c-2.7,0-5.4-0.6-7.6-1.8l-178.4-102.4c-2.5-1.4-4-3.6-4-5.9s1.4-4.5,4-5.9l178.4-102.4
			c4.3-2.5,11.1-2.4,15.4,0.1l171.2,102.2c2.5,1.5,3.9,3.7,3.9,6s-1.4,4.6-3.9,6l-171.2,102.2
			C1301.5,492.6,1298.7,493.3,1295.8,493.3z M1295.8,278.2c-1.8,0-3.6,0.4-5,1.1l-178.4,102.4c-0.9,0.5-1.3,1.1-1.3,1.4
			s0.4,0.9,1.3,1.4L1290.9,487c2.7,1.6,7.5,1.5,10.2-0.1l171.2-102.2c0.8-0.5,1.4-1.1,1.4-1.6s-0.5-1.1-1.4-1.6L1301,279.4
			C1299.7,278.6,1297.7,278.2,1295.8,278.2z"/>
	</g>
	<g class="st5">
		<path class="st6" d="M1153.3,377.2l136.2-78.2c3.5-2,7.9-2,11.4,0.1l130.9,78.1c4.5,2.7,4.5,9.1,0,11.8l-130.9,78.1
			c-3.5,2.1-7.9,2.1-11.4,0.1L1153.3,389C1148.7,386.5,1148.7,379.8,1153.3,377.2z"/>
	</g>
	<g class="st7">
		
			<radialGradient id="SVGID_4_" cx="1294.5852" cy="175.2164" r="90.1282" gradientTransform="matrix(1 0 0 -1 0 602)" gradientUnits="userSpaceOnUse">
			<stop  offset="0" style="stop-color:#43E4DF"/>
			<stop  offset="1" style="stop-color:#1B105F"/>
		</radialGradient>
		<path class="st8" d="M1174.1,386.1c-4.8-2.7-4.8-7.2,0-10l112.1-64.3c4.8-2.7,12.5-2.7,17.3,0.1l107.2,64c4.7,2.8,4.7,7.4,0,10.3
			l-107.2,64c-4.7,2.8-12.5,2.9-17.3,0.1L1174.1,386.1z"/>
	</g>
	
		<linearGradient id="SVGID_5_" gradientUnits="userSpaceOnUse" x1="1171.5" y1="266.7109" x2="1171.5" y2="458.4179" gradientTransform="matrix(1 0 0 -1 0 602)">
		<stop  offset="0" style="stop-color:#43E4DF"/>
		<stop  offset="1" style="stop-color:#1B105F;stop-opacity:0"/>
	</linearGradient>
	<rect x="1169.3" y="149.3" class="st9" width="4.4" height="232.7"/>
	
		<linearGradient id="SVGID_6_" gradientUnits="userSpaceOnUse" x1="1382.8999" y1="266.7109" x2="1382.8999" y2="458.4179" gradientTransform="matrix(-1 0 0 -1 2796 602)">
		<stop  offset="0" style="stop-color:#43E4DF"/>
		<stop  offset="1" style="stop-color:#1B105F;stop-opacity:0"/>
	</linearGradient>
	<polygon class="st10" points="1410.9,382 1415.3,382 1415.3,149.3 1410.9,149.3 	"/>
	
		<linearGradient id="SVGID_7_" gradientUnits="userSpaceOnUse" x1="1370.15" y1="190.2217" x2="1370.15" y2="299.5263" gradientTransform="matrix(1 0 0 -1 0 602)">
		<stop  offset="0" style="stop-color:#42E7E0;stop-opacity:0"/>
		<stop  offset="0.5" style="stop-color:#42E7E1;stop-opacity:0.75"/>
		<stop  offset="1" style="stop-color:#40E5DF;stop-opacity:0"/>
	</linearGradient>
	<polygon class="st11" points="1378.3,405.5 1378.3,298.2 1362,298.2 1362,415.3 	"/>
	
		<linearGradient id="SVGID_8_" gradientUnits="userSpaceOnUse" x1="1338.95" y1="169.2927" x2="1338.95" y2="384.1043" gradientTransform="matrix(1 0 0 -1 0 602)">
		<stop  offset="0" style="stop-color:#42E7E0;stop-opacity:0"/>
		<stop  offset="0.5" style="stop-color:#42E7E1;stop-opacity:0.75"/>
		<stop  offset="1" style="stop-color:#40E5DF;stop-opacity:0"/>
	</linearGradient>
	<polygon class="st12" points="1347.1,424.1 1347.1,216 1330.8,216 1330.8,433.9 	"/>
	
		<linearGradient id="SVGID_9_" gradientUnits="userSpaceOnUse" x1="1245.5499" y1="171.325" x2="1245.5499" y2="384.1223" gradientTransform="matrix(1 0 0 -1 0 602)">
		<stop  offset="0" style="stop-color:#42E7E0;stop-opacity:0"/>
		<stop  offset="0.5" style="stop-color:#42E7E1;stop-opacity:0.75"/>
		<stop  offset="1" style="stop-color:#40E5DF;stop-opacity:0"/>
	</linearGradient>
	<polygon class="st13" points="1253.7,431.8 1253.7,216 1237.4,216 1237.4,422.5 	"/>
	
		<linearGradient id="SVGID_10_" gradientUnits="userSpaceOnUse" x1="1214.45" y1="191.5055" x2="1214.45" y2="299.5741" gradientTransform="matrix(1 0 0 -1 0 602)">
		<stop  offset="0" style="stop-color:#42E7E0;stop-opacity:0"/>
		<stop  offset="0.5" style="stop-color:#42E7E1;stop-opacity:0.75"/>
		<stop  offset="1" style="stop-color:#40E5DF;stop-opacity:0"/>
	</linearGradient>
	<polygon class="st14" points="1222.6,414 1222.6,298.2 1206.3,298.2 1206.3,404.6 	"/>
	
		<linearGradient id="SVGID_11_" gradientUnits="userSpaceOnUse" x1="1184.0499" y1="208.2147" x2="1184.0499" y2="257.7672" gradientTransform="matrix(1 0 0 -1 0 602)">
		<stop  offset="0" style="stop-color:#42E7E0;stop-opacity:0"/>
		<stop  offset="0.5" style="stop-color:#42E7E1;stop-opacity:0.75"/>
		<stop  offset="1" style="stop-color:#40E5DF;stop-opacity:0"/>
	</linearGradient>
	<polygon class="st15" points="1191.5,396.1 1192.2,396.1 1192.2,341.2 1175.9,341.2 1175.9,387.2 	"/>
	
		<linearGradient id="SVGID_12_" gradientUnits="userSpaceOnUse" x1="1276.75" y1="133.1058" x2="1276.75" y2="464.9462" gradientTransform="matrix(1 0 0 -1 0 602)">
		<stop  offset="0" style="stop-color:#42E7E0;stop-opacity:0"/>
		<stop  offset="0.5" style="stop-color:#42E7E1;stop-opacity:0.75"/>
		<stop  offset="1" style="stop-color:#40E5DF;stop-opacity:0"/>
	</linearGradient>
	<polygon class="st16" points="1284.9,449.7 1284.9,130 1268.6,130 1268.6,440.3 	"/>
	
		<linearGradient id="SVGID_13_" gradientUnits="userSpaceOnUse" x1="1307.85" y1="130.3522" x2="1307.85" y2="464.8889" gradientTransform="matrix(1 0 0 -1 0 602)">
		<stop  offset="0" style="stop-color:#42E7E0;stop-opacity:0"/>
		<stop  offset="0.5" style="stop-color:#42E7E1;stop-opacity:0.75"/>
		<stop  offset="1" style="stop-color:#40E5DF;stop-opacity:0"/>
	</linearGradient>
	<path class="st17" d="M1301.2,451.6l14.8-8.9V130h-16.3v322.3C1300.2,452.1,1300.7,451.8,1301.2,451.6z"/>
	
		<linearGradient id="SVGID_14_" gradientUnits="userSpaceOnUse" x1="1400.45" y1="207.1973" x2="1400.45" y2="257.709" gradientTransform="matrix(1 0 0 -1 0 602)">
		<stop  offset="0" style="stop-color:#42E7E0;stop-opacity:0"/>
		<stop  offset="0.5" style="stop-color:#42E7E1;stop-opacity:0.75"/>
		<stop  offset="1" style="stop-color:#40E5DF;stop-opacity:0"/>
	</linearGradient>
	<polygon class="st18" points="1408.6,387.4 1408.6,341.2 1392.3,341.2 1392.3,397.1 	"/>
	<g>
		<path class="st6" d="M1286.1,331.9c4.8-2.7,12.5-2.7,17.3,0.1l98.9,59.1c0.1,0,0.2,0,0.2,0l8.1-4.8c4.7-2.8,4.7-7.4,0-10.3
			l-107.2-64c-4.7-2.8-12.5-2.9-17.3-0.1L1174,376.2c-4.8,2.7-4.8,7.2,0,10l8.7,5c0.1,0,0.2,0,0.2,0L1286.1,331.9z"/>
	</g>
	<g>
		<g>
			
				<radialGradient id="SVGID_15_" cx="1293.635" cy="409.7302" r="9.3851" gradientTransform="matrix(2.4074 0 0 -1.2963 -1728.9966 758.5956)" gradientUnits="userSpaceOnUse">
				<stop  offset="0" style="stop-color:#42E7E1"/>
				<stop  offset="0.7821" style="stop-color:#41E6E0;stop-opacity:0.2"/>
				<stop  offset="1" style="stop-color:#40E5DF;stop-opacity:0"/>
			</radialGradient>
			<ellipse class="st19" cx="1385.3" cy="227.5" rx="22.6" ry="12.2"/>
			<g>
				
					<linearGradient id="SVGID_16_" gradientUnits="userSpaceOnUse" x1="1313.8" y1="353.05" x2="1386.4" y2="353.05" gradientTransform="matrix(1 0 0 -1 0 602)">
					<stop  offset="0" style="stop-color:#40E5DF;stop-opacity:0"/>
					<stop  offset="1" style="stop-color:#42E7E1"/>
				</linearGradient>
				<polygon class="st20" points="1315.3,270.6 1313.8,268.1 1384.9,227.3 1386.4,229.9 				"/>
			</g>
			<circle class="st21" cx="1387.5" cy="228.2" r="5.6"/>
		</g>
		<g class="st7">
			
				<radialGradient id="SVGID_17_" cx="1185.8838" cy="230.1902" r="9.3996" gradientTransform="matrix(2.4074 0 0 -1.2963 -1728.9966 758.5956)" gradientUnits="userSpaceOnUse">
				<stop  offset="0" style="stop-color:#42E7E1"/>
				<stop  offset="0.7821" style="stop-color:#41E6E0;stop-opacity:0.2"/>
				<stop  offset="1" style="stop-color:#40E5DF;stop-opacity:0"/>
			</radialGradient>
			<ellipse class="st22" cx="1125.9" cy="460.2" rx="22.6" ry="12.2"/>
			<g>
				
					<linearGradient id="SVGID_18_" gradientUnits="userSpaceOnUse" x1="1080.3" y1="127.75" x2="1127" y2="127.75" gradientTransform="matrix(1 0 0 -1 0 602)">
					<stop  offset="0" style="stop-color:#40E5DF;stop-opacity:0"/>
					<stop  offset="1" style="stop-color:#42E7E1"/>
				</linearGradient>
				<polygon class="st23" points="1081.8,488.5 1080.3,485.9 1125.5,460 1127,462.6 				"/>
			</g>
			<circle class="st21" cx="1128.1" cy="460.9" r="5.6"/>
		</g>
		
			<radialGradient id="SVGID_19_" cx="1359.8232" cy="361.7184" r="9.3823" gradientTransform="matrix(2.4074 0 0 -1.2963 -1728.9966 758.5956)" gradientUnits="userSpaceOnUse">
			<stop  offset="0" style="stop-color:#42E7E1"/>
			<stop  offset="0.7821" style="stop-color:#41E6E0;stop-opacity:0.2"/>
			<stop  offset="1" style="stop-color:#40E5DF;stop-opacity:0"/>
		</radialGradient>
		<ellipse class="st24" cx="1544.7" cy="289.7" rx="22.6" ry="12.2"/>
		<g>
			
				<linearGradient id="SVGID_20_" gradientUnits="userSpaceOnUse" x1="1473.1" y1="290.8" x2="1545.7241" y2="290.8" gradientTransform="matrix(1 0 0 -1 0 602)">
				<stop  offset="0" style="stop-color:#40E5DF;stop-opacity:0"/>
				<stop  offset="1" style="stop-color:#42E7E1"/>
			</linearGradient>
			<polygon class="st25" points="1474.6,332.9 1473.1,330.3 1544.3,289.5 1545.8,292.1 			"/>
		</g>
		<circle class="st21" cx="1546.9" cy="290.5" r="5.6"/>
		<g class="st26">
			
				<radialGradient id="SVGID_21_" cx="1321.632" cy="462.3124" r="9.3996" gradientTransform="matrix(2.4074 0 0 -1.2963 -1728.9966 758.5956)" gradientUnits="userSpaceOnUse">
				<stop  offset="0" style="stop-color:#42E7E1"/>
				<stop  offset="0.7821" style="stop-color:#41E6E0;stop-opacity:0.2"/>
				<stop  offset="1" style="stop-color:#40E5DF;stop-opacity:0"/>
			</radialGradient>
			<ellipse class="st27" cx="1452.7" cy="159.3" rx="22.6" ry="12.2"/>
			<g>
				
					<linearGradient id="SVGID_22_" gradientUnits="userSpaceOnUse" x1="1381.2" y1="421.25" x2="1453.8242" y2="421.25" gradientTransform="matrix(1 0 0 -1 0 602)">
					<stop  offset="0" style="stop-color:#40E5DF;stop-opacity:0"/>
					<stop  offset="1" style="stop-color:#42E7E1"/>
				</linearGradient>
				<polygon class="st28" points="1382.7,202.4 1381.2,199.9 1452.4,159.1 1453.9,161.7 				"/>
			</g>
			<circle class="st21" cx="1455" cy="160" r="5.6"/>
		</g>
		<g class="st5">
			
				<radialGradient id="SVGID_23_" cx="1311.4966" cy="354.8528" r="9.3808" gradientTransform="matrix(2.4074 0 0 -1.2963 -1728.9966 758.5956)" gradientUnits="userSpaceOnUse">
				<stop  offset="0" style="stop-color:#42E7E1"/>
				<stop  offset="0.7821" style="stop-color:#41E6E0;stop-opacity:0.2"/>
				<stop  offset="1" style="stop-color:#40E5DF;stop-opacity:0"/>
			</radialGradient>
			<ellipse class="st29" cx="1428.3" cy="298.6" rx="22.6" ry="12.2"/>
			<g>
				
					<linearGradient id="SVGID_24_" gradientUnits="userSpaceOnUse" x1="1356.8" y1="281.9" x2="1429.4" y2="281.9" gradientTransform="matrix(1 0 0 -1 0 602)">
					<stop  offset="0" style="stop-color:#40E5DF;stop-opacity:0"/>
					<stop  offset="1" style="stop-color:#42E7E1"/>
				</linearGradient>
				<polygon class="st30" points="1358.2,341.8 1356.8,339.2 1427.9,298.4 1429.4,301 				"/>
			</g>
			<circle class="st21" cx="1430.5" cy="299.4" r="5.6"/>
		</g>
		<g class="st5">
			
				<radialGradient id="SVGID_25_" cx="1150.1606" cy="291.9504" r="9.3936" gradientTransform="matrix(2.4074 0 0 -1.2963 -1728.9966 758.5956)" gradientUnits="userSpaceOnUse">
				<stop  offset="0" style="stop-color:#42E7E1"/>
				<stop  offset="0.7821" style="stop-color:#41E6E0;stop-opacity:0.2"/>
				<stop  offset="1" style="stop-color:#40E5DF;stop-opacity:0"/>
			</radialGradient>
			<ellipse class="st31" cx="1039.9" cy="380.1" rx="22.6" ry="12.2"/>
			<g>
				
					<linearGradient id="SVGID_26_" gradientUnits="userSpaceOnUse" x1="968.4" y1="200.35" x2="1041" y2="200.35" gradientTransform="matrix(1 0 0 -1 0 602)">
					<stop  offset="0" style="stop-color:#40E5DF;stop-opacity:0"/>
					<stop  offset="1" style="stop-color:#42E7E1"/>
				</linearGradient>
				<polygon class="st32" points="969.9,423.3 968.4,420.7 1039.6,380 1041,382.5 				"/>
			</g>
			<circle class="st21" cx="1042.1" cy="380.9" r="5.6"/>
		</g>
		<g class="st26">
			
				<radialGradient id="SVGID_27_" cx="1196.3516" cy="414.304" r="9.388" gradientTransform="matrix(2.4074 0 0 -1.2963 -1728.9966 758.5956)" gradientUnits="userSpaceOnUse">
				<stop  offset="0" style="stop-color:#42E7E1"/>
				<stop  offset="0.7821" style="stop-color:#41E6E0;stop-opacity:0.2"/>
				<stop  offset="1" style="stop-color:#40E5DF;stop-opacity:0"/>
			</radialGradient>
			<ellipse class="st33" cx="1151.1" cy="221.5" rx="22.6" ry="12.2"/>
			<g>
				
					<linearGradient id="SVGID_28_" gradientUnits="userSpaceOnUse" x1="1079.6" y1="358.95" x2="1152.2" y2="358.95" gradientTransform="matrix(1 0 0 -1 0 602)">
					<stop  offset="0" style="stop-color:#40E5DF;stop-opacity:0"/>
					<stop  offset="1" style="stop-color:#42E7E1"/>
				</linearGradient>
				<polygon class="st34" points="1081.1,264.7 1079.6,262.1 1150.7,221.4 1152.2,223.9 				"/>
			</g>
			<circle class="st21" cx="1153.3" cy="222.3" r="5.6"/>
		</g>
		<g>
			
				<radialGradient id="SVGID_29_" cx="1160.9607" cy="390.8784" r="9.3734" gradientTransform="matrix(2.4074 0 0 -1.2963 -1728.9966 758.5956)" gradientUnits="userSpaceOnUse">
				<stop  offset="0" style="stop-color:#42E7E1"/>
				<stop  offset="0.7821" style="stop-color:#41E6E0;stop-opacity:0.2"/>
				<stop  offset="1" style="stop-color:#40E5DF;stop-opacity:0"/>
			</radialGradient>
			<ellipse class="st35" cx="1065.9" cy="251.9" rx="22.6" ry="12.2"/>
			<g>
				
					<linearGradient id="SVGID_30_" gradientUnits="userSpaceOnUse" x1="970.6" y1="321.95" x2="1067" y2="321.95" gradientTransform="matrix(1 0 0 -1 0 602)">
					<stop  offset="0" style="stop-color:#40E5DF;stop-opacity:0"/>
					<stop  offset="1" style="stop-color:#42E7E1"/>
				</linearGradient>
				<polygon class="st36" points="972.1,308.4 970.6,305.8 1065.5,251.7 1067,254.3 				"/>
			</g>
			<circle class="st21" cx="1068.1" cy="252.7" r="5.6"/>
		</g>
		<g>
			
				<radialGradient id="SVGID_31_" cx="1092.9204" cy="601.7269" r="9.3809" gradientTransform="matrix(2.4074 0 0 1.2963 -1728.9966 -257.5186)" gradientUnits="userSpaceOnUse">
				<stop  offset="0" style="stop-color:#42E7E1"/>
				<stop  offset="0.7821" style="stop-color:#41E6E0;stop-opacity:0.2"/>
				<stop  offset="1" style="stop-color:#40E5DF;stop-opacity:0"/>
			</radialGradient>
			<ellipse class="st37" cx="902.1" cy="522.5" rx="22.6" ry="12.2"/>
			<g>
				
					<linearGradient id="SVGID_32_" gradientUnits="userSpaceOnUse" x1="716.4" y1="569.6731" x2="903.2" y2="569.6731" gradientTransform="matrix(1 0 0 1 0 -100.9231)">
					<stop  offset="0" style="stop-color:#40E5DF;stop-opacity:0"/>
					<stop  offset="1" style="stop-color:#42E7E1"/>
				</linearGradient>
				<polygon class="st38" points="901.7,522.7 716.4,417.4 717.9,414.8 903.2,520.1 				"/>
			</g>
			<circle class="st21" cx="904.3" cy="521.8" r="5.6"/>
		</g>
		<g>
			
				<radialGradient id="SVGID_33_" cx="1180.3391" cy="235.3588" r="9.3842" gradientTransform="matrix(2.4074 0 0 -1.2963 -1728.9966 758.5956)" gradientUnits="userSpaceOnUse">
				<stop  offset="0" style="stop-color:#42E7E1"/>
				<stop  offset="0.7821" style="stop-color:#41E6E0;stop-opacity:0.2"/>
				<stop  offset="1" style="stop-color:#40E5DF;stop-opacity:0"/>
			</radialGradient>
			<ellipse class="st39" cx="1112.6" cy="453.5" rx="22.6" ry="12.2"/>
			<g>
				
					<linearGradient id="SVGID_34_" gradientUnits="userSpaceOnUse" x1="1041" y1="127" x2="1113.6243" y2="127" gradientTransform="matrix(1 0 0 -1 0 602)">
					<stop  offset="0" style="stop-color:#40E5DF;stop-opacity:0"/>
					<stop  offset="1" style="stop-color:#42E7E1"/>
				</linearGradient>
				<polygon class="st40" points="1042.5,496.7 1041,494.1 1112.2,453.3 1113.7,455.9 				"/>
			</g>
			<circle class="st21" cx="1114.8" cy="454.3" r="5.6"/>
		</g>
		
			<radialGradient id="SVGID_35_" cx="1386.1414" cy="209.0532" r="9.3891" gradientTransform="matrix(-2.4074 0 0 -1.2963 4748.9966 758.5956)" gradientUnits="userSpaceOnUse">
			<stop  offset="0" style="stop-color:#42E7E1"/>
			<stop  offset="0.7821" style="stop-color:#41E6E0;stop-opacity:0.2"/>
			<stop  offset="1" style="stop-color:#40E5DF;stop-opacity:0"/>
		</radialGradient>
		<ellipse class="st41" cx="1412" cy="487.6" rx="22.6" ry="12.2"/>
		<path class="st42" d="M1410.9,487.4v2.6V487.4z"/>
		
			<linearGradient id="SVGID_36_" gradientUnits="userSpaceOnUse" x1="1415.3213" y1="111.3397" x2="1476.3929" y2="76.0138" gradientTransform="matrix(1 0 0 -1 0 602)">
			<stop  offset="0" style="stop-color:#42E7E1"/>
			<stop  offset="1" style="stop-color:#40E5DF;stop-opacity:0"/>
		</linearGradient>
		<polygon class="st43" points="1482,530.8 1410.9,490 1412.4,487.4 1483.5,528.2 		"/>
		<circle class="st21" cx="1409.8" cy="488.3" r="5.6"/>
	</g>
</g>
</svg>
