<?xml version="1.0" encoding="utf-8"?>
<!-- Generator: Adobe Illustrator 22.1.0, SVG Export Plug-In . SVG Version: 6.00 Build 0)  -->
<svg version="1.1" id="Layer_1" xmlns="http://www.w3.org/2000/svg" xmlns:xlink="http://www.w3.org/1999/xlink" x="0px" y="0px"
	 viewBox="0 0 170 170" style="enable-background:new 0 0 170 170;" xml:space="preserve">
<style type="text/css">
	.st0{fill:#3FD7D7;}
	.st1{fill:#06199B;}
	.st2{fill:#080245;}
	.st3{fill:#D3DAE7;}
	.st4{fill:#FFFFFF;}
	.st5{fill:#2B6EFF;}
	.st6{fill:#3EB4FF;}
	.st7{fill:#1D5084;}
	.st8{fill:#00FFFF;}
	.st9{fill:#8091A9;}
</style>
<g>
	<path class="st0" d="M159.2,126.5c-14.5,26-42.3,43.5-74.2,43.5c-46.9,0-85-38.1-85-85C0,46.5,25.7,13.9,60.8,3.5
		C53.9,15.8,50,29.9,50,45c0,46.9,38.1,85,85,85C143.4,130,151.5,128.8,159.2,126.5z"/>
	<path class="st1" d="M170,85c0,15.1-3.9,29.2-10.8,41.5c-7.7,2.3-15.8,3.5-24.2,3.5c-46.9,0-85-38.1-85-85
		c0-15.1,3.9-29.2,10.8-41.5C68.5,1.2,76.6,0,85,0C131.9,0,170,38.1,170,85z"/>
	<path class="st2" d="M103.4,148.2c-22.4,1.1-32.5-8.2-29.6-19c3.1-8.4,1.6-14.7-4.4-18.6c-9.1-6-17.2-9-38.1-12.3
		C10.5,94.9,19.8,83,32.9,78.2s49-12,78.1-0.8s37.5,21.7,35.7,37.3S125.9,147.2,103.4,148.2z"/>
	<path class="st3" d="M103.4,140.2c-22.4,1.1-32.5-8.2-29.6-19c3.1-8.4,1.6-14.7-4.4-18.6c-9.1-6-17.2-9-38.1-12.3
		C10.5,86.9,19.8,75,32.9,70.1s49-12,78.1-0.8s37.5,21.7,35.7,37.3C144.9,122.3,125.9,139.2,103.4,140.2z"/>
	<path class="st4" d="M103.4,139.2c-22.4,1.1-32.5-8.2-29.6-19c3.1-8.4,1.6-14.7-4.4-18.6c-9.1-6-17.2-9-38.1-12.3
		C10.5,85.9,19.8,74,32.9,69.1s49-12,78.1-0.8s37.5,21.7,35.7,37.3C144.9,121.3,125.9,138.2,103.4,139.2z"/>
	<g>
		<path class="st5" d="M104.5,45.3c0,0-0.7-8.4-7.9-5.9c0,0-4.1,0.9-7.3,6.1c0,0-6.8-8.1-15.7,1.6c0,0-9.9,9.6-8.9,21.5
			c0,0-5.8,3.9-6.7,13.3c0,0-0.4,3.5,1.5,5.2L40.7,76.4c0,0-4.4-7,5.6-18.4c0,0-1.1-17.6,12.1-24.1c0,0,7.7-3.3,12.4,2
			c0,0,8-13,17.6-3.8c0,0,1-0.9,5.5,1.7c4.4,2.6,18.9,10.9,18.9,10.9"/>
		<path class="st6" d="M104.5,65.5c0,0,18.8-10.9,9.1-20.2c0,0-3.1-3-9.1,0c0,0-0.7-8.4-7.9-5.9c0,0-4.1,0.9-7.3,6.1
			c0,0-6.8-8.1-15.7,1.6c0,0-9.9,9.6-8.9,21.5c0,0-5.8,3.9-6.7,13.3c0,0-0.9,8.6,7.4,5.3L104.5,65.5z"/>
		<path class="st5" d="M127.4,52.9c0,0-0.3-3.5-3.3-2.4c0,0-1.7,0.4-3,2.5c0,0-2.8-3.4-6.5,0.7c0,0-4.1,4-3.7,8.9
			c0,0-2.4,1.6-2.8,5.5c0,0-0.2,1.5,0.6,2.2l-7.8-4.5c0,0-1.8-2.9,2.3-7.6c0,0-0.5-7.3,5-10c0,0,3.2-1.4,5.1,0.8
			c0,0,3.3-5.4,7.3-1.6c0,0,0.4-0.4,2.3,0.7c1.8,1.1,7.9,4.5,7.9,4.5"/>
		<path class="st6" d="M127.4,61.3c0,0,7.8-4.5,3.8-8.4c0,0-1.3-1.3-3.8,0c0,0-0.3-3.5-3.3-2.4c0,0-1.7,0.4-3,2.6
			c0,0-2.8-3.4-6.5,0.7c0,0-4.1,4-3.7,8.9c0,0-2.4,1.6-2.8,5.5c0,0-0.4,3.6,3.1,2.2L127.4,61.3z"/>
		<path class="st7" d="M103.7,121.9v-5.7c0-0.8-0.6-1.8-1.3-2.2L76.8,99.2c-0.7-0.4-1.3-0.1-1.3,0.7v5.7c0,0.8,0.6,1.8,1.3,2.2
			l25.6,14.8C103.1,123,103.7,122.7,103.7,121.9"/>
		<path class="st4" d="M99.9,118.1c0.3-0.2,0.9,0.1,1.2,0.7c0.3,0.6,0.3,1.2,0,1.4c-0.3,0.2-0.9-0.1-1.2-0.7
			C99.5,119,99.5,118.3,99.9,118.1"/>
		<path class="st8" d="M99.9,116.1c0.3,0.6,0.9,0.9,1.2,0.7c0.3-0.2,0.3-0.8,0-1.4s-0.9-0.9-1.2-0.7
			C99.5,114.9,99.5,115.5,99.9,116.1 M100,114.9c0.3-0.2,0.7,0.1,1,0.6s0.3,1.1,0,1.2c-0.3,0.2-0.7-0.1-1-0.6S99.7,115,100,114.9"/>
		<path class="st9" d="M76.8,99.2C76.5,99,76.2,99,76,99.1l0,0l26.8-15.5l0,0c0.2-0.1,0.5-0.1,0.9,0.1l25.6,14.8
			c0.7,0.4,1.3,1.4,1.3,2.2v5.7c0,0.4-0.1,0.7-0.4,0.8l0,0l-26.8,15.5l0,0c0.2-0.1,0.4-0.4,0.4-0.8v-5.7c0-0.8-0.6-1.8-1.3-2.2
			l-24.2-14"/>
		<path class="st8" d="M97.9,114.5v-0.3c0-0.1-0.1-0.3-0.2-0.4l-20.3-11.7c-0.1-0.1-0.2,0-0.2,0.1v0.3c0,0.1,0.1,0.3,0.2,0.4
			l20.3,11.7C97.8,114.7,97.9,114.6,97.9,114.5"/>
		<path class="st4" d="M98.1,118.1v-0.3c0-0.1-0.1-0.3-0.2-0.4L85,110c-0.1-0.1-0.2,0-0.2,0.1v0.3c0,0.1,0.1,0.3,0.2,0.4l12.9,7.4
			C98,118.3,98.1,118.2,98.1,118.1"/>
		<path class="st4" d="M83.7,109.7v-0.3c0-0.1-0.1-0.3-0.2-0.4l-6.2-3.6c-0.1-0.1-0.2,0-0.2,0.1v0.3c0,0.1,0.1,0.3,0.2,0.4l6.2,3.6
			C83.6,109.9,83.7,109.8,83.7,109.7"/>
		<path class="st7" d="M103.7,108.7V103c0-0.8-0.6-1.8-1.3-2.2L76.8,86.1c-0.7-0.4-1.3-0.1-1.3,0.7v5.7c0,0.8,0.6,1.8,1.3,2.2
			l25.6,14.8C103.1,109.8,103.7,109.5,103.7,108.7"/>
		<path class="st4" d="M99.9,105c0.3-0.2,0.9,0.1,1.2,0.7c0.3,0.6,0.3,1.2,0,1.4c-0.3,0.2-0.9-0.1-1.2-0.7
			C99.5,105.8,99.5,105.2,99.9,105"/>
		<path class="st8" d="M99.9,103c0.3,0.6,0.9,0.9,1.2,0.7c0.3-0.2,0.3-0.8,0-1.4s-0.9-0.9-1.2-0.7C99.5,101.7,99.5,102.4,99.9,103
			 M100,101.7c0.3-0.2,0.7,0.1,1,0.6s0.3,1.1,0,1.2c-0.3,0.2-0.7-0.1-1-0.6C99.7,102.4,99.7,101.9,100,101.7"/>
		<path class="st9" d="M76.8,86.1c-0.3-0.2-0.6-0.2-0.9-0.1l0,0l26.8-15.5l0,0c0.2-0.1,0.5-0.1,0.9,0.1l25.6,14.8
			c0.7,0.4,1.3,1.4,1.3,2.2v5.7c0,0.4-0.1,0.7-0.4,0.8l0,0l-26.8,15.5l0,0c0.2-0.1,0.4-0.4,0.4-0.8v-5.7c0-0.8-0.6-1.8-1.3-2.2
			l-24.2-14"/>
		<path class="st8" d="M97.9,101.3V101c0-0.1-0.1-0.3-0.2-0.4L77.4,89c-0.1-0.1-0.2,0-0.2,0.1v0.3c0,0.1,0.1,0.3,0.2,0.4l20.3,11.7
			C97.8,101.5,97.9,101.5,97.9,101.3"/>
		<path class="st4" d="M98.1,104.9v-0.3c0-0.1-0.1-0.3-0.2-0.4L85,96.8c-0.1-0.1-0.2,0-0.2,0.1v0.3c0,0.1,0.1,0.3,0.2,0.4l12.9,7.4
			C98,105.1,98.1,105,98.1,104.9"/>
		<path class="st4" d="M83.7,96.5v-0.3c0-0.1-0.1-0.3-0.2-0.4l-6.2-3.6c-0.1-0.1-0.2,0-0.2,0.1v0.3c0,0.1,0.1,0.3,0.2,0.4l6.2,3.6
			C83.6,96.7,83.7,96.7,83.7,96.5"/>
	</g>
</g>
</svg>
