<?xml version="1.0" encoding="utf-8"?>
<!-- Generator: Adobe Illustrator 22.1.0, SVG Export Plug-In . SVG Version: 6.00 Build 0)  -->
<svg version="1.1" id="Layer_1" xmlns="http://www.w3.org/2000/svg" xmlns:xlink="http://www.w3.org/1999/xlink" x="0px" y="0px"
	 viewBox="0 0 70.8 60" style="enable-background:new 0 0 70.8 60;" xml:space="preserve">
<style type="text/css">
	.st0{fill:url(#SVGID_1_);}
	.st1{fill:url(#SVGID_2_);}
	.st2{fill:url(#SVGID_3_);}
	.st3{fill:url(#SVGID_4_);}
	.st4{fill:#080245;}
</style>
<g>
	<g>
		
			<linearGradient id="SVGID_1_" gradientUnits="userSpaceOnUse" x1="12.6354" y1="49.2" x2="36.2041" y2="49.2" gradientTransform="matrix(1 0 0 -1 0 62)">
			<stop  offset="0.25" style="stop-color:#0069FF"/>
			<stop  offset="1" style="stop-color:#08026E"/>
		</linearGradient>
		<polygon class="st0" points="36.2,18.2 31,24.7 12.6,0.9 22,1.2 		"/>
		
			<linearGradient id="SVGID_2_" gradientUnits="userSpaceOnUse" x1="47.7" y1="20.35" x2="61.1144" y2="20.35" gradientTransform="matrix(1 0 0 -1 0 62)">
			<stop  offset="0.25" style="stop-color:#0069FF"/>
			<stop  offset="1" style="stop-color:#08026E"/>
		</linearGradient>
		<path class="st1" d="M50.3,30.2c-0.9,0-1.7,0.1-2.6,0.3c3.5,3.2,5.6,7.9,5.6,13.1c0,3.5-1,6.7-2.7,9.5C56.4,52.9,61,47.8,61,41.7
			C61.1,35.4,56.3,30.2,50.3,30.2z"/>
		
			<linearGradient id="SVGID_3_" gradientUnits="userSpaceOnUse" x1="8.9064" y1="20.35" x2="22.3208" y2="20.35" gradientTransform="matrix(1 0 0 -1 0 62)">
			<stop  offset="0.25" style="stop-color:#0069FF"/>
			<stop  offset="1" style="stop-color:#08026E"/>
		</linearGradient>
		<path class="st2" d="M19.8,30.2c0.9,0,1.7,0.1,2.6,0.3c-3.5,3.2-5.6,7.9-5.6,13.1c0,3.5,1,6.7,2.7,9.5
			c-5.8-0.2-10.4-5.3-10.4-11.4C8.9,35.4,13.8,30.2,19.8,30.2z"/>
	</g>
	
		<linearGradient id="SVGID_4_" gradientUnits="userSpaceOnUse" x1="29.5821" y1="18.4299" x2="40.1037" y2="18.4299" gradientTransform="matrix(1 0 0 -1 0 62)">
		<stop  offset="0.25" style="stop-color:#0069FF"/>
		<stop  offset="1" style="stop-color:#08026E"/>
	</linearGradient>
	<path class="st3" d="M39.3,49H37V37.2c0-0.3-0.2-0.7-0.5-0.8s-0.7-0.1-0.9,0.2l-5.2,5.2c-0.3,0.3-0.3,0.9,0,1.2s0.9,0.3,1.2,0
		l1.3-1.3V49h-2.3c-0.5,0-0.9,0.4-0.9,0.9s0.4,0.9,0.9,0.9h8.8c0.5,0,0.9-0.4,0.9-0.9S39.7,49,39.3,49z M34.5,40l0.7-0.7V49h-0.7V40
		z"/>
	<g>
		<path class="st4" d="M30,24.9L30,24.9c0.1,0.1,0.2,0.2,0.3,0.2c0,0,0,0,0.1,0s0.2,0.1,0.3,0.1h10c0.3,0,0.5-0.1,0.7-0.3L59.8,1.4
			C60,1.1,60,0.8,59.9,0.5C59.7,0.2,59.4,0,59.1,0h-10c-0.3,0-0.5,0.1-0.7,0.3L30.7,23L14.1,1.7h7.8l11.6,14.4
			c0.3,0.4,0.8,0.4,1.2,0.1c0.4-0.3,0.4-0.8,0.1-1.2L22.9,0.3C22.7,0.1,22.5,0,22.2,0h-9.9c-0.3,0-0.6,0.2-0.8,0.5
			c-0.1,0.3-0.1,0.6,0.1,0.9L30,24.9z M49.5,1.7h7.9l-17,21.8h-7.9L49.5,1.7z"/>
		<path class="st4" d="M45.2,27.3v-2.7c0-0.5-0.4-0.9-0.9-0.9s-0.9,0.4-0.9,0.9v1.8H27.6v-1.8c0-0.5-0.4-0.9-0.9-0.9
			s-0.9,0.4-0.9,0.9v2.7c0,0.5,0.4,0.9,0.9,0.9h17.6C44.9,28.2,45.2,27.8,45.2,27.3z"/>
		<path class="st4" d="M32.3,31.7c0,1.6,1.3,2.8,2.8,2.8s2.8-1.3,2.8-2.8s-1.3-2.8-2.8-2.8S32.3,30.2,32.3,31.7z M36.2,31.7
			c0,0.6-0.5,1.1-1.1,1.1S34,32.3,34,31.7s0.5-1.1,1.1-1.1S36.2,31.1,36.2,31.7z"/>
		<path class="st4" d="M47.7,43.5c0-5.4-3.5-10.2-8.6-12c-0.4-0.1-0.9,0.1-1.1,0.5c-0.1,0.4,0.1,0.9,0.5,1.1
			C43,34.6,46,38.8,46,43.5c0,6-4.9,10.9-10.9,10.9s-10.9-4.9-10.9-10.9c0-4.6,2.9-8.7,7.2-10.2c0.4-0.2,0.7-0.7,0.5-1.1
			c-0.2-0.4-0.7-0.7-1.1-0.5c-5,1.8-8.3,6.6-8.3,11.8c0,7,5.7,12.6,12.6,12.6S47.7,50.4,47.7,43.5z"/>
		<path class="st4" d="M44.9,32.3c0.2,0.1,0.4,0.2,0.6,0.2c0.2,0,0.5-0.1,0.6-0.3c0.3-0.4,0.3-0.9-0.1-1.2c-0.2-0.1-0.3-0.3-0.5-0.4
			c-0.4-0.3-0.9-0.2-1.2,0.1c-0.3,0.4-0.2,0.9,0.1,1.2C44.6,32.1,44.7,32.2,44.9,32.3z"/>
		<path class="st4" d="M21.1,36.3c0.1,0.1,0.3,0.1,0.4,0.1c0.3,0,0.6-0.1,0.7-0.4c0.2-0.3,0.4-0.7,0.7-1c0.3-0.4,0.2-0.9-0.2-1.2
			c-0.4-0.3-0.9-0.2-1.2,0.2c-0.3,0.4-0.5,0.7-0.7,1.1C20.6,35.5,20.7,36,21.1,36.3z"/>
		<path class="st4" d="M19.4,44.1c-0.5,0-0.8,0.5-0.8,0.9s0.1,0.9,0.2,1.3c0.1,0.4,0.4,0.7,0.8,0.7h0.1c0.5-0.1,0.8-0.5,0.7-1
			c-0.1-0.4-0.1-0.8-0.2-1.2C20.3,44.4,19.9,44.1,19.4,44.1z"/>
		<path class="st4" d="M49.5,40.2c0.1,0.4,0.2,0.8,0.2,1.2c0.1,0.4,0.4,0.7,0.8,0.7h0.1c0.5-0.1,0.8-0.5,0.7-1
			c-0.1-0.4-0.1-0.9-0.2-1.3c-0.1-0.5-0.6-0.7-1-0.6C49.7,39.3,49.4,39.7,49.5,40.2z"/>
		<path class="st4" d="M20.8,39.7c0.1-0.5-0.2-0.9-0.6-1c-0.5-0.1-0.9,0.2-1,0.6c-0.1,0.4-0.2,0.9-0.3,1.3c-0.1,0.5,0.2,0.9,0.7,1
			c0.1,0,0.1,0,0.2,0c0.4,0,0.8-0.3,0.8-0.7C20.6,40.5,20.7,40.1,20.8,39.7z"/>
		<path class="st4" d="M40.5,57.3c-0.4,0.1-0.8,0.3-1.1,0.4c-0.5,0.1-0.7,0.6-0.6,1.1c0.1,0.4,0.4,0.6,0.8,0.6c0.1,0,0.2,0,0.2,0
			c0.4-0.1,0.9-0.3,1.3-0.4c0.4-0.2,0.7-0.7,0.5-1.1C41.5,57.3,41,57.1,40.5,57.3z"/>
		<path class="st4" d="M48.9,34.5c-0.3-0.4-0.8-0.5-1.2-0.2s-0.5,0.8-0.2,1.2c0.2,0.3,0.4,0.7,0.6,1c0.2,0.3,0.4,0.4,0.8,0.4
			c0.1,0,0.3,0,0.4-0.1c0.4-0.2,0.6-0.7,0.3-1.2C49.4,35.2,49.2,34.8,48.9,34.5z"/>
		<path class="st4" d="M45,54.5c-0.3,0.3-0.6,0.5-0.9,0.8c-0.4,0.3-0.4,0.8-0.2,1.2c0.2,0.2,0.4,0.3,0.7,0.3c0.2,0,0.4-0.1,0.5-0.2
			c0.4-0.3,0.7-0.6,1-0.9c0.4-0.3,0.4-0.9,0.1-1.2C45.9,54.2,45.3,54.2,45,54.5z"/>
		<path class="st4" d="M49.4,50c-0.4-0.2-0.9-0.1-1.2,0.4c-0.2,0.4-0.4,0.7-0.6,1c-0.3,0.4-0.1,0.9,0.3,1.2c0.1,0.1,0.3,0.1,0.5,0.1
			c0.3,0,0.6-0.1,0.7-0.4c0.2-0.4,0.5-0.8,0.7-1.2C49.9,50.8,49.8,50.3,49.4,50z"/>
		<path class="st4" d="M21.7,49.9c-0.2-0.4-0.7-0.6-1.1-0.4c-0.4,0.2-0.6,0.7-0.4,1.1c0.2,0.4,0.4,0.8,0.6,1.2
			c0.2,0.3,0.4,0.4,0.7,0.4c0.1,0,0.3,0,0.4-0.1c0.4-0.2,0.5-0.8,0.3-1.2C22.1,50.6,21.9,50.3,21.7,49.9z"/>
		<path class="st4" d="M50.4,47.6c0.4,0,0.7-0.3,0.8-0.7s0.2-0.9,0.2-1.3c0.1-0.5-0.3-0.9-0.7-1c-0.5-0.1-0.9,0.3-1,0.7
			s-0.1,0.8-0.2,1.2c-0.1,0.5,0.2,0.9,0.7,1C50.3,47.6,50.4,47.6,50.4,47.6z"/>
		<path class="st4" d="M24.8,54.1c-0.3-0.3-0.9-0.3-1.2,0c-0.3,0.3-0.3,0.9,0,1.2s0.7,0.6,1,0.9c0.2,0.1,0.3,0.2,0.5,0.2
			s0.5-0.1,0.7-0.3c0.3-0.4,0.2-0.9-0.1-1.2C25.4,54.7,25.1,54.4,24.8,54.1z"/>
		<path class="st4" d="M30.3,57.5c-0.4-0.1-0.8-0.3-1.1-0.4c-0.4-0.2-0.9,0-1.1,0.4s0,0.9,0.4,1.1c0.4,0.2,0.8,0.3,1.3,0.5
			c0.1,0,0.2,0,0.3,0c0.4,0,0.7-0.2,0.8-0.6C30.9,58.1,30.7,57.6,30.3,57.5z"/>
		<path class="st4" d="M35.4,58.3c-0.4,0-0.8,0-1.2,0c-0.5,0-0.9,0.3-0.9,0.8s0.3,0.9,0.8,0.9c0.3,0,0.6,0,1,0c0.1,0,0.3,0,0.4,0
			c0.5,0,0.8-0.4,0.8-0.9C36.3,58.7,35.9,58.3,35.4,58.3z"/>
		<path class="st4" d="M25.2,30.2c-0.2,0.1-0.4,0.3-0.5,0.4c-0.4,0.3-0.4,0.8-0.1,1.2c0.2,0.2,0.4,0.3,0.7,0.3
			c0.2,0,0.4-0.1,0.5-0.2c0.2-0.1,0.3-0.3,0.5-0.4c0.4-0.3,0.5-0.8,0.2-1.2C26.1,30,25.6,29.9,25.2,30.2z"/>
		<path class="st4" d="M70.8,5.4C70.7,5.2,70.4,5,70,5h-8.3c-0.5,0-0.9,0.4-0.9,0.9s0.4,0.9,0.9,0.9h6.6l-15.7,20h-4.1
			c-0.5,0-0.9,0.4-0.9,0.9s0.4,0.9,0.9,0.9H53c0.3,0,0.5-0.1,0.7-0.3l17-21.8C70.9,6.1,70.9,5.7,70.8,5.4z"/>
		<path class="st4" d="M48.4,29.6c-0.5,0.1-0.8,0.5-0.7,1s0.5,0.8,1,0.7c4.5-0.8,9.2,1.7,11.2,5.9c2.5,5.3,0.4,11.6-4.8,14.1
			c-0.8,0.4-2.8,1-4.2,1.1c-0.5,0-0.8,0.5-0.8,0.9s0.4,0.8,0.8,0.8H51c1.5-0.1,3.7-0.8,4.8-1.3c6-2.9,8.5-10.2,5.6-16.4
			C59.1,31.6,53.6,28.7,48.4,29.6z"/>
		<path class="st4" d="M19,52.4c-1.4-0.1-3.4-0.8-4.2-1.1c-5.2-2.5-7.3-8.8-4.8-14.1c2-4.2,6.7-6.7,11.2-5.9c0.5,0.1,0.9-0.2,1-0.7
			s-0.2-0.9-0.7-1c-5.2-0.9-10.7,1.9-13,6.8c-3,6.1-0.5,13.5,5.6,16.4c1,0.5,3.2,1.1,4.8,1.3H19c0.4,0,0.8-0.3,0.8-0.8
			C19.9,52.9,19.5,52.4,19,52.4z"/>
		<path class="st4" d="M18,28.5h4.4c0.5,0,0.9-0.4,0.9-0.9s-0.4-0.9-0.9-0.9h-3.9L2.7,6.7h5.6c0.5,0,0.9-0.4,0.9-0.9S8.8,5,8.3,5
			H0.9C0.6,5,0.3,5.2,0.2,5.4C0,5.7,0.1,6.1,0.3,6.3l17,21.8C17.5,28.4,17.7,28.5,18,28.5z"/>
	</g>
</g>
</svg>
