<?xml version="1.0" encoding="utf-8"?>
<!-- Generator: Adobe Illustrator 22.1.0, SVG Export Plug-In . SVG Version: 6.00 Build 0)  -->
<svg version="1.1" id="icons" xmlns="http://www.w3.org/2000/svg" xmlns:xlink="http://www.w3.org/1999/xlink" x="0px" y="0px"
	 viewBox="0 0 65 68" style="enable-background:new 0 0 65 68;" xml:space="preserve">
<style type="text/css">
	.st0{fill:url(#SVGID_1_);}
	.st1{fill:url(#SVGID_2_);}
	.st2{fill:#080245;}
	.st3{fill:#FFFFFF;}
	.st4{fill:url(#SVGID_3_);}
	.st5{fill:url(#SVGID_4_);}
</style>
<g>
	<g>
		
			<linearGradient id="SVGID_1_" gradientUnits="userSpaceOnUse" x1="28.9" y1="8.95" x2="63.9" y2="8.95" gradientTransform="matrix(1 0 0 -1 0 70)">
			<stop  offset="0.25" style="stop-color:#0069FF"/>
			<stop  offset="1" style="stop-color:#08026E"/>
		</linearGradient>
		<path class="st0" d="M28.9,55.2v6.9c0,2.7,2,4.8,4.4,4.8h26.2c2.4,0,4.4-2.2,4.4-4.8v-6.9H28.9z"/>
	</g>
	<g>
		
			<linearGradient id="SVGID_2_" gradientUnits="userSpaceOnUse" x1="28.9" y1="62.75" x2="63.9" y2="62.75" gradientTransform="matrix(1 0 0 -1 0 70)">
			<stop  offset="0.25" style="stop-color:#0069FF"/>
			<stop  offset="1" style="stop-color:#08026E"/>
		</linearGradient>
		<path class="st1" d="M63.9,13.4V5.9c0-2.7-2-4.8-4.4-4.8H33.3c-2.4,0-4.4,2.2-4.4,4.8v7.5H63.9z"/>
	</g>
	<path class="st2" d="M24.4,62.1c0,3.3,2.7,5.9,5.9,5.9H59c3.3,0,5.9-2.7,5.9-5.9V5.9C65,2.7,62.3,0,59.1,0H30.4
		c-3,0-5.9,2.2-5.9,6.5v55.6H24.4z M26.6,22.3V5.9c0-2.1,1.7-3.7,3.7-3.7H59c2.1,0,3.7,1.7,3.7,3.7V62c0,2.1-1.7,3.7-3.7,3.7H30.4
		c-2.1,0-3.7-1.7-3.7-3.7L26.6,22.3L26.6,22.3z"/>
	<path class="st3" d="M44.6,58.1c-1.3,0-2.3,1-2.3,2.3s1,2.3,2.3,2.3s2.3-1,2.3-2.3C46.9,59.1,45.8,58.1,44.6,58.1z"/>
	<path class="st3" d="M41.4,8.8h5.7c1.5,0,1.5-2.2,0-2.2h-5.7c-0.6,0-1.1,0.5-1.1,1.1S40.8,8.8,41.4,8.8z"/>
	<g>
		<path class="st2" d="M34.5,31.9c0.1,0.1,0.2,0.2,0.2,0.4v3.3c0,0.2-0.1,0.3-0.2,0.4s-0.2,0.2-0.4,0.2s-0.3-0.1-0.4-0.2
			c-0.1-0.1-0.2-0.2-0.2-0.4v-1.2h-1.8v1.2c0,0.2-0.1,0.3-0.2,0.4s-0.2,0.2-0.4,0.2s-0.3-0.1-0.4-0.2c-0.1-0.1-0.2-0.2-0.2-0.4v-3.3
			c0-0.2,0.1-0.3,0.2-0.4s0.2-0.2,0.4-0.2s0.3,0.1,0.4,0.2s0.2,0.2,0.2,0.4v1.2h1.8v-1.2c0-0.2,0.1-0.3,0.2-0.4
			c0.1-0.1,0.2-0.2,0.4-0.2S34.4,31.8,34.5,31.9z"/>
		<path class="st2" d="M36.4,36c-0.3-0.2-0.6-0.4-0.8-0.8c-0.2-0.3-0.3-0.7-0.3-1.2s0.1-0.9,0.3-1.2s0.4-0.6,0.8-0.8
			c0.3-0.2,0.7-0.3,1.2-0.3c0.4,0,0.8,0.1,1.2,0.3c0.3,0.2,0.6,0.4,0.8,0.8c0.2,0.3,0.3,0.7,0.3,1.2s-0.1,0.9-0.3,1.2
			s-0.4,0.6-0.8,0.8c-0.3,0.2-0.7,0.3-1.2,0.3C37.1,36.2,36.7,36.2,36.4,36z M38.3,35c0.2-0.2,0.3-0.6,0.3-1s-0.1-0.8-0.3-1
			s-0.4-0.3-0.8-0.3c-0.3,0-0.6,0.1-0.8,0.3s-0.3,0.6-0.3,1c0,0.5,0.1,0.8,0.3,1s0.4,0.3,0.8,0.3C37.9,35.4,38.1,35.3,38.3,35z"/>
		<path class="st2" d="M41.1,36.1c-0.3-0.1-0.5-0.2-0.7-0.3c-0.1-0.1-0.1-0.1-0.2-0.2c0-0.1,0-0.1,0-0.2c0-0.1,0-0.2,0.1-0.3
			s0.2-0.1,0.3-0.1s0.1,0,0.2,0c0,0,0.1,0,0.2,0.1c0.2,0.1,0.3,0.2,0.5,0.2s0.4,0.1,0.6,0.1c0.2,0,0.4,0,0.6-0.1s0.2-0.2,0.2-0.3
			s-0.1-0.2-0.2-0.2c-0.1-0.1-0.3-0.1-0.7-0.2c-0.4-0.1-0.7-0.2-1-0.3c-0.2-0.1-0.4-0.3-0.5-0.4c-0.1-0.2-0.1-0.4-0.1-0.6
			c0-0.3,0.1-0.5,0.2-0.7c0.2-0.2,0.4-0.4,0.6-0.5c0.3-0.1,0.6-0.2,0.9-0.2c0.3,0,0.6,0,0.8,0.1s0.5,0.2,0.6,0.3
			c0.1,0.1,0.1,0.1,0.2,0.2c0,0.1,0,0.1,0,0.2c0,0.1,0,0.2-0.1,0.3c0,0-0.1,0-0.2,0s-0.1,0-0.1,0s-0.1,0-0.2-0.1c0,0-0.1,0-0.2-0.1
			c-0.1-0.1-0.2-0.1-0.3-0.1s-0.3,0-0.4,0c-0.2,0-0.4,0-0.5,0.1s-0.2,0.2-0.2,0.3s0,0.1,0.1,0.2c0,0,0.1,0.1,0.3,0.1
			c0.1,0,0.3,0.1,0.6,0.1c0.4,0.1,0.7,0.2,0.9,0.3s0.4,0.3,0.5,0.4c0.1,0.2,0.1,0.4,0.1,0.6c0,0.3-0.1,0.5-0.2,0.7
			c-0.2,0.2-0.4,0.4-0.6,0.5c-0.3,0.1-0.6,0.2-1,0.2C41.7,36.2,41.4,36.2,41.1,36.1z"/>
		<path class="st2" d="M45.6,36.1c-0.1-0.1-0.2-0.2-0.2-0.4v-2.9h-0.9c-0.2,0-0.3,0-0.4-0.1C44,32.6,44,32.5,44,32.3s0-0.3,0.1-0.3
			c0.1-0.1,0.2-0.1,0.4-0.1h2.9c0.2,0,0.3,0,0.4,0.1c0.1,0.1,0.1,0.2,0.1,0.3c0,0.2,0,0.3-0.1,0.4c-0.1,0.1-0.2,0.1-0.4,0.1h-0.9
			v2.9c0,0.2-0.1,0.3-0.2,0.4c-0.1,0.1-0.2,0.2-0.4,0.2C45.8,36.2,45.7,36.2,45.6,36.1z"/>
		<path class="st2" d="M48.5,36.1c-0.1-0.1-0.2-0.2-0.2-0.4v-3.3c0-0.2,0.1-0.3,0.2-0.4c0.1-0.1,0.2-0.2,0.4-0.2s0.3,0.1,0.4,0.2
			c0.1,0.1,0.2,0.2,0.2,0.4v3.3c0,0.2-0.1,0.3-0.2,0.4c-0.1,0.1-0.2,0.2-0.4,0.2C48.8,36.2,48.6,36.2,48.5,36.1z"/>
		<path class="st2" d="M54.2,35.7c0,0.1-0.1,0.3-0.2,0.4c-0.1,0.1-0.2,0.2-0.4,0.2s-0.3-0.1-0.4-0.2l-1.8-1.8v1.5
			c0,0.2-0.1,0.3-0.2,0.4c-0.1,0.1-0.2,0.2-0.4,0.2s-0.3-0.1-0.4-0.2c-0.1-0.1-0.2-0.2-0.2-0.4v-3.3c0-0.2,0.1-0.3,0.2-0.4
			c0.1-0.1,0.2-0.2,0.4-0.2s0.3,0.1,0.4,0.2c0.1,0.1,0.2,0.2,0.2,0.4v1.4l1.7-1.8c0.1-0.1,0.2-0.2,0.4-0.2c0.1,0,0.3,0.1,0.4,0.2
			c0.1,0.1,0.2,0.2,0.2,0.4c0,0.1-0.1,0.3-0.2,0.4l-1.3,1.2l1.4,1.4C54.1,35.4,54.2,35.6,54.2,35.7z"/>
		<path class="st2" d="M55.4,36c-0.3-0.2-0.6-0.4-0.8-0.8c-0.2-0.3-0.3-0.7-0.3-1.2s0.1-0.9,0.3-1.2s0.4-0.6,0.8-0.8
			c0.3-0.2,0.7-0.3,1.2-0.3s0.8,0.1,1.2,0.3c0.3,0.2,0.6,0.4,0.8,0.8c0.2,0.3,0.3,0.7,0.3,1.2s-0.1,0.9-0.3,1.2s-0.4,0.6-0.8,0.8
			c-0.3,0.2-0.7,0.3-1.2,0.3C56.1,36.2,55.7,36.2,55.4,36z M57.4,35c0.2-0.2,0.3-0.6,0.3-1s-0.1-0.8-0.3-1s-0.4-0.3-0.8-0.3
			c-0.3,0-0.6,0.1-0.8,0.3s-0.3,0.6-0.3,1c0,0.5,0.1,0.8,0.3,1s0.4,0.3,0.8,0.3S57.2,35.3,57.4,35z"/>
	</g>
	<g>
		<path class="st2" d="M9.1,32.8c0.1,0.1,0.1,0.2,0.1,0.4v3.1c0,0.2,0,0.3-0.1,0.4s-0.2,0.1-0.4,0.1s-0.3,0-0.4-0.1
			c-0.1-0.1-0.1-0.2-0.1-0.4v-1.1H6.6v1.1c0,0.2,0,0.3-0.1,0.4s-0.2,0.1-0.4,0.1c-0.2,0-0.3,0-0.4-0.1s-0.1-0.2-0.1-0.4v-3.1
			c0-0.2,0-0.3,0.1-0.4c0.1-0.1,0.2-0.1,0.4-0.1c0.2,0,0.3,0,0.4,0.1s0.1,0.2,0.1,0.4v1.1h1.6v-1.1c0-0.2,0-0.3,0.1-0.4
			c0.1-0.1,0.2-0.1,0.4-0.1S9.1,32.7,9.1,32.8z"/>
		<path class="st2" d="M10.9,36.5c-0.3-0.2-0.5-0.4-0.7-0.7S10,35.1,10,34.7c0-0.4,0.1-0.8,0.2-1.1c0.2-0.3,0.4-0.5,0.7-0.7
			s0.7-0.3,1.1-0.3s0.8,0.1,1.1,0.3s0.5,0.4,0.7,0.7s0.2,0.7,0.2,1.1c0,0.4-0.1,0.8-0.2,1.1c-0.2,0.3-0.4,0.5-0.7,0.7
			s-0.7,0.3-1.1,0.3C11.5,36.7,11.2,36.7,10.9,36.5z M12.6,35.6c0.2-0.2,0.3-0.5,0.3-0.9s-0.1-0.7-0.3-0.9s-0.4-0.3-0.7-0.3
			s-0.5,0.1-0.7,0.3C11,33.9,11,34.3,11,34.7s0.1,0.7,0.3,0.9s0.4,0.3,0.7,0.3S12.5,35.8,12.6,35.6z"/>
		<path class="st2" d="M15.2,36.6c-0.3-0.1-0.5-0.2-0.6-0.3c-0.1,0-0.1-0.1-0.1-0.2s0-0.1,0-0.2c0-0.1,0-0.2,0.1-0.3
			s0.1-0.1,0.2-0.1h0.1c0,0,0.1,0,0.2,0.1c0.2,0.1,0.3,0.2,0.5,0.2s0.3,0.1,0.5,0.1c0.2,0,0.4,0,0.5-0.1s0.2-0.2,0.2-0.3
			s-0.1-0.2-0.2-0.2c-0.1-0.1-0.3-0.1-0.6-0.2c-0.4-0.1-0.7-0.2-0.9-0.3s-0.4-0.2-0.4-0.4c-0.1-0.1-0.1-0.3-0.1-0.5s0.1-0.5,0.2-0.7
			c0.1-0.2,0.3-0.4,0.6-0.5s0.5-0.2,0.9-0.2c0.3,0,0.5,0,0.7,0.1s0.4,0.2,0.6,0.3c0.1,0,0.1,0.1,0.1,0.2c0,0.1,0,0.1,0,0.2
			c0,0.1,0,0.2-0.1,0.3s-0.1,0.1-0.2,0.1h-0.1c0,0-0.1,0-0.2-0.1c0,0-0.1,0-0.2-0.1c-0.1,0-0.2-0.1-0.3-0.1c-0.1,0-0.2,0-0.4,0
			c-0.2,0-0.3,0-0.5,0.1c-0.1,0.1-0.2,0.2-0.2,0.3s0,0.1,0.1,0.2c0,0,0.1,0.1,0.2,0.1c0.1,0,0.3,0.1,0.5,0.1
			c0.4,0.1,0.7,0.2,0.9,0.3c0.2,0.1,0.4,0.2,0.4,0.4c0.1,0.1,0.1,0.3,0.1,0.5c0,0.3-0.1,0.5-0.2,0.7s-0.3,0.3-0.6,0.4
			s-0.5,0.2-0.9,0.2C15.8,36.7,15.5,36.7,15.2,36.6z"/>
		<path class="st2" d="M19.3,36.6c-0.1-0.1-0.1-0.2-0.1-0.4v-2.7h-0.8c-0.2,0-0.3,0-0.4-0.1s-0.1-0.2-0.1-0.3s0-0.3,0.1-0.3
			c0.1-0.1,0.2-0.1,0.4-0.1H21c0.2,0,0.3,0,0.4,0.1s0.1,0.2,0.1,0.3s0,0.3-0.1,0.3c-0.1,0.1-0.2,0.1-0.4,0.1h-0.8v2.7
			c0,0.2,0,0.3-0.1,0.4c-0.1,0.1-0.2,0.1-0.4,0.1C19.5,36.7,19.4,36.7,19.3,36.6z"/>
	</g>
	
		<linearGradient id="SVGID_3_" gradientUnits="userSpaceOnUse" x1="4.5" y1="13.95" x2="21.8" y2="13.95" gradientTransform="matrix(1 0 0 -1 0 70)">
		<stop  offset="0.25" style="stop-color:#0069FF"/>
		<stop  offset="1" style="stop-color:#08026E"/>
	</linearGradient>
	<path class="st4" d="M21.8,50.2H4.5v6.9c0,2.7,2,4.8,4.4,4.8h12.9V50.2z"/>
	
		<linearGradient id="SVGID_4_" gradientUnits="userSpaceOnUse" x1="4.5" y1="57.75" x2="21.8" y2="57.75" gradientTransform="matrix(1 0 0 -1 0 70)">
		<stop  offset="0.25" style="stop-color:#0069FF"/>
		<stop  offset="1" style="stop-color:#08026E"/>
	</linearGradient>
	<path class="st5" d="M21.8,6.1H8.9c-2.4,0-4.4,2.2-4.4,4.8v7.5h17.3V6.1z"/>
	<path class="st3" d="M15.2,53.1c-1.3,0-2.3,1-2.3,2.3s1,2.3,2.3,2.3s2.3-1,2.3-2.3C17.4,54.1,16.4,53.1,15.2,53.1z"/>
	<path class="st3" d="M12,13.8h5.7c1.5,0,1.5-2.2,0-2.2H12c-0.6,0-1.1,0.5-1.1,1.1C10.9,13.3,11.4,13.8,12,13.8z"/>
	<path class="st2" d="M21.8,60.8H5.9c-2.1,0-3.7-1.7-3.7-3.7V17.3V11c0-2.1,1.7-3.7,3.7-3.7h15.9V5H5.9C2.9,5,0,7.2,0,11.5v45.6
		C0,60.3,2.7,63,5.9,63h15.9V60.8z"/>
</g>
</svg>
