<?xml version="1.0" encoding="utf-8"?>
<!-- Generator: Adobe Illustrator 22.1.0, SVG Export Plug-In . SVG Version: 6.00 Build 0)  -->
<svg version="1.1" id="Layer_1" xmlns="http://www.w3.org/2000/svg" xmlns:xlink="http://www.w3.org/1999/xlink" x="0px" y="0px"
	 viewBox="0 0 1920 600" style="enable-background:new 0 0 1920 600;" xml:space="preserve">
<style type="text/css">
	.st0{fill:url(#SVGID_1_);}
	.st1{opacity:0.2;fill:#140852;enable-background:new    ;}
	.st2{opacity:7.000000e-02;fill:url(#SVGID_2_);enable-background:new    ;}
	.st3{opacity:0.3;}
	.st4{fill:#140852;}
	.st5{fill:url(#SVGID_3_);}
	.st6{fill:url(#SVGID_4_);}
	.st7{fill:url(#SVGID_5_);}
	.st8{fill:url(#SVGID_6_);}
	.st9{opacity:0.9;fill:url(#SVGID_7_);enable-background:new    ;}
	.st10{opacity:0.75;fill:url(#SVGID_8_);enable-background:new    ;}
	.st11{opacity:0.75;fill:url(#SVGID_9_);enable-background:new    ;}
	.st12{opacity:0.5;fill:url(#SVGID_10_);enable-background:new    ;}
	.st13{opacity:0.5;fill:url(#SVGID_11_);enable-background:new    ;}
	.st14{fill:url(#SVGID_12_);}
	.st15{fill:url(#SVGID_13_);}
	.st16{opacity:0.9;fill:url(#SVGID_14_);enable-background:new    ;}
	.st17{opacity:0.75;fill:url(#SVGID_15_);enable-background:new    ;}
	.st18{opacity:0.75;fill:url(#SVGID_16_);enable-background:new    ;}
	.st19{opacity:0.5;fill:url(#SVGID_17_);enable-background:new    ;}
	.st20{opacity:0.5;fill:url(#SVGID_18_);enable-background:new    ;}
	.st21{fill:url(#SVGID_19_);}
	.st22{fill:url(#SVGID_20_);}
	.st23{opacity:0.9;fill:url(#SVGID_21_);enable-background:new    ;}
	.st24{opacity:0.75;fill:url(#SVGID_22_);enable-background:new    ;}
	.st25{opacity:0.75;fill:url(#SVGID_23_);enable-background:new    ;}
	.st26{opacity:0.5;fill:url(#SVGID_24_);enable-background:new    ;}
	.st27{opacity:0.5;fill:url(#SVGID_25_);enable-background:new    ;}
	.st28{fill:url(#SVGID_26_);}
	.st29{fill:url(#SVGID_27_);}
	.st30{fill:#24116A;}
	.st31{fill:#352786;}
	.st32{fill:#3D3292;}
	.st33{fill:#384393;}
	.st34{fill:#BDBEFF;}
	.st35{fill:url(#SVGID_28_);}
	.st36{fill:url(#SVGID_29_);}
	.st37{fill:#666EDB;}
	.st38{fill:url(#SVGID_30_);}
	.st39{fill:#43E8E1;}
	.st40{opacity:0.5;fill:url(#SVGID_31_);enable-background:new    ;}
	.st41{opacity:0.75;fill:url(#SVGID_32_);enable-background:new    ;}
	.st42{opacity:0.5;fill:url(#SVGID_33_);enable-background:new    ;}
	.st43{fill:url(#SVGID_34_);}
	.st44{opacity:0.5;fill:url(#SVGID_35_);enable-background:new    ;}
	.st45{fill:#FFFFFF;}
	.st46{clip-path:url(#SVGID_37_);fill:#586DDA;}
	.st47{clip-path:url(#SVGID_39_);fill:#3F20D3;}
	.st48{clip-path:url(#SVGID_41_);fill:#586DDA;}
	.st49{clip-path:url(#SVGID_43_);fill:#3F20D3;}
	.st50{clip-path:url(#SVGID_45_);fill:#586DDA;}
	.st51{clip-path:url(#SVGID_47_);fill:#3F20D3;}
	.st52{clip-path:url(#SVGID_49_);fill:#586DDA;}
	.st53{clip-path:url(#SVGID_51_);fill:#3F20D3;}
	.st54{fill:#3F20D3;}
	.st55{fill:url(#SVGID_52_);}
	.st56{fill:url(#SVGID_53_);}
	.st57{fill:url(#SVGID_54_);}
	.st58{fill:url(#SVGID_55_);}
	.st59{fill:url(#SVGID_56_);}
	.st60{fill:url(#SVGID_57_);}
</style>
<g>
	<linearGradient id="SVGID_1_" gradientUnits="userSpaceOnUse" x1="960" y1="600" x2="960" y2="-9.094947e-13">
		<stop  offset="0" style="stop-color:#06199B"/>
		<stop  offset="1" style="stop-color:#0039B7"/>
	</linearGradient>
	<rect class="st0" width="1920" height="600"/>
	<g>
		<polygon class="st1" points="1303,539 1515,417 1303,293.1 1092,417.5 		"/>
		
			<linearGradient id="SVGID_2_" gradientUnits="userSpaceOnUse" x1="1303.5" y1="86.0802" x2="1303.5" y2="292.4981" gradientTransform="matrix(1 0 0 -1 0 602)">
			<stop  offset="0" style="stop-color:#39B3C2"/>
			<stop  offset="1" style="stop-color:#4348AE"/>
		</linearGradient>
		<polygon class="st2" points="1303.1,312.5 1481.6,416.9 1303.1,519.6 1125.4,417.3 		"/>
		<polygon class="st1" points="1303.1,333.3 1445.8,416.7 1303.1,498.8 1161.2,417 		"/>
		<g class="st3">
			<path class="st4" d="M1318.2,369.8l-40.4,6c-0.2,0-0.3,0.1-0.5,0.2l-69.6,39.7c-0.6,0.3-0.7,0.9-0.7,1.1s0.1,0.8,0.7,1.1
				l91.8,53.3c1.8,1,3.9,1,5.7,0l92.9-53.4c0.6-0.3,0.7-0.9,0.7-1.1s-0.1-0.8-0.7-1.1L1319,370c-0.2-0.1-0.4-0.2-0.7-0.2
				C1318.4,369.7,1318.3,369.7,1318.2,369.8z"/>
		</g>
		<g>
			
				<linearGradient id="SVGID_3_" gradientUnits="userSpaceOnUse" x1="2388.0793" y1="181.2174" x2="2582.4792" y2="181.2174" gradientTransform="matrix(-1 0 0 -1 3788.2793 602)">
				<stop  offset="0" style="stop-color:#5465D7"/>
				<stop  offset="1" style="stop-color:#43E1E0"/>
			</linearGradient>
			<path class="st5" d="M1298.2,472.9l-90.2-52.4c-1.4-0.8-2.2-2.2-2.2-3.8c0-1.6,0.8-3,2.2-3.8l68.4-39c0.5-0.3,1-0.4,1.5-0.5
				l39.6-5.9c1-0.1,2,0,2.8,0.5l77.7,45c1.4,0.8,2.2,2.2,2.2,3.8c0,1.6-0.8,3-2.2,3.8l-91.2,52.4c-1.3,0.8-2.8,1.1-4.3,1.1
				C1301,474.1,1299.5,473.7,1298.2,472.9z M1318,370.7l-39.6,5.9c-0.2,0-0.3,0.1-0.5,0.2l-68.4,39c-0.6,0.3-0.7,0.9-0.7,1.1
				s0.1,0.8,0.6,1.1l90.2,52.4c1.7,1,3.9,1,5.6,0l91.2-52.4c0.6-0.3,0.6-0.9,0.6-1.1s-0.1-0.8-0.6-1.1l-77.7-44.8
				c-0.2-0.1-0.4-0.2-0.6-0.2C1318.1,370.7,1318,370.7,1318,370.7z"/>
		</g>
		<g>
			
				<linearGradient id="SVGID_4_" gradientUnits="userSpaceOnUse" x1="2551.7793" y1="223.95" x2="2683.3794" y2="223.95" gradientTransform="matrix(-1 0 0 -1 3788.2793 602)">
				<stop  offset="0" style="stop-color:#5465D7"/>
				<stop  offset="1" style="stop-color:#43E1E0"/>
			</linearGradient>
			<path class="st6" d="M1171.2,403.8c0.9,0,1.8-0.2,2.6-0.7l62.7-36.5l-1.5-2.6l-62.7,36.5c-0.6,0.4-1.5,0.4-2.1,0l-61.4-35.3
				l17.1-10.3l-1.6-2.6l-18.4,11.2c-0.6,0.4-1,1.1-1,1.8c0,0.8,0.4,1.4,1.1,1.8l62.8,36C1169.4,403.5,1170.3,403.8,1171.2,403.8z"/>
		</g>
		
			<linearGradient id="SVGID_5_" gradientUnits="userSpaceOnUse" x1="2558.1792" y1="239.8" x2="2675.9792" y2="239.8" gradientTransform="matrix(-1 0 0 -1 3788.2793 602)">
			<stop  offset="0" style="stop-color:#4348AE"/>
			<stop  offset="1" style="stop-color:#39B3C2"/>
		</linearGradient>
		<polygon class="st7" points="1230.1,339.5 1230.1,351.7 1171.2,384.9 1112.3,351.7 1112.3,339.5 1171.2,372.7 		"/>
		
			<linearGradient id="SVGID_6_" gradientUnits="userSpaceOnUse" x1="2558.1792" y1="262.5" x2="2675.9792" y2="262.5" gradientTransform="matrix(-1 0 0 -1 3788.2793 602)">
			<stop  offset="0" style="stop-color:#39B3C2"/>
			<stop  offset="1" style="stop-color:#CAC8F9"/>
		</linearGradient>
		<path class="st8" d="M1112.3,339.5l58.9,33.2l58.9-33.2l-58.9-33.2L1112.3,339.5z M1171.2,366.3l-47.5-26.8l47.5-26.8l47.5,26.8
			L1171.2,366.3z"/>
		
			<linearGradient id="SVGID_7_" gradientUnits="userSpaceOnUse" x1="2647.5493" y1="262.65" x2="2596.7029" y2="262.65" gradientTransform="matrix(-1 0 0 -1 3788.2793 602)">
			<stop  offset="0" style="stop-color:#4348AE"/>
			<stop  offset="9.030808e-02" style="stop-color:#415DB2"/>
			<stop  offset="0.2468" style="stop-color:#3E7CB8"/>
			<stop  offset="0.411" style="stop-color:#3C94BC"/>
			<stop  offset="0.5839" style="stop-color:#3AA6BF"/>
			<stop  offset="0.7714" style="stop-color:#39B0C1"/>
			<stop  offset="1" style="stop-color:#39B3C2"/>
		</linearGradient>
		<polygon class="st9" points="1207.2,339.2 1171.2,359.5 1135.2,339.2 1171.2,319.2 		"/>
		
			<linearGradient id="SVGID_8_" gradientUnits="userSpaceOnUse" x1="2642.7249" y1="287.8" x2="2597.9712" y2="287.8" gradientTransform="matrix(-1 0 0 -1 3788.2793 602)">
			<stop  offset="0" style="stop-color:#4348AE"/>
			<stop  offset="1" style="stop-color:#39B3C2"/>
		</linearGradient>
		<polygon class="st10" points="1171.2,289.2 1207.2,309.5 1207.2,339.2 1171.2,319.2 		"/>
		
			<linearGradient id="SVGID_9_" gradientUnits="userSpaceOnUse" x1="2617.0793" y1="287.8" x2="2653.0793" y2="287.8" gradientTransform="matrix(-1 0 0 -1 3788.2793 602)">
			<stop  offset="0" style="stop-color:#39B3C2"/>
			<stop  offset="1" style="stop-color:#4348AE"/>
		</linearGradient>
		<polygon class="st11" points="1171.2,319.2 1135.2,339.2 1135.2,309.5 1171.2,289.2 		"/>
		
			<linearGradient id="SVGID_10_" gradientUnits="userSpaceOnUse" x1="2581.0793" y1="267.5" x2="2617.0793" y2="267.5" gradientTransform="matrix(-1 0 0 -1 3788.2793 602)">
			<stop  offset="0" style="stop-color:#39B3C2"/>
			<stop  offset="1" style="stop-color:#4348AE"/>
		</linearGradient>
		<polygon class="st12" points="1171.2,329.9 1207.2,309.5 1207.2,339.2 1171.2,359.5 		"/>
		
			<linearGradient id="SVGID_11_" gradientUnits="userSpaceOnUse" x1="2617.0793" y1="267.5" x2="2653.0793" y2="267.5" gradientTransform="matrix(-1 0 0 -1 3788.2793 602)">
			<stop  offset="0" style="stop-color:#39B3C2"/>
			<stop  offset="1" style="stop-color:#4348AE"/>
		</linearGradient>
		<polygon class="st13" points="1171.2,359.5 1135.2,339.2 1135.2,309.5 1171.2,329.9 		"/>
		
			<linearGradient id="SVGID_12_" gradientUnits="userSpaceOnUse" x1="2301.7793" y1="249.45" x2="2419.4792" y2="249.45" gradientTransform="matrix(-1 0 0 -1 3788.2793 602)">
			<stop  offset="0" style="stop-color:#4348AE"/>
			<stop  offset="1" style="stop-color:#39B3C2"/>
		</linearGradient>
		<polygon class="st14" points="1486.5,329.8 1486.5,342 1427.7,375.3 1368.8,342 1368.8,329.8 1427.7,363.1 		"/>
		
			<linearGradient id="SVGID_13_" gradientUnits="userSpaceOnUse" x1="2301.6792" y1="272.2" x2="2419.4792" y2="272.2" gradientTransform="matrix(-1 0 0 -1 3788.2793 602)">
			<stop  offset="0" style="stop-color:#39B3C2"/>
			<stop  offset="1" style="stop-color:#CAC8F9"/>
		</linearGradient>
		<path class="st15" d="M1368.8,329.8l58.9,33.2l58.9-33.2l-58.9-33.2L1368.8,329.8z M1427.7,356.7l-47.5-26.8l47.5-26.8l47.5,26.8
			L1427.7,356.7z"/>
		
			<linearGradient id="SVGID_14_" gradientUnits="userSpaceOnUse" x1="2391.0957" y1="272.25" x2="2340.2493" y2="272.25" gradientTransform="matrix(-1 0 0 -1 3788.2793 602)">
			<stop  offset="0" style="stop-color:#4348AE"/>
			<stop  offset="9.030808e-02" style="stop-color:#415DB2"/>
			<stop  offset="0.2468" style="stop-color:#3E7CB8"/>
			<stop  offset="0.411" style="stop-color:#3C94BC"/>
			<stop  offset="0.5839" style="stop-color:#3AA6BF"/>
			<stop  offset="0.7714" style="stop-color:#39B0C1"/>
			<stop  offset="1" style="stop-color:#39B3C2"/>
		</linearGradient>
		<polygon class="st16" points="1463.7,329.5 1427.7,349.9 1391.6,329.5 1427.7,309.6 		"/>
		
			<linearGradient id="SVGID_15_" gradientUnits="userSpaceOnUse" x1="2386.2712" y1="297.5" x2="2341.5176" y2="297.5" gradientTransform="matrix(-1 0 0 -1 3788.2793 602)">
			<stop  offset="0" style="stop-color:#4348AE"/>
			<stop  offset="1" style="stop-color:#39B3C2"/>
		</linearGradient>
		<polygon class="st17" points="1427.7,279.5 1463.7,299.9 1463.7,329.5 1427.7,309.6 		"/>
		
			<linearGradient id="SVGID_16_" gradientUnits="userSpaceOnUse" x1="2360.626" y1="297.5" x2="2396.6333" y2="297.5" gradientTransform="matrix(-1 0 0 -1 3788.2793 602)">
			<stop  offset="0" style="stop-color:#39B3C2"/>
			<stop  offset="1" style="stop-color:#4348AE"/>
		</linearGradient>
		<polygon class="st18" points="1427.7,309.6 1391.6,329.5 1391.6,299.9 1427.7,279.5 		"/>
		
			<linearGradient id="SVGID_17_" gradientUnits="userSpaceOnUse" x1="2324.6187" y1="277.1" x2="2360.6187" y2="277.1" gradientTransform="matrix(-1 0 0 -1 3788.2793 602)">
			<stop  offset="0" style="stop-color:#39B3C2"/>
			<stop  offset="1" style="stop-color:#4348AE"/>
		</linearGradient>
		<polygon class="st19" points="1427.7,320.2 1463.7,299.9 1463.7,329.5 1427.7,349.9 		"/>
		
			<linearGradient id="SVGID_18_" gradientUnits="userSpaceOnUse" x1="2360.626" y1="277.1" x2="2396.6333" y2="277.1" gradientTransform="matrix(-1 0 0 -1 3788.2793 602)">
			<stop  offset="0" style="stop-color:#39B3C2"/>
			<stop  offset="1" style="stop-color:#4348AE"/>
		</linearGradient>
		<polygon class="st20" points="1427.7,349.9 1391.6,329.5 1391.6,299.9 1427.7,320.2 		"/>
		
			<linearGradient id="SVGID_19_" gradientUnits="userSpaceOnUse" x1="2312.4792" y1="97.6" x2="2430.1792" y2="97.6" gradientTransform="matrix(-1 0 0 -1 3788.2793 602)">
			<stop  offset="0" style="stop-color:#4348AE"/>
			<stop  offset="1" style="stop-color:#39B3C2"/>
		</linearGradient>
		<polygon class="st21" points="1475.8,481.7 1475.8,493.9 1417,527.1 1358.1,493.9 1358.1,481.7 1417,514.9 		"/>
		
			<linearGradient id="SVGID_20_" gradientUnits="userSpaceOnUse" x1="2312.3794" y1="120.3" x2="2430.1792" y2="120.3" gradientTransform="matrix(-1 0 0 -1 3788.2793 602)">
			<stop  offset="0" style="stop-color:#39B3C2"/>
			<stop  offset="1" style="stop-color:#CAC8F9"/>
		</linearGradient>
		<path class="st22" d="M1358.1,481.7l58.9,33.2l58.9-33.2l-58.9-33.2L1358.1,481.7z M1417,508.5l-47.5-26.8l47.5-26.8l47.5,26.8
			L1417,508.5z"/>
		
			<linearGradient id="SVGID_21_" gradientUnits="userSpaceOnUse" x1="2401.76" y1="120.4" x2="2350.9136" y2="120.4" gradientTransform="matrix(-1 0 0 -1 3788.2793 602)">
			<stop  offset="0" style="stop-color:#4348AE"/>
			<stop  offset="9.030808e-02" style="stop-color:#415DB2"/>
			<stop  offset="0.2468" style="stop-color:#3E7CB8"/>
			<stop  offset="0.411" style="stop-color:#3C94BC"/>
			<stop  offset="0.5839" style="stop-color:#3AA6BF"/>
			<stop  offset="0.7714" style="stop-color:#39B0C1"/>
			<stop  offset="1" style="stop-color:#39B3C2"/>
		</linearGradient>
		<polygon class="st23" points="1453,481.4 1417,501.7 1381,481.4 1417,461.5 		"/>
		
			<linearGradient id="SVGID_22_" gradientUnits="userSpaceOnUse" x1="2396.9355" y1="172.75" x2="2352.1819" y2="172.75" gradientTransform="matrix(-1 0 0 -1 3788.2793 602)">
			<stop  offset="0" style="stop-color:#4348AE"/>
			<stop  offset="1" style="stop-color:#39B3C2"/>
		</linearGradient>
		<polygon class="st24" points="1417,377.1 1453,397.4 1453,481.4 1417,461.5 		"/>
		
			<linearGradient id="SVGID_23_" gradientUnits="userSpaceOnUse" x1="2371.2793" y1="172.75" x2="2407.2793" y2="172.75" gradientTransform="matrix(-1 0 0 -1 3788.2793 602)">
			<stop  offset="0" style="stop-color:#39B3C2"/>
			<stop  offset="1" style="stop-color:#4348AE"/>
		</linearGradient>
		<polygon class="st25" points="1417,461.5 1381,481.4 1381,397.4 1417,377.1 		"/>
		
			<linearGradient id="SVGID_24_" gradientUnits="userSpaceOnUse" x1="2335.2793" y1="152.45" x2="2371.2793" y2="152.45" gradientTransform="matrix(-1 0 0 -1 3788.2793 602)">
			<stop  offset="0" style="stop-color:#39B3C2"/>
			<stop  offset="1" style="stop-color:#4348AE"/>
		</linearGradient>
		<polygon class="st26" points="1417,417.7 1453,397.4 1453,481.4 1417,501.7 		"/>
		
			<linearGradient id="SVGID_25_" gradientUnits="userSpaceOnUse" x1="2371.2793" y1="152.45" x2="2407.2793" y2="152.45" gradientTransform="matrix(-1 0 0 -1 3788.2793 602)">
			<stop  offset="0" style="stop-color:#39B3C2"/>
			<stop  offset="1" style="stop-color:#4348AE"/>
		</linearGradient>
		<polygon class="st27" points="1417,501.7 1381,481.4 1381,397.4 1417,417.7 		"/>
		
			<linearGradient id="SVGID_26_" gradientUnits="userSpaceOnUse" x1="2335.2793" y1="204.6" x2="2407.2793" y2="204.6" gradientTransform="matrix(-1 0 0 -1 3788.2793 602)">
			<stop  offset="0" style="stop-color:#42E7E1;stop-opacity:0.9"/>
			<stop  offset="1" style="stop-color:#40E5DF;stop-opacity:0.5"/>
		</linearGradient>
		<path class="st28" d="M1381,397.4l36,20.3l36-20.3l-36-20.3L1381,397.4z M1417,409.6l-21.6-12.2l21.6-12.2l21.6,12.2L1417,409.6z"
			/>
		
			<linearGradient id="SVGID_27_" gradientUnits="userSpaceOnUse" x1="2528.2292" y1="206.8276" x2="2528.2292" y2="392.7695" gradientTransform="matrix(-1 0 0 -1 3788.2793 602)">
			<stop  offset="0" style="stop-color:#C0C0F6"/>
			<stop  offset="1" style="stop-color:#E7E8FD"/>
		</linearGradient>
		<polygon class="st29" points="1216.9,382.5 1303.2,431.7 1303.2,239.7 1216.9,190.5 		"/>
		<polygon class="st30" points="1389.6,382.5 1303.2,431.7 1303.2,239.7 1389.6,190.5 		"/>
		<polygon class="st31" points="1389.6,352 1303.2,299.7 1303.2,239.7 1389.6,190.5 		"/>
		<polygon class="st31" points="1383,376.1 1383,204.4 1309.8,246.1 1309.8,417.8 		"/>
		<polygon class="st32" points="1383,204.4 1383,348 1309.8,303.7 1309.8,246.1 		"/>
		<polygon class="st33" points="1229.8,243.8 1290.3,278.3 1290.3,273.3 1229.8,238.7 		"/>
		<polygon class="st33" points="1229.8,264.8 1290.3,299.4 1290.3,294.3 1229.8,259.8 		"/>
		<polygon class="st33" points="1229.8,285.9 1290.3,320.4 1290.3,315.3 1229.8,280.8 		"/>
		<polygon class="st33" points="1229.8,306.9 1290.3,341.4 1290.3,336.4 1229.8,301.8 		"/>
		<polygon class="st33" points="1229.8,327.9 1290.3,362.5 1290.3,357.4 1229.8,322.8 		"/>
		<polygon class="st33" points="1229.8,348.9 1290.3,383.5 1290.3,378.4 1229.8,343.9 		"/>
		<polygon class="st34" points="1303.2,140.2 1389.6,190.5 1303.2,239.7 1216.9,190.5 		"/>
		
			<linearGradient id="SVGID_28_" gradientUnits="userSpaceOnUse" x1="2398.6792" y1="413.6" x2="2485.0793" y2="413.6" gradientTransform="matrix(-1 0 0 -1 3788.2793 602)">
			<stop  offset="0" style="stop-color:#FFFFFF;stop-opacity:0"/>
			<stop  offset="5.817641e-03" style="stop-color:#FCFCFE;stop-opacity:8.045673e-03"/>
			<stop  offset="7.999019e-02" style="stop-color:#D4D6F5;stop-opacity:0.1106"/>
			<stop  offset="0.1592" style="stop-color:#B2B6ED;stop-opacity:0.2201"/>
			<stop  offset="0.2431" style="stop-color:#969CE6;stop-opacity:0.3361"/>
			<stop  offset="0.3333" style="stop-color:#8187E1;stop-opacity:0.4609"/>
			<stop  offset="0.433" style="stop-color:#7279DE;stop-opacity:0.5988"/>
			<stop  offset="0.5494" style="stop-color:#6971DC;stop-opacity:0.7599"/>
			<stop  offset="0.7231" style="stop-color:#666EDB"/>
		</linearGradient>
		<polygon class="st35" points="1303.2,150.3 1320.7,150.3 1389.6,190.5 1326.4,226.5 1303.2,226.5 1365.8,190.8 1365.8,186.8 		"/>
		
			<linearGradient id="SVGID_29_" gradientUnits="userSpaceOnUse" x1="2422.4792" y1="415.6" x2="2547.5793" y2="415.6" gradientTransform="matrix(-1 0 0 -1 3788.2793 602)">
			<stop  offset="0" style="stop-color:#C1C1F5;stop-opacity:0.8"/>
			<stop  offset="0.1091" style="stop-color:#CBCBF8;stop-opacity:0.7891"/>
			<stop  offset="0.3364" style="stop-color:#DADAFB;stop-opacity:0.7664"/>
			<stop  offset="0.6027" style="stop-color:#E3E3FD;stop-opacity:0.7397"/>
			<stop  offset="1" style="stop-color:#E6E6FE;stop-opacity:0.7"/>
		</linearGradient>
		<polygon class="st36" points="1240.7,186.8 1303.2,150.3 1365.8,186.8 1303.2,222.5 		"/>
		<polygon class="st37" points="1303.2,222.5 1365.8,186.8 1365.8,190.8 1303.2,226.5 		"/>
		
			<linearGradient id="SVGID_30_" gradientUnits="userSpaceOnUse" x1="2485.0793" y1="395.35" x2="2547.5793" y2="395.35" gradientTransform="matrix(-1 0 0 -1 3788.2793 602)">
			<stop  offset="0" style="stop-color:#CCCEF7"/>
			<stop  offset="1" style="stop-color:#CECDF7"/>
		</linearGradient>
		<polygon class="st38" points="1303.2,226.5 1240.7,190.8 1240.7,186.8 1303.2,222.5 		"/>
		<polygon class="st39" points="1350,285.6 1344.9,288.5 1344.9,285.2 1350,282.3 		"/>
		<polygon class="st39" points="1350,313 1344.9,315.9 1344.9,308.5 1350,305.6 		"/>
		<polygon class="st39" points="1350,322.2 1344.9,325.1 1344.9,317.7 1350,314.8 		"/>
		<polygon class="st39" points="1350,331.3 1344.9,334.2 1344.9,326.8 1350,323.9 		"/>
		<polygon class="st39" points="1350,303.9 1344.9,306.8 1344.9,290.2 1350,287.3 		"/>
		<polygon class="st39" points="1356,282 1351,284.9 1351,281.6 1356,278.7 		"/>
		<polygon class="st39" points="1356,290.7 1351,293.6 1351,286.7 1356,283.8 		"/>
		<polygon class="st39" points="1356,302.4 1351,305.3 1351,295.3 1356,292.4 		"/>
		<polygon class="st39" points="1356,314 1351,316.9 1351,307 1356,304.1 		"/>
		
			<linearGradient id="SVGID_31_" gradientUnits="userSpaceOnUse" x1="2436.2793" y1="224.3" x2="2472.8794" y2="224.3" gradientTransform="matrix(-1 0 0 -1 3788.2793 602)">
			<stop  offset="0" style="stop-color:#39B3C2"/>
			<stop  offset="1" style="stop-color:#4348AE"/>
		</linearGradient>
		<polygon class="st40" points="1315.4,414.6 1315.4,361.1 1352,340.8 1352,393.8 		"/>
		
			<linearGradient id="SVGID_32_" gradientUnits="userSpaceOnUse" x1="2436.2793" y1="261.2" x2="2478.4292" y2="261.2" gradientTransform="matrix(-1 0 0 -1 3788.2793 602)">
			<stop  offset="0" style="stop-color:#39B3C2"/>
			<stop  offset="1" style="stop-color:#4348AE"/>
		</linearGradient>
		<polygon class="st41" points="1309.8,323.6 1315.4,320.5 1352,340.8 1315.4,361.1 1309.8,358 		"/>
		
			<linearGradient id="SVGID_33_" gradientUnits="userSpaceOnUse" x1="2472.856" y1="215.3" x2="2478.4421" y2="215.3" gradientTransform="matrix(-1 0 0 -1 3788.2793 602)">
			<stop  offset="0" style="stop-color:#39B3C2"/>
			<stop  offset="1" style="stop-color:#4348AE"/>
		</linearGradient>
		<path class="st42" d="M1315.4,361.1v53.5l-1.4,0.8c-0.9-1-2.1-1.4-3.5-1.2c-0.2,0-0.5,0.1-0.7,0.2V358L1315.4,361.1z"/>
		
			<linearGradient id="SVGID_34_" gradientUnits="userSpaceOnUse" x1="2459.1445" y1="260.7" x2="2478.4448" y2="260.7" gradientTransform="matrix(-1 0 0 -1 3788.2793 602)">
			<stop  offset="0" style="stop-color:#39B3C2"/>
			<stop  offset="1" style="stop-color:#4348AE"/>
		</linearGradient>
		<path class="st43" d="M1309.8,334.1c2-0.9,4.3-1.4,6.9-1.4c6.9,0,12.4,3.8,12.4,8.6s-5.6,8.6-12.4,8.6c-2.5,0-4.9-0.5-6.9-1.4
			V334.1z"/>
		
			<linearGradient id="SVGID_35_" gradientUnits="userSpaceOnUse" x1="2472.8794" y1="280.7" x2="2472.8794" y2="360" gradientTransform="matrix(-1 0 0 -1 3788.2793 602)">
			<stop  offset="0" style="stop-color:#4348AE"/>
			<stop  offset="1" style="stop-color:#39B3C2"/>
		</linearGradient>
		<path class="st44" d="M1315.1,247.3c0-1.5-0.4-2.6-1.2-3.2v-0.4l3-1.7v79.3l-1.5-0.8l-1.5,0.8V251
			C1314.6,250,1315.1,248.7,1315.1,247.3z"/>
		<g>
			
				<ellipse transform="matrix(0.3159 -0.9488 0.9488 0.3159 661.9133 1413.8728)" class="st45" cx="1311.4" cy="247.9" rx="5.2" ry="4.2"/>
			<g>
				<g>
					<defs>
						
							<ellipse id="SVGID_36_" transform="matrix(0.5995 -0.8003 0.8003 0.5995 325.7681 1149.6429)" cx="1311.7" cy="249.3" rx="4.2" ry="5.2"/>
					</defs>
					<clipPath id="SVGID_37_">
						<use xlink:href="#SVGID_36_"  style="overflow:visible;"/>
					</clipPath>
					
						<ellipse transform="matrix(0.316 -0.9488 0.9488 0.316 662.013 1415.0342)" class="st46" cx="1312.4" cy="248.4" rx="4.7" ry="3.1"/>
				</g>
				<g>
					<defs>
						
							<ellipse id="SVGID_38_" transform="matrix(0.5995 -0.8003 0.8003 0.5995 325.5236 1149.7777)" cx="1311.7" cy="249.6" rx="4.2" ry="5.2"/>
					</defs>
					<clipPath id="SVGID_39_">
						<use xlink:href="#SVGID_38_"  style="overflow:visible;"/>
					</clipPath>
					
						<ellipse transform="matrix(0.316 -0.9488 0.9488 0.316 662.0187 1415.4127)" class="st47" cx="1312.7" cy="248.6" rx="2.8" ry="1.8"/>
				</g>
			</g>
		</g>
		<g>
			
				<ellipse transform="matrix(0.3159 -0.9488 0.9488 0.3159 752.359 1451.3521)" class="st45" cx="1382.6" cy="203.9" rx="5.2" ry="4.2"/>
			<g>
				<g>
					<defs>
						
							<ellipse id="SVGID_40_" transform="matrix(0.5995 -0.8003 0.8003 0.5995 389.4939 1189.0415)" cx="1382.9" cy="205.3" rx="4.2" ry="5.2"/>
					</defs>
					<clipPath id="SVGID_41_">
						<use xlink:href="#SVGID_40_"  style="overflow:visible;"/>
					</clipPath>
					
						<ellipse transform="matrix(0.316 -0.9488 0.9488 0.316 752.441 1452.5182)" class="st48" cx="1383.6" cy="204.4" rx="4.7" ry="3.1"/>
				</g>
				<g>
					<defs>
						
							<ellipse id="SVGID_42_" transform="matrix(0.5995 -0.8003 0.8003 0.5995 389.2497 1189.1768)" cx="1383" cy="205.6" rx="4.2" ry="5.2"/>
					</defs>
					<clipPath id="SVGID_43_">
						<use xlink:href="#SVGID_42_"  style="overflow:visible;"/>
					</clipPath>
					
						<ellipse transform="matrix(0.316 -0.9488 0.9488 0.316 752.4474 1452.8971)" class="st49" cx="1383.9" cy="204.6" rx="2.8" ry="1.8"/>
				</g>
			</g>
		</g>
		<g>
			
				<ellipse transform="matrix(0.3159 -0.9488 0.9488 0.3159 499.9032 1530.7418)" class="st45" cx="1311.5" cy="418.7" rx="5.3" ry="4.4"/>
			<g>
				<g>
					<defs>
						
							<ellipse id="SVGID_44_" transform="matrix(0.5995 -0.8003 0.8003 0.5995 189.0289 1218.1658)" cx="1311.8" cy="420.2" rx="4.4" ry="5.3"/>
					</defs>
					<clipPath id="SVGID_45_">
						<use xlink:href="#SVGID_44_"  style="overflow:visible;"/>
					</clipPath>
					
						<ellipse transform="matrix(0.316 -0.9488 0.9488 0.316 500.1255 1531.9926)" class="st50" cx="1312.6" cy="419.1" rx="4.9" ry="3.2"/>
				</g>
				<g>
					<defs>
						
							<ellipse id="SVGID_46_" transform="matrix(0.5995 -0.8003 0.8003 0.5995 188.7746 1218.3052)" cx="1311.8" cy="420.5" rx="4.4" ry="5.3"/>
					</defs>
					<clipPath id="SVGID_47_">
						<use xlink:href="#SVGID_46_"  style="overflow:visible;"/>
					</clipPath>
					
						<ellipse transform="matrix(0.316 -0.9488 0.9488 0.316 500.1197 1532.3789)" class="st51" cx="1312.8" cy="419.3" rx="2.9" ry="1.9"/>
				</g>
			</g>
		</g>
		<g>
			
				<ellipse transform="matrix(0.3159 -0.9488 0.9488 0.3159 590.0101 1567.7366)" class="st45" cx="1382.2" cy="374.7" rx="5.3" ry="4.4"/>
			<g>
				<g>
					<defs>
						
							<ellipse id="SVGID_48_" transform="matrix(0.5995 -0.8003 0.8003 0.5995 252.5527 1257.1512)" cx="1382.5" cy="376.2" rx="4.4" ry="5.3"/>
					</defs>
					<clipPath id="SVGID_49_">
						<use xlink:href="#SVGID_48_"  style="overflow:visible;"/>
					</clipPath>
					
						<ellipse transform="matrix(0.316 -0.9488 0.9488 0.316 590.2153 1568.9915)" class="st52" cx="1383.3" cy="375.2" rx="4.9" ry="3.2"/>
				</g>
				<g>
					<defs>
						
							<ellipse id="SVGID_50_" transform="matrix(0.5995 -0.8003 0.8003 0.5995 252.2986 1257.291)" cx="1382.5" cy="376.5" rx="4.4" ry="5.3"/>
					</defs>
					<clipPath id="SVGID_51_">
						<use xlink:href="#SVGID_50_"  style="overflow:visible;"/>
					</clipPath>
					
						<ellipse transform="matrix(0.316 -0.9488 0.9488 0.316 590.2099 1569.3784)" class="st53" cx="1383.5" cy="375.3" rx="2.9" ry="1.9"/>
				</g>
			</g>
		</g>
		<g>
			<polygon class="st54" points="1300.1,171 1304.3,168.6 1331.7,184.5 1327.5,186.9 			"/>
			
				<linearGradient id="SVGID_52_" gradientUnits="userSpaceOnUse" x1="2453.4248" y1="413.8703" x2="2489.3127" y2="434.015" gradientTransform="matrix(-1 0 0 -1 3788.2793 602)">
				<stop  offset="0" style="stop-color:#FFFFFF;stop-opacity:0"/>
				<stop  offset="5.817641e-03" style="stop-color:#FCFCFE;stop-opacity:8.045673e-03"/>
				<stop  offset="7.999019e-02" style="stop-color:#D4D6F5;stop-opacity:0.1106"/>
				<stop  offset="0.1592" style="stop-color:#B2B6ED;stop-opacity:0.2201"/>
				<stop  offset="0.2431" style="stop-color:#969CE6;stop-opacity:0.3361"/>
				<stop  offset="0.3333" style="stop-color:#8187E1;stop-opacity:0.4609"/>
				<stop  offset="0.433" style="stop-color:#7279DE;stop-opacity:0.5988"/>
				<stop  offset="0.5494" style="stop-color:#6971DC;stop-opacity:0.7599"/>
				<stop  offset="0.7231" style="stop-color:#666EDB"/>
			</linearGradient>
			<polygon class="st55" points="1304.3,170.1 1301.4,171.7 1300.1,171 1304.3,168.6 1331.7,184.5 1330.4,185.3 			"/>
		</g>
		<g>
			<polygon class="st54" points="1291,176.1 1295.1,173.6 1322.5,189.6 1318.3,192 			"/>
			
				<linearGradient id="SVGID_53_" gradientUnits="userSpaceOnUse" x1="2462.5552" y1="408.8094" x2="2498.4434" y2="428.9541" gradientTransform="matrix(-1 0 0 -1 3788.2793 602)">
				<stop  offset="0" style="stop-color:#FFFFFF;stop-opacity:0"/>
				<stop  offset="5.817641e-03" style="stop-color:#FCFCFE;stop-opacity:8.045673e-03"/>
				<stop  offset="7.999019e-02" style="stop-color:#D4D6F5;stop-opacity:0.1106"/>
				<stop  offset="0.1592" style="stop-color:#B2B6ED;stop-opacity:0.2201"/>
				<stop  offset="0.2431" style="stop-color:#969CE6;stop-opacity:0.3361"/>
				<stop  offset="0.3333" style="stop-color:#8187E1;stop-opacity:0.4609"/>
				<stop  offset="0.433" style="stop-color:#7279DE;stop-opacity:0.5988"/>
				<stop  offset="0.5494" style="stop-color:#6971DC;stop-opacity:0.7599"/>
				<stop  offset="0.7231" style="stop-color:#666EDB"/>
			</linearGradient>
			<polygon class="st56" points="1295.1,175.2 1292.3,176.8 1291,176.1 1295.1,173.6 1322.5,189.6 1321.2,190.4 			"/>
		</g>
		<g>
			<polygon class="st54" points="1281.8,181.1 1286,178.7 1313.4,194.7 1309.2,197.1 			"/>
			
				<linearGradient id="SVGID_54_" gradientUnits="userSpaceOnUse" x1="2471.7009" y1="403.7218" x2="2507.5889" y2="423.8665" gradientTransform="matrix(-1 0 0 -1 3788.2793 602)">
				<stop  offset="0" style="stop-color:#FFFFFF;stop-opacity:0"/>
				<stop  offset="5.817641e-03" style="stop-color:#FCFCFE;stop-opacity:8.045673e-03"/>
				<stop  offset="7.999019e-02" style="stop-color:#D4D6F5;stop-opacity:0.1106"/>
				<stop  offset="0.1592" style="stop-color:#B2B6ED;stop-opacity:0.2201"/>
				<stop  offset="0.2431" style="stop-color:#969CE6;stop-opacity:0.3361"/>
				<stop  offset="0.3333" style="stop-color:#8187E1;stop-opacity:0.4609"/>
				<stop  offset="0.433" style="stop-color:#7279DE;stop-opacity:0.5988"/>
				<stop  offset="0.5494" style="stop-color:#6971DC;stop-opacity:0.7599"/>
				<stop  offset="0.7231" style="stop-color:#666EDB"/>
			</linearGradient>
			<polygon class="st57" points="1286,180.2 1283.1,181.9 1281.8,181.1 1286,178.7 1313.4,194.7 1312.1,195.5 			"/>
		</g>
		<g>
			<polygon class="st54" points="1272.7,186.2 1276.8,183.8 1304.3,199.8 1300.1,202.2 			"/>
			
				<linearGradient id="SVGID_55_" gradientUnits="userSpaceOnUse" x1="2480.8528" y1="398.6228" x2="2516.7407" y2="418.7675" gradientTransform="matrix(-1 0 0 -1 3788.2793 602)">
				<stop  offset="0" style="stop-color:#FFFFFF;stop-opacity:0"/>
				<stop  offset="5.817641e-03" style="stop-color:#FCFCFE;stop-opacity:8.045673e-03"/>
				<stop  offset="7.999019e-02" style="stop-color:#D4D6F5;stop-opacity:0.1106"/>
				<stop  offset="0.1592" style="stop-color:#B2B6ED;stop-opacity:0.2201"/>
				<stop  offset="0.2431" style="stop-color:#969CE6;stop-opacity:0.3361"/>
				<stop  offset="0.3333" style="stop-color:#8187E1;stop-opacity:0.4609"/>
				<stop  offset="0.433" style="stop-color:#7279DE;stop-opacity:0.5988"/>
				<stop  offset="0.5494" style="stop-color:#6971DC;stop-opacity:0.7599"/>
				<stop  offset="0.7231" style="stop-color:#666EDB"/>
			</linearGradient>
			<polygon class="st58" points="1276.8,185.3 1274,187 1272.7,186.2 1276.8,183.8 1304.3,199.8 1302.9,200.5 			"/>
		</g>
		
			<linearGradient id="SVGID_56_" gradientUnits="userSpaceOnUse" x1="1070" y1="129.9" x2="1395.4" y2="129.9" gradientTransform="matrix(1 0 0 -1 0 602)">
			<stop  offset="0" style="stop-color:#43E1E0"/>
			<stop  offset="1" style="stop-color:#5465D7"/>
		</linearGradient>
		<path class="st59" d="M1297.4,558.7c1.5,0.9,3.2,1.3,4.9,1.3c1.7,0,3.3-0.4,4.8-1.3l81.6-46.8v-12l6.7-3.6l-3.1-1.8l-6.6,3.6v12
			l-80.1,45.9c-2.1,1.2-4.6,1.2-6.7,0l-119.3-68.9c-0.5-0.3-0.6-0.8-0.6-1s0.1-0.7,0.6-1l70.1-40.3l-3-1.8l-68.6,39.4
			c-1,0.6-1.7,1.5-2,2.6l-102.9-60c-0.2-0.1-0.2-0.2-0.2-0.3c0-0.1,0-0.2,0.2-0.3l65.2-38.5l-3-1.7l-63.7,37.6
			c-1.1,0.6-1.7,1.7-1.7,3c0,1.2,0.6,2.4,1.7,3L1297.4,558.7z"/>
		<polygon class="st33" points="1417,385.2 1438.5,397.4 1437.2,398.2 1417,386.8 1396.8,398.2 1395.4,397.4 		"/>
		
			<linearGradient id="SVGID_57_" gradientUnits="userSpaceOnUse" x1="2371.2793" y1="203.3" x2="2371.2793" y2="441" gradientTransform="matrix(-1 0 0 -1 3788.2793 602)">
			<stop  offset="0" style="stop-color:#43E1E0"/>
			<stop  offset="1" style="stop-color:#5465D7;stop-opacity:0"/>
		</linearGradient>
		<polygon class="st60" points="1415.5,398.7 1418.5,398.7 1418.5,161 1415.5,161 		"/>
	</g>
</g>
</svg>
