<?xml version="1.0" encoding="utf-8"?>
<!-- Generator: Adobe Illustrator 22.1.0, SVG Export Plug-In . SVG Version: 6.00 Build 0)  -->
<svg version="1.1" id="Layer_1" xmlns="http://www.w3.org/2000/svg" xmlns:xlink="http://www.w3.org/1999/xlink" x="0px" y="0px"
	 viewBox="0 0 63 72" style="enable-background:new 0 0 63 72;" xml:space="preserve">
<style type="text/css">
	.st0{fill:url(#SVGID_1_);}
	.st1{fill:url(#SVGID_2_);}
	.st2{opacity:0.7;fill:#4EEEE6;}
	.st3{fill:url(#SVGID_3_);}
	.st4{fill:#4EEEE6;}
	.st5{fill:url(#SVGID_4_);}
	.st6{fill:url(#SVGID_5_);}
	.st7{fill:url(#SVGID_6_);}
	.st8{fill:url(#SVGID_7_);}
	.st9{fill:url(#SVGID_8_);}
	.st10{fill:url(#SVGID_9_);}
	.st11{fill:url(#SVGID_10_);}
	.st12{fill:url(#SVGID_11_);}
	.st13{fill:url(#SVGID_12_);}
	.st14{fill:url(#SVGID_13_);}
	.st15{fill:url(#SVGID_14_);}
	.st16{fill:url(#SVGID_15_);}
	.st17{fill:url(#SVGID_16_);}
	.st18{fill:url(#SVGID_17_);}
	.st19{fill:url(#SVGID_18_);}
	.st20{fill:url(#SVGID_19_);}
	.st21{fill:url(#SVGID_20_);}
	.st22{fill:url(#SVGID_21_);}
	.st23{fill:url(#SVGID_22_);}
	.st24{fill:url(#SVGID_23_);}
	.st25{fill:url(#SVGID_24_);}
	.st26{fill:url(#SVGID_25_);}
	.st27{fill:url(#SVGID_26_);}
	.st28{fill:url(#SVGID_27_);}
	.st29{fill:#40E5DF;}
	.st30{fill:url(#SVGID_28_);}
	.st31{fill:url(#SVGID_29_);}
	.st32{fill:url(#SVGID_30_);}
	.st33{fill:url(#SVGID_31_);}
	.st34{fill:url(#SVGID_32_);}
	.st35{fill:url(#SVGID_33_);}
	.st36{fill:url(#SVGID_34_);}
	.st37{fill:url(#SVGID_35_);}
	.st38{fill:url(#SVGID_36_);}
	.st39{fill:url(#SVGID_37_);}
	.st40{fill:url(#SVGID_38_);}
	.st41{fill:url(#SVGID_39_);}
	.st42{fill:url(#SVGID_40_);}
	.st43{fill:url(#SVGID_41_);}
	.st44{fill:url(#SVGID_42_);}
	.st45{fill:url(#SVGID_43_);}
	.st46{fill:url(#SVGID_44_);}
	.st47{fill:url(#SVGID_45_);}
	.st48{fill:url(#SVGID_46_);}
	.st49{fill:url(#SVGID_47_);}
	.st50{fill:url(#SVGID_48_);}
	.st51{fill:url(#SVGID_49_);}
	.st52{fill:url(#SVGID_50_);}
	.st53{fill:url(#SVGID_51_);}
	.st54{fill:url(#SVGID_52_);}
	.st55{fill:url(#SVGID_53_);}
	.st56{fill:url(#SVGID_54_);}
	.st57{fill:url(#SVGID_55_);}
	.st58{fill:url(#SVGID_56_);}
	.st59{fill:url(#SVGID_57_);}
	.st60{fill:url(#SVGID_58_);}
	.st61{fill:url(#SVGID_59_);}
	.st62{fill:url(#SVGID_60_);}
	.st63{fill:url(#SVGID_61_);}
	.st64{fill:url(#SVGID_62_);}
	.st65{fill:url(#SVGID_63_);}
	.st66{fill:url(#SVGID_64_);}
	.st67{fill:url(#SVGID_65_);}
	.st68{fill:url(#SVGID_66_);}
	.st69{fill:url(#SVGID_67_);}
	.st70{fill:url(#SVGID_68_);}
	.st71{fill:url(#SVGID_69_);}
	.st72{fill:url(#SVGID_70_);}
	.st73{fill:url(#SVGID_71_);}
	.st74{fill:url(#SVGID_72_);}
	.st75{fill:url(#SVGID_73_);}
	.st76{fill:url(#SVGID_74_);}
	.st77{fill:url(#SVGID_75_);}
	.st78{fill:url(#SVGID_76_);}
	.st79{fill:url(#SVGID_77_);}
	.st80{fill:url(#SVGID_78_);}
	.st81{fill:url(#SVGID_79_);}
</style>
<g>
	<g>
		<g>
			<g>
				<linearGradient id="SVGID_1_" gradientUnits="userSpaceOnUse" x1="25.7639" y1="65.6756" x2="44.3821" y2="65.6756">
					<stop  offset="0" style="stop-color:#378CB3"/>
					<stop  offset="1" style="stop-color:#312B8F"/>
				</linearGradient>
				<polygon class="st0" points="44.4,69.9 25.8,59.4 25.8,61.5 44.4,72 				"/>
				<linearGradient id="SVGID_2_" gradientUnits="userSpaceOnUse" x1="44.3821" y1="65.6756" x2="63.0003" y2="65.6756">
					<stop  offset="0" style="stop-color:#251B71"/>
					<stop  offset="1" style="stop-color:#1B105F"/>
				</linearGradient>
				<polygon class="st1" points="44.4,72 63,61.5 63,59.4 44.4,69.9 				"/>
				<polygon class="st2" points="63,59.4 44.4,48.8 25.8,59.3 44.4,69.9 				"/>
				<linearGradient id="SVGID_3_" gradientUnits="userSpaceOnUse" x1="29.4875" y1="59.3503" x2="59.2766" y2="59.3503">
					<stop  offset="0" style="stop-color:#3274A6"/>
					<stop  offset="1" style="stop-color:#312A91"/>
				</linearGradient>
				<polygon class="st3" points="59.3,59.4 44.4,50.9 29.5,59.4 44.4,67.8 				"/>
				<polygon class="st4" points="44.4,67.6 29.5,59.4 44.4,67.8 59.3,59.4 				"/>
				<linearGradient id="SVGID_4_" gradientUnits="userSpaceOnUse" x1="29.4875" y1="55.2198" x2="44.3821" y2="55.2198">
					<stop  offset="0" style="stop-color:#312A91"/>
					<stop  offset="1" style="stop-color:#3274A6"/>
				</linearGradient>
				<polygon class="st5" points="44.4,50.9 29.5,59.4 29.8,59.5 44.4,51.2 				"/>
				<linearGradient id="SVGID_5_" gradientUnits="userSpaceOnUse" x1="44.3821" y1="55.2198" x2="59.2766" y2="55.2198">
					<stop  offset="0" style="stop-color:#312A91"/>
					<stop  offset="1" style="stop-color:#3274A6"/>
				</linearGradient>
				<polygon class="st6" points="44.4,50.9 44.4,51.2 59,59.5 59.3,59.4 				"/>
				<linearGradient id="SVGID_6_" gradientUnits="userSpaceOnUse" x1="33.056" y1="61.1964" x2="44.3821" y2="61.1964">
					<stop  offset="0" style="stop-color:#40E5DF;stop-opacity:0.5"/>
					<stop  offset="1" style="stop-color:#42E7E1"/>
				</linearGradient>
				<polygon class="st7" points="44.4,62.9 33.1,56.5 33.1,59.5 44.4,65.9 				"/>
				<linearGradient id="SVGID_7_" gradientUnits="userSpaceOnUse" x1="44.3821" y1="61.1964" x2="55.7081" y2="61.1964">
					<stop  offset="0" style="stop-color:#42E7E1;stop-opacity:0.9"/>
					<stop  offset="1" style="stop-color:#40E5DF;stop-opacity:0.5"/>
				</linearGradient>
				<polygon class="st8" points="55.7,59.5 44.4,65.9 44.4,62.9 55.7,56.5 				"/>
			</g>
			<g>
				<linearGradient id="SVGID_8_" gradientUnits="userSpaceOnUse" x1="25.7639" y1="56.5306" x2="44.3821" y2="56.5306">
					<stop  offset="0" style="stop-color:#378CB3"/>
					<stop  offset="1" style="stop-color:#312B8F"/>
				</linearGradient>
				<polygon class="st9" points="44.4,60.7 25.8,50.2 25.8,52.3 44.4,62.9 				"/>
				<linearGradient id="SVGID_9_" gradientUnits="userSpaceOnUse" x1="44.3821" y1="56.5306" x2="63.0003" y2="56.5306">
					<stop  offset="0" style="stop-color:#251B71"/>
					<stop  offset="1" style="stop-color:#1B105F"/>
				</linearGradient>
				<polygon class="st10" points="44.4,62.9 63,52.3 63,50.2 44.4,60.7 				"/>
				<polygon class="st2" points="63,50.2 44.4,39.7 25.8,50.2 44.4,60.7 				"/>
				<linearGradient id="SVGID_10_" gradientUnits="userSpaceOnUse" x1="29.4875" y1="50.2053" x2="59.2766" y2="50.2053">
					<stop  offset="0" style="stop-color:#3274A6"/>
					<stop  offset="1" style="stop-color:#312A91"/>
				</linearGradient>
				<polygon class="st11" points="59.3,50.2 44.4,41.8 29.5,50.2 44.4,58.6 				"/>
				<polygon class="st4" points="44.4,58.5 29.5,50.2 44.4,58.6 59.3,50.2 				"/>
				<linearGradient id="SVGID_11_" gradientUnits="userSpaceOnUse" x1="29.4875" y1="46.0748" x2="44.3821" y2="46.0748">
					<stop  offset="0" style="stop-color:#312A91"/>
					<stop  offset="1" style="stop-color:#3274A6"/>
				</linearGradient>
				<polygon class="st12" points="44.4,41.8 29.5,50.2 29.8,50.4 44.4,42.1 				"/>
				<linearGradient id="SVGID_12_" gradientUnits="userSpaceOnUse" x1="44.3821" y1="46.0748" x2="59.2766" y2="46.0748">
					<stop  offset="0" style="stop-color:#312A91"/>
					<stop  offset="1" style="stop-color:#3274A6"/>
				</linearGradient>
				<polygon class="st13" points="44.4,41.8 44.4,42.1 59,50.4 59.3,50.2 				"/>
				<linearGradient id="SVGID_13_" gradientUnits="userSpaceOnUse" x1="33.056" y1="52.0515" x2="44.3821" y2="52.0515">
					<stop  offset="0" style="stop-color:#40E5DF;stop-opacity:0.5"/>
					<stop  offset="1" style="stop-color:#42E7E1"/>
				</linearGradient>
				<polygon class="st14" points="44.4,53.7 33.1,47.3 33.1,50.4 44.4,56.8 				"/>
				<linearGradient id="SVGID_14_" gradientUnits="userSpaceOnUse" x1="44.3821" y1="52.0515" x2="55.7081" y2="52.0515">
					<stop  offset="0" style="stop-color:#42E7E1;stop-opacity:0.9"/>
					<stop  offset="1" style="stop-color:#40E5DF;stop-opacity:0.5"/>
				</linearGradient>
				<polygon class="st15" points="55.7,50.4 44.4,56.8 44.4,53.7 55.7,47.3 				"/>
			</g>
			<g>
				<linearGradient id="SVGID_15_" gradientUnits="userSpaceOnUse" x1="25.7639" y1="47.3856" x2="44.3821" y2="47.3856">
					<stop  offset="0" style="stop-color:#378CB3"/>
					<stop  offset="1" style="stop-color:#312B8F"/>
				</linearGradient>
				<polygon class="st16" points="44.4,51.6 25.8,41.1 25.8,43.2 44.4,53.7 				"/>
				<linearGradient id="SVGID_16_" gradientUnits="userSpaceOnUse" x1="44.3821" y1="47.3856" x2="63.0003" y2="47.3856">
					<stop  offset="0" style="stop-color:#251B71"/>
					<stop  offset="1" style="stop-color:#1B105F"/>
				</linearGradient>
				<polygon class="st17" points="44.4,53.7 63,43.2 63,41.1 44.4,51.6 				"/>
				<polygon class="st2" points="63,41.1 44.4,30.5 25.8,41.1 44.4,51.6 				"/>
				<linearGradient id="SVGID_17_" gradientUnits="userSpaceOnUse" x1="29.4875" y1="41.0603" x2="59.2766" y2="41.0603">
					<stop  offset="0" style="stop-color:#3274A6"/>
					<stop  offset="1" style="stop-color:#312A91"/>
				</linearGradient>
				<polygon class="st18" points="59.3,41.1 44.4,32.6 29.5,41.1 44.4,49.5 				"/>
				<polygon class="st4" points="44.4,49.3 29.5,41.1 44.4,49.5 59.3,41.1 				"/>
				<linearGradient id="SVGID_18_" gradientUnits="userSpaceOnUse" x1="29.4875" y1="36.9299" x2="44.3821" y2="36.9299">
					<stop  offset="0" style="stop-color:#312A91"/>
					<stop  offset="1" style="stop-color:#3274A6"/>
				</linearGradient>
				<polygon class="st19" points="44.4,32.6 29.5,41.1 29.8,41.2 44.4,33 				"/>
				<linearGradient id="SVGID_19_" gradientUnits="userSpaceOnUse" x1="44.3821" y1="36.9299" x2="59.2766" y2="36.9299">
					<stop  offset="0" style="stop-color:#312A91"/>
					<stop  offset="1" style="stop-color:#3274A6"/>
				</linearGradient>
				<polygon class="st20" points="44.4,32.6 44.4,33 59,41.2 59.3,41.1 				"/>
				<linearGradient id="SVGID_20_" gradientUnits="userSpaceOnUse" x1="33.056" y1="42.9065" x2="44.3821" y2="42.9065">
					<stop  offset="0" style="stop-color:#40E5DF;stop-opacity:0.5"/>
					<stop  offset="1" style="stop-color:#42E7E1"/>
				</linearGradient>
				<polygon class="st21" points="44.4,44.6 33.1,38.2 33.1,41.2 44.4,47.6 				"/>
				<linearGradient id="SVGID_21_" gradientUnits="userSpaceOnUse" x1="44.3821" y1="42.9065" x2="55.7081" y2="42.9065">
					<stop  offset="0" style="stop-color:#42E7E1;stop-opacity:0.9"/>
					<stop  offset="1" style="stop-color:#40E5DF;stop-opacity:0.5"/>
				</linearGradient>
				<polygon class="st22" points="55.7,41.2 44.4,47.6 44.4,44.6 55.7,38.2 				"/>
			</g>
			<linearGradient id="SVGID_22_" gradientUnits="userSpaceOnUse" x1="25.7639" y1="38.2407" x2="44.3821" y2="38.2407">
				<stop  offset="0" style="stop-color:#378CB3"/>
				<stop  offset="1" style="stop-color:#312B8F"/>
			</linearGradient>
			<polygon class="st23" points="44.4,42.4 25.8,31.9 25.8,34 44.4,44.6 			"/>
			<linearGradient id="SVGID_23_" gradientUnits="userSpaceOnUse" x1="44.3821" y1="38.2407" x2="63.0003" y2="38.2407">
				<stop  offset="0" style="stop-color:#251B71"/>
				<stop  offset="1" style="stop-color:#1B105F"/>
			</linearGradient>
			<polygon class="st24" points="44.4,44.6 63,34 63,31.9 44.4,42.4 			"/>
			<polygon class="st2" points="63,31.9 44.4,21.4 25.8,31.9 44.4,42.4 			"/>
			<linearGradient id="SVGID_24_" gradientUnits="userSpaceOnUse" x1="29.4875" y1="31.9154" x2="59.2766" y2="31.9154">
				<stop  offset="0" style="stop-color:#3274A6"/>
				<stop  offset="1" style="stop-color:#312A91"/>
			</linearGradient>
			<polygon class="st25" points="59.3,31.9 44.4,23.5 29.5,31.9 44.4,40.3 			"/>
			<polygon class="st4" points="44.4,40.2 29.5,31.9 44.4,40.3 59.3,31.9 			"/>
			<linearGradient id="SVGID_25_" gradientUnits="userSpaceOnUse" x1="29.4875" y1="27.7849" x2="44.3821" y2="27.7849">
				<stop  offset="0" style="stop-color:#312A91"/>
				<stop  offset="1" style="stop-color:#3274A6"/>
			</linearGradient>
			<polygon class="st26" points="44.4,23.5 29.5,31.9 29.8,32.1 44.4,23.8 			"/>
			<linearGradient id="SVGID_26_" gradientUnits="userSpaceOnUse" x1="44.3821" y1="27.7849" x2="59.2766" y2="27.7849">
				<stop  offset="0" style="stop-color:#312A91"/>
				<stop  offset="1" style="stop-color:#3274A6"/>
			</linearGradient>
			<polygon class="st27" points="44.4,23.5 44.4,23.8 59,32.1 59.3,31.9 			"/>
			<linearGradient id="SVGID_27_" gradientUnits="userSpaceOnUse" x1="44.3821" y1="38.4998" x2="44.3821" y2="25.7044">
				<stop  offset="0" style="stop-color:#42E7E1"/>
				<stop  offset="1" style="stop-color:#40E5DF;stop-opacity:0"/>
			</linearGradient>
			<polygon class="st28" points="33.1,32.1 44.4,38.5 55.7,32.1 55.7,32.1 44.4,25.7 			"/>
			<g>
				<path class="st29" d="M44.4,28l7.3,4.1l-7.3,4.1l-7.3-4.1L44.4,28 M44.4,25.7l-11.3,6.4l11.3,6.4l11.3-6.4L44.4,25.7L44.4,25.7z
					"/>
			</g>
			<linearGradient id="SVGID_28_" gradientUnits="userSpaceOnUse" x1="44.3821" y1="39.0461" x2="44.3821" y2="1.2193">
				<stop  offset="0" style="stop-color:#42E7E1;stop-opacity:0.7"/>
				<stop  offset="1" style="stop-color:#40E5DF;stop-opacity:0"/>
			</linearGradient>
			<polygon class="st30" points="33.1,0 33.1,32.1 44.4,38.5 55.7,32.1 55.7,0 			"/>
			<g>
				<g>
					<g>
						<g>
							<linearGradient id="SVGID_29_" gradientUnits="userSpaceOnUse" x1="37.4003" y1="11.2796" x2="37.4003" y2="10.0603">
								<stop  offset="0" style="stop-color:#42E7E1"/>
								<stop  offset="1" style="stop-color:#40E5DF;stop-opacity:0"/>
							</linearGradient>
							<rect x="37.1" y="10.1" class="st31" width="0.6" height="1.2"/>
						</g>
						<g>
							<linearGradient id="SVGID_30_" gradientUnits="userSpaceOnUse" x1="37.4003" y1="11.9479" x2="37.4003" y2="11.6138">
								<stop  offset="0" style="stop-color:#42E7E1"/>
								<stop  offset="1" style="stop-color:#40E5DF;stop-opacity:0"/>
							</linearGradient>
							<rect x="37.1" y="11.6" class="st32" width="0.6" height="0.3"/>
						</g>
						<g>
							<linearGradient id="SVGID_31_" gradientUnits="userSpaceOnUse" x1="37.4003" y1="26.9844" x2="37.4003" y2="13.6186">
								<stop  offset="0" style="stop-color:#42E7E1"/>
								<stop  offset="1" style="stop-color:#40E5DF;stop-opacity:0"/>
							</linearGradient>
							<path class="st33" d="M37.7,27h-0.6v-0.3h0.6V27z M37.7,26.3h-0.6v-2.7h0.6V26.3z M37.7,22h-0.6v-0.3h0.6V22z M37.7,21.3
								h-0.6v-2.7h0.6V21.3z M37.7,17h-0.6v-0.3h0.6V17z M37.7,16.3h-0.6v-2.7h0.6V16.3z"/>
						</g>
						<g>
							<linearGradient id="SVGID_32_" gradientUnits="userSpaceOnUse" x1="37.4003" y1="29.8744" x2="37.4003" y2="28.6551">
								<stop  offset="0" style="stop-color:#42E7E1"/>
								<stop  offset="1" style="stop-color:#40E5DF;stop-opacity:0"/>
							</linearGradient>
							<rect x="37.1" y="28.7" class="st34" width="0.6" height="1.2"/>
						</g>
					</g>
					<g>
						<g>
							<linearGradient id="SVGID_33_" gradientUnits="userSpaceOnUse" x1="38.9518" y1="14.3279" x2="38.9518" y2="13.1086">
								<stop  offset="0" style="stop-color:#42E7E1"/>
								<stop  offset="1" style="stop-color:#40E5DF;stop-opacity:0"/>
							</linearGradient>
							<rect x="38.6" y="13.1" class="st35" width="0.6" height="1.2"/>
						</g>
						<g>
							<linearGradient id="SVGID_34_" gradientUnits="userSpaceOnUse" x1="38.9518" y1="14.9963" x2="38.9518" y2="14.6621">
								<stop  offset="0" style="stop-color:#42E7E1"/>
								<stop  offset="1" style="stop-color:#40E5DF;stop-opacity:0"/>
							</linearGradient>
							<rect x="38.6" y="14.7" class="st36" width="0.6" height="0.3"/>
						</g>
						<g>
							<linearGradient id="SVGID_35_" gradientUnits="userSpaceOnUse" x1="38.9518" y1="30.0327" x2="38.9518" y2="16.667">
								<stop  offset="0" style="stop-color:#42E7E1"/>
								<stop  offset="1" style="stop-color:#40E5DF;stop-opacity:0"/>
							</linearGradient>
							<path class="st37" d="M39.3,30h-0.6v-0.3h0.6V30z M39.3,29.4h-0.6v-2.7h0.6V29.4z M39.3,25h-0.6v-0.3h0.6V25z M39.3,24.4
								h-0.6v-2.7h0.6V24.4z M39.3,20h-0.6v-0.3h0.6V20z M39.3,19.3h-0.6v-2.7h0.6V19.3z"/>
						</g>
						<g>
							<linearGradient id="SVGID_36_" gradientUnits="userSpaceOnUse" x1="38.9518" y1="32.9227" x2="38.9518" y2="31.7034">
								<stop  offset="0" style="stop-color:#42E7E1"/>
								<stop  offset="1" style="stop-color:#40E5DF;stop-opacity:0"/>
							</linearGradient>
							<rect x="38.6" y="31.7" class="st38" width="0.6" height="1.2"/>
						</g>
					</g>
					<g>
						<g>
							<linearGradient id="SVGID_37_" gradientUnits="userSpaceOnUse" x1="49.8124" y1="11.2796" x2="49.8124" y2="10.0603">
								<stop  offset="0" style="stop-color:#42E7E1"/>
								<stop  offset="1" style="stop-color:#40E5DF;stop-opacity:0"/>
							</linearGradient>
							<rect x="49.5" y="10.1" class="st39" width="0.6" height="1.2"/>
						</g>
						<g>
							<linearGradient id="SVGID_38_" gradientUnits="userSpaceOnUse" x1="49.8124" y1="11.9479" x2="49.8124" y2="11.6138">
								<stop  offset="0" style="stop-color:#42E7E1"/>
								<stop  offset="1" style="stop-color:#40E5DF;stop-opacity:0"/>
							</linearGradient>
							<rect x="49.5" y="11.6" class="st40" width="0.6" height="0.3"/>
						</g>
						<g>
							<linearGradient id="SVGID_39_" gradientUnits="userSpaceOnUse" x1="49.8124" y1="26.9844" x2="49.8124" y2="13.6186">
								<stop  offset="0" style="stop-color:#42E7E1"/>
								<stop  offset="1" style="stop-color:#40E5DF;stop-opacity:0"/>
							</linearGradient>
							<path class="st41" d="M50.1,27h-0.6v-0.3h0.6V27z M50.1,26.3h-0.6v-2.7h0.6V26.3z M50.1,22h-0.6v-0.3h0.6V22z M50.1,21.3
								h-0.6v-2.7h0.6V21.3z M50.1,17h-0.6v-0.3h0.6V17z M50.1,16.3h-0.6v-2.7h0.6V16.3z"/>
						</g>
						<g>
							<linearGradient id="SVGID_40_" gradientUnits="userSpaceOnUse" x1="49.8124" y1="29.8744" x2="49.8124" y2="28.6551">
								<stop  offset="0" style="stop-color:#42E7E1"/>
								<stop  offset="1" style="stop-color:#40E5DF;stop-opacity:0"/>
							</linearGradient>
							<rect x="49.5" y="28.7" class="st42" width="0.6" height="1.2"/>
						</g>
					</g>
					<g>
						<g>
							<linearGradient id="SVGID_41_" gradientUnits="userSpaceOnUse" x1="51.3639" y1="14.3279" x2="51.3639" y2="13.1086">
								<stop  offset="0" style="stop-color:#42E7E1"/>
								<stop  offset="1" style="stop-color:#40E5DF;stop-opacity:0"/>
							</linearGradient>
							<rect x="51.1" y="13.1" class="st43" width="0.6" height="1.2"/>
						</g>
						<g>
							<linearGradient id="SVGID_42_" gradientUnits="userSpaceOnUse" x1="51.3639" y1="14.9963" x2="51.3639" y2="14.6621">
								<stop  offset="0" style="stop-color:#42E7E1"/>
								<stop  offset="1" style="stop-color:#40E5DF;stop-opacity:0"/>
							</linearGradient>
							<rect x="51.1" y="14.7" class="st44" width="0.6" height="0.3"/>
						</g>
						<g>
							<linearGradient id="SVGID_43_" gradientUnits="userSpaceOnUse" x1="51.3639" y1="30.0327" x2="51.3639" y2="16.667">
								<stop  offset="0" style="stop-color:#42E7E1"/>
								<stop  offset="1" style="stop-color:#40E5DF;stop-opacity:0"/>
							</linearGradient>
							<path class="st45" d="M51.7,30h-0.6v-0.3h0.6V30z M51.7,29.4h-0.6v-2.7h0.6V29.4z M51.7,25h-0.6v-0.3h0.6V25z M51.7,24.4
								h-0.6v-2.7h0.6V24.4z M51.7,20h-0.6v-0.3h0.6V20z M51.7,19.3h-0.6v-2.7h0.6V19.3z"/>
						</g>
						<g>
							<linearGradient id="SVGID_44_" gradientUnits="userSpaceOnUse" x1="51.3639" y1="32.9227" x2="51.3639" y2="31.7034">
								<stop  offset="0" style="stop-color:#42E7E1"/>
								<stop  offset="1" style="stop-color:#40E5DF;stop-opacity:0"/>
							</linearGradient>
							<rect x="51.1" y="31.7" class="st46" width="0.6" height="1.2"/>
						</g>
					</g>
				</g>
				<g>
					<g>
						<g>
							<linearGradient id="SVGID_45_" gradientUnits="userSpaceOnUse" x1="43.6063" y1="6.7071" x2="43.6063" y2="5.4878">
								<stop  offset="0" style="stop-color:#42E7E1"/>
								<stop  offset="1" style="stop-color:#40E5DF;stop-opacity:0"/>
							</linearGradient>
							<rect x="43.3" y="5.5" class="st47" width="0.6" height="1.2"/>
						</g>
						<g>
							<linearGradient id="SVGID_46_" gradientUnits="userSpaceOnUse" x1="43.6063" y1="7.3754" x2="43.6063" y2="7.0413">
								<stop  offset="0" style="stop-color:#42E7E1"/>
								<stop  offset="1" style="stop-color:#40E5DF;stop-opacity:0"/>
							</linearGradient>
							<rect x="43.3" y="7" class="st48" width="0.6" height="0.3"/>
						</g>
						<g>
							<linearGradient id="SVGID_47_" gradientUnits="userSpaceOnUse" x1="43.6063" y1="22.4119" x2="43.6063" y2="9.0461">
								<stop  offset="0" style="stop-color:#42E7E1"/>
								<stop  offset="1" style="stop-color:#40E5DF;stop-opacity:0"/>
							</linearGradient>
							<path class="st49" d="M43.9,22.4h-0.6v-0.3h0.6V22.4z M43.9,21.7h-0.6v-2.7h0.6V21.7z M43.9,17.4h-0.6v-0.3h0.6V17.4z
								 M43.9,16.7h-0.6v-2.7h0.6V16.7z M43.9,12.4h-0.6v-0.3h0.6V12.4z M43.9,11.7h-0.6V9h0.6V11.7z"/>
						</g>
						<g>
							<linearGradient id="SVGID_48_" gradientUnits="userSpaceOnUse" x1="43.6063" y1="25.3019" x2="43.6063" y2="24.0826">
								<stop  offset="0" style="stop-color:#42E7E1"/>
								<stop  offset="1" style="stop-color:#40E5DF;stop-opacity:0"/>
							</linearGradient>
							<rect x="43.3" y="24.1" class="st50" width="0.6" height="1.2"/>
						</g>
					</g>
					<g>
						<g>
							<linearGradient id="SVGID_49_" gradientUnits="userSpaceOnUse" x1="45.1578" y1="9.7555" x2="45.1578" y2="8.5361">
								<stop  offset="0" style="stop-color:#42E7E1"/>
								<stop  offset="1" style="stop-color:#40E5DF;stop-opacity:0"/>
							</linearGradient>
							<rect x="44.8" y="8.5" class="st51" width="0.6" height="1.2"/>
						</g>
						<g>
							<linearGradient id="SVGID_50_" gradientUnits="userSpaceOnUse" x1="45.1578" y1="10.4238" x2="45.1578" y2="10.0896">
								<stop  offset="0" style="stop-color:#42E7E1"/>
								<stop  offset="1" style="stop-color:#40E5DF;stop-opacity:0"/>
							</linearGradient>
							<rect x="44.8" y="10.1" class="st52" width="0.6" height="0.3"/>
						</g>
						<g>
							<linearGradient id="SVGID_51_" gradientUnits="userSpaceOnUse" x1="45.1578" y1="25.4602" x2="45.1578" y2="12.0945">
								<stop  offset="0" style="stop-color:#42E7E1"/>
								<stop  offset="1" style="stop-color:#40E5DF;stop-opacity:0"/>
							</linearGradient>
							<path class="st53" d="M45.5,25.5h-0.6v-0.3h0.6V25.5z M45.5,24.8h-0.6v-2.7h0.6V24.8z M45.5,20.4h-0.6v-0.3h0.6V20.4z
								 M45.5,19.8h-0.6v-2.7h0.6V19.8z M45.5,15.4h-0.6v-0.3h0.6V15.4z M45.5,14.8h-0.6v-2.7h0.6V14.8z"/>
						</g>
						<g>
							<linearGradient id="SVGID_52_" gradientUnits="userSpaceOnUse" x1="45.1578" y1="28.3502" x2="45.1578" y2="27.1309">
								<stop  offset="0" style="stop-color:#42E7E1"/>
								<stop  offset="1" style="stop-color:#40E5DF;stop-opacity:0"/>
							</linearGradient>
							<rect x="44.8" y="27.1" class="st54" width="0.6" height="1.2"/>
						</g>
					</g>
				</g>
			</g>
		</g>
	</g>
	<g>
		<g>
			<linearGradient id="SVGID_53_" gradientUnits="userSpaceOnUse" x1="2.713751e-04" y1="58.6915" x2="13.033" y2="58.6915">
				<stop  offset="0" style="stop-color:#378CB3"/>
				<stop  offset="1" style="stop-color:#312B8F"/>
			</linearGradient>
			<polygon class="st55" points="13,61.6 0,54.3 0,55.8 13,63.1 			"/>
			<linearGradient id="SVGID_54_" gradientUnits="userSpaceOnUse" x1="13.033" y1="58.6915" x2="26.0657" y2="58.6915">
				<stop  offset="0" style="stop-color:#251B71"/>
				<stop  offset="1" style="stop-color:#1B105F"/>
			</linearGradient>
			<polygon class="st56" points="13,63.1 26.1,55.8 26.1,54.3 13,61.6 			"/>
			<polygon class="st2" points="26.1,54.3 13,46.9 0,54.3 13,61.6 			"/>
			<linearGradient id="SVGID_55_" gradientUnits="userSpaceOnUse" x1="2.6068" y1="54.2638" x2="23.4592" y2="54.2638">
				<stop  offset="0" style="stop-color:#3274A6"/>
				<stop  offset="1" style="stop-color:#312A91"/>
			</linearGradient>
			<polygon class="st57" points="23.5,54.3 13,48.4 2.6,54.3 13,60.2 			"/>
			<polygon class="st4" points="13,60 2.6,54.3 13,60.2 23.5,54.3 			"/>
			<linearGradient id="SVGID_56_" gradientUnits="userSpaceOnUse" x1="2.6068" y1="51.3724" x2="13.033" y2="51.3724">
				<stop  offset="0" style="stop-color:#312A91"/>
				<stop  offset="1" style="stop-color:#3274A6"/>
			</linearGradient>
			<polygon class="st58" points="13,48.4 2.6,54.3 2.8,54.4 13,48.6 			"/>
			<linearGradient id="SVGID_57_" gradientUnits="userSpaceOnUse" x1="13.033" y1="51.3724" x2="23.4592" y2="51.3724">
				<stop  offset="0" style="stop-color:#312A91"/>
				<stop  offset="1" style="stop-color:#3274A6"/>
			</linearGradient>
			<polygon class="st59" points="13,48.4 13,48.6 23.3,54.4 23.5,54.3 			"/>
			<linearGradient id="SVGID_58_" gradientUnits="userSpaceOnUse" x1="5.1048" y1="55.5561" x2="13.033" y2="55.5561">
				<stop  offset="0" style="stop-color:#40E5DF;stop-opacity:0.5"/>
				<stop  offset="1" style="stop-color:#42E7E1"/>
			</linearGradient>
			<polygon class="st60" points="13,56.7 5.1,52.2 5.1,54.4 13,58.9 			"/>
			<linearGradient id="SVGID_59_" gradientUnits="userSpaceOnUse" x1="13.033" y1="55.5561" x2="20.9612" y2="55.5561">
				<stop  offset="0" style="stop-color:#42E7E1;stop-opacity:0.9"/>
				<stop  offset="1" style="stop-color:#40E5DF;stop-opacity:0.5"/>
			</linearGradient>
			<polygon class="st61" points="21,54.4 13,58.9 13,56.7 21,52.2 			"/>
		</g>
		<g>
			<linearGradient id="SVGID_60_" gradientUnits="userSpaceOnUse" x1="2.713751e-04" y1="52.29" x2="13.033" y2="52.29">
				<stop  offset="0" style="stop-color:#378CB3"/>
				<stop  offset="1" style="stop-color:#312B8F"/>
			</linearGradient>
			<polygon class="st62" points="13,55.2 0,47.9 0,49.4 13,56.7 			"/>
			<linearGradient id="SVGID_61_" gradientUnits="userSpaceOnUse" x1="13.033" y1="52.29" x2="26.0657" y2="52.29">
				<stop  offset="0" style="stop-color:#251B71"/>
				<stop  offset="1" style="stop-color:#1B105F"/>
			</linearGradient>
			<polygon class="st63" points="13,56.7 26.1,49.4 26.1,47.9 13,55.2 			"/>
			<polygon class="st2" points="26.1,47.9 13,40.5 0,47.9 13,55.2 			"/>
			<linearGradient id="SVGID_62_" gradientUnits="userSpaceOnUse" x1="2.6068" y1="47.8623" x2="23.4592" y2="47.8623">
				<stop  offset="0" style="stop-color:#3274A6"/>
				<stop  offset="1" style="stop-color:#312A91"/>
			</linearGradient>
			<polygon class="st64" points="23.5,47.9 13,42 2.6,47.9 13,53.8 			"/>
			<polygon class="st4" points="13,53.6 2.6,47.9 13,53.8 23.5,47.9 			"/>
			<linearGradient id="SVGID_63_" gradientUnits="userSpaceOnUse" x1="2.6068" y1="44.971" x2="13.033" y2="44.971">
				<stop  offset="0" style="stop-color:#312A91"/>
				<stop  offset="1" style="stop-color:#3274A6"/>
			</linearGradient>
			<polygon class="st65" points="13,42 2.6,47.9 2.8,48 13,42.2 			"/>
			<linearGradient id="SVGID_64_" gradientUnits="userSpaceOnUse" x1="13.033" y1="44.971" x2="23.4592" y2="44.971">
				<stop  offset="0" style="stop-color:#312A91"/>
				<stop  offset="1" style="stop-color:#3274A6"/>
			</linearGradient>
			<polygon class="st66" points="13,42 13,42.2 23.3,48 23.5,47.9 			"/>
			<linearGradient id="SVGID_65_" gradientUnits="userSpaceOnUse" x1="5.1048" y1="49.1546" x2="13.033" y2="49.1546">
				<stop  offset="0" style="stop-color:#40E5DF;stop-opacity:0.5"/>
				<stop  offset="1" style="stop-color:#42E7E1"/>
			</linearGradient>
			<polygon class="st67" points="13,50.3 5.1,45.8 5.1,48 13,52.5 			"/>
			<linearGradient id="SVGID_66_" gradientUnits="userSpaceOnUse" x1="13.033" y1="49.1546" x2="20.9612" y2="49.1546">
				<stop  offset="0" style="stop-color:#42E7E1;stop-opacity:0.9"/>
				<stop  offset="1" style="stop-color:#40E5DF;stop-opacity:0.5"/>
			</linearGradient>
			<polygon class="st68" points="21,48 13,52.5 13,50.3 21,45.8 			"/>
		</g>
		<g>
			<linearGradient id="SVGID_67_" gradientUnits="userSpaceOnUse" x1="2.713751e-04" y1="45.8885" x2="13.033" y2="45.8885">
				<stop  offset="0" style="stop-color:#378CB3"/>
				<stop  offset="1" style="stop-color:#312B8F"/>
			</linearGradient>
			<polygon class="st69" points="13,48.8 0,41.5 0,43 13,50.3 			"/>
			<linearGradient id="SVGID_68_" gradientUnits="userSpaceOnUse" x1="13.033" y1="45.8885" x2="26.0657" y2="45.8885">
				<stop  offset="0" style="stop-color:#251B71"/>
				<stop  offset="1" style="stop-color:#1B105F"/>
			</linearGradient>
			<polygon class="st70" points="13,50.3 26.1,43 26.1,41.5 13,48.8 			"/>
			<polygon class="st2" points="26.1,41.5 13,34.1 0,41.5 13,48.8 			"/>
			<linearGradient id="SVGID_69_" gradientUnits="userSpaceOnUse" x1="2.6068" y1="41.4608" x2="23.4592" y2="41.4608">
				<stop  offset="0" style="stop-color:#3274A6"/>
				<stop  offset="1" style="stop-color:#312A91"/>
			</linearGradient>
			<polygon class="st71" points="23.5,41.5 13,35.6 2.6,41.5 13,47.4 			"/>
			<polygon class="st4" points="13,47.2 2.6,41.5 13,47.4 23.5,41.5 			"/>
			<linearGradient id="SVGID_70_" gradientUnits="userSpaceOnUse" x1="2.6068" y1="38.5695" x2="13.033" y2="38.5695">
				<stop  offset="0" style="stop-color:#312A91"/>
				<stop  offset="1" style="stop-color:#3274A6"/>
			</linearGradient>
			<polygon class="st72" points="13,35.6 2.6,41.5 2.8,41.6 13,35.8 			"/>
			<linearGradient id="SVGID_71_" gradientUnits="userSpaceOnUse" x1="13.033" y1="38.5695" x2="23.4592" y2="38.5695">
				<stop  offset="0" style="stop-color:#312A91"/>
				<stop  offset="1" style="stop-color:#3274A6"/>
			</linearGradient>
			<polygon class="st73" points="13,35.6 13,35.8 23.3,41.6 23.5,41.5 			"/>
			<linearGradient id="SVGID_72_" gradientUnits="userSpaceOnUse" x1="5.1048" y1="42.7531" x2="13.033" y2="42.7531">
				<stop  offset="0" style="stop-color:#40E5DF;stop-opacity:0.5"/>
				<stop  offset="1" style="stop-color:#42E7E1"/>
			</linearGradient>
			<polygon class="st74" points="13,43.9 5.1,39.4 5.1,41.6 13,46.1 			"/>
			<linearGradient id="SVGID_73_" gradientUnits="userSpaceOnUse" x1="13.033" y1="42.7531" x2="20.9612" y2="42.7531">
				<stop  offset="0" style="stop-color:#42E7E1;stop-opacity:0.9"/>
				<stop  offset="1" style="stop-color:#40E5DF;stop-opacity:0.5"/>
			</linearGradient>
			<polygon class="st75" points="21,41.6 13,46.1 13,43.9 21,39.4 			"/>
		</g>
		<linearGradient id="SVGID_74_" gradientUnits="userSpaceOnUse" x1="2.713751e-04" y1="39.487" x2="13.033" y2="39.487">
			<stop  offset="0" style="stop-color:#378CB3"/>
			<stop  offset="1" style="stop-color:#312B8F"/>
		</linearGradient>
		<polygon class="st76" points="13,42.4 0,35.1 0,36.6 13,43.9 		"/>
		<linearGradient id="SVGID_75_" gradientUnits="userSpaceOnUse" x1="13.033" y1="39.487" x2="26.0657" y2="39.487">
			<stop  offset="0" style="stop-color:#251B71"/>
			<stop  offset="1" style="stop-color:#1B105F"/>
		</linearGradient>
		<polygon class="st77" points="13,43.9 26.1,36.6 26.1,35.1 13,42.4 		"/>
		<polygon class="st2" points="26.1,35.1 13,27.7 0,35.1 13,42.4 		"/>
		<linearGradient id="SVGID_76_" gradientUnits="userSpaceOnUse" x1="2.6068" y1="35.0593" x2="23.4592" y2="35.0593">
			<stop  offset="0" style="stop-color:#3274A6"/>
			<stop  offset="1" style="stop-color:#312A91"/>
		</linearGradient>
		<polygon class="st78" points="23.5,35.1 13,29.2 2.6,35.1 13,40.9 		"/>
		<polygon class="st4" points="13,40.8 2.6,35.1 13,40.9 23.5,35.1 		"/>
		<linearGradient id="SVGID_77_" gradientUnits="userSpaceOnUse" x1="2.6068" y1="32.168" x2="13.033" y2="32.168">
			<stop  offset="0" style="stop-color:#312A91"/>
			<stop  offset="1" style="stop-color:#3274A6"/>
		</linearGradient>
		<polygon class="st79" points="13,29.2 2.6,35.1 2.8,35.2 13,29.4 		"/>
		<linearGradient id="SVGID_78_" gradientUnits="userSpaceOnUse" x1="13.033" y1="32.168" x2="23.4592" y2="32.168">
			<stop  offset="0" style="stop-color:#312A91"/>
			<stop  offset="1" style="stop-color:#3274A6"/>
		</linearGradient>
		<polygon class="st80" points="13,29.2 13,29.4 23.3,35.2 23.5,35.1 		"/>
		<linearGradient id="SVGID_79_" gradientUnits="userSpaceOnUse" x1="13.033" y1="39.6684" x2="13.033" y2="30.7117">
			<stop  offset="0" style="stop-color:#42E7E1"/>
			<stop  offset="1" style="stop-color:#40E5DF;stop-opacity:0"/>
		</linearGradient>
		<polygon class="st81" points="5.1,35.2 13,39.7 21,35.2 21,35.2 13,30.7 		"/>
		<g>
			<path class="st29" d="M13,33l3.9,2.2L13,37.4l-3.9-2.2L13,33 M13,30.7l-7.9,4.5l7.9,4.5l7.9-4.5v0L13,30.7L13,30.7z"/>
		</g>
	</g>
</g>
</svg>
