<?xml version="1.0" encoding="utf-8"?>
<!-- Generator: Adobe Illustrator 22.1.0, SVG Export Plug-In . SVG Version: 6.00 Build 0)  -->
<svg version="1.1" id="Layer_1" xmlns="http://www.w3.org/2000/svg" xmlns:xlink="http://www.w3.org/1999/xlink" x="0px" y="0px"
	 viewBox="0 0 160 156" style="enable-background:new 0 0 160 156;" xml:space="preserve">
<style type="text/css">
	.st0{fill:#080245;}
	.st1{fill:url(#SVGID_1_);}
	.st2{fill:url(#SVGID_2_);}
	.st3{fill:url(#SVGID_3_);}
	.st4{fill:url(#SVGID_4_);}
	.st5{fill:url(#SVGID_5_);}
	.st6{fill:url(#SVGID_6_);}
	.st7{fill:url(#SVGID_7_);}
	.st8{fill:url(#SVGID_8_);}
	.st9{fill:url(#SVGID_9_);}
</style>
<g>
	<path class="st0" d="M111.5,20.3v34.4c0,0.3-0.1,0.7-0.2,0.9c-0.3,0.6-1,1.1-1.8,1.1c-1.1,0-2-0.9-2-2V22.3h-91v115.3h18.2
		c1.1,0,2,0.9,2,2s-0.9,2-2,2H14.4c-1.1,0-2-0.9-2-2V20.3c0-1.1,0.9-2,2-2h95C110.6,18.2,111.5,19.1,111.5,20.3z"/>
	
		<linearGradient id="SVGID_1_" gradientUnits="userSpaceOnUse" x1="42.7" y1="-702.25" x2="85.2" y2="-702.25" gradientTransform="matrix(1 0 0 -1 0 -684)">
		<stop  offset="0.25" style="stop-color:#0069FF"/>
		<stop  offset="1" style="stop-color:#08026E"/>
	</linearGradient>
	<path class="st1" d="M85.2,26.3H42.7V15.5c0-2.9,2.4-5.3,5.3-5.3h31.8c2.9,0,5.3,2.4,5.3,5.3L85.2,26.3L85.2,26.3z"/>
	<path class="st0" d="M85.2,28.3H42.7c-1.1,0-2-0.9-2-2V15.5c0-4.1,3.3-7.4,7.4-7.4h31.7c4.1,0,7.4,3.3,7.4,7.4v10.8
		C87.2,27.4,86.3,28.3,85.2,28.3z M44.7,24.3h38.4v-8.8c0-1.9-1.5-3.4-3.4-3.4H48.1c-1.9,0-3.4,1.5-3.4,3.4
		C44.7,15.5,44.7,24.3,44.7,24.3z"/>
	
		<linearGradient id="SVGID_2_" gradientUnits="userSpaceOnUse" x1="26.5403" y1="-734.65" x2="50.8057" y2="-734.65" gradientTransform="matrix(1 0 0 -1 0 -684)">
		<stop  offset="0.25" style="stop-color:#0069FF"/>
		<stop  offset="1" style="stop-color:#08026E"/>
	</linearGradient>
	<path class="st2" d="M46.8,53.6v2c0,1.7-1.4,3-3,3H33.6c-1.7,0-3-1.4-3-3V45.5c0-1.7,1.4-3,3-3h10.1c0.5,0,1,0.1,1.5,0.4l2.5-3
		l0.1-0.1c-1.2-0.8-2.6-1.3-4.1-1.3H33.6c-3.9,0-7.1,3.2-7.1,7.1v10.1c0,3.9,3.2,7.1,7.1,7.1h10.1c3.9,0,7.1-3.2,7.1-7.1v-6.9
		L46.8,53.6z"/>
	
		<linearGradient id="SVGID_3_" gradientUnits="userSpaceOnUse" x1="52.8278" y1="-692.15" x2="75.0711" y2="-692.15" gradientTransform="matrix(1 0 0 -1 0 -684)">
		<stop  offset="0.25" style="stop-color:#0069FF"/>
		<stop  offset="1" style="stop-color:#08026E"/>
	</linearGradient>
	<path class="st3" d="M71.7,14.2H56.2c-1.8,0-3.3-1.5-3.3-3.3V5.4c0-1.8,1.5-3.3,3.3-3.3h15.6c1.8,0,3.3,1.5,3.3,3.3v5.5
		C75.1,12.7,73.6,14.2,71.7,14.2z"/>
	<g>
		
			<linearGradient id="SVGID_4_" gradientUnits="userSpaceOnUse" x1="78" y1="-790.35" x2="97.1241" y2="-790.35" gradientTransform="matrix(1 0 0 -1 0 -684)">
			<stop  offset="0.25" style="stop-color:#0069FF"/>
			<stop  offset="1" style="stop-color:#08026E"/>
		</linearGradient>
		<path class="st4" d="M78,106.4c0,2.6,1,5,2.8,6.7c3.6,3.6,9.9,3.6,13.5,0c1.8-1.8,2.8-4.2,2.8-6.7s-1-5-2.8-6.7
			c-1.8-1.8-4.2-2.8-6.7-2.8c-2.6,0-5,1-6.7,2.8C79,101.5,78,103.9,78,106.4z"/>
	</g>
	<g>
		
			<linearGradient id="SVGID_5_" gradientUnits="userSpaceOnUse" x1="58.175" y1="-790.4" x2="117.025" y2="-790.4" gradientTransform="matrix(1 0 0 -1 0 -684)">
			<stop  offset="0.25" style="stop-color:#0069FF"/>
			<stop  offset="1" style="stop-color:#08026E"/>
		</linearGradient>
		<path class="st5" d="M66.8,127.2c5.6,5.6,12.9,8.6,20.8,8.6s15.3-3.1,20.8-8.6c11.5-11.5,11.5-30.1,0-41.6
			c-5.6-5.6-13-8.6-20.8-8.6c-7.9,0-15.3,3.1-20.8,8.6C55.3,97.1,55.3,115.8,66.8,127.2z M71,106.4c0-4.4,1.7-8.6,4.9-11.7
			c3.1-3.2,7.3-4.9,11.7-4.9c4.4,0,8.6,1.7,11.7,4.9c3.2,3.1,4.9,7.3,4.9,11.7s-1.7,8.6-4.9,11.7c-3.1,3.1-7.3,4.9-11.7,4.9
			c-4.4,0-8.6-1.7-11.7-4.9C72.7,115,71,110.8,71,106.4z"/>
	</g>
	<g>
		
			<linearGradient id="SVGID_6_" gradientUnits="userSpaceOnUse" x1="38.3" y1="-790.45" x2="136.9" y2="-790.45" gradientTransform="matrix(1 0 0 -1 0 -684)">
			<stop  offset="0.25" style="stop-color:#0069FF"/>
			<stop  offset="1" style="stop-color:#08026E"/>
		</linearGradient>
		<path class="st6" d="M52.7,141.3c9.3,9.3,21.7,14.4,34.9,14.4s25.6-5.1,34.9-14.4c19.2-19.2,19.2-50.5,0-69.7
			c-9.3-9.3-21.7-14.4-34.9-14.4S62,62.3,52.7,71.6C33.5,90.8,33.5,122.1,52.7,141.3z M61.8,80.6c6.8-6.8,16-10.6,25.8-10.6
			c9.7,0,18.9,3.8,25.8,10.7c14.2,14.2,14.2,37.3,0,51.6c-6.9,6.9-16,10.7-25.8,10.7c-9.7,0-18.9-3.8-25.8-10.7
			C47.6,118,47.6,94.8,61.8,80.6z"/>
	</g>
	<g>
		
			<linearGradient id="SVGID_7_" gradientUnits="userSpaceOnUse" x1="126.6486" y1="-732.85" x2="146.3563" y2="-732.85" gradientTransform="matrix(1 0 0 -1 0 -684)">
			<stop  offset="0.25" style="stop-color:#0069FF"/>
			<stop  offset="1" style="stop-color:#08026E"/>
		</linearGradient>
		<polygon class="st7" points="128.2,64.8 146.4,46.6 144.8,32.9 126.6,51.1 		"/>
	</g>
	<g>
		
			<linearGradient id="SVGID_8_" gradientUnits="userSpaceOnUse" x1="128.1646" y1="-740.45" x2="160" y2="-740.45" gradientTransform="matrix(1 0 0 -1 0 -684)">
			<stop  offset="0.25" style="stop-color:#0069FF"/>
			<stop  offset="1" style="stop-color:#08026E"/>
		</linearGradient>
		<polygon class="st8" points="128.2,64.8 146.4,46.6 160,48.1 141.8,66.3 		"/>
	</g>
	
		<linearGradient id="SVGID_9_" gradientUnits="userSpaceOnUse" x1="26.5403" y1="-764.95" x2="46.5403" y2="-764.95" gradientTransform="matrix(1 0 0 -1 0 -684)">
		<stop  offset="0.25" style="stop-color:#0069FF"/>
		<stop  offset="1" style="stop-color:#08026E"/>
	</linearGradient>
	<path class="st9" d="M43.9,68.8H33.6c-3.9,0-7.1,3.2-7.1,7.1V86c0,3.9,3.2,7.1,7.1,7.1h1.6c1,0,1.9-0.7,2.1-1.7
		c0.2-1.3-0.8-2.4-2-2.4l0,0l0,0h-1.7c-1.7,0-3-1.4-3-3V75.9c0-1.7,1.4-3,3-3h12.9l0,0v-1.4C46.5,70,45.4,68.8,43.9,68.8z"/>
	<path class="st0" d="M95.3,48.6H60.9c-1.1,0-2-0.9-2-2s0.9-2,2-2h34.4c1.1,0,2,0.9,2,2S96.4,48.6,95.3,48.6z"/>
	<g>
		<path class="st0" d="M40.7,56.6c-0.5,0-1.1-0.2-1.4-0.6l-6.1-6c-0.8-0.8-0.8-2.1,0-2.9c0.8-0.8,2.1-0.8,2.9,0l4.5,4.5l8.7-10.4
			c0.7-0.9,2-1,2.8-0.3c0.9,0.7,1,2,0.3,2.8L42.2,55.9C41.9,56.3,41.4,56.6,40.7,56.6C40.8,56.6,40.7,56.6,40.7,56.6z"/>
	</g>
	<path class="st0" d="M71.7,16.2H56.2c-3,0-5.4-2.4-5.4-5.4V5.4c0-3,2.4-5.4,5.4-5.4h15.5c3,0,5.4,2.4,5.4,5.4v5.4
		C77.1,13.8,74.7,16.2,71.7,16.2z M56.2,4.1c-0.7,0-1.3,0.6-1.3,1.3v5.4c0,0.7,0.6,1.3,1.3,1.3h15.5c0.7,0,1.3-0.6,1.3-1.3V5.4
		c0-0.7-0.6-1.3-1.3-1.3C71.7,4.1,56.2,4.1,56.2,4.1z"/>
	<circle class="st0" cx="126.4" cy="153.7" r="2"/>
	<path class="st0" d="M126.4,156c-1.3,0-2.3-1-2.3-2.3s1-2.3,2.3-2.3s2.3,1,2.3,2.3S127.6,156,126.4,156z M126.4,151.9
		c-1,0-1.8,0.8-1.8,1.8s0.8,1.8,1.8,1.8s1.8-0.8,1.8-1.8S127.4,151.9,126.4,151.9z"/>
	<g>
		<path class="st0" d="M88.4,106.6c-0.5,0-1-0.2-1.4-0.6c-0.8-0.8-0.8-2.1,0-2.9l58-58c0.8-0.8,2.1-0.8,2.9,0c0.8,0.8,0.8,2.1,0,2.9
			l-58,58C89.4,106.4,88.9,106.6,88.4,106.6z"/>
	</g>
	<g>
		<path class="st0" d="M131,151.9c-0.5,0-1-0.2-1.4-0.6c-0.8-0.8-0.8-2.1,0-2.9c11.2-11.2,17.4-26.1,17.4-42c0-1.1,0.9-2,2-2
			s2,0.9,2,2c0,17-6.6,32.9-18.6,44.9C132,151.7,131.5,151.9,131,151.9z"/>
	</g>
	<path class="st0" d="M2.3,113.3c-1.1,0-2-0.9-2-2V50.6c0-1.1,0.9-2,2-2s2,0.9,2,2v60.7C4.3,112.4,3.4,113.3,2.3,113.3z"/>
	<circle class="st0" cx="2.3" cy="44.5" r="2"/>
	<path class="st0" d="M2.3,46.8c-1.3,0-2.3-1-2.3-2.3s1-2.3,2.3-2.3s2.3,1,2.3,2.3S3.5,46.8,2.3,46.8z M2.3,42.7
		c-1,0-1.8,0.8-1.8,1.8s0.8,1.8,1.8,1.8s1.8-0.8,1.8-1.8C4,43.5,3.3,42.7,2.3,42.7z"/>
	<path class="st0" d="M40,81.4l-4-4l0,0c-0.8-0.8-2-0.8-2.8,0s-0.8,2.1,0,2.9l3.9,3.9l0,0c0.8,0.8,2,0.8,2.8,0
		C40.8,83.4,40.8,82.1,40,81.4z"/>
</g>
</svg>
