<?xml version="1.0" encoding="utf-8"?>
<!-- Generator: Adobe Illustrator 22.1.0, SVG Export Plug-In . SVG Version: 6.00 Build 0)  -->
<svg version="1.1" id="Layer_1" xmlns="http://www.w3.org/2000/svg" xmlns:xlink="http://www.w3.org/1999/xlink" x="0px" y="0px"
	 viewBox="0 0 85.9 60" style="enable-background:new 0 0 85.9 60;" xml:space="preserve">
<style type="text/css">
	.st0{fill:url(#SVGID_1_);}
	.st1{fill:url(#SVGID_2_);}
	.st2{fill:url(#SVGID_3_);}
	.st3{fill:url(#SVGID_4_);}
	.st4{fill:#080245;}
	.st5{fill:url(#SVGID_5_);}
	.st6{fill:url(#SVGID_6_);}
</style>
<g>
	<g>
		<g>
			
				<linearGradient id="SVGID_1_" gradientUnits="userSpaceOnUse" x1="38.0895" y1="15" x2="47.6895" y2="15" gradientTransform="matrix(1 0 0 -1 0 62)">
				<stop  offset="0.25" style="stop-color:#0069FF"/>
				<stop  offset="1" style="stop-color:#08026E"/>
			</linearGradient>
			<circle class="st0" cx="42.9" cy="47" r="4.8"/>
		</g>
	</g>
	<g>
		<g>
			
				<linearGradient id="SVGID_2_" gradientUnits="userSpaceOnUse" x1="32" y1="45.4" x2="56.8" y2="45.4" gradientTransform="matrix(1 0 0 -1 0 62)">
				<stop  offset="0.25" style="stop-color:#0069FF"/>
				<stop  offset="1" style="stop-color:#08026E"/>
			</linearGradient>
			<circle class="st1" cx="44.4" cy="16.6" r="12.4"/>
		</g>
	</g>
	<g>
		<g>
			
				<linearGradient id="SVGID_3_" gradientUnits="userSpaceOnUse" x1="48.1" y1="51.9" x2="53.0194" y2="51.9" gradientTransform="matrix(1 0 0 -1 0 62)">
				<stop  offset="0.25" style="stop-color:#0069FF"/>
				<stop  offset="1" style="stop-color:#08026E"/>
			</linearGradient>
			<circle class="st2" cx="50.6" cy="10.1" r="2.5"/>
		</g>
	</g>
	<g>
		<g>
			
				<linearGradient id="SVGID_4_" gradientUnits="userSpaceOnUse" x1="33.9346" y1="40.7" x2="38.854" y2="40.7" gradientTransform="matrix(1 0 0 -1 0 62)">
				<stop  offset="0.25" style="stop-color:#0069FF"/>
				<stop  offset="1" style="stop-color:#08026E"/>
			</linearGradient>
			<path class="st3" d="M38.9,21.3c0,1.4-1.1,2.5-2.5,2.5s-2.5-1.1-2.5-2.5s1.1-2.5,2.5-2.5S38.9,20,38.9,21.3z"/>
		</g>
	</g>
	<g>
		<path class="st4" d="M54.9,45.7c-0.7-0.2-1.5,0.3-1.7,1s0.3,1.5,1,1.7s1.5-0.3,1.7-1C56.1,46.6,55.6,45.8,54.9,45.7z"/>
		<path class="st4" d="M32.2,45.7c-1.8-0.5-2.5,2.3-0.7,2.7c0.7,0.2,1.5-0.3,1.7-1C33.4,46.6,32.9,45.8,32.2,45.7z"/>
		<path class="st4" d="M24.2,26.9c-1.6-0.4-2.3,2.1-0.6,2.5C25.2,29.8,25.8,27.3,24.2,26.9z"/>
		<path class="st4" d="M58.4,1.6C58.8,0,56.3-0.6,55.9,1C55.5,2.7,57.9,3.3,58.4,1.6z"/>
		<path class="st4" d="M58,33.4c0-0.3,0-18.3-0.1-18.6C57.8,7.9,52.9,2,46.2,0.5c-0.1,0-0.2-0.1-0.3-0.1s-0.2,0-0.3,0
			c-0.9-0.2-1.8-0.3-2.7-0.3l0,0l0,0c-0.2,0-0.4,0-0.7,0c-2.8,0.1-5.4,1-7.6,2.5l0,0c-3.9,2.6-6.6,7-6.7,12.1
			c-0.2,0.3-0.1-0.1-0.1,18.7c-2.3,0.3-4.1,2.4-4.1,4.8v17c0,2.7,2.2,4.8,4.8,4.8h28.9c2.7,0,4.8-2.2,4.8-4.8v-17
			C62.2,35.7,60.4,33.7,58,33.4z M34.3,24.4l0.1-0.1c0.8,0.6,1.9,0.8,2.9,0.5c0.9,1.1,1.9,2,3.1,2.8C38,27,36,25.9,34.3,24.4z
			 M42,12.8v6.5c-0.9,0.1-1.8,0.2-2.7,0.4c-0.6-1.1-1.9-1.8-3.2-1.6c-0.5-2.3-0.5-4.7,0.3-6.9C38,12.1,40,12.7,42,12.8z M36.9,9.5
			C38,7.2,39.8,5.2,42,3.9V11C40.2,10.8,38.5,10.3,36.9,9.5z M42,21.2v5.2c-1.2-0.7-2.2-1.6-3.1-2.7c0.5-0.6,0.8-1.3,0.9-2.2
			C40.5,21.4,41.2,21.2,42,21.2z M37.9,21.5c0,2-3.1,2-3.1,0C34.8,19.5,37.9,19.5,37.9,21.5z M47.8,12.2c0.6,0.9,1.7,1.5,2.9,1.4
			c0.3,2.6-0.1,5-1.2,7.2c-1.7-0.8-3.6-1.3-5.6-1.4v-6.5C45.2,12.8,46.5,12.6,47.8,12.2z M43.8,11V3.5c1.8,1,3.4,2.4,4.5,4.1
			c-0.8,0.7-1.3,1.7-1.2,2.8C46.1,10.8,45,11,43.8,11z M50.5,8.7c2,0,2,3.1,0,3.1C48.5,11.8,48.5,8.7,50.5,8.7z M48.5,22.4
			c-1.2,1.8-2.8,3.3-4.7,4.3v-5.5C45.5,21.3,47.1,21.7,48.5,22.4z M50.1,23.3c0.5,0.3,0.9,0.7,1.4,1.1c-1.5,1.4-3.3,2.4-5.3,2.9
			C47.8,26.2,49.1,24.9,50.1,23.3z M55.6,15.1c0,3-1,5.8-2.8,8c-0.6-0.5-1.2-1-1.8-1.4c1.3-2.6,1.8-5.6,1.4-8.7
			c1.4-0.9,1.9-2.8,1.1-4.3c0.1-0.1,0.1-0.1,0.2-0.2C54.9,10.5,55.6,12.7,55.6,15.1z M52.6,7c-0.1,0.1-0.2,0.2-0.3,0.3
			c-0.7-0.4-1.4-0.6-2.2-0.5c-1-1.6-2.3-2.9-3.8-3.9C48.8,3.6,51,5.1,52.6,7z M40.5,2.7c-2.2,1.5-3.9,3.5-5.1,5.8
			C34.7,8,34,7.4,33.5,6.8C35.3,4.7,37.7,3.3,40.5,2.7z M34.7,10.2c-0.9,2.7-1.1,5.6-0.4,8.6c-1.2,1-1.7,2.6-1,4
			c-0.1,0.1-0.1,0.1-0.2,0.2c-1.7-2.1-2.8-4.9-2.8-7.8c0-2.6,0.7-4.9,2-6.9C32.8,8.8,33.7,9.6,34.7,10.2z M30.2,23.1
			c0.7,1.1,1.5,2.1,2.5,3c0.1,0.1,0.1,0.1,0.2,0.2c0.4,0.3,0.7,0.6,1.1,0.9c0.1,0.1,0.2,0.2,0.3,0.2c0.5,0.3,1,0.6,1.5,0.9l0,0
			c0.5,0.3,1,0.5,1.5,0.7c0.1,0,0.3,0.1,0.4,0.1c0.4,0.2,0.9,0.3,1.3,0.4c0.1,0,0.3,0.1,0.4,0.1c0.4,0.1,0.9,0.2,1.4,0.3
			c0.1,0,0.2,0,0.3,0.1c0.5,0.1,1,0.1,1.6,0.1c0.1,0,0.1,0,0.2,0l0,0c0.5,0,1.1,0,1.6-0.1c0.3,0,0.6-0.1,0.9-0.1
			c0.2,0,0.4-0.1,0.6-0.1c0.4-0.1,0.8-0.2,1.2-0.3c0.1,0,0.2-0.1,0.3-0.1c3.2-1,6.1-3.1,8.1-6.2v10.1H30.2V23.1z M59.8,55.2
			c0,1.3-1.1,2.4-2.4,2.4H28.5c-1.3,0-2.4-1.1-2.4-2.4v-17c0-1.3,1.1-2.4,2.4-2.4c0.5,0,0.5,0,0.5,0l0,0h28.3c1.3,0,2.4,1.1,2.4,2.4
			L59.8,55.2L59.8,55.2z"/>
		<path class="st4" d="M24.9,23.2c0-8.2-0.9-14.5,5.2-20.7c1.1-1.1-0.6-2.8-1.7-1.7c-6.8,6.9-5.9,14-5.9,22.4
			C22.5,24.7,24.9,24.8,24.9,23.2z"/>
		<path class="st4" d="M60.7,5c-0.8-1.4-2.9-0.2-2.1,1.2c3,5.2,2.4,8.2,2.4,22.9c0,1.6,2.4,1.6,2.4,0C63.4,14.7,64.1,10.9,60.7,5z"
			/>
		<path class="st4" d="M45.3,43.2c-0.5,0.5-0.5,1.2,0,1.7c0.6,0.6,0.9,1.4,0.9,2.3c0,1.8-1.5,3.3-3.3,3.3s-3.3-1.5-3.3-3.3
			c0-0.9,0.3-1.7,0.9-2.3c0.5-0.5,0.5-1.2,0-1.7c-1.5-1.4-3.3,1.7-3.3,4c0,3.1,2.5,5.7,5.7,5.7c3.1,0,5.7-2.5,5.7-5.7
			c0-1.5-0.6-2.9-1.6-4C46.5,42.8,45.7,42.8,45.3,43.2z"/>
		<path class="st4" d="M42.9,47.2c0.7,0,1.2-0.5,1.2-1.2v-5c0-1.6-2.4-1.6-2.4,0v5C41.7,46.7,42.3,47.2,42.9,47.2z"/>
	</g>
	<path class="st4" d="M31.2,39.6c-0.7-0.2-1.5,0.3-1.7,1s0.3,1.5,1,1.7s1.5-0.3,1.7-1S32,39.8,31.2,39.6z"/>
	<path class="st4" d="M8.5,39.6c-1.8-0.5-2.5,2.3-0.7,2.7c0.7,0.2,1.5-0.3,1.7-1S9.3,39.8,8.5,39.6z"/>
	
		<linearGradient id="SVGID_5_" gradientUnits="userSpaceOnUse" x1="14.7274" y1="21" x2="19.8817" y2="21" gradientTransform="matrix(1 0 0 -1 0 62)">
		<stop  offset="0.25" style="stop-color:#0069FF"/>
		<stop  offset="1" style="stop-color:#08026E"/>
	</linearGradient>
	<path class="st5" d="M19.7,38.2c0-0.7,0.1-1.3,0.2-2c-0.1,0-0.2,0-0.4,0c-2.7,0-4.8,2.1-4.8,4.8c0,2.6,2.1,4.8,4.8,4.8h0.1
		L19.7,38.2L19.7,38.2z"/>
	<g>
		<path class="st4" d="M19.3,41.2c0.1,0,0.3,0,0.4-0.1v-3c0-1.2,0.3-2.4,0.7-3.5c-0.4-1.2-2.3-1.1-2.3,0.4v5
			C18.1,40.7,18.6,41.2,19.3,41.2z"/>
		<path class="st4" d="M19.7,44.5c-0.1,0-0.2,0-0.4,0c-1.8,0-3.3-1.5-3.3-3.3c0-0.9,0.3-1.7,0.9-2.3c0.5-0.5,0.5-1.2,0-1.7
			c-1.5-1.4-3.3,1.7-3.3,4c0,3.1,2.5,5.7,5.7,5.7c0.1,0,0.2,0,0.4,0V44.5z"/>
	</g>
	<path class="st4" d="M19.7,51.7H4.8c-1.3,0-2.4-1.1-2.4-2.4v-17c0-1.3,1.1-2.4,2.4-2.4c0.5,0,0.5,0,0.5,0s6.6,0,13.5,0
		c-0.2-0.7-0.3-1.5-0.2-2.2c0-0.3,0.1-0.5,0.2-0.8H7.2v-6c0.1-3.9,2.1-7.5,5.3-9.6l0.1-0.1l0,0c1.8-1.1,3.8-1.8,6-1.9
		c0,0,0.4,0,0.5,0h0.1c0.2-1,0.5-2,0.9-3c-0.3,0-0.6,0-0.9,0l0,0l0,0c-0.2,0-0.4,0-0.7,0c-2.8,0.1-5.4,1-7.6,2.5l0,0
		c-3.9,2.6-6.6,7-6.7,12.1c-0.2,0.3-0.1,4.4-0.1,6.7C1.8,27.7,0,29.7,0,32.2v17C0,51.9,2.2,54,4.8,54h14.8v-2.3H19.7z"/>
	<g>
		<path class="st4" d="M77.4,39.6c1.8-0.5,2.5,2.3,0.7,2.7c-0.7,0.2-1.5-0.3-1.7-1S76.6,39.8,77.4,39.6z"/>
		
			<linearGradient id="SVGID_6_" gradientUnits="userSpaceOnUse" x1="-751.0416" y1="21" x2="-745.8873" y2="21" gradientTransform="matrix(-1 0 0 -1 -679.9 62)">
			<stop  offset="0.25" style="stop-color:#0069FF"/>
			<stop  offset="1" style="stop-color:#08026E"/>
		</linearGradient>
		<path class="st6" d="M66.2,38.2c0-0.7-0.1-1.3-0.2-2c0.1,0,0.2,0,0.4,0c2.7,0,4.8,2.1,4.8,4.8c0,2.6-2.1,4.8-4.8,4.8h-0.1v-7.6
			H66.2z"/>
		<g>
			<path class="st4" d="M66.6,41.2c-0.1,0-0.3,0-0.4-0.1v-3c0-1.2-0.3-2.4-0.7-3.5c0.4-1.2,2.3-1.1,2.3,0.4v5
				C67.8,40.7,67.2,41.2,66.6,41.2z"/>
			<path class="st4" d="M66.2,44.5c0.1,0,0.2,0,0.4,0c1.8,0,3.3-1.5,3.3-3.3c0-0.9-0.3-1.7-0.9-2.3c-0.5-0.5-0.5-1.2,0-1.7
				c1.5-1.4,3.3,1.7,3.3,4c0,3.1-2.5,5.7-5.7,5.7c-0.1,0-0.2,0-0.4,0C66.2,46.9,66.2,44.5,66.2,44.5z"/>
		</g>
		<path class="st4" d="M66.2,51.7H81c1.3,0,2.4-1.1,2.4-2.4v-17c0-1.3-1.1-2.4-2.4-2.4c-0.5,0-0.5,0-0.5,0s-6.6,0-13.5,0
			c0.2-0.7,0.3-1.5,0.2-2.2c0-0.3-0.1-0.5-0.2-0.8h11.5v-6c-0.1-3.9-2.1-7.5-5.3-9.6l-0.1-0.1l0,0c-1.8-1.1-3.8-1.8-6-1.9
			c0,0-0.4,0-0.5,0h-0.1c-0.2-1-0.5-2-0.9-3c0.3,0,0.6,0,0.9,0l0,0l0,0c0.2,0,0.4,0,0.7,0c2.8,0.1,5.4,1,7.6,2.5l0,0
			c3.9,2.6,6.6,7,6.7,12.1c0.2,0.3,0.1,4.4,0.1,6.7c2.3,0.3,4.1,2.4,4.1,4.8v17c0,2.7-2.2,4.8-4.8,4.8H66.2V51.7z"/>
	</g>
</g>
</svg>
