<?xml version="1.0" encoding="utf-8"?>
<!-- Generator: Adobe Illustrator 22.1.0, SVG Export Plug-In . SVG Version: 6.00 Build 0)  -->
<svg version="1.1" id="Layer_1" xmlns="http://www.w3.org/2000/svg" xmlns:xlink="http://www.w3.org/1999/xlink" x="0px" y="0px"
	 viewBox="0 0 255 221.1" style="enable-background:new 0 0 255 221.1;" xml:space="preserve">
<style type="text/css">
	.st0{fill:url(#SVGID_1_);}
	.st1{fill:url(#SVGID_2_);}
	.st2{fill:url(#SVGID_3_);}
	.st3{fill:url(#SVGID_4_);}
	.st4{fill:#080245;}
</style>
<g>
	<g>
		<linearGradient id="SVGID_1_" gradientUnits="userSpaceOnUse" x1="142.7291" y1="29.5975" x2="219.9404" y2="29.5975">
			<stop  offset="0.25" style="stop-color:#3FD7D7"/>
			<stop  offset="1" style="stop-color:#080245"/>
		</linearGradient>
		<path class="st0" d="M143.8,57c0,0-11.9-46.1,42.4-55.1l-2.1,12.3l16.5-4.9l-2.1,9.9l13.6-3.3l-2.1,7c0,0,14,13.6,8.6,33.7
			l-8.2,0.4l-7-15.2c0,0-16.5,20.6-43.6,0l-9.1,15.6L143.8,57z"/>
		<linearGradient id="SVGID_2_" gradientUnits="userSpaceOnUse" x1="112.7623" y1="81.7686" x2="134.299" y2="81.7686">
			<stop  offset="0.25" style="stop-color:#3FD7D7"/>
			<stop  offset="1" style="stop-color:#080245"/>
		</linearGradient>
		<path class="st1" d="M134.3,84.9v-6.2c0-8.2-6.7-14.9-14.9-14.9h-6.7v35.9h6.7C127.6,99.7,134.3,93.1,134.3,84.9z"/>
		<linearGradient id="SVGID_3_" gradientUnits="userSpaceOnUse" x1="19.4368" y1="81.7686" x2="40.9735" y2="81.7686">
			<stop  offset="0.25" style="stop-color:#3FD7D7"/>
			<stop  offset="1" style="stop-color:#080245"/>
		</linearGradient>
		<path class="st2" d="M34.3,99.7H41V63.8h-6.7c-8.2,0-14.9,6.7-14.9,14.9v6.2C19.4,93.1,26.1,99.7,34.3,99.7z"/>
		<linearGradient id="SVGID_4_" gradientUnits="userSpaceOnUse" x1="9.8511" y1="177.2657" x2="149.1896" y2="177.2657">
			<stop  offset="0.25" style="stop-color:#3FD7D7"/>
			<stop  offset="1" style="stop-color:#080245"/>
		</linearGradient>
		<path class="st3" d="M9.9,166.5c0,0,13.7-26.9,41.1-30.2c0,0,31.3,54.9,54.9,0c0,0,30.2,7.1,43.3,30.2l-23.6,15.4l0.5,24.1
			c0,0-21.9,13.2-47.2,12.1c-25.2-1.1-45.5-7.7-45.5-7.7l-0.5-29.1L9.9,166.5z"/>
	</g>
	<g>
		<path class="st4" d="M250.1,189.2c-0.9,1.6-3,2.2-4.7,1.2c-1.6-0.9-2.2-3-1.2-4.7c0.9-1.6,3-2.2,4.7-1.2
			C250.5,185.5,251.1,187.6,250.1,189.2z"/>
		<g>
			<path class="st4" d="M33.3,211.9c-1.8,0-3.3-1.5-3.3-3.3v-24.9L9.2,168.9c-1.5-1-1.8-3.1-0.8-4.6c1-1.5,3.1-1.8,4.6-0.8
				l22.2,15.8c0.9,0.6,1.4,1.6,1.4,2.7v26.6C36.6,210.4,35.1,211.9,33.3,211.9z"/>
		</g>
		<g>
			<path class="st4" d="M125.5,210.5c-1.8,0-3.3-1.5-3.3-3.3V182c0-1.1,0.6-2.1,1.5-2.7l22-14.6c1.5-1,3.5-0.6,4.5,0.9
				c1,1.5,0.6,3.5-0.9,4.5l-20.5,13.6v23.5C128.7,209,127.3,210.5,125.5,210.5z"/>
		</g>
		<g>
			<path class="st4" d="M78.8,221.1h-0.3c-28.4,0-55.9-10.2-77.4-28.7c-0.8-0.7-1.2-1.7-1.1-2.7c1.8-28.3,22.6-51.5,50.5-56.4
				c0.1,0,0.1,0,0.2,0c0.1,0,0.2,0,0.2,0c0.2,0,0.4-0.1,0.5-0.1c0.8-0.1,1.5,0.1,2.2,0.5l1.3,0.8c0.9,0.5,1.4,1.4,1.5,2.4
				c1.2,11.3,11,19.8,22.7,19.8c11.7,0,21.5-8.5,22.7-19.8c0.1-0.5,0.2-1,0.5-1.4l0.5-0.9c0.7-1.1,1.9-1.7,3.2-1.5
				c0.3,0,0.6,0.1,0.9,0.1c0.1,0,0.1,0,0.2,0c27.6,4.8,48.3,27.8,50.5,55.7c0.1,1-0.3,2-1.1,2.7C135.1,210.6,107.5,221,78.8,221.1z
				 M6.7,188.4c20.1,16.8,45.5,26.1,71.8,26.1h0.2c26.6-0.1,52.2-9.5,72.2-26.7c-2.5-23.6-19.8-42.8-43-47.8
				c-2.7,13.3-14.6,23.1-28.8,23.1c-14.2,0-26.2-9.8-28.9-23.2C26.6,144.7,9,164.4,6.7,188.4z"/>
		</g>
		<g>
			<path class="st4" d="M123.5,67.2c-1.8,0-3.3-1.5-3.3-3.3V49.3c0-19.8-17.2-35.9-38.3-35.9H72c-21.1,0-38.3,16.1-38.3,35.9v14.1
				c0,1.8-1.5,3.3-3.3,3.3c-1.8,0-3.3-1.5-3.3-3.3V49.3C27.2,25.9,47.3,6.9,72,6.9h10c24.7,0,44.8,19,44.8,42.4v14.5
				C126.8,65.7,125.3,67.2,123.5,67.2z"/>
		</g>
		<g>
			<path class="st4" d="M43.5,75.3c-0.5,0-1,0-1.5-0.1c-1.8-0.2-3.1-1.9-2.8-3.7c0.2-1.8,1.9-3.1,3.7-2.8
				c3.6,0.5,16.8-3.3,23.9-11.2c1.2-1.3,3.3-1.4,4.6-0.2c1.3,1.2,1.4,3.3,0.2,4.6C63.9,70.5,50.4,75.3,43.5,75.3z"/>
		</g>
		<g>
			<path class="st4" d="M77.6,135.3c-2.9,0-5.8-0.4-8.6-1.2c-1.7-0.5-2.8-2.3-2.3-4.1c0.5-1.7,2.3-2.8,4.1-2.3c2.2,0.6,4.5,1,6.8,1
				c16.3,0,30.1-15.6,31.9-36.2c0.2-1.8,1.7-3.1,3.6-3c1.8,0.2,3.1,1.8,3,3.6C113.9,117.2,97.3,135.3,77.6,135.3z"/>
		</g>
		<g>
			<path class="st4" d="M46.2,111.6c-1.3,0-2.4-0.7-3-1.9c-0.3-0.6-0.6-1.3-0.9-1.9c-1.9-4.1-4.1-8.7-4.4-14.7
				c-0.1-1.8,1.3-3.4,3.1-3.5c1.8-0.1,3.4,1.3,3.5,3.1c0.3,4.8,2,8.5,3.8,12.4c0.3,0.7,0.6,1.3,0.9,2c0.7,1.7,0,3.6-1.6,4.3
				C47.1,111.5,46.7,111.6,46.2,111.6z"/>
		</g>
		<g>
			<path class="st4" d="M69.9,92.4h-8.3c-1.8,0-3.3-1.5-3.3-3.3c0-1.8,1.5-3.3,3.3-3.3h8.3c1.8,0,3.3,1.5,3.3,3.3
				C73.2,90.9,71.7,92.4,69.9,92.4z"/>
		</g>
		<g>
			<path class="st4" d="M96.1,92.4h-8.3c-1.8,0-3.3-1.5-3.3-3.3c0-1.8,1.5-3.3,3.3-3.3h8.3c1.8,0,3.3,1.5,3.3,3.3
				C99.4,90.9,97.9,92.4,96.1,92.4z"/>
		</g>
		<g>
			<path class="st4" d="M120.7,102.9h-7.9c-1.8,0-3.3-1.5-3.3-3.3V63.9c0-1.8,1.5-3.3,3.3-3.3h7.9c9.3,0,16.9,7.6,16.9,16.9v8.6
				C137.5,95.4,130,102.9,120.7,102.9z M116.1,96.4h4.6c5.7,0,10.3-4.6,10.3-10.3v-8.6c0-5.7-4.6-10.3-10.3-10.3h-4.6V96.4z"/>
		</g>
		<g>
			<path class="st4" d="M41.2,102.9h-7.9c-9.3,0-16.9-7.6-16.9-16.9v-8.6c0-9.3,7.6-16.9,16.9-16.9h7.9c1.8,0,3.3,1.5,3.3,3.3v35.8
				C44.5,101.5,43,102.9,41.2,102.9z M33.3,67.2c-5.7,0-10.3,4.6-10.3,10.3v8.6c0,5.7,4.6,10.3,10.3,10.3h4.6V67.2H33.3z"/>
		</g>
		<g>
			<path class="st4" d="M62.7,124.4h-9.8c-14.4,0-25.6-10.9-25.6-24.8c0-1.8,1.5-3.3,3.3-3.3s3.3,1.5,3.3,3.3
				c0,10.2,8.4,18.2,19.1,18.2h9.8c1.8,0,3.3,1.5,3.3,3.3C66,122.9,64.5,124.4,62.7,124.4z"/>
		</g>
		<path class="st4" d="M66.7,110.4h-4.5c-3.7,0-6.7,3-6.7,6.7v1c0,3.7,3,6.7,6.7,6.7h4.5c3.7,0,6.7-3,6.7-6.7v-1
			C73.4,113.4,70.4,110.4,66.7,110.4z"/>
		<g>
			<path class="st4" d="M74.2,75.6c-1.4,0-2.6-0.9-3.1-2.2c-0.6-1.7,0.3-3.6,2-4.2c2.7-0.9,10.2-4.5,11.9-9.6
				c0.3-0.8,0.9-1.5,1.7-1.9c0.8-0.4,1.7-0.5,2.5-0.2l22,7.6c1.7,0.6,2.6,2.5,2,4.2c-0.6,1.7-2.5,2.6-4.2,2l-19.2-6.7
				c-4.4,7.1-14.1,10.5-14.6,10.7C74.9,75.5,74.5,75.6,74.2,75.6z"/>
		</g>
		<g>
			<path class="st4" d="M108.5,70.6c-0.3,0-0.6,0-1-0.1c-1.7-0.5-2.7-2.4-2.2-4.1c2.7-8.7-0.7-16-5.4-17.8c-1.7-0.6-2.5-2.5-1.9-4.2
				c0.6-1.7,2.5-2.5,4.2-1.9c8.7,3.3,12.9,14.7,9.4,25.9C111.2,69.7,109.9,70.6,108.5,70.6z"/>
		</g>
		<g>
			<path class="st4" d="M42.6,72.1c-1.6,0-3-1.2-3.2-2.8c-1.9-12,2.7-24.8,12.1-34c9.3-9,21.5-13,33.6-10.8c1.8,0.3,3,2,2.6,3.8
				c-0.3,1.8-2,3-3.8,2.6c-9.9-1.8-20.1,1.5-27.8,9c-8,7.7-11.8,18.3-10.2,28.3c0.3,1.8-0.9,3.5-2.7,3.7
				C42.9,72.1,42.7,72.1,42.6,72.1z"/>
		</g>
		<g>
			<path class="st4" d="M89.4,41.9c-0.8,0-1.5-0.3-2.2-0.8c-0.9-0.8-1.3-2.1-1-3.3l1.9-7.2c0.5-1.7,2.3-2.8,4-2.3
				c1.8,0.5,2.8,2.3,2.3,4l-0.4,1.4c2.6-0.6,5.6-1,8.2-0.4c1.8,0.4,2.9,2.2,2.5,3.9c-0.4,1.8-2.2,2.9-3.9,2.5
				c-2.7-0.6-7.7,0.9-10.2,1.9C90.3,41.9,89.8,41.9,89.4,41.9z"/>
		</g>
		<g>
			<g>
				<path class="st4" d="M224.6,186.1c-1.8,0-3.3-1.5-3.3-3.3v-23.7c0-1.1,0.6-2.1,1.5-2.7l20.6-13.7c1.5-1,3.5-0.6,4.5,0.9
					c1,1.5,0.6,3.5-0.9,4.5l-19.2,12.7v21.9C227.9,184.7,226.4,186.1,224.6,186.1z"/>
			</g>
			<g>
				<path class="st4" d="M180.6,210.8c-5.2,0-10.4-0.3-15.5-0.9c-1.8-0.2-3.1-1.9-2.9-3.7c0.2-1.8,1.9-3.1,3.7-2.9
					c4.8,0.6,9.8,0.9,14.7,0.9h0.3c18.8,0,37.6-4.6,54.4-13.2c1.6-0.8,3.6-0.2,4.4,1.4c0.8,1.6,0.2,3.6-1.4,4.4
					c-17.6,9.1-37.5,13.9-57.4,13.9H180.6z"/>
			</g>
			<g>
				<path class="st4" d="M180.6,196c-4.6,0-9.2-0.3-13.7-0.8c-1.8-0.2-3.1-1.9-2.9-3.7c0.2-1.8,1.9-3.1,3.7-2.9
					c4.2,0.5,8.6,0.8,12.9,0.8h0.2c24.8-0.1,48.7-8.9,67.5-24.9c-2.4-21.9-18.5-39.8-39.9-44.4c-2.6,12.5-13.9,21.6-27.2,21.6
					c-13.4,0-24.6-9.2-27.2-21.8c-9.3,1.9-18,6.4-25,13.2c-1.3,1.3-3.4,1.2-4.6-0.1c-1.3-1.3-1.2-3.4,0.1-4.6
					c8.3-7.9,18.6-13.2,29.9-15.2l0.4-0.1c0.2,0,0.4-0.1,0.5-0.1c0.8-0.1,1.5,0.1,2.2,0.5l1.3,0.8c0.9,0.5,1.4,1.4,1.5,2.4
					c1.1,10.5,10.2,18.4,21.1,18.4c10.9,0,19.9-7.9,21.1-18.4c0.1-0.5,0.2-1,0.5-1.4l0.5-0.8c0.7-1.1,1.9-1.7,3.2-1.5
					c0.3,0,0.6,0.1,0.9,0.1c0.1,0,0.1,0,0.2,0c25.9,4.6,45.5,26.1,47.5,52.4c0.1,1-0.3,2-1.1,2.7c-20.2,17.7-46.1,27.5-73.1,27.6
					H180.6z"/>
			</g>
			<g>
				<path class="st4" d="M212.3,66.1c-1.3,0-2.5-0.8-3.1-2.1l-6.3-15.9c-1.4,1.2-3,2.3-4.8,3.3c-7.5,4-18,4.5-26.3,1.3
					c-4.8-1.9-8.7-4.4-11.2-6.3l-8.2,17c-0.8,1.6-2.8,2.3-4.4,1.5c-1.6-0.8-2.3-2.7-1.5-4.4l10-20.7c0.5-0.9,1.3-1.6,2.4-1.8
					c1-0.2,2.1,0.1,2.8,0.8c0,0,5.1,4.8,12.5,7.7c6.5,2.5,15,2.2,20.8-0.9c2.6-1.4,4.8-3.3,6.4-5.5c0.7-1,1.9-1.5,3.1-1.4
					c1.2,0.1,2.2,0.9,2.7,2l8.2,20.7c0.7,1.7-0.2,3.6-1.8,4.3C213.1,66.1,212.7,66.1,212.3,66.1z"/>
			</g>
			<g>
				<path class="st4" d="M147.3,77.1c-1.5,0-2.8-1-3.2-2.5c-0.1-0.1-0.4-0.3-0.6-0.4c-1.5-1.1-4.1-2.9-5.4-8.1
					c-1.8-7.6,1.3-11,3.3-12.4c3.2-2.2,7.3-1.7,9.6-0.1c1.5,1,1.8,3.1,0.8,4.6c-1,1.5-3.1,1.8-4.6,0.8c-0.3-0.2-1.4-0.4-2.1,0.1
					c-1,0.7-1.2,2.7-0.6,5.4c0.7,2.9,1.6,3.5,2.8,4.3c1.1,0.8,2.7,1.9,3.2,4.3c0.3,1.8-0.8,3.5-2.6,3.8
					C147.7,77.1,147.5,77.1,147.3,77.1z"/>
			</g>
			<g>
				<path class="st4" d="M214.6,77.1c-0.2,0-0.4,0-0.6-0.1c-1.8-0.4-2.9-2.1-2.6-3.8c0.5-2.4,2.1-3.6,3.2-4.3
					c1.1-0.8,2.1-1.5,2.8-4.3c0.8-3.5,0.2-5.6-0.8-6.1c-0.5-0.3-1.1-0.1-1.6,0.4c-1.2,1.3-3.3,1.4-4.6,0.2c-1.3-1.2-1.4-3.3-0.2-4.6
					c2.5-2.7,6.4-3.4,9.5-1.7c1.5,0.8,6.3,4.2,4.1,13.4c-1.3,5.3-3.8,7.1-5.4,8.1c-0.2,0.1-0.4,0.3-0.6,0.4
					C217.4,76.1,216.1,77.1,214.6,77.1z"/>
			</g>
			<g>
				<path class="st4" d="M181,113.8c-17.9,0-33.4-16.6-36.9-39.5c-0.3-1.8,1-3.5,2.8-3.7c1.8-0.3,3.5,1,3.7,2.8
					c3,19.7,15.7,34,30.4,34s27.4-14.3,30.4-34c0.3-1.8,2-3,3.7-2.8c1.8,0.3,3,1.9,2.8,3.7C214.4,97.2,198.9,113.8,181,113.8z"/>
			</g>
			<g>
				<path class="st4" d="M173.7,73.6h-7.8c-1.8,0-3.3-1.5-3.3-3.3c0-1.8,1.5-3.3,3.3-3.3h7.8c1.8,0,3.3,1.5,3.3,3.3
					C177,72.1,175.6,73.6,173.7,73.6z"/>
			</g>
			<g>
				<path class="st4" d="M198.3,73.6h-7.8c-1.8,0-3.3-1.5-3.3-3.3c0-1.8,1.5-3.3,3.3-3.3h7.8c1.8,0,3.3,1.5,3.3,3.3
					C201.6,72.1,200.1,73.6,198.3,73.6z"/>
			</g>
			<g>
				<path class="st4" d="M181,100.4c-3.7,0-7.4-1.4-10.8-3.9c-1.4-1.1-1.7-3.2-0.6-4.6c1.1-1.4,3.2-1.7,4.6-0.6
					c4.5,3.4,9.2,3.4,13.7,0c1.4-1.1,3.5-0.8,4.6,0.6c1.1,1.4,0.8,3.5-0.6,4.6C188.4,99.1,184.6,100.4,181,100.4z"/>
			</g>
			<g>
				<path class="st4" d="M220.1,49.3c-0.1,0-0.1,0-0.2,0c-1.8-0.1-3.2-1.6-3.1-3.5c0.3-6.1-3.5-16-9-20.1c-1.5-1.1-1.8-3.1-0.7-4.6
					c1.1-1.5,3.1-1.8,4.6-0.7c7.5,5.6,12.1,17.8,11.7,25.8C223.3,47.9,221.8,49.3,220.1,49.3z"/>
			</g>
			<g>
				<path class="st4" d="M140.5,51c-1.6,0-3-1.2-3.2-2.8c-1.4-10.2,2.3-21.3,10.4-30.6C157.3,6.4,171.7,0,186.9,0
					c1.8,0,3.3,1.5,3.3,3.3c0,1.8-1.5,3.3-3.3,3.3c-13.3,0-25.9,5.6-34.3,15.4c-6.7,7.7-10,17.2-8.8,25.3c0.3,1.8-1,3.5-2.8,3.7
					C140.8,51,140.6,51,140.5,51z"/>
			</g>
			<g>
				<path class="st4" d="M209.3,25.4c-0.4,0-0.9-0.1-1.3-0.3c-1.7-0.7-2.4-2.6-1.7-4.3l0.6-1.3c-3,0.4-6.1,1.4-7.4,2
					c-1.2,0.5-2.5,0.3-3.5-0.6c-1-0.9-1.3-2.2-0.9-3.4l1.1-3.6c-5.3,0.8-9.3,2.7-9.4,2.7c-1.6,0.8-3.6,0.1-4.4-1.6
					c-0.8-1.6-0.1-3.6,1.6-4.4c0.3-0.1,8-3.7,16.7-3.7c1,0,2,0.5,2.6,1.3c0.6,0.8,0.8,1.9,0.5,2.9l-0.7,2.3c2.9-0.6,6.2-1,9.3-0.3
					c0.9,0.2,1.7,0.8,2.2,1.7c0.4,0.9,0.5,1.9,0.1,2.8l-2.4,5.7C211.8,24.7,210.6,25.4,209.3,25.4z"/>
			</g>
		</g>
		<g>
			<path class="st4" d="M79.2,176.3c-20.2,0-37.7-15.1-40.7-35.1c-0.3-1.8,1-3.5,2.8-3.7c1.8-0.3,3.5,1,3.7,2.8
				c2.5,16.8,17.2,29.5,34.2,29.5c17.1,0,31.9-12.8,34.2-29.7c0.3-1.8,1.9-3.1,3.7-2.8c1.8,0.3,3,1.9,2.8,3.7
				C117.1,161.1,99.6,176.3,79.2,176.3z"/>
		</g>
		<g>
			<path class="st4" d="M181.2,182.3c-1.8,0-3.3-1.5-3.3-3.3v-40.5c0-1.8,1.5-3.3,3.3-3.3c1.8,0,3.3,1.5,3.3,3.3V179
				C184.5,180.8,183,182.3,181.2,182.3z"/>
		</g>
	</g>
</g>
</svg>
