<?xml version="1.0" encoding="utf-8"?>
<!-- Generator: Adobe Illustrator 22.1.0, SVG Export Plug-In . SVG Version: 6.00 Build 0)  -->
<svg version="1.1" id="Layer_1" xmlns="http://www.w3.org/2000/svg" xmlns:xlink="http://www.w3.org/1999/xlink" x="0px" y="0px"
	 viewBox="0 0 64 58.4" style="enable-background:new 0 0 64 58.4;" xml:space="preserve">
<style type="text/css">
	.st0{opacity:0.8;fill:url(#SVGID_1_);}
	.st1{fill:url(#SVGID_2_);}
	.st2{fill:#42E5E0;}
	.st3{opacity:0.8;}
	.st4{opacity:0.8;fill:url(#SVGID_3_);}
	.st5{fill:url(#SVGID_4_);}
	.st6{opacity:0.5;}
	.st7{opacity:0.8;fill:url(#SVGID_5_);}
	.st8{fill:url(#SVGID_6_);}
	.st9{opacity:0.3;}
	.st10{opacity:0.8;fill:url(#SVGID_7_);}
	.st11{fill:url(#SVGID_8_);}
	.st12{opacity:0.8;fill:url(#SVGID_9_);}
	.st13{fill:url(#SVGID_10_);}
	.st14{opacity:0.8;fill:url(#SVGID_11_);}
	.st15{fill:url(#SVGID_12_);}
	.st16{opacity:0.6;}
	.st17{opacity:0.8;fill:#50EBE5;}
	.st18{fill:#408AAF;}
	.st19{fill:url(#SVGID_13_);}
	.st20{fill:url(#SVGID_14_);}
	.st21{fill:url(#SVGID_15_);}
	.st22{fill:url(#SVGID_16_);}
	.st23{fill:url(#SVGID_17_);}
	.st24{fill:url(#SVGID_18_);}
	.st25{fill:url(#SVGID_19_);}
	.st26{fill:#4EEEE6;}
	.st27{fill:url(#SVGID_20_);}
	.st28{opacity:0.8;fill:#46B7C7;}
	.st29{opacity:0.8;fill:#4CE5E2;}
	.st30{opacity:0.7;fill:#4EEEE6;}
	.st31{fill:#4CD3D9;}
	.st32{fill:url(#SVGID_21_);}
	.st33{opacity:0.9;fill:#45BFCA;}
	.st34{fill:url(#SVGID_22_);}
	.st35{fill:url(#SVGID_23_);}
	.st36{opacity:0.8;fill:#45BFCA;}
	.st37{opacity:0.3;fill:#43E4DF;}
	.st38{fill:url(#SVGID_24_);}
	.st39{fill:url(#SVGID_25_);}
	.st40{opacity:0.5;fill:url(#SVGID_26_);}
	.st41{fill:url(#SVGID_27_);}
	.st42{fill:url(#SVGID_28_);}
	.st43{fill:url(#SVGID_29_);}
	.st44{fill:url(#SVGID_30_);}
	.st45{fill:url(#SVGID_31_);}
</style>
<g>
	<g>
		<g>
			
				<radialGradient id="SVGID_1_" cx="-74.3995" cy="-11.4896" r="1.3717" gradientTransform="matrix(2.4074 0 0 1.2963 224.4815 29.132)" gradientUnits="userSpaceOnUse">
				<stop  offset="0" style="stop-color:#42E7E1"/>
				<stop  offset="0.7821" style="stop-color:#41E6E0;stop-opacity:0.2"/>
				<stop  offset="1" style="stop-color:#40E5DF;stop-opacity:0"/>
			</radialGradient>
			<ellipse class="st0" cx="45.4" cy="14.2" rx="3.3" ry="1.8"/>
			<g>
				<linearGradient id="SVGID_2_" gradientUnits="userSpaceOnUse" x1="34.8447" y1="17.3777" x2="45.6123" y2="17.3777">
					<stop  offset="0" style="stop-color:#40E5DF;stop-opacity:0"/>
					<stop  offset="1" style="stop-color:#42E7E1"/>
				</linearGradient>
				<polygon class="st1" points="35.2,20.7 34.8,20 45.2,14.1 45.6,14.7 				"/>
			</g>
			<circle class="st2" cx="45.7" cy="14.3" r="0.8"/>
		</g>
		<g class="st3">
			
				<radialGradient id="SVGID_3_" cx="-90.1406" cy="14.737" r="1.3717" gradientTransform="matrix(2.4074 0 0 1.2963 224.4815 29.132)" gradientUnits="userSpaceOnUse">
				<stop  offset="0" style="stop-color:#42E7E1"/>
				<stop  offset="0.7821" style="stop-color:#41E6E0;stop-opacity:0.2"/>
				<stop  offset="1" style="stop-color:#40E5DF;stop-opacity:0"/>
			</radialGradient>
			<ellipse class="st4" cx="7.5" cy="48.2" rx="3.3" ry="1.8"/>
			<g>
				<linearGradient id="SVGID_4_" gradientUnits="userSpaceOnUse" x1="0.8181" y1="50.2927" x2="7.6382" y2="50.2927">
					<stop  offset="0" style="stop-color:#40E5DF;stop-opacity:0"/>
					<stop  offset="1" style="stop-color:#42E7E1"/>
				</linearGradient>
				<polygon class="st5" points="1,52.4 0.8,52 7.4,48.2 7.6,48.6 				"/>
			</g>
			<circle class="st2" cx="7.8" cy="48.3" r="0.8"/>
		</g>
		<g class="st6">
			
				<radialGradient id="SVGID_5_" cx="-70.3068" cy="-19.1739" r="1.3717" gradientTransform="matrix(2.4074 0 0 1.2963 224.4815 29.132)" gradientUnits="userSpaceOnUse">
				<stop  offset="0" style="stop-color:#42E7E1"/>
				<stop  offset="0.7821" style="stop-color:#41E6E0;stop-opacity:0.2"/>
				<stop  offset="1" style="stop-color:#40E5DF;stop-opacity:0"/>
			</radialGradient>
			<ellipse class="st7" cx="55.2" cy="4.3" rx="3.3" ry="1.8"/>
			<g>
				<linearGradient id="SVGID_6_" gradientUnits="userSpaceOnUse" x1="44.7768" y1="7.4169" x2="55.3862" y2="7.4169">
					<stop  offset="0" style="stop-color:#40E5DF;stop-opacity:0"/>
					<stop  offset="1" style="stop-color:#42E7E1"/>
				</linearGradient>
				<polygon class="st8" points="45,10.6 44.8,10.2 55.2,4.3 55.4,4.6 				"/>
			</g>
			<circle class="st2" cx="55.5" cy="4.4" r="0.8"/>
		</g>
		<g class="st9">
			
				<radialGradient id="SVGID_7_" cx="-71.7909" cy="-3.4713" r="1.3717" gradientTransform="matrix(2.4074 0 0 1.2963 224.4815 29.132)" gradientUnits="userSpaceOnUse">
				<stop  offset="0" style="stop-color:#42E7E1"/>
				<stop  offset="0.7821" style="stop-color:#41E6E0;stop-opacity:0.2"/>
				<stop  offset="1" style="stop-color:#40E5DF;stop-opacity:0"/>
			</radialGradient>
			<ellipse class="st10" cx="51.7" cy="24.6" rx="3.3" ry="1.8"/>
			<g>
				<linearGradient id="SVGID_8_" gradientUnits="userSpaceOnUse" x1="41.125" y1="27.7723" x2="51.8916" y2="27.7723">
					<stop  offset="0" style="stop-color:#40E5DF;stop-opacity:0"/>
					<stop  offset="1" style="stop-color:#42E7E1"/>
				</linearGradient>
				<polygon class="st11" points="41.5,31.1 41.1,30.4 51.5,24.5 51.9,25.1 				"/>
			</g>
			<circle class="st2" cx="52" cy="24.7" r="0.8"/>
		</g>
		<g class="st6">
			
				<radialGradient id="SVGID_9_" cx="-88.6115" cy="-12.1578" r="1.3717" gradientTransform="matrix(2.4074 0 0 1.2963 224.4815 29.132)" gradientUnits="userSpaceOnUse">
				<stop  offset="0" style="stop-color:#42E7E1"/>
				<stop  offset="0.7821" style="stop-color:#41E6E0;stop-opacity:0.2"/>
				<stop  offset="1" style="stop-color:#40E5DF;stop-opacity:0"/>
			</radialGradient>
			<ellipse class="st12" cx="11.2" cy="13.4" rx="3.3" ry="1.8"/>
			<g>
				<linearGradient id="SVGID_10_" gradientUnits="userSpaceOnUse" x1="0.7099" y1="16.5118" x2="11.3194" y2="16.5118">
					<stop  offset="0" style="stop-color:#40E5DF;stop-opacity:0"/>
					<stop  offset="1" style="stop-color:#42E7E1"/>
				</linearGradient>
				<polygon class="st13" points="0.9,19.7 0.7,19.3 11.1,13.3 11.3,13.7 				"/>
			</g>
			<circle class="st2" cx="11.5" cy="13.5" r="0.8"/>
		</g>
		<g>
			
				<radialGradient id="SVGID_11_" cx="-12.2294" cy="17.5764" r="1.3717" gradientTransform="matrix(-2.4074 0 0 1.2963 19.5185 29.132)" gradientUnits="userSpaceOnUse">
				<stop  offset="0" style="stop-color:#42E7E1"/>
				<stop  offset="0.7821" style="stop-color:#41E6E0;stop-opacity:0.2"/>
				<stop  offset="1" style="stop-color:#40E5DF;stop-opacity:0"/>
			</radialGradient>
			<ellipse class="st14" cx="49" cy="51.9" rx="3.3" ry="1.8"/>
			<g>
				
					<linearGradient id="SVGID_12_" gradientUnits="userSpaceOnUse" x1="184.5139" y1="55.0563" x2="195.2814" y2="55.0563" gradientTransform="matrix(-1 0 0 1 244 0)">
					<stop  offset="0" style="stop-color:#40E5DF;stop-opacity:0"/>
					<stop  offset="1" style="stop-color:#42E7E1"/>
				</linearGradient>
				<polygon class="st15" points="59.1,58.4 48.7,52.4 49.1,51.8 59.5,57.7 				"/>
			</g>
			<circle class="st2" cx="48.6" cy="52" r="0.8"/>
		</g>
	</g>
	<g>
		<g class="st16">
			<path class="st2" d="M0.4,37.5c-0.5-0.3-0.5-0.8,0-1.1l30.7-18c0.5-0.3,1.4-0.3,1.9,0l30.7,18c0.5,0.3,0.5,0.8,0,1.1l-30.7,18
				c-0.5,0.3-1.4,0.3-1.9,0L0.4,37.5z"/>
		</g>
		<g>
			<polygon class="st17" points="32,36 8.2,22.5 8.2,37.1 32,50.7 			"/>
			<polygon class="st18" points="55.8,37.1 32,50.7 32,36 55.8,22.5 			"/>
			<linearGradient id="SVGID_13_" gradientUnits="userSpaceOnUse" x1="21.4318" y1="26.4538" x2="32.259" y2="37.3532">
				<stop  offset="0" style="stop-color:#49B1CE"/>
				<stop  offset="1" style="stop-color:#4795C6"/>
			</linearGradient>
			<polygon class="st19" points="32,50.7 8.2,37.1 32,23.5 55.8,37.1 			"/>
			<linearGradient id="SVGID_14_" gradientUnits="userSpaceOnUse" x1="8.1801" y1="44.8501" x2="32" y2="44.8501">
				<stop  offset="0" style="stop-color:#378CB3"/>
				<stop  offset="1" style="stop-color:#312B8F"/>
			</linearGradient>
			<polygon class="st20" points="32,52.6 8.2,39 8.2,37.1 32,50.7 			"/>
			<linearGradient id="SVGID_15_" gradientUnits="userSpaceOnUse" x1="8.1801" y1="28.2844" x2="32" y2="28.2844">
				<stop  offset="0" style="stop-color:#3584AD"/>
				<stop  offset="1" style="stop-color:#302B91"/>
			</linearGradient>
			<polygon class="st21" points="32,36 8.2,22.5 8.2,20.5 32,34.1 			"/>
			<linearGradient id="SVGID_16_" gradientUnits="userSpaceOnUse" x1="32" y1="28.2844" x2="55.8199" y2="28.2844">
				<stop  offset="0" style="stop-color:#251D73"/>
				<stop  offset="1" style="stop-color:#180D5B"/>
			</linearGradient>
			<polygon class="st22" points="55.8,20.5 32,34.1 32,36 55.8,22.5 			"/>
			<linearGradient id="SVGID_17_" gradientUnits="userSpaceOnUse" x1="32" y1="44.8501" x2="55.8199" y2="44.8501">
				<stop  offset="0" style="stop-color:#251B71"/>
				<stop  offset="1" style="stop-color:#1B105F"/>
			</linearGradient>
			<polygon class="st23" points="55.8,37.1 32,50.7 32,52.6 55.8,39 			"/>
			<linearGradient id="SVGID_18_" gradientUnits="userSpaceOnUse" x1="21.4318" y1="9.8882" x2="32.259" y2="20.7876">
				<stop  offset="0" style="stop-color:#3274A6"/>
				<stop  offset="1" style="stop-color:#312A91"/>
			</linearGradient>
			<polygon class="st24" points="32,34.1 8.2,20.5 32,7 55.8,20.5 			"/>
			<linearGradient id="SVGID_19_" gradientUnits="userSpaceOnUse" x1="8.1801" y1="20.5268" x2="21.8547" y2="20.5268">
				<stop  offset="0.2" style="stop-color:#4FECE5"/>
				<stop  offset="1" style="stop-color:#3260A0"/>
			</linearGradient>
			<polygon class="st25" points="8.3,20.5 21.9,12.7 8.2,20.5 21.9,28.3 			"/>
			<polygon class="st17" points="22.8,33.1 20.2,31.6 11,37.1 20.2,42.3 22.8,40.8 			"/>
			<polygon class="st26" points="34.1,37.1 43.8,42.3 53,37.1 43.6,31.7 			"/>
			<linearGradient id="SVGID_20_" gradientUnits="userSpaceOnUse" x1="10.9952" y1="31.8045" x2="32" y2="31.8045">
				<stop  offset="0" style="stop-color:#42E7E1"/>
				<stop  offset="1" style="stop-color:#40E5DF;stop-opacity:0"/>
			</linearGradient>
			<polygon class="st27" points="11,26.4 32,38.3 32,36 13.1,25.3 			"/>
			<polygon class="st28" points="43.8,31.6 43.8,42.3 53,37.1 53,26.4 			"/>
			<polygon class="st17" points="32,49 22.8,43.8 32,38.5 41.2,43.8 			"/>
			<polygon class="st29" points="22.8,33.1 22.8,43.8 32,49 32,38.3 			"/>
			<polygon class="st30" points="11,26.4 11,37.1 20.2,42.3 20.2,31.6 			"/>
			<polygon class="st31" points="11,24.1 11,26.4 13.1,25.3 13.1,25.3 			"/>
			<linearGradient id="SVGID_21_" gradientUnits="userSpaceOnUse" x1="22.7969" y1="35.1129" x2="41.2031" y2="35.1129">
				<stop  offset="0" style="stop-color:#42E7E0;stop-opacity:0"/>
				<stop  offset="0.5" style="stop-color:#42E7E1"/>
				<stop  offset="1" style="stop-color:#40E5DF;stop-opacity:0"/>
			</linearGradient>
			<polygon class="st32" points="32,36 24.8,31.9 22.8,33 32,38.3 41.2,33 39.2,31.9 			"/>
			<polygon class="st33" points="32,36 32,36.9 41.2,42.2 41.2,33.1 39.2,31.9 			"/>
			<polygon class="st30" points="32,36 34.1,37.1 41.2,33.1 41.2,40.9 43.8,42.3 43.8,29.3 			"/>
			<linearGradient id="SVGID_22_" gradientUnits="userSpaceOnUse" x1="22.7969" y1="35.1129" x2="41.2031" y2="35.1129">
				<stop  offset="0" style="stop-color:#42E7E0;stop-opacity:0"/>
				<stop  offset="0.5" style="stop-color:#42E7E1"/>
				<stop  offset="1" style="stop-color:#40E5DF;stop-opacity:0"/>
			</linearGradient>
			<polygon class="st34" points="32,36 24.8,31.9 22.8,33 32,38.3 41.2,33 39.2,31.9 			"/>
			<linearGradient id="SVGID_23_" gradientUnits="userSpaceOnUse" x1="32" y1="31.8045" x2="53.0048" y2="31.8045">
				<stop  offset="0" style="stop-color:#42E7E0;stop-opacity:0"/>
				<stop  offset="0.4333" style="stop-color:#42E7E1"/>
				<stop  offset="1" style="stop-color:#42E7E1;stop-opacity:0.85"/>
			</linearGradient>
			<polygon class="st35" points="53,26.4 32,38.3 32,36 50.9,25.3 			"/>
			<polygon class="st36" points="32,38.3 32,49 41.2,43.8 41.2,33.1 			"/>
			<polygon class="st30" points="43.8,31.9 43.8,42.3 53,37.1 			"/>
			<polygon class="st37" points="32,29.9 15.5,20.5 32,11.2 48.5,20.5 			"/>
			<polygon class="st2" points="19.9,19.6 22.9,21.3 24.2,20.5 19.9,18.1 15.5,20.5 16.9,21.3 			"/>
			<linearGradient id="SVGID_24_" gradientUnits="userSpaceOnUse" x1="20.5395" y1="22.9747" x2="20.5395" y2="19.6363">
				<stop  offset="0" style="stop-color:#42E7E1;stop-opacity:0.75"/>
				<stop  offset="1" style="stop-color:#40E5DF;stop-opacity:0"/>
			</linearGradient>
			<polygon class="st38" points="22.9,21.3 19.9,19.6 16.9,21.3 19.9,23 24.2,20.5 			"/>
			<g>
				<polygon class="st2" points="44.1,19.6 47.1,21.3 48.5,20.5 44.1,18.1 39.8,20.5 41.1,21.3 				"/>
				<linearGradient id="SVGID_25_" gradientUnits="userSpaceOnUse" x1="44.7912" y1="22.9747" x2="44.7912" y2="19.6363">
					<stop  offset="0" style="stop-color:#42E7E1;stop-opacity:0.75"/>
					<stop  offset="1" style="stop-color:#40E5DF;stop-opacity:0"/>
				</linearGradient>
				<polygon class="st39" points="47.1,21.3 44.1,19.6 41.1,21.3 44.1,23 48.5,20.5 				"/>
			</g>
			<linearGradient id="SVGID_26_" gradientUnits="userSpaceOnUse" x1="30.0782" y1="11.708" x2="32.0471" y2="13.69">
				<stop  offset="0" style="stop-color:#3274A6"/>
				<stop  offset="1" style="stop-color:#312A91"/>
			</linearGradient>
			<polygon class="st40" points="32,12.7 35,14.4 36.3,13.6 32,11.2 27.7,13.6 29,14.4 			"/>
			<polygon class="st2" points="32,12.7 35,14.4 36.3,13.6 32,11.2 27.7,13.6 29,14.4 			"/>
			<linearGradient id="SVGID_27_" gradientUnits="userSpaceOnUse" x1="32.6654" y1="16.0686" x2="32.6654" y2="12.7301">
				<stop  offset="0" style="stop-color:#42E7E1;stop-opacity:0.75"/>
				<stop  offset="1" style="stop-color:#40E5DF;stop-opacity:0"/>
			</linearGradient>
			<polygon class="st41" points="35,14.4 32,12.7 29,14.4 32,16.1 36.3,13.6 			"/>
			<polygon class="st2" points="32,26.5 35,28.2 36.3,27.5 32,25 27.7,27.5 29,28.2 			"/>
			<linearGradient id="SVGID_28_" gradientUnits="userSpaceOnUse" x1="32.6654" y1="29.8809" x2="32.6654" y2="26.5424">
				<stop  offset="0" style="stop-color:#42E7E1;stop-opacity:0.75"/>
				<stop  offset="1" style="stop-color:#40E5DF;stop-opacity:0"/>
			</linearGradient>
			<polygon class="st42" points="35,28.2 32,26.5 29,28.2 32,29.9 36.3,27.5 			"/>
			<linearGradient id="SVGID_29_" gradientUnits="userSpaceOnUse" x1="19.8741" y1="22.2561" x2="19.8741" y2="8.3939">
				<stop  offset="0" style="stop-color:#42E7E1;stop-opacity:0.5"/>
				<stop  offset="1" style="stop-color:#40E5DF;stop-opacity:0"/>
			</linearGradient>
			<polygon class="st43" points="24.2,6.9 15.5,6.9 15.5,20.5 19.9,23 24.2,20.5 			"/>
			<linearGradient id="SVGID_30_" gradientUnits="userSpaceOnUse" x1="44.1259" y1="22.2561" x2="44.1259" y2="8.3939">
				<stop  offset="0" style="stop-color:#42E7E1;stop-opacity:0.5"/>
				<stop  offset="1" style="stop-color:#40E5DF;stop-opacity:0"/>
			</linearGradient>
			<polygon class="st44" points="48.5,6.9 39.8,6.9 39.8,20.5 44.1,23 48.5,20.5 			"/>
			<linearGradient id="SVGID_31_" gradientUnits="userSpaceOnUse" x1="32" y1="28.5788" x2="32" y2="0.3588">
				<stop  offset="0" style="stop-color:#42E7E1;stop-opacity:0.5"/>
				<stop  offset="1" style="stop-color:#40E5DF;stop-opacity:0"/>
			</linearGradient>
			<polygon class="st45" points="36.3,0 27.7,0 27.7,27.5 32,29.9 36.3,27.5 			"/>
			<polygon class="st28" points="50.9,25.3 50.9,25.3 53,26.4 53,24.1 			"/>
		</g>
	</g>
</g>
</svg>
