<?xml version="1.0" encoding="utf-8"?>
<!-- Generator: Adobe Illustrator 22.1.0, SVG Export Plug-In . SVG Version: 6.00 Build 0)  -->
<svg version="1.1" id="icons" xmlns="http://www.w3.org/2000/svg" xmlns:xlink="http://www.w3.org/1999/xlink" x="0px" y="0px"
	 viewBox="0 0 214.7 146" style="enable-background:new 0 0 214.7 146;" xml:space="preserve">
<style type="text/css">
	.st0{fill:url(#SVGID_1_);}
	.st1{fill:url(#SVGID_2_);}
	.st2{fill:#080245;}
	.st3{fill:#FFFFFF;}
	.st4{fill:url(#SVGID_3_);}
</style>
<g>
	<g>
		
			<linearGradient id="SVGID_1_" gradientUnits="userSpaceOnUse" x1="67" y1="75.1" x2="143.6" y2="75.1" gradientTransform="matrix(1 0 0 -1 0 148)">
			<stop  offset="0.25" style="stop-color:#0069FF"/>
			<stop  offset="1" style="stop-color:#08026E"/>
		</linearGradient>
		<path class="st0" d="M136.9,124.1H75.8V11H67v113.9v8.1v1.8h76.6C143.6,134.8,138.6,126.6,136.9,124.1z"/>
		
			<linearGradient id="SVGID_2_" gradientUnits="userSpaceOnUse" x1="140.4272" y1="49.1" x2="205.3515" y2="49.1" gradientTransform="matrix(1 0 0 -1 0 148)">
			<stop  offset="0.25" style="stop-color:#0069FF"/>
			<stop  offset="1" style="stop-color:#08026E"/>
		</linearGradient>
		<path class="st1" d="M199.2,66.5c-2.9,0.6-7.8,1.2-13.7,0s-10.1-3.7-12.5-5.3c-2.4,1.6-6.7,4.1-12.5,5.3c-5.9,1.2-10.9,0.6-13.7,0
			c-8.7,18.1-8,37.8,0.6,50.8c1.5,2.2,10.4,15.5,25.7,19.3c0.1,0,0,0,0,0s-0.1,0,0,0c15.2-3.8,24.2-17.1,25.7-19.3
			C207.2,104.3,207.9,84.6,199.2,66.5z"/>
	</g>
	<g>
		<g>
			<path class="st2" d="M172.9,146c-0.8,0-1.5-0.1-2.3-0.3l-5-1.5h-0.1c-14.2-5.4-23-16.9-26.1-21.6c-10.6-15.9-11.1-39.5-1.2-60
				l2.4-5c0.4-0.9,1.4-1.4,2.4-1.2l5.5,1.1c3.3,0.7,6.7,0.7,10,0c3.2-0.7,6.4-2,9.1-3.9l4-2.8c0.7-0.5,1.7-0.5,2.5,0l4,2.8
				c2.7,1.9,5.9,3.2,9.1,3.9c3.3,0.7,6.7,0.7,10,0l5.5-1.1c1-0.2,2,0.3,2.4,1.2l2.4,5c9.8,20.5,9.4,44-1.2,60
				c-3.1,4.7-11.9,16.2-26.1,21.6h-0.1l-5,1.5C174.4,145.9,173.7,146,172.9,146z M167,139.9l4.9,1.5c0.6,0.2,1.3,0.2,2,0l4.9-1.5
				c13-5,21-15.6,23.9-19.9c9.8-14.7,10.1-36.5,0.9-55.6l-1.7-3.5l-3.8,0.8c-3.8,0.8-7.9,0.8-11.8,0c-3.8-0.8-7.5-2.3-10.7-4.5
				l-2.8-1.9l-2.8,1.9c-3.2,2.2-6.9,3.8-10.7,4.5c-3.8,0.8-7.9,0.8-11.8,0l-3.8-0.8l-1.7,3.5c-9.2,19.1-8.8,41,0.9,55.6
				C146,124.3,154.1,135,167,139.9z"/>
		</g>
		<g>
			<path class="st3" d="M168.6,115c-0.6,0-1.1-0.2-1.6-0.6l-9.6-9.6c-0.9-0.9-0.9-2.3,0-3.1c0.9-0.9,2.3-0.9,3.1,0l7.8,7.8L185,86.8
				c0.7-1,2.1-1.2,3.1-0.5s1.2,2.1,0.5,3.1L170.4,114c-0.4,0.5-1,0.8-1.6,0.9C168.7,115,168.7,115,168.6,115z"/>
		</g>
		<circle class="st2" cx="74" cy="143.5" r="2.2"/>
		<circle class="st2" cx="192.2" cy="29" r="2.2"/>
		<g>
			<path class="st2" d="M149.1,145.9H82.5c-1.2,0-2.2-1-2.2-2.2s1-2.2,2.2-2.2h66.6c1.2,0,2.2,1,2.2,2.2S150.3,145.9,149.1,145.9z"
				/>
		</g>
		<g>
			<path class="st2" d="M192.1,21c-1.2,0-2.2-1-2.2-2.2V4.4H69.4c-1.2,0-2.2-1-2.2-2.2s1-2.2,2.2-2.2h122.7c1.2,0,2.2,1,2.2,2.2
				v16.5C194.3,20,193.3,21,192.1,21z"/>
		</g>
		<g>
			<path class="st2" d="M141.7,135.9H66.1c-1.2,0-2.2-1-2.2-2.2V12.1c0-1.2,1-2.2,2.2-2.2h116.1c1.2,0,2.2,1,2.2,2.2v38.2
				c0,1.2-1,2.2-2.2,2.2s-2.2-1-2.2-2.2v-36H68.3v117.2h73.5c1.2,0,2.2,1,2.2,2.2S142.9,135.9,141.7,135.9z"/>
		</g>
		<g>
			<path class="st2" d="M179.9,45.2H66.1c-1.2,0-2.2-1-2.2-2.2s1-2.2,2.2-2.2H180c1.2,0,2.2,1,2.2,2.2
				C182.1,44.2,181.1,45.2,179.9,45.2z"/>
		</g>
		<g>
			<path class="st2" d="M127,76H66c-1.2,0-2.2-1-2.2-2.2s1-2.2,2.2-2.2h61c1.2,0,2.2,1,2.2,2.2S128.3,76,127,76z"/>
		</g>
		<g>
			<path class="st2" d="M125.6,106.9H66.1c-1.2,0-2.2-1-2.2-2.2s1-2.2,2.2-2.2h59.5c1.2,0,2.2,1,2.2,2.2
				C127.8,105.9,126.8,106.9,125.6,106.9z"/>
		</g>
		<g>
			<path class="st2" d="M84.2,35.3c-3.9,0-7.2-3.2-7.2-7.2c0-3.9,3.2-7.2,7.2-7.2c3.9,0,7.2,3.2,7.2,7.2
				C91.4,32,88.2,35.3,84.2,35.3z M84.2,25.3c-1.5,0-2.8,1.2-2.8,2.8s1.2,2.8,2.8,2.8c1.5,0,2.8-1.2,2.8-2.8S85.8,25.3,84.2,25.3z"
				/>
		</g>
		<g>
			<path class="st2" d="M84.2,65.6c-3.9,0-7.2-3.2-7.2-7.2c0-3.9,3.2-7.2,7.2-7.2c3.9,0,7.2,3.2,7.2,7.2
				C91.4,62.4,88.2,65.6,84.2,65.6z M84.2,55.6c-1.5,0-2.8,1.2-2.8,2.8s1.2,2.8,2.8,2.8c1.5,0,2.8-1.2,2.8-2.8S85.8,55.6,84.2,55.6z
				"/>
		</g>
		<g>
			<path class="st2" d="M84.2,95.9c-3.9,0-7.2-3.2-7.2-7.2c0-3.9,3.2-7.2,7.2-7.2c3.9,0,7.2,3.2,7.2,7.2
				C91.4,92.7,88.2,95.9,84.2,95.9z M84.2,86c-1.5,0-2.8,1.2-2.8,2.8c0,1.5,1.2,2.8,2.8,2.8c1.5,0,2.8-1.2,2.8-2.8S85.8,86,84.2,86z
				"/>
		</g>
		<g>
			<path class="st2" d="M84.2,126.2c-3.9,0-7.2-3.2-7.2-7.2c0-3.9,3.2-7.2,7.2-7.2c3.9,0,7.2,3.2,7.2,7.2
				C91.4,123,88.2,126.2,84.2,126.2z M84.2,116.3c-1.5,0-2.8,1.2-2.8,2.8c0,1.5,1.2,2.8,2.8,2.8c1.5,0,2.8-1.2,2.8-2.8
				S85.8,116.3,84.2,116.3z"/>
		</g>
		<g>
			<path class="st2" d="M134.4,30.3h-3.3c-1.2,0-2.2-1-2.2-2.2s1-2.2,2.2-2.2h3.3c1.2,0,2.2,1,2.2,2.2
				C136.6,29.3,135.6,30.3,134.4,30.3z M120.1,30.3h-3.3c-1.2,0-2.2-1-2.2-2.2s1-2.2,2.2-2.2h3.3c1.2,0,2.2,1,2.2,2.2
				C122.3,29.3,121.3,30.3,120.1,30.3z M105.7,30.3h-3.3c-1.2,0-2.2-1-2.2-2.2s1-2.2,2.2-2.2h3.3c1.2,0,2.2,1,2.2,2.2
				C107.9,29.3,106.9,30.3,105.7,30.3z"/>
		</g>
		<g>
			<path class="st2" d="M120.1,60.9h-3.3c-1.2,0-2.2-1-2.2-2.2s1-2.2,2.2-2.2h3.3c1.2,0,2.2,1,2.2,2.2S121.3,60.9,120.1,60.9z
				 M105.7,60.9h-3.3c-1.2,0-2.2-1-2.2-2.2s1-2.2,2.2-2.2h3.3c1.2,0,2.2,1,2.2,2.2S106.9,60.9,105.7,60.9z"/>
		</g>
		<g>
			<path class="st2" d="M120.1,91.6h-3.3c-1.2,0-2.2-1-2.2-2.2s1-2.2,2.2-2.2h3.3c1.2,0,2.2,1,2.2,2.2S121.3,91.6,120.1,91.6z
				 M105.7,91.6h-3.3c-1.2,0-2.2-1-2.2-2.2s1-2.2,2.2-2.2h3.3c1.2,0,2.2,1,2.2,2.2S106.9,91.6,105.7,91.6z"/>
		</g>
		<g>
			<path class="st2" d="M120.1,122.2h-3.3c-1.2,0-2.2-1-2.2-2.2s1-2.2,2.2-2.2h3.3c1.2,0,2.2,1,2.2,2.2S121.3,122.2,120.1,122.2z
				 M105.7,122.2h-3.3c-1.2,0-2.2-1-2.2-2.2s1-2.2,2.2-2.2h3.3c1.2,0,2.2,1,2.2,2.2S106.9,122.2,105.7,122.2z"/>
		</g>
		<g>
			<path class="st2" d="M170.6,34.9h-18.4c-1.2,0-2.2-1-2.2-2.2v-9.4c0-1.2,1-2.2,2.2-2.2h18.4c1.2,0,2.2,1,2.2,2.2v9.4
				C172.8,34,171.8,34.9,170.6,34.9z M154.4,30.5h14v-5h-14V30.5z"/>
		</g>
	</g>
	
		<linearGradient id="SVGID_3_" gradientUnits="userSpaceOnUse" x1="2.6" y1="77.75" x2="54.7" y2="77.75" gradientTransform="matrix(1 0 0 -1 0 148)">
		<stop  offset="0.25" style="stop-color:#0069FF"/>
		<stop  offset="1" style="stop-color:#08026E"/>
	</linearGradient>
	<polygon class="st4" points="54.7,112.6 9.9,112.6 9.9,19 2.6,19 2.6,113.3 2.6,119.9 2.6,121.5 54.7,121.5 	"/>
	<g>
		<path class="st2" d="M31.9,31.3c-1,0-1.8,0.8-1.8,1.8s0.8,1.8,1.8,1.8h2.7c1,0,1.8-0.8,1.8-1.8s-0.8-1.8-1.8-1.8H31.9z"/>
		<path class="st2" d="M54.7,127H15.4c-1,0-1.8,0.8-1.8,1.8s0.8,1.8,1.8,1.8h39.3C54.7,130.6,54.7,127,54.7,127z"/>
		<path class="st2" d="M10.9,33.2c0,3.3,2.7,5.9,5.9,5.9c3.3,0,5.9-2.7,5.9-5.9s-2.7-5.9-5.9-5.9C13.6,27.2,10.9,29.9,10.9,33.2z
			 M19.1,33.2c0,1.3-1,2.3-2.3,2.3s-2.3-1-2.3-2.3s1-2.3,2.3-2.3S19.1,31.9,19.1,33.2z"/>
		<path class="st2" d="M43.8,56.7c-1,0-1.8,0.8-1.8,1.8s0.8,1.8,1.8,1.8h2.7c1,0,1.8-0.8,1.8-1.8s-0.8-1.8-1.8-1.8H43.8z"/>
		<path class="st2" d="M43.8,31.3c-1,0-1.8,0.8-1.8,1.8s0.8,1.8,1.8,1.8h2.7c1,0,1.8-0.8,1.8-1.8s-0.8-1.8-1.8-1.8H43.8z"/>
		<path class="st2" d="M31.9,56.7c-1,0-1.8,0.8-1.8,1.8s0.8,1.8,1.8,1.8h2.7c1,0,1.8-0.8,1.8-1.8s-0.8-1.8-1.8-1.8H31.9z"/>
		<path class="st2" d="M4.6,13.6h50.1V9.9H4.6c-1,0-1.8,0.8-1.8,1.8C2.7,12.7,3.6,13.6,4.6,13.6z"/>
		<path class="st2" d="M54.7,118.7H3.6V98.4h51.1v-3.6H3.6v-22h51.1v-3.6H3.6V47.3h51.1v-3.6H3.6V21.8h51.1v-3.6H1.8
			C0.8,18.2,0,19,0,20v100.6c0,1,0.8,1.8,1.8,1.8h52.9V118.7z"/>
		<path class="st2" d="M43.8,107.4c-1,0-1.8,0.8-1.8,1.8s0.8,1.8,1.8,1.8h2.7c1,0,1.8-0.8,1.8-1.8s-0.8-1.8-1.8-1.8H43.8z"/>
		<path class="st2" d="M10.9,83.3c0,3.3,2.7,5.9,5.9,5.9c3.3,0,5.9-2.7,5.9-5.9s-2.7-5.9-5.9-5.9S10.9,80,10.9,83.3z M19.1,83.3
			c0,1.3-1,2.3-2.3,2.3s-2.3-1-2.3-2.3s1-2.3,2.3-2.3S19.1,82.1,19.1,83.3z"/>
		<path class="st2" d="M10.9,108.4c0,3.3,2.7,5.9,5.9,5.9c3.3,0,5.9-2.7,5.9-5.9s-2.7-5.9-5.9-5.9S10.9,105.1,10.9,108.4z
			 M19.1,108.4c0,1.3-1,2.3-2.3,2.3s-2.3-1-2.3-2.3s1-2.3,2.3-2.3S19.1,107.1,19.1,108.4z"/>
		<path class="st2" d="M31.9,107.4c-1,0-1.8,0.8-1.8,1.8s0.8,1.8,1.8,1.8h2.7c1,0,1.8-0.8,1.8-1.8s-0.8-1.8-1.8-1.8H31.9z"/>
		<path class="st2" d="M43.8,82c-1,0-1.8,0.8-1.8,1.8s0.8,1.8,1.8,1.8h2.7c1,0,1.8-0.8,1.8-1.8S47.5,82,46.5,82H43.8z"/>
		<path class="st2" d="M10.9,58.2c0,3.3,2.7,5.9,5.9,5.9c3.3,0,5.9-2.7,5.9-5.9c0-3.3-2.7-5.9-5.9-5.9C13.6,52.3,10.9,55,10.9,58.2z
			 M19.1,58.2c0,1.3-1,2.3-2.3,2.3s-2.3-1-2.3-2.3s1-2.3,2.3-2.3S19.1,57,19.1,58.2z"/>
		<circle class="st2" cx="8.4" cy="128.6" r="1.8"/>
		<path class="st2" d="M31.9,82c-1,0-1.8,0.8-1.8,1.8s0.8,1.8,1.8,1.8h2.7c1,0,1.8-0.8,1.8-1.8S35.7,82,34.6,82H31.9z"/>
	</g>
</g>
</svg>
