<?xml version="1.0" encoding="utf-8"?>
<!-- Generator: Adobe Illustrator 22.1.0, SVG Export Plug-In . SVG Version: 6.00 Build 0)  -->
<svg version="1.1" id="Layer_1" xmlns="http://www.w3.org/2000/svg" xmlns:xlink="http://www.w3.org/1999/xlink" x="0px" y="0px"
	 viewBox="0 0 255 178.2" style="enable-background:new 0 0 255 178.2;" xml:space="preserve">
<style type="text/css">
	.st0{fill:url(#SVGID_1_);}
	.st1{fill:url(#SVGID_2_);}
	.st2{fill:url(#SVGID_3_);}
	.st3{fill:url(#SVGID_4_);}
	.st4{fill:#080245;}
	.st5{fill:url(#SVGID_5_);}
	.st6{fill:url(#SVGID_6_);}
</style>
<g>
	<g>
		<linearGradient id="SVGID_1_" gradientUnits="userSpaceOnUse" x1="113.112" y1="139.3887" x2="141.6113" y2="139.3887">
			<stop  offset="0.25" style="stop-color:#3FD7D7"/>
			<stop  offset="1" style="stop-color:#080245"/>
		</linearGradient>
		<circle class="st0" cx="127.4" cy="139.4" r="14.2"/>
	</g>
</g>
<g>
	<g>
		<linearGradient id="SVGID_2_" gradientUnits="userSpaceOnUse" x1="94.9659" y1="48.9886" x2="168.6388" y2="48.9886">
			<stop  offset="0.25" style="stop-color:#3FD7D7"/>
			<stop  offset="1" style="stop-color:#080245"/>
		</linearGradient>
		<circle class="st1" cx="131.8" cy="49" r="36.8"/>
	</g>
</g>
<g>
	<g>
		<linearGradient id="SVGID_3_" gradientUnits="userSpaceOnUse" x1="142.8494" y1="29.7308" x2="157.4585" y2="29.7308">
			<stop  offset="0.25" style="stop-color:#3FD7D7"/>
			<stop  offset="1" style="stop-color:#080245"/>
		</linearGradient>
		<circle class="st2" cx="150.2" cy="29.7" r="7.3"/>
	</g>
</g>
<g>
	<g>
		<linearGradient id="SVGID_4_" gradientUnits="userSpaceOnUse" x1="100.7734" y1="63.1757" x2="115.3825" y2="63.1757">
			<stop  offset="0.25" style="stop-color:#3FD7D7"/>
			<stop  offset="1" style="stop-color:#080245"/>
		</linearGradient>
		<path class="st3" d="M115.4,63.2c0,4-3.3,7.3-7.3,7.3s-7.3-3.3-7.3-7.3c0-4,3.3-7.3,7.3-7.3S115.4,59.1,115.4,63.2z"/>
	</g>
</g>
<g>
	<path class="st4" d="M163,135.4c-2.2-0.6-4.5,0.8-5,3c-0.6,2.2,0.8,4.5,3,5c2.2,0.6,4.5-0.8,5-3C166.6,138.2,165.2,135.9,163,135.4
		z"/>
	<path class="st4" d="M95.5,135.4c-5.3-1.3-7.4,6.7-2,8.1c2.2,0.6,4.5-0.8,5-3C99.1,138.2,97.7,135.9,95.5,135.4z"/>
	<path class="st4" d="M71.7,79.6c-4.8-1.2-6.7,6.1-1.8,7.3C74.7,88.2,76.6,80.8,71.7,79.6z"/>
	<path class="st4" d="M173.3,4.7c1.2-4.8-6.1-6.7-7.3-1.8C164.8,7.7,172.1,9.5,173.3,4.7z"/>
	<path class="st4" d="M172.3,99c0-0.9,0.1-54.4-0.2-55.2c-0.4-20.5-14.9-38-34.8-42.5c-0.3-0.1-0.6-0.2-1-0.2
		c-0.3-0.1-0.5-0.1-0.8-0.1c-2.7-0.5-5.4-0.8-8.2-0.8c0,0,0,0-0.1,0c0,0,0,0-0.1,0c-0.7,0-1.3,0.1-1.9,0.1c-8.3,0.4-16,3-22.5,7.3
		c0,0,0,0,0,0c-11.7,7.8-19.5,20.9-20,35.9c-0.5,0.9-0.3-0.4-0.3,55.6c-6.9,1-12.3,7-12.3,14.2v50.6c0,7.9,6.4,14.4,14.4,14.4h85.8
		c7.9,0,14.4-6.4,14.4-14.4v-50.6C184.8,105.9,179.3,99.9,172.3,99z M101.9,72.1c0.1-0.1,0.2-0.2,0.3-0.3c2.5,1.7,5.6,2.3,8.6,1.4
		c2.6,3.2,5.7,6,9.1,8.3C113,80.1,106.8,76.8,101.9,72.1z M124.7,37.9v19.4c-2.8,0.2-5.5,0.6-8.2,1.3c-1.9-3.3-5.6-5.3-9.6-4.9
		c-1.6-6.9-1.3-13.9,0.8-20.6C113,35.7,118.7,37.4,124.7,37.9z M109.7,27.9c3.2-6.8,8.4-12.6,15-16.7v21.2
		C119.4,32,114.3,30.4,109.7,27.9z M124.7,62.7v15.5c-3.5-2.1-6.6-4.8-9.3-7.9c1.5-1.7,2.5-4,2.5-6.5
		C120.1,63.2,122.4,62.9,124.7,62.7z M112.5,63.6c0,6.1-9.2,6.1-9.2,0C103.3,57.6,112.5,57.6,112.5,63.6z M141.8,35.9
		c1.9,2.6,4.9,4.4,8.5,4.2c0.9,7.7-0.4,14.9-3.5,21.4c-5.2-2.5-10.8-3.9-16.6-4.3V38C134.1,37.8,138,37.1,141.8,35.9z M130.1,32.5
		V10.3c5.4,2.9,10,7.1,13.5,12.2c-2.4,2-3.8,5-3.6,8.3C136.8,31.8,133.5,32.4,130.1,32.5z M150,25.6c6.1,0,6.1,9.2,0,9.2
		C143.9,34.8,143.9,25.6,150,25.6z M144.1,66.3c-3.5,5.3-8.2,9.7-14,12.8V62.7C135,63.1,139.7,64.3,144.1,66.3z M148.8,69
		c1.5,1,2.8,2.1,4.2,3.3c-4.4,4-9.7,7.1-15.6,8.7C141.9,77.7,145.8,73.6,148.8,69z M165.1,44.5c0,9-3.1,17.2-8.3,23.7
		c-1.7-1.5-3.4-2.8-5.3-4c3.8-7.8,5.4-16.6,4.1-25.7c4.2-2.8,5.7-8.2,3.4-12.8c0.2-0.2,0.4-0.4,0.6-0.6
		C163,30.8,165,37.4,165.1,44.5z M156.3,20.7c-0.3,0.3-0.7,0.7-1,1c-1.9-1.2-4.2-1.8-6.6-1.5c-3-4.6-6.8-8.5-11.2-11.7
		C144.9,10.6,151.5,14.9,156.3,20.7z M120.1,7.9c-6.5,4.4-11.7,10.2-15.1,17.1c-2.1-1.5-4-3.2-5.7-5.1
		C104.7,13.9,111.9,9.5,120.1,7.9z M102.9,30.2c-2.8,8.1-3.3,16.7-1.1,25.5c-3.7,2.8-5,7.8-3.1,12c-0.2,0.2-0.4,0.3-0.6,0.5
		c-5.1-6.4-8.2-14.4-8.2-23.2c0-7.6,2.2-14.7,6.1-20.6C97.5,25.9,100.1,28.2,102.9,30.2z M89.7,68.5c2.1,3.2,4.5,6.2,7.3,8.8
		c0.2,0.2,0.4,0.4,0.6,0.6c1.1,1,2.2,1.9,3.4,2.8c0.3,0.2,0.7,0.5,1,0.7c1.4,1,2.8,1.9,4.4,2.7c0,0,0,0,0.1,0c1.5,0.8,3,1.5,4.6,2.1
		c0.4,0.1,0.8,0.3,1.1,0.4c1.3,0.5,2.5,0.9,3.8,1.2c0.4,0.1,0.8,0.2,1.2,0.3c1.3,0.3,2.7,0.6,4.1,0.8c0.3,0,0.7,0.1,1,0.2
		c1.5,0.2,3.1,0.3,4.7,0.3c0.2,0,0.3,0,0.5,0c0,0,0,0,0.1,0c1.6,0,3.2-0.1,4.8-0.3c0.9-0.1,1.9-0.3,2.8-0.4c0.6-0.1,1.2-0.2,1.8-0.3
		c1.2-0.2,2.3-0.6,3.5-0.9c0.2-0.1,0.5-0.1,0.7-0.2c9.5-3,18.1-9.1,24.2-18.5v30.1H89.7V68.5z M177.7,163.8c0,4-3.3,7.3-7.3,7.3
		H84.6c-4,0-7.3-3.3-7.3-7.3v-50.6c0-4,3.3-7.3,7.3-7.3c1.6,0,1.5,0,1.5,0c0,0,0.1,0,0.1,0h84.2c4,0,7.3,3.3,7.3,7.3V163.8z"/>
	<path class="st4" d="M73.9,68.6c0-24.4-2.7-43.2,15.5-61.6c3.3-3.3-1.7-8.3-5-5C64.1,22.5,66.8,43.5,66.8,68.6
		C66.8,73.3,73.9,73.3,73.9,68.6z"/>
	<path class="st4" d="M180.2,14.7c-2.3-4.1-8.5-0.6-6.2,3.5c8.8,15.5,7,24.4,7,68.1c0,4.7,7.1,4.7,7.1,0
		C188.2,43.3,190.2,32.2,180.2,14.7z"/>
	<path class="st4" d="M134.4,128.2c-1.4,1.4-1.4,3.6,0,5c1.8,1.8,2.8,4.3,2.8,6.8c0,5.4-4.4,9.7-9.7,9.7c-5.4,0-9.7-4.4-9.7-9.7
		c0-2.6,1-5,2.8-6.8c1.4-1.4,1.4-3.6,0-5c-4.3-4.3-9.9,4.9-9.9,11.8c0,9.3,7.5,16.8,16.8,16.8s16.8-7.5,16.8-16.8
		c0-4.5-1.7-8.7-4.9-11.8C138.1,126.8,135.8,126.8,134.4,128.2z"/>
	<path class="st4" d="M127.5,140.1c2,0,3.6-1.6,3.6-3.6v-14.9c0-4.7-7.1-4.7-7.1,0v14.9C123.9,138.5,125.5,140.1,127.5,140.1z"/>
</g>
<path class="st4" d="M92.7,117.5c-2.2-0.6-4.5,0.8-5,3c-0.6,2.2,0.8,4.5,3,5c2.2,0.6,4.5-0.8,5-3C96.3,120.3,95,118.1,92.7,117.5z"
	/>
<path class="st4" d="M25.3,117.5c-5.3-1.3-7.4,6.7-2,8.1c2.2,0.6,4.5-0.8,5-3C28.8,120.3,27.5,118.1,25.3,117.5z"/>
<linearGradient id="SVGID_5_" gradientUnits="userSpaceOnUse" x1="43.7346" y1="121.5408" x2="59.0411" y2="121.5408">
	<stop  offset="0.25" style="stop-color:#3FD7D7"/>
	<stop  offset="1" style="stop-color:#080245"/>
</linearGradient>
<path class="st5" d="M58.4,113.2c0-2,0.2-3.9,0.7-5.8c-0.4,0-0.7-0.1-1.1-0.1c-7.9,0-14.2,6.4-14.2,14.3c0,7.9,6.4,14.2,14.2,14.2
	c0.1,0,0.3,0,0.4,0V113.2z"/>
<g>
	<path class="st4" d="M57.3,122.3c0.4,0,0.8-0.1,1.1-0.2v-8.8c0-3.7,0.8-7.3,2.2-10.5c-1.1-3.5-6.9-3.2-6.9,1.1v14.9
		C53.7,120.7,55.3,122.3,57.3,122.3z"/>
	<path class="st4" d="M58.4,131.8c-0.4,0-0.7,0.1-1.1,0.1c-5.4,0-9.7-4.4-9.7-9.7c0-2.6,1-5,2.8-6.8c1.4-1.4,1.4-3.6,0-5
		c-4.3-4.3-9.9,4.9-9.9,11.8c0,9.3,7.5,16.8,16.8,16.8c0.4,0,0.7,0,1.1-0.1V131.8z"/>
</g>
<path class="st4" d="M58.4,153.2h-44c-4,0-7.3-3.3-7.3-7.3V95.3c0-4,3.3-7.3,7.3-7.3c1.6,0,1.5,0,1.5,0c0,0,19.7,0,40,0
	c-0.7-2.1-0.9-4.3-0.6-6.7c0.1-0.8,0.3-1.5,0.5-2.2H21.5V61.4c0.3-11.5,6.3-22.2,15.8-28.6l0.3-0.2l0.1-0.1
	c5.3-3.4,11.4-5.3,17.7-5.6c0,0,1.3-0.1,1.4-0.1h0.3c0.7-2.9,1.6-5.9,2.7-8.8c-0.9-0.1-1.8-0.1-2.8-0.1c0,0,0,0-0.1,0c0,0,0,0-0.1,0
	c-0.7,0-1.3,0.1-1.9,0.1c-8.3,0.4-16,3-22.5,7.3c0,0,0,0,0,0c-11.7,7.8-19.5,20.9-20,35.9c-0.5,0.9-0.3,13-0.3,20
	C5.4,82.2,0,88.1,0,95.3V146c0,7.9,6.4,14.4,14.4,14.4h44V153.2z"/>
<g>
	<path class="st4" d="M229.7,117.5c5.3-1.3,7.4,6.7,2,8.1c-2.2,0.6-4.5-0.8-5-3C226.2,120.3,227.5,118.1,229.7,117.5z"/>
	
		<linearGradient id="SVGID_6_" gradientUnits="userSpaceOnUse" x1="188.8346" y1="121.5408" x2="204.1411" y2="121.5408" gradientTransform="matrix(-1 0 0 1 400.1 0)">
		<stop  offset="0.25" style="stop-color:#3FD7D7"/>
		<stop  offset="1" style="stop-color:#080245"/>
	</linearGradient>
	<path class="st6" d="M196.6,113.2c0-2-0.2-3.9-0.7-5.8c0.4,0,0.7-0.1,1.1-0.1c7.9,0,14.2,6.4,14.2,14.3c0,7.9-6.4,14.2-14.2,14.2
		c-0.1,0-0.3,0-0.4,0V113.2z"/>
	<g>
		<path class="st4" d="M197.7,122.3c-0.4,0-0.8-0.1-1.1-0.2v-8.8c0-3.7-0.8-7.3-2.2-10.5c1.1-3.5,6.9-3.2,6.9,1.1v14.9
			C201.3,120.7,199.7,122.3,197.7,122.3z"/>
		<path class="st4" d="M196.6,131.8c0.4,0,0.7,0.1,1.1,0.1c5.4,0,9.7-4.4,9.7-9.7c0-2.6-1-5-2.8-6.8c-1.4-1.4-1.4-3.6,0-5
			c4.3-4.3,9.9,4.9,9.9,11.8c0,9.3-7.5,16.8-16.8,16.8c-0.4,0-0.7,0-1.1-0.1V131.8z"/>
	</g>
	<path class="st4" d="M196.6,153.2h44c4,0,7.3-3.3,7.3-7.3V95.3c0-4-3.3-7.3-7.3-7.3c-1.6,0-1.5,0-1.5,0c0,0-19.7,0-40,0
		c0.7-2.1,0.9-4.3,0.6-6.7c-0.1-0.8-0.3-1.5-0.5-2.2h34.3V61.4c-0.3-11.5-6.3-22.2-15.8-28.6l-0.3-0.2l-0.1-0.1
		c-5.3-3.4-11.4-5.3-17.7-5.6c0,0-1.3-0.1-1.4-0.1h-0.3c-0.7-2.9-1.6-5.9-2.7-8.8c0.9-0.1,1.8-0.1,2.8-0.1c0,0,0,0,0.1,0
		c0,0,0,0,0.1,0c0.7,0,1.3,0.1,1.9,0.1c8.3,0.4,16,3,22.5,7.3c0,0,0,0,0,0c11.7,7.8,19.5,20.9,20,35.9c0.5,0.9,0.3,13,0.3,20
		c6.9,1,12.3,7,12.3,14.2V146c0,7.9-6.4,14.4-14.4,14.4h-44V153.2z"/>
</g>
</svg>
