<?xml version="1.0" encoding="utf-8"?>
<!-- Generator: Adobe Illustrator 22.1.0, SVG Export Plug-In . SVG Version: 6.00 Build 0)  -->
<svg version="1.1" id="icons" xmlns="http://www.w3.org/2000/svg" xmlns:xlink="http://www.w3.org/1999/xlink" x="0px" y="0px"
	 viewBox="0 0 65 63.3" style="enable-background:new 0 0 65 63.3;" xml:space="preserve">
<style type="text/css">
	.st0{fill:url(#SVGID_1_);}
	.st1{fill:url(#SVGID_2_);}
	.st2{fill:url(#SVGID_3_);}
	.st3{fill:#080245;}
	.st4{fill:url(#SVGID_4_);}
	.st5{fill:url(#SVGID_5_);}
	.st6{fill:url(#SVGID_6_);}
	.st7{fill:url(#SVGID_7_);}
	.st8{fill:#FFFFFF;}
</style>
<g>
	<g>
		<g>
			<g>
				
					<linearGradient id="SVGID_1_" gradientUnits="userSpaceOnUse" x1="37.6936" y1="26.15" x2="40.1402" y2="26.15" gradientTransform="matrix(1 0 0 -1 0 66)">
					<stop  offset="0.25" style="stop-color:#0069FF"/>
					<stop  offset="1" style="stop-color:#08026E"/>
				</linearGradient>
				<path class="st0" d="M40.1,39.5c-0.2,0-0.5-0.1-0.7-0.1l-1.7,0.9L40.1,39.5z"/>
			</g>
		</g>
		<g>
			<g>
				
					<linearGradient id="SVGID_2_" gradientUnits="userSpaceOnUse" x1="11.3165" y1="15.4185" x2="52.7671" y2="15.4185" gradientTransform="matrix(1 0 0 -1 0 66)">
					<stop  offset="0.25" style="stop-color:#0069FF"/>
					<stop  offset="1" style="stop-color:#08026E"/>
				</linearGradient>
				<path class="st1" d="M41.1,39.3l-9,2.9c-0.2,0-0.4,0-0.5,0l-7.4-2.7c-7,1.4-12.3,7.4-12.8,14.7C23.2,64.5,40.9,64.4,52.8,54
					C52.3,47.3,47.2,41.2,41.1,39.3z"/>
			</g>
		</g>
	</g>
	<g>
		
			<linearGradient id="SVGID_3_" gradientUnits="userSpaceOnUse" x1="41.1218" y1="13.2" x2="60.2807" y2="13.2" gradientTransform="matrix(1 0 0 -1 0 66)">
			<stop  offset="0.25" style="stop-color:#0069FF"/>
			<stop  offset="1" style="stop-color:#08026E"/>
		</linearGradient>
		<circle class="st2" cx="50.7" cy="52.8" r="9.6"/>
	</g>
	<path class="st3" d="M20.6,26.2c1.2,7.3,6.1,12.7,11.8,12.7c5.7-0.1,10.7-5.4,11.8-12.7c0.4-0.3,1.5-0.4,2.3-2.4
		c1-2.4,0.5-3.6-0.1-4.2c-0.2-0.2-0.5-0.3-0.7-0.4c2.1-8.1-3.5-15.4-13-15.4c-9.1,0-15.6,6.6-13.4,15.3c-1.2,0.2-2.3,1.6-1.1,4.7
		C19.1,25.7,20.1,25.8,20.6,26.2z M21,13.1c2.6-9.8,20.4-10.4,23.1,0c0.4,1.6,0.7,5.6-1.3,8.2L41,19.9v-4.1c0-1.1-1.7-1.2-1.7,0v2.6
		c-6.3-5.1-6-5.2-6.7-4.9c-0.6,0.3-0.5,0.7-0.8,3.1c-2.5-0.9-5.1-1.6-7.7-2.2c-0.4-0.1-0.8,0.1-1,0.5c-0.8,1.7-1.3,3.4-1.6,5.3
		C20.2,17.6,20.7,13.9,21,13.1z M19.9,20.9c0.4,0.8,0.9,1.6,1.5,2.2c0.3,0.4,0.7,0.6,1.2,0.5c1.1-0.4,0.1-1.5,1.2-5.3
		c0.2-0.6,0.4-1.3,0.7-1.9c9.4,2.1,8.7,4.3,9.2-0.2c9.4,7.7,9,7.6,9.7,7.3c0.4-0.2,1.4-1.6,1.9-2.6c0.5,0,0.1,1.6-0.2,2.3
		c-0.8,1.9-2.2,1.2-2.4,2.7c-1,6.5-5.3,11.3-10.1,11.4c-4.9-0.1-9.2-4.9-10.1-11.4c-0.2-1.5-1.7-0.8-2.4-2.7
		C19.5,22.2,19,20.5,19.9,20.9z M26,23.4c0-0.5,0.4-0.9,0.9-0.9h2.6c1.2,0,1.1,1.7,0,1.7h-2.6C26.4,24.3,26,23.9,26,23.4z
		 M34.1,23.4c0-0.5,0.4-0.9,0.9-0.9h2.6c1.2,0,1.1,1.7,0,1.7H35C34.5,24.3,34.1,23.9,34.1,23.4z M30.1,31.8c1.6,1.2,3.2,1.2,4.8,0
		c0.4-0.3,0.9-0.2,1.2,0.2c1,1.3-2,2.5-3.6,2.5c-1.2,0-2.4-0.4-3.4-1.3C28.2,32.5,29.2,31.1,30.1,31.8z M33.4,60.6V44.4
		c5.9,3,5.7,3.1,6.3,2.8s0.4-0.2,1-6.8c0-0.2,0-0.4-0.2-0.6c2.3,0.5,3.6,1.3,5.4,2.7c0.9,0.7,2-0.7,1.1-1.4c-2-1.6-3.8-2.6-6.6-3.1
		c-0.3-0.1-0.6,0-0.8,0.2c-4.2,3.5-9.7,3.6-14,0c-0.3-0.2-0.6-0.3-1-0.2c-8.7,1.7-13.7,8.4-14.2,15.7c0,0.3,0.1,0.6,0.4,0.8
		c8.4,7.2,19.7,9.6,30.5,6.9c0.5-0.1,0.7-0.6,0.6-1.1C41.6,58.8,40.3,60.4,33.4,60.6z M38.8,40.8L38.4,45l-4.8-2.5
		C35.5,42.4,37.2,41.8,38.8,40.8z M31.4,42.6l-4.8,2.5l-0.4-4.2C27.8,41.8,29.6,42.4,31.4,42.6z M31.6,60.6c-4.2-0.1-8.3-1-12.1-2.7
		V52c0-1.1-1.7-1.2-1.7,0v5.1c-2-1-3.8-2.3-5.6-3.7c0.6-6.8,5.7-12.4,12.4-13.6l0,0c-0.4,0.4-0.2,0.5,0.4,6.8c0.1,0.6,0.7,1,1.3,0.7
		l5.4-2.8L31.6,60.6L31.6,60.6z M10.5,46.2c-0.5,1-2.1,0.2-1.6-0.8c2-4.1,5.4-7.3,9.4-9.3c1-0.5,1.8,1.1,0.8,1.6
		C15.4,39.5,12.3,42.5,10.5,46.2z M28.7,0.4c9-1.7,18.3,2.4,20.6,11.3c0.3,1.1-1.4,1.6-1.7,0.4C46,5.8,40.2,1.8,32.7,1.8
		c-1.2,0-2.5,0.1-3.6,0.3C27.9,2.3,27.6,0.6,28.7,0.4z M64.9,52.8c0,1.2-1.7,1.1-1.7,0c0-5.4-3.6-10.4-8.9-11.9
		c-0.5-0.1-0.7-0.6-0.6-1.1c0.1-0.5,0.6-0.7,1.1-0.6C60.8,41,64.9,46.6,64.9,52.8z M50.7,42.4c-5.8,0-10.4,4.7-10.4,10.4
		c0,5.8,4.7,10.4,10.4,10.4s10.4-4.7,10.4-10.4C61.2,47.1,56.5,42.4,50.7,42.4z M50.7,61.5c-4.8,0-8.7-3.9-8.7-8.7s3.9-8.7,8.7-8.7
		s8.7,3.9,8.7,8.7S55.5,61.5,50.7,61.5z M9.2,48.8c0,1.1-1.7,1.1-1.7,0C7.6,47.7,9.2,47.7,9.2,48.8z M50.7,39.4c0-1.1,1.7-1.1,1.7,0
		S50.7,40.5,50.7,39.4z M24.6,2.5c0-1.1,1.7-1.1,1.7,0C26.3,3.6,24.6,3.6,24.6,2.5z"/>
	<g>
		
			<linearGradient id="SVGID_4_" gradientUnits="userSpaceOnUse" x1="50.4837" y1="43" x2="63.5105" y2="43" gradientTransform="matrix(1 0 0 -1 0 66)">
			<stop  offset="0.25" style="stop-color:#0069FF"/>
			<stop  offset="1" style="stop-color:#08026E"/>
		</linearGradient>
		<path class="st4" d="M57,31.2c3.6,0,6.5-3.7,6.5-8.2c0-5.4-2.2-8.2-6.5-8.2s-6.5,2.8-6.5,8.2C50.5,27.5,53.4,31.2,57,31.2z
			 M57,29.4c-2.5,0-4.6-2.7-4.8-6.1c0,0,0-0.1,0.1-0.1c0.5-1.1,1.2-2,2.1-2.7c2.7,2.3,5.7,2.7,7.4,2.5C61.7,26.6,59.6,29.4,57,29.4z
			 M57,16.5c2.9,0,4.3,1.5,4.7,4.8c-0.6,0.1-2,0-3.3-0.4c-2.9-1-3.3-2.9-4.4-2.2c-0.5,0.3-1,0.7-1.4,1.1
			C53.2,17.6,54.6,16.5,57,16.5z"/>
		
			<linearGradient id="SVGID_5_" gradientUnits="userSpaceOnUse" x1="49.0034" y1="33.4319" x2="65.0009" y2="33.4319" gradientTransform="matrix(1 0 0 -1 0 66)">
			<stop  offset="0.25" style="stop-color:#0069FF"/>
			<stop  offset="1" style="stop-color:#08026E"/>
		</linearGradient>
		<path class="st5" d="M64.9,33.3c-0.5-1-1.3-1.9-2.2-2.7c-0.4-0.3-0.9-0.3-1.2,0.1c-2.5,3-6.5,3.1-9,0c-0.3-0.4-0.9-0.4-1.2-0.1
			c-0.9,0.8-1.6,1.7-2.2,2.7c-0.2,0.4-0.1,1,0.4,1.2c0.4,0.2,1,0.1,1.2-0.4c0.3-0.6,0.7-1.1,1.2-1.6c3,3,7.4,3,10.4,0
			c0.5,0.5,0.8,1,1.2,1.6C63.9,35.2,65.4,34.4,64.9,33.3z"/>
	</g>
	<g>
		
			<linearGradient id="SVGID_6_" gradientUnits="userSpaceOnUse" x1="1.5" y1="43" x2="14.5269" y2="43" gradientTransform="matrix(1 0 0 -1 0 66)">
			<stop  offset="0.25" style="stop-color:#0069FF"/>
			<stop  offset="1" style="stop-color:#08026E"/>
		</linearGradient>
		<path class="st6" d="M8,31.2c3.6,0,6.5-3.7,6.5-8.2c0-5.4-2.2-8.2-6.5-8.2S1.5,17.6,1.5,23C1.5,27.5,4.4,31.2,8,31.2z M8,29.4
			c-2.6,0-4.7-2.9-4.8-6.4c1.1,0.1,2.7-0.1,4-0.5c1.5-0.5,2.7-1.4,3.4-2c0.9,0.7,1.6,1.6,2.1,2.7c0,0,0,0.1,0.1,0.1
			C12.6,26.7,10.5,29.4,8,29.4z M8,16.5c2.4,0,3.8,1,4.4,3.3C12,19.4,11.5,19,11,18.7c-1.1-0.7-1.5,1.2-4.4,2.2
			c-1.4,0.5-2.7,0.5-3.3,0.4C3.7,18,5.1,16.5,8,16.5z"/>
		
			<linearGradient id="SVGID_7_" gradientUnits="userSpaceOnUse" x1="-6.327787e-04" y1="33.3819" x2="16.0006" y2="33.3819" gradientTransform="matrix(1 0 0 -1 0 66)">
			<stop  offset="0.25" style="stop-color:#0069FF"/>
			<stop  offset="1" style="stop-color:#08026E"/>
		</linearGradient>
		<path class="st7" d="M15.9,33.3c-0.7-1.3-2.5-3.7-3.4-2.6c-2.5,3.1-6.5,3-9,0c-0.3-0.4-0.9-0.4-1.2-0.1c-0.9,0.8-1.6,1.7-2.2,2.7
			c-0.5,1,1,1.8,1.5,0.8C2,33.6,2.3,33,2.8,32.6c3,3,7.4,3,10.4,0c0.5,0.5,0.8,1,1.2,1.6C14.9,35.2,16.4,34.4,15.9,33.3z"/>
	</g>
	<path class="st8" d="M54.8,49l-6,6c-0.1,0.1-2-2-2.1-2c-0.9-0.9-2.2,0.5-1.3,1.3l2,2c0.8,0.8,2,0.8,2.8,0l6-6
		C57,49.5,55.6,48.1,54.8,49z"/>
</g>
</svg>
