<?xml version="1.0" encoding="utf-8"?>
<!-- Generator: Adobe Illustrator 22.1.0, SVG Export Plug-In . SVG Version: 6.00 Build 0)  -->
<svg version="1.1" id="icons" xmlns="http://www.w3.org/2000/svg" xmlns:xlink="http://www.w3.org/1999/xlink" x="0px" y="0px"
	 viewBox="0 0 209.5 146" style="enable-background:new 0 0 209.5 146;" xml:space="preserve">
<style type="text/css">
	.st0{fill:url(#SVGID_1_);}
	.st1{fill:url(#SVGID_2_);}
	.st2{fill:url(#SVGID_3_);}
	.st3{fill:#080245;}
</style>
<g>
	<g>
		
			<linearGradient id="SVGID_1_" gradientUnits="userSpaceOnUse" x1="138.9831" y1="44.3" x2="206.4831" y2="44.3" gradientTransform="matrix(1 0 0 -1 0 148)">
			<stop  offset="0.25" style="stop-color:#0069FF"/>
			<stop  offset="1" style="stop-color:#08026E"/>
		</linearGradient>
		<path class="st0" d="M180.5,82l-0.1,12.7L166,87.5l-14.5,6.9l0.1-12.8l0,0c-3.8,0.9-9,3.2-12.7,6.6c12.6,7.4,21.4,21.5,22.5,36.9
			c-0.3,0.2-0.5,0.5-0.8,0.7c1.1,0,2.6,0,4.9,0c15.5-0.3,29.7-5.2,40.9-14.2C205.6,98.2,196.1,85,180.5,82z"/>
		
			<linearGradient id="SVGID_2_" gradientUnits="userSpaceOnUse" x1="2.3" y1="44.3" x2="69.8" y2="44.3" gradientTransform="matrix(1 0 0 -1 0 148)">
			<stop  offset="0.25" style="stop-color:#0069FF"/>
			<stop  offset="1" style="stop-color:#08026E"/>
		</linearGradient>
		<path class="st1" d="M28.3,82l0.1,12.7l14.3-7.2l14.5,6.9l-0.1-12.8l0,0c3.8,0.9,9,3.2,12.7,6.6c-12.6,7.4-21.4,21.5-22.5,36.9
			c0.3,0.2,0.5,0.5,0.8,0.7c-1.1,0-2.6,0-4.9,0c-15.5-0.3-29.7-5.2-40.9-14.2C3.1,98.2,12.7,85,28.3,82z"/>
		<g>
			
				<linearGradient id="SVGID_3_" gradientUnits="userSpaceOnUse" x1="53.6" y1="31.85" x2="155.3664" y2="31.85" gradientTransform="matrix(1 0 0 -1 0 148)">
				<stop  offset="0.25" style="stop-color:#0069FF"/>
				<stop  offset="1" style="stop-color:#08026E"/>
			</linearGradient>
			<path class="st2" d="M53.6,124.7c1.2-18.1,14.7-32.8,32.2-35.9c0.2,0,0.4-0.1,0.6-0.1l-0.3,0.1l1.4,15.7l17.3-8.8h-0.3l17.3,8.8
				l1.2-11.1l0.3-4.5c17.4,3.1,30.8,17.6,32.2,35.5c-13.6,12-31.4,19.2-50.9,19.2c0,0-0.1,0-0.2,0C84.9,143.5,67.2,136.4,53.6,124.7
				L53.6,124.7z"/>
		</g>
	</g>
	<g>
		<g>
			<path class="st3" d="M42.9,128.5c-15.3,0-30.2-5.2-42-14.8c-0.6-0.5-1-1.3-0.9-2.1c1-15.9,12.6-29.1,28.1-32
				c0.7-0.1,1.5,0.1,2.1,0.5c0.6,0.5,0.9,1.2,0.9,1.9l0.1,8.7L42,85.3c0.7-0.3,1.5-0.4,2.2,0L55,90.5l-0.1-8.7c0-1,0.6-1.9,1.5-2.3
				c0.5-0.2,1.1-0.3,1.7-0.1C66,80.7,73,85.1,76.9,91.2c0.7,1.2,0.4,2.7-0.7,3.5c-1.2,0.7-2.7,0.4-3.5-0.7c-2.2-3.3-6.5-7.2-12.8-9
				l0.1,9.6c0,0.9-0.4,1.7-1.2,2.1c-0.7,0.5-1.6,0.5-2.4,0.1L43,90.4L29.8,97c-0.8,0.4-1.7,0.4-2.4-0.1c-0.7-0.4-1.2-1.2-1.2-2.1
				l-0.1-9.6c-13,3.8-19.8,15.3-21,25.4c10.9,8.4,24.5,12.9,38.3,12.8c2.7,0,5.7-0.2,8.9-0.6c1.4-0.1,2.6,0.8,2.7,2.2
				c0.1,1.4-0.8,2.6-2.2,2.7c-3.4,0.4-6.5,0.6-9.4,0.6C43.3,128.5,43.1,128.5,42.9,128.5z"/>
		</g>
		<g>
			<path class="st3" d="M166.2,130.2c-0.2,0-0.3,0-0.5,0c-3.7,0-7.9-0.4-12.4-0.9c-1.4-0.2-2.3-1.4-2.2-2.8c0.2-1.4,1.4-2.3,2.8-2.2
				c4.3,0.6,8.3,0.9,11.8,0.9c0.2,0,0.3,0,0.5,0c13.7,0,27-4.5,37.8-12.8c-1.1-10.1-8-21.6-21-25.4l-0.1,9.6c0,0.9-0.5,1.7-1.2,2.1
				c-0.7,0.5-1.7,0.5-2.4,0.1l-13.2-6.7l-13.4,6.4c-0.8,0.4-1.7,0.3-2.4-0.1c-0.7-0.5-1.2-1.3-1.2-2.1l0.1-9.6
				c-6.6,1.9-10.4,5.9-11.8,7.7c-0.9,1.1-2.4,1.3-3.5,0.4s-1.3-2.4-0.4-3.5c4.2-5.3,10.6-9,17.7-10.1c0.5-0.1,1.1-0.1,1.5,0.1
				c0.9,0.4,1.5,1.3,1.5,2.3l-0.1,8.7l10.9-5.2c0.7-0.3,1.5-0.3,2.2,0l10.8,5.4l0.1-8.7c0-0.7,0.3-1.4,0.9-1.9
				c0.6-0.5,1.3-0.7,2.1-0.5c15.5,3,27,16.1,28.1,32c0.1,0.8-0.3,1.6-0.9,2.1C196.3,125,181.4,130.2,166.2,130.2z"/>
		</g>
		<g>
			<path class="st3" d="M49.8,51.8c-1.4,0-2.5-1.1-2.5-2.5s1.1-2.5,2.5-2.5l5.5-0.1l0,0c1.4,0,2.5,1.1,2.5,2.5s-1.1,2.5-2.5,2.5
				L49.8,51.8L49.8,51.8z"/>
		</g>
		<g>
			<path class="st3" d="M29.9,52c-1.4,0-2.5-1.1-2.5-2.5s1.1-2.5,2.5-2.5l5.5-0.1c1.4,0,2.5,1.1,2.5,2.5s-1.1,2.5-2.5,2.5L29.9,52
				C30,52,29.9,52,29.9,52z"/>
		</g>
		<g>
			<path class="st3" d="M42.3,71.8c-2.6,0-5.2-0.9-7.6-2.7c-1.1-0.8-1.3-2.4-0.5-3.5s2.4-1.3,3.5-0.5c1.6,1.2,3.1,1.7,4.7,1.7
				c0,0,0,0,0.1,0c1.6,0,3.1-0.6,4.7-1.8c1.1-0.8,2.7-0.6,3.5,0.4c0.8,1.1,0.6,2.7-0.4,3.5c-2.4,1.9-5.1,2.8-7.7,2.9
				C42.4,71.8,42.3,71.8,42.3,71.8z"/>
		</g>
		<g>
			<path class="st3" d="M17.7,122.6c-1.4,0-2.5-1.1-2.5-2.5l-0.1-10.5c0-1.4,1.1-2.5,2.5-2.5l0,0c1.4,0,2.5,1.1,2.5,2.5l0.1,10.5
				C20.2,121.5,19.1,122.6,17.7,122.6L17.7,122.6z"/>
		</g>
		<g>
			<path class="st3" d="M16.4,89.6c-0.9,0-1.8-0.5-2.2-1.3c-4.4-8.2-7-16.9-7.7-25.8c-0.3-3.3-2.1-33,16.9-47.3
				C31.2,9.5,39.6,9,39.9,9c1.5-0.1,3.1-0.2,4.7,0c0.3,0,8.7,0.4,16.5,6c5.7,4.1,10.2,10,13.2,17.5c0.5,1.3-0.1,2.7-1.4,3.3
				c-1.3,0.5-2.7-0.1-3.3-1.4C67,27.7,63.2,22.5,58.2,19c-6.6-4.7-13.8-5.1-13.9-5.1c-1.4-0.1-2.7-0.1-4.1,0
				c-0.2,0-7.3,0.5-13.9,5.4c-16.9,12.6-15.2,39.8-15,42.8c0.7,8.2,3.1,16.2,7.2,23.8c0.6,1.2,0.2,2.7-1,3.4
				C17.2,89.5,16.8,89.6,16.4,89.6z"/>
		</g>
		<g>
			<path class="st3" d="M69.6,89.1c-0.4,0-0.8-0.1-1.1-0.3c-1.2-0.6-1.7-2.1-1.1-3.4c1.5-2.9,4.3-8.3,4.7-17.1
				c0.1-1.4,1.2-2.4,2.6-2.4c1.4,0.1,2.4,1.2,2.4,2.6c-0.4,9.9-3.5,15.9-5.2,19.2C71.4,88.6,70.5,89.1,69.6,89.1z"/>
		</g>
		<g>
			<path class="st3" d="M42.9,81.3L42.9,81.3c-8.1-0.3-15.8-6.7-19.9-13c-4.4-6.7-4.6-13.5-4.6-15.8c-0.3-9.2,3.5-16.3,5.7-19.6
				c0.5-0.8,1.5-1.2,2.4-1.1c1,0.1,1.7,0.8,2,1.7c0,0.1,0.1,0.2,0.2,0.4c1.8,3.6,5.7,6,10,5.9l7.7-0.1c4-0.1,7.7-2.2,9.6-5.7
				c0.3-0.5,0.3-0.7,0.3-0.7c0.3-0.9,1-1.6,2-1.8c0.9-0.2,1.9,0.2,2.5,1c2.3,3.3,6.2,10.3,6.1,19.5c0,2.2-0.1,9-4.3,15.9
				C58.6,74.3,51.1,80.9,42.9,81.3C43,81.3,43,81.3,42.9,81.3z M26.3,39.2c-1.6,3.2-3,7.8-2.9,13.2c0.1,2.1,0.2,7.6,3.8,13.2
				c3.2,5,9.5,10.4,15.7,10.6c6.2-0.4,12.3-5.9,15.5-11c3.5-5.6,3.5-11.2,3.6-13.3c0-5.4-1.5-10-3.2-13.2c-2.9,3.6-7.4,5.8-12.2,5.9
				l-7.7,0.1C33.9,44.9,29.3,42.7,26.3,39.2z"/>
		</g>
		<g>
			<path class="st3" d="M82.8,53.8c-0.7,0-1.4-0.3-1.9-0.9c-0.1-0.1-0.2-0.2-0.3-0.3l-0.1-0.1c-1.2-1.3-2.2-2.7-3-4.3
				c-4.2-8-1.7-18.3-1.7-18.4c3.8-14.6,17.4-21.1,29.1-21.1c13.9,0,25,8.3,28.4,21.1c0,0.1,2.6,10.4-1.7,18.4c-0.8,1.5-1.8,3-3,4.3
				l-0.1,0.1c-0.1,0.1-0.2,0.2-0.3,0.3c-0.7,0.8-1.8,1.1-2.8,0.7c-1-0.4-1.6-1.3-1.6-2.4c0-3.2-0.4-6.3-1.2-9.3
				c-0.3-1.1-0.7-2.3-1.1-3.4c-1,0.4-2.1,0.9-3.3,1.4c-3.4,1.6-7.6,3.5-13.6,3.5c-5.9,0-10.2-1.9-13.6-3.5c-1.2-0.5-2.2-1-3.3-1.4
				c-0.5,1.1-0.8,2.3-1.1,3.4c-0.8,3-1.3,6.2-1.2,9.4c0,1.1-0.6,2-1.6,2.4C83.4,53.8,83.1,53.8,82.8,53.8z M104.9,13.7
				c-9.8,0-21.1,5.4-24.3,17.4l0,0c-0.4,1.5-1.3,7.5,0.4,12.7c0.2-1.1,0.4-2.1,0.7-3.1c0.6-2,1.3-4.1,2.3-6.1
				c0.5-1.1,1.6-1.6,2.8-1.4c2.2,0.5,4.2,1.4,6.3,2.3c3.3,1.5,6.7,3,11.5,3c4.9,0,8.2-1.5,11.5-3c2.1-1,4-1.9,6.3-2.3
				c1.1-0.2,2.3,0.3,2.8,1.4c1,2.1,1.7,4.1,2.3,6.2c0.3,1,0.5,2.1,0.7,3.1c1.7-5.1,0.8-11.1,0.4-12.7
				C125.1,18.2,114.1,13.7,104.9,13.7z M78.2,30.4L78.2,30.4L78.2,30.4z"/>
		</g>
		<g>
			<path class="st3" d="M167,84.1c-11.6,0-21.7-10.8-24-25.6c-0.2-1.4,0.7-2.6,2.1-2.8c1.4-0.2,2.6,0.7,2.8,2.1
				c1.9,12.4,9.9,21.4,19,21.4c9.2,0,17.2-9,19-21.4c0.2-1.4,1.5-2.3,2.8-2.1c1.4,0.2,2.3,1.5,2.1,2.8
				C188.7,73.3,178.7,84.1,167,84.1z"/>
		</g>
		<g>
			<path class="st3" d="M161.5,58.3c-0.6,0-1.2-0.2-1.6-0.6c-0.1-0.1-0.4-0.3-0.9-0.3s-0.8,0.3-0.8,0.3c-1,0.9-2.6,0.8-3.5-0.2
				s-0.8-2.6,0.2-3.5c0.5-0.5,2-1.5,4.1-1.6h0.1c2.1,0,3.6,1.1,4.1,1.6c1,0.9,1.1,2.5,0.2,3.5C162.9,58.1,162.2,58.3,161.5,58.3z"/>
		</g>
		<g>
			<path class="st3" d="M173.1,58.3c-0.6,0-1.3-0.3-1.8-0.8c-1-1-0.9-2.6,0-3.5c0.5-0.5,2-1.7,4.2-1.7h0.1c2.2,0,3.6,1.2,4.2,1.7
				c1,1,1,2.5,0,3.5s-2.5,1-3.5,0c0,0-0.3-0.3-0.7-0.3l0,0c-0.4,0-0.7,0.3-0.8,0.3C174.4,58.1,173.7,58.3,173.1,58.3z"/>
		</g>
		<g>
			<path class="st3" d="M167,75.5c-2.4,0-4.9-0.9-7.1-2.6c-1.1-0.8-1.3-2.4-0.5-3.5s2.4-1.3,3.5-0.5c2.8,2.1,5.5,2.1,8.3,0
				c1.1-0.8,2.7-0.6,3.5,0.5s0.6,2.7-0.5,3.5C171.9,74.6,169.5,75.5,167,75.5z"/>
		</g>
		<g>
			<path class="st3" d="M145.5,60.6c-1.1,0-2.1-0.7-2.4-1.8c-0.1-0.1-0.2-0.1-0.2-0.2c-1.3-0.9-2.8-2.2-3.6-5.4
				c-1.3-5.4,0.3-7.8,1.8-8.8c1.6-1.1,3.7-1,5.4,0.2c1.1,0.8,1.4,2.3,0.6,3.5c-0.7,1-2.1,1.4-3.2,0.8c-0.1,0.5-0.2,1.4,0.3,3.3
				c0.4,1.7,0.9,2,1.6,2.5c0.7,0.5,1.9,1.3,2.2,3c0.3,1.4-0.6,2.7-2,2.9C145.9,60.6,145.7,60.6,145.5,60.6z"/>
		</g>
		<g>
			<path class="st3" d="M188.6,60.6c-0.2,0-0.3,0-0.5,0c-1.3-0.3-2.2-1.6-2-2.9c0.3-1.7,1.5-2.5,2.2-3s1.2-0.8,1.6-2.5
				c0.4-1.8,0.4-2.8,0.3-3.3c-1.1,0.6-2.5,0.3-3.2-0.8c-0.8-1.1-0.5-2.7,0.6-3.5c1.7-1.2,3.8-1.2,5.4-0.2c1.5,1,3.1,3.4,1.8,8.8
				c-0.8,3.2-2.3,4.5-3.6,5.4c-0.1,0.1-0.2,0.1-0.2,0.2C190.6,59.9,189.7,60.6,188.6,60.6z"/>
		</g>
		<g>
			<path class="st3" d="M145.7,75.5c-3.1-0.1-5.8-1.7-7.2-4.3c-1.5-0.5-3.3-1.6-4-3.9c-0.4-1.3,0.3-2.7,1.6-3.1s2.7,0.3,3.1,1.6
				c0.2,0.6,0.7,0.7,1,0.7c1.1,0,2,0.7,2.3,1.7c0.5,1.4,1.7,2.3,3.1,2.3c0.9,0,1.9-0.5,2.5-1.4c0.8-1.1,2.4-1.3,3.5-0.5
				s1.3,2.4,0.5,3.5C150.6,74.2,148.2,75.4,145.7,75.5z"/>
		</g>
		<g>
			<path class="st3" d="M188.8,75.5c-2.3-0.1-4.4-1-5.9-2.5c-1-1-0.9-2.6,0-3.5c1-1,2.6-0.9,3.5,0c0.6,0.6,1.5,1,2.4,1
				c1.3,0,2.6-1,3-2.3c0.3-0.9,1.1-1.5,2-1.7c1.7-0.2,3-1.7,3-3.4c0-0.5-0.1-1-0.4-1.5c-0.4-0.7-0.3-1.6,0.1-2.3
				c0.4-0.7,1.2-1.2,2-1.2c1.8-0.1,3.2-1.6,3.2-3.4c0-1.1-0.6-2.2-1.5-2.8s-1.3-1.7-1-2.7s1.1-1.8,2.2-1.9c1.8-0.2,3.1-1.6,3.1-3.4
				c0-1.3-0.7-2.4-1.8-3c-0.7-0.4-1.2-1.1-1.3-2c-0.1-0.8,0.3-1.7,0.9-2.2c0.8-0.7,1.3-1.6,1.3-2.7c0-1.8-1.4-3.3-3.2-3.4l-0.3,0.1
				c-1,0.1-2-0.4-2.5-1.3s-0.3-2,0.3-2.8c0.4-0.5,0.9-1.2,0.9-2.3c0-1.8-1.5-3.4-3.3-3.4c-0.4,0-1,0.2-1.5,0.5c-1,0.6-2.2,0.4-3-0.4
				s-0.9-2.1-0.3-3c0.3-0.6,0.5-1.2,0.5-1.8c0-1.8-1.5-3.4-3.3-3.4c-0.9,0-1.7,0.5-2.1,0.9c-0.7,0.7-1.8,0.8-2.7,0.4
				c-0.9-0.4-1.5-1.3-1.5-2.3c0,0,0-0.1,0-0.2c-0.1-1.8-1.5-3.3-3.3-3.3c-1.1,0-2.1,0.7-2.7,1.7c-0.6,1-1.7,1.4-2.8,1.1
				c-1.1-0.3-1.8-1.3-1.8-2.5c0-0.1,0-0.2,0-0.2c-0.1-1.8-1.5-3.3-3.3-3.3l0,0c-0.1,0-0.2,0-0.4,0h-0.2c-1.7,0-3.2,1.5-3.2,3.3
				c0,0.1,0,0.2,0,0.2c0,1.1-0.7,2.2-1.8,2.5s-2.3-0.2-2.8-1.1c-0.6-1-1.7-1.7-2.9-1.7c-1.7,0-3.2,1.5-3.2,3.3c0,0.1,0,0.2,0,0.2
				c0,1-0.6,1.9-1.5,2.3c-0.9,0.4-2,0.2-2.7-0.4c-0.4-0.4-1.2-0.9-2.2-0.9c-1.7,0-3.2,1.6-3.2,3.4c0,0.6,0.2,1.2,0.5,1.8
				c0.6,1,0.5,2.2-0.3,3s-2,1-3,0.4c-0.5-0.3-1.1-0.5-1.6-0.5c-1,0-2.1,0.6-2.7,1.6c-0.7,1.2-2.3,1.5-3.4,0.8
				c-1.2-0.7-1.5-2.3-0.8-3.4c1.4-2.2,3.8-3.6,6.4-3.9c0.1-4.5,3.7-8.1,8.2-8.2c0.8,0,1.5,0.1,2.2,0.3c1.3-2.8,4.1-4.7,7.4-4.8
				c1.3,0,2.6,0.3,3.7,0.9c1.4-2.4,4-4,7-4.1c0.1,0,0.3,0,0.4,0c0.1,0,0.2,0,0.2,0c3,0.1,5.7,1.7,7.1,4.1c1.1-0.6,2.3-0.9,3.6-0.9
				c3.3,0.1,6.2,2,7.5,4.8c0.7-0.2,1.4-0.3,2.1-0.3c4.6,0.1,8.2,3.8,8.3,8.2c4.3,0.4,7.7,4.1,7.7,8.4c0,0.7-0.1,1.4-0.3,2.1
				c3,1.3,5.1,4.3,5.1,7.7c0,1.5-0.4,3-1.2,4.3c1.3,1.5,2.1,3.5,2.1,5.6c0,2.9-1.4,5.4-3.7,6.9c0.6,1.2,0.9,2.5,0.9,3.8
				c0,3.4-2,6.3-5,7.7c0,0.3,0,0.5,0,0.8c0,3.7-2.4,6.9-5.9,8C194.5,73.7,191.8,75.4,188.8,75.5z"/>
		</g>
		<g>
			<path class="st3" d="M79.2,62.7c-1.1,0-2.1-0.8-2.4-1.9c-0.1-0.1-0.3-0.2-0.4-0.3c-1.2-0.8-3.1-2.2-4.1-6.2
				c-1.5-6.1,0.3-8.8,2-10s4-1.1,5.9,0.2c1.1,0.8,1.4,2.3,0.6,3.5c-0.8,1.1-2.3,1.4-3.5,0.6c-0.1-0.1-0.3-0.1-0.3-0.1
				c-0.1,0.1-0.6,1.4,0.1,4.7c0.5,2.2,1.3,2.7,2.1,3.3c0.8,0.6,2.1,1.4,2.4,3.3c0.3,1.3-0.6,2.6-2,2.9
				C79.6,62.7,79.4,62.7,79.2,62.7z"/>
		</g>
		<g>
			<path class="st3" d="M130.4,62.7c-0.2,0-0.3,0-0.5,0c-1.3-0.3-2.2-1.6-2-2.9c0.4-1.9,1.6-2.7,2.4-3.3c0.8-0.6,1.6-1.1,2.1-3.3
				c0.8-3.2,0.3-4.5,0.1-4.7c0,0-0.1,0.1-0.2,0.1c-1.1,0.8-2.7,0.5-3.5-0.6s-0.5-2.7,0.6-3.5c1.8-1.3,4.1-1.4,5.9-0.2
				c1.7,1.2,3.4,3.8,2,10c-1,4-2.9,5.4-4.1,6.2c-0.1,0.1-0.3,0.2-0.4,0.3C132.5,61.9,131.5,62.7,130.4,62.7z"/>
		</g>
		<g>
			<path class="st3" d="M104.8,90.7c-13.6,0-25.4-12.6-28-30.1c-0.2-1.4,0.7-2.6,2.1-2.8s2.6,0.7,2.8,2.1c2.3,15,12,25.8,23.1,25.8
				s20.9-10.9,23.1-25.8c0.2-1.4,1.5-2.3,2.8-2.1c1.4,0.2,2.3,1.5,2.1,2.8C130.3,78,118.5,90.7,104.8,90.7z"/>
		</g>
		<g>
			<path class="st3" d="M99.4,60.1h-6c-1.4,0-2.5-1.1-2.5-2.5s1.1-2.5,2.5-2.5h6c1.4,0,2.5,1.1,2.5,2.5
				C101.8,58.9,100.7,60.1,99.4,60.1z"/>
		</g>
		<g>
			<path class="st3" d="M118.1,60.1h-5.9c-1.4,0-2.5-1.1-2.5-2.5s1.1-2.5,2.5-2.5h5.9c1.4,0,2.5,1.1,2.5,2.5
				C120.5,58.9,119.4,60.1,118.1,60.1z"/>
		</g>
		<g>
			<path class="st3" d="M104.8,80.5c-2.8,0-5.6-1-8.2-3c-1.1-0.8-1.3-2.4-0.5-3.5s2.4-1.3,3.5-0.5c3.4,2.6,7,2.6,10.4,0
				c1.1-0.8,2.7-0.6,3.5,0.5s0.6,2.7-0.5,3.5C110.5,79.4,107.6,80.5,104.8,80.5z"/>
		</g>
		<g>
			<path class="st3" d="M73.9,139.8c-1.4,0-2.5-1.1-2.5-2.5v-17.9c0-1.4,1.1-2.5,2.5-2.5s2.5,1.1,2.5,2.5v17.9
				C76.4,138.7,75.2,139.8,73.9,139.8z"/>
		</g>
		<g>
			<path class="st3" d="M136.8,138.9c-1.4,0-2.5-1.1-2.5-2.5v-17c0-1.4,1.1-2.5,2.5-2.5s2.5,1.1,2.5,2.5v17
				C139.2,137.8,138.1,138.9,136.8,138.9z"/>
		</g>
		<g>
			<path class="st3" d="M121.7,106.9c-0.4,0-0.8-0.1-1.1-0.3l-17.3-8.8c-1.2-0.6-1.7-2.1-1.1-3.4c0.6-1.2,2.1-1.7,3.4-1.1l14,7.2
				l1.1-12c0.1-1.4,1.3-2.4,2.7-2.3c1.4,0.1,2.4,1.3,2.3,2.7l-1.4,15.7c-0.1,0.8-0.6,1.6-1.3,2C122.6,106.8,122.2,106.9,121.7,106.9
				z"/>
		</g>
		<g>
			<path class="st3" d="M87.5,106.9c-0.4,0-0.8-0.1-1.2-0.3c-0.7-0.4-1.2-1.1-1.3-2L83.6,89c-0.1-1.4,0.9-2.6,2.3-2.7
				s2.6,0.9,2.7,2.3l1.1,12l14-7.2c1.2-0.6,2.7-0.1,3.4,1.1c0.6,1.2,0.1,2.7-1.1,3.4l-17.3,8.8C88.3,106.8,87.9,106.9,87.5,106.9z"
				/>
		</g>
		<g>
			<path class="st3" d="M188.5,49.1c-0.5,0-1-0.2-1.5-0.5c-1.2-0.8-2.1-1.9-2.8-3.1c-1.3-2.3-1.3-4.7-1-6.6
				c-0.9-0.2-1.8-0.4-2.7-0.9c-1.4-0.7-2.4-1.7-3.2-2.8c-1,0.8-2.1,1.3-3.4,1.6c-2.6,0.5-5.2-0.4-7.1-2.1c-1.6,0.8-3.8,1.5-6.4,0.9
				c-0.8-0.2-1.6-0.4-2.2-0.8c-0.6,1.3-1.6,2.6-3.1,3.6c-1,0.7-2.1,1-3.1,1.2c0,1.4-0.2,3-1,4.6c-1.1,2.3-2.9,3.7-4.2,4.4
				c-1.2,0.7-2.7,0.2-3.4-1s-0.2-2.7,0.9-3.4c0.5-0.3,1.5-1,2.2-2.2c0.9-1.7,0.5-3.4,0.2-4.1c-0.3-0.8-0.1-1.7,0.5-2.4
				s1.4-1,2.3-0.8c0.5,0.1,1.7,0.2,2.8-0.5c1.8-1.2,1.7-3.7,1.7-3.7c0-1.1,0.6-2.1,1.6-2.4c1-0.4,2.2,0,2.8,0.8
				c0.3,0.4,1.3,1.5,2.8,1.8c2.3,0.5,4.1-1.1,4.3-1.3c0.6-0.5,1.4-0.7,2.1-0.6c0.8,0.1,1.4,0.6,1.8,1.4c0.6,1.3,2,2,3.3,1.7
				c1.2-0.2,2.2-1.3,2.4-2.6c0.2-1.3,1.3-2.2,2.6-2.1s2.3,1,2.4,2.3c0,0,0.2,2.9,2.5,4.1c1.3,0.7,2.7,0.5,3.2,0.4
				c0.9-0.2,1.9,0.1,2.5,0.9c0.6,0.8,0.7,1.8,0.2,2.7c-0.1,0.1-1.6,3.2-0.3,5.5c0.3,0.6,0.7,1,1.3,1.4c1.1,0.8,1.4,2.4,0.6,3.5
				C190.1,48.8,189.3,49.1,188.5,49.1z"/>
		</g>
		<g>
			<g>
				<path class="st3" d="M53.6,127.2c-0.1,0-0.1,0-0.2,0c-1.4-0.1-2.4-1.3-2.3-2.6c1.3-19.2,15.3-34.9,34.2-38.2h0.3
					c0.1,0,0.2,0,0.4-0.1c1.3-0.2,2.6,0.7,2.8,2.1c0.2,1.4-0.7,2.6-2.1,2.8c-0.3,0.1-0.4,0.1-0.6,0.1c-16.5,2.9-28.9,16.7-30,33.6
					C56,126.2,54.9,127.2,53.6,127.2z"/>
			</g>
			<g>
				<g>
					<path class="st3" d="M104.5,146h-0.2c-19.2,0-37.8-6.9-52.3-19.4c-1-0.9-1.2-2.5-0.3-3.5s2.5-1.2,3.5-0.3
						c13.6,11.7,31,18.2,49,18.2h0.2c17.8,0,34.9-6.4,48.3-17.8c-1.8-16.1-13.9-29.1-29.9-32c-0.1,0-0.3,0-0.4-0.1
						c-0.1,0-0.2,0-0.3,0c-1.4-0.2-2.3-1.4-2.2-2.8c0.2-1.4,1.4-2.3,2.8-2.2c0.2,0,0.4,0.1,0.6,0.1c0.1,0,0.1,0,0.1,0
						c18.7,3.3,32.8,18.8,34.2,37.8c0.1,0.8-0.3,1.5-0.8,2.1C142.6,138.9,123.9,146,104.5,146z"/>
				</g>
			</g>
		</g>
	</g>
</g>
</svg>
