<?xml version="1.0" encoding="utf-8"?>
<!-- Generator: Adobe Illustrator 22.1.0, SVG Export Plug-In . SVG Version: 6.00 Build 0)  -->
<svg version="1.1" id="Layer_1" xmlns="http://www.w3.org/2000/svg" xmlns:xlink="http://www.w3.org/1999/xlink" x="0px" y="0px"
	 viewBox="0 0 188 201.4" style="enable-background:new 0 0 188 201.4;" xml:space="preserve">
<style type="text/css">
	.st0{fill:#0F0A4C;}
	.st1{fill:url(#SVGID_1_);}
	.st2{fill:url(#SVGID_2_);}
	.st3{opacity:0.7;fill:#4EEEE6;}
	.st4{fill:url(#SVGID_3_);}
	.st5{fill:#4EEEE6;}
	.st6{fill:url(#SVGID_4_);}
	.st7{fill:url(#SVGID_5_);}
	.st8{fill:url(#SVGID_6_);}
	.st9{fill:url(#SVGID_7_);}
	.st10{fill:url(#SVGID_8_);}
	.st11{fill:url(#SVGID_9_);}
	.st12{fill:url(#SVGID_10_);}
	.st13{fill:url(#SVGID_11_);}
	.st14{fill:url(#SVGID_12_);}
	.st15{fill:url(#SVGID_13_);}
	.st16{fill:#40E5DF;}
	.st17{fill:url(#SVGID_14_);}
	.st18{fill:url(#SVGID_15_);}
	.st19{fill:url(#SVGID_16_);}
	.st20{fill:url(#SVGID_17_);}
	.st21{fill:url(#SVGID_18_);}
	.st22{fill:url(#SVGID_19_);}
	.st23{fill:url(#SVGID_20_);}
	.st24{fill:url(#SVGID_21_);}
	.st25{fill:url(#SVGID_22_);}
	.st26{fill:url(#SVGID_23_);}
	.st27{fill:url(#SVGID_24_);}
	.st28{fill:url(#SVGID_25_);}
	.st29{fill:url(#SVGID_26_);}
	.st30{fill:url(#SVGID_27_);}
	.st31{fill:url(#SVGID_28_);}
	.st32{fill:url(#SVGID_29_);}
	.st33{fill:url(#SVGID_30_);}
	.st34{fill:url(#SVGID_31_);}
	.st35{fill:url(#SVGID_32_);}
	.st36{fill:url(#SVGID_33_);}
	.st37{fill:url(#SVGID_34_);}
	.st38{fill:url(#SVGID_35_);}
	.st39{fill:url(#SVGID_36_);}
	.st40{fill:url(#SVGID_37_);}
	.st41{fill:url(#SVGID_38_);}
	.st42{fill:url(#SVGID_39_);}
	.st43{fill:url(#SVGID_40_);}
	.st44{fill:url(#SVGID_41_);}
	.st45{fill:url(#SVGID_42_);}
	.st46{fill:url(#SVGID_43_);}
	.st47{fill:url(#SVGID_44_);}
	.st48{fill:url(#SVGID_45_);}
	.st49{fill:url(#SVGID_46_);}
	.st50{fill:url(#SVGID_47_);}
	.st51{fill:url(#SVGID_48_);}
	.st52{fill:url(#SVGID_49_);}
	.st53{fill:url(#SVGID_50_);}
	.st54{fill:url(#SVGID_51_);}
	.st55{fill:url(#SVGID_52_);}
	.st56{fill:url(#SVGID_53_);}
	.st57{fill:url(#SVGID_54_);}
	.st58{fill:url(#SVGID_55_);}
	.st59{fill:url(#SVGID_56_);}
	.st60{fill:url(#SVGID_57_);}
	.st61{fill:url(#SVGID_58_);}
	.st62{fill:url(#SVGID_59_);}
	.st63{fill:url(#SVGID_60_);}
	.st64{fill:url(#SVGID_61_);}
	.st65{fill:url(#SVGID_62_);}
	.st66{fill:url(#SVGID_63_);}
	.st67{fill:url(#SVGID_64_);}
	.st68{fill:url(#SVGID_65_);}
	.st69{fill:url(#SVGID_66_);}
	.st70{fill:url(#SVGID_67_);}
	.st71{fill:url(#SVGID_68_);}
	.st72{fill:url(#SVGID_69_);}
	.st73{fill:url(#SVGID_70_);}
	.st74{fill:url(#SVGID_71_);}
	.st75{fill:url(#SVGID_72_);}
	.st76{fill:url(#SVGID_73_);}
	.st77{fill:url(#SVGID_74_);}
	.st78{fill:url(#SVGID_75_);}
	.st79{fill:url(#SVGID_76_);}
</style>
<g>
	<path class="st0" d="M1.2,106.7c-1.4-0.8-1.4-2.1,0-2.9l41.7-24.4c1.4-0.8,3.6-0.8,4.9,0l41.7,24.4c1.4,0.8,1.4,2.1,0,2.9
		l-41.7,24.4c-1.4,0.8-3.6,0.8-4.9,0L1.2,106.7z"/>
	<g>
		<linearGradient id="SVGID_1_" gradientUnits="userSpaceOnUse" x1="8.0251" y1="114.2957" x2="45.3139" y2="114.2957">
			<stop  offset="0" style="stop-color:#378CB3"/>
			<stop  offset="1" style="stop-color:#312B8F"/>
		</linearGradient>
		<polygon class="st1" points="45.3,122.8 8,101.4 8,105.8 45.3,127.2 		"/>
		<linearGradient id="SVGID_2_" gradientUnits="userSpaceOnUse" x1="45.3139" y1="114.2957" x2="82.6027" y2="114.2957">
			<stop  offset="0" style="stop-color:#251B71"/>
			<stop  offset="1" style="stop-color:#1B105F"/>
		</linearGradient>
		<polygon class="st2" points="45.3,127.2 82.6,105.8 82.6,101.4 45.3,122.8 		"/>
		<polygon class="st3" points="82.6,101.4 45.3,80 8,101.4 45.3,122.8 		"/>
		<linearGradient id="SVGID_3_" gradientUnits="userSpaceOnUse" x1="15.4828" y1="101.4" x2="75.145" y2="101.4">
			<stop  offset="0" style="stop-color:#3274A6"/>
			<stop  offset="1" style="stop-color:#312A91"/>
		</linearGradient>
		<polygon class="st4" points="75.1,101.4 45.3,84.2 15.5,101.4 45.3,118.6 		"/>
		<polygon class="st5" points="45.3,118.2 15.5,101.4 45.3,118.6 75.1,101.4 		"/>
		<linearGradient id="SVGID_4_" gradientUnits="userSpaceOnUse" x1="15.4828" y1="92.9789" x2="45.3139" y2="92.9789">
			<stop  offset="0" style="stop-color:#312A91"/>
			<stop  offset="1" style="stop-color:#3274A6"/>
		</linearGradient>
		<polygon class="st6" points="45.3,84.2 15.5,101.4 16,101.7 45.3,84.9 		"/>
		<linearGradient id="SVGID_5_" gradientUnits="userSpaceOnUse" x1="45.3139" y1="92.9789" x2="75.145" y2="92.9789">
			<stop  offset="0" style="stop-color:#312A91"/>
			<stop  offset="1" style="stop-color:#3274A6"/>
		</linearGradient>
		<polygon class="st7" points="45.3,84.2 45.3,84.9 74.6,101.7 75.1,101.4 		"/>
		<linearGradient id="SVGID_6_" gradientUnits="userSpaceOnUse" x1="22.6299" y1="105.1638" x2="45.3139" y2="105.1638">
			<stop  offset="0" style="stop-color:#40E5DF;stop-opacity:0.5"/>
			<stop  offset="1" style="stop-color:#42E7E1"/>
		</linearGradient>
		<polygon class="st8" points="45.3,108.5 22.6,95.5 22.6,101.8 45.3,114.8 		"/>
		<linearGradient id="SVGID_7_" gradientUnits="userSpaceOnUse" x1="45.3139" y1="105.1638" x2="67.9979" y2="105.1638">
			<stop  offset="0" style="stop-color:#42E7E1;stop-opacity:0.9"/>
			<stop  offset="1" style="stop-color:#40E5DF;stop-opacity:0.5"/>
		</linearGradient>
		<polygon class="st9" points="68,101.8 45.3,114.8 45.3,108.5 68,95.5 		"/>
	</g>
	<g>
		<linearGradient id="SVGID_8_" gradientUnits="userSpaceOnUse" x1="8.0251" y1="95.962" x2="45.3139" y2="95.962">
			<stop  offset="0" style="stop-color:#378CB3"/>
			<stop  offset="1" style="stop-color:#312B8F"/>
		</linearGradient>
		<polygon class="st10" points="45.3,104.5 8,83.1 8,87.4 45.3,108.9 		"/>
		<linearGradient id="SVGID_9_" gradientUnits="userSpaceOnUse" x1="45.3139" y1="95.962" x2="82.6027" y2="95.962">
			<stop  offset="0" style="stop-color:#251B71"/>
			<stop  offset="1" style="stop-color:#1B105F"/>
		</linearGradient>
		<polygon class="st11" points="45.3,108.9 82.6,87.4 82.6,83.1 45.3,104.5 		"/>
		<polygon class="st3" points="82.6,83.1 45.3,61.6 8,83 45.3,104.5 		"/>
		<linearGradient id="SVGID_10_" gradientUnits="userSpaceOnUse" x1="15.4828" y1="83.0663" x2="75.145" y2="83.0663">
			<stop  offset="0" style="stop-color:#3274A6"/>
			<stop  offset="1" style="stop-color:#312A91"/>
		</linearGradient>
		<polygon class="st12" points="75.1,83.1 45.3,65.9 15.5,83.1 45.3,100.2 		"/>
		<polygon class="st5" points="45.3,99.9 15.5,83.1 45.3,100.2 75.1,83.1 		"/>
		<linearGradient id="SVGID_11_" gradientUnits="userSpaceOnUse" x1="15.4828" y1="74.6452" x2="45.3139" y2="74.6452">
			<stop  offset="0" style="stop-color:#312A91"/>
			<stop  offset="1" style="stop-color:#3274A6"/>
		</linearGradient>
		<polygon class="st13" points="45.3,65.9 15.5,83.1 16,83.4 45.3,66.5 		"/>
		<linearGradient id="SVGID_12_" gradientUnits="userSpaceOnUse" x1="45.3139" y1="74.6452" x2="75.145" y2="74.6452">
			<stop  offset="0" style="stop-color:#312A91"/>
			<stop  offset="1" style="stop-color:#3274A6"/>
		</linearGradient>
		<polygon class="st14" points="45.3,65.9 45.3,66.5 74.6,83.4 75.1,83.1 		"/>
		<linearGradient id="SVGID_13_" gradientUnits="userSpaceOnUse" x1="45.3139" y1="96.4903" x2="45.3139" y2="70.4036">
			<stop  offset="0" style="stop-color:#42E7E1"/>
			<stop  offset="1" style="stop-color:#40E5DF;stop-opacity:0"/>
		</linearGradient>
		<polygon class="st15" points="22.6,83.4 45.3,96.5 68,83.4 68,83.4 45.3,70.4 		"/>
		<g>
			<path class="st16" d="M45.3,72.7L64,83.4L45.3,94.2L26.6,83.4L45.3,72.7 M45.3,70.4l-22.7,13l22.7,13l22.7-13v0L45.3,70.4
				L45.3,70.4z"/>
		</g>
		<linearGradient id="SVGID_14_" gradientUnits="userSpaceOnUse" x1="45.3139" y1="97.6041" x2="45.3139" y2="20.4844">
			<stop  offset="0" style="stop-color:#42E7E1;stop-opacity:0.7"/>
			<stop  offset="1" style="stop-color:#40E5DF;stop-opacity:0"/>
		</linearGradient>
		<polygon class="st17" points="22.6,18 22.6,83.4 45.3,96.5 68,83.4 68,18 		"/>
		<g>
			<g>
				<g>
					<g>
						<linearGradient id="SVGID_15_" gradientUnits="userSpaceOnUse" x1="31.3306" y1="40.9949" x2="31.3306" y2="38.509">
							<stop  offset="0" style="stop-color:#42E7E1"/>
							<stop  offset="1" style="stop-color:#40E5DF;stop-opacity:0"/>
						</linearGradient>
						<rect x="30.7" y="38.5" class="st18" width="1.2" height="2.5"/>
					</g>
					<g>
						<linearGradient id="SVGID_16_" gradientUnits="userSpaceOnUse" x1="31.3306" y1="42.3574" x2="31.3306" y2="41.6762">
							<stop  offset="0" style="stop-color:#42E7E1"/>
							<stop  offset="1" style="stop-color:#40E5DF;stop-opacity:0"/>
						</linearGradient>
						<rect x="30.7" y="41.7" class="st19" width="1.2" height="0.7"/>
					</g>
					<g>
						<linearGradient id="SVGID_17_" gradientUnits="userSpaceOnUse" x1="31.3306" y1="73.0131" x2="31.3306" y2="45.7636">
							<stop  offset="0" style="stop-color:#42E7E1"/>
							<stop  offset="1" style="stop-color:#40E5DF;stop-opacity:0"/>
						</linearGradient>
						<path class="st20" d="M32,73h-1.2v-0.7H32V73z M32,71.7h-1.2v-5.4H32V71.7z M32,62.8h-1.2v-0.7H32V62.8z M32,61.4h-1.2V56H32
							V61.4z M32,52.6h-1.2v-0.7H32V52.6z M32,51.2h-1.2v-5.4H32V51.2z"/>
					</g>
					<g>
						<linearGradient id="SVGID_18_" gradientUnits="userSpaceOnUse" x1="31.3306" y1="78.9052" x2="31.3306" y2="76.4193">
							<stop  offset="0" style="stop-color:#42E7E1"/>
							<stop  offset="1" style="stop-color:#40E5DF;stop-opacity:0"/>
						</linearGradient>
						<rect x="30.7" y="76.4" class="st21" width="1.2" height="2.5"/>
					</g>
				</g>
				<g>
					<g>
						<linearGradient id="SVGID_19_" gradientUnits="userSpaceOnUse" x1="34.438" y1="47.2097" x2="34.438" y2="44.7238">
							<stop  offset="0" style="stop-color:#42E7E1"/>
							<stop  offset="1" style="stop-color:#40E5DF;stop-opacity:0"/>
						</linearGradient>
						<rect x="33.8" y="44.7" class="st22" width="1.2" height="2.5"/>
					</g>
					<g>
						<linearGradient id="SVGID_20_" gradientUnits="userSpaceOnUse" x1="34.438" y1="48.5722" x2="34.438" y2="47.891">
							<stop  offset="0" style="stop-color:#42E7E1"/>
							<stop  offset="1" style="stop-color:#40E5DF;stop-opacity:0"/>
						</linearGradient>
						<rect x="33.8" y="47.9" class="st23" width="1.2" height="0.7"/>
					</g>
					<g>
						<linearGradient id="SVGID_21_" gradientUnits="userSpaceOnUse" x1="34.438" y1="79.2279" x2="34.438" y2="51.9784">
							<stop  offset="0" style="stop-color:#42E7E1"/>
							<stop  offset="1" style="stop-color:#40E5DF;stop-opacity:0"/>
						</linearGradient>
						<path class="st24" d="M35.1,79.2h-1.2v-0.7h1.2V79.2z M35.1,77.9h-1.2v-5.4h1.2V77.9z M35.1,69h-1.2v-0.7h1.2V69z M35.1,67.6
							h-1.2v-5.4h1.2V67.6z M35.1,58.8h-1.2v-0.7h1.2V58.8z M35.1,57.4h-1.2V52h1.2V57.4z"/>
					</g>
					<g>
						<linearGradient id="SVGID_22_" gradientUnits="userSpaceOnUse" x1="34.438" y1="85.12" x2="34.438" y2="82.6341">
							<stop  offset="0" style="stop-color:#42E7E1"/>
							<stop  offset="1" style="stop-color:#40E5DF;stop-opacity:0"/>
						</linearGradient>
						<rect x="33.8" y="82.6" class="st25" width="1.2" height="2.5"/>
					</g>
				</g>
				<g>
					<g>
						<linearGradient id="SVGID_23_" gradientUnits="userSpaceOnUse" x1="56.1898" y1="40.9949" x2="56.1898" y2="38.509">
							<stop  offset="0" style="stop-color:#42E7E1"/>
							<stop  offset="1" style="stop-color:#40E5DF;stop-opacity:0"/>
						</linearGradient>
						<rect x="55.6" y="38.5" class="st26" width="1.2" height="2.5"/>
					</g>
					<g>
						<linearGradient id="SVGID_24_" gradientUnits="userSpaceOnUse" x1="56.1898" y1="42.3574" x2="56.1898" y2="41.6762">
							<stop  offset="0" style="stop-color:#42E7E1"/>
							<stop  offset="1" style="stop-color:#40E5DF;stop-opacity:0"/>
						</linearGradient>
						<rect x="55.6" y="41.7" class="st27" width="1.2" height="0.7"/>
					</g>
					<g>
						<linearGradient id="SVGID_25_" gradientUnits="userSpaceOnUse" x1="56.1898" y1="73.0131" x2="56.1898" y2="45.7636">
							<stop  offset="0" style="stop-color:#42E7E1"/>
							<stop  offset="1" style="stop-color:#40E5DF;stop-opacity:0"/>
						</linearGradient>
						<path class="st28" d="M56.8,73h-1.2v-0.7h1.2V73z M56.8,71.7h-1.2v-5.4h1.2V71.7z M56.8,62.8h-1.2v-0.7h1.2V62.8z M56.8,61.4
							h-1.2V56h1.2V61.4z M56.8,52.6h-1.2v-0.7h1.2V52.6z M56.8,51.2h-1.2v-5.4h1.2V51.2z"/>
					</g>
					<g>
						<linearGradient id="SVGID_26_" gradientUnits="userSpaceOnUse" x1="56.1898" y1="78.9052" x2="56.1898" y2="76.4193">
							<stop  offset="0" style="stop-color:#42E7E1"/>
							<stop  offset="1" style="stop-color:#40E5DF;stop-opacity:0"/>
						</linearGradient>
						<rect x="55.6" y="76.4" class="st29" width="1.2" height="2.5"/>
					</g>
				</g>
				<g>
					<g>
						<linearGradient id="SVGID_27_" gradientUnits="userSpaceOnUse" x1="59.2972" y1="47.2097" x2="59.2972" y2="44.7238">
							<stop  offset="0" style="stop-color:#42E7E1"/>
							<stop  offset="1" style="stop-color:#40E5DF;stop-opacity:0"/>
						</linearGradient>
						<rect x="58.7" y="44.7" class="st30" width="1.2" height="2.5"/>
					</g>
					<g>
						<linearGradient id="SVGID_28_" gradientUnits="userSpaceOnUse" x1="59.2972" y1="48.5722" x2="59.2972" y2="47.891">
							<stop  offset="0" style="stop-color:#42E7E1"/>
							<stop  offset="1" style="stop-color:#40E5DF;stop-opacity:0"/>
						</linearGradient>
						<rect x="58.7" y="47.9" class="st31" width="1.2" height="0.7"/>
					</g>
					<g>
						<linearGradient id="SVGID_29_" gradientUnits="userSpaceOnUse" x1="59.2972" y1="79.2279" x2="59.2972" y2="51.9784">
							<stop  offset="0" style="stop-color:#42E7E1"/>
							<stop  offset="1" style="stop-color:#40E5DF;stop-opacity:0"/>
						</linearGradient>
						<path class="st32" d="M59.9,79.2h-1.2v-0.7h1.2V79.2z M59.9,77.9h-1.2v-5.4h1.2V77.9z M59.9,69h-1.2v-0.7h1.2V69z M59.9,67.6
							h-1.2v-5.4h1.2V67.6z M59.9,58.8h-1.2v-0.7h1.2V58.8z M59.9,57.4h-1.2V52h1.2V57.4z"/>
					</g>
					<g>
						<linearGradient id="SVGID_30_" gradientUnits="userSpaceOnUse" x1="59.2972" y1="85.12" x2="59.2972" y2="82.6341">
							<stop  offset="0" style="stop-color:#42E7E1"/>
							<stop  offset="1" style="stop-color:#40E5DF;stop-opacity:0"/>
						</linearGradient>
						<rect x="58.7" y="82.6" class="st33" width="1.2" height="2.5"/>
					</g>
				</g>
			</g>
			<g>
				<g>
					<g>
						<linearGradient id="SVGID_31_" gradientUnits="userSpaceOnUse" x1="43.7602" y1="31.6727" x2="43.7602" y2="29.1868">
							<stop  offset="0" style="stop-color:#42E7E1"/>
							<stop  offset="1" style="stop-color:#40E5DF;stop-opacity:0"/>
						</linearGradient>
						<rect x="43.1" y="29.2" class="st34" width="1.2" height="2.5"/>
					</g>
					<g>
						<linearGradient id="SVGID_32_" gradientUnits="userSpaceOnUse" x1="43.7602" y1="33.0352" x2="43.7602" y2="32.354">
							<stop  offset="0" style="stop-color:#42E7E1"/>
							<stop  offset="1" style="stop-color:#40E5DF;stop-opacity:0"/>
						</linearGradient>
						<rect x="43.1" y="32.4" class="st35" width="1.2" height="0.7"/>
					</g>
					<g>
						<linearGradient id="SVGID_33_" gradientUnits="userSpaceOnUse" x1="43.7602" y1="63.6909" x2="43.7602" y2="36.4414">
							<stop  offset="0" style="stop-color:#42E7E1"/>
							<stop  offset="1" style="stop-color:#40E5DF;stop-opacity:0"/>
						</linearGradient>
						<path class="st36" d="M44.4,63.7h-1.2V63h1.2V63.7z M44.4,62.3h-1.2v-5.4h1.2V62.3z M44.4,53.5h-1.2v-0.7h1.2V53.5z
							 M44.4,52.1h-1.2v-5.4h1.2V52.1z M44.4,43.3h-1.2v-0.7h1.2V43.3z M44.4,41.9h-1.2v-5.4h1.2V41.9z"/>
					</g>
					<g>
						<linearGradient id="SVGID_34_" gradientUnits="userSpaceOnUse" x1="43.7602" y1="69.583" x2="43.7602" y2="67.0971">
							<stop  offset="0" style="stop-color:#42E7E1"/>
							<stop  offset="1" style="stop-color:#40E5DF;stop-opacity:0"/>
						</linearGradient>
						<rect x="43.1" y="67.1" class="st37" width="1.2" height="2.5"/>
					</g>
				</g>
				<g>
					<g>
						<linearGradient id="SVGID_35_" gradientUnits="userSpaceOnUse" x1="46.8676" y1="37.8875" x2="46.8676" y2="35.4016">
							<stop  offset="0" style="stop-color:#42E7E1"/>
							<stop  offset="1" style="stop-color:#40E5DF;stop-opacity:0"/>
						</linearGradient>
						<rect x="46.2" y="35.4" class="st38" width="1.2" height="2.5"/>
					</g>
					<g>
						<linearGradient id="SVGID_36_" gradientUnits="userSpaceOnUse" x1="46.8676" y1="39.25" x2="46.8676" y2="38.5688">
							<stop  offset="0" style="stop-color:#42E7E1"/>
							<stop  offset="1" style="stop-color:#40E5DF;stop-opacity:0"/>
						</linearGradient>
						<rect x="46.2" y="38.6" class="st39" width="1.2" height="0.7"/>
					</g>
					<g>
						<linearGradient id="SVGID_37_" gradientUnits="userSpaceOnUse" x1="46.8676" y1="69.9057" x2="46.8676" y2="42.6562">
							<stop  offset="0" style="stop-color:#42E7E1"/>
							<stop  offset="1" style="stop-color:#40E5DF;stop-opacity:0"/>
						</linearGradient>
						<path class="st40" d="M47.5,69.9h-1.2v-0.7h1.2V69.9z M47.5,68.5h-1.2v-5.4h1.2V68.5z M47.5,59.7h-1.2V59h1.2V59.7z
							 M47.5,58.3h-1.2v-5.4h1.2V58.3z M47.5,49.5h-1.2v-0.7h1.2V49.5z M47.5,48.1h-1.2v-5.4h1.2V48.1z"/>
					</g>
					<g>
						<linearGradient id="SVGID_38_" gradientUnits="userSpaceOnUse" x1="46.8676" y1="75.7978" x2="46.8676" y2="73.3119">
							<stop  offset="0" style="stop-color:#42E7E1"/>
							<stop  offset="1" style="stop-color:#40E5DF;stop-opacity:0"/>
						</linearGradient>
						<rect x="46.2" y="73.3" class="st41" width="1.2" height="2.5"/>
					</g>
				</g>
			</g>
		</g>
	</g>
</g>
<g>
	<path class="st0" d="M29.9,157.1c-2.4-1.4-2.4-3.7,0-5.1l73.8-43.2c2.4-1.4,6.3-1.4,8.7,0l73.8,43.2c2.4,1.4,2.4,3.7,0,5.1
		l-73.8,43.2c-2.4,1.4-6.3,1.4-8.7,0L29.9,157.1z"/>
	<g>
		<linearGradient id="SVGID_39_" gradientUnits="userSpaceOnUse" x1="42.1006" y1="170.5605" x2="108.1472" y2="170.5605">
			<stop  offset="0" style="stop-color:#378CB3"/>
			<stop  offset="1" style="stop-color:#312B8F"/>
		</linearGradient>
		<polygon class="st42" points="108.1,185.7 42.1,147.7 42.1,155.4 108.1,193.4 		"/>
		<linearGradient id="SVGID_40_" gradientUnits="userSpaceOnUse" x1="108.1472" y1="170.5605" x2="174.1939" y2="170.5605">
			<stop  offset="0" style="stop-color:#251B71"/>
			<stop  offset="1" style="stop-color:#1B105F"/>
		</linearGradient>
		<polygon class="st43" points="108.1,193.4 174.2,155.4 174.2,147.7 108.1,185.7 		"/>
		<polygon class="st3" points="174.2,147.8 108.2,109.7 42.1,147.7 108.1,185.7 		"/>
		<linearGradient id="SVGID_41_" gradientUnits="userSpaceOnUse" x1="55.3099" y1="147.7194" x2="160.9845" y2="147.7194">
			<stop  offset="0" style="stop-color:#3274A6"/>
			<stop  offset="1" style="stop-color:#312A91"/>
		</linearGradient>
		<polygon class="st44" points="161,147.7 108.1,117.3 55.3,147.7 108.1,178.1 		"/>
		<polygon class="st5" points="108.1,177.6 55.3,147.7 108.1,178.1 161,147.7 		"/>
		<linearGradient id="SVGID_42_" gradientUnits="userSpaceOnUse" x1="55.3099" y1="132.8039" x2="108.1472" y2="132.8039">
			<stop  offset="0" style="stop-color:#312A91"/>
			<stop  offset="1" style="stop-color:#3274A6"/>
		</linearGradient>
		<polygon class="st45" points="108.1,117.3 55.3,147.7 56.3,148.3 108.1,118.4 		"/>
		<linearGradient id="SVGID_43_" gradientUnits="userSpaceOnUse" x1="108.1472" y1="132.8039" x2="160.9845" y2="132.8039">
			<stop  offset="0" style="stop-color:#312A91"/>
			<stop  offset="1" style="stop-color:#3274A6"/>
		</linearGradient>
		<polygon class="st46" points="108.1,117.3 108.1,118.4 160,148.3 161,147.7 		"/>
		<linearGradient id="SVGID_44_" gradientUnits="userSpaceOnUse" x1="67.9689" y1="154.386" x2="108.1472" y2="154.386">
			<stop  offset="0" style="stop-color:#40E5DF;stop-opacity:0.5"/>
			<stop  offset="1" style="stop-color:#42E7E1"/>
		</linearGradient>
		<polygon class="st47" points="108.1,160.4 68,137.3 68,148.4 108.1,171.5 		"/>
		<linearGradient id="SVGID_45_" gradientUnits="userSpaceOnUse" x1="108.1472" y1="154.386" x2="148.3256" y2="154.386">
			<stop  offset="0" style="stop-color:#42E7E1;stop-opacity:0.9"/>
			<stop  offset="1" style="stop-color:#40E5DF;stop-opacity:0.5"/>
		</linearGradient>
		<polygon class="st48" points="148.3,148.4 108.1,171.5 108.1,160.4 148.3,137.3 		"/>
	</g>
	<g>
		<linearGradient id="SVGID_46_" gradientUnits="userSpaceOnUse" x1="42.1006" y1="138.0876" x2="108.1472" y2="138.0876">
			<stop  offset="0" style="stop-color:#378CB3"/>
			<stop  offset="1" style="stop-color:#312B8F"/>
		</linearGradient>
		<polygon class="st49" points="108.1,153.2 42.1,115.2 42.1,123 108.1,160.9 		"/>
		<linearGradient id="SVGID_47_" gradientUnits="userSpaceOnUse" x1="108.1472" y1="138.0876" x2="174.1939" y2="138.0876">
			<stop  offset="0" style="stop-color:#251B71"/>
			<stop  offset="1" style="stop-color:#1B105F"/>
		</linearGradient>
		<polygon class="st50" points="108.1,160.9 174.2,123 174.2,115.2 108.1,153.2 		"/>
		<polygon class="st3" points="174.2,115.3 108.2,77.3 42.1,115.2 108.1,153.2 		"/>
		<linearGradient id="SVGID_48_" gradientUnits="userSpaceOnUse" x1="55.3099" y1="115.2465" x2="160.9845" y2="115.2465">
			<stop  offset="0" style="stop-color:#3274A6"/>
			<stop  offset="1" style="stop-color:#312A91"/>
		</linearGradient>
		<polygon class="st51" points="161,115.2 108.1,84.9 55.3,115.2 108.1,145.6 		"/>
		<polygon class="st5" points="108.1,145.1 55.3,115.2 108.1,145.6 161,115.2 		"/>
		<linearGradient id="SVGID_49_" gradientUnits="userSpaceOnUse" x1="55.3099" y1="100.3309" x2="108.1472" y2="100.3309">
			<stop  offset="0" style="stop-color:#312A91"/>
			<stop  offset="1" style="stop-color:#3274A6"/>
		</linearGradient>
		<polygon class="st52" points="108.1,84.9 55.3,115.2 56.3,115.8 108.1,86 		"/>
		<linearGradient id="SVGID_50_" gradientUnits="userSpaceOnUse" x1="108.1472" y1="100.3309" x2="160.9845" y2="100.3309">
			<stop  offset="0" style="stop-color:#312A91"/>
			<stop  offset="1" style="stop-color:#3274A6"/>
		</linearGradient>
		<polygon class="st53" points="108.1,84.9 108.1,86 160,115.8 161,115.2 		"/>
		<linearGradient id="SVGID_51_" gradientUnits="userSpaceOnUse" x1="108.1472" y1="139.0233" x2="108.1472" y2="92.8181">
			<stop  offset="0" style="stop-color:#42E7E1"/>
			<stop  offset="1" style="stop-color:#40E5DF;stop-opacity:0"/>
		</linearGradient>
		<polygon class="st54" points="68,115.9 108.1,139 148.3,115.9 148.3,115.9 108.1,92.8 		"/>
		<g>
			<path class="st16" d="M108.1,95.1l36.2,20.8l-36.2,20.8L72,115.9L108.1,95.1 M108.1,92.8L68,115.9l40.2,23.1l40.2-23.1v0
				L108.1,92.8L108.1,92.8z"/>
		</g>
		<linearGradient id="SVGID_52_" gradientUnits="userSpaceOnUse" x1="108.1472" y1="140.9961" x2="108.1472" y2="4.4003">
			<stop  offset="0" style="stop-color:#42E7E1;stop-opacity:0.7"/>
			<stop  offset="1" style="stop-color:#40E5DF;stop-opacity:0"/>
		</linearGradient>
		<polygon class="st55" points="68,0 68,115.9 108.1,139 148.3,115.9 148.3,0 		"/>
		<g>
			<g>
				<g>
					<g>
						<linearGradient id="SVGID_53_" gradientUnits="userSpaceOnUse" x1="83.3798" y1="40.7289" x2="83.3798" y2="36.3258">
							<stop  offset="0" style="stop-color:#42E7E1"/>
							<stop  offset="1" style="stop-color:#40E5DF;stop-opacity:0"/>
						</linearGradient>
						<rect x="82.3" y="36.3" class="st56" width="2.2" height="4.4"/>
					</g>
					<g>
						<linearGradient id="SVGID_54_" gradientUnits="userSpaceOnUse" x1="83.3798" y1="43.1422" x2="83.3798" y2="41.9355">
							<stop  offset="0" style="stop-color:#42E7E1"/>
							<stop  offset="1" style="stop-color:#40E5DF;stop-opacity:0"/>
						</linearGradient>
						<rect x="82.3" y="41.9" class="st57" width="2.2" height="1.2"/>
					</g>
					<g>
						<linearGradient id="SVGID_55_" gradientUnits="userSpaceOnUse" x1="83.3798" y1="97.4401" x2="83.3798" y2="49.1752">
							<stop  offset="0" style="stop-color:#42E7E1"/>
							<stop  offset="1" style="stop-color:#40E5DF;stop-opacity:0"/>
						</linearGradient>
						<path class="st58" d="M84.5,97.4h-2.2v-1.2h2.2V97.4z M84.5,95h-2.2v-9.7h2.2V95z M84.5,79.3h-2.2v-1.2h2.2V79.3z M84.5,76.9
							h-2.2v-9.7h2.2V76.9z M84.5,61.2h-2.2V60h2.2V61.2z M84.5,58.8h-2.2v-9.7h2.2V58.8z"/>
					</g>
					<g>
						<linearGradient id="SVGID_56_" gradientUnits="userSpaceOnUse" x1="83.3798" y1="107.8763" x2="83.3798" y2="103.4732">
							<stop  offset="0" style="stop-color:#42E7E1"/>
							<stop  offset="1" style="stop-color:#40E5DF;stop-opacity:0"/>
						</linearGradient>
						<rect x="82.3" y="103.5" class="st59" width="2.2" height="4.4"/>
					</g>
				</g>
				<g>
					<g>
						<linearGradient id="SVGID_57_" gradientUnits="userSpaceOnUse" x1="88.8836" y1="51.7366" x2="88.8836" y2="47.3335">
							<stop  offset="0" style="stop-color:#42E7E1"/>
							<stop  offset="1" style="stop-color:#40E5DF;stop-opacity:0"/>
						</linearGradient>
						<rect x="87.8" y="47.3" class="st60" width="2.2" height="4.4"/>
					</g>
					<g>
						<linearGradient id="SVGID_58_" gradientUnits="userSpaceOnUse" x1="88.8836" y1="54.15" x2="88.8836" y2="52.9433">
							<stop  offset="0" style="stop-color:#42E7E1"/>
							<stop  offset="1" style="stop-color:#40E5DF;stop-opacity:0"/>
						</linearGradient>
						<rect x="87.8" y="52.9" class="st61" width="2.2" height="1.2"/>
					</g>
					<g>
						<linearGradient id="SVGID_59_" gradientUnits="userSpaceOnUse" x1="88.8836" y1="108.4479" x2="88.8836" y2="60.183">
							<stop  offset="0" style="stop-color:#42E7E1"/>
							<stop  offset="1" style="stop-color:#40E5DF;stop-opacity:0"/>
						</linearGradient>
						<path class="st62" d="M90,108.4h-2.2v-1.2H90V108.4z M90,106h-2.2v-9.7H90V106z M90,90.3h-2.2v-1.2H90V90.3z M90,87.9h-2.2
							v-9.7H90V87.9z M90,72.2h-2.2V71H90V72.2z M90,69.8h-2.2v-9.7H90V69.8z"/>
					</g>
					<g>
						<linearGradient id="SVGID_60_" gradientUnits="userSpaceOnUse" x1="88.8836" y1="118.8841" x2="88.8836" y2="114.4809">
							<stop  offset="0" style="stop-color:#42E7E1"/>
							<stop  offset="1" style="stop-color:#40E5DF;stop-opacity:0"/>
						</linearGradient>
						<rect x="87.8" y="114.5" class="st63" width="2.2" height="4.4"/>
					</g>
				</g>
				<g>
					<g>
						<linearGradient id="SVGID_61_" gradientUnits="userSpaceOnUse" x1="127.4108" y1="40.7289" x2="127.4108" y2="36.3258">
							<stop  offset="0" style="stop-color:#42E7E1"/>
							<stop  offset="1" style="stop-color:#40E5DF;stop-opacity:0"/>
						</linearGradient>
						<rect x="126.3" y="36.3" class="st64" width="2.2" height="4.4"/>
					</g>
					<g>
						<linearGradient id="SVGID_62_" gradientUnits="userSpaceOnUse" x1="127.4108" y1="43.1422" x2="127.4108" y2="41.9355">
							<stop  offset="0" style="stop-color:#42E7E1"/>
							<stop  offset="1" style="stop-color:#40E5DF;stop-opacity:0"/>
						</linearGradient>
						<rect x="126.3" y="41.9" class="st65" width="2.2" height="1.2"/>
					</g>
					<g>
						<linearGradient id="SVGID_63_" gradientUnits="userSpaceOnUse" x1="127.4108" y1="97.4401" x2="127.4108" y2="49.1752">
							<stop  offset="0" style="stop-color:#42E7E1"/>
							<stop  offset="1" style="stop-color:#40E5DF;stop-opacity:0"/>
						</linearGradient>
						<path class="st66" d="M128.5,97.4h-2.2v-1.2h2.2V97.4z M128.5,95h-2.2v-9.7h2.2V95z M128.5,79.3h-2.2v-1.2h2.2V79.3z
							 M128.5,76.9h-2.2v-9.7h2.2V76.9z M128.5,61.2h-2.2V60h2.2V61.2z M128.5,58.8h-2.2v-9.7h2.2V58.8z"/>
					</g>
					<g>
						<linearGradient id="SVGID_64_" gradientUnits="userSpaceOnUse" x1="127.4108" y1="107.8763" x2="127.4108" y2="103.4732">
							<stop  offset="0" style="stop-color:#42E7E1"/>
							<stop  offset="1" style="stop-color:#40E5DF;stop-opacity:0"/>
						</linearGradient>
						<rect x="126.3" y="103.5" class="st67" width="2.2" height="4.4"/>
					</g>
				</g>
				<g>
					<g>
						<linearGradient id="SVGID_65_" gradientUnits="userSpaceOnUse" x1="132.9147" y1="51.7366" x2="132.9147" y2="47.3335">
							<stop  offset="0" style="stop-color:#42E7E1"/>
							<stop  offset="1" style="stop-color:#40E5DF;stop-opacity:0"/>
						</linearGradient>
						<rect x="131.8" y="47.3" class="st68" width="2.2" height="4.4"/>
					</g>
					<g>
						<linearGradient id="SVGID_66_" gradientUnits="userSpaceOnUse" x1="132.9147" y1="54.15" x2="132.9147" y2="52.9433">
							<stop  offset="0" style="stop-color:#42E7E1"/>
							<stop  offset="1" style="stop-color:#40E5DF;stop-opacity:0"/>
						</linearGradient>
						<rect x="131.8" y="52.9" class="st69" width="2.2" height="1.2"/>
					</g>
					<g>
						<linearGradient id="SVGID_67_" gradientUnits="userSpaceOnUse" x1="132.9147" y1="108.4479" x2="132.9147" y2="60.183">
							<stop  offset="0" style="stop-color:#42E7E1"/>
							<stop  offset="1" style="stop-color:#40E5DF;stop-opacity:0"/>
						</linearGradient>
						<path class="st70" d="M134,108.4h-2.2v-1.2h2.2V108.4z M134,106h-2.2v-9.7h2.2V106z M134,90.3h-2.2v-1.2h2.2V90.3z M134,87.9
							h-2.2v-9.7h2.2V87.9z M134,72.2h-2.2V71h2.2V72.2z M134,69.8h-2.2v-9.7h2.2V69.8z"/>
					</g>
					<g>
						<linearGradient id="SVGID_68_" gradientUnits="userSpaceOnUse" x1="132.9147" y1="118.8841" x2="132.9147" y2="114.4809">
							<stop  offset="0" style="stop-color:#42E7E1"/>
							<stop  offset="1" style="stop-color:#40E5DF;stop-opacity:0"/>
						</linearGradient>
						<rect x="131.8" y="114.5" class="st71" width="2.2" height="4.4"/>
					</g>
				</g>
			</g>
			<g>
				<g>
					<g>
						<linearGradient id="SVGID_69_" gradientUnits="userSpaceOnUse" x1="105.3953" y1="24.2172" x2="105.3953" y2="19.8141">
							<stop  offset="0" style="stop-color:#42E7E1"/>
							<stop  offset="1" style="stop-color:#40E5DF;stop-opacity:0"/>
						</linearGradient>
						<rect x="104.3" y="19.8" class="st72" width="2.2" height="4.4"/>
					</g>
					<g>
						<linearGradient id="SVGID_70_" gradientUnits="userSpaceOnUse" x1="105.3953" y1="26.6305" x2="105.3953" y2="25.4239">
							<stop  offset="0" style="stop-color:#42E7E1"/>
							<stop  offset="1" style="stop-color:#40E5DF;stop-opacity:0"/>
						</linearGradient>
						<rect x="104.3" y="25.4" class="st73" width="2.2" height="1.2"/>
					</g>
					<g>
						<linearGradient id="SVGID_71_" gradientUnits="userSpaceOnUse" x1="105.3953" y1="80.9285" x2="105.3953" y2="32.6636">
							<stop  offset="0" style="stop-color:#42E7E1"/>
							<stop  offset="1" style="stop-color:#40E5DF;stop-opacity:0"/>
						</linearGradient>
						<path class="st74" d="M106.5,80.9h-2.2v-1.2h2.2V80.9z M106.5,78.5h-2.2v-9.7h2.2V78.5z M106.5,62.8h-2.2v-1.2h2.2V62.8z
							 M106.5,60.4h-2.2v-9.7h2.2V60.4z M106.5,44.7h-2.2v-1.2h2.2V44.7z M106.5,42.3h-2.2v-9.7h2.2V42.3z"/>
					</g>
					<g>
						<linearGradient id="SVGID_72_" gradientUnits="userSpaceOnUse" x1="105.3953" y1="91.3646" x2="105.3953" y2="86.9615">
							<stop  offset="0" style="stop-color:#42E7E1"/>
							<stop  offset="1" style="stop-color:#40E5DF;stop-opacity:0"/>
						</linearGradient>
						<rect x="104.3" y="87" class="st75" width="2.2" height="4.4"/>
					</g>
				</g>
				<g>
					<g>
						<linearGradient id="SVGID_73_" gradientUnits="userSpaceOnUse" x1="110.8992" y1="35.225" x2="110.8992" y2="30.8219">
							<stop  offset="0" style="stop-color:#42E7E1"/>
							<stop  offset="1" style="stop-color:#40E5DF;stop-opacity:0"/>
						</linearGradient>
						<rect x="109.8" y="30.8" class="st76" width="2.2" height="4.4"/>
					</g>
					<g>
						<linearGradient id="SVGID_74_" gradientUnits="userSpaceOnUse" x1="110.8992" y1="37.6383" x2="110.8992" y2="36.4317">
							<stop  offset="0" style="stop-color:#42E7E1"/>
							<stop  offset="1" style="stop-color:#40E5DF;stop-opacity:0"/>
						</linearGradient>
						<rect x="109.8" y="36.4" class="st77" width="2.2" height="1.2"/>
					</g>
					<g>
						<linearGradient id="SVGID_75_" gradientUnits="userSpaceOnUse" x1="110.8992" y1="91.9362" x2="110.8992" y2="43.6714">
							<stop  offset="0" style="stop-color:#42E7E1"/>
							<stop  offset="1" style="stop-color:#40E5DF;stop-opacity:0"/>
						</linearGradient>
						<path class="st78" d="M112,91.9h-2.2v-1.2h2.2V91.9z M112,89.5h-2.2v-9.7h2.2V89.5z M112,73.8h-2.2v-1.2h2.2V73.8z M112,71.4
							h-2.2v-9.7h2.2V71.4z M112,55.7h-2.2v-1.2h2.2V55.7z M112,53.3h-2.2v-9.7h2.2V53.3z"/>
					</g>
					<g>
						<linearGradient id="SVGID_76_" gradientUnits="userSpaceOnUse" x1="110.8992" y1="102.3724" x2="110.8992" y2="97.9693">
							<stop  offset="0" style="stop-color:#42E7E1"/>
							<stop  offset="1" style="stop-color:#40E5DF;stop-opacity:0"/>
						</linearGradient>
						<rect x="109.8" y="98" class="st79" width="2.2" height="4.4"/>
					</g>
				</g>
			</g>
		</g>
	</g>
</g>
</svg>
