<?xml version="1.0" encoding="utf-8"?>
<!-- Generator: Adobe Illustrator 22.1.0, SVG Export Plug-In . SVG Version: 6.00 Build 0)  -->
<svg version="1.1" id="Layer_1" xmlns="http://www.w3.org/2000/svg" xmlns:xlink="http://www.w3.org/1999/xlink" x="0px" y="0px"
	 viewBox="0 0 63.6 60" style="enable-background:new 0 0 63.6 60;" xml:space="preserve">
<style type="text/css">
	.st0{opacity:0.3;fill:#140852;}
	.st1{opacity:0.3;fill:url(#SVGID_1_);}
	.st2{opacity:0.3;}
	.st3{fill:#140852;}
	.st4{fill:url(#SVGID_2_);}
	.st5{fill:url(#SVGID_3_);}
	.st6{fill:url(#SVGID_4_);}
	.st7{fill:url(#SVGID_5_);}
	.st8{opacity:0.9;fill:url(#SVGID_6_);}
	.st9{opacity:0.75;fill:url(#SVGID_7_);}
	.st10{opacity:0.75;fill:url(#SVGID_8_);}
	.st11{opacity:0.5;fill:url(#SVGID_9_);}
	.st12{opacity:0.5;fill:url(#SVGID_10_);}
	.st13{fill:url(#SVGID_11_);}
	.st14{fill:url(#SVGID_12_);}
	.st15{opacity:0.9;fill:url(#SVGID_13_);}
	.st16{opacity:0.75;fill:url(#SVGID_14_);}
	.st17{opacity:0.75;fill:url(#SVGID_15_);}
	.st18{opacity:0.5;fill:url(#SVGID_16_);}
	.st19{opacity:0.5;fill:url(#SVGID_17_);}
	.st20{fill:url(#SVGID_18_);}
	.st21{fill:url(#SVGID_19_);}
	.st22{opacity:0.9;fill:url(#SVGID_20_);}
	.st23{opacity:0.75;fill:url(#SVGID_21_);}
	.st24{opacity:0.75;fill:url(#SVGID_22_);}
	.st25{opacity:0.5;fill:url(#SVGID_23_);}
	.st26{opacity:0.5;fill:url(#SVGID_24_);}
	.st27{fill:url(#SVGID_25_);}
	.st28{fill:url(#SVGID_26_);}
	.st29{fill:#24116A;}
	.st30{fill:#352786;}
	.st31{fill:#3D3292;}
	.st32{fill:#384393;}
	.st33{fill:#BDBEFF;}
	.st34{fill:url(#SVGID_27_);}
	.st35{fill:url(#SVGID_28_);}
	.st36{fill:#666EDB;}
	.st37{fill:url(#SVGID_29_);}
	.st38{fill:#43E8E1;}
	.st39{opacity:0.5;fill:url(#SVGID_30_);}
	.st40{opacity:0.75;fill:url(#SVGID_31_);}
	.st41{opacity:0.5;fill:url(#SVGID_32_);}
	.st42{fill:url(#SVGID_33_);}
	.st43{opacity:0.5;fill:url(#SVGID_34_);}
	.st44{fill:#FFFFFF;}
	.st45{clip-path:url(#SVGID_36_);fill:#586DDA;}
	.st46{clip-path:url(#SVGID_36_);fill:#3F20D3;}
	.st47{clip-path:url(#SVGID_38_);fill:#586DDA;}
	.st48{clip-path:url(#SVGID_38_);fill:#3F20D3;}
	.st49{clip-path:url(#SVGID_40_);fill:#586DDA;}
	.st50{clip-path:url(#SVGID_40_);fill:#3F20D3;}
	.st51{clip-path:url(#SVGID_42_);fill:#586DDA;}
	.st52{clip-path:url(#SVGID_42_);fill:#3F20D3;}
	.st53{fill:#3F20D3;}
	.st54{fill:url(#SVGID_43_);}
	.st55{fill:url(#SVGID_44_);}
	.st56{fill:url(#SVGID_45_);}
	.st57{fill:url(#SVGID_46_);}
	.st58{fill:url(#SVGID_47_);}
	.st59{fill:url(#SVGID_48_);}
</style>
<g>
	<polygon class="st0" points="33.3,57 63.6,39.6 33.3,21.9 3.1,39.6 	"/>
	<linearGradient id="SVGID_1_" gradientUnits="userSpaceOnUse" x1="33.3707" y1="53.7" x2="33.3707" y2="24.1985">
		<stop  offset="0" style="stop-color:#39B3C2"/>
		<stop  offset="1" style="stop-color:#4348AE"/>
	</linearGradient>
	<polygon class="st1" points="33.3,24.6 58.8,39.5 33.3,54.2 7.9,39.6 	"/>
	<polygon class="st0" points="33.3,27.6 53.7,39.5 33.3,51.3 13,39.6 	"/>
	<g class="st2">
		<path class="st3" d="M35.5,32.8l-5.8,0.9c0,0,0,0-0.1,0l-10,5.7c-0.1,0-0.1,0.1-0.1,0.2c0,0,0,0.1,0.1,0.2l13.1,7.6
			c0.3,0.1,0.6,0.1,0.8,0l13.3-7.6c0.1,0,0.1-0.1,0.1-0.2c0,0,0-0.1-0.1-0.2l-11.3-6.5C35.6,32.8,35.5,32.8,35.5,32.8
			C35.5,32.8,35.5,32.8,35.5,32.8z"/>
	</g>
	<g>
		
			<linearGradient id="SVGID_2_" gradientUnits="userSpaceOnUse" x1="964.6876" y1="40.1103" x2="992.4742" y2="40.1103" gradientTransform="matrix(-1 0 0 1 1011.8793 0)">
			<stop  offset="0" style="stop-color:#5465D7"/>
			<stop  offset="1" style="stop-color:#43E1E0"/>
		</linearGradient>
		<path class="st4" d="M32.6,47.6l-12.9-7.5c-0.2-0.1-0.3-0.3-0.3-0.5c0-0.2,0.1-0.4,0.3-0.5l9.8-5.6c0.1,0,0.1-0.1,0.2-0.1l5.7-0.8
			c0.1,0,0.3,0,0.4,0.1L46.9,39c0.2,0.1,0.3,0.3,0.3,0.5c0,0.2-0.1,0.4-0.3,0.5l-13,7.5c-0.2,0.1-0.4,0.2-0.6,0.2
			C33,47.7,32.8,47.7,32.6,47.6z M35.4,32.9l-5.7,0.8c0,0,0,0-0.1,0l-9.8,5.6c-0.1,0-0.1,0.1-0.1,0.2c0,0,0,0.1,0.1,0.2l12.9,7.5
			c0.2,0.1,0.6,0.1,0.8,0l13-7.5c0.1,0,0.1-0.1,0.1-0.2c0,0,0-0.1-0.1-0.2L35.6,33C35.5,32.9,35.5,32.9,35.4,32.9
			C35.5,32.9,35.5,32.9,35.4,32.9z"/>
	</g>
	<g>
		
			<linearGradient id="SVGID_3_" gradientUnits="userSpaceOnUse" x1="988.0884" y1="33.9861" x2="1006.9124" y2="33.9861" gradientTransform="matrix(-1 0 0 1 1011.8793 0)">
			<stop  offset="0" style="stop-color:#5465D7"/>
			<stop  offset="1" style="stop-color:#43E1E0"/>
		</linearGradient>
		<path class="st5" d="M14.5,37.7c0.1,0,0.3,0,0.4-0.1l9-5.2L23.6,32l-9,5.2c-0.1,0.1-0.2,0.1-0.3,0l-8.8-5L8,30.7l-0.2-0.4
			l-2.6,1.6C5,32,5,32.1,5,32.2c0,0.1,0.1,0.2,0.2,0.3l9,5.1C14.2,37.6,14.3,37.7,14.5,37.7z"/>
	</g>
	
		<linearGradient id="SVGID_4_" gradientUnits="userSpaceOnUse" x1="989.0033" y1="31.7297" x2="1005.8279" y2="31.7297" gradientTransform="matrix(-1 0 0 1 1011.8793 0)">
		<stop  offset="0" style="stop-color:#4348AE"/>
		<stop  offset="1" style="stop-color:#39B3C2"/>
	</linearGradient>
	<polygon class="st6" points="22.9,28.5 22.9,30.2 14.5,35 6.1,30.2 6.1,28.5 14.5,33.2 	"/>
	
		<linearGradient id="SVGID_5_" gradientUnits="userSpaceOnUse" x1="989.0033" y1="28.4826" x2="1005.8279" y2="28.4826" gradientTransform="matrix(-1 0 0 1 1011.8793 0)">
		<stop  offset="0" style="stop-color:#39B3C2"/>
		<stop  offset="1" style="stop-color:#CAC8F9"/>
	</linearGradient>
	<path class="st7" d="M6.1,28.5l8.4,4.8l8.4-4.8l-8.4-4.8L6.1,28.5z M14.5,32.3l-6.8-3.8l6.8-3.8l6.8,3.8L14.5,32.3z"/>
	
		<linearGradient id="SVGID_6_" gradientUnits="userSpaceOnUse" x1="1001.7704" y1="28.4693" x2="994.5034" y2="28.4693" gradientTransform="matrix(-1 0 0 1 1011.8793 0)">
		<stop  offset="0" style="stop-color:#4348AE"/>
		<stop  offset="9.030807e-02" style="stop-color:#415DB2"/>
		<stop  offset="0.2468" style="stop-color:#3E7CB8"/>
		<stop  offset="0.411" style="stop-color:#3C94BC"/>
		<stop  offset="0.5839" style="stop-color:#3AA6BF"/>
		<stop  offset="0.7714" style="stop-color:#39B0C1"/>
		<stop  offset="1" style="stop-color:#39B3C2"/>
	</linearGradient>
	<polygon class="st8" points="19.6,28.4 14.5,31.3 9.3,28.4 14.5,25.6 	"/>
	
		<linearGradient id="SVGID_7_" gradientUnits="userSpaceOnUse" x1="1001.0809" y1="24.8679" x2="994.6846" y2="24.8679" gradientTransform="matrix(-1 0 0 1 1011.8793 0)">
		<stop  offset="0" style="stop-color:#4348AE"/>
		<stop  offset="1" style="stop-color:#39B3C2"/>
	</linearGradient>
	<polygon class="st9" points="14.5,21.3 19.6,24.2 19.6,28.4 14.5,25.6 	"/>
	
		<linearGradient id="SVGID_8_" gradientUnits="userSpaceOnUse" x1="997.4156" y1="24.8679" x2="1002.5618" y2="24.8679" gradientTransform="matrix(-1 0 0 1 1011.8793 0)">
		<stop  offset="0" style="stop-color:#39B3C2"/>
		<stop  offset="1" style="stop-color:#4348AE"/>
	</linearGradient>
	<polygon class="st10" points="14.5,25.6 9.3,28.4 9.3,24.2 14.5,21.3 	"/>
	
		<linearGradient id="SVGID_9_" gradientUnits="userSpaceOnUse" x1="992.2694" y1="27.7749" x2="997.4156" y2="27.7749" gradientTransform="matrix(-1 0 0 1 1011.8793 0)">
		<stop  offset="0" style="stop-color:#39B3C2"/>
		<stop  offset="1" style="stop-color:#4348AE"/>
	</linearGradient>
	<polygon class="st11" points="14.5,27.1 19.6,24.2 19.6,28.4 14.5,31.3 	"/>
	
		<linearGradient id="SVGID_10_" gradientUnits="userSpaceOnUse" x1="997.4156" y1="27.7749" x2="1002.5618" y2="27.7749" gradientTransform="matrix(-1 0 0 1 1011.8793 0)">
		<stop  offset="0" style="stop-color:#39B3C2"/>
		<stop  offset="1" style="stop-color:#4348AE"/>
	</linearGradient>
	<polygon class="st12" points="14.5,31.3 9.3,28.4 9.3,24.2 14.5,27.1 	"/>
	
		<linearGradient id="SVGID_11_" gradientUnits="userSpaceOnUse" x1="952.3506" y1="30.3504" x2="969.1752" y2="30.3504" gradientTransform="matrix(-1 0 0 1 1011.8793 0)">
		<stop  offset="0" style="stop-color:#4348AE"/>
		<stop  offset="1" style="stop-color:#39B3C2"/>
	</linearGradient>
	<polygon class="st13" points="59.5,27.1 59.5,28.8 51.1,33.6 42.7,28.8 42.7,27.1 51.1,31.9 	"/>
	
		<linearGradient id="SVGID_12_" gradientUnits="userSpaceOnUse" x1="952.3506" y1="27.1033" x2="969.1752" y2="27.1033" gradientTransform="matrix(-1 0 0 1 1011.8793 0)">
		<stop  offset="0" style="stop-color:#39B3C2"/>
		<stop  offset="1" style="stop-color:#CAC8F9"/>
	</linearGradient>
	<path class="st14" d="M42.7,27.1l8.4,4.8l8.4-4.8l-8.4-4.8L42.7,27.1z M51.1,30.9l-6.8-3.8l6.8-3.8l6.8,3.8L51.1,30.9z"/>
	
		<linearGradient id="SVGID_13_" gradientUnits="userSpaceOnUse" x1="965.1177" y1="27.09" x2="957.8506" y2="27.09" gradientTransform="matrix(-1 0 0 1 1011.8793 0)">
		<stop  offset="0" style="stop-color:#4348AE"/>
		<stop  offset="9.030807e-02" style="stop-color:#415DB2"/>
		<stop  offset="0.2468" style="stop-color:#3E7CB8"/>
		<stop  offset="0.411" style="stop-color:#3C94BC"/>
		<stop  offset="0.5839" style="stop-color:#3AA6BF"/>
		<stop  offset="0.7714" style="stop-color:#39B0C1"/>
		<stop  offset="1" style="stop-color:#39B3C2"/>
	</linearGradient>
	<polygon class="st15" points="56.3,27.1 51.1,30 46,27.1 51.1,24.2 	"/>
	
		<linearGradient id="SVGID_14_" gradientUnits="userSpaceOnUse" x1="964.4282" y1="23.4886" x2="958.0319" y2="23.4886" gradientTransform="matrix(-1 0 0 1 1011.8793 0)">
		<stop  offset="0" style="stop-color:#4348AE"/>
		<stop  offset="1" style="stop-color:#39B3C2"/>
	</linearGradient>
	<polygon class="st16" points="51.1,19.9 56.3,22.8 56.3,27.1 51.1,24.2 	"/>
	
		<linearGradient id="SVGID_15_" gradientUnits="userSpaceOnUse" x1="960.7629" y1="23.4886" x2="965.9091" y2="23.4886" gradientTransform="matrix(-1 0 0 1 1011.8793 0)">
		<stop  offset="0" style="stop-color:#39B3C2"/>
		<stop  offset="1" style="stop-color:#4348AE"/>
	</linearGradient>
	<polygon class="st17" points="51.1,24.2 46,27.1 46,22.8 51.1,19.9 	"/>
	
		<linearGradient id="SVGID_16_" gradientUnits="userSpaceOnUse" x1="955.6167" y1="26.3956" x2="960.7629" y2="26.3956" gradientTransform="matrix(-1 0 0 1 1011.8793 0)">
		<stop  offset="0" style="stop-color:#39B3C2"/>
		<stop  offset="1" style="stop-color:#4348AE"/>
	</linearGradient>
	<polygon class="st18" points="51.1,25.7 56.3,22.8 56.3,27.1 51.1,30 	"/>
	
		<linearGradient id="SVGID_17_" gradientUnits="userSpaceOnUse" x1="960.7629" y1="26.3956" x2="965.9091" y2="26.3956" gradientTransform="matrix(-1 0 0 1 1011.8793 0)">
		<stop  offset="0" style="stop-color:#39B3C2"/>
		<stop  offset="1" style="stop-color:#4348AE"/>
	</linearGradient>
	<polygon class="st19" points="51.1,30 46,27.1 46,22.8 51.1,25.7 	"/>
	
		<linearGradient id="SVGID_18_" gradientUnits="userSpaceOnUse" x1="953.8748" y1="52.0563" x2="970.6994" y2="52.0563" gradientTransform="matrix(-1 0 0 1 1011.8793 0)">
		<stop  offset="0" style="stop-color:#4348AE"/>
		<stop  offset="1" style="stop-color:#39B3C2"/>
	</linearGradient>
	<polygon class="st20" points="58,48.8 58,50.6 49.6,55.3 41.2,50.6 41.2,48.8 49.6,53.6 	"/>
	
		<linearGradient id="SVGID_19_" gradientUnits="userSpaceOnUse" x1="953.8748" y1="48.8092" x2="970.6994" y2="48.8092" gradientTransform="matrix(-1 0 0 1 1011.8793 0)">
		<stop  offset="0" style="stop-color:#39B3C2"/>
		<stop  offset="1" style="stop-color:#CAC8F9"/>
	</linearGradient>
	<path class="st21" d="M41.2,48.8l8.4,4.8l8.4-4.8l-8.4-4.8L41.2,48.8z M49.6,52.6l-6.8-3.8l6.8-3.8l6.8,3.8L49.6,52.6z"/>
	
		<linearGradient id="SVGID_20_" gradientUnits="userSpaceOnUse" x1="966.6418" y1="48.7958" x2="959.3748" y2="48.7958" gradientTransform="matrix(-1 0 0 1 1011.8793 0)">
		<stop  offset="0" style="stop-color:#4348AE"/>
		<stop  offset="9.030807e-02" style="stop-color:#415DB2"/>
		<stop  offset="0.2468" style="stop-color:#3E7CB8"/>
		<stop  offset="0.411" style="stop-color:#3C94BC"/>
		<stop  offset="0.5839" style="stop-color:#3AA6BF"/>
		<stop  offset="0.7714" style="stop-color:#39B0C1"/>
		<stop  offset="1" style="stop-color:#39B3C2"/>
	</linearGradient>
	<polygon class="st22" points="54.7,48.8 49.6,51.7 44.4,48.8 49.6,45.9 	"/>
	
		<linearGradient id="SVGID_21_" gradientUnits="userSpaceOnUse" x1="965.9523" y1="41.3106" x2="959.5561" y2="41.3106" gradientTransform="matrix(-1 0 0 1 1011.8793 0)">
		<stop  offset="0" style="stop-color:#4348AE"/>
		<stop  offset="1" style="stop-color:#39B3C2"/>
	</linearGradient>
	<polygon class="st23" points="49.6,33.9 54.7,36.8 54.7,48.8 49.6,45.9 	"/>
	
		<linearGradient id="SVGID_22_" gradientUnits="userSpaceOnUse" x1="962.2871" y1="41.3106" x2="967.4333" y2="41.3106" gradientTransform="matrix(-1 0 0 1 1011.8793 0)">
		<stop  offset="0" style="stop-color:#39B3C2"/>
		<stop  offset="1" style="stop-color:#4348AE"/>
	</linearGradient>
	<polygon class="st24" points="49.6,45.9 44.4,48.8 44.4,36.8 49.6,33.9 	"/>
	
		<linearGradient id="SVGID_23_" gradientUnits="userSpaceOnUse" x1="957.1409" y1="44.2177" x2="962.2871" y2="44.2177" gradientTransform="matrix(-1 0 0 1 1011.8793 0)">
		<stop  offset="0" style="stop-color:#39B3C2"/>
		<stop  offset="1" style="stop-color:#4348AE"/>
	</linearGradient>
	<polygon class="st25" points="49.6,39.7 54.7,36.8 54.7,48.8 49.6,51.7 	"/>
	
		<linearGradient id="SVGID_24_" gradientUnits="userSpaceOnUse" x1="962.2871" y1="44.2177" x2="967.4333" y2="44.2177" gradientTransform="matrix(-1 0 0 1 1011.8793 0)">
		<stop  offset="0" style="stop-color:#39B3C2"/>
		<stop  offset="1" style="stop-color:#4348AE"/>
	</linearGradient>
	<polygon class="st26" points="49.6,51.7 44.4,48.8 44.4,36.8 49.6,39.7 	"/>
	
		<linearGradient id="SVGID_25_" gradientUnits="userSpaceOnUse" x1="957.1409" y1="36.7617" x2="967.4333" y2="36.7617" gradientTransform="matrix(-1 0 0 1 1011.8793 0)">
		<stop  offset="0" style="stop-color:#42E7E1;stop-opacity:0.9"/>
		<stop  offset="1" style="stop-color:#40E5DF;stop-opacity:0.5"/>
	</linearGradient>
	<path class="st27" d="M44.4,36.8l5.1,2.9l5.1-2.9l-5.1-2.9L44.4,36.8z M49.6,38.5l-3.1-1.7l3.1-1.7l3.1,1.7L49.6,38.5z"/>
	
		<linearGradient id="SVGID_26_" gradientUnits="userSpaceOnUse" x1="984.7142" y1="36.4426" x2="984.7142" y2="9.8675" gradientTransform="matrix(-1 0 0 1 1011.8793 0)">
		<stop  offset="0" style="stop-color:#C0C0F6"/>
		<stop  offset="1" style="stop-color:#E7E8FD"/>
	</linearGradient>
	<polygon class="st28" points="21,34.6 33.3,41.7 33.3,14.2 21,7.2 	"/>
	<polygon class="st29" points="45.7,34.6 33.3,41.7 33.3,14.2 45.7,7.2 	"/>
	<polygon class="st30" points="45.7,30.3 33.3,22.8 33.3,14.2 45.7,7.2 	"/>
	<polygon class="st30" points="44.7,33.7 44.7,9.2 34.3,15.1 34.3,39.7 	"/>
	<polygon class="st31" points="44.7,9.2 44.7,29.7 34.3,23.4 34.3,15.1 	"/>
	<polygon class="st32" points="22.8,14.8 31.5,19.7 31.5,19 22.8,14.1 	"/>
	<polygon class="st32" points="22.8,17.8 31.5,22.8 31.5,22 22.8,17.1 	"/>
	<polygon class="st32" points="22.8,20.8 31.5,25.8 31.5,25 22.8,20.1 	"/>
	<polygon class="st32" points="22.8,23.8 31.5,28.8 31.5,28 22.8,23.1 	"/>
	<polygon class="st32" points="22.8,26.8 31.5,31.8 31.5,31 22.8,26.1 	"/>
	<polygon class="st32" points="22.8,29.8 31.5,34.8 31.5,34 22.8,29.1 	"/>
	<polygon class="st33" points="33.3,0 45.7,7.2 33.3,14.2 21,7.2 	"/>
	
		<linearGradient id="SVGID_27_" gradientUnits="userSpaceOnUse" x1="966.2064" y1="6.8965" x2="978.5449" y2="6.8965" gradientTransform="matrix(-1 0 0 1 1011.8793 0)">
		<stop  offset="0" style="stop-color:#FFFFFF;stop-opacity:0"/>
		<stop  offset="5.817641e-03" style="stop-color:#FCFCFE;stop-opacity:8.045673e-03"/>
		<stop  offset="7.999019e-02" style="stop-color:#D4D6F5;stop-opacity:0.1106"/>
		<stop  offset="0.1592" style="stop-color:#B2B6ED;stop-opacity:0.2201"/>
		<stop  offset="0.2431" style="stop-color:#969CE6;stop-opacity:0.3361"/>
		<stop  offset="0.3333" style="stop-color:#8187E1;stop-opacity:0.4609"/>
		<stop  offset="0.433" style="stop-color:#7279DE;stop-opacity:0.5988"/>
		<stop  offset="0.5494" style="stop-color:#6971DC;stop-opacity:0.7599"/>
		<stop  offset="0.7231" style="stop-color:#666EDB"/>
	</linearGradient>
	<polygon class="st34" points="33.3,1.5 35.8,1.5 45.7,7.2 36.6,12.3 33.3,12.3 42.3,7.2 42.3,6.7 	"/>
	
		<linearGradient id="SVGID_28_" gradientUnits="userSpaceOnUse" x1="969.6058" y1="6.6061" x2="987.4841" y2="6.6061" gradientTransform="matrix(-1 0 0 1 1011.8793 0)">
		<stop  offset="0" style="stop-color:#C1C1F5;stop-opacity:0.8"/>
		<stop  offset="0.1091" style="stop-color:#CBCBF8;stop-opacity:0.7891"/>
		<stop  offset="0.3364" style="stop-color:#DADAFB;stop-opacity:0.7664"/>
		<stop  offset="0.6027" style="stop-color:#E3E3FD;stop-opacity:0.7397"/>
		<stop  offset="1" style="stop-color:#E6E6FE;stop-opacity:0.7"/>
	</linearGradient>
	<polygon class="st35" points="24.4,6.7 33.3,1.5 42.3,6.7 33.3,11.8 	"/>
	<polygon class="st36" points="33.3,11.8 42.3,6.7 42.3,7.2 33.3,12.3 	"/>
	
		<linearGradient id="SVGID_29_" gradientUnits="userSpaceOnUse" x1="978.5449" y1="9.4999" x2="987.4841" y2="9.4999" gradientTransform="matrix(-1 0 0 1 1011.8793 0)">
		<stop  offset="0" style="stop-color:#CCCEF7"/>
		<stop  offset="1" style="stop-color:#CECDF7"/>
	</linearGradient>
	<polygon class="st37" points="33.3,12.3 24.4,7.2 24.4,6.7 33.3,11.8 	"/>
	<polygon class="st38" points="40,20.8 39.3,21.2 39.3,20.7 40,20.3 	"/>
	<polygon class="st38" points="40,24.7 39.3,25.1 39.3,24.1 40,23.6 	"/>
	<polygon class="st38" points="40,26 39.3,26.4 39.3,25.4 40,25 	"/>
	<polygon class="st38" points="40,27.3 39.3,27.7 39.3,26.7 40,26.3 	"/>
	<polygon class="st38" points="40,23.4 39.3,23.8 39.3,21.4 40,21 	"/>
	<polygon class="st38" points="40.9,20.3 40.2,20.7 40.2,20.2 40.9,19.8 	"/>
	<polygon class="st38" points="40.9,21.5 40.2,21.9 40.2,20.9 40.9,20.5 	"/>
	<polygon class="st38" points="40.9,23.2 40.2,23.6 40.2,22.2 40.9,21.8 	"/>
	<polygon class="st38" points="40.9,24.8 40.2,25.3 40.2,23.8 40.9,23.4 	"/>
	
		<linearGradient id="SVGID_30_" gradientUnits="userSpaceOnUse" x1="971.5773" y1="33.9504" x2="976.803" y2="33.9504" gradientTransform="matrix(-1 0 0 1 1011.8793 0)">
		<stop  offset="0" style="stop-color:#39B3C2"/>
		<stop  offset="1" style="stop-color:#4348AE"/>
	</linearGradient>
	<polygon class="st39" points="35.1,39.2 35.1,31.6 40.3,28.7 40.3,36.2 	"/>
	
		<linearGradient id="SVGID_31_" gradientUnits="userSpaceOnUse" x1="971.5773" y1="28.675" x2="977.6014" y2="28.675" gradientTransform="matrix(-1 0 0 1 1011.8793 0)">
		<stop  offset="0" style="stop-color:#39B3C2"/>
		<stop  offset="1" style="stop-color:#4348AE"/>
	</linearGradient>
	<polygon class="st40" points="34.3,26.2 35.1,25.8 40.3,28.7 35.1,31.6 34.3,31.1 	"/>
	
		<linearGradient id="SVGID_32_" gradientUnits="userSpaceOnUse" x1="976.803" y1="35.2366" x2="977.6014" y2="35.2366" gradientTransform="matrix(-1 0 0 1 1011.8793 0)">
		<stop  offset="0" style="stop-color:#39B3C2"/>
		<stop  offset="1" style="stop-color:#4348AE"/>
	</linearGradient>
	<path class="st41" d="M35.1,31.6v7.6l-0.2,0.1c-0.1-0.1-0.3-0.2-0.5-0.2c0,0-0.1,0-0.1,0v-8.1L35.1,31.6z"/>
	
		<linearGradient id="SVGID_33_" gradientUnits="userSpaceOnUse" x1="974.8434" y1="28.7362" x2="977.6014" y2="28.7362" gradientTransform="matrix(-1 0 0 1 1011.8793 0)">
		<stop  offset="0" style="stop-color:#39B3C2"/>
		<stop  offset="1" style="stop-color:#4348AE"/>
	</linearGradient>
	<path class="st42" d="M34.3,27.7c0.3-0.1,0.6-0.2,1-0.2c1,0,1.8,0.5,1.8,1.2c0,0.7-0.8,1.2-1.8,1.2c-0.4,0-0.7-0.1-1-0.2V27.7z"/>
	
		<linearGradient id="SVGID_34_" gradientUnits="userSpaceOnUse" x1="976.803" y1="25.8922" x2="976.803" y2="14.5597" gradientTransform="matrix(-1 0 0 1 1011.8793 0)">
		<stop  offset="0" style="stop-color:#4348AE"/>
		<stop  offset="1" style="stop-color:#39B3C2"/>
	</linearGradient>
	<path class="st43" d="M35,15.3c0-0.2-0.1-0.4-0.2-0.5v-0.1l0.4-0.2v11.3l-0.2-0.1l-0.2,0.1v-10C35,15.7,35,15.5,35,15.3z"/>
	<g>
		<ellipse transform="matrix(0.3159 -0.9488 0.9488 0.3159 8.9837 43.2657)" class="st44" cx="34.5" cy="15.4" rx="0.7" ry="0.6"/>
		<g>
			<defs>
				
					<ellipse id="SVGID_35_" transform="matrix(0.3159 -0.9488 0.9488 0.3159 8.9837 43.2657)" cx="34.5" cy="15.4" rx="0.7" ry="0.6"/>
			</defs>
			<clipPath id="SVGID_36_">
				<use xlink:href="#SVGID_35_"  style="overflow:visible;"/>
			</clipPath>
			<ellipse transform="matrix(0.316 -0.9487 0.9487 0.316 9.0422 43.4547)" class="st45" cx="34.7" cy="15.5" rx="0.7" ry="0.4"/>
			<ellipse transform="matrix(0.316 -0.9487 0.9487 0.316 9.043 43.4987)" class="st46" cx="34.7" cy="15.5" rx="0.4" ry="0.3"/>
		</g>
	</g>
	<g>
		<ellipse transform="matrix(0.3159 -0.9488 0.9488 0.3159 21.9135 48.6215)" class="st44" cx="44.7" cy="9.1" rx="0.7" ry="0.6"/>
		<g>
			<defs>
				
					<ellipse id="SVGID_37_" transform="matrix(0.3159 -0.9488 0.9488 0.3159 21.9135 48.6215)" cx="44.7" cy="9.1" rx="0.7" ry="0.6"/>
			</defs>
			<clipPath id="SVGID_38_">
				<use xlink:href="#SVGID_37_"  style="overflow:visible;"/>
			</clipPath>
			<ellipse transform="matrix(0.316 -0.9487 0.9487 0.316 21.9701 48.8109)" class="st47" cx="44.8" cy="9.2" rx="0.7" ry="0.4"/>
			<ellipse transform="matrix(0.316 -0.9487 0.9487 0.316 21.971 48.8549)" class="st48" cx="44.9" cy="9.2" rx="0.4" ry="0.3"/>
		</g>
	</g>
	<g>
		
			<ellipse transform="matrix(0.3159 -0.9488 0.9488 0.3159 -14.1629 59.9808)" class="st44" cx="34.5" cy="39.8" rx="0.8" ry="0.6"/>
		<g>
			<defs>
				
					<ellipse id="SVGID_39_" transform="matrix(0.3159 -0.9488 0.9488 0.3159 -14.1629 59.9808)" cx="34.5" cy="39.8" rx="0.8" ry="0.6"/>
			</defs>
			<clipPath id="SVGID_40_">
				<use xlink:href="#SVGID_39_"  style="overflow:visible;"/>
			</clipPath>
			<ellipse transform="matrix(0.316 -0.9487 0.9487 0.316 -14.1008 60.1726)" class="st49" cx="34.7" cy="39.9" rx="0.7" ry="0.5"/>
			<ellipse transform="matrix(0.316 -0.9487 0.9487 0.316 -14.1001 60.2184)" class="st50" cx="34.7" cy="39.9" rx="0.4" ry="0.3"/>
		</g>
	</g>
	<g>
		<ellipse transform="matrix(0.3159 -0.9488 0.9488 0.3159 -1.2827 65.2676)" class="st44" cx="44.6" cy="33.5" rx="0.8" ry="0.6"/>
		<g>
			<defs>
				
					<ellipse id="SVGID_41_" transform="matrix(0.3159 -0.9488 0.9488 0.3159 -1.2827 65.2676)" cx="44.6" cy="33.5" rx="0.8" ry="0.6"/>
			</defs>
			<clipPath id="SVGID_42_">
				<use xlink:href="#SVGID_41_"  style="overflow:visible;"/>
			</clipPath>
			<ellipse transform="matrix(0.316 -0.9487 0.9487 0.316 -1.2225 65.46)" class="st51" cx="44.8" cy="33.6" rx="0.7" ry="0.5"/>
			<ellipse transform="matrix(0.316 -0.9487 0.9487 0.316 -1.2217 65.5058)" class="st52" cx="44.8" cy="33.6" rx="0.4" ry="0.3"/>
		</g>
	</g>
	<g>
		<polygon class="st53" points="32.9,4.4 33.5,4.1 37.4,6.3 36.8,6.7 		"/>
		
			<linearGradient id="SVGID_43_" gradientUnits="userSpaceOnUse" x1="974.0259" y1="6.852" x2="979.1552" y2="3.9729" gradientTransform="matrix(-1 0 0 1 1011.8793 0)">
			<stop  offset="0" style="stop-color:#FFFFFF;stop-opacity:0"/>
			<stop  offset="5.817641e-03" style="stop-color:#FCFCFE;stop-opacity:8.045673e-03"/>
			<stop  offset="7.999019e-02" style="stop-color:#D4D6F5;stop-opacity:0.1106"/>
			<stop  offset="0.1592" style="stop-color:#B2B6ED;stop-opacity:0.2201"/>
			<stop  offset="0.2431" style="stop-color:#969CE6;stop-opacity:0.3361"/>
			<stop  offset="0.3333" style="stop-color:#8187E1;stop-opacity:0.4609"/>
			<stop  offset="0.433" style="stop-color:#7279DE;stop-opacity:0.5988"/>
			<stop  offset="0.5494" style="stop-color:#6971DC;stop-opacity:0.7599"/>
			<stop  offset="0.7231" style="stop-color:#666EDB"/>
		</linearGradient>
		<polygon class="st54" points="33.5,4.3 33.1,4.5 32.9,4.4 33.5,4.1 37.4,6.3 37.2,6.4 		"/>
	</g>
	<g>
		<polygon class="st53" points="31.6,5.1 32.2,4.8 36.1,7.1 35.5,7.4 		"/>
		
			<linearGradient id="SVGID_44_" gradientUnits="userSpaceOnUse" x1="975.3324" y1="7.5779" x2="980.4615" y2="4.6988" gradientTransform="matrix(-1 0 0 1 1011.8793 0)">
			<stop  offset="0" style="stop-color:#FFFFFF;stop-opacity:0"/>
			<stop  offset="5.817641e-03" style="stop-color:#FCFCFE;stop-opacity:8.045673e-03"/>
			<stop  offset="7.999019e-02" style="stop-color:#D4D6F5;stop-opacity:0.1106"/>
			<stop  offset="0.1592" style="stop-color:#B2B6ED;stop-opacity:0.2201"/>
			<stop  offset="0.2431" style="stop-color:#969CE6;stop-opacity:0.3361"/>
			<stop  offset="0.3333" style="stop-color:#8187E1;stop-opacity:0.4609"/>
			<stop  offset="0.433" style="stop-color:#7279DE;stop-opacity:0.5988"/>
			<stop  offset="0.5494" style="stop-color:#6971DC;stop-opacity:0.7599"/>
			<stop  offset="0.7231" style="stop-color:#666EDB"/>
		</linearGradient>
		<polygon class="st55" points="32.2,5 31.8,5.2 31.6,5.1 32.2,4.8 36.1,7.1 35.9,7.2 		"/>
	</g>
	<g>
		<polygon class="st53" points="30.3,5.9 30.9,5.5 34.8,7.8 34.2,8.1 		"/>
		
			<linearGradient id="SVGID_45_" gradientUnits="userSpaceOnUse" x1="976.6389" y1="8.3039" x2="981.768" y2="5.4248" gradientTransform="matrix(-1 0 0 1 1011.8793 0)">
			<stop  offset="0" style="stop-color:#FFFFFF;stop-opacity:0"/>
			<stop  offset="5.817641e-03" style="stop-color:#FCFCFE;stop-opacity:8.045673e-03"/>
			<stop  offset="7.999019e-02" style="stop-color:#D4D6F5;stop-opacity:0.1106"/>
			<stop  offset="0.1592" style="stop-color:#B2B6ED;stop-opacity:0.2201"/>
			<stop  offset="0.2431" style="stop-color:#969CE6;stop-opacity:0.3361"/>
			<stop  offset="0.3333" style="stop-color:#8187E1;stop-opacity:0.4609"/>
			<stop  offset="0.433" style="stop-color:#7279DE;stop-opacity:0.5988"/>
			<stop  offset="0.5494" style="stop-color:#6971DC;stop-opacity:0.7599"/>
			<stop  offset="0.7231" style="stop-color:#666EDB"/>
		</linearGradient>
		<polygon class="st56" points="30.9,5.7 30.5,6 30.3,5.9 30.9,5.5 34.8,7.8 34.6,7.9 		"/>
	</g>
	<g>
		<polygon class="st53" points="29,6.6 29.6,6.2 33.5,8.5 32.9,8.9 		"/>
		
			<linearGradient id="SVGID_46_" gradientUnits="userSpaceOnUse" x1="977.9453" y1="9.0298" x2="983.0744" y2="6.1507" gradientTransform="matrix(-1 0 0 1 1011.8793 0)">
			<stop  offset="0" style="stop-color:#FFFFFF;stop-opacity:0"/>
			<stop  offset="5.817641e-03" style="stop-color:#FCFCFE;stop-opacity:8.045673e-03"/>
			<stop  offset="7.999019e-02" style="stop-color:#D4D6F5;stop-opacity:0.1106"/>
			<stop  offset="0.1592" style="stop-color:#B2B6ED;stop-opacity:0.2201"/>
			<stop  offset="0.2431" style="stop-color:#969CE6;stop-opacity:0.3361"/>
			<stop  offset="0.3333" style="stop-color:#8187E1;stop-opacity:0.4609"/>
			<stop  offset="0.433" style="stop-color:#7279DE;stop-opacity:0.5988"/>
			<stop  offset="0.5494" style="stop-color:#6971DC;stop-opacity:0.7599"/>
			<stop  offset="0.7231" style="stop-color:#666EDB"/>
		</linearGradient>
		<polygon class="st57" points="29.6,6.5 29.2,6.7 29,6.6 29.6,6.2 33.5,8.5 33.3,8.6 		"/>
	</g>
	<linearGradient id="SVGID_47_" gradientUnits="userSpaceOnUse" x1="7.122714e-05" y1="47.4245" x2="46.5103" y2="47.4245">
		<stop  offset="0" style="stop-color:#43E1E0"/>
		<stop  offset="1" style="stop-color:#5465D7"/>
	</linearGradient>
	<path class="st58" d="M32.5,59.8c0.2,0.1,0.5,0.2,0.7,0.2c0.2,0,0.5-0.1,0.7-0.2l11.7-6.7v-1.7l1-0.5l-0.4-0.3l-0.9,0.5v1.7
		l-11.4,6.6c-0.3,0.2-0.7,0.2-1,0l-17.1-9.9c-0.1,0-0.1-0.1-0.1-0.1c0,0,0-0.1,0.1-0.1l10-5.8l-0.4-0.3l-9.8,5.6
		c-0.1,0.1-0.2,0.2-0.3,0.4L0.5,40.7c0,0,0,0,0,0c0,0,0,0,0,0l9.3-5.5l-0.4-0.2l-9.1,5.4C0.1,40.3,0,40.5,0,40.7
		c0,0.2,0.1,0.3,0.2,0.4L32.5,59.8z"/>
	<polygon class="st32" points="49.6,35 52.7,36.8 52.5,36.9 49.6,35.2 46.7,36.9 46.5,36.8 	"/>
	
		<linearGradient id="SVGID_48_" gradientUnits="userSpaceOnUse" x1="962.2871" y1="36.9508" x2="962.2871" y2="2.9764" gradientTransform="matrix(-1 0 0 1 1011.8793 0)">
		<stop  offset="0" style="stop-color:#43E1E0"/>
		<stop  offset="1" style="stop-color:#5465D7;stop-opacity:0"/>
	</linearGradient>
	<polygon class="st59" points="49.4,37 49.8,37 49.8,3 49.4,3 	"/>
</g>
</svg>
