<?xml version="1.0" encoding="utf-8"?>
<!-- Generator: Adobe Illustrator 22.1.0, SVG Export Plug-In . SVG Version: 6.00 Build 0)  -->
<svg version="1.1" id="Layer_1" xmlns="http://www.w3.org/2000/svg" xmlns:xlink="http://www.w3.org/1999/xlink" x="0px" y="0px"
	 viewBox="0 0 60.5 60" style="enable-background:new 0 0 60.5 60;" xml:space="preserve">
<style type="text/css">
	.st0{fill:url(#SVGID_1_);}
	.st1{fill:url(#SVGID_2_);}
	.st2{fill:#080245;}
</style>
<g>
	<g>
		
			<linearGradient id="SVGID_1_" gradientUnits="userSpaceOnUse" x1="22.4213" y1="33.5" x2="29.979" y2="33.5" gradientTransform="matrix(1 0 0 -1 0 62)">
			<stop  offset="0.25" style="stop-color:#0069FF"/>
			<stop  offset="1" style="stop-color:#08026E"/>
		</linearGradient>
		<rect x="22.4" y="24.7" class="st0" width="7.6" height="7.6"/>
		
			<linearGradient id="SVGID_2_" gradientUnits="userSpaceOnUse" x1="4.9" y1="34.1" x2="50" y2="34.1" gradientTransform="matrix(1 0 0 -1 0 62)">
			<stop  offset="0.25" style="stop-color:#0069FF"/>
			<stop  offset="1" style="stop-color:#08026E"/>
		</linearGradient>
		<polygon class="st1" points="40.3,51 4.9,51 4.9,4.8 50,4.8 50,40.8 47.6,39 46,36.4 46,8.5 9.1,8.5 9.1,46 37.3,46 39.7,48.2 		
			"/>
	</g>
	<g>
		<g>
			<path class="st2" d="M37.4,47.2h-29c-0.5,0-0.8-0.4-0.8-0.8V8.5C7.6,8,8,7.6,8.4,7.6h37.9c0.5,0,0.8,0.4,0.8,0.8v29
				c0,0.2-0.1,0.4-0.2,0.6l-9,9C37.8,47.1,37.6,47.2,37.4,47.2z M9.3,45.5h27.8l8.5-8.5V9.3H9.3V45.5z"/>
		</g>
		<g>
			<path class="st2" d="M14.7,23.2c-0.5,0-0.8-0.4-0.8-0.8v-7.6c0-0.5,0.4-0.8,0.8-0.8H20c0.5,0,0.8,0.4,0.8,0.8s-0.4,0.8-0.8,0.8
				h-4.5v6.7C15.6,22.8,15.2,23.2,14.7,23.2z"/>
		</g>
		<g>
			<path class="st2" d="M14.7,35.9c-0.5,0-0.8-0.4-0.8-0.8v-1.3c0-0.5,0.4-0.8,0.8-0.8c0.5,0,0.8,0.4,0.8,0.8V35
				C15.6,35.5,15.2,35.9,14.7,35.9z M14.7,30.4c-0.5,0-0.8-0.4-0.8-0.8v-1.3c0-0.5,0.4-0.8,0.8-0.8c0.5,0,0.8,0.4,0.8,0.8v1.3
				C15.6,30.1,15.2,30.4,14.7,30.4z M14.7,25c-0.5,0-0.8-0.4-0.8-0.8v-1.3c0-0.5,0.4-0.8,0.8-0.8c0.5,0,0.8,0.4,0.8,0.8v1.3
				C15.6,24.6,15.2,25,14.7,25z"/>
		</g>
		<g>
			<path class="st2" d="M31.5,40.9H14.7c-0.5,0-0.8-0.4-0.8-0.8v-5c0-0.5,0.4-0.8,0.8-0.8c0.5,0,0.8,0.4,0.8,0.8v4.2h15.6l1.1-1.1
				c0.3-0.3,0.9-0.3,1.2,0s0.3,0.9,0,1.2l-1.3,1.3C32,40.8,31.8,40.9,31.5,40.9z"/>
		</g>
		<g>
			<path class="st2" d="M32.9,39.6c-0.2,0-0.4-0.1-0.6-0.3c-0.3-0.3-0.3-0.9,0-1.2l6.9-6.8V15.6h-3.5c-0.5,0-0.8-0.4-0.8-0.8
				s0.4-0.8,0.8-0.8H40c0.5,0,0.8,0.4,0.8,0.8v16.9c0,0.2-0.1,0.4-0.3,0.6l-7.2,7.1C33.3,39.5,33.1,39.6,32.9,39.6z"/>
		</g>
		<g>
			<path class="st2" d="M32.2,15.6H31c-0.5,0-0.8-0.4-0.8-0.8S30.6,14,31,14h1.3c0.5,0,0.8,0.4,0.8,0.8S32.7,15.6,32.2,15.6z
				 M26.8,15.6h-1.3c-0.5,0-0.8-0.4-0.8-0.8s0.4-0.8,0.8-0.8h1.3c0.5,0,0.8,0.4,0.8,0.8S27.2,15.6,26.8,15.6z M21.3,15.6H20
				c-0.5,0-0.8-0.4-0.8-0.8S19.6,14,20,14h1.3c0.5,0,0.8,0.4,0.8,0.8S21.8,15.6,21.3,15.6z"/>
		</g>
		<g>
			<path class="st2" d="M40.2,54.9c-0.5,0-0.8-0.4-0.8-0.8v-5l-2.2-2.2c-0.3-0.3-0.3-0.9,0-1.2s0.9-0.3,1.2,0l2.4,2.4
				c0.2,0.2,0.2,0.4,0.2,0.6V54C41,54.5,40.7,54.9,40.2,54.9z"/>
		</g>
		<g>
			<path class="st2" d="M54.5,41.6h-5.4c-0.2,0-0.4-0.1-0.6-0.2l-3-3c-0.3-0.3-0.3-0.9,0-1.2s0.9-0.3,1.2,0l2.7,2.7h5
				c0.5,0,0.8,0.4,0.8,0.8S54.9,41.6,54.5,41.6z"/>
		</g>
		<g>
			<path class="st2" d="M47.3,47.7c-0.2,0-0.4-0.1-0.6-0.2l-4.9-4.9c-0.3-0.3-0.3-0.9,0-1.2s0.9-0.3,1.2,0l4.9,4.9
				c0.3,0.3,0.3,0.9,0,1.2C47.7,47.6,47.5,47.7,47.3,47.7z"/>
		</g>
		<g>
			<path class="st2" d="M14.9,6.8c-0.5,0-0.8-0.4-0.8-0.8V1c0-0.5,0.4-0.8,0.8-0.8c0.5,0,0.8,0.4,0.8,0.8v5
				C15.8,6.4,15.4,6.8,14.9,6.8z"/>
		</g>
		<g>
			<path class="st2" d="M21.5,6.8c-0.5,0-0.8-0.4-0.8-0.8V1c0-0.5,0.4-0.8,0.8-0.8c0.5,0,0.8,0.4,0.8,0.8v5
				C22.3,6.4,21.9,6.8,21.5,6.8z"/>
		</g>
		<g>
			<path class="st2" d="M28,6.8c-0.5,0-0.8-0.4-0.8-0.8V1c0-0.5,0.4-0.8,0.8-0.8c0.5,0,0.8,0.4,0.8,0.8v5C28.8,6.4,28.4,6.8,28,6.8z
				"/>
		</g>
		<g>
			<path class="st2" d="M34.5,6.8c-0.5,0-0.8-0.4-0.8-0.8V1c0-0.5,0.4-0.8,0.8-0.8c0.5,0,0.8,0.4,0.8,0.8v5
				C35.3,6.4,34.9,6.8,34.5,6.8z"/>
		</g>
		<g>
			<path class="st2" d="M41,6.8c-0.5,0-0.8-0.4-0.8-0.8V1c0-0.5,0.4-0.8,0.8-0.8c0.5,0,0.8,0.4,0.8,0.8v5C41.8,6.4,41.4,6.8,41,6.8z
				"/>
		</g>
		<g>
			<path class="st2" d="M13.1,54.6c-0.5,0-0.8-0.4-0.8-0.8v-4.4c0-0.5,0.4-0.8,0.8-0.8c0.5,0,0.8,0.4,0.8,0.8v4.4
				C13.9,54.3,13.5,54.6,13.1,54.6z"/>
		</g>
		<g>
			<path class="st2" d="M19.6,54.6c-0.5,0-0.8-0.4-0.8-0.8v-4.4c0-0.5,0.4-0.8,0.8-0.8c0.5,0,0.8,0.4,0.8,0.8v4.4
				C20.4,54.3,20,54.6,19.6,54.6z"/>
		</g>
		<g>
			<path class="st2" d="M26.1,54.6c-0.5,0-0.8-0.4-0.8-0.8v-4.4c0-0.5,0.4-0.8,0.8-0.8c0.5,0,0.8,0.4,0.8,0.8v4.4
				C26.9,54.3,26.5,54.6,26.1,54.6z"/>
		</g>
		<g>
			<path class="st2" d="M32.6,54.6c-0.5,0-0.8-0.4-0.8-0.8v-4.4c0-0.5,0.4-0.8,0.8-0.8c0.5,0,0.8,0.4,0.8,0.8v4.4
				C33.4,54.3,33,54.6,32.6,54.6z"/>
		</g>
		<g>
			<path class="st2" d="M5.8,41.3h-5c-0.5,0-0.8-0.4-0.8-0.8c0-0.5,0.4-0.8,0.8-0.8h4.9c0.5,0,0.8,0.4,0.8,0.8
				C6.6,40.9,6.2,41.3,5.8,41.3z"/>
		</g>
		<g>
			<path class="st2" d="M5.8,34.8h-5C0.3,34.8,0,34.4,0,34s0.4-0.8,0.8-0.8h4.9c0.5,0,0.8,0.4,0.8,0.8S6.2,34.8,5.8,34.8z"/>
		</g>
		<g>
			<path class="st2" d="M5.8,28.3h-5c-0.5,0-0.8-0.4-0.8-0.8s0.4-0.8,0.8-0.8h4.9c0.5,0,0.8,0.4,0.8,0.8S6.2,28.3,5.8,28.3z"/>
		</g>
		<g>
			<path class="st2" d="M5.8,21.8h-5C0.3,21.8,0,21.4,0,21c0-0.5,0.4-0.8,0.8-0.8h4.9c0.5,0,0.8,0.4,0.8,0.8
				C6.6,21.4,6.2,21.8,5.8,21.8z"/>
		</g>
		<g>
			<path class="st2" d="M5.8,15.3h-5c-0.5,0-0.8-0.4-0.8-0.8s0.4-0.8,0.8-0.8h4.9c0.5,0,0.8,0.4,0.8,0.8S6.2,15.3,5.8,15.3z"/>
		</g>
		<g>
			<path class="st2" d="M53.9,34.8h-4.5c-0.5,0-0.8-0.4-0.8-0.8s0.4-0.8,0.8-0.8h4.5c0.5,0,0.8,0.4,0.8,0.8S54.3,34.8,53.9,34.8z"/>
		</g>
		<g>
			<path class="st2" d="M53.9,28.3h-4.5c-0.5,0-0.8-0.4-0.8-0.8s0.4-0.8,0.8-0.8h4.5c0.5,0,0.8,0.4,0.8,0.8S54.3,28.3,53.9,28.3z"/>
		</g>
		<g>
			<path class="st2" d="M53.9,21.8h-4.5c-0.5,0-0.8-0.4-0.8-0.8c0-0.5,0.4-0.8,0.8-0.8h4.5c0.5,0,0.8,0.4,0.8,0.8
				S54.3,21.8,53.9,21.8z"/>
		</g>
		<g>
			<path class="st2" d="M53.9,15.3h-4.5c-0.5,0-0.8-0.4-0.8-0.8s0.4-0.8,0.8-0.8h4.5c0.5,0,0.8,0.4,0.8,0.8S54.3,15.3,53.9,15.3z"/>
		</g>
		<g>
			<path class="st2" d="M32.3,30.2h-7.6c-0.5,0-0.8-0.4-0.8-0.8v-7.6c0-0.5,0.4-0.8,0.8-0.8h7.6c0.5,0,0.8,0.4,0.8,0.8v7.6
				C33.2,29.8,32.8,30.2,32.3,30.2z M25.6,28.5h5.9v-5.9h-5.9V28.5z"/>
		</g>
		<g>
			<path class="st2" d="M57.1,44.6c-1.9,0-3.4-1.5-3.4-3.4s1.5-3.4,3.4-3.4s3.4,1.5,3.4,3.4S59,44.6,57.1,44.6z M57.1,39.5
				c-0.9,0-1.7,0.8-1.7,1.7s0.8,1.7,1.7,1.7s1.7-0.8,1.7-1.7S58.1,39.5,57.1,39.5z"/>
		</g>
		<g>
			<path class="st2" d="M49.2,52.5c-1.9,0-3.4-1.5-3.4-3.4s1.5-3.4,3.4-3.4s3.4,1.5,3.4,3.4S51.1,52.5,49.2,52.5z M49.2,47.4
				c-0.9,0-1.7,0.8-1.7,1.7s0.8,1.7,1.7,1.7s1.7-0.8,1.7-1.7S50.2,47.4,49.2,47.4z"/>
		</g>
		<g>
			<path class="st2" d="M40.2,60.1c-1.9,0-3.4-1.5-3.4-3.4s1.5-3.4,3.4-3.4s3.4,1.5,3.4,3.4C43.6,58.6,42.1,60.1,40.2,60.1z
				 M40.2,55c-0.9,0-1.7,0.8-1.7,1.7s0.8,1.7,1.7,1.7s1.7-0.8,1.7-1.7S41.2,55,40.2,55z"/>
		</g>
		<g>
			<path class="st2" d="M34.5,43.9c-0.2,0-0.4-0.1-0.6-0.3c-0.3-0.3-0.3-0.9,0-1.2l0.9-0.9c0.3-0.3,0.9-0.3,1.2,0s0.3,0.9,0,1.2
				l-0.9,0.9C34.9,43.8,34.7,43.9,34.5,43.9z M38.4,40c-0.2,0-0.4-0.1-0.6-0.3c-0.3-0.3-0.3-0.9,0-1.2l0.9-0.9
				c0.3-0.3,0.9-0.3,1.2,0s0.3,0.9,0,1.2l-0.9,1C38.8,40,38.6,40,38.4,40z M42.3,36.2c-0.2,0-0.4-0.1-0.6-0.3
				c-0.3-0.3-0.3-0.9,0-1.2l0.8-0.7c0.3-0.3,0.9-0.3,1.2,0s0.3,0.9,0,1.2L42.8,36C42.7,36.1,42.5,36.2,42.3,36.2z"/>
		</g>
	</g>
</g>
</svg>
