<?xml version="1.0" encoding="utf-8"?>
<!-- Generator: Adobe Illustrator 22.1.0, SVG Export Plug-In . SVG Version: 6.00 Build 0)  -->
<svg version="1.1" id="Layer_1" xmlns="http://www.w3.org/2000/svg" xmlns:xlink="http://www.w3.org/1999/xlink" x="0px" y="0px"
	 viewBox="0 0 1920 790" style="enable-background:new 0 0 1920 790;" xml:space="preserve">
<style type="text/css">
	.st0{fill:url(#SVGID_1_);}
	.st1{opacity:0.15;fill:url(#SVGID_2_);}
	.st2{opacity:0.15;fill:url(#SVGID_3_);}
	.st3{opacity:0.15;fill:url(#SVGID_4_);}
	.st4{opacity:0.15;}
	.st5{fill:url(#SVGID_5_);}
	.st6{fill:url(#SVGID_6_);}
	.st7{fill:url(#SVGID_7_);}
	.st8{fill:url(#SVGID_8_);}
	.st9{fill:url(#SVGID_9_);}
	.st10{opacity:0.9;fill:url(#SVGID_10_);}
	.st11{opacity:0.75;fill:url(#SVGID_11_);}
	.st12{opacity:0.75;fill:url(#SVGID_12_);}
	.st13{opacity:0.5;fill:url(#SVGID_13_);}
	.st14{opacity:0.5;fill:url(#SVGID_14_);}
	.st15{fill:url(#SVGID_15_);}
	.st16{fill:url(#SVGID_16_);}
	.st17{opacity:0.9;fill:url(#SVGID_17_);}
	.st18{opacity:0.75;fill:url(#SVGID_18_);}
	.st19{opacity:0.75;fill:url(#SVGID_19_);}
	.st20{opacity:0.5;fill:url(#SVGID_20_);}
	.st21{opacity:0.5;fill:url(#SVGID_21_);}
	.st22{fill:url(#SVGID_22_);}
	.st23{fill:url(#SVGID_23_);}
	.st24{opacity:0.9;fill:url(#SVGID_24_);}
	.st25{opacity:0.75;fill:url(#SVGID_25_);}
	.st26{opacity:0.75;fill:url(#SVGID_26_);}
	.st27{opacity:0.5;fill:url(#SVGID_27_);}
	.st28{opacity:0.5;fill:url(#SVGID_28_);}
	.st29{fill:url(#SVGID_29_);}
	.st30{fill:url(#SVGID_30_);}
	.st31{fill:#24116A;}
	.st32{fill:#352786;}
	.st33{fill:#3D3292;}
	.st34{fill:#384393;}
	.st35{fill:#BDBEFF;}
	.st36{fill:url(#SVGID_31_);}
	.st37{fill:url(#SVGID_32_);}
	.st38{fill:#666EDB;}
	.st39{fill:url(#SVGID_33_);}
	.st40{fill:#43E8E1;}
	.st41{opacity:0.5;fill:url(#SVGID_34_);}
	.st42{opacity:0.75;fill:url(#SVGID_35_);}
	.st43{opacity:0.5;fill:url(#SVGID_36_);}
	.st44{fill:url(#SVGID_37_);}
	.st45{opacity:0.5;fill:url(#SVGID_38_);}
	.st46{fill:#FFFFFF;}
	.st47{clip-path:url(#SVGID_40_);fill:#586DDA;}
	.st48{clip-path:url(#SVGID_40_);fill:#3F20D3;}
	.st49{clip-path:url(#SVGID_42_);fill:#586DDA;}
	.st50{clip-path:url(#SVGID_42_);fill:#3F20D3;}
	.st51{clip-path:url(#SVGID_44_);fill:#586DDA;}
	.st52{clip-path:url(#SVGID_44_);fill:#3F20D3;}
	.st53{clip-path:url(#SVGID_46_);fill:#586DDA;}
	.st54{clip-path:url(#SVGID_46_);fill:#3F20D3;}
	.st55{fill:#3F20D3;}
	.st56{fill:url(#SVGID_47_);}
	.st57{fill:url(#SVGID_48_);}
	.st58{fill:url(#SVGID_49_);}
	.st59{fill:url(#SVGID_50_);}
	.st60{fill:url(#SVGID_51_);}
	.st61{fill:url(#SVGID_52_);}
</style>
<g>
	<linearGradient id="SVGID_1_" gradientUnits="userSpaceOnUse" x1="960" y1="790" x2="960" y2="-9.094947e-13">
		<stop  offset="0" style="stop-color:#06199B"/>
		<stop  offset="1" style="stop-color:#0039B7"/>
	</linearGradient>
	<path class="st0" d="M1920,0c0,0,0,313.3,0,425.2C1483.4,1210.8,692.2,432.7,0,754.7V0H1920z"/>
	<g>
		<linearGradient id="SVGID_2_" gradientUnits="userSpaceOnUse" x1="951.1253" y1="524.2811" x2="1555.7134" y2="524.2811">
			<stop  offset="0" style="stop-color:#4348AE"/>
			<stop  offset="1" style="stop-color:#39B3C2"/>
		</linearGradient>
		<polygon class="st1" points="1252.7,700.1 1555.7,525.6 1252.7,348.5 951.1,526.4 		"/>
		<linearGradient id="SVGID_3_" gradientUnits="userSpaceOnUse" x1="998.8815" y1="524.2811" x2="1507.9572" y2="524.2811">
			<stop  offset="0" style="stop-color:#4348AE"/>
			<stop  offset="1" style="stop-color:#39B3C2"/>
		</linearGradient>
		<polygon class="st2" points="1252.8,376.3 1508,525.4 1252.8,672.3 998.9,526 		"/>
		<linearGradient id="SVGID_4_" gradientUnits="userSpaceOnUse" x1="1050.0701" y1="524.2811" x2="1456.7687" y2="524.2811">
			<stop  offset="0" style="stop-color:#4348AE"/>
			<stop  offset="1" style="stop-color:#39B3C2"/>
		</linearGradient>
		<polygon class="st3" points="1252.9,406 1456.8,525.2 1252.9,642.5 1050.1,525.7 		"/>
		<g class="st4">
			<linearGradient id="SVGID_5_" gradientUnits="userSpaceOnUse" x1="1115.6808" y1="531.1043" x2="1389.7134" y2="531.1043">
				<stop  offset="0" style="stop-color:#4348AE"/>
				<stop  offset="1" style="stop-color:#39B3C2"/>
			</linearGradient>
			<path class="st5" d="M1274.5,458.1l-57.7,8.5c-0.2,0-0.5,0.1-0.7,0.2l-99.5,56.7c-0.9,0.5-0.9,1.3-1,1.6c0,0.3,0.1,1.1,0.9,1.6
				l131.3,76.2c2.5,1.5,5.6,1.5,8.1,0l132.7-76.3c0.9-0.5,0.9-1.3,0.9-1.6c0-0.3-0.1-1.1-0.9-1.6l-113-65.2
				c-0.3-0.2-0.6-0.3-0.9-0.3C1274.7,458.1,1274.6,458.1,1274.5,458.1z"/>
		</g>
		<g>
			
				<linearGradient id="SVGID_6_" gradientUnits="userSpaceOnUse" x1="1409.3011" y1="531.1035" x2="1687.1676" y2="531.1035" gradientTransform="matrix(-1 0 0 1 2800.9314 0)">
				<stop  offset="0" style="stop-color:#5465D7"/>
				<stop  offset="1" style="stop-color:#43E1E0"/>
			</linearGradient>
			<path class="st6" d="M1245.8,605.5l-128.9-74.8c-1.9-1.1-3.1-3.1-3.1-5.4c0-2.2,1.2-4.3,3.1-5.4l97.8-55.7
				c0.7-0.4,1.4-0.6,2.2-0.7l56.7-8.4c1.4-0.2,2.8,0.1,4,0.8l111,64c1.9,1.1,3.1,3.1,3.1,5.4c0,2.2-1.2,4.3-3.1,5.4l-130.4,74.9
				c-1.9,1.1-4,1.6-6.2,1.6C1249.8,607.2,1247.7,606.6,1245.8,605.5z M1274.1,459.4l-56.7,8.4c-0.2,0-0.4,0.1-0.6,0.2l-97.8,55.7
				c-0.8,0.5-0.9,1.3-0.9,1.6c0,0.3,0.1,1.1,0.9,1.6l128.9,74.8c2.5,1.4,5.5,1.4,8,0l130.4-74.9c0.8-0.5,0.9-1.3,0.9-1.6
				c0-0.3-0.1-1.1-0.9-1.6l-111-64c-0.3-0.2-0.6-0.2-0.9-0.2C1274.3,459.4,1274.2,459.4,1274.1,459.4z"/>
		</g>
		<g>
			
				<linearGradient id="SVGID_7_" gradientUnits="userSpaceOnUse" x1="1643.3094" y1="469.8605" x2="1831.5502" y2="469.8605" gradientTransform="matrix(-1 0 0 1 2800.9314 0)">
				<stop  offset="0" style="stop-color:#5465D7"/>
				<stop  offset="1" style="stop-color:#43E1E0"/>
			</linearGradient>
			<path class="st7" d="M1064.3,506.7c1.3,0,2.6-0.3,3.7-1l89.6-52.2l-2.2-3.8l-89.6,52.2c-0.9,0.5-2.1,0.5-3,0L975,451.5l24.4-14.8
				l-2.3-3.7L970.8,449c-0.9,0.6-1.5,1.6-1.5,2.6c0,1.1,0.6,2.1,1.5,2.6l89.8,51.5C1061.8,506.4,1063.1,506.7,1064.3,506.7z"/>
		</g>
		
			<linearGradient id="SVGID_8_" gradientUnits="userSpaceOnUse" x1="1652.459" y1="447.2974" x2="1820.7051" y2="447.2974" gradientTransform="matrix(-1 0 0 1 2800.9314 0)">
			<stop  offset="0" style="stop-color:#4348AE"/>
			<stop  offset="1" style="stop-color:#39B3C2"/>
		</linearGradient>
		<polygon class="st8" points="1148.5,414.8 1148.5,432.2 1064.3,479.8 980.2,432.2 980.2,414.8 1064.3,462.3 		"/>
		
			<linearGradient id="SVGID_9_" gradientUnits="userSpaceOnUse" x1="1652.459" y1="414.826" x2="1820.7051" y2="414.826" gradientTransform="matrix(-1 0 0 1 2800.9314 0)">
			<stop  offset="0" style="stop-color:#39B3C2"/>
			<stop  offset="1" style="stop-color:#CAC8F9"/>
		</linearGradient>
		<path class="st9" d="M980.2,414.8l84.1,47.5l84.1-47.5l-84.1-47.5L980.2,414.8z M1064.3,453.2l-67.9-38.3l67.9-38.3l67.9,38.3
			L1064.3,453.2z"/>
		
			<linearGradient id="SVGID_10_" gradientUnits="userSpaceOnUse" x1="1780.1298" y1="414.6929" x2="1707.4595" y2="414.6929" gradientTransform="matrix(-1 0 0 1 2800.9314 0)">
			<stop  offset="0" style="stop-color:#4348AE"/>
			<stop  offset="9.030807e-02" style="stop-color:#415DB2"/>
			<stop  offset="0.2468" style="stop-color:#3E7CB8"/>
			<stop  offset="0.411" style="stop-color:#3C94BC"/>
			<stop  offset="0.5839" style="stop-color:#3AA6BF"/>
			<stop  offset="0.7714" style="stop-color:#39B0C1"/>
			<stop  offset="1" style="stop-color:#39B3C2"/>
		</linearGradient>
		<polygon class="st10" points="1115.8,414.4 1064.3,443.5 1012.9,414.4 1064.3,385.9 		"/>
		
			<linearGradient id="SVGID_11_" gradientUnits="userSpaceOnUse" x1="1773.2346" y1="378.6791" x2="1709.2719" y2="378.6791" gradientTransform="matrix(-1 0 0 1 2800.9314 0)">
			<stop  offset="0" style="stop-color:#4348AE"/>
			<stop  offset="1" style="stop-color:#39B3C2"/>
		</linearGradient>
		<polygon class="st11" points="1064.3,343 1115.8,372 1115.8,414.4 1064.3,385.9 		"/>
		
			<linearGradient id="SVGID_12_" gradientUnits="userSpaceOnUse" x1="1736.582" y1="378.6791" x2="1788.0442" y2="378.6791" gradientTransform="matrix(-1 0 0 1 2800.9314 0)">
			<stop  offset="0" style="stop-color:#39B3C2"/>
			<stop  offset="1" style="stop-color:#4348AE"/>
		</linearGradient>
		<polygon class="st12" points="1064.3,385.9 1012.9,414.4 1012.9,372 1064.3,343 		"/>
		
			<linearGradient id="SVGID_13_" gradientUnits="userSpaceOnUse" x1="1685.1198" y1="407.7493" x2="1736.582" y2="407.7493" gradientTransform="matrix(-1 0 0 1 2800.9314 0)">
			<stop  offset="0" style="stop-color:#39B3C2"/>
			<stop  offset="1" style="stop-color:#4348AE"/>
		</linearGradient>
		<polygon class="st13" points="1064.3,401.1 1115.8,372 1115.8,414.4 1064.3,443.5 		"/>
		
			<linearGradient id="SVGID_14_" gradientUnits="userSpaceOnUse" x1="1736.582" y1="407.7493" x2="1788.0442" y2="407.7493" gradientTransform="matrix(-1 0 0 1 2800.9314 0)">
			<stop  offset="0" style="stop-color:#39B3C2"/>
			<stop  offset="1" style="stop-color:#4348AE"/>
		</linearGradient>
		<polygon class="st14" points="1064.3,443.5 1012.9,414.4 1012.9,372 1064.3,401.1 		"/>
		
			<linearGradient id="SVGID_15_" gradientUnits="userSpaceOnUse" x1="1285.932" y1="433.5043" x2="1454.1781" y2="433.5043" gradientTransform="matrix(-1 0 0 1 2800.9314 0)">
			<stop  offset="0" style="stop-color:#4348AE"/>
			<stop  offset="1" style="stop-color:#39B3C2"/>
		</linearGradient>
		<polygon class="st15" points="1515,401 1515,418.5 1430.9,466 1346.8,418.5 1346.8,401 1430.9,448.6 		"/>
		
			<linearGradient id="SVGID_16_" gradientUnits="userSpaceOnUse" x1="1285.932" y1="401.0331" x2="1454.1781" y2="401.0331" gradientTransform="matrix(-1 0 0 1 2800.9314 0)">
			<stop  offset="0" style="stop-color:#39B3C2"/>
			<stop  offset="1" style="stop-color:#CAC8F9"/>
		</linearGradient>
		<path class="st16" d="M1346.8,401l84.1,47.5L1515,401l-84.1-47.5L1346.8,401z M1430.9,439.4L1363,401l67.9-38.3l67.9,38.3
			L1430.9,439.4z"/>
		
			<linearGradient id="SVGID_17_" gradientUnits="userSpaceOnUse" x1="1413.6028" y1="400.8999" x2="1340.9325" y2="400.8999" gradientTransform="matrix(-1 0 0 1 2800.9314 0)">
			<stop  offset="0" style="stop-color:#4348AE"/>
			<stop  offset="9.030807e-02" style="stop-color:#415DB2"/>
			<stop  offset="0.2468" style="stop-color:#3E7CB8"/>
			<stop  offset="0.411" style="stop-color:#3C94BC"/>
			<stop  offset="0.5839" style="stop-color:#3AA6BF"/>
			<stop  offset="0.7714" style="stop-color:#39B0C1"/>
			<stop  offset="1" style="stop-color:#39B3C2"/>
		</linearGradient>
		<polygon class="st17" points="1482.3,400.6 1430.9,429.7 1379.4,400.6 1430.9,372.1 		"/>
		
			<linearGradient id="SVGID_18_" gradientUnits="userSpaceOnUse" x1="1406.7076" y1="364.886" x2="1342.745" y2="364.886" gradientTransform="matrix(-1 0 0 1 2800.9314 0)">
			<stop  offset="0" style="stop-color:#4348AE"/>
			<stop  offset="1" style="stop-color:#39B3C2"/>
		</linearGradient>
		<polygon class="st18" points="1430.9,329.2 1482.3,358.2 1482.3,400.6 1430.9,372.1 		"/>
		
			<linearGradient id="SVGID_19_" gradientUnits="userSpaceOnUse" x1="1370.0551" y1="364.886" x2="1421.5172" y2="364.886" gradientTransform="matrix(-1 0 0 1 2800.9314 0)">
			<stop  offset="0" style="stop-color:#39B3C2"/>
			<stop  offset="1" style="stop-color:#4348AE"/>
		</linearGradient>
		<polygon class="st19" points="1430.9,372.1 1379.4,400.6 1379.4,358.2 1430.9,329.2 		"/>
		
			<linearGradient id="SVGID_20_" gradientUnits="userSpaceOnUse" x1="1318.5928" y1="393.9563" x2="1370.0551" y2="393.9563" gradientTransform="matrix(-1 0 0 1 2800.9314 0)">
			<stop  offset="0" style="stop-color:#39B3C2"/>
			<stop  offset="1" style="stop-color:#4348AE"/>
		</linearGradient>
		<polygon class="st20" points="1430.9,387.3 1482.3,358.2 1482.3,400.6 1430.9,429.7 		"/>
		
			<linearGradient id="SVGID_21_" gradientUnits="userSpaceOnUse" x1="1370.0551" y1="393.9563" x2="1421.5172" y2="393.9563" gradientTransform="matrix(-1 0 0 1 2800.9314 0)">
			<stop  offset="0" style="stop-color:#39B3C2"/>
			<stop  offset="1" style="stop-color:#4348AE"/>
		</linearGradient>
		<polygon class="st21" points="1430.9,429.7 1379.4,400.6 1379.4,358.2 1430.9,387.3 		"/>
		
			<linearGradient id="SVGID_22_" gradientUnits="userSpaceOnUse" x1="1301.1737" y1="650.5629" x2="1469.4198" y2="650.5629" gradientTransform="matrix(-1 0 0 1 2800.9314 0)">
			<stop  offset="0" style="stop-color:#4348AE"/>
			<stop  offset="1" style="stop-color:#39B3C2"/>
		</linearGradient>
		<polygon class="st22" points="1499.8,618.1 1499.8,635.5 1415.6,683 1331.5,635.5 1331.5,618.1 1415.6,665.6 		"/>
		
			<linearGradient id="SVGID_23_" gradientUnits="userSpaceOnUse" x1="1301.1737" y1="618.0917" x2="1469.4198" y2="618.0917" gradientTransform="matrix(-1 0 0 1 2800.9314 0)">
			<stop  offset="0" style="stop-color:#39B3C2"/>
			<stop  offset="1" style="stop-color:#CAC8F9"/>
		</linearGradient>
		<path class="st23" d="M1331.5,618.1l84.1,47.5l84.1-47.5l-84.1-47.5L1331.5,618.1z M1415.6,656.4l-67.9-38.3l67.9-38.3l67.9,38.3
			L1415.6,656.4z"/>
		
			<linearGradient id="SVGID_24_" gradientUnits="userSpaceOnUse" x1="1428.8445" y1="617.9585" x2="1356.1742" y2="617.9585" gradientTransform="matrix(-1 0 0 1 2800.9314 0)">
			<stop  offset="0" style="stop-color:#4348AE"/>
			<stop  offset="9.030807e-02" style="stop-color:#415DB2"/>
			<stop  offset="0.2468" style="stop-color:#3E7CB8"/>
			<stop  offset="0.411" style="stop-color:#3C94BC"/>
			<stop  offset="0.5839" style="stop-color:#3AA6BF"/>
			<stop  offset="0.7714" style="stop-color:#39B0C1"/>
			<stop  offset="1" style="stop-color:#39B3C2"/>
		</linearGradient>
		<polygon class="st24" points="1467.1,617.7 1415.6,646.7 1364.2,617.7 1415.6,589.2 		"/>
		
			<linearGradient id="SVGID_25_" gradientUnits="userSpaceOnUse" x1="1421.9495" y1="543.1064" x2="1357.9867" y2="543.1064" gradientTransform="matrix(-1 0 0 1 2800.9314 0)">
			<stop  offset="0" style="stop-color:#4348AE"/>
			<stop  offset="1" style="stop-color:#39B3C2"/>
		</linearGradient>
		<polygon class="st25" points="1415.6,468.5 1467.1,497.6 1467.1,617.7 1415.6,589.2 		"/>
		
			<linearGradient id="SVGID_26_" gradientUnits="userSpaceOnUse" x1="1385.2968" y1="543.1064" x2="1436.7589" y2="543.1064" gradientTransform="matrix(-1 0 0 1 2800.9314 0)">
			<stop  offset="0" style="stop-color:#39B3C2"/>
			<stop  offset="1" style="stop-color:#4348AE"/>
		</linearGradient>
		<polygon class="st26" points="1415.6,589.2 1364.2,617.7 1364.2,497.6 1415.6,468.5 		"/>
		
			<linearGradient id="SVGID_27_" gradientUnits="userSpaceOnUse" x1="1333.8345" y1="572.1766" x2="1385.2968" y2="572.1766" gradientTransform="matrix(-1 0 0 1 2800.9314 0)">
			<stop  offset="0" style="stop-color:#39B3C2"/>
			<stop  offset="1" style="stop-color:#4348AE"/>
		</linearGradient>
		<polygon class="st27" points="1415.6,526.7 1467.1,497.6 1467.1,617.7 1415.6,646.7 		"/>
		
			<linearGradient id="SVGID_28_" gradientUnits="userSpaceOnUse" x1="1385.2968" y1="572.1766" x2="1436.7589" y2="572.1766" gradientTransform="matrix(-1 0 0 1 2800.9314 0)">
			<stop  offset="0" style="stop-color:#39B3C2"/>
			<stop  offset="1" style="stop-color:#4348AE"/>
		</linearGradient>
		<polygon class="st28" points="1415.6,646.7 1364.2,617.7 1364.2,497.6 1415.6,526.7 		"/>
		
			<linearGradient id="SVGID_29_" gradientUnits="userSpaceOnUse" x1="1333.8345" y1="497.6165" x2="1436.7589" y2="497.6165" gradientTransform="matrix(-1 0 0 1 2800.9314 0)">
			<stop  offset="0" style="stop-color:#42E7E1;stop-opacity:0.9"/>
			<stop  offset="1" style="stop-color:#40E5DF;stop-opacity:0.5"/>
		</linearGradient>
		<path class="st29" d="M1364.2,497.6l51.5,29.1l51.5-29.1l-51.5-29.1L1364.2,497.6z M1415.6,515l-30.8-17.4l30.8-17.4l30.8,17.4
			L1415.6,515z"/>
		
			<linearGradient id="SVGID_30_" gradientUnits="userSpaceOnUse" x1="1609.5676" y1="494.4261" x2="1609.5676" y2="228.6754" gradientTransform="matrix(-1 0 0 1 2800.9314 0)">
			<stop  offset="0" style="stop-color:#C0C0F6"/>
			<stop  offset="1" style="stop-color:#E7E8FD"/>
		</linearGradient>
		<polygon class="st30" points="1129.7,476.3 1253.1,546.7 1253.1,272.3 1129.7,201.9 		"/>
		<polygon class="st31" points="1376.4,476.3 1253.1,546.7 1253.1,272.3 1376.4,201.9 		"/>
		<polygon class="st32" points="1376.4,432.7 1253.1,357.9 1253.1,272.3 1376.4,201.9 		"/>
		<polygon class="st32" points="1367,467.2 1367,221.7 1262.5,281.4 1262.5,526.8 		"/>
		<polygon class="st33" points="1367,221.7 1367,427 1262.5,363.7 1262.5,281.4 		"/>
		<polygon class="st34" points="1148.1,278.1 1234.6,327.5 1234.6,320.2 1148.1,270.8 		"/>
		<polygon class="st34" points="1148.1,308.1 1234.6,357.5 1234.6,350.3 1148.1,300.9 		"/>
		<polygon class="st34" points="1148.1,338.2 1234.6,387.6 1234.6,380.3 1148.1,330.9 		"/>
		<polygon class="st34" points="1148.1,368.3 1234.6,417.6 1234.6,410.4 1148.1,361 		"/>
		<polygon class="st34" points="1148.1,398.3 1234.6,447.7 1234.6,440.4 1148.1,391.1 		"/>
		<polygon class="st34" points="1148.1,428.4 1234.6,477.7 1234.6,470.5 1148.1,421.1 		"/>
		<polygon class="st35" points="1253.1,130 1376.4,201.9 1253.1,272.3 1129.7,201.9 		"/>
		
			<linearGradient id="SVGID_31_" gradientUnits="userSpaceOnUse" x1="1424.4897" y1="198.9651" x2="1547.875" y2="198.9651" gradientTransform="matrix(-1 0 0 1 2800.9314 0)">
			<stop  offset="0" style="stop-color:#FFFFFF;stop-opacity:0"/>
			<stop  offset="5.817641e-03" style="stop-color:#FCFCFE;stop-opacity:8.045673e-03"/>
			<stop  offset="7.999019e-02" style="stop-color:#D4D6F5;stop-opacity:0.1106"/>
			<stop  offset="0.1592" style="stop-color:#B2B6ED;stop-opacity:0.2201"/>
			<stop  offset="0.2431" style="stop-color:#969CE6;stop-opacity:0.3361"/>
			<stop  offset="0.3333" style="stop-color:#8187E1;stop-opacity:0.4609"/>
			<stop  offset="0.433" style="stop-color:#7279DE;stop-opacity:0.5988"/>
			<stop  offset="0.5494" style="stop-color:#6971DC;stop-opacity:0.7599"/>
			<stop  offset="0.7231" style="stop-color:#666EDB"/>
		</linearGradient>
		<polygon class="st36" points="1253.1,144.5 1278,144.5 1376.4,201.9 1286.1,253.4 1253.1,253.4 1342.4,202.4 1342.4,196.6 		"/>
		
			<linearGradient id="SVGID_32_" gradientUnits="userSpaceOnUse" x1="1458.4835" y1="196.0613" x2="1637.2665" y2="196.0613" gradientTransform="matrix(-1 0 0 1 2800.9314 0)">
			<stop  offset="0" style="stop-color:#C1C1F5;stop-opacity:0.8"/>
			<stop  offset="0.1091" style="stop-color:#CBCBF8;stop-opacity:0.7891"/>
			<stop  offset="0.3364" style="stop-color:#DADAFB;stop-opacity:0.7664"/>
			<stop  offset="0.6027" style="stop-color:#E3E3FD;stop-opacity:0.7397"/>
			<stop  offset="1" style="stop-color:#E6E6FE;stop-opacity:0.7"/>
		</linearGradient>
		<polygon class="st37" points="1163.7,196.6 1253.1,144.5 1342.4,196.6 1253.1,247.6 		"/>
		<polygon class="st38" points="1253.1,247.6 1342.4,196.6 1342.4,202.4 1253.1,253.4 		"/>
		
			<linearGradient id="SVGID_33_" gradientUnits="userSpaceOnUse" x1="1547.875" y1="224.9993" x2="1637.2665" y2="224.9993" gradientTransform="matrix(-1 0 0 1 2800.9314 0)">
			<stop  offset="0" style="stop-color:#CCCEF7"/>
			<stop  offset="1" style="stop-color:#CECDF7"/>
		</linearGradient>
		<polygon class="st39" points="1253.1,253.4 1163.7,202.4 1163.7,196.6 1253.1,247.6 		"/>
		<polygon class="st40" points="1319.8,337.8 1312.6,342 1312.6,337.2 1319.8,333.1 		"/>
		<polygon class="st40" points="1319.8,377 1312.6,381.2 1312.6,370.6 1319.8,366.4 		"/>
		<polygon class="st40" points="1319.8,390.1 1312.6,394.2 1312.6,383.7 1319.8,379.5 		"/>
		<polygon class="st40" points="1319.8,403.2 1312.6,407.3 1312.6,396.7 1319.8,392.6 		"/>
		<polygon class="st40" points="1319.8,364 1312.6,368.1 1312.6,344.5 1319.8,340.3 		"/>
		<polygon class="st40" points="1328.5,332.7 1321.3,336.9 1321.3,332.1 1328.5,328 		"/>
		<polygon class="st40" points="1328.5,345.1 1321.3,349.2 1321.3,339.4 1328.5,335.2 		"/>
		<polygon class="st40" points="1328.5,361.8 1321.3,365.9 1321.3,351.7 1328.5,347.6 		"/>
		<polygon class="st40" points="1328.5,378.5 1321.3,382.6 1321.3,368.4 1328.5,364.3 		"/>
		
			<linearGradient id="SVGID_34_" gradientUnits="userSpaceOnUse" x1="1478.1986" y1="469.5039" x2="1530.4559" y2="469.5039" gradientTransform="matrix(-1 0 0 1 2800.9314 0)">
			<stop  offset="0" style="stop-color:#39B3C2"/>
			<stop  offset="1" style="stop-color:#4348AE"/>
		</linearGradient>
		<polygon class="st41" points="1270.5,522.3 1270.5,445.8 1322.7,416.7 1322.7,492.4 		"/>
		
			<linearGradient id="SVGID_35_" gradientUnits="userSpaceOnUse" x1="1478.1986" y1="416.7497" x2="1538.4397" y2="416.7497" gradientTransform="matrix(-1 0 0 1 2800.9314 0)">
			<stop  offset="0" style="stop-color:#39B3C2"/>
			<stop  offset="1" style="stop-color:#4348AE"/>
		</linearGradient>
		<polygon class="st42" points="1262.5,392.1 1270.5,387.7 1322.7,416.7 1270.5,445.8 1262.5,441.4 		"/>
		
			<linearGradient id="SVGID_36_" gradientUnits="userSpaceOnUse" x1="1530.4559" y1="482.3661" x2="1538.4397" y2="482.3661" gradientTransform="matrix(-1 0 0 1 2800.9314 0)">
			<stop  offset="0" style="stop-color:#39B3C2"/>
			<stop  offset="1" style="stop-color:#4348AE"/>
		</linearGradient>
		<path class="st43" d="M1270.5,445.8v76.5l-2,1.1c-1.2-1.4-3-2-5-1.7c-0.3,0.1-0.7,0.2-1,0.3v-80.7L1270.5,445.8z"/>
		
			<linearGradient id="SVGID_37_" gradientUnits="userSpaceOnUse" x1="1510.8594" y1="417.3622" x2="1538.4397" y2="417.3622" gradientTransform="matrix(-1 0 0 1 2800.9314 0)">
			<stop  offset="0" style="stop-color:#39B3C2"/>
			<stop  offset="1" style="stop-color:#4348AE"/>
		</linearGradient>
		<path class="st44" d="M1262.5,407.2c2.8-1.3,6.2-2,9.8-2c9.8,0,17.8,5.5,17.8,12.2s-8,12.2-17.8,12.2c-3.6,0-7-0.7-9.8-2V407.2z"
			/>
		
			<linearGradient id="SVGID_38_" gradientUnits="userSpaceOnUse" x1="1530.4559" y1="388.9217" x2="1530.4559" y2="275.5974" gradientTransform="matrix(-1 0 0 1 2800.9314 0)">
			<stop  offset="0" style="stop-color:#4348AE"/>
			<stop  offset="1" style="stop-color:#39B3C2"/>
		</linearGradient>
		<path class="st45" d="M1270,283.1c0.1-2.1-0.6-3.7-1.7-4.5v-0.5l4.4-2.5v113.3l-2.2-1.2l-2.2,1.2V288.4
			C1269.3,286.9,1270,285,1270,283.1z"/>
		<g>
			
				<ellipse transform="matrix(0.3159 -0.9488 0.9488 0.3159 595.6787 1394.2115)" class="st46" cx="1264.7" cy="284" rx="7.4" ry="6"/>
			<g>
				<defs>
					
						<ellipse id="SVGID_39_" transform="matrix(0.3159 -0.9488 0.9488 0.3159 595.6787 1394.2115)" cx="1264.7" cy="284" rx="7.4" ry="6"/>
				</defs>
				<clipPath id="SVGID_40_">
					<use xlink:href="#SVGID_39_"  style="overflow:visible;"/>
				</clipPath>
				
					<ellipse transform="matrix(0.316 -0.9487 0.9487 0.316 596.1254 1396.0316)" class="st47" cx="1266.3" cy="284.6" rx="6.8" ry="4.4"/>
				
					<ellipse transform="matrix(0.316 -0.9487 0.9487 0.316 596.139 1396.4755)" class="st48" cx="1266.6" cy="284.8" rx="3.9" ry="2.6"/>
			</g>
		</g>
		<g>
			
				<ellipse transform="matrix(0.3159 -0.9488 0.9488 0.3159 724.9772 1447.7692)" class="st46" cx="1366.4" cy="221.1" rx="7.4" ry="6"/>
			<g>
				<defs>
					
						<ellipse id="SVGID_41_" transform="matrix(0.3159 -0.9488 0.9488 0.3159 724.9772 1447.7692)" cx="1366.4" cy="221.1" rx="7.4" ry="6"/>
				</defs>
				<clipPath id="SVGID_42_">
					<use xlink:href="#SVGID_41_"  style="overflow:visible;"/>
				</clipPath>
				
					<ellipse transform="matrix(0.316 -0.9487 0.9487 0.316 725.4044 1449.5939)" class="st49" cx="1368.1" cy="221.7" rx="6.8" ry="4.4"/>
				
					<ellipse transform="matrix(0.316 -0.9487 0.9487 0.316 725.4188 1450.0374)" class="st50" cx="1368.4" cy="221.9" rx="3.9" ry="2.6"/>
			</g>
		</g>
		<g>
			
				<ellipse transform="matrix(0.3159 -0.9488 0.9488 0.3159 364.2133 1561.3618)" class="st46" cx="1264.8" cy="528.1" rx="7.6" ry="6.3"/>
			<g>
				<defs>
					
						<ellipse id="SVGID_43_" transform="matrix(0.3159 -0.9488 0.9488 0.3159 364.2133 1561.3618)" cx="1264.8" cy="528.1" rx="7.6" ry="6.3"/>
				</defs>
				<clipPath id="SVGID_44_">
					<use xlink:href="#SVGID_43_"  style="overflow:visible;"/>
				</clipPath>
				
					<ellipse transform="matrix(0.316 -0.9487 0.9487 0.316 364.6951 1563.2113)" class="st51" cx="1266.6" cy="528.7" rx="7" ry="4.6"/>
				
					<ellipse transform="matrix(0.316 -0.9487 0.9487 0.316 364.7083 1563.6724)" class="st52" cx="1266.9" cy="528.9" rx="4.1" ry="2.7"/>
			</g>
		</g>
		<g>
			
				<ellipse transform="matrix(0.3159 -0.9488 0.9488 0.3159 493.0152 1614.2307)" class="st46" cx="1365.9" cy="465.2" rx="7.6" ry="6.3"/>
			<g>
				<defs>
					
						<ellipse id="SVGID_45_" transform="matrix(0.3159 -0.9488 0.9488 0.3159 493.0152 1614.2307)" cx="1365.9" cy="465.2" rx="7.6" ry="6.3"/>
				</defs>
				<clipPath id="SVGID_46_">
					<use xlink:href="#SVGID_45_"  style="overflow:visible;"/>
				</clipPath>
				
					<ellipse transform="matrix(0.316 -0.9487 0.9487 0.316 493.4777 1616.085)" class="st53" cx="1367.6" cy="465.8" rx="7" ry="4.6"/>
				
					<ellipse transform="matrix(0.316 -0.9487 0.9487 0.316 493.4917 1616.5457)" class="st54" cx="1367.9" cy="466" rx="4.1" ry="2.7"/>
			</g>
		</g>
		<g>
			<polygon class="st55" points="1248.6,174 1254.5,170.6 1293.7,193.4 1287.7,196.8 			"/>
			
				<linearGradient id="SVGID_47_" gradientUnits="userSpaceOnUse" x1="1502.6854" y1="198.5198" x2="1553.9771" y2="169.7287" gradientTransform="matrix(-1 0 0 1 2800.9314 0)">
				<stop  offset="0" style="stop-color:#FFFFFF;stop-opacity:0"/>
				<stop  offset="5.817641e-03" style="stop-color:#FCFCFE;stop-opacity:8.045673e-03"/>
				<stop  offset="7.999019e-02" style="stop-color:#D4D6F5;stop-opacity:0.1106"/>
				<stop  offset="0.1592" style="stop-color:#B2B6ED;stop-opacity:0.2201"/>
				<stop  offset="0.2431" style="stop-color:#969CE6;stop-opacity:0.3361"/>
				<stop  offset="0.3333" style="stop-color:#8187E1;stop-opacity:0.4609"/>
				<stop  offset="0.433" style="stop-color:#7279DE;stop-opacity:0.5988"/>
				<stop  offset="0.5494" style="stop-color:#6971DC;stop-opacity:0.7599"/>
				<stop  offset="0.7231" style="stop-color:#666EDB"/>
			</linearGradient>
			<polygon class="st56" points="1254.5,172.7 1250.5,175.1 1248.6,174 1254.5,170.6 1293.7,193.4 1291.8,194.5 			"/>
		</g>
		<g>
			<polygon class="st55" points="1235.5,181.3 1241.4,177.8 1280.6,200.6 1274.6,204.1 			"/>
			
				<linearGradient id="SVGID_48_" gradientUnits="userSpaceOnUse" x1="1515.7498" y1="205.7793" x2="1567.0414" y2="176.9882" gradientTransform="matrix(-1 0 0 1 2800.9314 0)">
				<stop  offset="0" style="stop-color:#FFFFFF;stop-opacity:0"/>
				<stop  offset="5.817641e-03" style="stop-color:#FCFCFE;stop-opacity:8.045673e-03"/>
				<stop  offset="7.999019e-02" style="stop-color:#D4D6F5;stop-opacity:0.1106"/>
				<stop  offset="0.1592" style="stop-color:#B2B6ED;stop-opacity:0.2201"/>
				<stop  offset="0.2431" style="stop-color:#969CE6;stop-opacity:0.3361"/>
				<stop  offset="0.3333" style="stop-color:#8187E1;stop-opacity:0.4609"/>
				<stop  offset="0.433" style="stop-color:#7279DE;stop-opacity:0.5988"/>
				<stop  offset="0.5494" style="stop-color:#6971DC;stop-opacity:0.7599"/>
				<stop  offset="0.7231" style="stop-color:#666EDB"/>
			</linearGradient>
			<polygon class="st57" points="1241.4,180 1237.4,182.4 1235.5,181.3 1241.4,177.8 1280.6,200.6 1278.7,201.7 			"/>
		</g>
		<g>
			<polygon class="st55" points="1222.5,188.5 1228.4,185.1 1267.6,207.9 1261.6,211.3 			"/>
			
				<linearGradient id="SVGID_49_" gradientUnits="userSpaceOnUse" x1="1528.8141" y1="213.0388" x2="1580.1057" y2="184.2477" gradientTransform="matrix(-1 0 0 1 2800.9314 0)">
				<stop  offset="0" style="stop-color:#FFFFFF;stop-opacity:0"/>
				<stop  offset="5.817641e-03" style="stop-color:#FCFCFE;stop-opacity:8.045673e-03"/>
				<stop  offset="7.999019e-02" style="stop-color:#D4D6F5;stop-opacity:0.1106"/>
				<stop  offset="0.1592" style="stop-color:#B2B6ED;stop-opacity:0.2201"/>
				<stop  offset="0.2431" style="stop-color:#969CE6;stop-opacity:0.3361"/>
				<stop  offset="0.3333" style="stop-color:#8187E1;stop-opacity:0.4609"/>
				<stop  offset="0.433" style="stop-color:#7279DE;stop-opacity:0.5988"/>
				<stop  offset="0.5494" style="stop-color:#6971DC;stop-opacity:0.7599"/>
				<stop  offset="0.7231" style="stop-color:#666EDB"/>
			</linearGradient>
			<polygon class="st58" points="1228.4,187.3 1224.3,189.6 1222.5,188.5 1228.4,185.1 1267.6,207.9 1265.7,209 			"/>
		</g>
		<g>
			<polygon class="st55" points="1209.4,195.8 1215.3,192.3 1254.5,215.2 1248.5,218.6 			"/>
			
				<linearGradient id="SVGID_50_" gradientUnits="userSpaceOnUse" x1="1541.8784" y1="220.2983" x2="1593.17" y2="191.5072" gradientTransform="matrix(-1 0 0 1 2800.9314 0)">
				<stop  offset="0" style="stop-color:#FFFFFF;stop-opacity:0"/>
				<stop  offset="5.817641e-03" style="stop-color:#FCFCFE;stop-opacity:8.045673e-03"/>
				<stop  offset="7.999019e-02" style="stop-color:#D4D6F5;stop-opacity:0.1106"/>
				<stop  offset="0.1592" style="stop-color:#B2B6ED;stop-opacity:0.2201"/>
				<stop  offset="0.2431" style="stop-color:#969CE6;stop-opacity:0.3361"/>
				<stop  offset="0.3333" style="stop-color:#8187E1;stop-opacity:0.4609"/>
				<stop  offset="0.433" style="stop-color:#7279DE;stop-opacity:0.5988"/>
				<stop  offset="0.5494" style="stop-color:#6971DC;stop-opacity:0.7599"/>
				<stop  offset="0.7231" style="stop-color:#666EDB"/>
			</linearGradient>
			<polygon class="st59" points="1215.3,194.5 1211.3,196.9 1209.4,195.8 1215.3,192.3 1254.5,215.2 1252.6,216.2 			"/>
		</g>
		<linearGradient id="SVGID_51_" gradientUnits="userSpaceOnUse" x1="919.7134" y1="604.245" x2="1384.8157" y2="604.245">
			<stop  offset="0" style="stop-color:#43E1E0"/>
			<stop  offset="1" style="stop-color:#5465D7"/>
		</linearGradient>
		<path class="st60" d="M1244.7,728.1c2.1,1.2,4.6,1.9,7,1.9c2.4,0,4.8-0.6,6.9-1.8l116.7-66.8v-17.1l9.6-5.2l-4.5-2.5l-9.5,5.1
			v17.2l-114.5,65.6c-2.9,1.7-6.6,1.7-9.5,0l-170.5-98.5c-0.8-0.4-0.8-1.2-0.8-1.5c0-0.3,0.1-1,0.8-1.5l100.2-57.6l-4.3-2.5
			l-98.1,56.3c-1.5,0.8-2.5,2.2-2.9,3.8l-147-85.9c-0.2-0.1-0.3-0.3-0.3-0.5c0-0.1,0-0.4,0.3-0.5l93.2-55.1l-4.3-2.5l-91.1,53.8
			c-1.5,0.9-2.4,2.5-2.4,4.2c0,1.8,0.9,3.4,2.4,4.3L1244.7,728.1z"/>
		<polygon class="st34" points="1415.6,480.2 1446.4,497.6 1444.5,498.7 1415.6,482.4 1386.8,498.7 1384.8,497.6 		"/>
		
			<linearGradient id="SVGID_52_" gradientUnits="userSpaceOnUse" x1="1385.2968" y1="499.5078" x2="1385.2968" y2="159.7639" gradientTransform="matrix(-1 0 0 1 2800.9314 0)">
			<stop  offset="0" style="stop-color:#43E1E0"/>
			<stop  offset="1" style="stop-color:#5465D7;stop-opacity:0"/>
		</linearGradient>
		<polygon class="st61" points="1413.5,499.5 1417.8,499.5 1417.8,159.8 1413.5,159.8 		"/>
	</g>
</g>
</svg>
