<?xml version="1.0" encoding="utf-8"?>
<!-- Generator: Adobe Illustrator 22.1.0, SVG Export Plug-In . SVG Version: 6.00 Build 0)  -->
<svg version="1.1" id="Layer_1" xmlns="http://www.w3.org/2000/svg" xmlns:xlink="http://www.w3.org/1999/xlink" x="0px" y="0px"
	 viewBox="0 0 74.3 60" style="enable-background:new 0 0 74.3 60;" xml:space="preserve">
<style type="text/css">
	.st0{fill:url(#SVGID_1_);}
	.st1{fill:url(#SVGID_2_);}
	.st2{fill:url(#SVGID_3_);}
	.st3{fill:#080245;}
</style>
<g>
	<g>
		<linearGradient id="SVGID_1_" gradientUnits="userSpaceOnUse" x1="48.9424" y1="19.0332" x2="54.3806" y2="19.0332">
			<stop  offset="0.25" style="stop-color:#3FD7D7"/>
			<stop  offset="1" style="stop-color:#080245"/>
		</linearGradient>
		<path class="st0" d="M54.4,19.8v-1.6c0-2.1-1.7-3.8-3.8-3.8h-1.7v9.1h1.7C52.7,23.6,54.4,21.9,54.4,19.8z"/>
		<linearGradient id="SVGID_2_" gradientUnits="userSpaceOnUse" x1="25.3775" y1="19.0332" x2="30.8156" y2="19.0332">
			<stop  offset="0.25" style="stop-color:#3FD7D7"/>
			<stop  offset="1" style="stop-color:#080245"/>
		</linearGradient>
		<path class="st1" d="M29.1,23.6h1.7v-9.1h-1.7c-2.1,0-3.8,1.7-3.8,3.8v1.6C25.4,21.9,27.1,23.6,29.1,23.6z"/>
		<linearGradient id="SVGID_3_" gradientUnits="userSpaceOnUse" x1="14.5014" y1="49.4864" x2="66.163" y2="49.4864">
			<stop  offset="0.25" style="stop-color:#3FD7D7"/>
			<stop  offset="1" style="stop-color:#080245"/>
		</linearGradient>
		<path class="st2" d="M61.3,55.5c0.2-0.3,0.3-0.6,0.3-0.9V41.8c0-1.1-0.9-1.9-1.9-1.9H21c-1.1,0-1.9,0.9-1.9,1.9v12.7
			c0,0.3,0.1,0.7,0.3,0.9c-2.8,0-4.8,0-4.8,0v0.5c0,1.8,1.4,3.2,3.2,3.2H63c1.8,0,3.2-1.4,3.2-3.2v-0.5
			C66.2,55.5,64.2,55.5,61.3,55.5z M40.3,50.8c-1.3,0-2.3-1-2.3-2.3s1-2.3,2.3-2.3s2.3,1,2.3,2.3S41.6,50.8,40.3,50.8z"/>
	</g>
	<path class="st3" d="M38.1,20c0.5,0,0.9,0.4,0.9,0.9c0,0.5-0.4,0.9-0.9,0.9H36c-0.5,0-0.9-0.4-0.9-0.9c0-0.5,0.4-0.9,0.9-0.9H38.1z
		 M44.7,21.8c0.5,0,0.9-0.4,0.9-0.9c0-0.5-0.4-0.9-0.9-0.9h-2.1c-0.5,0-0.9,0.4-0.9,0.9c0,0.5,0.4,0.9,0.9,0.9H44.7z M74.3,59.1
		c0,0.5-0.4,0.9-0.9,0.9H63H17.7H0.9C0.4,60,0,59.6,0,59.1s0.4-0.9,0.9-0.9h13.4c-0.4-0.6-0.7-1.4-0.7-2.3v-0.5
		c0-0.5,0.4-0.9,0.9-0.9h3.6V41.8c0-1.6,1.3-2.9,2.9-2.9h2.1c2.2-3.5,5.7-6,10-6.8l0.2,0c0,0,0,0,0.1,0c0,0,0.1,0,0.1,0
		c0,0,0.1,0,0.1,0c0,0,0,0,0.1,0c0,0,0.1,0,0.1,0c0,0,0,0,0.1,0c0,0,0.1,0,0.1,0c0,0,0,0,0.1,0c0,0,0.1,0,0.1,0.1c0,0,0,0,0,0
		c1.6,1.4,3.7,2.2,5.8,2.2c2.1,0,4.2-0.8,5.8-2.2c0.1-0.1,0.3-0.2,0.5-0.2c0.1,0,0.1,0,0.2,0c0.1,0,0.2,0,0.2,0v0c0,0,0,0,0.1,0
		c4.3,0.8,7.8,3.3,10,6.8h2.9c1.6,0,2.9,1.3,2.9,2.9v12.7h3.7c0.5,0,0.9,0.4,0.9,0.9v0.5c0,0.8-0.3,1.6-0.7,2.3h7
		C73.9,58.2,74.3,58.6,74.3,59.1z M25.3,39h29.2c-1.9-2.5-4.7-4.3-8-5c-1.9,1.5-4.2,2.4-6.7,2.4c-2.4,0-4.8-0.9-6.7-2.4
		C30,34.7,27.2,36.5,25.3,39z M20,54.6c0,0.5,0.4,0.9,0.9,0.9h38.9c0.5,0,0.9-0.4,0.9-0.9V41.8c0-0.6-0.5-1-1-1h-1.9h-2h-3.4h-1.8
		H29.9h-1.8h-3.9h-2H21c-0.6,0-1,0.5-1,1V54.6z M65.2,56.4h-3.4c-0.5,0.6-1.2,0.9-2,0.9H20.9c-0.8,0-1.5-0.3-2-0.9h-3.4
		c0.2,1,1.1,1.8,2.2,1.8H63C64.1,58.2,65,57.4,65.2,56.4z M24.5,18.3c0-1.9,1.1-3.5,2.7-4.2v-3.2c0-6,5.1-10.8,11.4-10.8h2.5
		c6.3,0,11.4,4.9,11.4,10.8V14c1.6,0.7,2.7,2.4,2.7,4.2v1.6c0,2.6-2.1,4.7-4.7,4.7h-1.2c-1.5,4.9-5.2,8.2-9.4,8.2
		c-0.7,0-1.5-0.1-2.2-0.3c-0.5-0.1-0.8-0.6-0.6-1.1c0.1-0.5,0.6-0.8,1.1-0.6c0.6,0.2,1.1,0.2,1.7,0.2c3.7,0,7-3.4,8-8.2v-5.6
		c-0.1,0-0.1,0-0.2-0.1c-1.4,0.4-2.6,0.7-3.9,0.8c-0.1,0-0.2,0.1-0.3,0.1c-0.1,0-0.1,0-0.2,0c-0.2,0-0.5,0-0.7,0
		c-1.5,0-2.8-0.3-4.1-0.8c-0.4-0.1-0.7-0.3-1.1-0.5c-1-0.5-2-0.9-3-0.9c-0.3,0-0.6,0-0.9,0.1c-0.6,0.2-1.3,0.6-1.8,1.3
		c0,0-0.1,0.1-0.1,0.1v4.1c0,0.1,0,0.1,0.1,0.2c0,0,0,0.1,0,0.1c0,0,0,0,0,0.1c0,0,0,0,0,0c0,0,0,0,0,0c0.2,1.3,0.6,2.5,1.1,3.7
		c0.2,0.5,0,1-0.5,1.2c-0.1,0.1-0.2,0.1-0.4,0.1c-0.3,0-0.7-0.2-0.8-0.5c-0.2-0.5-0.4-1.1-0.6-1.7h-1.5c0.5,2.1,2.4,3.6,4.6,3.6h0.7
		V28c0-0.9,0.8-1.7,1.7-1.7h1.1c0.9,0,1.7,0.8,1.7,1.7v0.2c0,0.9-0.8,1.7-1.7,1.7h-1h-0.1h-2.4c-3.4,0-6.2-2.6-6.5-5.8
		c-1.6-0.7-2.8-2.4-2.8-4.3V18.3z M47.9,15.1c0-0.7,0-1.5-0.2-2.2c-1.1-3.9-3.6-5.7-7.8-5.7c-2.4,0-4.3,0.6-5.6,1.8
		c-1.4,1.3-2,2.9-2.1,3.5c-0.2,0.8-0.3,1.5-0.3,2.2c0.4-0.3,0.8-0.5,1.2-0.6c0.5-0.2,1-0.2,1.5-0.2c1.4,0,2.7,0.6,3.8,1.1
		c0.3,0.2,0.7,0.3,1,0.4c0.6,0.3,1.3,0.4,2,0.5l-1.8-1.8c-0.4-0.4-0.4-0.9,0-1.3c0.4-0.4,0.9-0.4,1.3,0L44,16
		C45.2,15.9,46.5,15.6,47.9,15.1C47.9,15.1,47.9,15.1,47.9,15.1z M52.5,16.1c-0.5-0.4-1.1-0.7-1.7-0.7c0,0-0.1,0-0.1,0h-0.8v0.5v1.8
		v1.5v2.1v1.1v0.3h0h0.7c1.6,0,2.8-1.3,2.8-2.8v-1.6C53.5,17.4,53.1,16.6,52.5,16.1z M29,13.6c0,0,0.1,0,0.1,0h0.9
		c0-0.5,0.1-1,0.3-1.5c0.2-0.8,0.9-2.8,2.7-4.4c1.7-1.5,4-2.3,6.8-2.3c5.1,0,8.2,2.3,9.6,7c0.1,0.4,0.2,0.8,0.2,1.2h1
		c0,0,0.1,0,0.1,0v-2.8c0-5-4.3-9-9.6-9h-2.5c-5.3,0-9.6,4-9.6,9V13.6z M26.3,19.8c0,0.8,0.3,1.6,0.9,2.1c0.5,0.4,1.1,0.7,1.8,0.8
		c0,0,0.1,0,0.1,0h0.8V22v-6.1v-0.5h-0.8c0,0-0.1,0-0.1,0c-0.7,0-1.3,0.3-1.7,0.7c-0.6,0.5-1,1.3-1,2.1V19.8z M21,35.3
		c0.5,0,0.9-0.4,0.9-0.9c0-0.5-0.4-0.9-0.9-0.9c-4.6,0-8.3,3.7-8.3,8.3v7.1c0,0.5,0.4,0.9,0.9,0.9c0.5,0,0.9-0.4,0.9-0.9v-7.1
		C14.5,38.3,17.4,35.3,21,35.3z M67,52.7c0.5,0,0.9-0.4,0.9-0.9V48c0-0.5-0.4-0.9-0.9-0.9s-0.9,0.4-0.9,0.9v3.8
		C66.1,52.3,66.5,52.7,67,52.7z M67.2,46.3c0.6,0,1-0.5,1-1c0-0.6-0.5-1-1-1c-0.6,0-1,0.5-1,1C66.2,45.9,66.6,46.3,67.2,46.3z
		 M13.6,50.6c-0.6,0-1,0.5-1,1s0.5,1,1,1s1-0.5,1-1S14.2,50.6,13.6,50.6z M57.1,13.5c-0.6,0-1,0.5-1,1c0,0.6,0.5,1,1,1
		c0.6,0,1-0.5,1-1C58.1,13.9,57.7,13.5,57.1,13.5z M56.2,11.7c0,0.5,0.4,0.9,0.9,0.9c0.5,0,0.9-0.4,0.9-0.9c0-4.3-1.7-8.4-4.9-11.5
		c-0.4-0.3-0.9-0.3-1.3,0c-0.3,0.4-0.3,0.9,0,1.3C54.6,4.3,56.2,7.9,56.2,11.7z M0.2,9.6C0.2,4.3,5.9,0,12.8,0
		c6.9,0,12.6,4.3,12.6,9.6c0,2.6-1.3,5-3.7,6.8c0,0.5,0,1,0,1.5c0.1,0.9,0.4,1.7,0.9,2.5c0.2,0.3,0.2,0.7,0,1
		c-0.2,0.3-0.5,0.4-0.8,0.4c0,0-0.1,0-0.1,0c-1.1-0.2-2.2-0.5-3.2-1c-0.9-0.5-1.7-1.1-2.4-1.8c-1.1,0.2-2.2,0.3-3.3,0.3
		C5.9,19.3,0.2,14.9,0.2,9.6z M2,9.6c0,4.3,4.8,7.8,10.8,7.8c1.1,0,2.3-0.1,3.4-0.4c0.1,0,0.1,0,0.2,0c0.3,0,0.5,0.1,0.7,0.3
		c0.6,0.7,1.4,1.3,2.3,1.8c0.3,0.1,0.6,0.3,0.9,0.4c-0.1-0.4-0.2-0.9-0.3-1.3c-0.1-0.8-0.1-1.6,0-2.4c0-0.2,0.2-0.5,0.4-0.6
		c2.1-1.5,3.2-3.5,3.2-5.6c0-4.3-4.8-7.8-10.8-7.8C6.9,1.8,2,5.3,2,9.6z M17.2,11.1c0.6,0,1.2-0.5,1.2-1.2c0-0.6-0.5-1.2-1.2-1.2
		S16,9.3,16,10C16,10.6,16.5,11.1,17.2,11.1z M12.7,11.1c0.6,0,1.2-0.5,1.2-1.2c0-0.6-0.5-1.2-1.2-1.2c-0.6,0-1.2,0.5-1.2,1.2
		C11.5,10.6,12,11.1,12.7,11.1z M8.3,11.1c0.6,0,1.2-0.5,1.2-1.2c0-0.6-0.5-1.2-1.2-1.2S7.2,9.3,7.2,10C7.2,10.6,7.7,11.1,8.3,11.1z
		"/>
</g>
</svg>
