<?xml version="1.0" encoding="utf-8"?>
<!-- Generator: Adobe Illustrator 22.1.0, SVG Export Plug-In . SVG Version: 6.00 Build 0)  -->
<svg version="1.1" id="icons" xmlns="http://www.w3.org/2000/svg" xmlns:xlink="http://www.w3.org/1999/xlink" x="0px" y="0px"
	 viewBox="0 0 65 69.7" style="enable-background:new 0 0 65 69.7;" xml:space="preserve">
<style type="text/css">
	.st0{fill:url(#SVGID_1_);}
	.st1{fill:url(#SVGID_2_);}
	.st2{fill:#080245;}
	.st3{fill:#FFFFFF;}
</style>
<g>
	<g>
		
			<linearGradient id="SVGID_1_" gradientUnits="userSpaceOnUse" x1="8.4" y1="43.85" x2="48.3" y2="43.85" gradientTransform="matrix(1 0 0 -1 0 72)">
			<stop  offset="0.25" style="stop-color:#0069FF"/>
			<stop  offset="1" style="stop-color:#08026E"/>
		</linearGradient>
		<polygon class="st0" points="48.3,29.6 28.1,43.2 8.4,28.5 8.4,13.1 48.3,13.1 		"/>
	</g>
	
		<linearGradient id="SVGID_2_" gradientUnits="userSpaceOnUse" x1="42.63" y1="14.9" x2="64.03" y2="14.9" gradientTransform="matrix(1 0 0 -1 0 72)">
		<stop  offset="0.25" style="stop-color:#0069FF"/>
		<stop  offset="1" style="stop-color:#08026E"/>
	</linearGradient>
	<circle class="st1" cx="53.3" cy="57.1" r="10.7"/>
	<path class="st2" d="M57.2,46.1c0.5-0.4,0.4,0.9,0.4-22.6l0,0c0-0.6,0.1-0.4-8.1-5.9v-4.5c0-0.5-0.4-0.9-0.9-0.9h-7.3l-10.6-7
		c-1.4-1-3.3-0.9-4.7,0c-10.1,7-9.7,6.6-9.9,7H8.6c-0.5,0-0.9,0.4-0.9,0.9v4.6C-0.2,23.1,0,22.9,0,23.5v35.2c0,3.6,2.9,6.5,6.5,6.5
		c39.5,0,37.6,0.3,37.8-0.7C51.2,73,65,68.1,65,57.2C65,52,61.7,47.7,57.2,46.1z M49.5,19.9l5.5,3.6l-5.5,3.9V19.9z M26.9,6.8
		c0.8-0.5,1.8-0.5,2.6,0l8.2,5.4H19.1L26.9,6.8z M9.6,14.1h38v14.7L29.4,41.7c-0.8,0.6-1.9,0.6-2.8,0l-17-12.9V14.1z M7.7,20.1v7.3
		l-5.1-3.8L7.7,20.1z M6.5,63.3c-2.5,0-4.6-2-4.6-4.6V25.4l23.6,17.8c1.5,1.1,3.5,1.1,5,0.1l25.1-17.9c0,0.3,0,20.1,0.1,20.3
		c-10.1-2.1-17.7,9-12.3,17.6C43.3,63.3,6.6,63.3,6.5,63.3z M53.3,66.9c-5.4,0-9.8-4.4-9.8-9.8s4.4-9.8,9.8-9.8s9.8,4.4,9.8,9.8
		S58.7,66.9,53.3,66.9z"/>
	<path class="st2" d="M41.6,67.8H10.7c-1.3,0-1.3,1.9,0,1.9h30.9C42.9,69.7,42.9,67.8,41.6,67.8z"/>
	<path class="st2" d="M27,59.7c0,1.4,2.1,1.4,2.1,0C29.2,58.3,27,58.3,27,59.7z"/>
	<path class="st2" d="M14.8,9.7l9.6-6.6C26.7,1.5,29.7,1.5,32,3l5.7,3.7c1,0.7,2.1-0.9,1-1.6L33,1.4c-3-2-6.8-1.9-9.8,0.1l-9.6,6.6
		C12.7,8.8,13.8,10.4,14.8,9.7z"/>
	<path class="st3" d="M42.4,26H36c-1.3,0-1.3,1.9,0,1.9h6.4c0.5,0,0.9-0.4,0.9-0.9C43.4,26.5,43,26,42.4,26z"/>
	<path class="st2" d="M41.9,9.3c0.6,0,1.1-0.5,1.1-1.1s-0.5-1.1-1.1-1.1C40.5,7.2,40.5,9.3,41.9,9.3z"/>
	<path class="st3" d="M57.4,53.3l-6,6c-0.1,0.1-2-2-2.1-2c-0.9-0.9-2.2,0.5-1.3,1.3l2,2c0.8,0.8,2,0.8,2.8,0l6-6
		C59.6,53.8,58.3,52.4,57.4,53.3z"/>
	<path class="st2" d="M23,58.8H6.5c-0.1,0-0.1-20.4-0.1-20.5c0-1.3-1.9-1.3-1.9,0v20.4c0,1.1,0.9,2,2,2H23
		C24.3,60.7,24.3,58.8,23,58.8z"/>
	<path class="st3" d="M37.1,31.9h-17c-1.3,0-1.3,1.9,0,1.9h17C38.4,33.8,38.4,31.9,37.1,31.9z"/>
	<path class="st3" d="M15.2,21.7h27.3c1.3,0,1.3-1.9,0-1.9H15.2C13.9,19.8,13.9,21.7,15.2,21.7z"/>
	<path class="st3" d="M28.9,26H15.2c-1.3,0-1.3,1.9,0,1.9H29C30.2,27.9,30.2,26,28.9,26z"/>
</g>
</svg>
