<?xml version="1.0" encoding="utf-8"?>
<!-- Generator: Adobe Illustrator 22.1.0, SVG Export Plug-In . SVG Version: 6.00 Build 0)  -->
<svg version="1.1" id="Layer_1" xmlns="http://www.w3.org/2000/svg" xmlns:xlink="http://www.w3.org/1999/xlink" x="0px" y="0px"
	 viewBox="0 0 69.4 60" style="enable-background:new 0 0 69.4 60;" xml:space="preserve">
<style type="text/css">
	.st0{fill:url(#SVGID_1_);}
	.st1{fill:url(#SVGID_2_);}
	.st2{fill:#080245;}
</style>
<g>
	<g>
		
			<linearGradient id="SVGID_1_" gradientUnits="userSpaceOnUse" x1="57.0444" y1="13.9" x2="64.7112" y2="13.9" gradientTransform="matrix(1 0 0 -1 0 62)">
			<stop  offset="0.25" style="stop-color:#0069FF"/>
			<stop  offset="1" style="stop-color:#08026E"/>
		</linearGradient>
		<circle class="st0" cx="60.9" cy="48.1" r="3.8"/>
	</g>
	<g id="gear-5-icon_18_">
		<g>
			
				<linearGradient id="SVGID_2_" gradientUnits="userSpaceOnUse" x1="16.3232" y1="19.25" x2="47.6483" y2="19.25" gradientTransform="matrix(1 0 0 -1 0 62)">
				<stop  offset="0.25" style="stop-color:#0069FF"/>
				<stop  offset="1" style="stop-color:#08026E"/>
			</linearGradient>
			<path class="st1" d="M47.4,38l-1.1-4l-4.1,0.1c-0.6-0.8-1.6-0.7-2.3-1.3l0.3-4.1L36.7,27l-2.8,3c-0.9-0.1-1.9-0.2-2.8-0.1
				l-2.6-3.1l-4,1.5l0.1,4.1c-0.8,0.6-1.5,1.2-2.1,1.9L18.3,34l-1.8,3.9l2.9,2.8c-0.1,0.9-0.2,1.9-0.1,2.8l-3.1,2.6l1.5,4l4.1-0.1
				c0.6,0.8,1.2,1.5,1.9,2.1l-0.3,4.1L27,58l2.8-2.9c0.9,0.1,1.5,0.5,2.4,0.5l2.6,3.1l3.6-1.5l-0.1-4.1c0.8-0.6,2.6-1.7,3.2-2.4
				l4.1,0.3l1.8-4l-3-2.8c0.1-0.9-0.3-2.7-0.4-3.6L47.4,38z M32.7,47.3c-3,1.2-6.4-0.4-7.6-3.4s0.4-6.4,3.4-7.6
				c3-1.2,6.4,0.4,7.6,3.4C37.2,42.7,35.7,46.1,32.7,47.3z"/>
		</g>
	</g>
	<path class="st2" d="M3.3,49.7c0,1.6-2.5,1.6-2.5,0C0.8,48.1,3.3,48.1,3.3,49.7z M37.3,39c2.4,6.3-4,12.3-10.1,9.5
		c-6.1-2.7-5.9-11.5,0.4-13.9C31.4,33.2,35.8,35.1,37.3,39z M32.4,36.8c-1.3-0.6-2.7-0.6-4.1-0.1c-4.4,1.7-4.6,7.9-0.3,9.8
		c1.3,0.6,2.7,0.6,4.1,0.1l0,0C36.6,45,36.7,38.7,32.4,36.8z M46.3,51.4c-0.4,0.9-1,0.7-5,0.3c-0.5,0.5-1,1-1.6,1.5l0.1,3.9
		c0,1-0.6,1-5.1,2.7c-0.9,0.4-1.2-0.3-3.8-3.3c-0.7,0-1.5,0-2.2-0.1c-2.7,2.9-3,3.5-3.9,3.1c-4.4-2-5-2-5-3l0.3-3.9
		c-0.5-0.5-1-1-1.5-1.6c-4,0.1-4.6,0.3-4.9-0.6c-1.7-4.5-2.1-5-1.4-5.6l3-2.5c0-0.7,0-1.5,0.1-2.2c-2.9-2.7-3.5-3-3.1-3.9
		c2-4.5,2-5,3-5l3.9,0.3c0.5-0.5,1-1.1,1.6-1.5c-0.1-4-0.3-4.6,0.6-4.9l4.4-1.7c0.9-0.4,1.2,0.3,3.8,3.3c0.7,0,1.5,0,2.2,0.1
		l2.7-2.8c0.7-0.7,1.1-0.3,5.5,1.7c0.9,0.4,0.7,1,0.3,5c0.5,0.5,1,1,1.5,1.6l3.9-0.1c1,0,1,0.6,2.7,5.1c0.4,0.9-0.3,1.2-3.3,3.8
		c0,0.7,0,1.5-0.1,2.2l2.8,2.7C48.7,46.6,48.2,47,46.3,51.4z M45.9,46.9c-2.8-2.7-3.1-2.8-3-3.5c0.6-4.4-1.4-2.2,3.3-6.1l-1.1-3
		c-4,0.1-4.1,0.2-4.6-0.3c-2.7-3.6-2.5-0.6-2.1-6.7L35.5,26c-2.7,2.8-2.8,3.1-3.5,3c-4.4-0.6-2.2,1.4-6.2-3.3l-3,1.1
		c0.1,3.8,0.2,4.1-0.4,4.6c-3.6,2.7-0.5,2.5-6.6,2.1l-1.3,2.9c2.8,2.7,3.1,2.8,3,3.5c-0.6,4.4,1.4,2.2-3.3,6.2l1.1,3
		c3.9-0.1,4.1-0.2,4.6,0.3C22.6,53,22.4,50,22,56l2.9,1.3c4.2-4.4,1.9-2.5,6.3-2.9c0.7-0.1,0.8,0.2,3.3,3.2l3-1.1
		c-0.1-3.9-0.2-4.1,0.4-4.6c3.6-2.7,0.6-2.5,6.7-2.1L45.9,46.9z M62.2,10.2c1,2.7-0.3,5.7-3,6.7c-1.3,0.5-2.7,0.5-4-0.1
		c-4.2-1.9-4-7.9,0.3-9.6C58.2,6.2,61.2,7.5,62.2,10.2z M58.6,9.3c-2.4-1.1-5,1.3-4,3.8c0.6,1.5,2.3,2.3,3.9,1.7l0,0
		C60.9,13.9,61,10.4,58.6,9.3z M69.1,15.7c-1.8,3.9-0.9,3.5-4.6,3.2c-0.2,0.3-0.5,0.5-0.8,0.7c0.1,3.5,0.7,2.8-3.5,4.4
		c-0.9,0.4-1.3-0.4-2.7-2c-0.4,0-0.7,0-1.1,0c-1.5,1.6-1.9,2.3-2.8,1.9c-4-1.8-3.5-1-3.2-4.6c-0.3-0.2-0.5-0.5-0.7-0.8
		c-2.2,0.1-3,0.3-3.3-0.7c-1.6-4.1-1.7-3.2,1-5.5c0-0.4,0-0.7,0-1.1c-1.6-1.5-2.3-1.9-1.9-2.8c1.2-2.7,1.3-3.5,2.3-3.4l2.3,0.2
		c0.2-0.3,0.5-0.5,0.8-0.7c-0.1-3.6-0.6-2.8,3.4-4.4c0.9-0.4,1.3,0.4,2.7,2c0.4,0,0.7,0,1.1,0c1.5-1.6,1.9-2.3,2.8-1.9
		c4,1.8,3.5,1,3.2,4.6c0.3,0.2,0.5,0.5,0.7,0.8c2.2-0.1,3-0.3,3.3,0.7c1.6,4.1,1.7,3.2-1,5.5c0,0.4,0,0.7,0,1.1
		C68.8,14.4,69.5,14.8,69.1,15.7z M67,9.1l-0.5-1.4c-2.1,0-2.5,0.2-2.9-0.4c-1.7-2.3-1.7-0.5-1.4-4.2l-1.3-0.6
		c-1.4,1.5-1.6,1.9-2.4,1.8c-2.9-0.4-1.5,0.9-4-2l-1.4,0.5c0.1,2.1,0.2,2.5-0.4,3c-2.2,1.7-0.4,1.7-4.2,1.4l-0.6,1.3
		c1.5,1.4,1.9,1.6,1.8,2.4c-0.4,2.9,0.8,1.5-2,4l0.5,1.4c2.2-0.1,2.5-0.2,2.9,0.4c1.7,2.3,1.7,0.5,1.4,4.2l1.3,0.6
		c2.6-2.7,1.4-1.5,4.1-1.8c0.7-0.1,0.9,0.4,2.3,1.9l1.4-0.5c0-2.1-0.2-2.5,0.4-3c2.3-1.7,0.5-1.7,4.2-1.4l0.6-1.3
		c-1.5-1.5-1.9-1.7-1.8-2.4C65.4,10.3,64.1,11.6,67,9.1z M62.2,41.6V26.4c0-1.4-2.2-1.4-2.2,0v15.1C60.1,43,62.2,43,62.2,41.6z
		 M54.3,47.6h-5.2c-1.4,0-1.4,2.2,0,2.2h5.2c0.6,0,1.1-0.5,1.1-1.1C55.4,48.1,54.9,47.6,54.3,47.6z M65.8,48.1
		c0,2.7-2.2,4.9-4.9,4.9S56,50.8,56,48.1s2.2-4.9,4.9-4.9C63.6,43.2,65.8,45.4,65.8,48.1z M63.6,48.1c0-1.5-1.2-2.7-2.7-2.7
		s-2.7,1.2-2.7,2.7s1.2,2.7,2.7,2.7C62.4,50.9,63.6,49.6,63.6,48.1z M17.7,22.7c1.2-0.9-0.2-2.6-1.3-1.8c-9.2,7-12.5,18.3-9.7,28.5
		C6.9,50,7.5,50.3,8,50.2c0.6-0.2,0.9-0.8,0.8-1.3C6.2,39.4,9.3,29,17.7,22.7z M2.3,44.4c-1-9,2.5-17.6,8.9-23.5
		c1.1-1-0.4-2.6-1.5-1.6C2.9,25.6-0.9,35,0.2,44.7c0.1,0.6,0.6,1,1.2,1C2,45.6,2.4,45,2.3,44.4z"/>
</g>
</svg>
