<?xml version="1.0" encoding="utf-8"?>
<!-- Generator: Adobe Illustrator 22.1.0, SVG Export Plug-In . SVG Version: 6.00 Build 0)  -->
<svg version="1.1" id="Layer_1" xmlns="http://www.w3.org/2000/svg" xmlns:xlink="http://www.w3.org/1999/xlink" x="0px" y="0px"
	 viewBox="0 0 170 170" style="enable-background:new 0 0 170 170;" xml:space="preserve">
<style type="text/css">
	.st0{fill:#3FD7D7;}
	.st1{fill:#06199B;}
	.st2{fill:#080245;}
	.st3{fill:#D3DAE7;}
	.st4{fill:#FFFFFF;}
	.st5{fill:#4446FF;}
	.st6{fill:#3678FF;}
	.st7{fill:#5373D2;}
	.st8{fill:#6F8FEA;}
	.st9{fill:#B76875;}
	.st10{fill:#F7C6CA;}
	.st11{fill:#DD9EA5;}
	.st12{fill:#F3DEDD;}
	.st13{fill:#D0B8B8;}
	.st14{fill:#FFE4EC;}
	.st15{fill:none;}
	.st16{fill:#FFB0BC;}
	.st17{fill:#E5CBCC;}
	.st18{fill:#FFBCC5;}
	.st19{fill:#17BAB1;}
	.st20{fill:#27CAC1;}
	.st21{fill:#51F4EB;}
	.st22{fill:#8C7B82;}
	.st23{fill:#483444;}
</style>
<g>
	<path class="st0" d="M159.2,126.5c-14.5,26-42.3,43.5-74.2,43.5c-46.9,0-85-38.1-85-85C0,46.5,25.7,13.9,60.8,3.5
		C53.9,15.8,50,29.9,50,45c0,46.9,38.1,85,85,85C143.4,130,151.5,128.8,159.2,126.5z"/>
	<path class="st1" d="M170,85c0,15.1-3.9,29.2-10.8,41.5c-7.7,2.3-15.8,3.5-24.2,3.5c-46.9,0-85-38.1-85-85
		c0-15.1,3.9-29.2,10.8-41.5C68.5,1.2,76.6,0,85,0C131.9,0,170,38.1,170,85z"/>
	<path class="st2" d="M103.4,148.2c-22.4,1.1-32.5-8.2-29.6-19c3.1-8.4,1.6-14.7-4.4-18.6c-9.1-6-17.2-9-38.1-12.3
		C10.5,94.9,19.8,83,32.9,78.2s49-12,78.1-0.8s37.5,21.7,35.7,37.3S125.9,147.2,103.4,148.2z"/>
	<path class="st3" d="M103.4,140.2c-22.4,1.1-32.5-8.2-29.6-19c3.1-8.4,1.6-14.7-4.4-18.6c-9.1-6-17.2-9-38.1-12.3
		C10.5,86.9,19.8,75,32.9,70.1s49-12,78.1-0.8s37.5,21.7,35.7,37.3C144.9,122.3,125.9,139.2,103.4,140.2z"/>
	<path class="st4" d="M103.4,139.2c-22.4,1.1-32.5-8.2-29.6-19c3.1-8.4,1.6-14.7-4.4-18.6c-9.1-6-17.2-9-38.1-12.3
		C10.5,85.9,19.8,74,32.9,69.1s49-12,78.1-0.8s37.5,21.7,35.7,37.3C144.9,121.3,125.9,138.2,103.4,139.2z"/>
	<g>
		<g>
			<path class="st5" d="M34.9,99.5c-3.2-1.8-3.2-4.8,0-6.6l31-17.8c3.2-1.8,8.3-1.8,11.5,0.1l15,8.8c3.1,1.9,3.1,4.9,0,6.7
				l-30.8,17.6c-3.2,1.8-8.4,1.8-11.5,0L34.9,99.5z"/>
			<path class="st5" d="M87.7,92.3c0,0,5.2-0.5,3.8,2.8c0,0,2.5-2.8-0.7-4.5L87.7,92.3z"/>
			<path class="st6" d="M35.3,98.7c-3.2-1.8-3.2-4.8,0-6.6l31-17.8c3.2-1.8,8.3-1.8,11.5,0.1l15,8.8c3.2,1.9,3.1,4.9,0,6.7L62,107.5
				c-3.2,1.8-8.4,1.8-11.5,0L35.3,98.7z"/>
			<path class="st6" d="M88.1,91.8c0,0,5.2-0.5,3.8,2.8c0,0,2.5-2.8-0.7-4.5L88.1,91.8z"/>
			<path class="st7" d="M79.9,100.3v-0.2l0,0c-0.3-2.8-3.7-4.9-7.9-4.9c-4.1,0-7.5,2.1-7.9,4.8l0,0v0.4v0.1v0.1v0.1l0,0
				c0.2,2.8,3.7,5.1,7.9,5.1c4.1,0,7.5-2.1,7.9-4.7c0-0.2,0.1-0.4,0.1-0.6C79.9,100.4,79.9,100.3,79.9,100.3"/>
			<path class="st8" d="M64,100c0-2.7,3.6-4.8,8-4.8s8,2.2,8,4.8c0,2.7-3.6,4.8-8,4.8S64,102.7,64,100"/>
			<path class="st7" d="M68.8,97.6c0,0,1.4-0.7,2.3,1l1.5-0.9c0,0,0.9-0.6,1.3,0.3c0,0,0.7-0.1,0.7,0.6c0,0,0.8,0,0.7,0.7
				c0,0,1.2-0.1,0.5,1.3l-3.3,1.9l-0.2-0.1c0,0,0.1,0.3-0.1,0.4l-0.9,0.6c0,0-0.4,0.1-0.6,0l-2.7-1.9c0,0-0.2-0.3,0.1-0.5
				c0.3-0.2,1.1-0.7,1.1-0.7s0.2-0.1,0.3,0.1l-0.2-0.3c0,0,0.7-0.3-0.6-1.3C68.4,98.6,68.3,97.9,68.8,97.6"/>
			<path class="st4" d="M73,102.3l3-1.6c0,0,0.7-1.1-0.5-1.1c0,0,0.2-0.9-0.7-0.7c0,0,0.1-0.9-0.7-0.6c0,0-0.1-1-1.1-0.4
				c0,0,0,0-0.1,0c-1,0.6-1.6,1-1.6,1s-0.7-1.6-2.3-1c0,0-0.5,0.8,0,1c0,0,1.1,0.7,0.6,1.4l3.1,2.2L73,102.3z"/>
			<path class="st4" d="M69.1,100.6c0.1-0.1,0.3-0.1,0.4,0l2.6,2c0.1,0.1,0.1,0.2,0,0.3l-0.9,0.5c-0.1,0.1-0.3,0.1-0.4,0l-2.6-1.9
				c-0.1-0.1-0.1-0.2,0-0.3L69.1,100.6z"/>
			<g>
				<path class="st4" d="M39,96.6c-0.5,0-1-0.3-1.3-0.7c-0.4-0.7-0.2-1.6,0.5-2.1l28.4-16.6c0.7-0.4,1.6-0.2,2.1,0.5
					s0.2,1.6-0.5,2.1L39.7,96.4C39.5,96.5,39.2,96.6,39,96.6z"/>
			</g>
			<g>
				<path class="st4" d="M44.5,99.9c-0.5,0-1-0.3-1.3-0.7c-0.4-0.7-0.2-1.6,0.5-2.1l28.4-16.6c0.7-0.4,1.6-0.2,2.1,0.5
					s0.2,1.6-0.5,2.1L45.2,99.7C45,99.8,44.7,99.9,44.5,99.9z"/>
			</g>
			<g>
				<path class="st4" d="M49.9,102.8c-0.5,0-1-0.3-1.3-0.7c-0.4-0.7-0.2-1.6,0.5-2l17-9.8c0.7-0.4,1.6-0.2,2,0.5s0.2,1.6-0.5,2
					l-17,9.8C50.5,102.7,50.2,102.8,49.9,102.8z"/>
			</g>
		</g>
		<g>
			<path class="st9" d="M108.7,121c-0.3,1.1-0.8,6.8,1.7,7.3c2.5,0.4,3.5-4.6,3.4-6.1s-0.3-2.6-0.3-5.1
				C112.2,116.4,109,119.9,108.7,121"/>
			<path class="st10" d="M108.7,120.7c-0.3,1.1-0.8,6.8,1.7,7.3c2.5,0.4,3.5-4.6,3.4-6.1s-0.3-2.6-0.3-5.1
				C112.2,116,109,119.5,108.7,120.7"/>
			<path class="st11" d="M108.5,115.9c0,0,0.5,3.2,0.1,4.3c-0.3,1.1-0.8,6.8,1.7,7.3c2.5,0.4,3.5-4.6,3.4-6.1s-0.3-2.7-0.2-5.2
				C112.3,115.5,108.5,115.9,108.5,115.9"/>
			<path class="st9" d="M98.5,112.7c0,0-0.1,0.6-1.7,1.8c-1.6,1.2-5.3,2.9-4.5,5.5c0.4,1.1,3.8,0.7,6.7-1.7c1.7-1.2,3.1-0.9,3.9-1.2
				c0.7-0.3,1.2-1,1.2-1s0.1-0.8-0.1-1.6C103.7,113.6,98.5,112.7,98.5,112.7"/>
			<path class="st10" d="M98.5,112.4c0,0-0.1,0.6-1.7,1.8c-1.6,1.2-5.3,2.9-4.5,5.5c0.4,1.1,3.8,0.7,6.7-1.7
				c1.7-1.2,3.1-0.9,3.9-1.2c0.7-0.3,1.2-1,1.2-1s0.1-0.8-0.1-1.6C103.7,113.3,98.5,112.4,98.5,112.4"/>
			<path class="st11" d="M98.5,112c0,0-0.1,0.6-1.7,1.8c-1.6,1.2-5.3,2.9-4.5,5.5c0.4,1.1,3.8,0.7,6.7-1.7c1.7-1.2,3.1-0.9,3.9-1.2
				c0.7-0.3,1.2-1,1.2-1s0.1-0.8-0.1-1.6c-0.2-0.8,0-2.2,0-2.2L98.5,112z"/>
			<path class="st12" d="M113.8,115c-0.5-4.9-2.8-19.4-3.1-23.6c-1.1-11.5,1.1-24.2,0.5-28.5C95.5,60.8,90.7,61,90.7,61
				s3.1,34.4,7.7,50.9c0,0,0.9,1.8,3.3,1.3s2.3-2.8,2.3-2.8s-3.4-19.9-3.4-22.1c0-0.4,0-1.2,0-2.2c0,0-2.1-14.2-2.9-16.6l2.6,6.7
				c0,0,7.2,34.3,7.5,39c0.7,1.3,1.3,2.4,3.5,2.2C113,117.3,114,115.8,113.8,115"/>
			<path class="st13" d="M100.6,86.2c-0.1-3.7-0.3-9.9-0.3-9.9l-2.6-6.7C98.5,72,100.6,86.2,100.6,86.2"/>
			<path class="st14" d="M104.9,33.4c-0.1-0.3-0.2-0.6-0.2-1c-1.5,1.1-4.3,0.9-4.3,0.9s-0.2,1.2-0.3,1.2c-0.1,0-0.1,0,0-1.2
				c-1-0.3-1.7-1.4-2.2-2.3l-2.6,1.6l2.8,17.8l5.3-8.6l3.3-6.5C106.8,35.2,106,34.3,104.9,33.4"/>
			<path class="st15" d="M120.7,49.3c0.1,0,0.2-0.1,0.2-0.1S120.9,49.2,120.7,49.3"/>
			<path class="st16" d="M104.7,30.6c0-0.6,0.1-1.1,0.1-1.1l-6.1,1L98,31c0.5,0.9,1.2,1.9,2.2,2.3c-0.1,1.2-0.1,1.2,0,1.2
				c0.2,0,0.3-1.2,0.3-1.2s2.4,0.2,3.9-0.7c0.1-0.1,0.2-0.1,0.3-0.2C104.7,31.8,104.7,31.1,104.7,30.6"/>
			<path class="st17" d="M120.7,49.3c0,0,1.9-0.4,2.6,1.6c0.8,2.1,0.7,3,0,3.2c-4.2,1.3-5.2,0.6-5.2,0.6S117.6,50.2,120.7,49.3"/>
			<path class="st17" d="M77.9,44.5c0,0-1.1,0-1.5,1.7s-0.6,3.2,0.4,3.6c1.3,0,2.7,0,3.1-1.2C80.4,47.4,80.2,44.8,77.9,44.5"/>
			<path class="st13" d="M93.1,32.3c2.4,1.6,0.6,15.8,0.6,15.8s2.4,0.6,4.9,2.3c0-1.3,0.6-2.2,0.5-3.8c-0.1-4.2-5.8-17.6,3.2-16.9
				C99.2,29.6,94.7,30.4,93.1,32.3"/>
			<path class="st13" d="M90.5,62.2c1.5,1.4,6,6.8,7.5-0.4C99,56.7,91.7,56.7,90.5,62.2"/>
			<path class="st12" d="M95.6,34.9c0,0-0.3-0.2-2.5-1.6c1.4-1.7,3-2.5,4.4-2.9c-2.8-0.2-6-0.3-7,0.2c-1.8,1-5.8,14.5-6.2,14.6
				c-0.4,0.1-6.4-0.8-6.4-0.8s1.7,0.6,1.8,2c0.2,1.4-0.4,2.9-2.9,3.3c2,0.4,9.8,1.6,10.8,0.7c1-0.9,3-6,3-6s0.5,11.7-0.7,17.2
				c1.5,1.4,6,6.8,7.5-0.4c1-5.1,1.3-9.1,1.3-12c-0.1-4.8-5.5-13.1-5.5-13.1L95.6,34.9z"/>
			<path class="st17" d="M101.4,30.9c-0.9-0.2-2.3-0.4-3.9-0.5c-1.4,0.4-2.9,1.2-4.4,2.9c2.1,1.4,2.5,1.6,2.5,1.6l-2.5,1.2
				c0,0,5.4,8.2,5.5,13.1c0-1.2,0-2.2,0-3c-0.1-2.9-5.3-15.8,2.8-15.1c0.3,0,0.5,0.1,0.8,0.1C102,31.1,101.7,31,101.4,30.9"/>
			<path class="st13" d="M97.7,62.9c-1.2,7.5,13.6,4.2,13.6,4.2c0-0.4,0-0.7,0-1C108.9,61,97.8,62.2,97.7,62.9"/>
			<path class="st12" d="M118.8,52.4c0-2.1,1.4-2.9,1.9-3.1c-0.6,0.2-2,0.6-2.7,0.9c-0.5-0.5-4.5-11.5-5.6-13.5
				c-0.5-1-3.2-2.4-5.7-3.5c0.8,1.2,1.5,2.8,1.4,4.6c-1.9,0.1-2.4,0.3-2.4,0.3l1.3,1.8c0,0-7,5.8-8.3,9c0,0.2-0.1,0.3-0.1,0.5
				c-0.1,7-1.3,12-1.4,12.7c-1.2,7.5,15,3.9,15,3.9c-1.3-6.4-1-17.8-1-17.8s2.9,8.5,4.8,8.5c1.6,0.2,4.6-1.4,7.3-2.4
				C122.1,54.5,118.9,54.8,118.8,52.4"/>
			<path class="st13" d="M106.9,33.4c-0.8-1.2-1.6-0.1-1.5,0.5c1.9,6.8-5.3,10-6.6,14.8c1.6-3.2,8.4-8.7,8.4-8.7l-1.3-1.8
				c0,0,0.5-0.2,2.4-0.3C108.3,36.2,107.7,34.6,106.9,33.4"/>
			<path class="st17" d="M106.8,33.1c-0.8-1.2-1.7-2.1-2.1-2.5c0,0.5,0,1.2,0.1,1.8c1.9,6.8-5,11.4-6,16.3c1.3-3.2,8.3-9,8.3-9
				l-1.3-1.8c0,0,0.5-0.2,2.4-0.3C108.3,35.9,107.6,34.3,106.8,33.1"/>
			<path class="st13" d="M99.3,51.8c0.1,0.2,0,0.5-0.2,0.6s-0.5,0-0.6-0.2s0-0.5,0.2-0.6C98.9,51.4,99.1,51.5,99.3,51.8"/>
			<path class="st13" d="M98.9,55.7c0.1,0.2,0,0.5-0.2,0.6s-0.5,0-0.6-0.2s0-0.5,0.2-0.6S98.8,55.5,98.9,55.7"/>
			<path class="st17" d="M99.1,51.6c0.1,0.2,0,0.5-0.2,0.6s-0.5,0-0.6-0.2s0-0.5,0.2-0.6S99,51.4,99.1,51.6"/>
			<path class="st17" d="M98.8,55.6c0.1,0.2,0,0.5-0.2,0.6s-0.5,0-0.6-0.2s0-0.5,0.2-0.6C98.4,55.2,98.7,55.3,98.8,55.6"/>
			<path class="st14" d="M79,47c0,1.3-1,2.3-2.2,2.3s-2.2-1-2.2-2.3s1-2.3,2.2-2.3C78,44.8,79,45.8,79,47"/>
			<path class="st14" d="M125,51.5c0,1.3-1.1,2.3-2.4,2.3s-2.4-1-2.4-2.3s1.1-2.3,2.4-2.3S125,50.2,125,51.5"/>
			<path class="st18" d="M123.7,46c-0.2-0.6-0.8-1.1-1.4-1s-0.9,0.4-0.4,1s0.9,1.8,0.7,2.4c-0.2,0.6-0.7,1.4-0.9,1.7
				c-0.1,0.3-0.5,2.6,1.8,3.2c1.2,0.1,3.6-0.7,5.1-3.2c0.6-0.9,1.3-2.9,0-2.8c0.2-0.3,0.8-1.3,0-1.6c0.3-0.3,0.5-1.3-0.4-1.4
				c-0.1-0.5,0.3-1.1,0.5-1.4c0.2-0.3,1-1.2,0-1.4s-2.2,2.8-2.2,2.8L123.7,46z"/>
			<path class="st16" d="M122.9,48.3c0,0-0.1,1.1-0.4,1.6c-0.3,0.4,0.3,1.8,2.6,1.3c2.3-0.5,2.6-2.9,2.6-2.9L122.9,48.3z"/>
			<path class="st19" d="M127.1,50h-3.5c-0.5,0-0.9-0.4-0.9-0.9v-8.5c0-0.5,0.4-0.9,0.9-0.9h3.5c0.5,0,0.9,0.4,0.9,0.9v8.5
				C128,49.6,127.6,50,127.1,50"/>
			<path class="st20" d="M127.4,49.8h-4c-0.3,0-0.5-0.2-0.5-0.5v-8.8c0-0.3,0.2-0.5,0.5-0.5h4c0.3,0,0.5,0.2,0.5,0.5v8.8
				C127.9,49.6,127.7,49.8,127.4,49.8"/>
			<rect x="123" y="41" class="st4" width="4.7" height="7.7"/>
			<path class="st21" d="M125.8,49.2c0,0.2-0.2,0.4-0.4,0.4c-0.2,0-0.4-0.2-0.4-0.4s0.2-0.4,0.4-0.4C125.6,48.8,125.8,49,125.8,49.2
				"/>
			<path class="st4" d="M125.7,49.2c0,0.2-0.2,0.4-0.4,0.4c-0.2,0-0.4-0.2-0.4-0.4s0.2-0.4,0.4-0.4C125.6,48.8,125.7,49,125.7,49.2"
				/>
			<path class="st4" d="M125.9,40.7h-1.1c-0.1,0-0.1-0.1-0.1-0.1c0-0.1,0.1-0.1,0.1-0.1h1.1C126,40.5,126,40.6,125.9,40.7
				C126.1,40.7,126,40.7,125.9,40.7"/>
			<path class="st4" d="M126.9,40.4c0,0.1-0.1,0.2-0.2,0.2s-0.2-0.1-0.2-0.2c0-0.1,0.1-0.2,0.2-0.2S126.9,40.3,126.9,40.4"/>
			<path class="st18" d="M77.4,47.2c0.2-0.9-0.3-2.2-1.1-2.6c-0.8-0.4-2.1-2.1-2.3-2.5c-0.2-0.4-0.9-0.3-0.8,0.4s0.6,1.6,0.6,1.6
				s-1.1,0.1-2.9-0.3c-1.7-0.4-2.9-1-4.2-0.8c-0.5,0.1-1.5,0.6-1.4,1.1s1.6,0.8,2,1c0.4,0.3,1.6,1.1,2.1,1.8s2.5,2.2,6.6,1.8
				C76.7,48.3,77.2,47.8,77.4,47.2"/>
			<path class="st18" d="M97,19.6c0,0-0.9,2.5-0.6,4c0.2,0.6-0.5,1.2-0.4,2.1s0.1,1.9,0.1,1.9l0.2,2.6l1.9,1.6l5.9-2.9l0.8,0.4
				l0.6-1.3c0,0,0.4-0.2,0.7-0.5c0.3-0.3,1.1-1.5,1.1-1.5l0.9-3.7l-3.6-5.1L97,19.6z"/>
			<path class="st22" d="M96.2,30.2c0,1.2,1.3,2.2,2,2.1c2.8-0.3,6.9-2.4,6.6-3.2c-0.3-0.8-0.3-3.5-0.3-3.5c0-0.6,1-1.5,1.9-1.1
				s0.6,1.9-0.3,3c5.1-3.5,2.7-9.2,2.7-9.2l-7.2-1.2c0,0-0.6,2.3,1.8,2.6c2.3-0.1,0.6,2.6,0.6,2.6s0,0.1,0.1,1.1
				c0.7,0.3-0.2,2.1-0.8,3.8c-0.6,2.3-2.5,2.8-3.1,2.9c-1.5-3-4.1-2.5-4.1-2.5S96.3,29,96.2,30.2 M96.4,28.4c0,0,2-0.1,2.4,2.1
				C98.1,30.7,95.9,30.6,96.4,28.4"/>
			<path class="st23" d="M108.9,18.4c0,0-0.8-4-5.6-3.6c-4.7,0.4-4.5,1.9-6.5,1.4c-0.8,1.3-1.1,5,2.6,4.9c3.8-0.1,4.7-2.2,6.5-2.4
				C107.5,18.1,108.9,18.4,108.9,18.4"/>
		</g>
	</g>
</g>
</svg>
