<?xml version="1.0" encoding="utf-8"?>
<!-- Generator: Adobe Illustrator 22.1.0, SVG Export Plug-In . SVG Version: 6.00 Build 0)  -->
<svg version="1.1" id="Layer_1" xmlns="http://www.w3.org/2000/svg" xmlns:xlink="http://www.w3.org/1999/xlink" x="0px" y="0px"
	 viewBox="0 0 170 170" style="enable-background:new 0 0 170 170;" xml:space="preserve">
<style type="text/css">
	.st0{fill:#3FD7D7;}
	.st1{fill:#06199B;}
	.st2{fill:#080245;}
	.st3{fill:#D3DAE7;}
	.st4{fill:#FFFFFF;}
	.st5{fill:#2B2F90;}
	.st6{fill:#F5F5F5;}
	.st7{fill:#9C73FF;}
	.st8{fill:#39EAFD;}
	.st9{fill:#FF4F98;}
	.st10{fill:none;}
	.st11{fill:#520D9C;}
	.st12{fill:#0D0735;}
	.st13{fill:#5AB700;}
	.st14{fill:#B4EE73;}
</style>
<g>
	<path class="st0" d="M159.2,126.5c-14.5,26-42.3,43.5-74.2,43.5c-46.9,0-85-38.1-85-85C0,46.5,25.7,13.9,60.8,3.5
		C53.9,15.8,50,29.9,50,45c0,46.9,38.1,85,85,85C143.4,130,151.5,128.8,159.2,126.5z"/>
	<path class="st1" d="M170,85c0,15.1-3.9,29.2-10.8,41.5c-7.7,2.3-15.8,3.5-24.2,3.5c-46.9,0-85-38.1-85-85
		c0-15.1,3.9-29.2,10.8-41.5C68.5,1.2,76.6,0,85,0C131.9,0,170,38.1,170,85z"/>
	<path class="st2" d="M103.4,148.2c-22.4,1.1-32.5-8.2-29.6-19c3.1-8.4,1.6-14.7-4.4-18.6c-9.1-6-17.2-9-38.1-12.3
		C10.5,94.9,19.8,83,32.9,78.2s49-12,78.1-0.8s37.5,21.7,35.7,37.3S125.9,147.2,103.4,148.2z"/>
	<g>
		<path class="st3" d="M103.4,140.2c-22.4,1.1-32.5-8.2-29.6-19c3.1-8.4,1.6-14.7-4.4-18.6c-9.1-6-17.2-9-38.1-12.3
			C10.5,86.9,19.8,75,32.9,70.1s49-12,78.1-0.8s37.5,21.7,35.7,37.3C144.9,122.3,125.9,139.2,103.4,140.2z"/>
		<path class="st4" d="M103.4,139.2c-22.4,1.1-32.5-8.2-29.6-19c3.1-8.4,1.6-14.7-4.4-18.6c-9.1-6-17.2-9-38.1-12.3
			C10.5,85.9,19.8,74,32.9,69.1s49-12,78.1-0.8s37.5,21.7,35.7,37.3C144.9,121.3,125.9,138.2,103.4,139.2z"/>
		<path class="st5" d="M111.1,85.9v-2.4L109,84L90.9,73.5c-1.2-0.7-3.3-0.6-4.7,0.2L44.4,97.9l-4.1,0.9v2.3l0,0
			c0,0.4,0.3,0.9,0.8,1.2l19.4,11.2c1.2,0.7,3.3,0.6,4.7-0.2L110,87.5C110.7,87,111.1,86.5,111.1,85.9L111.1,85.9z"/>
		<path class="st6" d="M60.5,111.1L41.1,99.9c-1.2-0.7-1-1.9,0.3-2.7l44.8-25.9c1.4-0.8,3.5-0.9,4.7-0.2l19.4,11.2
			c1.2,0.7,1,1.9-0.3,2.7l-44.8,25.9C63.8,111.7,61.7,111.8,60.5,111.1"/>
		<polygon class="st7" points="66.6,108.8 45.1,96.4 84.8,73.5 106.3,85.9 		"/>
		<path class="st8" d="M55.2,103c-0.9-0.5-2.5-0.5-3.5,0.1c-1.1,0.6-1.2,1.5-0.3,2s2.5,0.5,3.5-0.1C56,104.4,56.1,103.5,55.2,103z
			 M54.7,104.9c-0.9,0.5-2.3,0.6-3.1,0.1s-0.7-1.2,0.2-1.8c0.9-0.5,2.3-0.6,3.1-0.1S55.6,104.4,54.7,104.9z"/>
		<path class="st8" d="M95.6,77L95.6,77c0.1,0,0.1-0.1,0.2-0.1s0.3,0,0.3,0.1l4.5,2.6l0.1,0.1c0-0.1,0-0.2-0.1-0.3l-4.5-2.6
			c-0.1-0.1-0.2-0.1-0.3-0.1c-0.1,0-0.1,0-0.2,0.1l0,0c-0.2,0.1-0.2,0.2-0.2,0.3C95.4,77,95.5,77,95.6,77"/>
		<path class="st9" d="M95.5,77.2l4.5,2.6c0.1,0.1,0.2,0.1,0.3,0.1c0.1,0,0.1,0,0.2-0.1l0,0c0.1,0,0.1-0.1,0.2-0.2l-0.1-0.1
			l-4.5-2.6c-0.1-0.1-0.2-0.1-0.3-0.1c-0.1,0-0.1,0-0.2,0.1l0,0C95.5,76.9,95.5,77,95.5,77.2L95.5,77.2"/>
		<path class="st8" d="M99.1,77.5c0.1,0,0.1-0.1,0.2-0.1s0.2,0,0.3,0.1l0.1,0.1c0-0.1,0-0.2-0.1-0.3c-0.1-0.1-0.2-0.1-0.3-0.1
			c-0.1,0-0.1,0-0.2,0.1c-0.2,0.1-0.2,0.2-0.2,0.3C99,77.6,99.1,77.5,99.1,77.5"/>
		<path class="st9" d="M99.1,77.7c0.1,0.1,0.2,0.1,0.3,0.1c0.1,0,0.1,0,0.2-0.1c0.1,0,0.1-0.1,0.2-0.1l-0.1-0.1
			c-0.1-0.1-0.2-0.1-0.3-0.1c-0.1,0-0.1,0-0.2,0.1C99.1,77.5,99.1,77.6,99.1,77.7C99,77.7,99,77.7,99.1,77.7"/>
		<path class="st8" d="M93.5,75.7c0.1-0.1,0.3-0.1,0.4-0.2c0.3,0,0.5,0,0.7,0.1c0.1,0.1,0.2,0.2,0.2,0.2c0-0.2,0-0.3-0.2-0.4
			s-0.4-0.1-0.7-0.1c-0.1,0-0.3,0.1-0.4,0.2c-0.3,0.1-0.4,0.3-0.3,0.5C93.2,75.9,93.3,75.8,93.5,75.7"/>
		<path class="st9" d="M93.4,76.3c0.2,0.1,0.4,0.1,0.7,0.1c0.1,0,0.3-0.1,0.4-0.2c0.2-0.1,0.3-0.2,0.3-0.3c0-0.1-0.1-0.2-0.2-0.2
			c-0.2-0.1-0.4-0.1-0.7-0.1c-0.1,0-0.3,0.1-0.4,0.2c-0.2,0.1-0.3,0.2-0.3,0.3C93.2,76.2,93.2,76.2,93.4,76.3"/>
		<rect x="58" y="16.6" class="st10" width="35.2" height="84.1"/>
		<polygon class="st11" points="92.2,19.7 93.1,17.4 92.2,16.9 58.2,36.5 58.2,100.2 59.2,100.7 59.8,99.3 92.2,80.6 		"/>
		<polygon class="st6" points="93.1,81.1 59.2,100.7 59.2,37 93.1,17.4 		"/>
		<polygon class="st11" points="89.8,42.2 62.5,58 62.5,56.2 89.8,40.5 		"/>
		<polygon class="st11" points="89.8,45.9 62.5,61.7 62.5,60 89.8,44.2 		"/>
		<polygon class="st11" points="89.8,62.1 76.2,70 76.2,68.2 89.8,60.3 		"/>
		<polygon class="st11" points="89.8,65.8 76.2,73.7 76.2,71.9 89.8,64 		"/>
		<polygon class="st11" points="89.8,38.5 62.5,54.3 62.5,52.5 89.8,36.7 		"/>
		<polygon class="st11" points="89.8,34.8 62.5,50.6 62.5,48.8 89.8,33 		"/>
		<g>
			<g>
				<path class="st12" d="M79.7,80.3c-0.1,0-0.1,0-0.2,0c-0.2,0-0.4-0.2-0.5-0.4c-0.2-0.5,0.2-1.3,1-2.6c0.3-0.6,0.9-1.6,1-2
					c-0.8,0-1.6,1.5-1.8,2L78.3,77c0.1-0.3,1.1-2.9,3-2.7c0.4,0.1,0.6,0.3,0.7,0.5c0.3,0.6-0.2,1.6-1.1,3.1c-0.3,0.4-0.6,1-0.8,1.4
					c0.4-0.3,1-1.2,1.3-2l0.9,0.4c0.1-0.3,0.2-0.6,0.3-0.8c0-0.2,0.1-0.4,0.1-0.6l1,0.2c0,0,0,0.1,0,0.3c0.5-0.6,0.9-1.1,2.1-1.3
					c0.9-0.1,1.1-0.4,1.1-0.4s0,0,0,0.1l1,0.2c-0.1,0.3-0.4,0.8-1.9,1c-0.9,0.1-1.1,0.4-1.5,1c-0.2,0.2-0.3,0.4-0.5,0.6
					c-0.3,0.3-0.6,0.4-0.8,0.3c-0.2,0.3-0.4,0.6-0.7,0.8c-0.4,0.3-0.8,0.3-1,0.2C80.9,79.7,80.3,80.3,79.7,80.3z"/>
			</g>
		</g>
		<path class="st9" d="M121.9,55.2c-0.3-0.5-0.8-0.9-1.2-0.9l-1,0.6c0,0,0,0.1-0.1,0.2c0.4,0.1,0.8,0.4,1.1,0.9
			c0.3,0.5,0.3,1,0.2,1.4c0.1,0,0.1,0,0.2,0l1-0.6C122.3,56.3,122.2,55.7,121.9,55.2"/>
		<path class="st12" d="M124.5,52.6l-0.6,0.4l-0.8,0.5c0.3,0,0.6,0.2,0.8,0.6c0.2,0.3,0.2,0.7,0.1,1l0.8-0.5l0.6-0.4
			c0.1-0.3,0.1-0.6-0.1-1C125.1,52.9,124.8,52.7,124.5,52.6"/>
		<path class="st8" d="M119.4,55l-1,0.6L96.2,68.4c0.5,0.1,0.9,0.4,1.2,0.9c0.3,0.5,0.4,1.1,0.2,1.5L119.8,58l1-0.6
			c0,0,0-0.1,0.1-0.2c0.1-0.4,0-0.9-0.2-1.4c-0.3-0.5-0.7-0.8-1.1-0.9C119.5,55,119.5,55,119.4,55"/>
		<path class="st9" d="M96.2,68.4l-1,0.6l-4.7,2.7c0.5,0.1,0.9,0.4,1.2,0.9c0.3,0.5,0.4,1.1,0.2,1.5l4.7-2.7l1-0.6
			c0.2-0.4,0.1-1-0.2-1.5S96.6,68.4,96.2,68.4"/>
		<path class="st9" d="M122.9,52.9l-1,0.6l-1.3,0.7c0.5,0.1,0.9,0.4,1.2,0.9c0.3,0.5,0.4,1.1,0.2,1.5l1.3-0.7l1-0.6
			c0.2-0.4,0.1-1-0.2-1.5C123.9,53.3,123.4,53,122.9,52.9"/>
		<path class="st12" d="M90.5,71.7l-1.1,1.1L87.3,75l0,0c0,0.1,0,0.1,0,0.2s0.1,0.1,0.2,0.1l0,0l2.9-0.7l1.6-0.4
			c0.2-0.4,0.1-1-0.2-1.5C91.4,72.1,91,71.7,90.5,71.7"/>
		<path class="st13" d="M56.1,89.8L56.1,89.8L56.1,89.8L56.1,89.8l1.1,0.7l0.2,0.1c1.2,0.6,2.7,0.5,4.4-0.5c3.5-2,6.4-7,6.4-11
			c0-2-0.7-3.4-1.9-4.1h-0.1l-1.1-0.6c-1.2-0.7-2.8-0.6-4.6,0.4c-3.5,2-6.4,7-6.4,11C54.2,87.7,54.9,89.1,56.1,89.8"/>
		<path class="st14" d="M57,80.8C57,80.8,57,80.9,57,80.8c-1,1.9-1.5,3.8-1.5,5.6c0,4.1,2.9,5.7,6.4,3.6c3.5-2,6.4-7,6.4-11
			c0-4.1-2.9-5.7-6.4-3.6c-1.2,0.7-2.3,1.7-3.3,2.9"/>
		<g>
			<path class="st4" d="M64.1,84.2c-0.3,0.7-0.6,1.4-1.1,2v0.6c0,0.2,0,0.5-0.1,0.7s-0.2,0.5-0.4,0.6c-0.2,0.2-0.3,0.2-0.4,0.2
				c-0.1,0-0.2-0.2-0.2-0.4v-0.5c-0.6,0.5-1.1,0.7-1.5,0.7c-0.1,0-0.2,0-0.2-0.1s-0.1-0.2-0.1-0.4c0-0.2,0-0.5,0.1-0.7
				c0.1-0.3,0.2-0.5,0.3-0.6s0.1-0.1,0.2-0.1c0.1,0,0.1-0.1,0.2-0.1c0.2,0,0.5-0.1,0.7-0.3c0.2-0.1,0.4-0.3,0.6-0.5
				c0.3-0.3,0.5-0.6,0.6-0.8c0.1-0.3,0.2-0.6,0.2-0.8c0-0.2-0.1-0.3-0.1-0.3c-0.1,0-0.2,0-0.3,0.1s-0.3,0.2-0.6,0.3
				c-0.4,0.2-0.7,0.4-1,0.5s-0.5,0.1-0.7-0.1c-0.2-0.1-0.3-0.5-0.3-1c0-0.6,0.1-1.3,0.4-2c0.3-0.7,0.6-1.4,1.1-2.1v-0.6
				c0-0.2,0-0.5,0.1-0.7c0.1-0.3,0.2-0.5,0.4-0.6c0.2-0.2,0.3-0.2,0.4-0.2c0.1,0,0.2,0.2,0.2,0.4v0.5c0.4-0.3,0.9-0.5,1.3-0.5
				c0.1,0,0.2,0,0.2,0.1s0.1,0.2,0.1,0.4c0,0.2,0,0.5-0.1,0.7c-0.1,0.3-0.2,0.5-0.3,0.6s-0.1,0.1-0.2,0.1c-0.1,0-0.1,0.1-0.3,0.1
				c0,0-0.1,0-0.2,0.1s-0.3,0.1-0.4,0.2s-0.3,0.2-0.5,0.4c-0.2,0.2-0.4,0.5-0.6,0.8c-0.1,0.3-0.2,0.6-0.2,0.8c0,0.2,0.1,0.3,0.3,0.3
				s0.4-0.2,0.8-0.4c0.4-0.3,0.7-0.4,1-0.5s0.5-0.1,0.7,0.1c0.2,0.1,0.3,0.5,0.3,1C64.5,82.8,64.4,83.4,64.1,84.2z"/>
		</g>
	</g>
</g>
</svg>
