<?xml version="1.0" encoding="utf-8"?>
<!-- Generator: Adobe Illustrator 22.1.0, SVG Export Plug-In . SVG Version: 6.00 Build 0)  -->
<svg version="1.1" id="Layer_1" xmlns="http://www.w3.org/2000/svg" xmlns:xlink="http://www.w3.org/1999/xlink" x="0px" y="0px"
	 viewBox="0 0 195.5 36" style="enable-background:new 0 0 195.5 36;" xml:space="preserve">
<style type="text/css">
	.st0{fill:#C4C4C4;}
</style>
<path class="st0" d="M50.5,11.5c0,0.7-0.4,1-1.1,1h-1.5v13.6c0,0.7-0.4,1.1-1.2,1.1c-0.7,0-1.1-0.4-1.1-1.1V12.5h-1.5
	c-0.7,0-1.1-0.3-1.1-1c0-0.7,0.3-1,1-1h1.6V5.9c0-0.7,0.4-1.1,1.1-1.1c0.8,0,1.1,0.4,1.1,1.1v4.6h1.5C50.1,10.5,50.5,10.8,50.5,11.5
	z M63.4,11.4c-1.1-1-2.4-1.5-4-1.5c-1.9,0-3.5,0.8-4.6,2.3V6c0-0.8-0.4-1.2-1.1-1.2c-0.7,0-1.1,0.4-1.1,1.2v20.2
	c0,0.8,0.4,1.1,1.1,1.1c0.7,0,1.1-0.4,1.1-1.1v-9.5c0-1.5,0.4-2.6,1.3-3.5c0.8-0.8,1.7-1.1,2.8-1.1c1.1,0,2,0.4,2.8,1.1
	c0.8,0.8,1.3,2,1.3,3.5v9.5c0,0.7,0.4,1.1,1.1,1.1c0.7,0,1.1-0.4,1.1-1.1V15.7C65.2,13.9,64.6,12.5,63.4,11.4z M81,19.9h-11
	c0,1.4,0.5,2.8,1.6,4c1.1,1.2,2.3,1.8,3.7,1.8c0.8,0,1.6-0.2,2.4-0.7c0.4-0.2,1-0.6,1.7-1.2c0.5-0.4,0.9-0.7,1.2-0.7
	c0.3,0,0.6,0.1,0.8,0.4c0.2,0.2,0.3,0.5,0.3,0.8c0,0.2-0.1,0.4-0.2,0.6c-1.4,1.8-3.5,2.7-6.2,2.7c-2.5,0-4.4-0.9-5.9-2.8
	c-1.3-1.6-1.9-3.7-1.9-6.1c0-2.4,0.6-4.4,1.9-6.1c1.3-1.9,3.2-2.8,5.4-2.8c2.2,0,3.9,0.7,5.1,2c1.2,1.4,1.9,3.2,1.9,5.5
	C81.8,19.1,81.6,19.9,81,19.9z M79.6,17.6c0-1.8-0.5-3.2-1.5-4.2c-0.9-0.9-1.9-1.4-3.2-1.4c-1.3,0-2.4,0.5-3.3,1.4
	c-1,1-1.5,2.4-1.5,4.2H79.6z M104.2,11.3c-1.1-0.9-2.4-1.4-3.9-1.4c-2.3,0-4.1,1-5.3,2.9c-1-1.9-2.6-2.9-4.6-2.9
	c-1.8,0-3.3,0.8-4.4,2.4v-1.1c0-0.9-0.3-1.3-1.1-1.3c-0.7,0-1.1,0.4-1.1,1.3v14.9c0,0.7,0.4,1.1,1.1,1.1c0.7,0,1.1-0.4,1.1-1.1v-9.1
	c0-1.4,0.4-2.6,1.3-3.5c0.8-0.8,1.8-1.2,2.9-1.2c1,0,1.8,0.3,2.5,1c0.7,0.7,1.1,1.7,1.1,3v9.9c0,0.7,0.4,1.1,1.1,1.1
	c0.7,0,1.1-0.4,1.1-1.1V17c0-1.5,0.5-2.6,1.4-3.5c0.8-0.8,1.8-1.2,2.9-1.2c1,0,1.8,0.3,2.4,1c0.7,0.7,1.1,1.7,1.1,3v9.9
	c0,0.7,0.4,1.1,1.1,1.1c0.7,0,1.1-0.4,1.1-1.1V15.2C105.9,13.6,105.4,12.3,104.2,11.3z M121.8,19.9h-11c0,1.4,0.5,2.8,1.6,4
	c1.1,1.2,2.3,1.8,3.7,1.8c0.8,0,1.6-0.2,2.4-0.7c0.4-0.2,0.9-0.6,1.7-1.2c0.5-0.4,0.9-0.7,1.2-0.7c0.3,0,0.6,0.1,0.8,0.4
	c0.2,0.2,0.3,0.5,0.3,0.8c0,0.2-0.1,0.4-0.2,0.6c-1.4,1.8-3.5,2.7-6.2,2.7c-2.5,0-4.4-0.9-5.9-2.8c-1.3-1.6-1.9-3.7-1.9-6.1
	c0-2.4,0.6-4.4,1.9-6.1c1.4-1.9,3.2-2.8,5.4-2.8c2.2,0,3.9,0.7,5.1,2c1.3,1.4,1.9,3.2,1.9,5.5C122.6,19.1,122.3,19.9,121.8,19.9z
	 M120.3,17.6c0-1.8-0.5-3.2-1.5-4.2c-0.9-0.9-1.9-1.4-3.2-1.4c-1.3,0-2.4,0.5-3.3,1.4c-1,1-1.5,2.4-1.5,4.2H120.3z M130.6,4.8h-2
	c-1.6,0-2.4,0.9-2.4,2.8v2.9h-1.4c-0.8,0-1.2,0.4-1.2,1.2c0,0.7,0.4,1.1,1.2,1.1h1.4v13.4c0,0.8,0.4,1.1,1.1,1.1
	c0.7,0,1.1-0.4,1.1-1.1V12.7h1.9c0.9,0,1.3-0.4,1.3-1.1c0-0.7-0.4-1.1-1.2-1.1h-1.9V8.4c0-0.8,0.2-1.2,0.5-1.4
	c0.2-0.1,0.7-0.1,1.7-0.1c0.9,0,1.3-0.3,1.3-1C131.9,5.1,131.5,4.8,130.6,4.8z M145.3,12.7c1.2,1.7,1.8,3.8,1.8,6.2
	c0,2.4-0.6,4.3-1.8,6c-1.3,1.8-3.2,2.7-5.5,2.7c-2.3,0-4.2-0.9-5.5-2.8c-1.2-1.7-1.8-3.7-1.8-6.1c0-2.4,0.6-4.4,1.8-6.1
	c1.3-1.8,3.2-2.8,5.5-2.8C142.1,9.9,143.9,10.8,145.3,12.7z M144.6,19.1c0-1.9-0.4-3.5-1.3-4.9c-0.9-1.5-2.1-2.3-3.5-2.3
	c-1.5,0-2.8,0.7-3.6,2.1c-0.8,1.2-1.1,2.7-1.1,4.5c0,1.9,0.4,3.5,1.2,4.9c0.9,1.5,2.1,2.2,3.6,2.2c1.5,0,2.7-0.7,3.6-2
	C144.2,22.4,144.6,20.9,144.6,19.1z M155.5,9.9c-1.2,0-2.5,1.1-3.9,3.4v-2.1c0-0.8-0.4-1.2-1.1-1.2c-0.7,0-1.1,0.4-1.1,1.3v14.9
	c0,0.7,0.4,1.1,1.1,1.1c0.7,0,1.1-0.4,1.1-1.1v-7.9c0-1.8,0.5-3.1,1.5-4c0.5-0.4,1.3-0.9,2.6-1.4c1-0.4,1.5-0.8,1.5-1.3
	c0-0.5-0.2-0.8-0.5-1.1C156.4,10,156,9.9,155.5,9.9z M170.9,19.9h-11c0,1.4,0.5,2.8,1.6,4c1.1,1.2,2.3,1.8,3.7,1.8
	c0.8,0,1.6-0.2,2.4-0.7c0.4-0.2,0.9-0.6,1.7-1.2c0.5-0.4,0.9-0.7,1.2-0.7c0.3,0,0.6,0.1,0.8,0.4c0.2,0.2,0.3,0.5,0.3,0.8
	c0,0.2-0.1,0.4-0.2,0.6c-1.4,1.8-3.5,2.7-6.2,2.7c-2.5,0-4.4-0.9-5.9-2.8c-1.3-1.6-1.9-3.7-1.9-6.1c0-2.4,0.6-4.4,1.9-6.1
	c1.3-1.9,3.2-2.8,5.4-2.8c2.2,0,3.9,0.7,5.1,2c1.3,1.4,1.9,3.2,1.9,5.5C171.7,19.1,171.4,19.9,170.9,19.9z M169.4,17.6
	c0-1.8-0.5-3.2-1.5-4.2c-0.9-0.9-1.9-1.4-3.2-1.4c-1.3,0-2.4,0.5-3.3,1.4c-1,1-1.5,2.4-1.5,4.2H169.4z M183.5,18.6
	c-0.5-0.3-2-1-4.5-2.2c-1.6-0.8-2.5-1.4-2.5-2.1c0-1.4,0.8-2.2,2.3-2.2c1.6,0,3.3,0.5,4.9,1.6c0.2,0.1,0.5,0.2,0.7,0.2
	c0.6,0,1-0.4,1-1.2c0-0.4-0.2-0.8-0.5-1.1c-1.4-1.2-3.2-1.8-5.4-1.8c-1.6,0-2.8,0.4-3.8,1.1c-1.1,0.8-1.7,2-1.7,3.6
	c0,1.4,0.8,2.6,2.4,3.5c1.5,0.7,3,1.4,4.5,2.1c1.6,0.8,2.4,1.6,2.4,2.5c0,1.8-1,2.7-2.9,2.7c-0.9,0-1.9-0.2-2.9-0.6
	c-1-0.4-1.7-0.9-2.1-1.4c-0.2-0.3-0.5-0.5-0.8-0.5c-0.3,0-0.5,0.1-0.7,0.4c-0.2,0.3-0.3,0.6-0.3,1c0,0.4,0.1,0.7,0.3,0.9
	c1.4,1.6,3.3,2.4,5.9,2.4c1.7,0,3.1-0.4,4.3-1.3c1.3-0.9,1.9-2.2,1.9-3.9C186,21,185.1,19.7,183.5,18.6z M194.3,10.5h-1.5V5.9
	c0-0.7-0.4-1.1-1.1-1.1c-0.8,0-1.1,0.4-1.1,1.1v4.6H189c-0.7,0-1,0.3-1,1c0,0.7,0.4,1,1.1,1h1.5v13.6c0,0.7,0.4,1.1,1.1,1.1
	c0.8,0,1.2-0.4,1.2-1.1V12.5h1.5c0.7,0,1.1-0.3,1.1-1C195.5,10.8,195.1,10.5,194.3,10.5z M41.1,20.4c0.1,0.4,0.1,0.8-0.1,1.1
	c-0.3,0.7-1.2,1.1-1.9,1.4c-0.1,0.3-0.3,0.5-0.4,0.7c-0.1,0.1-0.1,0.1-0.1,0.2c0.6,0.2,1.1,0.5,1.3,1c0.1,0.3,0.1,0.6,0,0.9
	c-0.3,0.6-1.1,1-1.6,1.2c0,0.1-0.1,0.2-0.2,0.2c0,0.2,0,0.3,0,0.5c0.2,0.1,0.4,0.3,0.5,0.6c0.1,0.2,0.1,0.5,0,0.8
	c-0.2,0.3-0.5,0.6-0.9,0.8c-0.1,0.2-0.2,0.3-0.3,0.5c0.2,0.1,0.3,0.3,0.4,0.5c0.1,0.2,0.1,0.5,0,0.8c-0.2,0.5-0.8,0.7-1.2,0.9
	c-1,1.1-2.7,1.8-5.7,2.3l-0.9,0.2c-2.5,0.4-6.2,1.1-9.8,1.1c-4.7,0-8.1-1.2-10.1-3.6c-0.2-0.2-0.3-0.4-0.5-0.7H2.2
	c-1.2,0-2.2-1-2.2-2.2V2.2C0,1,1,0,2.2,0h27.4c1.2,0,2.2,1,2.2,2.2l0,15.6c0.9-0.1,1.9-0.1,2.6-0.1c1.9,0,3.2,0.4,3.9,1.2
	c0,0,0,0,0,0C39.3,19.1,40.7,19.4,41.1,20.4z M37.2,20.1c-0.8-0.8-4.6-1.1-8.1-0.7c-2.1,0.3-6.5,1-10.4,2.1c0,0,1.5-0.8,4.9-1.8
	l-3.8-0.6c1.7-0.5,4.8-0.1,6.1,0c1.2-0.3,2.6-0.5,4.1-0.8V5.9c-2.8,0-16.7,5.7-19.3,18.7c-2.6,13,14,9.4,20,8.4
	c5.2-0.9,5.5-2.4,5.5-2.8l-1.8,0l2.2-0.7c0.3-0.6,0.3-1.1,0.3-1.6l-2.8-0.3l2.7-0.4c0-0.1,0-0.1,0-0.1c1.3-1.3,1.1-2.7,0.9-3.5
	l-3.3-0.4l3.4-0.5C38.1,22.5,38.6,21.6,37.2,20.1z"/>
</svg>
