<?xml version="1.0" encoding="utf-8"?>
<!-- Generator: Adobe Illustrator 22.1.0, SVG Export Plug-In . SVG Version: 6.00 Build 0)  -->
<svg version="1.1" id="Layer_1" xmlns="http://www.w3.org/2000/svg" xmlns:xlink="http://www.w3.org/1999/xlink" x="0px" y="0px"
	 viewBox="0 0 200.7 36" style="enable-background:new 0 0 200.7 36;" xml:space="preserve">
<style type="text/css">
	.st0{fill:#C4C4C4;}
</style>
<path class="st0" d="M90.5,5.5c-0.8,0-1.2,0.4-1.2,1.2v6.9c-1.5-1.9-3.2-2.9-5.1-2.9c-2.2,0-4,1-5.4,2.9c-1.2,1.8-1.8,3.9-1.8,6.4
	c0,2.4,0.6,4.5,1.8,6.2c1.3,1.8,3.1,2.8,5.4,2.8c2.3,0,4-0.8,5.1-2.5v1.5c0,0.7,0.4,1.1,1.2,1.1c0.8,0,1.1-0.4,1.1-1.1V6.7
	C91.7,5.9,91.3,5.5,90.5,5.5z M88.2,24.6c-1,1.4-2.3,2.1-3.9,2.1c-1.5,0-2.7-0.7-3.5-2.1c-0.8-1.2-1.2-2.8-1.2-4.6
	c0-1.9,0.4-3.4,1.2-4.8c0.9-1.4,2-2.2,3.5-2.2c1.6,0,2.9,0.7,3.9,2.1c0.9,1.3,1.3,2.9,1.3,4.7C89.5,21.8,89.1,23.3,88.2,24.6z
	 M67.2,10.8c-2.4,0-4.3,0.9-5.7,2.8c-1.2,1.7-1.9,3.8-1.9,6.2c0,2.5,0.6,4.5,1.9,6.2c1.4,1.9,3.3,2.9,5.7,2.9c2.4,0,4.3-0.9,5.7-2.8
	c1.2-1.7,1.9-3.7,1.9-6.1c0-2.5-0.6-4.6-1.9-6.4C71.5,11.7,69.6,10.8,67.2,10.8z M70.9,24.8c-0.9,1.4-2.1,2.1-3.7,2.1
	c-1.5,0-2.7-0.8-3.6-2.3c-0.8-1.4-1.2-3.1-1.2-5c0-1.9,0.4-3.4,1.2-4.7c0.9-1.4,2.1-2.1,3.7-2.1c1.5,0,2.7,0.8,3.6,2.3
	c0.9,1.4,1.3,3.1,1.3,5.1C72.1,22.1,71.8,23.6,70.9,24.8z M51.1,15.4c-0.9,1.3-1.3,2.9-1.3,4.7c0,1.8,0.4,3.2,1.2,4.4
	c0.9,1.3,2.2,2,3.9,2c0.5,0,1.2-0.1,2-0.4c0.8-0.3,1.2-0.4,1.4-0.4c0.8,0,1.1,0.4,1.1,1.1c0,0.5-0.2,0.8-0.6,1.2c-0.8,0.7-2,1-3.5,1
	c-2.5,0-4.5-0.9-6-2.8c-1.3-1.7-2-3.7-2-6.2c0-2.5,0.7-4.6,2-6.3c1.4-1.9,3.4-2.9,5.9-2.9c0.5,0,1.2,0.1,1.9,0.3
	c0.8,0.2,1.5,0.5,1.9,0.9c0.4,0.3,0.5,0.6,0.5,1.1c0,0.3-0.1,0.6-0.4,0.9c-0.3,0.3-0.6,0.4-0.9,0.4c-0.2,0-0.6-0.2-1.2-0.5
	c-0.6-0.4-1.3-0.5-1.9-0.5C53.4,13.2,52.1,13.9,51.1,15.4z M136.9,10.6c-0.8,0-1.2,0.5-1.2,1.5v1.5c-0.4-0.8-1.1-1.5-2.1-2
	c-1-0.5-2-0.8-3-0.8c-2.2,0-4,1-5.3,3c-1.2,1.8-1.8,4-1.8,6.5c0,2.4,0.5,4.4,1.6,6c1.2,1.8,2.9,2.7,5.1,2.7c1.3,0,2.3-0.1,3.1-0.4
	c0.9-0.3,1.7-1,2.5-1.9c0,0.3,0,0.7,0,1.3c0,0.6,0.4,0.9,1.1,0.9c0.7,0,1.1-0.3,1.1-0.9V12.1C138.1,11.1,137.7,10.6,136.9,10.6z
	 M134.4,24.8c-1,1.5-2.2,2.2-3.8,2.2c-1.5,0-2.6-0.7-3.5-2.2c-0.8-1.3-1.1-2.9-1.1-4.8c0-1.9,0.4-3.5,1.1-4.8c0.9-1.4,2-2.1,3.5-2.1
	c1.6,0,2.9,0.7,3.8,2.1c0.8,1.3,1.3,2.8,1.3,4.7C135.7,21.8,135.3,23.4,134.4,24.8z M177.8,10.8c-2.4,0-4.3,0.9-5.7,2.8
	c-1.2,1.7-1.9,3.8-1.9,6.2c0,2.5,0.6,4.5,1.9,6.2c1.4,1.9,3.3,2.9,5.7,2.9c2.4,0,4.3-0.9,5.7-2.8c1.2-1.7,1.9-3.7,1.9-6.1
	c0-2.5-0.6-4.6-1.9-6.4C182,11.7,180.1,10.8,177.8,10.8z M181.4,24.8c-0.9,1.4-2.1,2.1-3.7,2.1c-1.5,0-2.7-0.8-3.7-2.3
	c-0.8-1.4-1.2-3.1-1.2-5c0-1.9,0.4-3.4,1.2-4.7c0.9-1.4,2.1-2.1,3.7-2.1c1.5,0,2.7,0.8,3.6,2.3c0.9,1.4,1.3,3.1,1.3,5.1
	C182.7,22.1,182.3,23.6,181.4,24.8z M169.2,12.5c0,0.2-0.1,0.4-0.2,0.7l-7.7,21.5c-0.2,0.7-0.7,1.1-1.3,1.1c-0.7,0-1.1-0.4-1.1-1.1
	c0-0.2,0-0.4,0.1-0.7l2.3-6.1l-5.2-14.5c-0.1-0.3-0.2-0.5-0.2-0.7c0-0.8,0.4-1.1,1.1-1.1c0.7,0,1.1,0.4,1.3,1.1l4,12.3l4.4-12.4
	c0.2-0.6,0.7-0.9,1.3-0.9C168.8,11.4,169.2,11.7,169.2,12.5z M200.7,16.8v10.7c0,0.8-0.4,1.1-1.2,1.1c-0.8,0-1.1-0.4-1.1-1.1V17
	c0-1.2-0.4-2.2-1.1-2.9c-0.7-0.6-1.6-1-2.6-1c-1.2,0-2.3,0.4-3.1,1.3c-1,1-1.5,2.2-1.5,3.9v9.2c0,0.8-0.4,1.1-1.2,1.1
	c-0.8,0-1.1-0.4-1.1-1.1V11.8c0-0.7,0.4-1.1,1.1-1.1c0.8,0,1.2,0.4,1.2,1.1c0,0.8,0,1.4,0,1.6c1.1-1.8,2.8-2.7,5-2.7
	c1.5,0,2.9,0.5,4,1.5C200.1,13.4,200.7,14.9,200.7,16.8z M108.9,18.5c0-2.4-0.6-4.3-1.9-5.7c-1.3-1.4-3-2.1-5.2-2.1
	c-2.3,0-4.2,1-5.6,2.9c-1.3,1.7-1.9,3.8-1.9,6.3c0,2.5,0.7,4.6,2,6.2c1.5,1.9,3.5,2.9,6.1,2.9c2.8,0,4.9-0.9,6.4-2.8
	c0.1-0.2,0.2-0.4,0.2-0.6c0-0.3-0.1-0.6-0.3-0.8c-0.2-0.2-0.5-0.4-0.8-0.4c-0.2,0-0.7,0.2-1.2,0.7c-0.8,0.6-1.3,1-1.7,1.2
	c-0.8,0.5-1.6,0.7-2.5,0.7c-1.4,0-2.7-0.6-3.8-1.9c-1.1-1.2-1.6-2.6-1.6-4.1h11.3C108.7,21,108.9,20.2,108.9,18.5z M96.9,18.7
	c0-1.8,0.6-3.2,1.6-4.3c0.9-1,2.1-1.4,3.4-1.4c1.3,0,2.4,0.5,3.3,1.4c1,1.1,1.5,2.5,1.5,4.3H96.9z M114.8,15.4
	c-0.9,1.3-1.3,2.9-1.3,4.7c0,1.8,0.4,3.2,1.2,4.4c0.9,1.3,2.2,2,3.9,2c0.5,0,1.2-0.1,2-0.4c0.8-0.3,1.2-0.4,1.4-0.4
	c0.8,0,1.1,0.4,1.1,1.1c0,0.5-0.2,0.8-0.6,1.2c-0.8,0.7-2,1-3.5,1c-2.5,0-4.5-0.9-6-2.8c-1.3-1.7-2-3.7-2-6.2c0-2.5,0.7-4.6,2-6.3
	c1.5-1.9,3.4-2.9,5.9-2.9c0.5,0,1.2,0.1,1.9,0.3c0.8,0.2,1.5,0.5,1.9,0.9c0.4,0.3,0.5,0.6,0.5,1.1c0,0.3-0.1,0.6-0.4,0.9
	c-0.2,0.3-0.6,0.4-0.9,0.4c-0.2,0-0.6-0.2-1.2-0.5c-0.6-0.4-1.3-0.5-1.9-0.5C117,13.2,115.7,13.9,114.8,15.4z M151.8,12.3
	c1.2,1.1,1.8,2.6,1.8,4.5v10.7c0,0.8-0.4,1.1-1.2,1.1c-0.8,0-1.1-0.4-1.1-1.1V17c0-1.2-0.4-2.2-1.1-2.9c-0.7-0.6-1.6-1-2.6-1
	c-1.2,0-2.3,0.4-3.1,1.3c-1,1-1.5,2.2-1.5,3.9v9.2c0,0.8-0.4,1.1-1.2,1.1c-0.8,0-1.1-0.4-1.1-1.1V11.8c0-0.7,0.4-1.1,1.1-1.1
	c0.8,0,1.2,0.4,1.2,1.1c0,0.8,0,1.4,0,1.6c1.1-1.8,2.8-2.7,5-2.7C149.4,10.8,150.7,11.3,151.8,12.3z M39.9,16.3
	c-1.1-1.1-2.4-2.1-3.7-2.9c-0.1-0.1-0.2-0.2-0.2-0.3c-0.2-0.9-0.1-1.9-0.1-2.8c0-1.9,0-3.8,0-5.7c0-1.4-1.1-2.5-2.5-2.6
	c-0.1,0-0.2,0-0.3,0c-4.8,0-9.5,0-14.3,0c-0.5,0-1-0.1-1.4-0.2c-1.7-0.4-3.3-0.9-5-1.5C12,0.2,11.5,0.1,11.1,0h-0.3
	c0,0.1,0,0.1,0.1,0.2c0.5,0.6,0.9,1.1,1.4,1.7c0,0,0.1,0.1,0.1,0.2h-0.2c-2.5,0-5,0-7.5,0C3.3,2.1,2.2,2.9,2,4.2c0,0.2,0,0.3,0,0.5
	c0,2.2,0,4.3,0,6.5c0,0.2,0,0.2-0.2,0.3c-0.2,0.1-0.4,0.2-0.6,0.3c0.2,0,0.5,0,0.8-0.1v0.2c0,0.8,0,1.6,0,2.4c0,0.1,0,0.2-0.1,0.3
	c-0.4,0.2-0.7,0.5-1,0.7c-0.3,0.2-0.5,0.4-0.8,0.6v0.1c0.6,0.1,1.2,0.2,1.7,0.3c0.2,0,0.2,0.1,0.2,0.3c0,3.1,0,6.1,0,9.2
	c0,2.4,0,4.9,0,7.4c0,1.3,0.9,2.4,2.1,2.6c0.2,0,0.4,0,0.5,0h28.6c1.5,0,2.6-1.1,2.7-2.6c0-1.5,0-3,0-4.5v-5.6
	c0.6,0.1,1.1,0.4,1.5,0.8c0.6,0.7,1.3,1.5,1.9,2.3c0.3,0.4,0.6,0.8,1,1.2c0.1,0.1,0.2,0.2,0.3,0.3c0,0,0.1-0.1,0.1-0.1
	c0.5-1.1,1.1-2.2,1.6-3.3c0.2-0.5,0.4-1.1,0.5-1.6c0.1-0.7,0-1.4-0.2-2.1C42.1,19.1,41.1,17.6,39.9,16.3z M41.4,23.8
	c-0.2,0.9-0.3,1.8-0.8,2.7c-0.1-0.1-0.1-0.3-0.2-0.4c-0.5-0.9-1.1-1.7-1.7-2.5c-0.6-0.7-1.3-1.3-2.1-1.7c-1.6-0.9-3.3-1.6-5-2.2
	c0,0-0.1,0-0.1,0c1.1,0.6,2.2,1.2,3.2,1.8c0,0,0,0,0,0.1c-0.6-0.2-1.2-0.3-1.8-0.5c-0.9-0.3-0.7-0.1-2.8-0.8
	c-3.9-1.1-4.5-0.4-4.5-0.4c3.8,0.4,4.5,1.2,6.5,2.2c-0.1,0.3-0.2,0.5-0.3,0.8c-0.1,0.4-0.3,0.8-0.4,1.1c-0.1,0.2-0.1,0.5,0,0.7
	c0.8,2,1.6,4.1,2.4,6.1c0,0.1,0.1,0.2,0.1,0.4v3.5c0,0.1,0,0.1,0,0.2c0,0,0,0,0,0c-0.3,0.4-0.8,0.5-1.3,0.5c-6.3,0-12.7,0-19,0
	c-3,0-6,0-9.1,0c-0.2,0-0.3,0-0.5,0c-0.7-0.1-1.1-0.6-1.2-1.4c0-0.3,0-0.7,0-1c0,0,0-0.1,0-0.1c0.8-1.5,1.4-3.1,2-4.7
	c0-0.1,0.1-0.2,0.1-0.4c-0.5,1-1.3,1.8-2.1,2.6c0,0,0,0-0.1,0c0-0.5,0-1,0.1-1.5c0.3-2,0.6-3.9,0.9-5.9c0,0,0,0,0-0.1
	c-0.3,1-0.6,1.9-0.9,2.9c0,0,0,0,0,0v-0.3c0-1.8,0-3.7,0-5.5c0-0.1,0-0.2,0.1-0.3c0.4-0.9,0.8-1.8,1.3-2.7c0.1-0.2,0-0.5-0.2-0.5
	C3.4,16,3,16,2.6,15.9c-0.3,0-0.5-0.1-0.9-0.1c0.1-0.1,0.2-0.1,0.2-0.2c2.1-1.4,4.1-3.1,5.7-5c0.1-0.1,0.2-0.2,0.2-0.4
	c-0.1-0.2-0.3-0.1-0.4-0.1c-0.5,0.1-1.1,0.2-1.6,0.4c-0.3,0.1-0.5,0.2-0.8,0.2c1.9-1.6,3.8-3.2,5.6-4.8C9,4.8,7.4,3.7,5.8,2.6
	c0,0,0,0,0,0c3.1,0.6,6.3,1.1,9.4,1.7c-1-1.1-1.9-2.1-2.9-3.1c0.1,0,0.1,0,0.2,0c3.2,1.1,6.4,2.2,9.7,3.2c3.1,1,6,2.3,8.7,4.2
	c1.1,0.7,2.1,1.6,2.8,2.7c0.4,0.5,0.7,1.1,0.8,1.8c0,0.1,0,0.2-0.1,0.2c-0.3,0.1-0.4,0.4-0.6,0.6c-0.3,0.5-0.4,1-0.4,1.5
	c0,0.3-0.1,0.4-0.4,0.4c-0.2,0-0.5,0-0.7-0.1c-0.3-0.1-0.6-0.2-0.9-0.3c-0.1,0-0.1,0-0.1,0c0.7,0.4,1.4,0.8,2.2,0.9
	c0.4,0,0.7,0,1-0.3c0.1-0.1,0.1-0.2,0.1-0.3c-0.1-0.4,0-0.7,0.2-1c0.1-0.1,0.2-0.1,0.3,0c1.4,0.8,2.7,1.8,3.8,2.9
	c0.7,0.7,1.2,1.4,1.7,2.2C41.4,20.9,41.6,22.3,41.4,23.8z M23.4,14c0.2,0.9-0.3,1.9-1.3,2.2c-0.3,0.1-0.6,0.2-0.9,0.2c0,0,0,0,0,0
	c-1.1,0-2-0.7-2.2-1.6c-0.1-0.7,0-1.2,0.5-1.7c0.1-0.1,0.1-0.1,0.2-0.1c0.1,0,0.1,0,0.2,0.1c0.2,0,0.3,0.1,0.4,0.3
	c0,0.3,0.3,0.4,0.5,0.5c0.3,0.1,0.6,0,0.7-0.3c0.1-0.1,0.1-0.1,0.2-0.1c0.5,0.1,1,0.2,1.5,0.3C23.3,13.8,23.3,13.9,23.4,14z"/>
</svg>
