<?xml version="1.0" encoding="utf-8"?>
<!-- Generator: Adobe Illustrator 22.1.0, SVG Export Plug-In . SVG Version: 6.00 Build 0)  -->
<svg version="1.1" id="Layer_1" xmlns="http://www.w3.org/2000/svg" xmlns:xlink="http://www.w3.org/1999/xlink" x="0px" y="0px"
	 viewBox="0 0 162.5 36" style="enable-background:new 0 0 162.5 36;" xml:space="preserve">
<style type="text/css">
	.st0{fill:#C4C4C4;}
</style>
<path class="st0" d="M51.5,6.3c-0.8,0-1.2,0.5-1.2,1.5v1.5c-0.4-0.8-1.1-1.5-2.1-2c-1-0.5-2-0.8-3-0.8c-2.2,0-4,1-5.4,3
	c-1.2,1.8-1.8,4-1.8,6.6c0,2.4,0.6,4.4,1.7,6c1.3,1.8,3,2.7,5.1,2.7c1.3,0,2.4-0.1,3.1-0.4c0.9-0.3,1.7-1,2.5-1.9c0,0.3,0,0.7,0,1.3
	c0,0.6,0.4,0.9,1.2,0.9c0.8,0,1.1-0.3,1.1-0.9v-16C52.6,6.8,52.3,6.3,51.5,6.3z M49,20.6c-1,1.5-2.3,2.3-3.9,2.3
	c-1.5,0-2.6-0.7-3.5-2.2c-0.8-1.3-1.1-2.9-1.1-4.8c0-1.9,0.4-3.5,1.1-4.8c0.9-1.4,2-2.2,3.5-2.2c1.6,0,2.9,0.7,3.9,2.1
	c0.9,1.3,1.3,2.8,1.3,4.7C50.3,17.6,49.9,19.2,49,20.6z M35.4,22.3c-0.4-0.2-0.8-0.2-1.2,0.1c-1.6,1.3-3.2,2.2-4.6,2.8V2.1
	c0-1.1-0.9-2.1-2.1-2.1H2.1C0.9,0,0,0.9,0,2.1v25.4c0,1.1,0.9,2.1,2.1,2.1h8c1.1,2.4,2.8,4.4,5.8,5.5c5.3,1.9,9.6,0.4,12.2-1.2
	c4.5-2.7,7.3-7.4,7.8-10.6C35.9,22.9,35.7,22.5,35.4,22.3z M27,32.1c-2.3,1.4-5.9,2.6-10.4,1c-1.2-0.4-2.1-1-2.9-1.8
	c-2.5-2.5-2.9-6.6-3.3-10.9C10,16.1,9.6,12.1,6.9,9.7c-1.7-1.5-3.4-2.5-5-3V4.3c0.3,0,0.6,0.1,0.8,0.1c4.5,0.7,7.3,2.7,10.2,7.5
	c0.4,0.7,0.8,1.4,1.3,2.2c0.3,0.6,0.6,1.2,0.9,1.8c0.6,1.1,1.2,2.4,1.9,4c2.4,5.2,5.6,7.9,9.6,7.9c1,0,1.9-0.2,3-0.5v0
	c1.1-0.3,2.2-0.8,3.3-1.5C31.8,28.1,29.7,30.5,27,32.1z M59,11.1c-0.9,1.3-1.3,2.9-1.3,4.8c0,1.8,0.4,3.3,1.3,4.5
	c0.9,1.3,2.2,2,3.9,2c0.5,0,1.2-0.1,2-0.4c0.8-0.3,1.2-0.4,1.4-0.4c0.8,0,1.2,0.4,1.2,1.1c0,0.5-0.2,0.9-0.6,1.2c-0.8,0.7-2,1-3.6,1
	c-2.5,0-4.5-1-6-2.9c-1.3-1.7-2-3.8-2-6.3c0-2.5,0.7-4.6,2-6.4c1.5-1.9,3.4-2.9,5.9-2.9c0.5,0,1.2,0.1,1.9,0.3
	c0.8,0.2,1.5,0.5,1.9,0.9c0.4,0.3,0.5,0.7,0.5,1.1c0,0.3-0.1,0.6-0.4,0.9c-0.3,0.3-0.6,0.4-0.9,0.4c-0.2,0-0.6-0.2-1.2-0.5
	C64.3,9,63.6,8.9,63,8.9C61.3,8.9,60,9.6,59,11.1z M28.2,28.5c0.8-0.2,1.5-0.4,2.4-0.8c-1.1,1.8-3.1,3.6-5.6,4.6
	c-1.9,0.8-4.9,1.3-8.3-0.5c-1.2-0.6-2-1.4-2.5-2.3c0.1-1.7-0.4-3.1,2.8-2c3.2,1.1,1.5-1.4,1.9-3.4c1,2.1,3.1,3.5,4.8,4.2
	C24.9,28.9,26.5,28.9,28.2,28.5z M76.7,8.1c0,0.7-0.4,1.1-1.2,1.1h-1.6v14.1c0,0.8-0.4,1.2-1.2,1.2c-0.8,0-1.1-0.4-1.1-1.2V9.1H70
	c-0.8,0-1.1-0.4-1.1-1.1c0-0.7,0.4-1.1,1.1-1h1.6V2.3c0-0.8,0.4-1.2,1.2-1.2c0.8,0,1.2,0.4,1.2,1.2V7h1.5C76.3,7,76.7,7.4,76.7,8.1z
	 M97.3,8.1c0,0.2,0,0.3-0.1,0.5l-5.1,14.9c-0.2,0.6-0.7,1-1.4,1c-0.6,0-1-0.3-1.3-1l-5-14.9c-0.1-0.2-0.1-0.4-0.1-0.6
	c0-0.7,0.3-1.1,1-1.1c0.7,0,1.1,0.5,1.4,1.4l4,12.1l4.2-12.2C95.2,7.4,95.7,7,96.3,7C97,7,97.3,7.3,97.3,8.1z M128.8,1.1
	c-0.8,0-1.2,0.4-1.2,1.2v7c-1.5-1.9-3.2-2.9-5.1-2.9c-2.3,0-4.1,1-5.4,3c-1.2,1.8-1.8,3.9-1.8,6.5c0,2.5,0.6,4.5,1.8,6.2
	c1.3,1.9,3.2,2.8,5.5,2.8c2.3,0,4-0.9,5.1-2.6v1.5c0,0.7,0.4,1.1,1.2,1.1c0.8,0,1.1-0.4,1.1-1.1V2.3C129.9,1.5,129.5,1.1,128.8,1.1z
	 M126.4,20.4c-1,1.4-2.3,2.1-3.9,2.1c-1.5,0-2.7-0.7-3.6-2.1c-0.8-1.3-1.2-2.8-1.2-4.6c0-1.9,0.4-3.5,1.2-4.8
	c0.9-1.5,2.1-2.2,3.5-2.2c1.6,0,3,0.7,3.9,2.1c0.9,1.3,1.3,2.9,1.3,4.8C127.7,17.5,127.3,19.1,126.4,20.4z M81.6,7.6v15.6
	c0,0.8-0.4,1.2-1.2,1.2c-0.8,0-1.2-0.4-1.2-1.2V7.6c0-0.8,0.4-1.2,1.1-1.2C81.2,6.4,81.6,6.8,81.6,7.6z M162.5,12.5v10.8
	c0,0.8-0.4,1.2-1.2,1.2c-0.8,0-1.2-0.4-1.2-1.2V12.7c0-1.2-0.4-2.2-1.2-2.9c-0.7-0.6-1.6-1-2.7-1c-1.2,0-2.3,0.4-3.2,1.3
	c-1,1-1.5,2.3-1.5,3.9v9.2c0,0.8-0.4,1.2-1.2,1.2c-0.8,0-1.1-0.4-1.1-1.2V7.5c0-0.7,0.4-1.1,1.1-1.1c0.8,0,1.2,0.4,1.2,1.1
	c0,0.8,0,1.4,0,1.6c1.1-1.8,2.8-2.7,5-2.7c1.6,0,2.9,0.5,4,1.5C161.9,9.1,162.5,10.6,162.5,12.5z M147.3,14.2c0-2.4-0.6-4.3-1.9-5.7
	c-1.3-1.4-3.1-2.1-5.3-2.1c-2.4,0-4.2,1-5.6,2.9c-1.3,1.7-1.9,3.9-1.9,6.3c0,2.5,0.7,4.6,2,6.3c1.5,1.9,3.5,2.9,6.1,2.9
	c2.8,0,4.9-0.9,6.4-2.8c0.1-0.2,0.2-0.4,0.2-0.6c0-0.3-0.1-0.6-0.3-0.8c-0.2-0.2-0.5-0.4-0.8-0.4c-0.3,0-0.7,0.2-1.2,0.7
	c-0.8,0.6-1.4,1-1.8,1.2c-0.8,0.5-1.7,0.7-2.5,0.7c-1.4,0-2.7-0.6-3.8-1.9c-1.1-1.3-1.6-2.6-1.6-4.1h11.4
	C147.1,16.8,147.3,15.9,147.3,14.2z M135.1,14.4c0-1.8,0.6-3.3,1.6-4.4c0.9-1,2.1-1.4,3.4-1.4c1.3,0,2.4,0.5,3.3,1.4
	c1,1.1,1.5,2.5,1.5,4.4H135.1z M81.6,1.6C81.9,2,82,2.4,82,2.8c0,1-0.6,1.5-1.7,1.5c-0.5,0-0.9-0.2-1.1-0.5
	c-0.3-0.3-0.4-0.7-0.4-1.2c0-1,0.5-1.5,1.6-1.5C80.9,1.1,81.3,1.3,81.6,1.6z M113.2,14.2c0-2.4-0.6-4.3-1.9-5.7
	c-1.3-1.4-3.1-2.1-5.3-2.1c-2.4,0-4.2,1-5.6,2.9c-1.3,1.7-1.9,3.9-1.9,6.3c0,2.5,0.7,4.6,2,6.3c1.5,1.9,3.5,2.9,6.1,2.9
	c2.8,0,4.9-0.9,6.4-2.8c0.1-0.2,0.2-0.4,0.2-0.6c0-0.3-0.1-0.6-0.3-0.8c-0.2-0.2-0.5-0.4-0.8-0.4c-0.3,0-0.7,0.2-1.2,0.7
	c-0.8,0.6-1.4,1-1.8,1.2c-0.8,0.5-1.7,0.7-2.5,0.7c-1.4,0-2.7-0.6-3.8-1.9c-1.1-1.3-1.6-2.6-1.6-4.1h11.4
	C112.9,16.8,113.2,15.9,113.2,14.2z M101,14.4c0-1.8,0.6-3.3,1.6-4.4c0.9-1,2.1-1.4,3.4-1.4c1.3,0,2.4,0.5,3.3,1.4
	c1,1.1,1.5,2.5,1.5,4.4H101z"/>
</svg>
