<?xml version="1.0" encoding="utf-8"?>
<!-- Generator: Adobe Illustrator 22.1.0, SVG Export Plug-In . SVG Version: 6.00 Build 0)  -->
<svg version="1.1" id="Layer_1" xmlns="http://www.w3.org/2000/svg" xmlns:xlink="http://www.w3.org/1999/xlink" x="0px" y="0px"
	 viewBox="0 0 178.9 36" style="enable-background:new 0 0 178.9 36;" xml:space="preserve">
<style type="text/css">
	.st0{fill:#C4C4C4;}
</style>
<path class="st0" d="M52.8,6.3c-0.7,0-1.1,0.5-1.1,1.4v1.4c-0.4-0.8-1.1-1.4-2-1.9c-0.9-0.5-1.9-0.8-2.8-0.8c-2.1,0-3.8,1-5.1,2.9
	C40.6,11,40,13.1,40,15.5c0,2.3,0.5,4.2,1.6,5.7c1.2,1.7,2.8,2.5,4.8,2.5c1.2,0,2.2-0.1,2.9-0.4c0.9-0.3,1.6-0.9,2.3-1.8
	c0,0.3,0,0.7,0,1.3c0,0.6,0.4,0.8,1.1,0.8c0.7,0,1.1-0.3,1.1-0.9V7.7C53.9,6.8,53.5,6.3,52.8,6.3z M50.4,19.7
	c-0.9,1.4-2.1,2.1-3.6,2.1c-1.4,0-2.5-0.7-3.3-2.1c-0.7-1.2-1.1-2.8-1.1-4.5c0-1.8,0.4-3.3,1.1-4.5c0.8-1.4,1.9-2,3.3-2
	c1.5,0,2.8,0.7,3.7,2c0.8,1.2,1.2,2.7,1.2,4.4C51.7,16.9,51.2,18.5,50.4,19.7z M68.6,8v10.2c0,2.2-1.1,3.8-3.2,4.8c-2,0.9-4,0.9-6,0
	c-2.1-0.9-3.2-2.5-3.2-4.8V8c0-0.7,0.4-1.1,1.1-1.1c0.7,0,1.1,0.4,1.1,1.1v9.5c0,1.3,0.4,2.4,1.2,3.1c0.7,0.7,1.7,1,2.7,1
	c1.1,0,2-0.3,2.8-1c0.8-0.8,1.3-1.8,1.3-3.1V8c0-0.7,0.4-1.1,1.1-1.1C68.2,7,68.6,7.3,68.6,8z M83.8,1.4c-0.8,0-1.1,0.4-1.1,1.2v6.6
	c-1.4-1.8-3-2.7-4.8-2.7c-2.1,0-3.8,0.9-5.1,2.8c-1.2,1.7-1.7,3.7-1.7,6.1c0,2.3,0.6,4.3,1.7,5.9c1.3,1.8,3,2.6,5.2,2.6
	c2.2,0,3.8-0.8,4.8-2.4v1.4c0,0.7,0.4,1,1.1,1c0.7,0,1.1-0.3,1.1-1V2.6C84.9,1.8,84.5,1.4,83.8,1.4z M81.6,19.6
	c-0.9,1.3-2.2,2-3.7,2c-1.4,0-2.5-0.7-3.4-2c-0.7-1.2-1.1-2.6-1.1-4.4c0-1.8,0.4-3.3,1.2-4.5c0.8-1.4,1.9-2.1,3.3-2.1
	c1.6,0,2.8,0.7,3.7,2c0.8,1.2,1.2,2.7,1.2,4.5C82.8,16.9,82.4,18.4,81.6,19.6z M89.9,7.5v14.7c0,0.7-0.4,1.1-1.1,1.1
	s-1.1-0.4-1.1-1.1V7.5c0-0.7,0.4-1.1,1.1-1.1C89.6,6.4,89.9,6.8,89.9,7.5z M89.9,1.9c0.3,0.3,0.4,0.7,0.4,1.1c0,0.9-0.5,1.4-1.6,1.4
	c-0.5,0-0.8-0.2-1.1-0.5c-0.3-0.3-0.4-0.7-0.4-1.1c0-0.9,0.5-1.4,1.5-1.4C89.3,1.4,89.7,1.6,89.9,1.9z M99.8,6.4
	c-2.3,0-4.1,0.9-5.4,2.7c-1.2,1.6-1.8,3.6-1.8,5.9c0,2.3,0.6,4.3,1.8,5.9c1.3,1.8,3.1,2.7,5.4,2.7c2.3,0,4.1-0.9,5.4-2.6
	c1.2-1.6,1.8-3.5,1.8-5.8c0-2.4-0.6-4.4-1.8-6.1C103.8,7.3,102,6.4,99.8,6.4z M103.3,19.8c-0.8,1.3-2,2-3.5,2
	c-1.4,0-2.6-0.7-3.5-2.2c-0.8-1.3-1.2-2.9-1.2-4.8c0-1.8,0.4-3.2,1.1-4.4c0.8-1.3,2-2,3.5-2c1.4,0,2.6,0.7,3.4,2.2
	c0.8,1.4,1.2,3,1.2,4.8C104.4,17.2,104.1,18.6,103.3,19.8z M111.8,1.9c0.3,0.3,0.4,0.7,0.4,1.1c0,0.9-0.5,1.4-1.5,1.4
	c-0.5,0-0.9-0.2-1.1-0.5c-0.3-0.3-0.4-0.7-0.4-1.1c0-0.9,0.5-1.4,1.5-1.4C111.1,1.4,111.5,1.6,111.8,1.9z M111.8,7.5v21.6
	c0,0.7-0.4,1.1-1.1,1.1c-0.7,0-1.1-0.4-1.1-1.1V7.5c0-0.8,0.4-1.1,1.1-1.1C111.4,6.4,111.8,6.8,111.8,7.5z M126.8,8v10.2
	c0,2.2-1.1,3.8-3.2,4.8c-2,0.9-4,0.9-6,0c-2.1-0.9-3.2-2.5-3.2-4.8V8c0-0.7,0.4-1.1,1.1-1.1c0.7,0,1.1,0.4,1.1,1.1v9.5
	c0,1.3,0.4,2.4,1.2,3.1c0.7,0.7,1.7,1,2.7,1c1.1,0,2-0.3,2.8-1c0.8-0.8,1.3-1.8,1.3-3.1V8c0-0.7,0.4-1.1,1.1-1.1
	C126.5,7,126.8,7.3,126.8,8z M139.9,7.9c1.1,1,1.7,2.5,1.7,4.3v10.2c0,0.7-0.4,1.1-1.1,1.1c-0.7,0-1.1-0.4-1.1-1.1v-9.9
	c0-1.1-0.4-2.1-1.1-2.7c-0.7-0.6-1.5-0.9-2.5-0.9c-1.2,0-2.1,0.4-3,1.2c-0.9,0.9-1.4,2.1-1.4,3.7v8.7c0,0.7-0.4,1.1-1.1,1.1
	c-0.7,0-1.1-0.4-1.1-1.1V7.4c0-0.7,0.4-1,1.1-1c0.7,0,1.1,0.4,1.1,1.1c0,0.8,0,1.3,0,1.5c1.1-1.7,2.6-2.6,4.7-2.6
	C137.6,6.4,138.9,6.9,139.9,7.9z M156.7,6.3c-0.7,0-1.1,0.3-1.1,1v1.6c-0.5-0.8-1.1-1.4-1.9-1.8c-0.8-0.4-1.7-0.7-2.6-0.7
	c-2.3,0-4.1,0.9-5.4,2.7c-1.2,1.6-1.8,3.6-1.8,5.9c0,2.3,0.6,4.3,1.8,6c1.3,1.8,3.1,2.7,5.4,2.7c0.9,0,1.8-0.2,2.6-0.6
	c0.9-0.5,1.6-1.1,1.9-1.8c0,4.4-1.5,6.6-4.6,6.6c-1,0-2.1-0.2-3.1-0.7c-0.6-0.4-1.3-0.7-2-1.1c-0.2-0.1-0.5-0.2-0.6-0.2
	c-0.6,0-0.9,0.3-0.9,1c0,0.5,0.2,0.8,0.5,1.2c1.5,1.3,3.5,1.9,5.9,1.9c2.1,0,3.8-0.6,5.1-1.9c1.2-1.3,1.9-3,1.9-5.2V7.4
	C157.9,6.7,157.5,6.3,156.7,6.3z M154.6,19.7c-0.9,1.4-2,2.1-3.5,2.1c-1.5,0-2.6-0.7-3.5-2.2c-0.8-1.3-1.2-2.8-1.2-4.7
	c0-1.8,0.4-3.3,1.1-4.5c0.9-1.4,2-2,3.5-2c1.5,0,2.6,0.7,3.5,2.1c0.8,1.2,1.2,2.8,1.2,4.6C155.8,16.9,155.4,18.4,154.6,19.7z
	 M162.5,2.6v19.7c0,0.7-0.4,1.1-1.1,1.1c-0.7,0-1.1-0.4-1.1-1.1V2.6c0-0.7,0.4-1.1,1.1-1.1C162.1,1.4,162.5,1.8,162.5,2.6z
	 M177.7,19.4c-0.2,0-0.6,0.2-1.2,0.7c-0.7,0.6-1.3,1-1.7,1.2c-0.8,0.4-1.6,0.6-2.4,0.6c-1.3,0-2.5-0.6-3.6-1.8
	c-1-1.2-1.6-2.5-1.6-3.9h10.7c0.5,0,0.8-0.8,0.8-2.4c0-2.3-0.6-4.1-1.8-5.4c-1.2-1.3-2.9-2-5-2c-2.2,0-4,0.9-5.3,2.7
	c-1.2,1.6-1.8,3.6-1.8,6c0,2.4,0.6,4.3,1.9,5.9c1.4,1.8,3.3,2.7,5.8,2.7c2.6,0,4.7-0.9,6.1-2.7c0.1-0.2,0.2-0.4,0.2-0.6
	c0-0.3-0.1-0.5-0.3-0.8C178.3,19.5,178,19.4,177.7,19.4z M168.9,9.8c0.9-0.9,2-1.4,3.2-1.4c1.2,0,2.3,0.5,3.1,1.4
	c0.9,1,1.4,2.4,1.4,4.1h-9.3C167.4,12.2,167.9,10.8,168.9,9.8z M31.6,17.1V2.4c0-1.3-1.1-2.4-2.4-2.4H2.4C1.1,0,0,1.1,0,2.4v26.7
	c0,1.3,1.1,2.4,2.4,2.4h4.3c0.4,0.4,0.9,0.8,1.4,1.1c3,2.2,6.5,3.3,10.2,3.3c0.9,0,1.9-0.1,2.8-0.2c3.1-0.5,5.8-2,7.9-4.2h0.2
	c1.3,0,2.4-1.1,2.4-2.4v-1.6c1-2.3,1.3-4.9,0.9-7.5C32.3,19,32,18.1,31.6,17.1z M3.6,25.3l1.1,0.1l-0.6,0.9
	C3.9,25.9,3.7,25.6,3.6,25.3z M8.8,31.7C8.8,31.7,8.8,31.6,8.8,31.7c-0.4-0.3-0.8-0.6-1.1-0.9l1.4-0.5L8.8,31.7z M14.2,34.2l0.9-1.1
	l0.5,1.4C15.1,34.4,14.7,34.3,14.2,34.2z M21.5,34.4l0.5-1.5L23,34C22.5,34.2,22,34.3,21.5,34.4z M28.7,29.9l-1,1l-0.5-1.6l1.6,0.4
	C28.8,29.8,28.8,29.9,28.7,29.9z M29.2,29.3l-2.6-0.6l0.8,2.7c-1.1,1-2.4,1.9-3.9,2.4l-1.6-1.9l-0.9,2.6c0,0,0,0,0,0
	c-0.9,0.1-1.7,0.2-2.6,0.2c-0.7,0-1.4-0.1-2.1-0.2l-0.8-2.4l-1.6,1.9c-1.5-0.5-3-1.2-4.4-2.1l0.5-2.5l-2.5,0.9
	c-1.1-1.1-2.1-2.3-2.9-3.6l1.2-1.9l-2.2-0.1c-0.5-1.2-0.8-2.4-1-3.7C1.2,13.8,3.8,6.6,9.5,1.7l1.3-1h11.4l-3.5,1
	C10.8,4,5.7,11.9,7,20.3c0.5,3,2.1,5.7,4.6,7.5c2,1.4,4.3,2.2,6.7,2.2c0.6,0,1.2,0,1.8-0.1c3.5-0.6,6.5-4,6.6-7.4
	c0-1.5-0.5-2.9-1.6-4c-1.4-1.4-3.6-2.2-5.9-2.2c-1,0-2,0.2-2.9,0.5c-0.2,0.1-0.4,0.1-0.6,0.1c-0.5,0-0.7-0.3-0.7-0.5
	c-0.2-0.7,0.8-1.6,1.1-1.9c0.1-0.1,0.2-0.2,0.2-0.2c1.1-1,2.4-1.6,3.9-1.8c2.6-0.4,5.1,0.2,7.2,1.7c2.1,1.5,3.5,3.8,3.9,6.3
	C31.7,23.5,31,26.7,29.2,29.3z M19.6,12.7c-0.8,0-1.4,0.6-1.4,1.4c0,0.8,0.6,1.4,1.4,1.4c0.8,0,1.4-0.6,1.4-1.4
	C21,13.3,20.4,12.7,19.6,12.7z M19.6,15.1c-0.5,0-0.9-0.4-0.9-0.9s0.4-0.9,0.9-0.9c0.5,0,0.9,0.4,0.9,0.9S20.1,15.1,19.6,15.1z"/>
</svg>
