<?xml version="1.0" encoding="utf-8"?>
<!-- Generator: Adobe Illustrator 22.1.0, SVG Export Plug-In . SVG Version: 6.00 Build 0)  -->
<svg version="1.1" id="Layer_1" xmlns="http://www.w3.org/2000/svg" xmlns:xlink="http://www.w3.org/1999/xlink" x="0px" y="0px"
	 viewBox="0 0 1598.8 331" style="enable-background:new 0 0 1598.8 331;" xml:space="preserve">
<style type="text/css">
	.st0{fill:#E73748;}
</style>
<path class="st0" d="M0,0c0,110.3,0,220.6,0,331c532.9,0,1065.9,0,1598.8,0c-1.5-2.9-2.8-6-4.6-8.8c-12.3-18.9-28.1-34.6-45.5-48.8
	c-36.6-29.7-78-50.7-121.9-67.2c-70.5-26.5-143.9-40.6-218.5-47.7c-40.2-3.8-80.7-6.1-121.1-6.9c-41.3-0.8-82.6,0.8-123.9,1.8
	c-17.6,0.4-35.3,1.6-52.8,3.3c-24.5,2.4-48.9,6.1-73.4,8.2c-38.9,3.5-77.9,6.7-117,8.9c-37.1,2.1-74.2,3.6-111.3,3.8
	c-43.1,0.2-86.3-0.8-129.4-2.5c-32.2-1.3-64.5-3.4-96.5-7.4c-37.7-4.6-75.4-10.6-112.7-17.8c-50.4-9.8-99.3-24.7-145.8-46.9
	C74.5,79.1,30.4,47.8,0,0z"/>
</svg>
