<?xml version="1.0" encoding="utf-8"?>
<!-- Generator: Adobe Illustrator 22.1.0, SVG Export Plug-In . SVG Version: 6.00 Build 0)  -->
<svg version="1.1" id="Layer_1" xmlns="http://www.w3.org/2000/svg" xmlns:xlink="http://www.w3.org/1999/xlink" x="0px" y="0px"
	 viewBox="0 0 176.1 196" style="enable-background:new 0 0 176.1 196;" xml:space="preserve">
<style type="text/css">
	.st0{fill:#263238;}
	.st1{fill:#FF4800;}
</style>
<path class="st0" d="M144.5,124.6c-0.9,0-1.7-0.7-1.7-1.7V93c0-0.9,0.7-1.7,1.7-1.7s1.7,0.7,1.7,1.7v29.9
	C146.1,123.8,145.4,124.6,144.5,124.6z"/>
<path class="st0" d="M129.5,86.4h-10c-0.9,0-1.7-0.7-1.7-1.7s0.7-1.7,1.7-1.7h10c12.8,0,23.3-10.4,23.3-23.3
	c0-12.8-10.4-23.3-23.3-23.3h-8.3c-0.9,0-1.7-0.7-1.7-1.7c0-17.4-14.2-31.6-31.6-31.6c-17.4,0-31.6,14.2-31.6,31.6
	c0,0.9-0.7,1.7-1.7,1.7h-8.3c-12.8,0-23.3,10.4-23.3,23.3c0,12.8,10.4,23.3,23.3,23.3h10c0.9,0,1.7,0.7,1.7,1.7s-0.7,1.7-1.7,1.7
	h-10c-14.7,0-26.6-11.9-26.6-26.6c0-14.7,11.9-26.6,26.6-26.6h6.7C54,14.8,69.3,0,88,0c18.7,0,34,14.8,34.8,33.2h6.7
	c14.7,0,26.6,11.9,26.6,26.6C156.1,74.5,144.2,86.4,129.5,86.4z"/>
<path class="st1" d="M29.9,98c-0.9,0-1.7-0.7-1.7-1.7V93c0-0.9,0.7-1.7,1.7-1.7c0.9,0,1.7,0.7,1.7,1.7v3.3
	C31.5,97.3,30.8,98,29.9,98z"/>
<path class="st1" d="M29.9,124.6c-0.9,0-1.7-0.7-1.7-1.7V103c0-0.9,0.7-1.7,1.7-1.7c0.9,0,1.7,0.7,1.7,1.7v19.9
	C31.5,123.8,30.8,124.6,29.9,124.6z"/>
<path class="st1" d="M39.8,124.6c-0.9,0-1.7-0.7-1.7-1.7v-3.3c0-0.9,0.7-1.7,1.7-1.7c0.9,0,1.7,0.7,1.7,1.7v3.3
	C41.5,123.8,40.7,124.6,39.8,124.6z"/>
<path class="st1" d="M39.8,114.6c-0.9,0-1.7-0.7-1.7-1.7V93c0-0.9,0.7-1.7,1.7-1.7c0.9,0,1.7,0.7,1.7,1.7v19.9
	C41.5,113.9,40.7,114.6,39.8,114.6z"/>
<path class="st0" d="M38.2,13.3H24.9c-0.9,0-1.7-0.7-1.7-1.7c0-0.9,0.7-1.7,1.7-1.7h13.3c0.9,0,1.7,0.7,1.7,1.7
	C39.8,12.5,39.1,13.3,38.2,13.3z"/>
<path class="st0" d="M31.5,19.9c-0.9,0-1.7-0.7-1.7-1.7V5c0-0.9,0.7-1.7,1.7-1.7c0.9,0,1.7,0.7,1.7,1.7v13.3
	C33.2,19.2,32.4,19.9,31.5,19.9z"/>
<path class="st0" d="M14.9,34.9H1.6c-0.9,0-1.7-0.7-1.7-1.7c0-0.9,0.7-1.7,1.7-1.7h13.3c0.9,0,1.7,0.7,1.7,1.7
	C16.6,34.1,15.8,34.9,14.9,34.9z"/>
<path class="st0" d="M8.3,41.5c-0.9,0-1.7-0.7-1.7-1.7V26.6c0-0.9,0.7-1.7,1.7-1.7c0.9,0,1.7,0.7,1.7,1.7v13.3
	C9.9,40.8,9.2,41.5,8.3,41.5z"/>
<ellipse transform="matrix(0.1677 -0.9858 0.9858 0.1677 -41.8619 279.2981)" class="st1" cx="144.5" cy="164.4" rx="29.9" ry="29.9"/>
<path class="st0" d="M144.5,196c-17.4,0-31.6-14.2-31.6-31.6c0-17.4,14.2-31.6,31.6-31.6c17.4,0,31.6,14.2,31.6,31.6
	C176,181.8,161.9,196,144.5,196z M144.5,136.2c-15.6,0-28.2,12.7-28.2,28.2c0,15.6,12.7,28.2,28.2,28.2c15.6,0,28.2-12.7,28.2-28.2
	C172.7,148.9,160,136.2,144.5,136.2z"/>
<path class="st0" d="M144.5,151.2c-8.7,0-17.1-1.9-23-5.2c-0.8-0.4-1.1-1.5-0.6-2.3c0.4-0.8,1.5-1.1,2.3-0.6
	c5.4,3,13.2,4.8,21.4,4.8c8.2,0,16-1.7,21.4-4.8c0.8-0.4,1.8-0.2,2.3,0.6c0.4,0.8,0.2,1.8-0.6,2.3
	C161.6,149.3,153.2,151.2,144.5,151.2z"/>
<path class="st0" d="M166.7,186c-0.3,0-0.6-0.1-0.8-0.2c-5.4-3-13.2-4.8-21.4-4.8c-8.2,0-16,1.7-21.4,4.8c-0.8,0.4-1.8,0.2-2.3-0.6
	c-0.4-0.8-0.2-1.8,0.6-2.3c5.9-3.3,14.3-5.2,23-5.2s17.1,1.9,23,5.2c0.8,0.4,1.1,1.5,0.6,2.3C167.9,185.7,167.3,186,166.7,186z"/>
<path class="st0" d="M144.5,196c-11.1,0-20.2-14.2-20.2-31.6c0-17.4,9-31.6,20.2-31.6c11.1,0,20.2,14.2,20.2,31.6
	C164.6,181.8,155.6,196,144.5,196z M144.5,136.2c-9.3,0-16.8,12.7-16.8,28.2c0,15.6,7.6,28.2,16.8,28.2s16.8-12.7,16.8-28.2
	C161.3,148.9,153.8,136.2,144.5,136.2z"/>
<path class="st0" d="M144.5,196c-0.9,0-1.7-0.7-1.7-1.7v-59.8c0-0.9,0.7-1.7,1.7-1.7s1.7,0.7,1.7,1.7v59.8
	C146.1,195.3,145.4,196,144.5,196z"/>
<path class="st0" d="M174.4,166.1h-59.8c-0.9,0-1.7-0.7-1.7-1.7c0-0.9,0.7-1.7,1.7-1.7h59.8c0.9,0,1.7,0.7,1.7,1.7
	C176,165.4,175.3,166.1,174.4,166.1z"/>
<path class="st0" d="M109.6,86.4H66.4c-2.7,0-5-2.2-5-5V68.1c0-2.7,2.2-5,5-5h43.2c2.7,0,5,2.2,5,5v13.3
	C114.6,84.1,112.3,86.4,109.6,86.4z M66.4,66.4c-0.9,0-1.7,0.7-1.7,1.7v13.3c0,0.9,0.7,1.7,1.7,1.7h43.2c0.9,0,1.7-0.7,1.7-1.7V68.1
	c0-0.9-0.7-1.7-1.7-1.7H66.4z"/>
<path class="st0" d="M102.9,76.4H88c-0.9,0-1.7-0.7-1.7-1.7c0-0.9,0.7-1.7,1.7-1.7h14.9c0.9,0,1.7,0.7,1.7,1.7
	C104.6,75.7,103.9,76.4,102.9,76.4z"/>
<path class="st1" d="M109.6,64.8H66.4c-1.8,0-3.3-1.5-3.3-3.3V48.2c0-1.8,1.5-3.3,3.3-3.3h43.2c1.8,0,3.3,1.5,3.3,3.3v13.3
	C112.9,63.3,111.4,64.8,109.6,64.8z"/>
<path class="st0" d="M109.6,66.4H66.4c-2.7,0-5-2.2-5-5V48.2c0-2.7,2.2-5,5-5h43.2c2.7,0,5,2.2,5,5v13.3
	C114.6,64.2,112.3,66.4,109.6,66.4z M66.4,46.5c-0.9,0-1.7,0.7-1.7,1.7v13.3c0,0.9,0.7,1.7,1.7,1.7h43.2c0.9,0,1.7-0.7,1.7-1.7V48.2
	c0-0.9-0.7-1.7-1.7-1.7H66.4z"/>
<path class="st0" d="M102.9,56.5H88c-0.9,0-1.7-0.7-1.7-1.7c0-0.9,0.7-1.7,1.7-1.7h14.9c0.9,0,1.7,0.7,1.7,1.7
	C104.6,55.7,103.9,56.5,102.9,56.5z"/>
<path class="st0" d="M144.5,124.6c-0.4,0-0.8-0.2-1.2-0.5l-10-10c-0.6-0.6-0.6-1.7,0-2.3c0.6-0.6,1.7-0.6,2.3,0l8.8,8.8l8.8-8.8
	c0.6-0.6,1.7-0.6,2.3,0c0.6,0.6,0.6,1.7,0,2.3l-10,10C145.3,124.4,144.9,124.6,144.5,124.6z"/>
<path class="st0" d="M53.1,196H16.6c-2.7,0-5-2.2-5-5v-56.5c0-2.7,2.2-5,5-5h36.5c2.7,0,5,2.2,5,5V191C58.1,193.8,55.9,196,53.1,196
	z M16.6,132.9c-0.9,0-1.7,0.7-1.7,1.7V191c0,0.9,0.7,1.7,1.7,1.7h36.5c0.9,0,1.7-0.7,1.7-1.7v-56.5c0-0.9-0.7-1.7-1.7-1.7H16.6z"/>
<path class="st0" d="M39.8,164.4h-10c-0.4,0-0.9-0.2-1.2-0.5l-2.8-2.8H13.3c-0.9,0-1.7-0.7-1.7-1.7c0-0.9,0.7-1.7,1.7-1.7h13.3
	c0.4,0,0.9,0.2,1.2,0.5l2.8,2.8h8.6l2.8-2.8c0.3-0.3,0.7-0.5,1.2-0.5h13.3c0.9,0,1.7,0.7,1.7,1.7c0,0.9-0.7,1.7-1.7,1.7H43.8L41,164
	C40.7,164.3,40.3,164.4,39.8,164.4z"/>
<path class="st0" d="M34.8,184.4c-3.7,0-6.6-3-6.6-6.6c0-3.7,3-6.6,6.6-6.6c3.7,0,6.6,3,6.6,6.6C41.5,181.4,38.5,184.4,34.8,184.4z
	 M34.8,174.4c-1.8,0-3.3,1.5-3.3,3.3c0,1.8,1.5,3.3,3.3,3.3c1.8,0,3.3-1.5,3.3-3.3C38.2,175.9,36.7,174.4,34.8,174.4z"/>
<path class="st0" d="M43.2,144.5H26.5c-0.9,0-1.7-0.7-1.7-1.7c0-0.9,0.7-1.7,1.7-1.7h16.6c0.9,0,1.7,0.7,1.7,1.7
	C44.8,143.8,44.1,144.5,43.2,144.5z"/>
<path class="st0" d="M43.2,152.8H26.5c-0.9,0-1.7-0.7-1.7-1.7c0-0.9,0.7-1.7,1.7-1.7h16.6c0.9,0,1.7,0.7,1.7,1.7
	C44.8,152.1,44.1,152.8,43.2,152.8z"/>
</svg>
