<?xml version="1.0" encoding="utf-8"?>
<!-- Generator: Adobe Illustrator 22.1.0, SVG Export Plug-In . SVG Version: 6.00 Build 0)  -->
<svg version="1.1" id="Layer_1" xmlns="http://www.w3.org/2000/svg" xmlns:xlink="http://www.w3.org/1999/xlink" x="0px" y="0px"
	 viewBox="0 0 224.8 196" style="enable-background:new 0 0 224.8 196;" xml:space="preserve">
<style type="text/css">
	.st0{fill:#263238;}
	.st1{fill:#FF4800;}
</style>
<g>
	<g>
		<path class="st0" d="M159.7,181.6H62.6c-5.9,0-10.8-4.8-10.8-10.8v-18c0-6,4.8-10.8,10.8-10.8h97.1c6,0,10.8,4.8,10.8,10.8v18
			C170.4,176.8,165.6,181.6,159.7,181.6z M62.6,145.7c-4,0-7.2,3.2-7.2,7.2v18c0,4,3.2,7.2,7.2,7.2h97.1c4,0,7.2-3.2,7.2-7.2v-18
			c0-4-3.2-7.2-7.2-7.2H62.6z"/>
	</g>
	<g>
		<path class="st0" d="M78.7,169c-4,0-7.2-3.2-7.2-7.2c0-4,3.2-7.2,7.2-7.2c4,0,7.2,3.2,7.2,7.2C85.9,165.8,82.7,169,78.7,169z
			 M78.7,158.2c-2,0-3.6,1.6-3.6,3.6c0,2,1.6,3.6,3.6,3.6c2,0,3.6-1.6,3.6-3.6C82.3,159.9,80.7,158.2,78.7,158.2z"/>
	</g>
	<g>
		<path class="st0" d="M147.1,163.6H96.7c-1,0-1.8-0.8-1.8-1.8c0-1,0.8-1.8,1.8-1.8h50.3c1,0,1.8,0.8,1.8,1.8
			C148.9,162.8,148.1,163.6,147.1,163.6z"/>
	</g>
	<g>
		<path class="st0" d="M159.7,145.7H62.6c-5.9,0-10.8-4.8-10.8-10.8v-18c0-5.9,4.8-10.8,10.8-10.8h97.1c6,0,10.8,4.8,10.8,10.8v18
			C170.4,140.8,165.6,145.7,159.7,145.7z M62.6,109.7c-4,0-7.2,3.2-7.2,7.2v18c0,4,3.2,7.2,7.2,7.2h97.1c4,0,7.2-3.2,7.2-7.2v-18
			c0-4-3.2-7.2-7.2-7.2H62.6z"/>
	</g>
	<g>
		<path class="st0" d="M78.7,133.1c-4,0-7.2-3.2-7.2-7.2c0-4,3.2-7.2,7.2-7.2c4,0,7.2,3.2,7.2,7.2C85.9,129.8,82.7,133.1,78.7,133.1
			z M78.7,122.3c-2,0-3.6,1.6-3.6,3.6c0,2,1.6,3.6,3.6,3.6c2,0,3.6-1.6,3.6-3.6C82.3,123.9,80.7,122.3,78.7,122.3z"/>
	</g>
	<g>
		<path class="st0" d="M147.1,127.7H96.7c-1,0-1.8-0.8-1.8-1.8c0-1,0.8-1.8,1.8-1.8h50.3c1,0,1.8,0.8,1.8,1.8
			C148.9,126.9,148.1,127.7,147.1,127.7z"/>
	</g>
	<g>
		<path class="st0" d="M159.7,109.7H62.6c-5.9,0-10.8-4.8-10.8-10.8v-18c0-5.9,4.8-10.8,10.8-10.8h97.1c6,0,10.8,4.8,10.8,10.8v18
			C170.4,104.8,165.6,109.7,159.7,109.7z M62.6,73.7c-4,0-7.2,3.2-7.2,7.2v18c0,4,3.2,7.2,7.2,7.2h97.1c4,0,7.2-3.2,7.2-7.2v-18
			c0-4-3.2-7.2-7.2-7.2H62.6z"/>
	</g>
	<g>
		<path class="st0" d="M78.7,97.1c-4,0-7.2-3.2-7.2-7.2c0-4,3.2-7.2,7.2-7.2c4,0,7.2,3.2,7.2,7.2C85.9,93.9,82.7,97.1,78.7,97.1z
			 M78.7,86.3c-2,0-3.6,1.6-3.6,3.6c0,2,1.6,3.6,3.6,3.6c2,0,3.6-1.6,3.6-3.6C82.3,87.9,80.7,86.3,78.7,86.3z"/>
	</g>
	<g>
		<path class="st0" d="M147.1,91.7H96.7c-1,0-1.8-0.8-1.8-1.8c0-1,0.8-1.8,1.8-1.8h50.3c1,0,1.8,0.8,1.8,1.8
			C148.9,90.9,148.1,91.7,147.1,91.7z"/>
	</g>
	<g>
		<path class="st0" d="M161.5,196H60.8c-1,0-1.8-0.8-1.8-1.8v-14.4c0-1,0.8-1.8,1.8-1.8h100.7c1,0,1.8,0.8,1.8,1.8v14.4
			C163.2,195.2,162.4,196,161.5,196z M62.6,192.4h97.1v-10.8H62.6V192.4z"/>
	</g>
	<g>
		<path class="st1" d="M93.1,37.8H52c-11.9,0-22.4-7.8-25.8-19.2l-5-16.7h41.1c11.9,0,22.4,7.8,25.8,19.2L93.1,37.8z"/>
		<path class="st0" d="M93.1,39.6H52c-12.8,0-23.9-8.2-27.6-20.5l-5-16.7c-0.2-0.5-0.1-1.1,0.3-1.6C20.1,0.3,20.6,0,21.2,0h41.1
			c12.8,0,23.9,8.2,27.6,20.5l5,16.7c0.2,0.5,0.1,1.1-0.3,1.6C94.2,39.3,93.7,39.6,93.1,39.6z M23.6,3.6L27.9,18
			C31.2,28.8,40.8,36,52,36h38.7l-4.3-14.4C83.2,10.8,73.5,3.6,62.3,3.6H23.6z"/>
	</g>
	<g>
		<path class="st0" d="M111.1,66.5c-1,0-1.8-0.8-1.8-1.8v-18c0-13.9-11.3-25.2-25.2-25.2h-27c-1,0-1.8-0.8-1.8-1.8
			c0-1,0.8-1.8,1.8-1.8h27c15.9,0,28.8,12.9,28.8,28.8v18C112.9,65.7,112.1,66.5,111.1,66.5z"/>
	</g>
	<g>
		<path class="st1" d="M129.1,37.8h41.1c11.9,0,22.4-7.8,25.8-19.2l5-16.7h-41.1c-11.9,0-22.4,7.8-25.8,19.2L129.1,37.8z"/>
		<path class="st0" d="M170.2,39.6h-41.1c-0.6,0-1.1-0.3-1.4-0.7c-0.3-0.5-0.4-1-0.3-1.6l5-16.7C136.1,8.2,147.1,0,159.9,0H201
			c0.6,0,1.1,0.3,1.4,0.7c0.3,0.5,0.4,1,0.3,1.6l-5,16.7C194,31.3,183,39.6,170.2,39.6z M131.5,36h38.7c11.2,0,20.9-7.2,24.1-17.9
			l4.3-14.4h-38.7c-11.2,0-20.9,7.2-24.1,17.9L131.5,36z"/>
	</g>
	<g>
		<path class="st0" d="M111.1,66.5c-1,0-1.8-0.8-1.8-1.8v-18c0-15.9,12.9-28.8,28.8-28.8h27c1,0,1.8,0.8,1.8,1.8
			c0,1-0.8,1.8-1.8,1.8h-27c-13.9,0-25.2,11.3-25.2,25.2v18C112.9,65.7,112.1,66.5,111.1,66.5z"/>
	</g>
	<g>
		<path class="st0" d="M51.8,196h-3.6c-1,0-1.8-0.8-1.8-1.8c0-1,0.8-1.8,1.8-1.8h3.6c1,0,1.8,0.8,1.8,1.8
			C53.6,195.2,52.8,196,51.8,196z"/>
	</g>
	<g>
		<path class="st0" d="M41,196H1.4c-1,0-1.8-0.8-1.8-1.8c0-1,0.8-1.8,1.8-1.8H41c1,0,1.8,0.8,1.8,1.8C42.8,195.2,42,196,41,196z"/>
	</g>
	<g>
		<path class="st0" d="M175.8,196h-3.6c-1,0-1.8-0.8-1.8-1.8c0-1,0.8-1.8,1.8-1.8h3.6c1,0,1.8,0.8,1.8,1.8
			C177.6,195.2,176.8,196,175.8,196z"/>
	</g>
	<g>
		<path class="st0" d="M222.6,196H183c-1,0-1.8-0.8-1.8-1.8c0-1,0.8-1.8,1.8-1.8h39.6c1,0,1.8,0.8,1.8,1.8
			C224.4,195.2,223.6,196,222.6,196z"/>
	</g>
	<g>
		<path class="st0" d="M219,61.5h-14.4c-1,0-1.8-0.8-1.8-1.8c0-1,0.8-1.8,1.8-1.8H219c1,0,1.8,0.8,1.8,1.8
			C220.8,60.7,220,61.5,219,61.5z"/>
	</g>
	<g>
		<path class="st0" d="M211.8,68.7c-1,0-1.8-0.8-1.8-1.8V52.5c0-1,0.8-1.8,1.8-1.8c1,0,1.8,0.8,1.8,1.8v14.4
			C213.6,67.9,212.8,68.7,211.8,68.7z"/>
	</g>
	<g>
		<path class="st0" d="M204.6,84.8h-14.4c-1,0-1.8-0.8-1.8-1.8c0-1,0.8-1.8,1.8-1.8h14.4c1,0,1.8,0.8,1.8,1.8
			C206.4,84,205.6,84.8,204.6,84.8z"/>
	</g>
	<g>
		<path class="st0" d="M197.4,92c-1,0-1.8-0.8-1.8-1.8V75.8c0-1,0.8-1.8,1.8-1.8c1,0,1.8,0.8,1.8,1.8v14.4
			C199.2,91.2,198.4,92,197.4,92z"/>
	</g>
</g>
</svg>
